# Blender 5.2.1 LTS
# www.blender.org
mtllib bike.mtl
o Wheel_00
v -0.548800 0.425600 0.492800
v -0.302400 0.425600 0.492800
v -0.548800 0.235200 0.543817
v -0.302400 0.235200 0.543817
v -0.548800 0.095818 0.683200
v -0.302400 0.095818 0.683200
v -0.548800 0.044800 0.873600
v -0.302400 0.044800 0.873600
v -0.548800 0.095818 1.064000
v -0.302400 0.095818 1.064000
v -0.548800 0.235200 1.203382
v -0.302400 0.235200 1.203382
v -0.548800 0.425600 1.254400
v -0.302400 0.425600 1.254400
v -0.548800 0.616000 1.203382
v -0.302400 0.616000 1.203382
v -0.548800 0.755382 1.064000
v -0.302400 0.755382 1.064000
v -0.548800 0.806400 0.873600
v -0.302400 0.806400 0.873600
v -0.548800 0.755382 0.683200
v -0.302400 0.755382 0.683200
v -0.548800 0.616000 0.543817
v -0.302400 0.616000 0.543817
vn -0.0000 -0.2588 -0.9659
vn -0.0000 -0.7071 -0.7071
vn -0.0000 -0.9659 -0.2588
vn -0.0000 -0.9659 0.2588
vn -0.0000 -0.7071 0.7071
vn -0.0000 -0.2588 0.9659
vn -0.0000 0.2588 0.9659
vn -0.0000 0.7071 0.7071
vn -0.0000 0.9659 0.2588
vn -0.0000 0.9659 -0.2588
vn 1.0000 -0.0000 -0.0000
vn -0.0000 0.7071 -0.7071
vn -0.0000 0.2588 -0.9659
vn -1.0000 -0.0000 -0.0000
vt 0.875000 0.125000
s 0
usemtl MilitaryEnemyPalette
f 1/1/1 2/1/1 4/1/1 3/1/1
f 3/1/2 4/1/2 6/1/2 5/1/2
f 5/1/3 6/1/3 8/1/3 7/1/3
f 7/1/4 8/1/4 10/1/4 9/1/4
f 9/1/5 10/1/5 12/1/5 11/1/5
f 11/1/6 12/1/6 14/1/6 13/1/6
f 13/1/7 14/1/7 16/1/7 15/1/7
f 15/1/8 16/1/8 18/1/8 17/1/8
f 17/1/9 18/1/9 20/1/9 19/1/9
f 19/1/10 20/1/10 22/1/10 21/1/10
f 4/1/11 2/1/11 24/1/11 22/1/11 20/1/11 18/1/11 16/1/11 14/1/11 12/1/11 10/1/11 8/1/11 6/1/11
f 21/1/12 22/1/12 24/1/12 23/1/12
f 23/1/13 24/1/13 2/1/13 1/1/13
f 1/1/14 3/1/14 5/1/14 7/1/14 9/1/14 11/1/14 13/1/14 15/1/14 17/1/14 19/1/14 21/1/14 23/1/14
o Wheel_01
v -0.548800 0.425600 -1.254400
v -0.302400 0.425600 -1.254400
v -0.548800 0.235200 -1.203382
v -0.302400 0.235200 -1.203382
v -0.548800 0.095818 -1.064000
v -0.302400 0.095818 -1.064000
v -0.548800 0.044800 -0.873600
v -0.302400 0.044800 -0.873600
v -0.548800 0.095818 -0.683200
v -0.302400 0.095818 -0.683200
v -0.548800 0.235200 -0.543817
v -0.302400 0.235200 -0.543817
v -0.548800 0.425600 -0.492800
v -0.302400 0.425600 -0.492800
v -0.548800 0.616000 -0.543817
v -0.302400 0.616000 -0.543817
v -0.548800 0.755382 -0.683200
v -0.302400 0.755382 -0.683200
v -0.548800 0.806400 -0.873600
v -0.302400 0.806400 -0.873600
v -0.548800 0.755382 -1.064000
v -0.302400 0.755382 -1.064000
v -0.548800 0.616000 -1.203382
v -0.302400 0.616000 -1.203382
vn -0.0000 -0.2588 -0.9659
vn -0.0000 -0.7071 -0.7071
vn -0.0000 -0.9659 -0.2588
vn -0.0000 -0.9659 0.2588
vn -0.0000 -0.7071 0.7071
vn -0.0000 -0.2588 0.9659
vn -0.0000 0.2588 0.9659
vn -0.0000 0.7071 0.7071
vn -0.0000 0.9659 0.2588
vn -0.0000 0.9659 -0.2588
vn 1.0000 -0.0000 -0.0000
vn -0.0000 0.7071 -0.7071
vn -0.0000 0.2588 -0.9659
vn -1.0000 -0.0000 -0.0000
vt 0.875000 0.125000
s 0
usemtl MilitaryEnemyPalette
f 25/2/15 26/2/15 28/2/15 27/2/15
f 27/2/16 28/2/16 30/2/16 29/2/16
f 29/2/17 30/2/17 32/2/17 31/2/17
f 31/2/18 32/2/18 34/2/18 33/2/18
f 33/2/19 34/2/19 36/2/19 35/2/19
f 35/2/20 36/2/20 38/2/20 37/2/20
f 37/2/21 38/2/21 40/2/21 39/2/21
f 39/2/22 40/2/22 42/2/22 41/2/22
f 41/2/23 42/2/23 44/2/23 43/2/23
f 43/2/24 44/2/24 46/2/24 45/2/24
f 28/2/25 26/2/25 48/2/25 46/2/25 44/2/25 42/2/25 40/2/25 38/2/25 36/2/25 34/2/25 32/2/25 30/2/25
f 45/2/26 46/2/26 48/2/26 47/2/26
f 47/2/27 48/2/27 26/2/27 25/2/27
f 25/2/28 27/2/28 29/2/28 31/2/28 33/2/28 35/2/28 37/2/28 39/2/28 41/2/28 43/2/28 45/2/28 47/2/28
o Body
v -0.616000 0.414400 -0.044800
v -0.616000 0.772800 -0.044800
v -0.616000 0.414400 -0.448000
v -0.616000 0.772800 -0.448000
v -0.235200 0.414400 -0.044800
v -0.235200 0.772800 -0.044800
v -0.235200 0.414400 -0.448000
v -0.235200 0.772800 -0.448000
v -0.548800 0.660800 0.868000
v -0.548800 0.840000 0.868000
v -0.548800 0.660800 -0.868000
v -0.548800 0.840000 -0.868000
v -0.302400 0.660800 0.868000
v -0.302400 0.840000 0.868000
v -0.302400 0.660800 -0.868000
v -0.302400 0.840000 -0.868000
v -0.683200 0.666400 0.515200
v -0.168000 0.666400 0.515200
v -0.168000 0.666400 -0.246400
v -0.683200 0.666400 -0.246400
v -0.683200 1.170400 0.515200
v -0.168000 1.039360 0.515200
v -0.168000 1.039360 -0.246400
v -0.683200 1.170400 -0.246400
v -0.638400 0.873600 -0.168000
v -0.638400 1.052800 -0.168000
v -0.638400 0.873600 -0.772800
v -0.638400 1.052800 -0.772800
v -0.212800 0.873600 -0.168000
v -0.212800 1.052800 -0.168000
v -0.212800 0.873600 -0.772800
v -0.212800 1.052800 -0.772800
v -0.425600 0.866362 0.126109
v -0.425600 0.687162 0.887709
v -0.372253 0.836381 0.119054
v -0.372253 0.657181 0.880654
v -0.372253 0.776419 0.104946
v -0.372253 0.597219 0.866546
v -0.425600 0.746438 0.097891
v -0.425600 0.567237 0.859491
v -0.478947 0.776419 0.104946
v -0.478947 0.597219 0.866546
v -0.478947 0.836381 0.119054
v -0.478947 0.657181 0.880654
v -0.224000 0.866362 0.126109
v -0.224000 0.687162 0.887709
v -0.170653 0.836381 0.119054
v -0.170653 0.657181 0.880654
v -0.170653 0.776419 0.104946
v -0.170653 0.597219 0.866546
v -0.224000 0.746438 0.097891
v -0.224000 0.567237 0.859491
v -0.277347 0.776419 0.104946
v -0.277347 0.597219 0.866546
v -0.277347 0.836381 0.119054
v -0.277347 0.657181 0.880654
v -0.907200 1.131200 0.660800
v -0.907200 1.220800 0.660800
v -0.907200 1.131200 0.571200
v -0.907200 1.220800 0.571200
v 0.056000 1.131200 0.660800
v 0.056000 1.220800 0.660800
v 0.056000 1.131200 0.571200
v 0.056000 1.220800 0.571200
v -0.604800 0.817600 0.968800
v -0.604800 1.064000 0.968800
v -0.604800 0.817600 0.890400
v -0.604800 1.064000 0.890400
v -0.246400 0.817600 0.968800
v -0.246400 1.064000 0.968800
v -0.246400 0.817600 0.890400
v -0.246400 1.064000 0.890400
v -0.750400 0.884800 -0.655200
v -0.750400 0.974400 -0.655200
v -0.750400 0.884800 -1.047200
v -0.750400 0.974400 -1.047200
v -0.100800 0.884800 -0.655200
v -0.100800 0.974400 -0.655200
v -0.100800 0.884800 -1.047200
v -0.100800 0.974400 -1.047200
vn -1.0000 -0.0000 -0.0000
vn -0.0000 -0.0000 -1.0000
vn 1.0000 -0.0000 -0.0000
vn -0.0000 -0.0000 1.0000
vn -0.0000 -1.0000 -0.0000
vn -0.0000 1.0000 -0.0000
vn 0.2465 0.9691 -0.0000
vn 0.5000 0.8430 0.1984
vn 0.5000 -0.8430 -0.1984
vn -0.5000 -0.8430 -0.1984
vn -0.0000 -0.2290 0.9734
vn -0.5000 0.8430 0.1984
vn -0.0000 0.2290 -0.9734
vt 0.375000 0.625000
vt 0.125000 0.375000
vt 0.125000 0.125000
vt 0.625000 0.125000
vt 0.125000 0.625000
s 0
usemtl MilitaryEnemyPalette
f 49/3/29 50/3/29 52/3/29 51/3/29
f 51/3/30 52/3/30 56/3/30 55/3/30
f 55/3/31 56/3/31 54/3/31 53/3/31
f 53/3/32 54/3/32 50/3/32 49/3/32
f 51/3/33 55/3/33 53/3/33 49/3/33
f 56/3/34 52/3/34 50/3/34 54/3/34
f 57/4/29 58/4/29 60/4/29 59/4/29
f 59/4/30 60/4/30 64/4/30 63/4/30
f 63/4/31 64/4/31 62/4/31 61/4/31
f 61/4/32 62/4/32 58/4/32 57/4/32
f 59/4/33 63/4/33 61/4/33 57/4/33
f 64/4/34 60/4/34 58/4/34 62/4/34
f 65/5/33 68/5/33 67/5/33 66/5/33
f 65/5/32 66/5/32 70/5/32 69/5/32
f 66/5/31 67/5/31 71/5/31 70/5/31
f 67/5/30 68/5/30 72/5/30 71/5/30
f 68/5/29 65/5/29 69/5/29 72/5/29
f 69/5/35 70/5/35 71/5/35 72/5/35
f 73/6/29 74/6/29 76/6/29 75/6/29
f 75/6/30 76/6/30 80/6/30 79/6/30
f 79/6/31 80/6/31 78/6/31 77/6/31
f 77/6/32 78/6/32 74/6/32 73/6/32
f 75/6/33 79/6/33 77/6/33 73/6/33
f 80/6/34 76/6/34 74/6/34 78/6/34
f 81/4/36 82/4/36 84/4/36 83/4/36
f 83/4/31 84/4/31 86/4/31 85/4/31
f 85/4/37 86/4/37 88/4/37 87/4/37
f 87/4/38 88/4/38 90/4/38 89/4/38
f 84/4/39 82/4/39 92/4/39 90/4/39 88/4/39 86/4/39
f 89/4/29 90/4/29 92/4/29 91/4/29
f 91/4/40 92/4/40 82/4/40 81/4/40
f 81/4/41 83/4/41 85/4/41 87/4/41 89/4/41 91/4/41
f 93/4/36 94/4/36 96/4/36 95/4/36
f 95/4/31 96/4/31 98/4/31 97/4/31
f 97/4/37 98/4/37 100/4/37 99/4/37
f 99/4/38 100/4/38 102/4/38 101/4/38
f 96/4/39 94/4/39 104/4/39 102/4/39 100/4/39 98/4/39
f 101/4/29 102/4/29 104/4/29 103/4/29
f 103/4/40 104/4/40 94/4/40 93/4/40
f 93/4/41 95/4/41 97/4/41 99/4/41 101/4/41 103/4/41
f 105/4/29 106/4/29 108/4/29 107/4/29
f 107/4/30 108/4/30 112/4/30 111/4/30
f 111/4/31 112/4/31 110/4/31 109/4/31
f 109/4/32 110/4/32 106/4/32 105/4/32
f 107/4/33 111/4/33 109/4/33 105/4/33
f 112/4/34 108/4/34 106/4/34 110/4/34
f 113/7/29 114/7/29 116/7/29 115/7/29
f 115/7/30 116/7/30 120/7/30 119/7/30
f 119/7/31 120/7/31 118/7/31 117/7/31
f 117/7/32 118/7/32 114/7/32 113/7/32
f 115/7/33 119/7/33 117/7/33 113/7/33
f 120/7/34 116/7/34 114/7/34 118/7/34
f 121/4/29 122/4/29 124/4/29 123/4/29
f 123/4/30 124/4/30 128/4/30 127/4/30
f 127/4/31 128/4/31 126/4/31 125/4/31
f 125/4/32 126/4/32 122/4/32 121/4/32
f 123/4/33 127/4/33 125/4/33 121/4/33
f 128/4/34 124/4/34 122/4/34 126/4/34
