# Blender 5.2.1 LTS
# www.blender.org
mtllib drone.mtl
o Body.002
v -1.248960 -0.064000 0.736000
v -1.248960 0.064000 0.736000
v -1.248960 -0.064000 0.608000
v -1.248960 0.064000 0.608000
v -0.048960 -0.064000 0.736000
v -0.048960 0.064000 0.736000
v -0.048960 -0.064000 0.608000
v -0.048960 0.064000 0.608000
v -0.448000 -0.272000 0.816000
v -0.448000 -0.144000 0.944000
v -0.576000 -0.144000 0.816000
v -0.448000 0.144000 0.944000
v -0.448000 0.272000 0.816000
v -0.576000 0.144000 0.816000
v -0.448000 -0.272000 -0.816000
v -0.576000 -0.144000 -0.816000
v -0.448000 -0.144000 -0.944000
v -0.448000 0.272000 -0.816000
v -0.448000 0.144000 -0.944000
v -0.576000 0.144000 -0.816000
v 0.448000 -0.272000 0.816000
v 0.576000 -0.144000 0.816000
v 0.448000 -0.144000 0.944000
v 0.448000 0.272000 0.816000
v 0.448000 0.144000 0.944000
v 0.576000 0.144000 0.816000
v 0.448000 -0.272000 -0.816000
v 0.448000 -0.144000 -0.944000
v 0.576000 -0.144000 -0.816000
v 0.448000 0.272000 -0.816000
v 0.576000 0.144000 -0.816000
v 0.448000 0.144000 -0.944000
v -0.400000 -0.240000 1.688000
v 0.400000 -0.240000 1.688000
v 0.400000 -0.240000 0.808000
v -0.400000 -0.240000 0.808000
v -0.400000 0.240000 1.688000
v 0.400000 0.115200 1.688000
v 0.400000 0.115200 0.808000
v -0.400000 0.240000 0.808000
v -0.288000 0.032000 1.216000
v -0.288000 0.288000 1.216000
v -0.288000 0.032000 1.088000
v -0.288000 0.288000 1.088000
v 0.288000 0.032000 1.216000
v 0.288000 0.288000 1.216000
v 0.288000 0.032000 1.088000
v 0.288000 0.288000 1.088000
v 0.048960 -0.064000 0.736000
v 0.048960 0.064000 0.736000
v 0.048960 -0.064000 0.608000
v 0.048960 0.064000 0.608000
v 1.248960 -0.064000 0.736000
v 1.248960 0.064000 0.736000
v 1.248960 -0.064000 0.608000
v 1.248960 0.064000 0.608000
v -1.248960 -0.064000 -0.656000
v -1.248960 0.064000 -0.656000
v -1.248960 -0.064000 -0.784000
v -1.248960 0.064000 -0.784000
v -0.048960 -0.064000 -0.656000
v -0.048960 0.064000 -0.656000
v -0.048960 -0.064000 -0.784000
v -0.048960 0.064000 -0.784000
v 0.048960 -0.064000 -0.656000
v 0.048960 0.064000 -0.656000
v 0.048960 -0.064000 -0.784000
v 0.048960 0.064000 -0.784000
v 1.248960 -0.064000 -0.656000
v 1.248960 0.064000 -0.656000
v 1.248960 -0.064000 -0.784000
v 1.248960 0.064000 -0.784000
v 0.000000 0.000000 0.752000
v 0.000000 -0.000000 1.904000
v 0.090510 -0.037490 0.752000
v 0.090510 -0.037490 1.904000
v 0.128000 -0.128000 0.752000
v 0.128000 -0.128000 1.904000
v 0.090510 -0.218510 0.752000
v 0.090510 -0.218510 1.904000
v 0.000000 -0.256000 0.752000
v 0.000000 -0.256000 1.904000
v -0.090510 -0.218510 0.752000
v -0.090510 -0.218510 1.904000
v -0.128000 -0.128000 0.752000
v -0.128000 -0.128000 1.904000
v -0.090510 -0.037490 0.752000
v -0.090510 -0.037490 1.904000
v -0.416000 -0.256000 -0.416000
v -0.416000 0.096000 -0.416000
v -0.416000 -0.256000 -0.864000
v -0.416000 0.096000 -0.864000
v 0.416000 -0.256000 -0.416000
v 0.416000 0.096000 -0.416000
v 0.416000 -0.256000 -0.864000
v 0.416000 0.096000 -0.864000
v -0.512000 -0.093353 -0.332011
v -0.512000 -0.573353 0.499989
v -0.477359 -0.110676 -0.342006
v -0.477359 -0.590676 0.489994
v -0.477359 -0.145324 -0.361995
v -0.477359 -0.625324 0.470006
v -0.512000 -0.162647 -0.371989
v -0.512000 -0.642647 0.460011
v -0.546641 -0.145324 -0.361995
v -0.546641 -0.625324 0.470006
v -0.546641 -0.110676 -0.342006
v -0.546641 -0.590676 0.489994
v -0.512000 -0.664000 0.736000
v -0.512000 -0.664000 -0.768000
v -0.477359 -0.644000 0.736000
v -0.477359 -0.644000 -0.768000
v -0.477359 -0.604000 0.736000
v -0.477359 -0.604000 -0.768000
v -0.512000 -0.584000 0.736000
v -0.512000 -0.584000 -0.768000
v -0.546641 -0.604000 0.736000
v -0.546641 -0.604000 -0.768000
v -0.546641 -0.644000 0.736000
v -0.546641 -0.644000 -0.768000
v 0.512000 -0.093353 -0.332011
v 0.512000 -0.573353 0.499989
v 0.546641 -0.110676 -0.342006
v 0.546641 -0.590676 0.489994
v 0.546641 -0.145324 -0.361995
v 0.546641 -0.625324 0.470006
v 0.512000 -0.162647 -0.371989
v 0.512000 -0.642647 0.460011
v 0.477359 -0.145324 -0.361995
v 0.477359 -0.625324 0.470006
v 0.477359 -0.110676 -0.342006
v 0.477359 -0.590676 0.489994
v 0.512000 -0.664000 0.736000
v 0.512000 -0.664000 -0.768000
v 0.546641 -0.644000 0.736000
v 0.546641 -0.644000 -0.768000
v 0.546641 -0.604000 0.736000
v 0.546641 -0.604000 -0.768000
v 0.512000 -0.584000 0.736000
v 0.512000 -0.584000 -0.768000
v 0.477359 -0.604000 0.736000
v 0.477359 -0.604000 -0.768000
v 0.477359 -0.644000 0.736000
v 0.477359 -0.644000 -0.768000
v -0.304000 0.280000 0.377600
v -0.304000 0.302400 0.377600
v -0.304000 0.280000 0.326400
v -0.304000 0.302400 0.326400
v 0.304000 0.280000 0.377600
v 0.304000 0.302400 0.377600
v 0.304000 0.280000 0.326400
v 0.304000 0.302400 0.326400
v -0.304000 0.280000 0.153600
v -0.304000 0.302400 0.153600
v -0.304000 0.280000 0.102400
v -0.304000 0.302400 0.102400
v 0.304000 0.280000 0.153600
v 0.304000 0.302400 0.153600
v 0.304000 0.280000 0.102400
v 0.304000 0.302400 0.102400
v -0.304000 0.280000 -0.070400
v -0.304000 0.302400 -0.070400
v -0.304000 0.280000 -0.121600
v -0.304000 0.302400 -0.121600
v 0.304000 0.280000 -0.070400
v 0.304000 0.302400 -0.070400
v 0.304000 0.280000 -0.121600
v 0.304000 0.302400 -0.121600
v -0.304000 0.280000 -0.294400
v -0.304000 0.302400 -0.294400
v -0.304000 0.280000 -0.345600
v -0.304000 0.302400 -0.345600
v 0.304000 0.280000 -0.294400
v 0.304000 0.302400 -0.294400
v 0.304000 0.280000 -0.345600
v 0.304000 0.302400 -0.345600
v 0.000000 -0.544000 0.640000
v 0.000000 -0.288000 0.640000
v 0.112000 -0.544000 0.670010
v 0.112000 -0.288000 0.670010
v 0.193990 -0.544000 0.752000
v 0.193990 -0.288000 0.752000
v 0.224000 -0.544000 0.864000
v 0.224000 -0.288000 0.864000
v 0.193990 -0.544000 0.976000
v 0.193990 -0.288000 0.976000
v 0.112000 -0.544000 1.057990
v 0.112000 -0.288000 1.057990
v 0.000000 -0.544000 1.088000
v 0.000000 -0.288000 1.088000
v -0.112000 -0.544000 1.057990
v -0.112000 -0.288000 1.057990
v -0.193990 -0.544000 0.976000
v -0.193990 -0.288000 0.976000
v -0.224000 -0.544000 0.864000
v -0.224000 -0.288000 0.864000
v -0.193990 -0.544000 0.752000
v -0.193990 -0.288000 0.752000
v -0.112000 -0.544000 0.670010
v -0.112000 -0.288000 0.670010
v 0.000000 -0.299200 0.995200
v 0.000000 -0.299200 1.036800
v 0.066400 -0.316992 0.995200
v 0.066400 -0.316992 1.036800
v 0.115008 -0.365600 0.995200
v 0.115008 -0.365600 1.036800
v 0.132800 -0.432000 0.995200
v 0.132800 -0.432000 1.036800
v 0.115008 -0.498400 0.995200
v 0.115008 -0.498400 1.036800
v 0.066400 -0.547008 0.995200
v 0.066400 -0.547008 1.036800
v 0.000000 -0.564800 0.995200
v 0.000000 -0.564800 1.036800
v -0.066400 -0.547008 0.995200
v -0.066400 -0.547008 1.036800
v -0.115008 -0.498400 0.995200
v -0.115008 -0.498400 1.036800
v -0.132800 -0.432000 0.995200
v -0.132800 -0.432000 1.036800
v -0.115008 -0.365600 0.995200
v -0.115008 -0.365600 1.036800
v -0.066400 -0.316992 0.995200
v -0.066400 -0.316992 1.036800
vn -1.0000 -0.0000 -0.0000
vn -0.0000 -0.0000 -1.0000
vn 1.0000 -0.0000 -0.0000
vn -0.0000 -0.0000 1.0000
vn -0.0000 -1.0000 -0.0000
vn -0.0000 1.0000 -0.0000
vn -0.5774 -0.5774 0.5774
vn -0.5774 0.5774 0.5774
vn -0.5774 -0.5774 -0.5773
vn -0.5774 0.5774 -0.5773
vn 0.5774 -0.5774 0.5774
vn 0.5774 0.5774 0.5774
vn 0.5774 -0.5774 -0.5773
vn 0.5774 0.5774 -0.5773
vn -0.7071 -0.7071 -0.0000
vn -0.7071 -0.0000 0.7071
vn -0.7071 0.7071 -0.0000
vn -0.7071 -0.0000 -0.7071
vn -0.0000 -0.7071 -0.7071
vn -0.0000 0.7071 -0.7071
vn 0.7071 -0.0000 -0.7071
vn 0.7071 -0.7071 -0.0000
vn 0.7071 0.7071 -0.0000
vn 0.7071 -0.0000 0.7071
vn -0.0000 -0.7071 0.7071
vn -0.0000 0.7071 0.7071
vn 0.1541 0.9880 -0.0000
vn 0.3827 0.9239 -0.0000
vn 0.9239 0.3827 -0.0000
vn 0.9239 -0.3827 -0.0000
vn 0.3827 -0.9239 -0.0000
vn -0.3827 -0.9239 -0.0000
vn -0.9239 -0.3827 -0.0000
vn -0.9239 0.3827 -0.0000
vn -0.3827 0.9239 -0.0000
vn 0.5000 0.7501 0.4328
vn 0.5000 -0.7501 -0.4328
vn -0.5000 -0.7501 -0.4328
vn -0.0000 -0.4997 0.8662
vn -0.5000 0.7501 0.4328
vn -0.0000 0.4997 -0.8662
vn 0.5000 -0.8660 -0.0000
vn 0.5000 0.8660 -0.0000
vn -0.5000 0.8660 -0.0000
vn -0.5000 -0.8660 -0.0000
vn 0.2588 -0.0000 -0.9659
vn 0.9659 -0.0000 -0.2588
vn 0.9659 -0.0000 0.2588
vn 0.2588 -0.0000 0.9659
vn -0.2588 -0.0000 0.9659
vn -0.9659 -0.0000 0.2588
vn -0.9659 -0.0000 -0.2588
vn -0.2588 -0.0000 -0.9659
vn 0.2588 0.9659 -0.0000
vn 0.9659 0.2588 -0.0000
vn 0.9659 -0.2588 -0.0000
vn 0.2588 -0.9659 -0.0000
vn -0.2588 -0.9659 -0.0000
vn -0.9659 -0.2588 -0.0000
vn -0.9659 0.2588 -0.0000
vn -0.2588 0.9659 -0.0000
vt 0.125000 0.375000
vt 0.125000 0.125000
vt 0.375000 0.125000
vt 0.375000 0.375000
vt 0.375000 0.625000
s 0
usemtl MilitaryEnemyPalette.003
f 1/1/1 2/1/1 4/1/1 3/1/1
f 3/1/2 4/1/2 8/1/2 7/1/2
f 7/1/3 8/1/3 6/1/3 5/1/3
f 5/1/4 6/1/4 2/1/4 1/1/4
f 3/1/5 7/1/5 5/1/5 1/1/5
f 8/1/6 4/1/6 2/1/6 6/1/6
f 9/2/7 10/2/7 11/2/7
f 12/2/8 13/2/8 14/2/8
f 15/2/9 16/2/9 17/2/9
f 18/2/10 19/2/10 20/2/10
f 21/2/11 22/2/11 23/2/11
f 24/2/12 25/2/12 26/2/12
f 27/2/13 28/2/13 29/2/13
f 30/2/14 31/2/14 32/2/14
f 15/2/15 9/2/15 11/2/15 16/2/15
f 10/2/16 12/2/16 14/2/16 11/2/16
f 13/2/17 18/2/17 20/2/17 14/2/17
f 19/2/18 17/2/18 16/2/18 20/2/18
f 27/2/19 15/2/19 17/2/19 28/2/19
f 18/2/20 30/2/20 32/2/20 19/2/20
f 31/2/21 29/2/21 28/2/21 32/2/21
f 21/2/22 27/2/22 29/2/22 22/2/22
f 30/2/23 24/2/23 26/2/23 31/2/23
f 25/2/24 23/2/24 22/2/24 26/2/24
f 9/2/25 21/2/25 23/2/25 10/2/25
f 24/2/26 13/2/26 12/2/26 25/2/26
f 15/2/5 27/2/5 21/2/5 9/2/5
f 11/2/1 14/2/1 20/2/1 16/2/1
f 23/2/4 25/2/4 12/2/4 10/2/4
f 30/2/6 18/2/6 13/2/6 24/2/6
f 17/2/2 19/2/2 32/2/2 28/2/2
f 29/2/3 31/2/3 26/2/3 22/2/3
f 33/3/5 36/3/5 35/3/5 34/3/5
f 33/3/4 34/3/4 38/3/4 37/3/4
f 34/3/3 35/3/3 39/3/3 38/3/3
f 35/3/2 36/3/2 40/3/2 39/3/2
f 36/3/1 33/3/1 37/3/1 40/3/1
f 37/3/27 38/3/27 39/3/27 40/3/27
f 41/4/1 42/4/1 44/4/1 43/4/1
f 43/4/2 44/4/2 48/4/2 47/4/2
f 47/4/3 48/4/3 46/4/3 45/4/3
f 45/4/4 46/4/4 42/4/4 41/4/4
f 43/4/5 47/4/5 45/4/5 41/4/5
f 48/4/6 44/4/6 42/4/6 46/4/6
f 49/1/1 50/1/1 52/1/1 51/1/1
f 51/1/2 52/1/2 56/1/2 55/1/2
f 55/1/3 56/1/3 54/1/3 53/1/3
f 53/1/4 54/1/4 50/1/4 49/1/4
f 51/1/5 55/1/5 53/1/5 49/1/5
f 56/1/6 52/1/6 50/1/6 54/1/6
f 57/1/1 58/1/1 60/1/1 59/1/1
f 59/1/2 60/1/2 64/1/2 63/1/2
f 63/1/3 64/1/3 62/1/3 61/1/3
f 61/1/4 62/1/4 58/1/4 57/1/4
f 59/1/5 63/1/5 61/1/5 57/1/5
f 64/1/6 60/1/6 58/1/6 62/1/6
f 65/1/1 66/1/1 68/1/1 67/1/1
f 67/1/2 68/1/2 72/1/2 71/1/2
f 71/1/3 72/1/3 70/1/3 69/1/3
f 69/1/4 70/1/4 66/1/4 65/1/4
f 67/1/5 71/1/5 69/1/5 65/1/5
f 72/1/6 68/1/6 66/1/6 70/1/6
f 73/1/28 74/1/28 76/1/28 75/1/28
f 75/1/29 76/1/29 78/1/29 77/1/29
f 77/1/30 78/1/30 80/1/30 79/1/30
f 79/1/31 80/1/31 82/1/31 81/1/31
f 81/1/32 82/1/32 84/1/32 83/1/32
f 83/1/33 84/1/33 86/1/33 85/1/33
f 76/1/4 74/1/4 88/1/4 86/1/4 84/1/4 82/1/4 80/1/4 78/1/4
f 85/1/34 86/1/34 88/1/34 87/1/34
f 87/1/35 88/1/35 74/1/35 73/1/35
f 73/1/2 75/1/2 77/1/2 79/1/2 81/1/2 83/1/2 85/1/2 87/1/2
f 89/5/1 90/5/1 92/5/1 91/5/1
f 91/5/2 92/5/2 96/5/2 95/5/2
f 95/5/3 96/5/3 94/5/3 93/5/3
f 93/5/4 94/5/4 90/5/4 89/5/4
f 91/5/5 95/5/5 93/5/5 89/5/5
f 96/5/6 92/5/6 90/5/6 94/5/6
f 97/1/36 98/1/36 100/1/36 99/1/36
f 99/1/3 100/1/3 102/1/3 101/1/3
f 101/1/37 102/1/37 104/1/37 103/1/37
f 103/1/38 104/1/38 106/1/38 105/1/38
f 100/1/39 98/1/39 108/1/39 106/1/39 104/1/39 102/1/39
f 105/1/1 106/1/1 108/1/1 107/1/1
f 107/1/40 108/1/40 98/1/40 97/1/40
f 97/1/41 99/1/41 101/1/41 103/1/41 105/1/41 107/1/41
f 109/1/42 110/1/42 112/1/42 111/1/42
f 111/1/3 112/1/3 114/1/3 113/1/3
f 113/1/43 114/1/43 116/1/43 115/1/43
f 115/1/44 116/1/44 118/1/44 117/1/44
f 112/1/2 110/1/2 120/1/2 118/1/2 116/1/2 114/1/2
f 117/1/1 118/1/1 120/1/1 119/1/1
f 119/1/45 120/1/45 110/1/45 109/1/45
f 109/1/4 111/1/4 113/1/4 115/1/4 117/1/4 119/1/4
f 121/1/36 122/1/36 124/1/36 123/1/36
f 123/1/3 124/1/3 126/1/3 125/1/3
f 125/1/37 126/1/37 128/1/37 127/1/37
f 127/1/38 128/1/38 130/1/38 129/1/38
f 124/1/39 122/1/39 132/1/39 130/1/39 128/1/39 126/1/39
f 129/1/1 130/1/1 132/1/1 131/1/1
f 131/1/40 132/1/40 122/1/40 121/1/40
f 121/1/41 123/1/41 125/1/41 127/1/41 129/1/41 131/1/41
f 133/1/42 134/1/42 136/1/42 135/1/42
f 135/1/3 136/1/3 138/1/3 137/1/3
f 137/1/43 138/1/43 140/1/43 139/1/43
f 139/1/44 140/1/44 142/1/44 141/1/44
f 136/1/2 134/1/2 144/1/2 142/1/2 140/1/2 138/1/2
f 141/1/1 142/1/1 144/1/1 143/1/1
f 143/1/45 144/1/45 134/1/45 133/1/45
f 133/1/4 135/1/4 137/1/4 139/1/4 141/1/4 143/1/4
f 145/5/1 146/5/1 148/5/1 147/5/1
f 147/5/2 148/5/2 152/5/2 151/5/2
f 151/5/3 152/5/3 150/5/3 149/5/3
f 149/5/4 150/5/4 146/5/4 145/5/4
f 147/5/5 151/5/5 149/5/5 145/5/5
f 152/5/6 148/5/6 146/5/6 150/5/6
f 153/5/1 154/5/1 156/5/1 155/5/1
f 155/5/2 156/5/2 160/5/2 159/5/2
f 159/5/3 160/5/3 158/5/3 157/5/3
f 157/5/4 158/5/4 154/5/4 153/5/4
f 155/5/5 159/5/5 157/5/5 153/5/5
f 160/5/6 156/5/6 154/5/6 158/5/6
f 161/5/1 162/5/1 164/5/1 163/5/1
f 163/5/2 164/5/2 168/5/2 167/5/2
f 167/5/3 168/5/3 166/5/3 165/5/3
f 165/5/4 166/5/4 162/5/4 161/5/4
f 163/5/5 167/5/5 165/5/5 161/5/5
f 168/5/6 164/5/6 162/5/6 166/5/6
f 169/5/1 170/5/1 172/5/1 171/5/1
f 171/5/2 172/5/2 176/5/2 175/5/2
f 175/5/3 176/5/3 174/5/3 173/5/3
f 173/5/4 174/5/4 170/5/4 169/5/4
f 171/5/5 175/5/5 173/5/5 169/5/5
f 176/5/6 172/5/6 170/5/6 174/5/6
f 177/1/46 178/1/46 180/1/46 179/1/46
f 179/1/21 180/1/21 182/1/21 181/1/21
f 181/1/47 182/1/47 184/1/47 183/1/47
f 183/1/48 184/1/48 186/1/48 185/1/48
f 185/1/24 186/1/24 188/1/24 187/1/24
f 187/1/49 188/1/49 190/1/49 189/1/49
f 189/1/50 190/1/50 192/1/50 191/1/50
f 191/1/16 192/1/16 194/1/16 193/1/16
f 193/1/51 194/1/51 196/1/51 195/1/51
f 195/1/52 196/1/52 198/1/52 197/1/52
f 180/1/6 178/1/6 200/1/6 198/1/6 196/1/6 194/1/6 192/1/6 190/1/6 188/1/6 186/1/6 184/1/6 182/1/6
f 197/1/18 198/1/18 200/1/18 199/1/18
f 199/1/53 200/1/53 178/1/53 177/1/53
f 177/1/5 179/1/5 181/1/5 183/1/5 185/1/5 187/1/5 189/1/5 191/1/5 193/1/5 195/1/5 197/1/5 199/1/5
f 201/4/54 202/4/54 204/4/54 203/4/54
f 203/4/23 204/4/23 206/4/23 205/4/23
f 205/4/55 206/4/55 208/4/55 207/4/55
f 207/4/56 208/4/56 210/4/56 209/4/56
f 209/4/22 210/4/22 212/4/22 211/4/22
f 211/4/57 212/4/57 214/4/57 213/4/57
f 213/4/58 214/4/58 216/4/58 215/4/58
f 215/4/15 216/4/15 218/4/15 217/4/15
f 217/4/59 218/4/59 220/4/59 219/4/59
f 219/4/60 220/4/60 222/4/60 221/4/60
f 204/4/4 202/4/4 224/4/4 222/4/4 220/4/4 218/4/4 216/4/4 214/4/4 212/4/4 210/4/4 208/4/4 206/4/4
f 221/4/17 222/4/17 224/4/17 223/4/17
f 223/4/61 224/4/61 202/4/61 201/4/61
f 201/4/2 203/4/2 205/4/2 207/4/2 209/4/2 211/4/2 213/4/2 215/4/2 217/4/2 219/4/2 221/4/2 223/4/2
o Rotor_00
v -1.248000 0.100000 0.160000
v -1.248000 0.156000 0.160000
v -0.885961 0.100000 0.309961
v -0.885961 0.156000 0.309961
v -0.736000 0.100000 0.672000
v -0.736000 0.156000 0.672000
v -0.885961 0.100000 1.034039
v -0.885961 0.156000 1.034039
v -1.248000 0.100000 1.184000
v -1.248000 0.156000 1.184000
v -1.610039 0.100000 1.034039
v -1.610039 0.156000 1.034039
v -1.760000 0.100000 0.672000
v -1.760000 0.156000 0.672000
v -1.610039 0.100000 0.309961
v -1.610039 0.156000 0.309961
v -1.248000 0.024000 0.536000
v -1.248000 0.232000 0.536000
v -1.168061 0.024000 0.561974
v -1.168061 0.232000 0.561974
v -1.118656 0.024000 0.629974
v -1.118656 0.232000 0.629974
v -1.118656 0.024000 0.714026
v -1.118656 0.232000 0.714026
v -1.168061 0.024000 0.782026
v -1.168061 0.232000 0.782026
v -1.248000 0.024000 0.808000
v -1.248000 0.232000 0.808000
v -1.327939 0.024000 0.782026
v -1.327939 0.232000 0.782026
v -1.377344 0.024000 0.714026
v -1.377344 0.232000 0.714026
v -1.377344 0.024000 0.629974
v -1.377344 0.232000 0.629974
v -1.327939 0.024000 0.561974
v -1.327939 0.232000 0.561974
vn 0.3827 -0.0000 -0.9239
vn 0.9239 -0.0000 -0.3827
vn 0.9239 -0.0000 0.3827
vn 0.3827 -0.0000 0.9239
vn -0.3827 -0.0000 0.9239
vn -0.9239 -0.0000 0.3827
vn -0.0000 1.0000 -0.0000
vn -0.9239 -0.0000 -0.3827
vn -0.3827 -0.0000 -0.9239
vn -0.0000 -1.0000 -0.0000
vn 0.3090 -0.0000 -0.9511
vn 0.8090 -0.0000 -0.5878
vn 1.0000 -0.0000 -0.0000
vn 0.8090 -0.0000 0.5878
vn 0.3090 -0.0000 0.9511
vn -0.3090 -0.0000 0.9511
vn -0.8090 -0.0000 0.5878
vn -1.0000 -0.0000 -0.0000
vn -0.8090 -0.0000 -0.5878
vn -0.3090 -0.0000 -0.9511
vt 0.375000 0.625000
vt 0.125000 0.375000
s 0
usemtl MilitaryEnemyPalette.003
f 225/6/62 226/6/62 228/6/62 227/6/62
f 227/6/63 228/6/63 230/6/63 229/6/63
f 229/6/64 230/6/64 232/6/64 231/6/64
f 231/6/65 232/6/65 234/6/65 233/6/65
f 233/6/66 234/6/66 236/6/66 235/6/66
f 235/6/67 236/6/67 238/6/67 237/6/67
f 228/6/68 226/6/68 240/6/68 238/6/68 236/6/68 234/6/68 232/6/68 230/6/68
f 237/6/69 238/6/69 240/6/69 239/6/69
f 239/6/70 240/6/70 226/6/70 225/6/70
f 225/6/71 227/6/71 229/6/71 231/6/71 233/6/71 235/6/71 237/6/71 239/6/71
f 241/7/72 242/7/72 244/7/72 243/7/72
f 243/7/73 244/7/73 246/7/73 245/7/73
f 245/7/74 246/7/74 248/7/74 247/7/74
f 247/7/75 248/7/75 250/7/75 249/7/75
f 249/7/76 250/7/76 252/7/76 251/7/76
f 251/7/77 252/7/77 254/7/77 253/7/77
f 253/7/78 254/7/78 256/7/78 255/7/78
f 255/7/79 256/7/79 258/7/79 257/7/79
f 244/7/68 242/7/68 260/7/68 258/7/68 256/7/68 254/7/68 252/7/68 250/7/68 248/7/68 246/7/68
f 257/7/80 258/7/80 260/7/80 259/7/80
f 259/7/81 260/7/81 242/7/81 241/7/81
f 241/7/71 243/7/71 245/7/71 247/7/71 249/7/71 251/7/71 253/7/71 255/7/71 257/7/71 259/7/71
o Rotor_01
v 1.248000 0.100000 0.160000
v 1.248000 0.156000 0.160000
v 1.610039 0.100000 0.309961
v 1.610039 0.156000 0.309961
v 1.760000 0.100000 0.672000
v 1.760000 0.156000 0.672000
v 1.610039 0.100000 1.034039
v 1.610039 0.156000 1.034039
v 1.248000 0.100000 1.184000
v 1.248000 0.156000 1.184000
v 0.885961 0.100000 1.034039
v 0.885961 0.156000 1.034039
v 0.736000 0.100000 0.672000
v 0.736000 0.156000 0.672000
v 0.885961 0.100000 0.309961
v 0.885961 0.156000 0.309961
v 1.248000 0.024000 0.536000
v 1.248000 0.232000 0.536000
v 1.327939 0.024000 0.561974
v 1.327939 0.232000 0.561974
v 1.377344 0.024000 0.629974
v 1.377344 0.232000 0.629974
v 1.377344 0.024000 0.714026
v 1.377344 0.232000 0.714026
v 1.327939 0.024000 0.782026
v 1.327939 0.232000 0.782026
v 1.248000 0.024000 0.808000
v 1.248000 0.232000 0.808000
v 1.168061 0.024000 0.782026
v 1.168061 0.232000 0.782026
v 1.118656 0.024000 0.714026
v 1.118656 0.232000 0.714026
v 1.118656 0.024000 0.629974
v 1.118656 0.232000 0.629974
v 1.168061 0.024000 0.561974
v 1.168061 0.232000 0.561974
vn 0.3827 -0.0000 -0.9239
vn 0.9239 -0.0000 -0.3827
vn 0.9239 -0.0000 0.3827
vn 0.3827 -0.0000 0.9239
vn -0.3827 -0.0000 0.9239
vn -0.9239 -0.0000 0.3827
vn -0.0000 1.0000 -0.0000
vn -0.9239 -0.0000 -0.3827
vn -0.3827 -0.0000 -0.9239
vn -0.0000 -1.0000 -0.0000
vn 0.3090 -0.0000 -0.9511
vn 0.8090 -0.0000 -0.5878
vn 1.0000 -0.0000 -0.0000
vn 0.8090 -0.0000 0.5878
vn 0.3090 -0.0000 0.9511
vn -0.3090 -0.0000 0.9511
vn -0.8090 -0.0000 0.5878
vn -1.0000 -0.0000 -0.0000
vn -0.8090 -0.0000 -0.5878
vn -0.3090 -0.0000 -0.9511
vt 0.375000 0.625000
vt 0.125000 0.375000
s 0
usemtl MilitaryEnemyPalette.003
f 261/8/82 262/8/82 264/8/82 263/8/82
f 263/8/83 264/8/83 266/8/83 265/8/83
f 265/8/84 266/8/84 268/8/84 267/8/84
f 267/8/85 268/8/85 270/8/85 269/8/85
f 269/8/86 270/8/86 272/8/86 271/8/86
f 271/8/87 272/8/87 274/8/87 273/8/87
f 264/8/88 262/8/88 276/8/88 274/8/88 272/8/88 270/8/88 268/8/88 266/8/88
f 273/8/89 274/8/89 276/8/89 275/8/89
f 275/8/90 276/8/90 262/8/90 261/8/90
f 261/8/91 263/8/91 265/8/91 267/8/91 269/8/91 271/8/91 273/8/91 275/8/91
f 277/9/92 278/9/92 280/9/92 279/9/92
f 279/9/93 280/9/93 282/9/93 281/9/93
f 281/9/94 282/9/94 284/9/94 283/9/94
f 283/9/95 284/9/95 286/9/95 285/9/95
f 285/9/96 286/9/96 288/9/96 287/9/96
f 287/9/97 288/9/97 290/9/97 289/9/97
f 289/9/98 290/9/98 292/9/98 291/9/98
f 291/9/99 292/9/99 294/9/99 293/9/99
f 280/9/88 278/9/88 296/9/88 294/9/88 292/9/88 290/9/88 288/9/88 286/9/88 284/9/88 282/9/88
f 293/9/100 294/9/100 296/9/100 295/9/100
f 295/9/101 296/9/101 278/9/101 277/9/101
f 277/9/91 279/9/91 281/9/91 283/9/91 285/9/91 287/9/91 289/9/91 291/9/91 293/9/91 295/9/91
o Rotor_02
v -1.248000 0.100000 -1.232000
v -1.248000 0.156000 -1.232000
v -0.885961 0.100000 -1.082039
v -0.885961 0.156000 -1.082039
v -0.736000 0.100000 -0.720000
v -0.736000 0.156000 -0.720000
v -0.885961 0.100000 -0.357961
v -0.885961 0.156000 -0.357961
v -1.248000 0.100000 -0.208000
v -1.248000 0.156000 -0.208000
v -1.610039 0.100000 -0.357961
v -1.610039 0.156000 -0.357961
v -1.760000 0.100000 -0.720000
v -1.760000 0.156000 -0.720000
v -1.610039 0.100000 -1.082039
v -1.610039 0.156000 -1.082039
v -1.248000 0.024000 -0.856000
v -1.248000 0.232000 -0.856000
v -1.168061 0.024000 -0.830026
v -1.168061 0.232000 -0.830026
v -1.118656 0.024000 -0.762026
v -1.118656 0.232000 -0.762026
v -1.118656 0.024000 -0.677974
v -1.118656 0.232000 -0.677974
v -1.168061 0.024000 -0.609974
v -1.168061 0.232000 -0.609974
v -1.248000 0.024000 -0.584000
v -1.248000 0.232000 -0.584000
v -1.327939 0.024000 -0.609974
v -1.327939 0.232000 -0.609974
v -1.377344 0.024000 -0.677974
v -1.377344 0.232000 -0.677974
v -1.377344 0.024000 -0.762026
v -1.377344 0.232000 -0.762026
v -1.327939 0.024000 -0.830026
v -1.327939 0.232000 -0.830026
vn 0.3827 -0.0000 -0.9239
vn 0.9239 -0.0000 -0.3827
vn 0.9239 -0.0000 0.3827
vn 0.3827 -0.0000 0.9239
vn -0.3827 -0.0000 0.9239
vn -0.9239 -0.0000 0.3827
vn -0.0000 1.0000 -0.0000
vn -0.9239 -0.0000 -0.3827
vn -0.3827 -0.0000 -0.9239
vn -0.0000 -1.0000 -0.0000
vn 0.3090 -0.0000 -0.9511
vn 0.8090 -0.0000 -0.5878
vn 1.0000 -0.0000 -0.0000
vn 0.8090 -0.0000 0.5878
vn 0.3090 -0.0000 0.9511
vn -0.3090 -0.0000 0.9511
vn -0.8090 -0.0000 0.5878
vn -1.0000 -0.0000 -0.0000
vn -0.8090 -0.0000 -0.5878
vn -0.3090 -0.0000 -0.9511
vt 0.375000 0.625000
vt 0.125000 0.375000
s 0
usemtl MilitaryEnemyPalette.003
f 297/10/102 298/10/102 300/10/102 299/10/102
f 299/10/103 300/10/103 302/10/103 301/10/103
f 301/10/104 302/10/104 304/10/104 303/10/104
f 303/10/105 304/10/105 306/10/105 305/10/105
f 305/10/106 306/10/106 308/10/106 307/10/106
f 307/10/107 308/10/107 310/10/107 309/10/107
f 300/10/108 298/10/108 312/10/108 310/10/108 308/10/108 306/10/108 304/10/108 302/10/108
f 309/10/109 310/10/109 312/10/109 311/10/109
f 311/10/110 312/10/110 298/10/110 297/10/110
f 297/10/111 299/10/111 301/10/111 303/10/111 305/10/111 307/10/111 309/10/111 311/10/111
f 313/11/112 314/11/112 316/11/112 315/11/112
f 315/11/113 316/11/113 318/11/113 317/11/113
f 317/11/114 318/11/114 320/11/114 319/11/114
f 319/11/115 320/11/115 322/11/115 321/11/115
f 321/11/116 322/11/116 324/11/116 323/11/116
f 323/11/117 324/11/117 326/11/117 325/11/117
f 325/11/118 326/11/118 328/11/118 327/11/118
f 327/11/119 328/11/119 330/11/119 329/11/119
f 316/11/108 314/11/108 332/11/108 330/11/108 328/11/108 326/11/108 324/11/108 322/11/108 320/11/108 318/11/108
f 329/11/120 330/11/120 332/11/120 331/11/120
f 331/11/121 332/11/121 314/11/121 313/11/121
f 313/11/111 315/11/111 317/11/111 319/11/111 321/11/111 323/11/111 325/11/111 327/11/111 329/11/111 331/11/111
o Rotor_03
v 1.248000 0.100000 -1.232000
v 1.248000 0.156000 -1.232000
v 1.610039 0.100000 -1.082039
v 1.610039 0.156000 -1.082039
v 1.760000 0.100000 -0.720000
v 1.760000 0.156000 -0.720000
v 1.610039 0.100000 -0.357961
v 1.610039 0.156000 -0.357961
v 1.248000 0.100000 -0.208000
v 1.248000 0.156000 -0.208000
v 0.885961 0.100000 -0.357961
v 0.885961 0.156000 -0.357961
v 0.736000 0.100000 -0.720000
v 0.736000 0.156000 -0.720000
v 0.885961 0.100000 -1.082039
v 0.885961 0.156000 -1.082039
v 1.248000 0.024000 -0.856000
v 1.248000 0.232000 -0.856000
v 1.327939 0.024000 -0.830026
v 1.327939 0.232000 -0.830026
v 1.377344 0.024000 -0.762026
v 1.377344 0.232000 -0.762026
v 1.377344 0.024000 -0.677974
v 1.377344 0.232000 -0.677974
v 1.327939 0.024000 -0.609974
v 1.327939 0.232000 -0.609974
v 1.248000 0.024000 -0.584000
v 1.248000 0.232000 -0.584000
v 1.168061 0.024000 -0.609974
v 1.168061 0.232000 -0.609974
v 1.118656 0.024000 -0.677974
v 1.118656 0.232000 -0.677974
v 1.118656 0.024000 -0.762026
v 1.118656 0.232000 -0.762026
v 1.168061 0.024000 -0.830026
v 1.168061 0.232000 -0.830026
vn 0.3827 -0.0000 -0.9239
vn 0.9239 -0.0000 -0.3827
vn 0.9239 -0.0000 0.3827
vn 0.3827 -0.0000 0.9239
vn -0.3827 -0.0000 0.9239
vn -0.9239 -0.0000 0.3827
vn -0.0000 1.0000 -0.0000
vn -0.9239 -0.0000 -0.3827
vn -0.3827 -0.0000 -0.9239
vn -0.0000 -1.0000 -0.0000
vn 0.3090 -0.0000 -0.9511
vn 0.8090 -0.0000 -0.5878
vn 1.0000 -0.0000 -0.0000
vn 0.8090 -0.0000 0.5878
vn 0.3090 -0.0000 0.9511
vn -0.3090 -0.0000 0.9511
vn -0.8090 -0.0000 0.5878
vn -1.0000 -0.0000 -0.0000
vn -0.8090 -0.0000 -0.5878
vn -0.3090 -0.0000 -0.9511
vt 0.375000 0.625000
vt 0.125000 0.375000
s 0
usemtl MilitaryEnemyPalette.003
f 333/12/122 334/12/122 336/12/122 335/12/122
f 335/12/123 336/12/123 338/12/123 337/12/123
f 337/12/124 338/12/124 340/12/124 339/12/124
f 339/12/125 340/12/125 342/12/125 341/12/125
f 341/12/126 342/12/126 344/12/126 343/12/126
f 343/12/127 344/12/127 346/12/127 345/12/127
f 336/12/128 334/12/128 348/12/128 346/12/128 344/12/128 342/12/128 340/12/128 338/12/128
f 345/12/129 346/12/129 348/12/129 347/12/129
f 347/12/130 348/12/130 334/12/130 333/12/130
f 333/12/131 335/12/131 337/12/131 339/12/131 341/12/131 343/12/131 345/12/131 347/12/131
f 349/13/132 350/13/132 352/13/132 351/13/132
f 351/13/133 352/13/133 354/13/133 353/13/133
f 353/13/134 354/13/134 356/13/134 355/13/134
f 355/13/135 356/13/135 358/13/135 357/13/135
f 357/13/136 358/13/136 360/13/136 359/13/136
f 359/13/137 360/13/137 362/13/137 361/13/137
f 361/13/138 362/13/138 364/13/138 363/13/138
f 363/13/139 364/13/139 366/13/139 365/13/139
f 352/13/128 350/13/128 368/13/128 366/13/128 364/13/128 362/13/128 360/13/128 358/13/128 356/13/128 354/13/128
f 365/13/140 366/13/140 368/13/140 367/13/140
f 367/13/141 368/13/141 350/13/141 349/13/141
f 349/13/131 351/13/131 353/13/131 355/13/131 357/13/131 359/13/131 361/13/131 363/13/131 365/13/131 367/13/131
