# Blender 5.2.1 LTS
# www.blender.org
mtllib kamikaze.mtl
o Body.003
v -1.248960 -0.064000 0.736000
v -1.248960 0.064000 0.736000
v -1.248960 -0.064000 0.608000
v -1.248960 0.064000 0.608000
v -0.048960 -0.064000 0.736000
v -0.048960 0.064000 0.736000
v -0.048960 -0.064000 0.608000
v -0.048960 0.064000 0.608000
v -0.448000 -0.272000 0.816000
v -0.448000 -0.144000 0.944000
v -0.576000 -0.144000 0.816000
v -0.448000 0.144000 0.944000
v -0.448000 0.272000 0.816000
v -0.576000 0.144000 0.816000
v -0.448000 -0.272000 -0.816000
v -0.576000 -0.144000 -0.816000
v -0.448000 -0.144000 -0.944000
v -0.448000 0.272000 -0.816000
v -0.448000 0.144000 -0.944000
v -0.576000 0.144000 -0.816000
v 0.448000 -0.272000 0.816000
v 0.576000 -0.144000 0.816000
v 0.448000 -0.144000 0.944000
v 0.448000 0.272000 0.816000
v 0.448000 0.144000 0.944000
v 0.576000 0.144000 0.816000
v 0.448000 -0.272000 -0.816000
v 0.448000 -0.144000 -0.944000
v 0.576000 -0.144000 -0.816000
v 0.448000 0.272000 -0.816000
v 0.576000 0.144000 -0.816000
v 0.448000 0.144000 -0.944000
v -0.400000 -0.240000 1.688000
v 0.400000 -0.240000 1.688000
v 0.400000 -0.240000 0.808000
v -0.400000 -0.240000 0.808000
v -0.400000 0.240000 1.688000
v 0.400000 0.115200 1.688000
v 0.400000 0.115200 0.808000
v -0.400000 0.240000 0.808000
v -0.288000 0.032000 1.216000
v -0.288000 0.288000 1.216000
v -0.288000 0.032000 1.088000
v -0.288000 0.288000 1.088000
v 0.288000 0.032000 1.216000
v 0.288000 0.288000 1.216000
v 0.288000 0.032000 1.088000
v 0.288000 0.288000 1.088000
v 0.048960 -0.064000 0.736000
v 0.048960 0.064000 0.736000
v 0.048960 -0.064000 0.608000
v 0.048960 0.064000 0.608000
v 1.248960 -0.064000 0.736000
v 1.248960 0.064000 0.736000
v 1.248960 -0.064000 0.608000
v 1.248960 0.064000 0.608000
v -1.248960 -0.064000 -0.656000
v -1.248960 0.064000 -0.656000
v -1.248960 -0.064000 -0.784000
v -1.248960 0.064000 -0.784000
v -0.048960 -0.064000 -0.656000
v -0.048960 0.064000 -0.656000
v -0.048960 -0.064000 -0.784000
v -0.048960 0.064000 -0.784000
v 0.048960 -0.064000 -0.656000
v 0.048960 0.064000 -0.656000
v 0.048960 -0.064000 -0.784000
v 0.048960 0.064000 -0.784000
v 1.248960 -0.064000 -0.656000
v 1.248960 0.064000 -0.656000
v 1.248960 -0.064000 -0.784000
v 1.248960 0.064000 -0.784000
v 0.000000 0.240000 -0.160000
v 0.000000 0.240000 0.864000
v 0.282137 0.148328 -0.160000
v 0.282137 0.148328 0.864000
v 0.456507 -0.091672 -0.160000
v 0.456507 -0.091672 0.864000
v 0.456507 -0.388328 -0.160000
v 0.456507 -0.388328 0.864000
v 0.282137 -0.628328 -0.160000
v 0.282137 -0.628328 0.864000
v 0.000000 -0.720000 -0.160000
v 0.000000 -0.720000 0.864000
v -0.282137 -0.628328 -0.160000
v -0.282137 -0.628328 0.864000
v -0.456507 -0.388328 -0.160000
v -0.456507 -0.388328 0.864000
v -0.456507 -0.091672 -0.160000
v -0.456507 -0.091672 0.864000
v -0.282137 0.148328 -0.160000
v -0.282137 0.148328 0.864000
v -0.304000 0.256000 -0.376000
v -0.304000 0.384000 -0.376000
v -0.304000 0.256000 -0.776000
v -0.304000 0.384000 -0.776000
v 0.304000 0.256000 -0.376000
v 0.304000 0.384000 -0.376000
v 0.304000 0.256000 -0.776000
v 0.304000 0.384000 -0.776000
v -0.512000 -0.093353 -0.332011
v -0.512000 -0.573353 0.499989
v -0.477359 -0.110676 -0.342006
v -0.477359 -0.590676 0.489994
v -0.477359 -0.145324 -0.361995
v -0.477359 -0.625324 0.470006
v -0.512000 -0.162647 -0.371989
v -0.512000 -0.642647 0.460011
v -0.546641 -0.145324 -0.361995
v -0.546641 -0.625324 0.470006
v -0.546641 -0.110676 -0.342006
v -0.546641 -0.590676 0.489994
v -0.512000 -0.664000 0.736000
v -0.512000 -0.664000 -0.768000
v -0.477359 -0.644000 0.736000
v -0.477359 -0.644000 -0.768000
v -0.477359 -0.604000 0.736000
v -0.477359 -0.604000 -0.768000
v -0.512000 -0.584000 0.736000
v -0.512000 -0.584000 -0.768000
v -0.546641 -0.604000 0.736000
v -0.546641 -0.604000 -0.768000
v -0.546641 -0.644000 0.736000
v -0.546641 -0.644000 -0.768000
v 0.512000 -0.093353 -0.332011
v 0.512000 -0.573353 0.499989
v 0.546641 -0.110676 -0.342006
v 0.546641 -0.590676 0.489994
v 0.546641 -0.145324 -0.361995
v 0.546641 -0.625324 0.470006
v 0.512000 -0.162647 -0.371989
v 0.512000 -0.642647 0.460011
v 0.477359 -0.145324 -0.361995
v 0.477359 -0.625324 0.470006
v 0.477359 -0.110676 -0.342006
v 0.477359 -0.590676 0.489994
v 0.512000 -0.664000 0.736000
v 0.512000 -0.664000 -0.768000
v 0.546641 -0.644000 0.736000
v 0.546641 -0.644000 -0.768000
v 0.546641 -0.604000 0.736000
v 0.546641 -0.604000 -0.768000
v 0.512000 -0.584000 0.736000
v 0.512000 -0.584000 -0.768000
v 0.477359 -0.604000 0.736000
v 0.477359 -0.604000 -0.768000
v 0.477359 -0.644000 0.736000
v 0.477359 -0.644000 -0.768000
v -0.304000 0.280000 0.377600
v -0.304000 0.302400 0.377600
v -0.304000 0.280000 0.326400
v -0.304000 0.302400 0.326400
v 0.304000 0.280000 0.377600
v 0.304000 0.302400 0.377600
v 0.304000 0.280000 0.326400
v 0.304000 0.302400 0.326400
v -0.304000 0.280000 0.153600
v -0.304000 0.302400 0.153600
v -0.304000 0.280000 0.102400
v -0.304000 0.302400 0.102400
v 0.304000 0.280000 0.153600
v 0.304000 0.302400 0.153600
v 0.304000 0.280000 0.102400
v 0.304000 0.302400 0.102400
v -0.304000 0.280000 -0.070400
v -0.304000 0.302400 -0.070400
v -0.304000 0.280000 -0.121600
v -0.304000 0.302400 -0.121600
v 0.304000 0.280000 -0.070400
v 0.304000 0.302400 -0.070400
v 0.304000 0.280000 -0.121600
v 0.304000 0.302400 -0.121600
v -0.304000 0.280000 -0.294400
v -0.304000 0.302400 -0.294400
v -0.304000 0.280000 -0.345600
v -0.304000 0.302400 -0.345600
v 0.304000 0.280000 -0.294400
v 0.304000 0.302400 -0.294400
v 0.304000 0.280000 -0.345600
v 0.304000 0.302400 -0.345600
v 0.000000 -0.544000 0.640000
v 0.000000 -0.288000 0.640000
v 0.112000 -0.544000 0.670010
v 0.112000 -0.288000 0.670010
v 0.193990 -0.544000 0.752000
v 0.193990 -0.288000 0.752000
v 0.224000 -0.544000 0.864000
v 0.224000 -0.288000 0.864000
v 0.193990 -0.544000 0.976000
v 0.193990 -0.288000 0.976000
v 0.112000 -0.544000 1.057990
v 0.112000 -0.288000 1.057990
v 0.000000 -0.544000 1.088000
v 0.000000 -0.288000 1.088000
v -0.112000 -0.544000 1.057990
v -0.112000 -0.288000 1.057990
v -0.193990 -0.544000 0.976000
v -0.193990 -0.288000 0.976000
v -0.224000 -0.544000 0.864000
v -0.224000 -0.288000 0.864000
v -0.193990 -0.544000 0.752000
v -0.193990 -0.288000 0.752000
v -0.112000 -0.544000 0.670010
v -0.112000 -0.288000 0.670010
v 0.000000 -0.299200 0.995200
v 0.000000 -0.299200 1.036800
v 0.066400 -0.316992 0.995200
v 0.066400 -0.316992 1.036800
v 0.115008 -0.365600 0.995200
v 0.115008 -0.365600 1.036800
v 0.132800 -0.432000 0.995200
v 0.132800 -0.432000 1.036800
v 0.115008 -0.498400 0.995200
v 0.115008 -0.498400 1.036800
v 0.066400 -0.547008 0.995200
v 0.066400 -0.547008 1.036800
v 0.000000 -0.564800 0.995200
v 0.000000 -0.564800 1.036800
v -0.066400 -0.547008 0.995200
v -0.066400 -0.547008 1.036800
v -0.115008 -0.498400 0.995200
v -0.115008 -0.498400 1.036800
v -0.132800 -0.432000 0.995200
v -0.132800 -0.432000 1.036800
v -0.115008 -0.365600 0.995200
v -0.115008 -0.365600 1.036800
v -0.066400 -0.316992 0.995200
v -0.066400 -0.316992 1.036800
vn -1.0000 -0.0000 -0.0000
vn -0.0000 -0.0000 -1.0000
vn 1.0000 -0.0000 -0.0000
vn -0.0000 -0.0000 1.0000
vn -0.0000 -1.0000 -0.0000
vn -0.0000 1.0000 -0.0000
vn -0.5774 -0.5774 0.5774
vn -0.5774 0.5774 0.5774
vn -0.5774 -0.5774 -0.5773
vn -0.5774 0.5774 -0.5773
vn 0.5774 -0.5774 0.5774
vn 0.5774 0.5774 0.5774
vn 0.5774 -0.5774 -0.5773
vn 0.5774 0.5774 -0.5773
vn -0.7071 -0.7071 -0.0000
vn -0.7071 -0.0000 0.7071
vn -0.7071 0.7071 -0.0000
vn -0.7071 -0.0000 -0.7071
vn -0.0000 -0.7071 -0.7071
vn -0.0000 0.7071 -0.7071
vn 0.7071 -0.0000 -0.7071
vn 0.7071 -0.7071 -0.0000
vn 0.7071 0.7071 -0.0000
vn 0.7071 -0.0000 0.7071
vn -0.0000 -0.7071 0.7071
vn -0.0000 0.7071 0.7071
vn 0.1541 0.9880 -0.0000
vn 0.3090 0.9511 -0.0000
vn 0.8090 0.5878 -0.0000
vn 0.8090 -0.5878 -0.0000
vn 0.3090 -0.9511 -0.0000
vn -0.3090 -0.9511 -0.0000
vn -0.8090 -0.5878 -0.0000
vn -0.8090 0.5878 -0.0000
vn -0.3090 0.9511 -0.0000
vn 0.5000 0.7501 0.4328
vn 0.5000 -0.7501 -0.4328
vn -0.5000 -0.7501 -0.4328
vn -0.0000 -0.4997 0.8662
vn -0.5000 0.7501 0.4328
vn -0.0000 0.4997 -0.8662
vn 0.5000 -0.8660 -0.0000
vn 0.5000 0.8660 -0.0000
vn -0.5000 0.8660 -0.0000
vn -0.5000 -0.8660 -0.0000
vn 0.2588 -0.0000 -0.9659
vn 0.9659 -0.0000 -0.2588
vn 0.9659 -0.0000 0.2588
vn 0.2588 -0.0000 0.9659
vn -0.2588 -0.0000 0.9659
vn -0.9659 -0.0000 0.2588
vn -0.9659 -0.0000 -0.2588
vn -0.2588 -0.0000 -0.9659
vn 0.2588 0.9659 -0.0000
vn 0.9659 0.2588 -0.0000
vn 0.9659 -0.2588 -0.0000
vn 0.2588 -0.9659 -0.0000
vn -0.2588 -0.9659 -0.0000
vn -0.9659 -0.2588 -0.0000
vn -0.9659 0.2588 -0.0000
vn -0.2588 0.9659 -0.0000
vt 0.125000 0.375000
vt 0.125000 0.125000
vt 0.375000 0.125000
vt 0.375000 0.375000
vt 0.875000 0.375000
vt 0.625000 0.375000
vt 0.375000 0.625000
s 0
usemtl MilitaryEnemyPalette.003
f 1/1/1 2/1/1 4/1/1 3/1/1
f 3/1/2 4/1/2 8/1/2 7/1/2
f 7/1/3 8/1/3 6/1/3 5/1/3
f 5/1/4 6/1/4 2/1/4 1/1/4
f 3/1/5 7/1/5 5/1/5 1/1/5
f 8/1/6 4/1/6 2/1/6 6/1/6
f 9/2/7 10/2/7 11/2/7
f 12/2/8 13/2/8 14/2/8
f 15/2/9 16/2/9 17/2/9
f 18/2/10 19/2/10 20/2/10
f 21/2/11 22/2/11 23/2/11
f 24/2/12 25/2/12 26/2/12
f 27/2/13 28/2/13 29/2/13
f 30/2/14 31/2/14 32/2/14
f 15/2/15 9/2/15 11/2/15 16/2/15
f 10/2/16 12/2/16 14/2/16 11/2/16
f 13/2/17 18/2/17 20/2/17 14/2/17
f 19/2/18 17/2/18 16/2/18 20/2/18
f 27/2/19 15/2/19 17/2/19 28/2/19
f 18/2/20 30/2/20 32/2/20 19/2/20
f 31/2/21 29/2/21 28/2/21 32/2/21
f 21/2/22 27/2/22 29/2/22 22/2/22
f 30/2/23 24/2/23 26/2/23 31/2/23
f 25/2/24 23/2/24 22/2/24 26/2/24
f 9/2/25 21/2/25 23/2/25 10/2/25
f 24/2/26 13/2/26 12/2/26 25/2/26
f 15/2/5 27/2/5 21/2/5 9/2/5
f 11/2/1 14/2/1 20/2/1 16/2/1
f 23/2/4 25/2/4 12/2/4 10/2/4
f 30/2/6 18/2/6 13/2/6 24/2/6
f 17/2/2 19/2/2 32/2/2 28/2/2
f 29/2/3 31/2/3 26/2/3 22/2/3
f 33/3/5 36/3/5 35/3/5 34/3/5
f 33/3/4 34/3/4 38/3/4 37/3/4
f 34/3/3 35/3/3 39/3/3 38/3/3
f 35/3/2 36/3/2 40/3/2 39/3/2
f 36/3/1 33/3/1 37/3/1 40/3/1
f 37/3/27 38/3/27 39/3/27 40/3/27
f 41/4/1 42/4/1 44/4/1 43/4/1
f 43/4/2 44/4/2 48/4/2 47/4/2
f 47/4/3 48/4/3 46/4/3 45/4/3
f 45/4/4 46/4/4 42/4/4 41/4/4
f 43/4/5 47/4/5 45/4/5 41/4/5
f 48/4/6 44/4/6 42/4/6 46/4/6
f 49/1/1 50/1/1 52/1/1 51/1/1
f 51/1/2 52/1/2 56/1/2 55/1/2
f 55/1/3 56/1/3 54/1/3 53/1/3
f 53/1/4 54/1/4 50/1/4 49/1/4
f 51/1/5 55/1/5 53/1/5 49/1/5
f 56/1/6 52/1/6 50/1/6 54/1/6
f 57/1/1 58/1/1 60/1/1 59/1/1
f 59/1/2 60/1/2 64/1/2 63/1/2
f 63/1/3 64/1/3 62/1/3 61/1/3
f 61/1/4 62/1/4 58/1/4 57/1/4
f 59/1/5 63/1/5 61/1/5 57/1/5
f 64/1/6 60/1/6 58/1/6 62/1/6
f 65/1/1 66/1/1 68/1/1 67/1/1
f 67/1/2 68/1/2 72/1/2 71/1/2
f 71/1/3 72/1/3 70/1/3 69/1/3
f 69/1/4 70/1/4 66/1/4 65/1/4
f 67/1/5 71/1/5 69/1/5 65/1/5
f 72/1/6 68/1/6 66/1/6 70/1/6
f 73/5/28 74/5/28 76/5/28 75/5/28
f 75/5/29 76/5/29 78/5/29 77/5/29
f 77/5/3 78/5/3 80/5/3 79/5/3
f 79/5/30 80/5/30 82/5/30 81/5/30
f 81/5/31 82/5/31 84/5/31 83/5/31
f 83/5/32 84/5/32 86/5/32 85/5/32
f 85/5/33 86/5/33 88/5/33 87/5/33
f 87/5/1 88/5/1 90/5/1 89/5/1
f 76/5/4 74/5/4 92/5/4 90/5/4 88/5/4 86/5/4 84/5/4 82/5/4 80/5/4 78/5/4
f 89/5/34 90/5/34 92/5/34 91/5/34
f 91/5/35 92/5/35 74/5/35 73/5/35
f 73/5/2 75/5/2 77/5/2 79/5/2 81/5/2 83/5/2 85/5/2 87/5/2 89/5/2 91/5/2
f 93/6/1 94/6/1 96/6/1 95/6/1
f 95/6/2 96/6/2 100/6/2 99/6/2
f 99/6/3 100/6/3 98/6/3 97/6/3
f 97/6/4 98/6/4 94/6/4 93/6/4
f 95/6/5 99/6/5 97/6/5 93/6/5
f 100/6/6 96/6/6 94/6/6 98/6/6
f 101/1/36 102/1/36 104/1/36 103/1/36
f 103/1/3 104/1/3 106/1/3 105/1/3
f 105/1/37 106/1/37 108/1/37 107/1/37
f 107/1/38 108/1/38 110/1/38 109/1/38
f 104/1/39 102/1/39 112/1/39 110/1/39 108/1/39 106/1/39
f 109/1/1 110/1/1 112/1/1 111/1/1
f 111/1/40 112/1/40 102/1/40 101/1/40
f 101/1/41 103/1/41 105/1/41 107/1/41 109/1/41 111/1/41
f 113/1/42 114/1/42 116/1/42 115/1/42
f 115/1/3 116/1/3 118/1/3 117/1/3
f 117/1/43 118/1/43 120/1/43 119/1/43
f 119/1/44 120/1/44 122/1/44 121/1/44
f 116/1/2 114/1/2 124/1/2 122/1/2 120/1/2 118/1/2
f 121/1/1 122/1/1 124/1/1 123/1/1
f 123/1/45 124/1/45 114/1/45 113/1/45
f 113/1/4 115/1/4 117/1/4 119/1/4 121/1/4 123/1/4
f 125/1/36 126/1/36 128/1/36 127/1/36
f 127/1/3 128/1/3 130/1/3 129/1/3
f 129/1/37 130/1/37 132/1/37 131/1/37
f 131/1/38 132/1/38 134/1/38 133/1/38
f 128/1/39 126/1/39 136/1/39 134/1/39 132/1/39 130/1/39
f 133/1/1 134/1/1 136/1/1 135/1/1
f 135/1/40 136/1/40 126/1/40 125/1/40
f 125/1/41 127/1/41 129/1/41 131/1/41 133/1/41 135/1/41
f 137/1/42 138/1/42 140/1/42 139/1/42
f 139/1/3 140/1/3 142/1/3 141/1/3
f 141/1/43 142/1/43 144/1/43 143/1/43
f 143/1/44 144/1/44 146/1/44 145/1/44
f 140/1/2 138/1/2 148/1/2 146/1/2 144/1/2 142/1/2
f 145/1/1 146/1/1 148/1/1 147/1/1
f 147/1/45 148/1/45 138/1/45 137/1/45
f 137/1/4 139/1/4 141/1/4 143/1/4 145/1/4 147/1/4
f 149/7/1 150/7/1 152/7/1 151/7/1
f 151/7/2 152/7/2 156/7/2 155/7/2
f 155/7/3 156/7/3 154/7/3 153/7/3
f 153/7/4 154/7/4 150/7/4 149/7/4
f 151/7/5 155/7/5 153/7/5 149/7/5
f 156/7/6 152/7/6 150/7/6 154/7/6
f 157/7/1 158/7/1 160/7/1 159/7/1
f 159/7/2 160/7/2 164/7/2 163/7/2
f 163/7/3 164/7/3 162/7/3 161/7/3
f 161/7/4 162/7/4 158/7/4 157/7/4
f 159/7/5 163/7/5 161/7/5 157/7/5
f 164/7/6 160/7/6 158/7/6 162/7/6
f 165/7/1 166/7/1 168/7/1 167/7/1
f 167/7/2 168/7/2 172/7/2 171/7/2
f 171/7/3 172/7/3 170/7/3 169/7/3
f 169/7/4 170/7/4 166/7/4 165/7/4
f 167/7/5 171/7/5 169/7/5 165/7/5
f 172/7/6 168/7/6 166/7/6 170/7/6
f 173/7/1 174/7/1 176/7/1 175/7/1
f 175/7/2 176/7/2 180/7/2 179/7/2
f 179/7/3 180/7/3 178/7/3 177/7/3
f 177/7/4 178/7/4 174/7/4 173/7/4
f 175/7/5 179/7/5 177/7/5 173/7/5
f 180/7/6 176/7/6 174/7/6 178/7/6
f 181/1/46 182/1/46 184/1/46 183/1/46
f 183/1/21 184/1/21 186/1/21 185/1/21
f 185/1/47 186/1/47 188/1/47 187/1/47
f 187/1/48 188/1/48 190/1/48 189/1/48
f 189/1/24 190/1/24 192/1/24 191/1/24
f 191/1/49 192/1/49 194/1/49 193/1/49
f 193/1/50 194/1/50 196/1/50 195/1/50
f 195/1/16 196/1/16 198/1/16 197/1/16
f 197/1/51 198/1/51 200/1/51 199/1/51
f 199/1/52 200/1/52 202/1/52 201/1/52
f 184/1/6 182/1/6 204/1/6 202/1/6 200/1/6 198/1/6 196/1/6 194/1/6 192/1/6 190/1/6 188/1/6 186/1/6
f 201/1/18 202/1/18 204/1/18 203/1/18
f 203/1/53 204/1/53 182/1/53 181/1/53
f 181/1/5 183/1/5 185/1/5 187/1/5 189/1/5 191/1/5 193/1/5 195/1/5 197/1/5 199/1/5 201/1/5 203/1/5
f 205/4/54 206/4/54 208/4/54 207/4/54
f 207/4/23 208/4/23 210/4/23 209/4/23
f 209/4/55 210/4/55 212/4/55 211/4/55
f 211/4/56 212/4/56 214/4/56 213/4/56
f 213/4/22 214/4/22 216/4/22 215/4/22
f 215/4/57 216/4/57 218/4/57 217/4/57
f 217/4/58 218/4/58 220/4/58 219/4/58
f 219/4/15 220/4/15 222/4/15 221/4/15
f 221/4/59 222/4/59 224/4/59 223/4/59
f 223/4/60 224/4/60 226/4/60 225/4/60
f 208/4/4 206/4/4 228/4/4 226/4/4 224/4/4 222/4/4 220/4/4 218/4/4 216/4/4 214/4/4 212/4/4 210/4/4
f 225/4/17 226/4/17 228/4/17 227/4/17
f 227/4/61 228/4/61 206/4/61 205/4/61
f 205/4/2 207/4/2 209/4/2 211/4/2 213/4/2 215/4/2 217/4/2 219/4/2 221/4/2 223/4/2 225/4/2 227/4/2
o Rotor_00.001
v -1.248000 0.100000 0.160000
v -1.248000 0.156000 0.160000
v -0.885961 0.100000 0.309961
v -0.885961 0.156000 0.309961
v -0.736000 0.100000 0.672000
v -0.736000 0.156000 0.672000
v -0.885961 0.100000 1.034039
v -0.885961 0.156000 1.034039
v -1.248000 0.100000 1.184000
v -1.248000 0.156000 1.184000
v -1.610039 0.100000 1.034039
v -1.610039 0.156000 1.034039
v -1.760000 0.100000 0.672000
v -1.760000 0.156000 0.672000
v -1.610039 0.100000 0.309961
v -1.610039 0.156000 0.309961
v -1.248000 0.024000 0.536000
v -1.248000 0.232000 0.536000
v -1.168061 0.024000 0.561974
v -1.168061 0.232000 0.561974
v -1.118656 0.024000 0.629974
v -1.118656 0.232000 0.629974
v -1.118656 0.024000 0.714026
v -1.118656 0.232000 0.714026
v -1.168061 0.024000 0.782026
v -1.168061 0.232000 0.782026
v -1.248000 0.024000 0.808000
v -1.248000 0.232000 0.808000
v -1.327939 0.024000 0.782026
v -1.327939 0.232000 0.782026
v -1.377344 0.024000 0.714026
v -1.377344 0.232000 0.714026
v -1.377344 0.024000 0.629974
v -1.377344 0.232000 0.629974
v -1.327939 0.024000 0.561974
v -1.327939 0.232000 0.561974
vn 0.3827 -0.0000 -0.9239
vn 0.9239 -0.0000 -0.3827
vn 0.9239 -0.0000 0.3827
vn 0.3827 -0.0000 0.9239
vn -0.3827 -0.0000 0.9239
vn -0.9239 -0.0000 0.3827
vn -0.0000 1.0000 -0.0000
vn -0.9239 -0.0000 -0.3827
vn -0.3827 -0.0000 -0.9239
vn -0.0000 -1.0000 -0.0000
vn 0.3090 -0.0000 -0.9511
vn 0.8090 -0.0000 -0.5878
vn 1.0000 -0.0000 -0.0000
vn 0.8090 -0.0000 0.5878
vn 0.3090 -0.0000 0.9511
vn -0.3090 -0.0000 0.9511
vn -0.8090 -0.0000 0.5878
vn -1.0000 -0.0000 -0.0000
vn -0.8090 -0.0000 -0.5878
vn -0.3090 -0.0000 -0.9511
vt 0.375000 0.625000
vt 0.125000 0.375000
s 0
usemtl MilitaryEnemyPalette.003
f 229/8/62 230/8/62 232/8/62 231/8/62
f 231/8/63 232/8/63 234/8/63 233/8/63
f 233/8/64 234/8/64 236/8/64 235/8/64
f 235/8/65 236/8/65 238/8/65 237/8/65
f 237/8/66 238/8/66 240/8/66 239/8/66
f 239/8/67 240/8/67 242/8/67 241/8/67
f 232/8/68 230/8/68 244/8/68 242/8/68 240/8/68 238/8/68 236/8/68 234/8/68
f 241/8/69 242/8/69 244/8/69 243/8/69
f 243/8/70 244/8/70 230/8/70 229/8/70
f 229/8/71 231/8/71 233/8/71 235/8/71 237/8/71 239/8/71 241/8/71 243/8/71
f 245/9/72 246/9/72 248/9/72 247/9/72
f 247/9/73 248/9/73 250/9/73 249/9/73
f 249/9/74 250/9/74 252/9/74 251/9/74
f 251/9/75 252/9/75 254/9/75 253/9/75
f 253/9/76 254/9/76 256/9/76 255/9/76
f 255/9/77 256/9/77 258/9/77 257/9/77
f 257/9/78 258/9/78 260/9/78 259/9/78
f 259/9/79 260/9/79 262/9/79 261/9/79
f 248/9/68 246/9/68 264/9/68 262/9/68 260/9/68 258/9/68 256/9/68 254/9/68 252/9/68 250/9/68
f 261/9/80 262/9/80 264/9/80 263/9/80
f 263/9/81 264/9/81 246/9/81 245/9/81
f 245/9/71 247/9/71 249/9/71 251/9/71 253/9/71 255/9/71 257/9/71 259/9/71 261/9/71 263/9/71
o Rotor_01.001
v 1.248000 0.100000 0.160000
v 1.248000 0.156000 0.160000
v 1.610039 0.100000 0.309961
v 1.610039 0.156000 0.309961
v 1.760000 0.100000 0.672000
v 1.760000 0.156000 0.672000
v 1.610039 0.100000 1.034039
v 1.610039 0.156000 1.034039
v 1.248000 0.100000 1.184000
v 1.248000 0.156000 1.184000
v 0.885961 0.100000 1.034039
v 0.885961 0.156000 1.034039
v 0.736000 0.100000 0.672000
v 0.736000 0.156000 0.672000
v 0.885961 0.100000 0.309961
v 0.885961 0.156000 0.309961
v 1.248000 0.024000 0.536000
v 1.248000 0.232000 0.536000
v 1.327939 0.024000 0.561974
v 1.327939 0.232000 0.561974
v 1.377344 0.024000 0.629974
v 1.377344 0.232000 0.629974
v 1.377344 0.024000 0.714026
v 1.377344 0.232000 0.714026
v 1.327939 0.024000 0.782026
v 1.327939 0.232000 0.782026
v 1.248000 0.024000 0.808000
v 1.248000 0.232000 0.808000
v 1.168061 0.024000 0.782026
v 1.168061 0.232000 0.782026
v 1.118656 0.024000 0.714026
v 1.118656 0.232000 0.714026
v 1.118656 0.024000 0.629974
v 1.118656 0.232000 0.629974
v 1.168061 0.024000 0.561974
v 1.168061 0.232000 0.561974
vn 0.3827 -0.0000 -0.9239
vn 0.9239 -0.0000 -0.3827
vn 0.9239 -0.0000 0.3827
vn 0.3827 -0.0000 0.9239
vn -0.3827 -0.0000 0.9239
vn -0.9239 -0.0000 0.3827
vn -0.0000 1.0000 -0.0000
vn -0.9239 -0.0000 -0.3827
vn -0.3827 -0.0000 -0.9239
vn -0.0000 -1.0000 -0.0000
vn 0.3090 -0.0000 -0.9511
vn 0.8090 -0.0000 -0.5878
vn 1.0000 -0.0000 -0.0000
vn 0.8090 -0.0000 0.5878
vn 0.3090 -0.0000 0.9511
vn -0.3090 -0.0000 0.9511
vn -0.8090 -0.0000 0.5878
vn -1.0000 -0.0000 -0.0000
vn -0.8090 -0.0000 -0.5878
vn -0.3090 -0.0000 -0.9511
vt 0.375000 0.625000
vt 0.125000 0.375000
s 0
usemtl MilitaryEnemyPalette.003
f 265/10/82 266/10/82 268/10/82 267/10/82
f 267/10/83 268/10/83 270/10/83 269/10/83
f 269/10/84 270/10/84 272/10/84 271/10/84
f 271/10/85 272/10/85 274/10/85 273/10/85
f 273/10/86 274/10/86 276/10/86 275/10/86
f 275/10/87 276/10/87 278/10/87 277/10/87
f 268/10/88 266/10/88 280/10/88 278/10/88 276/10/88 274/10/88 272/10/88 270/10/88
f 277/10/89 278/10/89 280/10/89 279/10/89
f 279/10/90 280/10/90 266/10/90 265/10/90
f 265/10/91 267/10/91 269/10/91 271/10/91 273/10/91 275/10/91 277/10/91 279/10/91
f 281/11/92 282/11/92 284/11/92 283/11/92
f 283/11/93 284/11/93 286/11/93 285/11/93
f 285/11/94 286/11/94 288/11/94 287/11/94
f 287/11/95 288/11/95 290/11/95 289/11/95
f 289/11/96 290/11/96 292/11/96 291/11/96
f 291/11/97 292/11/97 294/11/97 293/11/97
f 293/11/98 294/11/98 296/11/98 295/11/98
f 295/11/99 296/11/99 298/11/99 297/11/99
f 284/11/88 282/11/88 300/11/88 298/11/88 296/11/88 294/11/88 292/11/88 290/11/88 288/11/88 286/11/88
f 297/11/100 298/11/100 300/11/100 299/11/100
f 299/11/101 300/11/101 282/11/101 281/11/101
f 281/11/91 283/11/91 285/11/91 287/11/91 289/11/91 291/11/91 293/11/91 295/11/91 297/11/91 299/11/91
o Rotor_02.001
v -1.248000 0.100000 -1.232000
v -1.248000 0.156000 -1.232000
v -0.885961 0.100000 -1.082039
v -0.885961 0.156000 -1.082039
v -0.736000 0.100000 -0.720000
v -0.736000 0.156000 -0.720000
v -0.885961 0.100000 -0.357961
v -0.885961 0.156000 -0.357961
v -1.248000 0.100000 -0.208000
v -1.248000 0.156000 -0.208000
v -1.610039 0.100000 -0.357961
v -1.610039 0.156000 -0.357961
v -1.760000 0.100000 -0.720000
v -1.760000 0.156000 -0.720000
v -1.610039 0.100000 -1.082039
v -1.610039 0.156000 -1.082039
v -1.248000 0.024000 -0.856000
v -1.248000 0.232000 -0.856000
v -1.168061 0.024000 -0.830026
v -1.168061 0.232000 -0.830026
v -1.118656 0.024000 -0.762026
v -1.118656 0.232000 -0.762026
v -1.118656 0.024000 -0.677974
v -1.118656 0.232000 -0.677974
v -1.168061 0.024000 -0.609974
v -1.168061 0.232000 -0.609974
v -1.248000 0.024000 -0.584000
v -1.248000 0.232000 -0.584000
v -1.327939 0.024000 -0.609974
v -1.327939 0.232000 -0.609974
v -1.377344 0.024000 -0.677974
v -1.377344 0.232000 -0.677974
v -1.377344 0.024000 -0.762026
v -1.377344 0.232000 -0.762026
v -1.327939 0.024000 -0.830026
v -1.327939 0.232000 -0.830026
vn 0.3827 -0.0000 -0.9239
vn 0.9239 -0.0000 -0.3827
vn 0.9239 -0.0000 0.3827
vn 0.3827 -0.0000 0.9239
vn -0.3827 -0.0000 0.9239
vn -0.9239 -0.0000 0.3827
vn -0.0000 1.0000 -0.0000
vn -0.9239 -0.0000 -0.3827
vn -0.3827 -0.0000 -0.9239
vn -0.0000 -1.0000 -0.0000
vn 0.3090 -0.0000 -0.9511
vn 0.8090 -0.0000 -0.5878
vn 1.0000 -0.0000 -0.0000
vn 0.8090 -0.0000 0.5878
vn 0.3090 -0.0000 0.9511
vn -0.3090 -0.0000 0.9511
vn -0.8090 -0.0000 0.5878
vn -1.0000 -0.0000 -0.0000
vn -0.8090 -0.0000 -0.5878
vn -0.3090 -0.0000 -0.9511
vt 0.375000 0.625000
vt 0.125000 0.375000
s 0
usemtl MilitaryEnemyPalette.003
f 301/12/102 302/12/102 304/12/102 303/12/102
f 303/12/103 304/12/103 306/12/103 305/12/103
f 305/12/104 306/12/104 308/12/104 307/12/104
f 307/12/105 308/12/105 310/12/105 309/12/105
f 309/12/106 310/12/106 312/12/106 311/12/106
f 311/12/107 312/12/107 314/12/107 313/12/107
f 304/12/108 302/12/108 316/12/108 314/12/108 312/12/108 310/12/108 308/12/108 306/12/108
f 313/12/109 314/12/109 316/12/109 315/12/109
f 315/12/110 316/12/110 302/12/110 301/12/110
f 301/12/111 303/12/111 305/12/111 307/12/111 309/12/111 311/12/111 313/12/111 315/12/111
f 317/13/112 318/13/112 320/13/112 319/13/112
f 319/13/113 320/13/113 322/13/113 321/13/113
f 321/13/114 322/13/114 324/13/114 323/13/114
f 323/13/115 324/13/115 326/13/115 325/13/115
f 325/13/116 326/13/116 328/13/116 327/13/116
f 327/13/117 328/13/117 330/13/117 329/13/117
f 329/13/118 330/13/118 332/13/118 331/13/118
f 331/13/119 332/13/119 334/13/119 333/13/119
f 320/13/108 318/13/108 336/13/108 334/13/108 332/13/108 330/13/108 328/13/108 326/13/108 324/13/108 322/13/108
f 333/13/120 334/13/120 336/13/120 335/13/120
f 335/13/121 336/13/121 318/13/121 317/13/121
f 317/13/111 319/13/111 321/13/111 323/13/111 325/13/111 327/13/111 329/13/111 331/13/111 333/13/111 335/13/111
o Rotor_03.001
v 1.248000 0.100000 -1.232000
v 1.248000 0.156000 -1.232000
v 1.610039 0.100000 -1.082039
v 1.610039 0.156000 -1.082039
v 1.760000 0.100000 -0.720000
v 1.760000 0.156000 -0.720000
v 1.610039 0.100000 -0.357961
v 1.610039 0.156000 -0.357961
v 1.248000 0.100000 -0.208000
v 1.248000 0.156000 -0.208000
v 0.885961 0.100000 -0.357961
v 0.885961 0.156000 -0.357961
v 0.736000 0.100000 -0.720000
v 0.736000 0.156000 -0.720000
v 0.885961 0.100000 -1.082039
v 0.885961 0.156000 -1.082039
v 1.248000 0.024000 -0.856000
v 1.248000 0.232000 -0.856000
v 1.327939 0.024000 -0.830026
v 1.327939 0.232000 -0.830026
v 1.377344 0.024000 -0.762026
v 1.377344 0.232000 -0.762026
v 1.377344 0.024000 -0.677974
v 1.377344 0.232000 -0.677974
v 1.327939 0.024000 -0.609974
v 1.327939 0.232000 -0.609974
v 1.248000 0.024000 -0.584000
v 1.248000 0.232000 -0.584000
v 1.168061 0.024000 -0.609974
v 1.168061 0.232000 -0.609974
v 1.118656 0.024000 -0.677974
v 1.118656 0.232000 -0.677974
v 1.118656 0.024000 -0.762026
v 1.118656 0.232000 -0.762026
v 1.168061 0.024000 -0.830026
v 1.168061 0.232000 -0.830026
vn 0.3827 -0.0000 -0.9239
vn 0.9239 -0.0000 -0.3827
vn 0.9239 -0.0000 0.3827
vn 0.3827 -0.0000 0.9239
vn -0.3827 -0.0000 0.9239
vn -0.9239 -0.0000 0.3827
vn -0.0000 1.0000 -0.0000
vn -0.9239 -0.0000 -0.3827
vn -0.3827 -0.0000 -0.9239
vn -0.0000 -1.0000 -0.0000
vn 0.3090 -0.0000 -0.9511
vn 0.8090 -0.0000 -0.5878
vn 1.0000 -0.0000 -0.0000
vn 0.8090 -0.0000 0.5878
vn 0.3090 -0.0000 0.9511
vn -0.3090 -0.0000 0.9511
vn -0.8090 -0.0000 0.5878
vn -1.0000 -0.0000 -0.0000
vn -0.8090 -0.0000 -0.5878
vn -0.3090 -0.0000 -0.9511
vt 0.375000 0.625000
vt 0.125000 0.375000
s 0
usemtl MilitaryEnemyPalette.003
f 337/14/122 338/14/122 340/14/122 339/14/122
f 339/14/123 340/14/123 342/14/123 341/14/123
f 341/14/124 342/14/124 344/14/124 343/14/124
f 343/14/125 344/14/125 346/14/125 345/14/125
f 345/14/126 346/14/126 348/14/126 347/14/126
f 347/14/127 348/14/127 350/14/127 349/14/127
f 340/14/128 338/14/128 352/14/128 350/14/128 348/14/128 346/14/128 344/14/128 342/14/128
f 349/14/129 350/14/129 352/14/129 351/14/129
f 351/14/130 352/14/130 338/14/130 337/14/130
f 337/14/131 339/14/131 341/14/131 343/14/131 345/14/131 347/14/131 349/14/131 351/14/131
f 353/15/132 354/15/132 356/15/132 355/15/132
f 355/15/133 356/15/133 358/15/133 357/15/133
f 357/15/134 358/15/134 360/15/134 359/15/134
f 359/15/135 360/15/135 362/15/135 361/15/135
f 361/15/136 362/15/136 364/15/136 363/15/136
f 363/15/137 364/15/137 366/15/137 365/15/137
f 365/15/138 366/15/138 368/15/138 367/15/138
f 367/15/139 368/15/139 370/15/139 369/15/139
f 356/15/128 354/15/128 372/15/128 370/15/128 368/15/128 366/15/128 364/15/128 362/15/128 360/15/128 358/15/128
f 369/15/140 370/15/140 372/15/140 371/15/140
f 371/15/141 372/15/141 354/15/141 353/15/141
f 353/15/131 355/15/131 357/15/131 359/15/131 361/15/131 363/15/131 365/15/131 367/15/131 369/15/131 371/15/131
