# Blender 5.2.1 LTS
# www.blender.org
mtllib minelayer.mtl
o Wheel_00.004
v -1.634000 0.791200 1.530800
v -1.255600 0.791200 1.530800
v -1.634000 0.395600 1.636801
v -1.255600 0.395600 1.636801
v -1.634000 0.106001 1.926400
v -1.255600 0.106001 1.926400
v -1.634000 0.000000 2.322000
v -1.255600 0.000000 2.322000
v -1.634000 0.106001 2.717600
v -1.255600 0.106001 2.717600
v -1.634000 0.395600 3.007199
v -1.255600 0.395600 3.007199
v -1.634000 0.791200 3.113200
v -1.255600 0.791200 3.113200
v -1.634000 1.186800 3.007199
v -1.255600 1.186800 3.007199
v -1.634000 1.476399 2.717600
v -1.255600 1.476399 2.717600
v -1.634000 1.582400 2.322000
v -1.255600 1.582400 2.322000
v -1.634000 1.476399 1.926400
v -1.255600 1.476399 1.926400
v -1.634000 1.186800 1.636801
v -1.255600 1.186800 1.636801
vn -0.0000 -0.2588 -0.9659
vn -0.0000 -0.7071 -0.7071
vn -0.0000 -0.9659 -0.2588
vn -0.0000 -0.9659 0.2588
vn -0.0000 -0.7071 0.7071
vn -0.0000 -0.2588 0.9659
vn -0.0000 0.2588 0.9659
vn -0.0000 0.7071 0.7071
vn -0.0000 0.9659 0.2588
vn -0.0000 0.9659 -0.2588
vn 1.0000 -0.0000 -0.0000
vn -0.0000 0.7071 -0.7071
vn -0.0000 0.2588 -0.9659
vn -1.0000 -0.0000 -0.0000
vt 0.875000 0.125000
s 0
usemtl MilitaryEnemyPalette
f 1/1/1 2/1/1 4/1/1 3/1/1
f 3/1/2 4/1/2 6/1/2 5/1/2
f 5/1/3 6/1/3 8/1/3 7/1/3
f 7/1/4 8/1/4 10/1/4 9/1/4
f 9/1/5 10/1/5 12/1/5 11/1/5
f 11/1/6 12/1/6 14/1/6 13/1/6
f 13/1/7 14/1/7 16/1/7 15/1/7
f 15/1/8 16/1/8 18/1/8 17/1/8
f 17/1/9 18/1/9 20/1/9 19/1/9
f 19/1/10 20/1/10 22/1/10 21/1/10
f 4/1/11 2/1/11 24/1/11 22/1/11 20/1/11 18/1/11 16/1/11 14/1/11 12/1/11 10/1/11 8/1/11 6/1/11
f 21/1/12 22/1/12 24/1/12 23/1/12
f 23/1/13 24/1/13 2/1/13 1/1/13
f 1/1/14 3/1/14 5/1/14 7/1/14 9/1/14 11/1/14 13/1/14 15/1/14 17/1/14 19/1/14 21/1/14 23/1/14
o Wheel_01.004
v 1.255600 0.791200 1.530800
v 1.634000 0.791200 1.530800
v 1.255600 0.395600 1.636801
v 1.634000 0.395600 1.636801
v 1.255600 0.106001 1.926400
v 1.634000 0.106001 1.926400
v 1.255600 0.000000 2.322000
v 1.634000 0.000000 2.322000
v 1.255600 0.106001 2.717600
v 1.634000 0.106001 2.717600
v 1.255600 0.395600 3.007199
v 1.634000 0.395600 3.007199
v 1.255600 0.791200 3.113200
v 1.634000 0.791200 3.113200
v 1.255600 1.186800 3.007199
v 1.634000 1.186800 3.007199
v 1.255600 1.476399 2.717600
v 1.634000 1.476399 2.717600
v 1.255600 1.582400 2.322000
v 1.634000 1.582400 2.322000
v 1.255600 1.476399 1.926400
v 1.634000 1.476399 1.926400
v 1.255600 1.186800 1.636801
v 1.634000 1.186800 1.636801
vn -0.0000 -0.2588 -0.9659
vn -0.0000 -0.7071 -0.7071
vn -0.0000 -0.9659 -0.2588
vn -0.0000 -0.9659 0.2588
vn -0.0000 -0.7071 0.7071
vn -0.0000 -0.2588 0.9659
vn -0.0000 0.2588 0.9659
vn -0.0000 0.7071 0.7071
vn -0.0000 0.9659 0.2588
vn -0.0000 0.9659 -0.2588
vn 1.0000 -0.0000 -0.0000
vn -0.0000 0.7071 -0.7071
vn -0.0000 0.2588 -0.9659
vn -1.0000 -0.0000 -0.0000
vt 0.875000 0.125000
s 0
usemtl MilitaryEnemyPalette
f 25/2/15 26/2/15 28/2/15 27/2/15
f 27/2/16 28/2/16 30/2/16 29/2/16
f 29/2/17 30/2/17 32/2/17 31/2/17
f 31/2/18 32/2/18 34/2/18 33/2/18
f 33/2/19 34/2/19 36/2/19 35/2/19
f 35/2/20 36/2/20 38/2/20 37/2/20
f 37/2/21 38/2/21 40/2/21 39/2/21
f 39/2/22 40/2/22 42/2/22 41/2/22
f 41/2/23 42/2/23 44/2/23 43/2/23
f 43/2/24 44/2/24 46/2/24 45/2/24
f 28/2/25 26/2/25 48/2/25 46/2/25 44/2/25 42/2/25 40/2/25 38/2/25 36/2/25 34/2/25 32/2/25 30/2/25
f 45/2/26 46/2/26 48/2/26 47/2/26
f 47/2/27 48/2/27 26/2/27 25/2/27
f 25/2/28 27/2/28 29/2/28 31/2/28 33/2/28 35/2/28 37/2/28 39/2/28 41/2/28 43/2/28 45/2/28 47/2/28
o Wheel_02.003
v -1.634000 0.791200 -3.130400
v -1.255600 0.791200 -3.130400
v -1.634000 0.395600 -3.024399
v -1.255600 0.395600 -3.024399
v -1.634000 0.106001 -2.734800
v -1.255600 0.106001 -2.734800
v -1.634000 0.000000 -2.339200
v -1.255600 0.000000 -2.339200
v -1.634000 0.106001 -1.943600
v -1.255600 0.106001 -1.943600
v -1.634000 0.395600 -1.654001
v -1.255600 0.395600 -1.654001
v -1.634000 0.791200 -1.548000
v -1.255600 0.791200 -1.548000
v -1.634000 1.186800 -1.654001
v -1.255600 1.186800 -1.654001
v -1.634000 1.476399 -1.943600
v -1.255600 1.476399 -1.943600
v -1.634000 1.582400 -2.339200
v -1.255600 1.582400 -2.339200
v -1.634000 1.476399 -2.734800
v -1.255600 1.476399 -2.734800
v -1.634000 1.186800 -3.024399
v -1.255600 1.186800 -3.024399
vn -0.0000 -0.2588 -0.9659
vn -0.0000 -0.7071 -0.7071
vn -0.0000 -0.9659 -0.2588
vn -0.0000 -0.9659 0.2588
vn -0.0000 -0.7071 0.7071
vn -0.0000 -0.2588 0.9659
vn -0.0000 0.2588 0.9659
vn -0.0000 0.7071 0.7071
vn -0.0000 0.9659 0.2588
vn -0.0000 0.9659 -0.2588
vn 1.0000 -0.0000 -0.0000
vn -0.0000 0.7071 -0.7071
vn -0.0000 0.2588 -0.9659
vn -1.0000 -0.0000 -0.0000
vt 0.875000 0.125000
s 0
usemtl MilitaryEnemyPalette
f 49/3/29 50/3/29 52/3/29 51/3/29
f 51/3/30 52/3/30 54/3/30 53/3/30
f 53/3/31 54/3/31 56/3/31 55/3/31
f 55/3/32 56/3/32 58/3/32 57/3/32
f 57/3/33 58/3/33 60/3/33 59/3/33
f 59/3/34 60/3/34 62/3/34 61/3/34
f 61/3/35 62/3/35 64/3/35 63/3/35
f 63/3/36 64/3/36 66/3/36 65/3/36
f 65/3/37 66/3/37 68/3/37 67/3/37
f 67/3/38 68/3/38 70/3/38 69/3/38
f 52/3/39 50/3/39 72/3/39 70/3/39 68/3/39 66/3/39 64/3/39 62/3/39 60/3/39 58/3/39 56/3/39 54/3/39
f 69/3/40 70/3/40 72/3/40 71/3/40
f 71/3/41 72/3/41 50/3/41 49/3/41
f 49/3/42 51/3/42 53/3/42 55/3/42 57/3/42 59/3/42 61/3/42 63/3/42 65/3/42 67/3/42 69/3/42 71/3/42
o Wheel_03.003
v 1.255600 0.791200 -3.130400
v 1.634000 0.791200 -3.130400
v 1.255600 0.395600 -3.024399
v 1.634000 0.395600 -3.024399
v 1.255600 0.106001 -2.734800
v 1.634000 0.106001 -2.734800
v 1.255600 0.000000 -2.339200
v 1.634000 0.000000 -2.339200
v 1.255600 0.106001 -1.943600
v 1.634000 0.106001 -1.943600
v 1.255600 0.395600 -1.654001
v 1.634000 0.395600 -1.654001
v 1.255600 0.791200 -1.548000
v 1.634000 0.791200 -1.548000
v 1.255600 1.186800 -1.654001
v 1.634000 1.186800 -1.654001
v 1.255600 1.476399 -1.943600
v 1.634000 1.476399 -1.943600
v 1.255600 1.582400 -2.339200
v 1.634000 1.582400 -2.339200
v 1.255600 1.476399 -2.734800
v 1.634000 1.476399 -2.734800
v 1.255600 1.186800 -3.024399
v 1.634000 1.186800 -3.024399
vn -0.0000 -0.2588 -0.9659
vn -0.0000 -0.7071 -0.7071
vn -0.0000 -0.9659 -0.2588
vn -0.0000 -0.9659 0.2588
vn -0.0000 -0.7071 0.7071
vn -0.0000 -0.2588 0.9659
vn -0.0000 0.2588 0.9659
vn -0.0000 0.7071 0.7071
vn -0.0000 0.9659 0.2588
vn -0.0000 0.9659 -0.2588
vn 1.0000 -0.0000 -0.0000
vn -0.0000 0.7071 -0.7071
vn -0.0000 0.2588 -0.9659
vn -1.0000 -0.0000 -0.0000
vt 0.875000 0.125000
s 0
usemtl MilitaryEnemyPalette
f 73/4/43 74/4/43 76/4/43 75/4/43
f 75/4/44 76/4/44 78/4/44 77/4/44
f 77/4/45 78/4/45 80/4/45 79/4/45
f 79/4/46 80/4/46 82/4/46 81/4/46
f 81/4/47 82/4/47 84/4/47 83/4/47
f 83/4/48 84/4/48 86/4/48 85/4/48
f 85/4/49 86/4/49 88/4/49 87/4/49
f 87/4/50 88/4/50 90/4/50 89/4/50
f 89/4/51 90/4/51 92/4/51 91/4/51
f 91/4/52 92/4/52 94/4/52 93/4/52
f 76/4/53 74/4/53 96/4/53 94/4/53 92/4/53 90/4/53 88/4/53 86/4/53 84/4/53 82/4/53 80/4/53 78/4/53
f 93/4/54 94/4/54 96/4/54 95/4/54
f 95/4/55 96/4/55 74/4/55 73/4/55
f 73/4/56 75/4/56 77/4/56 79/4/56 81/4/56 83/4/56 85/4/56 87/4/56 89/4/56 91/4/56 93/4/56 95/4/56
o Body.007
v -1.333000 0.610600 2.881000
v 1.333000 0.610600 2.881000
v 1.333000 0.610600 0.731000
v -1.333000 0.610600 0.731000
v -1.333000 2.588600 2.881000
v 1.333000 2.074320 2.881000
v 1.333000 2.074320 0.731000
v -1.333000 2.588600 0.731000
v -0.946000 1.582400 2.863800
v -0.946000 2.304800 2.863800
v -0.946000 1.582400 2.743400
v -0.946000 2.304800 2.743400
v 0.946000 1.582400 2.863800
v 0.946000 2.304800 2.863800
v 0.946000 1.582400 2.743400
v 0.946000 2.304800 2.743400
v -1.341600 0.808400 0.954600
v -1.341600 1.427600 0.954600
v -1.341600 0.808400 -2.743400
v -1.341600 1.427600 -2.743400
v 1.341600 0.808400 0.954600
v 1.341600 1.427600 0.954600
v 1.341600 0.808400 -2.743400
v 1.341600 1.427600 -2.743400
v -1.186800 0.980400 0.137600
v -1.186800 1.066400 0.223600
v -1.272800 1.066400 0.137600
v -1.186800 2.476800 0.223600
v -1.186800 2.562800 0.137600
v -1.272800 2.476800 0.137600
v -1.186800 0.980400 -2.614400
v -1.272800 1.066400 -2.614400
v -1.186800 1.066400 -2.700400
v -1.186800 2.562800 -2.614400
v -1.186800 2.476800 -2.700400
v -1.272800 2.476800 -2.614400
v 1.186800 0.980400 0.137600
v 1.272800 1.066400 0.137600
v 1.186800 1.066400 0.223600
v 1.186800 2.562800 0.137600
v 1.186800 2.476800 0.223600
v 1.272800 2.476800 0.137600
v 1.186800 0.980400 -2.614400
v 1.186800 1.066400 -2.700400
v 1.272800 1.066400 -2.614400
v 1.186800 2.562800 -2.614400
v 1.272800 2.476800 -2.614400
v 1.186800 2.476800 -2.700400
v -0.903000 1.075000 2.975600
v -0.903000 1.505000 2.975600
v -0.903000 1.075000 2.872400
v -0.903000 1.505000 2.872400
v 0.903000 1.075000 2.975600
v 0.903000 1.505000 2.975600
v 0.903000 1.075000 2.872400
v 0.903000 1.505000 2.872400
v -1.221200 1.333000 3.027200
v -1.221200 1.591000 3.027200
v -1.221200 1.333000 2.958400
v -1.221200 1.591000 2.958400
v -0.911600 1.333000 3.027200
v -0.911600 1.591000 3.027200
v -0.911600 1.333000 2.958400
v -0.911600 1.591000 2.958400
v 0.911600 1.333000 3.027200
v 0.911600 1.591000 3.027200
v 0.911600 1.333000 2.958400
v 0.911600 1.591000 2.958400
v 1.221200 1.333000 3.027200
v 1.221200 1.591000 3.027200
v 1.221200 1.333000 2.958400
v 1.221200 1.591000 2.958400
v -1.014800 2.132800 -1.410400
v -1.014800 2.855200 -1.410400
v -1.014800 2.132800 -2.545600
v -1.014800 2.855200 -2.545600
v 1.014800 2.132800 -1.410400
v 1.014800 2.855200 -1.410400
v 1.014800 2.132800 -2.545600
v 1.014800 2.855200 -2.545600
v -0.722400 1.221200 -2.975600
v -0.722400 1.737200 -2.975600
v -0.503480 1.221200 -2.884920
v -0.503480 1.737200 -2.884920
v -0.412800 1.221200 -2.666000
v -0.412800 1.737200 -2.666000
v -0.503480 1.221200 -2.447079
v -0.503480 1.737200 -2.447079
v -0.722400 1.221200 -2.356400
v -0.722400 1.737200 -2.356400
v -0.941320 1.221200 -2.447079
v -0.941320 1.737200 -2.447079
v -1.032000 1.221200 -2.666000
v -1.032000 1.737200 -2.666000
v -0.941320 1.221200 -2.884920
v -0.941320 1.737200 -2.884920
v 0.000000 1.221200 -2.975600
v 0.000000 1.737200 -2.975600
v 0.218920 1.221200 -2.884920
v 0.218920 1.737200 -2.884920
v 0.309600 1.221200 -2.666000
v 0.309600 1.737200 -2.666000
v 0.218920 1.221200 -2.447079
v 0.218920 1.737200 -2.447079
v 0.000000 1.221200 -2.356400
v 0.000000 1.737200 -2.356400
v -0.218920 1.221200 -2.447079
v -0.218920 1.737200 -2.447079
v -0.309600 1.221200 -2.666000
v -0.309600 1.737200 -2.666000
v -0.218920 1.221200 -2.884920
v -0.218920 1.737200 -2.884920
v 0.722400 1.221200 -2.975600
v 0.722400 1.737200 -2.975600
v 0.941320 1.221200 -2.884920
v 0.941320 1.737200 -2.884920
v 1.032000 1.221200 -2.666000
v 1.032000 1.737200 -2.666000
v 0.941320 1.221200 -2.447079
v 0.941320 1.737200 -2.447079
v 0.722400 1.221200 -2.356400
v 0.722400 1.737200 -2.356400
v 0.503480 1.221200 -2.447079
v 0.503480 1.737200 -2.447079
v 0.412800 1.221200 -2.666000
v 0.412800 1.737200 -2.666000
v 0.503480 1.221200 -2.884920
v 0.503480 1.737200 -2.884920
vn -0.0000 -1.0000 -0.0000
vn -0.0000 -0.0000 1.0000
vn 1.0000 -0.0000 -0.0000
vn -0.0000 -0.0000 -1.0000
vn -1.0000 -0.0000 -0.0000
vn 0.1894 0.9819 -0.0000
vn -0.0000 1.0000 -0.0000
vn -0.5773 -0.5774 0.5773
vn -0.5773 0.5774 0.5774
vn -0.5774 -0.5773 -0.5774
vn -0.5774 0.5773 -0.5774
vn 0.5773 -0.5774 0.5773
vn 0.5773 0.5774 0.5774
vn 0.5774 -0.5773 -0.5774
vn 0.5774 0.5773 -0.5774
vn -0.7071 -0.7071 -0.0000
vn -0.7071 -0.0000 0.7071
vn -0.7071 0.7071 -0.0000
vn -0.7071 -0.0000 -0.7071
vn -0.0000 -0.7071 -0.7071
vn -0.0000 0.7071 -0.7071
vn 0.7071 -0.0000 -0.7071
vn 0.7071 -0.7071 -0.0000
vn 0.7071 0.7071 -0.0000
vn 0.7071 -0.0000 0.7071
vn -0.0000 -0.7071 0.7071
vn -0.0000 0.7071 0.7071
vn 0.3827 -0.0000 -0.9239
vn 0.9239 -0.0000 -0.3827
vn 0.9239 -0.0000 0.3827
vn 0.3827 -0.0000 0.9239
vn -0.3827 -0.0000 0.9239
vn -0.9239 -0.0000 0.3827
vn -0.9239 -0.0000 -0.3827
vn -0.3827 -0.0000 -0.9239
vt 0.125000 0.125000
vt 0.375000 0.375000
vt 0.125000 0.375000
vt 0.375000 0.625000
vt 0.125000 0.625000
vt 0.625000 0.375000
s 0
usemtl MilitaryEnemyPalette
f 97/5/57 100/5/57 99/5/57 98/5/57
f 97/5/58 98/5/58 102/5/58 101/5/58
f 98/5/59 99/5/59 103/5/59 102/5/59
f 99/5/60 100/5/60 104/5/60 103/5/60
f 100/5/61 97/5/61 101/5/61 104/5/61
f 101/5/62 102/5/62 103/5/62 104/5/62
f 105/6/61 106/6/61 108/6/61 107/6/61
f 107/6/60 108/6/60 112/6/60 111/6/60
f 111/6/59 112/6/59 110/6/59 109/6/59
f 109/6/58 110/6/58 106/6/58 105/6/58
f 107/6/57 111/6/57 109/6/57 105/6/57
f 112/6/63 108/6/63 106/6/63 110/6/63
f 113/7/61 114/7/61 116/7/61 115/7/61
f 115/7/60 116/7/60 120/7/60 119/7/60
f 119/7/59 120/7/59 118/7/59 117/7/59
f 117/7/58 118/7/58 114/7/58 113/7/58
f 115/7/57 119/7/57 117/7/57 113/7/57
f 120/7/63 116/7/63 114/7/63 118/7/63
f 121/5/64 122/5/64 123/5/64
f 124/5/65 125/5/65 126/5/65
f 127/5/66 128/5/66 129/5/66
f 130/5/67 131/5/67 132/5/67
f 133/5/68 134/5/68 135/5/68
f 136/5/69 137/5/69 138/5/69
f 139/5/70 140/5/70 141/5/70
f 142/5/71 143/5/71 144/5/71
f 127/5/72 121/5/72 123/5/72 128/5/72
f 122/5/73 124/5/73 126/5/73 123/5/73
f 125/5/74 130/5/74 132/5/74 126/5/74
f 131/5/75 129/5/75 128/5/75 132/5/75
f 139/5/76 127/5/76 129/5/76 140/5/76
f 130/5/77 142/5/77 144/5/77 131/5/77
f 143/5/78 141/5/78 140/5/78 144/5/78
f 133/5/79 139/5/79 141/5/79 134/5/79
f 142/5/80 136/5/80 138/5/80 143/5/80
f 137/5/81 135/5/81 134/5/81 138/5/81
f 121/5/82 133/5/82 135/5/82 122/5/82
f 136/5/83 125/5/83 124/5/83 137/5/83
f 127/5/57 139/5/57 133/5/57 121/5/57
f 123/5/61 126/5/61 132/5/61 128/5/61
f 135/5/58 137/5/58 124/5/58 122/5/58
f 142/5/63 130/5/63 125/5/63 136/5/63
f 129/5/60 131/5/60 144/5/60 140/5/60
f 141/5/59 143/5/59 138/5/59 134/5/59
f 145/8/61 146/8/61 148/8/61 147/8/61
f 147/8/60 148/8/60 152/8/60 151/8/60
f 151/8/59 152/8/59 150/8/59 149/8/59
f 149/8/58 150/8/58 146/8/58 145/8/58
f 147/8/57 151/8/57 149/8/57 145/8/57
f 152/8/63 148/8/63 146/8/63 150/8/63
f 153/9/61 154/9/61 156/9/61 155/9/61
f 155/9/60 156/9/60 160/9/60 159/9/60
f 159/9/59 160/9/59 158/9/59 157/9/59
f 157/9/58 158/9/58 154/9/58 153/9/58
f 155/9/57 159/9/57 157/9/57 153/9/57
f 160/9/63 156/9/63 154/9/63 158/9/63
f 161/9/61 162/9/61 164/9/61 163/9/61
f 163/9/60 164/9/60 168/9/60 167/9/60
f 167/9/59 168/9/59 166/9/59 165/9/59
f 165/9/58 166/9/58 162/9/58 161/9/58
f 163/9/57 167/9/57 165/9/57 161/9/57
f 168/9/63 164/9/63 162/9/63 166/9/63
f 169/8/61 170/8/61 172/8/61 171/8/61
f 171/8/60 172/8/60 176/8/60 175/8/60
f 175/8/59 176/8/59 174/8/59 173/8/59
f 173/8/58 174/8/58 170/8/58 169/8/58
f 171/8/57 175/8/57 173/8/57 169/8/57
f 176/8/63 172/8/63 170/8/63 174/8/63
f 177/10/84 178/10/84 180/10/84 179/10/84
f 179/10/85 180/10/85 182/10/85 181/10/85
f 181/10/86 182/10/86 184/10/86 183/10/86
f 183/10/87 184/10/87 186/10/87 185/10/87
f 185/10/88 186/10/88 188/10/88 187/10/88
f 187/10/89 188/10/89 190/10/89 189/10/89
f 180/10/63 178/10/63 192/10/63 190/10/63 188/10/63 186/10/63 184/10/63 182/10/63
f 189/10/90 190/10/90 192/10/90 191/10/90
f 191/10/91 192/10/91 178/10/91 177/10/91
f 177/10/57 179/10/57 181/10/57 183/10/57 185/10/57 187/10/57 189/10/57 191/10/57
f 193/10/84 194/10/84 196/10/84 195/10/84
f 195/10/85 196/10/85 198/10/85 197/10/85
f 197/10/86 198/10/86 200/10/86 199/10/86
f 199/10/87 200/10/87 202/10/87 201/10/87
f 201/10/88 202/10/88 204/10/88 203/10/88
f 203/10/89 204/10/89 206/10/89 205/10/89
f 196/10/63 194/10/63 208/10/63 206/10/63 204/10/63 202/10/63 200/10/63 198/10/63
f 205/10/90 206/10/90 208/10/90 207/10/90
f 207/10/91 208/10/91 194/10/91 193/10/91
f 193/10/57 195/10/57 197/10/57 199/10/57 201/10/57 203/10/57 205/10/57 207/10/57
f 209/10/84 210/10/84 212/10/84 211/10/84
f 211/10/85 212/10/85 214/10/85 213/10/85
f 213/10/86 214/10/86 216/10/86 215/10/86
f 215/10/87 216/10/87 218/10/87 217/10/87
f 217/10/88 218/10/88 220/10/88 219/10/88
f 219/10/89 220/10/89 222/10/89 221/10/89
f 212/10/63 210/10/63 224/10/63 222/10/63 220/10/63 218/10/63 216/10/63 214/10/63
f 221/10/90 222/10/90 224/10/90 223/10/90
f 223/10/91 224/10/91 210/10/91 209/10/91
f 209/10/57 211/10/57 213/10/57 215/10/57 217/10/57 219/10/57 221/10/57 223/10/57
o WeaponPitch.001
v 0.000000 2.390800 -0.129000
v 0.000000 2.390800 1.333000
v 0.097298 2.350498 -0.129000
v 0.097298 2.350498 1.333000
v 0.137600 2.253200 -0.129000
v 0.137600 2.253200 1.333000
v 0.097298 2.155902 -0.129000
v 0.097298 2.155902 1.333000
v 0.000000 2.115600 -0.129000
v 0.000000 2.115600 1.333000
v -0.097298 2.155902 -0.129000
v -0.097298 2.155902 1.333000
v -0.137600 2.253200 -0.129000
v -0.137600 2.253200 1.333000
v -0.097298 2.350498 -0.129000
v -0.097298 2.350498 1.333000
vn 0.3827 0.9239 -0.0000
vn 0.9239 0.3827 -0.0000
vn 0.9239 -0.3827 -0.0000
vn 0.3827 -0.9239 -0.0000
vn -0.3827 -0.9239 -0.0000
vn -0.9239 -0.3827 -0.0000
vn -0.0000 -0.0000 1.0000
vn -0.9239 0.3827 -0.0000
vn -0.3827 0.9239 -0.0000
vn -0.0000 -0.0000 -1.0000
vt 0.125000 0.375000
s 0
usemtl MilitaryEnemyPalette
f 225/11/92 226/11/92 228/11/92 227/11/92
f 227/11/93 228/11/93 230/11/93 229/11/93
f 229/11/94 230/11/94 232/11/94 231/11/94
f 231/11/95 232/11/95 234/11/95 233/11/95
f 233/11/96 234/11/96 236/11/96 235/11/96
f 235/11/97 236/11/97 238/11/97 237/11/97
f 228/11/98 226/11/98 240/11/98 238/11/98 236/11/98 234/11/98 232/11/98 230/11/98
f 237/11/99 238/11/99 240/11/99 239/11/99
f 239/11/100 240/11/100 226/11/100 225/11/100
f 225/11/101 227/11/101 229/11/101 231/11/101 233/11/101 235/11/101 237/11/101 239/11/101
