# Blender 5.2.1 LTS
# www.blender.org
mtllib repairCrawler.mtl
o Body.006
v -2.756250 0.869750 3.797500
v 2.756250 0.869750 3.797500
v 2.756250 0.869750 -3.062500
v -2.756250 0.869750 -3.062500
v -2.756250 3.442250 3.797500
v 2.756250 2.773400 3.797500
v 2.756250 2.773400 -3.062500
v -2.756250 3.442250 -3.062500
v -3.160500 0.220500 3.381000
v -3.160500 0.392000 3.552500
v -3.332000 0.392000 3.381000
v -3.160500 1.568000 3.552500
v -3.160500 1.739500 3.381000
v -3.332000 1.568000 3.381000
v -3.160500 0.220500 -3.381000
v -3.332000 0.392000 -3.381000
v -3.160500 0.392000 -3.552500
v -3.160500 1.739500 -3.381000
v -3.160500 1.568000 -3.552500
v -3.332000 1.568000 -3.381000
v -2.327500 0.220500 3.381000
v -2.156000 0.392000 3.381000
v -2.327500 0.392000 3.552500
v -2.327500 1.739500 3.381000
v -2.327500 1.568000 3.552500
v -2.156000 1.568000 3.381000
v -2.327500 0.220500 -3.381000
v -2.327500 0.392000 -3.552500
v -2.156000 0.392000 -3.381000
v -2.327500 1.739500 -3.381000
v -2.156000 1.568000 -3.381000
v -2.327500 1.568000 -3.552500
v -2.964500 0.906500 1.690500
v -2.523500 0.906500 1.690500
v -2.964500 0.588000 1.775842
v -2.523500 0.588000 1.775842
v -2.964500 0.354842 2.009000
v -2.523500 0.354842 2.009000
v -2.964500 0.269500 2.327500
v -2.523500 0.269500 2.327500
v -2.964500 0.354842 2.646000
v -2.523500 0.354842 2.646000
v -2.964500 0.588000 2.879158
v -2.523500 0.588000 2.879158
v -2.964500 0.906500 2.964500
v -2.523500 0.906500 2.964500
v -2.964500 1.225000 2.879158
v -2.523500 1.225000 2.879158
v -2.964500 1.458158 2.646000
v -2.523500 1.458158 2.646000
v -2.964500 1.543500 2.327500
v -2.523500 1.543500 2.327500
v -2.964500 1.458158 2.009000
v -2.523500 1.458158 2.009000
v -2.964500 1.225000 1.775842
v -2.523500 1.225000 1.775842
v -2.964500 0.906500 -0.637000
v -2.523500 0.906500 -0.637000
v -2.964500 0.588000 -0.551658
v -2.523500 0.588000 -0.551658
v -2.964500 0.354842 -0.318500
v -2.523500 0.354842 -0.318500
v -2.964500 0.269500 0.000000
v -2.523500 0.269500 0.000000
v -2.964500 0.354842 0.318500
v -2.523500 0.354842 0.318500
v -2.964500 0.588000 0.551658
v -2.523500 0.588000 0.551658
v -2.964500 0.906500 0.637000
v -2.523500 0.906500 0.637000
v -2.964500 1.225000 0.551658
v -2.523500 1.225000 0.551658
v -2.964500 1.458158 0.318500
v -2.523500 1.458158 0.318500
v -2.964500 1.543500 0.000000
v -2.523500 1.543500 0.000000
v -2.964500 1.458158 -0.318500
v -2.523500 1.458158 -0.318500
v -2.964500 1.225000 -0.551658
v -2.523500 1.225000 -0.551658
v -2.964500 0.906500 -2.964500
v -2.523500 0.906500 -2.964500
v -2.964500 0.588000 -2.879158
v -2.523500 0.588000 -2.879158
v -2.964500 0.354842 -2.646000
v -2.523500 0.354842 -2.646000
v -2.964500 0.269500 -2.327500
v -2.523500 0.269500 -2.327500
v -2.964500 0.354842 -2.009000
v -2.523500 0.354842 -2.009000
v -2.964500 0.588000 -1.775842
v -2.523500 0.588000 -1.775842
v -2.964500 0.906500 -1.690500
v -2.523500 0.906500 -1.690500
v -2.964500 1.225000 -1.775842
v -2.523500 1.225000 -1.775842
v -2.964500 1.458158 -2.009000
v -2.523500 1.458158 -2.009000
v -2.964500 1.543500 -2.327500
v -2.523500 1.543500 -2.327500
v -2.964500 1.458158 -2.646000
v -2.523500 1.458158 -2.646000
v -2.964500 1.225000 -2.879158
v -2.523500 1.225000 -2.879158
v 2.327500 0.220500 3.381000
v 2.327500 0.392000 3.552500
v 2.156000 0.392000 3.381000
v 2.327500 1.568000 3.552500
v 2.327500 1.739500 3.381000
v 2.156000 1.568000 3.381000
v 2.327500 0.220500 -3.381000
v 2.156000 0.392000 -3.381000
v 2.327500 0.392000 -3.552500
v 2.327500 1.739500 -3.381000
v 2.327500 1.568000 -3.552500
v 2.156000 1.568000 -3.381000
v 3.160500 0.220500 3.381000
v 3.332000 0.392000 3.381000
v 3.160500 0.392000 3.552500
v 3.160500 1.739500 3.381000
v 3.160500 1.568000 3.552500
v 3.332000 1.568000 3.381000
v 3.160500 0.220500 -3.381000
v 3.160500 0.392000 -3.552500
v 3.332000 0.392000 -3.381000
v 3.160500 1.739500 -3.381000
v 3.332000 1.568000 -3.381000
v 3.160500 1.568000 -3.552500
v 2.523500 0.906500 1.690500
v 2.964500 0.906500 1.690500
v 2.523500 0.588000 1.775842
v 2.964500 0.588000 1.775842
v 2.523500 0.354842 2.009000
v 2.964500 0.354842 2.009000
v 2.523500 0.269500 2.327500
v 2.964500 0.269500 2.327500
v 2.523500 0.354842 2.646000
v 2.964500 0.354842 2.646000
v 2.523500 0.588000 2.879158
v 2.964500 0.588000 2.879158
v 2.523500 0.906500 2.964500
v 2.964500 0.906500 2.964500
v 2.523500 1.225000 2.879158
v 2.964500 1.225000 2.879158
v 2.523500 1.458158 2.646000
v 2.964500 1.458158 2.646000
v 2.523500 1.543500 2.327500
v 2.964500 1.543500 2.327500
v 2.523500 1.458158 2.009000
v 2.964500 1.458158 2.009000
v 2.523500 1.225000 1.775842
v 2.964500 1.225000 1.775842
v 2.523500 0.906500 -0.637000
v 2.964500 0.906500 -0.637000
v 2.523500 0.588000 -0.551658
v 2.964500 0.588000 -0.551658
v 2.523500 0.354842 -0.318500
v 2.964500 0.354842 -0.318500
v 2.523500 0.269500 0.000000
v 2.964500 0.269500 0.000000
v 2.523500 0.354842 0.318500
v 2.964500 0.354842 0.318500
v 2.523500 0.588000 0.551658
v 2.964500 0.588000 0.551658
v 2.523500 0.906500 0.637000
v 2.964500 0.906500 0.637000
v 2.523500 1.225000 0.551658
v 2.964500 1.225000 0.551658
v 2.523500 1.458158 0.318500
v 2.964500 1.458158 0.318500
v 2.523500 1.543500 0.000000
v 2.964500 1.543500 0.000000
v 2.523500 1.458158 -0.318500
v 2.964500 1.458158 -0.318500
v 2.523500 1.225000 -0.551658
v 2.964500 1.225000 -0.551658
v 2.523500 0.906500 -2.964500
v 2.964500 0.906500 -2.964500
v 2.523500 0.588000 -2.879158
v 2.964500 0.588000 -2.879158
v 2.523500 0.354842 -2.646000
v 2.964500 0.354842 -2.646000
v 2.523500 0.269500 -2.327500
v 2.964500 0.269500 -2.327500
v 2.523500 0.354842 -2.009000
v 2.964500 0.354842 -2.009000
v 2.523500 0.588000 -1.775842
v 2.964500 0.588000 -1.775842
v 2.523500 0.906500 -1.690500
v 2.964500 0.906500 -1.690500
v 2.523500 1.225000 -1.775842
v 2.964500 1.225000 -1.775842
v 2.523500 1.458158 -2.009000
v 2.964500 1.458158 -2.009000
v 2.523500 1.543500 -2.327500
v 2.964500 1.543500 -2.327500
v 2.523500 1.458158 -2.646000
v 2.964500 1.458158 -2.646000
v 2.523500 1.225000 -2.879158
v 2.964500 1.225000 -2.879158
v -2.107000 2.352000 0.208250
v -2.107000 4.116000 0.208250
v -2.107000 2.352000 -2.854250
v -2.107000 4.116000 -2.854250
v 2.107000 2.352000 0.208250
v 2.107000 4.116000 0.208250
v 2.107000 2.352000 -2.854250
v 2.107000 4.116000 -2.854250
v 0.503546 2.541875 0.637000
v 4.004454 4.563125 0.637000
v 0.590167 2.391844 0.708759
v 4.091074 4.413094 0.708759
v 0.626046 2.329699 0.882000
v 4.126954 4.350949 0.882000
v 0.590167 2.391844 1.055241
v 4.091074 4.413094 1.055241
v 0.503546 2.541875 1.127000
v 4.004454 4.563125 1.127000
v 0.416926 2.691907 1.055241
v 3.917833 4.713157 1.055241
v 0.381046 2.754052 0.882000
v 3.881954 4.775301 0.882000
v 0.416926 2.691907 0.708759
v 3.917833 4.713157 0.708759
v 3.503500 2.805250 2.156000
v 3.503500 3.466750 2.156000
v 3.503500 2.805250 1.372000
v 3.503500 3.466750 1.372000
v 4.238500 2.805250 2.156000
v 4.238500 3.466750 2.156000
v 4.238500 2.805250 1.372000
v 4.238500 3.466750 1.372000
v -1.482250 3.295250 -2.609250
v -1.482250 5.622750 -2.609250
v -1.482250 3.295250 -2.878750
v -1.482250 5.622750 -2.878750
v -1.212750 3.295250 -2.609250
v -1.212750 5.622750 -2.609250
v -1.212750 3.295250 -2.878750
v -1.212750 5.622750 -2.878750
vn -0.0000 -1.0000 -0.0000
vn -0.0000 -0.0000 1.0000
vn 1.0000 -0.0000 -0.0000
vn -0.0000 -0.0000 -1.0000
vn -1.0000 -0.0000 -0.0000
vn 0.1204 0.9927 -0.0000
vn -0.5773 -0.5774 0.5774
vn -0.5773 0.5774 0.5774
vn -0.5773 -0.5774 -0.5774
vn -0.5773 0.5774 -0.5774
vn 0.5773 -0.5774 0.5773
vn 0.5774 0.5774 0.5773
vn 0.5773 -0.5774 -0.5773
vn 0.5774 0.5774 -0.5773
vn -0.7071 -0.7071 -0.0000
vn -0.7071 -0.0000 0.7071
vn -0.7071 0.7071 -0.0000
vn -0.7071 -0.0000 -0.7071
vn -0.0000 -0.7071 -0.7071
vn -0.0000 0.7071 -0.7071
vn 0.7071 -0.0000 -0.7071
vn 0.7071 -0.7071 -0.0000
vn 0.7071 0.7071 -0.0000
vn 0.7071 -0.0000 0.7071
vn -0.0000 -0.7071 0.7071
vn -0.0000 0.7071 0.7071
vn -0.0000 1.0000 -0.0000
vn -0.0000 -0.2588 -0.9659
vn -0.0000 -0.9659 -0.2588
vn -0.0000 -0.9659 0.2588
vn -0.0000 -0.2588 0.9659
vn -0.0000 0.2588 0.9659
vn -0.0000 0.9659 0.2588
vn -0.0000 0.9659 -0.2588
vn -0.0000 0.2588 -0.9659
vn -0.5773 -0.5774 0.5773
vn -0.5774 0.5774 0.5773
vn -0.5773 -0.5774 -0.5773
vn -0.5774 0.5774 -0.5773
vn 0.5773 -0.5774 0.5774
vn 0.5773 0.5774 0.5774
vn 0.5773 -0.5774 -0.5774
vn 0.5773 0.5774 -0.5774
vn 0.1913 -0.3314 -0.9239
vn 0.4619 -0.8001 -0.3827
vn 0.4619 -0.8001 0.3827
vn 0.1913 -0.3314 0.9239
vn -0.1913 0.3314 0.9239
vn -0.4619 0.8001 0.3827
vn 0.8660 0.5000 -0.0000
vn -0.4619 0.8001 -0.3827
vn -0.1913 0.3314 -0.9239
vn -0.8660 -0.5000 -0.0000
vt 0.125000 0.125000
vt 0.875000 0.125000
vt 0.375000 0.125000
vt 0.125000 0.375000
vt 0.625000 0.375000
s 0
usemtl MilitaryEnemyPalette
f 1/1/1 4/1/1 3/1/1 2/1/1
f 1/1/2 2/1/2 6/1/2 5/1/2
f 2/1/3 3/1/3 7/1/3 6/1/3
f 3/1/4 4/1/4 8/1/4 7/1/4
f 4/1/5 1/1/5 5/1/5 8/1/5
f 5/1/6 6/1/6 7/1/6 8/1/6
f 9/2/7 10/2/7 11/2/7
f 12/2/8 13/2/8 14/2/8
f 15/2/9 16/2/9 17/2/9
f 18/2/10 19/2/10 20/2/10
f 21/2/11 22/2/11 23/2/11
f 24/2/12 25/2/12 26/2/12
f 27/2/13 28/2/13 29/2/13
f 30/2/14 31/2/14 32/2/14
f 15/2/15 9/2/15 11/2/15 16/2/15
f 10/2/16 12/2/16 14/2/16 11/2/16
f 13/2/17 18/2/17 20/2/17 14/2/17
f 19/2/18 17/2/18 16/2/18 20/2/18
f 27/2/19 15/2/19 17/2/19 28/2/19
f 18/2/20 30/2/20 32/2/20 19/2/20
f 31/2/21 29/2/21 28/2/21 32/2/21
f 21/2/22 27/2/22 29/2/22 22/2/22
f 30/2/23 24/2/23 26/2/23 31/2/23
f 25/2/24 23/2/24 22/2/24 26/2/24
f 9/2/25 21/2/25 23/2/25 10/2/25
f 24/2/26 13/2/26 12/2/26 25/2/26
f 15/2/1 27/2/1 21/2/1 9/2/1
f 11/2/5 14/2/5 20/2/5 16/2/5
f 23/2/2 25/2/2 12/2/2 10/2/2
f 30/2/27 18/2/27 13/2/27 24/2/27
f 17/2/4 19/2/4 32/2/4 28/2/4
f 29/2/3 31/2/3 26/2/3 22/2/3
f 33/2/28 34/2/28 36/2/28 35/2/28
f 35/2/19 36/2/19 38/2/19 37/2/19
f 37/2/29 38/2/29 40/2/29 39/2/29
f 39/2/30 40/2/30 42/2/30 41/2/30
f 41/2/25 42/2/25 44/2/25 43/2/25
f 43/2/31 44/2/31 46/2/31 45/2/31
f 45/2/32 46/2/32 48/2/32 47/2/32
f 47/2/26 48/2/26 50/2/26 49/2/26
f 49/2/33 50/2/33 52/2/33 51/2/33
f 51/2/34 52/2/34 54/2/34 53/2/34
f 36/2/3 34/2/3 56/2/3 54/2/3 52/2/3 50/2/3 48/2/3 46/2/3 44/2/3 42/2/3 40/2/3 38/2/3
f 53/2/20 54/2/20 56/2/20 55/2/20
f 55/2/35 56/2/35 34/2/35 33/2/35
f 33/2/5 35/2/5 37/2/5 39/2/5 41/2/5 43/2/5 45/2/5 47/2/5 49/2/5 51/2/5 53/2/5 55/2/5
f 57/2/28 58/2/28 60/2/28 59/2/28
f 59/2/19 60/2/19 62/2/19 61/2/19
f 61/2/29 62/2/29 64/2/29 63/2/29
f 63/2/30 64/2/30 66/2/30 65/2/30
f 65/2/25 66/2/25 68/2/25 67/2/25
f 67/2/31 68/2/31 70/2/31 69/2/31
f 69/2/32 70/2/32 72/2/32 71/2/32
f 71/2/26 72/2/26 74/2/26 73/2/26
f 73/2/33 74/2/33 76/2/33 75/2/33
f 75/2/34 76/2/34 78/2/34 77/2/34
f 60/2/3 58/2/3 80/2/3 78/2/3 76/2/3 74/2/3 72/2/3 70/2/3 68/2/3 66/2/3 64/2/3 62/2/3
f 77/2/20 78/2/20 80/2/20 79/2/20
f 79/2/35 80/2/35 58/2/35 57/2/35
f 57/2/5 59/2/5 61/2/5 63/2/5 65/2/5 67/2/5 69/2/5 71/2/5 73/2/5 75/2/5 77/2/5 79/2/5
f 81/2/28 82/2/28 84/2/28 83/2/28
f 83/2/19 84/2/19 86/2/19 85/2/19
f 85/2/29 86/2/29 88/2/29 87/2/29
f 87/2/30 88/2/30 90/2/30 89/2/30
f 89/2/25 90/2/25 92/2/25 91/2/25
f 91/2/31 92/2/31 94/2/31 93/2/31
f 93/2/32 94/2/32 96/2/32 95/2/32
f 95/2/26 96/2/26 98/2/26 97/2/26
f 97/2/33 98/2/33 100/2/33 99/2/33
f 99/2/34 100/2/34 102/2/34 101/2/34
f 84/2/3 82/2/3 104/2/3 102/2/3 100/2/3 98/2/3 96/2/3 94/2/3 92/2/3 90/2/3 88/2/3 86/2/3
f 101/2/20 102/2/20 104/2/20 103/2/20
f 103/2/35 104/2/35 82/2/35 81/2/35
f 81/2/5 83/2/5 85/2/5 87/2/5 89/2/5 91/2/5 93/2/5 95/2/5 97/2/5 99/2/5 101/2/5 103/2/5
f 105/2/36 106/2/36 107/2/36
f 108/2/37 109/2/37 110/2/37
f 111/2/38 112/2/38 113/2/38
f 114/2/39 115/2/39 116/2/39
f 117/2/40 118/2/40 119/2/40
f 120/2/41 121/2/41 122/2/41
f 123/2/42 124/2/42 125/2/42
f 126/2/43 127/2/43 128/2/43
f 111/2/15 105/2/15 107/2/15 112/2/15
f 106/2/16 108/2/16 110/2/16 107/2/16
f 109/2/17 114/2/17 116/2/17 110/2/17
f 115/2/18 113/2/18 112/2/18 116/2/18
f 123/2/19 111/2/19 113/2/19 124/2/19
f 114/2/20 126/2/20 128/2/20 115/2/20
f 127/2/21 125/2/21 124/2/21 128/2/21
f 117/2/22 123/2/22 125/2/22 118/2/22
f 126/2/23 120/2/23 122/2/23 127/2/23
f 121/2/24 119/2/24 118/2/24 122/2/24
f 105/2/25 117/2/25 119/2/25 106/2/25
f 120/2/26 109/2/26 108/2/26 121/2/26
f 111/2/1 123/2/1 117/2/1 105/2/1
f 107/2/5 110/2/5 116/2/5 112/2/5
f 119/2/2 121/2/2 108/2/2 106/2/2
f 126/2/27 114/2/27 109/2/27 120/2/27
f 113/2/4 115/2/4 128/2/4 124/2/4
f 125/2/3 127/2/3 122/2/3 118/2/3
f 129/2/28 130/2/28 132/2/28 131/2/28
f 131/2/19 132/2/19 134/2/19 133/2/19
f 133/2/29 134/2/29 136/2/29 135/2/29
f 135/2/30 136/2/30 138/2/30 137/2/30
f 137/2/25 138/2/25 140/2/25 139/2/25
f 139/2/31 140/2/31 142/2/31 141/2/31
f 141/2/32 142/2/32 144/2/32 143/2/32
f 143/2/26 144/2/26 146/2/26 145/2/26
f 145/2/33 146/2/33 148/2/33 147/2/33
f 147/2/34 148/2/34 150/2/34 149/2/34
f 132/2/3 130/2/3 152/2/3 150/2/3 148/2/3 146/2/3 144/2/3 142/2/3 140/2/3 138/2/3 136/2/3 134/2/3
f 149/2/20 150/2/20 152/2/20 151/2/20
f 151/2/35 152/2/35 130/2/35 129/2/35
f 129/2/5 131/2/5 133/2/5 135/2/5 137/2/5 139/2/5 141/2/5 143/2/5 145/2/5 147/2/5 149/2/5 151/2/5
f 153/2/28 154/2/28 156/2/28 155/2/28
f 155/2/19 156/2/19 158/2/19 157/2/19
f 157/2/29 158/2/29 160/2/29 159/2/29
f 159/2/30 160/2/30 162/2/30 161/2/30
f 161/2/25 162/2/25 164/2/25 163/2/25
f 163/2/31 164/2/31 166/2/31 165/2/31
f 165/2/32 166/2/32 168/2/32 167/2/32
f 167/2/26 168/2/26 170/2/26 169/2/26
f 169/2/33 170/2/33 172/2/33 171/2/33
f 171/2/34 172/2/34 174/2/34 173/2/34
f 156/2/3 154/2/3 176/2/3 174/2/3 172/2/3 170/2/3 168/2/3 166/2/3 164/2/3 162/2/3 160/2/3 158/2/3
f 173/2/20 174/2/20 176/2/20 175/2/20
f 175/2/35 176/2/35 154/2/35 153/2/35
f 153/2/5 155/2/5 157/2/5 159/2/5 161/2/5 163/2/5 165/2/5 167/2/5 169/2/5 171/2/5 173/2/5 175/2/5
f 177/2/28 178/2/28 180/2/28 179/2/28
f 179/2/19 180/2/19 182/2/19 181/2/19
f 181/2/29 182/2/29 184/2/29 183/2/29
f 183/2/30 184/2/30 186/2/30 185/2/30
f 185/2/25 186/2/25 188/2/25 187/2/25
f 187/2/31 188/2/31 190/2/31 189/2/31
f 189/2/32 190/2/32 192/2/32 191/2/32
f 191/2/26 192/2/26 194/2/26 193/2/26
f 193/2/33 194/2/33 196/2/33 195/2/33
f 195/2/34 196/2/34 198/2/34 197/2/34
f 180/2/3 178/2/3 200/2/3 198/2/3 196/2/3 194/2/3 192/2/3 190/2/3 188/2/3 186/2/3 184/2/3 182/2/3
f 197/2/20 198/2/20 200/2/20 199/2/20
f 199/2/35 200/2/35 178/2/35 177/2/35
f 177/2/5 179/2/5 181/2/5 183/2/5 185/2/5 187/2/5 189/2/5 191/2/5 193/2/5 195/2/5 197/2/5 199/2/5
f 201/3/5 202/3/5 204/3/5 203/3/5
f 203/3/4 204/3/4 208/3/4 207/3/4
f 207/3/3 208/3/3 206/3/3 205/3/3
f 205/3/2 206/3/2 202/3/2 201/3/2
f 203/3/1 207/3/1 205/3/1 201/3/1
f 208/3/27 204/3/27 202/3/27 206/3/27
f 209/4/44 210/4/44 212/4/44 211/4/44
f 211/4/45 212/4/45 214/4/45 213/4/45
f 213/4/46 214/4/46 216/4/46 215/4/46
f 215/4/47 216/4/47 218/4/47 217/4/47
f 217/4/48 218/4/48 220/4/48 219/4/48
f 219/4/49 220/4/49 222/4/49 221/4/49
f 212/4/50 210/4/50 224/4/50 222/4/50 220/4/50 218/4/50 216/4/50 214/4/50
f 221/4/51 222/4/51 224/4/51 223/4/51
f 223/4/52 224/4/52 210/4/52 209/4/52
f 209/4/53 211/4/53 213/4/53 215/4/53 217/4/53 219/4/53 221/4/53 223/4/53
f 225/5/5 226/5/5 228/5/5 227/5/5
f 227/5/4 228/5/4 232/5/4 231/5/4
f 231/5/3 232/5/3 230/5/3 229/5/3
f 229/5/2 230/5/2 226/5/2 225/5/2
f 227/5/1 231/5/1 229/5/1 225/5/1
f 232/5/27 228/5/27 226/5/27 230/5/27
f 233/4/5 234/4/5 236/4/5 235/4/5
f 235/4/4 236/4/4 240/4/4 239/4/4
f 239/4/3 240/4/3 238/4/3 237/4/3
f 237/4/2 238/4/2 234/4/2 233/4/2
f 235/4/1 239/4/1 237/4/1 233/4/1
f 240/4/27 236/4/27 234/4/27 238/4/27
