# Blender 5.2.1 LTS
# www.blender.org
mtllib wreck_buggy.mtl
o Body.010
v -0.859200 0.884800 0.216000
v -0.859200 1.204800 0.216000
v -0.859200 0.884800 -0.792000
v -0.859200 1.204800 -0.792000
v 0.283200 0.884800 0.216000
v 0.283200 1.204800 0.216000
v 0.283200 0.884800 -0.792000
v 0.283200 1.204800 -0.792000
v -1.680000 0.116800 1.800000
v 1.680000 0.116800 1.800000
v 1.680000 0.116800 -1.800000
v -1.680000 0.116800 -1.800000
v -1.680000 0.884800 1.800000
v 1.680000 0.685120 1.800000
v 1.680000 0.685120 -1.800000
v -1.680000 0.884800 -1.800000
v -1.017600 0.844800 1.244000
v -1.017600 1.052800 1.244000
v -1.017600 0.844800 -0.988000
v -1.017600 1.052800 -0.988000
v 1.401600 0.844800 1.244000
v 1.401600 1.052800 1.244000
v 1.401600 0.844800 -0.988000
v 1.401600 1.052800 -0.988000
v -1.304000 0.436800 0.715200
v -1.048000 0.436800 0.715200
v -1.304000 0.218400 0.773720
v -1.048000 0.218400 0.773720
v -1.304000 0.058520 0.933600
v -1.048000 0.058520 0.933600
v -1.304000 0.000000 1.152000
v -1.048000 0.000000 1.152000
v -1.304000 0.058520 1.370400
v -1.048000 0.058520 1.370400
v -1.304000 0.218400 1.530280
v -1.048000 0.218400 1.530280
v -1.304000 0.436800 1.588800
v -1.048000 0.436800 1.588800
v -1.304000 0.655200 1.530280
v -1.048000 0.655200 1.530280
v -1.304000 0.815080 1.370400
v -1.048000 0.815080 1.370400
v -1.304000 0.873600 1.152000
v -1.048000 0.873600 1.152000
v -1.304000 0.815080 0.933600
v -1.048000 0.815080 0.933600
v -1.304000 0.655200 0.773720
v -1.048000 0.655200 0.773720
v 1.048000 0.436800 -1.588800
v 1.304000 0.436800 -1.588800
v 1.048000 0.218400 -1.530280
v 1.304000 0.218400 -1.530280
v 1.048000 0.058520 -1.370400
v 1.304000 0.058520 -1.370400
v 1.048000 0.000000 -1.152000
v 1.304000 0.000000 -1.152000
v 1.048000 0.058520 -0.933600
v 1.304000 0.058520 -0.933600
v 1.048000 0.218400 -0.773720
v 1.304000 0.218400 -0.773720
v 1.048000 0.436800 -0.715200
v 1.304000 0.436800 -0.715200
v 1.048000 0.655200 -0.773720
v 1.304000 0.655200 -0.773720
v 1.048000 0.815080 -0.933600
v 1.304000 0.815080 -0.933600
v 1.048000 0.873600 -1.152000
v 1.304000 0.873600 -1.152000
v 1.048000 0.815080 -1.370400
v 1.304000 0.815080 -1.370400
v 1.048000 0.655200 -1.530280
v 1.304000 0.655200 -1.530280
vn -1.0000 -0.0000 -0.0000
vn -0.0000 -0.0000 -1.0000
vn 1.0000 -0.0000 -0.0000
vn -0.0000 -0.0000 1.0000
vn -0.0000 -1.0000 -0.0000
vn -0.0000 1.0000 -0.0000
vn 0.0593 0.9982 -0.0000
vn -0.0000 -0.2588 -0.9659
vn -0.0000 -0.7071 -0.7071
vn -0.0000 -0.9659 -0.2588
vn -0.0000 -0.9659 0.2588
vn -0.0000 -0.7071 0.7071
vn -0.0000 -0.2588 0.9659
vn -0.0000 0.2588 0.9659
vn -0.0000 0.7071 0.7071
vn -0.0000 0.9659 0.2588
vn -0.0000 0.9659 -0.2588
vn -0.0000 0.7071 -0.7071
vn -0.0000 0.2588 -0.9659
vt 0.375000 0.625000
vt 0.625000 0.125000
vt 0.125000 0.375000
vt 0.875000 0.125000
s 0
usemtl MilitaryEnemyPalette
f 1/1/1 2/1/1 4/1/1 3/1/1
f 3/1/2 4/1/2 8/1/2 7/1/2
f 7/1/3 8/1/3 6/1/3 5/1/3
f 5/1/4 6/1/4 2/1/4 1/1/4
f 3/1/5 7/1/5 5/1/5 1/1/5
f 8/1/6 4/1/6 2/1/6 6/1/6
f 9/2/5 12/2/5 11/2/5 10/2/5
f 9/2/4 10/2/4 14/2/4 13/2/4
f 10/2/3 11/2/3 15/2/3 14/2/3
f 11/2/2 12/2/2 16/2/2 15/2/2
f 12/2/1 9/2/1 13/2/1 16/2/1
f 13/2/7 14/2/7 15/2/7 16/2/7
f 17/3/1 18/3/1 20/3/1 19/3/1
f 19/3/2 20/3/2 24/3/2 23/3/2
f 23/3/3 24/3/3 22/3/3 21/3/3
f 21/3/4 22/3/4 18/3/4 17/3/4
f 19/3/5 23/3/5 21/3/5 17/3/5
f 24/3/6 20/3/6 18/3/6 22/3/6
f 25/4/8 26/4/8 28/4/8 27/4/8
f 27/4/9 28/4/9 30/4/9 29/4/9
f 29/4/10 30/4/10 32/4/10 31/4/10
f 31/4/11 32/4/11 34/4/11 33/4/11
f 33/4/12 34/4/12 36/4/12 35/4/12
f 35/4/13 36/4/13 38/4/13 37/4/13
f 37/4/14 38/4/14 40/4/14 39/4/14
f 39/4/15 40/4/15 42/4/15 41/4/15
f 41/4/16 42/4/16 44/4/16 43/4/16
f 43/4/17 44/4/17 46/4/17 45/4/17
f 28/4/3 26/4/3 48/4/3 46/4/3 44/4/3 42/4/3 40/4/3 38/4/3 36/4/3 34/4/3 32/4/3 30/4/3
f 45/4/18 46/4/18 48/4/18 47/4/18
f 47/4/19 48/4/19 26/4/19 25/4/19
f 25/4/1 27/4/1 29/4/1 31/4/1 33/4/1 35/4/1 37/4/1 39/4/1 41/4/1 43/4/1 45/4/1 47/4/1
f 49/4/8 50/4/8 52/4/8 51/4/8
f 51/4/9 52/4/9 54/4/9 53/4/9
f 53/4/10 54/4/10 56/4/10 55/4/10
f 55/4/11 56/4/11 58/4/11 57/4/11
f 57/4/12 58/4/12 60/4/12 59/4/12
f 59/4/13 60/4/13 62/4/13 61/4/13
f 61/4/14 62/4/14 64/4/14 63/4/14
f 63/4/15 64/4/15 66/4/15 65/4/15
f 65/4/16 66/4/16 68/4/16 67/4/16
f 67/4/17 68/4/17 70/4/17 69/4/17
f 52/4/3 50/4/3 72/4/3 70/4/3 68/4/3 66/4/3 64/4/3 62/4/3 60/4/3 58/4/3 56/4/3 54/4/3
f 69/4/18 70/4/18 72/4/18 71/4/18
f 71/4/19 72/4/19 50/4/19 49/4/19
f 49/4/1 51/4/1 53/4/1 55/4/1 57/4/1 59/4/1 61/4/1 63/4/1 65/4/1 67/4/1 69/4/1 71/4/1
