# Blender 5.2.1 LTS
# www.blender.org
mtllib wreck_bike.mtl
o Body.009
v -0.372960 0.537600 0.127680
v -0.372960 0.761600 0.127680
v -0.372960 0.537600 -0.530880
v -0.372960 0.761600 -0.530880
v -0.030240 0.537600 0.127680
v -0.030240 0.761600 0.127680
v -0.030240 0.537600 -0.530880
v -0.030240 0.761600 -0.530880
v -0.504000 0.000000 1.176000
v 0.504000 0.000000 1.176000
v 0.504000 0.000000 -1.176000
v -0.504000 0.000000 -1.176000
v -0.504000 0.537600 1.176000
v 0.504000 0.397824 1.176000
v 0.504000 0.397824 -1.176000
v -0.504000 0.537600 -1.176000
v -0.228480 0.509600 0.818720
v -0.228480 0.655200 0.818720
v -0.228480 0.509600 -0.639520
v -0.228480 0.655200 -0.639520
v 0.497280 0.509600 0.818720
v 0.497280 0.655200 0.818720
v 0.497280 0.509600 -0.639520
v 0.497280 0.655200 -0.639520
vn -1.0000 -0.0000 -0.0000
vn -0.0000 -0.0000 -1.0000
vn 1.0000 -0.0000 -0.0000
vn -0.0000 -0.0000 1.0000
vn -0.0000 -1.0000 -0.0000
vn -0.0000 1.0000 -0.0000
vn 0.1374 0.9905 -0.0000
vt 0.375000 0.625000
vt 0.625000 0.125000
vt 0.125000 0.375000
s 0
usemtl MilitaryEnemyPalette
f 1/1/1 2/1/1 4/1/1 3/1/1
f 3/1/2 4/1/2 8/1/2 7/1/2
f 7/1/3 8/1/3 6/1/3 5/1/3
f 5/1/4 6/1/4 2/1/4 1/1/4
f 3/1/5 7/1/5 5/1/5 1/1/5
f 8/1/6 4/1/6 2/1/6 6/1/6
f 9/2/5 12/2/5 11/2/5 10/2/5
f 9/2/4 10/2/4 14/2/4 13/2/4
f 10/2/3 11/2/3 15/2/3 14/2/3
f 11/2/2 12/2/2 16/2/2 15/2/2
f 12/2/1 9/2/1 13/2/1 16/2/1
f 13/2/7 14/2/7 15/2/7 16/2/7
f 17/3/1 18/3/1 20/3/1 19/3/1
f 19/3/2 20/3/2 24/3/2 23/3/2
f 23/3/3 24/3/3 22/3/3 21/3/3
f 21/3/4 22/3/4 18/3/4 17/3/4
f 19/3/5 23/3/5 21/3/5 17/3/5
f 24/3/6 20/3/6 18/3/6 22/3/6
