# Blender 5.2.1 LTS
# www.blender.org
mtllib birch_tree.mtl
o birch_tree_MODEL
v -0.042868 0.228335 -0.150863
v 0.647056 0.021701 -0.205115
v -0.052359 0.108923 -0.005849
v 0.643070 -0.028453 -0.144209
v 0.010509 0.198294 0.147248
v 0.669475 0.009083 -0.079909
v 0.058853 0.372941 0.096853
v 0.689779 0.082435 -0.101074
v 0.025864 0.391507 -0.087389
v 0.675924 0.090233 -0.178456
v -0.021743 0.108923 0.047988
v 0.061568 -0.028453 -0.656160
v 0.143289 0.198294 0.035508
v 0.130882 0.009083 -0.661401
v 0.110300 0.372941 -0.026043
v 0.117026 0.082435 -0.687253
v -0.075119 0.391507 -0.051603
v 0.039150 0.090233 -0.697988
v -0.156726 0.228335 -0.005849
v 0.004875 0.021700 -0.678771
v 0.078048 0.198294 -0.125303
v -0.588585 0.009084 -0.328860
v 0.009316 0.372941 -0.112949
v -0.617453 0.082435 -0.323671
v -0.072291 0.391507 0.055497
v -0.651728 0.090233 -0.252924
v -0.053994 0.228335 0.147248
v -0.644043 0.021701 -0.214389
v 0.038921 0.108923 0.035508
v -0.605019 -0.028453 -0.261319
v -0.104542 0.372941 -0.043763
v -0.498633 0.082435 0.487213
v 0.030441 0.391507 0.085902
v -0.441940 0.090233 0.541672
v 0.123356 0.228335 0.096853
v -0.402916 0.021701 0.546272
v 0.045797 0.108923 -0.026043
v -0.435491 -0.028453 0.494655
v -0.095052 0.198294 -0.112949
v -0.494647 0.009084 0.458155
v 0.091105 0.391507 -0.002406
v 0.378594 0.090233 0.587696
v 0.130232 0.228335 -0.087389
v 0.395028 0.021701 0.552003
v -0.010617 0.108923 -0.051603
v 0.335871 -0.028453 0.567033
v -0.136794 0.198294 0.055497
v 0.282877 0.009084 0.612015
v -0.073926 0.372941 0.085902
v 0.309281 0.082435 0.624785
v -0.000000 0.000000 -0.300000
v 0.000000 6.900001 -0.170000
v 0.212132 -0.000000 -0.212132
v 0.120208 6.900000 -0.120208
v 0.300000 -0.000000 0.000000
v 0.170000 6.900000 -0.000000
v 0.212132 -0.000000 0.212132
v 0.120208 6.900001 0.120208
v 0.000000 -0.000000 0.300000
v 0.000000 6.900001 0.170000
v -0.212132 0.000000 0.212132
v -0.120208 6.900001 0.120208
v -0.300000 0.000000 0.000000
v -0.170000 6.900001 -0.000000
v -0.212132 0.000000 -0.212132
v -0.120208 6.900001 -0.120208
v 0.261631 0.707000 0.035000
v 0.261631 0.733000 0.035000
v 0.261631 0.707000 -0.035000
v 0.261631 0.733000 -0.035000
v 0.273631 0.707000 0.035000
v 0.273631 0.733000 0.035000
v 0.273631 0.707000 -0.035000
v 0.273631 0.733000 -0.035000
v -0.147435 1.641000 -0.202919
v -0.147435 1.679000 -0.202919
v -0.217581 1.641000 -0.124788
v -0.217581 1.679000 -0.124788
v -0.156364 1.641000 -0.210936
v -0.156364 1.679000 -0.210936
v -0.226510 1.641000 -0.132804
v -0.226510 1.679000 -0.132804
v -0.045010 2.575000 0.235101
v -0.045010 2.625000 0.235101
v 0.094181 2.575000 0.220065
v 0.094181 2.625000 0.220065
v -0.043721 2.575000 0.247032
v -0.043721 2.625000 0.247032
v 0.095469 2.575000 0.231995
v 0.095469 2.625000 0.231995
v 0.155945 3.179000 -0.156705
v 0.155945 3.241000 -0.156705
v 0.099136 3.179000 -0.197604
v 0.099136 3.241000 -0.197604
v 0.162956 3.179000 -0.166444
v 0.162956 3.241000 -0.166444
v 0.106147 3.179000 -0.207343
v 0.106147 3.241000 -0.207343
v -0.208481 4.137001 -0.008164
v -0.208481 4.163001 -0.008164
v -0.186056 4.137000 0.094413
v -0.186056 4.163001 0.094413
v -0.220204 4.137000 -0.005602
v -0.220204 4.163001 -0.005602
v -0.197780 4.137000 0.096976
v -0.197780 4.163000 0.096976
v 0.126810 5.071001 0.152492
v 0.126810 5.109001 0.152492
v 0.195932 5.071001 0.030745
v 0.195932 5.109000 0.030745
v 0.137245 5.071001 0.158416
v 0.137245 5.109000 0.158416
v 0.206367 5.071001 0.036670
v 0.206367 5.109001 0.036670
v -0.049812 0.695000 -0.259219
v -0.049812 0.745000 -0.259219
v -0.116196 0.695000 -0.237012
v -0.116196 0.745000 -0.237012
v -0.053619 0.695000 -0.270599
v -0.053619 0.745000 -0.270599
v -0.120003 0.695000 -0.248392
v -0.120003 0.745000 -0.248392
v -0.145662 1.629000 0.204195
v -0.145662 1.691000 0.204195
v -0.049313 1.629000 0.245930
v -0.049313 1.691000 0.245930
v -0.150432 1.629000 0.215207
v -0.150432 1.691000 0.215207
v -0.054082 1.629000 0.256941
v -0.054082 1.691000 0.256941
v 0.237236 2.587000 -0.031902
v 0.237236 2.613000 -0.031902
v 0.178817 2.587000 -0.159132
v 0.178817 2.613000 -0.159132
v 0.248141 2.587000 -0.036910
v 0.248141 2.613000 -0.036910
v 0.189722 2.587000 -0.164139
v 0.189722 2.613000 -0.164139
v -0.198084 3.191000 -0.098173
v -0.198084 3.229000 -0.098173
v -0.218847 3.191000 -0.031324
v -0.218847 3.229000 -0.031323
v -0.209544 3.191000 -0.101733
v -0.209544 3.229000 -0.101733
v -0.230307 3.191000 -0.034883
v -0.230307 3.229000 -0.034883
v 0.058399 4.125000 0.200301
v 0.058399 4.175000 0.200301
v 0.148563 4.125000 0.146492
v 0.148563 4.175000 0.146492
v 0.064549 4.125000 0.210605
v 0.064548 4.175000 0.210605
v 0.154713 4.125000 0.156796
v 0.154713 4.175000 0.156796
v 0.104383 5.059000 -0.168637
v 0.104383 5.121000 -0.168637
v -0.033003 5.059001 -0.195564
v -0.033003 5.121000 -0.195564
v 0.106691 5.059001 -0.180413
v 0.106691 5.121000 -0.180413
v -0.030695 5.059001 -0.207340
v -0.030695 5.121000 -0.207340
v -0.017014 3.241925 -0.134725
v -1.648746 5.146609 -0.206585
v 0.070307 3.321951 -0.069948
v -1.612072 5.180220 -0.179378
v 0.067321 3.330026 0.064777
v -1.613326 5.183611 -0.122794
v -0.022986 3.258075 0.134725
v -1.651254 5.153391 -0.093415
v -0.110306 3.178049 0.069949
v -1.687929 5.119781 -0.120622
v -0.107320 3.169974 -0.064777
v -1.686675 5.116389 -0.177206
v 0.006414 3.917529 -0.119552
v 1.552694 5.727362 0.299788
v 0.083397 3.841538 -0.065330
v 1.585027 5.695446 0.322561
v 0.076984 3.824010 0.054221
v 1.582333 5.688084 0.372773
v -0.006414 3.882472 0.119552
v 1.547306 5.712638 0.400212
v -0.083398 3.958462 0.065330
v 1.514973 5.744555 0.377439
v -0.076984 3.975991 -0.054221
v 1.517667 5.751916 0.327227
v -0.003313 4.759845 -0.106495
v -1.181391 6.304136 0.135272
v 0.072199 4.810815 -0.050378
v -1.149676 6.325543 0.158841
v 0.075512 4.800970 0.056116
v -1.148285 6.321408 0.203569
v 0.003313 4.740155 0.106495
v -1.178608 6.295866 0.224728
v -0.072199 4.689186 0.050378
v -1.210323 6.274458 0.201159
v -0.075511 4.699031 -0.056117
v -1.211715 6.278593 0.156431
v -0.003789 5.336730 -0.091971
v 0.918409 6.814427 -0.288628
v 0.066571 5.301075 -0.042704
v 0.947960 6.799452 -0.267936
v 0.070360 5.314344 0.049266
v 0.949551 6.805026 -0.229308
v 0.003789 5.363270 0.091970
v 0.921592 6.825574 -0.211373
v -0.066570 5.398926 0.042704
v 0.892041 6.840549 -0.232065
v -0.070359 5.385656 -0.049267
v 0.890449 6.834977 -0.270692
v -1.550000 4.125000 -0.150000
v -0.510611 4.718927 0.487726
v -1.940287 4.690976 0.815623
v -2.791285 4.732907 -0.150000
v -1.926855 4.704951 -1.137706
v -0.580945 4.746879 -0.815022
v -1.186577 5.781074 0.859789
v -2.483888 5.809024 0.433134
v -2.466304 5.767098 -0.787726
v -1.206726 5.795049 -1.115623
v -0.265246 5.753118 -0.150000
v -1.550000 6.437500 -0.150000
v -1.775456 4.186682 0.482474
v -0.970073 4.266431 0.216821
v -1.197966 4.609257 0.747356
v -0.431483 4.658547 -0.150000
v -1.001078 4.239848 -0.500777
v -2.215732 4.186686 -0.150000
v -2.404731 4.642118 0.430556
v -1.783351 4.213265 -0.782474
v -2.521792 4.658547 -0.743536
v -1.185191 4.625687 -1.047356
v -0.253232 5.250000 0.224845
v -0.276343 5.250000 -0.500779
v -1.550000 5.250000 1.089000
v -0.791404 5.250000 0.789365
v -2.754325 5.250000 0.240889
v -2.280030 5.250000 0.810367
v -2.394295 5.250000 -1.047361
v -2.892989 5.250000 -0.524845
v -0.734271 5.250000 -1.068363
v -1.550000 5.250000 -1.389000
v -0.628377 5.907171 0.430556
v -1.895646 5.857884 0.873367
v -2.647846 5.890741 -0.150000
v -1.882871 5.841455 -1.047356
v -0.695269 5.874311 -0.756516
v -1.316649 6.313319 0.417575
v -0.807617 6.233566 -0.150000
v -2.140263 6.286735 0.208799
v -2.129928 6.206986 -0.540887
v -1.332439 6.260152 -0.743534
v 1.420000 4.565000 0.350000
v 2.513284 5.206442 1.025557
v 1.009475 5.176253 1.372906
v 0.114353 5.221540 0.350000
v 1.023605 5.191347 -0.696299
v 2.439302 5.236629 -0.354472
v 1.802267 6.353559 1.419691
v 0.437689 6.383747 0.967727
v 0.456184 6.338466 -0.325557
v 1.781073 6.368653 -0.672906
v 2.771371 6.323368 0.350000
v 1.420000 7.062500 0.350000
v 1.182854 4.631617 1.019994
v 2.029998 4.717746 0.738582
v 1.790288 5.087998 1.300589
v 2.596514 5.141232 0.350000
v 1.997384 4.689036 -0.021586
v 0.719749 4.631621 0.350000
v 0.520949 5.123487 0.964996
v 1.174549 4.660326 -0.319994
v 0.397819 5.141231 -0.278746
v 1.803726 5.105742 -0.600589
v 2.784007 5.780001 0.747081
v 2.759698 5.780001 -0.021588
v 1.420000 5.780000 1.662500
v 2.217931 5.780000 1.345091
v 0.153229 5.780001 0.764077
v 0.652117 5.780000 1.367338
v 0.531927 5.780000 -0.600595
v 0.007375 5.780001 -0.047081
v 2.278026 5.780000 -0.622842
v 1.420000 5.780001 -0.962500
v 2.389411 6.489744 0.964996
v 1.056432 6.436515 1.434075
v 0.265229 6.472000 0.350000
v 1.069869 6.418771 -0.600589
v 2.319051 6.454257 -0.292496
v 1.665451 6.928384 0.951244
v 2.200877 6.842251 0.350000
v 0.799131 6.899674 0.730084
v 0.810002 6.813545 -0.064075
v 1.648842 6.870965 -0.278744
v -0.780000 5.274000 0.150000
v 0.220893 5.910690 0.766108
v -1.155833 5.880726 1.082890
v -1.975311 5.925676 0.150000
v -1.142898 5.895708 -0.804224
v 0.153164 5.940654 -0.492478
v -0.430037 7.049312 1.125559
v -1.679299 7.079275 0.713367
v -1.662367 7.034329 -0.466108
v -0.449440 7.064293 -0.782890
v 0.457170 7.019342 0.150000
v -0.780000 7.753000 0.150000
v -0.997106 5.340123 0.761034
v -0.221551 5.425614 0.504387
v -0.441004 5.793124 1.016937
v 0.297090 5.845963 0.150000
v -0.251409 5.397118 -0.188887
v -1.421075 5.340127 0.150000
v -1.603075 5.828350 0.710877
v -1.004709 5.368620 -0.461034
v -1.715800 5.845963 -0.423416
v -0.428702 5.810736 -0.716937
v 0.468739 6.480000 0.512138
v 0.446484 6.480000 -0.188888
v -0.780000 6.480000 1.347000
v -0.049500 6.480001 1.057523
v -1.939720 6.480000 0.527638
v -1.482992 6.480000 1.077813
v -1.593025 6.480001 -0.716942
v -2.073248 6.480000 -0.212138
v 0.005517 6.480000 -0.737232
v -0.780000 6.480000 -1.047000
v 0.107489 7.184486 0.710877
v -1.112844 7.131652 1.138677
v -1.837185 7.166874 0.150000
v -1.100542 7.114040 -0.716937
v 0.043074 7.149262 -0.435956
v -0.555291 7.619877 0.698335
v -0.065113 7.534383 0.150000
v -1.348401 7.591380 0.496637
v -1.338449 7.505889 -0.227637
v -0.570497 7.562883 -0.423415
v 0.550000 5.708001 -0.220000
v 1.535496 6.316182 0.363681
v 0.179950 6.287560 0.663790
v -0.626921 6.330497 -0.220000
v 0.192686 6.301871 -1.124002
v 1.468808 6.344804 -0.828664
v 0.894579 7.403820 0.704213
v -0.335463 7.432442 0.313716
v -0.318792 7.389508 -0.803681
v 0.875475 7.418131 -1.103791
v 1.768137 7.375193 -0.220000
v 0.550000 8.076000 -0.220000
v 0.336235 5.771163 0.358874
v 1.099857 5.852826 0.115734
v 0.883780 6.203880 0.601308
v 1.610520 6.254353 -0.220000
v 1.070459 5.825605 -0.541051
v -0.081212 5.771167 -0.220000
v -0.260412 6.237529 0.311357
v 0.328749 5.798384 -0.798875
v -0.371403 6.254353 -0.763237
v 0.895893 6.220704 -1.041309
v 1.779528 6.860001 0.123078
v 1.757615 6.860001 -0.541052
v 0.550000 6.860001 0.914000
v 1.269262 6.860001 0.639758
v -0.591878 6.860001 0.137762
v -0.142176 6.860000 0.658980
v -0.250517 6.860001 -1.041314
v -0.723352 6.860001 -0.563078
v 1.323432 6.860001 -1.060536
v 0.550000 6.860001 -1.354000
v 1.423836 7.532943 0.311357
v 0.222276 7.482474 0.716641
v -0.490921 7.516119 -0.220000
v 0.234389 7.465651 -1.041309
v 1.360412 7.499296 -0.775117
v 0.771252 7.948838 0.299475
v 1.253889 7.867173 -0.220000
v -0.009656 7.921617 0.108392
v 0.000143 7.839954 -0.577761
v 0.756280 7.894396 -0.763235
v -0.080000 6.488000 -0.000000
v 0.782309 7.048667 0.540446
v -0.403794 7.022281 0.818325
v -1.109806 7.061865 -0.000000
v -0.392650 7.035474 -0.837039
v 0.723957 7.075053 -0.563578
v 0.221506 8.051333 0.855753
v -0.854781 8.077720 0.494182
v -0.840193 8.038140 -0.540446
v 0.204790 8.064527 -0.818325
v 0.985870 8.024942 -0.000000
v -0.080000 8.671000 -0.000000
v -0.267045 6.546228 0.535995
v 0.401125 6.621511 0.310865
v 0.212058 6.945139 0.760471
v 0.847955 6.991669 -0.000000
v 0.375402 6.596416 -0.297269
v -0.632310 6.546231 -0.000000
v -0.789110 6.976160 0.491997
v -0.273595 6.571322 -0.535995
v -0.886227 6.991669 -0.502997
v 0.222657 6.960649 -0.760471
v 0.995837 7.550000 0.317665
v 0.976663 7.550001 -0.297270
v -0.080000 7.550000 1.050000
v 0.549354 7.550001 0.796072
v -1.079143 7.550001 0.331261
v -0.685654 7.550000 0.813871
v -0.780452 7.550000 -0.760476
v -1.194183 7.550001 -0.317665
v 0.596753 7.550000 -0.778274
v -0.080000 7.550000 -1.050000
v 0.684606 8.170369 0.491997
v -0.366758 8.123843 0.867260
v -0.990805 8.154860 -0.000000
v -0.356159 8.108334 -0.760471
v 0.629111 8.139351 -0.513997
v 0.113595 8.553773 0.480995
v 0.535903 8.478487 -0.000000
v -0.569699 8.528678 0.304067
v -0.561125 8.453395 -0.331260
v 0.100495 8.503584 -0.502995
vn -0.2690 -0.7348 -0.6227
vn -0.0640 -0.8502 0.5226
vn 0.3633 0.1641 0.9171
vn 0.9285 -0.3141 -0.1979
vn 0.4223 0.9063 0.0157
vn 0.0315 0.3508 -0.9359
vn -0.9285 0.3141 0.1979
vn 0.4772 -0.8502 0.2223
vn 0.9845 0.1641 -0.0621
vn 0.1454 0.9063 -0.3967
vn 0.0987 -0.3141 -0.9442
vn -0.8804 0.3508 -0.3191
vn -0.6753 -0.7348 0.0635
vn -0.0987 0.3141 0.9442
vn 0.2452 0.1641 -0.9555
vn -0.3324 0.9063 -0.2609
vn -0.5756 0.3508 0.7387
vn -0.8675 -0.3141 -0.3857
vn -0.1483 -0.7348 0.6619
vn 0.3589 -0.8502 -0.3852
vn 0.8675 0.3141 0.3857
vn -0.3509 0.9063 0.2355
vn 0.5247 0.3508 0.7757
vn 0.5836 -0.7348 0.3456
vn -0.6349 -0.3141 0.7059
vn -0.2554 -0.8502 -0.4604
vn -0.8330 0.1641 -0.5284
vn 0.6349 0.3141 -0.7059
vn 0.8998 0.3508 -0.2593
vn 0.5091 -0.7348 -0.4483
vn -0.5168 -0.8502 0.1006
vn 0.4752 -0.3141 0.8219
vn -0.7600 0.1641 0.6289
vn 0.1155 0.9063 0.4064
vn -0.4752 0.3141 -0.8219
vn 0.3826 0.0174 -0.9237
vn 0.9237 0.0174 -0.3826
vn 0.9237 0.0174 0.3826
vn 0.3826 0.0174 0.9237
vn -0.3826 0.0174 0.9237
vn -0.9237 0.0174 0.3826
vn -0.0000 1.0000 -0.0000
vn -0.9237 0.0174 -0.3826
vn -0.3826 0.0174 -0.9237
vn -0.0000 -1.0000 -0.0000
vn -1.0000 -0.0000 -0.0000
vn -0.0000 -0.0000 -1.0000
vn 1.0000 -0.0000 -0.0000
vn -0.0000 -0.0000 1.0000
vn 0.7441 -0.0000 0.6681
vn -0.6681 -0.0000 0.7441
vn -0.7441 -0.0000 -0.6681
vn 0.6681 -0.0000 -0.7441
vn -0.1074 -0.0000 -0.9942
vn 0.9942 -0.0000 -0.1074
vn 0.1074 -0.0000 0.9942
vn -0.9942 -0.0000 0.1074
vn -0.5843 -0.0000 0.8116
vn -0.8116 -0.0000 -0.5843
vn 0.5843 -0.0000 -0.8116
vn 0.8116 -0.0000 0.5843
vn 0.9769 -0.0000 -0.2136
vn 0.2136 -0.0000 0.9769
vn -0.9769 -0.0000 0.2136
vn -0.2136 -0.0000 -0.9769
vn -0.8696 -0.0000 -0.4937
vn 0.4937 -0.0000 -0.8696
vn 0.8696 -0.0000 0.4937
vn -0.4937 -0.0000 0.8696
vn 0.3173 -0.0000 0.9483
vn -0.9483 -0.0000 0.3173
vn -0.3173 -0.0000 -0.9483
vn 0.9483 -0.0000 -0.3173
vn 0.3975 -0.0000 -0.9176
vn 0.9176 -0.0000 0.3975
vn -0.3975 -0.0000 0.9176
vn -0.9176 -0.0000 -0.3975
vn -0.9088 -0.0000 0.4173
vn -0.4173 -0.0000 -0.9088
vn 0.9088 -0.0000 -0.4173
vn 0.4173 -0.0000 0.9088
vn 0.9550 -0.0000 0.2966
vn -0.2966 -0.0000 0.9550
vn -0.9550 -0.0000 -0.2966
vn 0.2966 -0.0000 -0.9550
vn -0.5125 -0.0000 -0.8587
vn 0.8587 -0.0000 -0.5125
vn 0.5125 -0.0000 0.8587
vn -0.8587 -0.0000 0.5125
vn -0.1923 -0.0000 0.9813
vn -0.9813 -0.0000 -0.1923
vn 0.1923 -0.0000 -0.9813
vn 0.9813 -0.0000 0.1923
vn -0.0000 1.0000 0.0001
vn 0.3813 0.2936 -0.8766
vn 0.7418 0.6702 -0.0237
vn 0.3430 0.3971 0.8513
vn -0.4164 -0.2526 0.8734
vn -0.6500 0.7576 -0.0598
vn -0.7769 -0.6292 0.0205
vn -0.3781 -0.3562 -0.8545
vn 0.6500 -0.7576 0.0598
vn 0.4445 -0.1763 -0.8782
vn 0.7811 -0.6224 -0.0493
vn 0.3528 -0.4271 0.8325
vn -0.4123 0.2142 0.8855
vn 0.6415 0.7533 0.1449
vn -0.7489 0.6603 0.0566
vn -0.3205 0.4650 -0.8253
vn -0.6415 -0.7533 -0.1449
vn 0.3550 0.4029 -0.8436
vn 0.7802 0.6247 0.0335
vn 0.4086 0.2436 0.8796
vn -0.3881 -0.3594 0.8487
vn -0.6032 0.7923 0.0920
vn -0.8133 -0.5812 -0.0284
vn -0.4417 -0.2001 -0.8746
vn 0.6032 -0.7923 -0.0920
vn 0.4036 -0.3636 -0.8396
vn 0.8638 -0.5025 0.0369
vn 0.4741 -0.1166 0.8727
vn -0.3756 0.4083 0.8320
vn 0.5251 0.8390 -0.1427
vn -0.8358 0.5473 -0.0445
vn -0.4462 0.1613 -0.8803
vn -0.5251 -0.8390 0.1427
vn 0.1454 -0.9783 0.1473
vn 0.6470 -0.7474 0.1510
vn -0.0921 -0.9937 0.0641
vn -0.0918 -0.9903 -0.1043
vn 0.0952 -0.9805 -0.1720
vn 0.9168 -0.3706 0.1488
vn 0.0315 -0.4567 0.8890
vn -0.8123 -0.3137 0.4918
vn -0.5097 -0.3037 -0.8050
vn 0.3950 -0.3143 -0.8633
vn 0.7238 -0.0092 0.6900
vn -0.3491 -0.2036 0.9147
vn -0.9820 -0.0642 0.1778
vn -0.3699 -0.1657 -0.9142
vn 0.7759 -0.0788 -0.6260
vn 0.3684 0.6457 0.6688
vn -0.4960 0.6349 0.5923
vn -0.6577 0.6822 -0.3195
vn -0.0368 0.6182 -0.7852
vn 0.6314 0.7128 -0.3053
vn 0.2602 0.9472 -0.1876
vn 0.4729 0.7938 -0.3826
vn 0.3732 0.6390 -0.6726
vn -0.1465 0.9318 -0.3321
vn -0.2114 0.7407 -0.6377
vn -0.3753 0.6550 -0.6558
vn -0.3055 0.9464 -0.1049
vn -0.5699 0.8163 -0.0947
vn -0.7075 0.6448 0.2893
vn -0.0944 0.9637 0.2497
vn -0.1723 0.7976 0.5781
vn 0.0848 0.6489 0.7561
vn 0.2635 0.9593 0.1015
vn 0.4782 0.8204 0.3136
vn 0.6481 0.7317 0.2112
vn 0.7996 0.3315 -0.5007
vn 0.7523 0.2562 -0.6070
vn 0.4972 0.3626 -0.7882
vn -0.0560 0.4756 -0.8779
vn -0.3568 0.3085 -0.8818
vn -0.4172 0.3607 -0.8342
vn -0.8039 0.4979 -0.3254
vn -0.9494 0.2627 0.1719
vn -0.8954 0.3307 0.2981
vn -0.5882 0.2939 0.7534
vn -0.3537 0.1276 0.9266
vn 0.0571 0.3624 0.9303
vn 0.5391 0.2966 0.7883
vn 0.7101 0.1935 0.6770
vn 0.8349 0.3415 0.4316
vn 0.3560 0.2301 -0.9057
vn 0.3508 -0.2834 -0.8925
vn 0.0601 -0.4519 -0.8900
vn -0.7025 0.2388 -0.6704
vn -0.7095 -0.1949 -0.6772
vn -0.8490 -0.4093 -0.3342
vn -0.7597 0.1499 0.6327
vn -0.7468 -0.2354 0.6220
vn -0.5776 -0.3441 0.7403
vn 0.3633 0.1484 0.9198
vn 0.3524 -0.2821 0.8923
vn 0.3785 -0.2976 0.8764
vn 0.9995 0.0001 -0.0318
vn 0.9622 -0.2706 -0.0306
vn 0.8895 -0.3820 -0.2507
vn 0.3756 -0.6928 -0.6156
vn 0.2462 -0.7508 -0.6129
vn 0.0375 -0.5780 -0.8152
vn -0.4039 -0.6103 -0.6815
vn -0.4939 -0.7866 -0.3707
vn -0.6721 -0.7082 -0.2164
vn -0.6508 -0.6857 0.3261
vn -0.5607 -0.7302 0.3903
vn -0.4790 -0.5875 0.6523
vn 0.6673 -0.7038 -0.2435
vn 0.5905 -0.8070 0.0044
vn 0.2210 -0.9749 0.0266
vn 0.0167 -0.5473 0.8368
vn 0.2729 -0.7503 0.6021
vn 0.3441 -0.7143 0.6094
vn 0.1492 -0.9774 0.1500
vn 0.6566 -0.7387 0.1522
vn -0.0945 -0.9934 0.0653
vn -0.0942 -0.9899 -0.1063
vn 0.0977 -0.9797 -0.1752
vn 0.9202 -0.3623 0.1483
vn 0.0318 -0.4498 0.8926
vn -0.8157 -0.3068 0.4904
vn -0.5132 -0.2978 -0.8049
vn 0.3981 -0.3085 -0.8639
vn 0.7262 -0.0090 0.6874
vn -0.3516 -0.1997 0.9146
vn -0.9823 -0.0626 0.1766
vn -0.3724 -0.1625 -0.9138
vn 0.7781 -0.0769 -0.6234
vn 0.3736 0.6378 0.6735
vn -0.5025 0.6265 0.5958
vn -0.6662 0.6730 -0.3213
vn -0.0374 0.6108 -0.7909
vn 0.6403 0.7040 -0.3074
vn 0.2665 0.9448 -0.1908
vn 0.4812 0.7867 -0.3866
vn 0.3784 0.6310 -0.6772
vn -0.1500 0.9292 -0.3377
vn -0.2151 0.7340 -0.6442
vn -0.3807 0.6471 -0.6605
vn -0.3128 0.9438 -0.1066
vn -0.5799 0.8090 -0.0957
vn -0.7156 0.6352 0.2905
vn -0.0968 0.9623 0.2542
vn -0.1756 0.7917 0.5851
vn 0.0861 0.6416 0.7622
vn 0.2700 0.9573 0.1033
vn 0.4870 0.8138 0.3171
vn 0.6574 0.7228 0.2128
vn 0.8033 0.3243 -0.4995
vn 0.7555 0.2506 -0.6053
vn 0.5011 0.3560 -0.7888
vn -0.0566 0.4685 -0.8817
vn -0.3597 0.3029 -0.8826
vn -0.4207 0.3543 -0.8352
vn -0.8097 0.4884 -0.3254
vn -0.9513 0.2563 0.1711
vn -0.8985 0.3232 0.2970
vn -0.5919 0.2880 0.7528
vn -0.3560 0.1251 0.9261
vn 0.0576 0.3564 0.9326
vn 0.5427 0.2908 0.7879
vn 0.7131 0.1892 0.6750
vn 0.8385 0.3340 0.4304
vn 0.3586 0.2257 -0.9058
vn 0.3535 -0.2782 -0.8931
vn 0.0608 -0.4450 -0.8935
vn -0.7057 0.2337 -0.6688
vn -0.7125 -0.1906 -0.6752
vn -0.8534 -0.4006 -0.3336
vn -0.7623 0.1465 0.6304
vn -0.7499 -0.2302 0.6202
vn -0.5816 -0.3374 0.7402
vn 0.3657 0.1454 0.9193
vn 0.3552 -0.2769 0.8928
vn 0.3815 -0.2921 0.8770
vn 0.9995 0.0001 -0.0316
vn 0.9640 -0.2640 -0.0305
vn 0.8933 -0.3736 -0.2499
vn 0.3814 -0.6851 -0.6206
vn 0.2506 -0.7441 -0.6193
vn 0.0380 -0.5705 -0.8204
vn -0.4092 -0.6021 -0.6856
vn -0.5024 -0.7793 -0.3744
vn -0.6811 -0.6990 -0.2178
vn -0.6593 -0.6766 0.3280
vn -0.5692 -0.7220 0.3934
vn -0.4848 -0.5791 0.6555
vn 0.6763 -0.6947 -0.2450
vn 0.6007 -0.7995 0.0044
vn 0.2266 -0.9736 0.0271
vn 0.0169 -0.5399 0.8415
vn 0.2777 -0.7436 0.6083
vn 0.3497 -0.7069 0.6148
vn 0.1611 -0.9735 0.1626
vn 0.6850 -0.7108 0.1594
vn -0.1023 -0.9922 0.0710
vn -0.1019 -0.9881 -0.1155
vn 0.1056 -0.9761 -0.1900
vn 0.9293 -0.3375 0.1504
vn 0.0322 -0.4199 0.9070
vn -0.8207 -0.2847 0.4953
vn -0.5154 -0.2758 -0.8114
vn 0.3998 -0.2858 -0.8709
vn 0.7249 -0.0083 0.6888
vn -0.3515 -0.1841 0.9179
vn -0.9825 -0.0577 0.1773
vn -0.3719 -0.1497 -0.9161
vn 0.7773 -0.0709 -0.6251
vn 0.3848 0.6059 0.6963
vn -0.5172 0.5947 0.6156
vn -0.6896 0.6426 -0.3339
vn -0.0384 0.5783 -0.8150
vn 0.6651 0.6745 -0.3205
vn 0.2862 0.9358 -0.2057
vn 0.5048 0.7612 -0.4071
vn 0.3895 0.5990 -0.6996
vn -0.1607 0.9178 -0.3630
vn -0.2239 0.7047 -0.6732
vn -0.3925 0.6153 -0.6836
vn -0.3359 0.9348 -0.1150
vn -0.6105 0.7855 -0.1011
vn -0.7380 0.6041 0.3008
vn -0.1042 0.9558 0.2748
vn -0.1842 0.7659 0.6160
vn 0.0886 0.6094 0.7879
vn 0.2906 0.9503 0.1116
vn 0.5128 0.7903 0.3352
vn 0.6846 0.6942 0.2224
vn 0.8089 0.3012 -0.5049
vn 0.7580 0.2319 -0.6096
vn 0.5047 0.3307 -0.7975
vn -0.0574 0.4380 -0.8971
vn -0.3611 0.2805 -0.8894
vn -0.4235 0.3290 -0.8441
vn -0.8241 0.4585 -0.3325
vn -0.9559 0.2376 0.1725
vn -0.9053 0.3003 0.3004
vn -0.5943 0.2667 0.7587
vn -0.3552 0.1151 0.9277
vn 0.0580 0.3307 0.9419
vn 0.5449 0.2693 0.7941
vn 0.7138 0.1747 0.6782
vn 0.8450 0.3105 0.4354
vn 0.3588 0.2083 -0.9099
vn 0.3545 -0.2573 -0.8990
vn 0.0615 -0.4153 -0.9076
vn -0.7074 0.2160 -0.6730
vn -0.7132 -0.1760 -0.6785
vn -0.8634 -0.3739 -0.3388
vn -0.7624 0.1351 0.6329
vn -0.7518 -0.2129 0.6241
vn -0.5854 -0.3132 0.7478
vn 0.3651 0.1339 0.9213
vn 0.3561 -0.2561 0.8987
vn 0.3828 -0.2704 0.8834
vn 0.9995 0.0001 -0.0317
vn 0.9691 -0.2448 -0.0308
vn 0.9025 -0.3481 -0.2535
vn 0.3949 -0.6542 -0.6450
vn 0.2612 -0.7154 -0.6481
vn 0.0389 -0.5380 -0.8420
vn -0.4200 -0.5699 -0.7063
vn -0.5266 -0.7534 -0.3939
vn -0.7073 -0.6695 -0.2270
vn -0.6827 -0.6462 0.3410
vn -0.5923 -0.6930 0.4110
vn -0.4965 -0.5470 0.6740
vn 0.7019 -0.6650 -0.2552
vn 0.6316 -0.7753 0.0047
vn 0.2445 -0.9692 0.0293
vn 0.0172 -0.5077 0.8613
vn 0.2894 -0.7149 0.6365
vn 0.3629 -0.6767 0.6406
vn 0.1564 -0.9740 0.1640
vn 0.6738 -0.7207 0.1630
vn -0.0993 -0.9925 0.0716
vn -0.0989 -0.9883 -0.1165
vn 0.1024 -0.9761 -0.1916
vn 0.9251 -0.3463 0.1556
vn 0.0310 -0.4171 0.9083
vn -0.8108 -0.2899 0.5085
vn -0.5012 -0.2765 -0.8200
vn 0.3872 -0.2853 -0.8767
vn 0.7115 -0.0084 0.7027
vn -0.3398 -0.1835 0.9224
vn -0.9811 -0.0594 0.1841
vn -0.3598 -0.1492 -0.9210
vn 0.7653 -0.0719 -0.6396
vn 0.3735 0.6061 0.7023
vn -0.5041 0.5975 0.6236
vn -0.6780 0.6511 -0.3412
vn -0.0370 0.5751 -0.8172
vn 0.6532 0.6828 -0.3271
vn 0.2782 0.9378 -0.2079
vn 0.4928 0.7659 -0.4130
vn 0.3780 0.5992 -0.7057
vn -0.1558 0.9175 -0.3659
vn -0.2167 0.7031 -0.6773
vn -0.3810 0.6157 -0.6897
vn -0.3269 0.9379 -0.1163
vn -0.5988 0.7942 -0.1031
vn -0.7271 0.6136 0.3080
vn -0.1011 0.9556 0.2770
vn -0.1783 0.7643 0.6198
vn 0.0856 0.6064 0.7905
vn 0.2826 0.9526 0.1128
vn 0.5009 0.7958 0.3403
vn 0.6732 0.7037 0.2273
vn 0.7986 0.3065 -0.5180
vn 0.7458 0.2351 -0.6233
vn 0.4907 0.3314 -0.8058
vn -0.0553 0.4351 -0.8987
vn -0.3493 0.2797 -0.8943
vn -0.4106 0.3287 -0.8505
vn -0.8152 0.4675 -0.3418
vn -0.9531 0.2442 0.1788
vn -0.8995 0.3076 0.3102
vn -0.5798 0.2682 0.7693
vn -0.3434 0.1147 0.9321
vn 0.0558 0.3284 0.9429
vn 0.5305 0.2703 0.8035
vn 0.7003 0.1767 0.6916
vn 0.8362 0.3167 0.4478
vn 0.3470 0.2076 -0.9146
vn 0.3429 -0.2565 -0.9037
vn 0.0593 -0.4125 -0.9090
vn -0.6939 0.2184 -0.6861
vn -0.6998 -0.1780 -0.6919
vn -0.8558 -0.3820 -0.3490
vn -0.7500 0.1370 0.6471
vn -0.7393 -0.2158 0.6379
vn -0.5710 -0.3149 0.7581
vn 0.3531 0.1335 0.9260
vn 0.3445 -0.2553 0.9034
vn 0.3706 -0.2698 0.8888
vn 0.9995 0.0001 -0.0330
vn 0.9672 -0.2518 -0.0319
vn 0.8968 -0.3566 -0.2618
vn 0.3835 -0.6549 -0.6511
vn 0.2530 -0.7143 -0.6525
vn 0.0375 -0.5349 -0.8441
vn -0.4078 -0.5705 -0.7128
vn -0.5144 -0.7586 -0.4000
vn -0.6962 -0.6792 -0.2323
vn -0.6710 -0.6546 0.3483
vn -0.5799 -0.6992 0.4181
vn -0.4834 -0.5489 0.6819
vn 0.6906 -0.6745 -0.2610
vn 0.6200 -0.7846 0.0048
vn 0.2376 -0.9709 0.0296
vn 0.0166 -0.5046 0.8632
vn 0.2805 -0.7142 0.6412
vn 0.3523 -0.6770 0.6462
vn 0.1646 -0.9728 0.1631
vn 0.6929 -0.7034 0.1584
vn -0.1046 -0.9920 0.0713
vn -0.1041 -0.9878 -0.1159
vn 0.1078 -0.9757 -0.1906
vn 0.9319 -0.3311 0.1481
vn 0.0328 -0.4186 0.9076
vn -0.8258 -0.2803 0.4894
vn -0.5223 -0.2735 -0.8077
vn 0.4060 -0.2839 -0.8687
vn 0.7311 -0.0082 0.6823
vn -0.3571 -0.1830 0.9160
vn -0.9831 -0.0565 0.1743
vn -0.3777 -0.1487 -0.9139
vn 0.7828 -0.0698 -0.6183
vn 0.3913 0.6027 0.6954
vn -0.5247 0.5903 0.6134
vn -0.6972 0.6356 -0.3316
vn -0.0391 0.5767 -0.8160
vn 0.6729 0.6676 -0.3185
vn 0.2919 0.9340 -0.2061
vn 0.5127 0.7564 -0.4061
vn 0.3960 0.5959 -0.6987
vn -0.1640 0.9168 -0.3640
vn -0.2282 0.7027 -0.6739
vn -0.3991 0.6121 -0.6827
vn -0.3425 0.9324 -0.1151
vn -0.6189 0.7790 -0.1007
vn -0.7450 0.5967 0.2982
vn -0.1065 0.9553 0.2757
vn -0.1878 0.7642 0.6170
vn 0.0904 0.6078 0.7889
vn 0.2965 0.9485 0.1118
vn 0.5209 0.7854 0.3344
vn 0.6924 0.6869 0.2209
vn 0.8142 0.2966 -0.4991
vn 0.7640 0.2286 -0.6034
vn 0.5117 0.3280 -0.7941
vn -0.0585 0.4366 -0.8977
vn -0.3668 0.2788 -0.8875
vn -0.4300 0.3267 -0.8416
vn -0.8295 0.4515 -0.3287
vn -0.9576 0.2328 0.1698
vn -0.9085 0.2948 0.2961
vn -0.6014 0.2641 0.7540
vn -0.3609 0.1144 0.9256
vn 0.0591 0.3296 0.9423
vn 0.5519 0.2669 0.7900
vn 0.7201 0.1724 0.6721
vn 0.8496 0.3054 0.4300
vn 0.3645 0.2070 -0.9079
vn 0.3602 -0.2557 -0.8971
vn 0.0627 -0.4140 -0.9081
vn -0.7139 0.2133 -0.6670
vn -0.7196 -0.1737 -0.6723
vn -0.8678 -0.3676 -0.3344
vn -0.7681 0.1332 0.6263
vn -0.7578 -0.2099 0.6178
vn -0.5925 -0.3102 0.7435
vn 0.3708 0.1331 0.9191
vn 0.3618 -0.2546 0.8968
vn 0.3888 -0.2687 0.8813
vn 0.9995 0.0001 -0.0312
vn 0.9704 -0.2398 -0.0303
vn 0.9059 -0.3419 -0.2499
vn 0.4016 -0.6509 -0.6443
vn 0.2661 -0.7131 -0.6485
vn 0.0396 -0.5366 -0.8429
vn -0.4267 -0.5666 -0.7049
vn -0.5346 -0.7483 -0.3928
vn -0.7148 -0.6620 -0.2254
vn -0.6904 -0.6393 0.3386
vn -0.6004 -0.6872 0.4091
vn -0.5039 -0.5431 0.6717
vn 0.7095 -0.6576 -0.2534
vn 0.6399 -0.7685 0.0046
vn 0.2496 -0.9679 0.0294
vn 0.0176 -0.5063 0.8622
vn 0.2948 -0.7124 0.6368
vn 0.3693 -0.6736 0.6402
vn 0.4751 -0.3141 0.8219
vn 0.9813 -0.0000 0.1924
s 0
usemtl birch_bark_marks
f 2//1 3//1 1//1
f 4//2 5//2 3//2
f 6//3 7//3 5//3
f 2//4 8//4 6//4
f 7//5 10//5 9//5
f 10//6 1//6 9//6
f 3//7 7//7 9//7
f 11//8 14//8 13//8
f 13//9 16//9 15//9
f 16//10 17//10 15//10
f 12//11 18//11 16//11
f 18//12 19//12 17//12
f 20//13 11//13 19//13
f 13//14 17//14 19//14
f 21//15 24//15 23//15
f 24//16 25//16 23//16
f 25//17 28//17 27//17
f 22//18 28//18 26//18
f 28//19 29//19 27//19
f 30//20 21//20 29//20
f 23//21 27//21 29//21
f 32//22 33//22 31//22
f 34//23 35//23 33//23
f 36//24 37//24 35//24
f 32//25 38//25 36//25
f 38//26 39//26 37//26
f 40//27 31//27 39//27
f 33//28 37//28 39//28
f 42//29 43//29 41//29
f 44//30 45//30 43//30
f 46//31 47//31 45//31
f 42//32 48//32 46//32
f 47//33 50//33 49//33
f 49//34 42//34 41//34
f 43//35 47//35 49//35
f 68//46 69//46 67//46
f 69//47 74//47 73//47
f 74//48 71//48 73//48
f 72//49 67//49 71//49
f 73//45 67//45 69//45
f 74//42 68//42 72//42
f 76//50 77//50 75//50
f 78//51 81//51 77//51
f 82//52 79//52 81//52
f 80//53 75//53 79//53
f 81//45 75//45 77//45
f 82//42 76//42 80//42
f 83//54 86//54 85//54
f 85//55 90//55 89//55
f 90//56 87//56 89//56
f 88//57 83//57 87//57
f 89//45 83//45 85//45
f 86//42 88//42 90//42
f 92//58 93//58 91//58
f 94//59 97//59 93//59
f 97//60 96//60 95//60
f 95//61 92//61 91//61
f 97//45 91//45 93//45
f 98//42 92//42 96//42
f 100//62 101//62 99//62
f 102//63 105//63 101//63
f 106//64 103//64 105//64
f 103//65 100//65 99//65
f 101//45 103//45 99//45
f 102//42 104//42 106//42
f 107//66 110//66 109//66
f 109//67 114//67 113//67
f 114//68 111//68 113//68
f 111//69 108//69 107//69
f 113//45 107//45 109//45
f 114//42 108//42 112//42
f 115//70 118//70 117//70
f 118//71 121//71 117//71
f 121//72 120//72 119//72
f 119//73 116//73 115//73
f 121//45 115//45 117//45
f 118//42 120//42 122//42
f 124//74 125//74 123//74
f 125//75 130//75 129//75
f 129//76 128//76 127//76
f 127//77 124//77 123//77
f 129//45 123//45 125//45
f 130//42 124//42 128//42
f 131//78 134//78 133//78
f 133//79 138//79 137//79
f 138//80 135//80 137//80
f 135//81 132//81 131//81
f 137//45 131//45 133//45
f 138//42 132//42 136//42
f 140//82 141//82 139//82
f 142//83 145//83 141//83
f 146//84 143//84 145//84
f 143//85 140//85 139//85
f 145//45 139//45 141//45
f 146//42 140//42 144//42
f 147//86 150//86 149//86
f 149//87 154//87 153//87
f 154//88 151//88 153//88
f 151//89 148//89 147//89
f 149//45 151//45 147//45
f 154//42 148//42 152//42
f 155//90 158//90 157//90
f 158//91 161//91 157//91
f 162//92 159//92 161//92
f 159//93 156//93 155//93
f 157//45 159//45 155//45
f 158//94 160//94 162//94
f 2//1 4//1 3//1
f 4//2 6//2 5//2
f 6//3 8//3 7//3
f 6//4 4//4 2//4
f 2//4 10//4 8//4
f 7//5 8//5 10//5
f 10//6 2//6 1//6
f 9//7 1//7 3//7
f 3//7 5//7 7//7
f 11//8 12//8 14//8
f 13//9 14//9 16//9
f 16//10 18//10 17//10
f 16//11 14//11 12//11
f 12//11 20//11 18//11
f 18//12 20//12 19//12
f 20//13 12//13 11//13
f 19//14 11//14 13//14
f 13//14 15//14 17//14
f 21//15 22//15 24//15
f 24//16 26//16 25//16
f 25//17 26//17 28//17
f 26//18 24//18 22//18
f 22//18 30//18 28//18
f 28//19 30//19 29//19
f 30//20 22//20 21//20
f 29//21 21//21 23//21
f 23//21 25//21 27//21
f 32//22 34//22 33//22
f 34//23 36//23 35//23
f 36//24 38//24 37//24
f 36//25 34//25 32//25
f 32//25 40//25 38//25
f 38//26 40//26 39//26
f 40//27 32//27 31//27
f 39//28 31//28 33//28
f 33//28 35//28 37//28
f 42//29 44//29 43//29
f 44//30 46//30 45//30
f 46//31 48//31 47//31
f 46//527 44//527 42//527
f 42//32 50//32 48//32
f 47//33 48//33 50//33
f 49//34 50//34 42//34
f 49//35 41//35 43//35
f 43//35 45//35 47//35
f 68//46 70//46 69//46
f 69//47 70//47 74//47
f 74//48 72//48 71//48
f 72//49 68//49 67//49
f 73//45 71//45 67//45
f 74//42 70//42 68//42
f 76//50 78//50 77//50
f 78//51 82//51 81//51
f 82//52 80//52 79//52
f 80//53 76//53 75//53
f 81//45 79//45 75//45
f 82//42 78//42 76//42
f 83//54 84//54 86//54
f 85//55 86//55 90//55
f 90//56 88//56 87//56
f 88//57 84//57 83//57
f 89//45 87//45 83//45
f 86//42 84//42 88//42
f 92//58 94//58 93//58
f 94//59 98//59 97//59
f 97//60 98//60 96//60
f 95//61 96//61 92//61
f 97//45 95//45 91//45
f 98//42 94//42 92//42
f 100//62 102//62 101//62
f 102//63 106//63 105//63
f 106//64 104//64 103//64
f 103//65 104//65 100//65
f 101//45 105//45 103//45
f 102//42 100//42 104//42
f 107//66 108//66 110//66
f 109//67 110//67 114//67
f 114//68 112//68 111//68
f 111//69 112//69 108//69
f 113//45 111//45 107//45
f 114//42 110//42 108//42
f 115//70 116//70 118//70
f 118//71 122//71 121//71
f 121//72 122//72 120//72
f 119//73 120//73 116//73
f 121//45 119//45 115//45
f 118//42 116//42 120//42
f 124//74 126//74 125//74
f 125//75 126//75 130//75
f 129//76 130//76 128//76
f 127//77 128//77 124//77
f 129//45 127//45 123//45
f 130//42 126//42 124//42
f 131//78 132//78 134//78
f 133//79 134//79 138//79
f 138//80 136//80 135//80
f 135//81 136//81 132//81
f 137//45 135//45 131//45
f 138//42 134//42 132//42
f 140//82 142//82 141//82
f 142//83 146//83 145//83
f 146//84 144//84 143//84
f 143//85 144//85 140//85
f 145//45 143//45 139//45
f 146//42 142//42 140//42
f 147//86 148//86 150//86
f 149//87 150//87 154//87
f 154//88 152//88 151//88
f 151//89 152//89 148//89
f 149//45 153//45 151//45
f 154//42 150//42 148//42
f 155//90 156//90 158//90
f 158//91 162//91 161//91
f 162//92 160//92 159//92
f 159//528 160//528 156//528
f 157//45 161//45 159//45
f 158//94 156//94 160//94
usemtl birch_bark
f 51//36 54//36 53//36
f 53//37 56//37 55//37
f 55//38 58//38 57//38
f 58//39 59//39 57//39
f 60//40 61//40 59//40
f 62//41 63//41 61//41
f 64//42 60//42 56//42
f 63//43 66//43 65//43
f 66//44 51//44 65//44
f 57//45 61//45 65//45
f 163//95 166//95 165//95
f 165//96 168//96 167//96
f 168//97 169//97 167//97
f 169//98 172//98 171//98
f 164//99 172//99 168//99
f 171//100 174//100 173//100
f 173//101 164//101 163//101
f 165//102 169//102 173//102
f 175//103 178//103 177//103
f 177//104 180//104 179//104
f 179//105 182//105 181//105
f 182//106 183//106 181//106
f 176//107 184//107 180//107
f 183//108 186//108 185//108
f 185//109 176//109 175//109
f 177//110 181//110 185//110
f 188//111 189//111 187//111
f 189//112 192//112 191//112
f 192//113 193//113 191//113
f 194//114 195//114 193//114
f 188//115 196//115 192//115
f 196//116 197//116 195//116
f 198//117 187//117 197//117
f 189//118 193//118 197//118
f 200//119 201//119 199//119
f 201//120 204//120 203//120
f 204//121 205//121 203//121
f 206//122 207//122 205//122
f 200//123 208//123 204//123
f 207//124 210//124 209//124
f 209//125 200//125 199//125
f 201//126 205//126 209//126
f 51//36 52//36 54//36
f 53//37 54//37 56//37
f 55//38 56//38 58//38
f 58//39 60//39 59//39
f 60//40 62//40 61//40
f 62//41 64//41 63//41
f 56//42 54//42 52//42
f 52//42 66//42 64//42
f 64//42 62//42 60//42
f 60//42 58//42 56//42
f 56//42 52//42 64//42
f 63//43 64//43 66//43
f 66//44 52//44 51//44
f 65//45 51//45 53//45
f 53//45 55//45 57//45
f 57//45 59//45 61//45
f 61//45 63//45 65//45
f 65//45 53//45 57//45
f 163//95 164//95 166//95
f 165//96 166//96 168//96
f 168//97 170//97 169//97
f 169//98 170//98 172//98
f 168//99 166//99 164//99
f 164//99 174//99 172//99
f 172//99 170//99 168//99
f 171//100 172//100 174//100
f 173//101 174//101 164//101
f 173//102 163//102 165//102
f 165//102 167//102 169//102
f 169//102 171//102 173//102
f 175//103 176//103 178//103
f 177//104 178//104 180//104
f 179//105 180//105 182//105
f 182//106 184//106 183//106
f 180//107 178//107 176//107
f 176//107 186//107 184//107
f 184//107 182//107 180//107
f 183//108 184//108 186//108
f 185//109 186//109 176//109
f 185//110 175//110 177//110
f 177//110 179//110 181//110
f 181//110 183//110 185//110
f 188//111 190//111 189//111
f 189//112 190//112 192//112
f 192//113 194//113 193//113
f 194//114 196//114 195//114
f 192//115 190//115 188//115
f 188//115 198//115 196//115
f 196//115 194//115 192//115
f 196//116 198//116 197//116
f 198//117 188//117 187//117
f 197//118 187//118 189//118
f 189//118 191//118 193//118
f 193//118 195//118 197//118
f 200//119 202//119 201//119
f 201//120 202//120 204//120
f 204//121 206//121 205//121
f 206//122 208//122 207//122
f 204//123 202//123 200//123
f 200//123 210//123 208//123
f 208//123 206//123 204//123
f 207//124 208//124 210//124
f 209//125 210//125 200//125
f 209//126 199//126 201//126
f 201//126 203//126 205//126
f 205//126 207//126 209//126
usemtl birch_leaf
f 211//127 224//127 223//127
f 212//128 224//128 226//128
f 211//129 223//129 228//129
f 211//130 228//130 230//130
f 211//131 230//131 227//131
f 212//132 226//132 233//132
f 213//133 225//133 235//133
f 214//134 229//134 237//134
f 215//135 231//135 239//135
f 216//136 232//136 241//136
f 212//137 233//137 236//137
f 213//138 235//138 238//138
f 214//139 237//139 240//139
f 215//140 239//140 242//140
f 216//141 241//141 234//141
f 217//142 243//142 248//142
f 218//143 244//143 250//143
f 219//144 245//144 251//144
f 220//145 246//145 252//145
f 221//146 247//146 249//146
f 249//147 252//147 222//147
f 249//148 247//148 252//148
f 247//149 220//149 252//149
f 252//150 251//150 222//150
f 252//151 246//151 251//151
f 246//152 219//152 251//152
f 251//153 250//153 222//153
f 251//154 245//154 250//154
f 245//155 218//155 250//155
f 250//156 248//156 222//156
f 250//157 244//157 248//157
f 244//158 217//158 248//158
f 248//159 249//159 222//159
f 248//160 243//160 249//160
f 243//161 221//161 249//161
f 234//162 247//162 221//162
f 234//163 241//163 247//163
f 241//164 220//164 247//164
f 242//165 246//165 220//165
f 242//166 239//166 246//166
f 239//167 219//167 246//167
f 240//168 245//168 219//168
f 240//169 237//169 245//169
f 237//170 218//170 245//170
f 238//171 244//171 218//171
f 238//172 235//172 244//172
f 235//173 217//173 244//173
f 236//174 243//174 217//174
f 236//175 233//175 243//175
f 233//176 221//176 243//176
f 241//177 242//177 220//177
f 241//178 232//178 242//178
f 232//179 215//179 242//179
f 239//180 240//180 219//180
f 239//181 231//181 240//181
f 231//182 214//182 240//182
f 237//183 238//183 218//183
f 237//184 229//184 238//184
f 229//185 213//185 238//185
f 235//186 236//186 217//186
f 235//187 225//187 236//187
f 225//188 212//188 236//188
f 233//189 234//189 221//189
f 233//190 226//190 234//190
f 226//191 216//191 234//191
f 227//192 232//192 216//192
f 227//193 230//193 232//193
f 230//194 215//194 232//194
f 230//195 231//195 215//195
f 230//196 228//196 231//196
f 228//197 214//197 231//197
f 228//198 229//198 214//198
f 228//199 223//199 229//199
f 223//200 213//200 229//200
f 226//201 227//201 216//201
f 226//202 224//202 227//202
f 224//203 211//203 227//203
f 223//204 225//204 213//204
f 223//205 224//205 225//205
f 224//206 212//206 225//206
f 295//287 308//287 307//287
f 296//288 308//288 310//288
f 295//289 307//289 312//289
f 295//290 312//290 314//290
f 295//291 314//291 311//291
f 296//292 310//292 317//292
f 297//293 309//293 319//293
f 298//294 313//294 321//294
f 299//295 315//295 323//295
f 300//296 316//296 325//296
f 296//297 317//297 320//297
f 297//298 319//298 322//298
f 298//299 321//299 324//299
f 299//300 323//300 326//300
f 300//301 325//301 318//301
f 301//302 327//302 332//302
f 302//303 328//303 334//303
f 303//304 329//304 335//304
f 304//305 330//305 336//305
f 305//306 331//306 333//306
f 333//307 336//307 306//307
f 333//308 331//308 336//308
f 331//309 304//309 336//309
f 336//310 335//310 306//310
f 336//311 330//311 335//311
f 330//312 303//312 335//312
f 335//313 334//313 306//313
f 335//314 329//314 334//314
f 329//315 302//315 334//315
f 334//316 332//316 306//316
f 334//317 328//317 332//317
f 328//318 301//318 332//318
f 332//319 333//319 306//319
f 332//320 327//320 333//320
f 327//321 305//321 333//321
f 318//322 331//322 305//322
f 318//323 325//323 331//323
f 325//324 304//324 331//324
f 326//325 330//325 304//325
f 326//326 323//326 330//326
f 323//327 303//327 330//327
f 324//328 329//328 303//328
f 324//329 321//329 329//329
f 321//330 302//330 329//330
f 322//331 328//331 302//331
f 322//332 319//332 328//332
f 319//333 301//333 328//333
f 320//334 327//334 301//334
f 320//335 317//335 327//335
f 317//336 305//336 327//336
f 325//337 326//337 304//337
f 325//338 316//338 326//338
f 316//339 299//339 326//339
f 323//340 324//340 303//340
f 323//341 315//341 324//341
f 315//342 298//342 324//342
f 321//343 322//343 302//343
f 321//344 313//344 322//344
f 313//345 297//345 322//345
f 319//346 320//346 301//346
f 319//347 309//347 320//347
f 309//348 296//348 320//348
f 317//349 318//349 305//349
f 317//350 310//350 318//350
f 310//351 300//351 318//351
f 311//352 316//352 300//352
f 311//353 314//353 316//353
f 314//354 299//354 316//354
f 314//355 315//355 299//355
f 314//356 312//356 315//356
f 312//357 298//357 315//357
f 312//358 313//358 298//358
f 312//359 307//359 313//359
f 307//360 297//360 313//360
f 310//361 311//361 300//361
f 310//362 308//362 311//362
f 308//363 295//363 311//363
f 307//364 309//364 297//364
f 307//365 308//365 309//365
f 308//366 296//366 309//366
f 379//447 392//447 391//447
f 380//448 392//448 394//448
f 379//449 391//449 396//449
f 379//450 396//450 398//450
f 379//451 398//451 395//451
f 380//452 394//452 401//452
f 381//453 393//453 403//453
f 382//454 397//454 405//454
f 383//455 399//455 407//455
f 384//456 400//456 409//456
f 380//457 401//457 404//457
f 381//458 403//458 406//458
f 382//459 405//459 408//459
f 383//460 407//460 410//460
f 384//461 409//461 402//461
f 385//462 411//462 416//462
f 386//463 412//463 418//463
f 387//464 413//464 419//464
f 388//465 414//465 420//465
f 389//466 415//466 417//466
f 417//467 420//467 390//467
f 417//468 415//468 420//468
f 415//469 388//469 420//469
f 420//470 419//470 390//470
f 420//471 414//471 419//471
f 414//472 387//472 419//472
f 419//473 418//473 390//473
f 419//474 413//474 418//474
f 413//475 386//475 418//475
f 418//476 416//476 390//476
f 418//477 412//477 416//477
f 412//478 385//478 416//478
f 416//479 417//479 390//479
f 416//480 411//480 417//480
f 411//481 389//481 417//481
f 402//482 415//482 389//482
f 402//483 409//483 415//483
f 409//484 388//484 415//484
f 410//485 414//485 388//485
f 410//486 407//486 414//486
f 407//487 387//487 414//487
f 408//488 413//488 387//488
f 408//489 405//489 413//489
f 405//490 386//490 413//490
f 406//491 412//491 386//491
f 406//492 403//492 412//492
f 403//493 385//493 412//493
f 404//494 411//494 385//494
f 404//495 401//495 411//495
f 401//496 389//496 411//496
f 409//497 410//497 388//497
f 409//498 400//498 410//498
f 400//499 383//499 410//499
f 407//500 408//500 387//500
f 407//501 399//501 408//501
f 399//502 382//502 408//502
f 405//503 406//503 386//503
f 405//504 397//504 406//504
f 397//505 381//505 406//505
f 403//506 404//506 385//506
f 403//507 393//507 404//507
f 393//508 380//508 404//508
f 401//509 402//509 389//509
f 401//510 394//510 402//510
f 394//511 384//511 402//511
f 395//512 400//512 384//512
f 395//513 398//513 400//513
f 398//514 383//514 400//514
f 398//515 399//515 383//515
f 398//516 396//516 399//516
f 396//517 382//517 399//517
f 396//518 397//518 382//518
f 396//519 391//519 397//519
f 391//520 381//520 397//520
f 394//521 395//521 384//521
f 394//522 392//522 395//522
f 392//523 379//523 395//523
f 391//524 393//524 381//524
f 391//525 392//525 393//525
f 392//526 380//526 393//526
usemtl birch_leaf_light
f 253//207 266//207 265//207
f 254//208 266//208 268//208
f 253//209 265//209 270//209
f 253//210 270//210 272//210
f 253//211 272//211 269//211
f 254//212 268//212 275//212
f 255//213 267//213 277//213
f 256//214 271//214 279//214
f 257//215 273//215 281//215
f 258//216 274//216 283//216
f 254//217 275//217 278//217
f 255//218 277//218 280//218
f 256//219 279//219 282//219
f 257//220 281//220 284//220
f 258//221 283//221 276//221
f 259//222 285//222 290//222
f 260//223 286//223 292//223
f 261//224 287//224 293//224
f 262//225 288//225 294//225
f 263//226 289//226 291//226
f 291//227 294//227 264//227
f 291//228 289//228 294//228
f 289//229 262//229 294//229
f 294//230 293//230 264//230
f 294//231 288//231 293//231
f 288//232 261//232 293//232
f 293//233 292//233 264//233
f 293//234 287//234 292//234
f 287//235 260//235 292//235
f 292//236 290//236 264//236
f 292//237 286//237 290//237
f 286//238 259//238 290//238
f 290//239 291//239 264//239
f 290//240 285//240 291//240
f 285//241 263//241 291//241
f 276//242 289//242 263//242
f 276//243 283//243 289//243
f 283//244 262//244 289//244
f 284//245 288//245 262//245
f 284//246 281//246 288//246
f 281//247 261//247 288//247
f 282//248 287//248 261//248
f 282//249 279//249 287//249
f 279//250 260//250 287//250
f 280//251 286//251 260//251
f 280//252 277//252 286//252
f 277//253 259//253 286//253
f 278//254 285//254 259//254
f 278//255 275//255 285//255
f 275//256 263//256 285//256
f 283//257 284//257 262//257
f 283//258 274//258 284//258
f 274//259 257//259 284//259
f 281//260 282//260 261//260
f 281//261 273//261 282//261
f 273//262 256//262 282//262
f 279//263 280//263 260//263
f 279//264 271//264 280//264
f 271//265 255//265 280//265
f 277//266 278//266 259//266
f 277//267 267//267 278//267
f 267//268 254//268 278//268
f 275//269 276//269 263//269
f 275//270 268//270 276//270
f 268//271 258//271 276//271
f 269//272 274//272 258//272
f 269//273 272//273 274//273
f 272//274 257//274 274//274
f 272//275 273//275 257//275
f 272//276 270//276 273//276
f 270//277 256//277 273//277
f 270//278 271//278 256//278
f 270//279 265//279 271//279
f 265//280 255//280 271//280
f 268//281 269//281 258//281
f 268//282 266//282 269//282
f 266//283 253//283 269//283
f 265//284 267//284 255//284
f 265//285 266//285 267//285
f 266//286 254//286 267//286
f 337//367 350//367 349//367
f 338//368 350//368 352//368
f 337//369 349//369 354//369
f 337//370 354//370 356//370
f 337//371 356//371 353//371
f 338//372 352//372 359//372
f 339//373 351//373 361//373
f 340//374 355//374 363//374
f 341//375 357//375 365//375
f 342//376 358//376 367//376
f 338//377 359//377 362//377
f 339//378 361//378 364//378
f 340//379 363//379 366//379
f 341//380 365//380 368//380
f 342//381 367//381 360//381
f 343//382 369//382 374//382
f 344//383 370//383 376//383
f 345//384 371//384 377//384
f 346//385 372//385 378//385
f 347//386 373//386 375//386
f 375//387 378//387 348//387
f 375//388 373//388 378//388
f 373//389 346//389 378//389
f 378//390 377//390 348//390
f 378//391 372//391 377//391
f 372//392 345//392 377//392
f 377//393 376//393 348//393
f 377//394 371//394 376//394
f 371//395 344//395 376//395
f 376//396 374//396 348//396
f 376//397 370//397 374//397
f 370//398 343//398 374//398
f 374//399 375//399 348//399
f 374//400 369//400 375//400
f 369//401 347//401 375//401
f 360//402 373//402 347//402
f 360//403 367//403 373//403
f 367//404 346//404 373//404
f 368//405 372//405 346//405
f 368//406 365//406 372//406
f 365//407 345//407 372//407
f 366//408 371//408 345//408
f 366//409 363//409 371//409
f 363//410 344//410 371//410
f 364//411 370//411 344//411
f 364//412 361//412 370//412
f 361//413 343//413 370//413
f 362//414 369//414 343//414
f 362//415 359//415 369//415
f 359//416 347//416 369//416
f 367//417 368//417 346//417
f 367//418 358//418 368//418
f 358//419 341//419 368//419
f 365//420 366//420 345//420
f 365//421 357//421 366//421
f 357//422 340//422 366//422
f 363//423 364//423 344//423
f 363//424 355//424 364//424
f 355//425 339//425 364//425
f 361//426 362//426 343//426
f 361//427 351//427 362//427
f 351//428 338//428 362//428
f 359//429 360//429 347//429
f 359//430 352//430 360//430
f 352//431 342//431 360//431
f 353//432 358//432 342//432
f 353//433 356//433 358//433
f 356//434 341//434 358//434
f 356//435 357//435 341//435
f 356//436 354//436 357//436
f 354//437 340//437 357//437
f 354//438 355//438 340//438
f 354//439 349//439 355//439
f 349//440 339//440 355//440
f 352//441 353//441 342//441
f 352//442 350//442 353//442
f 350//443 337//443 353//443
f 349//444 351//444 339//444
f 349//445 350//445 351//445
f 350//446 338//446 351//446
