# Blender 5.2.1 LTS
# www.blender.org
mtllib dead_tree.mtl
o dead_tree_MODEL
v -0.042868 0.228335 -0.150863
v 0.647056 0.021701 -0.205115
v -0.052359 0.108923 -0.005849
v 0.643070 -0.028453 -0.144209
v 0.010509 0.198294 0.147248
v 0.669475 0.009083 -0.079909
v 0.058853 0.372941 0.096853
v 0.689779 0.082435 -0.101074
v 0.025864 0.391507 -0.087389
v 0.675924 0.090233 -0.178456
v -0.021743 0.108923 0.047988
v 0.061568 -0.028453 -0.656160
v 0.143289 0.198294 0.035508
v 0.130882 0.009083 -0.661401
v 0.110300 0.372941 -0.026043
v 0.117026 0.082435 -0.687253
v -0.075119 0.391507 -0.051603
v 0.039150 0.090233 -0.697988
v -0.156726 0.228335 -0.005849
v 0.004875 0.021700 -0.678771
v 0.078048 0.198294 -0.125303
v -0.588585 0.009084 -0.328860
v 0.009316 0.372941 -0.112949
v -0.617453 0.082435 -0.323671
v -0.072291 0.391507 0.055497
v -0.651728 0.090233 -0.252924
v -0.053994 0.228335 0.147248
v -0.644043 0.021701 -0.214389
v 0.038921 0.108923 0.035508
v -0.605019 -0.028453 -0.261319
v -0.104542 0.372941 -0.043763
v -0.498633 0.082435 0.487213
v 0.030441 0.391507 0.085902
v -0.441940 0.090233 0.541672
v 0.123356 0.228335 0.096853
v -0.402916 0.021701 0.546272
v 0.045797 0.108923 -0.026043
v -0.435491 -0.028453 0.494655
v -0.095052 0.198294 -0.112949
v -0.494647 0.009084 0.458155
v 0.091105 0.391507 -0.002406
v 0.378594 0.090233 0.587696
v 0.130232 0.228335 -0.087389
v 0.395028 0.021701 0.552003
v -0.010617 0.108923 -0.051603
v 0.335871 -0.028453 0.567033
v -0.136794 0.198294 0.055497
v 0.282877 0.009084 0.612015
v -0.073926 0.372941 0.085902
v 0.309281 0.082435 0.624785
v 0.000000 -0.000000 -0.360000
v 0.000000 6.000000 -0.160000
v 0.281459 -0.000000 -0.224456
v 0.125093 6.000000 -0.099758
v 0.350974 0.000000 0.080108
v 0.155988 6.000000 0.035603
v 0.156198 -0.000000 0.324349
v 0.069422 6.000000 0.144155
v -0.156198 -0.000000 0.324349
v -0.069421 6.000000 0.144155
v -0.350974 0.000000 0.080108
v -0.155988 6.000000 0.035603
v -0.281459 -0.000000 -0.224456
v -0.125093 6.000000 -0.099758
v 0.006442 2.286496 -0.149252
v -1.547295 3.544328 -0.242686
v 0.085085 2.393956 -0.080205
v -1.514264 3.589462 -0.213686
v 0.078643 2.407460 0.069047
v -1.516970 3.595133 -0.151000
v -0.006442 2.313504 0.149252
v -1.552706 3.555672 -0.117314
v -0.085085 2.206044 0.080205
v -1.585736 3.510539 -0.146314
v -0.078643 2.192540 -0.069047
v -1.583030 3.504867 -0.209000
v -1.531751 3.529744 -0.277881
v -1.562151 3.557473 -0.223411
v -1.479322 3.601384 -0.231849
v -1.540131 3.587562 -0.204078
v -1.483617 3.610387 -0.132348
v -1.541934 3.591343 -0.162287
v -1.540340 3.547750 -0.078878
v -1.565758 3.565035 -0.139830
v -1.592769 3.476109 -0.124910
v -1.587778 3.534946 -0.159163
v -1.588474 3.467106 -0.224411
v -1.585975 3.531165 -0.200954
v 0.003554 3.358377 -0.137700
v 1.421493 4.723518 0.062166
v 0.084864 3.268339 -0.071928
v 1.455643 4.685703 0.089790
v 0.081310 3.259962 0.065772
v 1.454150 4.682184 0.147624
v -0.003554 3.341623 0.137700
v 1.418507 4.716481 0.177834
v -0.084864 3.431661 0.071928
v 1.384357 4.754298 0.150210
v -0.081310 3.440038 -0.065772
v 1.385850 4.757816 0.092376
v 1.409440 4.713111 0.027107
v 1.433925 4.734821 0.082537
v 1.463646 4.653085 0.070955
v 1.456692 4.709610 0.100953
v 1.461276 4.647500 0.162755
v 1.455697 4.707263 0.139509
v 1.404701 4.701941 0.210707
v 1.431935 4.730129 0.159648
v 1.350495 4.761967 0.166859
v 1.409168 4.755340 0.141232
v 1.352864 4.767552 0.075059
v 1.410164 4.757686 0.102676
v -0.003232 4.212479 -0.125339
v -0.881357 5.785241 0.127358
v 0.093818 4.259073 -0.059870
v -0.840596 5.804811 0.154855
v 0.097050 4.246595 0.065469
v -0.839239 5.799570 0.207497
v 0.003232 4.187521 0.125339
v -0.878642 5.774759 0.232642
v -0.093818 4.140926 0.059870
v -0.919404 5.755189 0.205146
v -0.097050 4.153405 -0.065469
v -0.920761 5.760431 0.152503
v -0.873439 5.772672 0.094658
v -0.889620 5.799142 0.146688
v -0.808739 5.803736 0.138304
v -0.862446 5.812190 0.165019
v -0.806584 5.795416 0.221863
v -0.861541 5.808695 0.200114
v -0.869130 5.756033 0.261777
v -0.887810 5.792154 0.216878
v -0.933830 5.724970 0.218131
v -0.914984 5.779108 0.198546
v -0.935985 5.733289 0.134571
v -0.915889 5.782602 0.163451
v -0.002467 4.938418 -0.113383
v 0.638964 6.375136 -0.207621
v 0.088948 4.904088 -0.054555
v 0.677358 6.360717 -0.182913
v 0.091415 4.915669 0.058828
v 0.678394 6.365582 -0.135292
v 0.002467 4.961582 0.113383
v 0.641036 6.384865 -0.112379
v -0.088948 4.995913 0.054555
v 0.602642 6.399284 -0.137087
v -0.091415 4.984331 -0.058828
v 0.601606 6.394420 -0.184708
v 0.631040 6.355934 -0.233760
v 0.646624 6.393102 -0.193576
v 0.691984 6.333048 -0.194541
v 0.672220 6.383490 -0.177104
v 0.693628 6.340769 -0.118953
v 0.672911 6.386733 -0.145357
v 0.634330 6.371378 -0.082583
v 0.648006 6.399588 -0.130082
v 0.573386 6.394264 -0.121801
v 0.622410 6.409201 -0.146553
v 0.571742 6.386543 -0.197390
v 0.621719 6.405958 -0.178301
v -1.142566 3.222095 -0.227827
v -1.716878 4.208280 -0.491087
v -1.069415 3.279093 -0.185351
v -1.686154 4.232219 -0.473247
v -1.076849 3.306998 -0.087524
v -1.689277 4.243939 -0.432160
v -1.157433 3.277905 -0.032173
v -1.723122 4.231719 -0.408913
v -1.230584 3.220907 -0.074649
v -1.753845 4.207780 -0.426753
v -1.223150 3.193002 -0.172476
v -1.750723 4.196061 -0.467840
v -1.706273 4.186470 -0.510293
v -1.726690 4.227113 -0.482316
v -1.657506 4.224469 -0.481976
v -1.706208 4.243073 -0.470423
v -1.662461 4.243072 -0.416758
v -1.708289 4.250886 -0.443031
v -1.716184 4.223676 -0.379858
v -1.730853 4.242740 -0.427533
v -1.764952 4.185678 -0.408175
v -1.751335 4.226781 -0.439426
v -1.759996 4.167074 -0.473393
v -1.749254 4.218967 -0.466817
v 1.060694 4.447064 0.004834
v 1.784492 5.181367 0.384230
v 1.112802 4.381684 0.038156
v 1.806377 5.153908 0.398225
v 1.102108 4.354621 0.123321
v 1.801885 5.142540 0.433995
v 1.039306 4.392937 0.175166
v 1.775509 5.158633 0.455769
v 0.987198 4.458316 0.141844
v 1.753623 5.186092 0.441774
v 0.997892 4.485380 0.056679
v 1.758115 5.197460 0.406005
v 1.775156 5.175741 0.357810
v 1.794968 5.189880 0.401566
v 1.809895 5.132154 0.380024
v 1.809559 5.171574 0.410896
v 1.802765 5.114112 0.436802
v 1.806564 5.163996 0.434743
v 1.760897 5.139656 0.471364
v 1.788980 5.174725 0.449259
v 1.726158 5.183242 0.449150
v 1.774389 5.193031 0.439929
v 1.733288 5.201284 0.392373
v 1.777384 5.200608 0.416083
v 0.000000 5.900001 -0.160000
v 0.000000 6.200000 -0.040000
v 0.125093 5.900001 -0.099759
v 0.031273 6.200000 -0.024940
v 0.155989 5.900000 0.035603
v 0.038997 6.200001 0.008901
v 0.069421 5.900001 0.144155
v 0.017356 6.200001 0.036039
v -0.069421 5.900001 0.144155
v -0.017355 6.200000 0.036039
v -0.155988 5.900000 0.035603
v -0.038997 6.200000 0.008901
v -0.125093 5.900000 -0.099758
v -0.031273 6.200001 -0.024940
vn -0.2690 -0.7348 -0.6227
vn -0.0640 -0.8502 0.5226
vn 0.3633 0.1641 0.9171
vn 0.9285 -0.3141 -0.1979
vn 0.4223 0.9063 0.0157
vn 0.0315 0.3508 -0.9359
vn -0.9285 0.3141 0.1979
vn 0.4772 -0.8502 0.2223
vn 0.9845 0.1641 -0.0621
vn 0.1454 0.9063 -0.3967
vn 0.0987 -0.3141 -0.9442
vn -0.8804 0.3508 -0.3191
vn -0.6753 -0.7348 0.0635
vn -0.0987 0.3141 0.9442
vn 0.2452 0.1641 -0.9555
vn -0.3324 0.9063 -0.2609
vn -0.5756 0.3508 0.7387
vn -0.8675 -0.3141 -0.3857
vn -0.1483 -0.7348 0.6619
vn 0.3589 -0.8502 -0.3852
vn 0.8675 0.3141 0.3857
vn -0.3509 0.9063 0.2355
vn 0.5247 0.3508 0.7757
vn 0.5836 -0.7348 0.3456
vn -0.6349 -0.3141 0.7059
vn -0.2554 -0.8502 -0.4604
vn -0.8330 0.1641 -0.5284
vn 0.6349 0.3141 -0.7059
vn 0.8998 0.3508 -0.2593
vn 0.5091 -0.7348 -0.4483
vn -0.5168 -0.8502 0.1006
vn 0.4752 -0.3141 0.8219
vn -0.7600 0.1641 0.6289
vn 0.1155 0.9063 0.4064
vn -0.4752 0.3141 -0.8219
vn 0.4337 0.0300 -0.9006
vn 0.9745 0.0300 -0.2224
vn 0.7815 0.0300 0.6232
vn -0.0000 0.0300 0.9995
vn -0.7815 0.0300 0.6232
vn -0.0000 1.0000 -0.0000
vn -0.9745 0.0300 -0.2224
vn -0.4337 0.0300 -0.9006
vn -0.0000 -1.0000 -0.0000
vn 0.3228 0.3330 -0.8859
vn 0.6005 0.7982 -0.0463
vn 0.2485 0.4888 0.8362
vn -0.3812 -0.2859 0.8792
vn -0.7753 0.6252 -0.0900
vn -0.6589 -0.7512 0.0395
vn -0.3069 -0.4417 -0.8430
vn 0.7753 -0.6252 0.0900
vn -0.4249 0.6886 -0.5877
vn -0.2630 0.9598 -0.0982
vn -0.4682 0.7794 0.4163
vn -0.8354 0.3278 0.4413
vn -0.9972 0.0566 -0.0482
vn -0.7920 0.2369 -0.5626
vn 0.3949 -0.2821 -0.8744
vn 0.7200 -0.6936 -0.0236
vn 0.3503 -0.3872 0.8529
vn -0.3445 0.3307 0.8786
vn 0.7183 0.6930 0.0607
vn -0.6696 0.7422 0.0279
vn -0.2999 0.4358 -0.8486
vn -0.7183 -0.6930 -0.0607
vn 0.7940 0.3583 -0.4911
vn 0.9939 0.1053 0.0321
vn 0.7666 0.2937 0.5710
vn 0.3394 0.7351 0.5869
vn 0.1394 0.9882 0.0637
vn 0.3668 0.7998 -0.4753
vn 0.3980 0.3579 -0.8447
vn 0.8572 0.5142 0.0291
vn 0.4424 0.1865 0.8772
vn -0.4317 -0.2974 0.8516
vn -0.4842 0.8693 0.0990
vn -0.8909 -0.4536 -0.0222
vn -0.4761 -0.1260 -0.8703
vn 0.4842 -0.8693 -0.0990
vn -0.0989 0.8741 -0.4755
vn 0.1993 0.9756 0.0920
vn -0.0701 0.7628 0.6428
vn -0.6378 0.4485 0.6262
vn -0.9360 0.3471 0.0587
vn -0.6666 0.5599 -0.4921
vn 0.4525 -0.2580 -0.8536
vn 0.9276 -0.3731 0.0179
vn 0.4899 -0.0821 0.8679
vn -0.4229 0.3240 0.8463
vn 0.4064 0.9080 -0.1016
vn -0.8981 0.4391 -0.0253
vn -0.4604 0.1481 -0.8753
vn -0.4064 -0.9080 0.1016
vn 0.5961 0.4608 -0.6574
vn 0.9224 0.3818 -0.0591
vn 0.6219 0.5816 0.5245
vn -0.0048 0.8604 0.5096
vn -0.3310 0.9394 -0.0888
vn -0.0305 0.7397 -0.6723
vn 0.4764 0.0430 -0.8782
vn 0.8480 0.5231 -0.0848
vn 0.3503 0.5164 0.7814
vn -0.5191 0.0296 0.8542
vn -0.4873 0.8293 -0.2736
vn -0.8907 -0.4505 0.0608
vn -0.3929 -0.4438 -0.8054
vn 0.4873 -0.8293 0.2736
vn 0.0260 0.5757 -0.8173
vn 0.2959 0.9243 -0.2412
vn -0.0656 0.9194 0.3878
vn -0.6968 0.5659 0.4407
vn -0.9667 0.2173 -0.1354
vn -0.6052 0.2221 -0.7644
vn 0.4985 -0.0440 -0.8658
vn 0.7639 -0.6365 -0.1063
vn 0.2928 -0.5644 0.7718
vn -0.4437 0.1002 0.8905
vn 0.6652 0.6834 0.3007
vn -0.7091 0.6928 0.1311
vn -0.2381 0.6206 -0.7471
vn -0.6652 -0.6834 -0.3007
vn 0.7885 0.3834 -0.4809
vn 0.9922 -0.0714 0.1019
vn 0.6307 -0.0160 0.7759
vn 0.0655 0.4941 0.8670
vn -0.1382 0.9488 0.2841
vn 0.2233 0.8934 -0.3898
vn 0.4082 0.3390 -0.8476
vn 0.9172 0.3390 -0.2093
vn 0.7355 0.3390 0.5866
vn -0.0000 0.3390 0.9408
vn -0.7355 0.3390 0.5866
vn -0.9172 0.3390 -0.2093
vn -0.4082 0.3390 -0.8476
vn 0.4751 -0.3141 0.8219
vn -0.7752 0.6252 -0.0900
vn -0.8353 0.3278 0.4413
vn -0.9972 0.0565 -0.0482
vn 0.7752 -0.6252 0.0900
vn 0.8572 0.5141 0.0291
vn 0.4525 -0.2580 -0.8537
vn 0.5961 0.4608 -0.6575
vn 0.6219 0.5816 0.5244
vn -0.6053 0.2221 -0.7644
vn 0.7639 -0.6365 -0.1064
vn -0.4437 0.1002 0.8906
vn -0.2381 0.6207 -0.7471
vn 0.6307 -0.0160 0.7758
vn -0.0000 1.0000 0.0001
s 0
usemtl dead_wood
f 2//1 3//1 1//1
f 4//2 5//2 3//2
f 6//3 7//3 5//3
f 2//4 8//4 6//4
f 7//5 10//5 9//5
f 10//6 1//6 9//6
f 3//7 7//7 9//7
f 11//8 14//8 13//8
f 13//9 16//9 15//9
f 16//10 17//10 15//10
f 12//11 18//11 16//11
f 18//12 19//12 17//12
f 20//13 11//13 19//13
f 13//14 17//14 19//14
f 21//15 24//15 23//15
f 24//16 25//16 23//16
f 25//17 28//17 27//17
f 22//18 28//18 26//18
f 28//19 29//19 27//19
f 30//20 21//20 29//20
f 23//21 27//21 29//21
f 32//22 33//22 31//22
f 34//23 35//23 33//23
f 36//24 37//24 35//24
f 32//25 38//25 36//25
f 38//26 39//26 37//26
f 40//27 31//27 39//27
f 33//28 37//28 39//28
f 42//29 43//29 41//29
f 44//30 45//30 43//30
f 46//31 47//31 45//31
f 42//32 48//32 46//32
f 47//33 50//33 49//33
f 49//34 42//34 41//34
f 43//35 47//35 49//35
f 51//36 54//36 53//36
f 54//37 55//37 53//37
f 56//38 57//38 55//38
f 57//39 60//39 59//39
f 59//40 62//40 61//40
f 52//41 62//41 58//41
f 61//42 64//42 63//42
f 64//43 51//43 63//43
f 53//44 57//44 61//44
f 66//45 67//45 65//45
f 68//46 69//46 67//46
f 70//47 71//47 69//47
f 71//48 74//48 73//48
f 66//49 74//49 70//49
f 74//50 75//50 73//50
f 75//51 66//51 65//51
f 67//52 71//52 75//52
f 90//59 91//59 89//59
f 92//60 93//60 91//60
f 93//61 96//61 95//61
f 95//62 98//62 97//62
f 90//63 98//63 94//63
f 98//64 99//64 97//64
f 100//65 89//65 99//65
f 91//66 95//66 99//66
f 114//73 115//73 113//73
f 115//74 118//74 117//74
f 118//75 119//75 117//75
f 119//76 122//76 121//76
f 114//77 122//77 118//77
f 122//78 123//78 121//78
f 123//79 114//79 113//79
f 115//80 119//80 123//80
f 138//87 139//87 137//87
f 139//88 142//88 141//88
f 142//89 143//89 141//89
f 143//90 146//90 145//90
f 138//91 146//91 142//91
f 145//92 148//92 147//92
f 148//93 137//93 147//93
f 139//94 143//94 147//94
f 161//101 164//101 163//101
f 164//102 165//102 163//102
f 166//103 167//103 165//103
f 168//104 169//104 167//104
f 162//105 170//105 166//105
f 170//106 171//106 169//106
f 171//107 162//107 161//107
f 163//108 167//108 171//108
f 186//115 187//115 185//115
f 187//116 190//116 189//116
f 190//117 191//117 189//117
f 191//118 194//118 193//118
f 186//119 194//119 190//119
f 193//120 196//120 195//120
f 195//121 186//121 185//121
f 187//122 191//122 195//122
f 2//1 4//1 3//1
f 4//2 6//2 5//2
f 6//3 8//3 7//3
f 6//4 4//4 2//4
f 2//4 10//4 8//4
f 7//5 8//5 10//5
f 10//6 2//6 1//6
f 9//7 1//7 3//7
f 3//7 5//7 7//7
f 11//8 12//8 14//8
f 13//9 14//9 16//9
f 16//10 18//10 17//10
f 16//11 14//11 12//11
f 12//11 20//11 18//11
f 18//12 20//12 19//12
f 20//13 12//13 11//13
f 19//14 11//14 13//14
f 13//14 15//14 17//14
f 21//15 22//15 24//15
f 24//16 26//16 25//16
f 25//17 26//17 28//17
f 26//18 24//18 22//18
f 22//18 30//18 28//18
f 28//19 30//19 29//19
f 30//20 22//20 21//20
f 29//21 21//21 23//21
f 23//21 25//21 27//21
f 32//22 34//22 33//22
f 34//23 36//23 35//23
f 36//24 38//24 37//24
f 36//25 34//25 32//25
f 32//25 40//25 38//25
f 38//26 40//26 39//26
f 40//27 32//27 31//27
f 39//28 31//28 33//28
f 33//28 35//28 37//28
f 42//29 44//29 43//29
f 44//30 46//30 45//30
f 46//31 48//31 47//31
f 46//136 44//136 42//136
f 42//32 50//32 48//32
f 47//33 48//33 50//33
f 49//34 50//34 42//34
f 49//35 41//35 43//35
f 43//35 45//35 47//35
f 51//36 52//36 54//36
f 54//37 56//37 55//37
f 56//38 58//38 57//38
f 57//39 58//39 60//39
f 59//40 60//40 62//40
f 56//41 54//41 52//41
f 52//41 64//41 62//41
f 62//41 60//41 58//41
f 58//41 56//41 52//41
f 61//42 62//42 64//42
f 64//43 52//43 51//43
f 63//44 51//44 53//44
f 53//44 55//44 57//44
f 57//44 59//44 61//44
f 61//44 63//44 53//44
f 66//45 68//45 67//45
f 68//46 70//46 69//46
f 70//47 72//47 71//47
f 71//48 72//48 74//48
f 70//137 68//137 66//137
f 66//49 76//49 74//49
f 74//137 72//137 70//137
f 74//50 76//50 75//50
f 75//51 76//51 66//51
f 75//52 65//52 67//52
f 67//52 69//52 71//52
f 71//52 73//52 75//52
f 90//59 92//59 91//59
f 92//60 94//60 93//60
f 93//61 94//61 96//61
f 95//62 96//62 98//62
f 94//63 92//63 90//63
f 90//63 100//63 98//63
f 98//63 96//63 94//63
f 98//64 100//64 99//64
f 100//65 90//65 89//65
f 99//66 89//66 91//66
f 91//66 93//66 95//66
f 95//66 97//66 99//66
f 114//73 116//73 115//73
f 115//141 116//141 118//141
f 118//75 120//75 119//75
f 119//76 120//76 122//76
f 118//77 116//77 114//77
f 114//77 124//77 122//77
f 122//77 120//77 118//77
f 122//78 124//78 123//78
f 123//79 124//79 114//79
f 123//80 113//80 115//80
f 115//80 117//80 119//80
f 119//80 121//80 123//80
f 138//142 140//142 139//142
f 139//88 140//88 142//88
f 142//89 144//89 143//89
f 143//90 144//90 146//90
f 142//91 140//91 138//91
f 138//91 148//91 146//91
f 146//91 144//91 142//91
f 145//92 146//92 148//92
f 148//93 138//93 137//93
f 147//94 137//94 139//94
f 139//94 141//94 143//94
f 143//94 145//94 147//94
f 161//101 162//101 164//101
f 164//102 166//102 165//102
f 166//103 168//103 167//103
f 168//104 170//104 169//104
f 166//105 164//105 162//105
f 162//105 172//105 170//105
f 170//105 168//105 166//105
f 170//106 172//106 171//106
f 171//107 172//107 162//107
f 171//108 161//108 163//108
f 163//108 165//108 167//108
f 167//108 169//108 171//108
f 186//115 188//115 187//115
f 187//146 188//146 190//146
f 190//117 192//117 191//117
f 191//147 192//147 194//147
f 190//119 188//119 186//119
f 186//119 196//119 194//119
f 194//119 192//119 190//119
f 193//120 194//120 196//120
f 195//148 196//148 186//148
f 195//122 185//122 187//122
f 187//122 189//122 191//122
f 191//122 193//122 195//122
usemtl dead_cut_wood
f 77//53 80//53 79//53
f 79//54 82//54 81//54
f 81//55 84//55 83//55
f 83//56 86//56 85//56
f 78//49 86//49 82//49
f 86//57 87//57 85//57
f 87//58 78//58 77//58
f 79//52 83//52 87//52
f 101//67 104//67 103//67
f 103//68 106//68 105//68
f 106//69 107//69 105//69
f 108//70 109//70 107//70
f 102//63 110//63 106//63
f 110//71 111//71 109//71
f 111//72 102//72 101//72
f 103//66 107//66 111//66
f 126//81 127//81 125//81
f 127//82 130//82 129//82
f 129//83 132//83 131//83
f 132//84 133//84 131//84
f 126//77 134//77 130//77
f 133//85 136//85 135//85
f 136//86 125//86 135//86
f 127//80 131//80 135//80
f 150//95 151//95 149//95
f 151//96 154//96 153//96
f 154//97 155//97 153//97
f 156//98 157//98 155//98
f 150//91 158//91 154//91
f 158//99 159//99 157//99
f 159//100 150//100 149//100
f 151//94 155//94 159//94
f 173//109 176//109 175//109
f 176//110 177//110 175//110
f 178//111 179//111 177//111
f 180//112 181//112 179//112
f 174//105 182//105 178//105
f 181//113 184//113 183//113
f 184//114 173//114 183//114
f 175//108 179//108 183//108
f 197//123 200//123 199//123
f 199//124 202//124 201//124
f 201//125 204//125 203//125
f 203//126 206//126 205//126
f 198//119 206//119 202//119
f 206//127 207//127 205//127
f 207//128 198//128 197//128
f 199//122 203//122 207//122
f 210//129 211//129 209//129
f 211//130 214//130 213//130
f 214//131 215//131 213//131
f 215//132 218//132 217//132
f 217//133 220//133 219//133
f 210//41 220//41 216//41
f 219//134 222//134 221//134
f 221//135 210//135 209//135
f 211//44 215//44 219//44
f 77//53 78//53 80//53
f 79//54 80//54 82//54
f 81//55 82//55 84//55
f 83//138 84//138 86//138
f 82//49 80//49 78//49
f 78//137 88//137 86//137
f 86//49 84//49 82//49
f 86//139 88//139 87//139
f 87//58 88//58 78//58
f 87//52 77//52 79//52
f 79//140 81//140 83//140
f 83//52 85//52 87//52
f 101//67 102//67 104//67
f 103//68 104//68 106//68
f 106//69 108//69 107//69
f 108//70 110//70 109//70
f 106//63 104//63 102//63
f 102//63 112//63 110//63
f 110//63 108//63 106//63
f 110//71 112//71 111//71
f 111//72 112//72 102//72
f 111//66 101//66 103//66
f 103//66 105//66 107//66
f 107//66 109//66 111//66
f 126//81 128//81 127//81
f 127//82 128//82 130//82
f 129//83 130//83 132//83
f 132//84 134//84 133//84
f 130//77 128//77 126//77
f 126//77 136//77 134//77
f 134//77 132//77 130//77
f 133//85 134//85 136//85
f 136//86 126//86 125//86
f 135//80 125//80 127//80
f 127//80 129//80 131//80
f 131//80 133//80 135//80
f 150//143 152//143 151//143
f 151//96 152//96 154//96
f 154//144 156//144 155//144
f 156//98 158//98 157//98
f 154//91 152//91 150//91
f 150//91 160//91 158//91
f 158//91 156//91 154//91
f 158//99 160//99 159//99
f 159//100 160//100 150//100
f 159//94 149//94 151//94
f 151//94 153//94 155//94
f 155//94 157//94 159//94
f 173//109 174//109 176//109
f 176//110 178//110 177//110
f 178//111 180//111 179//111
f 180//112 182//112 181//112
f 178//105 176//105 174//105
f 174//105 184//105 182//105
f 182//105 180//105 178//105
f 181//113 182//113 184//113
f 184//145 174//145 173//145
f 183//108 173//108 175//108
f 175//108 177//108 179//108
f 179//108 181//108 183//108
f 197//123 198//123 200//123
f 199//124 200//124 202//124
f 201//149 202//149 204//149
f 203//126 204//126 206//126
f 202//119 200//119 198//119
f 198//119 208//119 206//119
f 206//119 204//119 202//119
f 206//127 208//127 207//127
f 207//128 208//128 198//128
f 207//122 197//122 199//122
f 199//122 201//122 203//122
f 203//122 205//122 207//122
f 210//129 212//129 211//129
f 211//130 212//130 214//130
f 214//131 216//131 215//131
f 215//132 216//132 218//132
f 217//133 218//133 220//133
f 214//41 212//41 210//41
f 210//150 222//150 220//150
f 220//41 218//41 216//41
f 216//41 214//41 210//41
f 219//134 220//134 222//134
f 221//135 222//135 210//135
f 221//44 209//44 211//44
f 211//44 213//44 215//44
f 215//44 217//44 219//44
f 219//44 221//44 211//44
