# Blender 5.2.1 LTS
# www.blender.org
mtllib barrelInstances.mtl
o barrelInstances
v 0.000000 -0.394042 -0.375314
v 0.000000 0.360675 -0.375314
v 0.143626 -0.394042 -0.346745
v 0.143626 0.360675 -0.346745
v 0.265387 -0.394042 -0.265387
v 0.265387 0.360675 -0.265387
v 0.346745 -0.394042 -0.143626
v 0.346745 0.360675 -0.143626
v 0.375314 -0.394042 0.000000
v 0.375314 0.360675 0.000000
v 0.346745 -0.394042 0.143626
v 0.346745 0.360675 0.143626
v 0.265387 -0.394042 0.265387
v 0.265387 0.360675 0.265387
v 0.143626 -0.394042 0.346745
v 0.143626 0.360675 0.346745
v 0.000000 -0.394042 0.375314
v 0.000000 0.360675 0.375314
v -0.143626 -0.394042 0.346745
v -0.143626 0.360675 0.346745
v -0.265387 -0.394042 0.265387
v -0.265387 0.360675 0.265387
v -0.346745 -0.394042 0.143626
v -0.346745 0.360675 0.143626
v -0.375314 -0.394042 0.000000
v -0.375314 0.360675 0.000000
v -0.346745 -0.394042 -0.143626
v -0.346745 0.360675 -0.143626
v -0.265387 -0.394042 -0.265387
v -0.265387 0.360675 -0.265387
v -0.143626 -0.394042 -0.346745
v -0.143626 0.360675 -0.346745
v 0.000000 -0.400000 -0.390000
v 0.000000 -0.364250 -0.390000
v 0.149247 -0.400000 -0.360313
v 0.149247 -0.364250 -0.360313
v 0.275772 -0.400000 -0.275772
v 0.275772 -0.364250 -0.275772
v 0.360313 -0.400000 -0.149247
v 0.360313 -0.364250 -0.149247
v 0.390000 -0.400000 0.000000
v 0.390000 -0.364250 0.000000
v 0.360313 -0.400000 0.149247
v 0.360313 -0.364250 0.149247
v 0.275772 -0.400000 0.275772
v 0.275772 -0.364250 0.275772
v 0.149247 -0.400000 0.360313
v 0.149247 -0.364250 0.360313
v 0.000000 -0.400000 0.390000
v 0.000000 -0.364250 0.390000
v -0.149247 -0.400000 0.360313
v -0.149247 -0.364250 0.360313
v -0.275772 -0.400000 0.275772
v -0.275772 -0.364250 0.275772
v -0.360313 -0.400000 0.149247
v -0.360313 -0.364250 0.149247
v -0.390000 -0.400000 0.000000
v -0.390000 -0.364250 0.000000
v -0.360313 -0.400000 -0.149247
v -0.360313 -0.364250 -0.149247
v -0.275772 -0.400000 -0.275772
v -0.275772 -0.364250 -0.275772
v -0.149247 -0.400000 -0.360313
v -0.149247 -0.364250 -0.360313
v 0.000000 -0.272890 -0.390000
v 0.000000 -0.237140 -0.390000
v 0.149247 -0.272890 -0.360313
v 0.149247 -0.237140 -0.360313
v 0.275772 -0.272890 -0.275772
v 0.275772 -0.237140 -0.275772
v 0.360313 -0.272890 -0.149247
v 0.360313 -0.237140 -0.149247
v 0.390000 -0.272890 0.000000
v 0.390000 -0.237140 0.000000
v 0.360313 -0.272890 0.149247
v 0.360313 -0.237140 0.149247
v 0.275772 -0.272890 0.275772
v 0.275772 -0.237140 0.275772
v 0.149247 -0.272890 0.360313
v 0.149247 -0.237140 0.360313
v 0.000000 -0.272890 0.390000
v 0.000000 -0.237140 0.390000
v -0.149247 -0.272890 0.360313
v -0.149247 -0.237140 0.360313
v -0.275772 -0.272890 0.275772
v -0.275772 -0.237140 0.275772
v -0.360313 -0.272890 0.149247
v -0.360313 -0.237140 0.149247
v -0.390000 -0.272890 0.000000
v -0.390000 -0.237140 0.000000
v -0.360313 -0.272890 -0.149247
v -0.360313 -0.237140 -0.149247
v -0.275772 -0.272890 -0.275772
v -0.275772 -0.237140 -0.275772
v -0.149247 -0.272890 -0.360313
v -0.149247 -0.237140 -0.360313
v 0.000000 0.203774 -0.390000
v 0.000000 0.239523 -0.390000
v 0.149247 0.203774 -0.360313
v 0.149247 0.239523 -0.360313
v 0.275772 0.203774 -0.275772
v 0.275772 0.239523 -0.275772
v 0.360313 0.203774 -0.149247
v 0.360313 0.239523 -0.149247
v 0.390000 0.203774 0.000000
v 0.390000 0.239523 0.000000
v 0.360313 0.203774 0.149247
v 0.360313 0.239523 0.149247
v 0.275772 0.203774 0.275772
v 0.275772 0.239523 0.275772
v 0.149247 0.203774 0.360313
v 0.149247 0.239523 0.360313
v 0.000000 0.203774 0.390000
v 0.000000 0.239523 0.390000
v -0.149247 0.203774 0.360313
v -0.149247 0.239523 0.360313
v -0.275772 0.203774 0.275772
v -0.275772 0.239523 0.275772
v -0.360313 0.203774 0.149247
v -0.360313 0.239523 0.149247
v -0.390000 0.203774 0.000000
v -0.390000 0.239523 0.000000
v -0.360313 0.203774 -0.149247
v -0.360313 0.239523 -0.149247
v -0.275772 0.203774 -0.275772
v -0.275772 0.239523 -0.275772
v -0.149247 0.203774 -0.360313
v -0.149247 0.239523 -0.360313
v 0.000000 0.330884 -0.390000
v 0.000000 0.366634 -0.390000
v 0.149247 0.330884 -0.360313
v 0.149247 0.366634 -0.360313
v 0.275772 0.330884 -0.275772
v 0.275772 0.366634 -0.275772
v 0.360313 0.330884 -0.149247
v 0.360313 0.366634 -0.149247
v 0.390000 0.330884 0.000000
v 0.390000 0.366634 0.000000
v 0.360313 0.330884 0.149247
v 0.360313 0.366634 0.149247
v 0.275772 0.330884 0.275772
v 0.275772 0.366634 0.275772
v 0.149247 0.330884 0.360313
v 0.149247 0.366634 0.360313
v 0.000000 0.330884 0.390000
v 0.000000 0.366634 0.390000
v -0.149247 0.330884 0.360313
v -0.149247 0.366634 0.360313
v -0.275772 0.330884 0.275772
v -0.275772 0.366634 0.275772
v -0.360313 0.330884 0.149247
v -0.360313 0.366634 0.149247
v -0.390000 0.330884 0.000000
v -0.390000 0.366634 0.000000
v -0.360313 0.330884 -0.149247
v -0.360313 0.366634 -0.149247
v -0.275772 0.330884 -0.275772
v -0.275772 0.366634 -0.275772
v -0.149247 0.330884 -0.360313
v -0.149247 0.366634 -0.360313
v 0.000000 0.362661 -0.346757
v 0.000000 0.382522 -0.346757
v 0.132698 0.362661 -0.320362
v 0.132698 0.382522 -0.320362
v 0.245194 0.362661 -0.245194
v 0.245194 0.382522 -0.245194
v 0.320362 0.362661 -0.132698
v 0.320362 0.382522 -0.132698
v 0.346757 0.362661 0.000000
v 0.346757 0.382522 0.000000
v 0.320362 0.362661 0.132698
v 0.320362 0.382522 0.132698
v 0.245194 0.362661 0.245194
v 0.245194 0.382522 0.245194
v 0.132698 0.362661 0.320362
v 0.132698 0.382522 0.320362
v 0.000000 0.362661 0.346757
v 0.000000 0.382522 0.346757
v -0.132698 0.362661 0.320362
v -0.132698 0.382522 0.320362
v -0.245194 0.362661 0.245194
v -0.245194 0.382522 0.245194
v -0.320362 0.362661 0.132698
v -0.320362 0.382522 0.132698
v -0.346757 0.362661 0.000000
v -0.346757 0.382522 0.000000
v -0.320362 0.362661 -0.132698
v -0.320362 0.382522 -0.132698
v -0.245194 0.362661 -0.245194
v -0.245194 0.382522 -0.245194
v -0.132698 0.362661 -0.320362
v -0.132698 0.382522 -0.320362
v 0.187657 0.380139 0.069351
v 0.187657 0.400000 0.069351
v 0.214174 0.380139 0.076457
v 0.214174 0.400000 0.076457
v 0.233585 0.380139 0.095868
v 0.233585 0.400000 0.095868
v 0.240690 0.380139 0.122385
v 0.240690 0.400000 0.122385
v 0.233585 0.380139 0.148902
v 0.233585 0.400000 0.148902
v 0.214174 0.380139 0.168313
v 0.214174 0.400000 0.168313
v 0.187657 0.380139 0.175418
v 0.187657 0.400000 0.175418
v 0.161140 0.380139 0.168313
v 0.161140 0.400000 0.168313
v 0.141729 0.380139 0.148902
v 0.141729 0.400000 0.148902
v 0.134623 0.380139 0.122385
v 0.134623 0.400000 0.122385
v 0.141729 0.380139 0.095868
v 0.141729 0.400000 0.095868
v 0.161140 0.380139 0.076457
v 0.161140 0.400000 0.076457
v -0.114226 -0.115988 0.385513
v -0.114226 -0.112016 0.389592
v -0.118305 -0.112016 0.385513
v -0.114226 0.078649 0.389592
v -0.114226 0.082622 0.385513
v -0.118305 0.078649 0.385513
v -0.114226 -0.115988 0.373274
v -0.118305 -0.112016 0.373274
v -0.114226 -0.112016 0.369195
v -0.114226 0.082622 0.373274
v -0.114226 0.078649 0.369195
v -0.118305 0.078649 0.373274
v 0.114226 -0.115988 0.385513
v 0.118305 -0.112016 0.385513
v 0.114226 -0.112016 0.389592
v 0.114226 0.082622 0.385513
v 0.114226 0.078649 0.389592
v 0.118305 0.078649 0.385513
v 0.114226 -0.115988 0.373274
v 0.114226 -0.112016 0.369195
v 0.118305 -0.112016 0.373274
v 0.114226 0.082622 0.373274
v 0.118305 0.078649 0.373274
v 0.114226 0.078649 0.369195
vn 0.1951 -0.0000 -0.9808
vn 0.5556 -0.0000 -0.8315
vn 0.8315 -0.0000 -0.5556
vn 0.9808 -0.0000 -0.1951
vn 0.9808 -0.0000 0.1951
vn 0.8315 -0.0000 0.5556
vn 0.5556 -0.0000 0.8315
vn 0.1951 -0.0000 0.9808
vn -0.1951 -0.0000 0.9808
vn -0.5556 -0.0000 0.8315
vn -0.8315 -0.0000 0.5556
vn -0.9808 -0.0000 0.1951
vn -0.9808 -0.0000 -0.1951
vn -0.8315 -0.0000 -0.5556
vn -0.0000 1.0000 -0.0000
vn -0.5556 -0.0000 -0.8315
vn -0.1951 -0.0000 -0.9808
vn -0.0000 -1.0000 -0.0000
vn 0.2588 -0.0000 -0.9659
vn 0.7071 -0.0000 -0.7071
vn 0.9659 -0.0000 -0.2588
vn 0.9659 -0.0000 0.2588
vn 0.7071 -0.0000 0.7071
vn 0.2588 -0.0000 0.9659
vn -0.2588 -0.0000 0.9659
vn -0.7071 -0.0000 0.7071
vn -0.9659 -0.0000 0.2588
vn -0.9659 -0.0000 -0.2588
vn -0.7071 -0.0000 -0.7071
vn -0.2588 -0.0000 -0.9659
vn -0.5722 -0.5876 0.5722
vn -0.5722 0.5876 0.5722
vn -0.5722 -0.5876 -0.5722
vn -0.5722 0.5876 -0.5722
vn 0.5722 -0.5876 0.5722
vn 0.5722 0.5876 0.5722
vn 0.5722 -0.5876 -0.5722
vn 0.5722 0.5876 -0.5722
vn -0.6976 -0.7165 -0.0000
vn -0.6976 0.7165 -0.0000
vn -0.0000 -0.7165 -0.6976
vn -0.0000 0.7165 -0.6976
vn 0.6976 -0.7165 -0.0000
vn 0.6976 0.7165 -0.0000
vn -0.0000 -0.7165 0.6976
vn -0.0000 0.7165 0.6976
vn -1.0000 -0.0000 -0.0000
vn -0.0000 -0.0000 1.0000
vn -0.0000 -0.0000 -1.0000
vn 1.0000 -0.0000 -0.0000
vt 0.625000 0.125000
vt 0.125000 0.625000
vt 0.125000 0.125000
vt 0.375000 0.875000
vt 0.875000 0.625000
s 0
usemtl WorldPickupPalette
f 2/1/1 3/1/1 1/1/1
f 4/1/2 5/1/2 3/1/2
f 6/1/3 7/1/3 5/1/3
f 8/1/4 9/1/4 7/1/4
f 10/1/5 11/1/5 9/1/5
f 12/1/6 13/1/6 11/1/6
f 14/1/7 15/1/7 13/1/7
f 16/1/8 17/1/8 15/1/8
f 18/1/9 19/1/9 17/1/9
f 20/1/10 21/1/10 19/1/10
f 22/1/11 23/1/11 21/1/11
f 24/1/12 25/1/12 23/1/12
f 26/1/13 27/1/13 25/1/13
f 28/1/14 29/1/14 27/1/14
f 10/1/15 6/1/15 22/1/15
f 30/1/16 31/1/16 29/1/16
f 32/1/17 1/1/17 31/1/17
f 27/1/18 31/1/18 15/1/18
f 34/2/1 35/2/1 33/2/1
f 36/2/2 37/2/2 35/2/2
f 38/2/3 39/2/3 37/2/3
f 40/2/4 41/2/4 39/2/4
f 42/2/5 43/2/5 41/2/5
f 44/2/6 45/2/6 43/2/6
f 46/2/7 47/2/7 45/2/7
f 48/2/8 49/2/8 47/2/8
f 50/2/9 51/2/9 49/2/9
f 52/2/10 53/2/10 51/2/10
f 54/2/11 55/2/11 53/2/11
f 56/2/12 57/2/12 55/2/12
f 58/2/13 59/2/13 57/2/13
f 60/2/14 61/2/14 59/2/14
f 54/2/15 46/2/15 38/2/15
f 62/2/16 63/2/16 61/2/16
f 64/2/17 33/2/17 63/2/17
f 55/2/18 59/2/18 63/2/18
f 66/2/1 67/2/1 65/2/1
f 68/2/2 69/2/2 67/2/2
f 70/2/3 71/2/3 69/2/3
f 72/2/4 73/2/4 71/2/4
f 74/2/5 75/2/5 73/2/5
f 76/2/6 77/2/6 75/2/6
f 78/2/7 79/2/7 77/2/7
f 80/2/8 81/2/8 79/2/8
f 82/2/9 83/2/9 81/2/9
f 84/2/10 85/2/10 83/2/10
f 86/2/11 87/2/11 85/2/11
f 88/2/12 89/2/12 87/2/12
f 90/2/13 91/2/13 89/2/13
f 92/2/14 93/2/14 91/2/14
f 86/2/15 78/2/15 70/2/15
f 94/2/16 95/2/16 93/2/16
f 96/2/17 65/2/17 95/2/17
f 87/2/18 91/2/18 95/2/18
f 98/2/1 99/2/1 97/2/1
f 100/2/2 101/2/2 99/2/2
f 102/2/3 103/2/3 101/2/3
f 104/2/4 105/2/4 103/2/4
f 106/2/5 107/2/5 105/2/5
f 108/2/6 109/2/6 107/2/6
f 110/2/7 111/2/7 109/2/7
f 112/2/8 113/2/8 111/2/8
f 114/2/9 115/2/9 113/2/9
f 116/2/10 117/2/10 115/2/10
f 118/2/11 119/2/11 117/2/11
f 120/2/12 121/2/12 119/2/12
f 122/2/13 123/2/13 121/2/13
f 124/2/14 125/2/14 123/2/14
f 118/2/15 110/2/15 102/2/15
f 126/2/16 127/2/16 125/2/16
f 128/2/17 97/2/17 127/2/17
f 119/2/18 123/2/18 127/2/18
f 130/2/1 131/2/1 129/2/1
f 132/2/2 133/2/2 131/2/2
f 134/2/3 135/2/3 133/2/3
f 136/2/4 137/2/4 135/2/4
f 138/2/5 139/2/5 137/2/5
f 140/2/6 141/2/6 139/2/6
f 142/2/7 143/2/7 141/2/7
f 144/2/8 145/2/8 143/2/8
f 146/2/9 147/2/9 145/2/9
f 148/2/10 149/2/10 147/2/10
f 150/2/11 151/2/11 149/2/11
f 152/2/12 153/2/12 151/2/12
f 154/2/13 155/2/13 153/2/13
f 156/2/14 157/2/14 155/2/14
f 150/2/15 142/2/15 134/2/15
f 158/2/16 159/2/16 157/2/16
f 160/2/17 129/2/17 159/2/17
f 151/2/18 155/2/18 159/2/18
f 162/3/1 163/3/1 161/3/1
f 164/3/2 165/3/2 163/3/2
f 166/3/3 167/3/3 165/3/3
f 168/3/4 169/3/4 167/3/4
f 170/3/5 171/3/5 169/3/5
f 172/3/6 173/3/6 171/3/6
f 174/3/7 175/3/7 173/3/7
f 176/3/8 177/3/8 175/3/8
f 178/3/9 179/3/9 177/3/9
f 180/3/10 181/3/10 179/3/10
f 182/3/11 183/3/11 181/3/11
f 184/3/12 185/3/12 183/3/12
f 186/3/13 187/3/13 185/3/13
f 188/3/14 189/3/14 187/3/14
f 170/3/15 166/3/15 182/3/15
f 190/3/16 191/3/16 189/3/16
f 192/3/17 161/3/17 191/3/17
f 175/3/18 183/3/18 191/3/18
f 194/4/19 195/4/19 193/4/19
f 196/4/20 197/4/20 195/4/20
f 198/4/21 199/4/21 197/4/21
f 200/4/22 201/4/22 199/4/22
f 202/4/23 203/4/23 201/4/23
f 204/4/24 205/4/24 203/4/24
f 206/4/25 207/4/25 205/4/25
f 208/4/26 209/4/26 207/4/26
f 210/4/27 211/4/27 209/4/27
f 212/4/28 213/4/28 211/4/28
f 214/4/15 206/4/15 198/4/15
f 214/4/29 215/4/29 213/4/29
f 216/4/30 193/4/30 215/4/30
f 207/4/18 211/4/18 215/4/18
f 217/5/31 218/5/31 219/5/31
f 220/5/32 221/5/32 222/5/32
f 223/5/33 224/5/33 225/5/33
f 226/5/34 227/5/34 228/5/34
f 229/5/35 230/5/35 231/5/35
f 232/5/36 233/5/36 234/5/36
f 235/5/37 236/5/37 237/5/37
f 238/5/38 239/5/38 240/5/38
f 217/5/39 224/5/39 223/5/39
f 220/5/26 219/5/26 218/5/26
f 226/5/40 222/5/40 221/5/40
f 225/5/29 228/5/29 227/5/29
f 223/5/41 236/5/41 235/5/41
f 238/5/42 227/5/42 226/5/42
f 237/5/20 240/5/20 239/5/20
f 235/5/43 230/5/43 229/5/43
f 232/5/44 239/5/44 238/5/44
f 231/5/23 234/5/23 233/5/23
f 229/5/45 218/5/45 217/5/45
f 221/5/46 233/5/46 232/5/46
f 235/5/18 217/5/18 223/5/18
f 222/5/47 224/5/47 219/5/47
f 233/5/48 218/5/48 231/5/48
f 226/5/15 232/5/15 238/5/15
f 227/5/49 236/5/49 225/5/49
f 239/5/50 230/5/50 237/5/50
f 2/1/1 4/1/1 3/1/1
f 4/1/2 6/1/2 5/1/2
f 6/1/3 8/1/3 7/1/3
f 8/1/4 10/1/4 9/1/4
f 10/1/5 12/1/5 11/1/5
f 12/1/6 14/1/6 13/1/6
f 14/1/7 16/1/7 15/1/7
f 16/1/8 18/1/8 17/1/8
f 18/1/9 20/1/9 19/1/9
f 20/1/10 22/1/10 21/1/10
f 22/1/11 24/1/11 23/1/11
f 24/1/12 26/1/12 25/1/12
f 26/1/13 28/1/13 27/1/13
f 28/1/14 30/1/14 29/1/14
f 6/1/15 4/1/15 2/1/15
f 2/1/15 32/1/15 30/1/15
f 30/1/15 28/1/15 26/1/15
f 26/1/15 24/1/15 22/1/15
f 22/1/15 20/1/15 18/1/15
f 18/1/15 16/1/15 14/1/15
f 14/1/15 12/1/15 10/1/15
f 10/1/15 8/1/15 6/1/15
f 6/1/15 2/1/15 30/1/15
f 30/1/15 26/1/15 6/1/15
f 26/1/15 22/1/15 6/1/15
f 22/1/15 18/1/15 14/1/15
f 14/1/15 10/1/15 22/1/15
f 30/1/16 32/1/16 31/1/16
f 32/1/17 2/1/17 1/1/17
f 31/1/18 1/1/18 3/1/18
f 3/1/18 5/1/18 7/1/18
f 7/1/18 9/1/18 11/1/18
f 11/1/18 13/1/18 15/1/18
f 15/1/18 17/1/18 19/1/18
f 19/1/18 21/1/18 23/1/18
f 23/1/18 25/1/18 27/1/18
f 27/1/18 29/1/18 31/1/18
f 31/1/18 3/1/18 7/1/18
f 7/1/18 11/1/18 31/1/18
f 11/1/18 15/1/18 31/1/18
f 15/1/18 19/1/18 23/1/18
f 23/1/18 27/1/18 15/1/18
f 34/2/1 36/2/1 35/2/1
f 36/2/2 38/2/2 37/2/2
f 38/2/3 40/2/3 39/2/3
f 40/2/4 42/2/4 41/2/4
f 42/2/5 44/2/5 43/2/5
f 44/2/6 46/2/6 45/2/6
f 46/2/7 48/2/7 47/2/7
f 48/2/8 50/2/8 49/2/8
f 50/2/9 52/2/9 51/2/9
f 52/2/10 54/2/10 53/2/10
f 54/2/11 56/2/11 55/2/11
f 56/2/12 58/2/12 57/2/12
f 58/2/13 60/2/13 59/2/13
f 60/2/14 62/2/14 61/2/14
f 38/2/15 36/2/15 34/2/15
f 34/2/15 64/2/15 62/2/15
f 62/2/15 60/2/15 58/2/15
f 58/2/15 56/2/15 54/2/15
f 54/2/15 52/2/15 50/2/15
f 50/2/15 48/2/15 46/2/15
f 46/2/15 44/2/15 42/2/15
f 42/2/15 40/2/15 38/2/15
f 38/2/15 34/2/15 62/2/15
f 62/2/15 58/2/15 54/2/15
f 54/2/15 50/2/15 46/2/15
f 46/2/15 42/2/15 38/2/15
f 38/2/15 62/2/15 54/2/15
f 62/2/16 64/2/16 63/2/16
f 64/2/17 34/2/17 33/2/17
f 63/2/18 33/2/18 35/2/18
f 35/2/18 37/2/18 39/2/18
f 39/2/18 41/2/18 43/2/18
f 43/2/18 45/2/18 47/2/18
f 47/2/18 49/2/18 51/2/18
f 51/2/18 53/2/18 55/2/18
f 55/2/18 57/2/18 59/2/18
f 59/2/18 61/2/18 63/2/18
f 63/2/18 35/2/18 47/2/18
f 35/2/18 39/2/18 47/2/18
f 39/2/18 43/2/18 47/2/18
f 47/2/18 51/2/18 63/2/18
f 51/2/18 55/2/18 63/2/18
f 66/2/1 68/2/1 67/2/1
f 68/2/2 70/2/2 69/2/2
f 70/2/3 72/2/3 71/2/3
f 72/2/4 74/2/4 73/2/4
f 74/2/5 76/2/5 75/2/5
f 76/2/6 78/2/6 77/2/6
f 78/2/7 80/2/7 79/2/7
f 80/2/8 82/2/8 81/2/8
f 82/2/9 84/2/9 83/2/9
f 84/2/10 86/2/10 85/2/10
f 86/2/11 88/2/11 87/2/11
f 88/2/12 90/2/12 89/2/12
f 90/2/13 92/2/13 91/2/13
f 92/2/14 94/2/14 93/2/14
f 70/2/15 68/2/15 66/2/15
f 66/2/15 96/2/15 94/2/15
f 94/2/15 92/2/15 90/2/15
f 90/2/15 88/2/15 86/2/15
f 86/2/15 84/2/15 82/2/15
f 82/2/15 80/2/15 78/2/15
f 78/2/15 76/2/15 74/2/15
f 74/2/15 72/2/15 70/2/15
f 70/2/15 66/2/15 94/2/15
f 94/2/15 90/2/15 86/2/15
f 86/2/15 82/2/15 78/2/15
f 78/2/15 74/2/15 70/2/15
f 70/2/15 94/2/15 86/2/15
f 94/2/16 96/2/16 95/2/16
f 96/2/17 66/2/17 65/2/17
f 95/2/18 65/2/18 67/2/18
f 67/2/18 69/2/18 71/2/18
f 71/2/18 73/2/18 75/2/18
f 75/2/18 77/2/18 79/2/18
f 79/2/18 81/2/18 83/2/18
f 83/2/18 85/2/18 87/2/18
f 87/2/18 89/2/18 91/2/18
f 91/2/18 93/2/18 95/2/18
f 95/2/18 67/2/18 79/2/18
f 67/2/18 71/2/18 79/2/18
f 71/2/18 75/2/18 79/2/18
f 79/2/18 83/2/18 95/2/18
f 83/2/18 87/2/18 95/2/18
f 98/2/1 100/2/1 99/2/1
f 100/2/2 102/2/2 101/2/2
f 102/2/3 104/2/3 103/2/3
f 104/2/4 106/2/4 105/2/4
f 106/2/5 108/2/5 107/2/5
f 108/2/6 110/2/6 109/2/6
f 110/2/7 112/2/7 111/2/7
f 112/2/8 114/2/8 113/2/8
f 114/2/9 116/2/9 115/2/9
f 116/2/10 118/2/10 117/2/10
f 118/2/11 120/2/11 119/2/11
f 120/2/12 122/2/12 121/2/12
f 122/2/13 124/2/13 123/2/13
f 124/2/14 126/2/14 125/2/14
f 102/2/15 100/2/15 98/2/15
f 98/2/15 128/2/15 126/2/15
f 126/2/15 124/2/15 122/2/15
f 122/2/15 120/2/15 118/2/15
f 118/2/15 116/2/15 114/2/15
f 114/2/15 112/2/15 110/2/15
f 110/2/15 108/2/15 106/2/15
f 106/2/15 104/2/15 102/2/15
f 102/2/15 98/2/15 126/2/15
f 126/2/15 122/2/15 118/2/15
f 118/2/15 114/2/15 110/2/15
f 110/2/15 106/2/15 102/2/15
f 102/2/15 126/2/15 118/2/15
f 126/2/16 128/2/16 127/2/16
f 128/2/17 98/2/17 97/2/17
f 127/2/18 97/2/18 99/2/18
f 99/2/18 101/2/18 103/2/18
f 103/2/18 105/2/18 107/2/18
f 107/2/18 109/2/18 111/2/18
f 111/2/18 113/2/18 115/2/18
f 115/2/18 117/2/18 119/2/18
f 119/2/18 121/2/18 123/2/18
f 123/2/18 125/2/18 127/2/18
f 127/2/18 99/2/18 111/2/18
f 99/2/18 103/2/18 111/2/18
f 103/2/18 107/2/18 111/2/18
f 111/2/18 115/2/18 127/2/18
f 115/2/18 119/2/18 127/2/18
f 130/2/1 132/2/1 131/2/1
f 132/2/2 134/2/2 133/2/2
f 134/2/3 136/2/3 135/2/3
f 136/2/4 138/2/4 137/2/4
f 138/2/5 140/2/5 139/2/5
f 140/2/6 142/2/6 141/2/6
f 142/2/7 144/2/7 143/2/7
f 144/2/8 146/2/8 145/2/8
f 146/2/9 148/2/9 147/2/9
f 148/2/10 150/2/10 149/2/10
f 150/2/11 152/2/11 151/2/11
f 152/2/12 154/2/12 153/2/12
f 154/2/13 156/2/13 155/2/13
f 156/2/14 158/2/14 157/2/14
f 134/2/15 132/2/15 130/2/15
f 130/2/15 160/2/15 158/2/15
f 158/2/15 156/2/15 154/2/15
f 154/2/15 152/2/15 150/2/15
f 150/2/15 148/2/15 146/2/15
f 146/2/15 144/2/15 142/2/15
f 142/2/15 140/2/15 138/2/15
f 138/2/15 136/2/15 134/2/15
f 134/2/15 130/2/15 158/2/15
f 158/2/15 154/2/15 150/2/15
f 150/2/15 146/2/15 142/2/15
f 142/2/15 138/2/15 134/2/15
f 134/2/15 158/2/15 150/2/15
f 158/2/16 160/2/16 159/2/16
f 160/2/17 130/2/17 129/2/17
f 159/2/18 129/2/18 131/2/18
f 131/2/18 133/2/18 135/2/18
f 135/2/18 137/2/18 139/2/18
f 139/2/18 141/2/18 143/2/18
f 143/2/18 145/2/18 147/2/18
f 147/2/18 149/2/18 151/2/18
f 151/2/18 153/2/18 155/2/18
f 155/2/18 157/2/18 159/2/18
f 159/2/18 131/2/18 143/2/18
f 131/2/18 135/2/18 143/2/18
f 135/2/18 139/2/18 143/2/18
f 143/2/18 147/2/18 159/2/18
f 147/2/18 151/2/18 159/2/18
f 162/3/1 164/3/1 163/3/1
f 164/3/2 166/3/2 165/3/2
f 166/3/3 168/3/3 167/3/3
f 168/3/4 170/3/4 169/3/4
f 170/3/5 172/3/5 171/3/5
f 172/3/6 174/3/6 173/3/6
f 174/3/7 176/3/7 175/3/7
f 176/3/8 178/3/8 177/3/8
f 178/3/9 180/3/9 179/3/9
f 180/3/10 182/3/10 181/3/10
f 182/3/11 184/3/11 183/3/11
f 184/3/12 186/3/12 185/3/12
f 186/3/13 188/3/13 187/3/13
f 188/3/14 190/3/14 189/3/14
f 166/3/15 164/3/15 162/3/15
f 162/3/15 192/3/15 190/3/15
f 190/3/15 188/3/15 186/3/15
f 186/3/15 184/3/15 190/3/15
f 184/3/15 182/3/15 190/3/15
f 182/3/15 180/3/15 174/3/15
f 180/3/15 178/3/15 174/3/15
f 178/3/15 176/3/15 174/3/15
f 174/3/15 172/3/15 170/3/15
f 170/3/15 168/3/15 166/3/15
f 166/3/15 162/3/15 182/3/15
f 162/3/15 190/3/15 182/3/15
f 174/3/15 170/3/15 182/3/15
f 190/3/16 192/3/16 191/3/16
f 192/3/17 162/3/17 161/3/17
f 191/3/18 161/3/18 163/3/18
f 163/3/18 165/3/18 167/3/18
f 167/3/18 169/3/18 171/3/18
f 171/3/18 173/3/18 175/3/18
f 175/3/18 177/3/18 179/3/18
f 179/3/18 181/3/18 183/3/18
f 183/3/18 185/3/18 187/3/18
f 187/3/18 189/3/18 191/3/18
f 191/3/18 163/3/18 167/3/18
f 167/3/18 171/3/18 175/3/18
f 175/3/18 179/3/18 183/3/18
f 183/3/18 187/3/18 191/3/18
f 191/3/18 167/3/18 175/3/18
f 194/4/19 196/4/19 195/4/19
f 196/4/20 198/4/20 197/4/20
f 198/4/21 200/4/21 199/4/21
f 200/4/22 202/4/22 201/4/22
f 202/4/23 204/4/23 203/4/23
f 204/4/24 206/4/24 205/4/24
f 206/4/25 208/4/25 207/4/25
f 208/4/26 210/4/26 209/4/26
f 210/4/27 212/4/27 211/4/27
f 212/4/28 214/4/28 213/4/28
f 198/4/15 196/4/15 214/4/15
f 196/4/15 194/4/15 214/4/15
f 194/4/15 216/4/15 214/4/15
f 214/4/15 212/4/15 206/4/15
f 212/4/15 210/4/15 206/4/15
f 210/4/15 208/4/15 206/4/15
f 206/4/15 204/4/15 198/4/15
f 204/4/15 202/4/15 198/4/15
f 202/4/15 200/4/15 198/4/15
f 214/4/29 216/4/29 215/4/29
f 216/4/30 194/4/30 193/4/30
f 215/4/18 193/4/18 195/4/18
f 195/4/18 197/4/18 199/4/18
f 199/4/18 201/4/18 203/4/18
f 203/4/18 205/4/18 207/4/18
f 207/4/18 209/4/18 211/4/18
f 211/4/18 213/4/18 215/4/18
f 215/4/18 195/4/18 207/4/18
f 195/4/18 199/4/18 207/4/18
f 199/4/18 203/4/18 207/4/18
f 217/5/39 219/5/39 224/5/39
f 220/5/26 222/5/26 219/5/26
f 226/5/40 228/5/40 222/5/40
f 225/5/29 224/5/29 228/5/29
f 223/5/41 225/5/41 236/5/41
f 238/5/42 240/5/42 227/5/42
f 237/5/20 236/5/20 240/5/20
f 235/5/43 237/5/43 230/5/43
f 232/5/44 234/5/44 239/5/44
f 231/5/23 230/5/23 234/5/23
f 229/5/45 231/5/45 218/5/45
f 221/5/46 220/5/46 233/5/46
f 235/5/18 229/5/18 217/5/18
f 222/5/47 228/5/47 224/5/47
f 233/5/48 220/5/48 218/5/48
f 226/5/15 221/5/15 232/5/15
f 227/5/49 240/5/49 236/5/49
f 239/5/50 234/5/50 230/5/50
