# Blender 5.2.1 LTS
# www.blender.org
mtllib BunkerAuthored.mtl
o BunkerAuthored
v -3.936000 0.000000 2.936000
v -3.936000 0.064000 3.000000
v -4.000000 0.064000 2.936000
v -3.936000 0.256000 3.000000
v -3.936000 0.320000 2.936000
v -4.000000 0.256000 2.936000
v -3.936000 0.000000 -2.936000
v -4.000000 0.064000 -2.936000
v -3.936000 0.064000 -3.000000
v -3.936000 0.320000 -2.936000
v -3.936000 0.256000 -3.000000
v -4.000000 0.256000 -2.936000
v 3.936000 0.000000 2.936000
v 4.000000 0.064000 2.936000
v 3.936000 0.064000 3.000000
v 3.936000 0.320000 2.936000
v 3.936000 0.256000 3.000000
v 4.000000 0.256000 2.936000
v 3.936000 0.000000 -2.936000
v 3.936000 0.064000 -3.000000
v 4.000000 0.064000 -2.936000
v 3.936000 0.320000 -2.936000
v 4.000000 0.256000 -2.936000
v 3.936000 0.256000 -3.000000
v -3.675000 0.250000 2.650000
v -3.675000 0.350000 2.750000
v -3.775000 0.350000 2.650000
v -3.675000 2.650000 2.750000
v -3.675000 2.750000 2.650000
v -3.775000 2.650000 2.650000
v -3.675000 0.250000 -2.650000
v -3.775000 0.350000 -2.650000
v -3.675000 0.350000 -2.750000
v -3.675000 2.750000 -2.650000
v -3.675000 2.650000 -2.750000
v -3.775000 2.650000 -2.650000
v 3.675000 0.250000 2.650000
v 3.775000 0.350000 2.650000
v 3.675000 0.350000 2.750000
v 3.675000 2.750000 2.650000
v 3.675000 2.650000 2.750000
v 3.775000 2.650000 2.650000
v 3.675000 0.250000 -2.650000
v 3.675000 0.350000 -2.750000
v 3.775000 0.350000 -2.650000
v 3.675000 2.750000 -2.650000
v 3.775000 2.650000 -2.650000
v 3.675000 2.650000 -2.750000
v -3.880000 2.650000 2.830000
v -3.880000 2.770000 2.950000
v -4.000000 2.770000 2.830000
v -3.880000 3.150000 2.950000
v -3.880000 3.270000 2.830000
v -4.000000 3.150000 2.830000
v -3.880000 2.650000 -2.830000
v -4.000000 2.770000 -2.830000
v -3.880000 2.770000 -2.950000
v -3.880000 3.270000 -2.830000
v -3.880000 3.150000 -2.950000
v -4.000000 3.150000 -2.830000
v 3.880000 2.650000 2.830000
v 4.000000 2.770000 2.830000
v 3.880000 2.770000 2.950000
v 3.880000 3.270000 2.830000
v 3.880000 3.150000 2.950000
v 4.000000 3.150000 2.830000
v 3.880000 2.650000 -2.830000
v 3.880000 2.770000 -2.950000
v 4.000000 2.770000 -2.830000
v 3.880000 3.270000 -2.830000
v 4.000000 3.150000 -2.830000
v 3.880000 3.150000 -2.950000
v -3.370000 0.300000 2.900000
v -3.370000 0.380000 2.980000
v -3.450000 0.380000 2.900000
v -3.370000 1.820000 2.980000
v -3.370000 1.900000 2.900000
v -3.450000 1.820000 2.900000
v -3.370000 0.300000 2.420000
v -3.450000 0.380000 2.420000
v -3.370000 0.380000 2.340000
v -3.370000 1.900000 2.420000
v -3.370000 1.820000 2.340000
v -3.450000 1.820000 2.420000
v -2.530000 0.300000 2.900000
v -2.450000 0.380000 2.900000
v -2.530000 0.380000 2.980000
v -2.530000 1.900000 2.900000
v -2.530000 1.820000 2.980000
v -2.450000 1.820000 2.900000
v -2.530000 0.300000 2.420000
v -2.530000 0.380000 2.340000
v -2.450000 0.380000 2.420000
v -2.530000 1.900000 2.420000
v -2.450000 1.820000 2.420000
v -2.530000 1.820000 2.340000
v 2.530000 0.300000 2.900000
v 2.530000 0.380000 2.980000
v 2.450000 0.380000 2.900000
v 2.530000 1.820000 2.980000
v 2.530000 1.900000 2.900000
v 2.450000 1.820000 2.900000
v 2.530000 0.300000 2.420000
v 2.450000 0.380000 2.420000
v 2.530000 0.380000 2.340000
v 2.530000 1.900000 2.420000
v 2.530000 1.820000 2.340000
v 2.450000 1.820000 2.420000
v 3.370000 0.300000 2.900000
v 3.450000 0.380000 2.900000
v 3.370000 0.380000 2.980000
v 3.370000 1.900000 2.900000
v 3.370000 1.820000 2.980000
v 3.450000 1.820000 2.900000
v 3.370000 0.300000 2.420000
v 3.370000 0.380000 2.340000
v 3.450000 0.380000 2.420000
v 3.370000 1.900000 2.420000
v 3.450000 1.820000 2.420000
v 3.370000 1.820000 2.340000
v -1.034000 1.870000 2.824000
v -1.034000 1.886000 2.840000
v -1.050000 1.886000 2.824000
v -1.034000 2.154000 2.840000
v -1.034000 2.170000 2.824000
v -1.050000 2.154000 2.824000
v -1.034000 1.870000 2.776000
v -1.050000 1.886000 2.776000
v -1.034000 1.886000 2.760000
v -1.034000 2.170000 2.776000
v -1.034000 2.154000 2.760000
v -1.050000 2.154000 2.776000
v 1.034000 1.870000 2.824000
v 1.050000 1.886000 2.824000
v 1.034000 1.886000 2.840000
v 1.034000 2.170000 2.824000
v 1.034000 2.154000 2.840000
v 1.050000 2.154000 2.824000
v 1.034000 1.870000 2.776000
v 1.034000 1.886000 2.760000
v 1.050000 1.886000 2.776000
v 1.034000 2.170000 2.776000
v 1.050000 2.154000 2.776000
v 1.034000 2.154000 2.760000
v -1.107000 1.795000 2.922000
v -1.107000 1.813000 2.940000
v -1.125000 1.813000 2.922000
v -1.107000 1.867000 2.940000
v -1.107000 1.885000 2.922000
v -1.125000 1.867000 2.922000
v -1.107000 1.795000 2.778000
v -1.125000 1.813000 2.778000
v -1.107000 1.813000 2.760000
v -1.107000 1.885000 2.778000
v -1.107000 1.867000 2.760000
v -1.125000 1.867000 2.778000
v 1.107000 1.795000 2.922000
v 1.125000 1.813000 2.922000
v 1.107000 1.813000 2.940000
v 1.107000 1.885000 2.922000
v 1.107000 1.867000 2.940000
v 1.125000 1.867000 2.922000
v 1.107000 1.795000 2.778000
v 1.107000 1.813000 2.760000
v 1.125000 1.813000 2.778000
v 1.107000 1.885000 2.778000
v 1.125000 1.867000 2.778000
v 1.107000 1.867000 2.760000
v -0.580000 0.155000 2.850000
v -0.580000 0.175000 2.870000
v -0.600000 0.175000 2.850000
v -0.580000 1.785000 2.870000
v -0.580000 1.805000 2.850000
v -0.600000 1.785000 2.850000
v -0.580000 0.155000 2.790000
v -0.600000 0.175000 2.790000
v -0.580000 0.175000 2.770000
v -0.580000 1.805000 2.790000
v -0.580000 1.785000 2.770000
v -0.600000 1.785000 2.790000
v 0.580000 0.155000 2.850000
v 0.600000 0.175000 2.850000
v 0.580000 0.175000 2.870000
v 0.580000 1.805000 2.850000
v 0.580000 1.785000 2.870000
v 0.600000 1.785000 2.850000
v 0.580000 0.155000 2.790000
v 0.580000 0.175000 2.770000
v 0.600000 0.175000 2.790000
v 0.580000 1.805000 2.790000
v 0.600000 1.785000 2.790000
v 0.580000 1.785000 2.770000
v -0.480000 0.352000 2.870000
v -0.480000 0.352000 2.898000
v -0.452287 0.336000 2.870000
v -0.452287 0.336000 2.898000
v -0.452287 0.304000 2.870000
v -0.452287 0.304000 2.898000
v -0.480000 0.288000 2.870000
v -0.480000 0.288000 2.898000
v -0.507713 0.304000 2.870000
v -0.507713 0.304000 2.898000
v -0.507713 0.336000 2.870000
v -0.507713 0.336000 2.898000
v -0.480000 1.672000 2.870000
v -0.480000 1.672000 2.898000
v -0.452287 1.656000 2.870000
v -0.452287 1.656000 2.898000
v -0.452287 1.624000 2.870000
v -0.452287 1.624000 2.898000
v -0.480000 1.608000 2.870000
v -0.480000 1.608000 2.898000
v -0.507713 1.624000 2.870000
v -0.507713 1.624000 2.898000
v -0.507713 1.656000 2.870000
v -0.507713 1.656000 2.898000
v 0.480000 0.352000 2.870000
v 0.480000 0.352000 2.898000
v 0.507713 0.336000 2.870000
v 0.507713 0.336000 2.898000
v 0.507713 0.304000 2.870000
v 0.507713 0.304000 2.898000
v 0.480000 0.288000 2.870000
v 0.480000 0.288000 2.898000
v 0.452287 0.304000 2.870000
v 0.452287 0.304000 2.898000
v 0.452287 0.336000 2.870000
v 0.452287 0.336000 2.898000
v 0.480000 1.672000 2.870000
v 0.480000 1.672000 2.898000
v 0.507713 1.656000 2.870000
v 0.507713 1.656000 2.898000
v 0.507713 1.624000 2.870000
v 0.507713 1.624000 2.898000
v 0.480000 1.608000 2.870000
v 0.480000 1.608000 2.898000
v 0.452287 1.624000 2.870000
v 0.452287 1.624000 2.898000
v 0.452287 1.656000 2.870000
v 0.452287 1.656000 2.898000
v -0.726000 0.055000 2.911000
v -0.726000 0.079000 2.935000
v -0.750000 0.079000 2.911000
v -0.726000 1.981000 2.935000
v -0.726000 2.005000 2.911000
v -0.750000 1.981000 2.911000
v -0.726000 0.055000 2.809000
v -0.750000 0.079000 2.809000
v -0.726000 0.079000 2.785000
v -0.726000 2.005000 2.809000
v -0.726000 1.981000 2.785000
v -0.750000 1.981000 2.809000
v -0.654000 0.055000 2.911000
v -0.630000 0.079000 2.911000
v -0.654000 0.079000 2.935000
v -0.654000 2.005000 2.911000
v -0.654000 1.981000 2.935000
v -0.630000 1.981000 2.911000
v -0.654000 0.055000 2.809000
v -0.654000 0.079000 2.785000
v -0.630000 0.079000 2.809000
v -0.654000 2.005000 2.809000
v -0.630000 1.981000 2.809000
v -0.654000 1.981000 2.785000
v 0.654000 0.055000 2.911000
v 0.654000 0.079000 2.935000
v 0.630000 0.079000 2.911000
v 0.654000 1.981000 2.935000
v 0.654000 2.005000 2.911000
v 0.630000 1.981000 2.911000
v 0.654000 0.055000 2.809000
v 0.630000 0.079000 2.809000
v 0.654000 0.079000 2.785000
v 0.654000 2.005000 2.809000
v 0.654000 1.981000 2.785000
v 0.630000 1.981000 2.809000
v 0.726000 0.055000 2.911000
v 0.750000 0.079000 2.911000
v 0.726000 0.079000 2.935000
v 0.726000 2.005000 2.911000
v 0.726000 1.981000 2.935000
v 0.750000 1.981000 2.911000
v 0.726000 0.055000 2.809000
v 0.726000 0.079000 2.785000
v 0.750000 0.079000 2.809000
v 0.726000 2.005000 2.809000
v 0.750000 1.981000 2.809000
v 0.726000 1.981000 2.785000
v -0.726000 1.960000 2.911000
v -0.726000 1.984000 2.935000
v -0.750000 1.984000 2.911000
v -0.726000 2.056000 2.935000
v -0.726000 2.080000 2.911000
v -0.750000 2.056000 2.911000
v -0.726000 1.960000 2.809000
v -0.750000 1.984000 2.809000
v -0.726000 1.984000 2.785000
v -0.726000 2.080000 2.809000
v -0.726000 2.056000 2.785000
v -0.750000 2.056000 2.809000
v 0.726000 1.960000 2.911000
v 0.750000 1.984000 2.911000
v 0.726000 1.984000 2.935000
v 0.726000 2.080000 2.911000
v 0.726000 2.056000 2.935000
v 0.750000 2.056000 2.911000
v 0.726000 1.960000 2.809000
v 0.726000 1.984000 2.785000
v 0.750000 1.984000 2.809000
v 0.726000 2.080000 2.809000
v 0.750000 2.056000 2.809000
v 0.726000 2.056000 2.785000
v 0.363500 0.900000 2.924000
v 0.363500 0.911000 2.935000
v 0.352500 0.911000 2.924000
v 0.363500 1.089000 2.935000
v 0.363500 1.100000 2.924000
v 0.352500 1.089000 2.924000
v 0.363500 0.900000 2.876000
v 0.352500 0.911000 2.876000
v 0.363500 0.911000 2.865000
v 0.363500 1.100000 2.876000
v 0.363500 1.089000 2.865000
v 0.352500 1.089000 2.876000
v 0.396500 0.900000 2.924000
v 0.407500 0.911000 2.924000
v 0.396500 0.911000 2.935000
v 0.396500 1.100000 2.924000
v 0.396500 1.089000 2.935000
v 0.407500 1.089000 2.924000
v 0.396500 0.900000 2.876000
v 0.396500 0.911000 2.865000
v 0.407500 0.911000 2.876000
v 0.396500 1.100000 2.876000
v 0.407500 1.089000 2.876000
v 0.396500 1.089000 2.865000
v -3.834000 0.300000 -2.076000
v -3.834000 0.316000 -2.060000
v -3.850000 0.316000 -2.076000
v -3.834000 2.484000 -2.060000
v -3.834000 2.500000 -2.076000
v -3.850000 2.484000 -2.076000
v -3.834000 0.300000 -2.124000
v -3.850000 0.316000 -2.124000
v -3.834000 0.316000 -2.140000
v -3.834000 2.500000 -2.124000
v -3.834000 2.484000 -2.140000
v -3.850000 2.484000 -2.124000
v -3.786000 0.300000 -2.076000
v -3.770000 0.316000 -2.076000
v -3.786000 0.316000 -2.060000
v -3.786000 2.500000 -2.076000
v -3.786000 2.484000 -2.060000
v -3.770000 2.484000 -2.076000
v -3.786000 0.300000 -2.124000
v -3.786000 0.316000 -2.140000
v -3.770000 0.316000 -2.124000
v -3.786000 2.500000 -2.124000
v -3.770000 2.484000 -2.124000
v -3.786000 2.484000 -2.140000
v -3.834000 0.300000 -1.376000
v -3.834000 0.316000 -1.360000
v -3.850000 0.316000 -1.376000
v -3.834000 2.484000 -1.360000
v -3.834000 2.500000 -1.376000
v -3.850000 2.484000 -1.376000
v -3.834000 0.300000 -1.424000
v -3.850000 0.316000 -1.424000
v -3.834000 0.316000 -1.440000
v -3.834000 2.500000 -1.424000
v -3.834000 2.484000 -1.440000
v -3.850000 2.484000 -1.424000
v -3.786000 0.300000 -1.376000
v -3.770000 0.316000 -1.376000
v -3.786000 0.316000 -1.360000
v -3.786000 2.500000 -1.376000
v -3.786000 2.484000 -1.360000
v -3.770000 2.484000 -1.376000
v -3.786000 0.300000 -1.424000
v -3.786000 0.316000 -1.440000
v -3.770000 0.316000 -1.424000
v -3.786000 2.500000 -1.424000
v -3.770000 2.484000 -1.424000
v -3.786000 2.484000 -1.440000
v -3.834000 0.300000 -0.676000
v -3.834000 0.316000 -0.660000
v -3.850000 0.316000 -0.676000
v -3.834000 2.484000 -0.660000
v -3.834000 2.500000 -0.676000
v -3.850000 2.484000 -0.676000
v -3.834000 0.300000 -0.724000
v -3.850000 0.316000 -0.724000
v -3.834000 0.316000 -0.740000
v -3.834000 2.500000 -0.724000
v -3.834000 2.484000 -0.740000
v -3.850000 2.484000 -0.724000
v -3.786000 0.300000 -0.676000
v -3.770000 0.316000 -0.676000
v -3.786000 0.316000 -0.660000
v -3.786000 2.500000 -0.676000
v -3.786000 2.484000 -0.660000
v -3.770000 2.484000 -0.676000
v -3.786000 0.300000 -0.724000
v -3.786000 0.316000 -0.740000
v -3.770000 0.316000 -0.724000
v -3.786000 2.500000 -0.724000
v -3.770000 2.484000 -0.724000
v -3.786000 2.484000 -0.740000
v -3.834000 0.300000 0.024000
v -3.834000 0.316000 0.040000
v -3.850000 0.316000 0.024000
v -3.834000 2.484000 0.040000
v -3.834000 2.500000 0.024000
v -3.850000 2.484000 0.024000
v -3.834000 0.300000 -0.024000
v -3.850000 0.316000 -0.024000
v -3.834000 0.316000 -0.040000
v -3.834000 2.500000 -0.024000
v -3.834000 2.484000 -0.040000
v -3.850000 2.484000 -0.024000
v -3.786000 0.300000 0.024000
v -3.770000 0.316000 0.024000
v -3.786000 0.316000 0.040000
v -3.786000 2.500000 0.024000
v -3.786000 2.484000 0.040000
v -3.770000 2.484000 0.024000
v -3.786000 0.300000 -0.024000
v -3.786000 0.316000 -0.040000
v -3.770000 0.316000 -0.024000
v -3.786000 2.500000 -0.024000
v -3.770000 2.484000 -0.024000
v -3.786000 2.484000 -0.040000
v -3.834000 0.300000 0.724000
v -3.834000 0.316000 0.740000
v -3.850000 0.316000 0.724000
v -3.834000 2.484000 0.740000
v -3.834000 2.500000 0.724000
v -3.850000 2.484000 0.724000
v -3.834000 0.300000 0.676000
v -3.850000 0.316000 0.676000
v -3.834000 0.316000 0.660000
v -3.834000 2.500000 0.676000
v -3.834000 2.484000 0.660000
v -3.850000 2.484000 0.676000
v -3.786000 0.300000 0.724000
v -3.770000 0.316000 0.724000
v -3.786000 0.316000 0.740000
v -3.786000 2.500000 0.724000
v -3.786000 2.484000 0.740000
v -3.770000 2.484000 0.724000
v -3.786000 0.300000 0.676000
v -3.786000 0.316000 0.660000
v -3.770000 0.316000 0.676000
v -3.786000 2.500000 0.676000
v -3.770000 2.484000 0.676000
v -3.786000 2.484000 0.660000
v -3.834000 0.300000 1.424000
v -3.834000 0.316000 1.440000
v -3.850000 0.316000 1.424000
v -3.834000 2.484000 1.440000
v -3.834000 2.500000 1.424000
v -3.850000 2.484000 1.424000
v -3.834000 0.300000 1.376000
v -3.850000 0.316000 1.376000
v -3.834000 0.316000 1.360000
v -3.834000 2.500000 1.376000
v -3.834000 2.484000 1.360000
v -3.850000 2.484000 1.376000
v -3.786000 0.300000 1.424000
v -3.770000 0.316000 1.424000
v -3.786000 0.316000 1.440000
v -3.786000 2.500000 1.424000
v -3.786000 2.484000 1.440000
v -3.770000 2.484000 1.424000
v -3.786000 0.300000 1.376000
v -3.786000 0.316000 1.360000
v -3.770000 0.316000 1.376000
v -3.786000 2.500000 1.376000
v -3.770000 2.484000 1.376000
v -3.786000 2.484000 1.360000
v -3.834000 0.300000 2.124000
v -3.834000 0.316000 2.140000
v -3.850000 0.316000 2.124000
v -3.834000 2.484000 2.140000
v -3.834000 2.500000 2.124000
v -3.850000 2.484000 2.124000
v -3.834000 0.300000 2.076000
v -3.850000 0.316000 2.076000
v -3.834000 0.316000 2.060000
v -3.834000 2.500000 2.076000
v -3.834000 2.484000 2.060000
v -3.850000 2.484000 2.076000
v -3.786000 0.300000 2.124000
v -3.770000 0.316000 2.124000
v -3.786000 0.316000 2.140000
v -3.786000 2.500000 2.124000
v -3.786000 2.484000 2.140000
v -3.770000 2.484000 2.124000
v -3.786000 0.300000 2.076000
v -3.786000 0.316000 2.060000
v -3.770000 0.316000 2.076000
v -3.786000 2.500000 2.076000
v -3.770000 2.484000 2.076000
v -3.786000 2.484000 2.060000
v -3.871000 1.900000 -0.739000
v -3.871000 1.914000 -0.725000
v -3.885000 1.914000 -0.739000
v -3.871000 2.486000 -0.725000
v -3.871000 2.500000 -0.739000
v -3.885000 2.486000 -0.739000
v -3.871000 1.900000 -1.861000
v -3.885000 1.914000 -1.861000
v -3.871000 1.914000 -1.875000
v -3.871000 2.500000 -1.861000
v -3.871000 2.486000 -1.875000
v -3.885000 2.486000 -1.861000
v -3.829000 1.900000 -0.739000
v -3.815000 1.914000 -0.739000
v -3.829000 1.914000 -0.725000
v -3.829000 2.500000 -0.739000
v -3.829000 2.486000 -0.725000
v -3.815000 2.486000 -0.739000
v -3.829000 1.900000 -1.861000
v -3.829000 1.914000 -1.875000
v -3.815000 1.914000 -1.861000
v -3.829000 2.500000 -1.861000
v -3.815000 2.486000 -1.861000
v -3.829000 2.486000 -1.875000
v -3.910500 1.960000 -0.777000
v -3.910500 1.967000 -0.770000
v -3.917500 1.967000 -0.777000
v -3.910500 1.993000 -0.770000
v -3.910500 2.000000 -0.777000
v -3.917500 1.993000 -0.777000
v -3.910500 1.960000 -1.823000
v -3.917500 1.967000 -1.823000
v -3.910500 1.967000 -1.830000
v -3.910500 2.000000 -1.823000
v -3.910500 1.993000 -1.830000
v -3.917500 1.993000 -1.823000
v -3.889500 1.960000 -0.777000
v -3.882500 1.967000 -0.777000
v -3.889500 1.967000 -0.770000
v -3.889500 2.000000 -0.777000
v -3.889500 1.993000 -0.770000
v -3.882500 1.993000 -0.777000
v -3.889500 1.960000 -1.823000
v -3.889500 1.967000 -1.830000
v -3.882500 1.967000 -1.823000
v -3.889500 2.000000 -1.823000
v -3.882500 1.993000 -1.823000
v -3.889500 1.993000 -1.830000
v -3.910500 2.060000 -0.777000
v -3.910500 2.067000 -0.770000
v -3.917500 2.067000 -0.777000
v -3.910500 2.093000 -0.770000
v -3.910500 2.100000 -0.777000
v -3.917500 2.093000 -0.777000
v -3.910500 2.060000 -1.823000
v -3.917500 2.067000 -1.823000
v -3.910500 2.067000 -1.830000
v -3.910500 2.100000 -1.823000
v -3.910500 2.093000 -1.830000
v -3.917500 2.093000 -1.823000
v -3.889500 2.060000 -0.777000
v -3.882500 2.067000 -0.777000
v -3.889500 2.067000 -0.770000
v -3.889500 2.100000 -0.777000
v -3.889500 2.093000 -0.770000
v -3.882500 2.093000 -0.777000
v -3.889500 2.060000 -1.823000
v -3.889500 2.067000 -1.830000
v -3.882500 2.067000 -1.823000
v -3.889500 2.100000 -1.823000
v -3.882500 2.093000 -1.823000
v -3.889500 2.093000 -1.830000
v -3.910500 2.160000 -0.777000
v -3.910500 2.167000 -0.770000
v -3.917500 2.167000 -0.777000
v -3.910500 2.193000 -0.770000
v -3.910500 2.200000 -0.777000
v -3.917500 2.193000 -0.777000
v -3.910500 2.160000 -1.823000
v -3.917500 2.167000 -1.823000
v -3.910500 2.167000 -1.830000
v -3.910500 2.200000 -1.823000
v -3.910500 2.193000 -1.830000
v -3.917500 2.193000 -1.823000
v -3.889500 2.160000 -0.777000
v -3.882500 2.167000 -0.777000
v -3.889500 2.167000 -0.770000
v -3.889500 2.200000 -0.777000
v -3.889500 2.193000 -0.770000
v -3.882500 2.193000 -0.777000
v -3.889500 2.160000 -1.823000
v -3.889500 2.167000 -1.830000
v -3.882500 2.167000 -1.823000
v -3.889500 2.200000 -1.823000
v -3.882500 2.193000 -1.823000
v -3.889500 2.193000 -1.830000
v -3.910500 2.260000 -0.777000
v -3.910500 2.267000 -0.770000
v -3.917500 2.267000 -0.777000
v -3.910500 2.293000 -0.770000
v -3.910500 2.300000 -0.777000
v -3.917500 2.293000 -0.777000
v -3.910500 2.260000 -1.823000
v -3.917500 2.267000 -1.823000
v -3.910500 2.267000 -1.830000
v -3.910500 2.300000 -1.823000
v -3.910500 2.293000 -1.830000
v -3.917500 2.293000 -1.823000
v -3.889500 2.260000 -0.777000
v -3.882500 2.267000 -0.777000
v -3.889500 2.267000 -0.770000
v -3.889500 2.300000 -0.777000
v -3.889500 2.293000 -0.770000
v -3.882500 2.293000 -0.777000
v -3.889500 2.260000 -1.823000
v -3.889500 2.267000 -1.830000
v -3.882500 2.267000 -1.823000
v -3.889500 2.300000 -1.823000
v -3.882500 2.293000 -1.823000
v -3.889500 2.293000 -1.830000
v -3.910500 2.360000 -0.777000
v -3.910500 2.367000 -0.770000
v -3.917500 2.367000 -0.777000
v -3.910500 2.393000 -0.770000
v -3.910500 2.400000 -0.777000
v -3.917500 2.393000 -0.777000
v -3.910500 2.360000 -1.823000
v -3.917500 2.367000 -1.823000
v -3.910500 2.367000 -1.830000
v -3.910500 2.400000 -1.823000
v -3.910500 2.393000 -1.830000
v -3.917500 2.393000 -1.823000
v -3.889500 2.360000 -0.777000
v -3.882500 2.367000 -0.777000
v -3.889500 2.367000 -0.770000
v -3.889500 2.400000 -0.777000
v -3.889500 2.393000 -0.770000
v -3.882500 2.393000 -0.777000
v -3.889500 2.360000 -1.823000
v -3.889500 2.367000 -1.830000
v -3.882500 2.367000 -1.823000
v -3.889500 2.400000 -1.823000
v -3.882500 2.393000 -1.823000
v -3.889500 2.393000 -1.830000
v 3.786000 0.300000 -2.076000
v 3.786000 0.316000 -2.060000
v 3.770000 0.316000 -2.076000
v 3.786000 2.484000 -2.060000
v 3.786000 2.500000 -2.076000
v 3.770000 2.484000 -2.076000
v 3.786000 0.300000 -2.124000
v 3.770000 0.316000 -2.124000
v 3.786000 0.316000 -2.140000
v 3.786000 2.500000 -2.124000
v 3.786000 2.484000 -2.140000
v 3.770000 2.484000 -2.124000
v 3.834000 0.300000 -2.076000
v 3.850000 0.316000 -2.076000
v 3.834000 0.316000 -2.060000
v 3.834000 2.500000 -2.076000
v 3.834000 2.484000 -2.060000
v 3.850000 2.484000 -2.076000
v 3.834000 0.300000 -2.124000
v 3.834000 0.316000 -2.140000
v 3.850000 0.316000 -2.124000
v 3.834000 2.500000 -2.124000
v 3.850000 2.484000 -2.124000
v 3.834000 2.484000 -2.140000
v 3.786000 0.300000 -1.376000
v 3.786000 0.316000 -1.360000
v 3.770000 0.316000 -1.376000
v 3.786000 2.484000 -1.360000
v 3.786000 2.500000 -1.376000
v 3.770000 2.484000 -1.376000
v 3.786000 0.300000 -1.424000
v 3.770000 0.316000 -1.424000
v 3.786000 0.316000 -1.440000
v 3.786000 2.500000 -1.424000
v 3.786000 2.484000 -1.440000
v 3.770000 2.484000 -1.424000
v 3.834000 0.300000 -1.376000
v 3.850000 0.316000 -1.376000
v 3.834000 0.316000 -1.360000
v 3.834000 2.500000 -1.376000
v 3.834000 2.484000 -1.360000
v 3.850000 2.484000 -1.376000
v 3.834000 0.300000 -1.424000
v 3.834000 0.316000 -1.440000
v 3.850000 0.316000 -1.424000
v 3.834000 2.500000 -1.424000
v 3.850000 2.484000 -1.424000
v 3.834000 2.484000 -1.440000
v 3.786000 0.300000 -0.676000
v 3.786000 0.316000 -0.660000
v 3.770000 0.316000 -0.676000
v 3.786000 2.484000 -0.660000
v 3.786000 2.500000 -0.676000
v 3.770000 2.484000 -0.676000
v 3.786000 0.300000 -0.724000
v 3.770000 0.316000 -0.724000
v 3.786000 0.316000 -0.740000
v 3.786000 2.500000 -0.724000
v 3.786000 2.484000 -0.740000
v 3.770000 2.484000 -0.724000
v 3.834000 0.300000 -0.676000
v 3.850000 0.316000 -0.676000
v 3.834000 0.316000 -0.660000
v 3.834000 2.500000 -0.676000
v 3.834000 2.484000 -0.660000
v 3.850000 2.484000 -0.676000
v 3.834000 0.300000 -0.724000
v 3.834000 0.316000 -0.740000
v 3.850000 0.316000 -0.724000
v 3.834000 2.500000 -0.724000
v 3.850000 2.484000 -0.724000
v 3.834000 2.484000 -0.740000
v 3.786000 0.300000 0.024000
v 3.786000 0.316000 0.040000
v 3.770000 0.316000 0.024000
v 3.786000 2.484000 0.040000
v 3.786000 2.500000 0.024000
v 3.770000 2.484000 0.024000
v 3.786000 0.300000 -0.024000
v 3.770000 0.316000 -0.024000
v 3.786000 0.316000 -0.040000
v 3.786000 2.500000 -0.024000
v 3.786000 2.484000 -0.040000
v 3.770000 2.484000 -0.024000
v 3.834000 0.300000 0.024000
v 3.850000 0.316000 0.024000
v 3.834000 0.316000 0.040000
v 3.834000 2.500000 0.024000
v 3.834000 2.484000 0.040000
v 3.850000 2.484000 0.024000
v 3.834000 0.300000 -0.024000
v 3.834000 0.316000 -0.040000
v 3.850000 0.316000 -0.024000
v 3.834000 2.500000 -0.024000
v 3.850000 2.484000 -0.024000
v 3.834000 2.484000 -0.040000
v 3.786000 0.300000 0.724000
v 3.786000 0.316000 0.740000
v 3.770000 0.316000 0.724000
v 3.786000 2.484000 0.740000
v 3.786000 2.500000 0.724000
v 3.770000 2.484000 0.724000
v 3.786000 0.300000 0.676000
v 3.770000 0.316000 0.676000
v 3.786000 0.316000 0.660000
v 3.786000 2.500000 0.676000
v 3.786000 2.484000 0.660000
v 3.770000 2.484000 0.676000
v 3.834000 0.300000 0.724000
v 3.850000 0.316000 0.724000
v 3.834000 0.316000 0.740000
v 3.834000 2.500000 0.724000
v 3.834000 2.484000 0.740000
v 3.850000 2.484000 0.724000
v 3.834000 0.300000 0.676000
v 3.834000 0.316000 0.660000
v 3.850000 0.316000 0.676000
v 3.834000 2.500000 0.676000
v 3.850000 2.484000 0.676000
v 3.834000 2.484000 0.660000
v 3.786000 0.300000 1.424000
v 3.786000 0.316000 1.440000
v 3.770000 0.316000 1.424000
v 3.786000 2.484000 1.440000
v 3.786000 2.500000 1.424000
v 3.770000 2.484000 1.424000
v 3.786000 0.300000 1.376000
v 3.770000 0.316000 1.376000
v 3.786000 0.316000 1.360000
v 3.786000 2.500000 1.376000
v 3.786000 2.484000 1.360000
v 3.770000 2.484000 1.376000
v 3.834000 0.300000 1.424000
v 3.850000 0.316000 1.424000
v 3.834000 0.316000 1.440000
v 3.834000 2.500000 1.424000
v 3.834000 2.484000 1.440000
v 3.850000 2.484000 1.424000
v 3.834000 0.300000 1.376000
v 3.834000 0.316000 1.360000
v 3.850000 0.316000 1.376000
v 3.834000 2.500000 1.376000
v 3.850000 2.484000 1.376000
v 3.834000 2.484000 1.360000
v 3.786000 0.300000 2.124000
v 3.786000 0.316000 2.140000
v 3.770000 0.316000 2.124000
v 3.786000 2.484000 2.140000
v 3.786000 2.500000 2.124000
v 3.770000 2.484000 2.124000
v 3.786000 0.300000 2.076000
v 3.770000 0.316000 2.076000
v 3.786000 0.316000 2.060000
v 3.786000 2.500000 2.076000
v 3.786000 2.484000 2.060000
v 3.770000 2.484000 2.076000
v 3.834000 0.300000 2.124000
v 3.850000 0.316000 2.124000
v 3.834000 0.316000 2.140000
v 3.834000 2.500000 2.124000
v 3.834000 2.484000 2.140000
v 3.850000 2.484000 2.124000
v 3.834000 0.300000 2.076000
v 3.834000 0.316000 2.060000
v 3.850000 0.316000 2.076000
v 3.834000 2.500000 2.076000
v 3.850000 2.484000 2.076000
v 3.834000 2.484000 2.060000
v 3.829000 1.900000 -0.739000
v 3.829000 1.914000 -0.725000
v 3.815000 1.914000 -0.739000
v 3.829000 2.486000 -0.725000
v 3.829000 2.500000 -0.739000
v 3.815000 2.486000 -0.739000
v 3.829000 1.900000 -1.861000
v 3.815000 1.914000 -1.861000
v 3.829000 1.914000 -1.875000
v 3.829000 2.500000 -1.861000
v 3.829000 2.486000 -1.875000
v 3.815000 2.486000 -1.861000
v 3.871000 1.900000 -0.739000
v 3.885000 1.914000 -0.739000
v 3.871000 1.914000 -0.725000
v 3.871000 2.500000 -0.739000
v 3.871000 2.486000 -0.725000
v 3.885000 2.486000 -0.739000
v 3.871000 1.900000 -1.861000
v 3.871000 1.914000 -1.875000
v 3.885000 1.914000 -1.861000
v 3.871000 2.500000 -1.861000
v 3.885000 2.486000 -1.861000
v 3.871000 2.486000 -1.875000
v 3.889500 1.960000 -0.777000
v 3.889500 1.967000 -0.770000
v 3.882500 1.967000 -0.777000
v 3.889500 1.993000 -0.770000
v 3.889500 2.000000 -0.777000
v 3.882500 1.993000 -0.777000
v 3.889500 1.960000 -1.823000
v 3.882500 1.967000 -1.823000
v 3.889500 1.967000 -1.830000
v 3.889500 2.000000 -1.823000
v 3.889500 1.993000 -1.830000
v 3.882500 1.993000 -1.823000
v 3.910500 1.960000 -0.777000
v 3.917500 1.967000 -0.777000
v 3.910500 1.967000 -0.770000
v 3.910500 2.000000 -0.777000
v 3.910500 1.993000 -0.770000
v 3.917500 1.993000 -0.777000
v 3.910500 1.960000 -1.823000
v 3.910500 1.967000 -1.830000
v 3.917500 1.967000 -1.823000
v 3.910500 2.000000 -1.823000
v 3.917500 1.993000 -1.823000
v 3.910500 1.993000 -1.830000
v 3.889500 2.060000 -0.777000
v 3.889500 2.067000 -0.770000
v 3.882500 2.067000 -0.777000
v 3.889500 2.093000 -0.770000
v 3.889500 2.100000 -0.777000
v 3.882500 2.093000 -0.777000
v 3.889500 2.060000 -1.823000
v 3.882500 2.067000 -1.823000
v 3.889500 2.067000 -1.830000
v 3.889500 2.100000 -1.823000
v 3.889500 2.093000 -1.830000
v 3.882500 2.093000 -1.823000
v 3.910500 2.060000 -0.777000
v 3.917500 2.067000 -0.777000
v 3.910500 2.067000 -0.770000
v 3.910500 2.100000 -0.777000
v 3.910500 2.093000 -0.770000
v 3.917500 2.093000 -0.777000
v 3.910500 2.060000 -1.823000
v 3.910500 2.067000 -1.830000
v 3.917500 2.067000 -1.823000
v 3.910500 2.100000 -1.823000
v 3.917500 2.093000 -1.823000
v 3.910500 2.093000 -1.830000
v 3.889500 2.160000 -0.777000
v 3.889500 2.167000 -0.770000
v 3.882500 2.167000 -0.777000
v 3.889500 2.193000 -0.770000
v 3.889500 2.200000 -0.777000
v 3.882500 2.193000 -0.777000
v 3.889500 2.160000 -1.823000
v 3.882500 2.167000 -1.823000
v 3.889500 2.167000 -1.830000
v 3.889500 2.200000 -1.823000
v 3.889500 2.193000 -1.830000
v 3.882500 2.193000 -1.823000
v 3.910500 2.160000 -0.777000
v 3.917500 2.167000 -0.777000
v 3.910500 2.167000 -0.770000
v 3.910500 2.200000 -0.777000
v 3.910500 2.193000 -0.770000
v 3.917500 2.193000 -0.777000
v 3.910500 2.160000 -1.823000
v 3.910500 2.167000 -1.830000
v 3.917500 2.167000 -1.823000
v 3.910500 2.200000 -1.823000
v 3.917500 2.193000 -1.823000
v 3.910500 2.193000 -1.830000
v 3.889500 2.260000 -0.777000
v 3.889500 2.267000 -0.770000
v 3.882500 2.267000 -0.777000
v 3.889500 2.293000 -0.770000
v 3.889500 2.300000 -0.777000
v 3.882500 2.293000 -0.777000
v 3.889500 2.260000 -1.823000
v 3.882500 2.267000 -1.823000
v 3.889500 2.267000 -1.830000
v 3.889500 2.300000 -1.823000
v 3.889500 2.293000 -1.830000
v 3.882500 2.293000 -1.823000
v 3.910500 2.260000 -0.777000
v 3.917500 2.267000 -0.777000
v 3.910500 2.267000 -0.770000
v 3.910500 2.300000 -0.777000
v 3.910500 2.293000 -0.770000
v 3.917500 2.293000 -0.777000
v 3.910500 2.260000 -1.823000
v 3.910500 2.267000 -1.830000
v 3.917500 2.267000 -1.823000
v 3.910500 2.300000 -1.823000
v 3.917500 2.293000 -1.823000
v 3.910500 2.293000 -1.830000
v 3.889500 2.360000 -0.777000
v 3.889500 2.367000 -0.770000
v 3.882500 2.367000 -0.777000
v 3.889500 2.393000 -0.770000
v 3.889500 2.400000 -0.777000
v 3.882500 2.393000 -0.777000
v 3.889500 2.360000 -1.823000
v 3.882500 2.367000 -1.823000
v 3.889500 2.367000 -1.830000
v 3.889500 2.400000 -1.823000
v 3.889500 2.393000 -1.830000
v 3.882500 2.393000 -1.823000
v 3.910500 2.360000 -0.777000
v 3.917500 2.367000 -0.777000
v 3.910500 2.367000 -0.770000
v 3.910500 2.400000 -0.777000
v 3.910500 2.393000 -0.770000
v 3.917500 2.393000 -0.777000
v 3.910500 2.360000 -1.823000
v 3.910500 2.367000 -1.830000
v 3.917500 2.367000 -1.823000
v 3.910500 2.400000 -1.823000
v 3.917500 2.393000 -1.823000
v 3.910500 2.393000 -1.830000
v -2.685000 2.260000 2.870000
v -2.685000 2.285000 2.895000
v -2.710000 2.285000 2.870000
v -2.685000 2.415000 2.895000
v -2.685000 2.440000 2.870000
v -2.710000 2.415000 2.870000
v -2.685000 2.260000 2.770000
v -2.710000 2.285000 2.770000
v -2.685000 2.285000 2.745000
v -2.685000 2.440000 2.770000
v -2.685000 2.415000 2.745000
v -2.710000 2.415000 2.770000
v -2.315000 2.260000 2.870000
v -2.290000 2.285000 2.870000
v -2.315000 2.285000 2.895000
v -2.315000 2.440000 2.870000
v -2.315000 2.415000 2.895000
v -2.290000 2.415000 2.870000
v -2.315000 2.260000 2.770000
v -2.315000 2.285000 2.745000
v -2.290000 2.285000 2.770000
v -2.315000 2.440000 2.770000
v -2.290000 2.415000 2.770000
v -2.315000 2.415000 2.745000
v -2.645000 2.290000 2.912500
v -2.645000 2.295000 2.917500
v -2.650000 2.295000 2.912500
v -2.645000 2.385000 2.917500
v -2.645000 2.390000 2.912500
v -2.650000 2.385000 2.912500
v -2.645000 2.290000 2.897500
v -2.650000 2.295000 2.897500
v -2.645000 2.295000 2.892500
v -2.645000 2.390000 2.897500
v -2.645000 2.385000 2.892500
v -2.650000 2.385000 2.897500
v -2.355000 2.290000 2.912500
v -2.350000 2.295000 2.912500
v -2.355000 2.295000 2.917500
v -2.355000 2.390000 2.912500
v -2.355000 2.385000 2.917500
v -2.350000 2.385000 2.912500
v -2.355000 2.290000 2.897500
v -2.355000 2.295000 2.892500
v -2.350000 2.295000 2.897500
v -2.355000 2.390000 2.897500
v -2.350000 2.385000 2.897500
v -2.355000 2.385000 2.892500
v 2.315000 2.260000 2.870000
v 2.315000 2.285000 2.895000
v 2.290000 2.285000 2.870000
v 2.315000 2.415000 2.895000
v 2.315000 2.440000 2.870000
v 2.290000 2.415000 2.870000
v 2.315000 2.260000 2.770000
v 2.290000 2.285000 2.770000
v 2.315000 2.285000 2.745000
v 2.315000 2.440000 2.770000
v 2.315000 2.415000 2.745000
v 2.290000 2.415000 2.770000
v 2.685000 2.260000 2.870000
v 2.710000 2.285000 2.870000
v 2.685000 2.285000 2.895000
v 2.685000 2.440000 2.870000
v 2.685000 2.415000 2.895000
v 2.710000 2.415000 2.870000
v 2.685000 2.260000 2.770000
v 2.685000 2.285000 2.745000
v 2.710000 2.285000 2.770000
v 2.685000 2.440000 2.770000
v 2.710000 2.415000 2.770000
v 2.685000 2.415000 2.745000
v 2.355000 2.290000 2.912500
v 2.355000 2.295000 2.917500
v 2.350000 2.295000 2.912500
v 2.355000 2.385000 2.917500
v 2.355000 2.390000 2.912500
v 2.350000 2.385000 2.912500
v 2.355000 2.290000 2.897500
v 2.350000 2.295000 2.897500
v 2.355000 2.295000 2.892500
v 2.355000 2.390000 2.897500
v 2.355000 2.385000 2.892500
v 2.350000 2.385000 2.897500
v 2.645000 2.290000 2.912500
v 2.650000 2.295000 2.912500
v 2.645000 2.295000 2.917500
v 2.645000 2.390000 2.912500
v 2.645000 2.385000 2.917500
v 2.650000 2.385000 2.912500
v 2.645000 2.290000 2.897500
v 2.645000 2.295000 2.892500
v 2.650000 2.295000 2.897500
v 2.645000 2.390000 2.897500
v 2.650000 2.385000 2.897500
v 2.645000 2.385000 2.892500
v 1.500000 3.185000 -0.820000
v 1.500000 3.255000 -0.820000
v 1.660727 3.185000 -0.788029
v 1.660727 3.255000 -0.788029
v 1.796985 3.185000 -0.696985
v 1.796985 3.255000 -0.696985
v 1.888029 3.185000 -0.560727
v 1.888029 3.255000 -0.560727
v 1.920000 3.185000 -0.400000
v 1.920000 3.255000 -0.400000
v 1.888029 3.185000 -0.239273
v 1.888029 3.255000 -0.239273
v 1.796985 3.185000 -0.103015
v 1.796985 3.255000 -0.103015
v 1.660727 3.185000 -0.011971
v 1.660727 3.255000 -0.011971
v 1.500000 3.185000 0.020000
v 1.500000 3.255000 0.020000
v 1.339273 3.185000 -0.011971
v 1.339273 3.255000 -0.011971
v 1.203015 3.185000 -0.103015
v 1.203015 3.255000 -0.103015
v 1.111971 3.185000 -0.239273
v 1.111971 3.255000 -0.239273
v 1.080000 3.185000 -0.400000
v 1.080000 3.255000 -0.400000
v 1.111971 3.185000 -0.560727
v 1.111971 3.255000 -0.560727
v 1.203015 3.185000 -0.696985
v 1.203015 3.255000 -0.696985
v 1.339273 3.185000 -0.788029
v 1.339273 3.255000 -0.788029
vn -0.5774 -0.5773 0.5773
vn -0.5774 0.5773 0.5773
vn -0.5774 -0.5773 -0.5773
vn -0.5774 0.5773 -0.5773
vn 0.5774 -0.5773 0.5773
vn 0.5774 0.5773 0.5773
vn 0.5774 -0.5773 -0.5773
vn 0.5774 0.5773 -0.5773
vn -0.7071 -0.7071 -0.0000
vn -0.7071 -0.0000 0.7071
vn -0.7071 0.7071 -0.0000
vn -0.7071 -0.0000 -0.7071
vn -0.0000 -0.7071 -0.7071
vn -0.0000 0.7071 -0.7071
vn 0.7071 -0.0000 -0.7071
vn 0.7071 -0.7071 -0.0000
vn 0.7071 0.7071 -0.0000
vn 0.7071 -0.0000 0.7071
vn -0.0000 -0.7071 0.7071
vn -0.0000 0.7071 0.7071
vn -0.0000 -1.0000 -0.0000
vn -1.0000 -0.0000 -0.0000
vn -0.0000 -0.0000 1.0000
vn -0.0000 1.0000 -0.0000
vn -0.0000 -0.0000 -1.0000
vn 1.0000 -0.0000 -0.0000
vn -0.5774 -0.5774 0.5774
vn -0.5774 -0.5774 -0.5774
vn 0.5774 -0.5774 0.5774
vn 0.5774 -0.5774 -0.5774
vn -0.5773 -0.5773 0.5774
vn -0.5773 0.5773 0.5774
vn -0.5773 -0.5773 -0.5774
vn -0.5773 0.5773 -0.5774
vn 0.5773 -0.5773 0.5774
vn 0.5773 0.5773 0.5774
vn 0.5773 -0.5773 -0.5774
vn 0.5773 0.5773 -0.5774
vn -0.5774 0.5774 0.5774
vn -0.5774 0.5774 -0.5774
vn 0.5774 0.5774 0.5774
vn 0.5774 0.5774 -0.5774
vn -0.5774 -0.5773 0.5774
vn -0.5774 -0.5773 -0.5774
vn 0.5774 -0.5773 0.5774
vn 0.5774 -0.5773 -0.5774
vn 0.5000 0.8660 -0.0000
vn 0.5000 -0.8660 -0.0000
vn -0.5000 -0.8660 -0.0000
vn -0.5000 0.8660 -0.0000
vn -0.5774 0.5773 0.5774
vn -0.5774 0.5773 -0.5774
vn 0.5774 0.5773 0.5774
vn 0.5774 0.5773 -0.5774
vn -0.5773 -0.5774 -0.5774
vn 0.5773 -0.5774 0.5774
vn 0.5773 -0.5774 -0.5773
vn 0.5774 0.5774 -0.5773
vn 0.5773 -0.5774 -0.5774
vn -0.5773 -0.5774 0.5774
vn 0.5773 -0.5774 0.5773
vn 0.5774 0.5774 0.5773
vn -0.5774 -0.5774 0.5773
vn -0.5773 0.5774 0.5773
vn -0.5774 -0.5774 -0.5773
vn -0.5773 0.5774 -0.5773
vn 0.5774 -0.5774 0.5773
vn 0.5773 0.5774 0.5773
vn 0.5774 -0.5774 -0.5773
vn 0.5773 0.5774 -0.5773
vn -0.5774 0.5774 -0.5773
vn 0.5773 0.5774 0.5774
vn -0.5773 -0.5774 0.5773
vn -0.5774 0.5774 0.5773
vn -0.5773 -0.5774 -0.5773
vn 0.5773 0.5774 -0.5774
vn -0.5773 0.5774 0.5774
vn -0.5773 0.5774 -0.5774
vn 0.1951 -0.0000 -0.9808
vn 0.5556 -0.0000 -0.8315
vn 0.8315 -0.0000 -0.5556
vn 0.9808 -0.0000 -0.1951
vn 0.9808 -0.0000 0.1951
vn 0.8315 -0.0000 0.5556
vn 0.5556 -0.0000 0.8315
vn 0.1951 -0.0000 0.9808
vn -0.1951 -0.0000 0.9808
vn -0.5556 -0.0000 0.8315
vn -0.8315 -0.0000 0.5556
vn -0.9808 -0.0000 0.1951
vn -0.9808 -0.0000 -0.1951
vn -0.8315 -0.0000 -0.5556
vn -0.5556 -0.0000 -0.8315
vn -0.1951 -0.0000 -0.9808
vn -0.7071 0.7072 -0.0000
vn 0.7071 0.7072 -0.0000
vt 0.125000 0.625000
vt 0.625000 0.125000
vt 0.625000 0.875000
vt 0.375000 0.875000
vt 0.375000 0.125000
vt 0.875000 0.125000
vt 0.375000 0.625000
vt 0.125000 0.125000
s 0
usemtl WorldPickupPalette
f 1/1/1 2/1/1 3/1/1
f 4/1/2 5/1/2 6/1/2
f 7/1/3 8/1/3 9/1/3
f 10/1/4 11/1/4 12/1/4
f 13/1/5 14/1/5 15/1/5
f 16/1/6 17/1/6 18/1/6
f 19/1/7 20/1/7 21/1/7
f 22/1/8 23/1/8 24/1/8
f 1/1/9 8/1/9 7/1/9
f 4/1/10 3/1/10 2/1/10
f 10/1/11 6/1/11 5/1/11
f 9/1/12 12/1/12 11/1/12
f 7/1/13 20/1/13 19/1/13
f 22/1/14 11/1/14 10/1/14
f 21/1/15 24/1/15 23/1/15
f 19/1/16 14/1/16 13/1/16
f 16/1/17 23/1/17 22/1/17
f 15/1/18 18/1/18 17/1/18
f 13/1/19 2/1/19 1/1/19
f 5/1/20 17/1/20 16/1/20
f 19/1/21 1/1/21 7/1/21
f 6/1/22 8/1/22 3/1/22
f 17/1/23 2/1/23 15/1/23
f 10/1/24 16/1/24 22/1/24
f 11/1/25 20/1/25 9/1/25
f 23/1/26 14/1/26 21/1/26
f 25/2/27 26/2/27 27/2/27
f 28/2/2 29/2/2 30/2/2
f 31/2/28 32/2/28 33/2/28
f 34/2/4 35/2/4 36/2/4
f 37/2/29 38/2/29 39/2/29
f 40/2/6 41/2/6 42/2/6
f 43/2/30 44/2/30 45/2/30
f 46/2/8 47/2/8 48/2/8
f 25/2/9 32/2/9 31/2/9
f 28/2/10 27/2/10 26/2/10
f 34/2/11 30/2/11 29/2/11
f 33/2/12 36/2/12 35/2/12
f 31/2/13 44/2/13 43/2/13
f 46/2/14 35/2/14 34/2/14
f 45/2/15 48/2/15 47/2/15
f 43/2/16 38/2/16 37/2/16
f 40/2/17 47/2/17 46/2/17
f 39/2/18 42/2/18 41/2/18
f 37/2/19 26/2/19 25/2/19
f 29/2/20 41/2/20 40/2/20
f 43/2/21 25/2/21 31/2/21
f 30/2/22 32/2/22 27/2/22
f 41/2/23 26/2/23 39/2/23
f 34/2/24 40/2/24 46/2/24
f 35/2/25 44/2/25 33/2/25
f 47/2/26 38/2/26 45/2/26
f 49/1/31 50/1/31 51/1/31
f 52/1/32 53/1/32 54/1/32
f 55/1/33 56/1/33 57/1/33
f 58/1/34 59/1/34 60/1/34
f 61/1/35 62/1/35 63/1/35
f 64/1/36 65/1/36 66/1/36
f 67/1/37 68/1/37 69/1/37
f 70/1/38 71/1/38 72/1/38
f 49/1/9 56/1/9 55/1/9
f 52/1/10 51/1/10 50/1/10
f 58/1/11 54/1/11 53/1/11
f 57/1/12 60/1/12 59/1/12
f 55/1/13 68/1/13 67/1/13
f 70/1/14 59/1/14 58/1/14
f 69/1/15 72/1/15 71/1/15
f 67/1/16 62/1/16 61/1/16
f 64/1/17 71/1/17 70/1/17
f 63/1/18 66/1/18 65/1/18
f 61/1/19 50/1/19 49/1/19
f 53/1/20 65/1/20 64/1/20
f 67/1/21 49/1/21 55/1/21
f 54/1/22 56/1/22 51/1/22
f 65/1/23 50/1/23 63/1/23
f 58/1/24 64/1/24 70/1/24
f 59/1/25 68/1/25 57/1/25
f 71/1/26 62/1/26 69/1/26
f 73/1/27 74/1/27 75/1/27
f 76/1/39 77/1/39 78/1/39
f 79/1/28 80/1/28 81/1/28
f 82/1/40 83/1/40 84/1/40
f 85/1/29 86/1/29 87/1/29
f 88/1/41 89/1/41 90/1/41
f 91/1/30 92/1/30 93/1/30
f 94/1/42 95/1/42 96/1/42
f 73/1/9 80/1/9 79/1/9
f 76/1/10 75/1/10 74/1/10
f 82/1/11 78/1/11 77/1/11
f 81/1/12 84/1/12 83/1/12
f 79/1/13 92/1/13 91/1/13
f 94/1/14 83/1/14 82/1/14
f 93/1/15 96/1/15 95/1/15
f 91/1/16 86/1/16 85/1/16
f 88/1/17 95/1/17 94/1/17
f 87/1/18 90/1/18 89/1/18
f 85/1/19 74/1/19 73/1/19
f 77/1/20 89/1/20 88/1/20
f 91/1/21 73/1/21 79/1/21
f 78/1/22 80/1/22 75/1/22
f 89/1/23 74/1/23 87/1/23
f 82/1/24 88/1/24 94/1/24
f 83/1/25 92/1/25 81/1/25
f 95/1/26 86/1/26 93/1/26
f 97/1/27 98/1/27 99/1/27
f 100/1/39 101/1/39 102/1/39
f 103/1/28 104/1/28 105/1/28
f 106/1/40 107/1/40 108/1/40
f 109/1/29 110/1/29 111/1/29
f 112/1/41 113/1/41 114/1/41
f 115/1/30 116/1/30 117/1/30
f 118/1/42 119/1/42 120/1/42
f 97/1/9 104/1/9 103/1/9
f 100/1/10 99/1/10 98/1/10
f 106/1/11 102/1/11 101/1/11
f 105/1/12 108/1/12 107/1/12
f 103/1/13 116/1/13 115/1/13
f 118/1/14 107/1/14 106/1/14
f 117/1/15 120/1/15 119/1/15
f 115/1/16 110/1/16 109/1/16
f 112/1/17 119/1/17 118/1/17
f 111/1/18 114/1/18 113/1/18
f 109/1/19 98/1/19 97/1/19
f 101/1/20 113/1/20 112/1/20
f 115/1/21 97/1/21 103/1/21
f 102/1/22 104/1/22 99/1/22
f 113/1/23 98/1/23 111/1/23
f 106/1/24 112/1/24 118/1/24
f 107/1/25 116/1/25 105/1/25
f 119/1/26 110/1/26 117/1/26
f 121/3/43 122/3/43 123/3/43
f 124/3/2 125/3/2 126/3/2
f 127/3/44 128/3/44 129/3/44
f 130/3/4 131/3/4 132/3/4
f 133/3/45 134/3/45 135/3/45
f 136/3/6 137/3/6 138/3/6
f 139/3/46 140/3/46 141/3/46
f 142/3/8 143/3/8 144/3/8
f 121/3/9 128/3/9 127/3/9
f 124/3/10 123/3/10 122/3/10
f 130/3/11 126/3/11 125/3/11
f 129/3/12 132/3/12 131/3/12
f 127/3/13 140/3/13 139/3/13
f 142/3/14 131/3/14 130/3/14
f 141/3/15 144/3/15 143/3/15
f 139/3/16 134/3/16 133/3/16
f 136/3/17 143/3/17 142/3/17
f 135/3/18 138/3/18 137/3/18
f 133/3/19 122/3/19 121/3/19
f 125/3/20 137/3/20 136/3/20
f 139/3/21 121/3/21 127/3/21
f 126/3/22 128/3/22 123/3/22
f 137/3/23 122/3/23 135/3/23
f 130/3/24 136/3/24 142/3/24
f 131/3/25 140/3/25 129/3/25
f 143/3/26 134/3/26 141/3/26
f 145/4/27 146/4/27 147/4/27
f 148/4/39 149/4/39 150/4/39
f 151/4/28 152/4/28 153/4/28
f 154/4/40 155/4/40 156/4/40
f 157/4/29 158/4/29 159/4/29
f 160/4/41 161/4/41 162/4/41
f 163/4/30 164/4/30 165/4/30
f 166/4/42 167/4/42 168/4/42
f 145/4/9 152/4/9 151/4/9
f 148/4/10 147/4/10 146/4/10
f 154/4/11 150/4/11 149/4/11
f 153/4/12 156/4/12 155/4/12
f 151/4/13 164/4/13 163/4/13
f 166/4/14 155/4/14 154/4/14
f 165/4/15 168/4/15 167/4/15
f 163/4/16 158/4/16 157/4/16
f 160/4/17 167/4/17 166/4/17
f 159/4/18 162/4/18 161/4/18
f 157/4/19 146/4/19 145/4/19
f 149/4/20 161/4/20 160/4/20
f 163/4/21 145/4/21 151/4/21
f 150/4/22 152/4/22 147/4/22
f 161/4/23 146/4/23 159/4/23
f 154/4/24 160/4/24 166/4/24
f 155/4/25 164/4/25 153/4/25
f 167/4/26 158/4/26 165/4/26
f 169/2/27 170/2/27 171/2/27
f 172/2/39 173/2/39 174/2/39
f 175/2/28 176/2/28 177/2/28
f 178/2/40 179/2/40 180/2/40
f 181/2/29 182/2/29 183/2/29
f 184/2/41 185/2/41 186/2/41
f 187/2/30 188/2/30 189/2/30
f 190/2/42 191/2/42 192/2/42
f 169/2/9 176/2/9 175/2/9
f 172/2/10 171/2/10 170/2/10
f 178/2/11 174/2/11 173/2/11
f 177/2/12 180/2/12 179/2/12
f 175/2/13 188/2/13 187/2/13
f 190/2/14 179/2/14 178/2/14
f 189/2/15 192/2/15 191/2/15
f 187/2/16 182/2/16 181/2/16
f 184/2/17 191/2/17 190/2/17
f 183/2/18 186/2/18 185/2/18
f 181/2/19 170/2/19 169/2/19
f 173/2/20 185/2/20 184/2/20
f 187/2/21 169/2/21 175/2/21
f 174/2/22 176/2/22 171/2/22
f 185/2/23 170/2/23 183/2/23
f 178/2/24 184/2/24 190/2/24
f 179/2/25 188/2/25 177/2/25
f 191/2/26 182/2/26 189/2/26
f 194/1/47 195/1/47 193/1/47
f 196/1/26 197/1/26 195/1/26
f 198/1/48 199/1/48 197/1/48
f 200/1/49 201/1/49 199/1/49
f 202/1/23 200/1/23 198/1/23
f 202/1/22 203/1/22 201/1/22
f 204/1/50 193/1/50 203/1/50
f 201/1/25 203/1/25 195/1/25
f 206/1/47 207/1/47 205/1/47
f 208/1/26 209/1/26 207/1/26
f 210/1/48 211/1/48 209/1/48
f 212/1/49 213/1/49 211/1/49
f 212/1/23 210/1/23 206/1/23
f 214/1/22 215/1/22 213/1/22
f 216/1/50 205/1/50 215/1/50
f 211/1/25 213/1/25 215/1/25
f 218/1/47 219/1/47 217/1/47
f 220/1/26 221/1/26 219/1/26
f 222/1/48 223/1/48 221/1/48
f 224/1/49 225/1/49 223/1/49
f 218/1/23 226/1/23 222/1/23
f 226/1/22 227/1/22 225/1/22
f 228/1/50 217/1/50 227/1/50
f 219/1/25 223/1/25 227/1/25
f 230/1/47 231/1/47 229/1/47
f 232/1/26 233/1/26 231/1/26
f 234/1/48 235/1/48 233/1/48
f 236/1/49 237/1/49 235/1/49
f 236/1/23 234/1/23 230/1/23
f 238/1/22 239/1/22 237/1/22
f 240/1/50 229/1/50 239/1/50
f 235/1/25 237/1/25 239/1/25
f 241/4/43 242/4/43 243/4/43
f 244/4/51 245/4/51 246/4/51
f 247/4/44 248/4/44 249/4/44
f 250/4/52 251/4/52 252/4/52
f 253/4/45 254/4/45 255/4/45
f 256/4/53 257/4/53 258/4/53
f 259/4/46 260/4/46 261/4/46
f 262/4/54 263/4/54 264/4/54
f 241/4/9 248/4/9 247/4/9
f 244/4/10 243/4/10 242/4/10
f 250/4/11 246/4/11 245/4/11
f 249/4/12 252/4/12 251/4/12
f 247/4/13 260/4/13 259/4/13
f 262/4/14 251/4/14 250/4/14
f 261/4/15 264/4/15 263/4/15
f 259/4/16 254/4/16 253/4/16
f 256/4/17 263/4/17 262/4/17
f 255/4/18 258/4/18 257/4/18
f 253/4/19 242/4/19 241/4/19
f 245/4/20 257/4/20 256/4/20
f 259/4/21 241/4/21 247/4/21
f 246/4/22 248/4/22 243/4/22
f 257/4/23 242/4/23 255/4/23
f 250/4/24 256/4/24 262/4/24
f 251/4/25 260/4/25 249/4/25
f 263/4/26 254/4/26 261/4/26
f 265/4/43 266/4/43 267/4/43
f 268/4/51 269/4/51 270/4/51
f 271/4/44 272/4/44 273/4/44
f 274/4/52 275/4/52 276/4/52
f 277/4/45 278/4/45 279/4/45
f 280/4/53 281/4/53 282/4/53
f 283/4/46 284/4/46 285/4/46
f 286/4/54 287/4/54 288/4/54
f 265/4/9 272/4/9 271/4/9
f 268/4/10 267/4/10 266/4/10
f 274/4/11 270/4/11 269/4/11
f 273/4/12 276/4/12 275/4/12
f 271/4/13 284/4/13 283/4/13
f 286/4/14 275/4/14 274/4/14
f 285/4/15 288/4/15 287/4/15
f 283/4/16 278/4/16 277/4/16
f 280/4/17 287/4/17 286/4/17
f 279/4/18 282/4/18 281/4/18
f 277/4/19 266/4/19 265/4/19
f 269/4/20 281/4/20 280/4/20
f 283/4/21 265/4/21 271/4/21
f 270/4/22 272/4/22 267/4/22
f 281/4/23 266/4/23 279/4/23
f 274/4/24 280/4/24 286/4/24
f 275/4/25 284/4/25 273/4/25
f 287/4/26 278/4/26 285/4/26
f 289/4/43 290/4/43 291/4/43
f 292/4/32 293/4/32 294/4/32
f 295/4/44 296/4/44 297/4/44
f 298/4/34 299/4/34 300/4/34
f 301/4/45 302/4/45 303/4/45
f 304/4/36 305/4/36 306/4/36
f 307/4/46 308/4/46 309/4/46
f 310/4/38 311/4/38 312/4/38
f 289/4/9 296/4/9 295/4/9
f 292/4/10 291/4/10 290/4/10
f 298/4/11 294/4/11 293/4/11
f 297/4/12 300/4/12 299/4/12
f 295/4/13 308/4/13 307/4/13
f 310/4/14 299/4/14 298/4/14
f 309/4/15 312/4/15 311/4/15
f 307/4/16 302/4/16 301/4/16
f 304/4/17 311/4/17 310/4/17
f 303/4/18 306/4/18 305/4/18
f 301/4/19 290/4/19 289/4/19
f 293/4/20 305/4/20 304/4/20
f 307/4/21 289/4/21 295/4/21
f 294/4/22 296/4/22 291/4/22
f 305/4/23 290/4/23 303/4/23
f 298/4/24 304/4/24 310/4/24
f 299/4/25 308/4/25 297/4/25
f 311/4/26 302/4/26 309/4/26
f 313/1/43 314/1/43 315/1/43
f 316/1/51 317/1/51 318/1/51
f 319/1/44 320/1/44 321/1/44
f 322/1/52 323/1/52 324/1/52
f 325/1/45 326/1/45 327/1/45
f 328/1/53 329/1/53 330/1/53
f 331/1/46 332/1/46 333/1/46
f 334/1/54 335/1/54 336/1/54
f 313/1/9 320/1/9 319/1/9
f 316/1/10 315/1/10 314/1/10
f 322/1/11 318/1/11 317/1/11
f 321/1/12 324/1/12 323/1/12
f 319/1/13 332/1/13 331/1/13
f 334/1/14 323/1/14 322/1/14
f 333/1/15 336/1/15 335/1/15
f 331/1/16 326/1/16 325/1/16
f 328/1/17 335/1/17 334/1/17
f 327/1/18 330/1/18 329/1/18
f 325/1/19 314/1/19 313/1/19
f 317/1/20 329/1/20 328/1/20
f 331/1/21 313/1/21 319/1/21
f 318/1/22 320/1/22 315/1/22
f 329/1/23 314/1/23 327/1/23
f 322/1/24 328/1/24 334/1/24
f 323/1/25 332/1/25 321/1/25
f 335/1/26 326/1/26 333/1/26
f 337/5/31 338/5/31 339/5/31
f 340/5/51 341/5/51 342/5/51
f 343/5/55 344/5/55 345/5/55
f 346/5/40 347/5/40 348/5/40
f 349/5/56 350/5/56 351/5/56
f 352/5/6 353/5/6 354/5/6
f 355/5/57 356/5/57 357/5/57
f 358/5/58 359/5/58 360/5/58
f 337/5/9 344/5/9 343/5/9
f 340/5/10 339/5/10 338/5/10
f 346/5/11 342/5/11 341/5/11
f 345/5/12 348/5/12 347/5/12
f 343/5/13 356/5/13 355/5/13
f 358/5/14 347/5/14 346/5/14
f 357/5/15 360/5/15 359/5/15
f 355/5/16 350/5/16 349/5/16
f 352/5/17 359/5/17 358/5/17
f 351/5/18 354/5/18 353/5/18
f 349/5/19 338/5/19 337/5/19
f 341/5/20 353/5/20 352/5/20
f 355/5/21 337/5/21 343/5/21
f 342/5/22 344/5/22 339/5/22
f 353/5/23 338/5/23 351/5/23
f 346/5/24 352/5/24 358/5/24
f 347/5/25 356/5/25 345/5/25
f 359/5/26 350/5/26 357/5/26
f 361/5/31 362/5/31 363/5/31
f 364/5/51 365/5/51 366/5/51
f 367/5/33 368/5/33 369/5/33
f 370/5/34 371/5/34 372/5/34
f 373/5/45 374/5/45 375/5/45
f 376/5/53 377/5/53 378/5/53
f 379/5/37 380/5/37 381/5/37
f 382/5/54 383/5/54 384/5/54
f 361/5/9 368/5/9 367/5/9
f 364/5/10 363/5/10 362/5/10
f 370/5/11 366/5/11 365/5/11
f 369/5/12 372/5/12 371/5/12
f 367/5/13 380/5/13 379/5/13
f 382/5/14 371/5/14 370/5/14
f 381/5/15 384/5/15 383/5/15
f 379/5/16 374/5/16 373/5/16
f 376/5/17 383/5/17 382/5/17
f 375/5/18 378/5/18 377/5/18
f 373/5/19 362/5/19 361/5/19
f 365/5/20 377/5/20 376/5/20
f 379/5/21 361/5/21 367/5/21
f 366/5/22 368/5/22 363/5/22
f 377/5/23 362/5/23 375/5/23
f 370/5/24 376/5/24 382/5/24
f 371/5/25 380/5/25 369/5/25
f 383/5/26 374/5/26 381/5/26
f 385/5/31 386/5/31 387/5/31
f 388/5/51 389/5/51 390/5/51
f 391/5/33 392/5/33 393/5/33
f 394/5/52 395/5/52 396/5/52
f 397/5/45 398/5/45 399/5/45
f 400/5/6 401/5/6 402/5/6
f 403/5/59 404/5/59 405/5/59
f 406/5/8 407/5/8 408/5/8
f 385/5/9 392/5/9 391/5/9
f 388/5/10 387/5/10 386/5/10
f 394/5/11 390/5/11 389/5/11
f 393/5/12 396/5/12 395/5/12
f 391/5/13 404/5/13 403/5/13
f 406/5/14 395/5/14 394/5/14
f 405/5/15 408/5/15 407/5/15
f 403/5/16 398/5/16 397/5/16
f 400/5/17 407/5/17 406/5/17
f 399/5/18 402/5/18 401/5/18
f 397/5/19 386/5/19 385/5/19
f 389/5/20 401/5/20 400/5/20
f 403/5/21 385/5/21 391/5/21
f 390/5/22 392/5/22 387/5/22
f 401/5/23 386/5/23 399/5/23
f 394/5/24 400/5/24 406/5/24
f 395/5/25 404/5/25 393/5/25
f 407/5/26 398/5/26 405/5/26
f 409/5/31 410/5/31 411/5/31
f 412/5/32 413/5/32 414/5/32
f 415/5/33 416/5/33 417/5/33
f 418/5/52 419/5/52 420/5/52
f 421/5/35 422/5/35 423/5/35
f 424/5/6 425/5/6 426/5/6
f 427/5/37 428/5/37 429/5/37
f 430/5/54 431/5/54 432/5/54
f 409/5/9 416/5/9 415/5/9
f 412/5/10 411/5/10 410/5/10
f 418/5/11 414/5/11 413/5/11
f 417/5/12 420/5/12 419/5/12
f 415/5/13 428/5/13 427/5/13
f 430/5/14 419/5/14 418/5/14
f 429/5/15 432/5/15 431/5/15
f 427/5/16 422/5/16 421/5/16
f 424/5/17 431/5/17 430/5/17
f 423/5/18 426/5/18 425/5/18
f 421/5/19 410/5/19 409/5/19
f 413/5/20 425/5/20 424/5/20
f 427/5/21 409/5/21 415/5/21
f 414/5/22 416/5/22 411/5/22
f 425/5/23 410/5/23 423/5/23
f 418/5/24 424/5/24 430/5/24
f 419/5/25 428/5/25 417/5/25
f 431/5/26 422/5/26 429/5/26
f 433/5/31 434/5/31 435/5/31
f 436/5/51 437/5/51 438/5/51
f 439/5/33 440/5/33 441/5/33
f 442/5/52 443/5/52 444/5/52
f 445/5/56 446/5/56 447/5/56
f 448/5/6 449/5/6 450/5/6
f 451/5/46 452/5/46 453/5/46
f 454/5/8 455/5/8 456/5/8
f 433/5/9 440/5/9 439/5/9
f 436/5/10 435/5/10 434/5/10
f 442/5/11 438/5/11 437/5/11
f 441/5/12 444/5/12 443/5/12
f 439/5/13 452/5/13 451/5/13
f 454/5/14 443/5/14 442/5/14
f 453/5/15 456/5/15 455/5/15
f 451/5/16 446/5/16 445/5/16
f 448/5/17 455/5/17 454/5/17
f 447/5/18 450/5/18 449/5/18
f 445/5/19 434/5/19 433/5/19
f 437/5/20 449/5/20 448/5/20
f 451/5/21 433/5/21 439/5/21
f 438/5/22 440/5/22 435/5/22
f 449/5/23 434/5/23 447/5/23
f 442/5/24 448/5/24 454/5/24
f 443/5/25 452/5/25 441/5/25
f 455/5/26 446/5/26 453/5/26
f 457/5/31 458/5/31 459/5/31
f 460/5/32 461/5/32 462/5/32
f 463/5/33 464/5/33 465/5/33
f 466/5/52 467/5/52 468/5/52
f 469/5/35 470/5/35 471/5/35
f 472/5/53 473/5/53 474/5/53
f 475/5/46 476/5/46 477/5/46
f 478/5/54 479/5/54 480/5/54
f 457/5/9 464/5/9 463/5/9
f 460/5/10 459/5/10 458/5/10
f 466/5/11 462/5/11 461/5/11
f 465/5/12 468/5/12 467/5/12
f 463/5/13 476/5/13 475/5/13
f 478/5/14 467/5/14 466/5/14
f 477/5/15 480/5/15 479/5/15
f 475/5/16 470/5/16 469/5/16
f 472/5/17 479/5/17 478/5/17
f 471/5/18 474/5/18 473/5/18
f 469/5/19 458/5/19 457/5/19
f 461/5/20 473/5/20 472/5/20
f 475/5/21 457/5/21 463/5/21
f 462/5/22 464/5/22 459/5/22
f 473/5/23 458/5/23 471/5/23
f 466/5/24 472/5/24 478/5/24
f 467/5/25 476/5/25 465/5/25
f 479/5/26 470/5/26 477/5/26
f 481/5/60 482/5/60 483/5/60
f 484/5/39 485/5/39 486/5/39
f 487/5/33 488/5/33 489/5/33
f 490/5/52 491/5/52 492/5/52
f 493/5/61 494/5/61 495/5/61
f 496/5/62 497/5/62 498/5/62
f 499/5/59 500/5/59 501/5/59
f 502/5/8 503/5/8 504/5/8
f 481/5/9 488/5/9 487/5/9
f 484/5/10 483/5/10 482/5/10
f 490/5/11 486/5/11 485/5/11
f 489/5/12 492/5/12 491/5/12
f 487/5/13 500/5/13 499/5/13
f 502/5/14 491/5/14 490/5/14
f 501/5/15 504/5/15 503/5/15
f 499/5/16 494/5/16 493/5/16
f 496/5/17 503/5/17 502/5/17
f 495/5/18 498/5/18 497/5/18
f 493/5/19 482/5/19 481/5/19
f 485/5/20 497/5/20 496/5/20
f 499/5/21 481/5/21 487/5/21
f 486/5/22 488/5/22 483/5/22
f 497/5/23 482/5/23 495/5/23
f 490/5/24 496/5/24 502/5/24
f 491/5/25 500/5/25 489/5/25
f 503/5/26 494/5/26 501/5/26
f 505/3/63 506/3/63 507/3/63
f 508/3/64 509/3/64 510/3/64
f 511/3/65 512/3/65 513/3/65
f 514/3/66 515/3/66 516/3/66
f 517/3/67 518/3/67 519/3/67
f 520/3/68 521/3/68 522/3/68
f 523/3/69 524/3/69 525/3/69
f 526/3/70 527/3/70 528/3/70
f 505/3/9 512/3/9 511/3/9
f 508/3/10 507/3/10 506/3/10
f 514/3/11 510/3/11 509/3/11
f 513/3/12 516/3/12 515/3/12
f 511/3/13 524/3/13 523/3/13
f 526/3/14 515/3/14 514/3/14
f 525/3/15 528/3/15 527/3/15
f 523/3/16 518/3/16 517/3/16
f 520/3/17 527/3/17 526/3/17
f 519/3/18 522/3/18 521/3/18
f 517/3/19 506/3/19 505/3/19
f 509/3/20 521/3/20 520/3/20
f 523/3/21 505/3/21 511/3/21
f 510/3/22 512/3/22 507/3/22
f 521/3/23 506/3/23 519/3/23
f 514/3/24 520/3/24 526/3/24
f 515/3/25 524/3/25 513/3/25
f 527/3/26 518/3/26 525/3/26
f 529/1/63 530/1/63 531/1/63
f 532/1/64 533/1/64 534/1/64
f 535/1/65 536/1/65 537/1/65
f 538/1/71 539/1/71 540/1/71
f 541/1/35 542/1/35 543/1/35
f 544/1/72 545/1/72 546/1/72
f 547/1/37 548/1/37 549/1/37
f 550/1/38 551/1/38 552/1/38
f 529/1/9 536/1/9 535/1/9
f 532/1/10 531/1/10 530/1/10
f 538/1/11 534/1/11 533/1/11
f 537/1/12 540/1/12 539/1/12
f 535/1/13 548/1/13 547/1/13
f 550/1/14 539/1/14 538/1/14
f 549/1/15 552/1/15 551/1/15
f 547/1/16 542/1/16 541/1/16
f 544/1/17 551/1/17 550/1/17
f 543/1/18 546/1/18 545/1/18
f 541/1/19 530/1/19 529/1/19
f 533/1/20 545/1/20 544/1/20
f 547/1/21 529/1/21 535/1/21
f 534/1/22 536/1/22 531/1/22
f 545/1/23 530/1/23 543/1/23
f 538/1/24 544/1/24 550/1/24
f 539/1/25 548/1/25 537/1/25
f 551/1/26 542/1/26 549/1/26
f 553/1/73 554/1/73 555/1/73
f 556/1/74 557/1/74 558/1/74
f 559/1/75 560/1/75 561/1/75
f 562/1/71 563/1/71 564/1/71
f 565/1/56 566/1/56 567/1/56
f 568/1/36 569/1/36 570/1/36
f 571/1/59 572/1/59 573/1/59
f 574/1/38 575/1/38 576/1/38
f 553/1/9 560/1/9 559/1/9
f 556/1/10 555/1/10 554/1/10
f 562/1/11 558/1/11 557/1/11
f 561/1/12 564/1/12 563/1/12
f 559/1/13 572/1/13 571/1/13
f 574/1/14 563/1/14 562/1/14
f 573/1/15 576/1/15 575/1/15
f 571/1/16 566/1/16 565/1/16
f 568/1/17 575/1/17 574/1/17
f 567/1/18 570/1/18 569/1/18
f 565/1/19 554/1/19 553/1/19
f 557/1/20 569/1/20 568/1/20
f 571/1/21 553/1/21 559/1/21
f 558/1/22 560/1/22 555/1/22
f 569/1/23 554/1/23 567/1/23
f 562/1/24 568/1/24 574/1/24
f 563/1/25 572/1/25 561/1/25
f 575/1/26 566/1/26 573/1/26
f 577/1/63 578/1/63 579/1/63
f 580/1/64 581/1/64 582/1/64
f 583/1/75 584/1/75 585/1/75
f 586/1/71 587/1/71 588/1/71
f 589/1/35 590/1/35 591/1/35
f 592/1/72 593/1/72 594/1/72
f 595/1/59 596/1/59 597/1/59
f 598/1/38 599/1/38 600/1/38
f 577/1/9 584/1/9 583/1/9
f 580/1/10 579/1/10 578/1/10
f 586/1/11 582/1/11 581/1/11
f 585/1/12 588/1/12 587/1/12
f 583/1/13 596/1/13 595/1/13
f 598/1/14 587/1/14 586/1/14
f 597/1/15 600/1/15 599/1/15
f 595/1/16 590/1/16 589/1/16
f 592/1/17 599/1/17 598/1/17
f 591/1/18 594/1/18 593/1/18
f 589/1/19 578/1/19 577/1/19
f 581/1/20 593/1/20 592/1/20
f 595/1/21 577/1/21 583/1/21
f 582/1/22 584/1/22 579/1/22
f 593/1/23 578/1/23 591/1/23
f 586/1/24 592/1/24 598/1/24
f 587/1/25 596/1/25 585/1/25
f 599/1/26 590/1/26 597/1/26
f 601/1/63 602/1/63 603/1/63
f 604/1/64 605/1/64 606/1/64
f 607/1/75 608/1/75 609/1/75
f 610/1/71 611/1/71 612/1/71
f 613/1/45 614/1/45 615/1/45
f 616/1/72 617/1/72 618/1/72
f 619/1/59 620/1/59 621/1/59
f 622/1/54 623/1/54 624/1/54
f 601/1/9 608/1/9 607/1/9
f 604/1/10 603/1/10 602/1/10
f 610/1/11 606/1/11 605/1/11
f 609/1/12 612/1/12 611/1/12
f 607/1/13 620/1/13 619/1/13
f 622/1/14 611/1/14 610/1/14
f 621/1/15 624/1/15 623/1/15
f 619/1/16 614/1/16 613/1/16
f 616/1/17 623/1/17 622/1/17
f 615/1/18 618/1/18 617/1/18
f 613/1/19 602/1/19 601/1/19
f 605/1/20 617/1/20 616/1/20
f 619/1/21 601/1/21 607/1/21
f 606/1/22 608/1/22 603/1/22
f 617/1/23 602/1/23 615/1/23
f 610/1/24 616/1/24 622/1/24
f 611/1/25 620/1/25 609/1/25
f 623/1/26 614/1/26 621/1/26
f 625/1/73 626/1/73 627/1/73
f 628/1/74 629/1/74 630/1/74
f 631/1/75 632/1/75 633/1/75
f 634/1/66 635/1/66 636/1/66
f 637/1/56 638/1/56 639/1/56
f 640/1/53 641/1/53 642/1/53
f 643/1/59 644/1/59 645/1/59
f 646/1/76 647/1/76 648/1/76
f 625/1/9 632/1/9 631/1/9
f 628/1/10 627/1/10 626/1/10
f 634/1/11 630/1/11 629/1/11
f 633/1/12 636/1/12 635/1/12
f 631/1/13 644/1/13 643/1/13
f 646/1/14 635/1/14 634/1/14
f 645/1/15 648/1/15 647/1/15
f 643/1/16 638/1/16 637/1/16
f 640/1/17 647/1/17 646/1/17
f 639/1/18 642/1/18 641/1/18
f 637/1/19 626/1/19 625/1/19
f 629/1/20 641/1/20 640/1/20
f 643/1/21 625/1/21 631/1/21
f 630/1/22 632/1/22 627/1/22
f 641/1/23 626/1/23 639/1/23
f 634/1/24 640/1/24 646/1/24
f 635/1/25 644/1/25 633/1/25
f 647/1/26 638/1/26 645/1/26
f 649/5/60 650/5/60 651/5/60
f 652/5/2 653/5/2 654/5/2
f 655/5/75 656/5/75 657/5/75
f 658/5/71 659/5/71 660/5/71
f 661/5/35 662/5/35 663/5/35
f 664/5/53 665/5/53 666/5/53
f 667/5/59 668/5/59 669/5/59
f 670/5/42 671/5/42 672/5/42
f 649/5/9 656/5/9 655/5/9
f 652/5/10 651/5/10 650/5/10
f 658/5/11 654/5/11 653/5/11
f 657/5/12 660/5/12 659/5/12
f 655/5/13 668/5/13 667/5/13
f 670/5/14 659/5/14 658/5/14
f 669/5/15 672/5/15 671/5/15
f 667/5/16 662/5/16 661/5/16
f 664/5/17 671/5/17 670/5/17
f 663/5/18 666/5/18 665/5/18
f 661/5/19 650/5/19 649/5/19
f 653/5/20 665/5/20 664/5/20
f 667/5/21 649/5/21 655/5/21
f 654/5/22 656/5/22 651/5/22
f 665/5/23 650/5/23 663/5/23
f 658/5/24 664/5/24 670/5/24
f 659/5/25 668/5/25 657/5/25
f 671/5/26 662/5/26 669/5/26
f 673/5/43 674/5/43 675/5/43
f 676/5/51 677/5/51 678/5/51
f 679/5/33 680/5/33 681/5/33
f 682/5/52 683/5/52 684/5/52
f 685/5/35 686/5/35 687/5/35
f 688/5/53 689/5/53 690/5/53
f 691/5/37 692/5/37 693/5/37
f 694/5/38 695/5/38 696/5/38
f 673/5/9 680/5/9 679/5/9
f 676/5/10 675/5/10 674/5/10
f 682/5/11 678/5/11 677/5/11
f 681/5/12 684/5/12 683/5/12
f 679/5/13 692/5/13 691/5/13
f 694/5/14 683/5/14 682/5/14
f 693/5/15 696/5/15 695/5/15
f 691/5/16 686/5/16 685/5/16
f 688/5/17 695/5/17 694/5/17
f 687/5/18 690/5/18 689/5/18
f 685/5/19 674/5/19 673/5/19
f 677/5/20 689/5/20 688/5/20
f 691/5/21 673/5/21 679/5/21
f 678/5/22 680/5/22 675/5/22
f 689/5/23 674/5/23 687/5/23
f 682/5/24 688/5/24 694/5/24
f 683/5/25 692/5/25 681/5/25
f 695/5/26 686/5/26 693/5/26
f 697/5/43 698/5/43 699/5/43
f 700/5/2 701/5/2 702/5/2
f 703/5/55 704/5/55 705/5/55
f 706/5/4 707/5/4 708/5/4
f 709/5/35 710/5/35 711/5/35
f 712/5/53 713/5/53 714/5/53
f 715/5/37 716/5/37 717/5/37
f 718/5/54 719/5/54 720/5/54
f 697/5/9 704/5/9 703/5/9
f 700/5/10 699/5/10 698/5/10
f 706/5/11 702/5/11 701/5/11
f 705/5/12 708/5/12 707/5/12
f 703/5/13 716/5/13 715/5/13
f 718/5/14 707/5/14 706/5/14
f 717/5/15 720/5/15 719/5/15
f 715/5/16 710/5/16 709/5/16
f 712/5/17 719/5/17 718/5/17
f 711/5/18 714/5/18 713/5/18
f 709/5/19 698/5/19 697/5/19
f 701/5/20 713/5/20 712/5/20
f 715/5/21 697/5/21 703/5/21
f 702/5/22 704/5/22 699/5/22
f 713/5/23 698/5/23 711/5/23
f 706/5/24 712/5/24 718/5/24
f 707/5/25 716/5/25 705/5/25
f 719/5/26 710/5/26 717/5/26
f 721/5/31 722/5/31 723/5/31
f 724/5/51 725/5/51 726/5/51
f 727/5/33 728/5/33 729/5/33
f 730/5/4 731/5/4 732/5/4
f 733/5/35 734/5/35 735/5/35
f 736/5/53 737/5/53 738/5/53
f 739/5/37 740/5/37 741/5/37
f 742/5/38 743/5/38 744/5/38
f 721/5/9 728/5/9 727/5/9
f 724/5/10 723/5/10 722/5/10
f 730/5/11 726/5/11 725/5/11
f 729/5/12 732/5/12 731/5/12
f 727/5/13 740/5/13 739/5/13
f 742/5/14 731/5/14 730/5/14
f 741/5/15 744/5/15 743/5/15
f 739/5/16 734/5/16 733/5/16
f 736/5/17 743/5/17 742/5/17
f 735/5/18 738/5/18 737/5/18
f 733/5/19 722/5/19 721/5/19
f 725/5/20 737/5/20 736/5/20
f 739/5/21 721/5/21 727/5/21
f 726/5/22 728/5/22 723/5/22
f 737/5/23 722/5/23 735/5/23
f 730/5/24 736/5/24 742/5/24
f 731/5/25 740/5/25 729/5/25
f 743/5/26 734/5/26 741/5/26
f 745/5/60 746/5/60 747/5/60
f 748/5/2 749/5/2 750/5/2
f 751/5/44 752/5/44 753/5/44
f 754/5/4 755/5/4 756/5/4
f 757/5/35 758/5/35 759/5/35
f 760/5/53 761/5/53 762/5/53
f 763/5/37 764/5/37 765/5/37
f 766/5/54 767/5/54 768/5/54
f 745/5/9 752/5/9 751/5/9
f 748/5/10 747/5/10 746/5/10
f 754/5/11 750/5/11 749/5/11
f 753/5/12 756/5/12 755/5/12
f 751/5/13 764/5/13 763/5/13
f 766/5/14 755/5/14 754/5/14
f 765/5/15 768/5/15 767/5/15
f 763/5/16 758/5/16 757/5/16
f 760/5/17 767/5/17 766/5/17
f 759/5/18 762/5/18 761/5/18
f 757/5/19 746/5/19 745/5/19
f 749/5/20 761/5/20 760/5/20
f 763/5/21 745/5/21 751/5/21
f 750/5/22 752/5/22 747/5/22
f 761/5/23 746/5/23 759/5/23
f 754/5/24 760/5/24 766/5/24
f 755/5/25 764/5/25 753/5/25
f 767/5/26 758/5/26 765/5/26
f 769/5/31 770/5/31 771/5/31
f 772/5/51 773/5/51 774/5/51
f 775/5/44 776/5/44 777/5/44
f 778/5/52 779/5/52 780/5/52
f 781/5/35 782/5/35 783/5/35
f 784/5/36 785/5/36 786/5/36
f 787/5/37 788/5/37 789/5/37
f 790/5/54 791/5/54 792/5/54
f 769/5/9 776/5/9 775/5/9
f 772/5/10 771/5/10 770/5/10
f 778/5/11 774/5/11 773/5/11
f 777/5/12 780/5/12 779/5/12
f 775/5/13 788/5/13 787/5/13
f 790/5/14 779/5/14 778/5/14
f 789/5/15 792/5/15 791/5/15
f 787/5/16 782/5/16 781/5/16
f 784/5/17 791/5/17 790/5/17
f 783/5/18 786/5/18 785/5/18
f 781/5/19 770/5/19 769/5/19
f 773/5/20 785/5/20 784/5/20
f 787/5/21 769/5/21 775/5/21
f 774/5/22 776/5/22 771/5/22
f 785/5/23 770/5/23 783/5/23
f 778/5/24 784/5/24 790/5/24
f 779/5/25 788/5/25 777/5/25
f 791/5/26 782/5/26 789/5/26
f 793/5/73 794/5/73 795/5/73
f 796/5/74 797/5/74 798/5/74
f 799/5/55 800/5/55 801/5/55
f 802/5/4 803/5/4 804/5/4
f 805/5/56 806/5/56 807/5/56
f 808/5/41 809/5/41 810/5/41
f 811/5/37 812/5/37 813/5/37
f 814/5/54 815/5/54 816/5/54
f 793/5/9 800/5/9 799/5/9
f 796/5/10 795/5/10 794/5/10
f 802/5/11 798/5/11 797/5/11
f 801/5/12 804/5/12 803/5/12
f 799/5/13 812/5/13 811/5/13
f 814/5/14 803/5/14 802/5/14
f 813/5/15 816/5/15 815/5/15
f 811/5/16 806/5/16 805/5/16
f 808/5/17 815/5/17 814/5/17
f 807/5/18 810/5/18 809/5/18
f 805/5/19 794/5/19 793/5/19
f 797/5/20 809/5/20 808/5/20
f 811/5/21 793/5/21 799/5/21
f 798/5/22 800/5/22 795/5/22
f 809/5/23 794/5/23 807/5/23
f 802/5/24 808/5/24 814/5/24
f 803/5/25 812/5/25 801/5/25
f 815/5/26 806/5/26 813/5/26
f 817/3/63 818/3/63 819/3/63
f 820/3/64 821/3/64 822/3/64
f 823/3/65 824/3/65 825/3/65
f 826/3/66 827/3/66 828/3/66
f 829/3/67 830/3/67 831/3/67
f 832/3/68 833/3/68 834/3/68
f 835/3/69 836/3/69 837/3/69
f 838/3/70 839/3/70 840/3/70
f 817/3/9 824/3/9 823/3/9
f 820/3/10 819/3/10 818/3/10
f 826/3/11 822/3/11 821/3/11
f 825/3/12 828/3/12 827/3/12
f 823/3/13 836/3/13 835/3/13
f 838/3/14 827/3/14 826/3/14
f 837/3/15 840/3/15 839/3/15
f 835/3/16 830/3/16 829/3/16
f 832/3/17 839/3/17 838/3/17
f 831/3/18 834/3/18 833/3/18
f 829/3/19 818/3/19 817/3/19
f 821/3/20 833/3/20 832/3/20
f 835/3/21 817/3/21 823/3/21
f 822/3/22 824/3/22 819/3/22
f 833/3/23 818/3/23 831/3/23
f 826/3/24 832/3/24 838/3/24
f 827/3/25 836/3/25 825/3/25
f 839/3/26 830/3/26 837/3/26
f 841/1/31 842/1/31 843/1/31
f 844/1/77 845/1/77 846/1/77
f 847/1/33 848/1/33 849/1/33
f 850/1/34 851/1/34 852/1/34
f 853/1/67 854/1/67 855/1/67
f 856/1/68 857/1/68 858/1/68
f 859/1/69 860/1/69 861/1/69
f 862/1/58 863/1/58 864/1/58
f 841/1/9 848/1/9 847/1/9
f 844/1/10 843/1/10 842/1/10
f 850/1/11 846/1/11 845/1/11
f 849/1/12 852/1/12 851/1/12
f 847/1/13 860/1/13 859/1/13
f 862/1/14 851/1/14 850/1/14
f 861/1/15 864/1/15 863/1/15
f 859/1/16 854/1/16 853/1/16
f 856/1/17 863/1/17 862/1/17
f 855/1/18 858/1/18 857/1/18
f 853/1/19 842/1/19 841/1/19
f 845/1/20 857/1/20 856/1/20
f 859/1/21 841/1/21 847/1/21
f 846/1/22 848/1/22 843/1/22
f 857/1/23 842/1/23 855/1/23
f 850/1/24 856/1/24 862/1/24
f 851/1/25 860/1/25 849/1/25
f 863/1/26 854/1/26 861/1/26
f 865/1/60 866/1/60 867/1/60
f 868/1/32 869/1/32 870/1/32
f 871/1/55 872/1/55 873/1/55
f 874/1/34 875/1/34 876/1/34
f 877/1/61 878/1/61 879/1/61
f 880/1/62 881/1/62 882/1/62
f 883/1/57 884/1/57 885/1/57
f 886/1/58 887/1/58 888/1/58
f 865/1/9 872/1/9 871/1/9
f 868/1/10 867/1/10 866/1/10
f 874/1/11 870/1/11 869/1/11
f 873/1/12 876/1/12 875/1/12
f 871/1/13 884/1/13 883/1/13
f 886/1/14 875/1/14 874/1/14
f 885/1/15 888/1/15 887/1/15
f 883/1/16 878/1/16 877/1/16
f 880/1/17 887/1/17 886/1/17
f 879/1/18 882/1/18 881/1/18
f 877/1/19 866/1/19 865/1/19
f 869/1/20 881/1/20 880/1/20
f 883/1/21 865/1/21 871/1/21
f 870/1/22 872/1/22 867/1/22
f 881/1/23 866/1/23 879/1/23
f 874/1/24 880/1/24 886/1/24
f 875/1/25 884/1/25 873/1/25
f 887/1/26 878/1/26 885/1/26
f 889/1/31 890/1/31 891/1/31
f 892/1/77 893/1/77 894/1/77
f 895/1/55 896/1/55 897/1/55
f 898/1/34 899/1/34 900/1/34
f 901/1/67 902/1/67 903/1/67
f 904/1/68 905/1/68 906/1/68
f 907/1/57 908/1/57 909/1/57
f 910/1/58 911/1/58 912/1/58
f 889/1/9 896/1/9 895/1/9
f 892/1/10 891/1/10 890/1/10
f 898/1/11 894/1/11 893/1/11
f 897/1/12 900/1/12 899/1/12
f 895/1/13 908/1/13 907/1/13
f 910/1/14 899/1/14 898/1/14
f 909/1/15 912/1/15 911/1/15
f 907/1/16 902/1/16 901/1/16
f 904/1/17 911/1/17 910/1/17
f 903/1/18 906/1/18 905/1/18
f 901/1/19 890/1/19 889/1/19
f 893/1/20 905/1/20 904/1/20
f 907/1/21 889/1/21 895/1/21
f 894/1/22 896/1/22 891/1/22
f 905/1/23 890/1/23 903/1/23
f 898/1/24 904/1/24 910/1/24
f 899/1/25 908/1/25 897/1/25
f 911/1/26 902/1/26 909/1/26
f 913/1/43 914/1/43 915/1/43
f 916/1/77 917/1/77 918/1/77
f 919/1/55 920/1/55 921/1/55
f 922/1/52 923/1/52 924/1/52
f 925/1/67 926/1/67 927/1/67
f 928/1/68 929/1/68 930/1/68
f 931/1/57 932/1/57 933/1/57
f 934/1/58 935/1/58 936/1/58
f 913/1/9 920/1/9 919/1/9
f 916/1/10 915/1/10 914/1/10
f 922/1/11 918/1/11 917/1/11
f 921/1/12 924/1/12 923/1/12
f 919/1/13 932/1/13 931/1/13
f 934/1/14 923/1/14 922/1/14
f 933/1/15 936/1/15 935/1/15
f 931/1/16 926/1/16 925/1/16
f 928/1/17 935/1/17 934/1/17
f 927/1/18 930/1/18 929/1/18
f 925/1/19 914/1/19 913/1/19
f 917/1/20 929/1/20 928/1/20
f 931/1/21 913/1/21 919/1/21
f 918/1/22 920/1/22 915/1/22
f 929/1/23 914/1/23 927/1/23
f 922/1/24 928/1/24 934/1/24
f 923/1/25 932/1/25 921/1/25
f 935/1/26 926/1/26 933/1/26
f 937/1/60 938/1/60 939/1/60
f 940/1/51 941/1/51 942/1/51
f 943/1/55 944/1/55 945/1/55
f 946/1/78 947/1/78 948/1/78
f 949/1/61 950/1/61 951/1/61
f 952/1/62 953/1/62 954/1/62
f 955/1/57 956/1/57 957/1/57
f 958/1/70 959/1/70 960/1/70
f 937/1/9 944/1/9 943/1/9
f 940/1/10 939/1/10 938/1/10
f 946/1/11 942/1/11 941/1/11
f 945/1/12 948/1/12 947/1/12
f 943/1/13 956/1/13 955/1/13
f 958/1/14 947/1/14 946/1/14
f 957/1/15 960/1/15 959/1/15
f 955/1/16 950/1/16 949/1/16
f 952/1/17 959/1/17 958/1/17
f 951/1/18 954/1/18 953/1/18
f 949/1/19 938/1/19 937/1/19
f 941/1/20 953/1/20 952/1/20
f 955/1/21 937/1/21 943/1/21
f 942/1/22 944/1/22 939/1/22
f 953/1/23 938/1/23 951/1/23
f 946/1/24 952/1/24 958/1/24
f 947/1/25 956/1/25 945/1/25
f 959/1/26 950/1/26 957/1/26
f 961/6/73 962/6/73 963/6/73
f 964/6/64 965/6/64 966/6/64
f 967/6/55 968/6/55 969/6/55
f 970/6/78 971/6/78 972/6/78
f 973/6/61 974/6/61 975/6/61
f 976/6/68 977/6/68 978/6/68
f 979/6/59 980/6/59 981/6/59
f 982/6/76 983/6/76 984/6/76
f 961/6/9 968/6/9 967/6/9
f 964/6/10 963/6/10 962/6/10
f 970/6/11 966/6/11 965/6/11
f 969/6/12 972/6/12 971/6/12
f 967/6/13 980/6/13 979/6/13
f 982/6/14 971/6/14 970/6/14
f 981/6/15 984/6/15 983/6/15
f 979/6/16 974/6/16 973/6/16
f 976/6/17 983/6/17 982/6/17
f 975/6/18 978/6/18 977/6/18
f 973/6/19 962/6/19 961/6/19
f 965/6/20 977/6/20 976/6/20
f 979/6/21 961/6/21 967/6/21
f 966/6/22 968/6/22 963/6/22
f 977/6/23 962/6/23 975/6/23
f 970/6/24 976/6/24 982/6/24
f 971/6/25 980/6/25 969/6/25
f 983/6/26 974/6/26 981/6/26
f 985/7/27 986/7/27 987/7/27
f 988/7/77 989/7/77 990/7/77
f 991/7/28 992/7/28 993/7/28
f 994/7/78 995/7/78 996/7/78
f 997/7/29 998/7/29 999/7/29
f 1000/7/72 1001/7/72 1002/7/72
f 1003/7/30 1004/7/30 1005/7/30
f 1006/7/76 1007/7/76 1008/7/76
f 985/7/9 992/7/9 991/7/9
f 988/7/10 987/7/10 986/7/10
f 994/7/11 990/7/11 989/7/11
f 993/7/12 996/7/12 995/7/12
f 991/7/13 1004/7/13 1003/7/13
f 1006/7/14 995/7/14 994/7/14
f 1005/7/15 1008/7/15 1007/7/15
f 1003/7/16 998/7/16 997/7/16
f 1000/7/17 1007/7/17 1006/7/17
f 999/7/18 1002/7/18 1001/7/18
f 997/7/19 986/7/19 985/7/19
f 989/7/20 1001/7/20 1000/7/20
f 1003/7/21 985/7/21 991/7/21
f 990/7/22 992/7/22 987/7/22
f 1001/7/23 986/7/23 999/7/23
f 994/7/24 1000/7/24 1006/7/24
f 995/7/25 1004/7/25 993/7/25
f 1007/7/26 998/7/26 1005/7/26
f 1009/6/73 1010/6/73 1011/6/73
f 1012/6/64 1013/6/64 1014/6/64
f 1015/6/55 1016/6/55 1017/6/55
f 1018/6/78 1019/6/78 1020/6/78
f 1021/6/61 1022/6/61 1023/6/61
f 1024/6/68 1025/6/68 1026/6/68
f 1027/6/59 1028/6/59 1029/6/59
f 1030/6/76 1031/6/76 1032/6/76
f 1009/6/9 1016/6/9 1015/6/9
f 1012/6/10 1011/6/10 1010/6/10
f 1018/6/11 1014/6/11 1013/6/11
f 1017/6/12 1020/6/12 1019/6/12
f 1015/6/13 1028/6/13 1027/6/13
f 1030/6/14 1019/6/14 1018/6/14
f 1029/6/15 1032/6/15 1031/6/15
f 1027/6/16 1022/6/16 1021/6/16
f 1024/6/17 1031/6/17 1030/6/17
f 1023/6/18 1026/6/18 1025/6/18
f 1021/6/19 1010/6/19 1009/6/19
f 1013/6/20 1025/6/20 1024/6/20
f 1027/6/21 1009/6/21 1015/6/21
f 1014/6/22 1016/6/22 1011/6/22
f 1025/6/23 1010/6/23 1023/6/23
f 1018/6/24 1024/6/24 1030/6/24
f 1019/6/25 1028/6/25 1017/6/25
f 1031/6/26 1022/6/26 1029/6/26
f 1033/7/27 1034/7/27 1035/7/27
f 1036/7/77 1037/7/77 1038/7/77
f 1039/7/28 1040/7/28 1041/7/28
f 1042/7/78 1043/7/78 1044/7/78
f 1045/7/29 1046/7/29 1047/7/29
f 1048/7/72 1049/7/72 1050/7/72
f 1051/7/30 1052/7/30 1053/7/30
f 1054/7/76 1055/7/76 1056/7/76
f 1033/7/9 1040/7/9 1039/7/9
f 1036/7/10 1035/7/10 1034/7/10
f 1042/7/11 1038/7/11 1037/7/11
f 1041/7/12 1044/7/12 1043/7/12
f 1039/7/13 1052/7/13 1051/7/13
f 1054/7/14 1043/7/14 1042/7/14
f 1053/7/15 1056/7/15 1055/7/15
f 1051/7/16 1046/7/16 1045/7/16
f 1048/7/17 1055/7/17 1054/7/17
f 1047/7/18 1050/7/18 1049/7/18
f 1045/7/19 1034/7/19 1033/7/19
f 1037/7/20 1049/7/20 1048/7/20
f 1051/7/21 1033/7/21 1039/7/21
f 1038/7/22 1040/7/22 1035/7/22
f 1049/7/23 1034/7/23 1047/7/23
f 1042/7/24 1048/7/24 1054/7/24
f 1043/7/25 1052/7/25 1041/7/25
f 1055/7/26 1046/7/26 1053/7/26
f 1058/8/79 1059/8/79 1057/8/79
f 1060/8/80 1061/8/80 1059/8/80
f 1062/8/81 1063/8/81 1061/8/81
f 1064/8/82 1065/8/82 1063/8/82
f 1066/8/83 1067/8/83 1065/8/83
f 1068/8/84 1069/8/84 1067/8/84
f 1070/8/85 1071/8/85 1069/8/85
f 1072/8/86 1073/8/86 1071/8/86
f 1074/8/87 1075/8/87 1073/8/87
f 1076/8/88 1077/8/88 1075/8/88
f 1078/8/89 1079/8/89 1077/8/89
f 1080/8/90 1081/8/90 1079/8/90
f 1082/8/91 1083/8/91 1081/8/91
f 1084/8/92 1085/8/92 1083/8/92
f 1078/8/24 1070/8/24 1062/8/24
f 1086/8/93 1087/8/93 1085/8/93
f 1088/8/94 1057/8/94 1087/8/94
f 1071/8/21 1079/8/21 1087/8/21
f 1/1/9 3/1/9 8/1/9
f 4/1/10 6/1/10 3/1/10
f 10/1/11 12/1/11 6/1/11
f 9/1/12 8/1/12 12/1/12
f 7/1/13 9/1/13 20/1/13
f 22/1/14 24/1/14 11/1/14
f 21/1/15 20/1/15 24/1/15
f 19/1/16 21/1/16 14/1/16
f 16/1/17 18/1/17 23/1/17
f 15/1/18 14/1/18 18/1/18
f 13/1/19 15/1/19 2/1/19
f 5/1/20 4/1/20 17/1/20
f 19/1/21 13/1/21 1/1/21
f 6/1/22 12/1/22 8/1/22
f 17/1/23 4/1/23 2/1/23
f 10/1/24 5/1/24 16/1/24
f 11/1/25 24/1/25 20/1/25
f 23/1/26 18/1/26 14/1/26
f 25/2/9 27/2/9 32/2/9
f 28/2/10 30/2/10 27/2/10
f 34/2/11 36/2/11 30/2/11
f 33/2/12 32/2/12 36/2/12
f 31/2/13 33/2/13 44/2/13
f 46/2/14 48/2/14 35/2/14
f 45/2/15 44/2/15 48/2/15
f 43/2/16 45/2/16 38/2/16
f 40/2/17 42/2/17 47/2/17
f 39/2/18 38/2/18 42/2/18
f 37/2/19 39/2/19 26/2/19
f 29/2/20 28/2/20 41/2/20
f 43/2/21 37/2/21 25/2/21
f 30/2/22 36/2/22 32/2/22
f 41/2/23 28/2/23 26/2/23
f 34/2/24 29/2/24 40/2/24
f 35/2/25 48/2/25 44/2/25
f 47/2/26 42/2/26 38/2/26
f 49/1/9 51/1/9 56/1/9
f 52/1/10 54/1/10 51/1/10
f 58/1/11 60/1/11 54/1/11
f 57/1/12 56/1/12 60/1/12
f 55/1/13 57/1/13 68/1/13
f 70/1/14 72/1/14 59/1/14
f 69/1/15 68/1/15 72/1/15
f 67/1/16 69/1/16 62/1/16
f 64/1/17 66/1/17 71/1/17
f 63/1/18 62/1/18 66/1/18
f 61/1/19 63/1/19 50/1/19
f 53/1/20 52/1/20 65/1/20
f 67/1/21 61/1/21 49/1/21
f 54/1/22 60/1/22 56/1/22
f 65/1/23 52/1/23 50/1/23
f 58/1/24 53/1/24 64/1/24
f 59/1/25 72/1/25 68/1/25
f 71/1/26 66/1/26 62/1/26
f 73/1/9 75/1/9 80/1/9
f 76/1/10 78/1/10 75/1/10
f 82/1/11 84/1/11 78/1/11
f 81/1/12 80/1/12 84/1/12
f 79/1/13 81/1/13 92/1/13
f 94/1/14 96/1/14 83/1/14
f 93/1/15 92/1/15 96/1/15
f 91/1/16 93/1/16 86/1/16
f 88/1/17 90/1/17 95/1/17
f 87/1/18 86/1/18 90/1/18
f 85/1/19 87/1/19 74/1/19
f 77/1/20 76/1/20 89/1/20
f 91/1/21 85/1/21 73/1/21
f 78/1/22 84/1/22 80/1/22
f 89/1/23 76/1/23 74/1/23
f 82/1/24 77/1/24 88/1/24
f 83/1/25 96/1/25 92/1/25
f 95/1/26 90/1/26 86/1/26
f 97/1/9 99/1/9 104/1/9
f 100/1/10 102/1/10 99/1/10
f 106/1/11 108/1/11 102/1/11
f 105/1/12 104/1/12 108/1/12
f 103/1/13 105/1/13 116/1/13
f 118/1/14 120/1/14 107/1/14
f 117/1/15 116/1/15 120/1/15
f 115/1/16 117/1/16 110/1/16
f 112/1/17 114/1/17 119/1/17
f 111/1/18 110/1/18 114/1/18
f 109/1/19 111/1/19 98/1/19
f 101/1/20 100/1/20 113/1/20
f 115/1/21 109/1/21 97/1/21
f 102/1/22 108/1/22 104/1/22
f 113/1/23 100/1/23 98/1/23
f 106/1/24 101/1/24 112/1/24
f 107/1/25 120/1/25 116/1/25
f 119/1/26 114/1/26 110/1/26
f 121/3/9 123/3/9 128/3/9
f 124/3/10 126/3/10 123/3/10
f 130/3/11 132/3/11 126/3/11
f 129/3/12 128/3/12 132/3/12
f 127/3/13 129/3/13 140/3/13
f 142/3/14 144/3/14 131/3/14
f 141/3/15 140/3/15 144/3/15
f 139/3/16 141/3/16 134/3/16
f 136/3/17 138/3/17 143/3/17
f 135/3/18 134/3/18 138/3/18
f 133/3/19 135/3/19 122/3/19
f 125/3/20 124/3/20 137/3/20
f 139/3/21 133/3/21 121/3/21
f 126/3/22 132/3/22 128/3/22
f 137/3/23 124/3/23 122/3/23
f 130/3/24 125/3/24 136/3/24
f 131/3/25 144/3/25 140/3/25
f 143/3/26 138/3/26 134/3/26
f 145/4/9 147/4/9 152/4/9
f 148/4/10 150/4/10 147/4/10
f 154/4/11 156/4/11 150/4/11
f 153/4/12 152/4/12 156/4/12
f 151/4/13 153/4/13 164/4/13
f 166/4/14 168/4/14 155/4/14
f 165/4/15 164/4/15 168/4/15
f 163/4/16 165/4/16 158/4/16
f 160/4/17 162/4/17 167/4/17
f 159/4/18 158/4/18 162/4/18
f 157/4/19 159/4/19 146/4/19
f 149/4/20 148/4/20 161/4/20
f 163/4/21 157/4/21 145/4/21
f 150/4/22 156/4/22 152/4/22
f 161/4/23 148/4/23 146/4/23
f 154/4/24 149/4/24 160/4/24
f 155/4/25 168/4/25 164/4/25
f 167/4/26 162/4/26 158/4/26
f 169/2/9 171/2/9 176/2/9
f 172/2/10 174/2/10 171/2/10
f 178/2/11 180/2/11 174/2/11
f 177/2/12 176/2/12 180/2/12
f 175/2/13 177/2/13 188/2/13
f 190/2/14 192/2/14 179/2/14
f 189/2/15 188/2/15 192/2/15
f 187/2/16 189/2/16 182/2/16
f 184/2/17 186/2/17 191/2/17
f 183/2/18 182/2/18 186/2/18
f 181/2/19 183/2/19 170/2/19
f 173/2/20 172/2/20 185/2/20
f 187/2/21 181/2/21 169/2/21
f 174/2/22 180/2/22 176/2/22
f 185/2/23 172/2/23 170/2/23
f 178/2/24 173/2/24 184/2/24
f 179/2/25 192/2/25 188/2/25
f 191/2/26 186/2/26 182/2/26
f 194/1/47 196/1/47 195/1/47
f 196/1/26 198/1/26 197/1/26
f 198/1/48 200/1/48 199/1/48
f 200/1/49 202/1/49 201/1/49
f 198/1/23 196/1/23 194/1/23
f 194/1/23 204/1/23 198/1/23
f 204/1/23 202/1/23 198/1/23
f 202/1/22 204/1/22 203/1/22
f 204/1/50 194/1/50 193/1/50
f 203/1/25 193/1/25 195/1/25
f 195/1/25 197/1/25 199/1/25
f 199/1/25 201/1/25 195/1/25
f 206/1/47 208/1/47 207/1/47
f 208/1/26 210/1/26 209/1/26
f 210/1/48 212/1/48 211/1/48
f 212/1/49 214/1/49 213/1/49
f 210/1/23 208/1/23 206/1/23
f 206/1/23 216/1/23 214/1/23
f 214/1/23 212/1/23 206/1/23
f 214/1/22 216/1/22 215/1/22
f 216/1/50 206/1/50 205/1/50
f 215/1/25 205/1/25 211/1/25
f 205/1/25 207/1/25 211/1/25
f 207/1/25 209/1/25 211/1/25
f 218/1/47 220/1/47 219/1/47
f 220/1/26 222/1/26 221/1/26
f 222/1/48 224/1/48 223/1/48
f 224/1/49 226/1/49 225/1/49
f 222/1/23 220/1/23 218/1/23
f 218/1/23 228/1/23 226/1/23
f 226/1/23 224/1/23 222/1/23
f 226/1/22 228/1/22 227/1/22
f 228/1/50 218/1/50 217/1/50
f 227/1/25 217/1/25 219/1/25
f 219/1/25 221/1/25 223/1/25
f 223/1/25 225/1/25 227/1/25
f 230/1/47 232/1/47 231/1/47
f 232/1/26 234/1/26 233/1/26
f 234/1/48 236/1/48 235/1/48
f 236/1/49 238/1/49 237/1/49
f 234/1/23 232/1/23 230/1/23
f 230/1/23 240/1/23 238/1/23
f 238/1/23 236/1/23 230/1/23
f 238/1/22 240/1/22 239/1/22
f 240/1/50 230/1/50 229/1/50
f 239/1/25 229/1/25 235/1/25
f 229/1/25 231/1/25 235/1/25
f 231/1/25 233/1/25 235/1/25
f 241/4/9 243/4/9 248/4/9
f 244/4/10 246/4/10 243/4/10
f 250/4/11 252/4/11 246/4/11
f 249/4/12 248/4/12 252/4/12
f 247/4/13 249/4/13 260/4/13
f 262/4/14 264/4/14 251/4/14
f 261/4/15 260/4/15 264/4/15
f 259/4/16 261/4/16 254/4/16
f 256/4/17 258/4/17 263/4/17
f 255/4/18 254/4/18 258/4/18
f 253/4/19 255/4/19 242/4/19
f 245/4/20 244/4/20 257/4/20
f 259/4/21 253/4/21 241/4/21
f 246/4/22 252/4/22 248/4/22
f 257/4/23 244/4/23 242/4/23
f 250/4/24 245/4/24 256/4/24
f 251/4/25 264/4/25 260/4/25
f 263/4/26 258/4/26 254/4/26
f 265/4/9 267/4/9 272/4/9
f 268/4/10 270/4/10 267/4/10
f 274/4/11 276/4/11 270/4/11
f 273/4/12 272/4/12 276/4/12
f 271/4/13 273/4/13 284/4/13
f 286/4/14 288/4/14 275/4/14
f 285/4/15 284/4/15 288/4/15
f 283/4/16 285/4/16 278/4/16
f 280/4/17 282/4/17 287/4/17
f 279/4/18 278/4/18 282/4/18
f 277/4/19 279/4/19 266/4/19
f 269/4/20 268/4/20 281/4/20
f 283/4/21 277/4/21 265/4/21
f 270/4/22 276/4/22 272/4/22
f 281/4/23 268/4/23 266/4/23
f 274/4/24 269/4/24 280/4/24
f 275/4/25 288/4/25 284/4/25
f 287/4/26 282/4/26 278/4/26
f 289/4/9 291/4/9 296/4/9
f 292/4/10 294/4/10 291/4/10
f 298/4/11 300/4/11 294/4/11
f 297/4/12 296/4/12 300/4/12
f 295/4/13 297/4/13 308/4/13
f 310/4/14 312/4/14 299/4/14
f 309/4/15 308/4/15 312/4/15
f 307/4/16 309/4/16 302/4/16
f 304/4/17 306/4/17 311/4/17
f 303/4/18 302/4/18 306/4/18
f 301/4/19 303/4/19 290/4/19
f 293/4/20 292/4/20 305/4/20
f 307/4/21 301/4/21 289/4/21
f 294/4/22 300/4/22 296/4/22
f 305/4/23 292/4/23 290/4/23
f 298/4/24 293/4/24 304/4/24
f 299/4/25 312/4/25 308/4/25
f 311/4/26 306/4/26 302/4/26
f 313/1/9 315/1/9 320/1/9
f 316/1/10 318/1/10 315/1/10
f 322/1/11 324/1/11 318/1/11
f 321/1/12 320/1/12 324/1/12
f 319/1/13 321/1/13 332/1/13
f 334/1/14 336/1/14 323/1/14
f 333/1/15 332/1/15 336/1/15
f 331/1/16 333/1/16 326/1/16
f 328/1/17 330/1/17 335/1/17
f 327/1/18 326/1/18 330/1/18
f 325/1/19 327/1/19 314/1/19
f 317/1/20 316/1/20 329/1/20
f 331/1/21 325/1/21 313/1/21
f 318/1/22 324/1/22 320/1/22
f 329/1/23 316/1/23 314/1/23
f 322/1/24 317/1/24 328/1/24
f 323/1/25 336/1/25 332/1/25
f 335/1/26 330/1/26 326/1/26
f 337/5/9 339/5/9 344/5/9
f 340/5/10 342/5/10 339/5/10
f 346/5/11 348/5/11 342/5/11
f 345/5/12 344/5/12 348/5/12
f 343/5/13 345/5/13 356/5/13
f 358/5/14 360/5/14 347/5/14
f 357/5/15 356/5/15 360/5/15
f 355/5/16 357/5/16 350/5/16
f 352/5/17 354/5/17 359/5/17
f 351/5/18 350/5/18 354/5/18
f 349/5/19 351/5/19 338/5/19
f 341/5/20 340/5/20 353/5/20
f 355/5/21 349/5/21 337/5/21
f 342/5/22 348/5/22 344/5/22
f 353/5/23 340/5/23 338/5/23
f 346/5/24 341/5/24 352/5/24
f 347/5/25 360/5/25 356/5/25
f 359/5/26 354/5/26 350/5/26
f 361/5/9 363/5/9 368/5/9
f 364/5/10 366/5/10 363/5/10
f 370/5/11 372/5/11 366/5/11
f 369/5/12 368/5/12 372/5/12
f 367/5/13 369/5/13 380/5/13
f 382/5/14 384/5/14 371/5/14
f 381/5/15 380/5/15 384/5/15
f 379/5/16 381/5/16 374/5/16
f 376/5/17 378/5/17 383/5/17
f 375/5/18 374/5/18 378/5/18
f 373/5/19 375/5/19 362/5/19
f 365/5/20 364/5/20 377/5/20
f 379/5/21 373/5/21 361/5/21
f 366/5/22 372/5/22 368/5/22
f 377/5/23 364/5/23 362/5/23
f 370/5/24 365/5/24 376/5/24
f 371/5/25 384/5/25 380/5/25
f 383/5/26 378/5/26 374/5/26
f 385/5/9 387/5/9 392/5/9
f 388/5/10 390/5/10 387/5/10
f 394/5/11 396/5/11 390/5/11
f 393/5/12 392/5/12 396/5/12
f 391/5/13 393/5/13 404/5/13
f 406/5/14 408/5/14 395/5/14
f 405/5/15 404/5/15 408/5/15
f 403/5/16 405/5/16 398/5/16
f 400/5/17 402/5/17 407/5/17
f 399/5/18 398/5/18 402/5/18
f 397/5/19 399/5/19 386/5/19
f 389/5/20 388/5/20 401/5/20
f 403/5/21 397/5/21 385/5/21
f 390/5/22 396/5/22 392/5/22
f 401/5/23 388/5/23 386/5/23
f 394/5/24 389/5/24 400/5/24
f 395/5/25 408/5/25 404/5/25
f 407/5/26 402/5/26 398/5/26
f 409/5/9 411/5/9 416/5/9
f 412/5/10 414/5/10 411/5/10
f 418/5/11 420/5/11 414/5/11
f 417/5/12 416/5/12 420/5/12
f 415/5/13 417/5/13 428/5/13
f 430/5/14 432/5/14 419/5/14
f 429/5/15 428/5/15 432/5/15
f 427/5/16 429/5/16 422/5/16
f 424/5/17 426/5/17 431/5/17
f 423/5/18 422/5/18 426/5/18
f 421/5/19 423/5/19 410/5/19
f 413/5/20 412/5/20 425/5/20
f 427/5/21 421/5/21 409/5/21
f 414/5/22 420/5/22 416/5/22
f 425/5/23 412/5/23 410/5/23
f 418/5/24 413/5/24 424/5/24
f 419/5/25 432/5/25 428/5/25
f 431/5/26 426/5/26 422/5/26
f 433/5/9 435/5/9 440/5/9
f 436/5/10 438/5/10 435/5/10
f 442/5/11 444/5/11 438/5/11
f 441/5/12 440/5/12 444/5/12
f 439/5/13 441/5/13 452/5/13
f 454/5/14 456/5/14 443/5/14
f 453/5/15 452/5/15 456/5/15
f 451/5/16 453/5/16 446/5/16
f 448/5/17 450/5/17 455/5/17
f 447/5/18 446/5/18 450/5/18
f 445/5/19 447/5/19 434/5/19
f 437/5/20 436/5/20 449/5/20
f 451/5/21 445/5/21 433/5/21
f 438/5/22 444/5/22 440/5/22
f 449/5/23 436/5/23 434/5/23
f 442/5/24 437/5/24 448/5/24
f 443/5/25 456/5/25 452/5/25
f 455/5/26 450/5/26 446/5/26
f 457/5/9 459/5/9 464/5/9
f 460/5/10 462/5/10 459/5/10
f 466/5/11 468/5/11 462/5/11
f 465/5/12 464/5/12 468/5/12
f 463/5/13 465/5/13 476/5/13
f 478/5/14 480/5/14 467/5/14
f 477/5/15 476/5/15 480/5/15
f 475/5/16 477/5/16 470/5/16
f 472/5/17 474/5/17 479/5/17
f 471/5/18 470/5/18 474/5/18
f 469/5/19 471/5/19 458/5/19
f 461/5/20 460/5/20 473/5/20
f 475/5/21 469/5/21 457/5/21
f 462/5/22 468/5/22 464/5/22
f 473/5/23 460/5/23 458/5/23
f 466/5/24 461/5/24 472/5/24
f 467/5/25 480/5/25 476/5/25
f 479/5/26 474/5/26 470/5/26
f 481/5/9 483/5/9 488/5/9
f 484/5/10 486/5/10 483/5/10
f 490/5/11 492/5/11 486/5/11
f 489/5/12 488/5/12 492/5/12
f 487/5/13 489/5/13 500/5/13
f 502/5/14 504/5/14 491/5/14
f 501/5/15 500/5/15 504/5/15
f 499/5/16 501/5/16 494/5/16
f 496/5/17 498/5/17 503/5/17
f 495/5/18 494/5/18 498/5/18
f 493/5/19 495/5/19 482/5/19
f 485/5/20 484/5/20 497/5/20
f 499/5/21 493/5/21 481/5/21
f 486/5/22 492/5/22 488/5/22
f 497/5/23 484/5/23 482/5/23
f 490/5/24 485/5/24 496/5/24
f 491/5/25 504/5/25 500/5/25
f 503/5/26 498/5/26 494/5/26
f 505/3/9 507/3/9 512/3/9
f 508/3/10 510/3/10 507/3/10
f 514/3/11 516/3/11 510/3/11
f 513/3/12 512/3/12 516/3/12
f 511/3/13 513/3/13 524/3/13
f 526/3/14 528/3/14 515/3/14
f 525/3/15 524/3/15 528/3/15
f 523/3/16 525/3/16 518/3/16
f 520/3/17 522/3/17 527/3/17
f 519/3/18 518/3/18 522/3/18
f 517/3/19 519/3/19 506/3/19
f 509/3/20 508/3/20 521/3/20
f 523/3/21 517/3/21 505/3/21
f 510/3/22 516/3/22 512/3/22
f 521/3/23 508/3/23 506/3/23
f 514/3/24 509/3/24 520/3/24
f 515/3/25 528/3/25 524/3/25
f 527/3/26 522/3/26 518/3/26
f 529/1/9 531/1/9 536/1/9
f 532/1/10 534/1/10 531/1/10
f 538/1/11 540/1/11 534/1/11
f 537/1/12 536/1/12 540/1/12
f 535/1/13 537/1/13 548/1/13
f 550/1/14 552/1/14 539/1/14
f 549/1/15 548/1/15 552/1/15
f 547/1/16 549/1/16 542/1/16
f 544/1/17 546/1/17 551/1/17
f 543/1/18 542/1/18 546/1/18
f 541/1/19 543/1/19 530/1/19
f 533/1/20 532/1/20 545/1/20
f 547/1/21 541/1/21 529/1/21
f 534/1/22 540/1/22 536/1/22
f 545/1/23 532/1/23 530/1/23
f 538/1/24 533/1/24 544/1/24
f 539/1/25 552/1/25 548/1/25
f 551/1/26 546/1/26 542/1/26
f 553/1/9 555/1/9 560/1/9
f 556/1/10 558/1/10 555/1/10
f 562/1/11 564/1/11 558/1/11
f 561/1/12 560/1/12 564/1/12
f 559/1/13 561/1/13 572/1/13
f 574/1/14 576/1/14 563/1/14
f 573/1/15 572/1/15 576/1/15
f 571/1/16 573/1/16 566/1/16
f 568/1/17 570/1/17 575/1/17
f 567/1/18 566/1/18 570/1/18
f 565/1/19 567/1/19 554/1/19
f 557/1/20 556/1/20 569/1/20
f 571/1/21 565/1/21 553/1/21
f 558/1/22 564/1/22 560/1/22
f 569/1/23 556/1/23 554/1/23
f 562/1/24 557/1/24 568/1/24
f 563/1/25 576/1/25 572/1/25
f 575/1/26 570/1/26 566/1/26
f 577/1/9 579/1/9 584/1/9
f 580/1/10 582/1/10 579/1/10
f 586/1/11 588/1/11 582/1/11
f 585/1/12 584/1/12 588/1/12
f 583/1/13 585/1/13 596/1/13
f 598/1/14 600/1/14 587/1/14
f 597/1/15 596/1/15 600/1/15
f 595/1/16 597/1/16 590/1/16
f 592/1/17 594/1/17 599/1/17
f 591/1/18 590/1/18 594/1/18
f 589/1/19 591/1/19 578/1/19
f 581/1/20 580/1/20 593/1/20
f 595/1/21 589/1/21 577/1/21
f 582/1/22 588/1/22 584/1/22
f 593/1/23 580/1/23 578/1/23
f 586/1/24 581/1/24 592/1/24
f 587/1/25 600/1/25 596/1/25
f 599/1/26 594/1/26 590/1/26
f 601/1/9 603/1/9 608/1/9
f 604/1/10 606/1/10 603/1/10
f 610/1/11 612/1/11 606/1/11
f 609/1/12 608/1/12 612/1/12
f 607/1/13 609/1/13 620/1/13
f 622/1/14 624/1/14 611/1/14
f 621/1/15 620/1/15 624/1/15
f 619/1/16 621/1/16 614/1/16
f 616/1/17 618/1/17 623/1/17
f 615/1/18 614/1/18 618/1/18
f 613/1/19 615/1/19 602/1/19
f 605/1/20 604/1/20 617/1/20
f 619/1/21 613/1/21 601/1/21
f 606/1/22 612/1/22 608/1/22
f 617/1/23 604/1/23 602/1/23
f 610/1/24 605/1/24 616/1/24
f 611/1/25 624/1/25 620/1/25
f 623/1/26 618/1/26 614/1/26
f 625/1/9 627/1/9 632/1/9
f 628/1/10 630/1/10 627/1/10
f 634/1/11 636/1/11 630/1/11
f 633/1/12 632/1/12 636/1/12
f 631/1/13 633/1/13 644/1/13
f 646/1/14 648/1/14 635/1/14
f 645/1/15 644/1/15 648/1/15
f 643/1/16 645/1/16 638/1/16
f 640/1/17 642/1/17 647/1/17
f 639/1/18 638/1/18 642/1/18
f 637/1/19 639/1/19 626/1/19
f 629/1/20 628/1/20 641/1/20
f 643/1/21 637/1/21 625/1/21
f 630/1/22 636/1/22 632/1/22
f 641/1/23 628/1/23 626/1/23
f 634/1/24 629/1/24 640/1/24
f 635/1/25 648/1/25 644/1/25
f 647/1/26 642/1/26 638/1/26
f 649/5/9 651/5/9 656/5/9
f 652/5/10 654/5/10 651/5/10
f 658/5/11 660/5/11 654/5/11
f 657/5/12 656/5/12 660/5/12
f 655/5/13 657/5/13 668/5/13
f 670/5/14 672/5/14 659/5/14
f 669/5/15 668/5/15 672/5/15
f 667/5/16 669/5/16 662/5/16
f 664/5/17 666/5/17 671/5/17
f 663/5/18 662/5/18 666/5/18
f 661/5/19 663/5/19 650/5/19
f 653/5/20 652/5/20 665/5/20
f 667/5/21 661/5/21 649/5/21
f 654/5/22 660/5/22 656/5/22
f 665/5/23 652/5/23 650/5/23
f 658/5/24 653/5/24 664/5/24
f 659/5/25 672/5/25 668/5/25
f 671/5/26 666/5/26 662/5/26
f 673/5/9 675/5/9 680/5/9
f 676/5/10 678/5/10 675/5/10
f 682/5/11 684/5/11 678/5/11
f 681/5/12 680/5/12 684/5/12
f 679/5/13 681/5/13 692/5/13
f 694/5/14 696/5/14 683/5/14
f 693/5/15 692/5/15 696/5/15
f 691/5/16 693/5/16 686/5/16
f 688/5/17 690/5/17 695/5/17
f 687/5/18 686/5/18 690/5/18
f 685/5/19 687/5/19 674/5/19
f 677/5/20 676/5/20 689/5/20
f 691/5/21 685/5/21 673/5/21
f 678/5/22 684/5/22 680/5/22
f 689/5/23 676/5/23 674/5/23
f 682/5/24 677/5/24 688/5/24
f 683/5/25 696/5/25 692/5/25
f 695/5/26 690/5/26 686/5/26
f 697/5/9 699/5/9 704/5/9
f 700/5/10 702/5/10 699/5/10
f 706/5/11 708/5/11 702/5/11
f 705/5/12 704/5/12 708/5/12
f 703/5/13 705/5/13 716/5/13
f 718/5/14 720/5/14 707/5/14
f 717/5/15 716/5/15 720/5/15
f 715/5/16 717/5/16 710/5/16
f 712/5/17 714/5/17 719/5/17
f 711/5/18 710/5/18 714/5/18
f 709/5/19 711/5/19 698/5/19
f 701/5/20 700/5/20 713/5/20
f 715/5/21 709/5/21 697/5/21
f 702/5/22 708/5/22 704/5/22
f 713/5/23 700/5/23 698/5/23
f 706/5/24 701/5/24 712/5/24
f 707/5/25 720/5/25 716/5/25
f 719/5/26 714/5/26 710/5/26
f 721/5/9 723/5/9 728/5/9
f 724/5/10 726/5/10 723/5/10
f 730/5/11 732/5/11 726/5/11
f 729/5/12 728/5/12 732/5/12
f 727/5/13 729/5/13 740/5/13
f 742/5/14 744/5/14 731/5/14
f 741/5/15 740/5/15 744/5/15
f 739/5/16 741/5/16 734/5/16
f 736/5/17 738/5/17 743/5/17
f 735/5/18 734/5/18 738/5/18
f 733/5/19 735/5/19 722/5/19
f 725/5/20 724/5/20 737/5/20
f 739/5/21 733/5/21 721/5/21
f 726/5/22 732/5/22 728/5/22
f 737/5/23 724/5/23 722/5/23
f 730/5/24 725/5/24 736/5/24
f 731/5/25 744/5/25 740/5/25
f 743/5/26 738/5/26 734/5/26
f 745/5/9 747/5/9 752/5/9
f 748/5/10 750/5/10 747/5/10
f 754/5/11 756/5/11 750/5/11
f 753/5/12 752/5/12 756/5/12
f 751/5/13 753/5/13 764/5/13
f 766/5/14 768/5/14 755/5/14
f 765/5/15 764/5/15 768/5/15
f 763/5/16 765/5/16 758/5/16
f 760/5/17 762/5/17 767/5/17
f 759/5/18 758/5/18 762/5/18
f 757/5/19 759/5/19 746/5/19
f 749/5/20 748/5/20 761/5/20
f 763/5/21 757/5/21 745/5/21
f 750/5/22 756/5/22 752/5/22
f 761/5/23 748/5/23 746/5/23
f 754/5/24 749/5/24 760/5/24
f 755/5/25 768/5/25 764/5/25
f 767/5/26 762/5/26 758/5/26
f 769/5/9 771/5/9 776/5/9
f 772/5/10 774/5/10 771/5/10
f 778/5/11 780/5/11 774/5/11
f 777/5/12 776/5/12 780/5/12
f 775/5/13 777/5/13 788/5/13
f 790/5/14 792/5/14 779/5/14
f 789/5/15 788/5/15 792/5/15
f 787/5/16 789/5/16 782/5/16
f 784/5/17 786/5/17 791/5/17
f 783/5/18 782/5/18 786/5/18
f 781/5/19 783/5/19 770/5/19
f 773/5/20 772/5/20 785/5/20
f 787/5/21 781/5/21 769/5/21
f 774/5/22 780/5/22 776/5/22
f 785/5/23 772/5/23 770/5/23
f 778/5/24 773/5/24 784/5/24
f 779/5/25 792/5/25 788/5/25
f 791/5/26 786/5/26 782/5/26
f 793/5/9 795/5/9 800/5/9
f 796/5/10 798/5/10 795/5/10
f 802/5/11 804/5/11 798/5/11
f 801/5/12 800/5/12 804/5/12
f 799/5/13 801/5/13 812/5/13
f 814/5/14 816/5/14 803/5/14
f 813/5/15 812/5/15 816/5/15
f 811/5/16 813/5/16 806/5/16
f 808/5/17 810/5/17 815/5/17
f 807/5/18 806/5/18 810/5/18
f 805/5/19 807/5/19 794/5/19
f 797/5/20 796/5/20 809/5/20
f 811/5/21 805/5/21 793/5/21
f 798/5/22 804/5/22 800/5/22
f 809/5/23 796/5/23 794/5/23
f 802/5/24 797/5/24 808/5/24
f 803/5/25 816/5/25 812/5/25
f 815/5/26 810/5/26 806/5/26
f 817/3/9 819/3/9 824/3/9
f 820/3/10 822/3/10 819/3/10
f 826/3/11 828/3/11 822/3/11
f 825/3/12 824/3/12 828/3/12
f 823/3/13 825/3/13 836/3/13
f 838/3/14 840/3/14 827/3/14
f 837/3/15 836/3/15 840/3/15
f 835/3/16 837/3/16 830/3/16
f 832/3/17 834/3/17 839/3/17
f 831/3/18 830/3/18 834/3/18
f 829/3/19 831/3/19 818/3/19
f 821/3/20 820/3/20 833/3/20
f 835/3/21 829/3/21 817/3/21
f 822/3/22 828/3/22 824/3/22
f 833/3/23 820/3/23 818/3/23
f 826/3/24 821/3/24 832/3/24
f 827/3/25 840/3/25 836/3/25
f 839/3/26 834/3/26 830/3/26
f 841/1/9 843/1/9 848/1/9
f 844/1/10 846/1/10 843/1/10
f 850/1/11 852/1/11 846/1/11
f 849/1/12 848/1/12 852/1/12
f 847/1/13 849/1/13 860/1/13
f 862/1/14 864/1/14 851/1/14
f 861/1/15 860/1/15 864/1/15
f 859/1/16 861/1/16 854/1/16
f 856/1/17 858/1/17 863/1/17
f 855/1/18 854/1/18 858/1/18
f 853/1/19 855/1/19 842/1/19
f 845/1/20 844/1/20 857/1/20
f 859/1/21 853/1/21 841/1/21
f 846/1/22 852/1/22 848/1/22
f 857/1/23 844/1/23 842/1/23
f 850/1/24 845/1/24 856/1/24
f 851/1/25 864/1/25 860/1/25
f 863/1/26 858/1/26 854/1/26
f 865/1/9 867/1/9 872/1/9
f 868/1/10 870/1/10 867/1/10
f 874/1/11 876/1/11 870/1/11
f 873/1/12 872/1/12 876/1/12
f 871/1/13 873/1/13 884/1/13
f 886/1/14 888/1/14 875/1/14
f 885/1/15 884/1/15 888/1/15
f 883/1/16 885/1/16 878/1/16
f 880/1/17 882/1/17 887/1/17
f 879/1/18 878/1/18 882/1/18
f 877/1/19 879/1/19 866/1/19
f 869/1/20 868/1/20 881/1/20
f 883/1/21 877/1/21 865/1/21
f 870/1/22 876/1/22 872/1/22
f 881/1/23 868/1/23 866/1/23
f 874/1/24 869/1/24 880/1/24
f 875/1/25 888/1/25 884/1/25
f 887/1/26 882/1/26 878/1/26
f 889/1/9 891/1/9 896/1/9
f 892/1/10 894/1/10 891/1/10
f 898/1/11 900/1/11 894/1/11
f 897/1/12 896/1/12 900/1/12
f 895/1/13 897/1/13 908/1/13
f 910/1/14 912/1/14 899/1/14
f 909/1/15 908/1/15 912/1/15
f 907/1/16 909/1/16 902/1/16
f 904/1/17 906/1/17 911/1/17
f 903/1/18 902/1/18 906/1/18
f 901/1/19 903/1/19 890/1/19
f 893/1/20 892/1/20 905/1/20
f 907/1/21 901/1/21 889/1/21
f 894/1/22 900/1/22 896/1/22
f 905/1/23 892/1/23 890/1/23
f 898/1/24 893/1/24 904/1/24
f 899/1/25 912/1/25 908/1/25
f 911/1/26 906/1/26 902/1/26
f 913/1/9 915/1/9 920/1/9
f 916/1/10 918/1/10 915/1/10
f 922/1/11 924/1/11 918/1/11
f 921/1/12 920/1/12 924/1/12
f 919/1/13 921/1/13 932/1/13
f 934/1/14 936/1/14 923/1/14
f 933/1/15 932/1/15 936/1/15
f 931/1/16 933/1/16 926/1/16
f 928/1/17 930/1/17 935/1/17
f 927/1/18 926/1/18 930/1/18
f 925/1/19 927/1/19 914/1/19
f 917/1/20 916/1/20 929/1/20
f 931/1/21 925/1/21 913/1/21
f 918/1/22 924/1/22 920/1/22
f 929/1/23 916/1/23 914/1/23
f 922/1/24 917/1/24 928/1/24
f 923/1/25 936/1/25 932/1/25
f 935/1/26 930/1/26 926/1/26
f 937/1/9 939/1/9 944/1/9
f 940/1/10 942/1/10 939/1/10
f 946/1/11 948/1/11 942/1/11
f 945/1/12 944/1/12 948/1/12
f 943/1/13 945/1/13 956/1/13
f 958/1/14 960/1/14 947/1/14
f 957/1/15 956/1/15 960/1/15
f 955/1/16 957/1/16 950/1/16
f 952/1/17 954/1/17 959/1/17
f 951/1/18 950/1/18 954/1/18
f 949/1/19 951/1/19 938/1/19
f 941/1/20 940/1/20 953/1/20
f 955/1/21 949/1/21 937/1/21
f 942/1/22 948/1/22 944/1/22
f 953/1/23 940/1/23 938/1/23
f 946/1/24 941/1/24 952/1/24
f 947/1/25 960/1/25 956/1/25
f 959/1/26 954/1/26 950/1/26
f 961/6/9 963/6/9 968/6/9
f 964/6/10 966/6/10 963/6/10
f 970/6/11 972/6/11 966/6/11
f 969/6/12 968/6/12 972/6/12
f 967/6/13 969/6/13 980/6/13
f 982/6/14 984/6/14 971/6/14
f 981/6/15 980/6/15 984/6/15
f 979/6/16 981/6/16 974/6/16
f 976/6/17 978/6/17 983/6/17
f 975/6/18 974/6/18 978/6/18
f 973/6/19 975/6/19 962/6/19
f 965/6/20 964/6/20 977/6/20
f 979/6/21 973/6/21 961/6/21
f 966/6/22 972/6/22 968/6/22
f 977/6/23 964/6/23 962/6/23
f 970/6/24 965/6/24 976/6/24
f 971/6/25 984/6/25 980/6/25
f 983/6/26 978/6/26 974/6/26
f 985/7/9 987/7/9 992/7/9
f 988/7/10 990/7/10 987/7/10
f 994/7/95 996/7/95 990/7/95
f 993/7/12 992/7/12 996/7/12
f 991/7/13 993/7/13 1004/7/13
f 1006/7/14 1008/7/14 995/7/14
f 1005/7/15 1004/7/15 1008/7/15
f 1003/7/16 1005/7/16 998/7/16
f 1000/7/96 1002/7/96 1007/7/96
f 999/7/18 998/7/18 1002/7/18
f 997/7/19 999/7/19 986/7/19
f 989/7/20 988/7/20 1001/7/20
f 1003/7/21 997/7/21 985/7/21
f 990/7/22 996/7/22 992/7/22
f 1001/7/23 988/7/23 986/7/23
f 994/7/24 989/7/24 1000/7/24
f 995/7/25 1008/7/25 1004/7/25
f 1007/7/26 1002/7/26 998/7/26
f 1009/6/9 1011/6/9 1016/6/9
f 1012/6/10 1014/6/10 1011/6/10
f 1018/6/11 1020/6/11 1014/6/11
f 1017/6/12 1016/6/12 1020/6/12
f 1015/6/13 1017/6/13 1028/6/13
f 1030/6/14 1032/6/14 1019/6/14
f 1029/6/15 1028/6/15 1032/6/15
f 1027/6/16 1029/6/16 1022/6/16
f 1024/6/17 1026/6/17 1031/6/17
f 1023/6/18 1022/6/18 1026/6/18
f 1021/6/19 1023/6/19 1010/6/19
f 1013/6/20 1012/6/20 1025/6/20
f 1027/6/21 1021/6/21 1009/6/21
f 1014/6/22 1020/6/22 1016/6/22
f 1025/6/23 1012/6/23 1010/6/23
f 1018/6/24 1013/6/24 1024/6/24
f 1019/6/25 1032/6/25 1028/6/25
f 1031/6/26 1026/6/26 1022/6/26
f 1033/7/9 1035/7/9 1040/7/9
f 1036/7/10 1038/7/10 1035/7/10
f 1042/7/95 1044/7/95 1038/7/95
f 1041/7/12 1040/7/12 1044/7/12
f 1039/7/13 1041/7/13 1052/7/13
f 1054/7/14 1056/7/14 1043/7/14
f 1053/7/15 1052/7/15 1056/7/15
f 1051/7/16 1053/7/16 1046/7/16
f 1048/7/96 1050/7/96 1055/7/96
f 1047/7/18 1046/7/18 1050/7/18
f 1045/7/19 1047/7/19 1034/7/19
f 1037/7/20 1036/7/20 1049/7/20
f 1051/7/21 1045/7/21 1033/7/21
f 1038/7/22 1044/7/22 1040/7/22
f 1049/7/23 1036/7/23 1034/7/23
f 1042/7/24 1037/7/24 1048/7/24
f 1043/7/25 1056/7/25 1052/7/25
f 1055/7/26 1050/7/26 1046/7/26
f 1058/8/79 1060/8/79 1059/8/79
f 1060/8/80 1062/8/80 1061/8/80
f 1062/8/81 1064/8/81 1063/8/81
f 1064/8/82 1066/8/82 1065/8/82
f 1066/8/83 1068/8/83 1067/8/83
f 1068/8/84 1070/8/84 1069/8/84
f 1070/8/85 1072/8/85 1071/8/85
f 1072/8/86 1074/8/86 1073/8/86
f 1074/8/87 1076/8/87 1075/8/87
f 1076/8/88 1078/8/88 1077/8/88
f 1078/8/89 1080/8/89 1079/8/89
f 1080/8/90 1082/8/90 1081/8/90
f 1082/8/91 1084/8/91 1083/8/91
f 1084/8/92 1086/8/92 1085/8/92
f 1062/8/24 1060/8/24 1058/8/24
f 1058/8/24 1088/8/24 1062/8/24
f 1088/8/24 1086/8/24 1062/8/24
f 1086/8/24 1084/8/24 1082/8/24
f 1082/8/24 1080/8/24 1078/8/24
f 1078/8/24 1076/8/24 1074/8/24
f 1074/8/24 1072/8/24 1078/8/24
f 1072/8/24 1070/8/24 1078/8/24
f 1070/8/24 1068/8/24 1066/8/24
f 1066/8/24 1064/8/24 1062/8/24
f 1086/8/24 1082/8/24 1078/8/24
f 1070/8/24 1066/8/24 1062/8/24
f 1062/8/24 1086/8/24 1078/8/24
f 1086/8/93 1088/8/93 1087/8/93
f 1088/8/94 1058/8/94 1057/8/94
f 1087/8/21 1057/8/21 1059/8/21
f 1059/8/21 1061/8/21 1063/8/21
f 1063/8/21 1065/8/21 1067/8/21
f 1067/8/21 1069/8/21 1063/8/21
f 1069/8/21 1071/8/21 1063/8/21
f 1071/8/21 1073/8/21 1075/8/21
f 1075/8/21 1077/8/21 1079/8/21
f 1079/8/21 1081/8/21 1083/8/21
f 1083/8/21 1085/8/21 1079/8/21
f 1085/8/21 1087/8/21 1079/8/21
f 1087/8/21 1059/8/21 1063/8/21
f 1071/8/21 1075/8/21 1079/8/21
f 1087/8/21 1063/8/21 1071/8/21
