# Blender 5.2.1 LTS
# www.blender.org
mtllib cliffStrata.mtl
o cliffStrata
v -0.848187 -0.500000 0.876437
v -0.848187 -0.435000 1.000000
v -0.974928 -0.435000 0.876437
v -0.848187 0.435000 1.000000
v -0.848187 0.500000 0.876437
v -0.974928 0.435000 0.876437
v -0.848187 -0.500000 -0.777406
v -0.974928 -0.435000 -0.777406
v -0.848187 -0.435000 -0.900969
v -0.848187 0.500000 -0.777406
v -0.848187 0.435000 -0.900969
v -0.974928 0.435000 -0.777406
v 0.848187 -0.500000 0.876437
v 0.974928 -0.435000 0.876437
v 0.848187 -0.435000 1.000000
v 0.848187 0.500000 0.876437
v 0.848187 0.435000 1.000000
v 0.974928 0.435000 0.876437
v 0.848187 -0.500000 -0.777406
v 0.848187 -0.435000 -0.900969
v 0.974928 -0.435000 -0.777406
v 0.848187 0.500000 -0.777406
v 0.974928 0.435000 -0.777406
v 0.848187 0.435000 -0.900969
v -0.822839 -0.342500 0.965783
v -0.822839 -0.334500 0.980990
v -0.838438 -0.334500 0.965783
v -0.822839 -0.305500 0.980990
v -0.822839 -0.297500 0.965783
v -0.838438 -0.305500 0.965783
v -0.822839 -0.342500 0.920159
v -0.838438 -0.334500 0.920159
v -0.822839 -0.334500 0.904952
v -0.822839 -0.297500 0.920159
v -0.822839 -0.305500 0.904952
v -0.838438 -0.305500 0.920159
v 0.822839 -0.342500 0.965783
v 0.838438 -0.334500 0.965783
v 0.822839 -0.334500 0.980990
v 0.822839 -0.297500 0.965783
v 0.822839 -0.305500 0.980990
v 0.838438 -0.305500 0.965783
v 0.822839 -0.342500 0.920159
v 0.822839 -0.334500 0.904952
v 0.838438 -0.334500 0.920159
v 0.822839 -0.297500 0.920159
v 0.838438 -0.305500 0.920159
v 0.822839 -0.305500 0.904952
v -0.822839 -0.042500 0.965783
v -0.822839 -0.034500 0.980990
v -0.838438 -0.034500 0.965783
v -0.822839 -0.005500 0.980990
v -0.822839 0.002500 0.965783
v -0.838438 -0.005500 0.965783
v -0.822839 -0.042500 0.920159
v -0.838438 -0.034500 0.920159
v -0.822839 -0.034500 0.904952
v -0.822839 0.002500 0.920159
v -0.822839 -0.005500 0.904952
v -0.838438 -0.005500 0.920159
v 0.822839 -0.042500 0.965783
v 0.838438 -0.034500 0.965783
v 0.822839 -0.034500 0.980990
v 0.822839 0.002500 0.965783
v 0.822839 -0.005500 0.980990
v 0.838438 -0.005500 0.965783
v 0.822839 -0.042500 0.920159
v 0.822839 -0.034500 0.904952
v 0.838438 -0.034500 0.920159
v 0.822839 0.002500 0.920159
v 0.838438 -0.005500 0.920159
v 0.822839 -0.005500 0.904952
v -0.822839 0.257500 0.965783
v -0.822839 0.265500 0.980990
v -0.838438 0.265500 0.965783
v -0.822839 0.294500 0.980990
v -0.822839 0.302500 0.965783
v -0.838438 0.294500 0.965783
v -0.822839 0.257500 0.920159
v -0.838438 0.265500 0.920159
v -0.822839 0.265500 0.904952
v -0.822839 0.302500 0.920159
v -0.822839 0.294500 0.904952
v -0.838438 0.294500 0.920159
v 0.822839 0.257500 0.965783
v 0.838438 0.265500 0.965783
v 0.822839 0.265500 0.980990
v 0.822839 0.302500 0.965783
v 0.822839 0.294500 0.980990
v 0.838438 0.294500 0.965783
v 0.822839 0.257500 0.920159
v 0.822839 0.265500 0.904952
v 0.838438 0.265500 0.920159
v 0.822839 0.302500 0.920159
v 0.838438 0.294500 0.920159
v 0.822839 0.294500 0.904952
vn -0.4133 -0.8059 0.4239
vn -0.4133 0.8059 0.4239
vn -0.4133 -0.8059 -0.4239
vn -0.4133 0.8059 -0.4239
vn 0.4133 -0.8059 0.4239
vn 0.4133 0.8059 0.4239
vn 0.4133 -0.8059 -0.4239
vn 0.4133 0.8059 -0.4239
vn -0.4563 -0.8898 -0.0000
vn -0.6981 -0.0000 0.7160
vn -0.4563 0.8898 -0.0000
vn -0.6981 -0.0000 -0.7160
vn -0.0000 -0.8850 -0.4656
vn -0.0000 0.8850 -0.4656
vn 0.6981 -0.0000 -0.7160
vn 0.4563 -0.8898 -0.0000
vn 0.4563 0.8898 -0.0000
vn 0.6981 -0.0000 0.7160
vn -0.0000 -0.8850 0.4656
vn -0.0000 0.8850 0.4656
vn -0.0000 -1.0000 -0.0000
vn -1.0000 -0.0000 -0.0000
vn -0.0000 -0.0000 1.0000
vn -0.0000 1.0000 -0.0000
vn -0.0000 -0.0000 -1.0000
vn 1.0000 -0.0000 -0.0000
vt 0.125000 0.625000
vt 0.625000 0.125000
s 0
usemtl WorldPickupPalette
f 1/1/1 2/1/1 3/1/1
f 4/1/2 5/1/2 6/1/2
f 7/1/3 8/1/3 9/1/3
f 10/1/4 11/1/4 12/1/4
f 13/1/5 14/1/5 15/1/5
f 16/1/6 17/1/6 18/1/6
f 19/1/7 20/1/7 21/1/7
f 22/1/8 23/1/8 24/1/8
f 1/1/9 8/1/9 7/1/9
f 4/1/10 3/1/10 2/1/10
f 10/1/11 6/1/11 5/1/11
f 9/1/12 12/1/12 11/1/12
f 7/1/13 20/1/13 19/1/13
f 22/1/14 11/1/14 10/1/14
f 21/1/15 24/1/15 23/1/15
f 19/1/16 14/1/16 13/1/16
f 16/1/17 23/1/17 22/1/17
f 15/1/18 18/1/18 17/1/18
f 13/1/19 2/1/19 1/1/19
f 5/1/20 17/1/20 16/1/20
f 19/1/21 1/1/21 7/1/21
f 6/1/22 8/1/22 3/1/22
f 17/1/23 2/1/23 15/1/23
f 10/1/24 16/1/24 22/1/24
f 11/1/25 20/1/25 9/1/25
f 23/1/26 14/1/26 21/1/26
f 25/2/1 26/2/1 27/2/1
f 28/2/2 29/2/2 30/2/2
f 31/2/3 32/2/3 33/2/3
f 34/2/4 35/2/4 36/2/4
f 37/2/5 38/2/5 39/2/5
f 40/2/6 41/2/6 42/2/6
f 43/2/7 44/2/7 45/2/7
f 46/2/8 47/2/8 48/2/8
f 25/2/9 32/2/9 31/2/9
f 28/2/10 27/2/10 26/2/10
f 34/2/11 30/2/11 29/2/11
f 33/2/12 36/2/12 35/2/12
f 31/2/13 44/2/13 43/2/13
f 46/2/14 35/2/14 34/2/14
f 45/2/15 48/2/15 47/2/15
f 43/2/16 38/2/16 37/2/16
f 40/2/17 47/2/17 46/2/17
f 39/2/18 42/2/18 41/2/18
f 37/2/19 26/2/19 25/2/19
f 29/2/20 41/2/20 40/2/20
f 43/2/21 25/2/21 31/2/21
f 30/2/22 32/2/22 27/2/22
f 41/2/23 26/2/23 39/2/23
f 34/2/24 40/2/24 46/2/24
f 35/2/25 44/2/25 33/2/25
f 47/2/26 38/2/26 45/2/26
f 49/2/1 50/2/1 51/2/1
f 52/2/2 53/2/2 54/2/2
f 55/2/3 56/2/3 57/2/3
f 58/2/4 59/2/4 60/2/4
f 61/2/5 62/2/5 63/2/5
f 64/2/6 65/2/6 66/2/6
f 67/2/7 68/2/7 69/2/7
f 70/2/8 71/2/8 72/2/8
f 49/2/9 56/2/9 55/2/9
f 52/2/10 51/2/10 50/2/10
f 58/2/11 54/2/11 53/2/11
f 57/2/12 60/2/12 59/2/12
f 55/2/13 68/2/13 67/2/13
f 70/2/14 59/2/14 58/2/14
f 69/2/15 72/2/15 71/2/15
f 67/2/16 62/2/16 61/2/16
f 64/2/17 71/2/17 70/2/17
f 63/2/18 66/2/18 65/2/18
f 61/2/19 50/2/19 49/2/19
f 53/2/20 65/2/20 64/2/20
f 67/2/21 49/2/21 55/2/21
f 54/2/22 56/2/22 51/2/22
f 65/2/23 50/2/23 63/2/23
f 58/2/24 64/2/24 70/2/24
f 59/2/25 68/2/25 57/2/25
f 71/2/26 62/2/26 69/2/26
f 73/2/1 74/2/1 75/2/1
f 76/2/2 77/2/2 78/2/2
f 79/2/3 80/2/3 81/2/3
f 82/2/4 83/2/4 84/2/4
f 85/2/5 86/2/5 87/2/5
f 88/2/6 89/2/6 90/2/6
f 91/2/7 92/2/7 93/2/7
f 94/2/8 95/2/8 96/2/8
f 73/2/9 80/2/9 79/2/9
f 76/2/10 75/2/10 74/2/10
f 82/2/11 78/2/11 77/2/11
f 81/2/12 84/2/12 83/2/12
f 79/2/13 92/2/13 91/2/13
f 94/2/14 83/2/14 82/2/14
f 93/2/15 96/2/15 95/2/15
f 91/2/16 86/2/16 85/2/16
f 88/2/17 95/2/17 94/2/17
f 87/2/18 90/2/18 89/2/18
f 85/2/19 74/2/19 73/2/19
f 77/2/20 89/2/20 88/2/20
f 91/2/21 73/2/21 79/2/21
f 78/2/22 80/2/22 75/2/22
f 89/2/23 74/2/23 87/2/23
f 82/2/24 88/2/24 94/2/24
f 83/2/25 92/2/25 81/2/25
f 95/2/26 86/2/26 93/2/26
f 1/1/9 3/1/9 8/1/9
f 4/1/10 6/1/10 3/1/10
f 10/1/11 12/1/11 6/1/11
f 9/1/12 8/1/12 12/1/12
f 7/1/13 9/1/13 20/1/13
f 22/1/14 24/1/14 11/1/14
f 21/1/15 20/1/15 24/1/15
f 19/1/16 21/1/16 14/1/16
f 16/1/17 18/1/17 23/1/17
f 15/1/18 14/1/18 18/1/18
f 13/1/19 15/1/19 2/1/19
f 5/1/20 4/1/20 17/1/20
f 19/1/21 13/1/21 1/1/21
f 6/1/22 12/1/22 8/1/22
f 17/1/23 4/1/23 2/1/23
f 10/1/24 5/1/24 16/1/24
f 11/1/25 24/1/25 20/1/25
f 23/1/26 18/1/26 14/1/26
f 25/2/9 27/2/9 32/2/9
f 28/2/10 30/2/10 27/2/10
f 34/2/11 36/2/11 30/2/11
f 33/2/12 32/2/12 36/2/12
f 31/2/13 33/2/13 44/2/13
f 46/2/14 48/2/14 35/2/14
f 45/2/15 44/2/15 48/2/15
f 43/2/16 45/2/16 38/2/16
f 40/2/17 42/2/17 47/2/17
f 39/2/18 38/2/18 42/2/18
f 37/2/19 39/2/19 26/2/19
f 29/2/20 28/2/20 41/2/20
f 43/2/21 37/2/21 25/2/21
f 30/2/22 36/2/22 32/2/22
f 41/2/23 28/2/23 26/2/23
f 34/2/24 29/2/24 40/2/24
f 35/2/25 48/2/25 44/2/25
f 47/2/26 42/2/26 38/2/26
f 49/2/9 51/2/9 56/2/9
f 52/2/10 54/2/10 51/2/10
f 58/2/11 60/2/11 54/2/11
f 57/2/12 56/2/12 60/2/12
f 55/2/13 57/2/13 68/2/13
f 70/2/14 72/2/14 59/2/14
f 69/2/15 68/2/15 72/2/15
f 67/2/16 69/2/16 62/2/16
f 64/2/17 66/2/17 71/2/17
f 63/2/18 62/2/18 66/2/18
f 61/2/19 63/2/19 50/2/19
f 53/2/20 52/2/20 65/2/20
f 67/2/21 61/2/21 49/2/21
f 54/2/22 60/2/22 56/2/22
f 65/2/23 52/2/23 50/2/23
f 58/2/24 53/2/24 64/2/24
f 59/2/25 72/2/25 68/2/25
f 71/2/26 66/2/26 62/2/26
f 73/2/9 75/2/9 80/2/9
f 76/2/10 78/2/10 75/2/10
f 82/2/11 84/2/11 78/2/11
f 81/2/12 80/2/12 84/2/12
f 79/2/13 81/2/13 92/2/13
f 94/2/14 96/2/14 83/2/14
f 93/2/15 92/2/15 96/2/15
f 91/2/16 93/2/16 86/2/16
f 88/2/17 90/2/17 95/2/17
f 87/2/18 86/2/18 90/2/18
f 85/2/19 87/2/19 74/2/19
f 77/2/20 76/2/20 89/2/20
f 91/2/21 85/2/21 73/2/21
f 78/2/22 84/2/22 80/2/22
f 89/2/23 76/2/23 74/2/23
f 82/2/24 77/2/24 88/2/24
f 83/2/25 96/2/25 92/2/25
f 95/2/26 90/2/26 86/2/26
