# Blender 5.2.1 LTS
# www.blender.org
mtllib crateInstances.mtl
o crateInstances
v -0.312883 -0.360000 0.298297
v -0.312883 -0.338824 0.317224
v -0.331288 -0.338824 0.298297
v -0.312883 0.296471 0.317224
v -0.312883 0.317647 0.298297
v -0.331288 0.296471 0.298297
v -0.312883 -0.360000 -0.307382
v -0.331288 -0.338824 -0.307382
v -0.312883 -0.338824 -0.326309
v -0.312883 0.317647 -0.307382
v -0.312883 0.296471 -0.326309
v -0.331288 0.296471 -0.307382
v 0.312883 -0.360000 0.298297
v 0.331288 -0.338824 0.298297
v 0.312883 -0.338824 0.317224
v 0.312883 0.317647 0.298297
v 0.312883 0.296471 0.317224
v 0.331288 0.296471 0.298297
v 0.312883 -0.360000 -0.307382
v 0.312883 -0.338824 -0.326309
v 0.331288 -0.338824 -0.307382
v 0.312883 0.317647 -0.307382
v 0.331288 0.296471 -0.307382
v 0.312883 0.296471 -0.326309
v -0.229325 -0.360000 -0.322524
v -0.229325 -0.352376 -0.315710
v -0.235951 -0.352376 -0.322524
v -0.229325 0.310024 -0.315710
v -0.229325 0.317647 -0.322524
v -0.235951 0.310024 -0.322524
v -0.229325 -0.360000 -0.342965
v -0.235951 -0.352376 -0.342965
v -0.229325 -0.352376 -0.349779
v -0.229325 0.317647 -0.342965
v -0.229325 0.310024 -0.349779
v -0.235951 0.310024 -0.342965
v -0.194724 -0.360000 -0.322524
v -0.188098 -0.352376 -0.322524
v -0.194724 -0.352376 -0.315710
v -0.194724 0.317647 -0.322524
v -0.194724 0.310024 -0.315710
v -0.188098 0.310024 -0.322524
v -0.194724 -0.360000 -0.342965
v -0.194724 -0.352376 -0.349779
v -0.188098 -0.352376 -0.342965
v -0.194724 0.317647 -0.342965
v -0.188098 0.310024 -0.342965
v -0.194724 0.310024 -0.349779
v 0.194724 -0.360000 -0.322524
v 0.194724 -0.352376 -0.315710
v 0.188098 -0.352376 -0.322524
v 0.194724 0.310024 -0.315710
v 0.194724 0.317647 -0.322524
v 0.188098 0.310024 -0.322524
v 0.194724 -0.360000 -0.342965
v 0.188098 -0.352376 -0.342965
v 0.194724 -0.352376 -0.349779
v 0.194724 0.317647 -0.342965
v 0.194724 0.310024 -0.349779
v 0.188098 0.310024 -0.342965
v 0.229325 -0.360000 -0.322524
v 0.235951 -0.352376 -0.322524
v 0.229325 -0.352376 -0.315710
v 0.229325 0.317647 -0.322524
v 0.229325 0.310024 -0.315710
v 0.235951 0.310024 -0.322524
v 0.229325 -0.360000 -0.342965
v 0.229325 -0.352376 -0.349779
v 0.235951 -0.352376 -0.342965
v 0.229325 0.317647 -0.342965
v 0.235951 0.310024 -0.342965
v 0.229325 0.310024 -0.349779
v -0.323190 -0.321882 -0.326688
v -0.323190 -0.312565 -0.318360
v -0.331288 -0.312565 -0.326688
v -0.323190 -0.271906 -0.318360
v -0.323190 -0.262588 -0.326688
v -0.331288 -0.271906 -0.326688
v -0.323190 -0.321882 -0.351672
v -0.331288 -0.312565 -0.351672
v -0.323190 -0.312565 -0.360000
v -0.323190 -0.262588 -0.351672
v -0.323190 -0.271906 -0.360000
v -0.331288 -0.271906 -0.351672
v 0.323190 -0.321882 -0.326688
v 0.331288 -0.312565 -0.326688
v 0.323190 -0.312565 -0.318360
v 0.323190 -0.262588 -0.326688
v 0.323190 -0.271906 -0.318360
v 0.331288 -0.271906 -0.326688
v 0.323190 -0.321882 -0.351672
v 0.323190 -0.312565 -0.360000
v 0.331288 -0.312565 -0.351672
v 0.323190 -0.262588 -0.351672
v 0.331288 -0.271906 -0.351672
v 0.323190 -0.271906 -0.360000
v -0.323190 0.220235 -0.326688
v -0.323190 0.229553 -0.318360
v -0.331288 0.229553 -0.326688
v -0.323190 0.270212 -0.318360
v -0.323190 0.279529 -0.326688
v -0.331288 0.270212 -0.326688
v -0.323190 0.220235 -0.351672
v -0.331288 0.229553 -0.351672
v -0.323190 0.229553 -0.360000
v -0.323190 0.279529 -0.351672
v -0.323190 0.270212 -0.360000
v -0.331288 0.270212 -0.351672
v 0.323190 0.220235 -0.326688
v 0.331288 0.229553 -0.326688
v 0.323190 0.229553 -0.318360
v 0.323190 0.279529 -0.326688
v 0.323190 0.270212 -0.318360
v 0.331288 0.270212 -0.326688
v 0.323190 0.220235 -0.351672
v 0.323190 0.229553 -0.360000
v 0.331288 0.229553 -0.351672
v 0.323190 0.279529 -0.351672
v 0.331288 0.270212 -0.351672
v 0.323190 0.270212 -0.360000
v -0.351166 -0.005929 0.131167
v -0.351166 0.004235 0.140252
v -0.360000 0.004235 0.131167
v -0.351166 0.034729 0.140252
v -0.351166 0.044894 0.131167
v -0.360000 0.034729 0.131167
v -0.351166 -0.005929 -0.140252
v -0.360000 0.004235 -0.140252
v -0.351166 0.004235 -0.149338
v -0.351166 0.044894 -0.140252
v -0.351166 0.034729 -0.149338
v -0.360000 0.034729 -0.140252
v -0.324663 -0.005929 0.131167
v -0.315828 0.004235 0.131167
v -0.324663 0.004235 0.140252
v -0.324663 0.044894 0.131167
v -0.324663 0.034729 0.140252
v -0.315828 0.034729 0.131167
v -0.324663 -0.005929 -0.140252
v -0.324663 0.004235 -0.149338
v -0.315828 0.004235 -0.140252
v -0.324663 0.044894 -0.140252
v -0.315828 0.034729 -0.140252
v -0.324663 0.034729 -0.149338
v -0.229325 -0.360000 0.333880
v -0.229325 -0.352376 0.340694
v -0.235951 -0.352376 0.333880
v -0.229325 0.310024 0.340694
v -0.229325 0.317647 0.333880
v -0.235951 0.310024 0.333880
v -0.229325 -0.360000 0.313438
v -0.235951 -0.352376 0.313438
v -0.229325 -0.352376 0.306625
v -0.229325 0.317647 0.313438
v -0.229325 0.310024 0.306625
v -0.235951 0.310024 0.313438
v -0.194724 -0.360000 0.333880
v -0.188098 -0.352376 0.333880
v -0.194724 -0.352376 0.340694
v -0.194724 0.317647 0.333880
v -0.194724 0.310024 0.340694
v -0.188098 0.310024 0.333880
v -0.194724 -0.360000 0.313438
v -0.194724 -0.352376 0.306625
v -0.188098 -0.352376 0.313438
v -0.194724 0.317647 0.313438
v -0.188098 0.310024 0.313438
v -0.194724 0.310024 0.306625
v 0.194724 -0.360000 0.333880
v 0.194724 -0.352376 0.340694
v 0.188098 -0.352376 0.333880
v 0.194724 0.310024 0.340694
v 0.194724 0.317647 0.333880
v 0.188098 0.310024 0.333880
v 0.194724 -0.360000 0.313438
v 0.188098 -0.352376 0.313438
v 0.194724 -0.352376 0.306625
v 0.194724 0.317647 0.313438
v 0.194724 0.310024 0.306625
v 0.188098 0.310024 0.313438
v 0.229325 -0.360000 0.333880
v 0.235951 -0.352376 0.333880
v 0.229325 -0.352376 0.340694
v 0.229325 0.317647 0.333880
v 0.229325 0.310024 0.340694
v 0.235951 0.310024 0.333880
v 0.229325 -0.360000 0.313438
v 0.229325 -0.352376 0.306625
v 0.235951 -0.352376 0.313438
v 0.229325 0.317647 0.313438
v 0.235951 0.310024 0.313438
v 0.229325 0.310024 0.306625
v -0.323190 -0.321882 0.342587
v -0.323190 -0.312565 0.350915
v -0.331288 -0.312565 0.342587
v -0.323190 -0.271906 0.350915
v -0.323190 -0.262588 0.342587
v -0.331288 -0.271906 0.342587
v -0.323190 -0.321882 0.317603
v -0.331288 -0.312565 0.317603
v -0.323190 -0.312565 0.309274
v -0.323190 -0.262588 0.317603
v -0.323190 -0.271906 0.309274
v -0.331288 -0.271906 0.317603
v 0.323190 -0.321882 0.342587
v 0.331288 -0.312565 0.342587
v 0.323190 -0.312565 0.350915
v 0.323190 -0.262588 0.342587
v 0.323190 -0.271906 0.350915
v 0.331288 -0.271906 0.342587
v 0.323190 -0.321882 0.317603
v 0.323190 -0.312565 0.309274
v 0.331288 -0.312565 0.317603
v 0.323190 -0.262588 0.317603
v 0.331288 -0.271906 0.317603
v 0.323190 -0.271906 0.309274
v -0.323190 0.220235 0.342587
v -0.323190 0.229553 0.350915
v -0.331288 0.229553 0.342587
v -0.323190 0.270212 0.350915
v -0.323190 0.279529 0.342587
v -0.331288 0.270212 0.342587
v -0.323190 0.220235 0.317603
v -0.331288 0.229553 0.317603
v -0.323190 0.229553 0.309274
v -0.323190 0.279529 0.317603
v -0.323190 0.270212 0.309274
v -0.331288 0.270212 0.317603
v 0.323190 0.220235 0.342587
v 0.331288 0.229553 0.342587
v 0.323190 0.229553 0.350915
v 0.323190 0.279529 0.342587
v 0.323190 0.270212 0.350915
v 0.331288 0.270212 0.342587
v 0.323190 0.220235 0.317603
v 0.323190 0.229553 0.309274
v 0.331288 0.229553 0.317603
v 0.323190 0.279529 0.317603
v 0.331288 0.270212 0.317603
v 0.323190 0.270212 0.309274
v 0.324663 -0.005929 0.131167
v 0.324663 0.004235 0.140252
v 0.315828 0.004235 0.131167
v 0.324663 0.034729 0.140252
v 0.324663 0.044894 0.131167
v 0.315828 0.034729 0.131167
v 0.324663 -0.005929 -0.140252
v 0.315828 0.004235 -0.140252
v 0.324663 0.004235 -0.149338
v 0.324663 0.044894 -0.140252
v 0.324663 0.034729 -0.149338
v 0.315828 0.034729 -0.140252
v 0.351166 -0.005929 0.131167
v 0.360000 0.004235 0.131167
v 0.351166 0.004235 0.140252
v 0.351166 0.044894 0.131167
v 0.351166 0.034729 0.140252
v 0.360000 0.034729 0.131167
v 0.351166 -0.005929 -0.140252
v 0.351166 0.004235 -0.149338
v 0.360000 0.004235 -0.140252
v 0.351166 0.044894 -0.140252
v 0.360000 0.034729 -0.140252
v 0.351166 0.034729 -0.149338
v -0.228589 0.317647 0.309653
v -0.228589 0.326118 0.317224
v -0.235951 0.326118 0.309653
v -0.228589 0.351529 0.317224
v -0.228589 0.360000 0.309653
v -0.235951 0.351529 0.309653
v -0.228589 0.317647 -0.318738
v -0.235951 0.326118 -0.318738
v -0.228589 0.326118 -0.326309
v -0.228589 0.360000 -0.318738
v -0.228589 0.351529 -0.326309
v -0.235951 0.351529 -0.318738
v -0.195460 0.317647 0.309653
v -0.188098 0.326118 0.309653
v -0.195460 0.326118 0.317224
v -0.195460 0.360000 0.309653
v -0.195460 0.351529 0.317224
v -0.188098 0.351529 0.309653
v -0.195460 0.317647 -0.318738
v -0.195460 0.326118 -0.326309
v -0.188098 0.326118 -0.318738
v -0.195460 0.360000 -0.318738
v -0.188098 0.351529 -0.318738
v -0.195460 0.351529 -0.326309
v 0.195460 0.317647 0.309653
v 0.195460 0.326118 0.317224
v 0.188098 0.326118 0.309653
v 0.195460 0.351529 0.317224
v 0.195460 0.360000 0.309653
v 0.188098 0.351529 0.309653
v 0.195460 0.317647 -0.318738
v 0.188098 0.326118 -0.318738
v 0.195460 0.326118 -0.326309
v 0.195460 0.360000 -0.318738
v 0.195460 0.351529 -0.326309
v 0.188098 0.351529 -0.318738
v 0.228589 0.317647 0.309653
v 0.235951 0.326118 0.309653
v 0.228589 0.326118 0.317224
v 0.228589 0.360000 0.309653
v 0.228589 0.351529 0.317224
v 0.235951 0.351529 0.309653
v 0.228589 0.317647 -0.318738
v 0.228589 0.326118 -0.326309
v 0.235951 0.326118 -0.318738
v 0.228589 0.360000 -0.318738
v 0.235951 0.351529 -0.318738
v 0.228589 0.351529 -0.326309
v -0.085693 -0.046588 0.340618
v -0.085693 -0.043539 0.343344
v -0.088344 -0.043539 0.340618
v -0.085693 0.068951 0.343344
v -0.085693 0.072000 0.340618
v -0.088344 0.068951 0.340618
v -0.085693 -0.046588 0.332442
v -0.088344 -0.043539 0.332442
v -0.085693 -0.043539 0.329716
v -0.085693 0.072000 0.332442
v -0.085693 0.068951 0.329716
v -0.088344 0.068951 0.332442
v 0.085693 -0.046588 0.340618
v 0.088344 -0.043539 0.340618
v 0.085693 -0.043539 0.343344
v 0.085693 0.072000 0.340618
v 0.085693 0.068951 0.343344
v 0.088344 0.068951 0.340618
v 0.085693 -0.046588 0.332442
v 0.085693 -0.043539 0.329716
v 0.088344 -0.043539 0.332442
v 0.085693 0.072000 0.332442
v 0.088344 0.068951 0.332442
v 0.085693 0.068951 0.329716
v -0.265031 -0.163482 0.338801
v -0.265031 -0.163482 0.360000
v -0.244629 -0.177035 0.338801
v -0.244629 -0.177035 0.360000
v -0.244629 -0.204141 0.338801
v -0.244629 -0.204141 0.360000
v -0.265031 -0.217694 0.338801
v -0.265031 -0.217694 0.360000
v -0.285433 -0.204141 0.338801
v -0.285433 -0.204141 0.360000
v -0.285433 -0.177035 0.338801
v -0.285433 -0.177035 0.360000
v -0.265031 0.243106 0.338801
v -0.265031 0.243106 0.360000
v -0.244629 0.229553 0.338801
v -0.244629 0.229553 0.360000
v -0.244629 0.202447 0.338801
v -0.244629 0.202447 0.360000
v -0.265031 0.188894 0.338801
v -0.265031 0.188894 0.360000
v -0.285433 0.202447 0.338801
v -0.285433 0.202447 0.360000
v -0.285433 0.229553 0.338801
v -0.285433 0.229553 0.360000
v 0.265031 -0.163482 0.338801
v 0.265031 -0.163482 0.360000
v 0.285433 -0.177035 0.338801
v 0.285433 -0.177035 0.360000
v 0.285433 -0.204141 0.338801
v 0.285433 -0.204141 0.360000
v 0.265031 -0.217694 0.338801
v 0.265031 -0.217694 0.360000
v 0.244629 -0.204141 0.338801
v 0.244629 -0.204141 0.360000
v 0.244629 -0.177035 0.338801
v 0.244629 -0.177035 0.360000
v 0.265031 0.243106 0.338801
v 0.265031 0.243106 0.360000
v 0.285433 0.229553 0.338801
v 0.285433 0.229553 0.360000
v 0.285433 0.202447 0.338801
v 0.285433 0.202447 0.360000
v 0.265031 0.188894 0.338801
v 0.265031 0.188894 0.360000
v 0.244629 0.202447 0.338801
v 0.244629 0.202447 0.360000
v 0.244629 0.229553 0.338801
v 0.244629 0.229553 0.360000
vn -0.6085 -0.5288 0.5917
vn -0.6085 0.5288 0.5917
vn -0.6085 -0.5288 -0.5917
vn -0.6085 0.5288 -0.5917
vn 0.6085 -0.5288 0.5917
vn 0.6085 0.5288 0.5917
vn 0.6085 -0.5288 -0.5917
vn 0.6085 0.5288 -0.5917
vn -0.7548 -0.6560 -0.0000
vn -0.7169 -0.0000 0.6971
vn -0.7548 0.6560 -0.0000
vn -0.7169 -0.0000 -0.6971
vn -0.0000 -0.6664 -0.7456
vn -0.0000 0.6664 -0.7456
vn 0.7169 -0.0000 -0.6971
vn 0.7548 -0.6560 -0.0000
vn 0.7548 0.6560 -0.0000
vn 0.7169 -0.0000 0.6971
vn -0.0000 -0.6664 0.7456
vn -0.0000 0.6664 0.7456
vn -0.0000 -1.0000 -0.0000
vn -1.0000 -0.0000 -0.0000
vn -0.0000 -0.0000 1.0000
vn -0.0000 1.0000 -0.0000
vn -0.0000 -0.0000 -1.0000
vn 1.0000 -0.0000 -0.0000
vn 0.5533 0.8330 -0.0000
vn 0.5533 -0.8330 -0.0000
vn -0.5533 -0.8330 -0.0000
vn -0.5533 0.8330 -0.0000
vt 0.125000 0.875000
vt 0.125000 0.625000
vt 0.375000 0.125000
vt 0.875000 0.125000
vt 0.375000 0.875000
s 0
usemtl WorldPickupPalette
f 1/1/1 2/1/1 3/1/1
f 4/1/2 5/1/2 6/1/2
f 7/1/3 8/1/3 9/1/3
f 10/1/4 11/1/4 12/1/4
f 13/1/5 14/1/5 15/1/5
f 16/1/6 17/1/6 18/1/6
f 19/1/7 20/1/7 21/1/7
f 22/1/8 23/1/8 24/1/8
f 1/1/9 8/1/9 7/1/9
f 4/1/10 3/1/10 2/1/10
f 10/1/11 6/1/11 5/1/11
f 9/1/12 12/1/12 11/1/12
f 7/1/13 20/1/13 19/1/13
f 22/1/14 11/1/14 10/1/14
f 21/1/15 24/1/15 23/1/15
f 19/1/16 14/1/16 13/1/16
f 16/1/17 23/1/17 22/1/17
f 15/1/18 18/1/18 17/1/18
f 13/1/19 2/1/19 1/1/19
f 5/1/20 17/1/20 16/1/20
f 19/1/21 1/1/21 7/1/21
f 6/1/22 8/1/22 3/1/22
f 17/1/23 2/1/23 15/1/23
f 10/1/24 16/1/24 22/1/24
f 11/1/25 20/1/25 9/1/25
f 23/1/26 14/1/26 21/1/26
f 25/2/1 26/2/1 27/2/1
f 28/2/2 29/2/2 30/2/2
f 31/2/3 32/2/3 33/2/3
f 34/2/4 35/2/4 36/2/4
f 37/2/5 38/2/5 39/2/5
f 40/2/6 41/2/6 42/2/6
f 43/2/7 44/2/7 45/2/7
f 46/2/8 47/2/8 48/2/8
f 25/2/9 32/2/9 31/2/9
f 28/2/10 27/2/10 26/2/10
f 34/2/11 30/2/11 29/2/11
f 33/2/12 36/2/12 35/2/12
f 31/2/13 44/2/13 43/2/13
f 46/2/14 35/2/14 34/2/14
f 45/2/15 48/2/15 47/2/15
f 43/2/16 38/2/16 37/2/16
f 40/2/17 47/2/17 46/2/17
f 39/2/18 42/2/18 41/2/18
f 37/2/19 26/2/19 25/2/19
f 29/2/20 41/2/20 40/2/20
f 43/2/21 25/2/21 31/2/21
f 30/2/22 32/2/22 27/2/22
f 41/2/23 26/2/23 39/2/23
f 34/2/24 40/2/24 46/2/24
f 35/2/25 44/2/25 33/2/25
f 47/2/26 38/2/26 45/2/26
f 49/2/1 50/2/1 51/2/1
f 52/2/2 53/2/2 54/2/2
f 55/2/3 56/2/3 57/2/3
f 58/2/4 59/2/4 60/2/4
f 61/2/5 62/2/5 63/2/5
f 64/2/6 65/2/6 66/2/6
f 67/2/7 68/2/7 69/2/7
f 70/2/8 71/2/8 72/2/8
f 49/2/9 56/2/9 55/2/9
f 52/2/10 51/2/10 50/2/10
f 58/2/11 54/2/11 53/2/11
f 57/2/12 60/2/12 59/2/12
f 55/2/13 68/2/13 67/2/13
f 70/2/14 59/2/14 58/2/14
f 69/2/15 72/2/15 71/2/15
f 67/2/16 62/2/16 61/2/16
f 64/2/17 71/2/17 70/2/17
f 63/2/18 66/2/18 65/2/18
f 61/2/19 50/2/19 49/2/19
f 53/2/20 65/2/20 64/2/20
f 67/2/21 49/2/21 55/2/21
f 54/2/22 56/2/22 51/2/22
f 65/2/23 50/2/23 63/2/23
f 58/2/24 64/2/24 70/2/24
f 59/2/25 68/2/25 57/2/25
f 71/2/26 62/2/26 69/2/26
f 73/3/1 74/3/1 75/3/1
f 76/3/2 77/3/2 78/3/2
f 79/3/3 80/3/3 81/3/3
f 82/3/4 83/3/4 84/3/4
f 85/3/5 86/3/5 87/3/5
f 88/3/6 89/3/6 90/3/6
f 91/3/7 92/3/7 93/3/7
f 94/3/8 95/3/8 96/3/8
f 73/3/9 80/3/9 79/3/9
f 76/3/10 75/3/10 74/3/10
f 82/3/11 78/3/11 77/3/11
f 81/3/12 84/3/12 83/3/12
f 79/3/13 92/3/13 91/3/13
f 94/3/14 83/3/14 82/3/14
f 93/3/15 96/3/15 95/3/15
f 91/3/16 86/3/16 85/3/16
f 88/3/17 95/3/17 94/3/17
f 87/3/18 90/3/18 89/3/18
f 85/3/19 74/3/19 73/3/19
f 77/3/20 89/3/20 88/3/20
f 91/3/21 73/3/21 79/3/21
f 78/3/22 80/3/22 75/3/22
f 89/3/23 74/3/23 87/3/23
f 82/3/24 88/3/24 94/3/24
f 83/3/25 92/3/25 81/3/25
f 95/3/26 86/3/26 93/3/26
f 97/3/1 98/3/1 99/3/1
f 100/3/2 101/3/2 102/3/2
f 103/3/3 104/3/3 105/3/3
f 106/3/4 107/3/4 108/3/4
f 109/3/5 110/3/5 111/3/5
f 112/3/6 113/3/6 114/3/6
f 115/3/7 116/3/7 117/3/7
f 118/3/8 119/3/8 120/3/8
f 97/3/9 104/3/9 103/3/9
f 100/3/10 99/3/10 98/3/10
f 106/3/11 102/3/11 101/3/11
f 105/3/12 108/3/12 107/3/12
f 103/3/13 116/3/13 115/3/13
f 118/3/14 107/3/14 106/3/14
f 117/3/15 120/3/15 119/3/15
f 115/3/16 110/3/16 109/3/16
f 112/3/17 119/3/17 118/3/17
f 111/3/18 114/3/18 113/3/18
f 109/3/19 98/3/19 97/3/19
f 101/3/20 113/3/20 112/3/20
f 115/3/21 97/3/21 103/3/21
f 102/3/22 104/3/22 99/3/22
f 113/3/23 98/3/23 111/3/23
f 106/3/24 112/3/24 118/3/24
f 107/3/25 116/3/25 105/3/25
f 119/3/26 110/3/26 117/3/26
f 121/4/1 122/4/1 123/4/1
f 124/4/2 125/4/2 126/4/2
f 127/4/3 128/4/3 129/4/3
f 130/4/4 131/4/4 132/4/4
f 133/4/5 134/4/5 135/4/5
f 136/4/6 137/4/6 138/4/6
f 139/4/7 140/4/7 141/4/7
f 142/4/8 143/4/8 144/4/8
f 121/4/9 128/4/9 127/4/9
f 124/4/10 123/4/10 122/4/10
f 130/4/11 126/4/11 125/4/11
f 129/4/12 132/4/12 131/4/12
f 127/4/13 140/4/13 139/4/13
f 142/4/14 131/4/14 130/4/14
f 141/4/15 144/4/15 143/4/15
f 139/4/16 134/4/16 133/4/16
f 136/4/17 143/4/17 142/4/17
f 135/4/18 138/4/18 137/4/18
f 133/4/19 122/4/19 121/4/19
f 125/4/20 137/4/20 136/4/20
f 139/4/21 121/4/21 127/4/21
f 126/4/22 128/4/22 123/4/22
f 137/4/23 122/4/23 135/4/23
f 130/4/24 136/4/24 142/4/24
f 131/4/25 140/4/25 129/4/25
f 143/4/26 134/4/26 141/4/26
f 145/2/1 146/2/1 147/2/1
f 148/2/2 149/2/2 150/2/2
f 151/2/3 152/2/3 153/2/3
f 154/2/4 155/2/4 156/2/4
f 157/2/5 158/2/5 159/2/5
f 160/2/6 161/2/6 162/2/6
f 163/2/7 164/2/7 165/2/7
f 166/2/8 167/2/8 168/2/8
f 145/2/9 152/2/9 151/2/9
f 148/2/10 147/2/10 146/2/10
f 154/2/11 150/2/11 149/2/11
f 153/2/12 156/2/12 155/2/12
f 151/2/13 164/2/13 163/2/13
f 166/2/14 155/2/14 154/2/14
f 165/2/15 168/2/15 167/2/15
f 163/2/16 158/2/16 157/2/16
f 160/2/17 167/2/17 166/2/17
f 159/2/18 162/2/18 161/2/18
f 157/2/19 146/2/19 145/2/19
f 149/2/20 161/2/20 160/2/20
f 163/2/21 145/2/21 151/2/21
f 150/2/22 152/2/22 147/2/22
f 161/2/23 146/2/23 159/2/23
f 154/2/24 160/2/24 166/2/24
f 155/2/25 164/2/25 153/2/25
f 167/2/26 158/2/26 165/2/26
f 169/2/1 170/2/1 171/2/1
f 172/2/2 173/2/2 174/2/2
f 175/2/3 176/2/3 177/2/3
f 178/2/4 179/2/4 180/2/4
f 181/2/5 182/2/5 183/2/5
f 184/2/6 185/2/6 186/2/6
f 187/2/7 188/2/7 189/2/7
f 190/2/8 191/2/8 192/2/8
f 169/2/9 176/2/9 175/2/9
f 172/2/10 171/2/10 170/2/10
f 178/2/11 174/2/11 173/2/11
f 177/2/12 180/2/12 179/2/12
f 175/2/13 188/2/13 187/2/13
f 190/2/14 179/2/14 178/2/14
f 189/2/15 192/2/15 191/2/15
f 187/2/16 182/2/16 181/2/16
f 184/2/17 191/2/17 190/2/17
f 183/2/18 186/2/18 185/2/18
f 181/2/19 170/2/19 169/2/19
f 173/2/20 185/2/20 184/2/20
f 187/2/21 169/2/21 175/2/21
f 174/2/22 176/2/22 171/2/22
f 185/2/23 170/2/23 183/2/23
f 178/2/24 184/2/24 190/2/24
f 179/2/25 188/2/25 177/2/25
f 191/2/26 182/2/26 189/2/26
f 193/3/1 194/3/1 195/3/1
f 196/3/2 197/3/2 198/3/2
f 199/3/3 200/3/3 201/3/3
f 202/3/4 203/3/4 204/3/4
f 205/3/5 206/3/5 207/3/5
f 208/3/6 209/3/6 210/3/6
f 211/3/7 212/3/7 213/3/7
f 214/3/8 215/3/8 216/3/8
f 193/3/9 200/3/9 199/3/9
f 196/3/10 195/3/10 194/3/10
f 202/3/11 198/3/11 197/3/11
f 201/3/12 204/3/12 203/3/12
f 199/3/13 212/3/13 211/3/13
f 214/3/14 203/3/14 202/3/14
f 213/3/15 216/3/15 215/3/15
f 211/3/16 206/3/16 205/3/16
f 208/3/17 215/3/17 214/3/17
f 207/3/18 210/3/18 209/3/18
f 205/3/19 194/3/19 193/3/19
f 197/3/20 209/3/20 208/3/20
f 211/3/21 193/3/21 199/3/21
f 198/3/22 200/3/22 195/3/22
f 209/3/23 194/3/23 207/3/23
f 202/3/24 208/3/24 214/3/24
f 203/3/25 212/3/25 201/3/25
f 215/3/26 206/3/26 213/3/26
f 217/3/1 218/3/1 219/3/1
f 220/3/2 221/3/2 222/3/2
f 223/3/3 224/3/3 225/3/3
f 226/3/4 227/3/4 228/3/4
f 229/3/5 230/3/5 231/3/5
f 232/3/6 233/3/6 234/3/6
f 235/3/7 236/3/7 237/3/7
f 238/3/8 239/3/8 240/3/8
f 217/3/9 224/3/9 223/3/9
f 220/3/10 219/3/10 218/3/10
f 226/3/11 222/3/11 221/3/11
f 225/3/12 228/3/12 227/3/12
f 223/3/13 236/3/13 235/3/13
f 238/3/14 227/3/14 226/3/14
f 237/3/15 240/3/15 239/3/15
f 235/3/16 230/3/16 229/3/16
f 232/3/17 239/3/17 238/3/17
f 231/3/18 234/3/18 233/3/18
f 229/3/19 218/3/19 217/3/19
f 221/3/20 233/3/20 232/3/20
f 235/3/21 217/3/21 223/3/21
f 222/3/22 224/3/22 219/3/22
f 233/3/23 218/3/23 231/3/23
f 226/3/24 232/3/24 238/3/24
f 227/3/25 236/3/25 225/3/25
f 239/3/26 230/3/26 237/3/26
f 241/4/1 242/4/1 243/4/1
f 244/4/2 245/4/2 246/4/2
f 247/4/3 248/4/3 249/4/3
f 250/4/4 251/4/4 252/4/4
f 253/4/5 254/4/5 255/4/5
f 256/4/6 257/4/6 258/4/6
f 259/4/7 260/4/7 261/4/7
f 262/4/8 263/4/8 264/4/8
f 241/4/9 248/4/9 247/4/9
f 244/4/10 243/4/10 242/4/10
f 250/4/11 246/4/11 245/4/11
f 249/4/12 252/4/12 251/4/12
f 247/4/13 260/4/13 259/4/13
f 262/4/14 251/4/14 250/4/14
f 261/4/15 264/4/15 263/4/15
f 259/4/16 254/4/16 253/4/16
f 256/4/17 263/4/17 262/4/17
f 255/4/18 258/4/18 257/4/18
f 253/4/19 242/4/19 241/4/19
f 245/4/20 257/4/20 256/4/20
f 259/4/21 241/4/21 247/4/21
f 246/4/22 248/4/22 243/4/22
f 257/4/23 242/4/23 255/4/23
f 250/4/24 256/4/24 262/4/24
f 251/4/25 260/4/25 249/4/25
f 263/4/26 254/4/26 261/4/26
f 265/2/1 266/2/1 267/2/1
f 268/2/2 269/2/2 270/2/2
f 271/2/3 272/2/3 273/2/3
f 274/2/4 275/2/4 276/2/4
f 277/2/5 278/2/5 279/2/5
f 280/2/6 281/2/6 282/2/6
f 283/2/7 284/2/7 285/2/7
f 286/2/8 287/2/8 288/2/8
f 265/2/9 272/2/9 271/2/9
f 268/2/10 267/2/10 266/2/10
f 274/2/11 270/2/11 269/2/11
f 273/2/12 276/2/12 275/2/12
f 271/2/13 284/2/13 283/2/13
f 286/2/14 275/2/14 274/2/14
f 285/2/15 288/2/15 287/2/15
f 283/2/16 278/2/16 277/2/16
f 280/2/17 287/2/17 286/2/17
f 279/2/18 282/2/18 281/2/18
f 277/2/19 266/2/19 265/2/19
f 269/2/20 281/2/20 280/2/20
f 283/2/21 265/2/21 271/2/21
f 270/2/22 272/2/22 267/2/22
f 281/2/23 266/2/23 279/2/23
f 274/2/24 280/2/24 286/2/24
f 275/2/25 284/2/25 273/2/25
f 287/2/26 278/2/26 285/2/26
f 289/2/1 290/2/1 291/2/1
f 292/2/2 293/2/2 294/2/2
f 295/2/3 296/2/3 297/2/3
f 298/2/4 299/2/4 300/2/4
f 301/2/5 302/2/5 303/2/5
f 304/2/6 305/2/6 306/2/6
f 307/2/7 308/2/7 309/2/7
f 310/2/8 311/2/8 312/2/8
f 289/2/9 296/2/9 295/2/9
f 292/2/10 291/2/10 290/2/10
f 298/2/11 294/2/11 293/2/11
f 297/2/12 300/2/12 299/2/12
f 295/2/13 308/2/13 307/2/13
f 310/2/14 299/2/14 298/2/14
f 309/2/15 312/2/15 311/2/15
f 307/2/16 302/2/16 301/2/16
f 304/2/17 311/2/17 310/2/17
f 303/2/18 306/2/18 305/2/18
f 301/2/19 290/2/19 289/2/19
f 293/2/20 305/2/20 304/2/20
f 307/2/21 289/2/21 295/2/21
f 294/2/22 296/2/22 291/2/22
f 305/2/23 290/2/23 303/2/23
f 298/2/24 304/2/24 310/2/24
f 299/2/25 308/2/25 297/2/25
f 311/2/26 302/2/26 309/2/26
f 313/5/1 314/5/1 315/5/1
f 316/5/2 317/5/2 318/5/2
f 319/5/3 320/5/3 321/5/3
f 322/5/4 323/5/4 324/5/4
f 325/5/5 326/5/5 327/5/5
f 328/5/6 329/5/6 330/5/6
f 331/5/7 332/5/7 333/5/7
f 334/5/8 335/5/8 336/5/8
f 313/5/9 320/5/9 319/5/9
f 316/5/10 315/5/10 314/5/10
f 322/5/11 318/5/11 317/5/11
f 321/5/12 324/5/12 323/5/12
f 319/5/13 332/5/13 331/5/13
f 334/5/14 323/5/14 322/5/14
f 333/5/15 336/5/15 335/5/15
f 331/5/16 326/5/16 325/5/16
f 328/5/17 335/5/17 334/5/17
f 327/5/18 330/5/18 329/5/18
f 325/5/19 314/5/19 313/5/19
f 317/5/20 329/5/20 328/5/20
f 331/5/21 313/5/21 319/5/21
f 318/5/22 320/5/22 315/5/22
f 329/5/23 314/5/23 327/5/23
f 322/5/24 328/5/24 334/5/24
f 323/5/25 332/5/25 321/5/25
f 335/5/26 326/5/26 333/5/26
f 338/2/27 339/2/27 337/2/27
f 340/2/26 341/2/26 339/2/26
f 342/2/28 343/2/28 341/2/28
f 344/2/29 345/2/29 343/2/29
f 346/2/23 344/2/23 342/2/23
f 346/2/22 347/2/22 345/2/22
f 348/2/30 337/2/30 347/2/30
f 345/2/25 347/2/25 339/2/25
f 350/2/27 351/2/27 349/2/27
f 352/2/26 353/2/26 351/2/26
f 354/2/28 355/2/28 353/2/28
f 356/2/29 357/2/29 355/2/29
f 358/2/23 356/2/23 354/2/23
f 358/2/22 359/2/22 357/2/22
f 360/2/30 349/2/30 359/2/30
f 357/2/25 359/2/25 351/2/25
f 362/2/27 363/2/27 361/2/27
f 364/2/26 365/2/26 363/2/26
f 366/2/28 367/2/28 365/2/28
f 368/2/29 369/2/29 367/2/29
f 370/2/23 368/2/23 366/2/23
f 370/2/22 371/2/22 369/2/22
f 372/2/30 361/2/30 371/2/30
f 369/2/25 371/2/25 363/2/25
f 374/2/27 375/2/27 373/2/27
f 376/2/26 377/2/26 375/2/26
f 378/2/28 379/2/28 377/2/28
f 380/2/29 381/2/29 379/2/29
f 382/2/23 380/2/23 378/2/23
f 382/2/22 383/2/22 381/2/22
f 384/2/30 373/2/30 383/2/30
f 381/2/25 383/2/25 375/2/25
f 1/1/9 3/1/9 8/1/9
f 4/1/10 6/1/10 3/1/10
f 10/1/11 12/1/11 6/1/11
f 9/1/12 8/1/12 12/1/12
f 7/1/13 9/1/13 20/1/13
f 22/1/14 24/1/14 11/1/14
f 21/1/15 20/1/15 24/1/15
f 19/1/16 21/1/16 14/1/16
f 16/1/17 18/1/17 23/1/17
f 15/1/18 14/1/18 18/1/18
f 13/1/19 15/1/19 2/1/19
f 5/1/20 4/1/20 17/1/20
f 19/1/21 13/1/21 1/1/21
f 6/1/22 12/1/22 8/1/22
f 17/1/23 4/1/23 2/1/23
f 10/1/24 5/1/24 16/1/24
f 11/1/25 24/1/25 20/1/25
f 23/1/26 18/1/26 14/1/26
f 25/2/9 27/2/9 32/2/9
f 28/2/10 30/2/10 27/2/10
f 34/2/11 36/2/11 30/2/11
f 33/2/12 32/2/12 36/2/12
f 31/2/13 33/2/13 44/2/13
f 46/2/14 48/2/14 35/2/14
f 45/2/15 44/2/15 48/2/15
f 43/2/16 45/2/16 38/2/16
f 40/2/17 42/2/17 47/2/17
f 39/2/18 38/2/18 42/2/18
f 37/2/19 39/2/19 26/2/19
f 29/2/20 28/2/20 41/2/20
f 43/2/21 37/2/21 25/2/21
f 30/2/22 36/2/22 32/2/22
f 41/2/23 28/2/23 26/2/23
f 34/2/24 29/2/24 40/2/24
f 35/2/25 48/2/25 44/2/25
f 47/2/26 42/2/26 38/2/26
f 49/2/9 51/2/9 56/2/9
f 52/2/10 54/2/10 51/2/10
f 58/2/11 60/2/11 54/2/11
f 57/2/12 56/2/12 60/2/12
f 55/2/13 57/2/13 68/2/13
f 70/2/14 72/2/14 59/2/14
f 69/2/15 68/2/15 72/2/15
f 67/2/16 69/2/16 62/2/16
f 64/2/17 66/2/17 71/2/17
f 63/2/18 62/2/18 66/2/18
f 61/2/19 63/2/19 50/2/19
f 53/2/20 52/2/20 65/2/20
f 67/2/21 61/2/21 49/2/21
f 54/2/22 60/2/22 56/2/22
f 65/2/23 52/2/23 50/2/23
f 58/2/24 53/2/24 64/2/24
f 59/2/25 72/2/25 68/2/25
f 71/2/26 66/2/26 62/2/26
f 73/3/9 75/3/9 80/3/9
f 76/3/10 78/3/10 75/3/10
f 82/3/11 84/3/11 78/3/11
f 81/3/12 80/3/12 84/3/12
f 79/3/13 81/3/13 92/3/13
f 94/3/14 96/3/14 83/3/14
f 93/3/15 92/3/15 96/3/15
f 91/3/16 93/3/16 86/3/16
f 88/3/17 90/3/17 95/3/17
f 87/3/18 86/3/18 90/3/18
f 85/3/19 87/3/19 74/3/19
f 77/3/20 76/3/20 89/3/20
f 91/3/21 85/3/21 73/3/21
f 78/3/22 84/3/22 80/3/22
f 89/3/23 76/3/23 74/3/23
f 82/3/24 77/3/24 88/3/24
f 83/3/25 96/3/25 92/3/25
f 95/3/26 90/3/26 86/3/26
f 97/3/9 99/3/9 104/3/9
f 100/3/10 102/3/10 99/3/10
f 106/3/11 108/3/11 102/3/11
f 105/3/12 104/3/12 108/3/12
f 103/3/13 105/3/13 116/3/13
f 118/3/14 120/3/14 107/3/14
f 117/3/15 116/3/15 120/3/15
f 115/3/16 117/3/16 110/3/16
f 112/3/17 114/3/17 119/3/17
f 111/3/18 110/3/18 114/3/18
f 109/3/19 111/3/19 98/3/19
f 101/3/20 100/3/20 113/3/20
f 115/3/21 109/3/21 97/3/21
f 102/3/22 108/3/22 104/3/22
f 113/3/23 100/3/23 98/3/23
f 106/3/24 101/3/24 112/3/24
f 107/3/25 120/3/25 116/3/25
f 119/3/26 114/3/26 110/3/26
f 121/4/9 123/4/9 128/4/9
f 124/4/10 126/4/10 123/4/10
f 130/4/11 132/4/11 126/4/11
f 129/4/12 128/4/12 132/4/12
f 127/4/13 129/4/13 140/4/13
f 142/4/14 144/4/14 131/4/14
f 141/4/15 140/4/15 144/4/15
f 139/4/16 141/4/16 134/4/16
f 136/4/17 138/4/17 143/4/17
f 135/4/18 134/4/18 138/4/18
f 133/4/19 135/4/19 122/4/19
f 125/4/20 124/4/20 137/4/20
f 139/4/21 133/4/21 121/4/21
f 126/4/22 132/4/22 128/4/22
f 137/4/23 124/4/23 122/4/23
f 130/4/24 125/4/24 136/4/24
f 131/4/25 144/4/25 140/4/25
f 143/4/26 138/4/26 134/4/26
f 145/2/9 147/2/9 152/2/9
f 148/2/10 150/2/10 147/2/10
f 154/2/11 156/2/11 150/2/11
f 153/2/12 152/2/12 156/2/12
f 151/2/13 153/2/13 164/2/13
f 166/2/14 168/2/14 155/2/14
f 165/2/15 164/2/15 168/2/15
f 163/2/16 165/2/16 158/2/16
f 160/2/17 162/2/17 167/2/17
f 159/2/18 158/2/18 162/2/18
f 157/2/19 159/2/19 146/2/19
f 149/2/20 148/2/20 161/2/20
f 163/2/21 157/2/21 145/2/21
f 150/2/22 156/2/22 152/2/22
f 161/2/23 148/2/23 146/2/23
f 154/2/24 149/2/24 160/2/24
f 155/2/25 168/2/25 164/2/25
f 167/2/26 162/2/26 158/2/26
f 169/2/9 171/2/9 176/2/9
f 172/2/10 174/2/10 171/2/10
f 178/2/11 180/2/11 174/2/11
f 177/2/12 176/2/12 180/2/12
f 175/2/13 177/2/13 188/2/13
f 190/2/14 192/2/14 179/2/14
f 189/2/15 188/2/15 192/2/15
f 187/2/16 189/2/16 182/2/16
f 184/2/17 186/2/17 191/2/17
f 183/2/18 182/2/18 186/2/18
f 181/2/19 183/2/19 170/2/19
f 173/2/20 172/2/20 185/2/20
f 187/2/21 181/2/21 169/2/21
f 174/2/22 180/2/22 176/2/22
f 185/2/23 172/2/23 170/2/23
f 178/2/24 173/2/24 184/2/24
f 179/2/25 192/2/25 188/2/25
f 191/2/26 186/2/26 182/2/26
f 193/3/9 195/3/9 200/3/9
f 196/3/10 198/3/10 195/3/10
f 202/3/11 204/3/11 198/3/11
f 201/3/12 200/3/12 204/3/12
f 199/3/13 201/3/13 212/3/13
f 214/3/14 216/3/14 203/3/14
f 213/3/15 212/3/15 216/3/15
f 211/3/16 213/3/16 206/3/16
f 208/3/17 210/3/17 215/3/17
f 207/3/18 206/3/18 210/3/18
f 205/3/19 207/3/19 194/3/19
f 197/3/20 196/3/20 209/3/20
f 211/3/21 205/3/21 193/3/21
f 198/3/22 204/3/22 200/3/22
f 209/3/23 196/3/23 194/3/23
f 202/3/24 197/3/24 208/3/24
f 203/3/25 216/3/25 212/3/25
f 215/3/26 210/3/26 206/3/26
f 217/3/9 219/3/9 224/3/9
f 220/3/10 222/3/10 219/3/10
f 226/3/11 228/3/11 222/3/11
f 225/3/12 224/3/12 228/3/12
f 223/3/13 225/3/13 236/3/13
f 238/3/14 240/3/14 227/3/14
f 237/3/15 236/3/15 240/3/15
f 235/3/16 237/3/16 230/3/16
f 232/3/17 234/3/17 239/3/17
f 231/3/18 230/3/18 234/3/18
f 229/3/19 231/3/19 218/3/19
f 221/3/20 220/3/20 233/3/20
f 235/3/21 229/3/21 217/3/21
f 222/3/22 228/3/22 224/3/22
f 233/3/23 220/3/23 218/3/23
f 226/3/24 221/3/24 232/3/24
f 227/3/25 240/3/25 236/3/25
f 239/3/26 234/3/26 230/3/26
f 241/4/9 243/4/9 248/4/9
f 244/4/10 246/4/10 243/4/10
f 250/4/11 252/4/11 246/4/11
f 249/4/12 248/4/12 252/4/12
f 247/4/13 249/4/13 260/4/13
f 262/4/14 264/4/14 251/4/14
f 261/4/15 260/4/15 264/4/15
f 259/4/16 261/4/16 254/4/16
f 256/4/17 258/4/17 263/4/17
f 255/4/18 254/4/18 258/4/18
f 253/4/19 255/4/19 242/4/19
f 245/4/20 244/4/20 257/4/20
f 259/4/21 253/4/21 241/4/21
f 246/4/22 252/4/22 248/4/22
f 257/4/23 244/4/23 242/4/23
f 250/4/24 245/4/24 256/4/24
f 251/4/25 264/4/25 260/4/25
f 263/4/26 258/4/26 254/4/26
f 265/2/9 267/2/9 272/2/9
f 268/2/10 270/2/10 267/2/10
f 274/2/11 276/2/11 270/2/11
f 273/2/12 272/2/12 276/2/12
f 271/2/13 273/2/13 284/2/13
f 286/2/14 288/2/14 275/2/14
f 285/2/15 284/2/15 288/2/15
f 283/2/16 285/2/16 278/2/16
f 280/2/17 282/2/17 287/2/17
f 279/2/18 278/2/18 282/2/18
f 277/2/19 279/2/19 266/2/19
f 269/2/20 268/2/20 281/2/20
f 283/2/21 277/2/21 265/2/21
f 270/2/22 276/2/22 272/2/22
f 281/2/23 268/2/23 266/2/23
f 274/2/24 269/2/24 280/2/24
f 275/2/25 288/2/25 284/2/25
f 287/2/26 282/2/26 278/2/26
f 289/2/9 291/2/9 296/2/9
f 292/2/10 294/2/10 291/2/10
f 298/2/11 300/2/11 294/2/11
f 297/2/12 296/2/12 300/2/12
f 295/2/13 297/2/13 308/2/13
f 310/2/14 312/2/14 299/2/14
f 309/2/15 308/2/15 312/2/15
f 307/2/16 309/2/16 302/2/16
f 304/2/17 306/2/17 311/2/17
f 303/2/18 302/2/18 306/2/18
f 301/2/19 303/2/19 290/2/19
f 293/2/20 292/2/20 305/2/20
f 307/2/21 301/2/21 289/2/21
f 294/2/22 300/2/22 296/2/22
f 305/2/23 292/2/23 290/2/23
f 298/2/24 293/2/24 304/2/24
f 299/2/25 312/2/25 308/2/25
f 311/2/26 306/2/26 302/2/26
f 313/5/9 315/5/9 320/5/9
f 316/5/10 318/5/10 315/5/10
f 322/5/11 324/5/11 318/5/11
f 321/5/12 320/5/12 324/5/12
f 319/5/13 321/5/13 332/5/13
f 334/5/14 336/5/14 323/5/14
f 333/5/15 332/5/15 336/5/15
f 331/5/16 333/5/16 326/5/16
f 328/5/17 330/5/17 335/5/17
f 327/5/18 326/5/18 330/5/18
f 325/5/19 327/5/19 314/5/19
f 317/5/20 316/5/20 329/5/20
f 331/5/21 325/5/21 313/5/21
f 318/5/22 324/5/22 320/5/22
f 329/5/23 316/5/23 314/5/23
f 322/5/24 317/5/24 328/5/24
f 323/5/25 336/5/25 332/5/25
f 335/5/26 330/5/26 326/5/26
f 338/2/27 340/2/27 339/2/27
f 340/2/26 342/2/26 341/2/26
f 342/2/28 344/2/28 343/2/28
f 344/2/29 346/2/29 345/2/29
f 342/2/23 340/2/23 346/2/23
f 340/2/23 338/2/23 348/2/23
f 346/2/23 340/2/23 348/2/23
f 346/2/22 348/2/22 347/2/22
f 348/2/30 338/2/30 337/2/30
f 347/2/25 337/2/25 339/2/25
f 339/2/25 341/2/25 345/2/25
f 341/2/25 343/2/25 345/2/25
f 350/2/27 352/2/27 351/2/27
f 352/2/26 354/2/26 353/2/26
f 354/2/28 356/2/28 355/2/28
f 356/2/29 358/2/29 357/2/29
f 354/2/23 352/2/23 358/2/23
f 352/2/23 350/2/23 360/2/23
f 358/2/23 352/2/23 360/2/23
f 358/2/22 360/2/22 359/2/22
f 360/2/30 350/2/30 349/2/30
f 359/2/25 349/2/25 351/2/25
f 351/2/25 353/2/25 357/2/25
f 353/2/25 355/2/25 357/2/25
f 362/2/27 364/2/27 363/2/27
f 364/2/26 366/2/26 365/2/26
f 366/2/28 368/2/28 367/2/28
f 368/2/29 370/2/29 369/2/29
f 366/2/23 364/2/23 372/2/23
f 364/2/23 362/2/23 372/2/23
f 372/2/23 370/2/23 366/2/23
f 370/2/22 372/2/22 371/2/22
f 372/2/30 362/2/30 361/2/30
f 371/2/25 361/2/25 363/2/25
f 363/2/25 365/2/25 369/2/25
f 365/2/25 367/2/25 369/2/25
f 374/2/27 376/2/27 375/2/27
f 376/2/26 378/2/26 377/2/26
f 378/2/28 380/2/28 379/2/28
f 380/2/29 382/2/29 381/2/29
f 378/2/23 376/2/23 384/2/23
f 376/2/23 374/2/23 384/2/23
f 384/2/23 382/2/23 378/2/23
f 382/2/22 384/2/22 383/2/22
f 384/2/30 374/2/30 373/2/30
f 383/2/25 373/2/25 375/2/25
f 375/2/25 377/2/25 381/2/25
f 377/2/25 379/2/25 381/2/25
