# Blender 5.2.1 LTS
# www.blender.org
mtllib deadBrushInstances.mtl
o deadBrushInstances
v 0.000000 0.005045 -0.014126
v 0.000000 0.425045 0.135874
v 0.010607 0.003567 -0.009989
v 0.010607 0.423567 0.140011
v 0.015000 0.000000 0.000000
v 0.015000 0.420000 0.150000
v 0.010607 -0.003567 0.009989
v 0.010607 0.416433 0.159989
v 0.000000 -0.005045 0.014126
v 0.000000 0.414955 0.164126
v -0.010607 -0.003567 0.009989
v -0.010607 0.416433 0.159989
v -0.015000 0.000000 0.000000
v -0.015000 0.420000 0.150000
v -0.010607 0.003567 -0.009989
v -0.010607 0.423567 0.140011
v 0.001552 0.424149 0.141034
v 0.151552 0.584149 0.241034
v 0.006522 0.418533 0.142563
v 0.156522 0.578533 0.242563
v 0.007672 0.413777 0.148448
v 0.157672 0.573777 0.248448
v 0.004328 0.412666 0.155242
v 0.154328 0.572666 0.255242
v -0.001552 0.415851 0.158966
v 0.148448 0.575851 0.258966
v -0.006522 0.421467 0.157437
v 0.143478 0.581467 0.257437
v -0.007672 0.426223 0.151552
v 0.142328 0.586223 0.251552
v -0.004328 0.427334 0.144758
v 0.145672 0.587334 0.244758
v 0.002058 0.415382 0.141372
v -0.147942 0.535382 0.041372
v 0.006343 0.421633 0.142444
v -0.143657 0.541633 0.042444
v 0.006913 0.426926 0.147942
v -0.143087 0.546926 0.047942
v 0.003433 0.428163 0.154646
v -0.146567 0.548163 0.054646
v -0.002058 0.424618 0.158628
v -0.152058 0.544618 0.058628
v -0.006343 0.418367 0.157556
v -0.156343 0.538367 0.057556
v -0.006913 0.413074 0.152058
v -0.156913 0.533074 0.052058
v -0.003433 0.411837 0.145354
v -0.153433 0.531837 0.045354
v -0.001096 -0.005762 -0.013806
v 0.222050 0.534238 -0.256922
v 0.009120 -0.007815 -0.008987
v 0.232266 0.532185 -0.252104
v 0.013994 -0.005289 0.001096
v 0.237140 0.534711 -0.242021
v 0.010670 0.000335 0.010537
v 0.233816 0.540335 -0.232580
v 0.001096 0.005762 0.013806
v 0.224242 0.545762 -0.229311
v -0.009120 0.007815 0.008987
v 0.214026 0.547815 -0.234130
v -0.013994 0.005289 -0.001096
v 0.209152 0.545289 -0.244213
v -0.010670 -0.000335 -0.010537
v 0.212476 0.539665 -0.253654
v 0.224698 0.544149 -0.252082
v 0.374698 0.704149 -0.152082
v 0.229669 0.538533 -0.250554
v 0.379669 0.698533 -0.150554
v 0.230818 0.533777 -0.244669
v 0.380818 0.693777 -0.144669
v 0.227474 0.532666 -0.237875
v 0.377474 0.692666 -0.137875
v 0.221594 0.535851 -0.234151
v 0.371594 0.695851 -0.134151
v 0.216624 0.541467 -0.235680
v 0.366624 0.701467 -0.135680
v 0.215474 0.546223 -0.241565
v 0.365474 0.706223 -0.141565
v 0.218818 0.547334 -0.248359
v 0.368818 0.707334 -0.148359
v 0.225204 0.535382 -0.251745
v 0.075204 0.655382 -0.351745
v 0.229490 0.541633 -0.250673
v 0.079490 0.661633 -0.350673
v 0.230059 0.546926 -0.245175
v 0.080059 0.666926 -0.345175
v 0.226579 0.548163 -0.238471
v 0.076579 0.668163 -0.338471
v 0.221088 0.544618 -0.234489
v 0.071088 0.664618 -0.334489
v 0.216803 0.538367 -0.235561
v 0.066803 0.658368 -0.335561
v 0.216233 0.533074 -0.241059
v 0.066233 0.653074 -0.341059
v 0.219713 0.531837 -0.247763
v 0.069713 0.651837 -0.347763
v -0.000267 0.000784 -0.014977
v -0.508399 0.660784 0.028631
v 0.008220 0.007016 -0.010402
v -0.499912 0.667016 0.033206
v 0.011892 0.009138 0.000267
v -0.496240 0.669138 0.043875
v 0.008598 0.005907 0.010779
v -0.499535 0.665907 0.054387
v 0.000267 -0.000784 0.014977
v -0.507865 0.659216 0.058585
v -0.008220 -0.007016 0.010402
v -0.516353 0.652984 0.054010
v -0.011892 -0.009138 -0.000267
v -0.520024 0.650862 0.043342
v -0.008598 -0.005907 -0.010779
v -0.516730 0.654093 0.032829
v -0.506580 0.664149 0.034643
v -0.356580 0.824149 0.134643
v -0.501610 0.658533 0.036171
v -0.351610 0.818533 0.136171
v -0.500460 0.653777 0.042057
v -0.350460 0.813777 0.142057
v -0.503804 0.652666 0.048851
v -0.353804 0.812666 0.148851
v -0.509684 0.655851 0.052574
v -0.359684 0.815851 0.152574
v -0.514655 0.661467 0.051045
v -0.364655 0.821467 0.151045
v -0.515805 0.666223 0.045160
v -0.365805 0.826223 0.145160
v -0.512460 0.667334 0.038366
v -0.362460 0.827334 0.138366
v -0.506074 0.655382 0.034980
v -0.656074 0.775382 -0.065020
v -0.501789 0.661633 0.036052
v -0.651789 0.781632 -0.063948
v -0.501219 0.666926 0.041550
v -0.651219 0.786926 -0.058450
v -0.504699 0.668163 0.048254
v -0.654699 0.788163 -0.051746
v -0.510190 0.664618 0.052236
v -0.660190 0.784617 -0.047764
v -0.514476 0.658367 0.051164
v -0.664476 0.778367 -0.048836
v -0.515045 0.653074 0.045666
v -0.665045 0.773074 -0.054334
v -0.511565 0.651837 0.038963
v -0.661565 0.771837 -0.061037
v 0.000131 0.001730 -0.014899
v 0.118906 0.781730 0.076710
v 0.010579 -0.000363 -0.010628
v 0.129355 0.779637 0.080982
v 0.014831 -0.002243 -0.000131
v 0.133607 0.777757 0.091479
v 0.010395 -0.002809 0.010443
v 0.129171 0.777191 0.102053
v -0.000131 -0.001730 0.014899
v 0.118645 0.778270 0.106509
v -0.010579 0.000363 0.010628
v 0.108197 0.780363 0.102237
v -0.014831 0.002243 0.000131
v 0.103945 0.782243 0.091740
v -0.010395 0.002809 -0.010443
v 0.108381 0.782809 0.081166
v 0.120328 0.784149 0.082644
v 0.270328 0.944149 0.182644
v 0.125298 0.778533 0.084173
v 0.275298 0.938533 0.184173
v 0.126448 0.773777 0.090058
v 0.276448 0.933777 0.190058
v 0.123104 0.772666 0.096852
v 0.273104 0.932666 0.196852
v 0.117224 0.775851 0.100575
v 0.267224 0.935851 0.200575
v 0.112253 0.781467 0.099046
v 0.262253 0.941467 0.199046
v 0.111103 0.786223 0.093161
v 0.261103 0.946223 0.193161
v 0.114448 0.787334 0.086367
v 0.264448 0.947334 0.186367
v 0.120834 0.775382 0.082981
v -0.029166 0.895382 -0.017019
v 0.125119 0.781632 0.084053
v -0.024881 0.901632 -0.015947
v 0.125689 0.786926 0.089551
v -0.024311 0.906926 -0.010449
v 0.122209 0.788163 0.096255
v -0.027791 0.908163 -0.003745
v 0.116718 0.784617 0.100237
v -0.033282 0.904617 0.000237
v 0.112432 0.778367 0.099166
v -0.037568 0.898367 -0.000834
v 0.111863 0.773074 0.093667
v -0.038137 0.893073 -0.006333
v 0.115343 0.771837 0.086964
v -0.034657 0.891837 -0.013036
v 0.000538 -0.009132 -0.011888
v -0.055689 0.410868 -0.337062
v 0.010921 -0.005341 -0.008786
v -0.045306 0.414659 -0.333961
v 0.014907 0.001579 -0.000538
v -0.041321 0.421579 -0.325713
v 0.010160 0.007574 0.008025
v -0.046067 0.427574 -0.317149
v -0.000538 0.009132 0.011888
v -0.056766 0.429132 -0.313287
v -0.010921 0.005341 0.008787
v -0.067149 0.425341 -0.316388
v -0.014907 -0.001579 0.000538
v -0.071135 0.418421 -0.324636
v -0.010160 -0.007574 -0.008025
v -0.066388 0.412426 -0.333200
v -0.054676 0.424149 -0.334140
v 0.095324 0.584149 -0.234140
v -0.049705 0.418533 -0.332611
v 0.100295 0.578533 -0.232611
v -0.048555 0.413777 -0.326726
v 0.101445 0.573777 -0.226726
v -0.051900 0.412666 -0.319932
v 0.098100 0.572666 -0.219932
v -0.057779 0.415851 -0.316209
v 0.092221 0.575851 -0.216209
v -0.062750 0.421467 -0.317738
v 0.087250 0.581467 -0.217738
v -0.063900 0.426223 -0.323623
v 0.086100 0.586223 -0.223623
v -0.060556 0.427334 -0.330417
v 0.089444 0.587334 -0.230417
v -0.054170 0.415382 -0.333803
v -0.204170 0.535382 -0.433803
v -0.049884 0.421633 -0.332731
v -0.199884 0.541633 -0.432731
v -0.049315 0.426926 -0.327232
v -0.199315 0.546926 -0.427233
v -0.052795 0.428163 -0.320529
v -0.202795 0.548163 -0.420529
v -0.058286 0.424618 -0.316546
v -0.208286 0.544618 -0.416547
v -0.062571 0.418367 -0.317618
v -0.212571 0.538367 -0.417618
v -0.063141 0.413074 -0.323117
v -0.213141 0.533074 -0.423117
v -0.059661 0.411837 -0.329820
v -0.209661 0.531837 -0.429820
v -0.001863 0.008663 -0.012103
v -0.277663 0.548663 0.416889
v 0.008443 0.010064 -0.007241
v -0.267358 0.550064 0.421751
v 0.013803 0.005570 0.001863
v -0.261998 0.545570 0.430855
v 0.011077 -0.002188 0.009875
v -0.264724 0.537812 0.438867
v 0.001863 -0.008663 0.012103
v -0.273938 0.531337 0.441095
v -0.008443 -0.010064 0.007241
v -0.284243 0.529936 0.436233
v -0.013802 -0.005570 -0.001863
v -0.289603 0.534430 0.427129
v -0.011077 0.002188 -0.009875
v -0.286878 0.542188 0.419117
v -0.274249 0.544149 0.420026
v -0.124249 0.704149 0.520026
v -0.269278 0.538533 0.421555
v -0.119278 0.698533 0.521555
v -0.268128 0.533777 0.427440
v -0.118128 0.693777 0.527440
v -0.271473 0.532666 0.434234
v -0.121473 0.692666 0.534234
v -0.277352 0.535851 0.437957
v -0.127352 0.695851 0.537957
v -0.282323 0.541467 0.436429
v -0.132323 0.701467 0.536429
v -0.283473 0.546223 0.430544
v -0.133473 0.706223 0.530544
v -0.280129 0.547334 0.423750
v -0.130129 0.707334 0.523750
v -0.273743 0.535382 0.420364
v -0.423743 0.655382 0.320364
v -0.269457 0.541633 0.421436
v -0.419457 0.661633 0.321436
v -0.268888 0.546926 0.426934
v -0.418888 0.666926 0.326934
v -0.272368 0.548163 0.433638
v -0.422368 0.668163 0.333638
v -0.277859 0.544618 0.437620
v -0.427859 0.664618 0.337620
v -0.282144 0.538368 0.436548
v -0.432144 0.658367 0.336548
v -0.282714 0.533074 0.431050
v -0.432714 0.653074 0.331050
v -0.279234 0.531837 0.424346
v -0.429234 0.651837 0.324346
v -0.000092 -0.000844 -0.014976
v 0.144988 0.659156 -0.053079
v 0.010295 -0.002871 -0.010525
v 0.155375 0.657129 -0.048628
v 0.014651 -0.003215 0.000092
v 0.159731 0.656785 -0.038011
v 0.010425 -0.001676 0.010654
v 0.155505 0.658324 -0.027448
v 0.000092 0.000844 0.014976
v 0.145172 0.660844 -0.023127
v -0.010295 0.002871 0.010525
v 0.134785 0.662871 -0.027578
v -0.014651 0.003215 -0.000092
v 0.130429 0.663215 -0.038194
v -0.010425 0.001676 -0.010654
v 0.134655 0.661676 -0.048757
v 0.146632 0.664149 -0.047068
v 0.296632 0.824149 0.052932
v 0.151602 0.658533 -0.045540
v 0.301602 0.818533 0.054460
v 0.152752 0.653777 -0.039655
v 0.302752 0.813777 0.060345
v 0.149408 0.652666 -0.032861
v 0.299408 0.812666 0.067140
v 0.143528 0.655851 -0.029137
v 0.293528 0.815851 0.070863
v 0.138557 0.661467 -0.030666
v 0.288557 0.821467 0.069334
v 0.137407 0.666223 -0.036551
v 0.287407 0.826223 0.063449
v 0.140752 0.667334 -0.043345
v 0.290752 0.827334 0.056655
v 0.147138 0.655382 -0.046731
v -0.002862 0.775382 -0.146731
v 0.151423 0.661633 -0.045659
v 0.001423 0.781632 -0.145659
v 0.151993 0.666926 -0.040161
v 0.001993 0.786926 -0.140161
v 0.148513 0.668163 -0.033457
v -0.001487 0.788163 -0.133457
v 0.143022 0.664618 -0.029475
v -0.006978 0.784617 -0.129475
v 0.138736 0.658368 -0.030547
v -0.011264 0.778367 -0.130547
v 0.138167 0.653074 -0.036045
v -0.011833 0.773074 -0.136045
v 0.141647 0.651837 -0.042749
v -0.008353 0.771837 -0.142749
v 0.000489 -0.002729 -0.014742
v -0.291336 0.777271 -0.168812
v 0.010297 0.001725 -0.010770
v -0.281529 0.781725 -0.164840
v 0.014073 0.005169 -0.000489
v -0.277753 0.785168 -0.154560
v 0.009605 0.005584 0.010078
v -0.282221 0.785584 -0.143993
v -0.000489 0.002729 0.014742
v -0.292315 0.782729 -0.139329
v -0.010297 -0.001725 0.010770
v -0.302123 0.778275 -0.143301
v -0.014073 -0.005168 0.000489
v -0.305899 0.774831 -0.153581
v -0.009605 -0.005584 -0.010078
v -0.301431 0.774416 -0.164148
v -0.290274 0.784149 -0.163036
v -0.140274 0.944149 -0.063036
v -0.285303 0.778533 -0.161507
v -0.135303 0.938533 -0.061507
v -0.284153 0.773777 -0.155622
v -0.134153 0.933777 -0.055622
v -0.287498 0.772666 -0.148828
v -0.137498 0.932666 -0.048828
v -0.293378 0.775851 -0.145105
v -0.143377 0.935851 -0.045105
v -0.298348 0.781467 -0.146634
v -0.148348 0.941467 -0.046634
v -0.299498 0.786223 -0.152519
v -0.149498 0.946223 -0.052519
v -0.296154 0.787334 -0.159313
v -0.146154 0.947334 -0.059313
v -0.289768 0.775382 -0.162699
v -0.439768 0.895382 -0.262698
v -0.285482 0.781632 -0.161627
v -0.435482 0.901632 -0.261627
v -0.284913 0.786926 -0.156128
v -0.434913 0.906926 -0.256128
v -0.288393 0.788163 -0.149425
v -0.438393 0.908163 -0.249425
v -0.293884 0.784617 -0.145442
v -0.443884 0.904617 -0.245442
v -0.298169 0.778367 -0.146514
v -0.448169 0.898367 -0.246514
v -0.298739 0.773074 -0.152013
v -0.448739 0.893074 -0.252012
v -0.295259 0.771837 -0.158716
v -0.445259 0.891837 -0.258716
v 0.001728 0.010907 -0.010152
v 0.172981 0.430907 0.470236
v 0.011393 0.004963 -0.008401
v 0.182646 0.424963 0.471987
v 0.014384 -0.003888 -0.001728
v 0.185637 0.416112 0.478659
v 0.008949 -0.010461 0.005956
v 0.180202 0.409539 0.486344
v -0.001728 -0.010907 0.010152
v 0.169525 0.409093 0.490539
v -0.011393 -0.004963 0.008400
v 0.159860 0.415037 0.488788
v -0.014384 0.003888 0.001728
v 0.156869 0.423888 0.482116
v -0.008949 0.010461 -0.005956
v 0.162304 0.430461 0.474432
v 0.172805 0.424149 0.471422
v 0.322805 0.584149 0.571422
v 0.177775 0.418533 0.472951
v 0.327775 0.578533 0.572951
v 0.178925 0.413777 0.478836
v 0.328925 0.573777 0.578836
v 0.175581 0.412666 0.485630
v 0.325581 0.572666 0.585630
v 0.169701 0.415851 0.489353
v 0.319701 0.575851 0.589353
v 0.164731 0.421467 0.487825
v 0.314731 0.581467 0.587825
v 0.163581 0.426223 0.481939
v 0.313581 0.586223 0.581940
v 0.166925 0.427334 0.475145
v 0.316925 0.587334 0.575145
v 0.173311 0.415382 0.471760
v 0.023311 0.535382 0.371760
v 0.177596 0.421633 0.472832
v 0.027597 0.541633 0.372832
v 0.178166 0.426926 0.478330
v 0.028166 0.546926 0.378330
v 0.174686 0.428163 0.485033
v 0.024686 0.548163 0.385033
v 0.169195 0.424618 0.489016
v 0.019195 0.544618 0.389016
v 0.164910 0.418367 0.487944
v 0.014910 0.538367 0.387944
v 0.164340 0.413074 0.482446
v 0.014340 0.533074 0.382446
v 0.167820 0.411837 0.475742
v 0.017820 0.531837 0.375742
vn 0.3827 0.3107 -0.8701
vn 0.9239 0.1287 -0.3604
vn 0.9239 -0.1287 0.3604
vn 0.3827 -0.3107 0.8701
vn -0.3827 -0.3107 0.8701
vn -0.9239 -0.1287 0.3604
vn -0.0000 0.9417 0.3363
vn -0.9239 0.1287 -0.3604
vn -0.3827 0.3107 -0.8701
vn -0.0000 -0.9417 -0.3363
vn 0.4370 0.1451 -0.8877
vn 0.7682 -0.4162 -0.4865
vn 0.6495 -0.7337 0.1997
vn 0.1502 -0.6214 0.7689
vn -0.4370 -0.1451 0.8877
vn -0.7682 0.4162 0.4865
vn 0.6223 0.6638 0.4149
vn -0.6495 0.7337 -0.1997
vn -0.1502 0.6214 -0.7689
vn -0.6223 -0.6638 -0.4149
vn 0.4547 -0.1615 -0.8759
vn 0.7174 0.4632 -0.5203
vn 0.5599 0.8166 0.1401
vn 0.0744 0.6917 0.7184
vn -0.4547 0.1615 0.8759
vn -0.7174 -0.4632 0.5203
vn -0.6926 0.5541 -0.4618
vn -0.5599 -0.8166 -0.1400
vn -0.0744 -0.6917 -0.7184
vn 0.6926 -0.5541 0.4618
vn 0.2895 -0.4899 -0.8223
vn 0.8339 -0.4728 -0.2847
vn 0.8899 -0.1788 0.4197
vn 0.4245 0.2200 0.8783
vn -0.2895 0.4899 0.8223
vn -0.8339 0.4728 0.2847
vn 0.3526 0.8533 -0.3842
vn -0.8899 0.1788 -0.4197
vn -0.4245 -0.2200 -0.8783
vn -0.3526 -0.8533 0.3842
vn 0.5599 0.8166 0.1400
vn -0.5599 -0.8166 -0.1401
vn 0.2870 0.2814 -0.9157
vn 0.7257 0.5828 -0.3657
vn 0.7393 0.5428 0.3985
vn 0.3198 0.1848 0.9293
vn -0.2870 -0.2814 0.9157
vn -0.7257 -0.5828 0.3657
vn -0.6092 0.7913 0.0523
vn -0.7393 -0.5428 -0.3985
vn -0.3198 -0.1848 -0.9293
vn 0.6092 -0.7913 -0.0523
vn 0.6494 -0.7337 0.1997
vn -0.6494 0.7337 -0.1997
vn 0.3864 0.0493 -0.9210
vn 0.9168 -0.0940 -0.3882
vn 0.9101 -0.1823 0.3721
vn 0.3703 -0.1638 0.9143
vn -0.3864 -0.0493 0.9210
vn -0.9168 0.0940 0.3882
vn 0.1495 0.9820 0.1153
vn -0.9101 0.1823 -0.3721
vn -0.3703 0.1638 -0.9143
vn -0.1495 -0.9820 -0.1153
vn 0.1503 -0.6214 0.7689
vn -0.1503 0.6214 -0.7689
vn 0.4135 -0.5222 -0.7459
vn 0.9319 -0.1357 -0.3364
vn 0.9044 0.3302 0.2701
vn 0.3472 0.6027 0.7185
vn -0.4135 0.5222 0.7459
vn -0.9319 0.1357 0.3364
vn -0.1053 0.7863 -0.6088
vn -0.9044 -0.3302 -0.2701
vn -0.3472 -0.6027 -0.7185
vn 0.1053 -0.7863 0.6088
vn 0.4547 -0.1616 -0.8759
vn 0.2374 0.6757 -0.6979
vn 0.8026 0.5641 -0.1940
vn 0.8976 0.1220 0.4235
vn 0.4669 -0.3915 0.7930
vn -0.2374 -0.6757 0.6979
vn -0.8026 -0.5641 0.1940
vn -0.3713 0.7270 0.5776
vn -0.8976 -0.1220 -0.4235
vn -0.4669 0.3915 -0.7930
vn 0.3713 -0.7270 -0.5776
vn 0.3681 -0.1340 -0.9201
vn 0.9000 -0.2196 -0.3764
vn 0.9047 -0.1765 0.3877
vn 0.3794 -0.0300 0.9247
vn -0.3681 0.1340 0.9201
vn -0.9000 0.2196 0.3764
vn 0.2144 0.9751 -0.0563
vn -0.9047 0.1765 -0.3877
vn -0.3794 0.0300 -0.9247
vn -0.2144 -0.9751 0.0563
vn 0.3892 -0.0362 -0.9205
vn 0.8793 0.2487 -0.4062
vn 0.8543 0.3880 0.3459
vn 0.3289 0.2999 0.8955
vn -0.3892 0.0362 0.9205
vn -0.8793 -0.2487 0.4062
vn -0.3446 0.9210 -0.1819
vn -0.8543 -0.3880 -0.3459
vn -0.3289 -0.2999 -0.8955
vn 0.3446 -0.9210 0.1819
vn 0.4734 0.5726 -0.6694
vn 0.9300 0.0388 -0.3654
vn 0.8418 -0.5177 0.1525
vn 0.2605 -0.7710 0.5812
vn -0.4734 -0.5726 0.6694
vn -0.9300 -0.0388 0.3654
vn 0.2592 0.6357 0.7271
vn -0.8418 0.5177 -0.1525
vn -0.2605 0.7710 -0.5812
vn -0.2592 -0.6357 -0.7271
vn -0.4547 0.1616 0.8759
vn -0.6927 0.5541 -0.4618
vn 0.6926 -0.5541 0.4617
vn 0.6223 0.6638 0.4148
vn -0.6926 0.5541 -0.4617
vn -0.6927 0.5541 -0.4617
vn 0.2143 0.9751 -0.0563
vn -0.2143 -0.9751 0.0563
vn -0.3892 0.0362 0.9204
vn -0.7682 0.4162 0.4864
vt 0.125000 0.875000
vt 0.625000 0.125000
s 0
usemtl WorldPickupPalette
f 2/1/1 3/1/1 1/1/1
f 3/1/2 6/1/2 5/1/2
f 6/1/3 7/1/3 5/1/3
f 8/1/4 9/1/4 7/1/4
f 9/1/5 12/1/5 11/1/5
f 12/1/6 13/1/6 11/1/6
f 2/1/7 14/1/7 10/1/7
f 14/1/8 15/1/8 13/1/8
f 15/1/9 2/1/9 1/1/9
f 11/1/10 13/1/10 15/1/10
f 18/1/11 19/1/11 17/1/11
f 20/1/12 21/1/12 19/1/12
f 21/1/13 24/1/13 23/1/13
f 24/1/14 25/1/14 23/1/14
f 25/1/15 28/1/15 27/1/15
f 28/1/16 29/1/16 27/1/16
f 26/1/17 24/1/17 22/1/17
f 29/1/18 32/1/18 31/1/18
f 32/1/19 17/1/19 31/1/19
f 29/1/20 31/1/20 23/1/20
f 34/2/21 35/2/21 33/2/21
f 35/2/22 38/2/22 37/2/22
f 37/2/23 40/2/23 39/2/23
f 40/2/24 41/2/24 39/2/24
f 41/2/25 44/2/25 43/2/25
f 44/2/26 45/2/26 43/2/26
f 42/2/27 40/2/27 38/2/27
f 45/2/28 48/2/28 47/2/28
f 48/2/29 33/2/29 47/2/29
f 43/2/30 45/2/30 47/2/30
f 49/1/31 52/1/31 51/1/31
f 52/1/32 53/1/32 51/1/32
f 54/1/33 55/1/33 53/1/33
f 56/1/34 57/1/34 55/1/34
f 57/1/35 60/1/35 59/1/35
f 60/1/36 61/1/36 59/1/36
f 58/1/37 56/1/37 54/1/37
f 62/1/38 63/1/38 61/1/38
f 64/1/39 49/1/39 63/1/39
f 55/1/40 59/1/40 63/1/40
f 66/1/11 67/1/11 65/1/11
f 67/1/12 70/1/12 69/1/12
f 70/1/13 71/1/13 69/1/13
f 72/1/14 73/1/14 71/1/14
f 73/1/15 76/1/15 75/1/15
f 76/1/16 77/1/16 75/1/16
f 72/1/17 70/1/17 78/1/17
f 77/1/18 80/1/18 79/1/18
f 80/1/19 65/1/19 79/1/19
f 71/1/20 75/1/20 79/1/20
f 82/2/21 83/2/21 81/2/21
f 83/2/22 86/2/22 85/2/22
f 86/2/41 87/2/41 85/2/41
f 88/2/24 89/2/24 87/2/24
f 89/2/25 92/2/25 91/2/25
f 92/2/26 93/2/26 91/2/26
f 82/2/27 94/2/27 90/2/27
f 93/2/42 96/2/42 95/2/42
f 95/2/29 82/2/29 81/2/29
f 93/2/30 95/2/30 87/2/30
f 98/1/43 99/1/43 97/1/43
f 100/1/44 101/1/44 99/1/44
f 101/1/45 104/1/45 103/1/45
f 104/1/46 105/1/46 103/1/46
f 105/1/47 108/1/47 107/1/47
f 108/1/48 109/1/48 107/1/48
f 102/1/49 98/1/49 110/1/49
f 110/1/50 111/1/50 109/1/50
f 112/1/51 97/1/51 111/1/51
f 107/1/52 109/1/52 111/1/52
f 113/1/11 116/1/11 115/1/11
f 116/1/12 117/1/12 115/1/12
f 117/1/53 120/1/53 119/1/53
f 120/1/14 121/1/14 119/1/14
f 121/1/15 124/1/15 123/1/15
f 124/1/16 125/1/16 123/1/16
f 122/1/17 120/1/17 118/1/17
f 125/1/54 128/1/54 127/1/54
f 128/1/19 113/1/19 127/1/19
f 119/1/20 123/1/20 127/1/20
f 129/2/21 132/2/21 131/2/21
f 132/2/22 133/2/22 131/2/22
f 133/2/23 136/2/23 135/2/23
f 135/2/24 138/2/24 137/2/24
f 138/2/25 139/2/25 137/2/25
f 140/2/26 141/2/26 139/2/26
f 142/2/27 138/2/27 134/2/27
f 142/2/28 143/2/28 141/2/28
f 144/2/29 129/2/29 143/2/29
f 141/2/30 143/2/30 135/2/30
f 145/1/55 148/1/55 147/1/55
f 148/1/56 149/1/56 147/1/56
f 150/1/57 151/1/57 149/1/57
f 152/1/58 153/1/58 151/1/58
f 153/1/59 156/1/59 155/1/59
f 156/1/60 157/1/60 155/1/60
f 150/1/61 146/1/61 158/1/61
f 158/1/62 159/1/62 157/1/62
f 160/1/63 145/1/63 159/1/63
f 159/1/64 147/1/64 151/1/64
f 162/1/11 163/1/11 161/1/11
f 163/1/12 166/1/12 165/1/12
f 166/1/13 167/1/13 165/1/13
f 168/1/65 169/1/65 167/1/65
f 169/1/15 172/1/15 171/1/15
f 171/1/16 174/1/16 173/1/16
f 174/1/17 170/1/17 166/1/17
f 174/1/18 175/1/18 173/1/18
f 175/1/66 162/1/66 161/1/66
f 163/1/20 167/1/20 171/1/20
f 178/2/21 179/2/21 177/2/21
f 179/2/22 182/2/22 181/2/22
f 181/2/41 184/2/41 183/2/41
f 184/2/24 185/2/24 183/2/24
f 185/2/25 188/2/25 187/2/25
f 188/2/26 189/2/26 187/2/26
f 182/2/27 178/2/27 190/2/27
f 189/2/28 192/2/28 191/2/28
f 191/2/29 178/2/29 177/2/29
f 179/2/30 183/2/30 187/2/30
f 194/1/67 195/1/67 193/1/67
f 196/1/68 197/1/68 195/1/68
f 198/1/69 199/1/69 197/1/69
f 199/1/70 202/1/70 201/1/70
f 202/1/71 203/1/71 201/1/71
f 203/1/72 206/1/72 205/1/72
f 194/1/73 206/1/73 202/1/73
f 206/1/74 207/1/74 205/1/74
f 208/1/75 193/1/75 207/1/75
f 199/1/76 203/1/76 207/1/76
f 210/1/11 211/1/11 209/1/11
f 212/1/12 213/1/12 211/1/12
f 213/1/13 216/1/13 215/1/13
f 216/1/65 217/1/65 215/1/65
f 218/1/15 219/1/15 217/1/15
f 219/1/16 222/1/16 221/1/16
f 210/1/17 222/1/17 218/1/17
f 222/1/18 223/1/18 221/1/18
f 223/1/19 210/1/19 209/1/19
f 221/1/20 223/1/20 215/1/20
f 225/2/77 228/2/77 227/2/77
f 228/2/22 229/2/22 227/2/22
f 229/2/41 232/2/41 231/2/41
f 232/2/24 233/2/24 231/2/24
f 233/2/25 236/2/25 235/2/25
f 235/2/26 238/2/26 237/2/26
f 238/2/27 234/2/27 230/2/27
f 238/2/42 239/2/42 237/2/42
f 239/2/29 226/2/29 225/2/29
f 235/2/30 237/2/30 239/2/30
f 242/1/78 243/1/78 241/1/78
f 244/1/79 245/1/79 243/1/79
f 246/1/80 247/1/80 245/1/80
f 248/1/81 249/1/81 247/1/81
f 250/1/82 251/1/82 249/1/82
f 251/1/83 254/1/83 253/1/83
f 246/1/84 242/1/84 254/1/84
f 254/1/85 255/1/85 253/1/85
f 255/1/86 242/1/86 241/1/86
f 255/1/87 243/1/87 247/1/87
f 257/1/11 260/1/11 259/1/11
f 260/1/12 261/1/12 259/1/12
f 261/1/13 264/1/13 263/1/13
f 264/1/14 265/1/14 263/1/14
f 266/1/15 267/1/15 265/1/15
f 268/1/16 269/1/16 267/1/16
f 270/1/17 266/1/17 262/1/17
f 269/1/18 272/1/18 271/1/18
f 272/1/19 257/1/19 271/1/19
f 263/1/20 267/1/20 271/1/20
f 273/2/21 276/2/21 275/2/21
f 276/2/22 277/2/22 275/2/22
f 278/2/41 279/2/41 277/2/41
f 279/2/24 282/2/24 281/2/24
f 282/2/25 283/2/25 281/2/25
f 283/2/26 286/2/26 285/2/26
f 280/2/27 278/2/27 286/2/27
f 286/2/42 287/2/42 285/2/42
f 288/2/29 273/2/29 287/2/29
f 279/2/30 283/2/30 287/2/30
f 290/1/88 291/1/88 289/1/88
f 291/1/89 294/1/89 293/1/89
f 294/1/90 295/1/90 293/1/90
f 296/1/91 297/1/91 295/1/91
f 297/1/92 300/1/92 299/1/92
f 300/1/93 301/1/93 299/1/93
f 302/1/94 298/1/94 294/1/94
f 301/1/95 304/1/95 303/1/95
f 303/1/96 290/1/96 289/1/96
f 303/1/97 291/1/97 295/1/97
f 305/1/11 308/1/11 307/1/11
f 308/1/12 309/1/12 307/1/12
f 309/1/13 312/1/13 311/1/13
f 312/1/14 313/1/14 311/1/14
f 313/1/15 316/1/15 315/1/15
f 316/1/16 317/1/16 315/1/16
f 318/1/17 314/1/17 310/1/17
f 318/1/18 319/1/18 317/1/18
f 319/1/66 306/1/66 305/1/66
f 317/1/20 319/1/20 311/1/20
f 321/2/21 324/2/21 323/2/21
f 324/2/22 325/2/22 323/2/22
f 325/2/41 328/2/41 327/2/41
f 327/2/24 330/2/24 329/2/24
f 330/2/25 331/2/25 329/2/25
f 331/2/26 334/2/26 333/2/26
f 328/2/27 326/2/27 334/2/27
f 334/2/42 335/2/42 333/2/42
f 335/2/29 322/2/29 321/2/29
f 327/2/30 331/2/30 335/2/30
f 338/1/98 339/1/98 337/1/98
f 339/1/99 342/1/99 341/1/99
f 342/1/100 343/1/100 341/1/100
f 343/1/101 346/1/101 345/1/101
f 345/1/102 348/1/102 347/1/102
f 348/1/103 349/1/103 347/1/103
f 346/1/104 344/1/104 342/1/104
f 350/1/105 351/1/105 349/1/105
f 352/1/106 337/1/106 351/1/106
f 339/1/107 343/1/107 347/1/107
f 353/1/11 356/1/11 355/1/11
f 356/1/12 357/1/12 355/1/12
f 357/1/13 360/1/13 359/1/13
f 360/1/14 361/1/14 359/1/14
f 362/1/15 363/1/15 361/1/15
f 363/1/16 366/1/16 365/1/16
f 358/1/17 354/1/17 366/1/17
f 366/1/18 367/1/18 365/1/18
f 367/1/66 354/1/66 353/1/66
f 363/1/20 365/1/20 367/1/20
f 370/2/21 371/2/21 369/2/21
f 371/2/22 374/2/22 373/2/22
f 373/2/41 376/2/41 375/2/41
f 376/2/24 377/2/24 375/2/24
f 377/2/25 380/2/25 379/2/25
f 380/2/26 381/2/26 379/2/26
f 370/2/27 382/2/27 378/2/27
f 381/2/28 384/2/28 383/2/28
f 383/2/29 370/2/29 369/2/29
f 371/2/30 375/2/30 379/2/30
f 386/1/108 387/1/108 385/1/108
f 387/1/109 390/1/109 389/1/109
f 390/1/110 391/1/110 389/1/110
f 392/1/111 393/1/111 391/1/111
f 393/1/112 396/1/112 395/1/112
f 396/1/113 397/1/113 395/1/113
f 394/1/114 392/1/114 390/1/114
f 397/1/115 400/1/115 399/1/115
f 400/1/116 385/1/116 399/1/116
f 395/1/117 397/1/117 399/1/117
f 402/1/11 403/1/11 401/1/11
f 403/1/12 406/1/12 405/1/12
f 406/1/13 407/1/13 405/1/13
f 407/1/14 410/1/14 409/1/14
f 410/1/15 411/1/15 409/1/15
f 412/1/16 413/1/16 411/1/16
f 410/1/17 408/1/17 406/1/17
f 413/1/18 416/1/18 415/1/18
f 416/1/19 401/1/19 415/1/19
f 411/1/20 413/1/20 415/1/20
f 418/2/77 419/2/77 417/2/77
f 420/2/22 421/2/22 419/2/22
f 422/2/23 423/2/23 421/2/23
f 424/2/24 425/2/24 423/2/24
f 425/2/118 428/2/118 427/2/118
f 427/2/26 430/2/26 429/2/26
f 426/2/119 424/2/119 422/2/119
f 430/2/28 431/2/28 429/2/28
f 431/2/29 418/2/29 417/2/29
f 431/2/30 419/2/30 423/2/30
f 2/1/1 4/1/1 3/1/1
f 3/1/2 4/1/2 6/1/2
f 6/1/3 8/1/3 7/1/3
f 8/1/4 10/1/4 9/1/4
f 9/1/5 10/1/5 12/1/5
f 12/1/6 14/1/6 13/1/6
f 6/1/7 4/1/7 2/1/7
f 2/1/7 16/1/7 14/1/7
f 14/1/7 12/1/7 10/1/7
f 10/1/7 8/1/7 6/1/7
f 6/1/7 2/1/7 10/1/7
f 14/1/8 16/1/8 15/1/8
f 15/1/9 16/1/9 2/1/9
f 15/1/10 1/1/10 7/1/10
f 1/1/10 3/1/10 7/1/10
f 3/1/10 5/1/10 7/1/10
f 7/1/10 9/1/10 15/1/10
f 9/1/10 11/1/10 15/1/10
f 18/1/11 20/1/11 19/1/11
f 20/1/12 22/1/12 21/1/12
f 21/1/13 22/1/13 24/1/13
f 24/1/14 26/1/14 25/1/14
f 25/1/15 26/1/15 28/1/15
f 28/1/16 30/1/16 29/1/16
f 22/1/17 20/1/17 18/1/17
f 18/1/17 32/1/17 22/1/17
f 32/1/17 30/1/17 22/1/17
f 30/1/17 28/1/17 22/1/17
f 28/1/17 26/1/17 22/1/17
f 29/1/18 30/1/18 32/1/18
f 32/1/66 18/1/66 17/1/66
f 31/1/20 17/1/20 23/1/20
f 17/1/20 19/1/20 23/1/20
f 19/1/20 21/1/20 23/1/20
f 23/1/20 25/1/20 27/1/20
f 27/1/20 29/1/20 23/1/20
f 34/2/21 36/2/21 35/2/21
f 35/2/22 36/2/22 38/2/22
f 37/2/41 38/2/41 40/2/41
f 40/2/24 42/2/24 41/2/24
f 41/2/25 42/2/25 44/2/25
f 44/2/26 46/2/26 45/2/26
f 38/2/27 36/2/27 34/2/27
f 34/2/27 48/2/27 38/2/27
f 48/2/27 46/2/27 38/2/27
f 46/2/27 44/2/27 38/2/27
f 44/2/27 42/2/27 38/2/27
f 45/2/28 46/2/28 48/2/28
f 48/2/29 34/2/29 33/2/29
f 47/2/30 33/2/30 39/2/30
f 33/2/30 35/2/30 39/2/30
f 35/2/120 37/2/120 39/2/120
f 39/2/30 41/2/30 47/2/30
f 41/2/30 43/2/30 47/2/30
f 49/1/31 50/1/31 52/1/31
f 52/1/32 54/1/32 53/1/32
f 54/1/33 56/1/33 55/1/33
f 56/1/34 58/1/34 57/1/34
f 57/1/35 58/1/35 60/1/35
f 60/1/36 62/1/36 61/1/36
f 54/1/37 52/1/37 50/1/37
f 50/1/37 64/1/37 54/1/37
f 64/1/37 62/1/37 54/1/37
f 62/1/37 60/1/37 54/1/37
f 60/1/37 58/1/37 54/1/37
f 62/1/38 64/1/38 63/1/38
f 64/1/39 50/1/39 49/1/39
f 63/1/40 49/1/40 51/1/40
f 51/1/40 53/1/40 63/1/40
f 53/1/40 55/1/40 63/1/40
f 55/1/40 57/1/40 59/1/40
f 59/1/40 61/1/40 63/1/40
f 66/1/11 68/1/11 67/1/11
f 67/1/12 68/1/12 70/1/12
f 70/1/13 72/1/13 71/1/13
f 72/1/14 74/1/14 73/1/14
f 73/1/15 74/1/15 76/1/15
f 76/1/16 78/1/16 77/1/16
f 70/1/17 68/1/17 66/1/17
f 66/1/17 80/1/17 70/1/17
f 80/1/17 78/1/17 70/1/17
f 78/1/17 76/1/17 74/1/17
f 74/1/17 72/1/17 78/1/17
f 77/1/18 78/1/18 80/1/18
f 80/1/66 66/1/66 65/1/66
f 79/1/20 65/1/20 67/1/20
f 67/1/20 69/1/20 79/1/20
f 69/1/20 71/1/20 79/1/20
f 71/1/20 73/1/20 75/1/20
f 75/1/20 77/1/20 79/1/20
f 82/2/21 84/2/21 83/2/21
f 83/2/22 84/2/22 86/2/22
f 86/2/23 88/2/23 87/2/23
f 88/2/24 90/2/24 89/2/24
f 89/2/118 90/2/118 92/2/118
f 92/2/26 94/2/26 93/2/26
f 86/2/27 84/2/27 82/2/27
f 82/2/27 96/2/27 94/2/27
f 94/2/27 92/2/27 90/2/27
f 90/2/27 88/2/27 86/2/27
f 86/2/27 82/2/27 90/2/27
f 93/2/28 94/2/28 96/2/28
f 95/2/29 96/2/29 82/2/29
f 95/2/30 81/2/30 83/2/30
f 83/2/30 85/2/30 95/2/30
f 85/2/30 87/2/30 95/2/30
f 87/2/30 89/2/30 91/2/30
f 91/2/30 93/2/30 87/2/30
f 98/1/43 100/1/43 99/1/43
f 100/1/44 102/1/44 101/1/44
f 101/1/45 102/1/45 104/1/45
f 104/1/46 106/1/46 105/1/46
f 105/1/47 106/1/47 108/1/47
f 108/1/48 110/1/48 109/1/48
f 102/1/49 100/1/49 98/1/49
f 98/1/49 112/1/49 110/1/49
f 110/1/49 108/1/49 106/1/49
f 106/1/49 104/1/49 110/1/49
f 104/1/49 102/1/49 110/1/49
f 110/1/50 112/1/50 111/1/50
f 112/1/51 98/1/51 97/1/51
f 111/1/52 97/1/52 99/1/52
f 99/1/52 101/1/52 111/1/52
f 101/1/52 103/1/52 111/1/52
f 103/1/52 105/1/52 111/1/52
f 105/1/52 107/1/52 111/1/52
f 113/1/11 114/1/11 116/1/11
f 116/1/12 118/1/12 117/1/12
f 117/1/13 118/1/13 120/1/13
f 120/1/14 122/1/14 121/1/14
f 121/1/15 122/1/15 124/1/15
f 124/1/16 126/1/16 125/1/16
f 118/1/121 116/1/121 114/1/121
f 114/1/17 128/1/17 118/1/17
f 128/1/17 126/1/17 118/1/17
f 126/1/17 124/1/17 118/1/17
f 124/1/17 122/1/17 118/1/17
f 125/1/18 126/1/18 128/1/18
f 128/1/66 114/1/66 113/1/66
f 127/1/20 113/1/20 119/1/20
f 113/1/20 115/1/20 119/1/20
f 115/1/20 117/1/20 119/1/20
f 119/1/20 121/1/20 123/1/20
f 123/1/20 125/1/20 127/1/20
f 129/2/21 130/2/21 132/2/21
f 132/2/22 134/2/22 133/2/22
f 133/2/41 134/2/41 136/2/41
f 135/2/24 136/2/24 138/2/24
f 138/2/25 140/2/25 139/2/25
f 140/2/26 142/2/26 141/2/26
f 134/2/27 132/2/27 142/2/27
f 132/2/122 130/2/122 142/2/122
f 130/2/27 144/2/27 142/2/27
f 142/2/122 140/2/122 138/2/122
f 138/2/27 136/2/27 134/2/27
f 142/2/28 144/2/28 143/2/28
f 144/2/29 130/2/29 129/2/29
f 143/2/30 129/2/30 135/2/30
f 129/2/30 131/2/30 135/2/30
f 131/2/30 133/2/30 135/2/30
f 135/2/30 137/2/30 139/2/30
f 139/2/30 141/2/30 135/2/30
f 145/1/55 146/1/55 148/1/55
f 148/1/56 150/1/56 149/1/56
f 150/1/57 152/1/57 151/1/57
f 152/1/58 154/1/58 153/1/58
f 153/1/59 154/1/59 156/1/59
f 156/1/60 158/1/60 157/1/60
f 150/1/61 148/1/61 146/1/61
f 146/1/61 160/1/61 158/1/61
f 158/1/61 156/1/61 154/1/61
f 154/1/61 152/1/61 158/1/61
f 152/1/61 150/1/61 158/1/61
f 158/1/62 160/1/62 159/1/62
f 160/1/63 146/1/63 145/1/63
f 159/1/64 145/1/64 147/1/64
f 147/1/64 149/1/64 151/1/64
f 151/1/64 153/1/64 155/1/64
f 155/1/64 157/1/64 151/1/64
f 157/1/64 159/1/64 151/1/64
f 162/1/11 164/1/11 163/1/11
f 163/1/12 164/1/12 166/1/12
f 166/1/13 168/1/13 167/1/13
f 168/1/14 170/1/14 169/1/14
f 169/1/15 170/1/15 172/1/15
f 171/1/16 172/1/16 174/1/16
f 166/1/17 164/1/17 174/1/17
f 164/1/17 162/1/17 174/1/17
f 162/1/17 176/1/17 174/1/17
f 174/1/17 172/1/17 170/1/17
f 170/1/17 168/1/17 166/1/17
f 174/1/18 176/1/18 175/1/18
f 175/1/66 176/1/66 162/1/66
f 175/1/20 161/1/20 163/1/20
f 163/1/20 165/1/20 167/1/20
f 167/1/20 169/1/20 171/1/20
f 171/1/20 173/1/20 175/1/20
f 175/1/20 163/1/20 171/1/20
f 178/2/77 180/2/77 179/2/77
f 179/2/22 180/2/22 182/2/22
f 181/2/41 182/2/41 184/2/41
f 184/2/24 186/2/24 185/2/24
f 185/2/25 186/2/25 188/2/25
f 188/2/26 190/2/26 189/2/26
f 182/2/27 180/2/27 178/2/27
f 178/2/123 192/2/123 190/2/123
f 190/2/122 188/2/122 186/2/122
f 186/2/27 184/2/27 190/2/27
f 184/2/27 182/2/27 190/2/27
f 189/2/28 190/2/28 192/2/28
f 191/2/29 192/2/29 178/2/29
f 191/2/30 177/2/30 179/2/30
f 179/2/30 181/2/30 183/2/30
f 183/2/30 185/2/30 187/2/30
f 187/2/30 189/2/30 191/2/30
f 191/2/30 179/2/30 187/2/30
f 194/1/67 196/1/67 195/1/67
f 196/1/68 198/1/68 197/1/68
f 198/1/69 200/1/69 199/1/69
f 199/1/70 200/1/70 202/1/70
f 202/1/71 204/1/71 203/1/71
f 203/1/72 204/1/72 206/1/72
f 198/1/73 196/1/73 194/1/73
f 194/1/73 208/1/73 206/1/73
f 206/1/73 204/1/73 202/1/73
f 202/1/73 200/1/73 198/1/73
f 198/1/73 194/1/73 202/1/73
f 206/1/74 208/1/74 207/1/74
f 208/1/75 194/1/75 193/1/75
f 207/1/76 193/1/76 199/1/76
f 193/1/76 195/1/76 199/1/76
f 195/1/76 197/1/76 199/1/76
f 199/1/76 201/1/76 203/1/76
f 203/1/76 205/1/76 207/1/76
f 210/1/11 212/1/11 211/1/11
f 212/1/12 214/1/12 213/1/12
f 213/1/13 214/1/13 216/1/13
f 216/1/14 218/1/14 217/1/14
f 218/1/15 220/1/15 219/1/15
f 219/1/16 220/1/16 222/1/16
f 214/1/17 212/1/17 210/1/17
f 210/1/17 224/1/17 222/1/17
f 222/1/17 220/1/17 218/1/17
f 218/1/17 216/1/17 214/1/17
f 214/1/17 210/1/17 218/1/17
f 222/1/18 224/1/18 223/1/18
f 223/1/19 224/1/19 210/1/19
f 223/1/20 209/1/20 215/1/20
f 209/1/20 211/1/20 215/1/20
f 211/1/20 213/1/20 215/1/20
f 215/1/20 217/1/20 219/1/20
f 219/1/20 221/1/20 215/1/20
f 225/2/21 226/2/21 228/2/21
f 228/2/22 230/2/22 229/2/22
f 229/2/23 230/2/23 232/2/23
f 232/2/24 234/2/24 233/2/24
f 233/2/118 234/2/118 236/2/118
f 235/2/26 236/2/26 238/2/26
f 230/2/27 228/2/27 238/2/27
f 228/2/27 226/2/27 238/2/27
f 226/2/122 240/2/122 238/2/122
f 238/2/27 236/2/27 234/2/27
f 234/2/122 232/2/122 230/2/122
f 238/2/28 240/2/28 239/2/28
f 239/2/29 240/2/29 226/2/29
f 239/2/30 225/2/30 231/2/30
f 225/2/30 227/2/30 231/2/30
f 227/2/30 229/2/30 231/2/30
f 231/2/30 233/2/30 239/2/30
f 233/2/30 235/2/30 239/2/30
f 242/1/78 244/1/78 243/1/78
f 244/1/79 246/1/79 245/1/79
f 246/1/80 248/1/80 247/1/80
f 248/1/81 250/1/81 249/1/81
f 250/1/82 252/1/82 251/1/82
f 251/1/83 252/1/83 254/1/83
f 246/1/84 244/1/84 242/1/84
f 242/1/84 256/1/84 254/1/84
f 254/1/84 252/1/84 246/1/84
f 252/1/84 250/1/84 246/1/84
f 250/1/84 248/1/84 246/1/84
f 254/1/85 256/1/85 255/1/85
f 255/1/86 256/1/86 242/1/86
f 255/1/87 241/1/87 243/1/87
f 243/1/87 245/1/87 247/1/87
f 247/1/87 249/1/87 255/1/87
f 249/1/87 251/1/87 255/1/87
f 251/1/87 253/1/87 255/1/87
f 257/1/11 258/1/11 260/1/11
f 260/1/12 262/1/12 261/1/12
f 261/1/13 262/1/13 264/1/13
f 264/1/14 266/1/14 265/1/14
f 266/1/15 268/1/15 267/1/15
f 268/1/16 270/1/16 269/1/16
f 262/1/17 260/1/17 258/1/17
f 258/1/17 272/1/17 262/1/17
f 272/1/17 270/1/17 262/1/17
f 270/1/17 268/1/17 266/1/17
f 266/1/17 264/1/17 262/1/17
f 269/1/54 270/1/54 272/1/54
f 272/1/66 258/1/66 257/1/66
f 271/1/20 257/1/20 263/1/20
f 257/1/20 259/1/20 263/1/20
f 259/1/20 261/1/20 263/1/20
f 263/1/20 265/1/20 267/1/20
f 267/1/20 269/1/20 271/1/20
f 273/2/21 274/2/21 276/2/21
f 276/2/22 278/2/22 277/2/22
f 278/2/23 280/2/23 279/2/23
f 279/2/24 280/2/24 282/2/24
f 282/2/25 284/2/25 283/2/25
f 283/2/26 284/2/26 286/2/26
f 278/2/27 276/2/27 286/2/27
f 276/2/27 274/2/27 286/2/27
f 274/2/27 288/2/27 286/2/27
f 286/2/27 284/2/27 282/2/27
f 282/2/27 280/2/27 286/2/27
f 286/2/42 288/2/42 287/2/42
f 288/2/29 274/2/29 273/2/29
f 287/2/30 273/2/30 275/2/30
f 275/2/30 277/2/30 287/2/30
f 277/2/30 279/2/30 287/2/30
f 279/2/30 281/2/30 283/2/30
f 283/2/30 285/2/30 287/2/30
f 290/1/88 292/1/88 291/1/88
f 291/1/89 292/1/89 294/1/89
f 294/1/90 296/1/90 295/1/90
f 296/1/91 298/1/91 297/1/91
f 297/1/92 298/1/92 300/1/92
f 300/1/93 302/1/93 301/1/93
f 294/1/124 292/1/124 290/1/124
f 290/1/94 304/1/94 294/1/94
f 304/1/124 302/1/124 294/1/124
f 302/1/124 300/1/124 298/1/124
f 298/1/124 296/1/124 294/1/124
f 301/1/95 302/1/95 304/1/95
f 303/1/96 304/1/96 290/1/96
f 303/1/97 289/1/97 291/1/97
f 291/1/125 293/1/125 295/1/125
f 295/1/97 297/1/97 299/1/97
f 299/1/97 301/1/97 295/1/97
f 301/1/97 303/1/97 295/1/97
f 305/1/11 306/1/11 308/1/11
f 308/1/12 310/1/12 309/1/12
f 309/1/13 310/1/13 312/1/13
f 312/1/14 314/1/14 313/1/14
f 313/1/15 314/1/15 316/1/15
f 316/1/16 318/1/16 317/1/16
f 310/1/17 308/1/17 306/1/17
f 306/1/17 320/1/17 310/1/17
f 320/1/17 318/1/17 310/1/17
f 318/1/17 316/1/17 314/1/17
f 314/1/17 312/1/17 310/1/17
f 318/1/18 320/1/18 319/1/18
f 319/1/66 320/1/66 306/1/66
f 319/1/20 305/1/20 311/1/20
f 305/1/20 307/1/20 311/1/20
f 307/1/20 309/1/20 311/1/20
f 311/1/20 313/1/20 315/1/20
f 315/1/20 317/1/20 311/1/20
f 321/2/21 322/2/21 324/2/21
f 324/2/22 326/2/22 325/2/22
f 325/2/23 326/2/23 328/2/23
f 327/2/24 328/2/24 330/2/24
f 330/2/25 332/2/25 331/2/25
f 331/2/26 332/2/26 334/2/26
f 326/2/27 324/2/27 322/2/27
f 322/2/27 336/2/27 326/2/27
f 336/2/27 334/2/27 326/2/27
f 334/2/27 332/2/27 330/2/27
f 330/2/27 328/2/27 334/2/27
f 334/2/28 336/2/28 335/2/28
f 335/2/29 336/2/29 322/2/29
f 335/2/30 321/2/30 323/2/30
f 323/2/30 325/2/30 327/2/30
f 327/2/30 329/2/30 331/2/30
f 331/2/30 333/2/30 335/2/30
f 335/2/30 323/2/30 327/2/30
f 338/1/98 340/1/98 339/1/98
f 339/1/99 340/1/99 342/1/99
f 342/1/100 344/1/100 343/1/100
f 343/1/101 344/1/101 346/1/101
f 345/1/126 346/1/126 348/1/126
f 348/1/103 350/1/103 349/1/103
f 342/1/104 340/1/104 350/1/104
f 340/1/104 338/1/104 350/1/104
f 338/1/104 352/1/104 350/1/104
f 350/1/104 348/1/104 342/1/104
f 348/1/104 346/1/104 342/1/104
f 350/1/105 352/1/105 351/1/105
f 352/1/106 338/1/106 337/1/106
f 351/1/107 337/1/107 339/1/107
f 339/1/107 341/1/107 343/1/107
f 343/1/107 345/1/107 347/1/107
f 347/1/107 349/1/107 351/1/107
f 351/1/107 339/1/107 347/1/107
f 353/1/11 354/1/11 356/1/11
f 356/1/12 358/1/12 357/1/12
f 357/1/13 358/1/13 360/1/13
f 360/1/65 362/1/65 361/1/65
f 362/1/15 364/1/15 363/1/15
f 363/1/127 364/1/127 366/1/127
f 358/1/17 356/1/17 354/1/17
f 354/1/17 368/1/17 366/1/17
f 366/1/17 364/1/17 362/1/17
f 362/1/17 360/1/17 366/1/17
f 360/1/17 358/1/17 366/1/17
f 366/1/18 368/1/18 367/1/18
f 367/1/66 368/1/66 354/1/66
f 367/1/20 353/1/20 355/1/20
f 355/1/20 357/1/20 367/1/20
f 357/1/20 359/1/20 367/1/20
f 359/1/20 361/1/20 367/1/20
f 361/1/20 363/1/20 367/1/20
f 370/2/21 372/2/21 371/2/21
f 371/2/22 372/2/22 374/2/22
f 373/2/23 374/2/23 376/2/23
f 376/2/24 378/2/24 377/2/24
f 377/2/25 378/2/25 380/2/25
f 380/2/26 382/2/26 381/2/26
f 374/2/122 372/2/122 370/2/122
f 370/2/123 384/2/123 382/2/123
f 382/2/27 380/2/27 378/2/27
f 378/2/27 376/2/27 374/2/27
f 374/2/27 370/2/27 378/2/27
f 381/2/28 382/2/28 384/2/28
f 383/2/29 384/2/29 370/2/29
f 383/2/30 369/2/30 371/2/30
f 371/2/30 373/2/30 375/2/30
f 375/2/30 377/2/30 379/2/30
f 379/2/120 381/2/120 383/2/120
f 383/2/30 371/2/30 379/2/30
f 386/1/108 388/1/108 387/1/108
f 387/1/109 388/1/109 390/1/109
f 390/1/110 392/1/110 391/1/110
f 392/1/111 394/1/111 393/1/111
f 393/1/112 394/1/112 396/1/112
f 396/1/113 398/1/113 397/1/113
f 390/1/114 388/1/114 386/1/114
f 386/1/114 400/1/114 390/1/114
f 400/1/114 398/1/114 390/1/114
f 398/1/114 396/1/114 390/1/114
f 396/1/114 394/1/114 390/1/114
f 397/1/115 398/1/115 400/1/115
f 400/1/116 386/1/116 385/1/116
f 399/1/117 385/1/117 391/1/117
f 385/1/117 387/1/117 391/1/117
f 387/1/117 389/1/117 391/1/117
f 391/1/117 393/1/117 399/1/117
f 393/1/117 395/1/117 399/1/117
f 402/1/11 404/1/11 403/1/11
f 403/1/12 404/1/12 406/1/12
f 406/1/53 408/1/53 407/1/53
f 407/1/65 408/1/65 410/1/65
f 410/1/15 412/1/15 411/1/15
f 412/1/16 414/1/16 413/1/16
f 406/1/17 404/1/17 402/1/17
f 402/1/17 416/1/17 406/1/17
f 416/1/17 414/1/17 406/1/17
f 414/1/17 412/1/17 406/1/17
f 412/1/17 410/1/17 406/1/17
f 413/1/18 414/1/18 416/1/18
f 416/1/66 402/1/66 401/1/66
f 415/1/20 401/1/20 407/1/20
f 401/1/20 403/1/20 407/1/20
f 403/1/20 405/1/20 407/1/20
f 407/1/20 409/1/20 415/1/20
f 409/1/20 411/1/20 415/1/20
f 418/2/21 420/2/21 419/2/21
f 420/2/22 422/2/22 421/2/22
f 422/2/23 424/2/23 423/2/23
f 424/2/24 426/2/24 425/2/24
f 425/2/118 426/2/118 428/2/118
f 427/2/26 428/2/26 430/2/26
f 422/2/27 420/2/27 418/2/27
f 418/2/27 432/2/27 422/2/27
f 432/2/27 430/2/27 422/2/27
f 430/2/27 428/2/27 422/2/27
f 428/2/27 426/2/27 422/2/27
f 430/2/42 432/2/42 431/2/42
f 431/2/29 432/2/29 418/2/29
f 431/2/30 417/2/30 419/2/30
f 419/2/30 421/2/30 423/2/30
f 423/2/30 425/2/30 431/2/30
f 425/2/30 427/2/30 431/2/30
f 427/2/30 429/2/30 431/2/30
