# Blender 5.2.1 LTS
# www.blender.org
mtllib deadTrees.mtl
o deadTrees
v -0.000000 0.000000 -0.220000
v 0.050000 1.500000 -0.220000
v 0.155477 -0.005183 -0.155563
v 0.205477 1.494817 -0.155563
v 0.219878 -0.007329 0.000000
v 0.269878 1.492671 0.000000
v 0.155477 -0.005183 0.155563
v 0.205477 1.494817 0.155563
v -0.000000 0.000000 0.220000
v 0.050000 1.500000 0.220000
v -0.155477 0.005183 0.155563
v -0.105477 1.505183 0.155563
v -0.219878 0.007329 0.000000
v -0.169878 1.507329 0.000000
v -0.155477 0.005183 -0.155563
v -0.105477 1.505183 -0.155563
v 0.049541 1.510621 -0.177682
v -0.080459 3.010621 -0.087682
v 0.175072 1.518358 -0.125316
v 0.045072 3.018358 -0.035316
v 0.227337 1.515342 0.000459
v 0.097337 3.015342 0.090459
v 0.175721 1.503338 0.125965
v 0.045721 3.003338 0.215965
v 0.050459 1.489379 0.177682
v -0.079541 2.989379 0.267682
v -0.075072 1.481641 0.125316
v -0.205072 2.981641 0.215316
v -0.127337 1.484658 -0.000459
v -0.257337 2.984658 0.089541
v -0.075721 1.496662 -0.125965
v -0.205721 2.996662 -0.035965
v -0.080497 2.993740 -0.045855
v 0.159503 4.493740 -0.115855
v 0.014609 2.980396 -0.005712
v 0.254609 4.480396 -0.075712
v 0.054295 2.978536 0.090497
v 0.294295 4.478536 0.020497
v 0.015312 2.989249 0.186416
v 0.255312 4.489249 0.116416
v -0.079503 3.006260 0.225855
v 0.160497 4.506260 0.155855
v -0.174609 3.019604 0.185712
v 0.065391 4.519604 0.115712
v -0.214295 3.021464 0.089503
v 0.025705 4.521464 0.019503
v -0.175312 3.010751 -0.006416
v 0.064688 4.510751 -0.076416
v 0.159177 4.488923 -0.073341
v 0.309177 5.488923 -0.193341
v 0.225158 4.482376 -0.045420
v 0.375158 5.482376 -0.165420
v 0.252971 4.486154 0.020823
v 0.402971 5.486154 -0.099177
v 0.226323 4.498042 0.086584
v 0.376323 5.498042 -0.033416
v 0.160823 4.511078 0.113341
v 0.310823 5.511078 -0.006659
v 0.094842 4.517624 0.085420
v 0.244842 5.517624 -0.034580
v 0.067029 4.513847 0.019177
v 0.217029 5.513847 -0.100823
v 0.093678 4.501959 -0.046584
v 0.243678 5.501959 -0.166584
v -0.000000 1.574163 -0.041531
v -0.000000 2.274163 1.208469
v 0.060104 1.552441 -0.029367
v 0.060104 2.252441 1.220633
v 0.085000 1.500000 0.000000
v 0.085000 2.200000 1.250000
v 0.060104 1.447559 0.029367
v 0.060104 2.147559 1.279367
v 0.000000 1.425837 0.041531
v 0.000000 2.125837 1.291531
v -0.060104 1.447559 0.029367
v -0.060104 2.147559 1.279367
v -0.085000 1.500000 0.000000
v -0.085000 2.200000 1.250000
v -0.060104 1.552441 -0.029367
v -0.060104 2.252441 1.220633
v 0.000000 2.230270 1.216703
v 0.000000 2.780270 1.716703
v 0.031820 2.221404 1.226455
v 0.031820 2.771405 1.726455
v 0.045000 2.200000 1.250000
v 0.045000 2.750000 1.750000
v 0.031820 2.178596 1.273545
v 0.031820 2.728596 1.773545
v 0.000000 2.169730 1.283297
v 0.000000 2.719730 1.783297
v -0.031820 2.178596 1.273545
v -0.031820 2.728596 1.773545
v -0.045000 2.200000 1.250000
v -0.045000 2.750000 1.750000
v -0.031820 2.221405 1.226455
v -0.031820 2.771404 1.726455
v -0.000169 2.198987 1.220018
v 0.239831 2.898988 1.195018
v 0.019948 2.192408 1.228919
v 0.259948 2.892408 1.203919
v 0.028380 2.190276 1.250169
v 0.268380 2.890276 1.225169
v 0.020187 2.193841 1.271320
v 0.260187 2.893841 1.246320
v 0.000169 2.201013 1.279982
v 0.240169 2.901013 1.254982
v -0.019948 2.207592 1.271081
v 0.220052 2.907593 1.246081
v -0.028380 2.209724 1.249831
v 0.211620 2.909724 1.224831
v -0.020187 2.206160 1.228680
v 0.219813 2.906160 1.203680
v -0.018904 1.880643 -0.057363
v 0.771388 2.580643 -0.920113
v 0.029543 1.863129 -0.027194
v 0.819835 2.563129 -0.889945
v 0.060684 1.884788 0.018904
v 0.850976 2.584788 -0.843847
v 0.056277 1.932931 0.053929
v 0.846569 2.632931 -0.808822
v 0.018904 1.979357 0.057363
v 0.809196 2.679358 -0.805388
v -0.029543 1.996871 0.027194
v 0.760749 2.696871 -0.835556
v -0.060684 1.975212 -0.018904
v 0.729608 2.675212 -0.881655
v -0.056277 1.927069 -0.053929
v 0.734015 2.627069 -0.916679
v 0.784948 2.608496 -0.901917
v 1.101065 3.158496 -1.247018
v 0.814872 2.600866 -0.886667
v 1.130989 3.150866 -1.231767
v 0.830397 2.610302 -0.857407
v 1.146514 3.160302 -1.202507
v 0.822429 2.631277 -0.831277
v 1.138546 3.181277 -1.176378
v 0.795635 2.651504 -0.823584
v 1.111752 3.201504 -1.168684
v 0.765712 2.659134 -0.838834
v 1.081828 3.209134 -1.183934
v 0.750187 2.649698 -0.868094
v 1.066303 3.199698 -1.213194
v 0.758155 2.628723 -0.894224
v 1.074272 3.178723 -1.239324
v 0.788108 2.621554 -0.891454
v 1.186166 3.321553 -1.127729
v 0.807358 2.613966 -0.881503
v 1.205417 3.313966 -1.117778
v 0.816612 2.615770 -0.860566
v 1.214670 3.315770 -1.096841
v 0.810447 2.625911 -0.840910
v 1.208506 3.325910 -1.077185
v 0.792476 2.638446 -0.834047
v 1.190534 3.338446 -1.070322
v 0.773225 2.646034 -0.843999
v 1.171284 3.346034 -1.080274
v 0.763972 2.644230 -0.864935
v 1.162030 3.344230 -1.101210
v 0.770136 2.634089 -0.884592
v 1.168195 3.334090 -1.120867
v -0.002844 2.365227 -0.070750
v -1.088664 3.065227 0.024624
v 0.025294 2.405778 -0.048017
v -1.060525 3.105778 0.047357
v 0.038616 2.419512 0.002844
v -1.047204 3.119512 0.098218
v 0.029317 2.398385 0.052039
v -1.056503 3.098385 0.147413
v 0.002845 2.354773 0.070750
v -1.082975 3.054773 0.166124
v -0.025294 2.314222 0.048017
v -1.111114 3.014222 0.143390
v -0.038616 2.300488 -0.002844
v -1.124436 3.000488 0.092529
v -0.029317 2.321615 -0.052039
v -1.115137 3.021615 0.043335
v -1.086668 3.062446 0.050448
v -1.520996 3.612446 0.088598
v -1.061432 3.081421 0.064207
v -1.495759 3.631421 0.102356
v -1.050481 3.087847 0.096223
v -1.484809 3.637847 0.134372
v -1.060231 3.077961 0.127741
v -1.494559 3.627961 0.165891
v -1.084971 3.057554 0.140299
v -1.519299 3.607554 0.178449
v -1.110207 3.038579 0.126541
v -1.544535 3.588579 0.164690
v -1.121158 3.032152 0.094525
v -1.555486 3.582153 0.132675
v -1.111408 3.042039 0.063007
v -1.545735 3.592039 0.101156
v -1.085915 3.054101 0.065960
v -1.063079 3.754101 -0.074503
v -1.064685 3.055151 0.074642
v -1.041848 3.755150 -0.065820
v -1.055835 3.059041 0.095469
v -1.032999 3.759041 -0.044993
v -1.064550 3.063493 0.116240
v -1.041714 3.763493 -0.024222
v -1.085724 3.065899 0.124788
v -1.062888 3.765899 -0.015675
v -1.106954 3.064849 0.116105
v -1.084118 3.764849 -0.024357
v -1.115804 3.060959 0.095279
v -1.092968 3.760959 -0.045184
v -1.107089 3.056507 0.074508
v -1.084253 3.756507 -0.065955
v 0.013299 2.822000 -0.053806
v 0.814903 3.522000 0.560628
v 0.042390 2.783107 -0.047451
v 0.843995 3.483107 0.566984
v 0.046650 2.748251 -0.013299
v 0.848255 3.448251 0.601136
v 0.023583 2.737852 0.028643
v 0.825188 3.437852 0.643078
v -0.013299 2.757999 0.053806
v 0.788306 3.457999 0.668241
v -0.042390 2.796893 0.047451
v 0.759214 3.496893 0.661885
v -0.046650 2.831748 0.013299
v 0.754955 3.531748 0.627734
v -0.023583 2.842148 -0.028643
v 0.778022 3.542148 0.585792
v 0.805821 3.506206 0.572667
v 1.126463 4.056206 0.818441
v 0.832516 3.486509 0.581919
v 1.153158 4.036509 0.827693
v 0.841104 3.468857 0.610218
v 1.161746 4.018857 0.855992
v 0.826553 3.463589 0.640988
v 1.147195 4.013590 0.886762
v 0.797388 3.473793 0.656203
v 1.118030 4.023793 0.901977
v 0.770693 3.493491 0.646951
v 1.091335 4.043490 0.892725
v 0.762105 3.511143 0.618651
v 1.082747 4.061143 0.864425
v 0.776656 3.516410 0.587882
v 1.097298 4.066410 0.833656
v 0.800737 3.486725 0.584627
v 1.201058 4.186726 0.496070
v 0.819431 3.477216 0.593971
v 1.219752 4.177217 0.505414
v 0.827683 3.475196 0.615302
v 1.228004 4.175196 0.526746
v 0.820658 3.481848 0.636126
v 1.220979 4.181848 0.547569
v 0.802472 3.493275 0.644243
v 1.202793 4.193275 0.555686
v 0.783778 3.502784 0.634899
v 1.184099 4.202784 0.546342
v 0.775526 3.504804 0.613567
v 1.175847 4.204804 0.525011
v 0.782551 3.498152 0.592744
v 1.182872 4.198153 0.504187
v 0.003900 3.175156 -0.034969
v -0.158224 3.875156 -0.950728
v 0.042575 3.193904 -0.027485
v -0.119549 3.893904 -0.943244
v 0.056309 3.227939 -0.003900
v -0.105814 3.927939 -0.919660
v 0.037059 3.257324 0.021969
v -0.125065 3.957323 -0.893791
v -0.003900 3.264844 0.034969
v -0.166024 3.964844 -0.880791
v -0.042575 3.246096 0.027485
v -0.204699 3.946096 -0.888275
v -0.056309 3.212061 0.003900
v -0.218433 3.912061 -0.911859
v -0.037059 3.182677 -0.021969
v -0.199183 3.882677 -0.937728
v -0.160798 3.895175 -0.953269
v -0.225647 4.445174 -1.319573
v -0.129532 3.905553 -0.943220
v -0.194382 4.455553 -1.309524
v -0.117359 3.924394 -0.917086
v -0.182208 4.474394 -1.283390
v -0.131408 3.940661 -0.890174
v -0.196257 4.490661 -1.256478
v -0.163450 3.944824 -0.878250
v -0.228300 4.494824 -1.244554
v -0.194715 3.934446 -0.888299
v -0.259565 4.484446 -1.254603
v -0.206889 3.915605 -0.914434
v -0.271739 4.465604 -1.280738
v -0.192840 3.899338 -0.941345
v -0.257690 4.449337 -1.307649
v -0.163455 3.910577 -0.944210
v 0.044120 4.610576 -1.185786
v -0.142661 3.907611 -0.934936
v 0.064914 4.607611 -1.176512
v -0.133268 3.911903 -0.914428
v 0.074307 4.611903 -1.156004
v -0.140778 3.920938 -0.894701
v 0.066797 4.620938 -1.136277
v -0.160792 3.929424 -0.887309
v 0.046783 4.629423 -1.128885
v -0.181587 3.932389 -0.896584
v 0.025989 4.632389 -1.138160
v -0.190980 3.928097 -0.917091
v 0.016595 4.628097 -1.158667
v -0.183470 3.919062 -0.936819
v 0.024106 4.619062 -1.178395
v -0.008247 3.682570 -0.037030
v -0.464334 4.382569 0.680246
v 0.025815 3.687675 -0.020352
v -0.430272 4.387674 0.696924
v 0.044756 3.670710 0.008247
v -0.411331 4.370710 0.725523
v 0.037479 3.641614 0.032016
v -0.418608 4.341614 0.749292
v 0.008247 3.617430 0.037029
v -0.447840 4.317430 0.754305
v -0.025815 3.612326 0.020352
v -0.481902 4.312325 0.737628
v -0.044756 3.629290 -0.008247
v -0.500843 4.329290 0.709028
v -0.037479 3.658386 -0.032016
v -0.493566 4.358386 0.685260
v -0.459131 4.369967 0.677063
v -0.641566 4.919968 0.963974
v -0.427788 4.373096 0.690994
v -0.610223 4.923097 0.977904
v -0.413023 4.362697 0.720320
v -0.595458 4.912696 1.007230
v -0.423483 4.344859 0.747863
v -0.605918 4.894859 1.034773
v -0.453043 4.330032 0.757488
v -0.635478 4.880033 1.044399
v -0.484385 4.326903 0.743558
v -0.666820 4.876904 1.030468
v -0.499151 4.337304 0.714232
v -0.681586 4.887304 1.001142
v -0.488691 4.355142 0.686689
v -0.671125 4.905141 0.973599
v -0.456429 4.346738 0.687456
v -0.307646 5.046739 0.609183
v -0.435575 4.343309 0.696432
v -0.286792 5.043310 0.618159
v -0.426737 4.343800 0.717618
v -0.277954 5.043800 0.639345
v -0.435091 4.347922 0.738604
v -0.286309 5.047923 0.660331
v -0.455745 4.353262 0.747096
v -0.306963 5.053262 0.668824
v -0.476599 4.356690 0.738120
v -0.327817 5.056691 0.659848
v -0.485437 4.356200 0.716934
v -0.336655 5.056200 0.638662
v -0.477082 4.352077 0.695948
v -0.328300 5.052077 0.617676
v -0.003531 4.071733 -0.042050
v 0.740025 4.771734 -0.242109
v 0.018628 4.052429 -0.027237
v 0.762184 4.752429 -0.227296
v 0.029875 4.049275 0.003531
v 0.773432 4.749276 -0.196528
v 0.023622 4.064120 0.032231
v 0.767178 4.764121 -0.167829
v 0.003531 4.088267 0.042050
v 0.747088 4.788268 -0.158009
v -0.018628 4.107572 0.027237
v 0.724929 4.807572 -0.172823
v -0.029875 4.110725 -0.003531
v 0.713681 4.810726 -0.203591
v -0.023622 4.095881 -0.032231
v 0.719935 4.795881 -0.232290
v 0.742117 4.774288 -0.244672
v 1.039540 5.324287 -0.324696
v 0.770575 4.760947 -0.230587
v 1.067998 5.310947 -0.310611
v 0.783207 4.758768 -0.198620
v 1.080629 5.308768 -0.278644
v 0.772611 4.769027 -0.167496
v 1.070034 5.319026 -0.247519
v 0.744996 4.785713 -0.155447
v 1.042418 5.335712 -0.235470
v 0.716537 4.799053 -0.169531
v 1.013960 5.349053 -0.249555
v 0.703906 4.801232 -0.201499
v 1.001329 5.351232 -0.281523
v 0.714502 4.790975 -0.232623
v 1.011924 5.340973 -0.312647
v 0.741961 4.773769 -0.229362
v 1.130673 5.473769 -0.399368
v 0.761063 4.765520 -0.219652
v 1.149774 5.465520 -0.389657
v 0.769910 4.765753 -0.198464
v 1.158621 5.465753 -0.368470
v 0.763319 4.774332 -0.178212
v 1.152030 5.474332 -0.348218
v 0.745151 4.786231 -0.170757
v 1.133863 5.486230 -0.340763
v 0.726050 4.794479 -0.180467
v 1.114761 5.494480 -0.350473
v 0.717203 4.794247 -0.201654
v 1.105915 5.494246 -0.371660
v 0.723794 4.785667 -0.221907
v 1.112505 5.485668 -0.391913
v 0.000000 0.392848 0.037139
v 0.000000 0.132848 0.687139
v 0.070711 0.365653 0.026261
v 0.070711 0.105653 0.676261
v 0.100000 0.300000 0.000000
v 0.100000 0.040000 0.650000
v 0.070711 0.234347 -0.026261
v 0.070711 -0.025653 0.623739
v 0.000000 0.207152 -0.037139
v 0.000000 -0.052848 0.612861
v -0.070711 0.234347 -0.026261
v -0.070711 -0.025653 0.623739
v -0.100000 0.300000 0.000000
v -0.100000 0.040000 0.650000
v -0.070711 0.365653 0.026261
v -0.070711 0.105653 0.676261
v 0.040304 0.328692 -0.086904
v 0.658491 0.068692 0.113957
v 0.011498 0.257848 -0.089950
v 0.629685 -0.002152 0.110911
v -0.024043 0.211697 -0.040304
v 0.594143 -0.048303 0.160557
v -0.045501 0.217272 0.032951
v 0.572686 -0.042728 0.233812
v -0.040304 0.271309 0.086904
v 0.577883 0.011309 0.287765
v -0.011498 0.342152 0.089950
v 0.606689 0.082152 0.290811
v 0.024043 0.388304 0.040304
v 0.642230 0.128303 0.241165
v 0.045501 0.382728 -0.032951
v 0.663687 0.122728 0.167910
v -0.065214 0.224885 -0.010241
v 0.316847 -0.035115 -0.536102
v -0.008905 0.208296 0.038871
v 0.373155 -0.051705 -0.486990
v 0.052620 0.245426 0.065214
v 0.434680 -0.014574 -0.460648
v 0.083321 0.314525 0.053355
v 0.465381 0.054525 -0.472506
v 0.065214 0.375116 0.010241
v 0.447274 0.115115 -0.515620
v 0.008905 0.391705 -0.038871
v 0.390966 0.131705 -0.564732
v -0.052620 0.354575 -0.065214
v 0.329441 0.094575 -0.591075
v -0.083321 0.285476 -0.053355
v 0.298740 0.025475 -0.579216
v 0.065213 0.224885 -0.010241
v -0.316847 -0.035115 -0.536102
v 0.083321 0.285475 -0.053355
v -0.298740 0.025475 -0.579216
v 0.052620 0.354575 -0.065214
v -0.329441 0.094575 -0.591075
v -0.008905 0.391705 -0.038871
v -0.390966 0.131705 -0.564732
v -0.065214 0.375115 0.010241
v -0.447274 0.115115 -0.515620
v -0.083321 0.314525 0.053355
v -0.465381 0.054525 -0.472506
v -0.052620 0.245426 0.065214
v -0.434680 -0.014575 -0.460648
v 0.008905 0.208296 0.038871
v -0.373155 -0.051705 -0.486990
v -0.040304 0.328692 -0.086904
v -0.658491 0.068692 0.113957
v -0.045501 0.382728 -0.032951
v -0.663687 0.122728 0.167910
v -0.024043 0.388303 0.040304
v -0.642230 0.128303 0.241165
v 0.011498 0.342152 0.089950
v -0.606689 0.082152 0.290811
v 0.040304 0.271309 0.086904
v -0.577883 0.011308 0.287765
v 0.045501 0.217272 0.032951
v -0.572686 -0.042728 0.233812
v 0.024043 0.211697 -0.040304
v -0.594143 -0.048303 0.160557
v -0.011498 0.257848 -0.089950
v -0.629685 -0.002152 0.110911
vn 0.3825 -0.0127 -0.9239
vn 0.9234 -0.0308 -0.3827
vn 0.9234 -0.0308 0.3827
vn 0.3825 -0.0127 0.9239
vn -0.3825 0.0127 0.9239
vn -0.9234 0.0308 0.3827
vn 0.0333 0.9994 -0.0000
vn -0.9234 0.0308 -0.3827
vn -0.3825 0.0127 -0.9239
vn -0.0333 -0.9994 -0.0000
vn 0.3789 0.0881 -0.9212
vn 0.9195 0.1025 -0.3796
vn 0.9214 0.0568 0.3844
vn 0.3836 -0.0221 0.9232
vn -0.3789 -0.0881 0.9212
vn -0.9195 -0.1025 0.3796
vn -0.0862 0.9945 0.0597
vn -0.9214 -0.0568 -0.3844
vn -0.3836 0.0221 -0.9232
vn 0.0862 -0.9945 -0.0597
vn 0.3745 -0.1029 -0.9215
vn 0.9109 -0.1634 -0.3789
vn 0.9137 -0.1282 0.3857
vn 0.3813 -0.0179 0.9243
vn -0.3745 0.1029 0.9215
vn -0.9109 0.1634 0.3789
vn 0.1578 0.9864 -0.0460
vn -0.9137 0.1282 -0.3857
vn -0.3813 0.0179 -0.9243
vn -0.1578 -0.9864 0.0460
vn 0.3704 -0.1652 -0.9141
vn 0.9104 -0.1812 -0.3719
vn 0.9171 -0.0910 0.3881
vn 0.3866 0.0525 0.9208
vn -0.3704 0.1652 0.9141
vn -0.9104 0.1812 0.3719
vn 0.1473 0.9820 -0.1178
vn -0.9171 0.0910 -0.3881
vn -0.3866 -0.0525 -0.9208
vn -0.1473 -0.9820 0.1178
vn 0.3827 0.8061 -0.4514
vn 0.9239 0.3339 -0.1870
vn 0.9239 -0.3339 0.1870
vn 0.3827 -0.8061 0.4514
vn -0.3827 -0.8061 0.4514
vn -0.9239 -0.3339 0.1870
vn -0.0000 0.4886 0.8725
vn -0.9239 0.3339 -0.1870
vn -0.3827 0.8061 -0.4514
vn -0.0000 -0.4886 -0.8725
vn 0.3827 0.6215 -0.6836
vn 0.9239 0.2574 -0.2832
vn 0.9239 -0.2574 0.2832
vn 0.3827 -0.6215 0.6836
vn -0.3827 -0.6215 0.6836
vn -0.9239 -0.2574 0.2832
vn -0.0000 0.7399 0.6727
vn -0.9239 0.2574 -0.2832
vn -0.3827 0.6215 -0.6836
vn -0.0000 -0.7399 -0.6727
vn 0.3568 -0.1552 -0.9212
vn 0.8718 -0.3124 -0.3773
vn 0.8761 -0.2865 0.3877
vn 0.3672 -0.0928 0.9255
vn -0.3568 0.1552 0.9212
vn -0.8718 0.3124 0.3773
vn 0.3241 0.9454 -0.0338
vn -0.8761 0.2865 -0.3877
vn -0.3672 0.0928 -0.9255
vn -0.3241 -0.9454 0.0338
vn 0.0738 -0.8064 -0.5867
vn 0.6260 -0.7777 -0.0575
vn 0.8115 -0.2934 0.5053
vn 0.5216 0.3628 0.7722
vn -0.0738 0.8064 0.5867
vn -0.6260 0.7777 0.0575
vn 0.5796 0.5134 -0.6328
vn -0.8115 0.2934 -0.5053
vn -0.5216 -0.3628 -0.7722
vn -0.5796 -0.5134 0.6328
vn 0.2314 -0.6090 -0.7587
vn 0.7779 -0.5873 -0.2234
vn 0.8688 -0.2215 0.4428
vn 0.4508 0.2740 0.8496
vn -0.2314 0.6090 0.7587
vn -0.7779 0.5873 0.2234
vn 0.4377 0.7616 -0.4779
vn -0.8688 0.2215 -0.4428
vn -0.4508 -0.2740 -0.8496
vn -0.4377 -0.7616 0.4779
vn 0.2685 -0.4416 -0.8561
vn 0.7827 -0.5460 -0.2989
vn 0.8384 -0.3305 0.4334
vn 0.4030 0.0786 0.9118
vn -0.2685 0.4416 0.8561
vn -0.7827 0.5460 0.2989
vn 0.4743 0.8341 -0.2815
vn -0.8384 0.3305 -0.4334
vn -0.4030 -0.0786 -0.9118
vn -0.4743 -0.8341 0.2815
vn 0.1711 0.3888 -0.9053
vn 0.4872 0.8026 -0.3443
vn 0.5178 0.7462 0.4184
vn 0.2451 0.2527 0.9360
vn -0.1711 -0.3888 0.9053
vn -0.4872 -0.8026 0.3443
vn -0.8382 0.5404 0.0736
vn -0.5178 -0.7462 -0.4184
vn -0.2452 -0.2527 -0.9360
vn 0.8382 -0.5404 -0.0736
vn 0.2831 0.2870 -0.9151
vn 0.7183 0.5925 -0.3646
vn 0.7327 0.5509 0.3995
vn 0.3179 0.1866 0.9296
vn -0.2831 -0.2870 0.9151
vn -0.7183 -0.5925 0.3646
vn -0.6188 0.7836 0.0544
vn -0.7327 -0.5509 -0.3995
vn -0.3179 -0.1866 -0.9296
vn 0.6188 -0.7836 -0.0544
vn 0.3795 -0.1939 -0.9046
vn 0.9222 -0.1048 -0.3723
vn 0.9246 0.0457 0.3781
vn 0.3854 0.1694 0.9071
vn -0.3796 0.1939 0.9046
vn -0.9222 0.1048 0.3723
vn 0.0320 0.9800 -0.1966
vn -0.9246 -0.0457 -0.3781
vn -0.3854 -0.1694 -0.9071
vn -0.0320 -0.9800 0.1966
vn 0.4709 0.2123 -0.8562
vn 0.7529 -0.4113 -0.5137
vn 0.5939 -0.7940 0.1298
vn 0.0870 -0.7116 0.6972
vn -0.4709 -0.2123 0.8562
vn -0.7529 0.4113 0.5137
vn 0.6523 0.5696 0.5000
vn -0.5939 0.7940 -0.1298
vn -0.0870 0.7116 -0.6972
vn -0.6523 -0.5696 -0.5000
vn 0.4225 0.1529 -0.8934
vn 0.8468 -0.2963 -0.4418
vn 0.7751 -0.5719 0.2686
vn 0.2493 -0.5125 0.8217
vn -0.4225 -0.1529 0.8934
vn -0.8468 0.2963 0.4418
vn 0.4699 0.8059 0.3601
vn -0.7751 0.5719 -0.2686
vn -0.2493 0.5125 -0.8217
vn -0.4698 -0.8059 -0.3601
vn 0.3059 -0.2897 -0.9069
vn 0.7920 -0.4977 -0.3535
vn 0.8142 -0.4141 0.4070
vn 0.3594 -0.0880 0.9290
vn -0.3059 0.2897 0.9069
vn -0.7920 0.4977 0.3535
vn 0.4935 0.8629 -0.1092
vn -0.8142 0.4141 -0.4070
vn -0.3594 0.0880 -0.9290
vn -0.4935 -0.8629 0.1092
vn 0.4413 -0.6735 -0.5930
vn 0.9389 -0.1724 -0.2980
vn 0.8865 0.4297 0.1716
vn 0.3148 0.7802 0.5406
vn -0.4413 0.6736 0.5930
vn -0.9389 0.1724 0.2980
vn -0.1393 0.6014 -0.7867
vn -0.8865 -0.4298 -0.1716
vn -0.3148 -0.7801 -0.5406
vn 0.1393 -0.6014 0.7867
vn 0.4079 -0.4723 -0.7814
vn 0.9303 -0.1209 -0.3462
vn 0.9078 0.3013 0.2918
vn 0.3535 0.5471 0.7588
vn -0.4079 0.4723 0.7814
vn -0.9303 0.1209 0.3462
vn -0.0977 0.8283 -0.5517
vn -0.9078 -0.3013 -0.2918
vn -0.3534 -0.5471 -0.7588
vn 0.0977 -0.8283 0.5517
vn 0.3271 -0.3935 -0.8592
vn 0.8717 -0.3696 -0.3219
vn 0.9056 -0.1292 0.4039
vn 0.4091 0.1869 0.8931
vn -0.3271 0.3935 0.8592
vn -0.8717 0.3696 0.3219
vn 0.2699 0.9102 -0.3141
vn -0.9056 0.1292 -0.4039
vn -0.4091 -0.1869 -0.8931
vn -0.2699 -0.9102 0.3141
vn 0.1902 0.7603 -0.6211
vn 0.7639 0.6319 -0.1310
vn 0.8901 0.1334 0.4358
vn 0.4949 -0.4433 0.7473
vn -0.1902 -0.7603 0.6211
vn -0.7639 -0.6319 0.1310
vn -0.4142 0.6357 0.6514
vn -0.8901 -0.1334 -0.4358
vn -0.4950 0.4433 -0.7473
vn 0.4142 -0.6357 -0.6514
vn 0.3037 0.5179 -0.7997
vn 0.8582 0.4305 -0.2795
vn 0.9100 0.0909 0.4045
vn 0.4287 -0.3020 0.8515
vn -0.3037 -0.5179 0.7997
vn -0.8583 -0.4305 0.2795
vn -0.2821 0.8506 0.4437
vn -0.9100 -0.0909 -0.4045
vn -0.4287 0.3020 -0.8515
vn 0.2821 -0.8506 -0.4437
vn 0.3639 -0.1795 -0.9140
vn 0.8995 -0.2325 -0.3699
vn 0.9082 -0.1493 0.3909
vn 0.3849 0.0214 0.9227
vn -0.3639 0.1795 0.9140
vn -0.8995 0.2325 0.3699
vn 0.2067 0.9723 -0.1087
vn -0.9082 0.1493 -0.3909
vn -0.3849 -0.0214 -0.9227
vn -0.2067 -0.9724 0.1087
vn 0.1900 -0.4511 -0.8720
vn 0.6105 -0.7337 -0.2984
vn 0.6733 -0.5866 0.4501
vn 0.3417 -0.0958 0.9349
vn -0.1900 0.4511 0.8720
vn -0.6105 0.7337 0.2983
vn 0.7145 0.6727 -0.1922
vn -0.6733 0.5866 -0.4501
vn -0.3417 0.0958 -0.9349
vn -0.7145 -0.6727 0.1923
vn 0.3076 -0.2978 -0.9037
vn 0.8018 -0.4845 -0.3498
vn 0.8263 -0.3873 0.4090
vn 0.3667 -0.0633 0.9282
vn -0.3076 0.2978 0.9037
vn -0.8018 0.4845 0.3498
vn 0.4718 0.8725 -0.1270
vn -0.8263 0.3873 -0.4089
vn -0.3667 0.0633 -0.9282
vn -0.4718 -0.8725 0.1269
vn 0.2870 -0.3736 -0.8821
vn 0.7912 -0.5182 -0.3247
vn 0.8319 -0.3593 0.4229
vn 0.3853 0.0102 0.9227
vn -0.2870 0.3736 0.8821
vn -0.7912 0.5182 0.3247
vn 0.4749 0.8552 -0.2077
vn -0.8319 0.3593 -0.4229
vn -0.3853 -0.0102 -0.9227
vn -0.4749 -0.8552 0.2077
vn 0.3827 0.8578 0.3431
vn 0.9239 0.3553 0.1421
vn 0.9239 -0.3553 -0.1421
vn 0.3827 -0.8578 -0.3431
vn -0.3827 -0.8578 -0.3431
vn -0.9239 -0.3553 -0.1421
vn -0.0000 -0.3714 0.9285
vn -0.9239 0.3553 0.1421
vn -0.3827 0.8578 0.3431
vn -0.0000 0.3714 -0.9285
vn 0.2804 -0.0728 -0.9571
vn -0.0679 -0.7060 -0.7049
vn -0.3764 -0.9256 -0.0398
vn -0.4644 -0.6030 0.6487
vn -0.2804 0.0728 0.9571
vn 0.0679 0.7060 0.7049
vn 0.8830 -0.3714 0.2869
vn 0.3764 0.9256 0.0398
vn 0.4644 0.6030 -0.6487
vn -0.8830 0.3714 -0.2869
vn -0.4011 -0.9028 0.1549
vn 0.2366 -0.7917 0.5633
vn 0.7357 -0.2167 0.6417
vn 0.8039 0.4851 0.3442
vn 0.4011 0.9028 -0.1549
vn -0.2366 0.7917 -0.5633
vn 0.5457 -0.3714 -0.7512
vn -0.7357 0.2167 -0.6417
vn -0.8039 -0.4851 -0.3442
vn -0.5457 0.3714 0.7512
vn 0.8039 -0.4851 -0.3442
vn 0.7357 0.2167 -0.6417
vn 0.2366 0.7917 -0.5633
vn -0.4011 0.9028 -0.1549
vn -0.8039 0.4851 0.3442
vn -0.7357 -0.2167 0.6417
vn -0.5457 -0.3714 -0.7512
vn -0.2366 -0.7917 0.5633
vn 0.4011 -0.9028 0.1549
vn 0.5457 0.3714 0.7512
vn -0.4644 0.6030 -0.6487
vn -0.3764 0.9256 0.0398
vn -0.0679 0.7060 0.7049
vn 0.2804 0.0728 0.9571
vn 0.4644 -0.6030 0.6487
vn 0.3764 -0.9256 -0.0398
vn -0.8830 -0.3714 0.2869
vn 0.0679 -0.7060 -0.7049
vn -0.2804 -0.0728 -0.9571
vn 0.8830 0.3714 -0.2869
vn 0.1473 0.9820 -0.1179
vn 0.3242 0.9454 -0.0338
vn -0.3242 -0.9454 0.0338
vn -0.2313 0.6090 0.7587
vn 0.4378 0.7616 -0.4779
vn 0.4743 0.8341 -0.2816
vn 0.2452 0.2527 0.9360
vn -0.2451 -0.2527 -0.9360
vn -0.6188 0.7837 0.0544
vn 0.6188 -0.7837 -0.0544
vn 0.3796 -0.1939 -0.9046
vn 0.0319 0.9800 -0.1966
vn -0.9246 -0.0457 -0.3782
vn -0.4709 -0.2123 0.8563
vn 0.4698 0.8060 0.3602
vn 0.4698 0.8059 0.3601
vn 0.4699 0.8059 0.3602
vn -0.4699 -0.8059 -0.3601
vn 0.4935 0.8629 -0.1091
vn 0.4935 0.8628 -0.1092
vn -0.4935 -0.8629 0.1091
vn 0.8865 0.4298 0.1716
vn 0.3148 0.7801 0.5406
vn -0.4413 0.6735 0.5930
vn -0.8865 -0.4297 -0.1716
vn 0.9078 0.3014 0.2918
vn -0.0976 0.8283 -0.5517
vn -0.9078 -0.3014 -0.2918
vn -0.3535 -0.5471 -0.7588
vn 0.0976 -0.8283 0.5517
vn 0.2698 0.9102 -0.3141
vn 0.1901 0.7603 -0.6211
vn -0.4949 0.4433 -0.7473
vn -0.8582 -0.4305 0.2795
vn -0.2822 0.8506 0.4437
vn 0.2821 -0.8506 -0.4438
vn 0.2066 0.9724 -0.1088
vn 0.2067 0.9724 -0.1087
vn 0.2066 0.9724 -0.1087
vn -0.2067 -0.9723 0.1088
vn -0.2067 -0.9723 0.1087
vn 0.6105 -0.7337 -0.2983
vn -0.6105 0.7337 0.2984
vn 0.7145 0.6727 -0.1923
vn -0.3418 0.0958 -0.9349
vn 0.8263 -0.3873 0.4089
vn 0.4718 0.8725 -0.1269
vn -0.4718 -0.8725 0.1270
vn -0.4750 -0.8551 0.2077
vt 0.125000 0.875000
vt 0.625000 0.125000
s 0
usemtl WorldPickupPalette
f 2/1/1 3/1/1 1/1/1
f 3/1/2 6/1/2 5/1/2
f 6/1/3 7/1/3 5/1/3
f 7/1/4 10/1/4 9/1/4
f 9/1/5 12/1/5 11/1/5
f 12/1/6 13/1/6 11/1/6
f 14/1/7 10/1/7 6/1/7
f 13/1/8 16/1/8 15/1/8
f 16/1/9 1/1/9 15/1/9
f 7/1/10 11/1/10 15/1/10
f 17/1/11 20/1/11 19/1/11
f 20/1/12 21/1/12 19/1/12
f 22/1/13 23/1/13 21/1/13
f 23/1/14 26/1/14 25/1/14
f 25/1/15 28/1/15 27/1/15
f 28/1/16 29/1/16 27/1/16
f 30/1/17 26/1/17 22/1/17
f 30/1/18 31/1/18 29/1/18
f 31/1/19 18/1/19 17/1/19
f 23/1/20 27/1/20 31/1/20
f 34/1/21 35/1/21 33/1/21
f 35/1/22 38/1/22 37/1/22
f 37/1/23 40/1/23 39/1/23
f 40/1/24 41/1/24 39/1/24
f 42/1/25 43/1/25 41/1/25
f 44/1/26 45/1/26 43/1/26
f 46/1/27 42/1/27 38/1/27
f 46/1/28 47/1/28 45/1/28
f 47/1/29 34/1/29 33/1/29
f 35/1/30 39/1/30 43/1/30
f 49/1/31 52/1/31 51/1/31
f 52/1/32 53/1/32 51/1/32
f 53/1/33 56/1/33 55/1/33
f 56/1/34 57/1/34 55/1/34
f 57/1/35 60/1/35 59/1/35
f 60/1/36 61/1/36 59/1/36
f 58/1/37 56/1/37 54/1/37
f 62/1/38 63/1/38 61/1/38
f 63/1/39 50/1/39 49/1/39
f 59/1/40 61/1/40 63/1/40
f 65/1/41 68/1/41 67/1/41
f 68/1/42 69/1/42 67/1/42
f 69/1/43 72/1/43 71/1/43
f 72/1/44 73/1/44 71/1/44
f 74/1/45 75/1/45 73/1/45
f 76/1/46 77/1/46 75/1/46
f 72/1/47 70/1/47 78/1/47
f 78/1/48 79/1/48 77/1/48
f 80/1/49 65/1/49 79/1/49
f 79/1/50 67/1/50 71/1/50
f 81/2/51 84/2/51 83/2/51
f 84/2/52 85/2/52 83/2/52
f 85/2/53 88/2/53 87/2/53
f 88/2/54 89/2/54 87/2/54
f 89/2/55 92/2/55 91/2/55
f 92/2/56 93/2/56 91/2/56
f 82/2/57 94/2/57 90/2/57
f 93/2/58 96/2/58 95/2/58
f 96/2/59 81/2/59 95/2/59
f 91/2/60 93/2/60 95/2/60
f 97/1/61 100/1/61 99/1/61
f 100/1/62 101/1/62 99/1/62
f 101/1/63 104/1/63 103/1/63
f 103/1/64 106/1/64 105/1/64
f 106/1/65 107/1/65 105/1/65
f 108/1/66 109/1/66 107/1/66
f 98/1/67 110/1/67 106/1/67
f 110/1/68 111/1/68 109/1/68
f 112/1/69 97/1/69 111/1/69
f 99/1/70 103/1/70 107/1/70
f 114/1/71 115/1/71 113/1/71
f 115/1/72 118/1/72 117/1/72
f 118/1/73 119/1/73 117/1/73
f 119/1/74 122/1/74 121/1/74
f 122/1/75 123/1/75 121/1/75
f 123/1/76 126/1/76 125/1/76
f 118/1/77 114/1/77 126/1/77
f 126/1/78 127/1/78 125/1/78
f 127/1/79 114/1/79 113/1/79
f 127/1/80 115/1/80 119/1/80
f 130/2/81 131/2/81 129/2/81
f 131/2/82 134/2/82 133/2/82
f 134/2/83 135/2/83 133/2/83
f 135/2/84 138/2/84 137/2/84
f 138/2/85 139/2/85 137/2/85
f 140/2/86 141/2/86 139/2/86
f 136/2/87 134/2/87 142/2/87
f 142/2/88 143/2/88 141/2/88
f 143/2/89 130/2/89 129/2/89
f 135/2/90 139/2/90 143/2/90
f 145/1/91 148/1/91 147/1/91
f 147/1/92 150/1/92 149/1/92
f 150/1/93 151/1/93 149/1/93
f 151/1/94 154/1/94 153/1/94
f 154/1/95 155/1/95 153/1/95
f 156/1/96 157/1/96 155/1/96
f 158/1/97 154/1/97 150/1/97
f 157/1/98 160/1/98 159/1/98
f 160/1/99 145/1/99 159/1/99
f 151/1/100 155/1/100 159/1/100
f 162/1/101 163/1/101 161/1/101
f 164/1/102 165/1/102 163/1/102
f 165/1/103 168/1/103 167/1/103
f 168/1/104 169/1/104 167/1/104
f 170/1/105 171/1/105 169/1/105
f 172/1/106 173/1/106 171/1/106
f 168/1/107 166/1/107 174/1/107
f 174/1/108 175/1/108 173/1/108
f 175/1/109 162/1/109 161/1/109
f 167/1/110 171/1/110 175/1/110
f 177/2/111 180/2/111 179/2/111
f 179/2/112 182/2/112 181/2/112
f 182/2/113 183/2/113 181/2/113
f 184/2/114 185/2/114 183/2/114
f 186/2/115 187/2/115 185/2/115
f 187/2/116 190/2/116 189/2/116
f 184/2/117 182/2/117 190/2/117
f 190/2/118 191/2/118 189/2/118
f 191/2/119 178/2/119 177/2/119
f 187/2/120 189/2/120 191/2/120
f 193/1/121 196/1/121 195/1/121
f 195/1/122 198/1/122 197/1/122
f 197/1/123 200/1/123 199/1/123
f 199/1/124 202/1/124 201/1/124
f 202/1/125 203/1/125 201/1/125
f 203/1/126 206/1/126 205/1/126
f 194/1/127 206/1/127 202/1/127
f 206/1/128 207/1/128 205/1/128
f 208/1/129 193/1/129 207/1/129
f 195/1/130 199/1/130 203/1/130
f 210/1/131 211/1/131 209/1/131
f 211/1/132 214/1/132 213/1/132
f 214/1/133 215/1/133 213/1/133
f 216/1/134 217/1/134 215/1/134
f 218/1/135 219/1/135 217/1/135
f 219/1/136 222/1/136 221/1/136
f 216/1/137 214/1/137 222/1/137
f 222/1/138 223/1/138 221/1/138
f 224/1/139 209/1/139 223/1/139
f 221/1/140 223/1/140 215/1/140
f 225/2/141 228/2/141 227/2/141
f 228/2/142 229/2/142 227/2/142
f 230/2/143 231/2/143 229/2/143
f 231/2/144 234/2/144 233/2/144
f 233/2/145 236/2/145 235/2/145
f 236/2/146 237/2/146 235/2/146
f 232/2/147 230/2/147 238/2/147
f 238/2/148 239/2/148 237/2/148
f 240/2/149 225/2/149 239/2/149
f 237/2/150 239/2/150 231/2/150
f 241/1/151 244/1/151 243/1/151
f 243/1/152 246/1/152 245/1/152
f 245/1/153 248/1/153 247/1/153
f 248/1/154 249/1/154 247/1/154
f 250/1/155 251/1/155 249/1/155
f 251/1/156 254/1/156 253/1/156
f 248/1/157 246/1/157 254/1/157
f 253/1/158 256/1/158 255/1/158
f 256/1/159 241/1/159 255/1/159
f 253/1/160 255/1/160 247/1/160
f 258/1/161 259/1/161 257/1/161
f 260/1/162 261/1/162 259/1/162
f 261/1/163 264/1/163 263/1/163
f 263/1/164 266/1/164 265/1/164
f 266/1/165 267/1/165 265/1/165
f 267/1/166 270/1/166 269/1/166
f 270/1/167 266/1/167 262/1/167
f 269/1/168 272/1/168 271/1/168
f 271/1/169 258/1/169 257/1/169
f 267/1/170 269/1/170 271/1/170
f 274/2/171 275/2/171 273/2/171
f 275/2/172 278/2/172 277/2/172
f 278/2/173 279/2/173 277/2/173
f 279/2/174 282/2/174 281/2/174
f 282/2/175 283/2/175 281/2/175
f 284/2/176 285/2/176 283/2/176
f 274/2/177 286/2/177 282/2/177
f 285/2/178 288/2/178 287/2/178
f 288/2/179 273/2/179 287/2/179
f 283/2/180 285/2/180 287/2/180
f 289/1/181 292/1/181 291/1/181
f 292/1/182 293/1/182 291/1/182
f 293/1/183 296/1/183 295/1/183
f 295/1/184 298/1/184 297/1/184
f 298/1/185 299/1/185 297/1/185
f 299/1/186 302/1/186 301/1/186
f 302/1/187 298/1/187 294/1/187
f 302/1/188 303/1/188 301/1/188
f 304/1/189 289/1/189 303/1/189
f 303/1/190 291/1/190 295/1/190
f 306/1/191 307/1/191 305/1/191
f 308/1/192 309/1/192 307/1/192
f 309/1/193 312/1/193 311/1/193
f 311/1/194 314/1/194 313/1/194
f 314/1/195 315/1/195 313/1/195
f 316/1/196 317/1/196 315/1/196
f 310/1/197 306/1/197 318/1/197
f 317/1/198 320/1/198 319/1/198
f 319/1/199 306/1/199 305/1/199
f 315/1/200 317/1/200 319/1/200
f 321/2/201 324/2/201 323/2/201
f 324/2/202 325/2/202 323/2/202
f 326/2/203 327/2/203 325/2/203
f 327/2/204 330/2/204 329/2/204
f 330/2/205 331/2/205 329/2/205
f 331/2/206 334/2/206 333/2/206
f 328/2/207 326/2/207 334/2/207
f 334/2/208 335/2/208 333/2/208
f 336/2/209 321/2/209 335/2/209
f 327/2/210 331/2/210 335/2/210
f 338/1/211 339/1/211 337/1/211
f 339/1/212 342/1/212 341/1/212
f 342/1/213 343/1/213 341/1/213
f 343/1/214 346/1/214 345/1/214
f 345/1/215 348/1/215 347/1/215
f 348/1/216 349/1/216 347/1/216
f 338/1/217 350/1/217 346/1/217
f 349/1/218 352/1/218 351/1/218
f 352/1/219 337/1/219 351/1/219
f 339/1/220 343/1/220 347/1/220
f 353/1/221 356/1/221 355/1/221
f 356/1/222 357/1/222 355/1/222
f 358/1/223 359/1/223 357/1/223
f 360/1/224 361/1/224 359/1/224
f 361/1/225 364/1/225 363/1/225
f 364/1/226 365/1/226 363/1/226
f 362/1/227 360/1/227 358/1/227
f 366/1/228 367/1/228 365/1/228
f 367/1/229 354/1/229 353/1/229
f 367/1/230 355/1/230 359/1/230
f 369/2/231 372/2/231 371/2/231
f 371/2/232 374/2/232 373/2/232
f 374/2/233 375/2/233 373/2/233
f 375/2/234 378/2/234 377/2/234
f 377/2/235 380/2/235 379/2/235
f 380/2/236 381/2/236 379/2/236
f 376/2/237 374/2/237 382/2/237
f 381/2/238 384/2/238 383/2/238
f 384/2/239 369/2/239 383/2/239
f 375/2/240 379/2/240 383/2/240
f 385/1/241 388/1/241 387/1/241
f 388/1/242 389/1/242 387/1/242
f 390/1/243 391/1/243 389/1/243
f 391/1/244 394/1/244 393/1/244
f 394/1/245 395/1/245 393/1/245
f 395/1/246 398/1/246 397/1/246
f 392/1/247 390/1/247 398/1/247
f 397/1/248 400/1/248 399/1/248
f 400/1/249 385/1/249 399/1/249
f 391/1/250 395/1/250 399/1/250
f 401/1/251 404/1/251 403/1/251
f 404/1/252 405/1/252 403/1/252
f 406/1/253 407/1/253 405/1/253
f 407/1/254 410/1/254 409/1/254
f 410/1/255 411/1/255 409/1/255
f 412/1/256 413/1/256 411/1/256
f 414/1/257 410/1/257 406/1/257
f 413/1/258 416/1/258 415/1/258
f 416/1/259 401/1/259 415/1/259
f 407/1/260 411/1/260 415/1/260
f 417/1/261 420/1/261 419/1/261
f 419/1/262 422/1/262 421/1/262
f 422/1/263 423/1/263 421/1/263
f 424/1/264 425/1/264 423/1/264
f 426/1/265 427/1/265 425/1/265
f 427/1/266 430/1/266 429/1/266
f 424/1/267 422/1/267 430/1/267
f 430/1/268 431/1/268 429/1/268
f 432/1/269 417/1/269 431/1/269
f 431/1/270 419/1/270 423/1/270
f 434/1/271 435/1/271 433/1/271
f 436/1/272 437/1/272 435/1/272
f 438/1/273 439/1/273 437/1/273
f 440/1/274 441/1/274 439/1/274
f 442/1/275 443/1/275 441/1/275
f 443/1/276 446/1/276 445/1/276
f 446/1/277 442/1/277 438/1/277
f 446/1/278 447/1/278 445/1/278
f 447/1/279 434/1/279 433/1/279
f 445/1/280 447/1/280 439/1/280
f 450/1/281 451/1/281 449/1/281
f 451/1/282 454/1/282 453/1/282
f 454/1/283 455/1/283 453/1/283
f 455/1/284 458/1/284 457/1/284
f 457/1/285 460/1/285 459/1/285
f 460/1/286 461/1/286 459/1/286
f 462/1/287 458/1/287 454/1/287
f 462/1/288 463/1/288 461/1/288
f 463/1/289 450/1/289 449/1/289
f 461/1/290 463/1/290 455/1/290
f 465/1/291 468/1/291 467/1/291
f 467/1/292 470/1/292 469/1/292
f 470/1/293 471/1/293 469/1/293
f 471/1/294 474/1/294 473/1/294
f 474/1/295 475/1/295 473/1/295
f 475/1/296 478/1/296 477/1/296
f 472/1/297 470/1/297 478/1/297
f 478/1/298 479/1/298 477/1/298
f 480/1/299 465/1/299 479/1/299
f 477/1/300 479/1/300 471/1/300
f 2/1/1 4/1/1 3/1/1
f 3/1/2 4/1/2 6/1/2
f 6/1/3 8/1/3 7/1/3
f 7/1/4 8/1/4 10/1/4
f 9/1/5 10/1/5 12/1/5
f 12/1/6 14/1/6 13/1/6
f 6/1/7 4/1/7 2/1/7
f 2/1/7 16/1/7 14/1/7
f 14/1/7 12/1/7 10/1/7
f 10/1/7 8/1/7 6/1/7
f 6/1/7 2/1/7 14/1/7
f 13/1/8 14/1/8 16/1/8
f 16/1/9 2/1/9 1/1/9
f 15/1/10 1/1/10 3/1/10
f 3/1/10 5/1/10 7/1/10
f 7/1/10 9/1/10 11/1/10
f 11/1/10 13/1/10 15/1/10
f 15/1/10 3/1/10 7/1/10
f 17/1/11 18/1/11 20/1/11
f 20/1/12 22/1/12 21/1/12
f 22/1/13 24/1/13 23/1/13
f 23/1/14 24/1/14 26/1/14
f 25/1/15 26/1/15 28/1/15
f 28/1/16 30/1/16 29/1/16
f 22/1/17 20/1/17 30/1/17
f 20/1/17 18/1/17 30/1/17
f 18/1/17 32/1/17 30/1/17
f 30/1/17 28/1/17 26/1/17
f 26/1/17 24/1/17 22/1/17
f 30/1/18 32/1/18 31/1/18
f 31/1/19 32/1/19 18/1/19
f 31/1/20 17/1/20 19/1/20
f 19/1/20 21/1/20 31/1/20
f 21/1/20 23/1/20 31/1/20
f 23/1/20 25/1/20 27/1/20
f 27/1/20 29/1/20 31/1/20
f 34/1/21 36/1/21 35/1/21
f 35/1/22 36/1/22 38/1/22
f 37/1/23 38/1/23 40/1/23
f 40/1/24 42/1/24 41/1/24
f 42/1/25 44/1/25 43/1/25
f 44/1/26 46/1/26 45/1/26
f 38/1/27 36/1/27 34/1/27
f 34/1/27 48/1/27 46/1/27
f 46/1/27 44/1/27 42/1/27
f 42/1/27 40/1/27 38/1/27
f 38/1/27 34/1/27 46/1/27
f 46/1/28 48/1/28 47/1/28
f 47/1/29 48/1/29 34/1/29
f 47/1/30 33/1/30 35/1/30
f 35/1/30 37/1/30 39/1/30
f 39/1/30 41/1/30 43/1/30
f 43/1/30 45/1/30 47/1/30
f 47/1/30 35/1/30 43/1/30
f 49/1/31 50/1/31 52/1/31
f 52/1/32 54/1/32 53/1/32
f 53/1/33 54/1/33 56/1/33
f 56/1/34 58/1/34 57/1/34
f 57/1/35 58/1/35 60/1/35
f 60/1/36 62/1/36 61/1/36
f 54/1/301 52/1/301 50/1/301
f 50/1/301 64/1/301 54/1/301
f 64/1/37 62/1/37 54/1/37
f 62/1/37 60/1/37 54/1/37
f 60/1/301 58/1/301 54/1/301
f 62/1/38 64/1/38 63/1/38
f 63/1/39 64/1/39 50/1/39
f 63/1/40 49/1/40 51/1/40
f 51/1/40 53/1/40 63/1/40
f 53/1/40 55/1/40 63/1/40
f 55/1/40 57/1/40 63/1/40
f 57/1/40 59/1/40 63/1/40
f 65/1/41 66/1/41 68/1/41
f 68/1/42 70/1/42 69/1/42
f 69/1/43 70/1/43 72/1/43
f 72/1/44 74/1/44 73/1/44
f 74/1/45 76/1/45 75/1/45
f 76/1/46 78/1/46 77/1/46
f 70/1/47 68/1/47 78/1/47
f 68/1/47 66/1/47 78/1/47
f 66/1/47 80/1/47 78/1/47
f 78/1/47 76/1/47 74/1/47
f 74/1/47 72/1/47 78/1/47
f 78/1/48 80/1/48 79/1/48
f 80/1/49 66/1/49 65/1/49
f 79/1/50 65/1/50 67/1/50
f 67/1/50 69/1/50 71/1/50
f 71/1/50 73/1/50 79/1/50
f 73/1/50 75/1/50 79/1/50
f 75/1/50 77/1/50 79/1/50
f 81/2/51 82/2/51 84/2/51
f 84/2/52 86/2/52 85/2/52
f 85/2/53 86/2/53 88/2/53
f 88/2/54 90/2/54 89/2/54
f 89/2/55 90/2/55 92/2/55
f 92/2/56 94/2/56 93/2/56
f 86/2/57 84/2/57 82/2/57
f 82/2/57 96/2/57 94/2/57
f 94/2/57 92/2/57 90/2/57
f 90/2/57 88/2/57 86/2/57
f 86/2/57 82/2/57 90/2/57
f 93/2/58 94/2/58 96/2/58
f 96/2/59 82/2/59 81/2/59
f 95/2/60 81/2/60 87/2/60
f 81/2/60 83/2/60 87/2/60
f 83/2/60 85/2/60 87/2/60
f 87/2/60 89/2/60 95/2/60
f 89/2/60 91/2/60 95/2/60
f 97/1/61 98/1/61 100/1/61
f 100/1/62 102/1/62 101/1/62
f 101/1/63 102/1/63 104/1/63
f 103/1/64 104/1/64 106/1/64
f 106/1/65 108/1/65 107/1/65
f 108/1/66 110/1/66 109/1/66
f 102/1/302 100/1/302 98/1/302
f 98/1/67 112/1/67 110/1/67
f 110/1/67 108/1/67 106/1/67
f 106/1/67 104/1/67 102/1/67
f 102/1/67 98/1/67 106/1/67
f 110/1/68 112/1/68 111/1/68
f 112/1/69 98/1/69 97/1/69
f 111/1/303 97/1/303 99/1/303
f 99/1/303 101/1/303 103/1/303
f 103/1/70 105/1/70 107/1/70
f 107/1/70 109/1/70 111/1/70
f 111/1/70 99/1/70 107/1/70
f 114/1/71 116/1/71 115/1/71
f 115/1/72 116/1/72 118/1/72
f 118/1/73 120/1/73 119/1/73
f 119/1/74 120/1/74 122/1/74
f 122/1/75 124/1/75 123/1/75
f 123/1/76 124/1/76 126/1/76
f 118/1/77 116/1/77 114/1/77
f 114/1/77 128/1/77 126/1/77
f 126/1/77 124/1/77 122/1/77
f 122/1/77 120/1/77 126/1/77
f 120/1/77 118/1/77 126/1/77
f 126/1/78 128/1/78 127/1/78
f 127/1/79 128/1/79 114/1/79
f 127/1/80 113/1/80 115/1/80
f 115/1/80 117/1/80 119/1/80
f 119/1/80 121/1/80 123/1/80
f 123/1/80 125/1/80 119/1/80
f 125/1/80 127/1/80 119/1/80
f 130/2/81 132/2/81 131/2/81
f 131/2/82 132/2/82 134/2/82
f 134/2/83 136/2/83 135/2/83
f 135/2/84 136/2/84 138/2/84
f 138/2/304 140/2/304 139/2/304
f 140/2/86 142/2/86 141/2/86
f 134/2/87 132/2/87 142/2/87
f 132/2/87 130/2/87 142/2/87
f 130/2/87 144/2/87 142/2/87
f 142/2/305 140/2/305 138/2/305
f 138/2/87 136/2/87 142/2/87
f 142/2/88 144/2/88 143/2/88
f 143/2/89 144/2/89 130/2/89
f 143/2/90 129/2/90 131/2/90
f 131/2/90 133/2/90 135/2/90
f 135/2/90 137/2/90 139/2/90
f 139/2/90 141/2/90 143/2/90
f 143/2/90 131/2/90 135/2/90
f 145/1/91 146/1/91 148/1/91
f 147/1/92 148/1/92 150/1/92
f 150/1/93 152/1/93 151/1/93
f 151/1/94 152/1/94 154/1/94
f 154/1/95 156/1/95 155/1/95
f 156/1/96 158/1/96 157/1/96
f 150/1/97 148/1/97 146/1/97
f 146/1/306 160/1/306 150/1/306
f 160/1/97 158/1/97 150/1/97
f 158/1/97 156/1/97 154/1/97
f 154/1/97 152/1/97 150/1/97
f 157/1/98 158/1/98 160/1/98
f 160/1/99 146/1/99 145/1/99
f 159/1/100 145/1/100 151/1/100
f 145/1/100 147/1/100 151/1/100
f 147/1/100 149/1/100 151/1/100
f 151/1/100 153/1/100 155/1/100
f 155/1/100 157/1/100 159/1/100
f 162/1/101 164/1/101 163/1/101
f 164/1/102 166/1/102 165/1/102
f 165/1/103 166/1/103 168/1/103
f 168/1/307 170/1/307 169/1/307
f 170/1/105 172/1/105 171/1/105
f 172/1/106 174/1/106 173/1/106
f 166/1/107 164/1/107 174/1/107
f 164/1/107 162/1/107 174/1/107
f 162/1/107 176/1/107 174/1/107
f 174/1/107 172/1/107 170/1/107
f 170/1/107 168/1/107 174/1/107
f 174/1/108 176/1/108 175/1/108
f 175/1/308 176/1/308 162/1/308
f 175/1/110 161/1/110 167/1/110
f 161/1/110 163/1/110 167/1/110
f 163/1/110 165/1/110 167/1/110
f 167/1/110 169/1/110 171/1/110
f 171/1/110 173/1/110 175/1/110
f 177/2/111 178/2/111 180/2/111
f 179/2/112 180/2/112 182/2/112
f 182/2/113 184/2/113 183/2/113
f 184/2/114 186/2/114 185/2/114
f 186/2/115 188/2/115 187/2/115
f 187/2/116 188/2/116 190/2/116
f 182/2/117 180/2/117 190/2/117
f 180/2/117 178/2/117 190/2/117
f 178/2/309 192/2/309 190/2/309
f 190/2/117 188/2/117 186/2/117
f 186/2/117 184/2/117 190/2/117
f 190/2/118 192/2/118 191/2/118
f 191/2/119 192/2/119 178/2/119
f 191/2/120 177/2/120 179/2/120
f 179/2/120 181/2/120 191/2/120
f 181/2/120 183/2/120 191/2/120
f 183/2/310 185/2/310 191/2/310
f 185/2/120 187/2/120 191/2/120
f 193/1/311 194/1/311 196/1/311
f 195/1/122 196/1/122 198/1/122
f 197/1/123 198/1/123 200/1/123
f 199/1/124 200/1/124 202/1/124
f 202/1/125 204/1/125 203/1/125
f 203/1/126 204/1/126 206/1/126
f 198/1/127 196/1/127 194/1/127
f 194/1/127 208/1/127 206/1/127
f 206/1/127 204/1/127 202/1/127
f 202/1/312 200/1/312 198/1/312
f 198/1/127 194/1/127 202/1/127
f 206/1/313 208/1/313 207/1/313
f 208/1/129 194/1/129 193/1/129
f 207/1/130 193/1/130 195/1/130
f 195/1/130 197/1/130 199/1/130
f 199/1/130 201/1/130 203/1/130
f 203/1/130 205/1/130 207/1/130
f 207/1/130 195/1/130 203/1/130
f 210/1/131 212/1/131 211/1/131
f 211/1/132 212/1/132 214/1/132
f 214/1/133 216/1/133 215/1/133
f 216/1/134 218/1/134 217/1/134
f 218/1/314 220/1/314 219/1/314
f 219/1/136 220/1/136 222/1/136
f 214/1/137 212/1/137 222/1/137
f 212/1/137 210/1/137 222/1/137
f 210/1/137 224/1/137 222/1/137
f 222/1/137 220/1/137 218/1/137
f 218/1/137 216/1/137 222/1/137
f 222/1/138 224/1/138 223/1/138
f 224/1/139 210/1/139 209/1/139
f 223/1/140 209/1/140 211/1/140
f 211/1/140 213/1/140 223/1/140
f 213/1/140 215/1/140 223/1/140
f 215/1/140 217/1/140 219/1/140
f 219/1/140 221/1/140 215/1/140
f 225/2/141 226/2/141 228/2/141
f 228/2/142 230/2/142 229/2/142
f 230/2/143 232/2/143 231/2/143
f 231/2/144 232/2/144 234/2/144
f 233/2/145 234/2/145 236/2/145
f 236/2/146 238/2/146 237/2/146
f 230/2/147 228/2/147 238/2/147
f 228/2/147 226/2/147 238/2/147
f 226/2/315 240/2/315 238/2/315
f 238/2/316 236/2/316 234/2/316
f 234/2/317 232/2/317 238/2/317
f 238/2/148 240/2/148 239/2/148
f 240/2/149 226/2/149 225/2/149
f 239/2/318 225/2/318 227/2/318
f 227/2/318 229/2/318 239/2/318
f 229/2/150 231/2/150 239/2/150
f 231/2/318 233/2/318 235/2/318
f 235/2/318 237/2/318 231/2/318
f 241/1/151 242/1/151 244/1/151
f 243/1/152 244/1/152 246/1/152
f 245/1/153 246/1/153 248/1/153
f 248/1/154 250/1/154 249/1/154
f 250/1/155 252/1/155 251/1/155
f 251/1/156 252/1/156 254/1/156
f 246/1/157 244/1/157 254/1/157
f 244/1/319 242/1/319 254/1/319
f 242/1/157 256/1/157 254/1/157
f 254/1/320 252/1/320 250/1/320
f 250/1/157 248/1/157 254/1/157
f 253/1/158 254/1/158 256/1/158
f 256/1/159 242/1/159 241/1/159
f 255/1/321 241/1/321 243/1/321
f 243/1/160 245/1/160 255/1/160
f 245/1/160 247/1/160 255/1/160
f 247/1/160 249/1/160 251/1/160
f 251/1/160 253/1/160 247/1/160
f 258/1/161 260/1/161 259/1/161
f 260/1/162 262/1/162 261/1/162
f 261/1/322 262/1/322 264/1/322
f 263/1/323 264/1/323 266/1/323
f 266/1/324 268/1/324 267/1/324
f 267/1/166 268/1/166 270/1/166
f 262/1/167 260/1/167 258/1/167
f 258/1/167 272/1/167 270/1/167
f 270/1/167 268/1/167 266/1/167
f 266/1/167 264/1/167 262/1/167
f 262/1/167 258/1/167 270/1/167
f 269/1/325 270/1/325 272/1/325
f 271/1/169 272/1/169 258/1/169
f 271/1/170 257/1/170 259/1/170
f 259/1/170 261/1/170 271/1/170
f 261/1/170 263/1/170 271/1/170
f 263/1/170 265/1/170 271/1/170
f 265/1/170 267/1/170 271/1/170
f 274/2/171 276/2/171 275/2/171
f 275/2/172 276/2/172 278/2/172
f 278/2/326 280/2/326 279/2/326
f 279/2/174 280/2/174 282/2/174
f 282/2/175 284/2/175 283/2/175
f 284/2/176 286/2/176 285/2/176
f 278/2/327 276/2/327 274/2/327
f 274/2/177 288/2/177 286/2/177
f 286/2/327 284/2/327 282/2/327
f 282/2/177 280/2/177 278/2/177
f 278/2/177 274/2/177 282/2/177
f 285/2/328 286/2/328 288/2/328
f 288/2/329 274/2/329 273/2/329
f 287/2/180 273/2/180 279/2/180
f 273/2/180 275/2/180 279/2/180
f 275/2/180 277/2/180 279/2/180
f 279/2/180 281/2/180 287/2/180
f 281/2/330 283/2/330 287/2/330
f 289/1/181 290/1/181 292/1/181
f 292/1/182 294/1/182 293/1/182
f 293/1/183 294/1/183 296/1/183
f 295/1/184 296/1/184 298/1/184
f 298/1/185 300/1/185 299/1/185
f 299/1/186 300/1/186 302/1/186
f 294/1/187 292/1/187 302/1/187
f 292/1/187 290/1/187 302/1/187
f 290/1/187 304/1/187 302/1/187
f 302/1/187 300/1/187 298/1/187
f 298/1/331 296/1/331 294/1/331
f 302/1/188 304/1/188 303/1/188
f 304/1/189 290/1/189 289/1/189
f 303/1/190 289/1/190 291/1/190
f 291/1/190 293/1/190 295/1/190
f 295/1/190 297/1/190 299/1/190
f 299/1/190 301/1/190 295/1/190
f 301/1/190 303/1/190 295/1/190
f 306/1/332 308/1/332 307/1/332
f 308/1/192 310/1/192 309/1/192
f 309/1/193 310/1/193 312/1/193
f 311/1/194 312/1/194 314/1/194
f 314/1/195 316/1/195 315/1/195
f 316/1/196 318/1/196 317/1/196
f 310/1/197 308/1/197 306/1/197
f 306/1/197 320/1/197 318/1/197
f 318/1/197 316/1/197 314/1/197
f 314/1/197 312/1/197 318/1/197
f 312/1/197 310/1/197 318/1/197
f 317/1/198 318/1/198 320/1/198
f 319/1/333 320/1/333 306/1/333
f 319/1/200 305/1/200 307/1/200
f 307/1/200 309/1/200 319/1/200
f 309/1/200 311/1/200 319/1/200
f 311/1/200 313/1/200 319/1/200
f 313/1/200 315/1/200 319/1/200
f 321/2/201 322/2/201 324/2/201
f 324/2/202 326/2/202 325/2/202
f 326/2/203 328/2/203 327/2/203
f 327/2/204 328/2/204 330/2/204
f 330/2/205 332/2/205 331/2/205
f 331/2/334 332/2/334 334/2/334
f 326/2/207 324/2/207 334/2/207
f 324/2/207 322/2/207 334/2/207
f 322/2/335 336/2/335 334/2/335
f 334/2/207 332/2/207 330/2/207
f 330/2/335 328/2/335 334/2/335
f 334/2/208 336/2/208 335/2/208
f 336/2/209 322/2/209 321/2/209
f 335/2/210 321/2/210 323/2/210
f 323/2/210 325/2/210 327/2/210
f 327/2/336 329/2/336 331/2/336
f 331/2/210 333/2/210 335/2/210
f 335/2/210 323/2/210 327/2/210
f 338/1/211 340/1/211 339/1/211
f 339/1/212 340/1/212 342/1/212
f 342/1/213 344/1/213 343/1/213
f 343/1/214 344/1/214 346/1/214
f 345/1/215 346/1/215 348/1/215
f 348/1/216 350/1/216 349/1/216
f 342/1/217 340/1/217 338/1/217
f 338/1/337 352/1/337 350/1/337
f 350/1/338 348/1/338 346/1/338
f 346/1/337 344/1/337 342/1/337
f 342/1/339 338/1/339 346/1/339
f 349/1/218 350/1/218 352/1/218
f 352/1/219 338/1/219 337/1/219
f 351/1/340 337/1/340 339/1/340
f 339/1/341 341/1/341 343/1/341
f 343/1/341 345/1/341 347/1/341
f 347/1/341 349/1/341 351/1/341
f 351/1/220 339/1/220 347/1/220
f 353/1/221 354/1/221 356/1/221
f 356/1/342 358/1/342 357/1/342
f 358/1/223 360/1/223 359/1/223
f 360/1/224 362/1/224 361/1/224
f 361/1/225 362/1/225 364/1/225
f 364/1/343 366/1/343 365/1/343
f 358/1/344 356/1/344 354/1/344
f 354/1/344 368/1/344 358/1/344
f 368/1/227 366/1/227 358/1/227
f 366/1/227 364/1/227 358/1/227
f 364/1/344 362/1/344 358/1/344
f 366/1/228 368/1/228 367/1/228
f 367/1/345 368/1/345 354/1/345
f 367/1/230 353/1/230 355/1/230
f 355/1/230 357/1/230 359/1/230
f 359/1/230 361/1/230 363/1/230
f 363/1/230 365/1/230 359/1/230
f 365/1/230 367/1/230 359/1/230
f 369/2/231 370/2/231 372/2/231
f 371/2/232 372/2/232 374/2/232
f 374/2/346 376/2/346 375/2/346
f 375/2/234 376/2/234 378/2/234
f 377/2/235 378/2/235 380/2/235
f 380/2/236 382/2/236 381/2/236
f 374/2/347 372/2/347 382/2/347
f 372/2/347 370/2/347 382/2/347
f 370/2/237 384/2/237 382/2/237
f 382/2/237 380/2/237 378/2/237
f 378/2/347 376/2/347 382/2/347
f 381/2/238 382/2/238 384/2/238
f 384/2/239 370/2/239 369/2/239
f 383/2/348 369/2/348 375/2/348
f 369/2/348 371/2/348 375/2/348
f 371/2/348 373/2/348 375/2/348
f 375/2/348 377/2/348 379/2/348
f 379/2/240 381/2/240 383/2/240
f 385/1/241 386/1/241 388/1/241
f 388/1/242 390/1/242 389/1/242
f 390/1/243 392/1/243 391/1/243
f 391/1/244 392/1/244 394/1/244
f 394/1/245 396/1/245 395/1/245
f 395/1/246 396/1/246 398/1/246
f 390/1/247 388/1/247 398/1/247
f 388/1/247 386/1/247 398/1/247
f 386/1/247 400/1/247 398/1/247
f 398/1/247 396/1/247 394/1/247
f 394/1/247 392/1/247 398/1/247
f 397/1/248 398/1/248 400/1/248
f 400/1/249 386/1/249 385/1/249
f 399/1/250 385/1/250 387/1/250
f 387/1/250 389/1/250 399/1/250
f 389/1/250 391/1/250 399/1/250
f 391/1/250 393/1/250 395/1/250
f 395/1/349 397/1/349 399/1/349
f 401/1/251 402/1/251 404/1/251
f 404/1/252 406/1/252 405/1/252
f 406/1/253 408/1/253 407/1/253
f 407/1/254 408/1/254 410/1/254
f 410/1/255 412/1/255 411/1/255
f 412/1/256 414/1/256 413/1/256
f 406/1/257 404/1/257 402/1/257
f 402/1/257 416/1/257 414/1/257
f 414/1/257 412/1/257 410/1/257
f 410/1/257 408/1/257 406/1/257
f 406/1/257 402/1/257 414/1/257
f 413/1/258 414/1/258 416/1/258
f 416/1/259 402/1/259 401/1/259
f 415/1/260 401/1/260 403/1/260
f 403/1/260 405/1/260 415/1/260
f 405/1/260 407/1/260 415/1/260
f 407/1/260 409/1/260 411/1/260
f 411/1/260 413/1/260 415/1/260
f 417/1/261 418/1/261 420/1/261
f 419/1/262 420/1/262 422/1/262
f 422/1/263 424/1/263 423/1/263
f 424/1/264 426/1/264 425/1/264
f 426/1/265 428/1/265 427/1/265
f 427/1/266 428/1/266 430/1/266
f 422/1/267 420/1/267 418/1/267
f 418/1/267 432/1/267 422/1/267
f 432/1/267 430/1/267 422/1/267
f 430/1/267 428/1/267 426/1/267
f 426/1/267 424/1/267 430/1/267
f 430/1/268 432/1/268 431/1/268
f 432/1/269 418/1/269 417/1/269
f 431/1/270 417/1/270 419/1/270
f 419/1/270 421/1/270 423/1/270
f 423/1/270 425/1/270 431/1/270
f 425/1/270 427/1/270 431/1/270
f 427/1/270 429/1/270 431/1/270
f 434/1/271 436/1/271 435/1/271
f 436/1/272 438/1/272 437/1/272
f 438/1/273 440/1/273 439/1/273
f 440/1/274 442/1/274 441/1/274
f 442/1/275 444/1/275 443/1/275
f 443/1/276 444/1/276 446/1/276
f 438/1/277 436/1/277 434/1/277
f 434/1/277 448/1/277 438/1/277
f 448/1/277 446/1/277 438/1/277
f 446/1/277 444/1/277 442/1/277
f 442/1/277 440/1/277 438/1/277
f 446/1/278 448/1/278 447/1/278
f 447/1/279 448/1/279 434/1/279
f 447/1/280 433/1/280 435/1/280
f 435/1/280 437/1/280 447/1/280
f 437/1/280 439/1/280 447/1/280
f 439/1/280 441/1/280 443/1/280
f 443/1/280 445/1/280 439/1/280
f 450/1/281 452/1/281 451/1/281
f 451/1/282 452/1/282 454/1/282
f 454/1/283 456/1/283 455/1/283
f 455/1/284 456/1/284 458/1/284
f 457/1/285 458/1/285 460/1/285
f 460/1/286 462/1/286 461/1/286
f 454/1/287 452/1/287 450/1/287
f 450/1/287 464/1/287 454/1/287
f 464/1/287 462/1/287 454/1/287
f 462/1/287 460/1/287 458/1/287
f 458/1/287 456/1/287 454/1/287
f 462/1/288 464/1/288 463/1/288
f 463/1/289 464/1/289 450/1/289
f 463/1/290 449/1/290 451/1/290
f 451/1/290 453/1/290 463/1/290
f 453/1/290 455/1/290 463/1/290
f 455/1/290 457/1/290 459/1/290
f 459/1/290 461/1/290 455/1/290
f 465/1/291 466/1/291 468/1/291
f 467/1/292 468/1/292 470/1/292
f 470/1/293 472/1/293 471/1/293
f 471/1/294 472/1/294 474/1/294
f 474/1/295 476/1/295 475/1/295
f 475/1/296 476/1/296 478/1/296
f 470/1/297 468/1/297 478/1/297
f 468/1/297 466/1/297 478/1/297
f 466/1/297 480/1/297 478/1/297
f 478/1/297 476/1/297 474/1/297
f 474/1/297 472/1/297 478/1/297
f 478/1/298 480/1/298 479/1/298
f 480/1/299 466/1/299 465/1/299
f 479/1/300 465/1/300 467/1/300
f 467/1/300 469/1/300 479/1/300
f 469/1/300 471/1/300 479/1/300
f 471/1/300 473/1/300 475/1/300
f 475/1/300 477/1/300 471/1/300
