# Blender 5.2.1 LTS
# www.blender.org
mtllib detail_refinery.mtl
o detail_refinery
v -4.400000 1.410000 -2.060000
v -4.400000 1.410000 -1.940000
v -4.270000 1.375167 -2.060000
v -4.270000 1.375167 -1.940000
v -4.174833 1.280000 -2.060000
v -4.174833 1.280000 -1.940000
v -4.140000 1.150000 -2.060000
v -4.140000 1.150000 -1.940000
v -4.174833 1.020000 -2.060000
v -4.174833 1.020000 -1.940000
v -4.270000 0.924833 -2.060000
v -4.270000 0.924833 -1.940000
v -4.400000 0.890000 -2.060000
v -4.400000 0.890000 -1.940000
v -4.530000 0.924833 -2.060000
v -4.530000 0.924833 -1.940000
v -4.625167 1.020000 -2.060000
v -4.625167 1.020000 -1.940000
v -4.660000 1.150000 -2.060000
v -4.660000 1.150000 -1.940000
v -4.625167 1.280000 -2.060000
v -4.625167 1.280000 -1.940000
v -4.530000 1.375167 -2.060000
v -4.530000 1.375167 -1.940000
v -4.400000 1.375000 -1.942500
v -4.400000 1.375000 -1.897500
v -4.378349 1.362500 -1.942500
v -4.378349 1.362500 -1.897500
v -4.378349 1.337500 -1.942500
v -4.378349 1.337500 -1.897500
v -4.400000 1.325000 -1.942500
v -4.400000 1.325000 -1.897500
v -4.421651 1.337500 -1.942500
v -4.421651 1.337500 -1.897500
v -4.421651 1.362500 -1.942500
v -4.421651 1.362500 -1.897500
v -4.226795 1.275000 -1.942500
v -4.226795 1.275000 -1.897500
v -4.205144 1.262500 -1.942500
v -4.205144 1.262500 -1.897500
v -4.205144 1.237500 -1.942500
v -4.205144 1.237500 -1.897500
v -4.226795 1.225000 -1.942500
v -4.226795 1.225000 -1.897500
v -4.248446 1.237500 -1.942500
v -4.248446 1.237500 -1.897500
v -4.248446 1.262500 -1.942500
v -4.248446 1.262500 -1.897500
v -4.226795 1.075000 -1.942500
v -4.226795 1.075000 -1.897500
v -4.205144 1.062500 -1.942500
v -4.205144 1.062500 -1.897500
v -4.205144 1.037500 -1.942500
v -4.205144 1.037500 -1.897500
v -4.226795 1.025000 -1.942500
v -4.226795 1.025000 -1.897500
v -4.248446 1.037500 -1.942500
v -4.248446 1.037500 -1.897500
v -4.248446 1.062500 -1.942500
v -4.248446 1.062500 -1.897500
v -4.400000 0.975000 -1.942500
v -4.400000 0.975000 -1.897500
v -4.378349 0.962500 -1.942500
v -4.378349 0.962500 -1.897500
v -4.378349 0.937500 -1.942500
v -4.378349 0.937500 -1.897500
v -4.400000 0.925000 -1.942500
v -4.400000 0.925000 -1.897500
v -4.421651 0.937500 -1.942500
v -4.421651 0.937500 -1.897500
v -4.421651 0.962500 -1.942500
v -4.421651 0.962500 -1.897500
v -4.573205 1.075000 -1.942500
v -4.573205 1.075000 -1.897500
v -4.551554 1.062500 -1.942500
v -4.551554 1.062500 -1.897500
v -4.551554 1.037500 -1.942500
v -4.551554 1.037500 -1.897500
v -4.573205 1.025000 -1.942500
v -4.573205 1.025000 -1.897500
v -4.594856 1.037500 -1.942500
v -4.594856 1.037500 -1.897500
v -4.594856 1.062500 -1.942500
v -4.594856 1.062500 -1.897500
v -4.573205 1.275000 -1.942500
v -4.573205 1.275000 -1.897500
v -4.551554 1.262500 -1.942500
v -4.551554 1.262500 -1.897500
v -4.551554 1.237500 -1.942500
v -4.551554 1.237500 -1.897500
v -4.573205 1.225000 -1.942500
v -4.573205 1.225000 -1.897500
v -4.594856 1.237500 -1.942500
v -4.594856 1.237500 -1.897500
v -4.594856 1.262500 -1.942500
v -4.594856 1.262500 -1.897500
v -4.400000 1.410000 -0.060000
v -4.400000 1.410000 0.060000
v -4.270000 1.375167 -0.060000
v -4.270000 1.375167 0.060000
v -4.174833 1.280000 -0.060000
v -4.174833 1.280000 0.060000
v -4.140000 1.150000 -0.060000
v -4.140000 1.150000 0.060000
v -4.174833 1.020000 -0.060000
v -4.174833 1.020000 0.060000
v -4.270000 0.924833 -0.060000
v -4.270000 0.924833 0.060000
v -4.400000 0.890000 -0.060000
v -4.400000 0.890000 0.060000
v -4.530000 0.924833 -0.060000
v -4.530000 0.924833 0.060000
v -4.625167 1.020000 -0.060000
v -4.625167 1.020000 0.060000
v -4.660000 1.150000 -0.060000
v -4.660000 1.150000 0.060000
v -4.625167 1.280000 -0.060000
v -4.625167 1.280000 0.060000
v -4.530000 1.375167 -0.060000
v -4.530000 1.375167 0.060000
v -4.400000 1.375000 0.057500
v -4.400000 1.375000 0.102500
v -4.378349 1.362500 0.057500
v -4.378349 1.362500 0.102500
v -4.378349 1.337500 0.057500
v -4.378349 1.337500 0.102500
v -4.400000 1.325000 0.057500
v -4.400000 1.325000 0.102500
v -4.421651 1.337500 0.057500
v -4.421651 1.337500 0.102500
v -4.421651 1.362500 0.057500
v -4.421651 1.362500 0.102500
v -4.226795 1.275000 0.057500
v -4.226795 1.275000 0.102500
v -4.205144 1.262500 0.057500
v -4.205144 1.262500 0.102500
v -4.205144 1.237500 0.057500
v -4.205144 1.237500 0.102500
v -4.226795 1.225000 0.057500
v -4.226795 1.225000 0.102500
v -4.248446 1.237500 0.057500
v -4.248446 1.237500 0.102500
v -4.248446 1.262500 0.057500
v -4.248446 1.262500 0.102500
v -4.226795 1.075000 0.057500
v -4.226795 1.075000 0.102500
v -4.205144 1.062500 0.057500
v -4.205144 1.062500 0.102500
v -4.205144 1.037500 0.057500
v -4.205144 1.037500 0.102500
v -4.226795 1.025000 0.057500
v -4.226795 1.025000 0.102500
v -4.248446 1.037500 0.057500
v -4.248446 1.037500 0.102500
v -4.248446 1.062500 0.057500
v -4.248446 1.062500 0.102500
v -4.400000 0.975000 0.057500
v -4.400000 0.975000 0.102500
v -4.378349 0.962500 0.057500
v -4.378349 0.962500 0.102500
v -4.378349 0.937500 0.057500
v -4.378349 0.937500 0.102500
v -4.400000 0.925000 0.057500
v -4.400000 0.925000 0.102500
v -4.421651 0.937500 0.057500
v -4.421651 0.937500 0.102500
v -4.421651 0.962500 0.057500
v -4.421651 0.962500 0.102500
v -4.573205 1.075000 0.057500
v -4.573205 1.075000 0.102500
v -4.551554 1.062500 0.057500
v -4.551554 1.062500 0.102500
v -4.551554 1.037500 0.057500
v -4.551554 1.037500 0.102500
v -4.573205 1.025000 0.057500
v -4.573205 1.025000 0.102500
v -4.594856 1.037500 0.057500
v -4.594856 1.037500 0.102500
v -4.594856 1.062500 0.057500
v -4.594856 1.062500 0.102500
v -4.573205 1.275000 0.057500
v -4.573205 1.275000 0.102500
v -4.551554 1.262500 0.057500
v -4.551554 1.262500 0.102500
v -4.551554 1.237500 0.057500
v -4.551554 1.237500 0.102500
v -4.573205 1.225000 0.057500
v -4.573205 1.225000 0.102500
v -4.594856 1.237500 0.057500
v -4.594856 1.237500 0.102500
v -4.594856 1.262500 0.057500
v -4.594856 1.262500 0.102500
v -4.400000 1.410000 1.940000
v -4.400000 1.410000 2.060000
v -4.270000 1.375167 1.940000
v -4.270000 1.375167 2.060000
v -4.174833 1.280000 1.940000
v -4.174833 1.280000 2.060000
v -4.140000 1.150000 1.940000
v -4.140000 1.150000 2.060000
v -4.174833 1.020000 1.940000
v -4.174833 1.020000 2.060000
v -4.270000 0.924833 1.940000
v -4.270000 0.924833 2.060000
v -4.400000 0.890000 1.940000
v -4.400000 0.890000 2.060000
v -4.530000 0.924833 1.940000
v -4.530000 0.924833 2.060000
v -4.625167 1.020000 1.940000
v -4.625167 1.020000 2.060000
v -4.660000 1.150000 1.940000
v -4.660000 1.150000 2.060000
v -4.625167 1.280000 1.940000
v -4.625167 1.280000 2.060000
v -4.530000 1.375167 1.940000
v -4.530000 1.375167 2.060000
v -4.400000 1.375000 2.057500
v -4.400000 1.375000 2.102500
v -4.378349 1.362500 2.057500
v -4.378349 1.362500 2.102500
v -4.378349 1.337500 2.057500
v -4.378349 1.337500 2.102500
v -4.400000 1.325000 2.057500
v -4.400000 1.325000 2.102500
v -4.421651 1.337500 2.057500
v -4.421651 1.337500 2.102500
v -4.421651 1.362500 2.057500
v -4.421651 1.362500 2.102500
v -4.226795 1.275000 2.057500
v -4.226795 1.275000 2.102500
v -4.205144 1.262500 2.057500
v -4.205144 1.262500 2.102500
v -4.205144 1.237500 2.057500
v -4.205144 1.237500 2.102500
v -4.226795 1.225000 2.057500
v -4.226795 1.225000 2.102500
v -4.248446 1.237500 2.057500
v -4.248446 1.237500 2.102500
v -4.248446 1.262500 2.057500
v -4.248446 1.262500 2.102500
v -4.226795 1.075000 2.057500
v -4.226795 1.075000 2.102500
v -4.205144 1.062500 2.057500
v -4.205144 1.062500 2.102500
v -4.205144 1.037500 2.057500
v -4.205144 1.037500 2.102500
v -4.226795 1.025000 2.057500
v -4.226795 1.025000 2.102500
v -4.248446 1.037500 2.057500
v -4.248446 1.037500 2.102500
v -4.248446 1.062500 2.057500
v -4.248446 1.062500 2.102500
v -4.400000 0.975000 2.057500
v -4.400000 0.975000 2.102500
v -4.378349 0.962500 2.057500
v -4.378349 0.962500 2.102500
v -4.378349 0.937500 2.057500
v -4.378349 0.937500 2.102500
v -4.400000 0.925000 2.057500
v -4.400000 0.925000 2.102500
v -4.421651 0.937500 2.057500
v -4.421651 0.937500 2.102500
v -4.421651 0.962500 2.057500
v -4.421651 0.962500 2.102500
v -4.573205 1.075000 2.057500
v -4.573205 1.075000 2.102500
v -4.551554 1.062500 2.057500
v -4.551554 1.062500 2.102500
v -4.551554 1.037500 2.057500
v -4.551554 1.037500 2.102500
v -4.573205 1.025000 2.057500
v -4.573205 1.025000 2.102500
v -4.594856 1.037500 2.057500
v -4.594856 1.037500 2.102500
v -4.594856 1.062500 2.057500
v -4.594856 1.062500 2.102500
v -4.573205 1.275000 2.057500
v -4.573205 1.275000 2.102500
v -4.551554 1.262500 2.057500
v -4.551554 1.262500 2.102500
v -4.551554 1.237500 2.057500
v -4.551554 1.237500 2.102500
v -4.573205 1.225000 2.057500
v -4.573205 1.225000 2.102500
v -4.594856 1.237500 2.057500
v -4.594856 1.237500 2.102500
v -4.594856 1.262500 2.057500
v -4.594856 1.262500 2.102500
v -4.400000 0.650000 -0.120000
v -4.400000 2.000000 -0.120000
v -4.315147 0.650000 -0.084853
v -4.315147 2.000000 -0.084853
v -4.280000 0.650000 0.000000
v -4.280000 2.000000 0.000000
v -4.315147 0.650000 0.084853
v -4.315147 2.000000 0.084853
v -4.400000 0.650000 0.120000
v -4.400000 2.000000 0.120000
v -4.484853 0.650000 0.084853
v -4.484853 2.000000 0.084853
v -4.520000 0.650000 0.000000
v -4.520000 2.000000 0.000000
v -4.484853 0.650000 -0.084853
v -4.484853 2.000000 -0.084853
v -4.400000 2.320000 0.145000
v -4.400000 2.320000 0.215000
v -4.240000 2.277128 0.145000
v -4.240000 2.277128 0.215000
v -4.122872 2.160000 0.145000
v -4.122872 2.160000 0.215000
v -4.080000 2.000000 0.145000
v -4.080000 2.000000 0.215000
v -4.122872 1.840000 0.145000
v -4.122872 1.840000 0.215000
v -4.240000 1.722872 0.145000
v -4.240000 1.722872 0.215000
v -4.400000 1.680000 0.145000
v -4.400000 1.680000 0.215000
v -4.560000 1.722872 0.145000
v -4.560000 1.722872 0.215000
v -4.677128 1.840000 0.145000
v -4.677128 1.840000 0.215000
v -4.720000 2.000000 0.145000
v -4.720000 2.000000 0.215000
v -4.677128 2.160000 0.145000
v -4.677128 2.160000 0.215000
v -4.560000 2.277128 0.145000
v -4.560000 2.277128 0.215000
v 4.400000 1.410000 -2.060000
v 4.400000 1.410000 -1.940000
v 4.530000 1.375167 -2.060000
v 4.530000 1.375167 -1.940000
v 4.625166 1.280000 -2.060000
v 4.625166 1.280000 -1.940000
v 4.660000 1.150000 -2.060000
v 4.660000 1.150000 -1.940000
v 4.625166 1.020000 -2.060000
v 4.625166 1.020000 -1.940000
v 4.530000 0.924833 -2.060000
v 4.530000 0.924833 -1.940000
v 4.400000 0.890000 -2.060000
v 4.400000 0.890000 -1.940000
v 4.270000 0.924833 -2.060000
v 4.270000 0.924833 -1.940000
v 4.174834 1.020000 -2.060000
v 4.174834 1.020000 -1.940000
v 4.140000 1.150000 -2.060000
v 4.140000 1.150000 -1.940000
v 4.174834 1.280000 -2.060000
v 4.174834 1.280000 -1.940000
v 4.270000 1.375167 -2.060000
v 4.270000 1.375167 -1.940000
v 4.400000 1.375000 -1.942500
v 4.400000 1.375000 -1.897500
v 4.421650 1.362500 -1.942500
v 4.421650 1.362500 -1.897500
v 4.421650 1.337500 -1.942500
v 4.421650 1.337500 -1.897500
v 4.400000 1.325000 -1.942500
v 4.400000 1.325000 -1.897500
v 4.378350 1.337500 -1.942500
v 4.378350 1.337500 -1.897500
v 4.378350 1.362500 -1.942500
v 4.378350 1.362500 -1.897500
v 4.573205 1.275000 -1.942500
v 4.573205 1.275000 -1.897500
v 4.594856 1.262500 -1.942500
v 4.594856 1.262500 -1.897500
v 4.594856 1.237500 -1.942500
v 4.594856 1.237500 -1.897500
v 4.573205 1.225000 -1.942500
v 4.573205 1.225000 -1.897500
v 4.551555 1.237500 -1.942500
v 4.551555 1.237500 -1.897500
v 4.551555 1.262500 -1.942500
v 4.551555 1.262500 -1.897500
v 4.573205 1.075000 -1.942500
v 4.573205 1.075000 -1.897500
v 4.594856 1.062500 -1.942500
v 4.594856 1.062500 -1.897500
v 4.594856 1.037500 -1.942500
v 4.594856 1.037500 -1.897500
v 4.573205 1.025000 -1.942500
v 4.573205 1.025000 -1.897500
v 4.551555 1.037500 -1.942500
v 4.551555 1.037500 -1.897500
v 4.551555 1.062500 -1.942500
v 4.551555 1.062500 -1.897500
v 4.400000 0.975000 -1.942500
v 4.400000 0.975000 -1.897500
v 4.421650 0.962500 -1.942500
v 4.421650 0.962500 -1.897500
v 4.421650 0.937500 -1.942500
v 4.421650 0.937500 -1.897500
v 4.400000 0.925000 -1.942500
v 4.400000 0.925000 -1.897500
v 4.378350 0.937500 -1.942500
v 4.378350 0.937500 -1.897500
v 4.378350 0.962500 -1.942500
v 4.378350 0.962500 -1.897500
v 4.226795 1.075000 -1.942500
v 4.226795 1.075000 -1.897500
v 4.248445 1.062500 -1.942500
v 4.248445 1.062500 -1.897500
v 4.248445 1.037500 -1.942500
v 4.248445 1.037500 -1.897500
v 4.226795 1.025000 -1.942500
v 4.226795 1.025000 -1.897500
v 4.205144 1.037500 -1.942500
v 4.205144 1.037500 -1.897500
v 4.205144 1.062500 -1.942500
v 4.205144 1.062500 -1.897500
v 4.226795 1.275000 -1.942500
v 4.226795 1.275000 -1.897500
v 4.248445 1.262500 -1.942500
v 4.248445 1.262500 -1.897500
v 4.248445 1.237500 -1.942500
v 4.248445 1.237500 -1.897500
v 4.226795 1.225000 -1.942500
v 4.226795 1.225000 -1.897500
v 4.205144 1.237500 -1.942500
v 4.205144 1.237500 -1.897500
v 4.205144 1.262500 -1.942500
v 4.205144 1.262500 -1.897500
v 4.400000 1.410000 -0.060000
v 4.400000 1.410000 0.060000
v 4.530000 1.375167 -0.060000
v 4.530000 1.375167 0.060000
v 4.625166 1.280000 -0.060000
v 4.625166 1.280000 0.060000
v 4.660000 1.150000 -0.060000
v 4.660000 1.150000 0.060000
v 4.625166 1.020000 -0.060000
v 4.625166 1.020000 0.060000
v 4.530000 0.924833 -0.060000
v 4.530000 0.924833 0.060000
v 4.400000 0.890000 -0.060000
v 4.400000 0.890000 0.060000
v 4.270000 0.924833 -0.060000
v 4.270000 0.924833 0.060000
v 4.174834 1.020000 -0.060000
v 4.174834 1.020000 0.060000
v 4.140000 1.150000 -0.060000
v 4.140000 1.150000 0.060000
v 4.174834 1.280000 -0.060000
v 4.174834 1.280000 0.060000
v 4.270000 1.375167 -0.060000
v 4.270000 1.375167 0.060000
v 4.400000 1.375000 0.057500
v 4.400000 1.375000 0.102500
v 4.421650 1.362500 0.057500
v 4.421650 1.362500 0.102500
v 4.421650 1.337500 0.057500
v 4.421650 1.337500 0.102500
v 4.400000 1.325000 0.057500
v 4.400000 1.325000 0.102500
v 4.378350 1.337500 0.057500
v 4.378350 1.337500 0.102500
v 4.378350 1.362500 0.057500
v 4.378350 1.362500 0.102500
v 4.573205 1.275000 0.057500
v 4.573205 1.275000 0.102500
v 4.594856 1.262500 0.057500
v 4.594856 1.262500 0.102500
v 4.594856 1.237500 0.057500
v 4.594856 1.237500 0.102500
v 4.573205 1.225000 0.057500
v 4.573205 1.225000 0.102500
v 4.551555 1.237500 0.057500
v 4.551555 1.237500 0.102500
v 4.551555 1.262500 0.057500
v 4.551555 1.262500 0.102500
v 4.573205 1.075000 0.057500
v 4.573205 1.075000 0.102500
v 4.594856 1.062500 0.057500
v 4.594856 1.062500 0.102500
v 4.594856 1.037500 0.057500
v 4.594856 1.037500 0.102500
v 4.573205 1.025000 0.057500
v 4.573205 1.025000 0.102500
v 4.551555 1.037500 0.057500
v 4.551555 1.037500 0.102500
v 4.551555 1.062500 0.057500
v 4.551555 1.062500 0.102500
v 4.400000 0.975000 0.057500
v 4.400000 0.975000 0.102500
v 4.421650 0.962500 0.057500
v 4.421650 0.962500 0.102500
v 4.421650 0.937500 0.057500
v 4.421650 0.937500 0.102500
v 4.400000 0.925000 0.057500
v 4.400000 0.925000 0.102500
v 4.378350 0.937500 0.057500
v 4.378350 0.937500 0.102500
v 4.378350 0.962500 0.057500
v 4.378350 0.962500 0.102500
v 4.226795 1.075000 0.057500
v 4.226795 1.075000 0.102500
v 4.248445 1.062500 0.057500
v 4.248445 1.062500 0.102500
v 4.248445 1.037500 0.057500
v 4.248445 1.037500 0.102500
v 4.226795 1.025000 0.057500
v 4.226795 1.025000 0.102500
v 4.205144 1.037500 0.057500
v 4.205144 1.037500 0.102500
v 4.205144 1.062500 0.057500
v 4.205144 1.062500 0.102500
v 4.226795 1.275000 0.057500
v 4.226795 1.275000 0.102500
v 4.248445 1.262500 0.057500
v 4.248445 1.262500 0.102500
v 4.248445 1.237500 0.057500
v 4.248445 1.237500 0.102500
v 4.226795 1.225000 0.057500
v 4.226795 1.225000 0.102500
v 4.205144 1.237500 0.057500
v 4.205144 1.237500 0.102500
v 4.205144 1.262500 0.057500
v 4.205144 1.262500 0.102500
v 4.400000 1.410000 1.940000
v 4.400000 1.410000 2.060000
v 4.530000 1.375167 1.940000
v 4.530000 1.375167 2.060000
v 4.625166 1.280000 1.940000
v 4.625166 1.280000 2.060000
v 4.660000 1.150000 1.940000
v 4.660000 1.150000 2.060000
v 4.625166 1.020000 1.940000
v 4.625166 1.020000 2.060000
v 4.530000 0.924833 1.940000
v 4.530000 0.924833 2.060000
v 4.400000 0.890000 1.940000
v 4.400000 0.890000 2.060000
v 4.270000 0.924833 1.940000
v 4.270000 0.924833 2.060000
v 4.174834 1.020000 1.940000
v 4.174834 1.020000 2.060000
v 4.140000 1.150000 1.940000
v 4.140000 1.150000 2.060000
v 4.174834 1.280000 1.940000
v 4.174834 1.280000 2.060000
v 4.270000 1.375167 1.940000
v 4.270000 1.375167 2.060000
v 4.400000 1.375000 2.057500
v 4.400000 1.375000 2.102500
v 4.421650 1.362500 2.057500
v 4.421650 1.362500 2.102500
v 4.421650 1.337500 2.057500
v 4.421650 1.337500 2.102500
v 4.400000 1.325000 2.057500
v 4.400000 1.325000 2.102500
v 4.378350 1.337500 2.057500
v 4.378350 1.337500 2.102500
v 4.378350 1.362500 2.057500
v 4.378350 1.362500 2.102500
v 4.573205 1.275000 2.057500
v 4.573205 1.275000 2.102500
v 4.594856 1.262500 2.057500
v 4.594856 1.262500 2.102500
v 4.594856 1.237500 2.057500
v 4.594856 1.237500 2.102500
v 4.573205 1.225000 2.057500
v 4.573205 1.225000 2.102500
v 4.551555 1.237500 2.057500
v 4.551555 1.237500 2.102500
v 4.551555 1.262500 2.057500
v 4.551555 1.262500 2.102500
v 4.573205 1.075000 2.057500
v 4.573205 1.075000 2.102500
v 4.594856 1.062500 2.057500
v 4.594856 1.062500 2.102500
v 4.594856 1.037500 2.057500
v 4.594856 1.037500 2.102500
v 4.573205 1.025000 2.057500
v 4.573205 1.025000 2.102500
v 4.551555 1.037500 2.057500
v 4.551555 1.037500 2.102500
v 4.551555 1.062500 2.057500
v 4.551555 1.062500 2.102500
v 4.400000 0.975000 2.057500
v 4.400000 0.975000 2.102500
v 4.421650 0.962500 2.057500
v 4.421650 0.962500 2.102500
v 4.421650 0.937500 2.057500
v 4.421650 0.937500 2.102500
v 4.400000 0.925000 2.057500
v 4.400000 0.925000 2.102500
v 4.378350 0.937500 2.057500
v 4.378350 0.937500 2.102500
v 4.378350 0.962500 2.057500
v 4.378350 0.962500 2.102500
v 4.226795 1.075000 2.057500
v 4.226795 1.075000 2.102500
v 4.248445 1.062500 2.057500
v 4.248445 1.062500 2.102500
v 4.248445 1.037500 2.057500
v 4.248445 1.037500 2.102500
v 4.226795 1.025000 2.057500
v 4.226795 1.025000 2.102500
v 4.205144 1.037500 2.057500
v 4.205144 1.037500 2.102500
v 4.205144 1.062500 2.057500
v 4.205144 1.062500 2.102500
v 4.226795 1.275000 2.057500
v 4.226795 1.275000 2.102500
v 4.248445 1.262500 2.057500
v 4.248445 1.262500 2.102500
v 4.248445 1.237500 2.057500
v 4.248445 1.237500 2.102500
v 4.226795 1.225000 2.057500
v 4.226795 1.225000 2.102500
v 4.205144 1.237500 2.057500
v 4.205144 1.237500 2.102500
v 4.205144 1.262500 2.057500
v 4.205144 1.262500 2.102500
v 4.400000 0.650000 -0.120000
v 4.400000 2.000000 -0.120000
v 4.484853 0.650000 -0.084853
v 4.484853 2.000000 -0.084853
v 4.520000 0.650000 0.000000
v 4.520000 2.000000 0.000000
v 4.484853 0.650000 0.084853
v 4.484853 2.000000 0.084853
v 4.400000 0.650000 0.120000
v 4.400000 2.000000 0.120000
v 4.315147 0.650000 0.084853
v 4.315147 2.000000 0.084853
v 4.280000 0.650000 0.000000
v 4.280000 2.000000 0.000000
v 4.315147 0.650000 -0.084853
v 4.315147 2.000000 -0.084853
v 4.400000 2.320000 0.145000
v 4.400000 2.320000 0.215000
v 4.560000 2.277128 0.145000
v 4.560000 2.277128 0.215000
v 4.677128 2.160000 0.145000
v 4.677128 2.160000 0.215000
v 4.720000 2.000000 0.145000
v 4.720000 2.000000 0.215000
v 4.677128 1.840000 0.145000
v 4.677128 1.840000 0.215000
v 4.560000 1.722872 0.145000
v 4.560000 1.722872 0.215000
v 4.400000 1.680000 0.145000
v 4.400000 1.680000 0.215000
v 4.240000 1.722872 0.145000
v 4.240000 1.722872 0.215000
v 4.122872 1.840000 0.145000
v 4.122872 1.840000 0.215000
v 4.080000 2.000000 0.145000
v 4.080000 2.000000 0.215000
v 4.122872 2.160000 0.145000
v 4.122872 2.160000 0.215000
v 4.240000 2.277128 0.145000
v 4.240000 2.277128 0.215000
v 0.280000 0.150000 -4.035000
v 0.280000 6.800001 -4.035000
v 0.304749 0.150000 -4.024749
v 0.304749 6.800001 -4.024749
v 0.315000 0.150000 -4.000000
v 0.315000 6.800001 -4.000000
v 0.304749 0.150000 -3.975251
v 0.304749 6.800001 -3.975251
v 0.280000 0.150000 -3.965000
v 0.280000 6.800001 -3.965000
v 0.255251 0.150000 -3.975251
v 0.255251 6.800001 -3.975251
v 0.245000 0.150000 -4.000000
v 0.245000 6.800001 -4.000000
v 0.255251 0.150000 -4.024749
v 0.255251 6.800001 -4.024749
v 0.920000 0.150000 -4.035000
v 0.920000 6.800001 -4.035000
v 0.944749 0.150000 -4.024749
v 0.944749 6.800001 -4.024749
v 0.955000 0.150000 -4.000000
v 0.955000 6.800001 -4.000000
v 0.944749 0.150000 -3.975251
v 0.944749 6.800001 -3.975251
v 0.920000 0.150000 -3.965000
v 0.920000 6.800001 -3.965000
v 0.895251 0.150000 -3.975251
v 0.895251 6.800001 -3.975251
v 0.885000 0.150000 -4.000000
v 0.885000 6.800001 -4.000000
v 0.895251 0.150000 -4.024749
v 0.895251 6.800001 -4.024749
v 0.280000 0.200000 -4.028000
v 0.920000 0.200000 -4.028000
v 0.280000 0.180201 -4.019799
v 0.920000 0.180201 -4.019799
v 0.280000 0.172000 -4.000000
v 0.920000 0.172000 -4.000000
v 0.280000 0.180201 -3.980201
v 0.920000 0.180201 -3.980201
v 0.280000 0.200000 -3.972000
v 0.920000 0.200000 -3.972000
v 0.280000 0.219799 -3.980201
v 0.920000 0.219799 -3.980201
v 0.280000 0.228000 -4.000000
v 0.920000 0.228000 -4.000000
v 0.280000 0.219799 -4.019799
v 0.920000 0.219799 -4.019799
v 0.280000 0.500000 -4.028000
v 0.920000 0.500000 -4.028000
v 0.280000 0.480201 -4.019799
v 0.920000 0.480201 -4.019799
v 0.280000 0.472000 -4.000000
v 0.920000 0.472000 -4.000000
v 0.280000 0.480201 -3.980201
v 0.920000 0.480201 -3.980201
v 0.280000 0.500000 -3.972000
v 0.920000 0.500000 -3.972000
v 0.280000 0.519799 -3.980201
v 0.920000 0.519799 -3.980201
v 0.280000 0.528000 -4.000000
v 0.920000 0.528000 -4.000000
v 0.280000 0.519799 -4.019799
v 0.920000 0.519799 -4.019799
v 0.280000 0.800000 -4.028000
v 0.920000 0.800000 -4.028000
v 0.280000 0.780201 -4.019799
v 0.920000 0.780201 -4.019799
v 0.280000 0.772000 -4.000000
v 0.920000 0.772000 -4.000000
v 0.280000 0.780201 -3.980201
v 0.920000 0.780201 -3.980201
v 0.280000 0.800000 -3.972000
v 0.920000 0.800000 -3.972000
v 0.280000 0.819799 -3.980201
v 0.920000 0.819799 -3.980201
v 0.280000 0.828000 -4.000000
v 0.920000 0.828000 -4.000000
v 0.280000 0.819799 -4.019799
v 0.920000 0.819799 -4.019799
v 0.280000 1.100000 -4.028000
v 0.920000 1.100000 -4.028000
v 0.280000 1.080201 -4.019799
v 0.920000 1.080201 -4.019799
v 0.280000 1.072000 -4.000000
v 0.920000 1.072000 -4.000000
v 0.280000 1.080201 -3.980201
v 0.920000 1.080201 -3.980201
v 0.280000 1.100000 -3.972000
v 0.920000 1.100000 -3.972000
v 0.280000 1.119799 -3.980201
v 0.920000 1.119799 -3.980201
v 0.280000 1.128000 -4.000000
v 0.920000 1.128000 -4.000000
v 0.280000 1.119799 -4.019799
v 0.920000 1.119799 -4.019799
v 0.280000 1.400000 -4.028000
v 0.920000 1.400000 -4.028000
v 0.280000 1.380201 -4.019799
v 0.920000 1.380201 -4.019799
v 0.280000 1.372000 -4.000000
v 0.920000 1.372000 -4.000000
v 0.280000 1.380201 -3.980201
v 0.920000 1.380201 -3.980201
v 0.280000 1.400000 -3.972000
v 0.920000 1.400000 -3.972000
v 0.280000 1.419799 -3.980201
v 0.920000 1.419799 -3.980201
v 0.280000 1.428000 -4.000000
v 0.920000 1.428000 -4.000000
v 0.280000 1.419799 -4.019799
v 0.920000 1.419799 -4.019799
v 0.280000 1.700000 -4.028000
v 0.920000 1.700000 -4.028000
v 0.280000 1.680201 -4.019799
v 0.920000 1.680201 -4.019799
v 0.280000 1.672000 -4.000000
v 0.920000 1.672000 -4.000000
v 0.280000 1.680201 -3.980201
v 0.920000 1.680201 -3.980201
v 0.280000 1.700000 -3.972000
v 0.920000 1.700000 -3.972000
v 0.280000 1.719799 -3.980201
v 0.920000 1.719799 -3.980201
v 0.280000 1.728000 -4.000000
v 0.920000 1.728000 -4.000000
v 0.280000 1.719799 -4.019799
v 0.920000 1.719799 -4.019799
v 0.280000 2.000000 -4.028000
v 0.920000 2.000000 -4.028000
v 0.280000 1.980201 -4.019799
v 0.920000 1.980201 -4.019799
v 0.280000 1.972000 -4.000000
v 0.920000 1.972000 -4.000000
v 0.280000 1.980201 -3.980201
v 0.920000 1.980201 -3.980201
v 0.280000 2.000000 -3.972000
v 0.920000 2.000000 -3.972000
v 0.280000 2.019799 -3.980201
v 0.920000 2.019799 -3.980201
v 0.280000 2.028000 -4.000000
v 0.920000 2.028000 -4.000000
v 0.280000 2.019799 -4.019799
v 0.920000 2.019799 -4.019799
v 0.280000 2.300000 -4.028000
v 0.920000 2.300000 -4.028000
v 0.280000 2.280201 -4.019799
v 0.920000 2.280201 -4.019799
v 0.280000 2.272000 -4.000000
v 0.920000 2.272000 -4.000000
v 0.280000 2.280201 -3.980201
v 0.920000 2.280201 -3.980201
v 0.280000 2.300000 -3.972000
v 0.920000 2.300000 -3.972000
v 0.280000 2.319799 -3.980201
v 0.920000 2.319799 -3.980201
v 0.280000 2.328000 -4.000000
v 0.920000 2.328000 -4.000000
v 0.280000 2.319799 -4.019799
v 0.920000 2.319799 -4.019799
v 0.280000 2.600000 -4.028000
v 0.920000 2.600000 -4.028000
v 0.280000 2.580201 -4.019799
v 0.920000 2.580201 -4.019799
v 0.280000 2.572000 -4.000000
v 0.920000 2.572000 -4.000000
v 0.280000 2.580201 -3.980201
v 0.920000 2.580201 -3.980201
v 0.280000 2.600000 -3.972000
v 0.920000 2.600000 -3.972000
v 0.280000 2.619799 -3.980201
v 0.920000 2.619799 -3.980201
v 0.280000 2.628000 -4.000000
v 0.920000 2.628000 -4.000000
v 0.280000 2.619799 -4.019799
v 0.920000 2.619799 -4.019799
v 0.280000 2.900000 -4.028000
v 0.920000 2.900000 -4.028000
v 0.280000 2.880201 -4.019799
v 0.920000 2.880201 -4.019799
v 0.280000 2.872000 -4.000000
v 0.920000 2.872000 -4.000000
v 0.280000 2.880201 -3.980201
v 0.920000 2.880201 -3.980201
v 0.280000 2.900000 -3.972000
v 0.920000 2.900000 -3.972000
v 0.280000 2.919799 -3.980201
v 0.920000 2.919799 -3.980201
v 0.280000 2.928000 -4.000000
v 0.920000 2.928000 -4.000000
v 0.280000 2.919799 -4.019799
v 0.920000 2.919799 -4.019799
v 0.280000 3.200000 -4.028000
v 0.920000 3.200000 -4.028000
v 0.280000 3.180201 -4.019799
v 0.920000 3.180201 -4.019799
v 0.280000 3.172000 -4.000000
v 0.920000 3.172000 -4.000000
v 0.280000 3.180201 -3.980201
v 0.920000 3.180201 -3.980201
v 0.280000 3.200000 -3.972000
v 0.920000 3.200000 -3.972000
v 0.280000 3.219799 -3.980201
v 0.920000 3.219799 -3.980201
v 0.280000 3.228000 -4.000000
v 0.920000 3.228000 -4.000000
v 0.280000 3.219799 -4.019799
v 0.920000 3.219799 -4.019799
v 0.280000 3.500000 -4.028000
v 0.920000 3.500000 -4.028000
v 0.280000 3.480201 -4.019799
v 0.920000 3.480201 -4.019799
v 0.280000 3.472000 -4.000000
v 0.920000 3.472000 -4.000000
v 0.280000 3.480201 -3.980201
v 0.920000 3.480201 -3.980201
v 0.280000 3.500000 -3.972000
v 0.920000 3.500000 -3.972000
v 0.280000 3.519799 -3.980201
v 0.920000 3.519799 -3.980201
v 0.280000 3.528000 -4.000000
v 0.920000 3.528000 -4.000000
v 0.280000 3.519799 -4.019799
v 0.920000 3.519799 -4.019799
v 0.280000 3.800000 -4.028000
v 0.920000 3.800000 -4.028000
v 0.280000 3.780201 -4.019799
v 0.920000 3.780201 -4.019799
v 0.280000 3.772000 -4.000000
v 0.920000 3.772000 -4.000000
v 0.280000 3.780201 -3.980201
v 0.920000 3.780201 -3.980201
v 0.280000 3.800000 -3.972000
v 0.920000 3.800000 -3.972000
v 0.280000 3.819799 -3.980201
v 0.920000 3.819799 -3.980201
v 0.280000 3.828000 -4.000000
v 0.920000 3.828000 -4.000000
v 0.280000 3.819799 -4.019799
v 0.920000 3.819799 -4.019799
v 0.280000 4.100000 -4.028000
v 0.920000 4.100000 -4.028000
v 0.280000 4.080201 -4.019799
v 0.920000 4.080201 -4.019799
v 0.280000 4.072000 -4.000000
v 0.920000 4.072000 -4.000000
v 0.280000 4.080201 -3.980201
v 0.920000 4.080201 -3.980201
v 0.280000 4.100000 -3.972000
v 0.920000 4.100000 -3.972000
v 0.280000 4.119799 -3.980201
v 0.920000 4.119799 -3.980201
v 0.280000 4.128000 -4.000000
v 0.920000 4.128000 -4.000000
v 0.280000 4.119799 -4.019799
v 0.920000 4.119799 -4.019799
v 0.280000 4.400000 -4.028000
v 0.920000 4.400000 -4.028000
v 0.280000 4.380201 -4.019799
v 0.920000 4.380201 -4.019799
v 0.280000 4.372000 -4.000000
v 0.920000 4.372000 -4.000000
v 0.280000 4.380201 -3.980201
v 0.920000 4.380201 -3.980201
v 0.280000 4.400000 -3.972000
v 0.920000 4.400000 -3.972000
v 0.280000 4.419799 -3.980201
v 0.920000 4.419799 -3.980201
v 0.280000 4.428000 -4.000000
v 0.920000 4.428000 -4.000000
v 0.280000 4.419799 -4.019799
v 0.920000 4.419799 -4.019799
v 0.280000 4.700000 -4.028000
v 0.920000 4.700000 -4.028000
v 0.280000 4.680201 -4.019799
v 0.920000 4.680201 -4.019799
v 0.280000 4.672000 -4.000000
v 0.920000 4.672000 -4.000000
v 0.280000 4.680201 -3.980201
v 0.920000 4.680201 -3.980201
v 0.280000 4.700000 -3.972000
v 0.920000 4.700000 -3.972000
v 0.280000 4.719799 -3.980201
v 0.920000 4.719799 -3.980201
v 0.280000 4.728000 -4.000000
v 0.920000 4.728000 -4.000000
v 0.280000 4.719799 -4.019799
v 0.920000 4.719799 -4.019799
v 0.280000 5.000000 -4.028000
v 0.920000 5.000000 -4.028000
v 0.280000 4.980201 -4.019799
v 0.920000 4.980201 -4.019799
v 0.280000 4.972000 -4.000000
v 0.920000 4.972000 -4.000000
v 0.280000 4.980201 -3.980201
v 0.920000 4.980201 -3.980201
v 0.280000 5.000000 -3.972000
v 0.920000 5.000000 -3.972000
v 0.280000 5.019799 -3.980201
v 0.920000 5.019799 -3.980201
v 0.280000 5.028000 -4.000000
v 0.920000 5.028000 -4.000000
v 0.280000 5.019799 -4.019799
v 0.920000 5.019799 -4.019799
v 0.280000 5.300000 -4.028000
v 0.920000 5.300000 -4.028000
v 0.280000 5.280201 -4.019799
v 0.920000 5.280201 -4.019799
v 0.280000 5.272000 -4.000000
v 0.920000 5.272000 -4.000000
v 0.280000 5.280201 -3.980201
v 0.920000 5.280201 -3.980201
v 0.280000 5.300000 -3.972000
v 0.920000 5.300000 -3.972000
v 0.280000 5.319799 -3.980201
v 0.920000 5.319799 -3.980201
v 0.280000 5.328000 -4.000000
v 0.920000 5.328000 -4.000000
v 0.280000 5.319799 -4.019799
v 0.920000 5.319799 -4.019799
v 0.280000 5.600000 -4.028000
v 0.920000 5.600000 -4.028000
v 0.280000 5.580201 -4.019799
v 0.920000 5.580201 -4.019799
v 0.280000 5.572000 -4.000000
v 0.920000 5.572000 -4.000000
v 0.280000 5.580201 -3.980201
v 0.920000 5.580201 -3.980201
v 0.280000 5.600000 -3.972000
v 0.920000 5.600000 -3.972000
v 0.280000 5.619799 -3.980201
v 0.920000 5.619799 -3.980201
v 0.280000 5.628000 -4.000000
v 0.920000 5.628000 -4.000000
v 0.280000 5.619799 -4.019799
v 0.920000 5.619799 -4.019799
v 0.280000 5.900000 -4.028000
v 0.920000 5.900000 -4.028000
v 0.280000 5.880201 -4.019799
v 0.920000 5.880201 -4.019799
v 0.280000 5.872000 -4.000000
v 0.920000 5.872000 -4.000000
v 0.280000 5.880201 -3.980201
v 0.920000 5.880201 -3.980201
v 0.280000 5.900000 -3.972000
v 0.920000 5.900000 -3.972000
v 0.280000 5.919799 -3.980201
v 0.920000 5.919799 -3.980201
v 0.280000 5.928000 -4.000000
v 0.920000 5.928000 -4.000000
v 0.280000 5.919799 -4.019799
v 0.920000 5.919799 -4.019799
v 0.280000 6.200000 -4.028000
v 0.920000 6.200000 -4.028000
v 0.280000 6.180201 -4.019799
v 0.920000 6.180201 -4.019799
v 0.280000 6.172000 -4.000000
v 0.920000 6.172000 -4.000000
v 0.280000 6.180201 -3.980201
v 0.920000 6.180201 -3.980201
v 0.280000 6.200000 -3.972000
v 0.920000 6.200000 -3.972000
v 0.280000 6.219799 -3.980201
v 0.920000 6.219799 -3.980201
v 0.280000 6.228000 -4.000000
v 0.920000 6.228000 -4.000000
v 0.280000 6.219799 -4.019799
v 0.920000 6.219799 -4.019799
v 0.280000 6.500000 -4.028000
v 0.920000 6.500000 -4.028000
v 0.280000 6.480201 -4.019799
v 0.920000 6.480201 -4.019799
v 0.280000 6.472000 -4.000000
v 0.920000 6.472000 -4.000000
v 0.280000 6.480201 -3.980201
v 0.920000 6.480201 -3.980201
v 0.280000 6.500000 -3.972000
v 0.920000 6.500000 -3.972000
v 0.280000 6.519799 -3.980201
v 0.920000 6.519799 -3.980201
v 0.280000 6.528000 -4.000000
v 0.920000 6.528000 -4.000000
v 0.280000 6.519799 -4.019799
v 0.920000 6.519799 -4.019799
vn 0.2588 0.9659 -0.0000
vn 0.7071 0.7071 -0.0000
vn 0.9659 0.2588 -0.0000
vn 0.9659 -0.2588 -0.0000
vn 0.7071 -0.7071 -0.0000
vn 0.2588 -0.9659 -0.0000
vn -0.2588 -0.9659 -0.0000
vn -0.7071 -0.7071 -0.0000
vn -0.9659 -0.2588 -0.0000
vn -0.9659 0.2588 -0.0000
vn -0.0000 -0.0000 1.0000
vn -0.7071 0.7071 -0.0000
vn -0.2588 0.9659 -0.0000
vn -0.0000 -0.0000 -1.0000
vn 0.5000 0.8660 -0.0000
vn 1.0000 -0.0000 -0.0000
vn 0.5000 -0.8660 -0.0000
vn -0.5000 -0.8660 -0.0000
vn -1.0000 -0.0000 -0.0000
vn -0.5000 0.8660 -0.0000
vn 0.3827 -0.0000 -0.9239
vn 0.9239 -0.0000 -0.3827
vn 0.9239 -0.0000 0.3827
vn 0.3827 -0.0000 0.9239
vn -0.3827 -0.0000 0.9239
vn -0.9239 -0.0000 0.3827
vn -0.0000 1.0000 -0.0000
vn -0.9239 -0.0000 -0.3827
vn -0.3827 -0.0000 -0.9239
vn -0.0000 -1.0000 -0.0000
vn -0.0000 -0.3827 -0.9239
vn -0.0000 -0.9239 -0.3827
vn -0.0000 -0.9239 0.3827
vn -0.0000 -0.3827 0.9239
vn -0.0000 0.3827 0.9239
vn -0.0000 0.9239 0.3827
vn -0.0000 0.9239 -0.3827
vn -0.0000 0.3827 -0.9239
vt 0.375000 0.875000
vt 0.125000 0.625000
vt 0.625000 0.625000
s 0
usemtl WorldPickupPalette
f 2/1/1 3/1/1 1/1/1
f 4/1/2 5/1/2 3/1/2
f 6/1/3 7/1/3 5/1/3
f 8/1/4 9/1/4 7/1/4
f 10/1/5 11/1/5 9/1/5
f 12/1/6 13/1/6 11/1/6
f 14/1/7 15/1/7 13/1/7
f 15/1/8 18/1/8 17/1/8
f 18/1/9 19/1/9 17/1/9
f 20/1/10 21/1/10 19/1/10
f 2/1/11 22/1/11 14/1/11
f 22/1/12 23/1/12 21/1/12
f 24/1/13 1/1/13 23/1/13
f 19/1/14 23/1/14 7/1/14
f 26/2/15 27/2/15 25/2/15
f 28/2/16 29/2/16 27/2/16
f 30/2/17 31/2/17 29/2/17
f 32/2/18 33/2/18 31/2/18
f 32/2/11 30/2/11 26/2/11
f 34/2/19 35/2/19 33/2/19
f 36/2/20 25/2/20 35/2/20
f 31/2/14 33/2/14 35/2/14
f 38/2/15 39/2/15 37/2/15
f 40/2/16 41/2/16 39/2/16
f 42/2/17 43/2/17 41/2/17
f 44/2/18 45/2/18 43/2/18
f 44/2/11 42/2/11 38/2/11
f 46/2/19 47/2/19 45/2/19
f 48/2/20 37/2/20 47/2/20
f 43/2/14 45/2/14 47/2/14
f 50/2/15 51/2/15 49/2/15
f 52/2/16 53/2/16 51/2/16
f 54/2/17 55/2/17 53/2/17
f 56/2/18 57/2/18 55/2/18
f 56/2/11 54/2/11 50/2/11
f 58/2/19 59/2/19 57/2/19
f 60/2/20 49/2/20 59/2/20
f 55/2/14 57/2/14 59/2/14
f 62/2/15 63/2/15 61/2/15
f 64/2/16 65/2/16 63/2/16
f 66/2/17 67/2/17 65/2/17
f 68/2/18 69/2/18 67/2/18
f 68/2/11 66/2/11 62/2/11
f 70/2/19 71/2/19 69/2/19
f 72/2/20 61/2/20 71/2/20
f 67/2/14 69/2/14 71/2/14
f 74/2/15 75/2/15 73/2/15
f 76/2/16 77/2/16 75/2/16
f 78/2/17 79/2/17 77/2/17
f 80/2/18 81/2/18 79/2/18
f 80/2/11 78/2/11 74/2/11
f 82/2/19 83/2/19 81/2/19
f 84/2/20 73/2/20 83/2/20
f 79/2/14 81/2/14 83/2/14
f 86/2/15 87/2/15 85/2/15
f 88/2/16 89/2/16 87/2/16
f 90/2/17 91/2/17 89/2/17
f 92/2/18 93/2/18 91/2/18
f 92/2/11 90/2/11 86/2/11
f 94/2/19 95/2/19 93/2/19
f 96/2/20 85/2/20 95/2/20
f 91/2/14 93/2/14 95/2/14
f 98/1/1 99/1/1 97/1/1
f 100/1/2 101/1/2 99/1/2
f 102/1/3 103/1/3 101/1/3
f 104/1/4 105/1/4 103/1/4
f 105/1/5 108/1/5 107/1/5
f 107/1/6 110/1/6 109/1/6
f 110/1/7 111/1/7 109/1/7
f 112/1/8 113/1/8 111/1/8
f 114/1/9 115/1/9 113/1/9
f 116/1/10 117/1/10 115/1/10
f 98/1/11 118/1/11 110/1/11
f 118/1/12 119/1/12 117/1/12
f 120/1/13 97/1/13 119/1/13
f 115/1/14 119/1/14 103/1/14
f 122/2/15 123/2/15 121/2/15
f 124/2/16 125/2/16 123/2/16
f 126/2/17 127/2/17 125/2/17
f 128/2/18 129/2/18 127/2/18
f 128/2/11 126/2/11 122/2/11
f 130/2/19 131/2/19 129/2/19
f 132/2/20 121/2/20 131/2/20
f 127/2/14 129/2/14 131/2/14
f 134/2/15 135/2/15 133/2/15
f 136/2/16 137/2/16 135/2/16
f 138/2/17 139/2/17 137/2/17
f 140/2/18 141/2/18 139/2/18
f 140/2/11 138/2/11 134/2/11
f 142/2/19 143/2/19 141/2/19
f 144/2/20 133/2/20 143/2/20
f 139/2/14 141/2/14 143/2/14
f 146/2/15 147/2/15 145/2/15
f 148/2/16 149/2/16 147/2/16
f 150/2/17 151/2/17 149/2/17
f 152/2/18 153/2/18 151/2/18
f 152/2/11 150/2/11 146/2/11
f 154/2/19 155/2/19 153/2/19
f 156/2/20 145/2/20 155/2/20
f 151/2/14 153/2/14 155/2/14
f 158/2/15 159/2/15 157/2/15
f 160/2/16 161/2/16 159/2/16
f 162/2/17 163/2/17 161/2/17
f 164/2/18 165/2/18 163/2/18
f 164/2/11 162/2/11 158/2/11
f 166/2/19 167/2/19 165/2/19
f 168/2/20 157/2/20 167/2/20
f 163/2/14 165/2/14 167/2/14
f 170/2/15 171/2/15 169/2/15
f 172/2/16 173/2/16 171/2/16
f 174/2/17 175/2/17 173/2/17
f 176/2/18 177/2/18 175/2/18
f 176/2/11 174/2/11 170/2/11
f 178/2/19 179/2/19 177/2/19
f 180/2/20 169/2/20 179/2/20
f 175/2/14 177/2/14 179/2/14
f 182/2/15 183/2/15 181/2/15
f 184/2/16 185/2/16 183/2/16
f 186/2/17 187/2/17 185/2/17
f 188/2/18 189/2/18 187/2/18
f 188/2/11 186/2/11 182/2/11
f 190/2/19 191/2/19 189/2/19
f 192/2/20 181/2/20 191/2/20
f 187/2/14 189/2/14 191/2/14
f 194/1/1 195/1/1 193/1/1
f 196/1/2 197/1/2 195/1/2
f 198/1/3 199/1/3 197/1/3
f 200/1/4 201/1/4 199/1/4
f 202/1/5 203/1/5 201/1/5
f 204/1/6 205/1/6 203/1/6
f 206/1/7 207/1/7 205/1/7
f 208/1/8 209/1/8 207/1/8
f 210/1/9 211/1/9 209/1/9
f 212/1/10 213/1/10 211/1/10
f 194/1/11 214/1/11 206/1/11
f 214/1/12 215/1/12 213/1/12
f 216/1/13 193/1/13 215/1/13
f 211/1/14 215/1/14 199/1/14
f 218/2/15 219/2/15 217/2/15
f 220/2/16 221/2/16 219/2/16
f 222/2/17 223/2/17 221/2/17
f 224/2/18 225/2/18 223/2/18
f 224/2/11 222/2/11 218/2/11
f 226/2/19 227/2/19 225/2/19
f 228/2/20 217/2/20 227/2/20
f 223/2/14 225/2/14 227/2/14
f 230/2/15 231/2/15 229/2/15
f 232/2/16 233/2/16 231/2/16
f 234/2/17 235/2/17 233/2/17
f 236/2/18 237/2/18 235/2/18
f 236/2/11 234/2/11 230/2/11
f 238/2/19 239/2/19 237/2/19
f 240/2/20 229/2/20 239/2/20
f 235/2/14 237/2/14 239/2/14
f 242/2/15 243/2/15 241/2/15
f 244/2/16 245/2/16 243/2/16
f 246/2/17 247/2/17 245/2/17
f 248/2/18 249/2/18 247/2/18
f 248/2/11 246/2/11 242/2/11
f 250/2/19 251/2/19 249/2/19
f 252/2/20 241/2/20 251/2/20
f 247/2/14 249/2/14 251/2/14
f 254/2/15 255/2/15 253/2/15
f 256/2/16 257/2/16 255/2/16
f 258/2/17 259/2/17 257/2/17
f 260/2/18 261/2/18 259/2/18
f 260/2/11 258/2/11 254/2/11
f 262/2/19 263/2/19 261/2/19
f 264/2/20 253/2/20 263/2/20
f 259/2/14 261/2/14 263/2/14
f 266/2/15 267/2/15 265/2/15
f 268/2/16 269/2/16 267/2/16
f 270/2/17 271/2/17 269/2/17
f 272/2/18 273/2/18 271/2/18
f 272/2/11 270/2/11 266/2/11
f 274/2/19 275/2/19 273/2/19
f 276/2/20 265/2/20 275/2/20
f 271/2/14 273/2/14 275/2/14
f 278/2/15 279/2/15 277/2/15
f 280/2/16 281/2/16 279/2/16
f 282/2/17 283/2/17 281/2/17
f 284/2/18 285/2/18 283/2/18
f 284/2/11 282/2/11 278/2/11
f 286/2/19 287/2/19 285/2/19
f 288/2/20 277/2/20 287/2/20
f 283/2/14 285/2/14 287/2/14
f 290/2/21 291/2/21 289/2/21
f 292/2/22 293/2/22 291/2/22
f 294/2/23 295/2/23 293/2/23
f 296/2/24 297/2/24 295/2/24
f 297/2/25 300/2/25 299/2/25
f 299/2/26 302/2/26 301/2/26
f 298/2/27 296/2/27 294/2/27
f 302/2/28 303/2/28 301/2/28
f 304/2/29 289/2/29 303/2/29
f 295/2/30 299/2/30 303/2/30
f 306/3/1 307/3/1 305/3/1
f 308/3/2 309/3/2 307/3/2
f 310/3/3 311/3/3 309/3/3
f 312/3/4 313/3/4 311/3/4
f 314/3/5 315/3/5 313/3/5
f 316/3/6 317/3/6 315/3/6
f 318/3/7 319/3/7 317/3/7
f 320/3/8 321/3/8 319/3/8
f 322/3/9 323/3/9 321/3/9
f 324/3/10 325/3/10 323/3/10
f 306/3/11 326/3/11 318/3/11
f 326/3/12 327/3/12 325/3/12
f 328/3/13 305/3/13 327/3/13
f 311/3/14 315/3/14 319/3/14
f 330/1/1 331/1/1 329/1/1
f 332/1/2 333/1/2 331/1/2
f 334/1/3 335/1/3 333/1/3
f 336/1/4 337/1/4 335/1/4
f 338/1/5 339/1/5 337/1/5
f 340/1/6 341/1/6 339/1/6
f 342/1/7 343/1/7 341/1/7
f 343/1/8 346/1/8 345/1/8
f 346/1/9 347/1/9 345/1/9
f 348/1/10 349/1/10 347/1/10
f 338/1/11 334/1/11 350/1/11
f 350/1/12 351/1/12 349/1/12
f 352/1/13 329/1/13 351/1/13
f 335/1/14 343/1/14 351/1/14
f 354/2/15 355/2/15 353/2/15
f 356/2/16 357/2/16 355/2/16
f 358/2/17 359/2/17 357/2/17
f 360/2/18 361/2/18 359/2/18
f 362/2/11 360/2/11 358/2/11
f 362/2/19 363/2/19 361/2/19
f 364/2/20 353/2/20 363/2/20
f 361/2/14 363/2/14 355/2/14
f 366/2/15 367/2/15 365/2/15
f 368/2/16 369/2/16 367/2/16
f 370/2/17 371/2/17 369/2/17
f 372/2/18 373/2/18 371/2/18
f 374/2/11 372/2/11 370/2/11
f 374/2/19 375/2/19 373/2/19
f 376/2/20 365/2/20 375/2/20
f 373/2/14 375/2/14 367/2/14
f 378/2/15 379/2/15 377/2/15
f 380/2/16 381/2/16 379/2/16
f 382/2/17 383/2/17 381/2/17
f 384/2/18 385/2/18 383/2/18
f 386/2/11 384/2/11 382/2/11
f 386/2/19 387/2/19 385/2/19
f 388/2/20 377/2/20 387/2/20
f 385/2/14 387/2/14 379/2/14
f 390/2/15 391/2/15 389/2/15
f 392/2/16 393/2/16 391/2/16
f 394/2/17 395/2/17 393/2/17
f 396/2/18 397/2/18 395/2/18
f 398/2/11 396/2/11 394/2/11
f 398/2/19 399/2/19 397/2/19
f 400/2/20 389/2/20 399/2/20
f 397/2/14 399/2/14 391/2/14
f 402/2/15 403/2/15 401/2/15
f 404/2/16 405/2/16 403/2/16
f 406/2/17 407/2/17 405/2/17
f 408/2/18 409/2/18 407/2/18
f 410/2/11 408/2/11 406/2/11
f 410/2/19 411/2/19 409/2/19
f 412/2/20 401/2/20 411/2/20
f 409/2/14 411/2/14 403/2/14
f 414/2/15 415/2/15 413/2/15
f 416/2/16 417/2/16 415/2/16
f 418/2/17 419/2/17 417/2/17
f 420/2/18 421/2/18 419/2/18
f 422/2/11 420/2/11 418/2/11
f 422/2/19 423/2/19 421/2/19
f 424/2/20 413/2/20 423/2/20
f 421/2/14 423/2/14 415/2/14
f 426/1/1 427/1/1 425/1/1
f 428/1/2 429/1/2 427/1/2
f 430/1/3 431/1/3 429/1/3
f 432/1/4 433/1/4 431/1/4
f 433/1/5 436/1/5 435/1/5
f 435/1/6 438/1/6 437/1/6
f 438/1/7 439/1/7 437/1/7
f 440/1/8 441/1/8 439/1/8
f 442/1/9 443/1/9 441/1/9
f 444/1/10 445/1/10 443/1/10
f 434/1/11 430/1/11 446/1/11
f 446/1/12 447/1/12 445/1/12
f 448/1/13 425/1/13 447/1/13
f 431/1/14 439/1/14 447/1/14
f 450/2/15 451/2/15 449/2/15
f 452/2/16 453/2/16 451/2/16
f 454/2/17 455/2/17 453/2/17
f 456/2/18 457/2/18 455/2/18
f 458/2/11 456/2/11 454/2/11
f 458/2/19 459/2/19 457/2/19
f 460/2/20 449/2/20 459/2/20
f 457/2/14 459/2/14 451/2/14
f 462/2/15 463/2/15 461/2/15
f 464/2/16 465/2/16 463/2/16
f 466/2/17 467/2/17 465/2/17
f 468/2/18 469/2/18 467/2/18
f 470/2/11 468/2/11 466/2/11
f 470/2/19 471/2/19 469/2/19
f 472/2/20 461/2/20 471/2/20
f 469/2/14 471/2/14 463/2/14
f 474/2/15 475/2/15 473/2/15
f 476/2/16 477/2/16 475/2/16
f 478/2/17 479/2/17 477/2/17
f 480/2/18 481/2/18 479/2/18
f 482/2/11 480/2/11 478/2/11
f 482/2/19 483/2/19 481/2/19
f 484/2/20 473/2/20 483/2/20
f 481/2/14 483/2/14 475/2/14
f 486/2/15 487/2/15 485/2/15
f 488/2/16 489/2/16 487/2/16
f 490/2/17 491/2/17 489/2/17
f 492/2/18 493/2/18 491/2/18
f 494/2/11 492/2/11 490/2/11
f 494/2/19 495/2/19 493/2/19
f 496/2/20 485/2/20 495/2/20
f 493/2/14 495/2/14 487/2/14
f 498/2/15 499/2/15 497/2/15
f 500/2/16 501/2/16 499/2/16
f 502/2/17 503/2/17 501/2/17
f 504/2/18 505/2/18 503/2/18
f 506/2/11 504/2/11 502/2/11
f 506/2/19 507/2/19 505/2/19
f 508/2/20 497/2/20 507/2/20
f 505/2/14 507/2/14 499/2/14
f 510/2/15 511/2/15 509/2/15
f 512/2/16 513/2/16 511/2/16
f 514/2/17 515/2/17 513/2/17
f 516/2/18 517/2/18 515/2/18
f 518/2/11 516/2/11 514/2/11
f 518/2/19 519/2/19 517/2/19
f 520/2/20 509/2/20 519/2/20
f 517/2/14 519/2/14 511/2/14
f 522/1/1 523/1/1 521/1/1
f 524/1/2 525/1/2 523/1/2
f 526/1/3 527/1/3 525/1/3
f 528/1/4 529/1/4 527/1/4
f 530/1/5 531/1/5 529/1/5
f 532/1/6 533/1/6 531/1/6
f 534/1/7 535/1/7 533/1/7
f 536/1/8 537/1/8 535/1/8
f 538/1/9 539/1/9 537/1/9
f 540/1/10 541/1/10 539/1/10
f 530/1/11 526/1/11 542/1/11
f 542/1/12 543/1/12 541/1/12
f 544/1/13 521/1/13 543/1/13
f 527/1/14 535/1/14 543/1/14
f 546/2/15 547/2/15 545/2/15
f 548/2/16 549/2/16 547/2/16
f 550/2/17 551/2/17 549/2/17
f 552/2/18 553/2/18 551/2/18
f 554/2/11 552/2/11 550/2/11
f 554/2/19 555/2/19 553/2/19
f 556/2/20 545/2/20 555/2/20
f 553/2/14 555/2/14 547/2/14
f 558/2/15 559/2/15 557/2/15
f 560/2/16 561/2/16 559/2/16
f 562/2/17 563/2/17 561/2/17
f 564/2/18 565/2/18 563/2/18
f 566/2/11 564/2/11 562/2/11
f 566/2/19 567/2/19 565/2/19
f 568/2/20 557/2/20 567/2/20
f 565/2/14 567/2/14 559/2/14
f 570/2/15 571/2/15 569/2/15
f 572/2/16 573/2/16 571/2/16
f 574/2/17 575/2/17 573/2/17
f 576/2/18 577/2/18 575/2/18
f 578/2/11 576/2/11 574/2/11
f 578/2/19 579/2/19 577/2/19
f 580/2/20 569/2/20 579/2/20
f 577/2/14 579/2/14 571/2/14
f 582/2/15 583/2/15 581/2/15
f 584/2/16 585/2/16 583/2/16
f 586/2/17 587/2/17 585/2/17
f 588/2/18 589/2/18 587/2/18
f 590/2/11 588/2/11 586/2/11
f 590/2/19 591/2/19 589/2/19
f 592/2/20 581/2/20 591/2/20
f 589/2/14 591/2/14 583/2/14
f 594/2/15 595/2/15 593/2/15
f 596/2/16 597/2/16 595/2/16
f 598/2/17 599/2/17 597/2/17
f 600/2/18 601/2/18 599/2/18
f 602/2/11 600/2/11 598/2/11
f 602/2/19 603/2/19 601/2/19
f 604/2/20 593/2/20 603/2/20
f 601/2/14 603/2/14 595/2/14
f 606/2/15 607/2/15 605/2/15
f 608/2/16 609/2/16 607/2/16
f 610/2/17 611/2/17 609/2/17
f 612/2/18 613/2/18 611/2/18
f 614/2/11 612/2/11 610/2/11
f 614/2/19 615/2/19 613/2/19
f 616/2/20 605/2/20 615/2/20
f 613/2/14 615/2/14 607/2/14
f 618/2/21 619/2/21 617/2/21
f 620/2/22 621/2/22 619/2/22
f 622/2/23 623/2/23 621/2/23
f 624/2/24 625/2/24 623/2/24
f 626/2/25 627/2/25 625/2/25
f 627/2/26 630/2/26 629/2/26
f 630/2/27 626/2/27 622/2/27
f 630/2/28 631/2/28 629/2/28
f 632/2/29 617/2/29 631/2/29
f 629/2/30 631/2/30 623/2/30
f 634/3/1 635/3/1 633/3/1
f 636/3/2 637/3/2 635/3/2
f 638/3/3 639/3/3 637/3/3
f 640/3/4 641/3/4 639/3/4
f 642/3/5 643/3/5 641/3/5
f 644/3/6 645/3/6 643/3/6
f 646/3/7 647/3/7 645/3/7
f 648/3/8 649/3/8 647/3/8
f 650/3/9 651/3/9 649/3/9
f 652/3/10 653/3/10 651/3/10
f 634/3/11 654/3/11 646/3/11
f 654/3/12 655/3/12 653/3/12
f 656/3/13 633/3/13 655/3/13
f 651/3/14 655/3/14 639/3/14
f 658/2/21 659/2/21 657/2/21
f 660/2/22 661/2/22 659/2/22
f 662/2/23 663/2/23 661/2/23
f 664/2/24 665/2/24 663/2/24
f 666/2/25 667/2/25 665/2/25
f 668/2/26 669/2/26 667/2/26
f 670/2/27 666/2/27 662/2/27
f 670/2/28 671/2/28 669/2/28
f 672/2/29 657/2/29 671/2/29
f 669/2/30 671/2/30 663/2/30
f 674/2/21 675/2/21 673/2/21
f 676/2/22 677/2/22 675/2/22
f 678/2/23 679/2/23 677/2/23
f 680/2/24 681/2/24 679/2/24
f 682/2/25 683/2/25 681/2/25
f 684/2/26 685/2/26 683/2/26
f 686/2/27 682/2/27 678/2/27
f 686/2/28 687/2/28 685/2/28
f 688/2/29 673/2/29 687/2/29
f 685/2/30 687/2/30 679/2/30
f 690/1/31 691/1/31 689/1/31
f 692/1/32 693/1/32 691/1/32
f 694/1/33 695/1/33 693/1/33
f 696/1/34 697/1/34 695/1/34
f 698/1/35 699/1/35 697/1/35
f 700/1/36 701/1/36 699/1/36
f 690/1/16 702/1/16 698/1/16
f 702/1/37 703/1/37 701/1/37
f 704/1/38 689/1/38 703/1/38
f 701/1/19 703/1/19 695/1/19
f 706/1/31 707/1/31 705/1/31
f 708/1/32 709/1/32 707/1/32
f 710/1/33 711/1/33 709/1/33
f 712/1/34 713/1/34 711/1/34
f 714/1/35 715/1/35 713/1/35
f 716/1/36 717/1/36 715/1/36
f 706/1/16 718/1/16 714/1/16
f 718/1/37 719/1/37 717/1/37
f 720/1/38 705/1/38 719/1/38
f 717/1/19 719/1/19 711/1/19
f 722/1/31 723/1/31 721/1/31
f 724/1/32 725/1/32 723/1/32
f 726/1/33 727/1/33 725/1/33
f 728/1/34 729/1/34 727/1/34
f 730/1/35 731/1/35 729/1/35
f 732/1/36 733/1/36 731/1/36
f 722/1/16 734/1/16 730/1/16
f 734/1/37 735/1/37 733/1/37
f 736/1/38 721/1/38 735/1/38
f 733/1/19 735/1/19 727/1/19
f 738/1/31 739/1/31 737/1/31
f 740/1/32 741/1/32 739/1/32
f 742/1/33 743/1/33 741/1/33
f 744/1/34 745/1/34 743/1/34
f 746/1/35 747/1/35 745/1/35
f 748/1/36 749/1/36 747/1/36
f 738/1/16 750/1/16 746/1/16
f 750/1/37 751/1/37 749/1/37
f 751/1/38 738/1/38 737/1/38
f 747/1/19 749/1/19 751/1/19
f 754/1/31 755/1/31 753/1/31
f 756/1/32 757/1/32 755/1/32
f 758/1/33 759/1/33 757/1/33
f 760/1/34 761/1/34 759/1/34
f 762/1/35 763/1/35 761/1/35
f 764/1/36 765/1/36 763/1/36
f 754/1/16 766/1/16 762/1/16
f 766/1/37 767/1/37 765/1/37
f 768/1/38 753/1/38 767/1/38
f 763/1/19 765/1/19 767/1/19
f 770/1/31 771/1/31 769/1/31
f 772/1/32 773/1/32 771/1/32
f 774/1/33 775/1/33 773/1/33
f 776/1/34 777/1/34 775/1/34
f 778/1/35 779/1/35 777/1/35
f 780/1/36 781/1/36 779/1/36
f 770/1/16 782/1/16 778/1/16
f 782/1/37 783/1/37 781/1/37
f 784/1/38 769/1/38 783/1/38
f 781/1/19 783/1/19 775/1/19
f 786/1/31 787/1/31 785/1/31
f 788/1/32 789/1/32 787/1/32
f 790/1/33 791/1/33 789/1/33
f 792/1/34 793/1/34 791/1/34
f 794/1/35 795/1/35 793/1/35
f 796/1/36 797/1/36 795/1/36
f 786/1/16 798/1/16 794/1/16
f 798/1/37 799/1/37 797/1/37
f 800/1/38 785/1/38 799/1/38
f 797/1/19 799/1/19 791/1/19
f 802/1/31 803/1/31 801/1/31
f 804/1/32 805/1/32 803/1/32
f 806/1/33 807/1/33 805/1/33
f 808/1/34 809/1/34 807/1/34
f 810/1/35 811/1/35 809/1/35
f 812/1/36 813/1/36 811/1/36
f 802/1/16 814/1/16 810/1/16
f 814/1/37 815/1/37 813/1/37
f 816/1/38 801/1/38 815/1/38
f 813/1/19 815/1/19 807/1/19
f 818/1/31 819/1/31 817/1/31
f 820/1/32 821/1/32 819/1/32
f 822/1/33 823/1/33 821/1/33
f 824/1/34 825/1/34 823/1/34
f 826/1/35 827/1/35 825/1/35
f 828/1/36 829/1/36 827/1/36
f 818/1/16 830/1/16 826/1/16
f 830/1/37 831/1/37 829/1/37
f 832/1/38 817/1/38 831/1/38
f 827/1/19 829/1/19 831/1/19
f 834/1/31 835/1/31 833/1/31
f 836/1/32 837/1/32 835/1/32
f 838/1/33 839/1/33 837/1/33
f 840/1/34 841/1/34 839/1/34
f 842/1/35 843/1/35 841/1/35
f 844/1/36 845/1/36 843/1/36
f 838/1/16 834/1/16 846/1/16
f 846/1/37 847/1/37 845/1/37
f 848/1/38 833/1/38 847/1/38
f 839/1/19 843/1/19 847/1/19
f 850/1/31 851/1/31 849/1/31
f 852/1/32 853/1/32 851/1/32
f 854/1/33 855/1/33 853/1/33
f 856/1/34 857/1/34 855/1/34
f 858/1/35 859/1/35 857/1/35
f 860/1/36 861/1/36 859/1/36
f 854/1/16 850/1/16 862/1/16
f 862/1/37 863/1/37 861/1/37
f 864/1/38 849/1/38 863/1/38
f 855/1/19 859/1/19 863/1/19
f 866/1/31 867/1/31 865/1/31
f 868/1/32 869/1/32 867/1/32
f 870/1/33 871/1/33 869/1/33
f 872/1/34 873/1/34 871/1/34
f 874/1/35 875/1/35 873/1/35
f 876/1/36 877/1/36 875/1/36
f 866/1/16 878/1/16 874/1/16
f 878/1/37 879/1/37 877/1/37
f 880/1/38 865/1/38 879/1/38
f 879/1/19 867/1/19 871/1/19
f 882/1/31 883/1/31 881/1/31
f 884/1/32 885/1/32 883/1/32
f 886/1/33 887/1/33 885/1/33
f 888/1/34 889/1/34 887/1/34
f 890/1/35 891/1/35 889/1/35
f 892/1/36 893/1/36 891/1/36
f 890/1/16 888/1/16 886/1/16
f 894/1/37 895/1/37 893/1/37
f 896/1/38 881/1/38 895/1/38
f 895/1/19 883/1/19 887/1/19
f 898/1/31 899/1/31 897/1/31
f 900/1/32 901/1/32 899/1/32
f 902/1/33 903/1/33 901/1/33
f 904/1/34 905/1/34 903/1/34
f 906/1/35 907/1/35 905/1/35
f 908/1/36 909/1/36 907/1/36
f 898/1/16 910/1/16 906/1/16
f 910/1/37 911/1/37 909/1/37
f 912/1/38 897/1/38 911/1/38
f 911/1/19 899/1/19 903/1/19
f 914/1/31 915/1/31 913/1/31
f 916/1/32 917/1/32 915/1/32
f 918/1/33 919/1/33 917/1/33
f 920/1/34 921/1/34 919/1/34
f 922/1/35 923/1/35 921/1/35
f 924/1/36 925/1/36 923/1/36
f 914/1/16 926/1/16 922/1/16
f 926/1/37 927/1/37 925/1/37
f 928/1/38 913/1/38 927/1/38
f 927/1/19 915/1/19 919/1/19
f 930/1/31 931/1/31 929/1/31
f 932/1/32 933/1/32 931/1/32
f 934/1/33 935/1/33 933/1/33
f 936/1/34 937/1/34 935/1/34
f 938/1/35 939/1/35 937/1/35
f 940/1/36 941/1/36 939/1/36
f 930/1/16 942/1/16 938/1/16
f 942/1/37 943/1/37 941/1/37
f 944/1/38 929/1/38 943/1/38
f 941/1/19 943/1/19 935/1/19
f 946/1/31 947/1/31 945/1/31
f 948/1/32 949/1/32 947/1/32
f 950/1/33 951/1/33 949/1/33
f 952/1/34 953/1/34 951/1/34
f 954/1/35 955/1/35 953/1/35
f 956/1/36 957/1/36 955/1/36
f 946/1/16 958/1/16 954/1/16
f 958/1/37 959/1/37 957/1/37
f 960/1/38 945/1/38 959/1/38
f 957/1/19 959/1/19 951/1/19
f 961/1/31 964/1/31 963/1/31
f 964/1/32 965/1/32 963/1/32
f 966/1/33 967/1/33 965/1/33
f 968/1/34 969/1/34 967/1/34
f 970/1/35 971/1/35 969/1/35
f 972/1/36 973/1/36 971/1/36
f 966/1/16 962/1/16 974/1/16
f 974/1/37 975/1/37 973/1/37
f 975/1/38 962/1/38 961/1/38
f 971/1/19 973/1/19 975/1/19
f 977/1/31 980/1/31 979/1/31
f 980/1/32 981/1/32 979/1/32
f 982/1/33 983/1/33 981/1/33
f 984/1/34 985/1/34 983/1/34
f 986/1/35 987/1/35 985/1/35
f 988/1/36 989/1/36 987/1/36
f 982/1/16 978/1/16 990/1/16
f 990/1/37 991/1/37 989/1/37
f 991/1/38 978/1/38 977/1/38
f 987/1/19 989/1/19 991/1/19
f 993/1/31 996/1/31 995/1/31
f 996/1/32 997/1/32 995/1/32
f 998/1/33 999/1/33 997/1/33
f 1000/1/34 1001/1/34 999/1/34
f 1002/1/35 1003/1/35 1001/1/35
f 1004/1/36 1005/1/36 1003/1/36
f 998/1/16 994/1/16 1006/1/16
f 1006/1/37 1007/1/37 1005/1/37
f 1007/1/38 994/1/38 993/1/38
f 1003/1/19 1005/1/19 1007/1/19
f 1009/1/31 1012/1/31 1011/1/31
f 1012/1/32 1013/1/32 1011/1/32
f 1014/1/33 1015/1/33 1013/1/33
f 1016/1/34 1017/1/34 1015/1/34
f 1018/1/35 1019/1/35 1017/1/35
f 1020/1/36 1021/1/36 1019/1/36
f 1014/1/16 1010/1/16 1022/1/16
f 1022/1/37 1023/1/37 1021/1/37
f 1023/1/38 1010/1/38 1009/1/38
f 1019/1/19 1021/1/19 1023/1/19
f 1025/1/31 1028/1/31 1027/1/31
f 1028/1/32 1029/1/32 1027/1/32
f 1030/1/33 1031/1/33 1029/1/33
f 1032/1/34 1033/1/34 1031/1/34
f 1034/1/35 1035/1/35 1033/1/35
f 1036/1/36 1037/1/36 1035/1/36
f 1026/1/16 1038/1/16 1034/1/16
f 1038/1/37 1039/1/37 1037/1/37
f 1039/1/38 1026/1/38 1025/1/38
f 1035/1/19 1037/1/19 1039/1/19
f 2/1/1 4/1/1 3/1/1
f 4/1/2 6/1/2 5/1/2
f 6/1/3 8/1/3 7/1/3
f 8/1/4 10/1/4 9/1/4
f 10/1/5 12/1/5 11/1/5
f 12/1/6 14/1/6 13/1/6
f 14/1/7 16/1/7 15/1/7
f 15/1/8 16/1/8 18/1/8
f 18/1/9 20/1/9 19/1/9
f 20/1/10 22/1/10 21/1/10
f 6/1/11 4/1/11 2/1/11
f 2/1/11 24/1/11 22/1/11
f 22/1/11 20/1/11 14/1/11
f 20/1/11 18/1/11 14/1/11
f 18/1/11 16/1/11 14/1/11
f 14/1/11 12/1/11 10/1/11
f 10/1/11 8/1/11 14/1/11
f 8/1/11 6/1/11 14/1/11
f 6/1/11 2/1/11 14/1/11
f 22/1/12 24/1/12 23/1/12
f 24/1/13 2/1/13 1/1/13
f 23/1/14 1/1/14 7/1/14
f 1/1/14 3/1/14 7/1/14
f 3/1/14 5/1/14 7/1/14
f 7/1/14 9/1/14 11/1/14
f 11/1/14 13/1/14 7/1/14
f 13/1/14 15/1/14 7/1/14
f 15/1/14 17/1/14 19/1/14
f 19/1/14 21/1/14 23/1/14
f 15/1/14 19/1/14 7/1/14
f 26/2/15 28/2/15 27/2/15
f 28/2/16 30/2/16 29/2/16
f 30/2/17 32/2/17 31/2/17
f 32/2/18 34/2/18 33/2/18
f 30/2/11 28/2/11 26/2/11
f 26/2/11 36/2/11 34/2/11
f 34/2/11 32/2/11 26/2/11
f 34/2/19 36/2/19 35/2/19
f 36/2/20 26/2/20 25/2/20
f 35/2/14 25/2/14 31/2/14
f 25/2/14 27/2/14 31/2/14
f 27/2/14 29/2/14 31/2/14
f 38/2/15 40/2/15 39/2/15
f 40/2/16 42/2/16 41/2/16
f 42/2/17 44/2/17 43/2/17
f 44/2/18 46/2/18 45/2/18
f 42/2/11 40/2/11 38/2/11
f 38/2/11 48/2/11 46/2/11
f 46/2/11 44/2/11 38/2/11
f 46/2/19 48/2/19 47/2/19
f 48/2/20 38/2/20 37/2/20
f 47/2/14 37/2/14 43/2/14
f 37/2/14 39/2/14 43/2/14
f 39/2/14 41/2/14 43/2/14
f 50/2/15 52/2/15 51/2/15
f 52/2/16 54/2/16 53/2/16
f 54/2/17 56/2/17 55/2/17
f 56/2/18 58/2/18 57/2/18
f 54/2/11 52/2/11 50/2/11
f 50/2/11 60/2/11 58/2/11
f 58/2/11 56/2/11 50/2/11
f 58/2/19 60/2/19 59/2/19
f 60/2/20 50/2/20 49/2/20
f 59/2/14 49/2/14 55/2/14
f 49/2/14 51/2/14 55/2/14
f 51/2/14 53/2/14 55/2/14
f 62/2/15 64/2/15 63/2/15
f 64/2/16 66/2/16 65/2/16
f 66/2/17 68/2/17 67/2/17
f 68/2/18 70/2/18 69/2/18
f 66/2/11 64/2/11 62/2/11
f 62/2/11 72/2/11 70/2/11
f 70/2/11 68/2/11 62/2/11
f 70/2/19 72/2/19 71/2/19
f 72/2/20 62/2/20 61/2/20
f 71/2/14 61/2/14 67/2/14
f 61/2/14 63/2/14 67/2/14
f 63/2/14 65/2/14 67/2/14
f 74/2/15 76/2/15 75/2/15
f 76/2/16 78/2/16 77/2/16
f 78/2/17 80/2/17 79/2/17
f 80/2/18 82/2/18 81/2/18
f 78/2/11 76/2/11 74/2/11
f 74/2/11 84/2/11 82/2/11
f 82/2/11 80/2/11 74/2/11
f 82/2/19 84/2/19 83/2/19
f 84/2/20 74/2/20 73/2/20
f 83/2/14 73/2/14 79/2/14
f 73/2/14 75/2/14 79/2/14
f 75/2/14 77/2/14 79/2/14
f 86/2/15 88/2/15 87/2/15
f 88/2/16 90/2/16 89/2/16
f 90/2/17 92/2/17 91/2/17
f 92/2/18 94/2/18 93/2/18
f 90/2/11 88/2/11 86/2/11
f 86/2/11 96/2/11 94/2/11
f 94/2/11 92/2/11 86/2/11
f 94/2/19 96/2/19 95/2/19
f 96/2/20 86/2/20 85/2/20
f 95/2/14 85/2/14 91/2/14
f 85/2/14 87/2/14 91/2/14
f 87/2/14 89/2/14 91/2/14
f 98/1/1 100/1/1 99/1/1
f 100/1/2 102/1/2 101/1/2
f 102/1/3 104/1/3 103/1/3
f 104/1/4 106/1/4 105/1/4
f 105/1/5 106/1/5 108/1/5
f 107/1/6 108/1/6 110/1/6
f 110/1/7 112/1/7 111/1/7
f 112/1/8 114/1/8 113/1/8
f 114/1/9 116/1/9 115/1/9
f 116/1/10 118/1/10 117/1/10
f 102/1/11 100/1/11 98/1/11
f 98/1/11 120/1/11 118/1/11
f 118/1/11 116/1/11 110/1/11
f 116/1/11 114/1/11 110/1/11
f 114/1/11 112/1/11 110/1/11
f 110/1/11 108/1/11 106/1/11
f 106/1/11 104/1/11 110/1/11
f 104/1/11 102/1/11 110/1/11
f 102/1/11 98/1/11 110/1/11
f 118/1/12 120/1/12 119/1/12
f 120/1/13 98/1/13 97/1/13
f 119/1/14 97/1/14 103/1/14
f 97/1/14 99/1/14 103/1/14
f 99/1/14 101/1/14 103/1/14
f 103/1/14 105/1/14 107/1/14
f 107/1/14 109/1/14 103/1/14
f 109/1/14 111/1/14 103/1/14
f 111/1/14 113/1/14 115/1/14
f 115/1/14 117/1/14 119/1/14
f 111/1/14 115/1/14 103/1/14
f 122/2/15 124/2/15 123/2/15
f 124/2/16 126/2/16 125/2/16
f 126/2/17 128/2/17 127/2/17
f 128/2/18 130/2/18 129/2/18
f 126/2/11 124/2/11 122/2/11
f 122/2/11 132/2/11 130/2/11
f 130/2/11 128/2/11 122/2/11
f 130/2/19 132/2/19 131/2/19
f 132/2/20 122/2/20 121/2/20
f 131/2/14 121/2/14 127/2/14
f 121/2/14 123/2/14 127/2/14
f 123/2/14 125/2/14 127/2/14
f 134/2/15 136/2/15 135/2/15
f 136/2/16 138/2/16 137/2/16
f 138/2/17 140/2/17 139/2/17
f 140/2/18 142/2/18 141/2/18
f 138/2/11 136/2/11 134/2/11
f 134/2/11 144/2/11 142/2/11
f 142/2/11 140/2/11 134/2/11
f 142/2/19 144/2/19 143/2/19
f 144/2/20 134/2/20 133/2/20
f 143/2/14 133/2/14 139/2/14
f 133/2/14 135/2/14 139/2/14
f 135/2/14 137/2/14 139/2/14
f 146/2/15 148/2/15 147/2/15
f 148/2/16 150/2/16 149/2/16
f 150/2/17 152/2/17 151/2/17
f 152/2/18 154/2/18 153/2/18
f 150/2/11 148/2/11 146/2/11
f 146/2/11 156/2/11 154/2/11
f 154/2/11 152/2/11 146/2/11
f 154/2/19 156/2/19 155/2/19
f 156/2/20 146/2/20 145/2/20
f 155/2/14 145/2/14 151/2/14
f 145/2/14 147/2/14 151/2/14
f 147/2/14 149/2/14 151/2/14
f 158/2/15 160/2/15 159/2/15
f 160/2/16 162/2/16 161/2/16
f 162/2/17 164/2/17 163/2/17
f 164/2/18 166/2/18 165/2/18
f 162/2/11 160/2/11 158/2/11
f 158/2/11 168/2/11 166/2/11
f 166/2/11 164/2/11 158/2/11
f 166/2/19 168/2/19 167/2/19
f 168/2/20 158/2/20 157/2/20
f 167/2/14 157/2/14 163/2/14
f 157/2/14 159/2/14 163/2/14
f 159/2/14 161/2/14 163/2/14
f 170/2/15 172/2/15 171/2/15
f 172/2/16 174/2/16 173/2/16
f 174/2/17 176/2/17 175/2/17
f 176/2/18 178/2/18 177/2/18
f 174/2/11 172/2/11 170/2/11
f 170/2/11 180/2/11 178/2/11
f 178/2/11 176/2/11 170/2/11
f 178/2/19 180/2/19 179/2/19
f 180/2/20 170/2/20 169/2/20
f 179/2/14 169/2/14 175/2/14
f 169/2/14 171/2/14 175/2/14
f 171/2/14 173/2/14 175/2/14
f 182/2/15 184/2/15 183/2/15
f 184/2/16 186/2/16 185/2/16
f 186/2/17 188/2/17 187/2/17
f 188/2/18 190/2/18 189/2/18
f 186/2/11 184/2/11 182/2/11
f 182/2/11 192/2/11 190/2/11
f 190/2/11 188/2/11 182/2/11
f 190/2/19 192/2/19 191/2/19
f 192/2/20 182/2/20 181/2/20
f 191/2/14 181/2/14 187/2/14
f 181/2/14 183/2/14 187/2/14
f 183/2/14 185/2/14 187/2/14
f 194/1/1 196/1/1 195/1/1
f 196/1/2 198/1/2 197/1/2
f 198/1/3 200/1/3 199/1/3
f 200/1/4 202/1/4 201/1/4
f 202/1/5 204/1/5 203/1/5
f 204/1/6 206/1/6 205/1/6
f 206/1/7 208/1/7 207/1/7
f 208/1/8 210/1/8 209/1/8
f 210/1/9 212/1/9 211/1/9
f 212/1/10 214/1/10 213/1/10
f 198/1/11 196/1/11 194/1/11
f 194/1/11 216/1/11 214/1/11
f 214/1/11 212/1/11 206/1/11
f 212/1/11 210/1/11 206/1/11
f 210/1/11 208/1/11 206/1/11
f 206/1/11 204/1/11 202/1/11
f 202/1/11 200/1/11 206/1/11
f 200/1/11 198/1/11 206/1/11
f 198/1/11 194/1/11 206/1/11
f 214/1/12 216/1/12 215/1/12
f 216/1/13 194/1/13 193/1/13
f 215/1/14 193/1/14 199/1/14
f 193/1/14 195/1/14 199/1/14
f 195/1/14 197/1/14 199/1/14
f 199/1/14 201/1/14 203/1/14
f 203/1/14 205/1/14 199/1/14
f 205/1/14 207/1/14 199/1/14
f 207/1/14 209/1/14 211/1/14
f 211/1/14 213/1/14 215/1/14
f 207/1/14 211/1/14 199/1/14
f 218/2/15 220/2/15 219/2/15
f 220/2/16 222/2/16 221/2/16
f 222/2/17 224/2/17 223/2/17
f 224/2/18 226/2/18 225/2/18
f 222/2/11 220/2/11 218/2/11
f 218/2/11 228/2/11 226/2/11
f 226/2/11 224/2/11 218/2/11
f 226/2/19 228/2/19 227/2/19
f 228/2/20 218/2/20 217/2/20
f 227/2/14 217/2/14 223/2/14
f 217/2/14 219/2/14 223/2/14
f 219/2/14 221/2/14 223/2/14
f 230/2/15 232/2/15 231/2/15
f 232/2/16 234/2/16 233/2/16
f 234/2/17 236/2/17 235/2/17
f 236/2/18 238/2/18 237/2/18
f 234/2/11 232/2/11 230/2/11
f 230/2/11 240/2/11 238/2/11
f 238/2/11 236/2/11 230/2/11
f 238/2/19 240/2/19 239/2/19
f 240/2/20 230/2/20 229/2/20
f 239/2/14 229/2/14 235/2/14
f 229/2/14 231/2/14 235/2/14
f 231/2/14 233/2/14 235/2/14
f 242/2/15 244/2/15 243/2/15
f 244/2/16 246/2/16 245/2/16
f 246/2/17 248/2/17 247/2/17
f 248/2/18 250/2/18 249/2/18
f 246/2/11 244/2/11 242/2/11
f 242/2/11 252/2/11 250/2/11
f 250/2/11 248/2/11 242/2/11
f 250/2/19 252/2/19 251/2/19
f 252/2/20 242/2/20 241/2/20
f 251/2/14 241/2/14 247/2/14
f 241/2/14 243/2/14 247/2/14
f 243/2/14 245/2/14 247/2/14
f 254/2/15 256/2/15 255/2/15
f 256/2/16 258/2/16 257/2/16
f 258/2/17 260/2/17 259/2/17
f 260/2/18 262/2/18 261/2/18
f 258/2/11 256/2/11 254/2/11
f 254/2/11 264/2/11 262/2/11
f 262/2/11 260/2/11 254/2/11
f 262/2/19 264/2/19 263/2/19
f 264/2/20 254/2/20 253/2/20
f 263/2/14 253/2/14 259/2/14
f 253/2/14 255/2/14 259/2/14
f 255/2/14 257/2/14 259/2/14
f 266/2/15 268/2/15 267/2/15
f 268/2/16 270/2/16 269/2/16
f 270/2/17 272/2/17 271/2/17
f 272/2/18 274/2/18 273/2/18
f 270/2/11 268/2/11 266/2/11
f 266/2/11 276/2/11 274/2/11
f 274/2/11 272/2/11 266/2/11
f 274/2/19 276/2/19 275/2/19
f 276/2/20 266/2/20 265/2/20
f 275/2/14 265/2/14 271/2/14
f 265/2/14 267/2/14 271/2/14
f 267/2/14 269/2/14 271/2/14
f 278/2/15 280/2/15 279/2/15
f 280/2/16 282/2/16 281/2/16
f 282/2/17 284/2/17 283/2/17
f 284/2/18 286/2/18 285/2/18
f 282/2/11 280/2/11 278/2/11
f 278/2/11 288/2/11 286/2/11
f 286/2/11 284/2/11 278/2/11
f 286/2/19 288/2/19 287/2/19
f 288/2/20 278/2/20 277/2/20
f 287/2/14 277/2/14 283/2/14
f 277/2/14 279/2/14 283/2/14
f 279/2/14 281/2/14 283/2/14
f 290/2/21 292/2/21 291/2/21
f 292/2/22 294/2/22 293/2/22
f 294/2/23 296/2/23 295/2/23
f 296/2/24 298/2/24 297/2/24
f 297/2/25 298/2/25 300/2/25
f 299/2/26 300/2/26 302/2/26
f 294/2/27 292/2/27 290/2/27
f 290/2/27 304/2/27 294/2/27
f 304/2/27 302/2/27 294/2/27
f 302/2/27 300/2/27 294/2/27
f 300/2/27 298/2/27 294/2/27
f 302/2/28 304/2/28 303/2/28
f 304/2/29 290/2/29 289/2/29
f 303/2/30 289/2/30 291/2/30
f 291/2/30 293/2/30 295/2/30
f 295/2/30 297/2/30 299/2/30
f 299/2/30 301/2/30 303/2/30
f 303/2/30 291/2/30 295/2/30
f 306/3/1 308/3/1 307/3/1
f 308/3/2 310/3/2 309/3/2
f 310/3/3 312/3/3 311/3/3
f 312/3/4 314/3/4 313/3/4
f 314/3/5 316/3/5 315/3/5
f 316/3/6 318/3/6 317/3/6
f 318/3/7 320/3/7 319/3/7
f 320/3/8 322/3/8 321/3/8
f 322/3/9 324/3/9 323/3/9
f 324/3/10 326/3/10 325/3/10
f 310/3/11 308/3/11 306/3/11
f 306/3/11 328/3/11 326/3/11
f 326/3/11 324/3/11 322/3/11
f 322/3/11 320/3/11 326/3/11
f 320/3/11 318/3/11 326/3/11
f 318/3/11 316/3/11 310/3/11
f 316/3/11 314/3/11 310/3/11
f 314/3/11 312/3/11 310/3/11
f 310/3/11 306/3/11 318/3/11
f 326/3/12 328/3/12 327/3/12
f 328/3/13 306/3/13 305/3/13
f 327/3/14 305/3/14 307/3/14
f 307/3/14 309/3/14 311/3/14
f 311/3/14 313/3/14 315/3/14
f 315/3/14 317/3/14 319/3/14
f 319/3/14 321/3/14 323/3/14
f 323/3/14 325/3/14 319/3/14
f 325/3/14 327/3/14 319/3/14
f 327/3/14 307/3/14 319/3/14
f 307/3/14 311/3/14 319/3/14
f 330/1/1 332/1/1 331/1/1
f 332/1/2 334/1/2 333/1/2
f 334/1/3 336/1/3 335/1/3
f 336/1/4 338/1/4 337/1/4
f 338/1/5 340/1/5 339/1/5
f 340/1/6 342/1/6 341/1/6
f 342/1/7 344/1/7 343/1/7
f 343/1/8 344/1/8 346/1/8
f 346/1/9 348/1/9 347/1/9
f 348/1/10 350/1/10 349/1/10
f 334/1/11 332/1/11 330/1/11
f 330/1/11 352/1/11 350/1/11
f 350/1/11 348/1/11 346/1/11
f 346/1/11 344/1/11 342/1/11
f 342/1/11 340/1/11 338/1/11
f 338/1/11 336/1/11 334/1/11
f 334/1/11 330/1/11 350/1/11
f 350/1/11 346/1/11 342/1/11
f 342/1/11 338/1/11 350/1/11
f 350/1/12 352/1/12 351/1/12
f 352/1/13 330/1/13 329/1/13
f 351/1/14 329/1/14 331/1/14
f 331/1/14 333/1/14 351/1/14
f 333/1/14 335/1/14 351/1/14
f 335/1/14 337/1/14 343/1/14
f 337/1/14 339/1/14 343/1/14
f 339/1/14 341/1/14 343/1/14
f 343/1/14 345/1/14 351/1/14
f 345/1/14 347/1/14 351/1/14
f 347/1/14 349/1/14 351/1/14
f 354/2/15 356/2/15 355/2/15
f 356/2/16 358/2/16 357/2/16
f 358/2/17 360/2/17 359/2/17
f 360/2/18 362/2/18 361/2/18
f 358/2/11 356/2/11 362/2/11
f 356/2/11 354/2/11 362/2/11
f 354/2/11 364/2/11 362/2/11
f 362/2/19 364/2/19 363/2/19
f 364/2/20 354/2/20 353/2/20
f 363/2/14 353/2/14 355/2/14
f 355/2/14 357/2/14 359/2/14
f 359/2/14 361/2/14 355/2/14
f 366/2/15 368/2/15 367/2/15
f 368/2/16 370/2/16 369/2/16
f 370/2/17 372/2/17 371/2/17
f 372/2/18 374/2/18 373/2/18
f 370/2/11 368/2/11 374/2/11
f 368/2/11 366/2/11 374/2/11
f 366/2/11 376/2/11 374/2/11
f 374/2/19 376/2/19 375/2/19
f 376/2/20 366/2/20 365/2/20
f 375/2/14 365/2/14 367/2/14
f 367/2/14 369/2/14 371/2/14
f 371/2/14 373/2/14 367/2/14
f 378/2/15 380/2/15 379/2/15
f 380/2/16 382/2/16 381/2/16
f 382/2/17 384/2/17 383/2/17
f 384/2/18 386/2/18 385/2/18
f 382/2/11 380/2/11 386/2/11
f 380/2/11 378/2/11 386/2/11
f 378/2/11 388/2/11 386/2/11
f 386/2/19 388/2/19 387/2/19
f 388/2/20 378/2/20 377/2/20
f 387/2/14 377/2/14 379/2/14
f 379/2/14 381/2/14 383/2/14
f 383/2/14 385/2/14 379/2/14
f 390/2/15 392/2/15 391/2/15
f 392/2/16 394/2/16 393/2/16
f 394/2/17 396/2/17 395/2/17
f 396/2/18 398/2/18 397/2/18
f 394/2/11 392/2/11 398/2/11
f 392/2/11 390/2/11 398/2/11
f 390/2/11 400/2/11 398/2/11
f 398/2/19 400/2/19 399/2/19
f 400/2/20 390/2/20 389/2/20
f 399/2/14 389/2/14 391/2/14
f 391/2/14 393/2/14 395/2/14
f 395/2/14 397/2/14 391/2/14
f 402/2/15 404/2/15 403/2/15
f 404/2/16 406/2/16 405/2/16
f 406/2/17 408/2/17 407/2/17
f 408/2/18 410/2/18 409/2/18
f 406/2/11 404/2/11 410/2/11
f 404/2/11 402/2/11 410/2/11
f 402/2/11 412/2/11 410/2/11
f 410/2/19 412/2/19 411/2/19
f 412/2/20 402/2/20 401/2/20
f 411/2/14 401/2/14 403/2/14
f 403/2/14 405/2/14 407/2/14
f 407/2/14 409/2/14 403/2/14
f 414/2/15 416/2/15 415/2/15
f 416/2/16 418/2/16 417/2/16
f 418/2/17 420/2/17 419/2/17
f 420/2/18 422/2/18 421/2/18
f 418/2/11 416/2/11 422/2/11
f 416/2/11 414/2/11 422/2/11
f 414/2/11 424/2/11 422/2/11
f 422/2/19 424/2/19 423/2/19
f 424/2/20 414/2/20 413/2/20
f 423/2/14 413/2/14 415/2/14
f 415/2/14 417/2/14 419/2/14
f 419/2/14 421/2/14 415/2/14
f 426/1/1 428/1/1 427/1/1
f 428/1/2 430/1/2 429/1/2
f 430/1/3 432/1/3 431/1/3
f 432/1/4 434/1/4 433/1/4
f 433/1/5 434/1/5 436/1/5
f 435/1/6 436/1/6 438/1/6
f 438/1/7 440/1/7 439/1/7
f 440/1/8 442/1/8 441/1/8
f 442/1/9 444/1/9 443/1/9
f 444/1/10 446/1/10 445/1/10
f 430/1/11 428/1/11 426/1/11
f 426/1/11 448/1/11 446/1/11
f 446/1/11 444/1/11 442/1/11
f 442/1/11 440/1/11 438/1/11
f 438/1/11 436/1/11 434/1/11
f 434/1/11 432/1/11 430/1/11
f 430/1/11 426/1/11 446/1/11
f 446/1/11 442/1/11 438/1/11
f 438/1/11 434/1/11 446/1/11
f 446/1/12 448/1/12 447/1/12
f 448/1/13 426/1/13 425/1/13
f 447/1/14 425/1/14 427/1/14
f 427/1/14 429/1/14 447/1/14
f 429/1/14 431/1/14 447/1/14
f 431/1/14 433/1/14 439/1/14
f 433/1/14 435/1/14 439/1/14
f 435/1/14 437/1/14 439/1/14
f 439/1/14 441/1/14 447/1/14
f 441/1/14 443/1/14 447/1/14
f 443/1/14 445/1/14 447/1/14
f 450/2/15 452/2/15 451/2/15
f 452/2/16 454/2/16 453/2/16
f 454/2/17 456/2/17 455/2/17
f 456/2/18 458/2/18 457/2/18
f 454/2/11 452/2/11 458/2/11
f 452/2/11 450/2/11 458/2/11
f 450/2/11 460/2/11 458/2/11
f 458/2/19 460/2/19 459/2/19
f 460/2/20 450/2/20 449/2/20
f 459/2/14 449/2/14 451/2/14
f 451/2/14 453/2/14 455/2/14
f 455/2/14 457/2/14 451/2/14
f 462/2/15 464/2/15 463/2/15
f 464/2/16 466/2/16 465/2/16
f 466/2/17 468/2/17 467/2/17
f 468/2/18 470/2/18 469/2/18
f 466/2/11 464/2/11 470/2/11
f 464/2/11 462/2/11 470/2/11
f 462/2/11 472/2/11 470/2/11
f 470/2/19 472/2/19 471/2/19
f 472/2/20 462/2/20 461/2/20
f 471/2/14 461/2/14 463/2/14
f 463/2/14 465/2/14 467/2/14
f 467/2/14 469/2/14 463/2/14
f 474/2/15 476/2/15 475/2/15
f 476/2/16 478/2/16 477/2/16
f 478/2/17 480/2/17 479/2/17
f 480/2/18 482/2/18 481/2/18
f 478/2/11 476/2/11 482/2/11
f 476/2/11 474/2/11 482/2/11
f 474/2/11 484/2/11 482/2/11
f 482/2/19 484/2/19 483/2/19
f 484/2/20 474/2/20 473/2/20
f 483/2/14 473/2/14 475/2/14
f 475/2/14 477/2/14 479/2/14
f 479/2/14 481/2/14 475/2/14
f 486/2/15 488/2/15 487/2/15
f 488/2/16 490/2/16 489/2/16
f 490/2/17 492/2/17 491/2/17
f 492/2/18 494/2/18 493/2/18
f 490/2/11 488/2/11 494/2/11
f 488/2/11 486/2/11 494/2/11
f 486/2/11 496/2/11 494/2/11
f 494/2/19 496/2/19 495/2/19
f 496/2/20 486/2/20 485/2/20
f 495/2/14 485/2/14 487/2/14
f 487/2/14 489/2/14 491/2/14
f 491/2/14 493/2/14 487/2/14
f 498/2/15 500/2/15 499/2/15
f 500/2/16 502/2/16 501/2/16
f 502/2/17 504/2/17 503/2/17
f 504/2/18 506/2/18 505/2/18
f 502/2/11 500/2/11 506/2/11
f 500/2/11 498/2/11 506/2/11
f 498/2/11 508/2/11 506/2/11
f 506/2/19 508/2/19 507/2/19
f 508/2/20 498/2/20 497/2/20
f 507/2/14 497/2/14 499/2/14
f 499/2/14 501/2/14 503/2/14
f 503/2/14 505/2/14 499/2/14
f 510/2/15 512/2/15 511/2/15
f 512/2/16 514/2/16 513/2/16
f 514/2/17 516/2/17 515/2/17
f 516/2/18 518/2/18 517/2/18
f 514/2/11 512/2/11 518/2/11
f 512/2/11 510/2/11 518/2/11
f 510/2/11 520/2/11 518/2/11
f 518/2/19 520/2/19 519/2/19
f 520/2/20 510/2/20 509/2/20
f 519/2/14 509/2/14 511/2/14
f 511/2/14 513/2/14 515/2/14
f 515/2/14 517/2/14 511/2/14
f 522/1/1 524/1/1 523/1/1
f 524/1/2 526/1/2 525/1/2
f 526/1/3 528/1/3 527/1/3
f 528/1/4 530/1/4 529/1/4
f 530/1/5 532/1/5 531/1/5
f 532/1/6 534/1/6 533/1/6
f 534/1/7 536/1/7 535/1/7
f 536/1/8 538/1/8 537/1/8
f 538/1/9 540/1/9 539/1/9
f 540/1/10 542/1/10 541/1/10
f 526/1/11 524/1/11 522/1/11
f 522/1/11 544/1/11 542/1/11
f 542/1/11 540/1/11 538/1/11
f 538/1/11 536/1/11 534/1/11
f 534/1/11 532/1/11 530/1/11
f 530/1/11 528/1/11 526/1/11
f 526/1/11 522/1/11 542/1/11
f 542/1/11 538/1/11 534/1/11
f 534/1/11 530/1/11 542/1/11
f 542/1/12 544/1/12 543/1/12
f 544/1/13 522/1/13 521/1/13
f 543/1/14 521/1/14 523/1/14
f 523/1/14 525/1/14 543/1/14
f 525/1/14 527/1/14 543/1/14
f 527/1/14 529/1/14 535/1/14
f 529/1/14 531/1/14 535/1/14
f 531/1/14 533/1/14 535/1/14
f 535/1/14 537/1/14 543/1/14
f 537/1/14 539/1/14 543/1/14
f 539/1/14 541/1/14 543/1/14
f 546/2/15 548/2/15 547/2/15
f 548/2/16 550/2/16 549/2/16
f 550/2/17 552/2/17 551/2/17
f 552/2/18 554/2/18 553/2/18
f 550/2/11 548/2/11 554/2/11
f 548/2/11 546/2/11 554/2/11
f 546/2/11 556/2/11 554/2/11
f 554/2/19 556/2/19 555/2/19
f 556/2/20 546/2/20 545/2/20
f 555/2/14 545/2/14 547/2/14
f 547/2/14 549/2/14 551/2/14
f 551/2/14 553/2/14 547/2/14
f 558/2/15 560/2/15 559/2/15
f 560/2/16 562/2/16 561/2/16
f 562/2/17 564/2/17 563/2/17
f 564/2/18 566/2/18 565/2/18
f 562/2/11 560/2/11 566/2/11
f 560/2/11 558/2/11 566/2/11
f 558/2/11 568/2/11 566/2/11
f 566/2/19 568/2/19 567/2/19
f 568/2/20 558/2/20 557/2/20
f 567/2/14 557/2/14 559/2/14
f 559/2/14 561/2/14 563/2/14
f 563/2/14 565/2/14 559/2/14
f 570/2/15 572/2/15 571/2/15
f 572/2/16 574/2/16 573/2/16
f 574/2/17 576/2/17 575/2/17
f 576/2/18 578/2/18 577/2/18
f 574/2/11 572/2/11 578/2/11
f 572/2/11 570/2/11 578/2/11
f 570/2/11 580/2/11 578/2/11
f 578/2/19 580/2/19 579/2/19
f 580/2/20 570/2/20 569/2/20
f 579/2/14 569/2/14 571/2/14
f 571/2/14 573/2/14 575/2/14
f 575/2/14 577/2/14 571/2/14
f 582/2/15 584/2/15 583/2/15
f 584/2/16 586/2/16 585/2/16
f 586/2/17 588/2/17 587/2/17
f 588/2/18 590/2/18 589/2/18
f 586/2/11 584/2/11 590/2/11
f 584/2/11 582/2/11 590/2/11
f 582/2/11 592/2/11 590/2/11
f 590/2/19 592/2/19 591/2/19
f 592/2/20 582/2/20 581/2/20
f 591/2/14 581/2/14 583/2/14
f 583/2/14 585/2/14 587/2/14
f 587/2/14 589/2/14 583/2/14
f 594/2/15 596/2/15 595/2/15
f 596/2/16 598/2/16 597/2/16
f 598/2/17 600/2/17 599/2/17
f 600/2/18 602/2/18 601/2/18
f 598/2/11 596/2/11 602/2/11
f 596/2/11 594/2/11 602/2/11
f 594/2/11 604/2/11 602/2/11
f 602/2/19 604/2/19 603/2/19
f 604/2/20 594/2/20 593/2/20
f 603/2/14 593/2/14 595/2/14
f 595/2/14 597/2/14 599/2/14
f 599/2/14 601/2/14 595/2/14
f 606/2/15 608/2/15 607/2/15
f 608/2/16 610/2/16 609/2/16
f 610/2/17 612/2/17 611/2/17
f 612/2/18 614/2/18 613/2/18
f 610/2/11 608/2/11 614/2/11
f 608/2/11 606/2/11 614/2/11
f 606/2/11 616/2/11 614/2/11
f 614/2/19 616/2/19 615/2/19
f 616/2/20 606/2/20 605/2/20
f 615/2/14 605/2/14 607/2/14
f 607/2/14 609/2/14 611/2/14
f 611/2/14 613/2/14 607/2/14
f 618/2/21 620/2/21 619/2/21
f 620/2/22 622/2/22 621/2/22
f 622/2/23 624/2/23 623/2/23
f 624/2/24 626/2/24 625/2/24
f 626/2/25 628/2/25 627/2/25
f 627/2/26 628/2/26 630/2/26
f 622/2/27 620/2/27 618/2/27
f 618/2/27 632/2/27 630/2/27
f 630/2/27 628/2/27 626/2/27
f 626/2/27 624/2/27 622/2/27
f 622/2/27 618/2/27 630/2/27
f 630/2/28 632/2/28 631/2/28
f 632/2/29 618/2/29 617/2/29
f 631/2/30 617/2/30 619/2/30
f 619/2/30 621/2/30 631/2/30
f 621/2/30 623/2/30 631/2/30
f 623/2/30 625/2/30 627/2/30
f 627/2/30 629/2/30 623/2/30
f 634/3/1 636/3/1 635/3/1
f 636/3/2 638/3/2 637/3/2
f 638/3/3 640/3/3 639/3/3
f 640/3/4 642/3/4 641/3/4
f 642/3/5 644/3/5 643/3/5
f 644/3/6 646/3/6 645/3/6
f 646/3/7 648/3/7 647/3/7
f 648/3/8 650/3/8 649/3/8
f 650/3/9 652/3/9 651/3/9
f 652/3/10 654/3/10 653/3/10
f 638/3/11 636/3/11 634/3/11
f 634/3/11 656/3/11 654/3/11
f 654/3/11 652/3/11 646/3/11
f 652/3/11 650/3/11 646/3/11
f 650/3/11 648/3/11 646/3/11
f 646/3/11 644/3/11 642/3/11
f 642/3/11 640/3/11 646/3/11
f 640/3/11 638/3/11 646/3/11
f 638/3/11 634/3/11 646/3/11
f 654/3/12 656/3/12 655/3/12
f 656/3/13 634/3/13 633/3/13
f 655/3/14 633/3/14 639/3/14
f 633/3/14 635/3/14 639/3/14
f 635/3/14 637/3/14 639/3/14
f 639/3/14 641/3/14 643/3/14
f 643/3/14 645/3/14 647/3/14
f 647/3/14 649/3/14 651/3/14
f 651/3/14 653/3/14 655/3/14
f 639/3/14 643/3/14 647/3/14
f 647/3/14 651/3/14 639/3/14
f 658/2/21 660/2/21 659/2/21
f 660/2/22 662/2/22 661/2/22
f 662/2/23 664/2/23 663/2/23
f 664/2/24 666/2/24 665/2/24
f 666/2/25 668/2/25 667/2/25
f 668/2/26 670/2/26 669/2/26
f 662/2/27 660/2/27 658/2/27
f 658/2/27 672/2/27 670/2/27
f 670/2/27 668/2/27 666/2/27
f 666/2/27 664/2/27 662/2/27
f 662/2/27 658/2/27 670/2/27
f 670/2/28 672/2/28 671/2/28
f 672/2/29 658/2/29 657/2/29
f 671/2/30 657/2/30 663/2/30
f 657/2/30 659/2/30 663/2/30
f 659/2/30 661/2/30 663/2/30
f 663/2/30 665/2/30 667/2/30
f 667/2/30 669/2/30 663/2/30
f 674/2/21 676/2/21 675/2/21
f 676/2/22 678/2/22 677/2/22
f 678/2/23 680/2/23 679/2/23
f 680/2/24 682/2/24 681/2/24
f 682/2/25 684/2/25 683/2/25
f 684/2/26 686/2/26 685/2/26
f 678/2/27 676/2/27 674/2/27
f 674/2/27 688/2/27 686/2/27
f 686/2/27 684/2/27 682/2/27
f 682/2/27 680/2/27 678/2/27
f 678/2/27 674/2/27 686/2/27
f 686/2/28 688/2/28 687/2/28
f 688/2/29 674/2/29 673/2/29
f 687/2/30 673/2/30 679/2/30
f 673/2/30 675/2/30 679/2/30
f 675/2/30 677/2/30 679/2/30
f 679/2/30 681/2/30 683/2/30
f 683/2/30 685/2/30 679/2/30
f 690/1/31 692/1/31 691/1/31
f 692/1/32 694/1/32 693/1/32
f 694/1/33 696/1/33 695/1/33
f 696/1/34 698/1/34 697/1/34
f 698/1/35 700/1/35 699/1/35
f 700/1/36 702/1/36 701/1/36
f 694/1/16 692/1/16 690/1/16
f 690/1/16 704/1/16 702/1/16
f 702/1/16 700/1/16 698/1/16
f 698/1/16 696/1/16 694/1/16
f 694/1/16 690/1/16 698/1/16
f 702/1/37 704/1/37 703/1/37
f 704/1/38 690/1/38 689/1/38
f 703/1/19 689/1/19 695/1/19
f 689/1/19 691/1/19 695/1/19
f 691/1/19 693/1/19 695/1/19
f 695/1/19 697/1/19 699/1/19
f 699/1/19 701/1/19 695/1/19
f 706/1/31 708/1/31 707/1/31
f 708/1/32 710/1/32 709/1/32
f 710/1/33 712/1/33 711/1/33
f 712/1/34 714/1/34 713/1/34
f 714/1/35 716/1/35 715/1/35
f 716/1/36 718/1/36 717/1/36
f 710/1/16 708/1/16 706/1/16
f 706/1/16 720/1/16 718/1/16
f 718/1/16 716/1/16 714/1/16
f 714/1/16 712/1/16 710/1/16
f 710/1/16 706/1/16 714/1/16
f 718/1/37 720/1/37 719/1/37
f 720/1/38 706/1/38 705/1/38
f 719/1/19 705/1/19 711/1/19
f 705/1/19 707/1/19 711/1/19
f 707/1/19 709/1/19 711/1/19
f 711/1/19 713/1/19 715/1/19
f 715/1/19 717/1/19 711/1/19
f 722/1/31 724/1/31 723/1/31
f 724/1/32 726/1/32 725/1/32
f 726/1/33 728/1/33 727/1/33
f 728/1/34 730/1/34 729/1/34
f 730/1/35 732/1/35 731/1/35
f 732/1/36 734/1/36 733/1/36
f 726/1/16 724/1/16 722/1/16
f 722/1/16 736/1/16 734/1/16
f 734/1/16 732/1/16 730/1/16
f 730/1/16 728/1/16 726/1/16
f 726/1/16 722/1/16 730/1/16
f 734/1/37 736/1/37 735/1/37
f 736/1/38 722/1/38 721/1/38
f 735/1/19 721/1/19 727/1/19
f 721/1/19 723/1/19 727/1/19
f 723/1/19 725/1/19 727/1/19
f 727/1/19 729/1/19 731/1/19
f 731/1/19 733/1/19 727/1/19
f 738/1/31 740/1/31 739/1/31
f 740/1/32 742/1/32 741/1/32
f 742/1/33 744/1/33 743/1/33
f 744/1/34 746/1/34 745/1/34
f 746/1/35 748/1/35 747/1/35
f 748/1/36 750/1/36 749/1/36
f 742/1/16 740/1/16 738/1/16
f 738/1/16 752/1/16 750/1/16
f 750/1/16 748/1/16 746/1/16
f 746/1/16 744/1/16 742/1/16
f 742/1/16 738/1/16 746/1/16
f 750/1/37 752/1/37 751/1/37
f 751/1/38 752/1/38 738/1/38
f 751/1/19 737/1/19 743/1/19
f 737/1/19 739/1/19 743/1/19
f 739/1/19 741/1/19 743/1/19
f 743/1/19 745/1/19 751/1/19
f 745/1/19 747/1/19 751/1/19
f 754/1/31 756/1/31 755/1/31
f 756/1/32 758/1/32 757/1/32
f 758/1/33 760/1/33 759/1/33
f 760/1/34 762/1/34 761/1/34
f 762/1/35 764/1/35 763/1/35
f 764/1/36 766/1/36 765/1/36
f 758/1/16 756/1/16 754/1/16
f 754/1/16 768/1/16 766/1/16
f 766/1/16 764/1/16 762/1/16
f 762/1/16 760/1/16 758/1/16
f 758/1/16 754/1/16 762/1/16
f 766/1/37 768/1/37 767/1/37
f 768/1/38 754/1/38 753/1/38
f 767/1/19 753/1/19 759/1/19
f 753/1/19 755/1/19 759/1/19
f 755/1/19 757/1/19 759/1/19
f 759/1/19 761/1/19 767/1/19
f 761/1/19 763/1/19 767/1/19
f 770/1/31 772/1/31 771/1/31
f 772/1/32 774/1/32 773/1/32
f 774/1/33 776/1/33 775/1/33
f 776/1/34 778/1/34 777/1/34
f 778/1/35 780/1/35 779/1/35
f 780/1/36 782/1/36 781/1/36
f 774/1/16 772/1/16 770/1/16
f 770/1/16 784/1/16 782/1/16
f 782/1/16 780/1/16 778/1/16
f 778/1/16 776/1/16 774/1/16
f 774/1/16 770/1/16 778/1/16
f 782/1/37 784/1/37 783/1/37
f 784/1/38 770/1/38 769/1/38
f 783/1/19 769/1/19 775/1/19
f 769/1/19 771/1/19 775/1/19
f 771/1/19 773/1/19 775/1/19
f 775/1/19 777/1/19 779/1/19
f 779/1/19 781/1/19 775/1/19
f 786/1/31 788/1/31 787/1/31
f 788/1/32 790/1/32 789/1/32
f 790/1/33 792/1/33 791/1/33
f 792/1/34 794/1/34 793/1/34
f 794/1/35 796/1/35 795/1/35
f 796/1/36 798/1/36 797/1/36
f 790/1/16 788/1/16 786/1/16
f 786/1/16 800/1/16 798/1/16
f 798/1/16 796/1/16 794/1/16
f 794/1/16 792/1/16 790/1/16
f 790/1/16 786/1/16 794/1/16
f 798/1/37 800/1/37 799/1/37
f 800/1/38 786/1/38 785/1/38
f 799/1/19 785/1/19 791/1/19
f 785/1/19 787/1/19 791/1/19
f 787/1/19 789/1/19 791/1/19
f 791/1/19 793/1/19 795/1/19
f 795/1/19 797/1/19 791/1/19
f 802/1/31 804/1/31 803/1/31
f 804/1/32 806/1/32 805/1/32
f 806/1/33 808/1/33 807/1/33
f 808/1/34 810/1/34 809/1/34
f 810/1/35 812/1/35 811/1/35
f 812/1/36 814/1/36 813/1/36
f 806/1/16 804/1/16 802/1/16
f 802/1/16 816/1/16 814/1/16
f 814/1/16 812/1/16 810/1/16
f 810/1/16 808/1/16 806/1/16
f 806/1/16 802/1/16 810/1/16
f 814/1/37 816/1/37 815/1/37
f 816/1/38 802/1/38 801/1/38
f 815/1/19 801/1/19 807/1/19
f 801/1/19 803/1/19 807/1/19
f 803/1/19 805/1/19 807/1/19
f 807/1/19 809/1/19 811/1/19
f 811/1/19 813/1/19 807/1/19
f 818/1/31 820/1/31 819/1/31
f 820/1/32 822/1/32 821/1/32
f 822/1/33 824/1/33 823/1/33
f 824/1/34 826/1/34 825/1/34
f 826/1/35 828/1/35 827/1/35
f 828/1/36 830/1/36 829/1/36
f 822/1/16 820/1/16 818/1/16
f 818/1/16 832/1/16 830/1/16
f 830/1/16 828/1/16 826/1/16
f 826/1/16 824/1/16 822/1/16
f 822/1/16 818/1/16 826/1/16
f 830/1/37 832/1/37 831/1/37
f 832/1/38 818/1/38 817/1/38
f 831/1/19 817/1/19 823/1/19
f 817/1/19 819/1/19 823/1/19
f 819/1/19 821/1/19 823/1/19
f 823/1/19 825/1/19 831/1/19
f 825/1/19 827/1/19 831/1/19
f 834/1/31 836/1/31 835/1/31
f 836/1/32 838/1/32 837/1/32
f 838/1/33 840/1/33 839/1/33
f 840/1/34 842/1/34 841/1/34
f 842/1/35 844/1/35 843/1/35
f 844/1/36 846/1/36 845/1/36
f 838/1/16 836/1/16 834/1/16
f 834/1/16 848/1/16 846/1/16
f 846/1/16 844/1/16 838/1/16
f 844/1/16 842/1/16 838/1/16
f 842/1/16 840/1/16 838/1/16
f 846/1/37 848/1/37 847/1/37
f 848/1/38 834/1/38 833/1/38
f 847/1/19 833/1/19 839/1/19
f 833/1/19 835/1/19 839/1/19
f 835/1/19 837/1/19 839/1/19
f 839/1/19 841/1/19 843/1/19
f 843/1/19 845/1/19 847/1/19
f 850/1/31 852/1/31 851/1/31
f 852/1/32 854/1/32 853/1/32
f 854/1/33 856/1/33 855/1/33
f 856/1/34 858/1/34 857/1/34
f 858/1/35 860/1/35 859/1/35
f 860/1/36 862/1/36 861/1/36
f 854/1/16 852/1/16 850/1/16
f 850/1/16 864/1/16 862/1/16
f 862/1/16 860/1/16 854/1/16
f 860/1/16 858/1/16 854/1/16
f 858/1/16 856/1/16 854/1/16
f 862/1/37 864/1/37 863/1/37
f 864/1/38 850/1/38 849/1/38
f 863/1/19 849/1/19 855/1/19
f 849/1/19 851/1/19 855/1/19
f 851/1/19 853/1/19 855/1/19
f 855/1/19 857/1/19 859/1/19
f 859/1/19 861/1/19 863/1/19
f 866/1/31 868/1/31 867/1/31
f 868/1/32 870/1/32 869/1/32
f 870/1/33 872/1/33 871/1/33
f 872/1/34 874/1/34 873/1/34
f 874/1/35 876/1/35 875/1/35
f 876/1/36 878/1/36 877/1/36
f 870/1/16 868/1/16 866/1/16
f 866/1/16 880/1/16 878/1/16
f 878/1/16 876/1/16 874/1/16
f 874/1/16 872/1/16 870/1/16
f 870/1/16 866/1/16 874/1/16
f 878/1/37 880/1/37 879/1/37
f 880/1/38 866/1/38 865/1/38
f 879/1/19 865/1/19 867/1/19
f 867/1/19 869/1/19 871/1/19
f 871/1/19 873/1/19 875/1/19
f 875/1/19 877/1/19 871/1/19
f 877/1/19 879/1/19 871/1/19
f 882/1/31 884/1/31 883/1/31
f 884/1/32 886/1/32 885/1/32
f 886/1/33 888/1/33 887/1/33
f 888/1/34 890/1/34 889/1/34
f 890/1/35 892/1/35 891/1/35
f 892/1/36 894/1/36 893/1/36
f 886/1/16 884/1/16 882/1/16
f 882/1/16 896/1/16 886/1/16
f 896/1/16 894/1/16 886/1/16
f 894/1/16 892/1/16 886/1/16
f 892/1/16 890/1/16 886/1/16
f 894/1/37 896/1/37 895/1/37
f 896/1/38 882/1/38 881/1/38
f 895/1/19 881/1/19 883/1/19
f 883/1/19 885/1/19 887/1/19
f 887/1/19 889/1/19 895/1/19
f 889/1/19 891/1/19 895/1/19
f 891/1/19 893/1/19 895/1/19
f 898/1/31 900/1/31 899/1/31
f 900/1/32 902/1/32 901/1/32
f 902/1/33 904/1/33 903/1/33
f 904/1/34 906/1/34 905/1/34
f 906/1/35 908/1/35 907/1/35
f 908/1/36 910/1/36 909/1/36
f 902/1/16 900/1/16 898/1/16
f 898/1/16 912/1/16 910/1/16
f 910/1/16 908/1/16 906/1/16
f 906/1/16 904/1/16 902/1/16
f 902/1/16 898/1/16 906/1/16
f 910/1/37 912/1/37 911/1/37
f 912/1/38 898/1/38 897/1/38
f 911/1/19 897/1/19 899/1/19
f 899/1/19 901/1/19 903/1/19
f 903/1/19 905/1/19 907/1/19
f 907/1/19 909/1/19 903/1/19
f 909/1/19 911/1/19 903/1/19
f 914/1/31 916/1/31 915/1/31
f 916/1/32 918/1/32 917/1/32
f 918/1/33 920/1/33 919/1/33
f 920/1/34 922/1/34 921/1/34
f 922/1/35 924/1/35 923/1/35
f 924/1/36 926/1/36 925/1/36
f 918/1/16 916/1/16 914/1/16
f 914/1/16 928/1/16 926/1/16
f 926/1/16 924/1/16 922/1/16
f 922/1/16 920/1/16 918/1/16
f 918/1/16 914/1/16 922/1/16
f 926/1/37 928/1/37 927/1/37
f 928/1/38 914/1/38 913/1/38
f 927/1/19 913/1/19 915/1/19
f 915/1/19 917/1/19 919/1/19
f 919/1/19 921/1/19 923/1/19
f 923/1/19 925/1/19 919/1/19
f 925/1/19 927/1/19 919/1/19
f 930/1/31 932/1/31 931/1/31
f 932/1/32 934/1/32 933/1/32
f 934/1/33 936/1/33 935/1/33
f 936/1/34 938/1/34 937/1/34
f 938/1/35 940/1/35 939/1/35
f 940/1/36 942/1/36 941/1/36
f 934/1/16 932/1/16 930/1/16
f 930/1/16 944/1/16 942/1/16
f 942/1/16 940/1/16 938/1/16
f 938/1/16 936/1/16 934/1/16
f 934/1/16 930/1/16 938/1/16
f 942/1/37 944/1/37 943/1/37
f 944/1/38 930/1/38 929/1/38
f 943/1/19 929/1/19 935/1/19
f 929/1/19 931/1/19 935/1/19
f 931/1/19 933/1/19 935/1/19
f 935/1/19 937/1/19 939/1/19
f 939/1/19 941/1/19 935/1/19
f 946/1/31 948/1/31 947/1/31
f 948/1/32 950/1/32 949/1/32
f 950/1/33 952/1/33 951/1/33
f 952/1/34 954/1/34 953/1/34
f 954/1/35 956/1/35 955/1/35
f 956/1/36 958/1/36 957/1/36
f 950/1/16 948/1/16 946/1/16
f 946/1/16 960/1/16 958/1/16
f 958/1/16 956/1/16 954/1/16
f 954/1/16 952/1/16 950/1/16
f 950/1/16 946/1/16 954/1/16
f 958/1/37 960/1/37 959/1/37
f 960/1/38 946/1/38 945/1/38
f 959/1/19 945/1/19 951/1/19
f 945/1/19 947/1/19 951/1/19
f 947/1/19 949/1/19 951/1/19
f 951/1/19 953/1/19 955/1/19
f 955/1/19 957/1/19 951/1/19
f 961/1/31 962/1/31 964/1/31
f 964/1/32 966/1/32 965/1/32
f 966/1/33 968/1/33 967/1/33
f 968/1/34 970/1/34 969/1/34
f 970/1/35 972/1/35 971/1/35
f 972/1/36 974/1/36 973/1/36
f 966/1/16 964/1/16 962/1/16
f 962/1/16 976/1/16 974/1/16
f 974/1/16 972/1/16 970/1/16
f 970/1/16 968/1/16 974/1/16
f 968/1/16 966/1/16 974/1/16
f 974/1/37 976/1/37 975/1/37
f 975/1/38 976/1/38 962/1/38
f 975/1/19 961/1/19 963/1/19
f 963/1/19 965/1/19 975/1/19
f 965/1/19 967/1/19 975/1/19
f 967/1/19 969/1/19 975/1/19
f 969/1/19 971/1/19 975/1/19
f 977/1/31 978/1/31 980/1/31
f 980/1/32 982/1/32 981/1/32
f 982/1/33 984/1/33 983/1/33
f 984/1/34 986/1/34 985/1/34
f 986/1/35 988/1/35 987/1/35
f 988/1/36 990/1/36 989/1/36
f 982/1/16 980/1/16 978/1/16
f 978/1/16 992/1/16 990/1/16
f 990/1/16 988/1/16 986/1/16
f 986/1/16 984/1/16 990/1/16
f 984/1/16 982/1/16 990/1/16
f 990/1/37 992/1/37 991/1/37
f 991/1/38 992/1/38 978/1/38
f 991/1/19 977/1/19 979/1/19
f 979/1/19 981/1/19 991/1/19
f 981/1/19 983/1/19 991/1/19
f 983/1/19 985/1/19 991/1/19
f 985/1/19 987/1/19 991/1/19
f 993/1/31 994/1/31 996/1/31
f 996/1/32 998/1/32 997/1/32
f 998/1/33 1000/1/33 999/1/33
f 1000/1/34 1002/1/34 1001/1/34
f 1002/1/35 1004/1/35 1003/1/35
f 1004/1/36 1006/1/36 1005/1/36
f 998/1/16 996/1/16 994/1/16
f 994/1/16 1008/1/16 1006/1/16
f 1006/1/16 1004/1/16 1002/1/16
f 1002/1/16 1000/1/16 1006/1/16
f 1000/1/16 998/1/16 1006/1/16
f 1006/1/37 1008/1/37 1007/1/37
f 1007/1/38 1008/1/38 994/1/38
f 1007/1/19 993/1/19 995/1/19
f 995/1/19 997/1/19 1007/1/19
f 997/1/19 999/1/19 1007/1/19
f 999/1/19 1001/1/19 1007/1/19
f 1001/1/19 1003/1/19 1007/1/19
f 1009/1/31 1010/1/31 1012/1/31
f 1012/1/32 1014/1/32 1013/1/32
f 1014/1/33 1016/1/33 1015/1/33
f 1016/1/34 1018/1/34 1017/1/34
f 1018/1/35 1020/1/35 1019/1/35
f 1020/1/36 1022/1/36 1021/1/36
f 1014/1/16 1012/1/16 1010/1/16
f 1010/1/16 1024/1/16 1022/1/16
f 1022/1/16 1020/1/16 1018/1/16
f 1018/1/16 1016/1/16 1022/1/16
f 1016/1/16 1014/1/16 1022/1/16
f 1022/1/37 1024/1/37 1023/1/37
f 1023/1/38 1024/1/38 1010/1/38
f 1023/1/19 1009/1/19 1011/1/19
f 1011/1/19 1013/1/19 1023/1/19
f 1013/1/19 1015/1/19 1023/1/19
f 1015/1/19 1017/1/19 1023/1/19
f 1017/1/19 1019/1/19 1023/1/19
f 1025/1/31 1026/1/31 1028/1/31
f 1028/1/32 1030/1/32 1029/1/32
f 1030/1/33 1032/1/33 1031/1/33
f 1032/1/34 1034/1/34 1033/1/34
f 1034/1/35 1036/1/35 1035/1/35
f 1036/1/36 1038/1/36 1037/1/36
f 1030/1/16 1028/1/16 1026/1/16
f 1026/1/16 1040/1/16 1038/1/16
f 1038/1/16 1036/1/16 1034/1/16
f 1034/1/16 1032/1/16 1030/1/16
f 1030/1/16 1026/1/16 1034/1/16
f 1038/1/37 1040/1/37 1039/1/37
f 1039/1/38 1040/1/38 1026/1/38
f 1039/1/19 1025/1/19 1027/1/19
f 1027/1/19 1029/1/19 1039/1/19
f 1029/1/19 1031/1/19 1039/1/19
f 1031/1/19 1033/1/19 1039/1/19
f 1033/1/19 1035/1/19 1039/1/19
