# Blender 5.2.1 LTS
# www.blender.org
mtllib detail_watchtower.mtl
o detail_watchtower
v 0.530000 0.150000 1.815000
v 0.530000 4.900000 1.815000
v 0.554749 0.150000 1.825251
v 0.554749 4.900000 1.825251
v 0.565000 0.150000 1.850000
v 0.565000 4.900000 1.850000
v 0.554749 0.150000 1.874749
v 0.554749 4.900000 1.874749
v 0.530000 0.150000 1.885000
v 0.530000 4.900000 1.885000
v 0.505251 0.150000 1.874749
v 0.505251 4.900000 1.874749
v 0.495000 0.150000 1.850000
v 0.495000 4.900000 1.850000
v 0.505251 0.150000 1.825251
v 0.505251 4.900000 1.825251
v 1.170000 0.150000 1.815000
v 1.170000 4.900000 1.815000
v 1.194749 0.150000 1.825251
v 1.194749 4.900000 1.825251
v 1.205000 0.150000 1.850000
v 1.205000 4.900000 1.850000
v 1.194749 0.150000 1.874749
v 1.194749 4.900000 1.874749
v 1.170000 0.150000 1.885000
v 1.170000 4.900000 1.885000
v 1.145251 0.150000 1.874749
v 1.145251 4.900000 1.874749
v 1.135000 0.150000 1.850000
v 1.135000 4.900000 1.850000
v 1.145251 0.150000 1.825251
v 1.145251 4.900000 1.825251
v 0.530000 0.200000 1.822000
v 1.170000 0.200000 1.822000
v 0.530000 0.180201 1.830201
v 1.170000 0.180201 1.830201
v 0.530000 0.172000 1.850000
v 1.170000 0.172000 1.850000
v 0.530000 0.180201 1.869799
v 1.170000 0.180201 1.869799
v 0.530000 0.200000 1.878000
v 1.170000 0.200000 1.878000
v 0.530000 0.219799 1.869799
v 1.170000 0.219799 1.869799
v 0.530000 0.228000 1.850000
v 1.170000 0.228000 1.850000
v 0.530000 0.219799 1.830201
v 1.170000 0.219799 1.830201
v 0.530000 0.500000 1.822000
v 1.170000 0.500000 1.822000
v 0.530000 0.480201 1.830201
v 1.170000 0.480201 1.830201
v 0.530000 0.472000 1.850000
v 1.170000 0.472000 1.850000
v 0.530000 0.480201 1.869799
v 1.170000 0.480201 1.869799
v 0.530000 0.500000 1.878000
v 1.170000 0.500000 1.878000
v 0.530000 0.519799 1.869799
v 1.170000 0.519799 1.869799
v 0.530000 0.528000 1.850000
v 1.170000 0.528000 1.850000
v 0.530000 0.519799 1.830201
v 1.170000 0.519799 1.830201
v 0.530000 0.800000 1.822000
v 1.170000 0.800000 1.822000
v 0.530000 0.780201 1.830201
v 1.170000 0.780201 1.830201
v 0.530000 0.772000 1.850000
v 1.170000 0.772000 1.850000
v 0.530000 0.780201 1.869799
v 1.170000 0.780201 1.869799
v 0.530000 0.800000 1.878000
v 1.170000 0.800000 1.878000
v 0.530000 0.819799 1.869799
v 1.170000 0.819799 1.869799
v 0.530000 0.828000 1.850000
v 1.170000 0.828000 1.850000
v 0.530000 0.819799 1.830201
v 1.170000 0.819799 1.830201
v 0.530000 1.100000 1.822000
v 1.170000 1.100000 1.822000
v 0.530000 1.080201 1.830201
v 1.170000 1.080201 1.830201
v 0.530000 1.072000 1.850000
v 1.170000 1.072000 1.850000
v 0.530000 1.080201 1.869799
v 1.170000 1.080201 1.869799
v 0.530000 1.100000 1.878000
v 1.170000 1.100000 1.878000
v 0.530000 1.119799 1.869799
v 1.170000 1.119799 1.869799
v 0.530000 1.128000 1.850000
v 1.170000 1.128000 1.850000
v 0.530000 1.119799 1.830201
v 1.170000 1.119799 1.830201
v 0.530000 1.400000 1.822000
v 1.170000 1.400000 1.822000
v 0.530000 1.380201 1.830201
v 1.170000 1.380201 1.830201
v 0.530000 1.372000 1.850000
v 1.170000 1.372000 1.850000
v 0.530000 1.380201 1.869799
v 1.170000 1.380201 1.869799
v 0.530000 1.400000 1.878000
v 1.170000 1.400000 1.878000
v 0.530000 1.419799 1.869799
v 1.170000 1.419799 1.869799
v 0.530000 1.428000 1.850000
v 1.170000 1.428000 1.850000
v 0.530000 1.419799 1.830201
v 1.170000 1.419799 1.830201
v 0.530000 1.700000 1.822000
v 1.170000 1.700000 1.822000
v 0.530000 1.680201 1.830201
v 1.170000 1.680201 1.830201
v 0.530000 1.672000 1.850000
v 1.170000 1.672000 1.850000
v 0.530000 1.680201 1.869799
v 1.170000 1.680201 1.869799
v 0.530000 1.700000 1.878000
v 1.170000 1.700000 1.878000
v 0.530000 1.719799 1.869799
v 1.170000 1.719799 1.869799
v 0.530000 1.728000 1.850000
v 1.170000 1.728000 1.850000
v 0.530000 1.719799 1.830201
v 1.170000 1.719799 1.830201
v 0.530000 2.000000 1.822000
v 1.170000 2.000000 1.822000
v 0.530000 1.980201 1.830201
v 1.170000 1.980201 1.830201
v 0.530000 1.972000 1.850000
v 1.170000 1.972000 1.850000
v 0.530000 1.980201 1.869799
v 1.170000 1.980201 1.869799
v 0.530000 2.000000 1.878000
v 1.170000 2.000000 1.878000
v 0.530000 2.019799 1.869799
v 1.170000 2.019799 1.869799
v 0.530000 2.028000 1.850000
v 1.170000 2.028000 1.850000
v 0.530000 2.019799 1.830201
v 1.170000 2.019799 1.830201
v 0.530000 2.300000 1.822000
v 1.170000 2.300000 1.822000
v 0.530000 2.280201 1.830201
v 1.170000 2.280201 1.830201
v 0.530000 2.272000 1.850000
v 1.170000 2.272000 1.850000
v 0.530000 2.280201 1.869799
v 1.170000 2.280201 1.869799
v 0.530000 2.300000 1.878000
v 1.170000 2.300000 1.878000
v 0.530000 2.319799 1.869799
v 1.170000 2.319799 1.869799
v 0.530000 2.328000 1.850000
v 1.170000 2.328000 1.850000
v 0.530000 2.319799 1.830201
v 1.170000 2.319799 1.830201
v 0.530000 2.600000 1.822000
v 1.170000 2.600000 1.822000
v 0.530000 2.580201 1.830201
v 1.170000 2.580201 1.830201
v 0.530000 2.572000 1.850000
v 1.170000 2.572000 1.850000
v 0.530000 2.580201 1.869799
v 1.170000 2.580201 1.869799
v 0.530000 2.600000 1.878000
v 1.170000 2.600000 1.878000
v 0.530000 2.619799 1.869799
v 1.170000 2.619799 1.869799
v 0.530000 2.628000 1.850000
v 1.170000 2.628000 1.850000
v 0.530000 2.619799 1.830201
v 1.170000 2.619799 1.830201
v 0.530000 2.900000 1.822000
v 1.170000 2.900000 1.822000
v 0.530000 2.880201 1.830201
v 1.170000 2.880201 1.830201
v 0.530000 2.872000 1.850000
v 1.170000 2.872000 1.850000
v 0.530000 2.880201 1.869799
v 1.170000 2.880201 1.869799
v 0.530000 2.900000 1.878000
v 1.170000 2.900000 1.878000
v 0.530000 2.919799 1.869799
v 1.170000 2.919799 1.869799
v 0.530000 2.928000 1.850000
v 1.170000 2.928000 1.850000
v 0.530000 2.919799 1.830201
v 1.170000 2.919799 1.830201
v 0.530000 3.200000 1.822000
v 1.170000 3.200000 1.822000
v 0.530000 3.180201 1.830201
v 1.170000 3.180201 1.830201
v 0.530000 3.172000 1.850000
v 1.170000 3.172000 1.850000
v 0.530000 3.180201 1.869799
v 1.170000 3.180201 1.869799
v 0.530000 3.200000 1.878000
v 1.170000 3.200000 1.878000
v 0.530000 3.219799 1.869799
v 1.170000 3.219799 1.869799
v 0.530000 3.228000 1.850000
v 1.170000 3.228000 1.850000
v 0.530000 3.219799 1.830201
v 1.170000 3.219799 1.830201
v 0.530000 3.500000 1.822000
v 1.170000 3.500000 1.822000
v 0.530000 3.480201 1.830201
v 1.170000 3.480201 1.830201
v 0.530000 3.472000 1.850000
v 1.170000 3.472000 1.850000
v 0.530000 3.480201 1.869799
v 1.170000 3.480201 1.869799
v 0.530000 3.500000 1.878000
v 1.170000 3.500000 1.878000
v 0.530000 3.519799 1.869799
v 1.170000 3.519799 1.869799
v 0.530000 3.528000 1.850000
v 1.170000 3.528000 1.850000
v 0.530000 3.519799 1.830201
v 1.170000 3.519799 1.830201
v 0.530000 3.800000 1.822000
v 1.170000 3.800000 1.822000
v 0.530000 3.780201 1.830201
v 1.170000 3.780201 1.830201
v 0.530000 3.772000 1.850000
v 1.170000 3.772000 1.850000
v 0.530000 3.780201 1.869799
v 1.170000 3.780201 1.869799
v 0.530000 3.800000 1.878000
v 1.170000 3.800000 1.878000
v 0.530000 3.819799 1.869799
v 1.170000 3.819799 1.869799
v 0.530000 3.828000 1.850000
v 1.170000 3.828000 1.850000
v 0.530000 3.819799 1.830201
v 1.170000 3.819799 1.830201
v 0.530000 4.100000 1.822000
v 1.170000 4.100000 1.822000
v 0.530000 4.080201 1.830201
v 1.170000 4.080201 1.830201
v 0.530000 4.072000 1.850000
v 1.170000 4.072000 1.850000
v 0.530000 4.080201 1.869799
v 1.170000 4.080201 1.869799
v 0.530000 4.100000 1.878000
v 1.170000 4.100000 1.878000
v 0.530000 4.119799 1.869799
v 1.170000 4.119799 1.869799
v 0.530000 4.128000 1.850000
v 1.170000 4.128000 1.850000
v 0.530000 4.119799 1.830201
v 1.170000 4.119799 1.830201
v 0.530000 4.400000 1.822000
v 1.170000 4.400000 1.822000
v 0.530000 4.380201 1.830201
v 1.170000 4.380201 1.830201
v 0.530000 4.372000 1.850000
v 1.170000 4.372000 1.850000
v 0.530000 4.380201 1.869799
v 1.170000 4.380201 1.869799
v 0.530000 4.400000 1.878000
v 1.170000 4.400000 1.878000
v 0.530000 4.419799 1.869799
v 1.170000 4.419799 1.869799
v 0.530000 4.428000 1.850000
v 1.170000 4.428000 1.850000
v 0.530000 4.419799 1.830201
v 1.170000 4.419799 1.830201
v 0.530000 4.700000 1.822000
v 1.170000 4.700000 1.822000
v 0.530000 4.680201 1.830201
v 1.170000 4.680201 1.830201
v 0.530000 4.672000 1.850000
v 1.170000 4.672000 1.850000
v 0.530000 4.680201 1.869799
v 1.170000 4.680201 1.869799
v 0.530000 4.700000 1.878000
v 1.170000 4.700000 1.878000
v 0.530000 4.719799 1.869799
v 1.170000 4.719799 1.869799
v 0.530000 4.728000 1.850000
v 1.170000 4.728000 1.850000
v 0.530000 4.719799 1.830201
v 1.170000 4.719799 1.830201
v -1.150000 0.232519 -1.181105
v -1.150000 2.432519 1.118895
v -1.118180 0.222994 -1.171995
v -1.118180 2.422995 1.128005
v -1.105000 0.200000 -1.150000
v -1.105000 2.400000 1.150000
v -1.118180 0.177006 -1.128005
v -1.118180 2.377006 1.171994
v -1.150000 0.167481 -1.118895
v -1.150000 2.367481 1.181105
v -1.181820 0.177006 -1.128005
v -1.181820 2.377006 1.171994
v -1.195000 0.200000 -1.150000
v -1.195000 2.400000 1.150000
v -1.181820 0.222994 -1.171995
v -1.181820 2.422995 1.128005
v 1.150000 0.232519 -1.181105
v 1.150000 2.432519 1.118895
v 1.181820 0.222994 -1.171995
v 1.181820 2.422995 1.128005
v 1.195000 0.200000 -1.150000
v 1.195000 2.400000 1.150000
v 1.181820 0.177006 -1.128005
v 1.181820 2.377006 1.171994
v 1.150000 0.167481 -1.118895
v 1.150000 2.367481 1.181105
v 1.118180 0.177006 -1.128005
v 1.118180 2.377006 1.171994
v 1.105000 0.200000 -1.150000
v 1.105000 2.400000 1.150000
v 1.118180 0.222994 -1.171995
v 1.118180 2.422995 1.128005
v -1.150000 1.632519 -1.181105
v -1.150000 3.832519 1.118895
v -1.118180 1.622994 -1.171995
v -1.118180 3.822994 1.128005
v -1.105000 1.600000 -1.150000
v -1.105000 3.800000 1.150000
v -1.118180 1.577006 -1.128005
v -1.118180 3.777006 1.171994
v -1.150000 1.567481 -1.118895
v -1.150000 3.767481 1.181105
v -1.181820 1.577006 -1.128005
v -1.181820 3.777006 1.171994
v -1.195000 1.600000 -1.150000
v -1.195000 3.800000 1.150000
v -1.181820 1.622994 -1.171995
v -1.181820 3.822994 1.128005
v 1.150000 1.632519 -1.181105
v 1.150000 3.832519 1.118895
v 1.181820 1.622994 -1.171995
v 1.181820 3.822994 1.128005
v 1.195000 1.600000 -1.150000
v 1.195000 3.800000 1.150000
v 1.181820 1.577006 -1.128005
v 1.181820 3.777006 1.171994
v 1.150000 1.567481 -1.118895
v 1.150000 3.767481 1.181105
v 1.118180 1.577006 -1.128005
v 1.118180 3.777006 1.171994
v 1.105000 1.600000 -1.150000
v 1.105000 3.800000 1.150000
v 1.118180 1.622994 -1.171995
v 1.118180 3.822994 1.128005
v -1.150000 3.032519 -1.181105
v -1.150000 5.232519 1.118895
v -1.118180 3.022994 -1.171995
v -1.118180 5.222994 1.128005
v -1.105000 3.000000 -1.150000
v -1.105000 5.200000 1.150000
v -1.118180 2.977005 -1.128005
v -1.118180 5.177006 1.171994
v -1.150000 2.967481 -1.118895
v -1.150000 5.167481 1.181105
v -1.181820 2.977005 -1.128005
v -1.181820 5.177006 1.171994
v -1.195000 3.000000 -1.150000
v -1.195000 5.200000 1.150000
v -1.181820 3.022994 -1.171995
v -1.181820 5.222994 1.128005
v 1.150000 3.032519 -1.181105
v 1.150000 5.232519 1.118895
v 1.181820 3.022994 -1.171995
v 1.181820 5.222994 1.128005
v 1.195000 3.000000 -1.150000
v 1.195000 5.200000 1.150000
v 1.181820 2.977005 -1.128005
v 1.181820 5.177006 1.171994
v 1.150000 2.967481 -1.118895
v 1.150000 5.167481 1.181105
v 1.118180 2.977005 -1.128005
v 1.118180 5.177006 1.171994
v 1.105000 3.000000 -1.150000
v 1.105000 5.200000 1.150000
v 1.118180 3.022994 -1.171995
v 1.118180 5.222994 1.128005
v -1.175000 5.050000 -0.375000
v -1.175000 5.075000 -0.350000
v -1.200000 5.075000 -0.375000
v -1.175000 5.575000 -0.350000
v -1.175000 5.600000 -0.375000
v -1.200000 5.575000 -0.375000
v -1.175000 5.050000 -1.025000
v -1.200000 5.075000 -1.025000
v -1.175000 5.075000 -1.050000
v -1.175000 5.600000 -1.025000
v -1.175000 5.575000 -1.050000
v -1.200000 5.575000 -1.025000
v -0.425000 5.050000 -0.375000
v -0.400000 5.075000 -0.375000
v -0.425000 5.075000 -0.350000
v -0.425000 5.600000 -0.375000
v -0.425000 5.575000 -0.350000
v -0.400000 5.575000 -0.375000
v -0.425000 5.050000 -1.025000
v -0.425000 5.075000 -1.050000
v -0.400000 5.075000 -1.025000
v -0.425000 5.600000 -1.025000
v -0.400000 5.575000 -1.025000
v -0.425000 5.575000 -1.050000
v -1.079500 5.050000 -1.043500
v -1.079500 5.059000 -1.034500
v -1.088500 5.059000 -1.043500
v -1.079500 5.591000 -1.034500
v -1.079500 5.600000 -1.043500
v -1.088500 5.591000 -1.043500
v -1.079500 5.050000 -1.070500
v -1.088500 5.059000 -1.070500
v -1.079500 5.059000 -1.079500
v -1.079500 5.600000 -1.070500
v -1.079500 5.591000 -1.079500
v -1.088500 5.591000 -1.070500
v -1.032500 5.050000 -1.043500
v -1.023500 5.059000 -1.043500
v -1.032500 5.059000 -1.034500
v -1.032500 5.600000 -1.043500
v -1.032500 5.591000 -1.034500
v -1.023500 5.591000 -1.043500
v -1.032500 5.050000 -1.070500
v -1.032500 5.059000 -1.079500
v -1.023500 5.059000 -1.070500
v -1.032500 5.600000 -1.070500
v -1.023500 5.591000 -1.070500
v -1.032500 5.591000 -1.079500
v -0.567500 5.050000 -1.043500
v -0.567500 5.059000 -1.034500
v -0.576500 5.059000 -1.043500
v -0.567500 5.591000 -1.034500
v -0.567500 5.600000 -1.043500
v -0.576500 5.591000 -1.043500
v -0.567500 5.050000 -1.070500
v -0.576500 5.059000 -1.070500
v -0.567500 5.059000 -1.079500
v -0.567500 5.600000 -1.070500
v -0.567500 5.591000 -1.079500
v -0.576500 5.591000 -1.070500
v -0.520500 5.050000 -1.043500
v -0.511500 5.059000 -1.043500
v -0.520500 5.059000 -1.034500
v -0.520500 5.600000 -1.043500
v -0.520500 5.591000 -1.034500
v -0.511500 5.591000 -1.043500
v -0.520500 5.050000 -1.070500
v -0.520500 5.059000 -1.079500
v -0.511500 5.059000 -1.070500
v -0.520500 5.600000 -1.070500
v -0.511500 5.591000 -1.070500
v -0.520500 5.591000 -1.079500
v -1.189000 5.070000 -1.047500
v -1.189000 5.081000 -1.036500
v -1.200000 5.081000 -1.047500
v -1.189000 5.129000 -1.036500
v -1.189000 5.140000 -1.047500
v -1.200000 5.129000 -1.047500
v -1.189000 5.070000 -1.080500
v -1.200000 5.081000 -1.080500
v -1.189000 5.081000 -1.091500
v -1.189000 5.140000 -1.080500
v -1.189000 5.129000 -1.091500
v -1.200000 5.129000 -1.080500
v -0.411000 5.070000 -1.047500
v -0.400000 5.081000 -1.047500
v -0.411000 5.081000 -1.036500
v -0.411000 5.140000 -1.047500
v -0.411000 5.129000 -1.036500
v -0.400000 5.129000 -1.047500
v -0.411000 5.070000 -1.080500
v -0.411000 5.081000 -1.091500
v -0.400000 5.081000 -1.080500
v -0.411000 5.140000 -1.080500
v -0.400000 5.129000 -1.080500
v -0.411000 5.129000 -1.091500
v -1.189000 5.510000 -1.047500
v -1.189000 5.521000 -1.036500
v -1.200000 5.521000 -1.047500
v -1.189000 5.569000 -1.036500
v -1.189000 5.580000 -1.047500
v -1.200000 5.569000 -1.047500
v -1.189000 5.510000 -1.080500
v -1.200000 5.521000 -1.080500
v -1.189000 5.521000 -1.091500
v -1.189000 5.580000 -1.080500
v -1.189000 5.569000 -1.091500
v -1.200000 5.569000 -1.080500
v -0.411000 5.510000 -1.047500
v -0.400000 5.521000 -1.047500
v -0.411000 5.521000 -1.036500
v -0.411000 5.580000 -1.047500
v -0.411000 5.569000 -1.036500
v -0.400000 5.569000 -1.047500
v -0.411000 5.510000 -1.080500
v -0.411000 5.521000 -1.091500
v -0.400000 5.521000 -1.080500
v -0.411000 5.580000 -1.080500
v -0.400000 5.569000 -1.080500
v -0.411000 5.569000 -1.091500
v -1.226000 5.328000 -0.554500
v -1.226000 5.340000 -0.542500
v -1.238000 5.340000 -0.554500
v -1.226000 5.375999 -0.542500
v -1.226000 5.388000 -0.554500
v -1.238000 5.375999 -0.554500
v -1.226000 5.328000 -0.845500
v -1.238000 5.340000 -0.845500
v -1.226000 5.340000 -0.857500
v -1.226000 5.388000 -0.845500
v -1.226000 5.375999 -0.857500
v -1.238000 5.375999 -0.845500
v -1.190000 5.328000 -0.554500
v -1.178000 5.340000 -0.554500
v -1.190000 5.340000 -0.542500
v -1.190000 5.388000 -0.554500
v -1.190000 5.375999 -0.542500
v -1.178000 5.375999 -0.554500
v -1.190000 5.328000 -0.845500
v -1.190000 5.340000 -0.857500
v -1.178000 5.340000 -0.845500
v -1.190000 5.388000 -0.845500
v -1.178000 5.375999 -0.845500
v -1.190000 5.375999 -0.857500
v -1.079500 5.050000 -0.329500
v -1.079500 5.059000 -0.320500
v -1.088500 5.059000 -0.329500
v -1.079500 5.591000 -0.320500
v -1.079500 5.600000 -0.329500
v -1.088500 5.591000 -0.329500
v -1.079500 5.050000 -0.356500
v -1.088500 5.059000 -0.356500
v -1.079500 5.059000 -0.365500
v -1.079500 5.600000 -0.356500
v -1.079500 5.591000 -0.365500
v -1.088500 5.591000 -0.356500
v -1.032500 5.050000 -0.329500
v -1.023500 5.059000 -0.329500
v -1.032500 5.059000 -0.320500
v -1.032500 5.600000 -0.329500
v -1.032500 5.591000 -0.320500
v -1.023500 5.591000 -0.329500
v -1.032500 5.050000 -0.356500
v -1.032500 5.059000 -0.365500
v -1.023500 5.059000 -0.356500
v -1.032500 5.600000 -0.356500
v -1.023500 5.591000 -0.356500
v -1.032500 5.591000 -0.365500
v -0.567500 5.050000 -0.329500
v -0.567500 5.059000 -0.320500
v -0.576500 5.059000 -0.329500
v -0.567500 5.591000 -0.320500
v -0.567500 5.600000 -0.329500
v -0.576500 5.591000 -0.329500
v -0.567500 5.050000 -0.356500
v -0.576500 5.059000 -0.356500
v -0.567500 5.059000 -0.365500
v -0.567500 5.600000 -0.356500
v -0.567500 5.591000 -0.365500
v -0.576500 5.591000 -0.356500
v -0.520500 5.050000 -0.329500
v -0.511500 5.059000 -0.329500
v -0.520500 5.059000 -0.320500
v -0.520500 5.600000 -0.329500
v -0.520500 5.591000 -0.320500
v -0.511500 5.591000 -0.329500
v -0.520500 5.050000 -0.356500
v -0.520500 5.059000 -0.365500
v -0.511500 5.059000 -0.356500
v -0.520500 5.600000 -0.356500
v -0.511500 5.591000 -0.356500
v -0.520500 5.591000 -0.365500
v -1.189000 5.070000 -0.319500
v -1.189000 5.081000 -0.308500
v -1.200000 5.081000 -0.319500
v -1.189000 5.129000 -0.308500
v -1.189000 5.140000 -0.319500
v -1.200000 5.129000 -0.319500
v -1.189000 5.070000 -0.352500
v -1.200000 5.081000 -0.352500
v -1.189000 5.081000 -0.363500
v -1.189000 5.140000 -0.352500
v -1.189000 5.129000 -0.363500
v -1.200000 5.129000 -0.352500
v -0.411000 5.070000 -0.319500
v -0.400000 5.081000 -0.319500
v -0.411000 5.081000 -0.308500
v -0.411000 5.140000 -0.319500
v -0.411000 5.129000 -0.308500
v -0.400000 5.129000 -0.319500
v -0.411000 5.070000 -0.352500
v -0.411000 5.081000 -0.363500
v -0.400000 5.081000 -0.352500
v -0.411000 5.140000 -0.352500
v -0.400000 5.129000 -0.352500
v -0.411000 5.129000 -0.363500
v -1.189000 5.510000 -0.319500
v -1.189000 5.521000 -0.308500
v -1.200000 5.521000 -0.319500
v -1.189000 5.569000 -0.308500
v -1.189000 5.580000 -0.319500
v -1.200000 5.569000 -0.319500
v -1.189000 5.510000 -0.352500
v -1.200000 5.521000 -0.352500
v -1.189000 5.521000 -0.363500
v -1.189000 5.580000 -0.352500
v -1.189000 5.569000 -0.363500
v -1.200000 5.569000 -0.352500
v -0.411000 5.510000 -0.319500
v -0.400000 5.521000 -0.319500
v -0.411000 5.521000 -0.308500
v -0.411000 5.580000 -0.319500
v -0.411000 5.569000 -0.308500
v -0.400000 5.569000 -0.319500
v -0.411000 5.510000 -0.352500
v -0.411000 5.521000 -0.363500
v -0.400000 5.521000 -0.352500
v -0.411000 5.580000 -0.352500
v -0.400000 5.569000 -0.352500
v -0.411000 5.569000 -0.363500
v -0.410000 5.328000 -0.554500
v -0.410000 5.340000 -0.542500
v -0.422000 5.340000 -0.554500
v -0.410000 5.375999 -0.542500
v -0.410000 5.388000 -0.554500
v -0.422000 5.375999 -0.554500
v -0.410000 5.328000 -0.845500
v -0.422000 5.340000 -0.845500
v -0.410000 5.340000 -0.857500
v -0.410000 5.388000 -0.845500
v -0.410000 5.375999 -0.857500
v -0.422000 5.375999 -0.845500
v -0.374000 5.328000 -0.554500
v -0.362000 5.340000 -0.554500
v -0.374000 5.340000 -0.542500
v -0.374000 5.388000 -0.554500
v -0.374000 5.375999 -0.542500
v -0.362000 5.375999 -0.554500
v -0.374000 5.328000 -0.845500
v -0.374000 5.340000 -0.857500
v -0.362000 5.340000 -0.845500
v -0.374000 5.388000 -0.845500
v -0.362000 5.375999 -0.845500
v -0.374000 5.375999 -0.857500
v -1.078500 5.600000 -0.360000
v -1.078500 5.610000 -0.350000
v -1.088500 5.610000 -0.360000
v -1.078500 5.640000 -0.350000
v -1.078500 5.650000 -0.360000
v -1.088500 5.640000 -0.360000
v -1.078500 5.600000 -1.040000
v -1.088500 5.610000 -1.040000
v -1.078500 5.610000 -1.050000
v -1.078500 5.650000 -1.040000
v -1.078500 5.640000 -1.050000
v -1.088500 5.640000 -1.040000
v -1.033500 5.600000 -0.360000
v -1.023500 5.610000 -0.360000
v -1.033500 5.610000 -0.350000
v -1.033500 5.650000 -0.360000
v -1.033500 5.640000 -0.350000
v -1.023500 5.640000 -0.360000
v -1.033500 5.600000 -1.040000
v -1.033500 5.610000 -1.050000
v -1.023500 5.610000 -1.040000
v -1.033500 5.650000 -1.040000
v -1.023500 5.640000 -1.040000
v -1.033500 5.640000 -1.050000
v -0.566500 5.600000 -0.360000
v -0.566500 5.610000 -0.350000
v -0.576500 5.610000 -0.360000
v -0.566500 5.640000 -0.350000
v -0.566500 5.650000 -0.360000
v -0.576500 5.640000 -0.360000
v -0.566500 5.600000 -1.040000
v -0.576500 5.610000 -1.040000
v -0.566500 5.610000 -1.050000
v -0.566500 5.650000 -1.040000
v -0.566500 5.640000 -1.050000
v -0.576500 5.640000 -1.040000
v -0.521500 5.600000 -0.360000
v -0.511500 5.610000 -0.360000
v -0.521500 5.610000 -0.350000
v -0.521500 5.650000 -0.360000
v -0.521500 5.640000 -0.350000
v -0.511500 5.640000 -0.360000
v -0.521500 5.600000 -1.040000
v -0.521500 5.610000 -1.050000
v -0.511500 5.610000 -1.040000
v -0.521500 5.650000 -1.040000
v -0.511500 5.640000 -1.040000
v -0.521500 5.640000 -1.050000
v -0.916400 5.282500 -0.323600
v -0.916400 5.286100 -0.320000
v -0.920000 5.286100 -0.323600
v -0.916400 5.418900 -0.320000
v -0.916400 5.422500 -0.323600
v -0.920000 5.418900 -0.323600
v -0.916400 5.282500 -0.334400
v -0.920000 5.286100 -0.334400
v -0.916400 5.286100 -0.338000
v -0.916400 5.422500 -0.334400
v -0.916400 5.418900 -0.338000
v -0.920000 5.418900 -0.334400
v -0.683600 5.282500 -0.323600
v -0.680000 5.286100 -0.323600
v -0.683600 5.286100 -0.320000
v -0.683600 5.422500 -0.323600
v -0.683600 5.418900 -0.320000
v -0.680000 5.418900 -0.323600
v -0.683600 5.282500 -0.334400
v -0.683600 5.286100 -0.338000
v -0.680000 5.286100 -0.334400
v -0.683600 5.422500 -0.334400
v -0.680000 5.418900 -0.334400
v -0.683600 5.418900 -0.338000
v -1.120000 5.219500 -0.329000
v -1.120000 5.219500 -0.301000
v -1.092287 5.203500 -0.329000
v -1.092287 5.203500 -0.301000
v -1.092287 5.171500 -0.329000
v -1.092287 5.171500 -0.301000
v -1.120000 5.155500 -0.329000
v -1.120000 5.155500 -0.301000
v -1.147713 5.171500 -0.329000
v -1.147713 5.171500 -0.301000
v -1.147713 5.203500 -0.329000
v -1.147713 5.203500 -0.301000
v -1.120000 5.549500 -0.329000
v -1.120000 5.549500 -0.301000
v -1.092287 5.533500 -0.329000
v -1.092287 5.533500 -0.301000
v -1.092287 5.501500 -0.329000
v -1.092287 5.501500 -0.301000
v -1.120000 5.485500 -0.329000
v -1.120000 5.485500 -0.301000
v -1.147713 5.501500 -0.329000
v -1.147713 5.501500 -0.301000
v -1.147713 5.533500 -0.329000
v -1.147713 5.533500 -0.301000
v -0.480000 5.219500 -0.329000
v -0.480000 5.219500 -0.301000
v -0.452287 5.203500 -0.329000
v -0.452287 5.203500 -0.301000
v -0.452287 5.171500 -0.329000
v -0.452287 5.171500 -0.301000
v -0.480000 5.155500 -0.329000
v -0.480000 5.155500 -0.301000
v -0.507713 5.171500 -0.329000
v -0.507713 5.171500 -0.301000
v -0.507713 5.203500 -0.329000
v -0.507713 5.203500 -0.301000
v -0.480000 5.549500 -0.329000
v -0.480000 5.549500 -0.301000
v -0.452287 5.533500 -0.329000
v -0.452287 5.533500 -0.301000
v -0.452287 5.501500 -0.329000
v -0.452287 5.501500 -0.301000
v -0.480000 5.485500 -0.329000
v -0.480000 5.485500 -0.301000
v -0.507713 5.501500 -0.329000
v -0.507713 5.501500 -0.301000
v -0.507713 5.533500 -0.329000
v -0.507713 5.533500 -0.301000
v 0.625000 5.275000 -0.575000
v 0.625000 5.300000 -0.550000
v 0.600000 5.300000 -0.575000
v 0.625000 6.000000 -0.550000
v 0.625000 6.025000 -0.575000
v 0.600000 6.000000 -0.575000
v 0.625000 5.275000 -1.025000
v 0.600000 5.300000 -1.025000
v 0.625000 5.300000 -1.050000
v 0.625000 6.025000 -1.025000
v 0.625000 6.000000 -1.050000
v 0.600000 6.000000 -1.025000
v 1.175000 5.275000 -0.575000
v 1.200000 5.300000 -0.575000
v 1.175000 5.300000 -0.550000
v 1.175000 6.025000 -0.575000
v 1.175000 6.000000 -0.550000
v 1.200000 6.000000 -0.575000
v 1.175000 5.275000 -1.025000
v 1.175000 5.300000 -1.050000
v 1.200000 5.300000 -1.025000
v 1.175000 6.025000 -1.025000
v 1.200000 6.000000 -1.025000
v 1.175000 6.000000 -1.050000
v 0.900000 5.900000 -0.825000
v 0.900000 7.100000 -0.825000
v 0.912500 5.900000 -0.821651
v 0.912500 7.100000 -0.821651
v 0.921651 5.900000 -0.812500
v 0.921651 7.100000 -0.812500
v 0.925000 5.900000 -0.800000
v 0.925000 7.100000 -0.800000
v 0.921651 5.900000 -0.787500
v 0.921651 7.100000 -0.787500
v 0.912500 5.900000 -0.778350
v 0.912500 7.100000 -0.778350
v 0.900000 5.900000 -0.775000
v 0.900000 7.100000 -0.775000
v 0.887500 5.900000 -0.778350
v 0.887500 7.100000 -0.778350
v 0.878349 5.900000 -0.787500
v 0.878349 7.100000 -0.787500
v 0.875000 5.900000 -0.800000
v 0.875000 7.100000 -0.800000
v 0.878349 5.900000 -0.812500
v 0.878349 7.100000 -0.812500
v 0.887500 5.900000 -0.821651
v 0.887500 7.100000 -0.821651
vn 0.3827 -0.0000 -0.9239
vn 0.9239 -0.0000 -0.3827
vn 0.9239 -0.0000 0.3827
vn 0.3827 -0.0000 0.9239
vn -0.3827 -0.0000 0.9239
vn -0.9239 -0.0000 0.3827
vn -0.0000 1.0000 -0.0000
vn -0.9239 -0.0000 -0.3827
vn -0.3827 -0.0000 -0.9239
vn -0.0000 -1.0000 -0.0000
vn -0.0000 -0.3827 -0.9239
vn -0.0000 -0.9239 -0.3827
vn -0.0000 -0.9239 0.3827
vn -0.0000 -0.3827 0.9239
vn -0.0000 0.3827 0.9239
vn -0.0000 0.9239 0.3827
vn 1.0000 -0.0000 -0.0000
vn -0.0000 0.9239 -0.3827
vn -0.0000 0.3827 -0.9239
vn -1.0000 -0.0000 -0.0000
vn 0.3827 0.6676 -0.6386
vn 0.9239 0.2765 -0.2645
vn 0.9239 -0.2765 0.2645
vn 0.3827 -0.6676 0.6386
vn -0.3827 -0.6676 0.6386
vn -0.9239 -0.2765 0.2645
vn -0.0000 0.6912 0.7226
vn -0.9239 0.2765 -0.2645
vn -0.3827 0.6676 -0.6386
vn -0.0000 -0.6912 -0.7226
vn -0.5773 -0.5774 0.5774
vn -0.5773 0.5774 0.5774
vn -0.5773 -0.5774 -0.5774
vn -0.5773 0.5774 -0.5774
vn 0.5773 -0.5774 0.5774
vn 0.5773 0.5774 0.5774
vn 0.5773 -0.5774 -0.5774
vn 0.5773 0.5774 -0.5774
vn -0.7071 -0.7071 -0.0000
vn -0.7071 -0.0000 0.7071
vn -0.7071 0.7071 -0.0000
vn -0.7071 -0.0000 -0.7071
vn -0.0000 -0.7071 -0.7071
vn -0.0000 0.7071 -0.7071
vn 0.7071 -0.0000 -0.7071
vn 0.7071 -0.7071 -0.0000
vn 0.7071 0.7071 -0.0000
vn 0.7071 -0.0000 0.7071
vn -0.0000 -0.7071 0.7071
vn -0.0000 0.7071 0.7071
vn -0.0000 -0.0000 1.0000
vn -0.0000 -0.0000 -1.0000
vn -0.5774 -0.5773 0.5774
vn -0.5774 0.5773 0.5773
vn -0.5774 -0.5773 -0.5774
vn -0.5774 0.5773 -0.5773
vn 0.5774 -0.5773 0.5774
vn 0.5774 0.5773 0.5773
vn 0.5774 -0.5773 -0.5774
vn 0.5774 0.5773 -0.5773
vn -0.5774 0.5773 0.5774
vn -0.5774 0.5773 -0.5774
vn 0.5774 0.5773 0.5774
vn 0.5774 0.5773 -0.5774
vn -0.5773 -0.5774 0.5773
vn -0.5773 -0.5774 -0.5773
vn 0.5773 -0.5774 0.5773
vn 0.5774 -0.5774 -0.5773
vn -0.5773 -0.5773 0.5774
vn -0.5773 0.5773 0.5774
vn -0.5774 -0.5774 0.5773
vn -0.5774 0.5774 0.5773
vn -0.5774 -0.5774 -0.5773
vn -0.5774 0.5774 -0.5773
vn 0.5774 -0.5774 0.5773
vn 0.5774 0.5774 0.5773
vn 0.5774 0.5774 -0.5773
vn -0.7070 -0.7072 -0.0000
vn -0.7070 0.7072 -0.0000
vn -0.0000 -0.7072 -0.7071
vn -0.0000 0.7072 -0.7071
vn 0.7070 -0.7072 -0.0000
vn 0.7070 0.7072 -0.0000
vn -0.0000 -0.7072 0.7071
vn -0.0000 0.7072 0.7071
vn 0.5000 0.8660 -0.0000
vn 0.5000 -0.8660 -0.0000
vn -0.5000 -0.8660 -0.0000
vn -0.5000 0.8660 -0.0000
vn -0.5774 -0.5773 0.5773
vn -0.5774 -0.5773 -0.5773
vn 0.5774 -0.5773 0.5773
vn 0.5774 -0.5773 -0.5773
vn 0.2588 -0.0000 -0.9659
vn 0.9659 -0.0000 -0.2588
vn 0.9659 -0.0000 0.2588
vn 0.2588 -0.0000 0.9659
vn -0.2588 -0.0000 0.9659
vn -0.9659 -0.0000 0.2588
vn -0.9659 -0.0000 -0.2588
vn -0.2588 -0.0000 -0.9659
vn -0.0000 0.6912 0.7227
vn -0.0001 0.6912 0.7226
vn 0.0001 0.6912 0.7226
vn 0.0001 0.6912 0.7227
vn -0.7072 0.7071 -0.0000
vn 0.7072 0.7071 -0.0000
vn 0.0002 1.0000 -0.0000
vn -0.0001 1.0000 -0.0000
vn -0.0002 -1.0000 -0.0000
vn 0.0002 -1.0000 -0.0000
vt 0.125000 0.625000
vt 0.375000 0.875000
vt 0.125000 0.875000
vt 0.375000 0.125000
vt 0.875000 0.125000
s 0
usemtl WorldPickupPalette
f 2/1/1 3/1/1 1/1/1
f 4/1/2 5/1/2 3/1/2
f 6/1/3 7/1/3 5/1/3
f 8/1/4 9/1/4 7/1/4
f 10/1/5 11/1/5 9/1/5
f 12/1/6 13/1/6 11/1/6
f 2/1/7 14/1/7 10/1/7
f 14/1/8 15/1/8 13/1/8
f 16/1/9 1/1/9 15/1/9
f 7/1/10 11/1/10 15/1/10
f 18/1/1 19/1/1 17/1/1
f 20/1/2 21/1/2 19/1/2
f 22/1/3 23/1/3 21/1/3
f 24/1/4 25/1/4 23/1/4
f 26/1/5 27/1/5 25/1/5
f 28/1/6 29/1/6 27/1/6
f 24/1/7 22/1/7 30/1/7
f 30/1/8 31/1/8 29/1/8
f 32/1/9 17/1/9 31/1/9
f 23/1/10 27/1/10 31/1/10
f 34/2/11 35/2/11 33/2/11
f 36/2/12 37/2/12 35/2/12
f 38/2/13 39/2/13 37/2/13
f 40/2/14 41/2/14 39/2/14
f 42/2/15 43/2/15 41/2/15
f 44/2/16 45/2/16 43/2/16
f 42/2/17 40/2/17 38/2/17
f 46/2/18 47/2/18 45/2/18
f 48/2/19 33/2/19 47/2/19
f 45/2/20 47/2/20 39/2/20
f 50/2/11 51/2/11 49/2/11
f 52/2/12 53/2/12 51/2/12
f 54/2/13 55/2/13 53/2/13
f 56/2/14 57/2/14 55/2/14
f 58/2/15 59/2/15 57/2/15
f 60/2/16 61/2/16 59/2/16
f 58/2/17 56/2/17 54/2/17
f 62/2/18 63/2/18 61/2/18
f 64/2/19 49/2/19 63/2/19
f 61/2/20 63/2/20 55/2/20
f 66/2/11 67/2/11 65/2/11
f 68/2/12 69/2/12 67/2/12
f 70/2/13 71/2/13 69/2/13
f 72/2/14 73/2/14 71/2/14
f 74/2/15 75/2/15 73/2/15
f 76/2/16 77/2/16 75/2/16
f 78/2/17 74/2/17 70/2/17
f 78/2/18 79/2/18 77/2/18
f 80/2/19 65/2/19 79/2/19
f 77/2/20 79/2/20 71/2/20
f 82/2/11 83/2/11 81/2/11
f 84/2/12 85/2/12 83/2/12
f 86/2/13 87/2/13 85/2/13
f 88/2/14 89/2/14 87/2/14
f 90/2/15 91/2/15 89/2/15
f 92/2/16 93/2/16 91/2/16
f 94/2/17 90/2/17 86/2/17
f 94/2/18 95/2/18 93/2/18
f 96/2/19 81/2/19 95/2/19
f 93/2/20 95/2/20 87/2/20
f 98/2/11 99/2/11 97/2/11
f 100/2/12 101/2/12 99/2/12
f 102/2/13 103/2/13 101/2/13
f 104/2/14 105/2/14 103/2/14
f 106/2/15 107/2/15 105/2/15
f 108/2/16 109/2/16 107/2/16
f 110/2/17 106/2/17 102/2/17
f 110/2/18 111/2/18 109/2/18
f 112/2/19 97/2/19 111/2/19
f 109/2/20 111/2/20 103/2/20
f 114/2/11 115/2/11 113/2/11
f 116/2/12 117/2/12 115/2/12
f 118/2/13 119/2/13 117/2/13
f 120/2/14 121/2/14 119/2/14
f 122/2/15 123/2/15 121/2/15
f 124/2/16 125/2/16 123/2/16
f 126/2/17 122/2/17 118/2/17
f 126/2/18 127/2/18 125/2/18
f 128/2/19 113/2/19 127/2/19
f 125/2/20 127/2/20 119/2/20
f 130/2/11 131/2/11 129/2/11
f 132/2/12 133/2/12 131/2/12
f 134/2/13 135/2/13 133/2/13
f 136/2/14 137/2/14 135/2/14
f 138/2/15 139/2/15 137/2/15
f 140/2/16 141/2/16 139/2/16
f 136/2/17 134/2/17 142/2/17
f 142/2/18 143/2/18 141/2/18
f 144/2/19 129/2/19 143/2/19
f 141/2/20 143/2/20 135/2/20
f 146/2/11 147/2/11 145/2/11
f 148/2/12 149/2/12 147/2/12
f 150/2/13 151/2/13 149/2/13
f 152/2/14 153/2/14 151/2/14
f 154/2/15 155/2/15 153/2/15
f 156/2/16 157/2/16 155/2/16
f 146/2/17 158/2/17 154/2/17
f 158/2/18 159/2/18 157/2/18
f 160/2/19 145/2/19 159/2/19
f 155/2/20 157/2/20 159/2/20
f 162/2/11 163/2/11 161/2/11
f 164/2/12 165/2/12 163/2/12
f 166/2/13 167/2/13 165/2/13
f 168/2/14 169/2/14 167/2/14
f 170/2/15 171/2/15 169/2/15
f 172/2/16 173/2/16 171/2/16
f 170/2/17 168/2/17 166/2/17
f 174/2/18 175/2/18 173/2/18
f 176/2/19 161/2/19 175/2/19
f 173/2/20 175/2/20 167/2/20
f 178/2/11 179/2/11 177/2/11
f 180/2/12 181/2/12 179/2/12
f 182/2/13 183/2/13 181/2/13
f 184/2/14 185/2/14 183/2/14
f 186/2/15 187/2/15 185/2/15
f 188/2/16 189/2/16 187/2/16
f 190/2/17 186/2/17 182/2/17
f 190/2/18 191/2/18 189/2/18
f 192/2/19 177/2/19 191/2/19
f 189/2/20 191/2/20 183/2/20
f 194/2/11 195/2/11 193/2/11
f 196/2/12 197/2/12 195/2/12
f 198/2/13 199/2/13 197/2/13
f 200/2/14 201/2/14 199/2/14
f 202/2/15 203/2/15 201/2/15
f 204/2/16 205/2/16 203/2/16
f 194/2/17 206/2/17 202/2/17
f 206/2/18 207/2/18 205/2/18
f 208/2/19 193/2/19 207/2/19
f 203/2/20 205/2/20 207/2/20
f 210/2/11 211/2/11 209/2/11
f 212/2/12 213/2/12 211/2/12
f 214/2/13 215/2/13 213/2/13
f 216/2/14 217/2/14 215/2/14
f 218/2/15 219/2/15 217/2/15
f 220/2/16 221/2/16 219/2/16
f 222/2/17 218/2/17 214/2/17
f 222/2/18 223/2/18 221/2/18
f 224/2/19 209/2/19 223/2/19
f 221/2/20 223/2/20 215/2/20
f 226/2/11 227/2/11 225/2/11
f 228/2/12 229/2/12 227/2/12
f 230/2/13 231/2/13 229/2/13
f 232/2/14 233/2/14 231/2/14
f 234/2/15 235/2/15 233/2/15
f 236/2/16 237/2/16 235/2/16
f 226/2/17 238/2/17 234/2/17
f 238/2/18 239/2/18 237/2/18
f 240/2/19 225/2/19 239/2/19
f 235/2/20 237/2/20 239/2/20
f 242/2/11 243/2/11 241/2/11
f 244/2/12 245/2/12 243/2/12
f 246/2/13 247/2/13 245/2/13
f 248/2/14 249/2/14 247/2/14
f 250/2/15 251/2/15 249/2/15
f 252/2/16 253/2/16 251/2/16
f 248/2/17 246/2/17 254/2/17
f 254/2/18 255/2/18 253/2/18
f 256/2/19 241/2/19 255/2/19
f 247/2/20 251/2/20 255/2/20
f 258/2/11 259/2/11 257/2/11
f 260/2/12 261/2/12 259/2/12
f 262/2/13 263/2/13 261/2/13
f 264/2/14 265/2/14 263/2/14
f 266/2/15 267/2/15 265/2/15
f 268/2/16 269/2/16 267/2/16
f 264/2/17 262/2/17 270/2/17
f 270/2/18 271/2/18 269/2/18
f 272/2/19 257/2/19 271/2/19
f 263/2/20 267/2/20 271/2/20
f 274/2/11 275/2/11 273/2/11
f 276/2/12 277/2/12 275/2/12
f 278/2/13 279/2/13 277/2/13
f 280/2/14 281/2/14 279/2/14
f 282/2/15 283/2/15 281/2/15
f 284/2/16 285/2/16 283/2/16
f 286/2/17 282/2/17 278/2/17
f 286/2/18 287/2/18 285/2/18
f 288/2/19 273/2/19 287/2/19
f 285/2/20 287/2/20 279/2/20
f 290/1/21 291/1/21 289/1/21
f 291/1/22 294/1/22 293/1/22
f 294/1/23 295/1/23 293/1/23
f 295/1/24 298/1/24 297/1/24
f 298/1/25 299/1/25 297/1/25
f 299/1/26 302/1/26 301/1/26
f 294/1/27 290/1/27 302/1/27
f 302/1/28 303/1/28 301/1/28
f 303/1/29 290/1/29 289/1/29
f 301/1/30 303/1/30 295/1/30
f 306/1/21 307/1/21 305/1/21
f 307/1/22 310/1/22 309/1/22
f 310/1/23 311/1/23 309/1/23
f 311/1/24 314/1/24 313/1/24
f 314/1/25 315/1/25 313/1/25
f 315/1/26 318/1/26 317/1/26
f 310/1/27 306/1/27 318/1/27
f 318/1/28 319/1/28 317/1/28
f 319/1/29 306/1/29 305/1/29
f 317/1/30 319/1/30 311/1/30
f 322/1/21 323/1/21 321/1/21
f 324/1/22 325/1/22 323/1/22
f 326/1/23 327/1/23 325/1/23
f 328/1/24 329/1/24 327/1/24
f 330/1/25 331/1/25 329/1/25
f 331/1/26 334/1/26 333/1/26
f 334/1/27 330/1/27 326/1/27
f 333/1/28 336/1/28 335/1/28
f 336/1/29 321/1/29 335/1/29
f 333/1/30 335/1/30 327/1/30
f 338/1/21 339/1/21 337/1/21
f 340/1/22 341/1/22 339/1/22
f 342/1/23 343/1/23 341/1/23
f 344/1/24 345/1/24 343/1/24
f 346/1/25 347/1/25 345/1/25
f 347/1/26 350/1/26 349/1/26
f 350/1/27 346/1/27 342/1/27
f 349/1/28 352/1/28 351/1/28
f 352/1/29 337/1/29 351/1/29
f 343/1/30 347/1/30 351/1/30
f 354/1/21 355/1/21 353/1/21
f 356/1/22 357/1/22 355/1/22
f 358/1/23 359/1/23 357/1/23
f 360/1/24 361/1/24 359/1/24
f 362/1/25 363/1/25 361/1/25
f 363/1/26 366/1/26 365/1/26
f 358/1/27 354/1/27 366/1/27
f 365/1/28 368/1/28 367/1/28
f 368/1/29 353/1/29 367/1/29
f 367/1/30 355/1/30 359/1/30
f 370/1/21 371/1/21 369/1/21
f 372/1/22 373/1/22 371/1/22
f 374/1/23 375/1/23 373/1/23
f 376/1/24 377/1/24 375/1/24
f 378/1/25 379/1/25 377/1/25
f 379/1/26 382/1/26 381/1/26
f 374/1/27 370/1/27 382/1/27
f 381/1/28 384/1/28 383/1/28
f 384/1/29 369/1/29 383/1/29
f 379/1/30 381/1/30 383/1/30
f 385/3/31 386/3/31 387/3/31
f 388/3/32 389/3/32 390/3/32
f 391/3/33 392/3/33 393/3/33
f 394/3/34 395/3/34 396/3/34
f 397/3/35 398/3/35 399/3/35
f 400/3/36 401/3/36 402/3/36
f 403/3/37 404/3/37 405/3/37
f 406/3/38 407/3/38 408/3/38
f 385/3/39 392/3/39 391/3/39
f 388/3/40 387/3/40 386/3/40
f 394/3/41 390/3/41 389/3/41
f 393/3/42 396/3/42 395/3/42
f 391/3/43 404/3/43 403/3/43
f 406/3/44 395/3/44 394/3/44
f 405/3/45 408/3/45 407/3/45
f 403/3/46 398/3/46 397/3/46
f 400/3/47 407/3/47 406/3/47
f 399/3/48 402/3/48 401/3/48
f 397/3/49 386/3/49 385/3/49
f 389/3/50 401/3/50 400/3/50
f 403/3/10 385/3/10 391/3/10
f 390/3/20 392/3/20 387/3/20
f 401/3/51 386/3/51 399/3/51
f 394/3/7 400/3/7 406/3/7
f 395/3/52 404/3/52 393/3/52
f 407/3/17 398/3/17 405/3/17
f 409/1/53 410/1/53 411/1/53
f 412/1/54 413/1/54 414/1/54
f 415/1/55 416/1/55 417/1/55
f 418/1/56 419/1/56 420/1/56
f 421/1/57 422/1/57 423/1/57
f 424/1/58 425/1/58 426/1/58
f 427/1/59 428/1/59 429/1/59
f 430/1/60 431/1/60 432/1/60
f 409/1/39 416/1/39 415/1/39
f 412/1/40 411/1/40 410/1/40
f 418/1/41 414/1/41 413/1/41
f 417/1/42 420/1/42 419/1/42
f 415/1/43 428/1/43 427/1/43
f 430/1/44 419/1/44 418/1/44
f 429/1/45 432/1/45 431/1/45
f 427/1/46 422/1/46 421/1/46
f 424/1/47 431/1/47 430/1/47
f 423/1/48 426/1/48 425/1/48
f 421/1/49 410/1/49 409/1/49
f 413/1/50 425/1/50 424/1/50
f 427/1/10 409/1/10 415/1/10
f 414/1/20 416/1/20 411/1/20
f 425/1/51 410/1/51 423/1/51
f 418/1/7 424/1/7 430/1/7
f 419/1/52 428/1/52 417/1/52
f 431/1/17 422/1/17 429/1/17
f 433/1/53 434/1/53 435/1/53
f 436/1/54 437/1/54 438/1/54
f 439/1/55 440/1/55 441/1/55
f 442/1/56 443/1/56 444/1/56
f 445/1/57 446/1/57 447/1/57
f 448/1/58 449/1/58 450/1/58
f 451/1/59 452/1/59 453/1/59
f 454/1/60 455/1/60 456/1/60
f 433/1/39 440/1/39 439/1/39
f 436/1/40 435/1/40 434/1/40
f 442/1/41 438/1/41 437/1/41
f 441/1/42 444/1/42 443/1/42
f 439/1/43 452/1/43 451/1/43
f 454/1/44 443/1/44 442/1/44
f 453/1/45 456/1/45 455/1/45
f 451/1/46 446/1/46 445/1/46
f 448/1/47 455/1/47 454/1/47
f 447/1/48 450/1/48 449/1/48
f 445/1/49 434/1/49 433/1/49
f 437/1/50 449/1/50 448/1/50
f 451/1/10 433/1/10 439/1/10
f 438/1/20 440/1/20 435/1/20
f 449/1/51 434/1/51 447/1/51
f 442/1/7 448/1/7 454/1/7
f 443/1/52 452/1/52 441/1/52
f 455/1/17 446/1/17 453/1/17
f 457/4/53 458/4/53 459/4/53
f 460/4/61 461/4/61 462/4/61
f 463/4/55 464/4/55 465/4/55
f 466/4/62 467/4/62 468/4/62
f 469/4/57 470/4/57 471/4/57
f 472/4/63 473/4/63 474/4/63
f 475/4/59 476/4/59 477/4/59
f 478/4/64 479/4/64 480/4/64
f 457/4/39 464/4/39 463/4/39
f 460/4/40 459/4/40 458/4/40
f 466/4/41 462/4/41 461/4/41
f 465/4/42 468/4/42 467/4/42
f 463/4/43 476/4/43 475/4/43
f 478/4/44 467/4/44 466/4/44
f 477/4/45 480/4/45 479/4/45
f 475/4/46 470/4/46 469/4/46
f 472/4/47 479/4/47 478/4/47
f 471/4/48 474/4/48 473/4/48
f 469/4/49 458/4/49 457/4/49
f 461/4/50 473/4/50 472/4/50
f 475/4/10 457/4/10 463/4/10
f 462/4/20 464/4/20 459/4/20
f 473/4/51 458/4/51 471/4/51
f 466/4/7 472/4/7 478/4/7
f 467/4/52 476/4/52 465/4/52
f 479/4/17 470/4/17 477/4/17
f 481/4/65 482/4/65 483/4/65
f 484/4/32 485/4/32 486/4/32
f 487/4/66 488/4/66 489/4/66
f 490/4/34 491/4/34 492/4/34
f 493/4/67 494/4/67 495/4/67
f 496/4/36 497/4/36 498/4/36
f 499/4/68 500/4/68 501/4/68
f 502/4/38 503/4/38 504/4/38
f 481/4/39 488/4/39 487/4/39
f 484/4/40 483/4/40 482/4/40
f 490/4/41 486/4/41 485/4/41
f 489/4/42 492/4/42 491/4/42
f 487/4/43 500/4/43 499/4/43
f 502/4/44 491/4/44 490/4/44
f 501/4/45 504/4/45 503/4/45
f 499/4/46 494/4/46 493/4/46
f 496/4/47 503/4/47 502/4/47
f 495/4/48 498/4/48 497/4/48
f 493/4/49 482/4/49 481/4/49
f 485/4/50 497/4/50 496/4/50
f 499/4/10 481/4/10 487/4/10
f 486/4/20 488/4/20 483/4/20
f 497/4/51 482/4/51 495/4/51
f 490/4/7 496/4/7 502/4/7
f 491/4/52 500/4/52 489/4/52
f 503/4/17 494/4/17 501/4/17
f 505/5/31 506/5/31 507/5/31
f 508/5/54 509/5/54 510/5/54
f 511/5/33 512/5/33 513/5/33
f 514/5/56 515/5/56 516/5/56
f 517/5/35 518/5/35 519/5/35
f 520/5/58 521/5/58 522/5/58
f 523/5/37 524/5/37 525/5/37
f 526/5/60 527/5/60 528/5/60
f 505/5/39 512/5/39 511/5/39
f 508/5/40 507/5/40 506/5/40
f 514/5/41 510/5/41 509/5/41
f 513/5/42 516/5/42 515/5/42
f 511/5/43 524/5/43 523/5/43
f 526/5/44 515/5/44 514/5/44
f 525/5/45 528/5/45 527/5/45
f 523/5/46 518/5/46 517/5/46
f 520/5/47 527/5/47 526/5/47
f 519/5/48 522/5/48 521/5/48
f 517/5/49 506/5/49 505/5/49
f 509/5/50 521/5/50 520/5/50
f 523/5/10 505/5/10 511/5/10
f 510/5/20 512/5/20 507/5/20
f 521/5/51 506/5/51 519/5/51
f 514/5/7 520/5/7 526/5/7
f 515/5/52 524/5/52 513/5/52
f 527/5/17 518/5/17 525/5/17
f 529/1/53 530/1/53 531/1/53
f 532/1/54 533/1/54 534/1/54
f 535/1/55 536/1/55 537/1/55
f 538/1/56 539/1/56 540/1/56
f 541/1/57 542/1/57 543/1/57
f 544/1/58 545/1/58 546/1/58
f 547/1/59 548/1/59 549/1/59
f 550/1/60 551/1/60 552/1/60
f 529/1/39 536/1/39 535/1/39
f 532/1/40 531/1/40 530/1/40
f 538/1/41 534/1/41 533/1/41
f 537/1/42 540/1/42 539/1/42
f 535/1/43 548/1/43 547/1/43
f 550/1/44 539/1/44 538/1/44
f 549/1/45 552/1/45 551/1/45
f 547/1/46 542/1/46 541/1/46
f 544/1/47 551/1/47 550/1/47
f 543/1/48 546/1/48 545/1/48
f 541/1/49 530/1/49 529/1/49
f 533/1/50 545/1/50 544/1/50
f 547/1/10 529/1/10 535/1/10
f 534/1/20 536/1/20 531/1/20
f 545/1/51 530/1/51 543/1/51
f 538/1/7 544/1/7 550/1/7
f 539/1/52 548/1/52 537/1/52
f 551/1/17 542/1/17 549/1/17
f 553/1/53 554/1/53 555/1/53
f 556/1/54 557/1/54 558/1/54
f 559/1/55 560/1/55 561/1/55
f 562/1/56 563/1/56 564/1/56
f 565/1/57 566/1/57 567/1/57
f 568/1/58 569/1/58 570/1/58
f 571/1/59 572/1/59 573/1/59
f 574/1/60 575/1/60 576/1/60
f 553/1/39 560/1/39 559/1/39
f 556/1/40 555/1/40 554/1/40
f 562/1/41 558/1/41 557/1/41
f 561/1/42 564/1/42 563/1/42
f 559/1/43 572/1/43 571/1/43
f 574/1/44 563/1/44 562/1/44
f 573/1/45 576/1/45 575/1/45
f 571/1/46 566/1/46 565/1/46
f 568/1/47 575/1/47 574/1/47
f 567/1/48 570/1/48 569/1/48
f 565/1/49 554/1/49 553/1/49
f 557/1/50 569/1/50 568/1/50
f 571/1/10 553/1/10 559/1/10
f 558/1/20 560/1/20 555/1/20
f 569/1/51 554/1/51 567/1/51
f 562/1/7 568/1/7 574/1/7
f 563/1/52 572/1/52 561/1/52
f 575/1/17 566/1/17 573/1/17
f 577/4/69 578/4/69 579/4/69
f 580/4/70 581/4/70 582/4/70
f 583/4/55 584/4/55 585/4/55
f 586/4/62 587/4/62 588/4/62
f 589/4/57 590/4/57 591/4/57
f 592/4/63 593/4/63 594/4/63
f 595/4/59 596/4/59 597/4/59
f 598/4/64 599/4/64 600/4/64
f 577/4/39 584/4/39 583/4/39
f 580/4/40 579/4/40 578/4/40
f 586/4/41 582/4/41 581/4/41
f 585/4/42 588/4/42 587/4/42
f 583/4/43 596/4/43 595/4/43
f 598/4/44 587/4/44 586/4/44
f 597/4/45 600/4/45 599/4/45
f 595/4/46 590/4/46 589/4/46
f 592/4/47 599/4/47 598/4/47
f 591/4/48 594/4/48 593/4/48
f 589/4/49 578/4/49 577/4/49
f 581/4/50 593/4/50 592/4/50
f 595/4/10 577/4/10 583/4/10
f 582/4/20 584/4/20 579/4/20
f 593/4/51 578/4/51 591/4/51
f 586/4/7 592/4/7 598/4/7
f 587/4/52 596/4/52 585/4/52
f 599/4/17 590/4/17 597/4/17
f 601/4/65 602/4/65 603/4/65
f 604/4/32 605/4/32 606/4/32
f 607/4/66 608/4/66 609/4/66
f 610/4/34 611/4/34 612/4/34
f 613/4/67 614/4/67 615/4/67
f 616/4/36 617/4/36 618/4/36
f 619/4/68 620/4/68 621/4/68
f 622/4/38 623/4/38 624/4/38
f 601/4/39 608/4/39 607/4/39
f 604/4/40 603/4/40 602/4/40
f 610/4/41 606/4/41 605/4/41
f 609/4/42 612/4/42 611/4/42
f 607/4/43 620/4/43 619/4/43
f 622/4/44 611/4/44 610/4/44
f 621/4/45 624/4/45 623/4/45
f 619/4/46 614/4/46 613/4/46
f 616/4/47 623/4/47 622/4/47
f 615/4/48 618/4/48 617/4/48
f 613/4/49 602/4/49 601/4/49
f 605/4/50 617/4/50 616/4/50
f 619/4/10 601/4/10 607/4/10
f 606/4/20 608/4/20 603/4/20
f 617/4/51 602/4/51 615/4/51
f 610/4/7 616/4/7 622/4/7
f 611/4/52 620/4/52 609/4/52
f 623/4/17 614/4/17 621/4/17
f 625/5/31 626/5/31 627/5/31
f 628/5/54 629/5/54 630/5/54
f 631/5/33 632/5/33 633/5/33
f 634/5/56 635/5/56 636/5/56
f 637/5/35 638/5/35 639/5/35
f 640/5/58 641/5/58 642/5/58
f 643/5/37 644/5/37 645/5/37
f 646/5/60 647/5/60 648/5/60
f 625/5/39 632/5/39 631/5/39
f 628/5/40 627/5/40 626/5/40
f 634/5/41 630/5/41 629/5/41
f 633/5/42 636/5/42 635/5/42
f 631/5/43 644/5/43 643/5/43
f 646/5/44 635/5/44 634/5/44
f 645/5/45 648/5/45 647/5/45
f 643/5/46 638/5/46 637/5/46
f 640/5/47 647/5/47 646/5/47
f 639/5/48 642/5/48 641/5/48
f 637/5/49 626/5/49 625/5/49
f 629/5/50 641/5/50 640/5/50
f 643/5/10 625/5/10 631/5/10
f 630/5/20 632/5/20 627/5/20
f 641/5/51 626/5/51 639/5/51
f 634/5/7 640/5/7 646/5/7
f 635/5/52 644/5/52 633/5/52
f 647/5/17 638/5/17 645/5/17
f 649/1/71 650/1/71 651/1/71
f 652/1/72 653/1/72 654/1/72
f 655/1/73 656/1/73 657/1/73
f 658/1/74 659/1/74 660/1/74
f 661/1/75 662/1/75 663/1/75
f 664/1/76 665/1/76 666/1/76
f 667/1/68 668/1/68 669/1/68
f 670/1/77 671/1/77 672/1/77
f 649/1/39 656/1/39 655/1/39
f 652/1/40 651/1/40 650/1/40
f 658/1/41 654/1/41 653/1/41
f 657/1/42 660/1/42 659/1/42
f 655/1/43 668/1/43 667/1/43
f 670/1/44 659/1/44 658/1/44
f 669/1/45 672/1/45 671/1/45
f 667/1/46 662/1/46 661/1/46
f 664/1/47 671/1/47 670/1/47
f 663/1/48 666/1/48 665/1/48
f 661/1/49 650/1/49 649/1/49
f 653/1/50 665/1/50 664/1/50
f 667/1/10 649/1/10 655/1/10
f 654/1/20 656/1/20 651/1/20
f 665/1/51 650/1/51 663/1/51
f 658/1/7 664/1/7 670/1/7
f 659/1/52 668/1/52 657/1/52
f 671/1/17 662/1/17 669/1/17
f 673/1/71 674/1/71 675/1/71
f 676/1/72 677/1/72 678/1/72
f 679/1/73 680/1/73 681/1/73
f 682/1/74 683/1/74 684/1/74
f 685/1/75 686/1/75 687/1/75
f 688/1/76 689/1/76 690/1/76
f 691/1/68 692/1/68 693/1/68
f 694/1/77 695/1/77 696/1/77
f 673/1/39 680/1/39 679/1/39
f 676/1/40 675/1/40 674/1/40
f 682/1/41 678/1/41 677/1/41
f 681/1/42 684/1/42 683/1/42
f 679/1/43 692/1/43 691/1/43
f 694/1/44 683/1/44 682/1/44
f 693/1/45 696/1/45 695/1/45
f 691/1/46 686/1/46 685/1/46
f 688/1/47 695/1/47 694/1/47
f 687/1/48 690/1/48 689/1/48
f 685/1/49 674/1/49 673/1/49
f 677/1/50 689/1/50 688/1/50
f 691/1/10 673/1/10 679/1/10
f 678/1/20 680/1/20 675/1/20
f 689/1/51 674/1/51 687/1/51
f 682/1/7 688/1/7 694/1/7
f 683/1/52 692/1/52 681/1/52
f 695/1/17 686/1/17 693/1/17
f 697/2/71 698/2/71 699/2/71
f 700/2/72 701/2/72 702/2/72
f 703/2/73 704/2/73 705/2/73
f 706/2/74 707/2/74 708/2/74
f 709/2/75 710/2/75 711/2/75
f 712/2/76 713/2/76 714/2/76
f 715/2/68 716/2/68 717/2/68
f 718/2/77 719/2/77 720/2/77
f 697/2/78 704/2/78 703/2/78
f 700/2/40 699/2/40 698/2/40
f 706/2/79 702/2/79 701/2/79
f 705/2/42 708/2/42 707/2/42
f 703/2/80 716/2/80 715/2/80
f 718/2/81 707/2/81 706/2/81
f 717/2/45 720/2/45 719/2/45
f 715/2/82 710/2/82 709/2/82
f 712/2/83 719/2/83 718/2/83
f 711/2/48 714/2/48 713/2/48
f 709/2/84 698/2/84 697/2/84
f 701/2/85 713/2/85 712/2/85
f 715/2/10 697/2/10 703/2/10
f 702/2/20 704/2/20 699/2/20
f 713/2/51 698/2/51 711/2/51
f 706/2/7 712/2/7 718/2/7
f 707/2/52 716/2/52 705/2/52
f 719/2/17 710/2/17 717/2/17
f 722/1/86 723/1/86 721/1/86
f 724/1/17 725/1/17 723/1/17
f 726/1/87 727/1/87 725/1/87
f 728/1/88 729/1/88 727/1/88
f 730/1/51 728/1/51 726/1/51
f 730/1/20 731/1/20 729/1/20
f 732/1/89 721/1/89 731/1/89
f 729/1/52 731/1/52 723/1/52
f 734/1/86 735/1/86 733/1/86
f 736/1/17 737/1/17 735/1/17
f 738/1/87 739/1/87 737/1/87
f 740/1/88 741/1/88 739/1/88
f 742/1/51 740/1/51 738/1/51
f 742/1/20 743/1/20 741/1/20
f 744/1/89 733/1/89 743/1/89
f 741/1/52 743/1/52 735/1/52
f 746/1/86 747/1/86 745/1/86
f 748/1/17 749/1/17 747/1/17
f 750/1/87 751/1/87 749/1/87
f 752/1/88 753/1/88 751/1/88
f 754/1/51 752/1/51 750/1/51
f 754/1/20 755/1/20 753/1/20
f 756/1/89 745/1/89 755/1/89
f 753/1/52 755/1/52 747/1/52
f 758/1/86 759/1/86 757/1/86
f 760/1/17 761/1/17 759/1/17
f 762/1/87 763/1/87 761/1/87
f 764/1/88 765/1/88 763/1/88
f 766/1/51 764/1/51 762/1/51
f 766/1/20 767/1/20 765/1/20
f 768/1/89 757/1/89 767/1/89
f 765/1/52 767/1/52 759/1/52
f 769/3/90 770/3/90 771/3/90
f 772/3/32 773/3/32 774/3/32
f 775/3/91 776/3/91 777/3/91
f 778/3/34 779/3/34 780/3/34
f 781/3/92 782/3/92 783/3/92
f 784/3/36 785/3/36 786/3/36
f 787/3/93 788/3/93 789/3/93
f 790/3/38 791/3/38 792/3/38
f 769/3/39 776/3/39 775/3/39
f 772/3/40 771/3/40 770/3/40
f 778/3/41 774/3/41 773/3/41
f 777/3/42 780/3/42 779/3/42
f 775/3/43 788/3/43 787/3/43
f 790/3/44 779/3/44 778/3/44
f 789/3/45 792/3/45 791/3/45
f 787/3/46 782/3/46 781/3/46
f 784/3/47 791/3/47 790/3/47
f 783/3/48 786/3/48 785/3/48
f 781/3/49 770/3/49 769/3/49
f 773/3/50 785/3/50 784/3/50
f 787/3/10 769/3/10 775/3/10
f 774/3/20 776/3/20 771/3/20
f 785/3/51 770/3/51 783/3/51
f 778/3/7 784/3/7 790/3/7
f 779/3/52 788/3/52 777/3/52
f 791/3/17 782/3/17 789/3/17
f 794/1/94 795/1/94 793/1/94
f 796/1/45 797/1/45 795/1/45
f 798/1/95 799/1/95 797/1/95
f 800/1/96 801/1/96 799/1/96
f 802/1/48 803/1/48 801/1/48
f 804/1/97 805/1/97 803/1/97
f 806/1/98 807/1/98 805/1/98
f 808/1/40 809/1/40 807/1/40
f 810/1/99 811/1/99 809/1/99
f 812/1/100 813/1/100 811/1/100
f 814/1/7 806/1/7 798/1/7
f 814/1/42 815/1/42 813/1/42
f 816/1/101 793/1/101 815/1/101
f 807/1/10 811/1/10 815/1/10
f 2/1/1 4/1/1 3/1/1
f 4/1/2 6/1/2 5/1/2
f 6/1/3 8/1/3 7/1/3
f 8/1/4 10/1/4 9/1/4
f 10/1/5 12/1/5 11/1/5
f 12/1/6 14/1/6 13/1/6
f 6/1/7 4/1/7 2/1/7
f 2/1/7 16/1/7 14/1/7
f 14/1/7 12/1/7 10/1/7
f 10/1/7 8/1/7 6/1/7
f 6/1/7 2/1/7 10/1/7
f 14/1/8 16/1/8 15/1/8
f 16/1/9 2/1/9 1/1/9
f 15/1/10 1/1/10 3/1/10
f 3/1/10 5/1/10 7/1/10
f 7/1/10 9/1/10 11/1/10
f 11/1/10 13/1/10 15/1/10
f 15/1/10 3/1/10 7/1/10
f 18/1/1 20/1/1 19/1/1
f 20/1/2 22/1/2 21/1/2
f 22/1/3 24/1/3 23/1/3
f 24/1/4 26/1/4 25/1/4
f 26/1/5 28/1/5 27/1/5
f 28/1/6 30/1/6 29/1/6
f 22/1/7 20/1/7 18/1/7
f 18/1/7 32/1/7 22/1/7
f 32/1/7 30/1/7 22/1/7
f 30/1/7 28/1/7 26/1/7
f 26/1/7 24/1/7 30/1/7
f 30/1/8 32/1/8 31/1/8
f 32/1/9 18/1/9 17/1/9
f 31/1/10 17/1/10 19/1/10
f 19/1/10 21/1/10 23/1/10
f 23/1/10 25/1/10 27/1/10
f 27/1/10 29/1/10 31/1/10
f 31/1/10 19/1/10 23/1/10
f 34/2/11 36/2/11 35/2/11
f 36/2/12 38/2/12 37/2/12
f 38/2/13 40/2/13 39/2/13
f 40/2/14 42/2/14 41/2/14
f 42/2/15 44/2/15 43/2/15
f 44/2/16 46/2/16 45/2/16
f 38/2/17 36/2/17 34/2/17
f 34/2/17 48/2/17 38/2/17
f 48/2/17 46/2/17 38/2/17
f 46/2/17 44/2/17 38/2/17
f 44/2/17 42/2/17 38/2/17
f 46/2/18 48/2/18 47/2/18
f 48/2/19 34/2/19 33/2/19
f 47/2/20 33/2/20 39/2/20
f 33/2/20 35/2/20 39/2/20
f 35/2/20 37/2/20 39/2/20
f 39/2/20 41/2/20 43/2/20
f 43/2/20 45/2/20 39/2/20
f 50/2/11 52/2/11 51/2/11
f 52/2/12 54/2/12 53/2/12
f 54/2/13 56/2/13 55/2/13
f 56/2/14 58/2/14 57/2/14
f 58/2/15 60/2/15 59/2/15
f 60/2/16 62/2/16 61/2/16
f 54/2/17 52/2/17 50/2/17
f 50/2/17 64/2/17 54/2/17
f 64/2/17 62/2/17 54/2/17
f 62/2/17 60/2/17 54/2/17
f 60/2/17 58/2/17 54/2/17
f 62/2/18 64/2/18 63/2/18
f 64/2/19 50/2/19 49/2/19
f 63/2/20 49/2/20 55/2/20
f 49/2/20 51/2/20 55/2/20
f 51/2/20 53/2/20 55/2/20
f 55/2/20 57/2/20 59/2/20
f 59/2/20 61/2/20 55/2/20
f 66/2/11 68/2/11 67/2/11
f 68/2/12 70/2/12 69/2/12
f 70/2/13 72/2/13 71/2/13
f 72/2/14 74/2/14 73/2/14
f 74/2/15 76/2/15 75/2/15
f 76/2/16 78/2/16 77/2/16
f 70/2/17 68/2/17 66/2/17
f 66/2/17 80/2/17 78/2/17
f 78/2/17 76/2/17 74/2/17
f 74/2/17 72/2/17 70/2/17
f 70/2/17 66/2/17 78/2/17
f 78/2/18 80/2/18 79/2/18
f 80/2/19 66/2/19 65/2/19
f 79/2/20 65/2/20 67/2/20
f 67/2/20 69/2/20 79/2/20
f 69/2/20 71/2/20 79/2/20
f 71/2/20 73/2/20 75/2/20
f 75/2/20 77/2/20 71/2/20
f 82/2/11 84/2/11 83/2/11
f 84/2/12 86/2/12 85/2/12
f 86/2/13 88/2/13 87/2/13
f 88/2/14 90/2/14 89/2/14
f 90/2/15 92/2/15 91/2/15
f 92/2/16 94/2/16 93/2/16
f 86/2/17 84/2/17 82/2/17
f 82/2/17 96/2/17 94/2/17
f 94/2/17 92/2/17 90/2/17
f 90/2/17 88/2/17 86/2/17
f 86/2/17 82/2/17 94/2/17
f 94/2/18 96/2/18 95/2/18
f 96/2/19 82/2/19 81/2/19
f 95/2/20 81/2/20 83/2/20
f 83/2/20 85/2/20 95/2/20
f 85/2/20 87/2/20 95/2/20
f 87/2/20 89/2/20 91/2/20
f 91/2/20 93/2/20 87/2/20
f 98/2/11 100/2/11 99/2/11
f 100/2/12 102/2/12 101/2/12
f 102/2/13 104/2/13 103/2/13
f 104/2/14 106/2/14 105/2/14
f 106/2/15 108/2/15 107/2/15
f 108/2/16 110/2/16 109/2/16
f 102/2/17 100/2/17 98/2/17
f 98/2/17 112/2/17 110/2/17
f 110/2/17 108/2/17 106/2/17
f 106/2/17 104/2/17 102/2/17
f 102/2/17 98/2/17 110/2/17
f 110/2/18 112/2/18 111/2/18
f 112/2/19 98/2/19 97/2/19
f 111/2/20 97/2/20 99/2/20
f 99/2/20 101/2/20 111/2/20
f 101/2/20 103/2/20 111/2/20
f 103/2/20 105/2/20 107/2/20
f 107/2/20 109/2/20 103/2/20
f 114/2/11 116/2/11 115/2/11
f 116/2/12 118/2/12 117/2/12
f 118/2/13 120/2/13 119/2/13
f 120/2/14 122/2/14 121/2/14
f 122/2/15 124/2/15 123/2/15
f 124/2/16 126/2/16 125/2/16
f 118/2/17 116/2/17 114/2/17
f 114/2/17 128/2/17 126/2/17
f 126/2/17 124/2/17 122/2/17
f 122/2/17 120/2/17 118/2/17
f 118/2/17 114/2/17 126/2/17
f 126/2/18 128/2/18 127/2/18
f 128/2/19 114/2/19 113/2/19
f 127/2/20 113/2/20 115/2/20
f 115/2/20 117/2/20 127/2/20
f 117/2/20 119/2/20 127/2/20
f 119/2/20 121/2/20 123/2/20
f 123/2/20 125/2/20 119/2/20
f 130/2/11 132/2/11 131/2/11
f 132/2/12 134/2/12 133/2/12
f 134/2/13 136/2/13 135/2/13
f 136/2/14 138/2/14 137/2/14
f 138/2/15 140/2/15 139/2/15
f 140/2/16 142/2/16 141/2/16
f 134/2/17 132/2/17 142/2/17
f 132/2/17 130/2/17 142/2/17
f 130/2/17 144/2/17 142/2/17
f 142/2/17 140/2/17 138/2/17
f 138/2/17 136/2/17 142/2/17
f 142/2/18 144/2/18 143/2/18
f 144/2/19 130/2/19 129/2/19
f 143/2/20 129/2/20 131/2/20
f 131/2/20 133/2/20 143/2/20
f 133/2/20 135/2/20 143/2/20
f 135/2/20 137/2/20 139/2/20
f 139/2/20 141/2/20 135/2/20
f 146/2/11 148/2/11 147/2/11
f 148/2/12 150/2/12 149/2/12
f 150/2/13 152/2/13 151/2/13
f 152/2/14 154/2/14 153/2/14
f 154/2/15 156/2/15 155/2/15
f 156/2/16 158/2/16 157/2/16
f 150/2/17 148/2/17 146/2/17
f 146/2/17 160/2/17 158/2/17
f 158/2/17 156/2/17 154/2/17
f 154/2/17 152/2/17 150/2/17
f 150/2/17 146/2/17 154/2/17
f 158/2/18 160/2/18 159/2/18
f 160/2/19 146/2/19 145/2/19
f 159/2/20 145/2/20 151/2/20
f 145/2/20 147/2/20 151/2/20
f 147/2/20 149/2/20 151/2/20
f 151/2/20 153/2/20 159/2/20
f 153/2/20 155/2/20 159/2/20
f 162/2/11 164/2/11 163/2/11
f 164/2/12 166/2/12 165/2/12
f 166/2/13 168/2/13 167/2/13
f 168/2/14 170/2/14 169/2/14
f 170/2/15 172/2/15 171/2/15
f 172/2/16 174/2/16 173/2/16
f 166/2/17 164/2/17 162/2/17
f 162/2/17 176/2/17 166/2/17
f 176/2/17 174/2/17 166/2/17
f 174/2/17 172/2/17 166/2/17
f 172/2/17 170/2/17 166/2/17
f 174/2/18 176/2/18 175/2/18
f 176/2/19 162/2/19 161/2/19
f 175/2/20 161/2/20 167/2/20
f 161/2/20 163/2/20 167/2/20
f 163/2/20 165/2/20 167/2/20
f 167/2/20 169/2/20 171/2/20
f 171/2/20 173/2/20 167/2/20
f 178/2/11 180/2/11 179/2/11
f 180/2/12 182/2/12 181/2/12
f 182/2/13 184/2/13 183/2/13
f 184/2/14 186/2/14 185/2/14
f 186/2/15 188/2/15 187/2/15
f 188/2/16 190/2/16 189/2/16
f 182/2/17 180/2/17 178/2/17
f 178/2/17 192/2/17 190/2/17
f 190/2/17 188/2/17 186/2/17
f 186/2/17 184/2/17 182/2/17
f 182/2/17 178/2/17 190/2/17
f 190/2/18 192/2/18 191/2/18
f 192/2/19 178/2/19 177/2/19
f 191/2/20 177/2/20 179/2/20
f 179/2/20 181/2/20 191/2/20
f 181/2/20 183/2/20 191/2/20
f 183/2/20 185/2/20 187/2/20
f 187/2/20 189/2/20 183/2/20
f 194/2/11 196/2/11 195/2/11
f 196/2/12 198/2/12 197/2/12
f 198/2/13 200/2/13 199/2/13
f 200/2/14 202/2/14 201/2/14
f 202/2/15 204/2/15 203/2/15
f 204/2/16 206/2/16 205/2/16
f 198/2/17 196/2/17 194/2/17
f 194/2/17 208/2/17 206/2/17
f 206/2/17 204/2/17 202/2/17
f 202/2/17 200/2/17 198/2/17
f 198/2/17 194/2/17 202/2/17
f 206/2/18 208/2/18 207/2/18
f 208/2/19 194/2/19 193/2/19
f 207/2/20 193/2/20 199/2/20
f 193/2/20 195/2/20 199/2/20
f 195/2/20 197/2/20 199/2/20
f 199/2/20 201/2/20 207/2/20
f 201/2/20 203/2/20 207/2/20
f 210/2/11 212/2/11 211/2/11
f 212/2/12 214/2/12 213/2/12
f 214/2/13 216/2/13 215/2/13
f 216/2/14 218/2/14 217/2/14
f 218/2/15 220/2/15 219/2/15
f 220/2/16 222/2/16 221/2/16
f 214/2/17 212/2/17 210/2/17
f 210/2/17 224/2/17 222/2/17
f 222/2/17 220/2/17 218/2/17
f 218/2/17 216/2/17 214/2/17
f 214/2/17 210/2/17 222/2/17
f 222/2/18 224/2/18 223/2/18
f 224/2/19 210/2/19 209/2/19
f 223/2/20 209/2/20 211/2/20
f 211/2/20 213/2/20 223/2/20
f 213/2/20 215/2/20 223/2/20
f 215/2/20 217/2/20 219/2/20
f 219/2/20 221/2/20 215/2/20
f 226/2/11 228/2/11 227/2/11
f 228/2/12 230/2/12 229/2/12
f 230/2/13 232/2/13 231/2/13
f 232/2/14 234/2/14 233/2/14
f 234/2/15 236/2/15 235/2/15
f 236/2/16 238/2/16 237/2/16
f 230/2/17 228/2/17 226/2/17
f 226/2/17 240/2/17 238/2/17
f 238/2/17 236/2/17 234/2/17
f 234/2/17 232/2/17 230/2/17
f 230/2/17 226/2/17 234/2/17
f 238/2/18 240/2/18 239/2/18
f 240/2/19 226/2/19 225/2/19
f 239/2/20 225/2/20 231/2/20
f 225/2/20 227/2/20 231/2/20
f 227/2/20 229/2/20 231/2/20
f 231/2/20 233/2/20 239/2/20
f 233/2/20 235/2/20 239/2/20
f 242/2/11 244/2/11 243/2/11
f 244/2/12 246/2/12 245/2/12
f 246/2/13 248/2/13 247/2/13
f 248/2/14 250/2/14 249/2/14
f 250/2/15 252/2/15 251/2/15
f 252/2/16 254/2/16 253/2/16
f 246/2/17 244/2/17 242/2/17
f 242/2/17 256/2/17 246/2/17
f 256/2/17 254/2/17 246/2/17
f 254/2/17 252/2/17 250/2/17
f 250/2/17 248/2/17 254/2/17
f 254/2/18 256/2/18 255/2/18
f 256/2/19 242/2/19 241/2/19
f 255/2/20 241/2/20 243/2/20
f 243/2/20 245/2/20 247/2/20
f 247/2/20 249/2/20 251/2/20
f 251/2/20 253/2/20 255/2/20
f 255/2/20 243/2/20 247/2/20
f 258/2/11 260/2/11 259/2/11
f 260/2/12 262/2/12 261/2/12
f 262/2/13 264/2/13 263/2/13
f 264/2/14 266/2/14 265/2/14
f 266/2/15 268/2/15 267/2/15
f 268/2/16 270/2/16 269/2/16
f 262/2/17 260/2/17 258/2/17
f 258/2/17 272/2/17 262/2/17
f 272/2/17 270/2/17 262/2/17
f 270/2/17 268/2/17 266/2/17
f 266/2/17 264/2/17 270/2/17
f 270/2/18 272/2/18 271/2/18
f 272/2/19 258/2/19 257/2/19
f 271/2/20 257/2/20 259/2/20
f 259/2/20 261/2/20 263/2/20
f 263/2/20 265/2/20 267/2/20
f 267/2/20 269/2/20 271/2/20
f 271/2/20 259/2/20 263/2/20
f 274/2/11 276/2/11 275/2/11
f 276/2/12 278/2/12 277/2/12
f 278/2/13 280/2/13 279/2/13
f 280/2/14 282/2/14 281/2/14
f 282/2/15 284/2/15 283/2/15
f 284/2/16 286/2/16 285/2/16
f 278/2/17 276/2/17 274/2/17
f 274/2/17 288/2/17 286/2/17
f 286/2/17 284/2/17 282/2/17
f 282/2/17 280/2/17 278/2/17
f 278/2/17 274/2/17 286/2/17
f 286/2/18 288/2/18 287/2/18
f 288/2/19 274/2/19 273/2/19
f 287/2/20 273/2/20 275/2/20
f 275/2/20 277/2/20 287/2/20
f 277/2/20 279/2/20 287/2/20
f 279/2/20 281/2/20 283/2/20
f 283/2/20 285/2/20 279/2/20
f 290/1/21 292/1/21 291/1/21
f 291/1/22 292/1/22 294/1/22
f 294/1/23 296/1/23 295/1/23
f 295/1/24 296/1/24 298/1/24
f 298/1/25 300/1/25 299/1/25
f 299/1/26 300/1/26 302/1/26
f 294/1/27 292/1/27 290/1/27
f 290/1/27 304/1/27 302/1/27
f 302/1/27 300/1/27 298/1/27
f 298/1/27 296/1/27 302/1/27
f 296/1/27 294/1/27 302/1/27
f 302/1/28 304/1/28 303/1/28
f 303/1/29 304/1/29 290/1/29
f 303/1/30 289/1/30 295/1/30
f 289/1/30 291/1/30 295/1/30
f 291/1/30 293/1/30 295/1/30
f 295/1/30 297/1/30 299/1/30
f 299/1/30 301/1/30 295/1/30
f 306/1/21 308/1/21 307/1/21
f 307/1/22 308/1/22 310/1/22
f 310/1/23 312/1/23 311/1/23
f 311/1/24 312/1/24 314/1/24
f 314/1/25 316/1/25 315/1/25
f 315/1/26 316/1/26 318/1/26
f 310/1/27 308/1/27 306/1/27
f 306/1/102 320/1/102 318/1/102
f 318/1/27 316/1/27 314/1/27
f 314/1/27 312/1/27 318/1/27
f 312/1/27 310/1/27 318/1/27
f 318/1/28 320/1/28 319/1/28
f 319/1/29 320/1/29 306/1/29
f 319/1/30 305/1/30 311/1/30
f 305/1/30 307/1/30 311/1/30
f 307/1/30 309/1/30 311/1/30
f 311/1/30 313/1/30 315/1/30
f 315/1/30 317/1/30 311/1/30
f 322/1/21 324/1/21 323/1/21
f 324/1/22 326/1/22 325/1/22
f 326/1/23 328/1/23 327/1/23
f 328/1/24 330/1/24 329/1/24
f 330/1/25 332/1/25 331/1/25
f 331/1/26 332/1/26 334/1/26
f 326/1/27 324/1/27 322/1/27
f 322/1/27 336/1/27 326/1/27
f 336/1/27 334/1/27 326/1/27
f 334/1/102 332/1/102 330/1/102
f 330/1/102 328/1/102 326/1/102
f 333/1/28 334/1/28 336/1/28
f 336/1/29 322/1/29 321/1/29
f 335/1/30 321/1/30 323/1/30
f 323/1/30 325/1/30 335/1/30
f 325/1/30 327/1/30 335/1/30
f 327/1/30 329/1/30 331/1/30
f 331/1/30 333/1/30 327/1/30
f 338/1/21 340/1/21 339/1/21
f 340/1/22 342/1/22 341/1/22
f 342/1/23 344/1/23 343/1/23
f 344/1/24 346/1/24 345/1/24
f 346/1/25 348/1/25 347/1/25
f 347/1/26 348/1/26 350/1/26
f 342/1/27 340/1/27 338/1/27
f 338/1/27 352/1/27 342/1/27
f 352/1/27 350/1/27 342/1/27
f 350/1/102 348/1/102 346/1/102
f 346/1/27 344/1/27 342/1/27
f 349/1/28 350/1/28 352/1/28
f 352/1/29 338/1/29 337/1/29
f 351/1/30 337/1/30 339/1/30
f 339/1/30 341/1/30 343/1/30
f 343/1/30 345/1/30 347/1/30
f 347/1/30 349/1/30 351/1/30
f 351/1/30 339/1/30 343/1/30
f 354/1/21 356/1/21 355/1/21
f 356/1/22 358/1/22 357/1/22
f 358/1/23 360/1/23 359/1/23
f 360/1/24 362/1/24 361/1/24
f 362/1/25 364/1/25 363/1/25
f 363/1/26 364/1/26 366/1/26
f 358/1/103 356/1/103 354/1/103
f 354/1/104 368/1/104 366/1/104
f 366/1/27 364/1/27 362/1/27
f 362/1/27 360/1/27 366/1/27
f 360/1/27 358/1/27 366/1/27
f 365/1/28 366/1/28 368/1/28
f 368/1/29 354/1/29 353/1/29
f 367/1/30 353/1/30 355/1/30
f 355/1/30 357/1/30 359/1/30
f 359/1/30 361/1/30 367/1/30
f 361/1/30 363/1/30 367/1/30
f 363/1/30 365/1/30 367/1/30
f 370/1/21 372/1/21 371/1/21
f 372/1/22 374/1/22 373/1/22
f 374/1/23 376/1/23 375/1/23
f 376/1/24 378/1/24 377/1/24
f 378/1/25 380/1/25 379/1/25
f 379/1/26 380/1/26 382/1/26
f 374/1/103 372/1/103 370/1/103
f 370/1/105 384/1/105 382/1/105
f 382/1/27 380/1/27 378/1/27
f 378/1/27 376/1/27 382/1/27
f 376/1/27 374/1/27 382/1/27
f 381/1/28 382/1/28 384/1/28
f 384/1/29 370/1/29 369/1/29
f 383/1/30 369/1/30 371/1/30
f 371/1/30 373/1/30 383/1/30
f 373/1/30 375/1/30 383/1/30
f 375/1/30 377/1/30 383/1/30
f 377/1/30 379/1/30 383/1/30
f 385/3/39 387/3/39 392/3/39
f 388/3/40 390/3/40 387/3/40
f 394/3/41 396/3/41 390/3/41
f 393/3/42 392/3/42 396/3/42
f 391/3/43 393/3/43 404/3/43
f 406/3/44 408/3/44 395/3/44
f 405/3/45 404/3/45 408/3/45
f 403/3/46 405/3/46 398/3/46
f 400/3/47 402/3/47 407/3/47
f 399/3/48 398/3/48 402/3/48
f 397/3/49 399/3/49 386/3/49
f 389/3/50 388/3/50 401/3/50
f 403/3/10 397/3/10 385/3/10
f 390/3/20 396/3/20 392/3/20
f 401/3/51 388/3/51 386/3/51
f 394/3/7 389/3/7 400/3/7
f 395/3/52 408/3/52 404/3/52
f 407/3/17 402/3/17 398/3/17
f 409/1/39 411/1/39 416/1/39
f 412/1/40 414/1/40 411/1/40
f 418/1/106 420/1/106 414/1/106
f 417/1/42 416/1/42 420/1/42
f 415/1/43 417/1/43 428/1/43
f 430/1/44 432/1/44 419/1/44
f 429/1/45 428/1/45 432/1/45
f 427/1/46 429/1/46 422/1/46
f 424/1/107 426/1/107 431/1/107
f 423/1/48 422/1/48 426/1/48
f 421/1/49 423/1/49 410/1/49
f 413/1/50 412/1/50 425/1/50
f 427/1/10 421/1/10 409/1/10
f 414/1/20 420/1/20 416/1/20
f 425/1/51 412/1/51 410/1/51
f 418/1/7 413/1/7 424/1/7
f 419/1/52 432/1/52 428/1/52
f 431/1/17 426/1/17 422/1/17
f 433/1/39 435/1/39 440/1/39
f 436/1/40 438/1/40 435/1/40
f 442/1/106 444/1/106 438/1/106
f 441/1/42 440/1/42 444/1/42
f 439/1/43 441/1/43 452/1/43
f 454/1/44 456/1/44 443/1/44
f 453/1/45 452/1/45 456/1/45
f 451/1/46 453/1/46 446/1/46
f 448/1/107 450/1/107 455/1/107
f 447/1/48 446/1/48 450/1/48
f 445/1/49 447/1/49 434/1/49
f 437/1/50 436/1/50 449/1/50
f 451/1/10 445/1/10 433/1/10
f 438/1/20 444/1/20 440/1/20
f 449/1/51 436/1/51 434/1/51
f 442/1/7 437/1/7 448/1/7
f 443/1/52 456/1/52 452/1/52
f 455/1/17 450/1/17 446/1/17
f 457/4/39 459/4/39 464/4/39
f 460/4/40 462/4/40 459/4/40
f 466/4/41 468/4/41 462/4/41
f 465/4/42 464/4/42 468/4/42
f 463/4/43 465/4/43 476/4/43
f 478/4/44 480/4/44 467/4/44
f 477/4/45 476/4/45 480/4/45
f 475/4/46 477/4/46 470/4/46
f 472/4/47 474/4/47 479/4/47
f 471/4/48 470/4/48 474/4/48
f 469/4/49 471/4/49 458/4/49
f 461/4/50 460/4/50 473/4/50
f 475/4/10 469/4/10 457/4/10
f 462/4/20 468/4/20 464/4/20
f 473/4/51 460/4/51 458/4/51
f 466/4/7 461/4/7 472/4/7
f 467/4/52 480/4/52 476/4/52
f 479/4/17 474/4/17 470/4/17
f 481/4/39 483/4/39 488/4/39
f 484/4/40 486/4/40 483/4/40
f 490/4/41 492/4/41 486/4/41
f 489/4/42 488/4/42 492/4/42
f 487/4/43 489/4/43 500/4/43
f 502/4/44 504/4/44 491/4/44
f 501/4/45 500/4/45 504/4/45
f 499/4/46 501/4/46 494/4/46
f 496/4/47 498/4/47 503/4/47
f 495/4/48 494/4/48 498/4/48
f 493/4/49 495/4/49 482/4/49
f 485/4/50 484/4/50 497/4/50
f 499/4/10 493/4/10 481/4/10
f 486/4/20 492/4/20 488/4/20
f 497/4/51 484/4/51 482/4/51
f 490/4/7 485/4/7 496/4/7
f 491/4/52 504/4/52 500/4/52
f 503/4/17 498/4/17 494/4/17
f 505/5/39 507/5/39 512/5/39
f 508/5/40 510/5/40 507/5/40
f 514/5/41 516/5/41 510/5/41
f 513/5/42 512/5/42 516/5/42
f 511/5/43 513/5/43 524/5/43
f 526/5/44 528/5/44 515/5/44
f 525/5/45 524/5/45 528/5/45
f 523/5/46 525/5/46 518/5/46
f 520/5/47 522/5/47 527/5/47
f 519/5/48 518/5/48 522/5/48
f 517/5/49 519/5/49 506/5/49
f 509/5/50 508/5/50 521/5/50
f 523/5/10 517/5/10 505/5/10
f 510/5/20 516/5/20 512/5/20
f 521/5/51 508/5/51 506/5/51
f 514/5/7 509/5/7 520/5/7
f 515/5/52 528/5/52 524/5/52
f 527/5/17 522/5/17 518/5/17
f 529/1/39 531/1/39 536/1/39
f 532/1/40 534/1/40 531/1/40
f 538/1/106 540/1/106 534/1/106
f 537/1/42 536/1/42 540/1/42
f 535/1/43 537/1/43 548/1/43
f 550/1/44 552/1/44 539/1/44
f 549/1/45 548/1/45 552/1/45
f 547/1/46 549/1/46 542/1/46
f 544/1/107 546/1/107 551/1/107
f 543/1/48 542/1/48 546/1/48
f 541/1/49 543/1/49 530/1/49
f 533/1/50 532/1/50 545/1/50
f 547/1/10 541/1/10 529/1/10
f 534/1/20 540/1/20 536/1/20
f 545/1/51 532/1/51 530/1/51
f 538/1/7 533/1/7 544/1/7
f 539/1/52 552/1/52 548/1/52
f 551/1/17 546/1/17 542/1/17
f 553/1/39 555/1/39 560/1/39
f 556/1/40 558/1/40 555/1/40
f 562/1/106 564/1/106 558/1/106
f 561/1/42 560/1/42 564/1/42
f 559/1/43 561/1/43 572/1/43
f 574/1/44 576/1/44 563/1/44
f 573/1/45 572/1/45 576/1/45
f 571/1/46 573/1/46 566/1/46
f 568/1/107 570/1/107 575/1/107
f 567/1/48 566/1/48 570/1/48
f 565/1/49 567/1/49 554/1/49
f 557/1/50 556/1/50 569/1/50
f 571/1/10 565/1/10 553/1/10
f 558/1/20 564/1/20 560/1/20
f 569/1/51 556/1/51 554/1/51
f 562/1/7 557/1/7 568/1/7
f 563/1/52 576/1/52 572/1/52
f 575/1/17 570/1/17 566/1/17
f 577/4/39 579/4/39 584/4/39
f 580/4/40 582/4/40 579/4/40
f 586/4/41 588/4/41 582/4/41
f 585/4/42 584/4/42 588/4/42
f 583/4/43 585/4/43 596/4/43
f 598/4/44 600/4/44 587/4/44
f 597/4/45 596/4/45 600/4/45
f 595/4/46 597/4/46 590/4/46
f 592/4/47 594/4/47 599/4/47
f 591/4/48 590/4/48 594/4/48
f 589/4/49 591/4/49 578/4/49
f 581/4/50 580/4/50 593/4/50
f 595/4/10 589/4/10 577/4/10
f 582/4/20 588/4/20 584/4/20
f 593/4/51 580/4/51 578/4/51
f 586/4/7 581/4/7 592/4/7
f 587/4/52 600/4/52 596/4/52
f 599/4/17 594/4/17 590/4/17
f 601/4/39 603/4/39 608/4/39
f 604/4/40 606/4/40 603/4/40
f 610/4/41 612/4/41 606/4/41
f 609/4/42 608/4/42 612/4/42
f 607/4/43 609/4/43 620/4/43
f 622/4/44 624/4/44 611/4/44
f 621/4/45 620/4/45 624/4/45
f 619/4/46 621/4/46 614/4/46
f 616/4/47 618/4/47 623/4/47
f 615/4/48 614/4/48 618/4/48
f 613/4/49 615/4/49 602/4/49
f 605/4/50 604/4/50 617/4/50
f 619/4/10 613/4/10 601/4/10
f 606/4/20 612/4/20 608/4/20
f 617/4/51 604/4/51 602/4/51
f 610/4/7 605/4/7 616/4/7
f 611/4/52 624/4/52 620/4/52
f 623/4/17 618/4/17 614/4/17
f 625/5/39 627/5/39 632/5/39
f 628/5/40 630/5/40 627/5/40
f 634/5/41 636/5/41 630/5/41
f 633/5/42 632/5/42 636/5/42
f 631/5/43 633/5/43 644/5/43
f 646/5/44 648/5/44 635/5/44
f 645/5/45 644/5/45 648/5/45
f 643/5/46 645/5/46 638/5/46
f 640/5/47 642/5/47 647/5/47
f 639/5/48 638/5/48 642/5/48
f 637/5/49 639/5/49 626/5/49
f 629/5/50 628/5/50 641/5/50
f 643/5/10 637/5/10 625/5/10
f 630/5/20 636/5/20 632/5/20
f 641/5/51 628/5/51 626/5/51
f 634/5/7 629/5/7 640/5/7
f 635/5/52 648/5/52 644/5/52
f 647/5/17 642/5/17 638/5/17
f 649/1/39 651/1/39 656/1/39
f 652/1/40 654/1/40 651/1/40
f 658/1/41 660/1/41 654/1/41
f 657/1/42 656/1/42 660/1/42
f 655/1/43 657/1/43 668/1/43
f 670/1/44 672/1/44 659/1/44
f 669/1/45 668/1/45 672/1/45
f 667/1/46 669/1/46 662/1/46
f 664/1/47 666/1/47 671/1/47
f 663/1/48 662/1/48 666/1/48
f 661/1/49 663/1/49 650/1/49
f 653/1/50 652/1/50 665/1/50
f 667/1/10 661/1/10 649/1/10
f 654/1/20 660/1/20 656/1/20
f 665/1/51 652/1/51 650/1/51
f 658/1/7 653/1/7 664/1/7
f 659/1/52 672/1/52 668/1/52
f 671/1/17 666/1/17 662/1/17
f 673/1/39 675/1/39 680/1/39
f 676/1/40 678/1/40 675/1/40
f 682/1/41 684/1/41 678/1/41
f 681/1/42 680/1/42 684/1/42
f 679/1/43 681/1/43 692/1/43
f 694/1/44 696/1/44 683/1/44
f 693/1/45 692/1/45 696/1/45
f 691/1/46 693/1/46 686/1/46
f 688/1/47 690/1/47 695/1/47
f 687/1/48 686/1/48 690/1/48
f 685/1/49 687/1/49 674/1/49
f 677/1/50 676/1/50 689/1/50
f 691/1/10 685/1/10 673/1/10
f 678/1/20 684/1/20 680/1/20
f 689/1/51 676/1/51 674/1/51
f 682/1/7 677/1/7 688/1/7
f 683/1/52 696/1/52 692/1/52
f 695/1/17 690/1/17 686/1/17
f 697/2/39 699/2/39 704/2/39
f 700/2/40 702/2/40 699/2/40
f 706/2/106 708/2/106 702/2/106
f 705/2/42 704/2/42 708/2/42
f 703/2/80 705/2/80 716/2/80
f 718/2/81 720/2/81 707/2/81
f 717/2/45 716/2/45 720/2/45
f 715/2/46 717/2/46 710/2/46
f 712/2/107 714/2/107 719/2/107
f 711/2/48 710/2/48 714/2/48
f 709/2/84 711/2/84 698/2/84
f 701/2/85 700/2/85 713/2/85
f 715/2/10 709/2/10 697/2/10
f 702/2/20 708/2/20 704/2/20
f 713/2/51 700/2/51 698/2/51
f 706/2/7 701/2/7 712/2/7
f 707/2/52 720/2/52 716/2/52
f 719/2/17 714/2/17 710/2/17
f 722/1/86 724/1/86 723/1/86
f 724/1/17 726/1/17 725/1/17
f 726/1/87 728/1/87 727/1/87
f 728/1/88 730/1/88 729/1/88
f 726/1/51 724/1/51 730/1/51
f 724/1/51 722/1/51 730/1/51
f 722/1/51 732/1/51 730/1/51
f 730/1/20 732/1/20 731/1/20
f 732/1/89 722/1/89 721/1/89
f 731/1/52 721/1/52 723/1/52
f 723/1/52 725/1/52 727/1/52
f 727/1/52 729/1/52 723/1/52
f 734/1/86 736/1/86 735/1/86
f 736/1/17 738/1/17 737/1/17
f 738/1/87 740/1/87 739/1/87
f 740/1/88 742/1/88 741/1/88
f 738/1/51 736/1/51 742/1/51
f 736/1/51 734/1/51 742/1/51
f 734/1/51 744/1/51 742/1/51
f 742/1/20 744/1/20 743/1/20
f 744/1/89 734/1/89 733/1/89
f 743/1/52 733/1/52 735/1/52
f 735/1/52 737/1/52 739/1/52
f 739/1/52 741/1/52 735/1/52
f 746/1/86 748/1/86 747/1/86
f 748/1/17 750/1/17 749/1/17
f 750/1/87 752/1/87 751/1/87
f 752/1/88 754/1/88 753/1/88
f 750/1/51 748/1/51 754/1/51
f 748/1/51 746/1/51 754/1/51
f 746/1/51 756/1/51 754/1/51
f 754/1/20 756/1/20 755/1/20
f 756/1/89 746/1/89 745/1/89
f 755/1/52 745/1/52 747/1/52
f 747/1/52 749/1/52 751/1/52
f 751/1/52 753/1/52 747/1/52
f 758/1/86 760/1/86 759/1/86
f 760/1/17 762/1/17 761/1/17
f 762/1/87 764/1/87 763/1/87
f 764/1/88 766/1/88 765/1/88
f 762/1/51 760/1/51 766/1/51
f 760/1/51 758/1/51 766/1/51
f 758/1/51 768/1/51 766/1/51
f 766/1/20 768/1/20 767/1/20
f 768/1/89 758/1/89 757/1/89
f 767/1/52 757/1/52 759/1/52
f 759/1/52 761/1/52 763/1/52
f 763/1/52 765/1/52 759/1/52
f 769/3/39 771/3/39 776/3/39
f 772/3/40 774/3/40 771/3/40
f 778/3/41 780/3/41 774/3/41
f 777/3/42 776/3/42 780/3/42
f 775/3/43 777/3/43 788/3/43
f 790/3/44 792/3/44 779/3/44
f 789/3/45 788/3/45 792/3/45
f 787/3/46 789/3/46 782/3/46
f 784/3/47 786/3/47 791/3/47
f 783/3/48 782/3/48 786/3/48
f 781/3/49 783/3/49 770/3/49
f 773/3/50 772/3/50 785/3/50
f 787/3/10 781/3/10 769/3/10
f 774/3/20 780/3/20 776/3/20
f 785/3/51 772/3/51 770/3/51
f 778/3/7 773/3/7 784/3/7
f 779/3/52 792/3/52 788/3/52
f 791/3/17 786/3/17 782/3/17
f 794/1/94 796/1/94 795/1/94
f 796/1/45 798/1/45 797/1/45
f 798/1/95 800/1/95 799/1/95
f 800/1/96 802/1/96 801/1/96
f 802/1/48 804/1/48 803/1/48
f 804/1/97 806/1/97 805/1/97
f 806/1/98 808/1/98 807/1/98
f 808/1/40 810/1/40 809/1/40
f 810/1/99 812/1/99 811/1/99
f 812/1/100 814/1/100 813/1/100
f 798/1/7 796/1/7 794/1/7
f 794/1/7 816/1/7 798/1/7
f 816/1/7 814/1/7 798/1/7
f 814/1/7 812/1/7 810/1/7
f 810/1/7 808/1/7 814/1/7
f 808/1/108 806/1/108 814/1/108
f 806/1/109 804/1/109 798/1/109
f 804/1/7 802/1/7 798/1/7
f 802/1/7 800/1/7 798/1/7
f 814/1/42 816/1/42 815/1/42
f 816/1/101 794/1/101 793/1/101
f 815/1/10 793/1/10 795/1/10
f 795/1/110 797/1/110 799/1/110
f 799/1/110 801/1/110 803/1/110
f 803/1/10 805/1/10 807/1/10
f 807/1/111 809/1/111 811/1/111
f 811/1/111 813/1/111 815/1/111
f 815/1/10 795/1/10 807/1/10
f 795/1/10 799/1/10 807/1/10
f 799/1/10 803/1/10 807/1/10
