# Blender 5.2.1 LTS
# www.blender.org
mtllib detail_water_tower.mtl
o detail_water_tower
v 0.530000 0.150000 1.815000
v 0.530000 6.700000 1.815000
v 0.554749 0.150000 1.825251
v 0.554749 6.700000 1.825251
v 0.565000 0.150000 1.850000
v 0.565000 6.700000 1.850000
v 0.554749 0.150000 1.874749
v 0.554749 6.700000 1.874749
v 0.530000 0.150000 1.885000
v 0.530000 6.700000 1.885000
v 0.505251 0.150000 1.874749
v 0.505251 6.700000 1.874749
v 0.495000 0.150000 1.850000
v 0.495000 6.700000 1.850000
v 0.505251 0.150000 1.825251
v 0.505251 6.700000 1.825251
v 1.170000 0.150000 1.815000
v 1.170000 6.700000 1.815000
v 1.194749 0.150000 1.825251
v 1.194749 6.700000 1.825251
v 1.205000 0.150000 1.850000
v 1.205000 6.700000 1.850000
v 1.194749 0.150000 1.874749
v 1.194749 6.700000 1.874749
v 1.170000 0.150000 1.885000
v 1.170000 6.700000 1.885000
v 1.145251 0.150000 1.874749
v 1.145251 6.700000 1.874749
v 1.135000 0.150000 1.850000
v 1.135000 6.700000 1.850000
v 1.145251 0.150000 1.825251
v 1.145251 6.700000 1.825251
v 0.530000 0.200000 1.822000
v 1.170000 0.200000 1.822000
v 0.530000 0.180201 1.830201
v 1.170000 0.180201 1.830201
v 0.530000 0.172000 1.850000
v 1.170000 0.172000 1.850000
v 0.530000 0.180201 1.869799
v 1.170000 0.180201 1.869799
v 0.530000 0.200000 1.878000
v 1.170000 0.200000 1.878000
v 0.530000 0.219799 1.869799
v 1.170000 0.219799 1.869799
v 0.530000 0.228000 1.850000
v 1.170000 0.228000 1.850000
v 0.530000 0.219799 1.830201
v 1.170000 0.219799 1.830201
v 0.530000 0.500000 1.822000
v 1.170000 0.500000 1.822000
v 0.530000 0.480201 1.830201
v 1.170000 0.480201 1.830201
v 0.530000 0.472000 1.850000
v 1.170000 0.472000 1.850000
v 0.530000 0.480201 1.869799
v 1.170000 0.480201 1.869799
v 0.530000 0.500000 1.878000
v 1.170000 0.500000 1.878000
v 0.530000 0.519799 1.869799
v 1.170000 0.519799 1.869799
v 0.530000 0.528000 1.850000
v 1.170000 0.528000 1.850000
v 0.530000 0.519799 1.830201
v 1.170000 0.519799 1.830201
v 0.530000 0.800000 1.822000
v 1.170000 0.800000 1.822000
v 0.530000 0.780201 1.830201
v 1.170000 0.780201 1.830201
v 0.530000 0.772000 1.850000
v 1.170000 0.772000 1.850000
v 0.530000 0.780201 1.869799
v 1.170000 0.780201 1.869799
v 0.530000 0.800000 1.878000
v 1.170000 0.800000 1.878000
v 0.530000 0.819799 1.869799
v 1.170000 0.819799 1.869799
v 0.530000 0.828000 1.850000
v 1.170000 0.828000 1.850000
v 0.530000 0.819799 1.830201
v 1.170000 0.819799 1.830201
v 0.530000 1.100000 1.822000
v 1.170000 1.100000 1.822000
v 0.530000 1.080201 1.830201
v 1.170000 1.080201 1.830201
v 0.530000 1.072000 1.850000
v 1.170000 1.072000 1.850000
v 0.530000 1.080201 1.869799
v 1.170000 1.080201 1.869799
v 0.530000 1.100000 1.878000
v 1.170000 1.100000 1.878000
v 0.530000 1.119799 1.869799
v 1.170000 1.119799 1.869799
v 0.530000 1.128000 1.850000
v 1.170000 1.128000 1.850000
v 0.530000 1.119799 1.830201
v 1.170000 1.119799 1.830201
v 0.530000 1.400000 1.822000
v 1.170000 1.400000 1.822000
v 0.530000 1.380201 1.830201
v 1.170000 1.380201 1.830201
v 0.530000 1.372000 1.850000
v 1.170000 1.372000 1.850000
v 0.530000 1.380201 1.869799
v 1.170000 1.380201 1.869799
v 0.530000 1.400000 1.878000
v 1.170000 1.400000 1.878000
v 0.530000 1.419799 1.869799
v 1.170000 1.419799 1.869799
v 0.530000 1.428000 1.850000
v 1.170000 1.428000 1.850000
v 0.530000 1.419799 1.830201
v 1.170000 1.419799 1.830201
v 0.530000 1.700000 1.822000
v 1.170000 1.700000 1.822000
v 0.530000 1.680201 1.830201
v 1.170000 1.680201 1.830201
v 0.530000 1.672000 1.850000
v 1.170000 1.672000 1.850000
v 0.530000 1.680201 1.869799
v 1.170000 1.680201 1.869799
v 0.530000 1.700000 1.878000
v 1.170000 1.700000 1.878000
v 0.530000 1.719799 1.869799
v 1.170000 1.719799 1.869799
v 0.530000 1.728000 1.850000
v 1.170000 1.728000 1.850000
v 0.530000 1.719799 1.830201
v 1.170000 1.719799 1.830201
v 0.530000 2.000000 1.822000
v 1.170000 2.000000 1.822000
v 0.530000 1.980201 1.830201
v 1.170000 1.980201 1.830201
v 0.530000 1.972000 1.850000
v 1.170000 1.972000 1.850000
v 0.530000 1.980201 1.869799
v 1.170000 1.980201 1.869799
v 0.530000 2.000000 1.878000
v 1.170000 2.000000 1.878000
v 0.530000 2.019799 1.869799
v 1.170000 2.019799 1.869799
v 0.530000 2.028000 1.850000
v 1.170000 2.028000 1.850000
v 0.530000 2.019799 1.830201
v 1.170000 2.019799 1.830201
v 0.530000 2.300000 1.822000
v 1.170000 2.300000 1.822000
v 0.530000 2.280201 1.830201
v 1.170000 2.280201 1.830201
v 0.530000 2.272000 1.850000
v 1.170000 2.272000 1.850000
v 0.530000 2.280201 1.869799
v 1.170000 2.280201 1.869799
v 0.530000 2.300000 1.878000
v 1.170000 2.300000 1.878000
v 0.530000 2.319799 1.869799
v 1.170000 2.319799 1.869799
v 0.530000 2.328000 1.850000
v 1.170000 2.328000 1.850000
v 0.530000 2.319799 1.830201
v 1.170000 2.319799 1.830201
v 0.530000 2.600000 1.822000
v 1.170000 2.600000 1.822000
v 0.530000 2.580201 1.830201
v 1.170000 2.580201 1.830201
v 0.530000 2.572000 1.850000
v 1.170000 2.572000 1.850000
v 0.530000 2.580201 1.869799
v 1.170000 2.580201 1.869799
v 0.530000 2.600000 1.878000
v 1.170000 2.600000 1.878000
v 0.530000 2.619799 1.869799
v 1.170000 2.619799 1.869799
v 0.530000 2.628000 1.850000
v 1.170000 2.628000 1.850000
v 0.530000 2.619799 1.830201
v 1.170000 2.619799 1.830201
v 0.530000 2.900000 1.822000
v 1.170000 2.900000 1.822000
v 0.530000 2.880201 1.830201
v 1.170000 2.880201 1.830201
v 0.530000 2.872000 1.850000
v 1.170000 2.872000 1.850000
v 0.530000 2.880201 1.869799
v 1.170000 2.880201 1.869799
v 0.530000 2.900000 1.878000
v 1.170000 2.900000 1.878000
v 0.530000 2.919799 1.869799
v 1.170000 2.919799 1.869799
v 0.530000 2.928000 1.850000
v 1.170000 2.928000 1.850000
v 0.530000 2.919799 1.830201
v 1.170000 2.919799 1.830201
v 0.530000 3.200000 1.822000
v 1.170000 3.200000 1.822000
v 0.530000 3.180201 1.830201
v 1.170000 3.180201 1.830201
v 0.530000 3.172000 1.850000
v 1.170000 3.172000 1.850000
v 0.530000 3.180201 1.869799
v 1.170000 3.180201 1.869799
v 0.530000 3.200000 1.878000
v 1.170000 3.200000 1.878000
v 0.530000 3.219799 1.869799
v 1.170000 3.219799 1.869799
v 0.530000 3.228000 1.850000
v 1.170000 3.228000 1.850000
v 0.530000 3.219799 1.830201
v 1.170000 3.219799 1.830201
v 0.530000 3.500000 1.822000
v 1.170000 3.500000 1.822000
v 0.530000 3.480201 1.830201
v 1.170000 3.480201 1.830201
v 0.530000 3.472000 1.850000
v 1.170000 3.472000 1.850000
v 0.530000 3.480201 1.869799
v 1.170000 3.480201 1.869799
v 0.530000 3.500000 1.878000
v 1.170000 3.500000 1.878000
v 0.530000 3.519799 1.869799
v 1.170000 3.519799 1.869799
v 0.530000 3.528000 1.850000
v 1.170000 3.528000 1.850000
v 0.530000 3.519799 1.830201
v 1.170000 3.519799 1.830201
v 0.530000 3.800000 1.822000
v 1.170000 3.800000 1.822000
v 0.530000 3.780201 1.830201
v 1.170000 3.780201 1.830201
v 0.530000 3.772000 1.850000
v 1.170000 3.772000 1.850000
v 0.530000 3.780201 1.869799
v 1.170000 3.780201 1.869799
v 0.530000 3.800000 1.878000
v 1.170000 3.800000 1.878000
v 0.530000 3.819799 1.869799
v 1.170000 3.819799 1.869799
v 0.530000 3.828000 1.850000
v 1.170000 3.828000 1.850000
v 0.530000 3.819799 1.830201
v 1.170000 3.819799 1.830201
v 0.530000 4.100000 1.822000
v 1.170000 4.100000 1.822000
v 0.530000 4.080201 1.830201
v 1.170000 4.080201 1.830201
v 0.530000 4.072000 1.850000
v 1.170000 4.072000 1.850000
v 0.530000 4.080201 1.869799
v 1.170000 4.080201 1.869799
v 0.530000 4.100000 1.878000
v 1.170000 4.100000 1.878000
v 0.530000 4.119799 1.869799
v 1.170000 4.119799 1.869799
v 0.530000 4.128000 1.850000
v 1.170000 4.128000 1.850000
v 0.530000 4.119799 1.830201
v 1.170000 4.119799 1.830201
v 0.530000 4.400000 1.822000
v 1.170000 4.400000 1.822000
v 0.530000 4.380201 1.830201
v 1.170000 4.380201 1.830201
v 0.530000 4.372000 1.850000
v 1.170000 4.372000 1.850000
v 0.530000 4.380201 1.869799
v 1.170000 4.380201 1.869799
v 0.530000 4.400000 1.878000
v 1.170000 4.400000 1.878000
v 0.530000 4.419799 1.869799
v 1.170000 4.419799 1.869799
v 0.530000 4.428000 1.850000
v 1.170000 4.428000 1.850000
v 0.530000 4.419799 1.830201
v 1.170000 4.419799 1.830201
v 0.530000 4.700000 1.822000
v 1.170000 4.700000 1.822000
v 0.530000 4.680201 1.830201
v 1.170000 4.680201 1.830201
v 0.530000 4.672000 1.850000
v 1.170000 4.672000 1.850000
v 0.530000 4.680201 1.869799
v 1.170000 4.680201 1.869799
v 0.530000 4.700000 1.878000
v 1.170000 4.700000 1.878000
v 0.530000 4.719799 1.869799
v 1.170000 4.719799 1.869799
v 0.530000 4.728000 1.850000
v 1.170000 4.728000 1.850000
v 0.530000 4.719799 1.830201
v 1.170000 4.719799 1.830201
v 0.530000 5.000000 1.822000
v 1.170000 5.000000 1.822000
v 0.530000 4.980201 1.830201
v 1.170000 4.980201 1.830201
v 0.530000 4.972000 1.850000
v 1.170000 4.972000 1.850000
v 0.530000 4.980201 1.869799
v 1.170000 4.980201 1.869799
v 0.530000 5.000000 1.878000
v 1.170000 5.000000 1.878000
v 0.530000 5.019799 1.869799
v 1.170000 5.019799 1.869799
v 0.530000 5.028000 1.850000
v 1.170000 5.028000 1.850000
v 0.530000 5.019799 1.830201
v 1.170000 5.019799 1.830201
v 0.530000 5.300000 1.822000
v 1.170000 5.300000 1.822000
v 0.530000 5.280201 1.830201
v 1.170000 5.280201 1.830201
v 0.530000 5.272000 1.850000
v 1.170000 5.272000 1.850000
v 0.530000 5.280201 1.869799
v 1.170000 5.280201 1.869799
v 0.530000 5.300000 1.878000
v 1.170000 5.300000 1.878000
v 0.530000 5.319799 1.869799
v 1.170000 5.319799 1.869799
v 0.530000 5.328000 1.850000
v 1.170000 5.328000 1.850000
v 0.530000 5.319799 1.830201
v 1.170000 5.319799 1.830201
v 0.530000 5.600000 1.822000
v 1.170000 5.600000 1.822000
v 0.530000 5.580201 1.830201
v 1.170000 5.580201 1.830201
v 0.530000 5.572000 1.850000
v 1.170000 5.572000 1.850000
v 0.530000 5.580201 1.869799
v 1.170000 5.580201 1.869799
v 0.530000 5.600000 1.878000
v 1.170000 5.600000 1.878000
v 0.530000 5.619799 1.869799
v 1.170000 5.619799 1.869799
v 0.530000 5.628000 1.850000
v 1.170000 5.628000 1.850000
v 0.530000 5.619799 1.830201
v 1.170000 5.619799 1.830201
v 0.530000 5.900000 1.822000
v 1.170000 5.900000 1.822000
v 0.530000 5.880201 1.830201
v 1.170000 5.880201 1.830201
v 0.530000 5.872000 1.850000
v 1.170000 5.872000 1.850000
v 0.530000 5.880201 1.869799
v 1.170000 5.880201 1.869799
v 0.530000 5.900000 1.878000
v 1.170000 5.900000 1.878000
v 0.530000 5.919799 1.869799
v 1.170000 5.919799 1.869799
v 0.530000 5.928000 1.850000
v 1.170000 5.928000 1.850000
v 0.530000 5.919799 1.830201
v 1.170000 5.919799 1.830201
v 0.530000 6.200000 1.822000
v 1.170000 6.200000 1.822000
v 0.530000 6.180201 1.830201
v 1.170000 6.180201 1.830201
v 0.530000 6.172000 1.850000
v 1.170000 6.172000 1.850000
v 0.530000 6.180201 1.869799
v 1.170000 6.180201 1.869799
v 0.530000 6.200000 1.878000
v 1.170000 6.200000 1.878000
v 0.530000 6.219799 1.869799
v 1.170000 6.219799 1.869799
v 0.530000 6.228000 1.850000
v 1.170000 6.228000 1.850000
v 0.530000 6.219799 1.830201
v 1.170000 6.219799 1.830201
v 0.530000 6.500000 1.822000
v 1.170000 6.500000 1.822000
v 0.530000 6.480201 1.830201
v 1.170000 6.480201 1.830201
v 0.530000 6.472000 1.850000
v 1.170000 6.472000 1.850000
v 0.530000 6.480201 1.869799
v 1.170000 6.480201 1.869799
v 0.530000 6.500000 1.878000
v 1.170000 6.500000 1.878000
v 0.530000 6.519799 1.869799
v 1.170000 6.519799 1.869799
v 0.530000 6.528000 1.850000
v 1.170000 6.528000 1.850000
v 0.530000 6.519799 1.830201
v 1.170000 6.519799 1.830201
v -1.150000 0.232519 -1.181105
v -1.150000 2.432519 1.118895
v -1.118180 0.222994 -1.171995
v -1.118180 2.422994 1.128005
v -1.105000 0.200000 -1.150000
v -1.105000 2.400000 1.150000
v -1.118180 0.177006 -1.128005
v -1.118180 2.377006 1.171994
v -1.150000 0.167481 -1.118895
v -1.150000 2.367481 1.181105
v -1.181820 0.177006 -1.128005
v -1.181820 2.377006 1.171994
v -1.195000 0.200000 -1.150000
v -1.195000 2.400000 1.150000
v -1.181820 0.222994 -1.171995
v -1.181820 2.422994 1.128005
v 1.150000 0.232519 -1.181105
v 1.150000 2.432519 1.118895
v 1.181820 0.222994 -1.171995
v 1.181820 2.422994 1.128005
v 1.195000 0.200000 -1.150000
v 1.195000 2.400000 1.150000
v 1.181820 0.177006 -1.128005
v 1.181820 2.377006 1.171994
v 1.150000 0.167481 -1.118895
v 1.150000 2.367481 1.181105
v 1.118180 0.177006 -1.128005
v 1.118180 2.377006 1.171994
v 1.105000 0.200000 -1.150000
v 1.105000 2.400000 1.150000
v 1.118180 0.222994 -1.171995
v 1.118180 2.422994 1.128005
v -1.150000 1.632519 -1.181105
v -1.150000 3.832519 1.118895
v -1.118180 1.622994 -1.171995
v -1.118180 3.822994 1.128005
v -1.105000 1.600000 -1.150000
v -1.105000 3.800000 1.150000
v -1.118180 1.577006 -1.128005
v -1.118180 3.777006 1.171994
v -1.150000 1.567481 -1.118895
v -1.150000 3.767481 1.181105
v -1.181820 1.577006 -1.128005
v -1.181820 3.777006 1.171994
v -1.195000 1.600000 -1.150000
v -1.195000 3.800000 1.150000
v -1.181820 1.622994 -1.171995
v -1.181820 3.822994 1.128005
v 1.150000 1.632519 -1.181105
v 1.150000 3.832519 1.118895
v 1.181820 1.622994 -1.171995
v 1.181820 3.822994 1.128005
v 1.195000 1.600000 -1.150000
v 1.195000 3.800000 1.150000
v 1.181820 1.577006 -1.128005
v 1.181820 3.777006 1.171994
v 1.150000 1.567481 -1.118895
v 1.150000 3.767481 1.181105
v 1.118180 1.577006 -1.128005
v 1.118180 3.777006 1.171994
v 1.105000 1.600000 -1.150000
v 1.105000 3.800000 1.150000
v 1.118180 1.622994 -1.171995
v 1.118180 3.822994 1.128005
v -1.150000 3.032519 -1.181105
v -1.150000 5.232519 1.118895
v -1.118180 3.022994 -1.171995
v -1.118180 5.222994 1.128005
v -1.105000 3.000000 -1.150000
v -1.105000 5.200000 1.150000
v -1.118180 2.977005 -1.128005
v -1.118180 5.177006 1.171994
v -1.150000 2.967481 -1.118895
v -1.150000 5.167481 1.181105
v -1.181820 2.977005 -1.128005
v -1.181820 5.177006 1.171994
v -1.195000 3.000000 -1.150000
v -1.195000 5.200000 1.150000
v -1.181820 3.022994 -1.171995
v -1.181820 5.222994 1.128005
v 1.150000 3.032519 -1.181105
v 1.150000 5.232519 1.118895
v 1.181820 3.022994 -1.171995
v 1.181820 5.222994 1.128005
v 1.195000 3.000000 -1.150000
v 1.195000 5.200000 1.150000
v 1.181820 2.977005 -1.128005
v 1.181820 5.177006 1.171994
v 1.150000 2.967481 -1.118895
v 1.150000 5.167481 1.181105
v 1.118180 2.977005 -1.128005
v 1.118180 5.177006 1.171994
v 1.105000 3.000000 -1.150000
v 1.105000 5.200000 1.150000
v 1.118180 3.022994 -1.171995
v 1.118180 5.222994 1.128005
v 1.500000 0.150000 -0.100000
v 1.500000 5.500000 -0.100000
v 1.570711 0.150000 -0.070711
v 1.570711 5.500000 -0.070711
v 1.600000 0.150000 0.000000
v 1.600000 5.500000 0.000000
v 1.570711 0.150000 0.070711
v 1.570711 5.500000 0.070711
v 1.500000 0.150000 0.100000
v 1.500000 5.500000 0.100000
v 1.429289 0.150000 0.070711
v 1.429289 5.500000 0.070711
v 1.400000 0.150000 0.000000
v 1.400000 5.500000 0.000000
v 1.429289 0.150000 -0.070711
v 1.429289 5.500000 -0.070711
v 1.520000 1.340000 0.120000
v 1.520000 1.340000 0.160000
v 1.640000 1.307846 0.120000
v 1.640000 1.307846 0.160000
v 1.727846 1.220000 0.120000
v 1.727846 1.220000 0.160000
v 1.760000 1.100000 0.120000
v 1.760000 1.100000 0.160000
v 1.727846 0.980000 0.120000
v 1.727846 0.980000 0.160000
v 1.640000 0.892154 0.120000
v 1.640000 0.892154 0.160000
v 1.520000 0.860000 0.120000
v 1.520000 0.860000 0.160000
v 1.400000 0.892154 0.120000
v 1.400000 0.892154 0.160000
v 1.312154 0.980000 0.120000
v 1.312154 0.980000 0.160000
v 1.280000 1.100000 0.120000
v 1.280000 1.100000 0.160000
v 1.312154 1.220000 0.120000
v 1.312154 1.220000 0.160000
v 1.400000 1.307846 0.120000
v 1.400000 1.307846 0.160000
vn 0.3827 -0.0000 -0.9239
vn 0.9239 -0.0000 -0.3827
vn 0.9239 -0.0000 0.3827
vn 0.3827 -0.0000 0.9239
vn -0.3827 -0.0000 0.9239
vn -0.9239 -0.0000 0.3827
vn -0.0000 1.0000 -0.0000
vn -0.9239 -0.0000 -0.3827
vn -0.3827 -0.0000 -0.9239
vn -0.0000 -1.0000 -0.0000
vn -0.0000 -0.3827 -0.9239
vn -0.0000 -0.9239 -0.3827
vn -0.0000 -0.9239 0.3827
vn -0.0000 -0.3827 0.9239
vn -0.0000 0.3827 0.9239
vn -0.0000 0.9239 0.3827
vn 1.0000 -0.0000 -0.0000
vn -0.0000 0.9239 -0.3827
vn -0.0000 0.3827 -0.9239
vn -1.0000 -0.0000 -0.0000
vn 0.3827 0.6676 -0.6386
vn 0.9239 0.2765 -0.2645
vn 0.9239 -0.2765 0.2645
vn 0.3827 -0.6676 0.6386
vn -0.3827 -0.6676 0.6386
vn -0.9239 -0.2765 0.2645
vn -0.0000 0.6912 0.7226
vn -0.9239 0.2765 -0.2645
vn -0.3827 0.6676 -0.6386
vn -0.0000 -0.6912 -0.7226
vn 0.2588 0.9659 -0.0000
vn 0.7071 0.7071 -0.0000
vn 0.9659 0.2588 -0.0000
vn 0.9659 -0.2588 -0.0000
vn 0.7071 -0.7071 -0.0000
vn 0.2588 -0.9659 -0.0000
vn -0.2588 -0.9659 -0.0000
vn -0.7071 -0.7071 -0.0000
vn -0.9659 -0.2588 -0.0000
vn -0.9659 0.2588 -0.0000
vn -0.0000 -0.0000 1.0000
vn -0.7071 0.7071 -0.0000
vn -0.2588 0.9659 -0.0000
vn -0.0000 -0.0000 -1.0000
vn 0.0001 1.0000 -0.0000
vn -0.0001 1.0000 -0.0000
vn -0.0000 0.6912 0.7227
vn -0.0001 0.6912 0.7226
vn 0.0001 0.6912 0.7226
vn 0.0001 0.6912 0.7227
vt 0.125000 0.625000
vt 0.375000 0.875000
vt 0.625000 0.625000
s 0
usemtl WorldPickupPalette
f 2/1/1 3/1/1 1/1/1
f 4/1/2 5/1/2 3/1/2
f 6/1/3 7/1/3 5/1/3
f 8/1/4 9/1/4 7/1/4
f 10/1/5 11/1/5 9/1/5
f 12/1/6 13/1/6 11/1/6
f 2/1/7 14/1/7 10/1/7
f 14/1/8 15/1/8 13/1/8
f 16/1/9 1/1/9 15/1/9
f 7/1/10 11/1/10 15/1/10
f 18/1/1 19/1/1 17/1/1
f 20/1/2 21/1/2 19/1/2
f 22/1/3 23/1/3 21/1/3
f 24/1/4 25/1/4 23/1/4
f 26/1/5 27/1/5 25/1/5
f 28/1/6 29/1/6 27/1/6
f 24/1/7 22/1/7 30/1/7
f 30/1/8 31/1/8 29/1/8
f 32/1/9 17/1/9 31/1/9
f 23/1/10 27/1/10 31/1/10
f 34/2/11 35/2/11 33/2/11
f 36/2/12 37/2/12 35/2/12
f 38/2/13 39/2/13 37/2/13
f 40/2/14 41/2/14 39/2/14
f 42/2/15 43/2/15 41/2/15
f 44/2/16 45/2/16 43/2/16
f 42/2/17 40/2/17 38/2/17
f 46/2/18 47/2/18 45/2/18
f 48/2/19 33/2/19 47/2/19
f 45/2/20 47/2/20 39/2/20
f 50/2/11 51/2/11 49/2/11
f 52/2/12 53/2/12 51/2/12
f 54/2/13 55/2/13 53/2/13
f 56/2/14 57/2/14 55/2/14
f 58/2/15 59/2/15 57/2/15
f 60/2/16 61/2/16 59/2/16
f 58/2/17 56/2/17 54/2/17
f 62/2/18 63/2/18 61/2/18
f 64/2/19 49/2/19 63/2/19
f 61/2/20 63/2/20 55/2/20
f 66/2/11 67/2/11 65/2/11
f 68/2/12 69/2/12 67/2/12
f 70/2/13 71/2/13 69/2/13
f 72/2/14 73/2/14 71/2/14
f 74/2/15 75/2/15 73/2/15
f 76/2/16 77/2/16 75/2/16
f 74/2/17 72/2/17 70/2/17
f 78/2/18 79/2/18 77/2/18
f 80/2/19 65/2/19 79/2/19
f 77/2/20 79/2/20 71/2/20
f 82/2/11 83/2/11 81/2/11
f 84/2/12 85/2/12 83/2/12
f 86/2/13 87/2/13 85/2/13
f 88/2/14 89/2/14 87/2/14
f 90/2/15 91/2/15 89/2/15
f 92/2/16 93/2/16 91/2/16
f 90/2/17 88/2/17 86/2/17
f 94/2/18 95/2/18 93/2/18
f 96/2/19 81/2/19 95/2/19
f 93/2/20 95/2/20 87/2/20
f 98/2/11 99/2/11 97/2/11
f 100/2/12 101/2/12 99/2/12
f 102/2/13 103/2/13 101/2/13
f 104/2/14 105/2/14 103/2/14
f 106/2/15 107/2/15 105/2/15
f 108/2/16 109/2/16 107/2/16
f 106/2/17 104/2/17 102/2/17
f 110/2/18 111/2/18 109/2/18
f 112/2/19 97/2/19 111/2/19
f 109/2/20 111/2/20 103/2/20
f 114/2/11 115/2/11 113/2/11
f 116/2/12 117/2/12 115/2/12
f 118/2/13 119/2/13 117/2/13
f 120/2/14 121/2/14 119/2/14
f 122/2/15 123/2/15 121/2/15
f 124/2/16 125/2/16 123/2/16
f 126/2/17 122/2/17 118/2/17
f 126/2/18 127/2/18 125/2/18
f 128/2/19 113/2/19 127/2/19
f 125/2/20 127/2/20 119/2/20
f 130/2/11 131/2/11 129/2/11
f 132/2/12 133/2/12 131/2/12
f 134/2/13 135/2/13 133/2/13
f 136/2/14 137/2/14 135/2/14
f 138/2/15 139/2/15 137/2/15
f 140/2/16 141/2/16 139/2/16
f 136/2/17 134/2/17 142/2/17
f 142/2/18 143/2/18 141/2/18
f 144/2/19 129/2/19 143/2/19
f 141/2/20 143/2/20 135/2/20
f 146/2/11 147/2/11 145/2/11
f 148/2/12 149/2/12 147/2/12
f 150/2/13 151/2/13 149/2/13
f 152/2/14 153/2/14 151/2/14
f 154/2/15 155/2/15 153/2/15
f 156/2/16 157/2/16 155/2/16
f 146/2/17 158/2/17 154/2/17
f 158/2/18 159/2/18 157/2/18
f 160/2/19 145/2/19 159/2/19
f 155/2/20 157/2/20 159/2/20
f 162/2/11 163/2/11 161/2/11
f 164/2/12 165/2/12 163/2/12
f 166/2/13 167/2/13 165/2/13
f 168/2/14 169/2/14 167/2/14
f 170/2/15 171/2/15 169/2/15
f 172/2/16 173/2/16 171/2/16
f 174/2/17 170/2/17 166/2/17
f 174/2/18 175/2/18 173/2/18
f 176/2/19 161/2/19 175/2/19
f 173/2/20 175/2/20 167/2/20
f 178/2/11 179/2/11 177/2/11
f 180/2/12 181/2/12 179/2/12
f 182/2/13 183/2/13 181/2/13
f 184/2/14 185/2/14 183/2/14
f 186/2/15 187/2/15 185/2/15
f 188/2/16 189/2/16 187/2/16
f 190/2/17 186/2/17 182/2/17
f 190/2/18 191/2/18 189/2/18
f 192/2/19 177/2/19 191/2/19
f 189/2/20 191/2/20 183/2/20
f 194/2/11 195/2/11 193/2/11
f 196/2/12 197/2/12 195/2/12
f 198/2/13 199/2/13 197/2/13
f 200/2/14 201/2/14 199/2/14
f 202/2/15 203/2/15 201/2/15
f 204/2/16 205/2/16 203/2/16
f 194/2/17 206/2/17 202/2/17
f 206/2/18 207/2/18 205/2/18
f 208/2/19 193/2/19 207/2/19
f 203/2/20 205/2/20 207/2/20
f 210/2/11 211/2/11 209/2/11
f 212/2/12 213/2/12 211/2/12
f 214/2/13 215/2/13 213/2/13
f 216/2/14 217/2/14 215/2/14
f 218/2/15 219/2/15 217/2/15
f 220/2/16 221/2/16 219/2/16
f 218/2/17 216/2/17 214/2/17
f 222/2/18 223/2/18 221/2/18
f 224/2/19 209/2/19 223/2/19
f 221/2/20 223/2/20 215/2/20
f 226/2/11 227/2/11 225/2/11
f 228/2/12 229/2/12 227/2/12
f 230/2/13 231/2/13 229/2/13
f 232/2/14 233/2/14 231/2/14
f 234/2/15 235/2/15 233/2/15
f 236/2/16 237/2/16 235/2/16
f 226/2/17 238/2/17 234/2/17
f 238/2/18 239/2/18 237/2/18
f 240/2/19 225/2/19 239/2/19
f 235/2/20 237/2/20 239/2/20
f 242/2/11 243/2/11 241/2/11
f 244/2/12 245/2/12 243/2/12
f 246/2/13 247/2/13 245/2/13
f 248/2/14 249/2/14 247/2/14
f 250/2/15 251/2/15 249/2/15
f 252/2/16 253/2/16 251/2/16
f 248/2/17 246/2/17 254/2/17
f 254/2/18 255/2/18 253/2/18
f 256/2/19 241/2/19 255/2/19
f 247/2/20 251/2/20 255/2/20
f 258/2/11 259/2/11 257/2/11
f 260/2/12 261/2/12 259/2/12
f 262/2/13 263/2/13 261/2/13
f 264/2/14 265/2/14 263/2/14
f 266/2/15 267/2/15 265/2/15
f 268/2/16 269/2/16 267/2/16
f 264/2/17 262/2/17 270/2/17
f 270/2/18 271/2/18 269/2/18
f 272/2/19 257/2/19 271/2/19
f 263/2/20 267/2/20 271/2/20
f 274/2/11 275/2/11 273/2/11
f 276/2/12 277/2/12 275/2/12
f 278/2/13 279/2/13 277/2/13
f 280/2/14 281/2/14 279/2/14
f 282/2/15 283/2/15 281/2/15
f 284/2/16 285/2/16 283/2/16
f 286/2/17 282/2/17 278/2/17
f 286/2/18 287/2/18 285/2/18
f 288/2/19 273/2/19 287/2/19
f 285/2/20 287/2/20 279/2/20
f 290/2/11 291/2/11 289/2/11
f 292/2/12 293/2/12 291/2/12
f 294/2/13 295/2/13 293/2/13
f 296/2/14 297/2/14 295/2/14
f 298/2/15 299/2/15 297/2/15
f 300/2/16 301/2/16 299/2/16
f 302/2/17 298/2/17 294/2/17
f 302/2/18 303/2/18 301/2/18
f 304/2/19 289/2/19 303/2/19
f 301/2/20 303/2/20 295/2/20
f 306/2/11 307/2/11 305/2/11
f 308/2/12 309/2/12 307/2/12
f 310/2/13 311/2/13 309/2/13
f 312/2/14 313/2/14 311/2/14
f 314/2/15 315/2/15 313/2/15
f 316/2/16 317/2/16 315/2/16
f 318/2/17 314/2/17 310/2/17
f 318/2/18 319/2/18 317/2/18
f 320/2/19 305/2/19 319/2/19
f 317/2/20 319/2/20 311/2/20
f 322/2/11 323/2/11 321/2/11
f 324/2/12 325/2/12 323/2/12
f 326/2/13 327/2/13 325/2/13
f 328/2/14 329/2/14 327/2/14
f 330/2/15 331/2/15 329/2/15
f 332/2/16 333/2/16 331/2/16
f 330/2/17 328/2/17 326/2/17
f 334/2/18 335/2/18 333/2/18
f 336/2/19 321/2/19 335/2/19
f 327/2/20 331/2/20 335/2/20
f 338/2/11 339/2/11 337/2/11
f 340/2/12 341/2/12 339/2/12
f 342/2/13 343/2/13 341/2/13
f 344/2/14 345/2/14 343/2/14
f 346/2/15 347/2/15 345/2/15
f 348/2/16 349/2/16 347/2/16
f 346/2/17 344/2/17 342/2/17
f 350/2/18 351/2/18 349/2/18
f 352/2/19 337/2/19 351/2/19
f 343/2/20 347/2/20 351/2/20
f 354/2/11 355/2/11 353/2/11
f 356/2/12 357/2/12 355/2/12
f 358/2/13 359/2/13 357/2/13
f 360/2/14 361/2/14 359/2/14
f 362/2/15 363/2/15 361/2/15
f 364/2/16 365/2/16 363/2/16
f 366/2/17 362/2/17 358/2/17
f 366/2/18 367/2/18 365/2/18
f 368/2/19 353/2/19 367/2/19
f 365/2/20 367/2/20 359/2/20
f 370/2/11 371/2/11 369/2/11
f 372/2/12 373/2/12 371/2/12
f 374/2/13 375/2/13 373/2/13
f 376/2/14 377/2/14 375/2/14
f 378/2/15 379/2/15 377/2/15
f 380/2/16 381/2/16 379/2/16
f 382/2/17 378/2/17 374/2/17
f 382/2/18 383/2/18 381/2/18
f 384/2/19 369/2/19 383/2/19
f 381/2/20 383/2/20 375/2/20
f 386/1/21 387/1/21 385/1/21
f 388/1/22 389/1/22 387/1/22
f 390/1/23 391/1/23 389/1/23
f 392/1/24 393/1/24 391/1/24
f 394/1/25 395/1/25 393/1/25
f 396/1/26 397/1/26 395/1/26
f 390/1/27 386/1/27 398/1/27
f 398/1/28 399/1/28 397/1/28
f 400/1/29 385/1/29 399/1/29
f 397/1/30 399/1/30 391/1/30
f 402/1/21 403/1/21 401/1/21
f 404/1/22 405/1/22 403/1/22
f 406/1/23 407/1/23 405/1/23
f 408/1/24 409/1/24 407/1/24
f 410/1/25 411/1/25 409/1/25
f 412/1/26 413/1/26 411/1/26
f 406/1/27 402/1/27 414/1/27
f 414/1/28 415/1/28 413/1/28
f 416/1/29 401/1/29 415/1/29
f 411/1/30 413/1/30 415/1/30
f 418/1/21 419/1/21 417/1/21
f 420/1/22 421/1/22 419/1/22
f 422/1/23 423/1/23 421/1/23
f 424/1/24 425/1/24 423/1/24
f 426/1/25 427/1/25 425/1/25
f 427/1/26 430/1/26 429/1/26
f 430/1/27 426/1/27 422/1/27
f 429/1/28 432/1/28 431/1/28
f 432/1/29 417/1/29 431/1/29
f 429/1/30 431/1/30 423/1/30
f 434/1/21 435/1/21 433/1/21
f 436/1/22 437/1/22 435/1/22
f 438/1/23 439/1/23 437/1/23
f 440/1/24 441/1/24 439/1/24
f 442/1/25 443/1/25 441/1/25
f 443/1/26 446/1/26 445/1/26
f 446/1/27 442/1/27 438/1/27
f 445/1/28 448/1/28 447/1/28
f 448/1/29 433/1/29 447/1/29
f 439/1/30 443/1/30 447/1/30
f 450/1/21 451/1/21 449/1/21
f 452/1/22 453/1/22 451/1/22
f 454/1/23 455/1/23 453/1/23
f 456/1/24 457/1/24 455/1/24
f 458/1/25 459/1/25 457/1/25
f 459/1/26 462/1/26 461/1/26
f 454/1/27 450/1/27 462/1/27
f 461/1/28 464/1/28 463/1/28
f 464/1/29 449/1/29 463/1/29
f 463/1/30 451/1/30 455/1/30
f 466/1/21 467/1/21 465/1/21
f 468/1/22 469/1/22 467/1/22
f 470/1/23 471/1/23 469/1/23
f 472/1/24 473/1/24 471/1/24
f 474/1/25 475/1/25 473/1/25
f 475/1/26 478/1/26 477/1/26
f 470/1/27 466/1/27 478/1/27
f 477/1/28 480/1/28 479/1/28
f 480/1/29 465/1/29 479/1/29
f 475/1/30 477/1/30 479/1/30
f 482/1/1 483/1/1 481/1/1
f 484/1/2 485/1/2 483/1/2
f 486/1/3 487/1/3 485/1/3
f 488/1/4 489/1/4 487/1/4
f 490/1/5 491/1/5 489/1/5
f 492/1/6 493/1/6 491/1/6
f 488/1/7 486/1/7 494/1/7
f 494/1/8 495/1/8 493/1/8
f 496/1/9 481/1/9 495/1/9
f 487/1/10 491/1/10 495/1/10
f 498/3/31 499/3/31 497/3/31
f 500/3/32 501/3/32 499/3/32
f 502/3/33 503/3/33 501/3/33
f 504/3/34 505/3/34 503/3/34
f 506/3/35 507/3/35 505/3/35
f 508/3/36 509/3/36 507/3/36
f 510/3/37 511/3/37 509/3/37
f 512/3/38 513/3/38 511/3/38
f 514/3/39 515/3/39 513/3/39
f 516/3/40 517/3/40 515/3/40
f 510/3/41 506/3/41 502/3/41
f 518/3/42 519/3/42 517/3/42
f 520/3/43 497/3/43 519/3/43
f 503/3/44 511/3/44 519/3/44
f 2/1/1 4/1/1 3/1/1
f 4/1/2 6/1/2 5/1/2
f 6/1/3 8/1/3 7/1/3
f 8/1/4 10/1/4 9/1/4
f 10/1/5 12/1/5 11/1/5
f 12/1/6 14/1/6 13/1/6
f 6/1/7 4/1/7 2/1/7
f 2/1/45 16/1/45 14/1/45
f 14/1/7 12/1/7 10/1/7
f 10/1/46 8/1/46 6/1/46
f 6/1/7 2/1/7 10/1/7
f 14/1/8 16/1/8 15/1/8
f 16/1/9 2/1/9 1/1/9
f 15/1/10 1/1/10 3/1/10
f 3/1/10 5/1/10 7/1/10
f 7/1/10 9/1/10 11/1/10
f 11/1/10 13/1/10 15/1/10
f 15/1/10 3/1/10 7/1/10
f 18/1/1 20/1/1 19/1/1
f 20/1/2 22/1/2 21/1/2
f 22/1/3 24/1/3 23/1/3
f 24/1/4 26/1/4 25/1/4
f 26/1/5 28/1/5 27/1/5
f 28/1/6 30/1/6 29/1/6
f 22/1/7 20/1/7 18/1/7
f 18/1/7 32/1/7 22/1/7
f 32/1/7 30/1/7 22/1/7
f 30/1/7 28/1/7 26/1/7
f 26/1/7 24/1/7 30/1/7
f 30/1/8 32/1/8 31/1/8
f 32/1/9 18/1/9 17/1/9
f 31/1/10 17/1/10 19/1/10
f 19/1/10 21/1/10 23/1/10
f 23/1/10 25/1/10 27/1/10
f 27/1/10 29/1/10 31/1/10
f 31/1/10 19/1/10 23/1/10
f 34/2/11 36/2/11 35/2/11
f 36/2/12 38/2/12 37/2/12
f 38/2/13 40/2/13 39/2/13
f 40/2/14 42/2/14 41/2/14
f 42/2/15 44/2/15 43/2/15
f 44/2/16 46/2/16 45/2/16
f 38/2/17 36/2/17 34/2/17
f 34/2/17 48/2/17 38/2/17
f 48/2/17 46/2/17 38/2/17
f 46/2/17 44/2/17 38/2/17
f 44/2/17 42/2/17 38/2/17
f 46/2/18 48/2/18 47/2/18
f 48/2/19 34/2/19 33/2/19
f 47/2/20 33/2/20 39/2/20
f 33/2/20 35/2/20 39/2/20
f 35/2/20 37/2/20 39/2/20
f 39/2/20 41/2/20 43/2/20
f 43/2/20 45/2/20 39/2/20
f 50/2/11 52/2/11 51/2/11
f 52/2/12 54/2/12 53/2/12
f 54/2/13 56/2/13 55/2/13
f 56/2/14 58/2/14 57/2/14
f 58/2/15 60/2/15 59/2/15
f 60/2/16 62/2/16 61/2/16
f 54/2/17 52/2/17 50/2/17
f 50/2/17 64/2/17 54/2/17
f 64/2/17 62/2/17 54/2/17
f 62/2/17 60/2/17 54/2/17
f 60/2/17 58/2/17 54/2/17
f 62/2/18 64/2/18 63/2/18
f 64/2/19 50/2/19 49/2/19
f 63/2/20 49/2/20 55/2/20
f 49/2/20 51/2/20 55/2/20
f 51/2/20 53/2/20 55/2/20
f 55/2/20 57/2/20 59/2/20
f 59/2/20 61/2/20 55/2/20
f 66/2/11 68/2/11 67/2/11
f 68/2/12 70/2/12 69/2/12
f 70/2/13 72/2/13 71/2/13
f 72/2/14 74/2/14 73/2/14
f 74/2/15 76/2/15 75/2/15
f 76/2/16 78/2/16 77/2/16
f 70/2/17 68/2/17 66/2/17
f 66/2/17 80/2/17 70/2/17
f 80/2/17 78/2/17 70/2/17
f 78/2/17 76/2/17 70/2/17
f 76/2/17 74/2/17 70/2/17
f 78/2/18 80/2/18 79/2/18
f 80/2/19 66/2/19 65/2/19
f 79/2/20 65/2/20 71/2/20
f 65/2/20 67/2/20 71/2/20
f 67/2/20 69/2/20 71/2/20
f 71/2/20 73/2/20 75/2/20
f 75/2/20 77/2/20 71/2/20
f 82/2/11 84/2/11 83/2/11
f 84/2/12 86/2/12 85/2/12
f 86/2/13 88/2/13 87/2/13
f 88/2/14 90/2/14 89/2/14
f 90/2/15 92/2/15 91/2/15
f 92/2/16 94/2/16 93/2/16
f 86/2/17 84/2/17 82/2/17
f 82/2/17 96/2/17 86/2/17
f 96/2/17 94/2/17 86/2/17
f 94/2/17 92/2/17 86/2/17
f 92/2/17 90/2/17 86/2/17
f 94/2/18 96/2/18 95/2/18
f 96/2/19 82/2/19 81/2/19
f 95/2/20 81/2/20 87/2/20
f 81/2/20 83/2/20 87/2/20
f 83/2/20 85/2/20 87/2/20
f 87/2/20 89/2/20 91/2/20
f 91/2/20 93/2/20 87/2/20
f 98/2/11 100/2/11 99/2/11
f 100/2/12 102/2/12 101/2/12
f 102/2/13 104/2/13 103/2/13
f 104/2/14 106/2/14 105/2/14
f 106/2/15 108/2/15 107/2/15
f 108/2/16 110/2/16 109/2/16
f 102/2/17 100/2/17 98/2/17
f 98/2/17 112/2/17 102/2/17
f 112/2/17 110/2/17 102/2/17
f 110/2/17 108/2/17 102/2/17
f 108/2/17 106/2/17 102/2/17
f 110/2/18 112/2/18 111/2/18
f 112/2/19 98/2/19 97/2/19
f 111/2/20 97/2/20 103/2/20
f 97/2/20 99/2/20 103/2/20
f 99/2/20 101/2/20 103/2/20
f 103/2/20 105/2/20 107/2/20
f 107/2/20 109/2/20 103/2/20
f 114/2/11 116/2/11 115/2/11
f 116/2/12 118/2/12 117/2/12
f 118/2/13 120/2/13 119/2/13
f 120/2/14 122/2/14 121/2/14
f 122/2/15 124/2/15 123/2/15
f 124/2/16 126/2/16 125/2/16
f 118/2/17 116/2/17 114/2/17
f 114/2/17 128/2/17 126/2/17
f 126/2/17 124/2/17 122/2/17
f 122/2/17 120/2/17 118/2/17
f 118/2/17 114/2/17 126/2/17
f 126/2/18 128/2/18 127/2/18
f 128/2/19 114/2/19 113/2/19
f 127/2/20 113/2/20 115/2/20
f 115/2/20 117/2/20 127/2/20
f 117/2/20 119/2/20 127/2/20
f 119/2/20 121/2/20 123/2/20
f 123/2/20 125/2/20 119/2/20
f 130/2/11 132/2/11 131/2/11
f 132/2/12 134/2/12 133/2/12
f 134/2/13 136/2/13 135/2/13
f 136/2/14 138/2/14 137/2/14
f 138/2/15 140/2/15 139/2/15
f 140/2/16 142/2/16 141/2/16
f 134/2/17 132/2/17 142/2/17
f 132/2/17 130/2/17 142/2/17
f 130/2/17 144/2/17 142/2/17
f 142/2/17 140/2/17 138/2/17
f 138/2/17 136/2/17 142/2/17
f 142/2/18 144/2/18 143/2/18
f 144/2/19 130/2/19 129/2/19
f 143/2/20 129/2/20 131/2/20
f 131/2/20 133/2/20 143/2/20
f 133/2/20 135/2/20 143/2/20
f 135/2/20 137/2/20 139/2/20
f 139/2/20 141/2/20 135/2/20
f 146/2/11 148/2/11 147/2/11
f 148/2/12 150/2/12 149/2/12
f 150/2/13 152/2/13 151/2/13
f 152/2/14 154/2/14 153/2/14
f 154/2/15 156/2/15 155/2/15
f 156/2/16 158/2/16 157/2/16
f 150/2/17 148/2/17 146/2/17
f 146/2/17 160/2/17 158/2/17
f 158/2/17 156/2/17 154/2/17
f 154/2/17 152/2/17 150/2/17
f 150/2/17 146/2/17 154/2/17
f 158/2/18 160/2/18 159/2/18
f 160/2/19 146/2/19 145/2/19
f 159/2/20 145/2/20 151/2/20
f 145/2/20 147/2/20 151/2/20
f 147/2/20 149/2/20 151/2/20
f 151/2/20 153/2/20 159/2/20
f 153/2/20 155/2/20 159/2/20
f 162/2/11 164/2/11 163/2/11
f 164/2/12 166/2/12 165/2/12
f 166/2/13 168/2/13 167/2/13
f 168/2/14 170/2/14 169/2/14
f 170/2/15 172/2/15 171/2/15
f 172/2/16 174/2/16 173/2/16
f 166/2/17 164/2/17 162/2/17
f 162/2/17 176/2/17 174/2/17
f 174/2/17 172/2/17 170/2/17
f 170/2/17 168/2/17 166/2/17
f 166/2/17 162/2/17 174/2/17
f 174/2/18 176/2/18 175/2/18
f 176/2/19 162/2/19 161/2/19
f 175/2/20 161/2/20 163/2/20
f 163/2/20 165/2/20 175/2/20
f 165/2/20 167/2/20 175/2/20
f 167/2/20 169/2/20 171/2/20
f 171/2/20 173/2/20 167/2/20
f 178/2/11 180/2/11 179/2/11
f 180/2/12 182/2/12 181/2/12
f 182/2/13 184/2/13 183/2/13
f 184/2/14 186/2/14 185/2/14
f 186/2/15 188/2/15 187/2/15
f 188/2/16 190/2/16 189/2/16
f 182/2/17 180/2/17 178/2/17
f 178/2/17 192/2/17 190/2/17
f 190/2/17 188/2/17 186/2/17
f 186/2/17 184/2/17 182/2/17
f 182/2/17 178/2/17 190/2/17
f 190/2/18 192/2/18 191/2/18
f 192/2/19 178/2/19 177/2/19
f 191/2/20 177/2/20 179/2/20
f 179/2/20 181/2/20 191/2/20
f 181/2/20 183/2/20 191/2/20
f 183/2/20 185/2/20 187/2/20
f 187/2/20 189/2/20 183/2/20
f 194/2/11 196/2/11 195/2/11
f 196/2/12 198/2/12 197/2/12
f 198/2/13 200/2/13 199/2/13
f 200/2/14 202/2/14 201/2/14
f 202/2/15 204/2/15 203/2/15
f 204/2/16 206/2/16 205/2/16
f 198/2/17 196/2/17 194/2/17
f 194/2/17 208/2/17 206/2/17
f 206/2/17 204/2/17 202/2/17
f 202/2/17 200/2/17 198/2/17
f 198/2/17 194/2/17 202/2/17
f 206/2/18 208/2/18 207/2/18
f 208/2/19 194/2/19 193/2/19
f 207/2/20 193/2/20 199/2/20
f 193/2/20 195/2/20 199/2/20
f 195/2/20 197/2/20 199/2/20
f 199/2/20 201/2/20 207/2/20
f 201/2/20 203/2/20 207/2/20
f 210/2/11 212/2/11 211/2/11
f 212/2/12 214/2/12 213/2/12
f 214/2/13 216/2/13 215/2/13
f 216/2/14 218/2/14 217/2/14
f 218/2/15 220/2/15 219/2/15
f 220/2/16 222/2/16 221/2/16
f 214/2/17 212/2/17 210/2/17
f 210/2/17 224/2/17 214/2/17
f 224/2/17 222/2/17 214/2/17
f 222/2/17 220/2/17 214/2/17
f 220/2/17 218/2/17 214/2/17
f 222/2/18 224/2/18 223/2/18
f 224/2/19 210/2/19 209/2/19
f 223/2/20 209/2/20 215/2/20
f 209/2/20 211/2/20 215/2/20
f 211/2/20 213/2/20 215/2/20
f 215/2/20 217/2/20 219/2/20
f 219/2/20 221/2/20 215/2/20
f 226/2/11 228/2/11 227/2/11
f 228/2/12 230/2/12 229/2/12
f 230/2/13 232/2/13 231/2/13
f 232/2/14 234/2/14 233/2/14
f 234/2/15 236/2/15 235/2/15
f 236/2/16 238/2/16 237/2/16
f 230/2/17 228/2/17 226/2/17
f 226/2/17 240/2/17 238/2/17
f 238/2/17 236/2/17 234/2/17
f 234/2/17 232/2/17 230/2/17
f 230/2/17 226/2/17 234/2/17
f 238/2/18 240/2/18 239/2/18
f 240/2/19 226/2/19 225/2/19
f 239/2/20 225/2/20 231/2/20
f 225/2/20 227/2/20 231/2/20
f 227/2/20 229/2/20 231/2/20
f 231/2/20 233/2/20 239/2/20
f 233/2/20 235/2/20 239/2/20
f 242/2/11 244/2/11 243/2/11
f 244/2/12 246/2/12 245/2/12
f 246/2/13 248/2/13 247/2/13
f 248/2/14 250/2/14 249/2/14
f 250/2/15 252/2/15 251/2/15
f 252/2/16 254/2/16 253/2/16
f 246/2/17 244/2/17 242/2/17
f 242/2/17 256/2/17 246/2/17
f 256/2/17 254/2/17 246/2/17
f 254/2/17 252/2/17 250/2/17
f 250/2/17 248/2/17 254/2/17
f 254/2/18 256/2/18 255/2/18
f 256/2/19 242/2/19 241/2/19
f 255/2/20 241/2/20 243/2/20
f 243/2/20 245/2/20 247/2/20
f 247/2/20 249/2/20 251/2/20
f 251/2/20 253/2/20 255/2/20
f 255/2/20 243/2/20 247/2/20
f 258/2/11 260/2/11 259/2/11
f 260/2/12 262/2/12 261/2/12
f 262/2/13 264/2/13 263/2/13
f 264/2/14 266/2/14 265/2/14
f 266/2/15 268/2/15 267/2/15
f 268/2/16 270/2/16 269/2/16
f 262/2/17 260/2/17 258/2/17
f 258/2/17 272/2/17 262/2/17
f 272/2/17 270/2/17 262/2/17
f 270/2/17 268/2/17 266/2/17
f 266/2/17 264/2/17 270/2/17
f 270/2/18 272/2/18 271/2/18
f 272/2/19 258/2/19 257/2/19
f 271/2/20 257/2/20 259/2/20
f 259/2/20 261/2/20 263/2/20
f 263/2/20 265/2/20 267/2/20
f 267/2/20 269/2/20 271/2/20
f 271/2/20 259/2/20 263/2/20
f 274/2/11 276/2/11 275/2/11
f 276/2/12 278/2/12 277/2/12
f 278/2/13 280/2/13 279/2/13
f 280/2/14 282/2/14 281/2/14
f 282/2/15 284/2/15 283/2/15
f 284/2/16 286/2/16 285/2/16
f 278/2/17 276/2/17 274/2/17
f 274/2/17 288/2/17 286/2/17
f 286/2/17 284/2/17 282/2/17
f 282/2/17 280/2/17 278/2/17
f 278/2/17 274/2/17 286/2/17
f 286/2/18 288/2/18 287/2/18
f 288/2/19 274/2/19 273/2/19
f 287/2/20 273/2/20 275/2/20
f 275/2/20 277/2/20 287/2/20
f 277/2/20 279/2/20 287/2/20
f 279/2/20 281/2/20 283/2/20
f 283/2/20 285/2/20 279/2/20
f 290/2/11 292/2/11 291/2/11
f 292/2/12 294/2/12 293/2/12
f 294/2/13 296/2/13 295/2/13
f 296/2/14 298/2/14 297/2/14
f 298/2/15 300/2/15 299/2/15
f 300/2/16 302/2/16 301/2/16
f 294/2/17 292/2/17 290/2/17
f 290/2/17 304/2/17 302/2/17
f 302/2/17 300/2/17 298/2/17
f 298/2/17 296/2/17 294/2/17
f 294/2/17 290/2/17 302/2/17
f 302/2/18 304/2/18 303/2/18
f 304/2/19 290/2/19 289/2/19
f 303/2/20 289/2/20 291/2/20
f 291/2/20 293/2/20 303/2/20
f 293/2/20 295/2/20 303/2/20
f 295/2/20 297/2/20 299/2/20
f 299/2/20 301/2/20 295/2/20
f 306/2/11 308/2/11 307/2/11
f 308/2/12 310/2/12 309/2/12
f 310/2/13 312/2/13 311/2/13
f 312/2/14 314/2/14 313/2/14
f 314/2/15 316/2/15 315/2/15
f 316/2/16 318/2/16 317/2/16
f 310/2/17 308/2/17 306/2/17
f 306/2/17 320/2/17 318/2/17
f 318/2/17 316/2/17 314/2/17
f 314/2/17 312/2/17 310/2/17
f 310/2/17 306/2/17 318/2/17
f 318/2/18 320/2/18 319/2/18
f 320/2/19 306/2/19 305/2/19
f 319/2/20 305/2/20 307/2/20
f 307/2/20 309/2/20 319/2/20
f 309/2/20 311/2/20 319/2/20
f 311/2/20 313/2/20 315/2/20
f 315/2/20 317/2/20 311/2/20
f 322/2/11 324/2/11 323/2/11
f 324/2/12 326/2/12 325/2/12
f 326/2/13 328/2/13 327/2/13
f 328/2/14 330/2/14 329/2/14
f 330/2/15 332/2/15 331/2/15
f 332/2/16 334/2/16 333/2/16
f 326/2/17 324/2/17 322/2/17
f 322/2/17 336/2/17 326/2/17
f 336/2/17 334/2/17 326/2/17
f 334/2/17 332/2/17 326/2/17
f 332/2/17 330/2/17 326/2/17
f 334/2/18 336/2/18 335/2/18
f 336/2/19 322/2/19 321/2/19
f 335/2/20 321/2/20 323/2/20
f 323/2/20 325/2/20 327/2/20
f 327/2/20 329/2/20 331/2/20
f 331/2/20 333/2/20 335/2/20
f 335/2/20 323/2/20 327/2/20
f 338/2/11 340/2/11 339/2/11
f 340/2/12 342/2/12 341/2/12
f 342/2/13 344/2/13 343/2/13
f 344/2/14 346/2/14 345/2/14
f 346/2/15 348/2/15 347/2/15
f 348/2/16 350/2/16 349/2/16
f 342/2/17 340/2/17 338/2/17
f 338/2/17 352/2/17 342/2/17
f 352/2/17 350/2/17 342/2/17
f 350/2/17 348/2/17 342/2/17
f 348/2/17 346/2/17 342/2/17
f 350/2/18 352/2/18 351/2/18
f 352/2/19 338/2/19 337/2/19
f 351/2/20 337/2/20 339/2/20
f 339/2/20 341/2/20 343/2/20
f 343/2/20 345/2/20 347/2/20
f 347/2/20 349/2/20 351/2/20
f 351/2/20 339/2/20 343/2/20
f 354/2/11 356/2/11 355/2/11
f 356/2/12 358/2/12 357/2/12
f 358/2/13 360/2/13 359/2/13
f 360/2/14 362/2/14 361/2/14
f 362/2/15 364/2/15 363/2/15
f 364/2/16 366/2/16 365/2/16
f 358/2/17 356/2/17 354/2/17
f 354/2/17 368/2/17 366/2/17
f 366/2/17 364/2/17 362/2/17
f 362/2/17 360/2/17 358/2/17
f 358/2/17 354/2/17 366/2/17
f 366/2/18 368/2/18 367/2/18
f 368/2/19 354/2/19 353/2/19
f 367/2/20 353/2/20 355/2/20
f 355/2/20 357/2/20 367/2/20
f 357/2/20 359/2/20 367/2/20
f 359/2/20 361/2/20 363/2/20
f 363/2/20 365/2/20 359/2/20
f 370/2/11 372/2/11 371/2/11
f 372/2/12 374/2/12 373/2/12
f 374/2/13 376/2/13 375/2/13
f 376/2/14 378/2/14 377/2/14
f 378/2/15 380/2/15 379/2/15
f 380/2/16 382/2/16 381/2/16
f 374/2/17 372/2/17 370/2/17
f 370/2/17 384/2/17 382/2/17
f 382/2/17 380/2/17 378/2/17
f 378/2/17 376/2/17 374/2/17
f 374/2/17 370/2/17 382/2/17
f 382/2/18 384/2/18 383/2/18
f 384/2/19 370/2/19 369/2/19
f 383/2/20 369/2/20 371/2/20
f 371/2/20 373/2/20 383/2/20
f 373/2/20 375/2/20 383/2/20
f 375/2/20 377/2/20 379/2/20
f 379/2/20 381/2/20 375/2/20
f 386/1/21 388/1/21 387/1/21
f 388/1/22 390/1/22 389/1/22
f 390/1/23 392/1/23 391/1/23
f 392/1/24 394/1/24 393/1/24
f 394/1/25 396/1/25 395/1/25
f 396/1/26 398/1/26 397/1/26
f 390/1/27 388/1/27 386/1/27
f 386/1/27 400/1/27 398/1/27
f 398/1/27 396/1/27 390/1/27
f 396/1/27 394/1/27 390/1/27
f 394/1/27 392/1/27 390/1/27
f 398/1/28 400/1/28 399/1/28
f 400/1/29 386/1/29 385/1/29
f 399/1/30 385/1/30 387/1/30
f 387/1/30 389/1/30 399/1/30
f 389/1/30 391/1/30 399/1/30
f 391/1/30 393/1/30 395/1/30
f 395/1/30 397/1/30 391/1/30
f 402/1/21 404/1/21 403/1/21
f 404/1/22 406/1/22 405/1/22
f 406/1/23 408/1/23 407/1/23
f 408/1/24 410/1/24 409/1/24
f 410/1/25 412/1/25 411/1/25
f 412/1/26 414/1/26 413/1/26
f 406/1/27 404/1/27 402/1/27
f 402/1/27 416/1/27 414/1/27
f 414/1/27 412/1/27 406/1/27
f 412/1/27 410/1/27 406/1/27
f 410/1/27 408/1/27 406/1/27
f 414/1/28 416/1/28 415/1/28
f 416/1/29 402/1/29 401/1/29
f 415/1/30 401/1/30 403/1/30
f 403/1/30 405/1/30 415/1/30
f 405/1/30 407/1/30 415/1/30
f 407/1/30 409/1/30 415/1/30
f 409/1/30 411/1/30 415/1/30
f 418/1/21 420/1/21 419/1/21
f 420/1/22 422/1/22 421/1/22
f 422/1/23 424/1/23 423/1/23
f 424/1/24 426/1/24 425/1/24
f 426/1/25 428/1/25 427/1/25
f 427/1/26 428/1/26 430/1/26
f 422/1/27 420/1/27 418/1/27
f 418/1/27 432/1/27 422/1/27
f 432/1/27 430/1/27 422/1/27
f 430/1/47 428/1/47 426/1/47
f 426/1/47 424/1/47 422/1/47
f 429/1/28 430/1/28 432/1/28
f 432/1/29 418/1/29 417/1/29
f 431/1/30 417/1/30 419/1/30
f 419/1/30 421/1/30 431/1/30
f 421/1/30 423/1/30 431/1/30
f 423/1/30 425/1/30 427/1/30
f 427/1/30 429/1/30 423/1/30
f 434/1/21 436/1/21 435/1/21
f 436/1/22 438/1/22 437/1/22
f 438/1/23 440/1/23 439/1/23
f 440/1/24 442/1/24 441/1/24
f 442/1/25 444/1/25 443/1/25
f 443/1/26 444/1/26 446/1/26
f 438/1/27 436/1/27 434/1/27
f 434/1/27 448/1/27 438/1/27
f 448/1/27 446/1/27 438/1/27
f 446/1/47 444/1/47 442/1/47
f 442/1/27 440/1/27 438/1/27
f 445/1/28 446/1/28 448/1/28
f 448/1/29 434/1/29 433/1/29
f 447/1/30 433/1/30 435/1/30
f 435/1/30 437/1/30 439/1/30
f 439/1/30 441/1/30 443/1/30
f 443/1/30 445/1/30 447/1/30
f 447/1/30 435/1/30 439/1/30
f 450/1/21 452/1/21 451/1/21
f 452/1/22 454/1/22 453/1/22
f 454/1/23 456/1/23 455/1/23
f 456/1/24 458/1/24 457/1/24
f 458/1/25 460/1/25 459/1/25
f 459/1/26 460/1/26 462/1/26
f 454/1/48 452/1/48 450/1/48
f 450/1/49 464/1/49 462/1/49
f 462/1/27 460/1/27 458/1/27
f 458/1/27 456/1/27 462/1/27
f 456/1/27 454/1/27 462/1/27
f 461/1/28 462/1/28 464/1/28
f 464/1/29 450/1/29 449/1/29
f 463/1/30 449/1/30 451/1/30
f 451/1/30 453/1/30 455/1/30
f 455/1/30 457/1/30 463/1/30
f 457/1/30 459/1/30 463/1/30
f 459/1/30 461/1/30 463/1/30
f 466/1/21 468/1/21 467/1/21
f 468/1/22 470/1/22 469/1/22
f 470/1/23 472/1/23 471/1/23
f 472/1/24 474/1/24 473/1/24
f 474/1/25 476/1/25 475/1/25
f 475/1/26 476/1/26 478/1/26
f 470/1/48 468/1/48 466/1/48
f 466/1/50 480/1/50 478/1/50
f 478/1/27 476/1/27 474/1/27
f 474/1/27 472/1/27 478/1/27
f 472/1/27 470/1/27 478/1/27
f 477/1/28 478/1/28 480/1/28
f 480/1/29 466/1/29 465/1/29
f 479/1/30 465/1/30 467/1/30
f 467/1/30 469/1/30 479/1/30
f 469/1/30 471/1/30 479/1/30
f 471/1/30 473/1/30 479/1/30
f 473/1/30 475/1/30 479/1/30
f 482/1/1 484/1/1 483/1/1
f 484/1/2 486/1/2 485/1/2
f 486/1/3 488/1/3 487/1/3
f 488/1/4 490/1/4 489/1/4
f 490/1/5 492/1/5 491/1/5
f 492/1/6 494/1/6 493/1/6
f 486/1/7 484/1/7 482/1/7
f 482/1/7 496/1/7 486/1/7
f 496/1/7 494/1/7 486/1/7
f 494/1/7 492/1/7 490/1/7
f 490/1/7 488/1/7 494/1/7
f 494/1/8 496/1/8 495/1/8
f 496/1/9 482/1/9 481/1/9
f 495/1/10 481/1/10 483/1/10
f 483/1/10 485/1/10 487/1/10
f 487/1/10 489/1/10 491/1/10
f 491/1/10 493/1/10 495/1/10
f 495/1/10 483/1/10 487/1/10
f 498/3/31 500/3/31 499/3/31
f 500/3/32 502/3/32 501/3/32
f 502/3/33 504/3/33 503/3/33
f 504/3/34 506/3/34 505/3/34
f 506/3/35 508/3/35 507/3/35
f 508/3/36 510/3/36 509/3/36
f 510/3/37 512/3/37 511/3/37
f 512/3/38 514/3/38 513/3/38
f 514/3/39 516/3/39 515/3/39
f 516/3/40 518/3/40 517/3/40
f 502/3/41 500/3/41 498/3/41
f 498/3/41 520/3/41 518/3/41
f 518/3/41 516/3/41 514/3/41
f 514/3/41 512/3/41 510/3/41
f 510/3/41 508/3/41 506/3/41
f 506/3/41 504/3/41 502/3/41
f 502/3/41 498/3/41 518/3/41
f 518/3/41 514/3/41 502/3/41
f 514/3/41 510/3/41 502/3/41
f 518/3/42 520/3/42 519/3/42
f 520/3/43 498/3/43 497/3/43
f 519/3/44 497/3/44 499/3/44
f 499/3/44 501/3/44 519/3/44
f 501/3/44 503/3/44 519/3/44
f 503/3/44 505/3/44 511/3/44
f 505/3/44 507/3/44 511/3/44
f 507/3/44 509/3/44 511/3/44
f 511/3/44 513/3/44 515/3/44
f 515/3/44 517/3/44 511/3/44
f 517/3/44 519/3/44 511/3/44
