# Blender 5.2.1 LTS
# www.blender.org
mtllib detail_pumpjack.mtl
o detail_pumpjack
v -1.500000 1.600000 0.625000
v -1.500000 1.600000 0.975000
v -1.250000 1.533013 0.625000
v -1.250000 1.533013 0.975000
v -1.066987 1.350000 0.625000
v -1.066987 1.350000 0.975000
v -1.000000 1.100000 0.625000
v -1.000000 1.100000 0.975000
v -1.066987 0.850000 0.625000
v -1.066987 0.850000 0.975000
v -1.250000 0.666987 0.625000
v -1.250000 0.666987 0.975000
v -1.500000 0.600000 0.625000
v -1.500000 0.600000 0.975000
v -1.750000 0.666987 0.625000
v -1.750000 0.666987 0.975000
v -1.933013 0.850000 0.625000
v -1.933013 0.850000 0.975000
v -2.000000 1.100000 0.625000
v -2.000000 1.100000 0.975000
v -1.933013 1.350000 0.625000
v -1.933013 1.350000 0.975000
v -1.750000 1.533013 0.625000
v -1.750000 1.533013 0.975000
v -1.500000 1.330000 0.970000
v -1.500000 1.330000 1.030000
v -1.385000 1.299186 0.970000
v -1.385000 1.299186 1.030000
v -1.300814 1.215000 0.970000
v -1.300814 1.215000 1.030000
v -1.270000 1.100000 0.970000
v -1.270000 1.100000 1.030000
v -1.300814 0.985000 0.970000
v -1.300814 0.985000 1.030000
v -1.385000 0.900814 0.970000
v -1.385000 0.900814 1.030000
v -1.500000 0.870000 0.970000
v -1.500000 0.870000 1.030000
v -1.615000 0.900814 0.970000
v -1.615000 0.900814 1.030000
v -1.699186 0.985000 0.970000
v -1.699186 0.985000 1.030000
v -1.730000 1.100000 0.970000
v -1.730000 1.100000 1.030000
v -1.699186 1.215000 0.970000
v -1.699186 1.215000 1.030000
v -1.615000 1.299186 0.970000
v -1.615000 1.299186 1.030000
v -1.500000 1.100000 0.955000
v 0.000000 2.300000 0.955000
v -1.480122 1.075153 0.968180
v 0.019878 2.275153 0.968180
v -1.471889 1.064861 1.000000
v 0.028111 2.264861 1.000000
v -1.480122 1.075153 1.031820
v 0.019878 2.275153 1.031820
v -1.500000 1.100000 1.045000
v 0.000000 2.300000 1.045000
v -1.519878 1.124847 1.031820
v -0.019878 2.324847 1.031820
v -1.528111 1.135139 1.000000
v -0.028111 2.335139 1.000000
v -1.519878 1.124847 0.968180
v -0.019878 2.324847 0.968180
v -2.330000 0.532000 0.606000
v -2.330000 0.532000 0.634000
v -2.302287 0.516000 0.606000
v -2.302287 0.516000 0.634000
v -2.302287 0.484000 0.606000
v -2.302287 0.484000 0.634000
v -2.330000 0.468000 0.606000
v -2.330000 0.468000 0.634000
v -2.357713 0.484000 0.606000
v -2.357713 0.484000 0.634000
v -2.357713 0.516000 0.606000
v -2.357713 0.516000 0.634000
v -2.330000 1.132000 0.606000
v -2.330000 1.132000 0.634000
v -2.302287 1.116000 0.606000
v -2.302287 1.116000 0.634000
v -2.302287 1.084000 0.606000
v -2.302287 1.084000 0.634000
v -2.330000 1.068000 0.606000
v -2.330000 1.068000 0.634000
v -2.357713 1.084000 0.606000
v -2.357713 1.084000 0.634000
v -2.357713 1.116000 0.606000
v -2.357713 1.116000 0.634000
v -2.270000 0.532000 0.606000
v -2.270000 0.532000 0.634000
v -2.242287 0.516000 0.606000
v -2.242287 0.516000 0.634000
v -2.242287 0.484000 0.606000
v -2.242287 0.484000 0.634000
v -2.270000 0.468000 0.606000
v -2.270000 0.468000 0.634000
v -2.297713 0.484000 0.606000
v -2.297713 0.484000 0.634000
v -2.297713 0.516000 0.606000
v -2.297713 0.516000 0.634000
v -2.270000 1.132000 0.606000
v -2.270000 1.132000 0.634000
v -2.242287 1.116000 0.606000
v -2.242287 1.116000 0.634000
v -2.242287 1.084000 0.606000
v -2.242287 1.084000 0.634000
v -2.270000 1.068000 0.606000
v -2.270000 1.068000 0.634000
v -2.297713 1.084000 0.606000
v -2.297713 1.084000 0.634000
v -2.297713 1.116000 0.606000
v -2.297713 1.116000 0.634000
v -0.730000 0.532000 0.606000
v -0.730000 0.532000 0.634000
v -0.702287 0.516000 0.606000
v -0.702287 0.516000 0.634000
v -0.702287 0.484000 0.606000
v -0.702287 0.484000 0.634000
v -0.730000 0.468000 0.606000
v -0.730000 0.468000 0.634000
v -0.757713 0.484000 0.606000
v -0.757713 0.484000 0.634000
v -0.757713 0.516000 0.606000
v -0.757713 0.516000 0.634000
v -0.730000 1.132000 0.606000
v -0.730000 1.132000 0.634000
v -0.702287 1.116000 0.606000
v -0.702287 1.116000 0.634000
v -0.702287 1.084000 0.606000
v -0.702287 1.084000 0.634000
v -0.730000 1.068000 0.606000
v -0.730000 1.068000 0.634000
v -0.757713 1.084000 0.606000
v -0.757713 1.084000 0.634000
v -0.757713 1.116000 0.606000
v -0.757713 1.116000 0.634000
v -0.670000 0.532000 0.606000
v -0.670000 0.532000 0.634000
v -0.642287 0.516000 0.606000
v -0.642287 0.516000 0.634000
v -0.642287 0.484000 0.606000
v -0.642287 0.484000 0.634000
v -0.670000 0.468000 0.606000
v -0.670000 0.468000 0.634000
v -0.697713 0.484000 0.606000
v -0.697713 0.484000 0.634000
v -0.697713 0.516000 0.606000
v -0.697713 0.516000 0.634000
v -0.670000 1.132000 0.606000
v -0.670000 1.132000 0.634000
v -0.642287 1.116000 0.606000
v -0.642287 1.116000 0.634000
v -0.642287 1.084000 0.606000
v -0.642287 1.084000 0.634000
v -0.670000 1.068000 0.606000
v -0.670000 1.068000 0.634000
v -0.697713 1.084000 0.606000
v -0.697713 1.084000 0.634000
v -0.697713 1.116000 0.606000
v -0.697713 1.116000 0.634000
v -2.180000 1.340000 0.530000
v -2.180000 1.360000 0.550000
v -2.200000 1.360000 0.530000
v -2.180000 1.420000 0.550000
v -2.180000 1.440000 0.530000
v -2.200000 1.420000 0.530000
v -2.180000 1.340000 -0.530000
v -2.200000 1.360000 -0.530000
v -2.180000 1.360000 -0.550000
v -2.180000 1.440000 -0.530000
v -2.180000 1.420000 -0.550000
v -2.200000 1.420000 -0.530000
v -2.120000 1.340000 0.530000
v -2.100000 1.360000 0.530000
v -2.120000 1.360000 0.550000
v -2.120000 1.440000 0.530000
v -2.120000 1.420000 0.550000
v -2.100000 1.420000 0.530000
v -2.120000 1.340000 -0.530000
v -2.120000 1.360000 -0.550000
v -2.100000 1.360000 -0.530000
v -2.120000 1.440000 -0.530000
v -2.100000 1.420000 -0.530000
v -2.120000 1.420000 -0.550000
v -1.960000 1.340000 0.530000
v -1.960000 1.360000 0.550000
v -1.980000 1.360000 0.530000
v -1.960000 1.420000 0.550000
v -1.960000 1.440000 0.530000
v -1.980000 1.420000 0.530000
v -1.960000 1.340000 -0.530000
v -1.980000 1.360000 -0.530000
v -1.960000 1.360000 -0.550000
v -1.960000 1.440000 -0.530000
v -1.960000 1.420000 -0.550000
v -1.980000 1.420000 -0.530000
v -1.900000 1.340000 0.530000
v -1.880000 1.360000 0.530000
v -1.900000 1.360000 0.550000
v -1.900000 1.440000 0.530000
v -1.900000 1.420000 0.550000
v -1.880000 1.420000 0.530000
v -1.900000 1.340000 -0.530000
v -1.900000 1.360000 -0.550000
v -1.880000 1.360000 -0.530000
v -1.900000 1.440000 -0.530000
v -1.880000 1.420000 -0.530000
v -1.900000 1.420000 -0.550000
v -1.740000 1.340000 0.530000
v -1.740000 1.360000 0.550000
v -1.760000 1.360000 0.530000
v -1.740000 1.420000 0.550000
v -1.740000 1.440000 0.530000
v -1.760000 1.420000 0.530000
v -1.740000 1.340000 -0.530000
v -1.760000 1.360000 -0.530000
v -1.740000 1.360000 -0.550000
v -1.740000 1.440000 -0.530000
v -1.740000 1.420000 -0.550000
v -1.760000 1.420000 -0.530000
v -1.680000 1.340000 0.530000
v -1.660000 1.360000 0.530000
v -1.680000 1.360000 0.550000
v -1.680000 1.440000 0.530000
v -1.680000 1.420000 0.550000
v -1.660000 1.420000 0.530000
v -1.680000 1.340000 -0.530000
v -1.680000 1.360000 -0.550000
v -1.660000 1.360000 -0.530000
v -1.680000 1.440000 -0.530000
v -1.660000 1.420000 -0.530000
v -1.680000 1.420000 -0.550000
v -1.520000 1.340000 0.530000
v -1.520000 1.360000 0.550000
v -1.540000 1.360000 0.530000
v -1.520000 1.420000 0.550000
v -1.520000 1.440000 0.530000
v -1.540000 1.420000 0.530000
v -1.520000 1.340000 -0.530000
v -1.540000 1.360000 -0.530000
v -1.520000 1.360000 -0.550000
v -1.520000 1.440000 -0.530000
v -1.520000 1.420000 -0.550000
v -1.540000 1.420000 -0.530000
v -1.460000 1.340000 0.530000
v -1.440000 1.360000 0.530000
v -1.460000 1.360000 0.550000
v -1.460000 1.440000 0.530000
v -1.460000 1.420000 0.550000
v -1.440000 1.420000 0.530000
v -1.460000 1.340000 -0.530000
v -1.460000 1.360000 -0.550000
v -1.440000 1.360000 -0.530000
v -1.460000 1.440000 -0.530000
v -1.440000 1.420000 -0.530000
v -1.460000 1.420000 -0.550000
v -1.300000 1.340000 0.530000
v -1.300000 1.360000 0.550000
v -1.320000 1.360000 0.530000
v -1.300000 1.420000 0.550000
v -1.300000 1.440000 0.530000
v -1.320000 1.420000 0.530000
v -1.300000 1.340000 -0.530000
v -1.320000 1.360000 -0.530000
v -1.300000 1.360000 -0.550000
v -1.300000 1.440000 -0.530000
v -1.300000 1.420000 -0.550000
v -1.320000 1.420000 -0.530000
v -1.240000 1.340000 0.530000
v -1.220000 1.360000 0.530000
v -1.240000 1.360000 0.550000
v -1.240000 1.440000 0.530000
v -1.240000 1.420000 0.550000
v -1.220000 1.420000 0.530000
v -1.240000 1.340000 -0.530000
v -1.240000 1.360000 -0.550000
v -1.220000 1.360000 -0.530000
v -1.240000 1.440000 -0.530000
v -1.220000 1.420000 -0.530000
v -1.240000 1.420000 -0.550000
v -1.080000 1.340000 0.530000
v -1.080000 1.360000 0.550000
v -1.100000 1.360000 0.530000
v -1.080000 1.420000 0.550000
v -1.080000 1.440000 0.530000
v -1.100000 1.420000 0.530000
v -1.080000 1.340000 -0.530000
v -1.100000 1.360000 -0.530000
v -1.080000 1.360000 -0.550000
v -1.080000 1.440000 -0.530000
v -1.080000 1.420000 -0.550000
v -1.100000 1.420000 -0.530000
v -1.020000 1.340000 0.530000
v -1.000000 1.360000 0.530000
v -1.020000 1.360000 0.550000
v -1.020000 1.440000 0.530000
v -1.020000 1.420000 0.550000
v -1.000000 1.420000 0.530000
v -1.020000 1.340000 -0.530000
v -1.020000 1.360000 -0.550000
v -1.000000 1.360000 -0.530000
v -1.020000 1.440000 -0.530000
v -1.000000 1.420000 -0.530000
v -1.020000 1.420000 -0.550000
v -0.860000 1.340000 0.530000
v -0.860000 1.360000 0.550000
v -0.880000 1.360000 0.530000
v -0.860000 1.420000 0.550000
v -0.860000 1.440000 0.530000
v -0.880000 1.420000 0.530000
v -0.860000 1.340000 -0.530000
v -0.880000 1.360000 -0.530000
v -0.860000 1.360000 -0.550000
v -0.860000 1.440000 -0.530000
v -0.860000 1.420000 -0.550000
v -0.880000 1.420000 -0.530000
v -0.800000 1.340000 0.530000
v -0.780000 1.360000 0.530000
v -0.800000 1.360000 0.550000
v -0.800000 1.440000 0.530000
v -0.800000 1.420000 0.550000
v -0.780000 1.420000 0.530000
v -0.800000 1.340000 -0.530000
v -0.800000 1.360000 -0.550000
v -0.780000 1.360000 -0.530000
v -0.800000 1.440000 -0.530000
v -0.780000 1.420000 -0.530000
v -0.800000 1.420000 -0.550000
vn 0.2588 0.9659 -0.0000
vn 0.7071 0.7071 -0.0000
vn 0.9659 0.2588 -0.0000
vn 0.9659 -0.2588 -0.0000
vn 0.7071 -0.7071 -0.0000
vn 0.2588 -0.9659 -0.0000
vn -0.2588 -0.9659 -0.0000
vn -0.7071 -0.7071 -0.0000
vn -0.9659 -0.2588 -0.0000
vn -0.9659 0.2588 -0.0000
vn -0.0000 -0.0000 1.0000
vn -0.7071 0.7071 -0.0000
vn -0.2588 0.9659 -0.0000
vn -0.0000 -0.0000 -1.0000
vn 0.2391 -0.2988 -0.9239
vn 0.5771 -0.7214 -0.3827
vn 0.5771 -0.7214 0.3827
vn 0.2391 -0.2988 0.9239
vn -0.2391 0.2988 0.9239
vn -0.5771 0.7214 0.3827
vn 0.7809 0.6247 -0.0000
vn -0.5771 0.7214 -0.3827
vn -0.2391 0.2988 -0.9239
vn -0.7809 -0.6247 -0.0000
vn 0.5000 0.8660 -0.0000
vn 1.0000 -0.0000 -0.0000
vn 0.5000 -0.8660 -0.0000
vn -0.5000 -0.8660 -0.0000
vn -1.0000 -0.0000 -0.0000
vn -0.5000 0.8660 -0.0000
vn -0.5774 -0.5774 0.5774
vn -0.5774 0.5774 0.5774
vn -0.5774 -0.5774 -0.5774
vn -0.5774 0.5774 -0.5774
vn 0.5774 -0.5774 0.5774
vn 0.5774 0.5774 0.5774
vn 0.5774 -0.5774 -0.5774
vn 0.5774 0.5774 -0.5774
vn -0.7071 -0.0000 0.7071
vn -0.7071 -0.0000 -0.7071
vn -0.0000 -0.7071 -0.7071
vn -0.0000 0.7071 -0.7071
vn 0.7071 -0.0000 -0.7071
vn 0.7071 -0.0000 0.7071
vn -0.0000 -0.7071 0.7071
vn -0.0000 0.7071 0.7071
vn -0.0000 -1.0000 -0.0000
vn -0.0000 1.0000 -0.0000
vn -0.5773 -0.5773 0.5774
vn -0.5773 0.5773 0.5774
vn -0.5773 -0.5773 -0.5774
vn -0.5773 0.5773 -0.5774
vn 0.5773 -0.5774 0.5773
vn 0.5773 0.5774 0.5773
vn 0.5773 -0.5774 -0.5773
vn 0.5773 0.5774 -0.5773
vt 0.625000 0.125000
vt 0.125000 0.625000
vt 0.125000 0.375000
s 0
usemtl WorldPickupPalette
f 2/1/1 3/1/1 1/1/1
f 4/1/2 5/1/2 3/1/2
f 6/1/3 7/1/3 5/1/3
f 8/1/4 9/1/4 7/1/4
f 10/1/5 11/1/5 9/1/5
f 12/1/6 13/1/6 11/1/6
f 14/1/7 15/1/7 13/1/7
f 16/1/8 17/1/8 15/1/8
f 18/1/9 19/1/9 17/1/9
f 20/1/10 21/1/10 19/1/10
f 10/1/11 6/1/11 22/1/11
f 22/1/12 23/1/12 21/1/12
f 24/1/13 1/1/13 23/1/13
f 7/1/14 15/1/14 23/1/14
f 26/2/1 27/2/1 25/2/1
f 28/2/2 29/2/2 27/2/2
f 30/2/3 31/2/3 29/2/3
f 32/2/4 33/2/4 31/2/4
f 34/2/5 35/2/5 33/2/5
f 36/2/6 37/2/6 35/2/6
f 38/2/7 39/2/7 37/2/7
f 40/2/8 41/2/8 39/2/8
f 42/2/9 43/2/9 41/2/9
f 44/2/10 45/2/10 43/2/10
f 46/2/11 38/2/11 30/2/11
f 46/2/12 47/2/12 45/2/12
f 47/2/13 26/2/13 25/2/13
f 31/2/14 39/2/14 47/2/14
f 49/3/15 52/3/15 51/3/15
f 52/3/16 53/3/16 51/3/16
f 54/3/17 55/3/17 53/3/17
f 56/3/18 57/3/18 55/3/18
f 58/3/19 59/3/19 57/3/19
f 59/3/20 62/3/20 61/3/20
f 50/3/21 62/3/21 58/3/21
f 62/3/22 63/3/22 61/3/22
f 63/3/23 50/3/23 49/3/23
f 63/3/24 51/3/24 55/3/24
f 66/2/25 67/2/25 65/2/25
f 68/2/26 69/2/26 67/2/26
f 70/2/27 71/2/27 69/2/27
f 72/2/28 73/2/28 71/2/28
f 66/2/11 74/2/11 70/2/11
f 74/2/29 75/2/29 73/2/29
f 76/2/30 65/2/30 75/2/30
f 73/2/14 75/2/14 67/2/14
f 77/2/25 80/2/25 79/2/25
f 79/2/26 82/2/26 81/2/26
f 82/2/27 83/2/27 81/2/27
f 84/2/28 85/2/28 83/2/28
f 78/2/11 86/2/11 82/2/11
f 86/2/29 87/2/29 85/2/29
f 88/2/30 77/2/30 87/2/30
f 85/2/14 87/2/14 79/2/14
f 90/2/25 91/2/25 89/2/25
f 92/2/26 93/2/26 91/2/26
f 94/2/27 95/2/27 93/2/27
f 96/2/28 97/2/28 95/2/28
f 90/2/11 98/2/11 94/2/11
f 98/2/29 99/2/29 97/2/29
f 100/2/30 89/2/30 99/2/30
f 91/2/14 95/2/14 99/2/14
f 101/2/25 104/2/25 103/2/25
f 103/2/26 106/2/26 105/2/26
f 106/2/27 107/2/27 105/2/27
f 108/2/28 109/2/28 107/2/28
f 102/2/11 110/2/11 106/2/11
f 110/2/29 111/2/29 109/2/29
f 112/2/30 101/2/30 111/2/30
f 109/2/14 111/2/14 103/2/14
f 114/2/25 115/2/25 113/2/25
f 116/2/26 117/2/26 115/2/26
f 118/2/27 119/2/27 117/2/27
f 120/2/28 121/2/28 119/2/28
f 114/2/11 122/2/11 118/2/11
f 122/2/29 123/2/29 121/2/29
f 124/2/30 113/2/30 123/2/30
f 115/2/14 119/2/14 123/2/14
f 125/2/25 128/2/25 127/2/25
f 127/2/26 130/2/26 129/2/26
f 130/2/27 131/2/27 129/2/27
f 132/2/28 133/2/28 131/2/28
f 126/2/11 134/2/11 130/2/11
f 134/2/29 135/2/29 133/2/29
f 136/2/30 125/2/30 135/2/30
f 133/2/14 135/2/14 127/2/14
f 138/2/25 139/2/25 137/2/25
f 140/2/26 141/2/26 139/2/26
f 142/2/27 143/2/27 141/2/27
f 144/2/28 145/2/28 143/2/28
f 138/2/11 146/2/11 142/2/11
f 146/2/29 147/2/29 145/2/29
f 148/2/30 137/2/30 147/2/30
f 139/2/14 143/2/14 147/2/14
f 149/2/25 152/2/25 151/2/25
f 151/2/26 154/2/26 153/2/26
f 154/2/27 155/2/27 153/2/27
f 156/2/28 157/2/28 155/2/28
f 150/2/11 158/2/11 154/2/11
f 158/2/29 159/2/29 157/2/29
f 160/2/30 149/2/30 159/2/30
f 157/2/14 159/2/14 151/2/14
f 161/2/31 162/2/31 163/2/31
f 164/2/32 165/2/32 166/2/32
f 167/2/33 168/2/33 169/2/33
f 170/2/34 171/2/34 172/2/34
f 173/2/35 174/2/35 175/2/35
f 176/2/36 177/2/36 178/2/36
f 179/2/37 180/2/37 181/2/37
f 182/2/38 183/2/38 184/2/38
f 161/2/8 168/2/8 167/2/8
f 164/2/39 163/2/39 162/2/39
f 170/2/12 166/2/12 165/2/12
f 169/2/40 172/2/40 171/2/40
f 167/2/41 180/2/41 179/2/41
f 182/2/42 171/2/42 170/2/42
f 181/2/43 184/2/43 183/2/43
f 179/2/5 174/2/5 173/2/5
f 176/2/2 183/2/2 182/2/2
f 175/2/44 178/2/44 177/2/44
f 173/2/45 162/2/45 161/2/45
f 165/2/46 177/2/46 176/2/46
f 179/2/47 161/2/47 167/2/47
f 166/2/29 168/2/29 163/2/29
f 177/2/11 162/2/11 175/2/11
f 170/2/48 176/2/48 182/2/48
f 171/2/14 180/2/14 169/2/14
f 183/2/26 174/2/26 181/2/26
f 185/2/49 186/2/49 187/2/49
f 188/2/50 189/2/50 190/2/50
f 191/2/51 192/2/51 193/2/51
f 194/2/52 195/2/52 196/2/52
f 197/2/53 198/2/53 199/2/53
f 200/2/54 201/2/54 202/2/54
f 203/2/55 204/2/55 205/2/55
f 206/2/56 207/2/56 208/2/56
f 185/2/8 192/2/8 191/2/8
f 188/2/39 187/2/39 186/2/39
f 194/2/12 190/2/12 189/2/12
f 193/2/40 196/2/40 195/2/40
f 191/2/41 204/2/41 203/2/41
f 206/2/42 195/2/42 194/2/42
f 205/2/43 208/2/43 207/2/43
f 203/2/5 198/2/5 197/2/5
f 200/2/2 207/2/2 206/2/2
f 199/2/44 202/2/44 201/2/44
f 197/2/45 186/2/45 185/2/45
f 189/2/46 201/2/46 200/2/46
f 203/2/47 185/2/47 191/2/47
f 190/2/29 192/2/29 187/2/29
f 201/2/11 186/2/11 199/2/11
f 194/2/48 200/2/48 206/2/48
f 195/2/14 204/2/14 193/2/14
f 207/2/26 198/2/26 205/2/26
f 209/2/31 210/2/31 211/2/31
f 212/2/32 213/2/32 214/2/32
f 215/2/33 216/2/33 217/2/33
f 218/2/34 219/2/34 220/2/34
f 221/2/35 222/2/35 223/2/35
f 224/2/36 225/2/36 226/2/36
f 227/2/37 228/2/37 229/2/37
f 230/2/38 231/2/38 232/2/38
f 209/2/8 216/2/8 215/2/8
f 212/2/39 211/2/39 210/2/39
f 218/2/12 214/2/12 213/2/12
f 217/2/40 220/2/40 219/2/40
f 215/2/41 228/2/41 227/2/41
f 230/2/42 219/2/42 218/2/42
f 229/2/43 232/2/43 231/2/43
f 227/2/5 222/2/5 221/2/5
f 224/2/2 231/2/2 230/2/2
f 223/2/44 226/2/44 225/2/44
f 221/2/45 210/2/45 209/2/45
f 213/2/46 225/2/46 224/2/46
f 227/2/47 209/2/47 215/2/47
f 214/2/29 216/2/29 211/2/29
f 225/2/11 210/2/11 223/2/11
f 218/2/48 224/2/48 230/2/48
f 219/2/14 228/2/14 217/2/14
f 231/2/26 222/2/26 229/2/26
f 233/2/31 234/2/31 235/2/31
f 236/2/32 237/2/32 238/2/32
f 239/2/33 240/2/33 241/2/33
f 242/2/34 243/2/34 244/2/34
f 245/2/35 246/2/35 247/2/35
f 248/2/36 249/2/36 250/2/36
f 251/2/37 252/2/37 253/2/37
f 254/2/38 255/2/38 256/2/38
f 233/2/8 240/2/8 239/2/8
f 236/2/39 235/2/39 234/2/39
f 242/2/12 238/2/12 237/2/12
f 241/2/40 244/2/40 243/2/40
f 239/2/41 252/2/41 251/2/41
f 254/2/42 243/2/42 242/2/42
f 253/2/43 256/2/43 255/2/43
f 251/2/5 246/2/5 245/2/5
f 248/2/2 255/2/2 254/2/2
f 247/2/44 250/2/44 249/2/44
f 245/2/45 234/2/45 233/2/45
f 237/2/46 249/2/46 248/2/46
f 251/2/47 233/2/47 239/2/47
f 238/2/29 240/2/29 235/2/29
f 249/2/11 234/2/11 247/2/11
f 242/2/48 248/2/48 254/2/48
f 243/2/14 252/2/14 241/2/14
f 255/2/26 246/2/26 253/2/26
f 257/2/31 258/2/31 259/2/31
f 260/2/32 261/2/32 262/2/32
f 263/2/33 264/2/33 265/2/33
f 266/2/34 267/2/34 268/2/34
f 269/2/35 270/2/35 271/2/35
f 272/2/36 273/2/36 274/2/36
f 275/2/37 276/2/37 277/2/37
f 278/2/38 279/2/38 280/2/38
f 257/2/8 264/2/8 263/2/8
f 260/2/39 259/2/39 258/2/39
f 266/2/12 262/2/12 261/2/12
f 265/2/40 268/2/40 267/2/40
f 263/2/41 276/2/41 275/2/41
f 278/2/42 267/2/42 266/2/42
f 277/2/43 280/2/43 279/2/43
f 275/2/5 270/2/5 269/2/5
f 272/2/2 279/2/2 278/2/2
f 271/2/44 274/2/44 273/2/44
f 269/2/45 258/2/45 257/2/45
f 261/2/46 273/2/46 272/2/46
f 275/2/47 257/2/47 263/2/47
f 262/2/29 264/2/29 259/2/29
f 273/2/11 258/2/11 271/2/11
f 266/2/48 272/2/48 278/2/48
f 267/2/14 276/2/14 265/2/14
f 279/2/26 270/2/26 277/2/26
f 281/2/31 282/2/31 283/2/31
f 284/2/32 285/2/32 286/2/32
f 287/2/33 288/2/33 289/2/33
f 290/2/34 291/2/34 292/2/34
f 293/2/53 294/2/53 295/2/53
f 296/2/54 297/2/54 298/2/54
f 299/2/55 300/2/55 301/2/55
f 302/2/56 303/2/56 304/2/56
f 281/2/8 288/2/8 287/2/8
f 284/2/39 283/2/39 282/2/39
f 290/2/12 286/2/12 285/2/12
f 289/2/40 292/2/40 291/2/40
f 287/2/41 300/2/41 299/2/41
f 302/2/42 291/2/42 290/2/42
f 301/2/43 304/2/43 303/2/43
f 299/2/5 294/2/5 293/2/5
f 296/2/2 303/2/2 302/2/2
f 295/2/44 298/2/44 297/2/44
f 293/2/45 282/2/45 281/2/45
f 285/2/46 297/2/46 296/2/46
f 299/2/47 281/2/47 287/2/47
f 286/2/29 288/2/29 283/2/29
f 297/2/11 282/2/11 295/2/11
f 290/2/48 296/2/48 302/2/48
f 291/2/14 300/2/14 289/2/14
f 303/2/26 294/2/26 301/2/26
f 305/2/31 306/2/31 307/2/31
f 308/2/32 309/2/32 310/2/32
f 311/2/33 312/2/33 313/2/33
f 314/2/34 315/2/34 316/2/34
f 317/2/35 318/2/35 319/2/35
f 320/2/36 321/2/36 322/2/36
f 323/2/37 324/2/37 325/2/37
f 326/2/38 327/2/38 328/2/38
f 305/2/8 312/2/8 311/2/8
f 308/2/39 307/2/39 306/2/39
f 314/2/12 310/2/12 309/2/12
f 313/2/40 316/2/40 315/2/40
f 311/2/41 324/2/41 323/2/41
f 326/2/42 315/2/42 314/2/42
f 325/2/43 328/2/43 327/2/43
f 323/2/5 318/2/5 317/2/5
f 320/2/2 327/2/2 326/2/2
f 319/2/44 322/2/44 321/2/44
f 317/2/45 306/2/45 305/2/45
f 309/2/46 321/2/46 320/2/46
f 323/2/47 305/2/47 311/2/47
f 310/2/29 312/2/29 307/2/29
f 321/2/11 306/2/11 319/2/11
f 314/2/48 320/2/48 326/2/48
f 315/2/14 324/2/14 313/2/14
f 327/2/26 318/2/26 325/2/26
f 2/1/1 4/1/1 3/1/1
f 4/1/2 6/1/2 5/1/2
f 6/1/3 8/1/3 7/1/3
f 8/1/4 10/1/4 9/1/4
f 10/1/5 12/1/5 11/1/5
f 12/1/6 14/1/6 13/1/6
f 14/1/7 16/1/7 15/1/7
f 16/1/8 18/1/8 17/1/8
f 18/1/9 20/1/9 19/1/9
f 20/1/10 22/1/10 21/1/10
f 6/1/11 4/1/11 2/1/11
f 2/1/11 24/1/11 22/1/11
f 22/1/11 20/1/11 18/1/11
f 18/1/11 16/1/11 14/1/11
f 14/1/11 12/1/11 10/1/11
f 10/1/11 8/1/11 6/1/11
f 6/1/11 2/1/11 22/1/11
f 22/1/11 18/1/11 14/1/11
f 14/1/11 10/1/11 22/1/11
f 22/1/12 24/1/12 23/1/12
f 24/1/13 2/1/13 1/1/13
f 23/1/14 1/1/14 7/1/14
f 1/1/14 3/1/14 7/1/14
f 3/1/14 5/1/14 7/1/14
f 7/1/14 9/1/14 11/1/14
f 11/1/14 13/1/14 7/1/14
f 13/1/14 15/1/14 7/1/14
f 15/1/14 17/1/14 19/1/14
f 19/1/14 21/1/14 23/1/14
f 15/1/14 19/1/14 23/1/14
f 26/2/1 28/2/1 27/2/1
f 28/2/2 30/2/2 29/2/2
f 30/2/3 32/2/3 31/2/3
f 32/2/4 34/2/4 33/2/4
f 34/2/5 36/2/5 35/2/5
f 36/2/6 38/2/6 37/2/6
f 38/2/7 40/2/7 39/2/7
f 40/2/8 42/2/8 41/2/8
f 42/2/9 44/2/9 43/2/9
f 44/2/10 46/2/10 45/2/10
f 30/2/11 28/2/11 26/2/11
f 26/2/11 48/2/11 46/2/11
f 46/2/11 44/2/11 42/2/11
f 42/2/11 40/2/11 38/2/11
f 38/2/11 36/2/11 34/2/11
f 34/2/11 32/2/11 30/2/11
f 30/2/11 26/2/11 46/2/11
f 46/2/11 42/2/11 38/2/11
f 38/2/11 34/2/11 30/2/11
f 46/2/12 48/2/12 47/2/12
f 47/2/13 48/2/13 26/2/13
f 47/2/14 25/2/14 27/2/14
f 27/2/14 29/2/14 31/2/14
f 31/2/14 33/2/14 35/2/14
f 35/2/14 37/2/14 39/2/14
f 39/2/14 41/2/14 43/2/14
f 43/2/14 45/2/14 47/2/14
f 47/2/14 27/2/14 31/2/14
f 31/2/14 35/2/14 39/2/14
f 39/2/14 43/2/14 47/2/14
f 49/3/15 50/3/15 52/3/15
f 52/3/16 54/3/16 53/3/16
f 54/3/17 56/3/17 55/3/17
f 56/3/18 58/3/18 57/3/18
f 58/3/19 60/3/19 59/3/19
f 59/3/20 60/3/20 62/3/20
f 54/3/21 52/3/21 50/3/21
f 50/3/21 64/3/21 62/3/21
f 62/3/21 60/3/21 58/3/21
f 58/3/21 56/3/21 54/3/21
f 54/3/21 50/3/21 58/3/21
f 62/3/22 64/3/22 63/3/22
f 63/3/23 64/3/23 50/3/23
f 63/3/24 49/3/24 51/3/24
f 51/3/24 53/3/24 55/3/24
f 55/3/24 57/3/24 59/3/24
f 59/3/24 61/3/24 55/3/24
f 61/3/24 63/3/24 55/3/24
f 66/2/25 68/2/25 67/2/25
f 68/2/26 70/2/26 69/2/26
f 70/2/27 72/2/27 71/2/27
f 72/2/28 74/2/28 73/2/28
f 70/2/11 68/2/11 66/2/11
f 66/2/11 76/2/11 74/2/11
f 74/2/11 72/2/11 70/2/11
f 74/2/29 76/2/29 75/2/29
f 76/2/30 66/2/30 65/2/30
f 75/2/14 65/2/14 67/2/14
f 67/2/14 69/2/14 71/2/14
f 71/2/14 73/2/14 67/2/14
f 77/2/25 78/2/25 80/2/25
f 79/2/26 80/2/26 82/2/26
f 82/2/27 84/2/27 83/2/27
f 84/2/28 86/2/28 85/2/28
f 82/2/11 80/2/11 78/2/11
f 78/2/11 88/2/11 86/2/11
f 86/2/11 84/2/11 82/2/11
f 86/2/29 88/2/29 87/2/29
f 88/2/30 78/2/30 77/2/30
f 87/2/14 77/2/14 79/2/14
f 79/2/14 81/2/14 83/2/14
f 83/2/14 85/2/14 79/2/14
f 90/2/25 92/2/25 91/2/25
f 92/2/26 94/2/26 93/2/26
f 94/2/27 96/2/27 95/2/27
f 96/2/28 98/2/28 97/2/28
f 94/2/11 92/2/11 90/2/11
f 90/2/11 100/2/11 98/2/11
f 98/2/11 96/2/11 94/2/11
f 98/2/29 100/2/29 99/2/29
f 100/2/30 90/2/30 89/2/30
f 99/2/14 89/2/14 91/2/14
f 91/2/14 93/2/14 95/2/14
f 95/2/14 97/2/14 99/2/14
f 101/2/25 102/2/25 104/2/25
f 103/2/26 104/2/26 106/2/26
f 106/2/27 108/2/27 107/2/27
f 108/2/28 110/2/28 109/2/28
f 106/2/11 104/2/11 102/2/11
f 102/2/11 112/2/11 110/2/11
f 110/2/11 108/2/11 106/2/11
f 110/2/29 112/2/29 111/2/29
f 112/2/30 102/2/30 101/2/30
f 111/2/14 101/2/14 103/2/14
f 103/2/14 105/2/14 107/2/14
f 107/2/14 109/2/14 103/2/14
f 114/2/25 116/2/25 115/2/25
f 116/2/26 118/2/26 117/2/26
f 118/2/27 120/2/27 119/2/27
f 120/2/28 122/2/28 121/2/28
f 118/2/11 116/2/11 114/2/11
f 114/2/11 124/2/11 122/2/11
f 122/2/11 120/2/11 118/2/11
f 122/2/29 124/2/29 123/2/29
f 124/2/30 114/2/30 113/2/30
f 123/2/14 113/2/14 115/2/14
f 115/2/14 117/2/14 119/2/14
f 119/2/14 121/2/14 123/2/14
f 125/2/25 126/2/25 128/2/25
f 127/2/26 128/2/26 130/2/26
f 130/2/27 132/2/27 131/2/27
f 132/2/28 134/2/28 133/2/28
f 130/2/11 128/2/11 126/2/11
f 126/2/11 136/2/11 134/2/11
f 134/2/11 132/2/11 130/2/11
f 134/2/29 136/2/29 135/2/29
f 136/2/30 126/2/30 125/2/30
f 135/2/14 125/2/14 127/2/14
f 127/2/14 129/2/14 131/2/14
f 131/2/14 133/2/14 127/2/14
f 138/2/25 140/2/25 139/2/25
f 140/2/26 142/2/26 141/2/26
f 142/2/27 144/2/27 143/2/27
f 144/2/28 146/2/28 145/2/28
f 142/2/11 140/2/11 138/2/11
f 138/2/11 148/2/11 146/2/11
f 146/2/11 144/2/11 142/2/11
f 146/2/29 148/2/29 147/2/29
f 148/2/30 138/2/30 137/2/30
f 147/2/14 137/2/14 139/2/14
f 139/2/14 141/2/14 143/2/14
f 143/2/14 145/2/14 147/2/14
f 149/2/25 150/2/25 152/2/25
f 151/2/26 152/2/26 154/2/26
f 154/2/27 156/2/27 155/2/27
f 156/2/28 158/2/28 157/2/28
f 154/2/11 152/2/11 150/2/11
f 150/2/11 160/2/11 158/2/11
f 158/2/11 156/2/11 154/2/11
f 158/2/29 160/2/29 159/2/29
f 160/2/30 150/2/30 149/2/30
f 159/2/14 149/2/14 151/2/14
f 151/2/14 153/2/14 155/2/14
f 155/2/14 157/2/14 151/2/14
f 161/2/8 163/2/8 168/2/8
f 164/2/39 166/2/39 163/2/39
f 170/2/12 172/2/12 166/2/12
f 169/2/40 168/2/40 172/2/40
f 167/2/41 169/2/41 180/2/41
f 182/2/42 184/2/42 171/2/42
f 181/2/43 180/2/43 184/2/43
f 179/2/5 181/2/5 174/2/5
f 176/2/2 178/2/2 183/2/2
f 175/2/44 174/2/44 178/2/44
f 173/2/45 175/2/45 162/2/45
f 165/2/46 164/2/46 177/2/46
f 179/2/47 173/2/47 161/2/47
f 166/2/29 172/2/29 168/2/29
f 177/2/11 164/2/11 162/2/11
f 170/2/48 165/2/48 176/2/48
f 171/2/14 184/2/14 180/2/14
f 183/2/26 178/2/26 174/2/26
f 185/2/8 187/2/8 192/2/8
f 188/2/39 190/2/39 187/2/39
f 194/2/12 196/2/12 190/2/12
f 193/2/40 192/2/40 196/2/40
f 191/2/41 193/2/41 204/2/41
f 206/2/42 208/2/42 195/2/42
f 205/2/43 204/2/43 208/2/43
f 203/2/5 205/2/5 198/2/5
f 200/2/2 202/2/2 207/2/2
f 199/2/44 198/2/44 202/2/44
f 197/2/45 199/2/45 186/2/45
f 189/2/46 188/2/46 201/2/46
f 203/2/47 197/2/47 185/2/47
f 190/2/29 196/2/29 192/2/29
f 201/2/11 188/2/11 186/2/11
f 194/2/48 189/2/48 200/2/48
f 195/2/14 208/2/14 204/2/14
f 207/2/26 202/2/26 198/2/26
f 209/2/8 211/2/8 216/2/8
f 212/2/39 214/2/39 211/2/39
f 218/2/12 220/2/12 214/2/12
f 217/2/40 216/2/40 220/2/40
f 215/2/41 217/2/41 228/2/41
f 230/2/42 232/2/42 219/2/42
f 229/2/43 228/2/43 232/2/43
f 227/2/5 229/2/5 222/2/5
f 224/2/2 226/2/2 231/2/2
f 223/2/44 222/2/44 226/2/44
f 221/2/45 223/2/45 210/2/45
f 213/2/46 212/2/46 225/2/46
f 227/2/47 221/2/47 209/2/47
f 214/2/29 220/2/29 216/2/29
f 225/2/11 212/2/11 210/2/11
f 218/2/48 213/2/48 224/2/48
f 219/2/14 232/2/14 228/2/14
f 231/2/26 226/2/26 222/2/26
f 233/2/8 235/2/8 240/2/8
f 236/2/39 238/2/39 235/2/39
f 242/2/12 244/2/12 238/2/12
f 241/2/40 240/2/40 244/2/40
f 239/2/41 241/2/41 252/2/41
f 254/2/42 256/2/42 243/2/42
f 253/2/43 252/2/43 256/2/43
f 251/2/5 253/2/5 246/2/5
f 248/2/2 250/2/2 255/2/2
f 247/2/44 246/2/44 250/2/44
f 245/2/45 247/2/45 234/2/45
f 237/2/46 236/2/46 249/2/46
f 251/2/47 245/2/47 233/2/47
f 238/2/29 244/2/29 240/2/29
f 249/2/11 236/2/11 234/2/11
f 242/2/48 237/2/48 248/2/48
f 243/2/14 256/2/14 252/2/14
f 255/2/26 250/2/26 246/2/26
f 257/2/8 259/2/8 264/2/8
f 260/2/39 262/2/39 259/2/39
f 266/2/12 268/2/12 262/2/12
f 265/2/40 264/2/40 268/2/40
f 263/2/41 265/2/41 276/2/41
f 278/2/42 280/2/42 267/2/42
f 277/2/43 276/2/43 280/2/43
f 275/2/5 277/2/5 270/2/5
f 272/2/2 274/2/2 279/2/2
f 271/2/44 270/2/44 274/2/44
f 269/2/45 271/2/45 258/2/45
f 261/2/46 260/2/46 273/2/46
f 275/2/47 269/2/47 257/2/47
f 262/2/29 268/2/29 264/2/29
f 273/2/11 260/2/11 258/2/11
f 266/2/48 261/2/48 272/2/48
f 267/2/14 280/2/14 276/2/14
f 279/2/26 274/2/26 270/2/26
f 281/2/8 283/2/8 288/2/8
f 284/2/39 286/2/39 283/2/39
f 290/2/12 292/2/12 286/2/12
f 289/2/40 288/2/40 292/2/40
f 287/2/41 289/2/41 300/2/41
f 302/2/42 304/2/42 291/2/42
f 301/2/43 300/2/43 304/2/43
f 299/2/5 301/2/5 294/2/5
f 296/2/2 298/2/2 303/2/2
f 295/2/44 294/2/44 298/2/44
f 293/2/45 295/2/45 282/2/45
f 285/2/46 284/2/46 297/2/46
f 299/2/47 293/2/47 281/2/47
f 286/2/29 292/2/29 288/2/29
f 297/2/11 284/2/11 282/2/11
f 290/2/48 285/2/48 296/2/48
f 291/2/14 304/2/14 300/2/14
f 303/2/26 298/2/26 294/2/26
f 305/2/8 307/2/8 312/2/8
f 308/2/39 310/2/39 307/2/39
f 314/2/12 316/2/12 310/2/12
f 313/2/40 312/2/40 316/2/40
f 311/2/41 313/2/41 324/2/41
f 326/2/42 328/2/42 315/2/42
f 325/2/43 324/2/43 328/2/43
f 323/2/5 325/2/5 318/2/5
f 320/2/2 322/2/2 327/2/2
f 319/2/44 318/2/44 322/2/44
f 317/2/45 319/2/45 306/2/45
f 309/2/46 308/2/46 321/2/46
f 323/2/47 317/2/47 305/2/47
f 310/2/29 316/2/29 312/2/29
f 321/2/11 308/2/11 306/2/11
f 314/2/48 309/2/48 320/2/48
f 315/2/14 328/2/14 324/2/14
f 327/2/26 322/2/26 318/2/26
