# Blender 5.2.1 LTS
# www.blender.org
mtllib detail_satellite.mtl
o detail_satellite
v -0.575000 0.350000 4.850000
v -0.575000 0.375000 4.875000
v -0.600000 0.375000 4.850000
v -0.575000 1.625000 4.875000
v -0.575000 1.650000 4.850000
v -0.600000 1.625000 4.850000
v -0.575000 0.350000 4.750000
v -0.600000 0.375000 4.750000
v -0.575000 0.375000 4.725000
v -0.575000 1.650000 4.750000
v -0.575000 1.625000 4.725000
v -0.600000 1.625000 4.750000
v 0.575000 0.350000 4.850000
v 0.600000 0.375000 4.850000
v 0.575000 0.375000 4.875000
v 0.575000 1.650000 4.850000
v 0.575000 1.625000 4.875000
v 0.600000 1.625000 4.850000
v 0.575000 0.350000 4.750000
v 0.575000 0.375000 4.725000
v 0.600000 0.375000 4.750000
v 0.575000 1.650000 4.750000
v 0.600000 1.625000 4.750000
v 0.575000 1.625000 4.725000
v -0.480000 0.512000 4.875000
v -0.480000 0.512000 4.903000
v -0.452287 0.496000 4.875000
v -0.452287 0.496000 4.903000
v -0.452287 0.464000 4.875000
v -0.452287 0.464000 4.903000
v -0.480000 0.448000 4.875000
v -0.480000 0.448000 4.903000
v -0.507713 0.464000 4.875000
v -0.507713 0.464000 4.903000
v -0.507713 0.496000 4.875000
v -0.507713 0.496000 4.903000
v -0.480000 1.552000 4.875000
v -0.480000 1.552000 4.903000
v -0.452287 1.536000 4.875000
v -0.452287 1.536000 4.903000
v -0.452287 1.504000 4.875000
v -0.452287 1.504000 4.903000
v -0.480000 1.488000 4.875000
v -0.480000 1.488000 4.903000
v -0.507713 1.504000 4.875000
v -0.507713 1.504000 4.903000
v -0.507713 1.536000 4.875000
v -0.507713 1.536000 4.903000
v 0.480000 0.512000 4.875000
v 0.480000 0.512000 4.903000
v 0.507713 0.496000 4.875000
v 0.507713 0.496000 4.903000
v 0.507713 0.464000 4.875000
v 0.507713 0.464000 4.903000
v 0.480000 0.448000 4.875000
v 0.480000 0.448000 4.903000
v 0.452287 0.464000 4.875000
v 0.452287 0.464000 4.903000
v 0.452287 0.496000 4.875000
v 0.452287 0.496000 4.903000
v 0.480000 1.552000 4.875000
v 0.480000 1.552000 4.903000
v 0.507713 1.536000 4.875000
v 0.507713 1.536000 4.903000
v 0.507713 1.504000 4.875000
v 0.507713 1.504000 4.903000
v 0.480000 1.488000 4.875000
v 0.480000 1.488000 4.903000
v 0.452287 1.504000 4.875000
v 0.452287 1.504000 4.903000
v 0.452287 1.536000 4.875000
v 0.452287 1.536000 4.903000
v -0.400000 1.250000 4.887500
v -0.400000 1.250000 4.912500
v -0.375000 1.243301 4.887500
v -0.375000 1.243301 4.912500
v -0.356699 1.225000 4.887500
v -0.356699 1.225000 4.912500
v -0.350000 1.200000 4.887500
v -0.350000 1.200000 4.912500
v -0.356699 1.175000 4.887500
v -0.356699 1.175000 4.912500
v -0.375000 1.156699 4.887500
v -0.375000 1.156699 4.912500
v -0.400000 1.150000 4.887500
v -0.400000 1.150000 4.912500
v -0.425000 1.156699 4.887500
v -0.425000 1.156699 4.912500
v -0.443301 1.175000 4.887500
v -0.443301 1.175000 4.912500
v -0.450000 1.200000 4.887500
v -0.450000 1.200000 4.912500
v -0.443301 1.225000 4.887500
v -0.443301 1.225000 4.912500
v -0.425000 1.243301 4.887500
v -0.425000 1.243301 4.912500
v 0.000000 1.250000 4.887500
v 0.000000 1.250000 4.912500
v 0.025000 1.243301 4.887500
v 0.025000 1.243301 4.912500
v 0.043301 1.225000 4.887500
v 0.043301 1.225000 4.912500
v 0.050000 1.200000 4.887500
v 0.050000 1.200000 4.912500
v 0.043301 1.175000 4.887500
v 0.043301 1.175000 4.912500
v 0.025000 1.156699 4.887500
v 0.025000 1.156699 4.912500
v 0.000000 1.150000 4.887500
v 0.000000 1.150000 4.912500
v -0.025000 1.156699 4.887500
v -0.025000 1.156699 4.912500
v -0.043301 1.175000 4.887500
v -0.043301 1.175000 4.912500
v -0.050000 1.200000 4.887500
v -0.050000 1.200000 4.912500
v -0.043301 1.225000 4.887500
v -0.043301 1.225000 4.912500
v -0.025000 1.243301 4.887500
v -0.025000 1.243301 4.912500
v 0.400000 1.250000 4.887500
v 0.400000 1.250000 4.912500
v 0.425000 1.243301 4.887500
v 0.425000 1.243301 4.912500
v 0.443301 1.225000 4.887500
v 0.443301 1.225000 4.912500
v 0.450000 1.200000 4.887500
v 0.450000 1.200000 4.912500
v 0.443301 1.175000 4.887500
v 0.443301 1.175000 4.912500
v 0.425000 1.156699 4.887500
v 0.425000 1.156699 4.912500
v 0.400000 1.150000 4.887500
v 0.400000 1.150000 4.912500
v 0.375000 1.156699 4.887500
v 0.375000 1.156699 4.912500
v 0.356699 1.175000 4.887500
v 0.356699 1.175000 4.912500
v 0.350000 1.200000 4.887500
v 0.350000 1.200000 4.912500
v 0.356699 1.225000 4.887500
v 0.356699 1.225000 4.912500
v 0.375000 1.243301 4.887500
v 0.375000 1.243301 4.912500
v -0.494000 0.532500 4.909000
v -0.494000 0.538500 4.915000
v -0.500000 0.538500 4.909000
v -0.494000 0.561500 4.915000
v -0.494000 0.567500 4.909000
v -0.500000 0.561500 4.909000
v -0.494000 0.532500 4.891000
v -0.500000 0.538500 4.891000
v -0.494000 0.538500 4.885000
v -0.494000 0.567500 4.891000
v -0.494000 0.561500 4.885000
v -0.500000 0.561500 4.891000
v 0.494000 0.532500 4.909000
v 0.500000 0.538500 4.909000
v 0.494000 0.538500 4.915000
v 0.494000 0.567500 4.909000
v 0.494000 0.561500 4.915000
v 0.500000 0.561500 4.909000
v 0.494000 0.532500 4.891000
v 0.494000 0.538500 4.885000
v 0.500000 0.538500 4.891000
v 0.494000 0.567500 4.891000
v 0.500000 0.561500 4.891000
v 0.494000 0.561500 4.885000
v -0.494000 0.632500 4.909000
v -0.494000 0.638500 4.915000
v -0.500000 0.638500 4.909000
v -0.494000 0.661500 4.915000
v -0.494000 0.667500 4.909000
v -0.500000 0.661500 4.909000
v -0.494000 0.632500 4.891000
v -0.500000 0.638500 4.891000
v -0.494000 0.638500 4.885000
v -0.494000 0.667500 4.891000
v -0.494000 0.661500 4.885000
v -0.500000 0.661500 4.891000
v 0.494000 0.632500 4.909000
v 0.500000 0.638500 4.909000
v 0.494000 0.638500 4.915000
v 0.494000 0.667500 4.909000
v 0.494000 0.661500 4.915000
v 0.500000 0.661500 4.909000
v 0.494000 0.632500 4.891000
v 0.494000 0.638500 4.885000
v 0.500000 0.638500 4.891000
v 0.494000 0.667500 4.891000
v 0.500000 0.661500 4.891000
v 0.494000 0.661500 4.885000
v -0.494000 0.732500 4.909000
v -0.494000 0.738500 4.915000
v -0.500000 0.738500 4.909000
v -0.494000 0.761500 4.915000
v -0.494000 0.767500 4.909000
v -0.500000 0.761500 4.909000
v -0.494000 0.732500 4.891000
v -0.500000 0.738500 4.891000
v -0.494000 0.738500 4.885000
v -0.494000 0.767500 4.891000
v -0.494000 0.761500 4.885000
v -0.500000 0.761500 4.891000
v 0.494000 0.732500 4.909000
v 0.500000 0.738500 4.909000
v 0.494000 0.738500 4.915000
v 0.494000 0.767500 4.909000
v 0.494000 0.761500 4.915000
v 0.500000 0.761500 4.909000
v 0.494000 0.732500 4.891000
v 0.494000 0.738500 4.885000
v 0.500000 0.738500 4.891000
v 0.494000 0.767500 4.891000
v 0.500000 0.761500 4.891000
v 0.494000 0.761500 4.885000
v -0.494000 0.832500 4.909000
v -0.494000 0.838500 4.915000
v -0.500000 0.838500 4.909000
v -0.494000 0.861500 4.915000
v -0.494000 0.867500 4.909000
v -0.500000 0.861500 4.909000
v -0.494000 0.832500 4.891000
v -0.500000 0.838500 4.891000
v -0.494000 0.838500 4.885000
v -0.494000 0.867500 4.891000
v -0.494000 0.861500 4.885000
v -0.500000 0.861500 4.891000
v 0.494000 0.832500 4.909000
v 0.500000 0.838500 4.909000
v 0.494000 0.838500 4.915000
v 0.494000 0.867500 4.909000
v 0.494000 0.861500 4.915000
v 0.500000 0.861500 4.909000
v 0.494000 0.832500 4.891000
v 0.494000 0.838500 4.885000
v 0.500000 0.838500 4.891000
v 0.494000 0.867500 4.891000
v 0.500000 0.861500 4.891000
v 0.494000 0.861500 4.885000
v -0.494000 0.932500 4.909000
v -0.494000 0.938500 4.915000
v -0.500000 0.938500 4.909000
v -0.494000 0.961500 4.915000
v -0.494000 0.967500 4.909000
v -0.500000 0.961500 4.909000
v -0.494000 0.932500 4.891000
v -0.500000 0.938500 4.891000
v -0.494000 0.938500 4.885000
v -0.494000 0.967500 4.891000
v -0.494000 0.961500 4.885000
v -0.500000 0.961500 4.891000
v 0.494000 0.932500 4.909000
v 0.500000 0.938500 4.909000
v 0.494000 0.938500 4.915000
v 0.494000 0.967500 4.909000
v 0.494000 0.961500 4.915000
v 0.500000 0.961500 4.909000
v 0.494000 0.932500 4.891000
v 0.494000 0.938500 4.885000
v 0.500000 0.938500 4.891000
v 0.494000 0.967500 4.891000
v 0.500000 0.961500 4.891000
v 0.494000 0.961500 4.885000
vn -0.5773 -0.5774 0.5774
vn -0.5773 0.5774 0.5774
vn -0.5773 -0.5773 -0.5774
vn -0.5774 0.5773 -0.5774
vn 0.5773 -0.5774 0.5774
vn 0.5773 0.5774 0.5774
vn 0.5773 -0.5773 -0.5774
vn 0.5774 0.5773 -0.5774
vn -0.7071 -0.7071 -0.0000
vn -0.7071 -0.0000 0.7071
vn -0.7071 0.7071 -0.0000
vn -0.7071 -0.0000 -0.7071
vn -0.0000 -0.7071 -0.7071
vn -0.0000 0.7071 -0.7071
vn 0.7071 -0.0000 -0.7071
vn 0.7071 -0.7071 -0.0000
vn 0.7071 0.7071 -0.0000
vn 0.7071 -0.0000 0.7071
vn -0.0000 -0.7071 0.7071
vn -0.0000 0.7071 0.7071
vn -0.0000 -1.0000 -0.0000
vn -1.0000 -0.0000 -0.0000
vn -0.0000 -0.0000 1.0000
vn -0.0000 1.0000 -0.0000
vn -0.0000 -0.0000 -1.0000
vn 1.0000 -0.0000 -0.0000
vn 0.5000 0.8660 -0.0000
vn 0.5000 -0.8660 -0.0000
vn -0.5000 -0.8660 -0.0000
vn -0.5000 0.8660 -0.0000
vn 0.2588 0.9659 -0.0000
vn 0.9659 0.2588 -0.0000
vn 0.9659 -0.2588 -0.0000
vn 0.2588 -0.9659 -0.0000
vn -0.2588 -0.9659 -0.0000
vn -0.9659 -0.2588 -0.0000
vn -0.9659 0.2588 -0.0000
vn -0.2588 0.9659 -0.0000
vn -0.5774 -0.5773 0.5774
vn -0.5774 0.5773 0.5774
vn -0.5774 -0.5773 -0.5774
vn 0.5774 -0.5773 0.5774
vn 0.5774 0.5773 0.5774
vn 0.5774 -0.5773 -0.5774
vn -0.0000 -0.7071 0.7072
vn -0.0000 0.7071 0.7072
vn -0.0000 -0.7070 0.7072
vn -0.0000 0.7070 0.7072
vn -0.0000 -0.7072 0.7070
vn -0.0000 0.7072 0.7070
vn -0.0000 -0.7072 0.7071
vn -0.0000 0.7072 0.7071
vt 0.625000 0.125000
vt 0.125000 0.625000
vt 0.375000 0.625000
s 0
usemtl WorldPickupPalette
f 1/1/1 2/1/1 3/1/1
f 4/1/2 5/1/2 6/1/2
f 7/1/3 8/1/3 9/1/3
f 10/1/4 11/1/4 12/1/4
f 13/1/5 14/1/5 15/1/5
f 16/1/6 17/1/6 18/1/6
f 19/1/7 20/1/7 21/1/7
f 22/1/8 23/1/8 24/1/8
f 1/1/9 8/1/9 7/1/9
f 4/1/10 3/1/10 2/1/10
f 10/1/11 6/1/11 5/1/11
f 9/1/12 12/1/12 11/1/12
f 7/1/13 20/1/13 19/1/13
f 22/1/14 11/1/14 10/1/14
f 21/1/15 24/1/15 23/1/15
f 19/1/16 14/1/16 13/1/16
f 16/1/17 23/1/17 22/1/17
f 15/1/18 18/1/18 17/1/18
f 13/1/19 2/1/19 1/1/19
f 5/1/20 17/1/20 16/1/20
f 19/1/21 1/1/21 7/1/21
f 6/1/22 8/1/22 3/1/22
f 17/1/23 2/1/23 15/1/23
f 10/1/24 16/1/24 22/1/24
f 11/1/25 20/1/25 9/1/25
f 23/1/26 14/1/26 21/1/26
f 26/2/27 27/2/27 25/2/27
f 28/2/26 29/2/26 27/2/26
f 30/2/28 31/2/28 29/2/28
f 32/2/29 33/2/29 31/2/29
f 34/2/23 32/2/23 30/2/23
f 34/2/22 35/2/22 33/2/22
f 36/2/30 25/2/30 35/2/30
f 33/2/25 35/2/25 27/2/25
f 38/2/27 39/2/27 37/2/27
f 40/2/26 41/2/26 39/2/26
f 42/2/28 43/2/28 41/2/28
f 44/2/29 45/2/29 43/2/29
f 46/2/23 44/2/23 42/2/23
f 46/2/22 47/2/22 45/2/22
f 48/2/30 37/2/30 47/2/30
f 45/2/25 47/2/25 39/2/25
f 50/2/27 51/2/27 49/2/27
f 52/2/26 53/2/26 51/2/26
f 54/2/28 55/2/28 53/2/28
f 56/2/29 57/2/29 55/2/29
f 58/2/23 56/2/23 54/2/23
f 58/2/22 59/2/22 57/2/22
f 60/2/30 49/2/30 59/2/30
f 55/2/25 57/2/25 59/2/25
f 62/2/27 63/2/27 61/2/27
f 64/2/26 65/2/26 63/2/26
f 66/2/28 67/2/28 65/2/28
f 68/2/29 69/2/29 67/2/29
f 70/2/23 68/2/23 66/2/23
f 70/2/22 71/2/22 69/2/22
f 72/2/30 61/2/30 71/2/30
f 69/2/25 71/2/25 63/2/25
f 74/3/31 75/3/31 73/3/31
f 76/3/17 77/3/17 75/3/17
f 78/3/32 79/3/32 77/3/32
f 80/3/33 81/3/33 79/3/33
f 82/3/16 83/3/16 81/3/16
f 84/3/34 85/3/34 83/3/34
f 86/3/35 87/3/35 85/3/35
f 88/3/9 89/3/9 87/3/9
f 90/3/36 91/3/36 89/3/36
f 92/3/37 93/3/37 91/3/37
f 86/3/23 82/3/23 78/3/23
f 94/3/11 95/3/11 93/3/11
f 96/3/38 73/3/38 95/3/38
f 75/3/25 79/3/25 87/3/25
f 98/3/31 99/3/31 97/3/31
f 100/3/17 101/3/17 99/3/17
f 102/3/32 103/3/32 101/3/32
f 104/3/33 105/3/33 103/3/33
f 106/3/16 107/3/16 105/3/16
f 108/3/34 109/3/34 107/3/34
f 110/3/35 111/3/35 109/3/35
f 112/3/9 113/3/9 111/3/9
f 114/3/36 115/3/36 113/3/36
f 116/3/37 117/3/37 115/3/37
f 98/3/23 118/3/23 110/3/23
f 118/3/11 119/3/11 117/3/11
f 120/3/38 97/3/38 119/3/38
f 99/3/25 103/3/25 111/3/25
f 122/3/31 123/3/31 121/3/31
f 124/3/17 125/3/17 123/3/17
f 126/3/32 127/3/32 125/3/32
f 128/3/33 129/3/33 127/3/33
f 130/3/16 131/3/16 129/3/16
f 132/3/34 133/3/34 131/3/34
f 134/3/35 135/3/35 133/3/35
f 136/3/9 137/3/9 135/3/9
f 138/3/36 139/3/36 137/3/36
f 140/3/37 141/3/37 139/3/37
f 134/3/23 130/3/23 126/3/23
f 142/3/11 143/3/11 141/3/11
f 144/3/38 121/3/38 143/3/38
f 123/3/25 127/3/25 135/3/25
f 145/2/39 146/2/39 147/2/39
f 148/2/40 149/2/40 150/2/40
f 151/2/41 152/2/41 153/2/41
f 154/2/4 155/2/4 156/2/4
f 157/2/42 158/2/42 159/2/42
f 160/2/43 161/2/43 162/2/43
f 163/2/44 164/2/44 165/2/44
f 166/2/8 167/2/8 168/2/8
f 145/2/9 152/2/9 151/2/9
f 148/2/10 147/2/10 146/2/10
f 154/2/11 150/2/11 149/2/11
f 153/2/12 156/2/12 155/2/12
f 151/2/13 164/2/13 163/2/13
f 166/2/14 155/2/14 154/2/14
f 165/2/15 168/2/15 167/2/15
f 163/2/16 158/2/16 157/2/16
f 160/2/17 167/2/17 166/2/17
f 159/2/18 162/2/18 161/2/18
f 157/2/45 146/2/45 145/2/45
f 149/2/46 161/2/46 160/2/46
f 163/2/21 145/2/21 151/2/21
f 150/2/22 152/2/22 147/2/22
f 161/2/23 146/2/23 159/2/23
f 154/2/24 160/2/24 166/2/24
f 155/2/25 164/2/25 153/2/25
f 167/2/26 158/2/26 165/2/26
f 169/2/39 170/2/39 171/2/39
f 172/2/40 173/2/40 174/2/40
f 175/2/41 176/2/41 177/2/41
f 178/2/4 179/2/4 180/2/4
f 181/2/42 182/2/42 183/2/42
f 184/2/43 185/2/43 186/2/43
f 187/2/44 188/2/44 189/2/44
f 190/2/8 191/2/8 192/2/8
f 169/2/9 176/2/9 175/2/9
f 172/2/10 171/2/10 170/2/10
f 178/2/11 174/2/11 173/2/11
f 177/2/12 180/2/12 179/2/12
f 175/2/13 188/2/13 187/2/13
f 190/2/14 179/2/14 178/2/14
f 189/2/15 192/2/15 191/2/15
f 187/2/16 182/2/16 181/2/16
f 184/2/17 191/2/17 190/2/17
f 183/2/18 186/2/18 185/2/18
f 181/2/47 170/2/47 169/2/47
f 173/2/48 185/2/48 184/2/48
f 187/2/21 169/2/21 175/2/21
f 174/2/22 176/2/22 171/2/22
f 185/2/23 170/2/23 183/2/23
f 178/2/24 184/2/24 190/2/24
f 179/2/25 188/2/25 177/2/25
f 191/2/26 182/2/26 189/2/26
f 193/2/39 194/2/39 195/2/39
f 196/2/40 197/2/40 198/2/40
f 199/2/41 200/2/41 201/2/41
f 202/2/4 203/2/4 204/2/4
f 205/2/42 206/2/42 207/2/42
f 208/2/43 209/2/43 210/2/43
f 211/2/44 212/2/44 213/2/44
f 214/2/8 215/2/8 216/2/8
f 193/2/9 200/2/9 199/2/9
f 196/2/10 195/2/10 194/2/10
f 202/2/11 198/2/11 197/2/11
f 201/2/12 204/2/12 203/2/12
f 199/2/13 212/2/13 211/2/13
f 214/2/14 203/2/14 202/2/14
f 213/2/15 216/2/15 215/2/15
f 211/2/16 206/2/16 205/2/16
f 208/2/17 215/2/17 214/2/17
f 207/2/18 210/2/18 209/2/18
f 205/2/47 194/2/47 193/2/47
f 197/2/46 209/2/46 208/2/46
f 211/2/21 193/2/21 199/2/21
f 198/2/22 200/2/22 195/2/22
f 209/2/23 194/2/23 207/2/23
f 202/2/24 208/2/24 214/2/24
f 203/2/25 212/2/25 201/2/25
f 215/2/26 206/2/26 213/2/26
f 217/2/39 218/2/39 219/2/39
f 220/2/40 221/2/40 222/2/40
f 223/2/41 224/2/41 225/2/41
f 226/2/4 227/2/4 228/2/4
f 229/2/42 230/2/42 231/2/42
f 232/2/43 233/2/43 234/2/43
f 235/2/44 236/2/44 237/2/44
f 238/2/8 239/2/8 240/2/8
f 217/2/9 224/2/9 223/2/9
f 220/2/10 219/2/10 218/2/10
f 226/2/11 222/2/11 221/2/11
f 225/2/12 228/2/12 227/2/12
f 223/2/13 236/2/13 235/2/13
f 238/2/14 227/2/14 226/2/14
f 237/2/15 240/2/15 239/2/15
f 235/2/16 230/2/16 229/2/16
f 232/2/17 239/2/17 238/2/17
f 231/2/18 234/2/18 233/2/18
f 229/2/45 218/2/45 217/2/45
f 221/2/46 233/2/46 232/2/46
f 235/2/21 217/2/21 223/2/21
f 222/2/22 224/2/22 219/2/22
f 233/2/23 218/2/23 231/2/23
f 226/2/24 232/2/24 238/2/24
f 227/2/25 236/2/25 225/2/25
f 239/2/26 230/2/26 237/2/26
f 241/2/39 242/2/39 243/2/39
f 244/2/40 245/2/40 246/2/40
f 247/2/41 248/2/41 249/2/41
f 250/2/4 251/2/4 252/2/4
f 253/2/42 254/2/42 255/2/42
f 256/2/43 257/2/43 258/2/43
f 259/2/44 260/2/44 261/2/44
f 262/2/8 263/2/8 264/2/8
f 241/2/9 248/2/9 247/2/9
f 244/2/10 243/2/10 242/2/10
f 250/2/11 246/2/11 245/2/11
f 249/2/12 252/2/12 251/2/12
f 247/2/13 260/2/13 259/2/13
f 262/2/14 251/2/14 250/2/14
f 261/2/15 264/2/15 263/2/15
f 259/2/16 254/2/16 253/2/16
f 256/2/17 263/2/17 262/2/17
f 255/2/18 258/2/18 257/2/18
f 253/2/45 242/2/45 241/2/45
f 245/2/46 257/2/46 256/2/46
f 259/2/21 241/2/21 247/2/21
f 246/2/22 248/2/22 243/2/22
f 257/2/23 242/2/23 255/2/23
f 250/2/24 256/2/24 262/2/24
f 251/2/25 260/2/25 249/2/25
f 263/2/26 254/2/26 261/2/26
f 1/1/9 3/1/9 8/1/9
f 4/1/10 6/1/10 3/1/10
f 10/1/11 12/1/11 6/1/11
f 9/1/12 8/1/12 12/1/12
f 7/1/13 9/1/13 20/1/13
f 22/1/14 24/1/14 11/1/14
f 21/1/15 20/1/15 24/1/15
f 19/1/16 21/1/16 14/1/16
f 16/1/17 18/1/17 23/1/17
f 15/1/18 14/1/18 18/1/18
f 13/1/19 15/1/19 2/1/19
f 5/1/20 4/1/20 17/1/20
f 19/1/21 13/1/21 1/1/21
f 6/1/22 12/1/22 8/1/22
f 17/1/23 4/1/23 2/1/23
f 10/1/24 5/1/24 16/1/24
f 11/1/25 24/1/25 20/1/25
f 23/1/26 18/1/26 14/1/26
f 26/2/27 28/2/27 27/2/27
f 28/2/26 30/2/26 29/2/26
f 30/2/28 32/2/28 31/2/28
f 32/2/29 34/2/29 33/2/29
f 30/2/23 28/2/23 26/2/23
f 26/2/23 36/2/23 30/2/23
f 36/2/23 34/2/23 30/2/23
f 34/2/22 36/2/22 35/2/22
f 36/2/30 26/2/30 25/2/30
f 35/2/25 25/2/25 27/2/25
f 27/2/25 29/2/25 31/2/25
f 31/2/25 33/2/25 27/2/25
f 38/2/27 40/2/27 39/2/27
f 40/2/26 42/2/26 41/2/26
f 42/2/28 44/2/28 43/2/28
f 44/2/29 46/2/29 45/2/29
f 42/2/23 40/2/23 46/2/23
f 40/2/23 38/2/23 46/2/23
f 38/2/23 48/2/23 46/2/23
f 46/2/22 48/2/22 47/2/22
f 48/2/30 38/2/30 37/2/30
f 47/2/25 37/2/25 39/2/25
f 39/2/25 41/2/25 43/2/25
f 43/2/25 45/2/25 39/2/25
f 50/2/27 52/2/27 51/2/27
f 52/2/26 54/2/26 53/2/26
f 54/2/28 56/2/28 55/2/28
f 56/2/29 58/2/29 57/2/29
f 54/2/23 52/2/23 58/2/23
f 52/2/23 50/2/23 58/2/23
f 50/2/23 60/2/23 58/2/23
f 58/2/22 60/2/22 59/2/22
f 60/2/30 50/2/30 49/2/30
f 59/2/25 49/2/25 51/2/25
f 51/2/25 53/2/25 59/2/25
f 53/2/25 55/2/25 59/2/25
f 62/2/27 64/2/27 63/2/27
f 64/2/26 66/2/26 65/2/26
f 66/2/28 68/2/28 67/2/28
f 68/2/29 70/2/29 69/2/29
f 66/2/23 64/2/23 70/2/23
f 64/2/23 62/2/23 70/2/23
f 62/2/23 72/2/23 70/2/23
f 70/2/22 72/2/22 71/2/22
f 72/2/30 62/2/30 61/2/30
f 71/2/25 61/2/25 63/2/25
f 63/2/25 65/2/25 67/2/25
f 67/2/25 69/2/25 63/2/25
f 74/3/31 76/3/31 75/3/31
f 76/3/17 78/3/17 77/3/17
f 78/3/32 80/3/32 79/3/32
f 80/3/33 82/3/33 81/3/33
f 82/3/16 84/3/16 83/3/16
f 84/3/34 86/3/34 85/3/34
f 86/3/35 88/3/35 87/3/35
f 88/3/9 90/3/9 89/3/9
f 90/3/36 92/3/36 91/3/36
f 92/3/37 94/3/37 93/3/37
f 78/3/23 76/3/23 74/3/23
f 74/3/23 96/3/23 94/3/23
f 94/3/23 92/3/23 90/3/23
f 90/3/23 88/3/23 94/3/23
f 88/3/23 86/3/23 94/3/23
f 86/3/23 84/3/23 82/3/23
f 82/3/23 80/3/23 78/3/23
f 78/3/23 74/3/23 86/3/23
f 74/3/23 94/3/23 86/3/23
f 94/3/11 96/3/11 95/3/11
f 96/3/38 74/3/38 73/3/38
f 95/3/25 73/3/25 75/3/25
f 75/3/25 77/3/25 79/3/25
f 79/3/25 81/3/25 87/3/25
f 81/3/25 83/3/25 87/3/25
f 83/3/25 85/3/25 87/3/25
f 87/3/25 89/3/25 91/3/25
f 91/3/25 93/3/25 87/3/25
f 93/3/25 95/3/25 87/3/25
f 95/3/25 75/3/25 87/3/25
f 98/3/31 100/3/31 99/3/31
f 100/3/17 102/3/17 101/3/17
f 102/3/32 104/3/32 103/3/32
f 104/3/33 106/3/33 105/3/33
f 106/3/16 108/3/16 107/3/16
f 108/3/34 110/3/34 109/3/34
f 110/3/35 112/3/35 111/3/35
f 112/3/9 114/3/9 113/3/9
f 114/3/36 116/3/36 115/3/36
f 116/3/37 118/3/37 117/3/37
f 102/3/23 100/3/23 98/3/23
f 98/3/23 120/3/23 118/3/23
f 118/3/23 116/3/23 114/3/23
f 114/3/23 112/3/23 118/3/23
f 112/3/23 110/3/23 118/3/23
f 110/3/23 108/3/23 102/3/23
f 108/3/23 106/3/23 102/3/23
f 106/3/23 104/3/23 102/3/23
f 102/3/23 98/3/23 110/3/23
f 118/3/11 120/3/11 119/3/11
f 120/3/38 98/3/38 97/3/38
f 119/3/25 97/3/25 99/3/25
f 99/3/25 101/3/25 103/3/25
f 103/3/25 105/3/25 107/3/25
f 107/3/25 109/3/25 103/3/25
f 109/3/25 111/3/25 103/3/25
f 111/3/25 113/3/25 115/3/25
f 115/3/25 117/3/25 111/3/25
f 117/3/25 119/3/25 111/3/25
f 119/3/25 99/3/25 111/3/25
f 122/3/31 124/3/31 123/3/31
f 124/3/17 126/3/17 125/3/17
f 126/3/32 128/3/32 127/3/32
f 128/3/33 130/3/33 129/3/33
f 130/3/16 132/3/16 131/3/16
f 132/3/34 134/3/34 133/3/34
f 134/3/35 136/3/35 135/3/35
f 136/3/9 138/3/9 137/3/9
f 138/3/36 140/3/36 139/3/36
f 140/3/37 142/3/37 141/3/37
f 126/3/23 124/3/23 122/3/23
f 122/3/23 144/3/23 142/3/23
f 142/3/23 140/3/23 138/3/23
f 138/3/23 136/3/23 142/3/23
f 136/3/23 134/3/23 142/3/23
f 134/3/23 132/3/23 130/3/23
f 130/3/23 128/3/23 126/3/23
f 126/3/23 122/3/23 134/3/23
f 122/3/23 142/3/23 134/3/23
f 142/3/11 144/3/11 143/3/11
f 144/3/38 122/3/38 121/3/38
f 143/3/25 121/3/25 123/3/25
f 123/3/25 125/3/25 127/3/25
f 127/3/25 129/3/25 135/3/25
f 129/3/25 131/3/25 135/3/25
f 131/3/25 133/3/25 135/3/25
f 135/3/25 137/3/25 139/3/25
f 139/3/25 141/3/25 135/3/25
f 141/3/25 143/3/25 135/3/25
f 143/3/25 123/3/25 135/3/25
f 145/2/9 147/2/9 152/2/9
f 148/2/10 150/2/10 147/2/10
f 154/2/11 156/2/11 150/2/11
f 153/2/12 152/2/12 156/2/12
f 151/2/13 153/2/13 164/2/13
f 166/2/14 168/2/14 155/2/14
f 165/2/15 164/2/15 168/2/15
f 163/2/16 165/2/16 158/2/16
f 160/2/17 162/2/17 167/2/17
f 159/2/18 158/2/18 162/2/18
f 157/2/49 159/2/49 146/2/49
f 149/2/50 148/2/50 161/2/50
f 163/2/21 157/2/21 145/2/21
f 150/2/22 156/2/22 152/2/22
f 161/2/23 148/2/23 146/2/23
f 154/2/24 149/2/24 160/2/24
f 155/2/25 168/2/25 164/2/25
f 167/2/26 162/2/26 158/2/26
f 169/2/9 171/2/9 176/2/9
f 172/2/10 174/2/10 171/2/10
f 178/2/11 180/2/11 174/2/11
f 177/2/12 176/2/12 180/2/12
f 175/2/13 177/2/13 188/2/13
f 190/2/14 192/2/14 179/2/14
f 189/2/15 188/2/15 192/2/15
f 187/2/16 189/2/16 182/2/16
f 184/2/17 186/2/17 191/2/17
f 183/2/18 182/2/18 186/2/18
f 181/2/51 183/2/51 170/2/51
f 173/2/52 172/2/52 185/2/52
f 187/2/21 181/2/21 169/2/21
f 174/2/22 180/2/22 176/2/22
f 185/2/23 172/2/23 170/2/23
f 178/2/24 173/2/24 184/2/24
f 179/2/25 192/2/25 188/2/25
f 191/2/26 186/2/26 182/2/26
f 193/2/9 195/2/9 200/2/9
f 196/2/10 198/2/10 195/2/10
f 202/2/11 204/2/11 198/2/11
f 201/2/12 200/2/12 204/2/12
f 199/2/13 201/2/13 212/2/13
f 214/2/14 216/2/14 203/2/14
f 213/2/15 212/2/15 216/2/15
f 211/2/16 213/2/16 206/2/16
f 208/2/17 210/2/17 215/2/17
f 207/2/18 206/2/18 210/2/18
f 205/2/51 207/2/51 194/2/51
f 197/2/50 196/2/50 209/2/50
f 211/2/21 205/2/21 193/2/21
f 198/2/22 204/2/22 200/2/22
f 209/2/23 196/2/23 194/2/23
f 202/2/24 197/2/24 208/2/24
f 203/2/25 216/2/25 212/2/25
f 215/2/26 210/2/26 206/2/26
f 217/2/9 219/2/9 224/2/9
f 220/2/10 222/2/10 219/2/10
f 226/2/11 228/2/11 222/2/11
f 225/2/12 224/2/12 228/2/12
f 223/2/13 225/2/13 236/2/13
f 238/2/14 240/2/14 227/2/14
f 237/2/15 236/2/15 240/2/15
f 235/2/16 237/2/16 230/2/16
f 232/2/17 234/2/17 239/2/17
f 231/2/18 230/2/18 234/2/18
f 229/2/49 231/2/49 218/2/49
f 221/2/50 220/2/50 233/2/50
f 235/2/21 229/2/21 217/2/21
f 222/2/22 228/2/22 224/2/22
f 233/2/23 220/2/23 218/2/23
f 226/2/24 221/2/24 232/2/24
f 227/2/25 240/2/25 236/2/25
f 239/2/26 234/2/26 230/2/26
f 241/2/9 243/2/9 248/2/9
f 244/2/10 246/2/10 243/2/10
f 250/2/11 252/2/11 246/2/11
f 249/2/12 248/2/12 252/2/12
f 247/2/13 249/2/13 260/2/13
f 262/2/14 264/2/14 251/2/14
f 261/2/15 260/2/15 264/2/15
f 259/2/16 261/2/16 254/2/16
f 256/2/17 258/2/17 263/2/17
f 255/2/18 254/2/18 258/2/18
f 253/2/49 255/2/49 242/2/49
f 245/2/50 244/2/50 257/2/50
f 259/2/21 253/2/21 241/2/21
f 246/2/22 252/2/22 248/2/22
f 257/2/23 244/2/23 242/2/23
f 250/2/24 245/2/24 256/2/24
f 251/2/25 264/2/25 260/2/25
f 263/2/26 258/2/26 254/2/26
