# Blender 5.2.1 LTS
# www.blender.org
mtllib detail_crane.mtl
o detail_crane
v -2.950000 0.300000 0.245000
v -2.450000 1.500000 0.245000
v -2.914101 0.285042 0.261109
v -2.414101 1.485042 0.261109
v -2.899231 0.278846 0.300000
v -2.399231 1.478846 0.300000
v -2.914101 0.285042 0.338891
v -2.414101 1.485042 0.338891
v -2.950000 0.300000 0.355000
v -2.450000 1.500000 0.355000
v -2.985899 0.314958 0.338891
v -2.485899 1.514958 0.338891
v -3.000769 0.321154 0.300000
v -2.500769 1.521154 0.300000
v -2.985899 0.314958 0.261109
v -2.485899 1.514958 0.261109
v -2.950000 1.500000 0.245000
v -2.450000 2.700000 0.245000
v -2.914101 1.485042 0.261109
v -2.414101 2.685042 0.261109
v -2.899231 1.478846 0.300000
v -2.399231 2.678846 0.300000
v -2.914101 1.485042 0.338891
v -2.414101 2.685042 0.338891
v -2.950000 1.500000 0.355000
v -2.450000 2.700000 0.355000
v -2.985899 1.514958 0.338891
v -2.485899 2.714958 0.338891
v -3.000769 1.521154 0.300000
v -2.500769 2.721154 0.300000
v -2.985899 1.514958 0.261109
v -2.485899 2.714958 0.261109
v -2.950000 2.700000 0.245000
v -2.450000 3.900001 0.245000
v -2.914101 2.685042 0.261109
v -2.414101 3.885043 0.261109
v -2.899231 2.678846 0.300000
v -2.399231 3.878847 0.300000
v -2.914101 2.685042 0.338891
v -2.414101 3.885043 0.338891
v -2.950000 2.700000 0.355000
v -2.450000 3.900001 0.355000
v -2.985899 2.714958 0.338891
v -2.485899 3.914958 0.338891
v -3.000769 2.721154 0.300000
v -2.500769 3.921154 0.300000
v -2.985899 2.714958 0.261109
v -2.485899 3.914958 0.261109
v -2.950000 3.900000 0.245000
v -2.450000 5.100000 0.245000
v -2.914101 3.885042 0.261109
v -2.414101 5.085042 0.261109
v -2.899231 3.878846 0.300000
v -2.399231 5.078846 0.300000
v -2.914101 3.885042 0.338891
v -2.414101 5.085042 0.338891
v -2.950000 3.900000 0.355000
v -2.450000 5.100000 0.355000
v -2.985899 3.914958 0.338891
v -2.485899 5.114958 0.338891
v -3.000770 3.921154 0.300000
v -2.500770 5.121154 0.300000
v -2.985899 3.914958 0.261109
v -2.485899 5.114958 0.261109
v -2.950000 5.100000 0.245000
v -2.450000 6.300000 0.245000
v -2.914101 5.085042 0.261109
v -2.414101 6.285042 0.261109
v -2.899231 5.078846 0.300000
v -2.399231 6.278846 0.300000
v -2.914101 5.085042 0.338891
v -2.414101 6.285042 0.338891
v -2.950000 5.100000 0.355000
v -2.450000 6.300000 0.355000
v -2.985899 5.114958 0.338891
v -2.485899 6.314958 0.338891
v -3.000770 5.121153 0.300000
v -2.500770 6.321154 0.300000
v -2.985899 5.114958 0.261109
v -2.485899 6.314958 0.261109
v 2.450000 0.300000 0.245000
v 2.950000 1.500000 0.245000
v 2.485899 0.285042 0.261109
v 2.985899 1.485042 0.261109
v 2.500769 0.278846 0.300000
v 3.000769 1.478846 0.300000
v 2.485899 0.285042 0.338891
v 2.985899 1.485042 0.338891
v 2.450000 0.300000 0.355000
v 2.950000 1.500000 0.355000
v 2.414101 0.314958 0.338891
v 2.914101 1.514958 0.338891
v 2.399231 0.321154 0.300000
v 2.899231 1.521154 0.300000
v 2.414101 0.314958 0.261109
v 2.914101 1.514958 0.261109
v 2.450000 1.500000 0.245000
v 2.950000 2.700000 0.245000
v 2.485899 1.485042 0.261109
v 2.985899 2.685042 0.261109
v 2.500769 1.478846 0.300000
v 3.000769 2.678846 0.300000
v 2.485899 1.485042 0.338891
v 2.985899 2.685042 0.338891
v 2.450000 1.500000 0.355000
v 2.950000 2.700000 0.355000
v 2.414101 1.514958 0.338891
v 2.914101 2.714958 0.338891
v 2.399231 1.521153 0.300000
v 2.899231 2.721154 0.300000
v 2.414101 1.514958 0.261109
v 2.914101 2.714958 0.261109
v 2.450000 2.700000 0.245000
v 2.950000 3.900001 0.245000
v 2.485899 2.685042 0.261109
v 2.985899 3.885042 0.261109
v 2.500769 2.678846 0.300000
v 3.000769 3.878847 0.300000
v 2.485899 2.685042 0.338891
v 2.985899 3.885042 0.338891
v 2.450000 2.700000 0.355000
v 2.950000 3.900001 0.355000
v 2.414100 2.714958 0.338891
v 2.914100 3.914958 0.338891
v 2.399231 2.721154 0.300000
v 2.899231 3.921154 0.300000
v 2.414100 2.714958 0.261109
v 2.914100 3.914958 0.261109
v 2.450000 3.900000 0.245000
v 2.950000 5.100000 0.245000
v 2.485899 3.885042 0.261109
v 2.985899 5.085042 0.261109
v 2.500769 3.878846 0.300000
v 3.000769 5.078846 0.300000
v 2.485899 3.885042 0.338891
v 2.985899 5.085042 0.338891
v 2.450000 3.900000 0.355000
v 2.950000 5.100000 0.355000
v 2.414100 3.914958 0.338891
v 2.914100 5.114958 0.338891
v 2.399231 3.921154 0.300000
v 2.899231 5.121154 0.300000
v 2.414100 3.914958 0.261109
v 2.914100 5.114958 0.261109
v 2.450000 5.100000 0.245000
v 2.950000 6.300001 0.245000
v 2.485899 5.085042 0.261109
v 2.985899 6.285042 0.261109
v 2.500769 5.078846 0.300000
v 3.000769 6.278847 0.300000
v 2.485899 5.085042 0.338891
v 2.985899 6.285042 0.338891
v 2.450000 5.100000 0.355000
v 2.950000 6.300001 0.355000
v 2.414100 5.114958 0.338891
v 2.914100 6.314959 0.338891
v 2.399231 5.121154 0.300000
v 2.899231 6.321154 0.300000
v 2.414100 5.114958 0.261109
v 2.914100 6.314959 0.261109
v 1.125000 6.900001 -0.280000
v 1.125000 3.799999 -0.280000
v 1.117678 6.900001 -0.297678
v 1.117677 3.799999 -0.297678
v 1.100000 6.900000 -0.305000
v 1.100000 3.800000 -0.305000
v 1.082322 6.900001 -0.297678
v 1.082322 3.800000 -0.297678
v 1.075000 6.900001 -0.280000
v 1.075000 3.799999 -0.280000
v 1.082322 6.900001 -0.262322
v 1.082322 3.800000 -0.262322
v 1.100000 6.900000 -0.255000
v 1.100000 3.800000 -0.255000
v 1.117678 6.900001 -0.262322
v 1.117677 3.799999 -0.262322
v 1.125000 6.900001 0.280000
v 1.125000 3.799999 0.280000
v 1.117678 6.900001 0.262322
v 1.117677 3.799999 0.262322
v 1.100000 6.900000 0.255000
v 1.100000 3.800000 0.255000
v 1.082322 6.900001 0.262322
v 1.082322 3.800000 0.262322
v 1.075000 6.900001 0.280000
v 1.075000 3.799999 0.280000
v 1.082322 6.900001 0.297678
v 1.082322 3.800000 0.297678
v 1.100000 6.900000 0.305000
v 1.100000 3.800000 0.305000
v 1.117678 6.900001 0.297678
v 1.117677 3.799999 0.297678
v 1.100000 3.840000 -0.150000
v 1.100000 3.840000 0.150000
v 1.220000 3.807846 -0.150000
v 1.220000 3.807846 0.150000
v 1.307846 3.720000 -0.150000
v 1.307846 3.720000 0.150000
v 1.340000 3.600000 -0.150000
v 1.340000 3.600000 0.150000
v 1.307846 3.480000 -0.150000
v 1.307846 3.480000 0.150000
v 1.220000 3.392154 -0.150000
v 1.220000 3.392154 0.150000
v 1.100000 3.360000 -0.150000
v 1.100000 3.360000 0.150000
v 0.980000 3.392154 -0.150000
v 0.980000 3.392154 0.150000
v 0.892154 3.480000 -0.150000
v 0.892154 3.480000 0.150000
v 0.860000 3.600000 -0.150000
v 0.860000 3.600000 0.150000
v 0.892154 3.720000 -0.150000
v 0.892154 3.720000 0.150000
v 0.980000 3.807846 -0.150000
v 0.980000 3.807846 0.150000
v 0.800000 3.550000 0.250000
v 0.800000 3.575000 0.275000
v 0.775000 3.575000 0.250000
v 0.800000 3.825000 0.275000
v 0.800000 3.850000 0.250000
v 0.775000 3.825000 0.250000
v 0.800000 3.550000 -0.250000
v 0.775000 3.575000 -0.250000
v 0.800000 3.575000 -0.275000
v 0.800000 3.850000 -0.250000
v 0.800000 3.825000 -0.275000
v 0.775000 3.825000 -0.250000
v 1.400000 3.550000 0.250000
v 1.425000 3.575000 0.250000
v 1.400000 3.575000 0.275000
v 1.399999 3.850000 0.250000
v 1.400000 3.825000 0.275000
v 1.425000 3.825000 0.250000
v 1.400000 3.550000 -0.250000
v 1.400000 3.575000 -0.275000
v 1.425000 3.575000 -0.250000
v 1.399999 3.850000 -0.250000
v 1.425000 3.825000 -0.250000
v 1.400000 3.825000 -0.275000
v 1.100000 3.622988 0.076626
v 1.100000 3.222988 0.196626
v 1.156568 3.616255 0.054183
v 1.156568 3.216255 0.174183
v 1.180000 3.600000 0.000000
v 1.180000 3.200000 0.120000
v 1.156568 3.583745 -0.054183
v 1.156568 3.183745 0.065817
v 1.100000 3.577013 -0.076626
v 1.100000 3.177012 0.043374
v 1.043431 3.583745 -0.054183
v 1.043431 3.183745 0.065817
v 1.020000 3.600000 0.000000
v 1.020000 3.200000 0.120000
v 1.043431 3.616255 0.054183
v 1.043431 3.216255 0.174183
vn 0.3532 -0.1472 -0.9239
vn 0.8528 -0.3553 -0.3827
vn 0.8528 -0.3553 0.3827
vn 0.3532 -0.1472 0.9239
vn -0.3532 0.1472 0.9239
vn -0.8528 0.3553 0.3827
vn 0.3846 0.9231 -0.0000
vn -0.8528 0.3553 -0.3827
vn -0.3532 0.1472 -0.9239
vn -0.3846 -0.9231 -0.0000
vn -0.3847 -0.9231 -0.0000
vn 0.9239 -0.0000 -0.3827
vn 0.3827 -0.0000 -0.9239
vn -0.3827 -0.0000 -0.9239
vn -0.9239 -0.0000 -0.3827
vn -0.9239 -0.0000 0.3827
vn -0.3827 -0.0000 0.9239
vn -0.0000 -1.0000 -0.0000
vn 0.3827 -0.0000 0.9239
vn 0.9239 -0.0000 0.3827
vn -0.0000 1.0000 0.0001
vn 0.2588 0.9659 -0.0000
vn 0.7071 0.7071 -0.0000
vn 0.9659 0.2588 -0.0000
vn 0.9659 -0.2588 -0.0000
vn 0.7071 -0.7071 -0.0000
vn 0.2588 -0.9659 -0.0000
vn -0.2588 -0.9659 -0.0000
vn -0.7071 -0.7071 -0.0000
vn -0.9659 -0.2588 -0.0000
vn -0.9659 0.2588 -0.0000
vn -0.0000 -0.0000 1.0000
vn -0.7071 0.7071 -0.0000
vn -0.2588 0.9659 -0.0000
vn -0.0000 -0.0000 -1.0000
vn -0.5773 -0.5773 0.5774
vn -0.5773 0.5773 0.5774
vn -0.5774 -0.5773 -0.5773
vn -0.5773 0.5773 -0.5774
vn 0.5773 -0.5773 0.5774
vn 0.5773 0.5774 0.5774
vn 0.5774 -0.5773 -0.5773
vn 0.5773 0.5774 -0.5773
vn -0.7071 -0.0000 0.7071
vn -0.7071 -0.0000 -0.7071
vn -0.0000 -0.7071 -0.7071
vn -0.0000 0.7071 -0.7071
vn 0.7071 -0.0000 -0.7071
vn 0.7071 -0.0000 0.7071
vn -0.0000 -0.7071 0.7071
vn -0.0000 0.7071 0.7071
vn -1.0000 -0.0000 -0.0000
vn -0.0000 1.0000 -0.0000
vn 1.0000 -0.0000 -0.0000
vn 0.3827 0.2655 0.8849
vn 0.9239 0.1100 0.3665
vn 0.9239 -0.1100 -0.3665
vn 0.3827 -0.2655 -0.8849
vn -0.3827 -0.2655 -0.8849
vn -0.9239 -0.1100 -0.3665
vn -0.0000 -0.9578 0.2873
vn -0.9239 0.1100 0.3665
vn -0.3827 0.2655 0.8849
vn -0.0000 0.9578 -0.2873
vn -0.0001 -1.0000 -0.0000
vn -0.0000 1.0000 -0.0001
vn -0.0000 -0.9578 0.2874
vn -0.0000 0.9578 -0.2874
vt 0.375000 0.875000
vt 0.875000 0.125000
vt 0.125000 0.625000
vt 0.875000 0.625000
s 0
usemtl WorldPickupPalette
f 2/1/1 3/1/1 1/1/1
f 4/1/2 5/1/2 3/1/2
f 6/1/3 7/1/3 5/1/3
f 7/1/4 10/1/4 9/1/4
f 9/1/5 12/1/5 11/1/5
f 12/1/6 13/1/6 11/1/6
f 8/1/7 6/1/7 14/1/7
f 13/1/8 16/1/8 15/1/8
f 16/1/9 1/1/9 15/1/9
f 7/1/10 11/1/10 15/1/10
f 18/1/1 19/1/1 17/1/1
f 19/1/2 22/1/2 21/1/2
f 22/1/3 23/1/3 21/1/3
f 23/1/4 26/1/4 25/1/4
f 26/1/5 27/1/5 25/1/5
f 28/1/6 29/1/6 27/1/6
f 26/1/7 24/1/7 22/1/7
f 29/1/8 32/1/8 31/1/8
f 31/1/9 18/1/9 17/1/9
f 31/1/10 19/1/10 23/1/10
f 34/1/1 35/1/1 33/1/1
f 35/1/2 38/1/2 37/1/2
f 38/1/3 39/1/3 37/1/3
f 39/1/4 42/1/4 41/1/4
f 41/1/5 44/1/5 43/1/5
f 44/1/6 45/1/6 43/1/6
f 42/1/7 40/1/7 38/1/7
f 45/1/8 48/1/8 47/1/8
f 48/1/9 33/1/9 47/1/9
f 39/1/10 43/1/10 47/1/10
f 50/1/1 51/1/1 49/1/1
f 51/1/2 54/1/2 53/1/2
f 54/1/3 55/1/3 53/1/3
f 55/1/4 58/1/4 57/1/4
f 57/1/5 60/1/5 59/1/5
f 60/1/6 61/1/6 59/1/6
f 58/1/7 56/1/7 54/1/7
f 61/1/8 64/1/8 63/1/8
f 64/1/9 49/1/9 63/1/9
f 51/1/10 55/1/10 59/1/10
f 65/1/1 68/1/1 67/1/1
f 68/1/2 69/1/2 67/1/2
f 69/1/3 72/1/3 71/1/3
f 72/1/4 73/1/4 71/1/4
f 73/1/5 76/1/5 75/1/5
f 75/1/6 78/1/6 77/1/6
f 74/1/7 72/1/7 70/1/7
f 78/1/8 79/1/8 77/1/8
f 80/1/9 65/1/9 79/1/9
f 71/1/10 75/1/10 79/1/10
f 81/1/1 84/1/1 83/1/1
f 83/1/2 86/1/2 85/1/2
f 86/1/3 87/1/3 85/1/3
f 88/1/4 89/1/4 87/1/4
f 90/1/5 91/1/5 89/1/5
f 92/1/6 93/1/6 91/1/6
f 88/1/7 86/1/7 94/1/7
f 93/1/8 96/1/8 95/1/8
f 95/1/9 82/1/9 81/1/9
f 93/1/10 95/1/10 87/1/10
f 98/1/1 99/1/1 97/1/1
f 100/1/2 101/1/2 99/1/2
f 101/1/3 104/1/3 103/1/3
f 104/1/4 105/1/4 103/1/4
f 106/1/5 107/1/5 105/1/5
f 108/1/6 109/1/6 107/1/6
f 104/1/7 102/1/7 110/1/7
f 109/1/8 112/1/8 111/1/8
f 111/1/9 98/1/9 97/1/9
f 111/1/10 99/1/10 103/1/10
f 113/1/1 116/1/1 115/1/1
f 116/1/2 117/1/2 115/1/2
f 117/1/3 120/1/3 119/1/3
f 120/1/4 121/1/4 119/1/4
f 122/1/5 123/1/5 121/1/5
f 123/1/6 126/1/6 125/1/6
f 126/1/7 122/1/7 118/1/7
f 126/1/8 127/1/8 125/1/8
f 127/1/9 114/1/9 113/1/9
f 125/1/10 127/1/10 119/1/10
f 130/1/1 131/1/1 129/1/1
f 131/1/2 134/1/2 133/1/2
f 134/1/3 135/1/3 133/1/3
f 135/1/4 138/1/4 137/1/4
f 137/1/5 140/1/5 139/1/5
f 140/1/6 141/1/6 139/1/6
f 136/1/7 134/1/7 142/1/7
f 141/1/8 144/1/8 143/1/8
f 144/1/9 129/1/9 143/1/9
f 139/1/11 141/1/11 143/1/11
f 145/1/1 148/1/1 147/1/1
f 148/1/2 149/1/2 147/1/2
f 149/1/3 152/1/3 151/1/3
f 152/1/4 153/1/4 151/1/4
f 153/1/5 156/1/5 155/1/5
f 156/1/6 157/1/6 155/1/6
f 152/1/7 150/1/7 158/1/7
f 157/1/8 160/1/8 159/1/8
f 160/1/9 145/1/9 159/1/9
f 159/1/10 147/1/10 151/1/10
f 162/2/12 163/2/12 161/2/12
f 164/2/13 165/2/13 163/2/13
f 165/2/14 168/2/14 167/2/14
f 168/2/15 169/2/15 167/2/15
f 169/2/16 172/2/16 171/2/16
f 172/2/17 173/2/17 171/2/17
f 166/2/18 162/2/18 174/2/18
f 174/2/19 175/2/19 173/2/19
f 176/2/20 161/2/20 175/2/20
f 171/2/21 173/2/21 175/2/21
f 178/2/12 179/2/12 177/2/12
f 180/2/13 181/2/13 179/2/13
f 181/2/14 184/2/14 183/2/14
f 184/2/15 185/2/15 183/2/15
f 185/2/16 188/2/16 187/2/16
f 188/2/17 189/2/17 187/2/17
f 182/2/18 178/2/18 190/2/18
f 190/2/19 191/2/19 189/2/19
f 192/2/20 177/2/20 191/2/20
f 187/2/21 189/2/21 191/2/21
f 194/3/22 195/3/22 193/3/22
f 196/3/23 197/3/23 195/3/23
f 198/3/24 199/3/24 197/3/24
f 200/3/25 201/3/25 199/3/25
f 202/3/26 203/3/26 201/3/26
f 204/3/27 205/3/27 203/3/27
f 205/3/28 208/3/28 207/3/28
f 208/3/29 209/3/29 207/3/29
f 210/3/30 211/3/30 209/3/30
f 212/3/31 213/3/31 211/3/31
f 214/3/32 206/3/32 198/3/32
f 214/3/33 215/3/33 213/3/33
f 215/3/34 194/3/34 193/3/34
f 195/3/35 199/3/35 207/3/35
f 217/4/36 218/4/36 219/4/36
f 220/4/37 221/4/37 222/4/37
f 223/4/38 224/4/38 225/4/38
f 226/4/39 227/4/39 228/4/39
f 229/4/40 230/4/40 231/4/40
f 232/4/41 233/4/41 234/4/41
f 235/4/42 236/4/42 237/4/42
f 238/4/43 239/4/43 240/4/43
f 217/4/29 224/4/29 223/4/29
f 220/4/44 219/4/44 218/4/44
f 226/4/33 222/4/33 221/4/33
f 225/4/45 228/4/45 227/4/45
f 223/4/46 236/4/46 235/4/46
f 238/4/47 227/4/47 226/4/47
f 237/4/48 240/4/48 239/4/48
f 235/4/26 230/4/26 229/4/26
f 232/4/23 239/4/23 238/4/23
f 231/4/49 234/4/49 233/4/49
f 229/4/50 218/4/50 217/4/50
f 232/4/51 220/4/51 233/4/51
f 235/4/18 217/4/18 223/4/18
f 222/4/52 224/4/52 219/4/52
f 233/4/32 218/4/32 231/4/32
f 226/4/53 232/4/53 238/4/53
f 227/4/35 236/4/35 225/4/35
f 239/4/54 230/4/54 237/4/54
f 242/3/55 243/3/55 241/3/55
f 244/3/56 245/3/56 243/3/56
f 245/3/57 248/3/57 247/3/57
f 247/3/58 250/3/58 249/3/58
f 250/3/59 251/3/59 249/3/59
f 252/3/60 253/3/60 251/3/60
f 254/3/61 250/3/61 246/3/61
f 253/3/62 256/3/62 255/3/62
f 255/3/63 242/3/63 241/3/63
f 255/3/64 243/3/64 247/3/64
f 2/1/1 4/1/1 3/1/1
f 4/1/2 6/1/2 5/1/2
f 6/1/3 8/1/3 7/1/3
f 7/1/4 8/1/4 10/1/4
f 9/1/5 10/1/5 12/1/5
f 12/1/6 14/1/6 13/1/6
f 6/1/7 4/1/7 14/1/7
f 4/1/7 2/1/7 14/1/7
f 2/1/7 16/1/7 14/1/7
f 14/1/7 12/1/7 10/1/7
f 10/1/7 8/1/7 14/1/7
f 13/1/8 14/1/8 16/1/8
f 16/1/9 2/1/9 1/1/9
f 15/1/10 1/1/10 3/1/10
f 3/1/10 5/1/10 15/1/10
f 5/1/10 7/1/10 15/1/10
f 7/1/10 9/1/10 11/1/10
f 11/1/10 13/1/10 15/1/10
f 18/1/1 20/1/1 19/1/1
f 19/1/2 20/1/2 22/1/2
f 22/1/3 24/1/3 23/1/3
f 23/1/4 24/1/4 26/1/4
f 26/1/5 28/1/5 27/1/5
f 28/1/6 30/1/6 29/1/6
f 22/1/7 20/1/7 18/1/7
f 18/1/7 32/1/7 22/1/7
f 32/1/7 30/1/7 22/1/7
f 30/1/7 28/1/7 22/1/7
f 28/1/7 26/1/7 22/1/7
f 29/1/8 30/1/8 32/1/8
f 31/1/9 32/1/9 18/1/9
f 31/1/10 17/1/10 19/1/10
f 19/1/10 21/1/10 23/1/10
f 23/1/10 25/1/10 27/1/10
f 27/1/10 29/1/10 23/1/10
f 29/1/10 31/1/10 23/1/10
f 34/1/1 36/1/1 35/1/1
f 35/1/2 36/1/2 38/1/2
f 38/1/3 40/1/3 39/1/3
f 39/1/4 40/1/4 42/1/4
f 41/1/5 42/1/5 44/1/5
f 44/1/6 46/1/6 45/1/6
f 38/1/7 36/1/7 34/1/7
f 34/1/7 48/1/7 38/1/7
f 48/1/7 46/1/7 38/1/7
f 46/1/7 44/1/7 38/1/7
f 44/1/7 42/1/7 38/1/7
f 45/1/8 46/1/8 48/1/8
f 48/1/9 34/1/9 33/1/9
f 47/1/10 33/1/10 35/1/10
f 35/1/10 37/1/10 47/1/10
f 37/1/10 39/1/10 47/1/10
f 39/1/10 41/1/10 43/1/10
f 43/1/10 45/1/10 47/1/10
f 50/1/1 52/1/1 51/1/1
f 51/1/2 52/1/2 54/1/2
f 54/1/3 56/1/3 55/1/3
f 55/1/4 56/1/4 58/1/4
f 57/1/5 58/1/5 60/1/5
f 60/1/6 62/1/6 61/1/6
f 54/1/7 52/1/7 50/1/7
f 50/1/7 64/1/7 54/1/7
f 64/1/7 62/1/7 54/1/7
f 62/1/7 60/1/7 54/1/7
f 60/1/7 58/1/7 54/1/7
f 61/1/8 62/1/8 64/1/8
f 64/1/9 50/1/9 49/1/9
f 63/1/10 49/1/10 51/1/10
f 51/1/10 53/1/10 55/1/10
f 55/1/10 57/1/10 59/1/10
f 59/1/10 61/1/10 63/1/10
f 63/1/10 51/1/10 59/1/10
f 65/1/1 66/1/1 68/1/1
f 68/1/2 70/1/2 69/1/2
f 69/1/3 70/1/3 72/1/3
f 72/1/4 74/1/4 73/1/4
f 73/1/5 74/1/5 76/1/5
f 75/1/6 76/1/6 78/1/6
f 70/1/7 68/1/7 66/1/7
f 66/1/7 80/1/7 70/1/7
f 80/1/7 78/1/7 70/1/7
f 78/1/7 76/1/7 70/1/7
f 76/1/7 74/1/7 70/1/7
f 78/1/8 80/1/8 79/1/8
f 80/1/9 66/1/9 65/1/9
f 79/1/10 65/1/10 67/1/10
f 67/1/10 69/1/10 79/1/10
f 69/1/10 71/1/10 79/1/10
f 71/1/10 73/1/10 75/1/10
f 75/1/10 77/1/10 79/1/10
f 81/1/1 82/1/1 84/1/1
f 83/1/2 84/1/2 86/1/2
f 86/1/3 88/1/3 87/1/3
f 88/1/4 90/1/4 89/1/4
f 90/1/5 92/1/5 91/1/5
f 92/1/6 94/1/6 93/1/6
f 86/1/7 84/1/7 82/1/7
f 82/1/7 96/1/7 86/1/7
f 96/1/7 94/1/7 86/1/7
f 94/1/7 92/1/7 90/1/7
f 90/1/7 88/1/7 94/1/7
f 93/1/8 94/1/8 96/1/8
f 95/1/9 96/1/9 82/1/9
f 95/1/10 81/1/10 83/1/10
f 83/1/10 85/1/10 95/1/10
f 85/1/10 87/1/10 95/1/10
f 87/1/10 89/1/10 91/1/10
f 91/1/10 93/1/10 87/1/10
f 98/1/1 100/1/1 99/1/1
f 100/1/2 102/1/2 101/1/2
f 101/1/3 102/1/3 104/1/3
f 104/1/4 106/1/4 105/1/4
f 106/1/5 108/1/5 107/1/5
f 108/1/6 110/1/6 109/1/6
f 102/1/7 100/1/7 110/1/7
f 100/1/7 98/1/7 110/1/7
f 98/1/7 112/1/7 110/1/7
f 110/1/7 108/1/7 106/1/7
f 106/1/7 104/1/7 110/1/7
f 109/1/8 110/1/8 112/1/8
f 111/1/9 112/1/9 98/1/9
f 111/1/10 97/1/10 99/1/10
f 99/1/10 101/1/10 103/1/10
f 103/1/10 105/1/10 107/1/10
f 107/1/10 109/1/10 103/1/10
f 109/1/10 111/1/10 103/1/10
f 113/1/1 114/1/1 116/1/1
f 116/1/2 118/1/2 117/1/2
f 117/1/3 118/1/3 120/1/3
f 120/1/4 122/1/4 121/1/4
f 122/1/5 124/1/5 123/1/5
f 123/1/6 124/1/6 126/1/6
f 118/1/7 116/1/7 114/1/7
f 114/1/7 128/1/7 126/1/7
f 126/1/7 124/1/7 122/1/7
f 122/1/7 120/1/7 118/1/7
f 118/1/7 114/1/7 126/1/7
f 126/1/8 128/1/8 127/1/8
f 127/1/9 128/1/9 114/1/9
f 127/1/10 113/1/10 115/1/10
f 115/1/10 117/1/10 127/1/10
f 117/1/10 119/1/10 127/1/10
f 119/1/10 121/1/10 123/1/10
f 123/1/10 125/1/10 119/1/10
f 130/1/1 132/1/1 131/1/1
f 131/1/2 132/1/2 134/1/2
f 134/1/3 136/1/3 135/1/3
f 135/1/4 136/1/4 138/1/4
f 137/1/5 138/1/5 140/1/5
f 140/1/6 142/1/6 141/1/6
f 134/1/7 132/1/7 142/1/7
f 132/1/7 130/1/7 142/1/7
f 130/1/7 144/1/7 142/1/7
f 142/1/7 140/1/7 138/1/7
f 138/1/7 136/1/7 142/1/7
f 141/1/8 142/1/8 144/1/8
f 144/1/9 130/1/9 129/1/9
f 143/1/10 129/1/10 135/1/10
f 129/1/10 131/1/10 135/1/10
f 131/1/10 133/1/10 135/1/10
f 135/1/10 137/1/10 143/1/10
f 137/1/10 139/1/10 143/1/10
f 145/1/1 146/1/1 148/1/1
f 148/1/2 150/1/2 149/1/2
f 149/1/3 150/1/3 152/1/3
f 152/1/4 154/1/4 153/1/4
f 153/1/5 154/1/5 156/1/5
f 156/1/6 158/1/6 157/1/6
f 150/1/7 148/1/7 158/1/7
f 148/1/7 146/1/7 158/1/7
f 146/1/7 160/1/7 158/1/7
f 158/1/7 156/1/7 154/1/7
f 154/1/7 152/1/7 158/1/7
f 157/1/8 158/1/8 160/1/8
f 160/1/9 146/1/9 145/1/9
f 159/1/10 145/1/10 147/1/10
f 147/1/10 149/1/10 151/1/10
f 151/1/10 153/1/10 155/1/10
f 155/1/10 157/1/10 151/1/10
f 157/1/10 159/1/10 151/1/10
f 162/2/12 164/2/12 163/2/12
f 164/2/13 166/2/13 165/2/13
f 165/2/14 166/2/14 168/2/14
f 168/2/15 170/2/15 169/2/15
f 169/2/16 170/2/16 172/2/16
f 172/2/17 174/2/17 173/2/17
f 166/2/18 164/2/18 162/2/18
f 162/2/65 176/2/65 174/2/65
f 174/2/18 172/2/18 166/2/18
f 172/2/18 170/2/18 166/2/18
f 170/2/65 168/2/65 166/2/65
f 174/2/19 176/2/19 175/2/19
f 176/2/20 162/2/20 161/2/20
f 175/2/53 161/2/53 167/2/53
f 161/2/53 163/2/53 167/2/53
f 163/2/66 165/2/66 167/2/66
f 167/2/53 169/2/53 175/2/53
f 169/2/53 171/2/53 175/2/53
f 178/2/12 180/2/12 179/2/12
f 180/2/13 182/2/13 181/2/13
f 181/2/14 182/2/14 184/2/14
f 184/2/15 186/2/15 185/2/15
f 185/2/16 186/2/16 188/2/16
f 188/2/17 190/2/17 189/2/17
f 182/2/18 180/2/18 178/2/18
f 178/2/18 192/2/18 190/2/18
f 190/2/65 188/2/65 186/2/65
f 186/2/18 184/2/18 190/2/18
f 184/2/18 182/2/18 190/2/18
f 190/2/19 192/2/19 191/2/19
f 192/2/20 178/2/20 177/2/20
f 191/2/53 177/2/53 183/2/53
f 177/2/53 179/2/53 183/2/53
f 179/2/66 181/2/66 183/2/66
f 183/2/53 185/2/53 191/2/53
f 185/2/53 187/2/53 191/2/53
f 194/3/22 196/3/22 195/3/22
f 196/3/23 198/3/23 197/3/23
f 198/3/24 200/3/24 199/3/24
f 200/3/25 202/3/25 201/3/25
f 202/3/26 204/3/26 203/3/26
f 204/3/27 206/3/27 205/3/27
f 205/3/28 206/3/28 208/3/28
f 208/3/29 210/3/29 209/3/29
f 210/3/30 212/3/30 211/3/30
f 212/3/31 214/3/31 213/3/31
f 198/3/32 196/3/32 194/3/32
f 194/3/32 216/3/32 198/3/32
f 216/3/32 214/3/32 198/3/32
f 214/3/32 212/3/32 210/3/32
f 210/3/32 208/3/32 214/3/32
f 208/3/32 206/3/32 214/3/32
f 206/3/32 204/3/32 198/3/32
f 204/3/32 202/3/32 198/3/32
f 202/3/32 200/3/32 198/3/32
f 214/3/33 216/3/33 215/3/33
f 215/3/34 216/3/34 194/3/34
f 215/3/35 193/3/35 195/3/35
f 195/3/35 197/3/35 199/3/35
f 199/3/35 201/3/35 207/3/35
f 201/3/35 203/3/35 207/3/35
f 203/3/35 205/3/35 207/3/35
f 207/3/35 209/3/35 211/3/35
f 211/3/35 213/3/35 207/3/35
f 213/3/35 215/3/35 207/3/35
f 215/3/35 195/3/35 207/3/35
f 217/4/29 219/4/29 224/4/29
f 220/4/44 222/4/44 219/4/44
f 226/4/33 228/4/33 222/4/33
f 225/4/45 224/4/45 228/4/45
f 223/4/46 225/4/46 236/4/46
f 238/4/47 240/4/47 227/4/47
f 237/4/48 236/4/48 240/4/48
f 235/4/26 237/4/26 230/4/26
f 232/4/23 234/4/23 239/4/23
f 231/4/49 230/4/49 234/4/49
f 229/4/50 231/4/50 218/4/50
f 232/4/51 221/4/51 220/4/51
f 235/4/18 229/4/18 217/4/18
f 222/4/52 228/4/52 224/4/52
f 233/4/32 220/4/32 218/4/32
f 226/4/53 221/4/53 232/4/53
f 227/4/35 240/4/35 236/4/35
f 239/4/54 234/4/54 230/4/54
f 242/3/55 244/3/55 243/3/55
f 244/3/56 246/3/56 245/3/56
f 245/3/57 246/3/57 248/3/57
f 247/3/58 248/3/58 250/3/58
f 250/3/59 252/3/59 251/3/59
f 252/3/60 254/3/60 253/3/60
f 246/3/61 244/3/61 242/3/61
f 242/3/67 256/3/67 254/3/67
f 254/3/67 252/3/67 250/3/67
f 250/3/67 248/3/67 246/3/67
f 246/3/61 242/3/61 254/3/61
f 253/3/62 254/3/62 256/3/62
f 255/3/63 256/3/63 242/3/63
f 255/3/68 241/3/68 243/3/68
f 243/3/64 245/3/64 247/3/64
f 247/3/64 249/3/64 255/3/64
f 249/3/64 251/3/64 255/3/64
f 251/3/64 253/3/64 255/3/64
