# Blender 5.2.1 LTS
# www.blender.org
mtllib detail_factory.mtl
o detail_factory
v -4.036000 0.050000 3.601000
v -4.036000 0.074000 3.625000
v -4.060000 0.074000 3.601000
v -4.036000 2.926000 3.625000
v -4.036000 2.950000 3.601000
v -4.060000 2.926000 3.601000
v -4.036000 0.050000 3.499000
v -4.060000 0.074000 3.499000
v -4.036000 0.074000 3.475000
v -4.036000 2.950000 3.499000
v -4.036000 2.926000 3.475000
v -4.060000 2.926000 3.499000
v -3.964000 0.050000 3.601000
v -3.940000 0.074000 3.601000
v -3.964000 0.074000 3.625000
v -3.964000 2.950000 3.601000
v -3.964000 2.926000 3.625000
v -3.940000 2.926000 3.601000
v -3.964000 0.050000 3.499000
v -3.964000 0.074000 3.475000
v -3.940000 0.074000 3.499000
v -3.964000 2.950000 3.499000
v -3.940000 2.926000 3.499000
v -3.964000 2.926000 3.475000
v -4.010000 0.282000 3.626000
v -4.010000 0.282000 3.654000
v -3.982287 0.266000 3.626000
v -3.982287 0.266000 3.654000
v -3.982287 0.234000 3.626000
v -3.982287 0.234000 3.654000
v -4.010000 0.218000 3.626000
v -4.010000 0.218000 3.654000
v -4.037713 0.234000 3.626000
v -4.037713 0.234000 3.654000
v -4.037713 0.266000 3.626000
v -4.037713 0.266000 3.654000
v -4.010000 2.782000 3.626000
v -4.010000 2.782000 3.654000
v -3.982287 2.766000 3.626000
v -3.982287 2.766000 3.654000
v -3.982287 2.734000 3.626000
v -3.982287 2.734000 3.654000
v -4.010000 2.718000 3.626000
v -4.010000 2.718000 3.654000
v -4.037713 2.734000 3.626000
v -4.037713 2.734000 3.654000
v -4.037713 2.766000 3.626000
v -4.037713 2.766000 3.654000
v -3.990000 0.282000 3.626000
v -3.990000 0.282000 3.654000
v -3.962287 0.266000 3.626000
v -3.962287 0.266000 3.654000
v -3.962287 0.234000 3.626000
v -3.962287 0.234000 3.654000
v -3.990000 0.218000 3.626000
v -3.990000 0.218000 3.654000
v -4.017713 0.234000 3.626000
v -4.017713 0.234000 3.654000
v -4.017713 0.266000 3.626000
v -4.017713 0.266000 3.654000
v -3.990000 2.782000 3.626000
v -3.990000 2.782000 3.654000
v -3.962287 2.766000 3.626000
v -3.962287 2.766000 3.654000
v -3.962287 2.734000 3.626000
v -3.962287 2.734000 3.654000
v -3.990000 2.718000 3.626000
v -3.990000 2.718000 3.654000
v -4.017713 2.734000 3.626000
v -4.017713 2.734000 3.654000
v -4.017713 2.766000 3.626000
v -4.017713 2.766000 3.654000
v -2.036000 0.050000 3.601000
v -2.036000 0.074000 3.625000
v -2.060000 0.074000 3.601000
v -2.036000 2.926000 3.625000
v -2.036000 2.950000 3.601000
v -2.060000 2.926000 3.601000
v -2.036000 0.050000 3.499000
v -2.060000 0.074000 3.499000
v -2.036000 0.074000 3.475000
v -2.036000 2.950000 3.499000
v -2.036000 2.926000 3.475000
v -2.060000 2.926000 3.499000
v -1.964000 0.050000 3.601000
v -1.940000 0.074000 3.601000
v -1.964000 0.074000 3.625000
v -1.964000 2.950000 3.601000
v -1.964000 2.926000 3.625000
v -1.940000 2.926000 3.601000
v -1.964000 0.050000 3.499000
v -1.964000 0.074000 3.475000
v -1.940000 0.074000 3.499000
v -1.964000 2.950000 3.499000
v -1.940000 2.926000 3.499000
v -1.964000 2.926000 3.475000
v -2.010000 0.282000 3.626000
v -2.010000 0.282000 3.654000
v -1.982287 0.266000 3.626000
v -1.982287 0.266000 3.654000
v -1.982287 0.234000 3.626000
v -1.982287 0.234000 3.654000
v -2.010000 0.218000 3.626000
v -2.010000 0.218000 3.654000
v -2.037713 0.234000 3.626000
v -2.037713 0.234000 3.654000
v -2.037713 0.266000 3.626000
v -2.037713 0.266000 3.654000
v -2.010000 2.782000 3.626000
v -2.010000 2.782000 3.654000
v -1.982287 2.766000 3.626000
v -1.982287 2.766000 3.654000
v -1.982287 2.734000 3.626000
v -1.982287 2.734000 3.654000
v -2.010000 2.718000 3.626000
v -2.010000 2.718000 3.654000
v -2.037713 2.734000 3.626000
v -2.037713 2.734000 3.654000
v -2.037713 2.766000 3.626000
v -2.037713 2.766000 3.654000
v -1.990000 0.282000 3.626000
v -1.990000 0.282000 3.654000
v -1.962287 0.266000 3.626000
v -1.962287 0.266000 3.654000
v -1.962287 0.234000 3.626000
v -1.962287 0.234000 3.654000
v -1.990000 0.218000 3.626000
v -1.990000 0.218000 3.654000
v -2.017713 0.234000 3.626000
v -2.017713 0.234000 3.654000
v -2.017713 0.266000 3.626000
v -2.017713 0.266000 3.654000
v -1.990000 2.782000 3.626000
v -1.990000 2.782000 3.654000
v -1.962287 2.766000 3.626000
v -1.962287 2.766000 3.654000
v -1.962287 2.734000 3.626000
v -1.962287 2.734000 3.654000
v -1.990000 2.718000 3.626000
v -1.990000 2.718000 3.654000
v -2.017713 2.734000 3.626000
v -2.017713 2.734000 3.654000
v -2.017713 2.766000 3.626000
v -2.017713 2.766000 3.654000
v 1.964000 0.050000 3.601000
v 1.964000 0.074000 3.625000
v 1.940000 0.074000 3.601000
v 1.964000 2.926000 3.625000
v 1.964000 2.950000 3.601000
v 1.940000 2.926000 3.601000
v 1.964000 0.050000 3.499000
v 1.940000 0.074000 3.499000
v 1.964000 0.074000 3.475000
v 1.964000 2.950000 3.499000
v 1.964000 2.926000 3.475000
v 1.940000 2.926000 3.499000
v 2.036000 0.050000 3.601000
v 2.060000 0.074000 3.601000
v 2.036000 0.074000 3.625000
v 2.036000 2.950000 3.601000
v 2.036000 2.926000 3.625000
v 2.060000 2.926000 3.601000
v 2.036000 0.050000 3.499000
v 2.036000 0.074000 3.475000
v 2.060000 0.074000 3.499000
v 2.036000 2.950000 3.499000
v 2.060000 2.926000 3.499000
v 2.036000 2.926000 3.475000
v 1.990000 0.282000 3.626000
v 1.990000 0.282000 3.654000
v 2.017713 0.266000 3.626000
v 2.017713 0.266000 3.654000
v 2.017713 0.234000 3.626000
v 2.017713 0.234000 3.654000
v 1.990000 0.218000 3.626000
v 1.990000 0.218000 3.654000
v 1.962287 0.234000 3.626000
v 1.962287 0.234000 3.654000
v 1.962287 0.266000 3.626000
v 1.962287 0.266000 3.654000
v 1.990000 2.782000 3.626000
v 1.990000 2.782000 3.654000
v 2.017713 2.766000 3.626000
v 2.017713 2.766000 3.654000
v 2.017713 2.734000 3.626000
v 2.017713 2.734000 3.654000
v 1.990000 2.718000 3.626000
v 1.990000 2.718000 3.654000
v 1.962287 2.734000 3.626000
v 1.962287 2.734000 3.654000
v 1.962287 2.766000 3.626000
v 1.962287 2.766000 3.654000
v 2.010000 0.282000 3.626000
v 2.010000 0.282000 3.654000
v 2.037713 0.266000 3.626000
v 2.037713 0.266000 3.654000
v 2.037713 0.234000 3.626000
v 2.037713 0.234000 3.654000
v 2.010000 0.218000 3.626000
v 2.010000 0.218000 3.654000
v 1.982287 0.234000 3.626000
v 1.982287 0.234000 3.654000
v 1.982287 0.266000 3.626000
v 1.982287 0.266000 3.654000
v 2.010000 2.782000 3.626000
v 2.010000 2.782000 3.654000
v 2.037713 2.766000 3.626000
v 2.037713 2.766000 3.654000
v 2.037713 2.734000 3.626000
v 2.037713 2.734000 3.654000
v 2.010000 2.718000 3.626000
v 2.010000 2.718000 3.654000
v 1.982287 2.734000 3.626000
v 1.982287 2.734000 3.654000
v 1.982287 2.766000 3.626000
v 1.982287 2.766000 3.654000
v 3.964000 0.050000 3.601000
v 3.964000 0.074000 3.625000
v 3.940000 0.074000 3.601000
v 3.964000 2.926000 3.625000
v 3.964000 2.950000 3.601000
v 3.940000 2.926000 3.601000
v 3.964000 0.050000 3.499000
v 3.940000 0.074000 3.499000
v 3.964000 0.074000 3.475000
v 3.964000 2.950000 3.499000
v 3.964000 2.926000 3.475000
v 3.940000 2.926000 3.499000
v 4.036000 0.050000 3.601000
v 4.060000 0.074000 3.601000
v 4.036000 0.074000 3.625000
v 4.036000 2.950000 3.601000
v 4.036000 2.926000 3.625000
v 4.060000 2.926000 3.601000
v 4.036000 0.050000 3.499000
v 4.036000 0.074000 3.475000
v 4.060000 0.074000 3.499000
v 4.036000 2.950000 3.499000
v 4.060000 2.926000 3.499000
v 4.036000 2.926000 3.475000
v 3.990000 0.282000 3.626000
v 3.990000 0.282000 3.654000
v 4.017713 0.266000 3.626000
v 4.017713 0.266000 3.654000
v 4.017713 0.234000 3.626000
v 4.017713 0.234000 3.654000
v 3.990000 0.218000 3.626000
v 3.990000 0.218000 3.654000
v 3.962287 0.234000 3.626000
v 3.962287 0.234000 3.654000
v 3.962287 0.266000 3.626000
v 3.962287 0.266000 3.654000
v 3.990000 2.782000 3.626000
v 3.990000 2.782000 3.654000
v 4.017713 2.766000 3.626000
v 4.017713 2.766000 3.654000
v 4.017713 2.734000 3.626000
v 4.017713 2.734000 3.654000
v 3.990000 2.718000 3.626000
v 3.990000 2.718000 3.654000
v 3.962287 2.734000 3.626000
v 3.962287 2.734000 3.654000
v 3.962287 2.766000 3.626000
v 3.962287 2.766000 3.654000
v 4.010000 0.282000 3.626000
v 4.010000 0.282000 3.654000
v 4.037713 0.266000 3.626000
v 4.037713 0.266000 3.654000
v 4.037713 0.234000 3.626000
v 4.037713 0.234000 3.654000
v 4.010000 0.218000 3.626000
v 4.010000 0.218000 3.654000
v 3.982287 0.234000 3.626000
v 3.982287 0.234000 3.654000
v 3.982287 0.266000 3.626000
v 3.982287 0.266000 3.654000
v 4.010000 2.782000 3.626000
v 4.010000 2.782000 3.654000
v 4.037713 2.766000 3.626000
v 4.037713 2.766000 3.654000
v 4.037713 2.734000 3.626000
v 4.037713 2.734000 3.654000
v 4.010000 2.718000 3.626000
v 4.010000 2.718000 3.654000
v 3.982287 2.734000 3.626000
v 3.982287 2.734000 3.654000
v 3.982287 2.766000 3.626000
v 3.982287 2.766000 3.654000
v -4.080000 0.300000 3.670000
v -4.080000 0.320000 3.690000
v -4.100000 0.320000 3.670000
v -4.080000 1.880000 3.690000
v -4.080000 1.900000 3.670000
v -4.100000 1.880000 3.670000
v -4.080000 0.300000 3.610000
v -4.100000 0.320000 3.610000
v -4.080000 0.320000 3.590000
v -4.080000 1.900000 3.610000
v -4.080000 1.880000 3.590000
v -4.100000 1.880000 3.610000
v -2.920000 0.300000 3.670000
v -2.900000 0.320000 3.670000
v -2.920000 0.320000 3.690000
v -2.920000 1.900000 3.670000
v -2.920000 1.880000 3.690000
v -2.900000 1.880000 3.670000
v -2.920000 0.300000 3.610000
v -2.920000 0.320000 3.590000
v -2.900000 0.320000 3.610000
v -2.920000 1.900000 3.610000
v -2.900000 1.880000 3.610000
v -2.920000 1.880000 3.590000
v -3.980000 0.492000 3.690000
v -3.980000 0.492000 3.718000
v -3.952287 0.476000 3.690000
v -3.952287 0.476000 3.718000
v -3.952287 0.444000 3.690000
v -3.952287 0.444000 3.718000
v -3.980000 0.428000 3.690000
v -3.980000 0.428000 3.718000
v -4.007713 0.444000 3.690000
v -4.007713 0.444000 3.718000
v -4.007713 0.476000 3.690000
v -4.007713 0.476000 3.718000
v -3.980000 1.772000 3.690000
v -3.980000 1.772000 3.718000
v -3.952287 1.756000 3.690000
v -3.952287 1.756000 3.718000
v -3.952287 1.724000 3.690000
v -3.952287 1.724000 3.718000
v -3.980000 1.708000 3.690000
v -3.980000 1.708000 3.718000
v -4.007713 1.724000 3.690000
v -4.007713 1.724000 3.718000
v -4.007713 1.756000 3.690000
v -4.007713 1.756000 3.718000
v -3.020000 0.492000 3.690000
v -3.020000 0.492000 3.718000
v -2.992287 0.476000 3.690000
v -2.992287 0.476000 3.718000
v -2.992287 0.444000 3.690000
v -2.992287 0.444000 3.718000
v -3.020000 0.428000 3.690000
v -3.020000 0.428000 3.718000
v -3.047713 0.444000 3.690000
v -3.047713 0.444000 3.718000
v -3.047713 0.476000 3.690000
v -3.047713 0.476000 3.718000
v -3.020000 1.772000 3.690000
v -3.020000 1.772000 3.718000
v -2.992287 1.756000 3.690000
v -2.992287 1.756000 3.718000
v -2.992287 1.724000 3.690000
v -2.992287 1.724000 3.718000
v -3.020000 1.708000 3.690000
v -3.020000 1.708000 3.718000
v -3.047713 1.724000 3.690000
v -3.047713 1.724000 3.718000
v -3.047713 1.756000 3.690000
v -3.047713 1.756000 3.718000
v -3.942000 0.477500 3.722000
v -3.942000 0.485500 3.730000
v -3.950000 0.485500 3.722000
v -3.942000 0.514500 3.730000
v -3.942000 0.522500 3.722000
v -3.950000 0.514500 3.722000
v -3.942000 0.477500 3.698000
v -3.950000 0.485500 3.698000
v -3.942000 0.485500 3.690000
v -3.942000 0.522500 3.698000
v -3.942000 0.514500 3.690000
v -3.950000 0.514500 3.698000
v -3.058000 0.477500 3.722000
v -3.050000 0.485500 3.722000
v -3.058000 0.485500 3.730000
v -3.058000 0.522500 3.722000
v -3.058000 0.514500 3.730000
v -3.050000 0.514500 3.722000
v -3.058000 0.477500 3.698000
v -3.058000 0.485500 3.690000
v -3.050000 0.485500 3.698000
v -3.058000 0.522500 3.698000
v -3.050000 0.514500 3.698000
v -3.058000 0.514500 3.690000
v -3.942000 0.677500 3.722000
v -3.942000 0.685500 3.730000
v -3.950000 0.685500 3.722000
v -3.942000 0.714500 3.730000
v -3.942000 0.722500 3.722000
v -3.950000 0.714500 3.722000
v -3.942000 0.677500 3.698000
v -3.950000 0.685500 3.698000
v -3.942000 0.685500 3.690000
v -3.942000 0.722500 3.698000
v -3.942000 0.714500 3.690000
v -3.950000 0.714500 3.698000
v -3.058000 0.677500 3.722000
v -3.050000 0.685500 3.722000
v -3.058000 0.685500 3.730000
v -3.058000 0.722500 3.722000
v -3.058000 0.714500 3.730000
v -3.050000 0.714500 3.722000
v -3.058000 0.677500 3.698000
v -3.058000 0.685500 3.690000
v -3.050000 0.685500 3.698000
v -3.058000 0.722500 3.698000
v -3.050000 0.714500 3.698000
v -3.058000 0.714500 3.690000
v -3.942000 0.877500 3.722000
v -3.942000 0.885500 3.730000
v -3.950000 0.885500 3.722000
v -3.942000 0.914500 3.730000
v -3.942000 0.922500 3.722000
v -3.950000 0.914500 3.722000
v -3.942000 0.877500 3.698000
v -3.950000 0.885500 3.698000
v -3.942000 0.885500 3.690000
v -3.942000 0.922500 3.698000
v -3.942000 0.914500 3.690000
v -3.950000 0.914500 3.698000
v -3.058000 0.877500 3.722000
v -3.050000 0.885500 3.722000
v -3.058000 0.885500 3.730000
v -3.058000 0.922500 3.722000
v -3.058000 0.914500 3.730000
v -3.050000 0.914500 3.722000
v -3.058000 0.877500 3.698000
v -3.058000 0.885500 3.690000
v -3.050000 0.885500 3.698000
v -3.058000 0.922500 3.698000
v -3.050000 0.914500 3.698000
v -3.058000 0.914500 3.690000
v -3.942000 1.077500 3.722000
v -3.942000 1.085500 3.730000
v -3.950000 1.085500 3.722000
v -3.942000 1.114500 3.730000
v -3.942000 1.122500 3.722000
v -3.950000 1.114500 3.722000
v -3.942000 1.077500 3.698000
v -3.950000 1.085500 3.698000
v -3.942000 1.085500 3.690000
v -3.942000 1.122500 3.698000
v -3.942000 1.114500 3.690000
v -3.950000 1.114500 3.698000
v -3.058000 1.077500 3.722000
v -3.050000 1.085500 3.722000
v -3.058000 1.085500 3.730000
v -3.058000 1.122500 3.722000
v -3.058000 1.114500 3.730000
v -3.050000 1.114500 3.722000
v -3.058000 1.077500 3.698000
v -3.058000 1.085500 3.690000
v -3.050000 1.085500 3.698000
v -3.058000 1.122500 3.698000
v -3.050000 1.114500 3.698000
v -3.058000 1.114500 3.690000
v -3.942000 1.277500 3.722000
v -3.942000 1.285500 3.730000
v -3.950000 1.285500 3.722000
v -3.942000 1.314500 3.730000
v -3.942000 1.322500 3.722000
v -3.950000 1.314500 3.722000
v -3.942000 1.277500 3.698000
v -3.950000 1.285500 3.698000
v -3.942000 1.285500 3.690000
v -3.942000 1.322500 3.698000
v -3.942000 1.314500 3.690000
v -3.950000 1.314500 3.698000
v -3.058000 1.277500 3.722000
v -3.050000 1.285500 3.722000
v -3.058000 1.285500 3.730000
v -3.058000 1.322500 3.722000
v -3.058000 1.314500 3.730000
v -3.050000 1.314500 3.722000
v -3.058000 1.277500 3.698000
v -3.058000 1.285500 3.690000
v -3.050000 1.285500 3.698000
v -3.058000 1.322500 3.698000
v -3.050000 1.314500 3.698000
v -3.058000 1.314500 3.690000
v 2.920000 0.300000 3.670000
v 2.920000 0.320000 3.690000
v 2.900000 0.320000 3.670000
v 2.920000 1.880000 3.690000
v 2.920000 1.900000 3.670000
v 2.900000 1.880000 3.670000
v 2.920000 0.300000 3.610000
v 2.900000 0.320000 3.610000
v 2.920000 0.320000 3.590000
v 2.920000 1.900000 3.610000
v 2.920000 1.880000 3.590000
v 2.900000 1.880000 3.610000
v 4.080000 0.300000 3.670000
v 4.100000 0.320000 3.670000
v 4.080000 0.320000 3.690000
v 4.080000 1.900000 3.670000
v 4.080000 1.880000 3.690000
v 4.100000 1.880000 3.670000
v 4.080000 0.300000 3.610000
v 4.080000 0.320000 3.590000
v 4.100000 0.320000 3.610000
v 4.080000 1.900000 3.610000
v 4.100000 1.880000 3.610000
v 4.080000 1.880000 3.590000
v 3.020000 0.492000 3.690000
v 3.020000 0.492000 3.718000
v 3.047713 0.476000 3.690000
v 3.047713 0.476000 3.718000
v 3.047713 0.444000 3.690000
v 3.047713 0.444000 3.718000
v 3.020000 0.428000 3.690000
v 3.020000 0.428000 3.718000
v 2.992287 0.444000 3.690000
v 2.992287 0.444000 3.718000
v 2.992287 0.476000 3.690000
v 2.992287 0.476000 3.718000
v 3.020000 1.772000 3.690000
v 3.020000 1.772000 3.718000
v 3.047713 1.756000 3.690000
v 3.047713 1.756000 3.718000
v 3.047713 1.724000 3.690000
v 3.047713 1.724000 3.718000
v 3.020000 1.708000 3.690000
v 3.020000 1.708000 3.718000
v 2.992287 1.724000 3.690000
v 2.992287 1.724000 3.718000
v 2.992287 1.756000 3.690000
v 2.992287 1.756000 3.718000
v 3.980000 0.492000 3.690000
v 3.980000 0.492000 3.718000
v 4.007712 0.476000 3.690000
v 4.007712 0.476000 3.718000
v 4.007712 0.444000 3.690000
v 4.007712 0.444000 3.718000
v 3.980000 0.428000 3.690000
v 3.980000 0.428000 3.718000
v 3.952287 0.444000 3.690000
v 3.952287 0.444000 3.718000
v 3.952287 0.476000 3.690000
v 3.952287 0.476000 3.718000
v 3.980000 1.772000 3.690000
v 3.980000 1.772000 3.718000
v 4.007712 1.756000 3.690000
v 4.007712 1.756000 3.718000
v 4.007712 1.724000 3.690000
v 4.007712 1.724000 3.718000
v 3.980000 1.708000 3.690000
v 3.980000 1.708000 3.718000
v 3.952287 1.724000 3.690000
v 3.952287 1.724000 3.718000
v 3.952287 1.756000 3.690000
v 3.952287 1.756000 3.718000
v 3.058000 0.477500 3.722000
v 3.058000 0.485500 3.730000
v 3.050000 0.485500 3.722000
v 3.058000 0.514500 3.730000
v 3.058000 0.522500 3.722000
v 3.050000 0.514500 3.722000
v 3.058000 0.477500 3.698000
v 3.050000 0.485500 3.698000
v 3.058000 0.485500 3.690000
v 3.058000 0.522500 3.698000
v 3.058000 0.514500 3.690000
v 3.050000 0.514500 3.698000
v 3.942000 0.477500 3.722000
v 3.950000 0.485500 3.722000
v 3.942000 0.485500 3.730000
v 3.942000 0.522500 3.722000
v 3.942000 0.514500 3.730000
v 3.950000 0.514500 3.722000
v 3.942000 0.477500 3.698000
v 3.942000 0.485500 3.690000
v 3.950000 0.485500 3.698000
v 3.942000 0.522500 3.698000
v 3.950000 0.514500 3.698000
v 3.942000 0.514500 3.690000
v 3.058000 0.677500 3.722000
v 3.058000 0.685500 3.730000
v 3.050000 0.685500 3.722000
v 3.058000 0.714500 3.730000
v 3.058000 0.722500 3.722000
v 3.050000 0.714500 3.722000
v 3.058000 0.677500 3.698000
v 3.050000 0.685500 3.698000
v 3.058000 0.685500 3.690000
v 3.058000 0.722500 3.698000
v 3.058000 0.714500 3.690000
v 3.050000 0.714500 3.698000
v 3.942000 0.677500 3.722000
v 3.950000 0.685500 3.722000
v 3.942000 0.685500 3.730000
v 3.942000 0.722500 3.722000
v 3.942000 0.714500 3.730000
v 3.950000 0.714500 3.722000
v 3.942000 0.677500 3.698000
v 3.942000 0.685500 3.690000
v 3.950000 0.685500 3.698000
v 3.942000 0.722500 3.698000
v 3.950000 0.714500 3.698000
v 3.942000 0.714500 3.690000
v 3.058000 0.877500 3.722000
v 3.058000 0.885500 3.730000
v 3.050000 0.885500 3.722000
v 3.058000 0.914500 3.730000
v 3.058000 0.922500 3.722000
v 3.050000 0.914500 3.722000
v 3.058000 0.877500 3.698000
v 3.050000 0.885500 3.698000
v 3.058000 0.885500 3.690000
v 3.058000 0.922500 3.698000
v 3.058000 0.914500 3.690000
v 3.050000 0.914500 3.698000
v 3.942000 0.877500 3.722000
v 3.950000 0.885500 3.722000
v 3.942000 0.885500 3.730000
v 3.942000 0.922500 3.722000
v 3.942000 0.914500 3.730000
v 3.950000 0.914500 3.722000
v 3.942000 0.877500 3.698000
v 3.942000 0.885500 3.690000
v 3.950000 0.885500 3.698000
v 3.942000 0.922500 3.698000
v 3.950000 0.914500 3.698000
v 3.942000 0.914500 3.690000
v 3.058000 1.077500 3.722000
v 3.058000 1.085500 3.730000
v 3.050000 1.085500 3.722000
v 3.058000 1.114500 3.730000
v 3.058000 1.122500 3.722000
v 3.050000 1.114500 3.722000
v 3.058000 1.077500 3.698000
v 3.050000 1.085500 3.698000
v 3.058000 1.085500 3.690000
v 3.058000 1.122500 3.698000
v 3.058000 1.114500 3.690000
v 3.050000 1.114500 3.698000
v 3.942000 1.077500 3.722000
v 3.950000 1.085500 3.722000
v 3.942000 1.085500 3.730000
v 3.942000 1.122500 3.722000
v 3.942000 1.114500 3.730000
v 3.950000 1.114500 3.722000
v 3.942000 1.077500 3.698000
v 3.942000 1.085500 3.690000
v 3.950000 1.085500 3.698000
v 3.942000 1.122500 3.698000
v 3.950000 1.114500 3.698000
v 3.942000 1.114500 3.690000
v 3.058000 1.277500 3.722000
v 3.058000 1.285500 3.730000
v 3.050000 1.285500 3.722000
v 3.058000 1.314500 3.730000
v 3.058000 1.322500 3.722000
v 3.050000 1.314500 3.722000
v 3.058000 1.277500 3.698000
v 3.050000 1.285500 3.698000
v 3.058000 1.285500 3.690000
v 3.058000 1.322500 3.698000
v 3.058000 1.314500 3.690000
v 3.050000 1.314500 3.698000
v 3.942000 1.277500 3.722000
v 3.950000 1.285500 3.722000
v 3.942000 1.285500 3.730000
v 3.942000 1.322500 3.722000
v 3.942000 1.314500 3.730000
v 3.950000 1.314500 3.722000
v 3.942000 1.277500 3.698000
v 3.942000 1.285500 3.690000
v 3.950000 1.285500 3.698000
v 3.942000 1.322500 3.698000
v 3.950000 1.314500 3.698000
v 3.942000 1.314500 3.690000
v -4.920000 0.150000 3.765000
v -4.920000 3.500000 3.765000
v -4.895251 0.150000 3.775251
v -4.895251 3.500000 3.775251
v -4.885000 0.150000 3.800000
v -4.885000 3.500000 3.800000
v -4.895251 0.150000 3.824749
v -4.895251 3.500000 3.824749
v -4.920000 0.150000 3.835000
v -4.920000 3.500000 3.835000
v -4.944749 0.150000 3.824749
v -4.944749 3.500000 3.824749
v -4.955000 0.150000 3.800000
v -4.955000 3.500000 3.800000
v -4.944749 0.150000 3.775251
v -4.944749 3.500000 3.775251
v -4.280000 0.150000 3.765000
v -4.280000 3.500000 3.765000
v -4.255251 0.150000 3.775251
v -4.255251 3.500000 3.775251
v -4.245000 0.150000 3.800000
v -4.245000 3.500000 3.800000
v -4.255251 0.150000 3.824749
v -4.255251 3.500000 3.824749
v -4.280000 0.150000 3.835000
v -4.280000 3.500000 3.835000
v -4.304749 0.150000 3.824749
v -4.304749 3.500000 3.824749
v -4.315000 0.150000 3.800000
v -4.315000 3.500000 3.800000
v -4.304749 0.150000 3.775251
v -4.304749 3.500000 3.775251
v -4.920000 0.200000 3.772000
v -4.280001 0.200000 3.772000
v -4.920000 0.180201 3.780201
v -4.280001 0.180201 3.780201
v -4.920000 0.172000 3.800000
v -4.280001 0.172000 3.800000
v -4.920000 0.180201 3.819799
v -4.280001 0.180201 3.819799
v -4.920000 0.200000 3.828000
v -4.280001 0.200000 3.828000
v -4.920000 0.219799 3.819799
v -4.280001 0.219799 3.819799
v -4.920000 0.228000 3.800000
v -4.280001 0.228000 3.800000
v -4.920000 0.219799 3.780201
v -4.280001 0.219799 3.780201
v -4.920000 0.500000 3.772000
v -4.280001 0.500000 3.772000
v -4.920000 0.480201 3.780201
v -4.280001 0.480201 3.780201
v -4.920000 0.472000 3.800000
v -4.280001 0.472000 3.800000
v -4.920000 0.480201 3.819799
v -4.280001 0.480201 3.819799
v -4.920000 0.500000 3.828000
v -4.280001 0.500000 3.828000
v -4.920000 0.519799 3.819799
v -4.280001 0.519799 3.819799
v -4.920000 0.528000 3.800000
v -4.280001 0.528000 3.800000
v -4.920000 0.519799 3.780201
v -4.280001 0.519799 3.780201
v -4.920000 0.800000 3.772000
v -4.280001 0.800000 3.772000
v -4.920000 0.780201 3.780201
v -4.280001 0.780201 3.780201
v -4.920000 0.772000 3.800000
v -4.280001 0.772000 3.800000
v -4.920000 0.780201 3.819799
v -4.280001 0.780201 3.819799
v -4.920000 0.800000 3.828000
v -4.280001 0.800000 3.828000
v -4.920000 0.819799 3.819799
v -4.280001 0.819799 3.819799
v -4.920000 0.828000 3.800000
v -4.280001 0.828000 3.800000
v -4.920000 0.819799 3.780201
v -4.280001 0.819799 3.780201
v -4.920000 1.100000 3.772000
v -4.280001 1.100000 3.772000
v -4.920000 1.080201 3.780201
v -4.280001 1.080201 3.780201
v -4.920000 1.072000 3.800000
v -4.280001 1.072000 3.800000
v -4.920000 1.080201 3.819799
v -4.280001 1.080201 3.819799
v -4.920000 1.100000 3.828000
v -4.280001 1.100000 3.828000
v -4.920000 1.119799 3.819799
v -4.280001 1.119799 3.819799
v -4.920000 1.128000 3.800000
v -4.280001 1.128000 3.800000
v -4.920000 1.119799 3.780201
v -4.280001 1.119799 3.780201
v -4.920000 1.400000 3.772000
v -4.280001 1.400000 3.772000
v -4.920000 1.380201 3.780201
v -4.280001 1.380201 3.780201
v -4.920000 1.372000 3.800000
v -4.280001 1.372000 3.800000
v -4.920000 1.380201 3.819799
v -4.280001 1.380201 3.819799
v -4.920000 1.400000 3.828000
v -4.280001 1.400000 3.828000
v -4.920000 1.419799 3.819799
v -4.280001 1.419799 3.819799
v -4.920000 1.428000 3.800000
v -4.280001 1.428000 3.800000
v -4.920000 1.419799 3.780201
v -4.280001 1.419799 3.780201
v -4.920000 1.700000 3.772000
v -4.280001 1.700000 3.772000
v -4.920000 1.680201 3.780201
v -4.280001 1.680201 3.780201
v -4.920000 1.672000 3.800000
v -4.280001 1.672000 3.800000
v -4.920000 1.680201 3.819799
v -4.280001 1.680201 3.819799
v -4.920000 1.700000 3.828000
v -4.280001 1.700000 3.828000
v -4.920000 1.719799 3.819799
v -4.280001 1.719799 3.819799
v -4.920000 1.728000 3.800000
v -4.280001 1.728000 3.800000
v -4.920000 1.719799 3.780201
v -4.280001 1.719799 3.780201
v -4.920000 2.000000 3.772000
v -4.280001 2.000000 3.772000
v -4.920000 1.980201 3.780201
v -4.280001 1.980201 3.780201
v -4.920000 1.972000 3.800000
v -4.280001 1.972000 3.800000
v -4.920000 1.980201 3.819799
v -4.280001 1.980201 3.819799
v -4.920000 2.000000 3.828000
v -4.280001 2.000000 3.828000
v -4.920000 2.019799 3.819799
v -4.280001 2.019799 3.819799
v -4.920000 2.028000 3.800000
v -4.280001 2.028000 3.800000
v -4.920000 2.019799 3.780201
v -4.280001 2.019799 3.780201
v -4.920000 2.300000 3.772000
v -4.280001 2.300000 3.772000
v -4.920000 2.280201 3.780201
v -4.280001 2.280201 3.780201
v -4.920000 2.272000 3.800000
v -4.280001 2.272000 3.800000
v -4.920000 2.280201 3.819799
v -4.280001 2.280201 3.819799
v -4.920000 2.300000 3.828000
v -4.280001 2.300000 3.828000
v -4.920000 2.319799 3.819799
v -4.280001 2.319799 3.819799
v -4.920000 2.328000 3.800000
v -4.280001 2.328000 3.800000
v -4.920000 2.319799 3.780201
v -4.280001 2.319799 3.780201
v -4.920000 2.600000 3.772000
v -4.280001 2.600000 3.772000
v -4.920000 2.580201 3.780201
v -4.280001 2.580201 3.780201
v -4.920000 2.572000 3.800000
v -4.280001 2.572000 3.800000
v -4.920000 2.580201 3.819799
v -4.280001 2.580201 3.819799
v -4.920000 2.600000 3.828000
v -4.280001 2.600000 3.828000
v -4.920000 2.619799 3.819799
v -4.280001 2.619799 3.819799
v -4.920000 2.628000 3.800000
v -4.280001 2.628000 3.800000
v -4.920000 2.619799 3.780201
v -4.280001 2.619799 3.780201
v -4.920000 2.900000 3.772000
v -4.280001 2.900000 3.772000
v -4.920000 2.880201 3.780201
v -4.280001 2.880201 3.780201
v -4.920000 2.872000 3.800000
v -4.280001 2.872000 3.800000
v -4.920000 2.880201 3.819799
v -4.280001 2.880201 3.819799
v -4.920000 2.900000 3.828000
v -4.280001 2.900000 3.828000
v -4.920000 2.919799 3.819799
v -4.280001 2.919799 3.819799
v -4.920000 2.928000 3.800000
v -4.280001 2.928000 3.800000
v -4.920000 2.919799 3.780201
v -4.280001 2.919799 3.780201
v -4.920000 3.200000 3.772000
v -4.280001 3.200000 3.772000
v -4.920000 3.180201 3.780201
v -4.280001 3.180201 3.780201
v -4.920000 3.172000 3.800000
v -4.280001 3.172000 3.800000
v -4.920000 3.180201 3.819799
v -4.280001 3.180201 3.819799
v -4.920000 3.200000 3.828000
v -4.280001 3.200000 3.828000
v -4.920000 3.219799 3.819799
v -4.280001 3.219799 3.819799
v -4.920000 3.228000 3.800000
v -4.280001 3.228000 3.800000
v -4.920000 3.219799 3.780201
v -4.280001 3.219799 3.780201
v -3.600000 3.640000 -3.040000
v -3.600000 3.760000 -3.040000
v -3.280000 3.640000 -2.954256
v -3.280000 3.760000 -2.954256
v -3.045744 3.640000 -2.720000
v -3.045744 3.760000 -2.720000
v -2.960000 3.640000 -2.400000
v -2.960000 3.760000 -2.400000
v -3.045744 3.640000 -2.080000
v -3.045744 3.760000 -2.080000
v -3.280000 3.640000 -1.845743
v -3.280000 3.760000 -1.845743
v -3.600000 3.640000 -1.760000
v -3.600000 3.760000 -1.760000
v -3.920000 3.640000 -1.845743
v -3.920000 3.760000 -1.845743
v -4.154256 3.640000 -2.080000
v -4.154256 3.760000 -2.080000
v -4.240000 3.640000 -2.400000
v -4.240000 3.760000 -2.400000
v -4.154256 3.640000 -2.720000
v -4.154256 3.760000 -2.720000
v -3.920000 3.640000 -2.954256
v -3.920000 3.760000 -2.954256
v -3.600000 4.940000 -3.040000
v -3.600000 5.060000 -3.040000
v -3.280000 4.940000 -2.954256
v -3.280000 5.060000 -2.954256
v -3.045744 4.940000 -2.720000
v -3.045744 5.060000 -2.720000
v -2.960000 4.940000 -2.400000
v -2.960000 5.060000 -2.400000
v -3.045744 4.940000 -2.080000
v -3.045744 5.060000 -2.080000
v -3.280000 4.940000 -1.845743
v -3.280000 5.060000 -1.845743
v -3.600000 4.940000 -1.760000
v -3.600000 5.060000 -1.760000
v -3.920000 4.940000 -1.845743
v -3.920000 5.060000 -1.845743
v -4.154256 4.940000 -2.080000
v -4.154256 5.060000 -2.080000
v -4.240000 4.940000 -2.400000
v -4.240000 5.060000 -2.400000
v -4.154256 4.940000 -2.720000
v -4.154256 5.060000 -2.720000
v -3.920000 4.940000 -2.954256
v -3.920000 5.060000 -2.954256
v -3.600000 6.540000 -3.040000
v -3.600000 6.660000 -3.040000
v -3.280000 6.540000 -2.954256
v -3.280000 6.660000 -2.954256
v -3.045744 6.540000 -2.720000
v -3.045744 6.660000 -2.720000
v -2.960000 6.540000 -2.400000
v -2.960000 6.660000 -2.400000
v -3.045744 6.540000 -2.080000
v -3.045744 6.660000 -2.080000
v -3.280000 6.540000 -1.845743
v -3.280000 6.660000 -1.845743
v -3.600000 6.540000 -1.760000
v -3.600000 6.660000 -1.760000
v -3.920000 6.540000 -1.845743
v -3.920000 6.660000 -1.845743
v -4.154256 6.540000 -2.080000
v -4.154256 6.660000 -2.080000
v -4.240000 6.540000 -2.400000
v -4.240000 6.660000 -2.400000
v -4.154256 6.540000 -2.720000
v -4.154256 6.660000 -2.720000
v -3.920000 6.540000 -2.954256
v -3.920000 6.660000 -2.954256
v 3.600000 3.640000 -3.040000
v 3.600000 3.760000 -3.040000
v 3.920000 3.640000 -2.954256
v 3.920000 3.760000 -2.954256
v 4.154256 3.640000 -2.720000
v 4.154256 3.760000 -2.720000
v 4.240000 3.640000 -2.400000
v 4.240000 3.760000 -2.400000
v 4.154256 3.640000 -2.080000
v 4.154256 3.760000 -2.080000
v 3.920000 3.640000 -1.845743
v 3.920000 3.760000 -1.845743
v 3.600000 3.640000 -1.760000
v 3.600000 3.760000 -1.760000
v 3.280000 3.640000 -1.845743
v 3.280000 3.760000 -1.845743
v 3.045743 3.640000 -2.080000
v 3.045743 3.760000 -2.080000
v 2.960000 3.640000 -2.400000
v 2.960000 3.760000 -2.400000
v 3.045743 3.640000 -2.720000
v 3.045743 3.760000 -2.720000
v 3.280000 3.640000 -2.954256
v 3.280000 3.760000 -2.954256
v 3.600000 4.940000 -3.040000
v 3.600000 5.060000 -3.040000
v 3.920000 4.940000 -2.954256
v 3.920000 5.060000 -2.954256
v 4.154256 4.940000 -2.720000
v 4.154256 5.060000 -2.720000
v 4.240000 4.940000 -2.400000
v 4.240000 5.060000 -2.400000
v 4.154256 4.940000 -2.080000
v 4.154256 5.060000 -2.080000
v 3.920000 4.940000 -1.845743
v 3.920000 5.060000 -1.845743
v 3.600000 4.940000 -1.760000
v 3.600000 5.060000 -1.760000
v 3.280000 4.940000 -1.845743
v 3.280000 5.060000 -1.845743
v 3.045743 4.940000 -2.080000
v 3.045743 5.060000 -2.080000
v 2.960000 4.940000 -2.400000
v 2.960000 5.060000 -2.400000
v 3.045743 4.940000 -2.720000
v 3.045743 5.060000 -2.720000
v 3.280000 4.940000 -2.954256
v 3.280000 5.060000 -2.954256
v 3.600000 6.540000 -3.040000
v 3.600000 6.660000 -3.040000
v 3.920000 6.540000 -2.954256
v 3.920000 6.660000 -2.954256
v 4.154256 6.540000 -2.720000
v 4.154256 6.660000 -2.720000
v 4.240000 6.540000 -2.400000
v 4.240000 6.660000 -2.400000
v 4.154256 6.540000 -2.080000
v 4.154256 6.660000 -2.080000
v 3.920000 6.540000 -1.845743
v 3.920000 6.660000 -1.845743
v 3.600000 6.540000 -1.760000
v 3.600000 6.660000 -1.760000
v 3.280000 6.540000 -1.845743
v 3.280000 6.660000 -1.845743
v 3.045743 6.540000 -2.080000
v 3.045743 6.660000 -2.080000
v 2.960000 6.540000 -2.400000
v 2.960000 6.660000 -2.400000
v 3.045743 6.540000 -2.720000
v 3.045743 6.660000 -2.720000
v 3.280000 6.540000 -2.954256
v 3.280000 6.660000 -2.954256
vn -0.5773 -0.5774 0.5774
vn -0.5774 0.5774 0.5774
vn -0.5774 -0.5773 -0.5774
vn -0.5774 0.5773 -0.5774
vn 0.5774 -0.5773 0.5774
vn 0.5774 0.5773 0.5773
vn 0.5774 -0.5773 -0.5774
vn 0.5774 0.5773 -0.5773
vn -0.7071 -0.7071 -0.0000
vn -0.7071 -0.0000 0.7071
vn -0.7071 0.7071 -0.0000
vn -0.7071 -0.0000 -0.7071
vn -0.0000 -0.7071 -0.7071
vn -0.0000 0.7071 -0.7071
vn 0.7071 -0.0000 -0.7071
vn 0.7071 -0.7071 -0.0000
vn 0.7071 0.7071 -0.0000
vn 0.7071 -0.0000 0.7071
vn -0.0000 -0.7071 0.7071
vn -0.0000 0.7071 0.7071
vn -0.0000 -1.0000 -0.0000
vn -1.0000 -0.0000 -0.0000
vn -0.0000 -0.0000 1.0000
vn -0.0000 1.0000 -0.0000
vn -0.0000 -0.0000 -1.0000
vn 1.0000 -0.0000 -0.0000
vn 0.5000 0.8660 -0.0000
vn 0.5000 -0.8660 -0.0000
vn -0.5000 -0.8660 -0.0000
vn -0.5000 0.8660 -0.0000
vn -0.5774 -0.5773 0.5773
vn -0.5774 0.5773 0.5773
vn -0.5774 -0.5773 -0.5773
vn -0.5774 0.5773 -0.5773
vn 0.5774 0.5773 0.5774
vn 0.5774 0.5773 -0.5774
vn 0.5773 -0.5774 0.5774
vn 0.5774 0.5774 0.5774
vn 0.5774 0.5774 0.5773
vn -0.5773 0.5774 0.5774
vn 0.5773 -0.5774 0.5773
vn 0.5773 0.5774 0.5773
vn -0.5773 0.5773 0.5774
vn -0.5773 -0.5774 -0.5774
vn -0.5773 0.5773 -0.5774
vn 0.5773 -0.5773 0.5774
vn 0.5773 0.5774 0.5774
vn 0.5773 -0.5773 -0.5774
vn 0.5773 0.5774 -0.5774
vn -0.5773 -0.5773 0.5774
vn -0.5773 -0.5773 -0.5774
vn 0.5773 -0.5774 -0.5774
vn -0.5773 0.5774 -0.5774
vn 0.5773 0.5773 0.5774
vn 0.5773 0.5773 -0.5774
vn -0.5774 -0.5774 0.5774
vn -0.5774 -0.5774 -0.5774
vn -0.5774 0.5774 -0.5774
vn -0.5773 -0.5774 0.5773
vn -0.5773 0.5774 0.5773
vn -0.5774 -0.5773 0.5774
vn 0.5774 -0.5774 0.5773
vn 0.5774 -0.5774 -0.5773
vn -0.5774 0.5773 0.5774
vn 0.5774 0.5774 -0.5773
vn 0.3827 -0.0000 -0.9239
vn 0.9239 -0.0000 -0.3827
vn 0.9239 -0.0000 0.3827
vn 0.3827 -0.0000 0.9239
vn -0.3827 -0.0000 0.9239
vn -0.9239 -0.0000 0.3827
vn -0.9239 -0.0000 -0.3827
vn -0.3827 -0.0000 -0.9239
vn -0.0000 -0.3827 -0.9239
vn -0.0000 -0.9239 -0.3827
vn -0.0000 -0.9239 0.3827
vn -0.0000 -0.3827 0.9239
vn -0.0000 0.3827 0.9239
vn -0.0000 0.9239 0.3827
vn -0.0000 0.9239 -0.3827
vn -0.0000 0.3827 -0.9239
vn 0.2588 -0.0000 -0.9659
vn 0.9659 -0.0000 -0.2588
vn 0.9659 -0.0000 0.2588
vn 0.2588 -0.0000 0.9659
vn -0.2588 -0.0000 0.9659
vn -0.9659 -0.0000 0.2588
vn -0.9659 -0.0000 -0.2588
vn -0.2588 -0.0000 -0.9659
vt 0.375000 0.125000
vt 0.125000 0.625000
vt 0.625000 0.125000
vt 0.375000 0.875000
s 0
usemtl WorldPickupPalette
f 1/1/1 2/1/1 3/1/1
f 4/1/2 5/1/2 6/1/2
f 7/1/3 8/1/3 9/1/3
f 10/1/4 11/1/4 12/1/4
f 13/1/5 14/1/5 15/1/5
f 16/1/6 17/1/6 18/1/6
f 19/1/7 20/1/7 21/1/7
f 22/1/8 23/1/8 24/1/8
f 1/1/9 8/1/9 7/1/9
f 4/1/10 3/1/10 2/1/10
f 10/1/11 6/1/11 5/1/11
f 9/1/12 12/1/12 11/1/12
f 7/1/13 20/1/13 19/1/13
f 22/1/14 11/1/14 10/1/14
f 21/1/15 24/1/15 23/1/15
f 19/1/16 14/1/16 13/1/16
f 16/1/17 23/1/17 22/1/17
f 15/1/18 18/1/18 17/1/18
f 13/1/19 2/1/19 1/1/19
f 5/1/20 17/1/20 16/1/20
f 19/1/21 1/1/21 7/1/21
f 6/1/22 8/1/22 3/1/22
f 17/1/23 2/1/23 15/1/23
f 10/1/24 16/1/24 22/1/24
f 11/1/25 20/1/25 9/1/25
f 23/1/26 14/1/26 21/1/26
f 26/2/27 27/2/27 25/2/27
f 28/2/26 29/2/26 27/2/26
f 30/2/28 31/2/28 29/2/28
f 32/2/29 33/2/29 31/2/29
f 32/2/23 30/2/23 26/2/23
f 34/2/22 35/2/22 33/2/22
f 36/2/30 25/2/30 35/2/30
f 31/2/25 33/2/25 35/2/25
f 38/2/27 39/2/27 37/2/27
f 40/2/26 41/2/26 39/2/26
f 42/2/28 43/2/28 41/2/28
f 44/2/29 45/2/29 43/2/29
f 46/2/23 44/2/23 42/2/23
f 46/2/22 47/2/22 45/2/22
f 48/2/30 37/2/30 47/2/30
f 45/2/25 47/2/25 39/2/25
f 50/2/27 51/2/27 49/2/27
f 52/2/26 53/2/26 51/2/26
f 54/2/28 55/2/28 53/2/28
f 56/2/29 57/2/29 55/2/29
f 58/2/23 56/2/23 54/2/23
f 58/2/22 59/2/22 57/2/22
f 60/2/30 49/2/30 59/2/30
f 57/2/25 59/2/25 51/2/25
f 62/2/27 63/2/27 61/2/27
f 64/2/26 65/2/26 63/2/26
f 66/2/28 67/2/28 65/2/28
f 68/2/29 69/2/29 67/2/29
f 70/2/23 68/2/23 66/2/23
f 70/2/22 71/2/22 69/2/22
f 72/2/30 61/2/30 71/2/30
f 67/2/25 69/2/25 71/2/25
f 73/1/31 74/1/31 75/1/31
f 76/1/32 77/1/32 78/1/32
f 79/1/33 80/1/33 81/1/33
f 82/1/34 83/1/34 84/1/34
f 85/1/5 86/1/5 87/1/5
f 88/1/35 89/1/35 90/1/35
f 91/1/7 92/1/7 93/1/7
f 94/1/36 95/1/36 96/1/36
f 73/1/9 80/1/9 79/1/9
f 76/1/10 75/1/10 74/1/10
f 82/1/11 78/1/11 77/1/11
f 81/1/12 84/1/12 83/1/12
f 79/1/13 92/1/13 91/1/13
f 94/1/14 83/1/14 82/1/14
f 93/1/15 96/1/15 95/1/15
f 91/1/16 86/1/16 85/1/16
f 88/1/17 95/1/17 94/1/17
f 87/1/18 90/1/18 89/1/18
f 85/1/19 74/1/19 73/1/19
f 77/1/20 89/1/20 88/1/20
f 91/1/21 73/1/21 79/1/21
f 78/1/22 80/1/22 75/1/22
f 89/1/23 74/1/23 87/1/23
f 82/1/24 88/1/24 94/1/24
f 83/1/25 92/1/25 81/1/25
f 95/1/26 86/1/26 93/1/26
f 98/2/27 99/2/27 97/2/27
f 100/2/26 101/2/26 99/2/26
f 102/2/28 103/2/28 101/2/28
f 104/2/29 105/2/29 103/2/29
f 104/2/23 102/2/23 98/2/23
f 106/2/22 107/2/22 105/2/22
f 108/2/30 97/2/30 107/2/30
f 103/2/25 105/2/25 107/2/25
f 110/2/27 111/2/27 109/2/27
f 112/2/26 113/2/26 111/2/26
f 114/2/28 115/2/28 113/2/28
f 116/2/29 117/2/29 115/2/29
f 118/2/23 116/2/23 114/2/23
f 118/2/22 119/2/22 117/2/22
f 120/2/30 109/2/30 119/2/30
f 117/2/25 119/2/25 111/2/25
f 122/2/27 123/2/27 121/2/27
f 124/2/26 125/2/26 123/2/26
f 126/2/28 127/2/28 125/2/28
f 128/2/29 129/2/29 127/2/29
f 128/2/23 126/2/23 122/2/23
f 130/2/22 131/2/22 129/2/22
f 132/2/30 121/2/30 131/2/30
f 127/2/25 129/2/25 131/2/25
f 134/2/27 135/2/27 133/2/27
f 136/2/26 137/2/26 135/2/26
f 138/2/28 139/2/28 137/2/28
f 140/2/29 141/2/29 139/2/29
f 142/2/23 140/2/23 138/2/23
f 142/2/22 143/2/22 141/2/22
f 144/2/30 133/2/30 143/2/30
f 141/2/25 143/2/25 135/2/25
f 145/1/1 146/1/1 147/1/1
f 148/1/2 149/1/2 150/1/2
f 151/1/3 152/1/3 153/1/3
f 154/1/4 155/1/4 156/1/4
f 157/1/37 158/1/37 159/1/37
f 160/1/38 161/1/38 162/1/38
f 163/1/7 164/1/7 165/1/7
f 166/1/36 167/1/36 168/1/36
f 145/1/9 152/1/9 151/1/9
f 148/1/10 147/1/10 146/1/10
f 154/1/11 150/1/11 149/1/11
f 153/1/12 156/1/12 155/1/12
f 151/1/13 164/1/13 163/1/13
f 166/1/14 155/1/14 154/1/14
f 165/1/15 168/1/15 167/1/15
f 163/1/16 158/1/16 157/1/16
f 160/1/17 167/1/17 166/1/17
f 159/1/18 162/1/18 161/1/18
f 157/1/19 146/1/19 145/1/19
f 149/1/20 161/1/20 160/1/20
f 163/1/21 145/1/21 151/1/21
f 150/1/22 152/1/22 147/1/22
f 161/1/23 146/1/23 159/1/23
f 154/1/24 160/1/24 166/1/24
f 155/1/25 164/1/25 153/1/25
f 167/1/26 158/1/26 165/1/26
f 170/2/27 171/2/27 169/2/27
f 172/2/26 173/2/26 171/2/26
f 174/2/28 175/2/28 173/2/28
f 176/2/29 177/2/29 175/2/29
f 176/2/23 174/2/23 170/2/23
f 178/2/22 179/2/22 177/2/22
f 180/2/30 169/2/30 179/2/30
f 175/2/25 177/2/25 179/2/25
f 182/2/27 183/2/27 181/2/27
f 184/2/26 185/2/26 183/2/26
f 186/2/28 187/2/28 185/2/28
f 188/2/29 189/2/29 187/2/29
f 190/2/23 188/2/23 186/2/23
f 190/2/22 191/2/22 189/2/22
f 192/2/30 181/2/30 191/2/30
f 189/2/25 191/2/25 183/2/25
f 194/2/27 195/2/27 193/2/27
f 196/2/26 197/2/26 195/2/26
f 198/2/28 199/2/28 197/2/28
f 200/2/29 201/2/29 199/2/29
f 200/2/23 198/2/23 194/2/23
f 202/2/22 203/2/22 201/2/22
f 204/2/30 193/2/30 203/2/30
f 199/2/25 201/2/25 203/2/25
f 206/2/27 207/2/27 205/2/27
f 208/2/26 209/2/26 207/2/26
f 210/2/28 211/2/28 209/2/28
f 212/2/29 213/2/29 211/2/29
f 214/2/23 212/2/23 210/2/23
f 214/2/22 215/2/22 213/2/22
f 216/2/30 205/2/30 215/2/30
f 213/2/25 215/2/25 207/2/25
f 217/1/1 218/1/1 219/1/1
f 220/1/2 221/1/2 222/1/2
f 223/1/3 224/1/3 225/1/3
f 226/1/4 227/1/4 228/1/4
f 229/1/37 230/1/37 231/1/37
f 232/1/39 233/1/39 234/1/39
f 235/1/7 236/1/7 237/1/7
f 238/1/8 239/1/8 240/1/8
f 217/1/9 224/1/9 223/1/9
f 220/1/10 219/1/10 218/1/10
f 226/1/11 222/1/11 221/1/11
f 225/1/12 228/1/12 227/1/12
f 223/1/13 236/1/13 235/1/13
f 238/1/14 227/1/14 226/1/14
f 237/1/15 240/1/15 239/1/15
f 235/1/16 230/1/16 229/1/16
f 232/1/17 239/1/17 238/1/17
f 231/1/18 234/1/18 233/1/18
f 229/1/19 218/1/19 217/1/19
f 221/1/20 233/1/20 232/1/20
f 235/1/21 217/1/21 223/1/21
f 222/1/22 224/1/22 219/1/22
f 233/1/23 218/1/23 231/1/23
f 226/1/24 232/1/24 238/1/24
f 227/1/25 236/1/25 225/1/25
f 239/1/26 230/1/26 237/1/26
f 242/2/27 243/2/27 241/2/27
f 244/2/26 245/2/26 243/2/26
f 246/2/28 247/2/28 245/2/28
f 248/2/29 249/2/29 247/2/29
f 248/2/23 246/2/23 242/2/23
f 250/2/22 251/2/22 249/2/22
f 252/2/30 241/2/30 251/2/30
f 247/2/25 249/2/25 251/2/25
f 254/2/27 255/2/27 253/2/27
f 256/2/26 257/2/26 255/2/26
f 258/2/28 259/2/28 257/2/28
f 260/2/29 261/2/29 259/2/29
f 262/2/23 260/2/23 258/2/23
f 262/2/22 263/2/22 261/2/22
f 264/2/30 253/2/30 263/2/30
f 261/2/25 263/2/25 255/2/25
f 266/2/27 267/2/27 265/2/27
f 268/2/26 269/2/26 267/2/26
f 270/2/28 271/2/28 269/2/28
f 272/2/29 273/2/29 271/2/29
f 272/2/23 270/2/23 266/2/23
f 274/2/22 275/2/22 273/2/22
f 276/2/30 265/2/30 275/2/30
f 271/2/25 273/2/25 275/2/25
f 278/2/27 279/2/27 277/2/27
f 280/2/26 281/2/26 279/2/26
f 282/2/28 283/2/28 281/2/28
f 284/2/29 285/2/29 283/2/29
f 286/2/23 284/2/23 282/2/23
f 286/2/22 287/2/22 285/2/22
f 288/2/30 277/2/30 287/2/30
f 285/2/25 287/2/25 279/2/25
f 289/3/1 290/3/1 291/3/1
f 292/3/40 293/3/40 294/3/40
f 295/3/3 296/3/3 297/3/3
f 298/3/4 299/3/4 300/3/4
f 301/3/41 302/3/41 303/3/41
f 304/3/42 305/3/42 306/3/42
f 307/3/7 308/3/7 309/3/7
f 310/3/36 311/3/36 312/3/36
f 289/3/9 296/3/9 295/3/9
f 292/3/10 291/3/10 290/3/10
f 298/3/11 294/3/11 293/3/11
f 297/3/12 300/3/12 299/3/12
f 295/3/13 308/3/13 307/3/13
f 310/3/14 299/3/14 298/3/14
f 309/3/15 312/3/15 311/3/15
f 307/3/16 302/3/16 301/3/16
f 304/3/17 311/3/17 310/3/17
f 303/3/18 306/3/18 305/3/18
f 301/3/19 290/3/19 289/3/19
f 293/3/20 305/3/20 304/3/20
f 307/3/21 289/3/21 295/3/21
f 294/3/22 296/3/22 291/3/22
f 305/3/23 290/3/23 303/3/23
f 298/3/24 304/3/24 310/3/24
f 299/3/25 308/3/25 297/3/25
f 311/3/26 302/3/26 309/3/26
f 314/2/27 315/2/27 313/2/27
f 316/2/26 317/2/26 315/2/26
f 318/2/28 319/2/28 317/2/28
f 320/2/29 321/2/29 319/2/29
f 320/2/23 318/2/23 314/2/23
f 322/2/22 323/2/22 321/2/22
f 324/2/30 313/2/30 323/2/30
f 319/2/25 321/2/25 323/2/25
f 326/2/27 327/2/27 325/2/27
f 328/2/26 329/2/26 327/2/26
f 330/2/28 331/2/28 329/2/28
f 332/2/29 333/2/29 331/2/29
f 334/2/23 332/2/23 330/2/23
f 334/2/22 335/2/22 333/2/22
f 336/2/30 325/2/30 335/2/30
f 333/2/25 335/2/25 327/2/25
f 338/2/27 339/2/27 337/2/27
f 340/2/26 341/2/26 339/2/26
f 342/2/28 343/2/28 341/2/28
f 344/2/29 345/2/29 343/2/29
f 344/2/23 342/2/23 338/2/23
f 346/2/22 347/2/22 345/2/22
f 348/2/30 337/2/30 347/2/30
f 343/2/25 345/2/25 347/2/25
f 350/2/27 351/2/27 349/2/27
f 352/2/26 353/2/26 351/2/26
f 354/2/28 355/2/28 353/2/28
f 356/2/29 357/2/29 355/2/29
f 358/2/23 356/2/23 354/2/23
f 358/2/22 359/2/22 357/2/22
f 360/2/30 349/2/30 359/2/30
f 357/2/25 359/2/25 351/2/25
f 361/2/1 362/2/1 363/2/1
f 364/2/43 365/2/43 366/2/43
f 367/2/44 368/2/44 369/2/44
f 370/2/45 371/2/45 372/2/45
f 373/2/46 374/2/46 375/2/46
f 376/2/47 377/2/47 378/2/47
f 379/2/48 380/2/48 381/2/48
f 382/2/49 383/2/49 384/2/49
f 361/2/9 368/2/9 367/2/9
f 364/2/10 363/2/10 362/2/10
f 370/2/11 366/2/11 365/2/11
f 369/2/12 372/2/12 371/2/12
f 367/2/13 380/2/13 379/2/13
f 382/2/14 371/2/14 370/2/14
f 381/2/15 384/2/15 383/2/15
f 379/2/16 374/2/16 373/2/16
f 376/2/17 383/2/17 382/2/17
f 375/2/18 378/2/18 377/2/18
f 373/2/19 362/2/19 361/2/19
f 365/2/20 377/2/20 376/2/20
f 379/2/21 361/2/21 367/2/21
f 366/2/22 368/2/22 363/2/22
f 377/2/23 362/2/23 375/2/23
f 370/2/24 376/2/24 382/2/24
f 371/2/25 380/2/25 369/2/25
f 383/2/26 374/2/26 381/2/26
f 385/2/50 386/2/50 387/2/50
f 388/2/43 389/2/43 390/2/43
f 391/2/51 392/2/51 393/2/51
f 394/2/45 395/2/45 396/2/45
f 397/2/37 398/2/37 399/2/37
f 400/2/47 401/2/47 402/2/47
f 403/2/52 404/2/52 405/2/52
f 406/2/49 407/2/49 408/2/49
f 385/2/9 392/2/9 391/2/9
f 388/2/10 387/2/10 386/2/10
f 394/2/11 390/2/11 389/2/11
f 393/2/12 396/2/12 395/2/12
f 391/2/13 404/2/13 403/2/13
f 406/2/14 395/2/14 394/2/14
f 405/2/15 408/2/15 407/2/15
f 403/2/16 398/2/16 397/2/16
f 400/2/17 407/2/17 406/2/17
f 399/2/18 402/2/18 401/2/18
f 397/2/19 386/2/19 385/2/19
f 389/2/20 401/2/20 400/2/20
f 403/2/21 385/2/21 391/2/21
f 390/2/22 392/2/22 387/2/22
f 401/2/23 386/2/23 399/2/23
f 394/2/24 400/2/24 406/2/24
f 395/2/25 404/2/25 393/2/25
f 407/2/26 398/2/26 405/2/26
f 409/2/50 410/2/50 411/2/50
f 412/2/43 413/2/43 414/2/43
f 415/2/51 416/2/51 417/2/51
f 418/2/45 419/2/45 420/2/45
f 421/2/37 422/2/37 423/2/37
f 424/2/47 425/2/47 426/2/47
f 427/2/52 428/2/52 429/2/52
f 430/2/49 431/2/49 432/2/49
f 409/2/9 416/2/9 415/2/9
f 412/2/10 411/2/10 410/2/10
f 418/2/11 414/2/11 413/2/11
f 417/2/12 420/2/12 419/2/12
f 415/2/13 428/2/13 427/2/13
f 430/2/14 419/2/14 418/2/14
f 429/2/15 432/2/15 431/2/15
f 427/2/16 422/2/16 421/2/16
f 424/2/17 431/2/17 430/2/17
f 423/2/18 426/2/18 425/2/18
f 421/2/19 410/2/19 409/2/19
f 413/2/20 425/2/20 424/2/20
f 427/2/21 409/2/21 415/2/21
f 414/2/22 416/2/22 411/2/22
f 425/2/23 410/2/23 423/2/23
f 418/2/24 424/2/24 430/2/24
f 419/2/25 428/2/25 417/2/25
f 431/2/26 422/2/26 429/2/26
f 433/2/1 434/2/1 435/2/1
f 436/2/40 437/2/40 438/2/40
f 439/2/44 440/2/44 441/2/44
f 442/2/53 443/2/53 444/2/53
f 445/2/46 446/2/46 447/2/46
f 448/2/54 449/2/54 450/2/54
f 451/2/48 452/2/48 453/2/48
f 454/2/55 455/2/55 456/2/55
f 433/2/9 440/2/9 439/2/9
f 436/2/10 435/2/10 434/2/10
f 442/2/11 438/2/11 437/2/11
f 441/2/12 444/2/12 443/2/12
f 439/2/13 452/2/13 451/2/13
f 454/2/14 443/2/14 442/2/14
f 453/2/15 456/2/15 455/2/15
f 451/2/16 446/2/16 445/2/16
f 448/2/17 455/2/17 454/2/17
f 447/2/18 450/2/18 449/2/18
f 445/2/19 434/2/19 433/2/19
f 437/2/20 449/2/20 448/2/20
f 451/2/21 433/2/21 439/2/21
f 438/2/22 440/2/22 435/2/22
f 449/2/23 434/2/23 447/2/23
f 442/2/24 448/2/24 454/2/24
f 443/2/25 452/2/25 441/2/25
f 455/2/26 446/2/26 453/2/26
f 457/2/56 458/2/56 459/2/56
f 460/2/2 461/2/2 462/2/2
f 463/2/57 464/2/57 465/2/57
f 466/2/58 467/2/58 468/2/58
f 469/2/46 470/2/46 471/2/46
f 472/2/54 473/2/54 474/2/54
f 475/2/48 476/2/48 477/2/48
f 478/2/55 479/2/55 480/2/55
f 457/2/9 464/2/9 463/2/9
f 460/2/10 459/2/10 458/2/10
f 466/2/11 462/2/11 461/2/11
f 465/2/12 468/2/12 467/2/12
f 463/2/13 476/2/13 475/2/13
f 478/2/14 467/2/14 466/2/14
f 477/2/15 480/2/15 479/2/15
f 475/2/16 470/2/16 469/2/16
f 472/2/17 479/2/17 478/2/17
f 471/2/18 474/2/18 473/2/18
f 469/2/19 458/2/19 457/2/19
f 461/2/20 473/2/20 472/2/20
f 475/2/21 457/2/21 463/2/21
f 462/2/22 464/2/22 459/2/22
f 473/2/23 458/2/23 471/2/23
f 466/2/24 472/2/24 478/2/24
f 467/2/25 476/2/25 465/2/25
f 479/2/26 470/2/26 477/2/26
f 481/3/59 482/3/59 483/3/59
f 484/3/60 485/3/60 486/3/60
f 487/3/3 488/3/3 489/3/3
f 490/3/4 491/3/4 492/3/4
f 493/3/37 494/3/37 495/3/37
f 496/3/47 497/3/47 498/3/47
f 499/3/52 500/3/52 501/3/52
f 502/3/49 503/3/49 504/3/49
f 481/3/9 488/3/9 487/3/9
f 484/3/10 483/3/10 482/3/10
f 490/3/11 486/3/11 485/3/11
f 489/3/12 492/3/12 491/3/12
f 487/3/13 500/3/13 499/3/13
f 502/3/14 491/3/14 490/3/14
f 501/3/15 504/3/15 503/3/15
f 499/3/16 494/3/16 493/3/16
f 496/3/17 503/3/17 502/3/17
f 495/3/18 498/3/18 497/3/18
f 493/3/19 482/3/19 481/3/19
f 485/3/20 497/3/20 496/3/20
f 499/3/21 481/3/21 487/3/21
f 486/3/22 488/3/22 483/3/22
f 497/3/23 482/3/23 495/3/23
f 490/3/24 496/3/24 502/3/24
f 491/3/25 500/3/25 489/3/25
f 503/3/26 494/3/26 501/3/26
f 506/2/27 507/2/27 505/2/27
f 508/2/26 509/2/26 507/2/26
f 510/2/28 511/2/28 509/2/28
f 512/2/29 513/2/29 511/2/29
f 512/2/23 510/2/23 506/2/23
f 514/2/22 515/2/22 513/2/22
f 516/2/30 505/2/30 515/2/30
f 511/2/25 513/2/25 515/2/25
f 518/2/27 519/2/27 517/2/27
f 520/2/26 521/2/26 519/2/26
f 522/2/28 523/2/28 521/2/28
f 524/2/29 525/2/29 523/2/29
f 526/2/23 524/2/23 522/2/23
f 526/2/22 527/2/22 525/2/22
f 528/2/30 517/2/30 527/2/30
f 525/2/25 527/2/25 519/2/25
f 530/2/27 531/2/27 529/2/27
f 532/2/26 533/2/26 531/2/26
f 534/2/28 535/2/28 533/2/28
f 536/2/29 537/2/29 535/2/29
f 538/2/23 536/2/23 534/2/23
f 538/2/22 539/2/22 537/2/22
f 540/2/30 529/2/30 539/2/30
f 537/2/25 539/2/25 531/2/25
f 542/2/27 543/2/27 541/2/27
f 544/2/26 545/2/26 543/2/26
f 546/2/28 547/2/28 545/2/28
f 548/2/29 549/2/29 547/2/29
f 550/2/23 548/2/23 546/2/23
f 550/2/22 551/2/22 549/2/22
f 552/2/30 541/2/30 551/2/30
f 547/2/25 549/2/25 551/2/25
f 553/2/61 554/2/61 555/2/61
f 556/2/32 557/2/32 558/2/32
f 559/2/3 560/2/3 561/2/3
f 562/2/34 563/2/34 564/2/34
f 565/2/62 566/2/62 567/2/62
f 568/2/35 569/2/35 570/2/35
f 571/2/63 572/2/63 573/2/63
f 574/2/36 575/2/36 576/2/36
f 553/2/9 560/2/9 559/2/9
f 556/2/10 555/2/10 554/2/10
f 562/2/11 558/2/11 557/2/11
f 561/2/12 564/2/12 563/2/12
f 559/2/13 572/2/13 571/2/13
f 574/2/14 563/2/14 562/2/14
f 573/2/15 576/2/15 575/2/15
f 571/2/16 566/2/16 565/2/16
f 568/2/17 575/2/17 574/2/17
f 567/2/18 570/2/18 569/2/18
f 565/2/19 554/2/19 553/2/19
f 557/2/20 569/2/20 568/2/20
f 571/2/21 553/2/21 559/2/21
f 558/2/22 560/2/22 555/2/22
f 569/2/23 554/2/23 567/2/23
f 562/2/24 568/2/24 574/2/24
f 563/2/25 572/2/25 561/2/25
f 575/2/26 566/2/26 573/2/26
f 577/2/31 578/2/31 579/2/31
f 580/2/32 581/2/32 582/2/32
f 583/2/33 584/2/33 585/2/33
f 586/2/34 587/2/34 588/2/34
f 589/2/5 590/2/5 591/2/5
f 592/2/35 593/2/35 594/2/35
f 595/2/7 596/2/7 597/2/7
f 598/2/36 599/2/36 600/2/36
f 577/2/9 584/2/9 583/2/9
f 580/2/10 579/2/10 578/2/10
f 586/2/11 582/2/11 581/2/11
f 585/2/12 588/2/12 587/2/12
f 583/2/13 596/2/13 595/2/13
f 598/2/14 587/2/14 586/2/14
f 597/2/15 600/2/15 599/2/15
f 595/2/16 590/2/16 589/2/16
f 592/2/17 599/2/17 598/2/17
f 591/2/18 594/2/18 593/2/18
f 589/2/19 578/2/19 577/2/19
f 581/2/20 593/2/20 592/2/20
f 595/2/21 577/2/21 583/2/21
f 582/2/22 584/2/22 579/2/22
f 593/2/23 578/2/23 591/2/23
f 586/2/24 592/2/24 598/2/24
f 587/2/25 596/2/25 585/2/25
f 599/2/26 590/2/26 597/2/26
f 601/2/31 602/2/31 603/2/31
f 604/2/32 605/2/32 606/2/32
f 607/2/33 608/2/33 609/2/33
f 610/2/34 611/2/34 612/2/34
f 613/2/5 614/2/5 615/2/5
f 616/2/35 617/2/35 618/2/35
f 619/2/7 620/2/7 621/2/7
f 622/2/36 623/2/36 624/2/36
f 601/2/9 608/2/9 607/2/9
f 604/2/10 603/2/10 602/2/10
f 610/2/11 606/2/11 605/2/11
f 609/2/12 612/2/12 611/2/12
f 607/2/13 620/2/13 619/2/13
f 622/2/14 611/2/14 610/2/14
f 621/2/15 624/2/15 623/2/15
f 619/2/16 614/2/16 613/2/16
f 616/2/17 623/2/17 622/2/17
f 615/2/18 618/2/18 617/2/18
f 613/2/19 602/2/19 601/2/19
f 605/2/20 617/2/20 616/2/20
f 619/2/21 601/2/21 607/2/21
f 606/2/22 608/2/22 603/2/22
f 617/2/23 602/2/23 615/2/23
f 610/2/24 616/2/24 622/2/24
f 611/2/25 620/2/25 609/2/25
f 623/2/26 614/2/26 621/2/26
f 625/2/61 626/2/61 627/2/61
f 628/2/64 629/2/64 630/2/64
f 631/2/3 632/2/3 633/2/3
f 634/2/4 635/2/4 636/2/4
f 637/2/62 638/2/62 639/2/62
f 640/2/39 641/2/39 642/2/39
f 643/2/63 644/2/63 645/2/63
f 646/2/65 647/2/65 648/2/65
f 625/2/9 632/2/9 631/2/9
f 628/2/10 627/2/10 626/2/10
f 634/2/11 630/2/11 629/2/11
f 633/2/12 636/2/12 635/2/12
f 631/2/13 644/2/13 643/2/13
f 646/2/14 635/2/14 634/2/14
f 645/2/15 648/2/15 647/2/15
f 643/2/16 638/2/16 637/2/16
f 640/2/17 647/2/17 646/2/17
f 639/2/18 642/2/18 641/2/18
f 637/2/19 626/2/19 625/2/19
f 629/2/20 641/2/20 640/2/20
f 643/2/21 625/2/21 631/2/21
f 630/2/22 632/2/22 627/2/22
f 641/2/23 626/2/23 639/2/23
f 634/2/24 640/2/24 646/2/24
f 635/2/25 644/2/25 633/2/25
f 647/2/26 638/2/26 645/2/26
f 649/2/61 650/2/61 651/2/61
f 652/2/64 653/2/64 654/2/64
f 655/2/3 656/2/3 657/2/3
f 658/2/4 659/2/4 660/2/4
f 661/2/62 662/2/62 663/2/62
f 664/2/39 665/2/39 666/2/39
f 667/2/63 668/2/63 669/2/63
f 670/2/65 671/2/65 672/2/65
f 649/2/9 656/2/9 655/2/9
f 652/2/10 651/2/10 650/2/10
f 658/2/11 654/2/11 653/2/11
f 657/2/12 660/2/12 659/2/12
f 655/2/13 668/2/13 667/2/13
f 670/2/14 659/2/14 658/2/14
f 669/2/15 672/2/15 671/2/15
f 667/2/16 662/2/16 661/2/16
f 664/2/17 671/2/17 670/2/17
f 663/2/18 666/2/18 665/2/18
f 661/2/19 650/2/19 649/2/19
f 653/2/20 665/2/20 664/2/20
f 667/2/21 649/2/21 655/2/21
f 654/2/22 656/2/22 651/2/22
f 665/2/23 650/2/23 663/2/23
f 658/2/24 664/2/24 670/2/24
f 659/2/25 668/2/25 657/2/25
f 671/2/26 662/2/26 669/2/26
f 674/2/66 675/2/66 673/2/66
f 676/2/67 677/2/67 675/2/67
f 678/2/68 679/2/68 677/2/68
f 680/2/69 681/2/69 679/2/69
f 682/2/70 683/2/70 681/2/70
f 684/2/71 685/2/71 683/2/71
f 686/2/24 682/2/24 678/2/24
f 686/2/72 687/2/72 685/2/72
f 688/2/73 673/2/73 687/2/73
f 685/2/21 687/2/21 679/2/21
f 690/2/66 691/2/66 689/2/66
f 692/2/67 693/2/67 691/2/67
f 694/2/68 695/2/68 693/2/68
f 696/2/69 697/2/69 695/2/69
f 698/2/70 699/2/70 697/2/70
f 700/2/71 701/2/71 699/2/71
f 702/2/24 698/2/24 694/2/24
f 702/2/72 703/2/72 701/2/72
f 704/2/73 689/2/73 703/2/73
f 701/2/21 703/2/21 695/2/21
f 706/4/74 707/4/74 705/4/74
f 708/4/75 709/4/75 707/4/75
f 710/4/76 711/4/76 709/4/76
f 712/4/77 713/4/77 711/4/77
f 714/4/78 715/4/78 713/4/78
f 716/4/79 717/4/79 715/4/79
f 712/4/26 710/4/26 718/4/26
f 718/4/80 719/4/80 717/4/80
f 720/4/81 705/4/81 719/4/81
f 717/4/22 719/4/22 711/4/22
f 722/4/74 723/4/74 721/4/74
f 724/4/75 725/4/75 723/4/75
f 726/4/76 727/4/76 725/4/76
f 728/4/77 729/4/77 727/4/77
f 730/4/78 731/4/78 729/4/78
f 732/4/79 733/4/79 731/4/79
f 728/4/26 726/4/26 734/4/26
f 734/4/80 735/4/80 733/4/80
f 736/4/81 721/4/81 735/4/81
f 733/4/22 735/4/22 727/4/22
f 738/4/74 739/4/74 737/4/74
f 740/4/75 741/4/75 739/4/75
f 742/4/76 743/4/76 741/4/76
f 744/4/77 745/4/77 743/4/77
f 746/4/78 747/4/78 745/4/78
f 748/4/79 749/4/79 747/4/79
f 744/4/26 742/4/26 750/4/26
f 750/4/80 751/4/80 749/4/80
f 752/4/81 737/4/81 751/4/81
f 749/4/22 751/4/22 743/4/22
f 754/4/74 755/4/74 753/4/74
f 756/4/75 757/4/75 755/4/75
f 758/4/76 759/4/76 757/4/76
f 760/4/77 761/4/77 759/4/77
f 762/4/78 763/4/78 761/4/78
f 764/4/79 765/4/79 763/4/79
f 760/4/26 758/4/26 766/4/26
f 766/4/80 767/4/80 765/4/80
f 768/4/81 753/4/81 767/4/81
f 765/4/22 767/4/22 759/4/22
f 770/4/74 771/4/74 769/4/74
f 772/4/75 773/4/75 771/4/75
f 774/4/76 775/4/76 773/4/76
f 776/4/77 777/4/77 775/4/77
f 778/4/78 779/4/78 777/4/78
f 780/4/79 781/4/79 779/4/79
f 776/4/26 774/4/26 782/4/26
f 782/4/80 783/4/80 781/4/80
f 784/4/81 769/4/81 783/4/81
f 781/4/22 783/4/22 775/4/22
f 786/4/74 787/4/74 785/4/74
f 788/4/75 789/4/75 787/4/75
f 790/4/76 791/4/76 789/4/76
f 792/4/77 793/4/77 791/4/77
f 794/4/78 795/4/78 793/4/78
f 796/4/79 797/4/79 795/4/79
f 792/4/26 790/4/26 798/4/26
f 798/4/80 799/4/80 797/4/80
f 800/4/81 785/4/81 799/4/81
f 797/4/22 799/4/22 791/4/22
f 802/4/74 803/4/74 801/4/74
f 804/4/75 805/4/75 803/4/75
f 806/4/76 807/4/76 805/4/76
f 808/4/77 809/4/77 807/4/77
f 810/4/78 811/4/78 809/4/78
f 812/4/79 813/4/79 811/4/79
f 808/4/26 806/4/26 814/4/26
f 814/4/80 815/4/80 813/4/80
f 816/4/81 801/4/81 815/4/81
f 813/4/22 815/4/22 807/4/22
f 818/4/74 819/4/74 817/4/74
f 820/4/75 821/4/75 819/4/75
f 822/4/76 823/4/76 821/4/76
f 824/4/77 825/4/77 823/4/77
f 826/4/78 827/4/78 825/4/78
f 828/4/79 829/4/79 827/4/79
f 824/4/26 822/4/26 830/4/26
f 830/4/80 831/4/80 829/4/80
f 832/4/81 817/4/81 831/4/81
f 823/4/22 827/4/22 831/4/22
f 834/4/74 835/4/74 833/4/74
f 836/4/75 837/4/75 835/4/75
f 838/4/76 839/4/76 837/4/76
f 840/4/77 841/4/77 839/4/77
f 842/4/78 843/4/78 841/4/78
f 844/4/79 845/4/79 843/4/79
f 840/4/26 838/4/26 846/4/26
f 846/4/80 847/4/80 845/4/80
f 848/4/81 833/4/81 847/4/81
f 845/4/22 847/4/22 839/4/22
f 850/4/74 851/4/74 849/4/74
f 852/4/75 853/4/75 851/4/75
f 854/4/76 855/4/76 853/4/76
f 856/4/77 857/4/77 855/4/77
f 858/4/78 859/4/78 857/4/78
f 860/4/79 861/4/79 859/4/79
f 856/4/26 854/4/26 862/4/26
f 862/4/80 863/4/80 861/4/80
f 864/4/81 849/4/81 863/4/81
f 861/4/22 863/4/22 855/4/22
f 866/4/74 867/4/74 865/4/74
f 868/4/75 869/4/75 867/4/75
f 870/4/76 871/4/76 869/4/76
f 872/4/77 873/4/77 871/4/77
f 874/4/78 875/4/78 873/4/78
f 876/4/79 877/4/79 875/4/79
f 872/4/26 870/4/26 878/4/26
f 878/4/80 879/4/80 877/4/80
f 880/4/81 865/4/81 879/4/81
f 871/4/22 875/4/22 879/4/22
f 882/4/82 883/4/82 881/4/82
f 884/4/15 885/4/15 883/4/15
f 886/4/83 887/4/83 885/4/83
f 888/4/84 889/4/84 887/4/84
f 890/4/18 891/4/18 889/4/18
f 892/4/85 893/4/85 891/4/85
f 894/4/86 895/4/86 893/4/86
f 896/4/10 897/4/10 895/4/10
f 898/4/87 899/4/87 897/4/87
f 900/4/88 901/4/88 899/4/88
f 882/4/24 902/4/24 894/4/24
f 902/4/12 903/4/12 901/4/12
f 904/4/89 881/4/89 903/4/89
f 899/4/21 903/4/21 887/4/21
f 906/4/82 907/4/82 905/4/82
f 908/4/15 909/4/15 907/4/15
f 910/4/83 911/4/83 909/4/83
f 912/4/84 913/4/84 911/4/84
f 914/4/18 915/4/18 913/4/18
f 916/4/85 917/4/85 915/4/85
f 918/4/86 919/4/86 917/4/86
f 920/4/10 921/4/10 919/4/10
f 922/4/87 923/4/87 921/4/87
f 924/4/88 925/4/88 923/4/88
f 906/4/24 926/4/24 918/4/24
f 926/4/12 927/4/12 925/4/12
f 928/4/89 905/4/89 927/4/89
f 923/4/21 927/4/21 911/4/21
f 930/4/82 931/4/82 929/4/82
f 932/4/15 933/4/15 931/4/15
f 934/4/83 935/4/83 933/4/83
f 936/4/84 937/4/84 935/4/84
f 938/4/18 939/4/18 937/4/18
f 940/4/85 941/4/85 939/4/85
f 942/4/86 943/4/86 941/4/86
f 944/4/10 945/4/10 943/4/10
f 946/4/87 947/4/87 945/4/87
f 948/4/88 949/4/88 947/4/88
f 930/4/24 950/4/24 942/4/24
f 950/4/12 951/4/12 949/4/12
f 952/4/89 929/4/89 951/4/89
f 947/4/21 951/4/21 935/4/21
f 954/4/82 955/4/82 953/4/82
f 956/4/15 957/4/15 955/4/15
f 958/4/83 959/4/83 957/4/83
f 960/4/84 961/4/84 959/4/84
f 962/4/18 963/4/18 961/4/18
f 964/4/85 965/4/85 963/4/85
f 966/4/86 967/4/86 965/4/86
f 968/4/10 969/4/10 967/4/10
f 970/4/87 971/4/87 969/4/87
f 972/4/88 973/4/88 971/4/88
f 966/4/24 962/4/24 958/4/24
f 974/4/12 975/4/12 973/4/12
f 976/4/89 953/4/89 975/4/89
f 971/4/21 975/4/21 959/4/21
f 978/4/82 979/4/82 977/4/82
f 980/4/15 981/4/15 979/4/15
f 982/4/83 983/4/83 981/4/83
f 984/4/84 985/4/84 983/4/84
f 986/4/18 987/4/18 985/4/18
f 988/4/85 989/4/85 987/4/85
f 990/4/86 991/4/86 989/4/86
f 992/4/10 993/4/10 991/4/10
f 994/4/87 995/4/87 993/4/87
f 996/4/88 997/4/88 995/4/88
f 990/4/24 986/4/24 982/4/24
f 998/4/12 999/4/12 997/4/12
f 1000/4/89 977/4/89 999/4/89
f 995/4/21 999/4/21 983/4/21
f 1002/4/82 1003/4/82 1001/4/82
f 1004/4/15 1005/4/15 1003/4/15
f 1006/4/83 1007/4/83 1005/4/83
f 1008/4/84 1009/4/84 1007/4/84
f 1010/4/18 1011/4/18 1009/4/18
f 1012/4/85 1013/4/85 1011/4/85
f 1014/4/86 1015/4/86 1013/4/86
f 1016/4/10 1017/4/10 1015/4/10
f 1018/4/87 1019/4/87 1017/4/87
f 1020/4/88 1021/4/88 1019/4/88
f 1014/4/24 1010/4/24 1006/4/24
f 1022/4/12 1023/4/12 1021/4/12
f 1024/4/89 1001/4/89 1023/4/89
f 1019/4/21 1023/4/21 1007/4/21
f 1/1/9 3/1/9 8/1/9
f 4/1/10 6/1/10 3/1/10
f 10/1/11 12/1/11 6/1/11
f 9/1/12 8/1/12 12/1/12
f 7/1/13 9/1/13 20/1/13
f 22/1/14 24/1/14 11/1/14
f 21/1/15 20/1/15 24/1/15
f 19/1/16 21/1/16 14/1/16
f 16/1/17 18/1/17 23/1/17
f 15/1/18 14/1/18 18/1/18
f 13/1/19 15/1/19 2/1/19
f 5/1/20 4/1/20 17/1/20
f 19/1/21 13/1/21 1/1/21
f 6/1/22 12/1/22 8/1/22
f 17/1/23 4/1/23 2/1/23
f 10/1/24 5/1/24 16/1/24
f 11/1/25 24/1/25 20/1/25
f 23/1/26 18/1/26 14/1/26
f 26/2/27 28/2/27 27/2/27
f 28/2/26 30/2/26 29/2/26
f 30/2/28 32/2/28 31/2/28
f 32/2/29 34/2/29 33/2/29
f 30/2/23 28/2/23 26/2/23
f 26/2/23 36/2/23 34/2/23
f 34/2/23 32/2/23 26/2/23
f 34/2/22 36/2/22 35/2/22
f 36/2/30 26/2/30 25/2/30
f 35/2/25 25/2/25 31/2/25
f 25/2/25 27/2/25 31/2/25
f 27/2/25 29/2/25 31/2/25
f 38/2/27 40/2/27 39/2/27
f 40/2/26 42/2/26 41/2/26
f 42/2/28 44/2/28 43/2/28
f 44/2/29 46/2/29 45/2/29
f 42/2/23 40/2/23 46/2/23
f 40/2/23 38/2/23 46/2/23
f 38/2/23 48/2/23 46/2/23
f 46/2/22 48/2/22 47/2/22
f 48/2/30 38/2/30 37/2/30
f 47/2/25 37/2/25 39/2/25
f 39/2/25 41/2/25 43/2/25
f 43/2/25 45/2/25 39/2/25
f 50/2/27 52/2/27 51/2/27
f 52/2/26 54/2/26 53/2/26
f 54/2/28 56/2/28 55/2/28
f 56/2/29 58/2/29 57/2/29
f 54/2/23 52/2/23 58/2/23
f 52/2/23 50/2/23 58/2/23
f 50/2/23 60/2/23 58/2/23
f 58/2/22 60/2/22 59/2/22
f 60/2/30 50/2/30 49/2/30
f 59/2/25 49/2/25 51/2/25
f 51/2/25 53/2/25 55/2/25
f 55/2/25 57/2/25 51/2/25
f 62/2/27 64/2/27 63/2/27
f 64/2/26 66/2/26 65/2/26
f 66/2/28 68/2/28 67/2/28
f 68/2/29 70/2/29 69/2/29
f 66/2/23 64/2/23 70/2/23
f 64/2/23 62/2/23 70/2/23
f 62/2/23 72/2/23 70/2/23
f 70/2/22 72/2/22 71/2/22
f 72/2/30 62/2/30 61/2/30
f 71/2/25 61/2/25 63/2/25
f 63/2/25 65/2/25 71/2/25
f 65/2/25 67/2/25 71/2/25
f 73/1/9 75/1/9 80/1/9
f 76/1/10 78/1/10 75/1/10
f 82/1/11 84/1/11 78/1/11
f 81/1/12 80/1/12 84/1/12
f 79/1/13 81/1/13 92/1/13
f 94/1/14 96/1/14 83/1/14
f 93/1/15 92/1/15 96/1/15
f 91/1/16 93/1/16 86/1/16
f 88/1/17 90/1/17 95/1/17
f 87/1/18 86/1/18 90/1/18
f 85/1/19 87/1/19 74/1/19
f 77/1/20 76/1/20 89/1/20
f 91/1/21 85/1/21 73/1/21
f 78/1/22 84/1/22 80/1/22
f 89/1/23 76/1/23 74/1/23
f 82/1/24 77/1/24 88/1/24
f 83/1/25 96/1/25 92/1/25
f 95/1/26 90/1/26 86/1/26
f 98/2/27 100/2/27 99/2/27
f 100/2/26 102/2/26 101/2/26
f 102/2/28 104/2/28 103/2/28
f 104/2/29 106/2/29 105/2/29
f 102/2/23 100/2/23 98/2/23
f 98/2/23 108/2/23 106/2/23
f 106/2/23 104/2/23 98/2/23
f 106/2/22 108/2/22 107/2/22
f 108/2/30 98/2/30 97/2/30
f 107/2/25 97/2/25 103/2/25
f 97/2/25 99/2/25 103/2/25
f 99/2/25 101/2/25 103/2/25
f 110/2/27 112/2/27 111/2/27
f 112/2/26 114/2/26 113/2/26
f 114/2/28 116/2/28 115/2/28
f 116/2/29 118/2/29 117/2/29
f 114/2/23 112/2/23 118/2/23
f 112/2/23 110/2/23 118/2/23
f 110/2/23 120/2/23 118/2/23
f 118/2/22 120/2/22 119/2/22
f 120/2/30 110/2/30 109/2/30
f 119/2/25 109/2/25 111/2/25
f 111/2/25 113/2/25 115/2/25
f 115/2/25 117/2/25 111/2/25
f 122/2/27 124/2/27 123/2/27
f 124/2/26 126/2/26 125/2/26
f 126/2/28 128/2/28 127/2/28
f 128/2/29 130/2/29 129/2/29
f 126/2/23 124/2/23 122/2/23
f 122/2/23 132/2/23 130/2/23
f 130/2/23 128/2/23 122/2/23
f 130/2/22 132/2/22 131/2/22
f 132/2/30 122/2/30 121/2/30
f 131/2/25 121/2/25 127/2/25
f 121/2/25 123/2/25 127/2/25
f 123/2/25 125/2/25 127/2/25
f 134/2/27 136/2/27 135/2/27
f 136/2/26 138/2/26 137/2/26
f 138/2/28 140/2/28 139/2/28
f 140/2/29 142/2/29 141/2/29
f 138/2/23 136/2/23 142/2/23
f 136/2/23 134/2/23 142/2/23
f 134/2/23 144/2/23 142/2/23
f 142/2/22 144/2/22 143/2/22
f 144/2/30 134/2/30 133/2/30
f 143/2/25 133/2/25 135/2/25
f 135/2/25 137/2/25 139/2/25
f 139/2/25 141/2/25 135/2/25
f 145/1/9 147/1/9 152/1/9
f 148/1/10 150/1/10 147/1/10
f 154/1/11 156/1/11 150/1/11
f 153/1/12 152/1/12 156/1/12
f 151/1/13 153/1/13 164/1/13
f 166/1/14 168/1/14 155/1/14
f 165/1/15 164/1/15 168/1/15
f 163/1/16 165/1/16 158/1/16
f 160/1/17 162/1/17 167/1/17
f 159/1/18 158/1/18 162/1/18
f 157/1/19 159/1/19 146/1/19
f 149/1/20 148/1/20 161/1/20
f 163/1/21 157/1/21 145/1/21
f 150/1/22 156/1/22 152/1/22
f 161/1/23 148/1/23 146/1/23
f 154/1/24 149/1/24 160/1/24
f 155/1/25 168/1/25 164/1/25
f 167/1/26 162/1/26 158/1/26
f 170/2/27 172/2/27 171/2/27
f 172/2/26 174/2/26 173/2/26
f 174/2/28 176/2/28 175/2/28
f 176/2/29 178/2/29 177/2/29
f 174/2/23 172/2/23 170/2/23
f 170/2/23 180/2/23 178/2/23
f 178/2/23 176/2/23 170/2/23
f 178/2/22 180/2/22 179/2/22
f 180/2/30 170/2/30 169/2/30
f 179/2/25 169/2/25 175/2/25
f 169/2/25 171/2/25 175/2/25
f 171/2/25 173/2/25 175/2/25
f 182/2/27 184/2/27 183/2/27
f 184/2/26 186/2/26 185/2/26
f 186/2/28 188/2/28 187/2/28
f 188/2/29 190/2/29 189/2/29
f 186/2/23 184/2/23 190/2/23
f 184/2/23 182/2/23 190/2/23
f 182/2/23 192/2/23 190/2/23
f 190/2/22 192/2/22 191/2/22
f 192/2/30 182/2/30 181/2/30
f 191/2/25 181/2/25 183/2/25
f 183/2/25 185/2/25 187/2/25
f 187/2/25 189/2/25 183/2/25
f 194/2/27 196/2/27 195/2/27
f 196/2/26 198/2/26 197/2/26
f 198/2/28 200/2/28 199/2/28
f 200/2/29 202/2/29 201/2/29
f 198/2/23 196/2/23 194/2/23
f 194/2/23 204/2/23 202/2/23
f 202/2/23 200/2/23 194/2/23
f 202/2/22 204/2/22 203/2/22
f 204/2/30 194/2/30 193/2/30
f 203/2/25 193/2/25 199/2/25
f 193/2/25 195/2/25 199/2/25
f 195/2/25 197/2/25 199/2/25
f 206/2/27 208/2/27 207/2/27
f 208/2/26 210/2/26 209/2/26
f 210/2/28 212/2/28 211/2/28
f 212/2/29 214/2/29 213/2/29
f 210/2/23 208/2/23 214/2/23
f 208/2/23 206/2/23 214/2/23
f 206/2/23 216/2/23 214/2/23
f 214/2/22 216/2/22 215/2/22
f 216/2/30 206/2/30 205/2/30
f 215/2/25 205/2/25 207/2/25
f 207/2/25 209/2/25 211/2/25
f 211/2/25 213/2/25 207/2/25
f 217/1/9 219/1/9 224/1/9
f 220/1/10 222/1/10 219/1/10
f 226/1/11 228/1/11 222/1/11
f 225/1/12 224/1/12 228/1/12
f 223/1/13 225/1/13 236/1/13
f 238/1/14 240/1/14 227/1/14
f 237/1/15 236/1/15 240/1/15
f 235/1/16 237/1/16 230/1/16
f 232/1/17 234/1/17 239/1/17
f 231/1/18 230/1/18 234/1/18
f 229/1/19 231/1/19 218/1/19
f 221/1/20 220/1/20 233/1/20
f 235/1/21 229/1/21 217/1/21
f 222/1/22 228/1/22 224/1/22
f 233/1/23 220/1/23 218/1/23
f 226/1/24 221/1/24 232/1/24
f 227/1/25 240/1/25 236/1/25
f 239/1/26 234/1/26 230/1/26
f 242/2/27 244/2/27 243/2/27
f 244/2/26 246/2/26 245/2/26
f 246/2/28 248/2/28 247/2/28
f 248/2/29 250/2/29 249/2/29
f 246/2/23 244/2/23 242/2/23
f 242/2/23 252/2/23 250/2/23
f 250/2/23 248/2/23 242/2/23
f 250/2/22 252/2/22 251/2/22
f 252/2/30 242/2/30 241/2/30
f 251/2/25 241/2/25 247/2/25
f 241/2/25 243/2/25 247/2/25
f 243/2/25 245/2/25 247/2/25
f 254/2/27 256/2/27 255/2/27
f 256/2/26 258/2/26 257/2/26
f 258/2/28 260/2/28 259/2/28
f 260/2/29 262/2/29 261/2/29
f 258/2/23 256/2/23 262/2/23
f 256/2/23 254/2/23 262/2/23
f 254/2/23 264/2/23 262/2/23
f 262/2/22 264/2/22 263/2/22
f 264/2/30 254/2/30 253/2/30
f 263/2/25 253/2/25 255/2/25
f 255/2/25 257/2/25 259/2/25
f 259/2/25 261/2/25 255/2/25
f 266/2/27 268/2/27 267/2/27
f 268/2/26 270/2/26 269/2/26
f 270/2/28 272/2/28 271/2/28
f 272/2/29 274/2/29 273/2/29
f 270/2/23 268/2/23 266/2/23
f 266/2/23 276/2/23 274/2/23
f 274/2/23 272/2/23 266/2/23
f 274/2/22 276/2/22 275/2/22
f 276/2/30 266/2/30 265/2/30
f 275/2/25 265/2/25 271/2/25
f 265/2/25 267/2/25 271/2/25
f 267/2/25 269/2/25 271/2/25
f 278/2/27 280/2/27 279/2/27
f 280/2/26 282/2/26 281/2/26
f 282/2/28 284/2/28 283/2/28
f 284/2/29 286/2/29 285/2/29
f 282/2/23 280/2/23 286/2/23
f 280/2/23 278/2/23 286/2/23
f 278/2/23 288/2/23 286/2/23
f 286/2/22 288/2/22 287/2/22
f 288/2/30 278/2/30 277/2/30
f 287/2/25 277/2/25 279/2/25
f 279/2/25 281/2/25 283/2/25
f 283/2/25 285/2/25 279/2/25
f 289/3/9 291/3/9 296/3/9
f 292/3/10 294/3/10 291/3/10
f 298/3/11 300/3/11 294/3/11
f 297/3/12 296/3/12 300/3/12
f 295/3/13 297/3/13 308/3/13
f 310/3/14 312/3/14 299/3/14
f 309/3/15 308/3/15 312/3/15
f 307/3/16 309/3/16 302/3/16
f 304/3/17 306/3/17 311/3/17
f 303/3/18 302/3/18 306/3/18
f 301/3/19 303/3/19 290/3/19
f 293/3/20 292/3/20 305/3/20
f 307/3/21 301/3/21 289/3/21
f 294/3/22 300/3/22 296/3/22
f 305/3/23 292/3/23 290/3/23
f 298/3/24 293/3/24 304/3/24
f 299/3/25 312/3/25 308/3/25
f 311/3/26 306/3/26 302/3/26
f 314/2/27 316/2/27 315/2/27
f 316/2/26 318/2/26 317/2/26
f 318/2/28 320/2/28 319/2/28
f 320/2/29 322/2/29 321/2/29
f 318/2/23 316/2/23 314/2/23
f 314/2/23 324/2/23 322/2/23
f 322/2/23 320/2/23 314/2/23
f 322/2/22 324/2/22 323/2/22
f 324/2/30 314/2/30 313/2/30
f 323/2/25 313/2/25 319/2/25
f 313/2/25 315/2/25 319/2/25
f 315/2/25 317/2/25 319/2/25
f 326/2/27 328/2/27 327/2/27
f 328/2/26 330/2/26 329/2/26
f 330/2/28 332/2/28 331/2/28
f 332/2/29 334/2/29 333/2/29
f 330/2/23 328/2/23 334/2/23
f 328/2/23 326/2/23 334/2/23
f 326/2/23 336/2/23 334/2/23
f 334/2/22 336/2/22 335/2/22
f 336/2/30 326/2/30 325/2/30
f 335/2/25 325/2/25 327/2/25
f 327/2/25 329/2/25 331/2/25
f 331/2/25 333/2/25 327/2/25
f 338/2/27 340/2/27 339/2/27
f 340/2/26 342/2/26 341/2/26
f 342/2/28 344/2/28 343/2/28
f 344/2/29 346/2/29 345/2/29
f 342/2/23 340/2/23 338/2/23
f 338/2/23 348/2/23 346/2/23
f 346/2/23 344/2/23 338/2/23
f 346/2/22 348/2/22 347/2/22
f 348/2/30 338/2/30 337/2/30
f 347/2/25 337/2/25 343/2/25
f 337/2/25 339/2/25 343/2/25
f 339/2/25 341/2/25 343/2/25
f 350/2/27 352/2/27 351/2/27
f 352/2/26 354/2/26 353/2/26
f 354/2/28 356/2/28 355/2/28
f 356/2/29 358/2/29 357/2/29
f 354/2/23 352/2/23 358/2/23
f 352/2/23 350/2/23 358/2/23
f 350/2/23 360/2/23 358/2/23
f 358/2/22 360/2/22 359/2/22
f 360/2/30 350/2/30 349/2/30
f 359/2/25 349/2/25 351/2/25
f 351/2/25 353/2/25 355/2/25
f 355/2/25 357/2/25 351/2/25
f 361/2/9 363/2/9 368/2/9
f 364/2/10 366/2/10 363/2/10
f 370/2/11 372/2/11 366/2/11
f 369/2/12 368/2/12 372/2/12
f 367/2/13 369/2/13 380/2/13
f 382/2/14 384/2/14 371/2/14
f 381/2/15 380/2/15 384/2/15
f 379/2/16 381/2/16 374/2/16
f 376/2/17 378/2/17 383/2/17
f 375/2/18 374/2/18 378/2/18
f 373/2/19 375/2/19 362/2/19
f 365/2/20 364/2/20 377/2/20
f 379/2/21 373/2/21 361/2/21
f 366/2/22 372/2/22 368/2/22
f 377/2/23 364/2/23 362/2/23
f 370/2/24 365/2/24 376/2/24
f 371/2/25 384/2/25 380/2/25
f 383/2/26 378/2/26 374/2/26
f 385/2/9 387/2/9 392/2/9
f 388/2/10 390/2/10 387/2/10
f 394/2/11 396/2/11 390/2/11
f 393/2/12 392/2/12 396/2/12
f 391/2/13 393/2/13 404/2/13
f 406/2/14 408/2/14 395/2/14
f 405/2/15 404/2/15 408/2/15
f 403/2/16 405/2/16 398/2/16
f 400/2/17 402/2/17 407/2/17
f 399/2/18 398/2/18 402/2/18
f 397/2/19 399/2/19 386/2/19
f 389/2/20 388/2/20 401/2/20
f 403/2/21 397/2/21 385/2/21
f 390/2/22 396/2/22 392/2/22
f 401/2/23 388/2/23 386/2/23
f 394/2/24 389/2/24 400/2/24
f 395/2/25 408/2/25 404/2/25
f 407/2/26 402/2/26 398/2/26
f 409/2/9 411/2/9 416/2/9
f 412/2/10 414/2/10 411/2/10
f 418/2/11 420/2/11 414/2/11
f 417/2/12 416/2/12 420/2/12
f 415/2/13 417/2/13 428/2/13
f 430/2/14 432/2/14 419/2/14
f 429/2/15 428/2/15 432/2/15
f 427/2/16 429/2/16 422/2/16
f 424/2/17 426/2/17 431/2/17
f 423/2/18 422/2/18 426/2/18
f 421/2/19 423/2/19 410/2/19
f 413/2/20 412/2/20 425/2/20
f 427/2/21 421/2/21 409/2/21
f 414/2/22 420/2/22 416/2/22
f 425/2/23 412/2/23 410/2/23
f 418/2/24 413/2/24 424/2/24
f 419/2/25 432/2/25 428/2/25
f 431/2/26 426/2/26 422/2/26
f 433/2/9 435/2/9 440/2/9
f 436/2/10 438/2/10 435/2/10
f 442/2/11 444/2/11 438/2/11
f 441/2/12 440/2/12 444/2/12
f 439/2/13 441/2/13 452/2/13
f 454/2/14 456/2/14 443/2/14
f 453/2/15 452/2/15 456/2/15
f 451/2/16 453/2/16 446/2/16
f 448/2/17 450/2/17 455/2/17
f 447/2/18 446/2/18 450/2/18
f 445/2/19 447/2/19 434/2/19
f 437/2/20 436/2/20 449/2/20
f 451/2/21 445/2/21 433/2/21
f 438/2/22 444/2/22 440/2/22
f 449/2/23 436/2/23 434/2/23
f 442/2/24 437/2/24 448/2/24
f 443/2/25 456/2/25 452/2/25
f 455/2/26 450/2/26 446/2/26
f 457/2/9 459/2/9 464/2/9
f 460/2/10 462/2/10 459/2/10
f 466/2/11 468/2/11 462/2/11
f 465/2/12 464/2/12 468/2/12
f 463/2/13 465/2/13 476/2/13
f 478/2/14 480/2/14 467/2/14
f 477/2/15 476/2/15 480/2/15
f 475/2/16 477/2/16 470/2/16
f 472/2/17 474/2/17 479/2/17
f 471/2/18 470/2/18 474/2/18
f 469/2/19 471/2/19 458/2/19
f 461/2/20 460/2/20 473/2/20
f 475/2/21 469/2/21 457/2/21
f 462/2/22 468/2/22 464/2/22
f 473/2/23 460/2/23 458/2/23
f 466/2/24 461/2/24 472/2/24
f 467/2/25 480/2/25 476/2/25
f 479/2/26 474/2/26 470/2/26
f 481/3/9 483/3/9 488/3/9
f 484/3/10 486/3/10 483/3/10
f 490/3/11 492/3/11 486/3/11
f 489/3/12 488/3/12 492/3/12
f 487/3/13 489/3/13 500/3/13
f 502/3/14 504/3/14 491/3/14
f 501/3/15 500/3/15 504/3/15
f 499/3/16 501/3/16 494/3/16
f 496/3/17 498/3/17 503/3/17
f 495/3/18 494/3/18 498/3/18
f 493/3/19 495/3/19 482/3/19
f 485/3/20 484/3/20 497/3/20
f 499/3/21 493/3/21 481/3/21
f 486/3/22 492/3/22 488/3/22
f 497/3/23 484/3/23 482/3/23
f 490/3/24 485/3/24 496/3/24
f 491/3/25 504/3/25 500/3/25
f 503/3/26 498/3/26 494/3/26
f 506/2/27 508/2/27 507/2/27
f 508/2/26 510/2/26 509/2/26
f 510/2/28 512/2/28 511/2/28
f 512/2/29 514/2/29 513/2/29
f 510/2/23 508/2/23 506/2/23
f 506/2/23 516/2/23 514/2/23
f 514/2/23 512/2/23 506/2/23
f 514/2/22 516/2/22 515/2/22
f 516/2/30 506/2/30 505/2/30
f 515/2/25 505/2/25 511/2/25
f 505/2/25 507/2/25 511/2/25
f 507/2/25 509/2/25 511/2/25
f 518/2/27 520/2/27 519/2/27
f 520/2/26 522/2/26 521/2/26
f 522/2/28 524/2/28 523/2/28
f 524/2/29 526/2/29 525/2/29
f 522/2/23 520/2/23 526/2/23
f 520/2/23 518/2/23 526/2/23
f 518/2/23 528/2/23 526/2/23
f 526/2/22 528/2/22 527/2/22
f 528/2/30 518/2/30 517/2/30
f 527/2/25 517/2/25 519/2/25
f 519/2/25 521/2/25 523/2/25
f 523/2/25 525/2/25 519/2/25
f 530/2/27 532/2/27 531/2/27
f 532/2/26 534/2/26 533/2/26
f 534/2/28 536/2/28 535/2/28
f 536/2/29 538/2/29 537/2/29
f 534/2/23 532/2/23 538/2/23
f 532/2/23 530/2/23 538/2/23
f 530/2/23 540/2/23 538/2/23
f 538/2/22 540/2/22 539/2/22
f 540/2/30 530/2/30 529/2/30
f 539/2/25 529/2/25 531/2/25
f 531/2/25 533/2/25 535/2/25
f 535/2/25 537/2/25 531/2/25
f 542/2/27 544/2/27 543/2/27
f 544/2/26 546/2/26 545/2/26
f 546/2/28 548/2/28 547/2/28
f 548/2/29 550/2/29 549/2/29
f 546/2/23 544/2/23 550/2/23
f 544/2/23 542/2/23 550/2/23
f 542/2/23 552/2/23 550/2/23
f 550/2/22 552/2/22 551/2/22
f 552/2/30 542/2/30 541/2/30
f 551/2/25 541/2/25 543/2/25
f 543/2/25 545/2/25 551/2/25
f 545/2/25 547/2/25 551/2/25
f 553/2/9 555/2/9 560/2/9
f 556/2/10 558/2/10 555/2/10
f 562/2/11 564/2/11 558/2/11
f 561/2/12 560/2/12 564/2/12
f 559/2/13 561/2/13 572/2/13
f 574/2/14 576/2/14 563/2/14
f 573/2/15 572/2/15 576/2/15
f 571/2/16 573/2/16 566/2/16
f 568/2/17 570/2/17 575/2/17
f 567/2/18 566/2/18 570/2/18
f 565/2/19 567/2/19 554/2/19
f 557/2/20 556/2/20 569/2/20
f 571/2/21 565/2/21 553/2/21
f 558/2/22 564/2/22 560/2/22
f 569/2/23 556/2/23 554/2/23
f 562/2/24 557/2/24 568/2/24
f 563/2/25 576/2/25 572/2/25
f 575/2/26 570/2/26 566/2/26
f 577/2/9 579/2/9 584/2/9
f 580/2/10 582/2/10 579/2/10
f 586/2/11 588/2/11 582/2/11
f 585/2/12 584/2/12 588/2/12
f 583/2/13 585/2/13 596/2/13
f 598/2/14 600/2/14 587/2/14
f 597/2/15 596/2/15 600/2/15
f 595/2/16 597/2/16 590/2/16
f 592/2/17 594/2/17 599/2/17
f 591/2/18 590/2/18 594/2/18
f 589/2/19 591/2/19 578/2/19
f 581/2/20 580/2/20 593/2/20
f 595/2/21 589/2/21 577/2/21
f 582/2/22 588/2/22 584/2/22
f 593/2/23 580/2/23 578/2/23
f 586/2/24 581/2/24 592/2/24
f 587/2/25 600/2/25 596/2/25
f 599/2/26 594/2/26 590/2/26
f 601/2/9 603/2/9 608/2/9
f 604/2/10 606/2/10 603/2/10
f 610/2/11 612/2/11 606/2/11
f 609/2/12 608/2/12 612/2/12
f 607/2/13 609/2/13 620/2/13
f 622/2/14 624/2/14 611/2/14
f 621/2/15 620/2/15 624/2/15
f 619/2/16 621/2/16 614/2/16
f 616/2/17 618/2/17 623/2/17
f 615/2/18 614/2/18 618/2/18
f 613/2/19 615/2/19 602/2/19
f 605/2/20 604/2/20 617/2/20
f 619/2/21 613/2/21 601/2/21
f 606/2/22 612/2/22 608/2/22
f 617/2/23 604/2/23 602/2/23
f 610/2/24 605/2/24 616/2/24
f 611/2/25 624/2/25 620/2/25
f 623/2/26 618/2/26 614/2/26
f 625/2/9 627/2/9 632/2/9
f 628/2/10 630/2/10 627/2/10
f 634/2/11 636/2/11 630/2/11
f 633/2/12 632/2/12 636/2/12
f 631/2/13 633/2/13 644/2/13
f 646/2/14 648/2/14 635/2/14
f 645/2/15 644/2/15 648/2/15
f 643/2/16 645/2/16 638/2/16
f 640/2/17 642/2/17 647/2/17
f 639/2/18 638/2/18 642/2/18
f 637/2/19 639/2/19 626/2/19
f 629/2/20 628/2/20 641/2/20
f 643/2/21 637/2/21 625/2/21
f 630/2/22 636/2/22 632/2/22
f 641/2/23 628/2/23 626/2/23
f 634/2/24 629/2/24 640/2/24
f 635/2/25 648/2/25 644/2/25
f 647/2/26 642/2/26 638/2/26
f 649/2/9 651/2/9 656/2/9
f 652/2/10 654/2/10 651/2/10
f 658/2/11 660/2/11 654/2/11
f 657/2/12 656/2/12 660/2/12
f 655/2/13 657/2/13 668/2/13
f 670/2/14 672/2/14 659/2/14
f 669/2/15 668/2/15 672/2/15
f 667/2/16 669/2/16 662/2/16
f 664/2/17 666/2/17 671/2/17
f 663/2/18 662/2/18 666/2/18
f 661/2/19 663/2/19 650/2/19
f 653/2/20 652/2/20 665/2/20
f 667/2/21 661/2/21 649/2/21
f 654/2/22 660/2/22 656/2/22
f 665/2/23 652/2/23 650/2/23
f 658/2/24 653/2/24 664/2/24
f 659/2/25 672/2/25 668/2/25
f 671/2/26 666/2/26 662/2/26
f 674/2/66 676/2/66 675/2/66
f 676/2/67 678/2/67 677/2/67
f 678/2/68 680/2/68 679/2/68
f 680/2/69 682/2/69 681/2/69
f 682/2/70 684/2/70 683/2/70
f 684/2/71 686/2/71 685/2/71
f 678/2/24 676/2/24 674/2/24
f 674/2/24 688/2/24 686/2/24
f 686/2/24 684/2/24 682/2/24
f 682/2/24 680/2/24 678/2/24
f 678/2/24 674/2/24 686/2/24
f 686/2/72 688/2/72 687/2/72
f 688/2/73 674/2/73 673/2/73
f 687/2/21 673/2/21 675/2/21
f 675/2/21 677/2/21 687/2/21
f 677/2/21 679/2/21 687/2/21
f 679/2/21 681/2/21 683/2/21
f 683/2/21 685/2/21 679/2/21
f 690/2/66 692/2/66 691/2/66
f 692/2/67 694/2/67 693/2/67
f 694/2/68 696/2/68 695/2/68
f 696/2/69 698/2/69 697/2/69
f 698/2/70 700/2/70 699/2/70
f 700/2/71 702/2/71 701/2/71
f 694/2/24 692/2/24 690/2/24
f 690/2/24 704/2/24 702/2/24
f 702/2/24 700/2/24 698/2/24
f 698/2/24 696/2/24 694/2/24
f 694/2/24 690/2/24 702/2/24
f 702/2/72 704/2/72 703/2/72
f 704/2/73 690/2/73 689/2/73
f 703/2/21 689/2/21 691/2/21
f 691/2/21 693/2/21 703/2/21
f 693/2/21 695/2/21 703/2/21
f 695/2/21 697/2/21 699/2/21
f 699/2/21 701/2/21 695/2/21
f 706/4/74 708/4/74 707/4/74
f 708/4/75 710/4/75 709/4/75
f 710/4/76 712/4/76 711/4/76
f 712/4/77 714/4/77 713/4/77
f 714/4/78 716/4/78 715/4/78
f 716/4/79 718/4/79 717/4/79
f 710/4/26 708/4/26 706/4/26
f 706/4/26 720/4/26 710/4/26
f 720/4/26 718/4/26 710/4/26
f 718/4/26 716/4/26 714/4/26
f 714/4/26 712/4/26 718/4/26
f 718/4/80 720/4/80 719/4/80
f 720/4/81 706/4/81 705/4/81
f 719/4/22 705/4/22 707/4/22
f 707/4/22 709/4/22 719/4/22
f 709/4/22 711/4/22 719/4/22
f 711/4/22 713/4/22 715/4/22
f 715/4/22 717/4/22 711/4/22
f 722/4/74 724/4/74 723/4/74
f 724/4/75 726/4/75 725/4/75
f 726/4/76 728/4/76 727/4/76
f 728/4/77 730/4/77 729/4/77
f 730/4/78 732/4/78 731/4/78
f 732/4/79 734/4/79 733/4/79
f 726/4/26 724/4/26 722/4/26
f 722/4/26 736/4/26 726/4/26
f 736/4/26 734/4/26 726/4/26
f 734/4/26 732/4/26 730/4/26
f 730/4/26 728/4/26 734/4/26
f 734/4/80 736/4/80 735/4/80
f 736/4/81 722/4/81 721/4/81
f 735/4/22 721/4/22 723/4/22
f 723/4/22 725/4/22 735/4/22
f 725/4/22 727/4/22 735/4/22
f 727/4/22 729/4/22 731/4/22
f 731/4/22 733/4/22 727/4/22
f 738/4/74 740/4/74 739/4/74
f 740/4/75 742/4/75 741/4/75
f 742/4/76 744/4/76 743/4/76
f 744/4/77 746/4/77 745/4/77
f 746/4/78 748/4/78 747/4/78
f 748/4/79 750/4/79 749/4/79
f 742/4/26 740/4/26 738/4/26
f 738/4/26 752/4/26 742/4/26
f 752/4/26 750/4/26 742/4/26
f 750/4/26 748/4/26 746/4/26
f 746/4/26 744/4/26 750/4/26
f 750/4/80 752/4/80 751/4/80
f 752/4/81 738/4/81 737/4/81
f 751/4/22 737/4/22 739/4/22
f 739/4/22 741/4/22 751/4/22
f 741/4/22 743/4/22 751/4/22
f 743/4/22 745/4/22 747/4/22
f 747/4/22 749/4/22 743/4/22
f 754/4/74 756/4/74 755/4/74
f 756/4/75 758/4/75 757/4/75
f 758/4/76 760/4/76 759/4/76
f 760/4/77 762/4/77 761/4/77
f 762/4/78 764/4/78 763/4/78
f 764/4/79 766/4/79 765/4/79
f 758/4/26 756/4/26 754/4/26
f 754/4/26 768/4/26 758/4/26
f 768/4/26 766/4/26 758/4/26
f 766/4/26 764/4/26 762/4/26
f 762/4/26 760/4/26 766/4/26
f 766/4/80 768/4/80 767/4/80
f 768/4/81 754/4/81 753/4/81
f 767/4/22 753/4/22 755/4/22
f 755/4/22 757/4/22 767/4/22
f 757/4/22 759/4/22 767/4/22
f 759/4/22 761/4/22 763/4/22
f 763/4/22 765/4/22 759/4/22
f 770/4/74 772/4/74 771/4/74
f 772/4/75 774/4/75 773/4/75
f 774/4/76 776/4/76 775/4/76
f 776/4/77 778/4/77 777/4/77
f 778/4/78 780/4/78 779/4/78
f 780/4/79 782/4/79 781/4/79
f 774/4/26 772/4/26 770/4/26
f 770/4/26 784/4/26 774/4/26
f 784/4/26 782/4/26 774/4/26
f 782/4/26 780/4/26 778/4/26
f 778/4/26 776/4/26 782/4/26
f 782/4/80 784/4/80 783/4/80
f 784/4/81 770/4/81 769/4/81
f 783/4/22 769/4/22 771/4/22
f 771/4/22 773/4/22 783/4/22
f 773/4/22 775/4/22 783/4/22
f 775/4/22 777/4/22 779/4/22
f 779/4/22 781/4/22 775/4/22
f 786/4/74 788/4/74 787/4/74
f 788/4/75 790/4/75 789/4/75
f 790/4/76 792/4/76 791/4/76
f 792/4/77 794/4/77 793/4/77
f 794/4/78 796/4/78 795/4/78
f 796/4/79 798/4/79 797/4/79
f 790/4/26 788/4/26 786/4/26
f 786/4/26 800/4/26 790/4/26
f 800/4/26 798/4/26 790/4/26
f 798/4/26 796/4/26 794/4/26
f 794/4/26 792/4/26 798/4/26
f 798/4/80 800/4/80 799/4/80
f 800/4/81 786/4/81 785/4/81
f 799/4/22 785/4/22 787/4/22
f 787/4/22 789/4/22 799/4/22
f 789/4/22 791/4/22 799/4/22
f 791/4/22 793/4/22 795/4/22
f 795/4/22 797/4/22 791/4/22
f 802/4/74 804/4/74 803/4/74
f 804/4/75 806/4/75 805/4/75
f 806/4/76 808/4/76 807/4/76
f 808/4/77 810/4/77 809/4/77
f 810/4/78 812/4/78 811/4/78
f 812/4/79 814/4/79 813/4/79
f 806/4/26 804/4/26 814/4/26
f 804/4/26 802/4/26 814/4/26
f 802/4/26 816/4/26 814/4/26
f 814/4/26 812/4/26 810/4/26
f 810/4/26 808/4/26 814/4/26
f 814/4/80 816/4/80 815/4/80
f 816/4/81 802/4/81 801/4/81
f 815/4/22 801/4/22 803/4/22
f 803/4/22 805/4/22 815/4/22
f 805/4/22 807/4/22 815/4/22
f 807/4/22 809/4/22 811/4/22
f 811/4/22 813/4/22 807/4/22
f 818/4/74 820/4/74 819/4/74
f 820/4/75 822/4/75 821/4/75
f 822/4/76 824/4/76 823/4/76
f 824/4/77 826/4/77 825/4/77
f 826/4/78 828/4/78 827/4/78
f 828/4/79 830/4/79 829/4/79
f 822/4/26 820/4/26 818/4/26
f 818/4/26 832/4/26 822/4/26
f 832/4/26 830/4/26 822/4/26
f 830/4/26 828/4/26 826/4/26
f 826/4/26 824/4/26 830/4/26
f 830/4/80 832/4/80 831/4/80
f 832/4/81 818/4/81 817/4/81
f 831/4/22 817/4/22 819/4/22
f 819/4/22 821/4/22 823/4/22
f 823/4/22 825/4/22 827/4/22
f 827/4/22 829/4/22 831/4/22
f 831/4/22 819/4/22 823/4/22
f 834/4/74 836/4/74 835/4/74
f 836/4/75 838/4/75 837/4/75
f 838/4/76 840/4/76 839/4/76
f 840/4/77 842/4/77 841/4/77
f 842/4/78 844/4/78 843/4/78
f 844/4/79 846/4/79 845/4/79
f 838/4/26 836/4/26 834/4/26
f 834/4/26 848/4/26 838/4/26
f 848/4/26 846/4/26 838/4/26
f 846/4/26 844/4/26 842/4/26
f 842/4/26 840/4/26 846/4/26
f 846/4/80 848/4/80 847/4/80
f 848/4/81 834/4/81 833/4/81
f 847/4/22 833/4/22 835/4/22
f 835/4/22 837/4/22 847/4/22
f 837/4/22 839/4/22 847/4/22
f 839/4/22 841/4/22 843/4/22
f 843/4/22 845/4/22 839/4/22
f 850/4/74 852/4/74 851/4/74
f 852/4/75 854/4/75 853/4/75
f 854/4/76 856/4/76 855/4/76
f 856/4/77 858/4/77 857/4/77
f 858/4/78 860/4/78 859/4/78
f 860/4/79 862/4/79 861/4/79
f 854/4/26 852/4/26 850/4/26
f 850/4/26 864/4/26 854/4/26
f 864/4/26 862/4/26 854/4/26
f 862/4/26 860/4/26 858/4/26
f 858/4/26 856/4/26 862/4/26
f 862/4/80 864/4/80 863/4/80
f 864/4/81 850/4/81 849/4/81
f 863/4/22 849/4/22 851/4/22
f 851/4/22 853/4/22 863/4/22
f 853/4/22 855/4/22 863/4/22
f 855/4/22 857/4/22 859/4/22
f 859/4/22 861/4/22 855/4/22
f 866/4/74 868/4/74 867/4/74
f 868/4/75 870/4/75 869/4/75
f 870/4/76 872/4/76 871/4/76
f 872/4/77 874/4/77 873/4/77
f 874/4/78 876/4/78 875/4/78
f 876/4/79 878/4/79 877/4/79
f 870/4/26 868/4/26 866/4/26
f 866/4/26 880/4/26 870/4/26
f 880/4/26 878/4/26 870/4/26
f 878/4/26 876/4/26 874/4/26
f 874/4/26 872/4/26 878/4/26
f 878/4/80 880/4/80 879/4/80
f 880/4/81 866/4/81 865/4/81
f 879/4/22 865/4/22 867/4/22
f 867/4/22 869/4/22 871/4/22
f 871/4/22 873/4/22 875/4/22
f 875/4/22 877/4/22 879/4/22
f 879/4/22 867/4/22 871/4/22
f 882/4/82 884/4/82 883/4/82
f 884/4/15 886/4/15 885/4/15
f 886/4/83 888/4/83 887/4/83
f 888/4/84 890/4/84 889/4/84
f 890/4/18 892/4/18 891/4/18
f 892/4/85 894/4/85 893/4/85
f 894/4/86 896/4/86 895/4/86
f 896/4/10 898/4/10 897/4/10
f 898/4/87 900/4/87 899/4/87
f 900/4/88 902/4/88 901/4/88
f 886/4/24 884/4/24 882/4/24
f 882/4/24 904/4/24 902/4/24
f 902/4/24 900/4/24 894/4/24
f 900/4/24 898/4/24 894/4/24
f 898/4/24 896/4/24 894/4/24
f 894/4/24 892/4/24 890/4/24
f 890/4/24 888/4/24 894/4/24
f 888/4/24 886/4/24 894/4/24
f 886/4/24 882/4/24 894/4/24
f 902/4/12 904/4/12 903/4/12
f 904/4/89 882/4/89 881/4/89
f 903/4/21 881/4/21 887/4/21
f 881/4/21 883/4/21 887/4/21
f 883/4/21 885/4/21 887/4/21
f 887/4/21 889/4/21 891/4/21
f 891/4/21 893/4/21 887/4/21
f 893/4/21 895/4/21 887/4/21
f 895/4/21 897/4/21 899/4/21
f 899/4/21 901/4/21 903/4/21
f 895/4/21 899/4/21 887/4/21
f 906/4/82 908/4/82 907/4/82
f 908/4/15 910/4/15 909/4/15
f 910/4/83 912/4/83 911/4/83
f 912/4/84 914/4/84 913/4/84
f 914/4/18 916/4/18 915/4/18
f 916/4/85 918/4/85 917/4/85
f 918/4/86 920/4/86 919/4/86
f 920/4/10 922/4/10 921/4/10
f 922/4/87 924/4/87 923/4/87
f 924/4/88 926/4/88 925/4/88
f 910/4/24 908/4/24 906/4/24
f 906/4/24 928/4/24 926/4/24
f 926/4/24 924/4/24 918/4/24
f 924/4/24 922/4/24 918/4/24
f 922/4/24 920/4/24 918/4/24
f 918/4/24 916/4/24 914/4/24
f 914/4/24 912/4/24 918/4/24
f 912/4/24 910/4/24 918/4/24
f 910/4/24 906/4/24 918/4/24
f 926/4/12 928/4/12 927/4/12
f 928/4/89 906/4/89 905/4/89
f 927/4/21 905/4/21 911/4/21
f 905/4/21 907/4/21 911/4/21
f 907/4/21 909/4/21 911/4/21
f 911/4/21 913/4/21 915/4/21
f 915/4/21 917/4/21 911/4/21
f 917/4/21 919/4/21 911/4/21
f 919/4/21 921/4/21 923/4/21
f 923/4/21 925/4/21 927/4/21
f 919/4/21 923/4/21 911/4/21
f 930/4/82 932/4/82 931/4/82
f 932/4/15 934/4/15 933/4/15
f 934/4/83 936/4/83 935/4/83
f 936/4/84 938/4/84 937/4/84
f 938/4/18 940/4/18 939/4/18
f 940/4/85 942/4/85 941/4/85
f 942/4/86 944/4/86 943/4/86
f 944/4/10 946/4/10 945/4/10
f 946/4/87 948/4/87 947/4/87
f 948/4/88 950/4/88 949/4/88
f 934/4/24 932/4/24 930/4/24
f 930/4/24 952/4/24 950/4/24
f 950/4/24 948/4/24 942/4/24
f 948/4/24 946/4/24 942/4/24
f 946/4/24 944/4/24 942/4/24
f 942/4/24 940/4/24 938/4/24
f 938/4/24 936/4/24 942/4/24
f 936/4/24 934/4/24 942/4/24
f 934/4/24 930/4/24 942/4/24
f 950/4/12 952/4/12 951/4/12
f 952/4/89 930/4/89 929/4/89
f 951/4/21 929/4/21 935/4/21
f 929/4/21 931/4/21 935/4/21
f 931/4/21 933/4/21 935/4/21
f 935/4/21 937/4/21 939/4/21
f 939/4/21 941/4/21 935/4/21
f 941/4/21 943/4/21 935/4/21
f 943/4/21 945/4/21 947/4/21
f 947/4/21 949/4/21 951/4/21
f 943/4/21 947/4/21 935/4/21
f 954/4/82 956/4/82 955/4/82
f 956/4/15 958/4/15 957/4/15
f 958/4/83 960/4/83 959/4/83
f 960/4/84 962/4/84 961/4/84
f 962/4/18 964/4/18 963/4/18
f 964/4/85 966/4/85 965/4/85
f 966/4/86 968/4/86 967/4/86
f 968/4/10 970/4/10 969/4/10
f 970/4/87 972/4/87 971/4/87
f 972/4/88 974/4/88 973/4/88
f 958/4/24 956/4/24 954/4/24
f 954/4/24 976/4/24 974/4/24
f 974/4/24 972/4/24 966/4/24
f 972/4/24 970/4/24 966/4/24
f 970/4/24 968/4/24 966/4/24
f 966/4/24 964/4/24 962/4/24
f 962/4/24 960/4/24 958/4/24
f 958/4/24 954/4/24 966/4/24
f 954/4/24 974/4/24 966/4/24
f 974/4/12 976/4/12 975/4/12
f 976/4/89 954/4/89 953/4/89
f 975/4/21 953/4/21 959/4/21
f 953/4/21 955/4/21 959/4/21
f 955/4/21 957/4/21 959/4/21
f 959/4/21 961/4/21 963/4/21
f 963/4/21 965/4/21 959/4/21
f 965/4/21 967/4/21 959/4/21
f 967/4/21 969/4/21 971/4/21
f 971/4/21 973/4/21 975/4/21
f 967/4/21 971/4/21 959/4/21
f 978/4/82 980/4/82 979/4/82
f 980/4/15 982/4/15 981/4/15
f 982/4/83 984/4/83 983/4/83
f 984/4/84 986/4/84 985/4/84
f 986/4/18 988/4/18 987/4/18
f 988/4/85 990/4/85 989/4/85
f 990/4/86 992/4/86 991/4/86
f 992/4/10 994/4/10 993/4/10
f 994/4/87 996/4/87 995/4/87
f 996/4/88 998/4/88 997/4/88
f 982/4/24 980/4/24 978/4/24
f 978/4/24 1000/4/24 998/4/24
f 998/4/24 996/4/24 990/4/24
f 996/4/24 994/4/24 990/4/24
f 994/4/24 992/4/24 990/4/24
f 990/4/24 988/4/24 986/4/24
f 986/4/24 984/4/24 982/4/24
f 982/4/24 978/4/24 990/4/24
f 978/4/24 998/4/24 990/4/24
f 998/4/12 1000/4/12 999/4/12
f 1000/4/89 978/4/89 977/4/89
f 999/4/21 977/4/21 983/4/21
f 977/4/21 979/4/21 983/4/21
f 979/4/21 981/4/21 983/4/21
f 983/4/21 985/4/21 987/4/21
f 987/4/21 989/4/21 983/4/21
f 989/4/21 991/4/21 983/4/21
f 991/4/21 993/4/21 995/4/21
f 995/4/21 997/4/21 999/4/21
f 991/4/21 995/4/21 983/4/21
f 1002/4/82 1004/4/82 1003/4/82
f 1004/4/15 1006/4/15 1005/4/15
f 1006/4/83 1008/4/83 1007/4/83
f 1008/4/84 1010/4/84 1009/4/84
f 1010/4/18 1012/4/18 1011/4/18
f 1012/4/85 1014/4/85 1013/4/85
f 1014/4/86 1016/4/86 1015/4/86
f 1016/4/10 1018/4/10 1017/4/10
f 1018/4/87 1020/4/87 1019/4/87
f 1020/4/88 1022/4/88 1021/4/88
f 1006/4/24 1004/4/24 1002/4/24
f 1002/4/24 1024/4/24 1022/4/24
f 1022/4/24 1020/4/24 1014/4/24
f 1020/4/24 1018/4/24 1014/4/24
f 1018/4/24 1016/4/24 1014/4/24
f 1014/4/24 1012/4/24 1010/4/24
f 1010/4/24 1008/4/24 1006/4/24
f 1006/4/24 1002/4/24 1014/4/24
f 1002/4/24 1022/4/24 1014/4/24
f 1022/4/12 1024/4/12 1023/4/12
f 1024/4/89 1002/4/89 1001/4/89
f 1023/4/21 1001/4/21 1007/4/21
f 1001/4/21 1003/4/21 1007/4/21
f 1003/4/21 1005/4/21 1007/4/21
f 1007/4/21 1009/4/21 1011/4/21
f 1011/4/21 1013/4/21 1007/4/21
f 1013/4/21 1015/4/21 1007/4/21
f 1015/4/21 1017/4/21 1019/4/21
f 1019/4/21 1021/4/21 1023/4/21
f 1015/4/21 1019/4/21 1007/4/21
