# Blender 5.2.1 LTS
# www.blender.org
mtllib fencePosts.mtl
o fencePosts
v -0.052211 -0.575000 0.045915
v -0.052211 -0.554505 0.060351
v -0.067368 -0.554505 0.045915
v -0.052211 0.543119 0.060351
v -0.052211 0.563614 0.045915
v -0.067368 0.543119 0.045915
v -0.052211 -0.575000 -0.053534
v -0.067368 -0.554505 -0.053534
v -0.052211 -0.554505 -0.067970
v -0.052211 0.563614 -0.053534
v -0.052211 0.543119 -0.067970
v -0.067368 0.543119 -0.053534
v 0.052211 -0.575000 0.045915
v 0.067368 -0.554505 0.045915
v 0.052211 -0.554505 0.060351
v 0.052211 0.563614 0.045915
v 0.052211 0.543119 0.060351
v 0.067368 0.543119 0.045915
v 0.052211 -0.575000 -0.053534
v 0.052211 -0.554505 -0.067970
v 0.067368 -0.554505 -0.053534
v 0.052211 0.563614 -0.053534
v 0.067368 0.543119 -0.053534
v 0.052211 0.543119 -0.067970
v -0.066526 0.483911 0.059549
v -0.066526 0.502129 0.072381
v -0.080000 0.502129 0.059549
v -0.066526 0.556782 0.072381
v -0.066526 0.575000 0.059549
v -0.080000 0.556782 0.059549
v -0.066526 0.483911 -0.067168
v -0.080000 0.502129 -0.067168
v -0.066526 0.502129 -0.080000
v -0.066526 0.575000 -0.067168
v -0.066526 0.556782 -0.080000
v -0.080000 0.556782 -0.067168
v 0.066526 0.483911 0.059549
v 0.080000 0.502129 0.059549
v 0.066526 0.502129 0.072381
v 0.066526 0.575000 0.059549
v 0.066526 0.556782 0.072381
v 0.080000 0.556782 0.059549
v 0.066526 0.483911 -0.067168
v 0.066526 0.502129 -0.080000
v 0.080000 0.502129 -0.067168
v 0.066526 0.575000 -0.067168
v 0.080000 0.556782 -0.067168
v 0.066526 0.556782 -0.080000
v 0.000000 -0.258465 0.059950
v 0.000000 -0.258465 0.080000
v 0.020420 -0.274406 0.059950
v 0.020420 -0.274406 0.080000
v 0.020420 -0.306287 0.059950
v 0.020420 -0.306287 0.080000
v 0.000000 -0.322228 0.059950
v 0.000000 -0.322228 0.080000
v -0.020420 -0.306287 0.059950
v -0.020420 -0.306287 0.080000
v -0.020420 -0.274406 0.059950
v -0.020420 -0.274406 0.080000
v 0.000000 0.310842 0.059950
v 0.000000 0.310842 0.080000
v 0.020420 0.294901 0.059950
v 0.020420 0.294901 0.080000
v 0.020420 0.263020 0.059950
v 0.020420 0.263020 0.080000
v 0.000000 0.247079 0.059950
v 0.000000 0.247079 0.080000
v -0.020420 0.263020 0.059950
v -0.020420 0.263020 0.080000
v -0.020420 0.294901 0.059950
v -0.020420 0.294901 0.080000
vn -0.6144 -0.4544 0.6451
vn -0.6144 0.4544 0.6451
vn -0.6144 -0.4544 -0.6451
vn -0.6144 0.4544 -0.6451
vn 0.6144 -0.4544 0.6451
vn 0.6144 0.4544 0.6451
vn 0.6144 -0.4544 -0.6451
vn 0.6144 0.4544 -0.6451
vn -0.8040 -0.5946 -0.0000
vn -0.6897 -0.0000 0.7241
vn -0.8040 0.5946 -0.0000
vn -0.6897 -0.0000 -0.7241
vn -0.0000 -0.5759 -0.8176
vn -0.0000 0.5759 -0.8176
vn 0.6897 -0.0000 -0.7241
vn 0.8040 -0.5946 -0.0000
vn 0.8040 0.5946 -0.0000
vn 0.6897 -0.0000 0.7241
vn -0.0000 -0.5759 0.8176
vn -0.0000 0.5759 0.8176
vn -0.0000 -1.0000 -0.0000
vn -1.0000 -0.0000 -0.0000
vn -0.0000 -0.0000 1.0000
vn -0.0000 1.0000 -0.0000
vn -0.0000 -0.0000 -1.0000
vn 1.0000 -0.0000 -0.0000
vn -0.0000 0.5759 -0.8175
vn -0.0000 0.5759 0.8175
vn 0.6153 0.7883 -0.0000
vn 0.6153 -0.7883 -0.0000
vn -0.6153 -0.7883 -0.0000
vn -0.6153 0.7883 -0.0000
vt 0.125000 0.875000
vt 0.125000 0.625000
s 0
usemtl WorldPickupPalette
f 1/1/1 2/1/1 3/1/1
f 4/1/2 5/1/2 6/1/2
f 7/1/3 8/1/3 9/1/3
f 10/1/4 11/1/4 12/1/4
f 13/1/5 14/1/5 15/1/5
f 16/1/6 17/1/6 18/1/6
f 19/1/7 20/1/7 21/1/7
f 22/1/8 23/1/8 24/1/8
f 1/1/9 8/1/9 7/1/9
f 4/1/10 3/1/10 2/1/10
f 10/1/11 6/1/11 5/1/11
f 9/1/12 12/1/12 11/1/12
f 7/1/13 20/1/13 19/1/13
f 22/1/14 11/1/14 10/1/14
f 21/1/15 24/1/15 23/1/15
f 19/1/16 14/1/16 13/1/16
f 16/1/17 23/1/17 22/1/17
f 15/1/18 18/1/18 17/1/18
f 13/1/19 2/1/19 1/1/19
f 5/1/20 17/1/20 16/1/20
f 19/1/21 1/1/21 7/1/21
f 6/1/22 8/1/22 3/1/22
f 17/1/23 2/1/23 15/1/23
f 10/1/24 16/1/24 22/1/24
f 11/1/25 20/1/25 9/1/25
f 23/1/26 14/1/26 21/1/26
f 25/2/1 26/2/1 27/2/1
f 28/2/2 29/2/2 30/2/2
f 31/2/3 32/2/3 33/2/3
f 34/2/4 35/2/4 36/2/4
f 37/2/5 38/2/5 39/2/5
f 40/2/6 41/2/6 42/2/6
f 43/2/7 44/2/7 45/2/7
f 46/2/8 47/2/8 48/2/8
f 25/2/9 32/2/9 31/2/9
f 28/2/10 27/2/10 26/2/10
f 34/2/11 30/2/11 29/2/11
f 33/2/12 36/2/12 35/2/12
f 31/2/13 44/2/13 43/2/13
f 46/2/27 35/2/27 34/2/27
f 45/2/15 48/2/15 47/2/15
f 43/2/16 38/2/16 37/2/16
f 40/2/17 47/2/17 46/2/17
f 39/2/18 42/2/18 41/2/18
f 37/2/19 26/2/19 25/2/19
f 29/2/28 41/2/28 40/2/28
f 43/2/21 25/2/21 31/2/21
f 30/2/22 32/2/22 27/2/22
f 41/2/23 26/2/23 39/2/23
f 34/2/24 40/2/24 46/2/24
f 35/2/25 44/2/25 33/2/25
f 47/2/26 38/2/26 45/2/26
f 50/2/29 51/2/29 49/2/29
f 52/2/26 53/2/26 51/2/26
f 54/2/30 55/2/30 53/2/30
f 56/2/31 57/2/31 55/2/31
f 58/2/23 56/2/23 54/2/23
f 57/2/22 60/2/22 59/2/22
f 60/2/32 49/2/32 59/2/32
f 57/2/25 59/2/25 51/2/25
f 62/2/29 63/2/29 61/2/29
f 64/2/26 65/2/26 63/2/26
f 66/2/30 67/2/30 65/2/30
f 68/2/31 69/2/31 67/2/31
f 70/2/23 68/2/23 66/2/23
f 69/2/22 72/2/22 71/2/22
f 72/2/32 61/2/32 71/2/32
f 69/2/25 71/2/25 63/2/25
f 1/1/9 3/1/9 8/1/9
f 4/1/10 6/1/10 3/1/10
f 10/1/11 12/1/11 6/1/11
f 9/1/12 8/1/12 12/1/12
f 7/1/13 9/1/13 20/1/13
f 22/1/14 24/1/14 11/1/14
f 21/1/15 20/1/15 24/1/15
f 19/1/16 21/1/16 14/1/16
f 16/1/17 18/1/17 23/1/17
f 15/1/18 14/1/18 18/1/18
f 13/1/19 15/1/19 2/1/19
f 5/1/20 4/1/20 17/1/20
f 19/1/21 13/1/21 1/1/21
f 6/1/22 12/1/22 8/1/22
f 17/1/23 4/1/23 2/1/23
f 10/1/24 5/1/24 16/1/24
f 11/1/25 24/1/25 20/1/25
f 23/1/26 18/1/26 14/1/26
f 25/2/9 27/2/9 32/2/9
f 28/2/10 30/2/10 27/2/10
f 34/2/11 36/2/11 30/2/11
f 33/2/12 32/2/12 36/2/12
f 31/2/13 33/2/13 44/2/13
f 46/2/27 48/2/27 35/2/27
f 45/2/15 44/2/15 48/2/15
f 43/2/16 45/2/16 38/2/16
f 40/2/17 42/2/17 47/2/17
f 39/2/18 38/2/18 42/2/18
f 37/2/19 39/2/19 26/2/19
f 29/2/28 28/2/28 41/2/28
f 43/2/21 37/2/21 25/2/21
f 30/2/22 36/2/22 32/2/22
f 41/2/23 28/2/23 26/2/23
f 34/2/24 29/2/24 40/2/24
f 35/2/25 48/2/25 44/2/25
f 47/2/26 42/2/26 38/2/26
f 50/2/29 52/2/29 51/2/29
f 52/2/26 54/2/26 53/2/26
f 54/2/30 56/2/30 55/2/30
f 56/2/31 58/2/31 57/2/31
f 54/2/23 52/2/23 58/2/23
f 52/2/23 50/2/23 60/2/23
f 58/2/23 52/2/23 60/2/23
f 57/2/22 58/2/22 60/2/22
f 60/2/32 50/2/32 49/2/32
f 59/2/25 49/2/25 51/2/25
f 51/2/25 53/2/25 57/2/25
f 53/2/25 55/2/25 57/2/25
f 62/2/29 64/2/29 63/2/29
f 64/2/26 66/2/26 65/2/26
f 66/2/30 68/2/30 67/2/30
f 68/2/31 70/2/31 69/2/31
f 66/2/23 64/2/23 70/2/23
f 64/2/23 62/2/23 72/2/23
f 70/2/23 64/2/23 72/2/23
f 69/2/22 70/2/22 72/2/22
f 72/2/32 62/2/32 61/2/32
f 71/2/25 61/2/25 63/2/25
f 63/2/25 65/2/25 69/2/25
f 65/2/25 67/2/25 69/2/25
