# Blender 5.2.1 LTS
# www.blender.org
mtllib fenceRails.mtl
o fenceRails
v -0.878400 -0.060000 0.028302
v -0.878400 -0.046909 0.041887
v -0.900000 -0.046909 0.028302
v -0.878400 0.046909 0.041887
v -0.878400 0.060000 0.028302
v -0.900000 0.046909 0.028302
v -0.878400 -0.060000 -0.046415
v -0.900000 -0.046909 -0.046415
v -0.878400 -0.046909 -0.060000
v -0.878400 0.060000 -0.046415
v -0.878400 0.046909 -0.060000
v -0.900000 0.046909 -0.046415
v 0.878400 -0.060000 0.028302
v 0.900000 -0.046909 0.028302
v 0.878400 -0.046909 0.041887
v 0.878400 0.060000 0.028302
v 0.878400 0.046909 0.041887
v 0.900000 0.046909 0.028302
v 0.878400 -0.060000 -0.046415
v 0.878400 -0.046909 -0.060000
v 0.900000 -0.046909 -0.046415
v 0.878400 0.060000 -0.046415
v 0.900000 0.046909 -0.046415
v 0.878400 0.046909 -0.060000
v -0.720000 0.026182 0.039623
v -0.720000 0.026182 0.060000
v -0.682588 0.013091 0.039623
v -0.682588 0.013091 0.060000
v -0.682588 -0.013091 0.039623
v -0.682588 -0.013091 0.060000
v -0.720000 -0.026182 0.039623
v -0.720000 -0.026182 0.060000
v -0.757412 -0.013091 0.039623
v -0.757412 -0.013091 0.060000
v -0.757412 0.013091 0.039623
v -0.757412 0.013091 0.060000
v 0.720000 0.026182 0.039623
v 0.720000 0.026182 0.060000
v 0.757412 0.013091 0.039623
v 0.757412 0.013091 0.060000
v 0.757412 -0.013091 0.039623
v 0.757412 -0.013091 0.060000
v 0.720000 -0.026182 0.039623
v 0.720000 -0.026182 0.060000
v 0.682588 -0.013091 0.039623
v 0.682588 -0.013091 0.060000
v 0.682588 0.013091 0.039623
v 0.682588 0.013091 0.060000
vn -0.4000 -0.6600 0.6360
vn -0.4000 0.6600 0.6360
vn -0.4000 -0.6600 -0.6360
vn -0.4000 0.6600 -0.6360
vn 0.4000 -0.6600 0.6360
vn 0.4000 0.6600 0.6360
vn 0.4000 -0.6600 -0.6360
vn 0.4000 0.6600 -0.6360
vn -0.5183 -0.8552 -0.0000
vn -0.5324 -0.0000 0.8465
vn -0.5183 0.8552 -0.0000
vn -0.5324 -0.0000 -0.8465
vn -0.0000 -0.7201 -0.6939
vn -0.0000 0.7201 -0.6939
vn 0.5324 -0.0000 -0.8465
vn 0.5183 -0.8552 -0.0000
vn 0.5183 0.8552 -0.0000
vn 0.5324 -0.0000 0.8465
vn -0.0000 -0.7201 0.6939
vn -0.0000 0.7201 0.6939
vn -0.0000 -1.0000 -0.0000
vn -1.0000 -0.0000 -0.0000
vn -0.0000 -0.0000 1.0000
vn -0.0000 1.0000 -0.0000
vn -0.0000 -0.0000 -1.0000
vn 1.0000 -0.0000 -0.0000
vn 0.3303 0.9439 -0.0000
vn 0.3303 -0.9439 -0.0000
vn -0.3303 -0.9439 -0.0000
vn -0.3303 0.9439 -0.0000
vt 0.125000 0.875000
vt 0.125000 0.625000
s 0
usemtl WorldPickupPalette
f 1/1/1 2/1/1 3/1/1
f 4/1/2 5/1/2 6/1/2
f 7/1/3 8/1/3 9/1/3
f 10/1/4 11/1/4 12/1/4
f 13/1/5 14/1/5 15/1/5
f 16/1/6 17/1/6 18/1/6
f 19/1/7 20/1/7 21/1/7
f 22/1/8 23/1/8 24/1/8
f 1/1/9 8/1/9 7/1/9
f 4/1/10 3/1/10 2/1/10
f 10/1/11 6/1/11 5/1/11
f 9/1/12 12/1/12 11/1/12
f 7/1/13 20/1/13 19/1/13
f 22/1/14 11/1/14 10/1/14
f 21/1/15 24/1/15 23/1/15
f 19/1/16 14/1/16 13/1/16
f 16/1/17 23/1/17 22/1/17
f 15/1/18 18/1/18 17/1/18
f 13/1/19 2/1/19 1/1/19
f 5/1/20 17/1/20 16/1/20
f 19/1/21 1/1/21 7/1/21
f 6/1/22 8/1/22 3/1/22
f 17/1/23 2/1/23 15/1/23
f 10/1/24 16/1/24 22/1/24
f 11/1/25 20/1/25 9/1/25
f 23/1/26 14/1/26 21/1/26
f 26/2/27 27/2/27 25/2/27
f 28/2/26 29/2/26 27/2/26
f 30/2/28 31/2/28 29/2/28
f 32/2/29 33/2/29 31/2/29
f 32/2/23 30/2/23 26/2/23
f 34/2/22 35/2/22 33/2/22
f 36/2/30 25/2/30 35/2/30
f 31/2/25 33/2/25 35/2/25
f 38/2/27 39/2/27 37/2/27
f 40/2/26 41/2/26 39/2/26
f 42/2/28 43/2/28 41/2/28
f 44/2/29 45/2/29 43/2/29
f 44/2/23 42/2/23 38/2/23
f 46/2/22 47/2/22 45/2/22
f 48/2/30 37/2/30 47/2/30
f 43/2/25 45/2/25 47/2/25
f 1/1/9 3/1/9 8/1/9
f 4/1/10 6/1/10 3/1/10
f 10/1/11 12/1/11 6/1/11
f 9/1/12 8/1/12 12/1/12
f 7/1/13 9/1/13 20/1/13
f 22/1/14 24/1/14 11/1/14
f 21/1/15 20/1/15 24/1/15
f 19/1/16 21/1/16 14/1/16
f 16/1/17 18/1/17 23/1/17
f 15/1/18 14/1/18 18/1/18
f 13/1/19 15/1/19 2/1/19
f 5/1/20 4/1/20 17/1/20
f 19/1/21 13/1/21 1/1/21
f 6/1/22 12/1/22 8/1/22
f 17/1/23 4/1/23 2/1/23
f 10/1/24 5/1/24 16/1/24
f 11/1/25 24/1/25 20/1/25
f 23/1/26 18/1/26 14/1/26
f 26/2/27 28/2/27 27/2/27
f 28/2/26 30/2/26 29/2/26
f 30/2/28 32/2/28 31/2/28
f 32/2/29 34/2/29 33/2/29
f 30/2/23 28/2/23 26/2/23
f 26/2/23 36/2/23 34/2/23
f 34/2/23 32/2/23 26/2/23
f 34/2/22 36/2/22 35/2/22
f 36/2/30 26/2/30 25/2/30
f 35/2/25 25/2/25 31/2/25
f 25/2/25 27/2/25 31/2/25
f 27/2/25 29/2/25 31/2/25
f 38/2/27 40/2/27 39/2/27
f 40/2/26 42/2/26 41/2/26
f 42/2/28 44/2/28 43/2/28
f 44/2/29 46/2/29 45/2/29
f 42/2/23 40/2/23 38/2/23
f 38/2/23 48/2/23 46/2/23
f 46/2/23 44/2/23 38/2/23
f 46/2/22 48/2/22 47/2/22
f 48/2/30 38/2/30 37/2/30
f 47/2/25 37/2/25 43/2/25
f 37/2/25 39/2/25 43/2/25
f 39/2/25 41/2/25 43/2/25
