# Blender 5.2.1 LTS
# www.blender.org
mtllib flowerInstances.mtl
o flowerInstances
v 0.000000 0.000000 0.022000
v 0.000000 0.180000 0.022000
v 0.005657 0.000000 0.024343
v 0.005657 0.180000 0.024343
v 0.008000 0.000000 0.030000
v 0.008000 0.180000 0.030000
v 0.005657 0.000000 0.035657
v 0.005657 0.180000 0.035657
v 0.000000 0.000000 0.038000
v 0.000000 0.180000 0.038000
v -0.005657 0.000000 0.035657
v -0.005657 0.180000 0.035657
v -0.008000 0.000000 0.030000
v -0.008000 0.180000 0.030000
v -0.005657 0.000000 0.024343
v -0.005657 0.180000 0.024343
v 0.000000 0.166000 0.065000
v 0.025326 0.173739 0.080772
v -0.009673 0.173739 0.090519
v -0.031305 0.173739 0.065000
v -0.009673 0.173739 0.039481
v 0.025326 0.173739 0.049228
v 0.009673 0.186261 0.090519
v -0.025326 0.186261 0.080772
v -0.025326 0.186261 0.049228
v 0.009673 0.186261 0.039481
v 0.031305 0.186261 0.065000
v 0.000000 0.194000 0.065000
v 0.033287 0.166000 0.040816
v 0.058613 0.173739 0.056587
v 0.023614 0.173739 0.066335
v 0.001982 0.173739 0.040816
v 0.023614 0.173739 0.015296
v 0.058613 0.173739 0.025044
v 0.042960 0.186261 0.066335
v 0.007961 0.186261 0.056587
v 0.007961 0.186261 0.025044
v 0.042960 0.186261 0.015296
v 0.064592 0.186261 0.040816
v 0.033287 0.194000 0.040816
v 0.020572 0.166000 0.001684
v 0.045898 0.173739 0.017456
v 0.010899 0.173739 0.027204
v -0.010732 0.173739 0.001684
v 0.010899 0.173739 -0.023835
v 0.045898 0.173739 -0.014087
v 0.030246 0.186261 0.027204
v -0.004754 0.186261 0.017456
v -0.004754 0.186261 -0.014087
v 0.030246 0.186261 -0.023835
v 0.051877 0.186261 0.001684
v 0.020572 0.194000 0.001684
v -0.020572 0.166000 0.001684
v 0.004754 0.173739 0.017456
v -0.030246 0.173739 0.027204
v -0.051877 0.173739 0.001684
v -0.030246 0.173739 -0.023835
v 0.004754 0.173739 -0.014087
v -0.010899 0.186261 0.027204
v -0.045898 0.186261 0.017456
v -0.045898 0.186261 -0.014087
v -0.010899 0.186261 -0.023835
v 0.010732 0.186261 0.001684
v -0.020572 0.194000 0.001684
v -0.033287 0.166000 0.040816
v -0.007961 0.173739 0.056587
v -0.042960 0.173739 0.066335
v -0.064592 0.173739 0.040816
v -0.042960 0.173739 0.015296
v -0.007961 0.173739 0.025044
v -0.023614 0.186261 0.066335
v -0.058613 0.186261 0.056587
v -0.058613 0.186261 0.025044
v -0.023614 0.186261 0.015296
v -0.001982 0.186261 0.040816
v -0.033287 0.194000 0.040816
v 0.000000 0.176000 0.030000
v 0.011578 0.183739 0.038412
v -0.004422 0.183739 0.043610
v -0.014311 0.183739 0.030000
v -0.004422 0.183739 0.016390
v 0.011578 0.183739 0.021588
v 0.004422 0.196261 0.043610
v -0.011578 0.196261 0.038412
v -0.011578 0.196261 0.021588
v 0.004422 0.196261 0.016390
v 0.014311 0.196261 0.030000
v 0.000000 0.204000 0.030000
v 0.064239 0.000000 -0.077988
v 0.064239 0.235000 -0.077988
v 0.069896 0.000000 -0.075645
v 0.069896 0.235000 -0.075645
v 0.072239 0.000000 -0.069988
v 0.072239 0.235000 -0.069988
v 0.069896 0.000000 -0.064331
v 0.069896 0.235000 -0.064331
v 0.064239 0.000000 -0.061988
v 0.064239 0.235000 -0.061988
v 0.058582 0.000000 -0.064331
v 0.058582 0.235000 -0.064331
v 0.056239 0.000000 -0.069988
v 0.056239 0.235000 -0.069988
v 0.058582 0.000000 -0.075645
v 0.058582 0.235000 -0.075645
v 0.064239 0.221000 -0.034988
v 0.089565 0.228739 -0.019217
v 0.054566 0.228739 -0.009469
v 0.032934 0.228739 -0.034988
v 0.054566 0.228739 -0.060507
v 0.089565 0.228739 -0.050760
v 0.073913 0.241261 -0.009469
v 0.038913 0.241261 -0.019217
v 0.038913 0.241261 -0.050760
v 0.073913 0.241261 -0.060507
v 0.095544 0.241261 -0.034988
v 0.064239 0.249000 -0.034988
v 0.097526 0.221000 -0.059173
v 0.122852 0.228739 -0.043401
v 0.087853 0.228739 -0.033653
v 0.066221 0.228739 -0.059173
v 0.087853 0.228739 -0.084692
v 0.122852 0.228739 -0.074944
v 0.107199 0.241261 -0.033653
v 0.072200 0.241261 -0.043401
v 0.072200 0.241261 -0.074944
v 0.107199 0.241261 -0.084692
v 0.128831 0.241261 -0.059173
v 0.097526 0.249000 -0.059173
v 0.084812 0.221000 -0.098304
v 0.110138 0.228739 -0.082532
v 0.075138 0.228739 -0.072785
v 0.053507 0.228739 -0.098304
v 0.075138 0.228739 -0.123823
v 0.110138 0.228739 -0.114075
v 0.094485 0.241261 -0.072785
v 0.059486 0.241261 -0.082532
v 0.059486 0.241261 -0.114075
v 0.094485 0.241261 -0.123823
v 0.116116 0.241261 -0.098304
v 0.084812 0.249000 -0.098304
v 0.043667 0.221000 -0.098304
v 0.068993 0.228739 -0.082532
v 0.033993 0.228739 -0.072785
v 0.012362 0.228739 -0.098304
v 0.033993 0.228739 -0.123823
v 0.068993 0.228739 -0.114075
v 0.053340 0.241261 -0.072785
v 0.018341 0.241261 -0.082532
v 0.018341 0.241261 -0.114075
v 0.053340 0.241261 -0.123823
v 0.074971 0.241261 -0.098304
v 0.043667 0.249000 -0.098304
v 0.030952 0.221000 -0.059173
v 0.056278 0.228739 -0.043401
v 0.021279 0.228739 -0.033653
v -0.000353 0.228739 -0.059173
v 0.021279 0.228739 -0.084692
v 0.056278 0.228739 -0.074944
v 0.040626 0.241261 -0.033653
v 0.005626 0.241261 -0.043401
v 0.005626 0.241261 -0.074944
v 0.040626 0.241261 -0.084692
v 0.062257 0.241261 -0.059173
v 0.030952 0.249000 -0.059173
v 0.064239 0.231000 -0.069988
v 0.075817 0.238739 -0.061577
v 0.059817 0.238739 -0.056378
v 0.049928 0.238739 -0.069988
v 0.059817 0.238739 -0.083598
v 0.075817 0.238739 -0.078400
v 0.068661 0.251261 -0.056378
v 0.052661 0.251261 -0.061577
v 0.052661 0.251261 -0.078400
v 0.068661 0.251261 -0.083598
v 0.078550 0.251261 -0.069988
v 0.064239 0.259000 -0.069988
v -0.159414 0.000000 0.005681
v -0.159414 0.290000 0.005681
v -0.153757 0.000000 0.008024
v -0.153757 0.290000 0.008024
v -0.151414 0.000000 0.013681
v -0.151414 0.290000 0.013681
v -0.153757 0.000000 0.019338
v -0.153757 0.290000 0.019338
v -0.159414 0.000000 0.021681
v -0.159414 0.290000 0.021681
v -0.165071 0.000000 0.019338
v -0.165071 0.290000 0.019338
v -0.167414 0.000000 0.013681
v -0.167414 0.290000 0.013681
v -0.165071 0.000000 0.008024
v -0.165071 0.290000 0.008024
v -0.159414 0.276000 0.048681
v -0.134088 0.283739 0.064453
v -0.169087 0.283739 0.074200
v -0.190719 0.283739 0.048681
v -0.169087 0.283739 0.023162
v -0.134088 0.283739 0.032909
v -0.149741 0.296261 0.074200
v -0.184740 0.296261 0.064453
v -0.184740 0.296261 0.032909
v -0.149741 0.296261 0.023162
v -0.128109 0.296261 0.048681
v -0.159414 0.304000 0.048681
v -0.126127 0.276000 0.024497
v -0.100801 0.283739 0.040268
v -0.135801 0.283739 0.050016
v -0.157432 0.283739 0.024497
v -0.135801 0.283739 -0.001023
v -0.100801 0.283739 0.008725
v -0.116454 0.296261 0.050016
v -0.151453 0.296261 0.040268
v -0.151453 0.296261 0.008725
v -0.116454 0.296261 -0.001023
v -0.094822 0.296261 0.024497
v -0.126127 0.304000 0.024497
v -0.138842 0.276000 -0.014635
v -0.113516 0.283739 0.001137
v -0.148515 0.283739 0.010885
v -0.170146 0.283739 -0.014635
v -0.148515 0.283739 -0.040154
v -0.113516 0.283739 -0.030406
v -0.129168 0.296261 0.010885
v -0.164168 0.296261 0.001137
v -0.164168 0.296261 -0.030406
v -0.129168 0.296261 -0.040154
v -0.107537 0.296261 -0.014635
v -0.138842 0.304000 -0.014635
v -0.179987 0.276000 -0.014635
v -0.154661 0.283739 0.001137
v -0.189660 0.283739 0.010885
v -0.211291 0.283739 -0.014635
v -0.189660 0.283739 -0.040154
v -0.154661 0.283739 -0.030406
v -0.170313 0.296261 0.010885
v -0.205313 0.296261 0.001137
v -0.205313 0.296261 -0.030406
v -0.170313 0.296261 -0.040154
v -0.148682 0.296261 -0.014635
v -0.179987 0.304000 -0.014635
v -0.192701 0.276000 0.024497
v -0.167375 0.283739 0.040268
v -0.202374 0.283739 0.050016
v -0.224006 0.283739 0.024497
v -0.202374 0.283739 -0.001023
v -0.167375 0.283739 0.008725
v -0.183028 0.296261 0.050016
v -0.218027 0.296261 0.040268
v -0.218027 0.296261 0.008725
v -0.183028 0.296261 -0.001023
v -0.161396 0.296261 0.024497
v -0.192701 0.304000 0.024497
v -0.159414 0.286000 0.013681
v -0.147836 0.293739 0.022093
v -0.163836 0.293739 0.027291
v -0.173725 0.293739 0.013681
v -0.163836 0.293739 0.000071
v -0.147836 0.293739 0.005270
v -0.154992 0.306261 0.027291
v -0.170992 0.306261 0.022093
v -0.170992 0.306261 0.005270
v -0.154992 0.306261 0.000071
v -0.145103 0.306261 0.013681
v -0.159414 0.314000 0.013681
v 0.023755 0.000000 0.010322
v 0.023755 0.345000 0.010322
v 0.029412 0.000000 0.012665
v 0.029412 0.345000 0.012665
v 0.031755 0.000000 0.018322
v 0.031755 0.345000 0.018322
v 0.029412 0.000000 0.023979
v 0.029412 0.345000 0.023979
v 0.023755 0.000000 0.026322
v 0.023755 0.345000 0.026322
v 0.018098 0.000000 0.023979
v 0.018098 0.345000 0.023979
v 0.015755 0.000000 0.018322
v 0.015755 0.345000 0.018322
v 0.018098 0.000000 0.012665
v 0.018098 0.345000 0.012665
v 0.023755 0.331000 0.053322
v 0.049081 0.338739 0.069093
v 0.014082 0.338739 0.078841
v -0.007550 0.338739 0.053322
v 0.014082 0.338739 0.027803
v 0.049081 0.338739 0.037550
v 0.033429 0.351261 0.078841
v -0.001571 0.351261 0.069093
v -0.001571 0.351261 0.037550
v 0.033429 0.351261 0.027803
v 0.055060 0.351261 0.053322
v 0.023755 0.359000 0.053322
v 0.057042 0.331000 0.029137
v 0.082368 0.338739 0.044909
v 0.047369 0.338739 0.054657
v 0.025737 0.338739 0.029137
v 0.047369 0.338739 0.003618
v 0.082368 0.338739 0.013366
v 0.066716 0.351261 0.054657
v 0.031716 0.351261 0.044909
v 0.031716 0.351261 0.013366
v 0.066716 0.351261 0.003618
v 0.088347 0.351261 0.029137
v 0.057042 0.359000 0.029137
v 0.044328 0.331000 -0.009994
v 0.069654 0.338739 0.005778
v 0.034654 0.338739 0.015525
v 0.013023 0.338739 -0.009994
v 0.034654 0.338739 -0.035513
v 0.069654 0.338739 -0.025765
v 0.054001 0.351261 0.015525
v 0.019002 0.351261 0.005778
v 0.019002 0.351261 -0.025765
v 0.054001 0.351261 -0.035513
v 0.075633 0.351261 -0.009994
v 0.044328 0.359000 -0.009994
v 0.003183 0.331000 -0.009994
v 0.028509 0.338739 0.005778
v -0.006491 0.338739 0.015525
v -0.028122 0.338739 -0.009994
v -0.006491 0.338739 -0.035513
v 0.028509 0.338739 -0.025765
v 0.012856 0.351261 0.015525
v -0.022143 0.351261 0.005778
v -0.022143 0.351261 -0.025765
v 0.012856 0.351261 -0.035513
v 0.034488 0.351261 -0.009994
v 0.003183 0.359000 -0.009994
v -0.009532 0.331000 0.029137
v 0.015794 0.338739 0.044909
v -0.019205 0.338739 0.054657
v -0.040837 0.338739 0.029137
v -0.019205 0.338739 0.003618
v 0.015794 0.338739 0.013366
v 0.000142 0.351261 0.054657
v -0.034858 0.351261 0.044909
v -0.034858 0.351261 0.013366
v 0.000142 0.351261 0.003618
v 0.021773 0.351261 0.029137
v -0.009532 0.359000 0.029137
v 0.023755 0.341000 0.018322
v 0.035333 0.348739 0.026733
v 0.019333 0.348739 0.031932
v 0.009444 0.348739 0.018322
v 0.019333 0.348739 0.004712
v 0.035333 0.348739 0.009910
v 0.028177 0.361261 0.031932
v 0.012178 0.361261 0.026733
v 0.012178 0.361261 0.009910
v 0.028177 0.361261 0.004712
v 0.038066 0.361261 0.018322
v 0.023755 0.369000 0.018322
v -0.016187 0.000000 -0.101611
v -0.016187 0.400000 -0.101611
v -0.010530 0.000000 -0.099268
v -0.010530 0.400000 -0.099268
v -0.008187 0.000000 -0.093611
v -0.008187 0.400000 -0.093611
v -0.010530 0.000000 -0.087954
v -0.010530 0.400000 -0.087954
v -0.016187 0.000000 -0.085611
v -0.016187 0.400000 -0.085611
v -0.021844 0.000000 -0.087954
v -0.021844 0.400000 -0.087954
v -0.024187 0.000000 -0.093611
v -0.024187 0.400000 -0.093611
v -0.021844 0.000000 -0.099268
v -0.021844 0.400000 -0.099268
v -0.016187 0.386000 -0.058611
v 0.009139 0.393739 -0.042839
v -0.025860 0.393739 -0.033092
v -0.047492 0.393739 -0.058611
v -0.025860 0.393739 -0.084130
v 0.009139 0.393739 -0.074382
v -0.006513 0.406261 -0.033092
v -0.041513 0.406261 -0.042839
v -0.041513 0.406261 -0.074382
v -0.006513 0.406261 -0.084130
v 0.015118 0.406261 -0.058611
v -0.016187 0.414000 -0.058611
v 0.017100 0.386000 -0.082795
v 0.042426 0.393739 -0.067024
v 0.007427 0.393739 -0.057276
v -0.014205 0.393739 -0.082795
v 0.007427 0.393739 -0.108314
v 0.042426 0.393739 -0.098567
v 0.026774 0.406261 -0.057276
v -0.008226 0.406261 -0.067024
v -0.008226 0.406261 -0.098567
v 0.026774 0.406261 -0.108314
v 0.048405 0.406261 -0.082795
v 0.017100 0.414000 -0.082795
v 0.004386 0.386000 -0.121926
v 0.029712 0.393739 -0.106155
v -0.005288 0.393739 -0.096407
v -0.026919 0.393739 -0.121926
v -0.005288 0.393739 -0.147446
v 0.029712 0.393739 -0.137698
v 0.014059 0.406261 -0.096407
v -0.020940 0.406261 -0.106155
v -0.020940 0.406261 -0.137698
v 0.014059 0.406261 -0.147446
v 0.035691 0.406261 -0.121926
v 0.004386 0.414000 -0.121926
v -0.036759 0.386000 -0.121926
v -0.011433 0.393739 -0.106155
v -0.046433 0.393739 -0.096407
v -0.068064 0.393739 -0.121926
v -0.046433 0.393739 -0.147446
v -0.011433 0.393739 -0.137698
v -0.027086 0.406261 -0.096407
v -0.062085 0.406261 -0.106155
v -0.062085 0.406261 -0.137698
v -0.027086 0.406261 -0.147446
v -0.005454 0.406261 -0.121926
v -0.036759 0.414000 -0.121926
v -0.049474 0.386000 -0.082795
v -0.024148 0.393739 -0.067024
v -0.059147 0.393739 -0.057276
v -0.080779 0.393739 -0.082795
v -0.059147 0.393739 -0.108314
v -0.024148 0.393739 -0.098567
v -0.039800 0.406261 -0.057276
v -0.074800 0.406261 -0.067024
v -0.074800 0.406261 -0.098567
v -0.039800 0.406261 -0.108314
v -0.018169 0.406261 -0.082795
v -0.049474 0.414000 -0.082795
v -0.016187 0.396000 -0.093611
v -0.004609 0.403739 -0.085199
v -0.020609 0.403739 -0.080001
v -0.030498 0.403739 -0.093611
v -0.020609 0.403739 -0.107221
v -0.004609 0.403739 -0.102022
v -0.011765 0.416261 -0.080001
v -0.027764 0.416261 -0.085199
v -0.027764 0.416261 -0.102022
v -0.011765 0.416261 -0.107221
v -0.001876 0.416261 -0.093611
v -0.016187 0.424000 -0.093611
v -0.086526 0.000000 0.126586
v -0.086526 0.180000 0.126586
v -0.080869 0.000000 0.128929
v -0.080869 0.180000 0.128929
v -0.078526 0.000000 0.134586
v -0.078526 0.180000 0.134586
v -0.080869 0.000000 0.140243
v -0.080869 0.180000 0.140243
v -0.086526 0.000000 0.142586
v -0.086526 0.180000 0.142586
v -0.092183 0.000000 0.140243
v -0.092183 0.180000 0.140243
v -0.094526 0.000000 0.134586
v -0.094526 0.180000 0.134586
v -0.092183 0.000000 0.128929
v -0.092183 0.180000 0.128929
v -0.086526 0.166000 0.169586
v -0.061200 0.173739 0.185357
v -0.096199 0.173739 0.195105
v -0.117831 0.173739 0.169586
v -0.096199 0.173739 0.144066
v -0.061200 0.173739 0.153814
v -0.076852 0.186261 0.195105
v -0.111852 0.186261 0.185357
v -0.111852 0.186261 0.153814
v -0.076852 0.186261 0.144066
v -0.055221 0.186261 0.169586
v -0.086526 0.194000 0.169586
v -0.053239 0.166000 0.145401
v -0.027913 0.173739 0.161173
v -0.062912 0.173739 0.170920
v -0.084544 0.173739 0.145401
v -0.062912 0.173739 0.119882
v -0.027913 0.173739 0.129630
v -0.043565 0.186261 0.170920
v -0.078565 0.186261 0.161173
v -0.078565 0.186261 0.129630
v -0.043565 0.186261 0.119882
v -0.021934 0.186261 0.145401
v -0.053239 0.194000 0.145401
v -0.065953 0.166000 0.106270
v -0.040627 0.173739 0.122042
v -0.075627 0.173739 0.131789
v -0.097258 0.173739 0.106270
v -0.075627 0.173739 0.080751
v -0.040627 0.173739 0.090498
v -0.056280 0.186261 0.131789
v -0.091279 0.186261 0.122042
v -0.091279 0.186261 0.090498
v -0.056280 0.186261 0.080751
v -0.034648 0.186261 0.106270
v -0.065953 0.194000 0.106270
v -0.107098 0.166000 0.106270
v -0.081772 0.173739 0.122042
v -0.116772 0.173739 0.131789
v -0.138403 0.173739 0.106270
v -0.116772 0.173739 0.080751
v -0.081772 0.173739 0.090498
v -0.097425 0.186261 0.131789
v -0.132424 0.186261 0.122042
v -0.132424 0.186261 0.090498
v -0.097425 0.186261 0.080751
v -0.075793 0.186261 0.106270
v -0.107098 0.194000 0.106270
v -0.119813 0.166000 0.145401
v -0.094487 0.173739 0.161173
v -0.129486 0.173739 0.170920
v -0.151118 0.173739 0.145401
v -0.129486 0.173739 0.119882
v -0.094487 0.173739 0.129630
v -0.110139 0.186261 0.170920
v -0.145139 0.186261 0.161173
v -0.145139 0.186261 0.129630
v -0.110139 0.186261 0.119882
v -0.088508 0.186261 0.145401
v -0.119813 0.194000 0.145401
v -0.086526 0.176000 0.134586
v -0.074948 0.183739 0.142997
v -0.090948 0.183739 0.148196
v -0.100836 0.183739 0.134586
v -0.090948 0.183739 0.120975
v -0.074948 0.183739 0.126174
v -0.082104 0.196261 0.148196
v -0.098103 0.196261 0.142997
v -0.098103 0.196261 0.126174
v -0.082104 0.196261 0.120975
v -0.072215 0.196261 0.134586
v -0.086526 0.204000 0.134586
vn 0.3827 -0.0000 -0.9239
vn 0.9239 -0.0000 -0.3827
vn 0.9239 -0.0000 0.3827
vn 0.3827 -0.0000 0.9239
vn -0.3827 -0.0000 0.9239
vn -0.9239 -0.0000 0.3827
vn -0.0000 1.0000 -0.0000
vn -0.9239 -0.0000 -0.3827
vn -0.3827 -0.0000 -0.9239
vn -0.0000 -1.0000 -0.0000
vn 0.0891 -0.9433 0.3198
vn 0.2922 -0.9563 -0.0000
vn -0.2352 -0.9513 0.1993
vn -0.2352 -0.9513 -0.1993
vn 0.0891 -0.9433 -0.3198
vn 0.9024 -0.4309 -0.0000
vn 0.2478 -0.3829 0.8899
vn -0.6956 -0.4105 0.5896
vn -0.6956 -0.4105 -0.5896
vn 0.2478 -0.3829 -0.8899
vn 0.6956 0.4105 0.5896
vn -0.2478 0.3829 0.8899
vn -0.9024 0.4309 -0.0000
vn -0.2478 0.3829 -0.8899
vn 0.6956 0.4105 -0.5896
vn 0.2352 0.9513 0.1993
vn -0.0891 0.9433 0.3198
vn -0.2922 0.9563 -0.0000
vn -0.0891 0.9433 -0.3198
vn 0.2352 0.9513 -0.1993
vn 0.1717 -0.8314 0.5285
vn 0.5557 -0.8314 -0.0000
vn -0.4496 -0.8314 0.3267
vn -0.4496 -0.8314 -0.3267
vn 0.1717 -0.8314 -0.5285
vn 0.9770 -0.2133 -0.0000
vn 0.3019 -0.2132 0.9292
vn -0.7904 -0.2132 0.5743
vn -0.7904 -0.2132 -0.5743
vn 0.3019 -0.2132 -0.9292
vn 0.7904 0.2132 0.5743
vn -0.3019 0.2132 0.9292
vn -0.9770 0.2133 -0.0000
vn -0.3019 0.2132 -0.9292
vn 0.7904 0.2132 -0.5743
vn 0.4496 0.8314 0.3267
vn -0.1717 0.8314 0.5285
vn -0.5557 0.8314 -0.0000
vn -0.1717 0.8314 -0.5285
vn 0.4496 0.8314 -0.3267
vt 0.125000 0.125000
vt 0.875000 0.875000
vt 0.875000 0.625000
s 0
usemtl WorldPickupPalette
f 2/1/1 3/1/1 1/1/1
f 4/1/2 5/1/2 3/1/2
f 6/1/3 7/1/3 5/1/3
f 8/1/4 9/1/4 7/1/4
f 10/1/5 11/1/5 9/1/5
f 12/1/6 13/1/6 11/1/6
f 14/1/7 10/1/7 6/1/7
f 14/1/8 15/1/8 13/1/8
f 16/1/9 1/1/9 15/1/9
f 11/1/10 13/1/10 15/1/10
f 17/2/11 18/2/11 19/2/11
f 18/2/12 17/2/12 22/2/12
f 17/2/13 19/2/13 20/2/13
f 17/2/14 20/2/14 21/2/14
f 17/2/15 21/2/15 22/2/15
f 18/2/16 22/2/16 27/2/16
f 19/2/17 18/2/17 23/2/17
f 20/2/18 19/2/18 24/2/18
f 21/2/19 20/2/19 25/2/19
f 22/2/20 21/2/20 26/2/20
f 18/2/21 27/2/21 23/2/21
f 19/2/22 23/2/22 24/2/22
f 20/2/23 24/2/23 25/2/23
f 21/2/24 25/2/24 26/2/24
f 22/2/25 26/2/25 27/2/25
f 23/2/26 27/2/26 28/2/26
f 24/2/27 23/2/27 28/2/27
f 25/2/28 24/2/28 28/2/28
f 26/2/29 25/2/29 28/2/29
f 27/2/30 26/2/30 28/2/30
f 29/2/11 30/2/11 31/2/11
f 30/2/12 29/2/12 34/2/12
f 29/2/13 31/2/13 32/2/13
f 29/2/14 32/2/14 33/2/14
f 29/2/15 33/2/15 34/2/15
f 30/2/16 34/2/16 39/2/16
f 31/2/17 30/2/17 35/2/17
f 32/2/18 31/2/18 36/2/18
f 33/2/19 32/2/19 37/2/19
f 34/2/20 33/2/20 38/2/20
f 30/2/21 39/2/21 35/2/21
f 31/2/22 35/2/22 36/2/22
f 32/2/23 36/2/23 37/2/23
f 33/2/24 37/2/24 38/2/24
f 34/2/25 38/2/25 39/2/25
f 35/2/26 39/2/26 40/2/26
f 36/2/27 35/2/27 40/2/27
f 37/2/28 36/2/28 40/2/28
f 38/2/29 37/2/29 40/2/29
f 39/2/30 38/2/30 40/2/30
f 41/2/11 42/2/11 43/2/11
f 42/2/12 41/2/12 46/2/12
f 41/2/13 43/2/13 44/2/13
f 41/2/14 44/2/14 45/2/14
f 41/2/15 45/2/15 46/2/15
f 42/2/16 46/2/16 51/2/16
f 43/2/17 42/2/17 47/2/17
f 44/2/18 43/2/18 48/2/18
f 45/2/19 44/2/19 49/2/19
f 46/2/20 45/2/20 50/2/20
f 42/2/21 51/2/21 47/2/21
f 43/2/22 47/2/22 48/2/22
f 44/2/23 48/2/23 49/2/23
f 45/2/24 49/2/24 50/2/24
f 46/2/25 50/2/25 51/2/25
f 47/2/26 51/2/26 52/2/26
f 48/2/27 47/2/27 52/2/27
f 49/2/28 48/2/28 52/2/28
f 50/2/29 49/2/29 52/2/29
f 51/2/30 50/2/30 52/2/30
f 53/2/11 54/2/11 55/2/11
f 54/2/12 53/2/12 58/2/12
f 53/2/13 55/2/13 56/2/13
f 53/2/14 56/2/14 57/2/14
f 53/2/15 57/2/15 58/2/15
f 54/2/16 58/2/16 63/2/16
f 55/2/17 54/2/17 59/2/17
f 56/2/18 55/2/18 60/2/18
f 57/2/19 56/2/19 61/2/19
f 58/2/20 57/2/20 62/2/20
f 54/2/21 63/2/21 59/2/21
f 55/2/22 59/2/22 60/2/22
f 56/2/23 60/2/23 61/2/23
f 57/2/24 61/2/24 62/2/24
f 58/2/25 62/2/25 63/2/25
f 59/2/26 63/2/26 64/2/26
f 60/2/27 59/2/27 64/2/27
f 61/2/28 60/2/28 64/2/28
f 62/2/29 61/2/29 64/2/29
f 63/2/30 62/2/30 64/2/30
f 65/2/11 66/2/11 67/2/11
f 66/2/12 65/2/12 70/2/12
f 65/2/13 67/2/13 68/2/13
f 65/2/14 68/2/14 69/2/14
f 65/2/15 69/2/15 70/2/15
f 66/2/16 70/2/16 75/2/16
f 67/2/17 66/2/17 71/2/17
f 68/2/18 67/2/18 72/2/18
f 69/2/19 68/2/19 73/2/19
f 70/2/20 69/2/20 74/2/20
f 66/2/21 75/2/21 71/2/21
f 67/2/22 71/2/22 72/2/22
f 68/2/23 72/2/23 73/2/23
f 69/2/24 73/2/24 74/2/24
f 70/2/25 74/2/25 75/2/25
f 71/2/26 75/2/26 76/2/26
f 72/2/27 71/2/27 76/2/27
f 73/2/28 72/2/28 76/2/28
f 74/2/29 73/2/29 76/2/29
f 75/2/30 74/2/30 76/2/30
f 77/3/31 78/3/31 79/3/31
f 78/3/32 77/3/32 82/3/32
f 77/3/33 79/3/33 80/3/33
f 77/3/34 80/3/34 81/3/34
f 77/3/35 81/3/35 82/3/35
f 78/3/36 82/3/36 87/3/36
f 79/3/37 78/3/37 83/3/37
f 80/3/38 79/3/38 84/3/38
f 81/3/39 80/3/39 85/3/39
f 82/3/40 81/3/40 86/3/40
f 78/3/41 87/3/41 83/3/41
f 79/3/42 83/3/42 84/3/42
f 80/3/43 84/3/43 85/3/43
f 81/3/44 85/3/44 86/3/44
f 82/3/45 86/3/45 87/3/45
f 83/3/46 87/3/46 88/3/46
f 84/3/47 83/3/47 88/3/47
f 85/3/48 84/3/48 88/3/48
f 86/3/49 85/3/49 88/3/49
f 87/3/50 86/3/50 88/3/50
f 90/1/1 91/1/1 89/1/1
f 92/1/2 93/1/2 91/1/2
f 94/1/3 95/1/3 93/1/3
f 96/1/4 97/1/4 95/1/4
f 98/1/5 99/1/5 97/1/5
f 100/1/6 101/1/6 99/1/6
f 96/1/7 94/1/7 102/1/7
f 102/1/8 103/1/8 101/1/8
f 104/1/9 89/1/9 103/1/9
f 95/1/10 99/1/10 103/1/10
f 105/2/11 106/2/11 107/2/11
f 106/2/12 105/2/12 110/2/12
f 105/2/13 107/2/13 108/2/13
f 105/2/14 108/2/14 109/2/14
f 105/2/15 109/2/15 110/2/15
f 106/2/16 110/2/16 115/2/16
f 107/2/17 106/2/17 111/2/17
f 108/2/18 107/2/18 112/2/18
f 109/2/19 108/2/19 113/2/19
f 110/2/20 109/2/20 114/2/20
f 106/2/21 115/2/21 111/2/21
f 107/2/22 111/2/22 112/2/22
f 108/2/23 112/2/23 113/2/23
f 109/2/24 113/2/24 114/2/24
f 110/2/25 114/2/25 115/2/25
f 111/2/26 115/2/26 116/2/26
f 112/2/27 111/2/27 116/2/27
f 113/2/28 112/2/28 116/2/28
f 114/2/29 113/2/29 116/2/29
f 115/2/30 114/2/30 116/2/30
f 117/2/11 118/2/11 119/2/11
f 118/2/12 117/2/12 122/2/12
f 117/2/13 119/2/13 120/2/13
f 117/2/14 120/2/14 121/2/14
f 117/2/15 121/2/15 122/2/15
f 118/2/16 122/2/16 127/2/16
f 119/2/17 118/2/17 123/2/17
f 120/2/18 119/2/18 124/2/18
f 121/2/19 120/2/19 125/2/19
f 122/2/20 121/2/20 126/2/20
f 118/2/21 127/2/21 123/2/21
f 119/2/22 123/2/22 124/2/22
f 120/2/23 124/2/23 125/2/23
f 121/2/24 125/2/24 126/2/24
f 122/2/25 126/2/25 127/2/25
f 123/2/26 127/2/26 128/2/26
f 124/2/27 123/2/27 128/2/27
f 125/2/28 124/2/28 128/2/28
f 126/2/29 125/2/29 128/2/29
f 127/2/30 126/2/30 128/2/30
f 129/2/11 130/2/11 131/2/11
f 130/2/12 129/2/12 134/2/12
f 129/2/13 131/2/13 132/2/13
f 129/2/14 132/2/14 133/2/14
f 129/2/15 133/2/15 134/2/15
f 130/2/16 134/2/16 139/2/16
f 131/2/17 130/2/17 135/2/17
f 132/2/18 131/2/18 136/2/18
f 133/2/19 132/2/19 137/2/19
f 134/2/20 133/2/20 138/2/20
f 130/2/21 139/2/21 135/2/21
f 131/2/22 135/2/22 136/2/22
f 132/2/23 136/2/23 137/2/23
f 133/2/24 137/2/24 138/2/24
f 134/2/25 138/2/25 139/2/25
f 135/2/26 139/2/26 140/2/26
f 136/2/27 135/2/27 140/2/27
f 137/2/28 136/2/28 140/2/28
f 138/2/29 137/2/29 140/2/29
f 139/2/30 138/2/30 140/2/30
f 141/2/11 142/2/11 143/2/11
f 142/2/12 141/2/12 146/2/12
f 141/2/13 143/2/13 144/2/13
f 141/2/14 144/2/14 145/2/14
f 141/2/15 145/2/15 146/2/15
f 142/2/16 146/2/16 151/2/16
f 143/2/17 142/2/17 147/2/17
f 144/2/18 143/2/18 148/2/18
f 145/2/19 144/2/19 149/2/19
f 146/2/20 145/2/20 150/2/20
f 142/2/21 151/2/21 147/2/21
f 143/2/22 147/2/22 148/2/22
f 144/2/23 148/2/23 149/2/23
f 145/2/24 149/2/24 150/2/24
f 146/2/25 150/2/25 151/2/25
f 147/2/26 151/2/26 152/2/26
f 148/2/27 147/2/27 152/2/27
f 149/2/28 148/2/28 152/2/28
f 150/2/29 149/2/29 152/2/29
f 151/2/30 150/2/30 152/2/30
f 153/2/11 154/2/11 155/2/11
f 154/2/12 153/2/12 158/2/12
f 153/2/13 155/2/13 156/2/13
f 153/2/14 156/2/14 157/2/14
f 153/2/15 157/2/15 158/2/15
f 154/2/16 158/2/16 163/2/16
f 155/2/17 154/2/17 159/2/17
f 156/2/18 155/2/18 160/2/18
f 157/2/19 156/2/19 161/2/19
f 158/2/20 157/2/20 162/2/20
f 154/2/21 163/2/21 159/2/21
f 155/2/22 159/2/22 160/2/22
f 156/2/23 160/2/23 161/2/23
f 157/2/24 161/2/24 162/2/24
f 158/2/25 162/2/25 163/2/25
f 159/2/26 163/2/26 164/2/26
f 160/2/27 159/2/27 164/2/27
f 161/2/28 160/2/28 164/2/28
f 162/2/29 161/2/29 164/2/29
f 163/2/30 162/2/30 164/2/30
f 165/3/31 166/3/31 167/3/31
f 166/3/32 165/3/32 170/3/32
f 165/3/33 167/3/33 168/3/33
f 165/3/34 168/3/34 169/3/34
f 165/3/35 169/3/35 170/3/35
f 166/3/36 170/3/36 175/3/36
f 167/3/37 166/3/37 171/3/37
f 168/3/38 167/3/38 172/3/38
f 169/3/39 168/3/39 173/3/39
f 170/3/40 169/3/40 174/3/40
f 166/3/41 175/3/41 171/3/41
f 167/3/42 171/3/42 172/3/42
f 168/3/43 172/3/43 173/3/43
f 169/3/44 173/3/44 174/3/44
f 170/3/45 174/3/45 175/3/45
f 171/3/46 175/3/46 176/3/46
f 172/3/47 171/3/47 176/3/47
f 173/3/48 172/3/48 176/3/48
f 174/3/49 173/3/49 176/3/49
f 175/3/50 174/3/50 176/3/50
f 178/1/1 179/1/1 177/1/1
f 180/1/2 181/1/2 179/1/2
f 182/1/3 183/1/3 181/1/3
f 184/1/4 185/1/4 183/1/4
f 186/1/5 187/1/5 185/1/5
f 188/1/6 189/1/6 187/1/6
f 190/1/7 186/1/7 182/1/7
f 190/1/8 191/1/8 189/1/8
f 192/1/9 177/1/9 191/1/9
f 191/1/10 179/1/10 183/1/10
f 193/2/11 194/2/11 195/2/11
f 194/2/12 193/2/12 198/2/12
f 193/2/13 195/2/13 196/2/13
f 193/2/14 196/2/14 197/2/14
f 193/2/15 197/2/15 198/2/15
f 194/2/16 198/2/16 203/2/16
f 195/2/17 194/2/17 199/2/17
f 196/2/18 195/2/18 200/2/18
f 197/2/19 196/2/19 201/2/19
f 198/2/20 197/2/20 202/2/20
f 194/2/21 203/2/21 199/2/21
f 195/2/22 199/2/22 200/2/22
f 196/2/23 200/2/23 201/2/23
f 197/2/24 201/2/24 202/2/24
f 198/2/25 202/2/25 203/2/25
f 199/2/26 203/2/26 204/2/26
f 200/2/27 199/2/27 204/2/27
f 201/2/28 200/2/28 204/2/28
f 202/2/29 201/2/29 204/2/29
f 203/2/30 202/2/30 204/2/30
f 205/2/11 206/2/11 207/2/11
f 206/2/12 205/2/12 210/2/12
f 205/2/13 207/2/13 208/2/13
f 205/2/14 208/2/14 209/2/14
f 205/2/15 209/2/15 210/2/15
f 206/2/16 210/2/16 215/2/16
f 207/2/17 206/2/17 211/2/17
f 208/2/18 207/2/18 212/2/18
f 209/2/19 208/2/19 213/2/19
f 210/2/20 209/2/20 214/2/20
f 206/2/21 215/2/21 211/2/21
f 207/2/22 211/2/22 212/2/22
f 208/2/23 212/2/23 213/2/23
f 209/2/24 213/2/24 214/2/24
f 210/2/25 214/2/25 215/2/25
f 211/2/26 215/2/26 216/2/26
f 212/2/27 211/2/27 216/2/27
f 213/2/28 212/2/28 216/2/28
f 214/2/29 213/2/29 216/2/29
f 215/2/30 214/2/30 216/2/30
f 217/2/11 218/2/11 219/2/11
f 218/2/12 217/2/12 222/2/12
f 217/2/13 219/2/13 220/2/13
f 217/2/14 220/2/14 221/2/14
f 217/2/15 221/2/15 222/2/15
f 218/2/16 222/2/16 227/2/16
f 219/2/17 218/2/17 223/2/17
f 220/2/18 219/2/18 224/2/18
f 221/2/19 220/2/19 225/2/19
f 222/2/20 221/2/20 226/2/20
f 218/2/21 227/2/21 223/2/21
f 219/2/22 223/2/22 224/2/22
f 220/2/23 224/2/23 225/2/23
f 221/2/24 225/2/24 226/2/24
f 222/2/25 226/2/25 227/2/25
f 223/2/26 227/2/26 228/2/26
f 224/2/27 223/2/27 228/2/27
f 225/2/28 224/2/28 228/2/28
f 226/2/29 225/2/29 228/2/29
f 227/2/30 226/2/30 228/2/30
f 229/2/11 230/2/11 231/2/11
f 230/2/12 229/2/12 234/2/12
f 229/2/13 231/2/13 232/2/13
f 229/2/14 232/2/14 233/2/14
f 229/2/15 233/2/15 234/2/15
f 230/2/16 234/2/16 239/2/16
f 231/2/17 230/2/17 235/2/17
f 232/2/18 231/2/18 236/2/18
f 233/2/19 232/2/19 237/2/19
f 234/2/20 233/2/20 238/2/20
f 230/2/21 239/2/21 235/2/21
f 231/2/22 235/2/22 236/2/22
f 232/2/23 236/2/23 237/2/23
f 233/2/24 237/2/24 238/2/24
f 234/2/25 238/2/25 239/2/25
f 235/2/26 239/2/26 240/2/26
f 236/2/27 235/2/27 240/2/27
f 237/2/28 236/2/28 240/2/28
f 238/2/29 237/2/29 240/2/29
f 239/2/30 238/2/30 240/2/30
f 241/2/11 242/2/11 243/2/11
f 242/2/12 241/2/12 246/2/12
f 241/2/13 243/2/13 244/2/13
f 241/2/14 244/2/14 245/2/14
f 241/2/15 245/2/15 246/2/15
f 242/2/16 246/2/16 251/2/16
f 243/2/17 242/2/17 247/2/17
f 244/2/18 243/2/18 248/2/18
f 245/2/19 244/2/19 249/2/19
f 246/2/20 245/2/20 250/2/20
f 242/2/21 251/2/21 247/2/21
f 243/2/22 247/2/22 248/2/22
f 244/2/23 248/2/23 249/2/23
f 245/2/24 249/2/24 250/2/24
f 246/2/25 250/2/25 251/2/25
f 247/2/26 251/2/26 252/2/26
f 248/2/27 247/2/27 252/2/27
f 249/2/28 248/2/28 252/2/28
f 250/2/29 249/2/29 252/2/29
f 251/2/30 250/2/30 252/2/30
f 253/3/31 254/3/31 255/3/31
f 254/3/32 253/3/32 258/3/32
f 253/3/33 255/3/33 256/3/33
f 253/3/34 256/3/34 257/3/34
f 253/3/35 257/3/35 258/3/35
f 254/3/36 258/3/36 263/3/36
f 255/3/37 254/3/37 259/3/37
f 256/3/38 255/3/38 260/3/38
f 257/3/39 256/3/39 261/3/39
f 258/3/40 257/3/40 262/3/40
f 254/3/41 263/3/41 259/3/41
f 255/3/42 259/3/42 260/3/42
f 256/3/43 260/3/43 261/3/43
f 257/3/44 261/3/44 262/3/44
f 258/3/45 262/3/45 263/3/45
f 259/3/46 263/3/46 264/3/46
f 260/3/47 259/3/47 264/3/47
f 261/3/48 260/3/48 264/3/48
f 262/3/49 261/3/49 264/3/49
f 263/3/50 262/3/50 264/3/50
f 266/1/1 267/1/1 265/1/1
f 268/1/2 269/1/2 267/1/2
f 270/1/3 271/1/3 269/1/3
f 272/1/4 273/1/4 271/1/4
f 274/1/5 275/1/5 273/1/5
f 276/1/6 277/1/6 275/1/6
f 270/1/7 266/1/7 278/1/7
f 278/1/8 279/1/8 277/1/8
f 280/1/9 265/1/9 279/1/9
f 271/1/10 275/1/10 279/1/10
f 281/2/11 282/2/11 283/2/11
f 282/2/12 281/2/12 286/2/12
f 281/2/13 283/2/13 284/2/13
f 281/2/14 284/2/14 285/2/14
f 281/2/15 285/2/15 286/2/15
f 282/2/16 286/2/16 291/2/16
f 283/2/17 282/2/17 287/2/17
f 284/2/18 283/2/18 288/2/18
f 285/2/19 284/2/19 289/2/19
f 286/2/20 285/2/20 290/2/20
f 282/2/21 291/2/21 287/2/21
f 283/2/22 287/2/22 288/2/22
f 284/2/23 288/2/23 289/2/23
f 285/2/24 289/2/24 290/2/24
f 286/2/25 290/2/25 291/2/25
f 287/2/26 291/2/26 292/2/26
f 288/2/27 287/2/27 292/2/27
f 289/2/28 288/2/28 292/2/28
f 290/2/29 289/2/29 292/2/29
f 291/2/30 290/2/30 292/2/30
f 293/2/11 294/2/11 295/2/11
f 294/2/12 293/2/12 298/2/12
f 293/2/13 295/2/13 296/2/13
f 293/2/14 296/2/14 297/2/14
f 293/2/15 297/2/15 298/2/15
f 294/2/16 298/2/16 303/2/16
f 295/2/17 294/2/17 299/2/17
f 296/2/18 295/2/18 300/2/18
f 297/2/19 296/2/19 301/2/19
f 298/2/20 297/2/20 302/2/20
f 294/2/21 303/2/21 299/2/21
f 295/2/22 299/2/22 300/2/22
f 296/2/23 300/2/23 301/2/23
f 297/2/24 301/2/24 302/2/24
f 298/2/25 302/2/25 303/2/25
f 299/2/26 303/2/26 304/2/26
f 300/2/27 299/2/27 304/2/27
f 301/2/28 300/2/28 304/2/28
f 302/2/29 301/2/29 304/2/29
f 303/2/30 302/2/30 304/2/30
f 305/2/11 306/2/11 307/2/11
f 306/2/12 305/2/12 310/2/12
f 305/2/13 307/2/13 308/2/13
f 305/2/14 308/2/14 309/2/14
f 305/2/15 309/2/15 310/2/15
f 306/2/16 310/2/16 315/2/16
f 307/2/17 306/2/17 311/2/17
f 308/2/18 307/2/18 312/2/18
f 309/2/19 308/2/19 313/2/19
f 310/2/20 309/2/20 314/2/20
f 306/2/21 315/2/21 311/2/21
f 307/2/22 311/2/22 312/2/22
f 308/2/23 312/2/23 313/2/23
f 309/2/24 313/2/24 314/2/24
f 310/2/25 314/2/25 315/2/25
f 311/2/26 315/2/26 316/2/26
f 312/2/27 311/2/27 316/2/27
f 313/2/28 312/2/28 316/2/28
f 314/2/29 313/2/29 316/2/29
f 315/2/30 314/2/30 316/2/30
f 317/2/11 318/2/11 319/2/11
f 318/2/12 317/2/12 322/2/12
f 317/2/13 319/2/13 320/2/13
f 317/2/14 320/2/14 321/2/14
f 317/2/15 321/2/15 322/2/15
f 318/2/16 322/2/16 327/2/16
f 319/2/17 318/2/17 323/2/17
f 320/2/18 319/2/18 324/2/18
f 321/2/19 320/2/19 325/2/19
f 322/2/20 321/2/20 326/2/20
f 318/2/21 327/2/21 323/2/21
f 319/2/22 323/2/22 324/2/22
f 320/2/23 324/2/23 325/2/23
f 321/2/24 325/2/24 326/2/24
f 322/2/25 326/2/25 327/2/25
f 323/2/26 327/2/26 328/2/26
f 324/2/27 323/2/27 328/2/27
f 325/2/28 324/2/28 328/2/28
f 326/2/29 325/2/29 328/2/29
f 327/2/30 326/2/30 328/2/30
f 329/2/11 330/2/11 331/2/11
f 330/2/12 329/2/12 334/2/12
f 329/2/13 331/2/13 332/2/13
f 329/2/14 332/2/14 333/2/14
f 329/2/15 333/2/15 334/2/15
f 330/2/16 334/2/16 339/2/16
f 331/2/17 330/2/17 335/2/17
f 332/2/18 331/2/18 336/2/18
f 333/2/19 332/2/19 337/2/19
f 334/2/20 333/2/20 338/2/20
f 330/2/21 339/2/21 335/2/21
f 331/2/22 335/2/22 336/2/22
f 332/2/23 336/2/23 337/2/23
f 333/2/24 337/2/24 338/2/24
f 334/2/25 338/2/25 339/2/25
f 335/2/26 339/2/26 340/2/26
f 336/2/27 335/2/27 340/2/27
f 337/2/28 336/2/28 340/2/28
f 338/2/29 337/2/29 340/2/29
f 339/2/30 338/2/30 340/2/30
f 341/3/31 342/3/31 343/3/31
f 342/3/32 341/3/32 346/3/32
f 341/3/33 343/3/33 344/3/33
f 341/3/34 344/3/34 345/3/34
f 341/3/35 345/3/35 346/3/35
f 342/3/36 346/3/36 351/3/36
f 343/3/37 342/3/37 347/3/37
f 344/3/38 343/3/38 348/3/38
f 345/3/39 344/3/39 349/3/39
f 346/3/40 345/3/40 350/3/40
f 342/3/41 351/3/41 347/3/41
f 343/3/42 347/3/42 348/3/42
f 344/3/43 348/3/43 349/3/43
f 345/3/44 349/3/44 350/3/44
f 346/3/45 350/3/45 351/3/45
f 347/3/46 351/3/46 352/3/46
f 348/3/47 347/3/47 352/3/47
f 349/3/48 348/3/48 352/3/48
f 350/3/49 349/3/49 352/3/49
f 351/3/50 350/3/50 352/3/50
f 354/1/1 355/1/1 353/1/1
f 356/1/2 357/1/2 355/1/2
f 358/1/3 359/1/3 357/1/3
f 360/1/4 361/1/4 359/1/4
f 362/1/5 363/1/5 361/1/5
f 364/1/6 365/1/6 363/1/6
f 354/1/7 366/1/7 362/1/7
f 366/1/8 367/1/8 365/1/8
f 368/1/9 353/1/9 367/1/9
f 365/1/10 367/1/10 359/1/10
f 369/2/11 370/2/11 371/2/11
f 370/2/12 369/2/12 374/2/12
f 369/2/13 371/2/13 372/2/13
f 369/2/14 372/2/14 373/2/14
f 369/2/15 373/2/15 374/2/15
f 370/2/16 374/2/16 379/2/16
f 371/2/17 370/2/17 375/2/17
f 372/2/18 371/2/18 376/2/18
f 373/2/19 372/2/19 377/2/19
f 374/2/20 373/2/20 378/2/20
f 370/2/21 379/2/21 375/2/21
f 371/2/22 375/2/22 376/2/22
f 372/2/23 376/2/23 377/2/23
f 373/2/24 377/2/24 378/2/24
f 374/2/25 378/2/25 379/2/25
f 375/2/26 379/2/26 380/2/26
f 376/2/27 375/2/27 380/2/27
f 377/2/28 376/2/28 380/2/28
f 378/2/29 377/2/29 380/2/29
f 379/2/30 378/2/30 380/2/30
f 381/2/11 382/2/11 383/2/11
f 382/2/12 381/2/12 386/2/12
f 381/2/13 383/2/13 384/2/13
f 381/2/14 384/2/14 385/2/14
f 381/2/15 385/2/15 386/2/15
f 382/2/16 386/2/16 391/2/16
f 383/2/17 382/2/17 387/2/17
f 384/2/18 383/2/18 388/2/18
f 385/2/19 384/2/19 389/2/19
f 386/2/20 385/2/20 390/2/20
f 382/2/21 391/2/21 387/2/21
f 383/2/22 387/2/22 388/2/22
f 384/2/23 388/2/23 389/2/23
f 385/2/24 389/2/24 390/2/24
f 386/2/25 390/2/25 391/2/25
f 387/2/26 391/2/26 392/2/26
f 388/2/27 387/2/27 392/2/27
f 389/2/28 388/2/28 392/2/28
f 390/2/29 389/2/29 392/2/29
f 391/2/30 390/2/30 392/2/30
f 393/2/11 394/2/11 395/2/11
f 394/2/12 393/2/12 398/2/12
f 393/2/13 395/2/13 396/2/13
f 393/2/14 396/2/14 397/2/14
f 393/2/15 397/2/15 398/2/15
f 394/2/16 398/2/16 403/2/16
f 395/2/17 394/2/17 399/2/17
f 396/2/18 395/2/18 400/2/18
f 397/2/19 396/2/19 401/2/19
f 398/2/20 397/2/20 402/2/20
f 394/2/21 403/2/21 399/2/21
f 395/2/22 399/2/22 400/2/22
f 396/2/23 400/2/23 401/2/23
f 397/2/24 401/2/24 402/2/24
f 398/2/25 402/2/25 403/2/25
f 399/2/26 403/2/26 404/2/26
f 400/2/27 399/2/27 404/2/27
f 401/2/28 400/2/28 404/2/28
f 402/2/29 401/2/29 404/2/29
f 403/2/30 402/2/30 404/2/30
f 405/2/11 406/2/11 407/2/11
f 406/2/12 405/2/12 410/2/12
f 405/2/13 407/2/13 408/2/13
f 405/2/14 408/2/14 409/2/14
f 405/2/15 409/2/15 410/2/15
f 406/2/16 410/2/16 415/2/16
f 407/2/17 406/2/17 411/2/17
f 408/2/18 407/2/18 412/2/18
f 409/2/19 408/2/19 413/2/19
f 410/2/20 409/2/20 414/2/20
f 406/2/21 415/2/21 411/2/21
f 407/2/22 411/2/22 412/2/22
f 408/2/23 412/2/23 413/2/23
f 409/2/24 413/2/24 414/2/24
f 410/2/25 414/2/25 415/2/25
f 411/2/26 415/2/26 416/2/26
f 412/2/27 411/2/27 416/2/27
f 413/2/28 412/2/28 416/2/28
f 414/2/29 413/2/29 416/2/29
f 415/2/30 414/2/30 416/2/30
f 417/2/11 418/2/11 419/2/11
f 418/2/12 417/2/12 422/2/12
f 417/2/13 419/2/13 420/2/13
f 417/2/14 420/2/14 421/2/14
f 417/2/15 421/2/15 422/2/15
f 418/2/16 422/2/16 427/2/16
f 419/2/17 418/2/17 423/2/17
f 420/2/18 419/2/18 424/2/18
f 421/2/19 420/2/19 425/2/19
f 422/2/20 421/2/20 426/2/20
f 418/2/21 427/2/21 423/2/21
f 419/2/22 423/2/22 424/2/22
f 420/2/23 424/2/23 425/2/23
f 421/2/24 425/2/24 426/2/24
f 422/2/25 426/2/25 427/2/25
f 423/2/26 427/2/26 428/2/26
f 424/2/27 423/2/27 428/2/27
f 425/2/28 424/2/28 428/2/28
f 426/2/29 425/2/29 428/2/29
f 427/2/30 426/2/30 428/2/30
f 429/3/31 430/3/31 431/3/31
f 430/3/32 429/3/32 434/3/32
f 429/3/33 431/3/33 432/3/33
f 429/3/34 432/3/34 433/3/34
f 429/3/35 433/3/35 434/3/35
f 430/3/36 434/3/36 439/3/36
f 431/3/37 430/3/37 435/3/37
f 432/3/38 431/3/38 436/3/38
f 433/3/39 432/3/39 437/3/39
f 434/3/40 433/3/40 438/3/40
f 430/3/41 439/3/41 435/3/41
f 431/3/42 435/3/42 436/3/42
f 432/3/43 436/3/43 437/3/43
f 433/3/44 437/3/44 438/3/44
f 434/3/45 438/3/45 439/3/45
f 435/3/46 439/3/46 440/3/46
f 436/3/47 435/3/47 440/3/47
f 437/3/48 436/3/48 440/3/48
f 438/3/49 437/3/49 440/3/49
f 439/3/50 438/3/50 440/3/50
f 442/1/1 443/1/1 441/1/1
f 444/1/2 445/1/2 443/1/2
f 446/1/3 447/1/3 445/1/3
f 448/1/4 449/1/4 447/1/4
f 450/1/5 451/1/5 449/1/5
f 452/1/6 453/1/6 451/1/6
f 448/1/7 446/1/7 454/1/7
f 454/1/8 455/1/8 453/1/8
f 456/1/9 441/1/9 455/1/9
f 447/1/10 451/1/10 455/1/10
f 457/2/11 458/2/11 459/2/11
f 458/2/12 457/2/12 462/2/12
f 457/2/13 459/2/13 460/2/13
f 457/2/14 460/2/14 461/2/14
f 457/2/15 461/2/15 462/2/15
f 458/2/16 462/2/16 467/2/16
f 459/2/17 458/2/17 463/2/17
f 460/2/18 459/2/18 464/2/18
f 461/2/19 460/2/19 465/2/19
f 462/2/20 461/2/20 466/2/20
f 458/2/21 467/2/21 463/2/21
f 459/2/22 463/2/22 464/2/22
f 460/2/23 464/2/23 465/2/23
f 461/2/24 465/2/24 466/2/24
f 462/2/25 466/2/25 467/2/25
f 463/2/26 467/2/26 468/2/26
f 464/2/27 463/2/27 468/2/27
f 465/2/28 464/2/28 468/2/28
f 466/2/29 465/2/29 468/2/29
f 467/2/30 466/2/30 468/2/30
f 469/2/11 470/2/11 471/2/11
f 470/2/12 469/2/12 474/2/12
f 469/2/13 471/2/13 472/2/13
f 469/2/14 472/2/14 473/2/14
f 469/2/15 473/2/15 474/2/15
f 470/2/16 474/2/16 479/2/16
f 471/2/17 470/2/17 475/2/17
f 472/2/18 471/2/18 476/2/18
f 473/2/19 472/2/19 477/2/19
f 474/2/20 473/2/20 478/2/20
f 470/2/21 479/2/21 475/2/21
f 471/2/22 475/2/22 476/2/22
f 472/2/23 476/2/23 477/2/23
f 473/2/24 477/2/24 478/2/24
f 474/2/25 478/2/25 479/2/25
f 475/2/26 479/2/26 480/2/26
f 476/2/27 475/2/27 480/2/27
f 477/2/28 476/2/28 480/2/28
f 478/2/29 477/2/29 480/2/29
f 479/2/30 478/2/30 480/2/30
f 481/2/11 482/2/11 483/2/11
f 482/2/12 481/2/12 486/2/12
f 481/2/13 483/2/13 484/2/13
f 481/2/14 484/2/14 485/2/14
f 481/2/15 485/2/15 486/2/15
f 482/2/16 486/2/16 491/2/16
f 483/2/17 482/2/17 487/2/17
f 484/2/18 483/2/18 488/2/18
f 485/2/19 484/2/19 489/2/19
f 486/2/20 485/2/20 490/2/20
f 482/2/21 491/2/21 487/2/21
f 483/2/22 487/2/22 488/2/22
f 484/2/23 488/2/23 489/2/23
f 485/2/24 489/2/24 490/2/24
f 486/2/25 490/2/25 491/2/25
f 487/2/26 491/2/26 492/2/26
f 488/2/27 487/2/27 492/2/27
f 489/2/28 488/2/28 492/2/28
f 490/2/29 489/2/29 492/2/29
f 491/2/30 490/2/30 492/2/30
f 493/2/11 494/2/11 495/2/11
f 494/2/12 493/2/12 498/2/12
f 493/2/13 495/2/13 496/2/13
f 493/2/14 496/2/14 497/2/14
f 493/2/15 497/2/15 498/2/15
f 494/2/16 498/2/16 503/2/16
f 495/2/17 494/2/17 499/2/17
f 496/2/18 495/2/18 500/2/18
f 497/2/19 496/2/19 501/2/19
f 498/2/20 497/2/20 502/2/20
f 494/2/21 503/2/21 499/2/21
f 495/2/22 499/2/22 500/2/22
f 496/2/23 500/2/23 501/2/23
f 497/2/24 501/2/24 502/2/24
f 498/2/25 502/2/25 503/2/25
f 499/2/26 503/2/26 504/2/26
f 500/2/27 499/2/27 504/2/27
f 501/2/28 500/2/28 504/2/28
f 502/2/29 501/2/29 504/2/29
f 503/2/30 502/2/30 504/2/30
f 505/2/11 506/2/11 507/2/11
f 506/2/12 505/2/12 510/2/12
f 505/2/13 507/2/13 508/2/13
f 505/2/14 508/2/14 509/2/14
f 505/2/15 509/2/15 510/2/15
f 506/2/16 510/2/16 515/2/16
f 507/2/17 506/2/17 511/2/17
f 508/2/18 507/2/18 512/2/18
f 509/2/19 508/2/19 513/2/19
f 510/2/20 509/2/20 514/2/20
f 506/2/21 515/2/21 511/2/21
f 507/2/22 511/2/22 512/2/22
f 508/2/23 512/2/23 513/2/23
f 509/2/24 513/2/24 514/2/24
f 510/2/25 514/2/25 515/2/25
f 511/2/26 515/2/26 516/2/26
f 512/2/27 511/2/27 516/2/27
f 513/2/28 512/2/28 516/2/28
f 514/2/29 513/2/29 516/2/29
f 515/2/30 514/2/30 516/2/30
f 517/3/31 518/3/31 519/3/31
f 518/3/32 517/3/32 522/3/32
f 517/3/33 519/3/33 520/3/33
f 517/3/34 520/3/34 521/3/34
f 517/3/35 521/3/35 522/3/35
f 518/3/36 522/3/36 527/3/36
f 519/3/37 518/3/37 523/3/37
f 520/3/38 519/3/38 524/3/38
f 521/3/39 520/3/39 525/3/39
f 522/3/40 521/3/40 526/3/40
f 518/3/41 527/3/41 523/3/41
f 519/3/42 523/3/42 524/3/42
f 520/3/43 524/3/43 525/3/43
f 521/3/44 525/3/44 526/3/44
f 522/3/45 526/3/45 527/3/45
f 523/3/46 527/3/46 528/3/46
f 524/3/47 523/3/47 528/3/47
f 525/3/48 524/3/48 528/3/48
f 526/3/49 525/3/49 528/3/49
f 527/3/50 526/3/50 528/3/50
f 2/1/1 4/1/1 3/1/1
f 4/1/2 6/1/2 5/1/2
f 6/1/3 8/1/3 7/1/3
f 8/1/4 10/1/4 9/1/4
f 10/1/5 12/1/5 11/1/5
f 12/1/6 14/1/6 13/1/6
f 6/1/7 4/1/7 2/1/7
f 2/1/7 16/1/7 14/1/7
f 14/1/7 12/1/7 10/1/7
f 10/1/7 8/1/7 6/1/7
f 6/1/7 2/1/7 14/1/7
f 14/1/8 16/1/8 15/1/8
f 16/1/9 2/1/9 1/1/9
f 15/1/10 1/1/10 7/1/10
f 1/1/10 3/1/10 7/1/10
f 3/1/10 5/1/10 7/1/10
f 7/1/10 9/1/10 15/1/10
f 9/1/10 11/1/10 15/1/10
f 90/1/1 92/1/1 91/1/1
f 92/1/2 94/1/2 93/1/2
f 94/1/3 96/1/3 95/1/3
f 96/1/4 98/1/4 97/1/4
f 98/1/5 100/1/5 99/1/5
f 100/1/6 102/1/6 101/1/6
f 94/1/7 92/1/7 90/1/7
f 90/1/7 104/1/7 94/1/7
f 104/1/7 102/1/7 94/1/7
f 102/1/7 100/1/7 98/1/7
f 98/1/7 96/1/7 102/1/7
f 102/1/8 104/1/8 103/1/8
f 104/1/9 90/1/9 89/1/9
f 103/1/10 89/1/10 91/1/10
f 91/1/10 93/1/10 95/1/10
f 95/1/10 97/1/10 99/1/10
f 99/1/10 101/1/10 103/1/10
f 103/1/10 91/1/10 95/1/10
f 178/1/1 180/1/1 179/1/1
f 180/1/2 182/1/2 181/1/2
f 182/1/3 184/1/3 183/1/3
f 184/1/4 186/1/4 185/1/4
f 186/1/5 188/1/5 187/1/5
f 188/1/6 190/1/6 189/1/6
f 182/1/7 180/1/7 178/1/7
f 178/1/7 192/1/7 182/1/7
f 192/1/7 190/1/7 182/1/7
f 190/1/7 188/1/7 186/1/7
f 186/1/7 184/1/7 182/1/7
f 190/1/8 192/1/8 191/1/8
f 192/1/9 178/1/9 177/1/9
f 191/1/10 177/1/10 179/1/10
f 179/1/10 181/1/10 183/1/10
f 183/1/10 185/1/10 191/1/10
f 185/1/10 187/1/10 191/1/10
f 187/1/10 189/1/10 191/1/10
f 266/1/1 268/1/1 267/1/1
f 268/1/2 270/1/2 269/1/2
f 270/1/3 272/1/3 271/1/3
f 272/1/4 274/1/4 273/1/4
f 274/1/5 276/1/5 275/1/5
f 276/1/6 278/1/6 277/1/6
f 270/1/7 268/1/7 266/1/7
f 266/1/7 280/1/7 278/1/7
f 278/1/7 276/1/7 274/1/7
f 274/1/7 272/1/7 278/1/7
f 272/1/7 270/1/7 278/1/7
f 278/1/8 280/1/8 279/1/8
f 280/1/9 266/1/9 265/1/9
f 279/1/10 265/1/10 271/1/10
f 265/1/10 267/1/10 271/1/10
f 267/1/10 269/1/10 271/1/10
f 271/1/10 273/1/10 275/1/10
f 275/1/10 277/1/10 279/1/10
f 354/1/1 356/1/1 355/1/1
f 356/1/2 358/1/2 357/1/2
f 358/1/3 360/1/3 359/1/3
f 360/1/4 362/1/4 361/1/4
f 362/1/5 364/1/5 363/1/5
f 364/1/6 366/1/6 365/1/6
f 358/1/7 356/1/7 354/1/7
f 354/1/7 368/1/7 366/1/7
f 366/1/7 364/1/7 362/1/7
f 362/1/7 360/1/7 358/1/7
f 358/1/7 354/1/7 362/1/7
f 366/1/8 368/1/8 367/1/8
f 368/1/9 354/1/9 353/1/9
f 367/1/10 353/1/10 359/1/10
f 353/1/10 355/1/10 359/1/10
f 355/1/10 357/1/10 359/1/10
f 359/1/10 361/1/10 363/1/10
f 363/1/10 365/1/10 359/1/10
f 442/1/1 444/1/1 443/1/1
f 444/1/2 446/1/2 445/1/2
f 446/1/3 448/1/3 447/1/3
f 448/1/4 450/1/4 449/1/4
f 450/1/5 452/1/5 451/1/5
f 452/1/6 454/1/6 453/1/6
f 446/1/7 444/1/7 442/1/7
f 442/1/7 456/1/7 446/1/7
f 456/1/7 454/1/7 446/1/7
f 454/1/7 452/1/7 450/1/7
f 450/1/7 448/1/7 454/1/7
f 454/1/8 456/1/8 455/1/8
f 456/1/9 442/1/9 441/1/9
f 455/1/10 441/1/10 443/1/10
f 443/1/10 445/1/10 447/1/10
f 447/1/10 449/1/10 451/1/10
f 451/1/10 453/1/10 455/1/10
f 455/1/10 443/1/10 447/1/10
