# Blender 5.2.1 LTS
# www.blender.org
mtllib grassTufts.mtl
o grassTufts
v -0.018000 0.000000 0.030000
v 0.018000 0.000000 0.030000
v 0.035000 0.108000 0.045000
v 0.020000 0.180000 0.060000
v 0.046239 0.000000 -0.069988
v 0.082239 0.000000 -0.069988
v 0.099239 0.141000 -0.054988
v 0.084239 0.235000 -0.039988
v -0.177414 0.000000 0.013681
v -0.141414 0.000000 0.013681
v -0.124414 0.174000 0.028681
v -0.139414 0.290000 0.043681
v 0.005755 0.000000 0.018322
v 0.041755 0.000000 0.018322
v 0.058755 0.207000 0.033322
v 0.043755 0.345000 0.048322
v -0.034187 0.000000 -0.093611
v 0.001813 0.000000 -0.093611
v 0.018813 0.240000 -0.078611
v 0.003813 0.400000 -0.063611
v -0.104526 0.000000 0.134586
v -0.068526 0.000000 0.134586
v -0.051526 0.108000 0.149586
v -0.066526 0.180000 0.164586
v 0.011016 0.000000 -0.007621
v 0.047016 0.000000 -0.007621
v 0.064016 0.141000 0.007379
v 0.049016 0.235000 0.022379
v -0.102010 0.000000 -0.044354
v -0.066010 0.000000 -0.044354
v -0.049010 0.174000 -0.029354
v -0.064010 0.290000 -0.014354
v 0.035726 0.000000 0.150710
v 0.071726 0.000000 0.150710
v 0.088726 0.207000 0.165710
v 0.073726 0.345000 0.180710
v -0.006313 0.000000 -0.027630
v 0.029687 0.000000 -0.027630
v 0.046687 0.240000 -0.012630
v 0.031687 0.400000 0.002370
v -0.104429 0.000000 0.039435
v -0.068429 0.000000 0.039435
v -0.051429 0.108000 0.054435
v -0.066429 0.180000 0.069435
v 0.134150 0.000000 0.049500
v 0.170150 0.000000 0.049500
v 0.187150 0.141000 0.064500
v 0.172150 0.235000 0.079500
vn -0.0000 -0.1376 0.9905
vn 0.0972 -0.1835 0.9782
vn -0.0000 0.1376 -0.9905
vn -0.0972 0.1835 -0.9782
vn -0.0000 -0.1058 0.9944
vn 0.0979 -0.1416 0.9851
vn -0.0000 0.1058 -0.9944
vn -0.0979 0.1416 -0.9851
vn -0.0000 -0.0859 0.9963
vn 0.0982 -0.1151 0.9885
vn -0.0000 0.0859 -0.9963
vn -0.0982 0.1151 -0.9885
vn -0.0000 -0.0723 0.9974
vn 0.0984 -0.0970 0.9904
vn -0.0000 0.0723 -0.9974
vn -0.0984 0.0970 -0.9904
vn -0.0000 -0.0624 0.9981
vn 0.0985 -0.0837 0.9916
vn -0.0000 0.0624 -0.9981
vn -0.0985 0.0837 -0.9916
vt 0.375000 0.125000
vt 0.125000 0.125000
s 0
usemtl WorldPickupPalette
f 1/1/1 2/1/1 3/1/1
f 1/1/2 3/1/2 4/1/2
f 3/1/3 2/1/3 1/1/3
f 4/1/4 3/1/4 1/1/4
f 5/2/5 6/2/5 7/2/5
f 5/2/6 7/2/6 8/2/6
f 7/2/7 6/2/7 5/2/7
f 8/2/8 7/2/8 5/2/8
f 9/2/9 10/2/9 11/2/9
f 9/2/10 11/2/10 12/2/10
f 11/2/11 10/2/11 9/2/11
f 12/2/12 11/2/12 9/2/12
f 13/1/13 14/1/13 15/1/13
f 13/1/14 15/1/14 16/1/14
f 15/1/15 14/1/15 13/1/15
f 16/1/16 15/1/16 13/1/16
f 17/2/17 18/2/17 19/2/17
f 17/2/18 19/2/18 20/2/18
f 19/2/19 18/2/19 17/2/19
f 20/2/20 19/2/20 17/2/20
f 21/2/1 22/2/1 23/2/1
f 21/2/2 23/2/2 24/2/2
f 23/2/3 22/2/3 21/2/3
f 24/2/4 23/2/4 21/2/4
f 25/1/5 26/1/5 27/1/5
f 25/1/6 27/1/6 28/1/6
f 27/1/7 26/1/7 25/1/7
f 28/1/8 27/1/8 25/1/8
f 29/2/9 30/2/9 31/2/9
f 29/2/10 31/2/10 32/2/10
f 31/2/11 30/2/11 29/2/11
f 32/2/12 31/2/12 29/2/12
f 33/2/13 34/2/13 35/2/13
f 33/2/14 35/2/14 36/2/14
f 35/2/15 34/2/15 33/2/15
f 36/2/16 35/2/16 33/2/16
f 37/1/17 38/1/17 39/1/17
f 37/1/18 39/1/18 40/1/18
f 39/1/19 38/1/19 37/1/19
f 40/1/20 39/1/20 37/1/20
f 41/2/1 42/2/1 43/2/1
f 41/2/2 43/2/2 44/2/2
f 43/2/3 42/2/3 41/2/3
f 44/2/4 43/2/4 41/2/4
f 45/2/5 46/2/5 47/2/5
f 45/2/6 47/2/6 48/2/6
f 47/2/7 46/2/7 45/2/7
f 48/2/8 47/2/8 45/2/8
