# Blender 5.2.1 LTS
# www.blender.org
mtllib loot_fuel_cell.mtl
o loot_fuel_cell
v 0.000000 0.040000 -0.320000
v 0.000000 1.220000 -0.320000
v 0.122459 0.040000 -0.295641
v 0.122459 1.220000 -0.295641
v 0.226274 0.040000 -0.226274
v 0.226274 1.220000 -0.226274
v 0.295641 0.040000 -0.122459
v 0.295641 1.220000 -0.122459
v 0.320000 0.040000 0.000000
v 0.320000 1.220000 0.000000
v 0.295641 0.040000 0.122459
v 0.295641 1.220000 0.122459
v 0.226274 0.040000 0.226274
v 0.226274 1.220000 0.226274
v 0.122459 0.040000 0.295641
v 0.122459 1.220000 0.295641
v 0.000000 0.040000 0.320000
v 0.000000 1.220000 0.320000
v -0.122459 0.040000 0.295641
v -0.122459 1.220000 0.295641
v -0.226274 0.040000 0.226274
v -0.226274 1.220000 0.226274
v -0.295641 0.040000 0.122459
v -0.295641 1.220000 0.122459
v -0.320000 0.040000 0.000000
v -0.320000 1.220000 0.000000
v -0.295641 0.040000 -0.122459
v -0.295641 1.220000 -0.122459
v -0.226274 0.040000 -0.226274
v -0.226274 1.220000 -0.226274
v -0.122459 0.040000 -0.295641
v -0.122459 1.220000 -0.295641
v 0.000000 0.070000 -0.350000
v 0.000000 0.130000 -0.350000
v 0.133939 0.070000 -0.323358
v 0.133939 0.130000 -0.323358
v 0.247487 0.070000 -0.247487
v 0.247487 0.130000 -0.247487
v 0.323358 0.070000 -0.133939
v 0.323358 0.130000 -0.133939
v 0.350000 0.070000 0.000000
v 0.350000 0.130000 0.000000
v 0.323358 0.070000 0.133939
v 0.323358 0.130000 0.133939
v 0.247487 0.070000 0.247487
v 0.247487 0.130000 0.247487
v 0.133939 0.070000 0.323358
v 0.133939 0.130000 0.323358
v 0.000000 0.070000 0.350000
v 0.000000 0.130000 0.350000
v -0.133939 0.070000 0.323358
v -0.133939 0.130000 0.323358
v -0.247487 0.070000 0.247487
v -0.247487 0.130000 0.247487
v -0.323358 0.070000 0.133939
v -0.323358 0.130000 0.133939
v -0.350000 0.070000 0.000000
v -0.350000 0.130000 0.000000
v -0.323358 0.070000 -0.133939
v -0.323358 0.130000 -0.133939
v -0.247487 0.070000 -0.247487
v -0.247487 0.130000 -0.247487
v -0.133939 0.070000 -0.323358
v -0.133939 0.130000 -0.323358
v 0.000000 0.290000 -0.350000
v 0.000000 0.350000 -0.350000
v 0.133939 0.290000 -0.323358
v 0.133939 0.350000 -0.323358
v 0.247487 0.290000 -0.247487
v 0.247487 0.350000 -0.247487
v 0.323358 0.290000 -0.133939
v 0.323358 0.350000 -0.133939
v 0.350000 0.290000 0.000000
v 0.350000 0.350000 0.000000
v 0.323358 0.290000 0.133939
v 0.323358 0.350000 0.133939
v 0.247487 0.290000 0.247487
v 0.247487 0.350000 0.247487
v 0.133939 0.290000 0.323358
v 0.133939 0.350000 0.323358
v 0.000000 0.290000 0.350000
v 0.000000 0.350000 0.350000
v -0.133939 0.290000 0.323358
v -0.133939 0.350000 0.323358
v -0.247487 0.290000 0.247487
v -0.247487 0.350000 0.247487
v -0.323358 0.290000 0.133939
v -0.323358 0.350000 0.133939
v -0.350000 0.290000 0.000000
v -0.350000 0.350000 0.000000
v -0.323358 0.290000 -0.133939
v -0.323358 0.350000 -0.133939
v -0.247487 0.290000 -0.247487
v -0.247487 0.350000 -0.247487
v -0.133939 0.290000 -0.323358
v -0.133939 0.350000 -0.323358
v 0.000000 0.930000 -0.350000
v 0.000000 0.990000 -0.350000
v 0.133939 0.930000 -0.323358
v 0.133939 0.990000 -0.323358
v 0.247487 0.930000 -0.247487
v 0.247487 0.990000 -0.247487
v 0.323358 0.930000 -0.133939
v 0.323358 0.990000 -0.133939
v 0.350000 0.930000 0.000000
v 0.350000 0.990000 0.000000
v 0.323358 0.930000 0.133939
v 0.323358 0.990000 0.133939
v 0.247487 0.930000 0.247487
v 0.247487 0.990000 0.247487
v 0.133939 0.930000 0.323358
v 0.133939 0.990000 0.323358
v 0.000000 0.930000 0.350000
v 0.000000 0.990000 0.350000
v -0.133939 0.930000 0.323358
v -0.133939 0.990000 0.323358
v -0.247487 0.930000 0.247487
v -0.247487 0.990000 0.247487
v -0.323358 0.930000 0.133939
v -0.323358 0.990000 0.133939
v -0.350000 0.930000 0.000000
v -0.350000 0.990000 0.000000
v -0.323358 0.930000 -0.133939
v -0.323358 0.990000 -0.133939
v -0.247487 0.930000 -0.247487
v -0.247487 0.990000 -0.247487
v -0.133939 0.930000 -0.323358
v -0.133939 0.990000 -0.323358
v 0.000000 1.170000 -0.350000
v 0.000000 1.230000 -0.350000
v 0.133939 1.170000 -0.323358
v 0.133939 1.230000 -0.323358
v 0.247487 1.170000 -0.247487
v 0.247487 1.230000 -0.247487
v 0.323358 1.170000 -0.133939
v 0.323358 1.230000 -0.133939
v 0.350000 1.170000 0.000000
v 0.350000 1.230000 0.000000
v 0.323358 1.170000 0.133939
v 0.323358 1.230000 0.133939
v 0.247487 1.170000 0.247487
v 0.247487 1.230000 0.247487
v 0.133939 1.170000 0.323358
v 0.133939 1.230000 0.323358
v 0.000000 1.170000 0.350000
v 0.000000 1.230000 0.350000
v -0.133939 1.170000 0.323358
v -0.133939 1.230000 0.323358
v -0.247487 1.170000 0.247487
v -0.247487 1.230000 0.247487
v -0.323358 1.170000 0.133939
v -0.323358 1.230000 0.133939
v -0.350000 1.170000 0.000000
v -0.350000 1.230000 0.000000
v -0.323358 1.170000 -0.133939
v -0.323358 1.230000 -0.133939
v -0.247487 1.170000 -0.247487
v -0.247487 1.230000 -0.247487
v -0.133939 1.170000 -0.323358
v -0.133939 1.230000 -0.323358
v 0.000000 1.220000 -0.140000
v 0.000000 1.340000 -0.140000
v 0.070000 1.220000 -0.121244
v 0.070000 1.340000 -0.121244
v 0.121244 1.220000 -0.070000
v 0.121244 1.340000 -0.070000
v 0.140000 1.220000 0.000000
v 0.140000 1.340000 0.000000
v 0.121244 1.220000 0.070000
v 0.121244 1.340000 0.070000
v 0.070000 1.220000 0.121244
v 0.070000 1.340000 0.121244
v 0.000000 1.220000 0.140000
v 0.000000 1.340000 0.140000
v -0.070000 1.220000 0.121244
v -0.070000 1.340000 0.121244
v -0.121244 1.220000 0.070000
v -0.121244 1.340000 0.070000
v -0.140000 1.220000 0.000000
v -0.140000 1.340000 0.000000
v -0.121244 1.220000 -0.070000
v -0.121244 1.340000 -0.070000
v -0.070000 1.220000 -0.121244
v -0.070000 1.340000 -0.121244
v 0.000000 1.337500 -0.200000
v 0.000000 1.382500 -0.200000
v 0.100000 1.337500 -0.173205
v 0.100000 1.382500 -0.173205
v 0.173205 1.337500 -0.100000
v 0.173205 1.382500 -0.100000
v 0.200000 1.337500 0.000000
v 0.200000 1.382500 0.000000
v 0.173205 1.337500 0.100000
v 0.173205 1.382500 0.100000
v 0.100000 1.337500 0.173205
v 0.100000 1.382500 0.173205
v 0.000000 1.337500 0.200000
v 0.000000 1.382500 0.200000
v -0.100000 1.337500 0.173205
v -0.100000 1.382500 0.173205
v -0.173205 1.337500 0.100000
v -0.173205 1.382500 0.100000
v -0.200000 1.337500 0.000000
v -0.200000 1.382500 0.000000
v -0.173205 1.337500 -0.100000
v -0.173205 1.382500 -0.100000
v -0.100000 1.337500 -0.173205
v -0.100000 1.382500 -0.173205
v -0.098000 0.460000 0.338000
v -0.098000 0.472000 0.350000
v -0.110000 0.472000 0.338000
v -0.098000 0.828000 0.350000
v -0.098000 0.840000 0.338000
v -0.110000 0.828000 0.338000
v -0.098000 0.460000 0.302000
v -0.110000 0.472000 0.302000
v -0.098000 0.472000 0.290000
v -0.098000 0.840000 0.302000
v -0.098000 0.828000 0.290000
v -0.110000 0.828000 0.302000
v 0.098000 0.460000 0.338000
v 0.110000 0.472000 0.338000
v 0.098000 0.472000 0.350000
v 0.098000 0.840000 0.338000
v 0.098000 0.828000 0.350000
v 0.110000 0.828000 0.338000
v 0.098000 0.460000 0.302000
v 0.098000 0.472000 0.290000
v 0.110000 0.472000 0.302000
v 0.098000 0.840000 0.302000
v 0.110000 0.828000 0.302000
v 0.098000 0.828000 0.290000
v -0.088000 0.530000 0.350000
v -0.088000 0.530000 0.378000
v -0.060287 0.514000 0.350000
v -0.060287 0.514000 0.378000
v -0.060287 0.482000 0.350000
v -0.060287 0.482000 0.378000
v -0.088000 0.466000 0.350000
v -0.088000 0.466000 0.378000
v -0.115713 0.482000 0.350000
v -0.115713 0.482000 0.378000
v -0.115713 0.514000 0.350000
v -0.115713 0.514000 0.378000
v -0.088000 0.834000 0.350000
v -0.088000 0.834000 0.378000
v -0.060287 0.818000 0.350000
v -0.060287 0.818000 0.378000
v -0.060287 0.786000 0.350000
v -0.060287 0.786000 0.378000
v -0.088000 0.770000 0.350000
v -0.088000 0.770000 0.378000
v -0.115713 0.786000 0.350000
v -0.115713 0.786000 0.378000
v -0.115713 0.818000 0.350000
v -0.115713 0.818000 0.378000
v 0.088000 0.530000 0.350000
v 0.088000 0.530000 0.378000
v 0.115713 0.514000 0.350000
v 0.115713 0.514000 0.378000
v 0.115713 0.482000 0.350000
v 0.115713 0.482000 0.378000
v 0.088000 0.466000 0.350000
v 0.088000 0.466000 0.378000
v 0.060287 0.482000 0.350000
v 0.060287 0.482000 0.378000
v 0.060287 0.514000 0.350000
v 0.060287 0.514000 0.378000
v 0.088000 0.834000 0.350000
v 0.088000 0.834000 0.378000
v 0.115713 0.818000 0.350000
v 0.115713 0.818000 0.378000
v 0.115713 0.786000 0.350000
v 0.115713 0.786000 0.378000
v 0.088000 0.770000 0.350000
v 0.088000 0.770000 0.378000
v 0.060287 0.786000 0.350000
v 0.060287 0.786000 0.378000
v 0.060287 0.818000 0.350000
v 0.060287 0.818000 0.378000
v -0.260000 0.250000 -0.035000
v -0.260000 1.100000 -0.035000
v -0.235251 0.250000 -0.024749
v -0.235251 1.100000 -0.024749
v -0.225000 0.250000 0.000000
v -0.225000 1.100000 0.000000
v -0.235251 0.250000 0.024749
v -0.235251 1.100000 0.024749
v -0.260000 0.250000 0.035000
v -0.260000 1.100000 0.035000
v -0.284749 0.250000 0.024749
v -0.284749 1.100000 0.024749
v -0.295000 0.250000 0.000000
v -0.295000 1.100000 0.000000
v -0.284749 0.250000 -0.024749
v -0.284749 1.100000 -0.024749
v 0.260000 0.250000 -0.035000
v 0.260000 1.100000 -0.035000
v 0.284749 0.250000 -0.024749
v 0.284749 1.100000 -0.024749
v 0.295000 0.250000 0.000000
v 0.295000 1.100000 0.000000
v 0.284749 0.250000 0.024749
v 0.284749 1.100000 0.024749
v 0.260000 0.250000 0.035000
v 0.260000 1.100000 0.035000
v 0.235251 0.250000 0.024749
v 0.235251 1.100000 0.024749
v 0.225000 0.250000 0.000000
v 0.225000 1.100000 0.000000
v 0.235251 0.250000 -0.024749
v 0.235251 1.100000 -0.024749
vn 0.1951 -0.0000 -0.9808
vn 0.5556 -0.0000 -0.8315
vn 0.8315 -0.0000 -0.5556
vn 0.9808 -0.0000 -0.1951
vn 0.9808 -0.0000 0.1951
vn 0.8315 -0.0000 0.5556
vn 0.5556 -0.0000 0.8315
vn 0.1951 -0.0000 0.9808
vn -0.1951 -0.0000 0.9808
vn -0.5556 -0.0000 0.8315
vn -0.8315 -0.0000 0.5556
vn -0.9808 -0.0000 0.1951
vn -0.9808 -0.0000 -0.1951
vn -0.8315 -0.0000 -0.5556
vn -0.0000 1.0000 -0.0000
vn -0.5556 -0.0000 -0.8315
vn -0.1951 -0.0000 -0.9808
vn -0.0000 -1.0000 -0.0000
vn 0.2588 -0.0000 -0.9659
vn 0.7071 -0.0000 -0.7071
vn 0.9659 -0.0000 -0.2588
vn 0.9659 -0.0000 0.2588
vn 0.7071 -0.0000 0.7071
vn 0.2588 -0.0000 0.9659
vn -0.2588 -0.0000 0.9659
vn -0.7071 -0.0000 0.7071
vn -0.9659 -0.0000 0.2588
vn -0.9659 -0.0000 -0.2588
vn -0.7071 -0.0000 -0.7071
vn -0.2588 -0.0000 -0.9659
vn -0.5774 -0.5773 0.5774
vn -0.5774 0.5773 0.5774
vn -0.5774 -0.5773 -0.5774
vn -0.5774 0.5773 -0.5774
vn 0.5774 -0.5773 0.5774
vn 0.5774 0.5773 0.5774
vn 0.5774 -0.5773 -0.5774
vn 0.5774 0.5773 -0.5774
vn -0.7071 -0.7071 -0.0000
vn -0.7071 0.7071 -0.0000
vn -0.0000 -0.7071 -0.7071
vn -0.0000 0.7071 -0.7071
vn 0.7071 -0.7071 -0.0000
vn 0.7071 0.7071 -0.0000
vn -0.0000 -0.7071 0.7071
vn -0.0000 0.7071 0.7071
vn -1.0000 -0.0000 -0.0000
vn -0.0000 -0.0000 1.0000
vn -0.0000 -0.0000 -1.0000
vn 1.0000 -0.0000 -0.0000
vn 0.5000 0.8660 -0.0000
vn 0.5000 -0.8660 -0.0000
vn -0.5000 -0.8660 -0.0000
vn -0.5000 0.8660 -0.0000
vn 0.3827 -0.0000 -0.9239
vn 0.9239 -0.0000 -0.3827
vn 0.9239 -0.0000 0.3827
vn 0.3827 -0.0000 0.9239
vn -0.3827 -0.0000 0.9239
vn -0.9239 -0.0000 0.3827
vn -0.9239 -0.0000 -0.3827
vn -0.3827 -0.0000 -0.9239
vt 0.125000 0.125000
vt 0.125000 0.625000
vt 0.875000 0.125000
vt 0.875000 0.625000
vt 0.625000 0.125000
vt 0.375000 0.875000
s 0
usemtl WorldPickupPalette
f 2/1/1 3/1/1 1/1/1
f 4/1/2 5/1/2 3/1/2
f 6/1/3 7/1/3 5/1/3
f 8/1/4 9/1/4 7/1/4
f 10/1/5 11/1/5 9/1/5
f 12/1/6 13/1/6 11/1/6
f 14/1/7 15/1/7 13/1/7
f 16/1/8 17/1/8 15/1/8
f 18/1/9 19/1/9 17/1/9
f 20/1/10 21/1/10 19/1/10
f 22/1/11 23/1/11 21/1/11
f 24/1/12 25/1/12 23/1/12
f 26/1/13 27/1/13 25/1/13
f 28/1/14 29/1/14 27/1/14
f 22/1/15 14/1/15 6/1/15
f 30/1/16 31/1/16 29/1/16
f 32/1/17 1/1/17 31/1/17
f 23/1/18 27/1/18 31/1/18
f 34/2/1 35/2/1 33/2/1
f 36/2/2 37/2/2 35/2/2
f 38/2/3 39/2/3 37/2/3
f 40/2/4 41/2/4 39/2/4
f 42/2/5 43/2/5 41/2/5
f 44/2/6 45/2/6 43/2/6
f 46/2/7 47/2/7 45/2/7
f 48/2/8 49/2/8 47/2/8
f 50/2/9 51/2/9 49/2/9
f 52/2/10 53/2/10 51/2/10
f 54/2/11 55/2/11 53/2/11
f 56/2/12 57/2/12 55/2/12
f 58/2/13 59/2/13 57/2/13
f 60/2/14 61/2/14 59/2/14
f 54/2/15 46/2/15 38/2/15
f 62/2/16 63/2/16 61/2/16
f 64/2/17 33/2/17 63/2/17
f 59/2/18 63/2/18 47/2/18
f 66/2/1 67/2/1 65/2/1
f 68/2/2 69/2/2 67/2/2
f 70/2/3 71/2/3 69/2/3
f 72/2/4 73/2/4 71/2/4
f 74/2/5 75/2/5 73/2/5
f 76/2/6 77/2/6 75/2/6
f 78/2/7 79/2/7 77/2/7
f 80/2/8 81/2/8 79/2/8
f 82/2/9 83/2/9 81/2/9
f 84/2/10 85/2/10 83/2/10
f 86/2/11 87/2/11 85/2/11
f 88/2/12 89/2/12 87/2/12
f 90/2/13 91/2/13 89/2/13
f 92/2/14 93/2/14 91/2/14
f 86/2/15 78/2/15 70/2/15
f 94/2/16 95/2/16 93/2/16
f 96/2/17 65/2/17 95/2/17
f 91/2/18 95/2/18 79/2/18
f 98/2/1 99/2/1 97/2/1
f 100/2/2 101/2/2 99/2/2
f 102/2/3 103/2/3 101/2/3
f 104/2/4 105/2/4 103/2/4
f 106/2/5 107/2/5 105/2/5
f 108/2/6 109/2/6 107/2/6
f 110/2/7 111/2/7 109/2/7
f 112/2/8 113/2/8 111/2/8
f 114/2/9 115/2/9 113/2/9
f 116/2/10 117/2/10 115/2/10
f 118/2/11 119/2/11 117/2/11
f 120/2/12 121/2/12 119/2/12
f 122/2/13 123/2/13 121/2/13
f 124/2/14 125/2/14 123/2/14
f 118/2/15 110/2/15 102/2/15
f 126/2/16 127/2/16 125/2/16
f 128/2/17 97/2/17 127/2/17
f 123/2/18 127/2/18 111/2/18
f 130/2/1 131/2/1 129/2/1
f 132/2/2 133/2/2 131/2/2
f 134/2/3 135/2/3 133/2/3
f 136/2/4 137/2/4 135/2/4
f 138/2/5 139/2/5 137/2/5
f 140/2/6 141/2/6 139/2/6
f 142/2/7 143/2/7 141/2/7
f 144/2/8 145/2/8 143/2/8
f 146/2/9 147/2/9 145/2/9
f 148/2/10 149/2/10 147/2/10
f 150/2/11 151/2/11 149/2/11
f 152/2/12 153/2/12 151/2/12
f 154/2/13 155/2/13 153/2/13
f 156/2/14 157/2/14 155/2/14
f 150/2/15 142/2/15 134/2/15
f 158/2/16 159/2/16 157/2/16
f 160/2/17 129/2/17 159/2/17
f 155/2/18 159/2/18 143/2/18
f 162/3/19 163/3/19 161/3/19
f 164/3/20 165/3/20 163/3/20
f 166/3/21 167/3/21 165/3/21
f 168/3/22 169/3/22 167/3/22
f 170/3/23 171/3/23 169/3/23
f 172/3/24 173/3/24 171/3/24
f 174/3/25 175/3/25 173/3/25
f 176/3/26 177/3/26 175/3/26
f 178/3/27 179/3/27 177/3/27
f 180/3/28 181/3/28 179/3/28
f 182/3/15 174/3/15 166/3/15
f 182/3/29 183/3/29 181/3/29
f 184/3/30 161/3/30 183/3/30
f 167/3/18 175/3/18 183/3/18
f 186/4/19 187/4/19 185/4/19
f 188/4/20 189/4/20 187/4/20
f 190/4/21 191/4/21 189/4/21
f 192/4/22 193/4/22 191/4/22
f 194/4/23 195/4/23 193/4/23
f 196/4/24 197/4/24 195/4/24
f 198/4/25 199/4/25 197/4/25
f 200/4/26 201/4/26 199/4/26
f 202/4/27 203/4/27 201/4/27
f 204/4/28 205/4/28 203/4/28
f 206/4/15 198/4/15 190/4/15
f 206/4/29 207/4/29 205/4/29
f 208/4/30 185/4/30 207/4/30
f 191/4/18 199/4/18 207/4/18
f 209/5/31 210/5/31 211/5/31
f 212/5/32 213/5/32 214/5/32
f 215/5/33 216/5/33 217/5/33
f 218/5/34 219/5/34 220/5/34
f 221/5/35 222/5/35 223/5/35
f 224/5/36 225/5/36 226/5/36
f 227/5/37 228/5/37 229/5/37
f 230/5/38 231/5/38 232/5/38
f 209/5/39 216/5/39 215/5/39
f 212/5/26 211/5/26 210/5/26
f 218/5/40 214/5/40 213/5/40
f 217/5/29 220/5/29 219/5/29
f 215/5/41 228/5/41 227/5/41
f 230/5/42 219/5/42 218/5/42
f 229/5/20 232/5/20 231/5/20
f 227/5/43 222/5/43 221/5/43
f 224/5/44 231/5/44 230/5/44
f 223/5/23 226/5/23 225/5/23
f 221/5/45 210/5/45 209/5/45
f 213/5/46 225/5/46 224/5/46
f 227/5/18 209/5/18 215/5/18
f 214/5/47 216/5/47 211/5/47
f 225/5/48 210/5/48 223/5/48
f 218/5/15 224/5/15 230/5/15
f 219/5/49 228/5/49 217/5/49
f 231/5/50 222/5/50 229/5/50
f 234/2/51 235/2/51 233/2/51
f 236/2/50 237/2/50 235/2/50
f 238/2/52 239/2/52 237/2/52
f 240/2/53 241/2/53 239/2/53
f 240/2/48 238/2/48 234/2/48
f 242/2/47 243/2/47 241/2/47
f 244/2/54 233/2/54 243/2/54
f 239/2/49 241/2/49 243/2/49
f 246/2/51 247/2/51 245/2/51
f 248/2/50 249/2/50 247/2/50
f 250/2/52 251/2/52 249/2/52
f 252/2/53 253/2/53 251/2/53
f 254/2/48 252/2/48 250/2/48
f 254/2/47 255/2/47 253/2/47
f 256/2/54 245/2/54 255/2/54
f 251/2/49 253/2/49 255/2/49
f 258/2/51 259/2/51 257/2/51
f 260/2/50 261/2/50 259/2/50
f 262/2/52 263/2/52 261/2/52
f 264/2/53 265/2/53 263/2/53
f 264/2/48 262/2/48 258/2/48
f 266/2/47 267/2/47 265/2/47
f 268/2/54 257/2/54 267/2/54
f 263/2/49 265/2/49 267/2/49
f 270/2/51 271/2/51 269/2/51
f 272/2/50 273/2/50 271/2/50
f 274/2/52 275/2/52 273/2/52
f 276/2/53 277/2/53 275/2/53
f 278/2/48 276/2/48 274/2/48
f 278/2/47 279/2/47 277/2/47
f 280/2/54 269/2/54 279/2/54
f 275/2/49 277/2/49 279/2/49
f 282/6/55 283/6/55 281/6/55
f 284/6/56 285/6/56 283/6/56
f 286/6/57 287/6/57 285/6/57
f 288/6/58 289/6/58 287/6/58
f 290/6/59 291/6/59 289/6/59
f 292/6/60 293/6/60 291/6/60
f 294/6/15 290/6/15 286/6/15
f 294/6/61 295/6/61 293/6/61
f 296/6/62 281/6/62 295/6/62
f 291/6/18 293/6/18 295/6/18
f 298/6/55 299/6/55 297/6/55
f 300/6/56 301/6/56 299/6/56
f 302/6/57 303/6/57 301/6/57
f 304/6/58 305/6/58 303/6/58
f 306/6/59 307/6/59 305/6/59
f 308/6/60 309/6/60 307/6/60
f 310/6/15 306/6/15 302/6/15
f 310/6/61 311/6/61 309/6/61
f 312/6/62 297/6/62 311/6/62
f 307/6/18 309/6/18 311/6/18
f 2/1/1 4/1/1 3/1/1
f 4/1/2 6/1/2 5/1/2
f 6/1/3 8/1/3 7/1/3
f 8/1/4 10/1/4 9/1/4
f 10/1/5 12/1/5 11/1/5
f 12/1/6 14/1/6 13/1/6
f 14/1/7 16/1/7 15/1/7
f 16/1/8 18/1/8 17/1/8
f 18/1/9 20/1/9 19/1/9
f 20/1/10 22/1/10 21/1/10
f 22/1/11 24/1/11 23/1/11
f 24/1/12 26/1/12 25/1/12
f 26/1/13 28/1/13 27/1/13
f 28/1/14 30/1/14 29/1/14
f 6/1/15 4/1/15 2/1/15
f 2/1/15 32/1/15 6/1/15
f 32/1/15 30/1/15 6/1/15
f 30/1/15 28/1/15 22/1/15
f 28/1/15 26/1/15 22/1/15
f 26/1/15 24/1/15 22/1/15
f 22/1/15 20/1/15 14/1/15
f 20/1/15 18/1/15 14/1/15
f 18/1/15 16/1/15 14/1/15
f 14/1/15 12/1/15 10/1/15
f 10/1/15 8/1/15 14/1/15
f 8/1/15 6/1/15 14/1/15
f 6/1/15 30/1/15 22/1/15
f 30/1/16 32/1/16 31/1/16
f 32/1/17 2/1/17 1/1/17
f 31/1/18 1/1/18 3/1/18
f 3/1/18 5/1/18 7/1/18
f 7/1/18 9/1/18 11/1/18
f 11/1/18 13/1/18 15/1/18
f 15/1/18 17/1/18 19/1/18
f 19/1/18 21/1/18 23/1/18
f 23/1/18 25/1/18 27/1/18
f 27/1/18 29/1/18 31/1/18
f 31/1/18 3/1/18 15/1/18
f 3/1/18 7/1/18 15/1/18
f 7/1/18 11/1/18 15/1/18
f 15/1/18 19/1/18 31/1/18
f 19/1/18 23/1/18 31/1/18
f 34/2/1 36/2/1 35/2/1
f 36/2/2 38/2/2 37/2/2
f 38/2/3 40/2/3 39/2/3
f 40/2/4 42/2/4 41/2/4
f 42/2/5 44/2/5 43/2/5
f 44/2/6 46/2/6 45/2/6
f 46/2/7 48/2/7 47/2/7
f 48/2/8 50/2/8 49/2/8
f 50/2/9 52/2/9 51/2/9
f 52/2/10 54/2/10 53/2/10
f 54/2/11 56/2/11 55/2/11
f 56/2/12 58/2/12 57/2/12
f 58/2/13 60/2/13 59/2/13
f 60/2/14 62/2/14 61/2/14
f 38/2/15 36/2/15 62/2/15
f 36/2/15 34/2/15 62/2/15
f 34/2/15 64/2/15 62/2/15
f 62/2/15 60/2/15 54/2/15
f 60/2/15 58/2/15 54/2/15
f 58/2/15 56/2/15 54/2/15
f 54/2/15 52/2/15 46/2/15
f 52/2/15 50/2/15 46/2/15
f 50/2/15 48/2/15 46/2/15
f 46/2/15 44/2/15 38/2/15
f 44/2/15 42/2/15 38/2/15
f 42/2/15 40/2/15 38/2/15
f 38/2/15 62/2/15 54/2/15
f 62/2/16 64/2/16 63/2/16
f 64/2/17 34/2/17 33/2/17
f 63/2/18 33/2/18 35/2/18
f 35/2/18 37/2/18 63/2/18
f 37/2/18 39/2/18 63/2/18
f 39/2/18 41/2/18 43/2/18
f 43/2/18 45/2/18 47/2/18
f 47/2/18 49/2/18 51/2/18
f 51/2/18 53/2/18 47/2/18
f 53/2/18 55/2/18 47/2/18
f 55/2/18 57/2/18 59/2/18
f 59/2/18 61/2/18 63/2/18
f 39/2/18 43/2/18 63/2/18
f 43/2/18 47/2/18 63/2/18
f 55/2/18 59/2/18 47/2/18
f 66/2/1 68/2/1 67/2/1
f 68/2/2 70/2/2 69/2/2
f 70/2/3 72/2/3 71/2/3
f 72/2/4 74/2/4 73/2/4
f 74/2/5 76/2/5 75/2/5
f 76/2/6 78/2/6 77/2/6
f 78/2/7 80/2/7 79/2/7
f 80/2/8 82/2/8 81/2/8
f 82/2/9 84/2/9 83/2/9
f 84/2/10 86/2/10 85/2/10
f 86/2/11 88/2/11 87/2/11
f 88/2/12 90/2/12 89/2/12
f 90/2/13 92/2/13 91/2/13
f 92/2/14 94/2/14 93/2/14
f 70/2/15 68/2/15 94/2/15
f 68/2/15 66/2/15 94/2/15
f 66/2/15 96/2/15 94/2/15
f 94/2/15 92/2/15 86/2/15
f 92/2/15 90/2/15 86/2/15
f 90/2/15 88/2/15 86/2/15
f 86/2/15 84/2/15 78/2/15
f 84/2/15 82/2/15 78/2/15
f 82/2/15 80/2/15 78/2/15
f 78/2/15 76/2/15 70/2/15
f 76/2/15 74/2/15 70/2/15
f 74/2/15 72/2/15 70/2/15
f 70/2/15 94/2/15 86/2/15
f 94/2/16 96/2/16 95/2/16
f 96/2/17 66/2/17 65/2/17
f 95/2/18 65/2/18 67/2/18
f 67/2/18 69/2/18 95/2/18
f 69/2/18 71/2/18 95/2/18
f 71/2/18 73/2/18 75/2/18
f 75/2/18 77/2/18 79/2/18
f 79/2/18 81/2/18 83/2/18
f 83/2/18 85/2/18 79/2/18
f 85/2/18 87/2/18 79/2/18
f 87/2/18 89/2/18 91/2/18
f 91/2/18 93/2/18 95/2/18
f 71/2/18 75/2/18 95/2/18
f 75/2/18 79/2/18 95/2/18
f 87/2/18 91/2/18 79/2/18
f 98/2/1 100/2/1 99/2/1
f 100/2/2 102/2/2 101/2/2
f 102/2/3 104/2/3 103/2/3
f 104/2/4 106/2/4 105/2/4
f 106/2/5 108/2/5 107/2/5
f 108/2/6 110/2/6 109/2/6
f 110/2/7 112/2/7 111/2/7
f 112/2/8 114/2/8 113/2/8
f 114/2/9 116/2/9 115/2/9
f 116/2/10 118/2/10 117/2/10
f 118/2/11 120/2/11 119/2/11
f 120/2/12 122/2/12 121/2/12
f 122/2/13 124/2/13 123/2/13
f 124/2/14 126/2/14 125/2/14
f 102/2/15 100/2/15 126/2/15
f 100/2/15 98/2/15 126/2/15
f 98/2/15 128/2/15 126/2/15
f 126/2/15 124/2/15 118/2/15
f 124/2/15 122/2/15 118/2/15
f 122/2/15 120/2/15 118/2/15
f 118/2/15 116/2/15 110/2/15
f 116/2/15 114/2/15 110/2/15
f 114/2/15 112/2/15 110/2/15
f 110/2/15 108/2/15 102/2/15
f 108/2/15 106/2/15 102/2/15
f 106/2/15 104/2/15 102/2/15
f 102/2/15 126/2/15 118/2/15
f 126/2/16 128/2/16 127/2/16
f 128/2/17 98/2/17 97/2/17
f 127/2/18 97/2/18 99/2/18
f 99/2/18 101/2/18 127/2/18
f 101/2/18 103/2/18 127/2/18
f 103/2/18 105/2/18 107/2/18
f 107/2/18 109/2/18 111/2/18
f 111/2/18 113/2/18 115/2/18
f 115/2/18 117/2/18 111/2/18
f 117/2/18 119/2/18 111/2/18
f 119/2/18 121/2/18 123/2/18
f 123/2/18 125/2/18 127/2/18
f 103/2/18 107/2/18 127/2/18
f 107/2/18 111/2/18 127/2/18
f 119/2/18 123/2/18 111/2/18
f 130/2/1 132/2/1 131/2/1
f 132/2/2 134/2/2 133/2/2
f 134/2/3 136/2/3 135/2/3
f 136/2/4 138/2/4 137/2/4
f 138/2/5 140/2/5 139/2/5
f 140/2/6 142/2/6 141/2/6
f 142/2/7 144/2/7 143/2/7
f 144/2/8 146/2/8 145/2/8
f 146/2/9 148/2/9 147/2/9
f 148/2/10 150/2/10 149/2/10
f 150/2/11 152/2/11 151/2/11
f 152/2/12 154/2/12 153/2/12
f 154/2/13 156/2/13 155/2/13
f 156/2/14 158/2/14 157/2/14
f 134/2/15 132/2/15 158/2/15
f 132/2/15 130/2/15 158/2/15
f 130/2/15 160/2/15 158/2/15
f 158/2/15 156/2/15 150/2/15
f 156/2/15 154/2/15 150/2/15
f 154/2/15 152/2/15 150/2/15
f 150/2/15 148/2/15 142/2/15
f 148/2/15 146/2/15 142/2/15
f 146/2/15 144/2/15 142/2/15
f 142/2/15 140/2/15 134/2/15
f 140/2/15 138/2/15 134/2/15
f 138/2/15 136/2/15 134/2/15
f 134/2/15 158/2/15 150/2/15
f 158/2/16 160/2/16 159/2/16
f 160/2/17 130/2/17 129/2/17
f 159/2/18 129/2/18 131/2/18
f 131/2/18 133/2/18 159/2/18
f 133/2/18 135/2/18 159/2/18
f 135/2/18 137/2/18 139/2/18
f 139/2/18 141/2/18 143/2/18
f 143/2/18 145/2/18 147/2/18
f 147/2/18 149/2/18 143/2/18
f 149/2/18 151/2/18 143/2/18
f 151/2/18 153/2/18 155/2/18
f 155/2/18 157/2/18 159/2/18
f 135/2/18 139/2/18 159/2/18
f 139/2/18 143/2/18 159/2/18
f 151/2/18 155/2/18 143/2/18
f 162/3/19 164/3/19 163/3/19
f 164/3/20 166/3/20 165/3/20
f 166/3/21 168/3/21 167/3/21
f 168/3/22 170/3/22 169/3/22
f 170/3/23 172/3/23 171/3/23
f 172/3/24 174/3/24 173/3/24
f 174/3/25 176/3/25 175/3/25
f 176/3/26 178/3/26 177/3/26
f 178/3/27 180/3/27 179/3/27
f 180/3/28 182/3/28 181/3/28
f 166/3/15 164/3/15 162/3/15
f 162/3/15 184/3/15 166/3/15
f 184/3/15 182/3/15 166/3/15
f 182/3/15 180/3/15 178/3/15
f 178/3/15 176/3/15 174/3/15
f 174/3/15 172/3/15 166/3/15
f 172/3/15 170/3/15 166/3/15
f 170/3/15 168/3/15 166/3/15
f 182/3/15 178/3/15 174/3/15
f 182/3/29 184/3/29 183/3/29
f 184/3/30 162/3/30 161/3/30
f 183/3/18 161/3/18 163/3/18
f 163/3/18 165/3/18 167/3/18
f 167/3/18 169/3/18 175/3/18
f 169/3/18 171/3/18 175/3/18
f 171/3/18 173/3/18 175/3/18
f 175/3/18 177/3/18 179/3/18
f 179/3/18 181/3/18 175/3/18
f 181/3/18 183/3/18 175/3/18
f 183/3/18 163/3/18 167/3/18
f 186/4/19 188/4/19 187/4/19
f 188/4/20 190/4/20 189/4/20
f 190/4/21 192/4/21 191/4/21
f 192/4/22 194/4/22 193/4/22
f 194/4/23 196/4/23 195/4/23
f 196/4/24 198/4/24 197/4/24
f 198/4/25 200/4/25 199/4/25
f 200/4/26 202/4/26 201/4/26
f 202/4/27 204/4/27 203/4/27
f 204/4/28 206/4/28 205/4/28
f 190/4/15 188/4/15 186/4/15
f 186/4/15 208/4/15 190/4/15
f 208/4/15 206/4/15 190/4/15
f 206/4/15 204/4/15 202/4/15
f 202/4/15 200/4/15 198/4/15
f 198/4/15 196/4/15 194/4/15
f 194/4/15 192/4/15 190/4/15
f 206/4/15 202/4/15 198/4/15
f 198/4/15 194/4/15 190/4/15
f 206/4/29 208/4/29 207/4/29
f 208/4/30 186/4/30 185/4/30
f 207/4/18 185/4/18 187/4/18
f 187/4/18 189/4/18 191/4/18
f 191/4/18 193/4/18 195/4/18
f 195/4/18 197/4/18 199/4/18
f 199/4/18 201/4/18 203/4/18
f 203/4/18 205/4/18 199/4/18
f 205/4/18 207/4/18 199/4/18
f 207/4/18 187/4/18 191/4/18
f 191/4/18 195/4/18 199/4/18
f 209/5/39 211/5/39 216/5/39
f 212/5/26 214/5/26 211/5/26
f 218/5/40 220/5/40 214/5/40
f 217/5/29 216/5/29 220/5/29
f 215/5/41 217/5/41 228/5/41
f 230/5/42 232/5/42 219/5/42
f 229/5/20 228/5/20 232/5/20
f 227/5/43 229/5/43 222/5/43
f 224/5/44 226/5/44 231/5/44
f 223/5/23 222/5/23 226/5/23
f 221/5/45 223/5/45 210/5/45
f 213/5/46 212/5/46 225/5/46
f 227/5/18 221/5/18 209/5/18
f 214/5/47 220/5/47 216/5/47
f 225/5/48 212/5/48 210/5/48
f 218/5/15 213/5/15 224/5/15
f 219/5/49 232/5/49 228/5/49
f 231/5/50 226/5/50 222/5/50
f 234/2/51 236/2/51 235/2/51
f 236/2/50 238/2/50 237/2/50
f 238/2/52 240/2/52 239/2/52
f 240/2/53 242/2/53 241/2/53
f 238/2/48 236/2/48 234/2/48
f 234/2/48 244/2/48 242/2/48
f 242/2/48 240/2/48 234/2/48
f 242/2/47 244/2/47 243/2/47
f 244/2/54 234/2/54 233/2/54
f 243/2/49 233/2/49 239/2/49
f 233/2/49 235/2/49 239/2/49
f 235/2/49 237/2/49 239/2/49
f 246/2/51 248/2/51 247/2/51
f 248/2/50 250/2/50 249/2/50
f 250/2/52 252/2/52 251/2/52
f 252/2/53 254/2/53 253/2/53
f 250/2/48 248/2/48 254/2/48
f 248/2/48 246/2/48 254/2/48
f 246/2/48 256/2/48 254/2/48
f 254/2/47 256/2/47 255/2/47
f 256/2/54 246/2/54 245/2/54
f 255/2/49 245/2/49 247/2/49
f 247/2/49 249/2/49 255/2/49
f 249/2/49 251/2/49 255/2/49
f 258/2/51 260/2/51 259/2/51
f 260/2/50 262/2/50 261/2/50
f 262/2/52 264/2/52 263/2/52
f 264/2/53 266/2/53 265/2/53
f 262/2/48 260/2/48 258/2/48
f 258/2/48 268/2/48 266/2/48
f 266/2/48 264/2/48 258/2/48
f 266/2/47 268/2/47 267/2/47
f 268/2/54 258/2/54 257/2/54
f 267/2/49 257/2/49 263/2/49
f 257/2/49 259/2/49 263/2/49
f 259/2/49 261/2/49 263/2/49
f 270/2/51 272/2/51 271/2/51
f 272/2/50 274/2/50 273/2/50
f 274/2/52 276/2/52 275/2/52
f 276/2/53 278/2/53 277/2/53
f 274/2/48 272/2/48 278/2/48
f 272/2/48 270/2/48 278/2/48
f 270/2/48 280/2/48 278/2/48
f 278/2/47 280/2/47 279/2/47
f 280/2/54 270/2/54 269/2/54
f 279/2/49 269/2/49 271/2/49
f 271/2/49 273/2/49 279/2/49
f 273/2/49 275/2/49 279/2/49
f 282/6/55 284/6/55 283/6/55
f 284/6/56 286/6/56 285/6/56
f 286/6/57 288/6/57 287/6/57
f 288/6/58 290/6/58 289/6/58
f 290/6/59 292/6/59 291/6/59
f 292/6/60 294/6/60 293/6/60
f 286/6/15 284/6/15 282/6/15
f 282/6/15 296/6/15 294/6/15
f 294/6/15 292/6/15 290/6/15
f 290/6/15 288/6/15 286/6/15
f 286/6/15 282/6/15 294/6/15
f 294/6/61 296/6/61 295/6/61
f 296/6/62 282/6/62 281/6/62
f 295/6/18 281/6/18 287/6/18
f 281/6/18 283/6/18 287/6/18
f 283/6/18 285/6/18 287/6/18
f 287/6/18 289/6/18 295/6/18
f 289/6/18 291/6/18 295/6/18
f 298/6/55 300/6/55 299/6/55
f 300/6/56 302/6/56 301/6/56
f 302/6/57 304/6/57 303/6/57
f 304/6/58 306/6/58 305/6/58
f 306/6/59 308/6/59 307/6/59
f 308/6/60 310/6/60 309/6/60
f 302/6/15 300/6/15 298/6/15
f 298/6/15 312/6/15 310/6/15
f 310/6/15 308/6/15 306/6/15
f 306/6/15 304/6/15 302/6/15
f 302/6/15 298/6/15 310/6/15
f 310/6/61 312/6/61 311/6/61
f 312/6/62 298/6/62 297/6/62
f 311/6/18 297/6/18 303/6/18
f 297/6/18 299/6/18 303/6/18
f 299/6/18 301/6/18 303/6/18
f 303/6/18 305/6/18 311/6/18
f 305/6/18 307/6/18 311/6/18
