# Blender 5.2.1 LTS
# www.blender.org
mtllib loot_scrap.mtl
o loot_scrap
v -0.575000 0.030000 0.400000
v -0.575000 0.055000 0.425000
v -0.600000 0.055000 0.400000
v -0.575000 0.185000 0.425000
v -0.575000 0.210000 0.400000
v -0.600000 0.185000 0.400000
v -0.575000 0.030000 -0.400000
v -0.600000 0.055000 -0.400000
v -0.575000 0.055000 -0.425000
v -0.575000 0.210000 -0.400000
v -0.575000 0.185000 -0.425000
v -0.600000 0.185000 -0.400000
v 0.575000 0.030000 0.400000
v 0.600000 0.055000 0.400000
v 0.575000 0.055000 0.425000
v 0.575000 0.210000 0.400000
v 0.575000 0.185000 0.425000
v 0.600000 0.185000 0.400000
v 0.575000 0.030000 -0.400000
v 0.575000 0.055000 -0.425000
v 0.600000 0.055000 -0.400000
v 0.575000 0.210000 -0.400000
v 0.600000 0.185000 -0.400000
v 0.575000 0.185000 -0.425000
v -0.580000 0.250000 0.330000
v -0.580000 0.270000 0.350000
v -0.600000 0.270000 0.330000
v -0.580000 0.330000 0.350000
v -0.580000 0.350000 0.330000
v -0.600000 0.330000 0.330000
v -0.580000 0.250000 -0.330000
v -0.600000 0.270000 -0.330000
v -0.580000 0.270000 -0.350000
v -0.580000 0.350000 -0.330000
v -0.580000 0.330000 -0.350000
v -0.600000 0.330000 -0.330000
v -0.020000 0.250000 0.330000
v 0.000000 0.270000 0.330000
v -0.020000 0.270000 0.350000
v -0.020000 0.350000 0.330000
v -0.020000 0.330000 0.350000
v 0.000000 0.330000 0.330000
v -0.020000 0.250000 -0.330000
v -0.020000 0.270000 -0.350000
v 0.000000 0.270000 -0.330000
v -0.020000 0.350000 -0.330000
v 0.000000 0.330000 -0.330000
v -0.020000 0.330000 -0.350000
v -0.193533 0.340000 0.387098
v -0.188779 0.360000 0.406525
v -0.212960 0.360000 0.391852
v -0.188779 0.420000 0.406525
v -0.193533 0.440000 0.387098
v -0.212960 0.420000 0.391852
v -0.350416 0.340000 -0.253985
v -0.369843 0.360000 -0.249231
v -0.355171 0.360000 -0.273412
v -0.350416 0.440000 -0.253985
v -0.355171 0.420000 -0.273412
v -0.369843 0.420000 -0.249231
v 0.350416 0.340000 0.253985
v 0.369843 0.360000 0.249231
v 0.355171 0.360000 0.273412
v 0.350416 0.440000 0.253985
v 0.355171 0.420000 0.273412
v 0.369843 0.420000 0.249231
v 0.193533 0.340000 -0.387098
v 0.188779 0.360000 -0.406525
v 0.212960 0.360000 -0.391852
v 0.193533 0.440000 -0.387098
v 0.212960 0.420000 -0.391852
v 0.188779 0.420000 -0.406525
v 0.204029 0.430000 0.422006
v 0.213264 0.450000 0.439746
v 0.186289 0.450000 0.431242
v 0.213264 0.510000 0.439746
v 0.204029 0.530000 0.422006
v 0.186289 0.510000 0.431242
v -0.100746 0.430000 -0.163410
v -0.118486 0.450000 -0.154175
v -0.109981 0.450000 -0.181150
v -0.100746 0.530000 -0.163410
v -0.109981 0.510000 -0.181150
v -0.118486 0.510000 -0.154175
v 0.700746 0.430000 0.163410
v 0.718486 0.450000 0.154175
v 0.709981 0.450000 0.181150
v 0.700746 0.530000 0.163410
v 0.709981 0.510000 0.181150
v 0.718486 0.510000 0.154175
v 0.395971 0.430000 -0.422006
v 0.386736 0.450000 -0.439746
v 0.413711 0.450000 -0.431242
v 0.395971 0.530000 -0.422006
v 0.413711 0.510000 -0.431242
v 0.386736 0.510000 -0.439746
v 0.145000 0.400000 -0.030000
v 0.495000 0.400000 -0.030000
v 0.145000 0.320000 -0.008564
v 0.495000 0.320000 -0.008564
v 0.145000 0.261436 0.050000
v 0.495000 0.261436 0.050000
v 0.145000 0.240000 0.130000
v 0.495000 0.240000 0.130000
v 0.145000 0.261436 0.210000
v 0.495000 0.261436 0.210000
v 0.145000 0.320000 0.268564
v 0.495000 0.320000 0.268564
v 0.145000 0.400000 0.290000
v 0.495000 0.400000 0.290000
v 0.145000 0.480000 0.268564
v 0.495000 0.480000 0.268564
v 0.145000 0.538564 0.210000
v 0.495000 0.538564 0.210000
v 0.145000 0.560000 0.130000
v 0.495000 0.560000 0.130000
v 0.145000 0.538564 0.050000
v 0.495000 0.538564 0.050000
v 0.145000 0.480000 -0.008564
v 0.495000 0.480000 -0.008564
v -0.437000 0.280000 0.237000
v -0.437000 0.288000 0.245000
v -0.445000 0.288000 0.237000
v -0.437000 0.392000 0.245000
v -0.437000 0.400000 0.237000
v -0.445000 0.392000 0.237000
v -0.437000 0.280000 0.163000
v -0.445000 0.288000 0.163000
v -0.437000 0.288000 0.155000
v -0.437000 0.400000 0.163000
v -0.437000 0.392000 0.155000
v -0.445000 0.392000 0.163000
v -0.363000 0.280000 0.237000
v -0.355000 0.288000 0.237000
v -0.363000 0.288000 0.245000
v -0.363000 0.400000 0.237000
v -0.363000 0.392000 0.245000
v -0.355000 0.392000 0.237000
v -0.363000 0.280000 0.163000
v -0.363000 0.288000 0.155000
v -0.355000 0.288000 0.163000
v -0.363000 0.400000 0.163000
v -0.355000 0.392000 0.163000
v -0.363000 0.392000 0.155000
v -0.295579 0.280000 0.178421
v -0.295579 0.288000 0.186421
v -0.303579 0.288000 0.178421
v -0.295579 0.392000 0.186421
v -0.295579 0.400000 0.178421
v -0.303579 0.392000 0.178421
v -0.295579 0.280000 0.104421
v -0.303579 0.288000 0.104421
v -0.295579 0.288000 0.096421
v -0.295579 0.400000 0.104421
v -0.295579 0.392000 0.096421
v -0.303579 0.392000 0.104421
v -0.221579 0.280000 0.178421
v -0.213579 0.288000 0.178421
v -0.221579 0.288000 0.186421
v -0.221579 0.400000 0.178421
v -0.221579 0.392000 0.186421
v -0.213579 0.392000 0.178421
v -0.221579 0.280000 0.104421
v -0.221579 0.288000 0.096421
v -0.213579 0.288000 0.104421
v -0.221579 0.400000 0.104421
v -0.213579 0.392000 0.104421
v -0.221579 0.392000 0.096421
v -0.237000 0.280000 0.037000
v -0.237000 0.288000 0.045000
v -0.245000 0.288000 0.037000
v -0.237000 0.392000 0.045000
v -0.237000 0.400000 0.037000
v -0.245000 0.392000 0.037000
v -0.237000 0.280000 -0.037000
v -0.245000 0.288000 -0.037000
v -0.237000 0.288000 -0.045000
v -0.237000 0.400000 -0.037000
v -0.237000 0.392000 -0.045000
v -0.245000 0.392000 -0.037000
v -0.163000 0.280000 0.037000
v -0.155000 0.288000 0.037000
v -0.163000 0.288000 0.045000
v -0.163000 0.400000 0.037000
v -0.163000 0.392000 0.045000
v -0.155000 0.392000 0.037000
v -0.163000 0.280000 -0.037000
v -0.163000 0.288000 -0.045000
v -0.155000 0.288000 -0.037000
v -0.163000 0.400000 -0.037000
v -0.155000 0.392000 -0.037000
v -0.163000 0.392000 -0.045000
v -0.295579 0.280000 -0.104421
v -0.295579 0.288000 -0.096421
v -0.303579 0.288000 -0.104421
v -0.295579 0.392000 -0.096421
v -0.295579 0.400000 -0.104421
v -0.303579 0.392000 -0.104421
v -0.295579 0.280000 -0.178421
v -0.303579 0.288000 -0.178421
v -0.295579 0.288000 -0.186421
v -0.295579 0.400000 -0.178421
v -0.295579 0.392000 -0.186421
v -0.303579 0.392000 -0.178421
v -0.221579 0.280000 -0.104421
v -0.213579 0.288000 -0.104421
v -0.221579 0.288000 -0.096421
v -0.221579 0.400000 -0.104421
v -0.221579 0.392000 -0.096421
v -0.213579 0.392000 -0.104421
v -0.221579 0.280000 -0.178421
v -0.221579 0.288000 -0.186421
v -0.213579 0.288000 -0.178421
v -0.221579 0.400000 -0.178421
v -0.213579 0.392000 -0.178421
v -0.221579 0.392000 -0.186421
v -0.437000 0.280000 -0.163000
v -0.437000 0.288000 -0.155000
v -0.445000 0.288000 -0.163000
v -0.437000 0.392000 -0.155000
v -0.437000 0.400000 -0.163000
v -0.445000 0.392000 -0.163000
v -0.437000 0.280000 -0.237000
v -0.445000 0.288000 -0.237000
v -0.437000 0.288000 -0.245000
v -0.437000 0.400000 -0.237000
v -0.437000 0.392000 -0.245000
v -0.445000 0.392000 -0.237000
v -0.363000 0.280000 -0.163000
v -0.355000 0.288000 -0.163000
v -0.363000 0.288000 -0.155000
v -0.363000 0.400000 -0.163000
v -0.363000 0.392000 -0.155000
v -0.355000 0.392000 -0.163000
v -0.363000 0.280000 -0.237000
v -0.363000 0.288000 -0.245000
v -0.355000 0.288000 -0.237000
v -0.363000 0.400000 -0.237000
v -0.355000 0.392000 -0.237000
v -0.363000 0.392000 -0.245000
v -0.578421 0.280000 -0.104421
v -0.578421 0.288000 -0.096421
v -0.586421 0.288000 -0.104421
v -0.578421 0.392000 -0.096421
v -0.578421 0.400000 -0.104421
v -0.586421 0.392000 -0.104421
v -0.578421 0.280000 -0.178421
v -0.586421 0.288000 -0.178421
v -0.578421 0.288000 -0.186421
v -0.578421 0.400000 -0.178421
v -0.578421 0.392000 -0.186421
v -0.586421 0.392000 -0.178421
v -0.504421 0.280000 -0.104421
v -0.496421 0.288000 -0.104421
v -0.504421 0.288000 -0.096421
v -0.504421 0.400000 -0.104421
v -0.504421 0.392000 -0.096421
v -0.496421 0.392000 -0.104421
v -0.504421 0.280000 -0.178421
v -0.504421 0.288000 -0.186421
v -0.496421 0.288000 -0.178421
v -0.504421 0.400000 -0.178421
v -0.496421 0.392000 -0.178421
v -0.504421 0.392000 -0.186421
v -0.637000 0.280000 0.037000
v -0.637000 0.288000 0.045000
v -0.645000 0.288000 0.037000
v -0.637000 0.392000 0.045000
v -0.637000 0.400000 0.037000
v -0.645000 0.392000 0.037000
v -0.637000 0.280000 -0.037000
v -0.645000 0.288000 -0.037000
v -0.637000 0.288000 -0.045000
v -0.637000 0.400000 -0.037000
v -0.637000 0.392000 -0.045000
v -0.645000 0.392000 -0.037000
v -0.563000 0.280000 0.037000
v -0.555000 0.288000 0.037000
v -0.563000 0.288000 0.045000
v -0.563000 0.400000 0.037000
v -0.563000 0.392000 0.045000
v -0.555000 0.392000 0.037000
v -0.563000 0.280000 -0.037000
v -0.563000 0.288000 -0.045000
v -0.555000 0.288000 -0.037000
v -0.563000 0.400000 -0.037000
v -0.555000 0.392000 -0.037000
v -0.563000 0.392000 -0.045000
v -0.578421 0.280000 0.178421
v -0.578421 0.288000 0.186421
v -0.586421 0.288000 0.178421
v -0.578421 0.392000 0.186421
v -0.578421 0.400000 0.178421
v -0.586421 0.392000 0.178421
v -0.578421 0.280000 0.104421
v -0.586421 0.288000 0.104421
v -0.578421 0.288000 0.096421
v -0.578421 0.400000 0.104421
v -0.578421 0.392000 0.096421
v -0.586421 0.392000 0.104421
v -0.504421 0.280000 0.178421
v -0.496421 0.288000 0.178421
v -0.504421 0.288000 0.186421
v -0.504421 0.400000 0.178421
v -0.504421 0.392000 0.186421
v -0.496421 0.392000 0.178421
v -0.504421 0.280000 0.104421
v -0.504421 0.288000 0.096421
v -0.496421 0.288000 0.104421
v -0.504421 0.400000 0.104421
v -0.496421 0.392000 0.104421
v -0.504421 0.392000 0.096421
vn -0.5774 -0.5774 0.5773
vn -0.5774 0.5774 0.5773
vn -0.5774 -0.5774 -0.5773
vn -0.5774 0.5774 -0.5773
vn 0.5774 -0.5774 0.5773
vn 0.5774 0.5774 0.5773
vn 0.5774 -0.5774 -0.5773
vn 0.5774 0.5774 -0.5773
vn -0.7071 -0.7071 -0.0000
vn -0.7071 -0.0000 0.7071
vn -0.7071 0.7071 -0.0000
vn -0.7071 -0.0000 -0.7071
vn -0.0000 -0.7071 -0.7071
vn -0.0000 0.7071 -0.7071
vn 0.7071 -0.0000 -0.7071
vn 0.7071 -0.7071 -0.0000
vn 0.7071 0.7071 -0.0000
vn 0.7071 -0.0000 0.7071
vn -0.0000 -0.7071 0.7071
vn -0.0000 0.7071 0.7071
vn -0.0000 -1.0000 -0.0000
vn -1.0000 -0.0000 -0.0000
vn -0.0000 -0.0000 1.0000
vn -0.0000 1.0000 -0.0000
vn -0.0000 -0.0000 -1.0000
vn 1.0000 -0.0000 -0.0000
vn -0.5774 -0.5773 0.5773
vn -0.5774 0.5773 0.5773
vn -0.5774 -0.5773 -0.5773
vn -0.5774 0.5773 -0.5773
vn 0.5774 -0.5774 0.5774
vn 0.5774 -0.5774 -0.5774
vn -0.4236 -0.5773 0.6980
vn -0.4236 0.5773 0.6980
vn -0.6980 -0.5773 -0.4236
vn -0.6980 0.5774 -0.4236
vn 0.6980 -0.5773 0.4236
vn 0.6980 0.5774 0.4236
vn 0.4236 -0.5773 -0.6980
vn 0.4236 0.5773 -0.6980
vn -0.6868 -0.7071 0.1681
vn -0.5188 -0.0000 0.8549
vn -0.6868 0.7071 0.1681
vn -0.8549 -0.0000 -0.5188
vn -0.1681 -0.7071 -0.6868
vn -0.1681 0.7071 -0.6868
vn 0.5188 -0.0000 -0.8549
vn 0.6868 -0.7071 -0.1681
vn 0.6868 0.7071 -0.1681
vn 0.8549 -0.0000 0.5188
vn 0.1681 -0.7071 0.6868
vn 0.1681 0.7071 0.6868
vn -0.9713 -0.0000 0.2377
vn 0.2377 -0.0000 0.9713
vn -0.2377 -0.0000 -0.9713
vn 0.9713 -0.0000 -0.2377
vn -0.2455 -0.5773 0.7787
vn -0.2455 0.5773 0.7787
vn -0.7787 -0.5774 -0.2455
vn -0.7787 0.5774 -0.2455
vn 0.7787 -0.5774 0.2455
vn 0.7787 0.5774 0.2455
vn 0.2455 -0.5773 -0.7787
vn 0.2455 0.5773 -0.7787
vn -0.6272 -0.7071 0.3265
vn -0.3007 -0.0000 0.9537
vn -0.6272 0.7071 0.3265
vn -0.9537 -0.0000 -0.3007
vn -0.3265 -0.7071 -0.6272
vn -0.3265 0.7071 -0.6272
vn 0.3007 -0.0000 -0.9537
vn 0.6272 -0.7071 -0.3265
vn 0.6272 0.7071 -0.3265
vn 0.9537 -0.0000 0.3007
vn 0.3265 -0.7071 0.6272
vn 0.3265 0.7071 0.6272
vn -0.8870 -0.0000 0.4618
vn 0.4618 -0.0000 0.8870
vn -0.4618 -0.0000 -0.8870
vn 0.8870 -0.0000 -0.4618
vn -0.0000 -0.2588 -0.9659
vn -0.0000 -0.9659 -0.2588
vn -0.0000 -0.9659 0.2588
vn -0.0000 -0.2588 0.9659
vn -0.0000 0.2588 0.9659
vn -0.0000 0.9659 0.2588
vn -0.0000 0.9659 -0.2588
vn -0.0000 0.2588 -0.9659
vn 0.5774 0.5773 0.5773
vn 0.5774 0.5773 -0.5773
vn -0.5774 -0.5774 0.5774
vn -0.5773 -0.5774 -0.5773
vn 0.5774 -0.5773 0.5774
vn 0.5774 0.5773 0.5774
vn 0.5774 0.5773 -0.5774
vn -0.5773 -0.5774 0.5773
vn -0.5774 -0.5774 -0.5774
vn 0.5774 -0.5773 -0.5774
vn -0.5773 -0.5773 0.5774
vn -0.5774 0.5773 0.5774
vn -0.5773 -0.5773 -0.5774
vn -0.5774 0.5773 -0.5774
vt 0.125000 0.625000
vt 0.375000 0.875000
vt 0.625000 0.125000
vt 0.875000 0.125000
s 0
usemtl WorldPickupPalette
f 1/1/1 2/1/1 3/1/1
f 4/1/2 5/1/2 6/1/2
f 7/1/3 8/1/3 9/1/3
f 10/1/4 11/1/4 12/1/4
f 13/1/5 14/1/5 15/1/5
f 16/1/6 17/1/6 18/1/6
f 19/1/7 20/1/7 21/1/7
f 22/1/8 23/1/8 24/1/8
f 1/1/9 8/1/9 7/1/9
f 4/1/10 3/1/10 2/1/10
f 10/1/11 6/1/11 5/1/11
f 9/1/12 12/1/12 11/1/12
f 7/1/13 20/1/13 19/1/13
f 22/1/14 11/1/14 10/1/14
f 21/1/15 24/1/15 23/1/15
f 19/1/16 14/1/16 13/1/16
f 16/1/17 23/1/17 22/1/17
f 15/1/18 18/1/18 17/1/18
f 13/1/19 2/1/19 1/1/19
f 5/1/20 17/1/20 16/1/20
f 19/1/21 1/1/21 7/1/21
f 6/1/22 8/1/22 3/1/22
f 17/1/23 2/1/23 15/1/23
f 10/1/24 16/1/24 22/1/24
f 11/1/25 20/1/25 9/1/25
f 23/1/26 14/1/26 21/1/26
f 25/2/27 26/2/27 27/2/27
f 28/2/28 29/2/28 30/2/28
f 31/2/29 32/2/29 33/2/29
f 34/2/30 35/2/30 36/2/30
f 37/2/31 38/2/31 39/2/31
f 40/2/6 41/2/6 42/2/6
f 43/2/32 44/2/32 45/2/32
f 46/2/8 47/2/8 48/2/8
f 25/2/9 32/2/9 31/2/9
f 28/2/10 27/2/10 26/2/10
f 34/2/11 30/2/11 29/2/11
f 33/2/12 36/2/12 35/2/12
f 31/2/13 44/2/13 43/2/13
f 46/2/14 35/2/14 34/2/14
f 45/2/15 48/2/15 47/2/15
f 43/2/16 38/2/16 37/2/16
f 40/2/17 47/2/17 46/2/17
f 39/2/18 42/2/18 41/2/18
f 37/2/19 26/2/19 25/2/19
f 29/2/20 41/2/20 40/2/20
f 43/2/21 25/2/21 31/2/21
f 30/2/22 32/2/22 27/2/22
f 41/2/23 26/2/23 39/2/23
f 34/2/24 40/2/24 46/2/24
f 35/2/25 44/2/25 33/2/25
f 47/2/26 38/2/26 45/2/26
f 49/3/33 50/3/33 51/3/33
f 52/3/34 53/3/34 54/3/34
f 55/3/35 56/3/35 57/3/35
f 58/3/36 59/3/36 60/3/36
f 61/3/37 62/3/37 63/3/37
f 64/3/38 65/3/38 66/3/38
f 67/3/39 68/3/39 69/3/39
f 70/3/40 71/3/40 72/3/40
f 49/3/41 56/3/41 55/3/41
f 52/3/42 51/3/42 50/3/42
f 58/3/43 54/3/43 53/3/43
f 57/3/44 60/3/44 59/3/44
f 55/3/45 68/3/45 67/3/45
f 58/3/46 72/3/46 59/3/46
f 69/3/47 72/3/47 71/3/47
f 67/3/48 62/3/48 61/3/48
f 64/3/49 71/3/49 70/3/49
f 63/3/50 66/3/50 65/3/50
f 61/3/51 50/3/51 49/3/51
f 64/3/52 52/3/52 65/3/52
f 55/3/21 61/3/21 49/3/21
f 54/3/53 56/3/53 51/3/53
f 65/3/54 50/3/54 63/3/54
f 58/3/24 64/3/24 70/3/24
f 59/3/55 68/3/55 57/3/55
f 71/3/56 62/3/56 69/3/56
f 73/2/57 74/2/57 75/2/57
f 76/2/58 77/2/58 78/2/58
f 79/2/59 80/2/59 81/2/59
f 82/2/60 83/2/60 84/2/60
f 85/2/61 86/2/61 87/2/61
f 88/2/62 89/2/62 90/2/62
f 91/2/63 92/2/63 93/2/63
f 94/2/64 95/2/64 96/2/64
f 79/2/65 75/2/65 80/2/65
f 76/2/66 75/2/66 74/2/66
f 82/2/67 78/2/67 77/2/67
f 81/2/68 84/2/68 83/2/68
f 91/2/69 81/2/69 92/2/69
f 94/2/70 83/2/70 82/2/70
f 93/2/71 96/2/71 95/2/71
f 85/2/72 93/2/72 86/2/72
f 88/2/73 95/2/73 94/2/73
f 87/2/74 90/2/74 89/2/74
f 85/2/75 74/2/75 73/2/75
f 88/2/76 76/2/76 89/2/76
f 79/2/21 85/2/21 73/2/21
f 78/2/77 80/2/77 75/2/77
f 89/2/78 74/2/78 87/2/78
f 82/2/24 88/2/24 94/2/24
f 83/2/79 92/2/79 81/2/79
f 95/2/80 86/2/80 93/2/80
f 98/4/81 99/4/81 97/4/81
f 100/4/13 101/4/13 99/4/13
f 102/4/82 103/4/82 101/4/82
f 104/4/83 105/4/83 103/4/83
f 106/4/19 107/4/19 105/4/19
f 108/4/84 109/4/84 107/4/84
f 110/4/85 111/4/85 109/4/85
f 112/4/20 113/4/20 111/4/20
f 114/4/86 115/4/86 113/4/86
f 116/4/87 117/4/87 115/4/87
f 98/4/26 118/4/26 110/4/26
f 118/4/14 119/4/14 117/4/14
f 120/4/88 97/4/88 119/4/88
f 111/4/22 115/4/22 119/4/22
f 121/1/1 122/1/1 123/1/1
f 124/1/28 125/1/28 126/1/28
f 127/1/3 128/1/3 129/1/3
f 130/1/30 131/1/30 132/1/30
f 133/1/5 134/1/5 135/1/5
f 136/1/89 137/1/89 138/1/89
f 139/1/7 140/1/7 141/1/7
f 142/1/90 143/1/90 144/1/90
f 121/1/9 128/1/9 127/1/9
f 124/1/10 123/1/10 122/1/10
f 130/1/11 126/1/11 125/1/11
f 129/1/12 132/1/12 131/1/12
f 127/1/13 140/1/13 139/1/13
f 142/1/14 131/1/14 130/1/14
f 141/1/15 144/1/15 143/1/15
f 139/1/16 134/1/16 133/1/16
f 136/1/17 143/1/17 142/1/17
f 135/1/18 138/1/18 137/1/18
f 133/1/19 122/1/19 121/1/19
f 125/1/20 137/1/20 136/1/20
f 139/1/21 121/1/21 127/1/21
f 126/1/22 128/1/22 123/1/22
f 137/1/23 122/1/23 135/1/23
f 130/1/24 136/1/24 142/1/24
f 131/1/25 140/1/25 129/1/25
f 143/1/26 134/1/26 141/1/26
f 145/1/91 146/1/91 147/1/91
f 148/1/28 149/1/28 150/1/28
f 151/1/92 152/1/92 153/1/92
f 154/1/30 155/1/30 156/1/30
f 157/1/93 158/1/93 159/1/93
f 160/1/94 161/1/94 162/1/94
f 163/1/32 164/1/32 165/1/32
f 166/1/95 167/1/95 168/1/95
f 145/1/9 152/1/9 151/1/9
f 148/1/10 147/1/10 146/1/10
f 154/1/11 150/1/11 149/1/11
f 153/1/12 156/1/12 155/1/12
f 151/1/13 164/1/13 163/1/13
f 166/1/14 155/1/14 154/1/14
f 165/1/15 168/1/15 167/1/15
f 163/1/16 158/1/16 157/1/16
f 160/1/17 167/1/17 166/1/17
f 159/1/18 162/1/18 161/1/18
f 157/1/19 146/1/19 145/1/19
f 149/1/20 161/1/20 160/1/20
f 163/1/21 145/1/21 151/1/21
f 150/1/22 152/1/22 147/1/22
f 161/1/23 146/1/23 159/1/23
f 154/1/24 160/1/24 166/1/24
f 155/1/25 164/1/25 153/1/25
f 167/1/26 158/1/26 165/1/26
f 169/1/1 170/1/1 171/1/1
f 172/1/28 173/1/28 174/1/28
f 175/1/3 176/1/3 177/1/3
f 178/1/30 179/1/30 180/1/30
f 181/1/5 182/1/5 183/1/5
f 184/1/89 185/1/89 186/1/89
f 187/1/7 188/1/7 189/1/7
f 190/1/90 191/1/90 192/1/90
f 169/1/9 176/1/9 175/1/9
f 172/1/10 171/1/10 170/1/10
f 178/1/11 174/1/11 173/1/11
f 177/1/12 180/1/12 179/1/12
f 175/1/13 188/1/13 187/1/13
f 190/1/14 179/1/14 178/1/14
f 189/1/15 192/1/15 191/1/15
f 187/1/16 182/1/16 181/1/16
f 184/1/17 191/1/17 190/1/17
f 183/1/18 186/1/18 185/1/18
f 181/1/19 170/1/19 169/1/19
f 173/1/20 185/1/20 184/1/20
f 187/1/21 169/1/21 175/1/21
f 174/1/22 176/1/22 171/1/22
f 185/1/23 170/1/23 183/1/23
f 178/1/24 184/1/24 190/1/24
f 179/1/25 188/1/25 177/1/25
f 191/1/26 182/1/26 189/1/26
f 193/1/96 194/1/96 195/1/96
f 196/1/28 197/1/28 198/1/28
f 199/1/97 200/1/97 201/1/97
f 202/1/30 203/1/30 204/1/30
f 205/1/31 206/1/31 207/1/31
f 208/1/94 209/1/94 210/1/94
f 211/1/98 212/1/98 213/1/98
f 214/1/95 215/1/95 216/1/95
f 193/1/9 200/1/9 199/1/9
f 196/1/10 195/1/10 194/1/10
f 202/1/11 198/1/11 197/1/11
f 201/1/12 204/1/12 203/1/12
f 199/1/13 212/1/13 211/1/13
f 214/1/14 203/1/14 202/1/14
f 213/1/15 216/1/15 215/1/15
f 211/1/16 206/1/16 205/1/16
f 208/1/17 215/1/17 214/1/17
f 207/1/18 210/1/18 209/1/18
f 205/1/19 194/1/19 193/1/19
f 197/1/20 209/1/20 208/1/20
f 211/1/21 193/1/21 199/1/21
f 198/1/22 200/1/22 195/1/22
f 209/1/23 194/1/23 207/1/23
f 202/1/24 208/1/24 214/1/24
f 203/1/25 212/1/25 201/1/25
f 215/1/26 206/1/26 213/1/26
f 217/1/1 218/1/1 219/1/1
f 220/1/28 221/1/28 222/1/28
f 223/1/3 224/1/3 225/1/3
f 226/1/30 227/1/30 228/1/30
f 229/1/5 230/1/5 231/1/5
f 232/1/89 233/1/89 234/1/89
f 235/1/7 236/1/7 237/1/7
f 238/1/90 239/1/90 240/1/90
f 217/1/9 224/1/9 223/1/9
f 220/1/10 219/1/10 218/1/10
f 226/1/11 222/1/11 221/1/11
f 225/1/12 228/1/12 227/1/12
f 223/1/13 236/1/13 235/1/13
f 238/1/14 227/1/14 226/1/14
f 237/1/15 240/1/15 239/1/15
f 235/1/16 230/1/16 229/1/16
f 232/1/17 239/1/17 238/1/17
f 231/1/18 234/1/18 233/1/18
f 229/1/19 218/1/19 217/1/19
f 221/1/20 233/1/20 232/1/20
f 235/1/21 217/1/21 223/1/21
f 222/1/22 224/1/22 219/1/22
f 233/1/23 218/1/23 231/1/23
f 226/1/24 232/1/24 238/1/24
f 227/1/25 236/1/25 225/1/25
f 239/1/26 230/1/26 237/1/26
f 241/1/99 242/1/99 243/1/99
f 244/1/100 245/1/100 246/1/100
f 247/1/101 248/1/101 249/1/101
f 250/1/102 251/1/102 252/1/102
f 253/1/5 254/1/5 255/1/5
f 256/1/6 257/1/6 258/1/6
f 259/1/7 260/1/7 261/1/7
f 262/1/8 263/1/8 264/1/8
f 241/1/9 248/1/9 247/1/9
f 244/1/10 243/1/10 242/1/10
f 250/1/11 246/1/11 245/1/11
f 249/1/12 252/1/12 251/1/12
f 247/1/13 260/1/13 259/1/13
f 262/1/14 251/1/14 250/1/14
f 261/1/15 264/1/15 263/1/15
f 259/1/16 254/1/16 253/1/16
f 256/1/17 263/1/17 262/1/17
f 255/1/18 258/1/18 257/1/18
f 253/1/19 242/1/19 241/1/19
f 245/1/20 257/1/20 256/1/20
f 259/1/21 241/1/21 247/1/21
f 246/1/22 248/1/22 243/1/22
f 257/1/23 242/1/23 255/1/23
f 250/1/24 256/1/24 262/1/24
f 251/1/25 260/1/25 249/1/25
f 263/1/26 254/1/26 261/1/26
f 265/1/99 266/1/99 267/1/99
f 268/1/100 269/1/100 270/1/100
f 271/1/101 272/1/101 273/1/101
f 274/1/102 275/1/102 276/1/102
f 277/1/5 278/1/5 279/1/5
f 280/1/6 281/1/6 282/1/6
f 283/1/7 284/1/7 285/1/7
f 286/1/8 287/1/8 288/1/8
f 265/1/9 272/1/9 271/1/9
f 268/1/10 267/1/10 266/1/10
f 274/1/11 270/1/11 269/1/11
f 273/1/12 276/1/12 275/1/12
f 271/1/13 284/1/13 283/1/13
f 286/1/14 275/1/14 274/1/14
f 285/1/15 288/1/15 287/1/15
f 283/1/16 278/1/16 277/1/16
f 280/1/17 287/1/17 286/1/17
f 279/1/18 282/1/18 281/1/18
f 277/1/19 266/1/19 265/1/19
f 269/1/20 281/1/20 280/1/20
f 283/1/21 265/1/21 271/1/21
f 270/1/22 272/1/22 267/1/22
f 281/1/23 266/1/23 279/1/23
f 274/1/24 280/1/24 286/1/24
f 275/1/25 284/1/25 273/1/25
f 287/1/26 278/1/26 285/1/26
f 289/1/99 290/1/99 291/1/99
f 292/1/100 293/1/100 294/1/100
f 295/1/101 296/1/101 297/1/101
f 298/1/102 299/1/102 300/1/102
f 301/1/5 302/1/5 303/1/5
f 304/1/6 305/1/6 306/1/6
f 307/1/7 308/1/7 309/1/7
f 310/1/8 311/1/8 312/1/8
f 289/1/9 296/1/9 295/1/9
f 292/1/10 291/1/10 290/1/10
f 298/1/11 294/1/11 293/1/11
f 297/1/12 300/1/12 299/1/12
f 295/1/13 308/1/13 307/1/13
f 310/1/14 299/1/14 298/1/14
f 309/1/15 312/1/15 311/1/15
f 307/1/16 302/1/16 301/1/16
f 304/1/17 311/1/17 310/1/17
f 303/1/18 306/1/18 305/1/18
f 301/1/19 290/1/19 289/1/19
f 293/1/20 305/1/20 304/1/20
f 307/1/21 289/1/21 295/1/21
f 294/1/22 296/1/22 291/1/22
f 305/1/23 290/1/23 303/1/23
f 298/1/24 304/1/24 310/1/24
f 299/1/25 308/1/25 297/1/25
f 311/1/26 302/1/26 309/1/26
f 1/1/9 3/1/9 8/1/9
f 4/1/10 6/1/10 3/1/10
f 10/1/11 12/1/11 6/1/11
f 9/1/12 8/1/12 12/1/12
f 7/1/13 9/1/13 20/1/13
f 22/1/14 24/1/14 11/1/14
f 21/1/15 20/1/15 24/1/15
f 19/1/16 21/1/16 14/1/16
f 16/1/17 18/1/17 23/1/17
f 15/1/18 14/1/18 18/1/18
f 13/1/19 15/1/19 2/1/19
f 5/1/20 4/1/20 17/1/20
f 19/1/21 13/1/21 1/1/21
f 6/1/22 12/1/22 8/1/22
f 17/1/23 4/1/23 2/1/23
f 10/1/24 5/1/24 16/1/24
f 11/1/25 24/1/25 20/1/25
f 23/1/26 18/1/26 14/1/26
f 25/2/9 27/2/9 32/2/9
f 28/2/10 30/2/10 27/2/10
f 34/2/11 36/2/11 30/2/11
f 33/2/12 32/2/12 36/2/12
f 31/2/13 33/2/13 44/2/13
f 46/2/14 48/2/14 35/2/14
f 45/2/15 44/2/15 48/2/15
f 43/2/16 45/2/16 38/2/16
f 40/2/17 42/2/17 47/2/17
f 39/2/18 38/2/18 42/2/18
f 37/2/19 39/2/19 26/2/19
f 29/2/20 28/2/20 41/2/20
f 43/2/21 37/2/21 25/2/21
f 30/2/22 36/2/22 32/2/22
f 41/2/23 28/2/23 26/2/23
f 34/2/24 29/2/24 40/2/24
f 35/2/25 48/2/25 44/2/25
f 47/2/26 42/2/26 38/2/26
f 49/3/41 51/3/41 56/3/41
f 52/3/42 54/3/42 51/3/42
f 58/3/43 60/3/43 54/3/43
f 57/3/44 56/3/44 60/3/44
f 55/3/45 57/3/45 68/3/45
f 58/3/46 70/3/46 72/3/46
f 69/3/47 68/3/47 72/3/47
f 67/3/48 69/3/48 62/3/48
f 64/3/49 66/3/49 71/3/49
f 63/3/50 62/3/50 66/3/50
f 61/3/51 63/3/51 50/3/51
f 64/3/52 53/3/52 52/3/52
f 55/3/21 67/3/21 61/3/21
f 54/3/53 60/3/53 56/3/53
f 65/3/54 52/3/54 50/3/54
f 58/3/24 53/3/24 64/3/24
f 59/3/55 72/3/55 68/3/55
f 71/3/56 66/3/56 62/3/56
f 79/2/65 73/2/65 75/2/65
f 76/2/66 78/2/66 75/2/66
f 82/2/67 84/2/67 78/2/67
f 81/2/68 80/2/68 84/2/68
f 91/2/69 79/2/69 81/2/69
f 94/2/70 96/2/70 83/2/70
f 93/2/71 92/2/71 96/2/71
f 85/2/72 91/2/72 93/2/72
f 88/2/73 90/2/73 95/2/73
f 87/2/74 86/2/74 90/2/74
f 85/2/75 87/2/75 74/2/75
f 88/2/76 77/2/76 76/2/76
f 79/2/21 91/2/21 85/2/21
f 78/2/77 84/2/77 80/2/77
f 89/2/78 76/2/78 74/2/78
f 82/2/24 77/2/24 88/2/24
f 83/2/79 96/2/79 92/2/79
f 95/2/80 90/2/80 86/2/80
f 98/4/81 100/4/81 99/4/81
f 100/4/13 102/4/13 101/4/13
f 102/4/82 104/4/82 103/4/82
f 104/4/83 106/4/83 105/4/83
f 106/4/19 108/4/19 107/4/19
f 108/4/84 110/4/84 109/4/84
f 110/4/85 112/4/85 111/4/85
f 112/4/20 114/4/20 113/4/20
f 114/4/86 116/4/86 115/4/86
f 116/4/87 118/4/87 117/4/87
f 102/4/26 100/4/26 98/4/26
f 98/4/26 120/4/26 118/4/26
f 118/4/26 116/4/26 110/4/26
f 116/4/26 114/4/26 110/4/26
f 114/4/26 112/4/26 110/4/26
f 110/4/26 108/4/26 102/4/26
f 108/4/26 106/4/26 102/4/26
f 106/4/26 104/4/26 102/4/26
f 102/4/26 98/4/26 110/4/26
f 118/4/14 120/4/14 119/4/14
f 120/4/88 98/4/88 97/4/88
f 119/4/22 97/4/22 103/4/22
f 97/4/22 99/4/22 103/4/22
f 99/4/22 101/4/22 103/4/22
f 103/4/22 105/4/22 107/4/22
f 107/4/22 109/4/22 111/4/22
f 111/4/22 113/4/22 115/4/22
f 115/4/22 117/4/22 119/4/22
f 103/4/22 107/4/22 119/4/22
f 107/4/22 111/4/22 119/4/22
f 121/1/9 123/1/9 128/1/9
f 124/1/10 126/1/10 123/1/10
f 130/1/11 132/1/11 126/1/11
f 129/1/12 128/1/12 132/1/12
f 127/1/13 129/1/13 140/1/13
f 142/1/14 144/1/14 131/1/14
f 141/1/15 140/1/15 144/1/15
f 139/1/16 141/1/16 134/1/16
f 136/1/17 138/1/17 143/1/17
f 135/1/18 134/1/18 138/1/18
f 133/1/19 135/1/19 122/1/19
f 125/1/20 124/1/20 137/1/20
f 139/1/21 133/1/21 121/1/21
f 126/1/22 132/1/22 128/1/22
f 137/1/23 124/1/23 122/1/23
f 130/1/24 125/1/24 136/1/24
f 131/1/25 144/1/25 140/1/25
f 143/1/26 138/1/26 134/1/26
f 145/1/9 147/1/9 152/1/9
f 148/1/10 150/1/10 147/1/10
f 154/1/11 156/1/11 150/1/11
f 153/1/12 152/1/12 156/1/12
f 151/1/13 153/1/13 164/1/13
f 166/1/14 168/1/14 155/1/14
f 165/1/15 164/1/15 168/1/15
f 163/1/16 165/1/16 158/1/16
f 160/1/17 162/1/17 167/1/17
f 159/1/18 158/1/18 162/1/18
f 157/1/19 159/1/19 146/1/19
f 149/1/20 148/1/20 161/1/20
f 163/1/21 157/1/21 145/1/21
f 150/1/22 156/1/22 152/1/22
f 161/1/23 148/1/23 146/1/23
f 154/1/24 149/1/24 160/1/24
f 155/1/25 168/1/25 164/1/25
f 167/1/26 162/1/26 158/1/26
f 169/1/9 171/1/9 176/1/9
f 172/1/10 174/1/10 171/1/10
f 178/1/11 180/1/11 174/1/11
f 177/1/12 176/1/12 180/1/12
f 175/1/13 177/1/13 188/1/13
f 190/1/14 192/1/14 179/1/14
f 189/1/15 188/1/15 192/1/15
f 187/1/16 189/1/16 182/1/16
f 184/1/17 186/1/17 191/1/17
f 183/1/18 182/1/18 186/1/18
f 181/1/19 183/1/19 170/1/19
f 173/1/20 172/1/20 185/1/20
f 187/1/21 181/1/21 169/1/21
f 174/1/22 180/1/22 176/1/22
f 185/1/23 172/1/23 170/1/23
f 178/1/24 173/1/24 184/1/24
f 179/1/25 192/1/25 188/1/25
f 191/1/26 186/1/26 182/1/26
f 193/1/9 195/1/9 200/1/9
f 196/1/10 198/1/10 195/1/10
f 202/1/11 204/1/11 198/1/11
f 201/1/12 200/1/12 204/1/12
f 199/1/13 201/1/13 212/1/13
f 214/1/14 216/1/14 203/1/14
f 213/1/15 212/1/15 216/1/15
f 211/1/16 213/1/16 206/1/16
f 208/1/17 210/1/17 215/1/17
f 207/1/18 206/1/18 210/1/18
f 205/1/19 207/1/19 194/1/19
f 197/1/20 196/1/20 209/1/20
f 211/1/21 205/1/21 193/1/21
f 198/1/22 204/1/22 200/1/22
f 209/1/23 196/1/23 194/1/23
f 202/1/24 197/1/24 208/1/24
f 203/1/25 216/1/25 212/1/25
f 215/1/26 210/1/26 206/1/26
f 217/1/9 219/1/9 224/1/9
f 220/1/10 222/1/10 219/1/10
f 226/1/11 228/1/11 222/1/11
f 225/1/12 224/1/12 228/1/12
f 223/1/13 225/1/13 236/1/13
f 238/1/14 240/1/14 227/1/14
f 237/1/15 236/1/15 240/1/15
f 235/1/16 237/1/16 230/1/16
f 232/1/17 234/1/17 239/1/17
f 231/1/18 230/1/18 234/1/18
f 229/1/19 231/1/19 218/1/19
f 221/1/20 220/1/20 233/1/20
f 235/1/21 229/1/21 217/1/21
f 222/1/22 228/1/22 224/1/22
f 233/1/23 220/1/23 218/1/23
f 226/1/24 221/1/24 232/1/24
f 227/1/25 240/1/25 236/1/25
f 239/1/26 234/1/26 230/1/26
f 241/1/9 243/1/9 248/1/9
f 244/1/10 246/1/10 243/1/10
f 250/1/11 252/1/11 246/1/11
f 249/1/12 248/1/12 252/1/12
f 247/1/13 249/1/13 260/1/13
f 262/1/14 264/1/14 251/1/14
f 261/1/15 260/1/15 264/1/15
f 259/1/16 261/1/16 254/1/16
f 256/1/17 258/1/17 263/1/17
f 255/1/18 254/1/18 258/1/18
f 253/1/19 255/1/19 242/1/19
f 245/1/20 244/1/20 257/1/20
f 259/1/21 253/1/21 241/1/21
f 246/1/22 252/1/22 248/1/22
f 257/1/23 244/1/23 242/1/23
f 250/1/24 245/1/24 256/1/24
f 251/1/25 264/1/25 260/1/25
f 263/1/26 258/1/26 254/1/26
f 265/1/9 267/1/9 272/1/9
f 268/1/10 270/1/10 267/1/10
f 274/1/11 276/1/11 270/1/11
f 273/1/12 272/1/12 276/1/12
f 271/1/13 273/1/13 284/1/13
f 286/1/14 288/1/14 275/1/14
f 285/1/15 284/1/15 288/1/15
f 283/1/16 285/1/16 278/1/16
f 280/1/17 282/1/17 287/1/17
f 279/1/18 278/1/18 282/1/18
f 277/1/19 279/1/19 266/1/19
f 269/1/20 268/1/20 281/1/20
f 283/1/21 277/1/21 265/1/21
f 270/1/22 276/1/22 272/1/22
f 281/1/23 268/1/23 266/1/23
f 274/1/24 269/1/24 280/1/24
f 275/1/25 288/1/25 284/1/25
f 287/1/26 282/1/26 278/1/26
f 289/1/9 291/1/9 296/1/9
f 292/1/10 294/1/10 291/1/10
f 298/1/11 300/1/11 294/1/11
f 297/1/12 296/1/12 300/1/12
f 295/1/13 297/1/13 308/1/13
f 310/1/14 312/1/14 299/1/14
f 309/1/15 308/1/15 312/1/15
f 307/1/16 309/1/16 302/1/16
f 304/1/17 306/1/17 311/1/17
f 303/1/18 302/1/18 306/1/18
f 301/1/19 303/1/19 290/1/19
f 293/1/20 292/1/20 305/1/20
f 307/1/21 301/1/21 289/1/21
f 294/1/22 300/1/22 296/1/22
f 305/1/23 292/1/23 290/1/23
f 298/1/24 293/1/24 304/1/24
f 299/1/25 312/1/25 308/1/25
f 311/1/26 306/1/26 302/1/26
