# Blender 5.2.1 LTS
# www.blender.org
mtllib loot_relic.mtl
o loot_relic
v 0.000000 0.000000 -0.550000
v 0.000000 0.280000 -0.550000
v 0.275000 0.000000 -0.476314
v 0.275000 0.280000 -0.476314
v 0.476314 0.000000 -0.275000
v 0.476314 0.280000 -0.275000
v 0.550000 0.000000 0.000000
v 0.550000 0.280000 0.000000
v 0.476314 0.000000 0.275000
v 0.476314 0.280000 0.275000
v 0.275000 0.000000 0.476314
v 0.275000 0.280000 0.476314
v 0.000000 0.000000 0.550000
v 0.000000 0.280000 0.550000
v -0.275000 0.000000 0.476314
v -0.275000 0.280000 0.476314
v -0.476314 0.000000 0.275000
v -0.476314 0.280000 0.275000
v -0.550000 0.000000 0.000000
v -0.550000 0.280000 0.000000
v -0.476314 0.000000 -0.275000
v -0.476314 0.280000 -0.275000
v -0.275000 0.000000 -0.476314
v -0.275000 0.280000 -0.476314
v 0.000000 0.270000 -0.470000
v 0.000000 0.350000 -0.470000
v 0.235000 0.270000 -0.407032
v 0.235000 0.350000 -0.407032
v 0.407032 0.270000 -0.235000
v 0.407032 0.350000 -0.235000
v 0.470000 0.270000 0.000000
v 0.470000 0.350000 0.000000
v 0.407032 0.270000 0.235000
v 0.407032 0.350000 0.235000
v 0.235000 0.270000 0.407032
v 0.235000 0.350000 0.407032
v 0.000000 0.270000 0.470000
v 0.000000 0.350000 0.470000
v -0.235000 0.270000 0.407032
v -0.235000 0.350000 0.407032
v -0.407032 0.270000 0.235000
v -0.407032 0.350000 0.235000
v -0.470000 0.270000 0.000000
v -0.470000 0.350000 0.000000
v -0.407032 0.270000 -0.235000
v -0.407032 0.350000 -0.235000
v -0.235000 0.270000 -0.407032
v -0.235000 0.350000 -0.407032
v 0.000000 0.200000 0.000000
v 0.180900 0.421114 0.131430
v -0.069096 0.421114 0.212660
v -0.223606 0.421114 0.000000
v -0.069096 0.421114 -0.212660
v 0.180900 0.421114 -0.131430
v 0.069096 0.778886 0.212660
v -0.180900 0.778886 0.131430
v -0.180900 0.778886 -0.131430
v 0.069096 0.778886 -0.212660
v 0.223606 0.778886 0.000000
v 0.000000 1.000000 0.000000
v 0.000000 0.293157 0.355523
v 0.000000 0.943157 0.255523
v 0.031820 0.295162 0.368550
v 0.031820 0.945162 0.268550
v 0.045000 0.300000 0.400000
v 0.045000 0.950000 0.300000
v 0.031820 0.304838 0.431450
v 0.031820 0.954838 0.331450
v 0.000000 0.306843 0.444477
v 0.000000 0.956843 0.344477
v -0.031820 0.304838 0.431450
v -0.031820 0.954838 0.331450
v -0.045000 0.300000 0.400000
v -0.045000 0.950000 0.300000
v -0.031820 0.295162 0.368550
v -0.031820 0.945162 0.268550
v 0.346637 0.296579 0.155131
v 0.260034 0.946579 0.105131
v 0.378113 0.301771 0.168112
v 0.291510 0.951771 0.118112
v 0.391018 0.305926 0.199773
v 0.304415 0.955926 0.149773
v 0.377792 0.306609 0.231567
v 0.291190 0.956609 0.181567
v 0.346184 0.303421 0.244869
v 0.259581 0.953421 0.194869
v 0.314708 0.298229 0.231888
v 0.228105 0.948229 0.181888
v 0.301803 0.294074 0.200227
v 0.215200 0.944074 0.150227
v 0.315028 0.293391 0.168433
v 0.228426 0.943391 0.118433
v 0.346184 0.303421 -0.244869
v 0.259581 0.953421 -0.194869
v 0.377792 0.306609 -0.231567
v 0.291190 0.956609 -0.181567
v 0.391018 0.305926 -0.199773
v 0.304415 0.955926 -0.149773
v 0.378113 0.301771 -0.168112
v 0.291510 0.951771 -0.118112
v 0.346637 0.296579 -0.155131
v 0.260034 0.946579 -0.105131
v 0.315028 0.293391 -0.168433
v 0.228426 0.943391 -0.118433
v 0.301803 0.294074 -0.200227
v 0.215200 0.944074 -0.150227
v 0.314708 0.298229 -0.231888
v 0.228105 0.948229 -0.181888
v 0.000000 0.306843 -0.444477
v 0.000000 0.956843 -0.344477
v 0.031820 0.304838 -0.431450
v 0.031820 0.954838 -0.331450
v 0.045000 0.300000 -0.400000
v 0.045000 0.950000 -0.300000
v 0.031820 0.295162 -0.368550
v 0.031820 0.945162 -0.268550
v 0.000000 0.293157 -0.355523
v 0.000000 0.943157 -0.255523
v -0.031820 0.295162 -0.368550
v -0.031820 0.945162 -0.268550
v -0.045000 0.300000 -0.400000
v -0.045000 0.950000 -0.300000
v -0.031820 0.304838 -0.431450
v -0.031820 0.954838 -0.331450
v -0.346184 0.303421 -0.244869
v -0.259581 0.953421 -0.194869
v -0.314708 0.298229 -0.231888
v -0.228105 0.948229 -0.181888
v -0.301803 0.294074 -0.200227
v -0.215200 0.944074 -0.150227
v -0.315028 0.293391 -0.168433
v -0.228426 0.943391 -0.118433
v -0.346637 0.296579 -0.155131
v -0.260034 0.946579 -0.105131
v -0.378113 0.301771 -0.168112
v -0.291510 0.951771 -0.118112
v -0.391018 0.305926 -0.199773
v -0.304415 0.955926 -0.149773
v -0.377792 0.306609 -0.231567
v -0.291190 0.956609 -0.181567
v -0.346637 0.296579 0.155131
v -0.260034 0.946579 0.105131
v -0.315028 0.293391 0.168433
v -0.228426 0.943391 0.118433
v -0.301803 0.294074 0.200227
v -0.215200 0.944074 0.150227
v -0.314708 0.298229 0.231888
v -0.228105 0.948229 0.181888
v -0.346184 0.303421 0.244869
v -0.259581 0.953421 0.194869
v -0.377792 0.306609 0.231567
v -0.291190 0.956609 0.181567
v -0.391018 0.305926 0.199773
v -0.304415 0.955926 0.149773
v -0.378113 0.301771 0.168112
v -0.291510 0.951771 0.118112
v 0.000000 0.955000 -0.340000
v 0.000000 1.045000 -0.340000
v 0.170000 0.955000 -0.294449
v 0.170000 1.045000 -0.294449
v 0.294449 0.955000 -0.170000
v 0.294449 1.045000 -0.170000
v 0.340000 0.955000 0.000000
v 0.340000 1.045000 0.000000
v 0.294449 0.955000 0.170000
v 0.294449 1.045000 0.170000
v 0.170000 0.955000 0.294449
v 0.170000 1.045000 0.294449
v 0.000000 0.955000 0.340000
v 0.000000 1.045000 0.340000
v -0.170000 0.955000 0.294449
v -0.170000 1.045000 0.294449
v -0.294449 0.955000 0.170000
v -0.294449 1.045000 0.170000
v -0.340000 0.955000 0.000000
v -0.340000 1.045000 0.000000
v -0.294449 0.955000 -0.170000
v -0.294449 1.045000 -0.170000
v -0.170000 0.955000 -0.294449
v -0.170000 1.045000 -0.294449
vn 0.2588 -0.0000 -0.9659
vn 0.7071 -0.0000 -0.7071
vn 0.9659 -0.0000 -0.2588
vn 0.9659 -0.0000 0.2588
vn 0.7071 -0.0000 0.7071
vn 0.2588 -0.0000 0.9659
vn -0.2588 -0.0000 0.9659
vn -0.7071 -0.0000 0.7071
vn -0.9659 -0.0000 0.2588
vn -0.9659 -0.0000 -0.2588
vn -0.0000 1.0000 -0.0000
vn -0.7071 -0.0000 -0.7071
vn -0.2588 -0.0000 -0.9659
vn -0.0000 -1.0000 -0.0000
vn 0.2392 -0.6332 0.7361
vn 0.7740 -0.6332 -0.0000
vn -0.6262 -0.6332 0.4549
vn -0.6262 -0.6332 -0.4549
vn 0.2392 -0.6332 -0.7361
vn 0.9930 -0.1185 -0.0000
vn 0.3068 -0.1185 0.9444
vn -0.8033 -0.1185 0.5837
vn -0.8033 -0.1185 -0.5837
vn 0.3068 -0.1185 -0.9444
vn 0.8033 0.1185 0.5837
vn -0.3068 0.1185 0.9444
vn -0.9930 0.1185 -0.0000
vn -0.3068 0.1185 -0.9444
vn 0.8033 0.1185 -0.5837
vn 0.6262 0.6332 0.4549
vn -0.2392 0.6332 0.7361
vn -0.7740 0.6332 -0.0000
vn -0.2392 0.6332 -0.7361
vn 0.6262 0.6332 -0.4549
vn 0.3827 -0.1405 -0.9131
vn 0.9239 -0.0582 -0.3782
vn 0.9239 0.0582 0.3782
vn 0.3827 0.1405 0.9131
vn -0.3827 0.1405 0.9131
vn -0.9239 0.0582 0.3782
vn -0.0000 0.9884 -0.1521
vn -0.9239 -0.0582 -0.3782
vn -0.3827 -0.1405 -0.9131
vn -0.0000 -0.9884 0.1521
vn 0.3840 -0.0198 -0.9231
vn 0.9177 0.0926 -0.3862
vn 0.9139 0.1508 0.3769
vn 0.3747 0.1206 0.9193
vn -0.3840 0.0198 0.9231
vn -0.9177 -0.0926 0.3862
vn -0.1317 0.9884 -0.0760
vn -0.9139 -0.1508 -0.3769
vn -0.3747 -0.1206 -0.9193
vn 0.1317 -0.9884 0.0760
vn 0.3747 0.1206 -0.9193
vn 0.9139 0.1508 -0.3769
vn 0.9177 0.0926 0.3862
vn 0.3840 -0.0198 0.9231
vn -0.3747 -0.1206 0.9193
vn -0.9139 -0.1508 0.3769
vn -0.1317 0.9884 0.0760
vn -0.9177 -0.0926 -0.3862
vn -0.3840 0.0198 -0.9231
vn 0.1317 -0.9884 -0.0760
vn 0.3827 0.1405 -0.9131
vn 0.9239 0.0582 -0.3782
vn 0.9239 -0.0582 0.3782
vn 0.3827 -0.1405 0.9131
vn -0.3827 -0.1405 0.9131
vn -0.9239 -0.0582 0.3782
vn -0.0000 0.9884 0.1521
vn -0.9239 0.0582 -0.3782
vn -0.3827 0.1405 -0.9131
vn -0.0000 -0.9884 -0.1521
vn 0.3840 0.0198 -0.9231
vn 0.9177 -0.0926 -0.3862
vn 0.9139 -0.1508 0.3769
vn 0.3747 -0.1206 0.9193
vn -0.3840 -0.0198 0.9231
vn -0.9177 0.0926 0.3862
vn 0.1317 0.9884 0.0760
vn -0.9139 0.1508 -0.3769
vn -0.3747 0.1206 -0.9193
vn -0.1317 -0.9884 -0.0760
vn 0.3747 -0.1206 -0.9193
vn 0.9139 -0.1508 -0.3769
vn 0.9177 -0.0926 0.3862
vn 0.3840 0.0198 0.9231
vn -0.3747 0.1206 0.9193
vn -0.9139 0.1508 0.3769
vn 0.1317 0.9884 -0.0760
vn -0.9177 0.0926 -0.3862
vn -0.3840 -0.0198 -0.9231
vn -0.1317 -0.9884 0.0760
vt 0.875000 0.125000
vt 0.375000 0.875000
vt 0.875000 0.375000
vt 0.125000 0.625000
s 0
usemtl WorldPickupPalette
f 2/1/1 3/1/1 1/1/1
f 4/1/2 5/1/2 3/1/2
f 6/1/3 7/1/3 5/1/3
f 8/1/4 9/1/4 7/1/4
f 10/1/5 11/1/5 9/1/5
f 12/1/6 13/1/6 11/1/6
f 14/1/7 15/1/7 13/1/7
f 16/1/8 17/1/8 15/1/8
f 18/1/9 19/1/9 17/1/9
f 20/1/10 21/1/10 19/1/10
f 22/1/11 14/1/11 6/1/11
f 22/1/12 23/1/12 21/1/12
f 24/1/13 1/1/13 23/1/13
f 7/1/14 15/1/14 23/1/14
f 26/2/1 27/2/1 25/2/1
f 28/2/2 29/2/2 27/2/2
f 30/2/3 31/2/3 29/2/3
f 32/2/4 33/2/4 31/2/4
f 34/2/5 35/2/5 33/2/5
f 36/2/6 37/2/6 35/2/6
f 38/2/7 39/2/7 37/2/7
f 40/2/8 41/2/8 39/2/8
f 42/2/9 43/2/9 41/2/9
f 44/2/10 45/2/10 43/2/10
f 46/2/11 38/2/11 30/2/11
f 46/2/12 47/2/12 45/2/12
f 48/2/13 25/2/13 47/2/13
f 31/2/14 39/2/14 47/2/14
f 49/3/15 50/3/15 51/3/15
f 50/3/16 49/3/16 54/3/16
f 49/3/17 51/3/17 52/3/17
f 49/3/18 52/3/18 53/3/18
f 49/3/19 53/3/19 54/3/19
f 50/3/20 54/3/20 59/3/20
f 51/3/21 50/3/21 55/3/21
f 52/3/22 51/3/22 56/3/22
f 53/3/23 52/3/23 57/3/23
f 54/3/24 53/3/24 58/3/24
f 50/3/25 59/3/25 55/3/25
f 51/3/26 55/3/26 56/3/26
f 52/3/27 56/3/27 57/3/27
f 53/3/28 57/3/28 58/3/28
f 54/3/29 58/3/29 59/3/29
f 55/3/30 59/3/30 60/3/30
f 56/3/31 55/3/31 60/3/31
f 57/3/32 56/3/32 60/3/32
f 58/3/33 57/3/33 60/3/33
f 59/3/34 58/3/34 60/3/34
f 62/4/35 63/4/35 61/4/35
f 63/4/36 66/4/36 65/4/36
f 66/4/37 67/4/37 65/4/37
f 68/4/38 69/4/38 67/4/38
f 70/4/39 71/4/39 69/4/39
f 71/4/40 74/4/40 73/4/40
f 62/4/41 74/4/41 70/4/41
f 74/4/42 75/4/42 73/4/42
f 76/4/43 61/4/43 75/4/43
f 71/4/44 73/4/44 75/4/44
f 78/4/45 79/4/45 77/4/45
f 79/4/46 82/4/46 81/4/46
f 82/4/47 83/4/47 81/4/47
f 83/4/48 86/4/48 85/4/48
f 85/4/49 88/4/49 87/4/49
f 88/4/50 89/4/50 87/4/50
f 90/4/51 86/4/51 82/4/51
f 90/4/52 91/4/52 89/4/52
f 92/4/53 77/4/53 91/4/53
f 79/4/54 83/4/54 87/4/54
f 94/4/55 95/4/55 93/4/55
f 96/4/56 97/4/56 95/4/56
f 98/4/57 99/4/57 97/4/57
f 100/4/58 101/4/58 99/4/58
f 102/4/59 103/4/59 101/4/59
f 103/4/60 106/4/60 105/4/60
f 102/4/61 100/4/61 98/4/61
f 105/4/62 108/4/62 107/4/62
f 108/4/63 93/4/63 107/4/63
f 99/4/64 103/4/64 107/4/64
f 110/4/65 111/4/65 109/4/65
f 111/4/66 114/4/66 113/4/66
f 114/4/67 115/4/67 113/4/67
f 116/4/68 117/4/68 115/4/68
f 118/4/69 119/4/69 117/4/69
f 119/4/70 122/4/70 121/4/70
f 110/4/71 122/4/71 118/4/71
f 122/4/72 123/4/72 121/4/72
f 124/4/73 109/4/73 123/4/73
f 115/4/74 119/4/74 123/4/74
f 125/4/75 128/4/75 127/4/75
f 128/4/76 129/4/76 127/4/76
f 130/4/77 131/4/77 129/4/77
f 132/4/78 133/4/78 131/4/78
f 134/4/79 135/4/79 133/4/79
f 135/4/80 138/4/80 137/4/80
f 130/4/81 126/4/81 138/4/81
f 138/4/82 139/4/82 137/4/82
f 139/4/83 126/4/83 125/4/83
f 139/4/84 127/4/84 131/4/84
f 142/4/85 143/4/85 141/4/85
f 143/4/86 146/4/86 145/4/86
f 145/4/87 148/4/87 147/4/87
f 148/4/88 149/4/88 147/4/88
f 150/4/89 151/4/89 149/4/89
f 152/4/90 153/4/90 151/4/90
f 154/4/91 150/4/91 146/4/91
f 154/4/92 155/4/92 153/4/92
f 156/4/93 141/4/93 155/4/93
f 143/4/94 147/4/94 151/4/94
f 158/2/1 159/2/1 157/2/1
f 160/2/2 161/2/2 159/2/2
f 162/2/3 163/2/3 161/2/3
f 164/2/4 165/2/4 163/2/4
f 166/2/5 167/2/5 165/2/5
f 168/2/6 169/2/6 167/2/6
f 170/2/7 171/2/7 169/2/7
f 172/2/8 173/2/8 171/2/8
f 174/2/9 175/2/9 173/2/9
f 176/2/10 177/2/10 175/2/10
f 158/2/11 178/2/11 170/2/11
f 178/2/12 179/2/12 177/2/12
f 180/2/13 157/2/13 179/2/13
f 171/2/14 175/2/14 179/2/14
f 2/1/1 4/1/1 3/1/1
f 4/1/2 6/1/2 5/1/2
f 6/1/3 8/1/3 7/1/3
f 8/1/4 10/1/4 9/1/4
f 10/1/5 12/1/5 11/1/5
f 12/1/6 14/1/6 13/1/6
f 14/1/7 16/1/7 15/1/7
f 16/1/8 18/1/8 17/1/8
f 18/1/9 20/1/9 19/1/9
f 20/1/10 22/1/10 21/1/10
f 6/1/11 4/1/11 2/1/11
f 2/1/11 24/1/11 6/1/11
f 24/1/11 22/1/11 6/1/11
f 22/1/11 20/1/11 18/1/11
f 18/1/11 16/1/11 14/1/11
f 14/1/11 12/1/11 10/1/11
f 10/1/11 8/1/11 6/1/11
f 22/1/11 18/1/11 14/1/11
f 14/1/11 10/1/11 6/1/11
f 22/1/12 24/1/12 23/1/12
f 24/1/13 2/1/13 1/1/13
f 23/1/14 1/1/14 3/1/14
f 3/1/14 5/1/14 7/1/14
f 7/1/14 9/1/14 11/1/14
f 11/1/14 13/1/14 15/1/14
f 15/1/14 17/1/14 19/1/14
f 19/1/14 21/1/14 15/1/14
f 21/1/14 23/1/14 15/1/14
f 23/1/14 3/1/14 7/1/14
f 7/1/14 11/1/14 15/1/14
f 26/2/1 28/2/1 27/2/1
f 28/2/2 30/2/2 29/2/2
f 30/2/3 32/2/3 31/2/3
f 32/2/4 34/2/4 33/2/4
f 34/2/5 36/2/5 35/2/5
f 36/2/6 38/2/6 37/2/6
f 38/2/7 40/2/7 39/2/7
f 40/2/8 42/2/8 41/2/8
f 42/2/9 44/2/9 43/2/9
f 44/2/10 46/2/10 45/2/10
f 30/2/11 28/2/11 26/2/11
f 26/2/11 48/2/11 30/2/11
f 48/2/11 46/2/11 30/2/11
f 46/2/11 44/2/11 42/2/11
f 42/2/11 40/2/11 38/2/11
f 38/2/11 36/2/11 30/2/11
f 36/2/11 34/2/11 30/2/11
f 34/2/11 32/2/11 30/2/11
f 46/2/11 42/2/11 38/2/11
f 46/2/12 48/2/12 47/2/12
f 48/2/13 26/2/13 25/2/13
f 47/2/14 25/2/14 27/2/14
f 27/2/14 29/2/14 31/2/14
f 31/2/14 33/2/14 39/2/14
f 33/2/14 35/2/14 39/2/14
f 35/2/14 37/2/14 39/2/14
f 39/2/14 41/2/14 43/2/14
f 43/2/14 45/2/14 39/2/14
f 45/2/14 47/2/14 39/2/14
f 47/2/14 27/2/14 31/2/14
f 62/4/35 64/4/35 63/4/35
f 63/4/36 64/4/36 66/4/36
f 66/4/37 68/4/37 67/4/37
f 68/4/38 70/4/38 69/4/38
f 70/4/39 72/4/39 71/4/39
f 71/4/40 72/4/40 74/4/40
f 66/4/41 64/4/41 62/4/41
f 62/4/41 76/4/41 74/4/41
f 74/4/41 72/4/41 70/4/41
f 70/4/41 68/4/41 66/4/41
f 66/4/41 62/4/41 70/4/41
f 74/4/42 76/4/42 75/4/42
f 76/4/43 62/4/43 61/4/43
f 75/4/44 61/4/44 67/4/44
f 61/4/44 63/4/44 67/4/44
f 63/4/44 65/4/44 67/4/44
f 67/4/44 69/4/44 75/4/44
f 69/4/44 71/4/44 75/4/44
f 78/4/45 80/4/45 79/4/45
f 79/4/46 80/4/46 82/4/46
f 82/4/47 84/4/47 83/4/47
f 83/4/48 84/4/48 86/4/48
f 85/4/49 86/4/49 88/4/49
f 88/4/50 90/4/50 89/4/50
f 82/4/51 80/4/51 78/4/51
f 78/4/51 92/4/51 82/4/51
f 92/4/51 90/4/51 82/4/51
f 90/4/51 88/4/51 86/4/51
f 86/4/51 84/4/51 82/4/51
f 90/4/52 92/4/52 91/4/52
f 92/4/53 78/4/53 77/4/53
f 91/4/54 77/4/54 79/4/54
f 79/4/54 81/4/54 83/4/54
f 83/4/54 85/4/54 87/4/54
f 87/4/54 89/4/54 91/4/54
f 91/4/54 79/4/54 87/4/54
f 94/4/55 96/4/55 95/4/55
f 96/4/56 98/4/56 97/4/56
f 98/4/57 100/4/57 99/4/57
f 100/4/58 102/4/58 101/4/58
f 102/4/59 104/4/59 103/4/59
f 103/4/60 104/4/60 106/4/60
f 98/4/61 96/4/61 106/4/61
f 96/4/61 94/4/61 106/4/61
f 94/4/61 108/4/61 106/4/61
f 106/4/61 104/4/61 98/4/61
f 104/4/61 102/4/61 98/4/61
f 105/4/62 106/4/62 108/4/62
f 108/4/63 94/4/63 93/4/63
f 107/4/64 93/4/64 95/4/64
f 95/4/64 97/4/64 107/4/64
f 97/4/64 99/4/64 107/4/64
f 99/4/64 101/4/64 103/4/64
f 103/4/64 105/4/64 107/4/64
f 110/4/65 112/4/65 111/4/65
f 111/4/66 112/4/66 114/4/66
f 114/4/67 116/4/67 115/4/67
f 116/4/68 118/4/68 117/4/68
f 118/4/69 120/4/69 119/4/69
f 119/4/70 120/4/70 122/4/70
f 114/4/71 112/4/71 110/4/71
f 110/4/71 124/4/71 122/4/71
f 122/4/71 120/4/71 118/4/71
f 118/4/71 116/4/71 114/4/71
f 114/4/71 110/4/71 118/4/71
f 122/4/72 124/4/72 123/4/72
f 124/4/73 110/4/73 109/4/73
f 123/4/74 109/4/74 111/4/74
f 111/4/74 113/4/74 115/4/74
f 115/4/74 117/4/74 119/4/74
f 119/4/74 121/4/74 123/4/74
f 123/4/74 111/4/74 115/4/74
f 125/4/75 126/4/75 128/4/75
f 128/4/76 130/4/76 129/4/76
f 130/4/77 132/4/77 131/4/77
f 132/4/78 134/4/78 133/4/78
f 134/4/79 136/4/79 135/4/79
f 135/4/80 136/4/80 138/4/80
f 130/4/81 128/4/81 126/4/81
f 126/4/81 140/4/81 138/4/81
f 138/4/81 136/4/81 134/4/81
f 134/4/81 132/4/81 138/4/81
f 132/4/81 130/4/81 138/4/81
f 138/4/82 140/4/82 139/4/82
f 139/4/83 140/4/83 126/4/83
f 139/4/84 125/4/84 127/4/84
f 127/4/84 129/4/84 131/4/84
f 131/4/84 133/4/84 135/4/84
f 135/4/84 137/4/84 131/4/84
f 137/4/84 139/4/84 131/4/84
f 142/4/85 144/4/85 143/4/85
f 143/4/86 144/4/86 146/4/86
f 145/4/87 146/4/87 148/4/87
f 148/4/88 150/4/88 149/4/88
f 150/4/89 152/4/89 151/4/89
f 152/4/90 154/4/90 153/4/90
f 146/4/91 144/4/91 154/4/91
f 144/4/91 142/4/91 154/4/91
f 142/4/91 156/4/91 154/4/91
f 154/4/91 152/4/91 150/4/91
f 150/4/91 148/4/91 146/4/91
f 154/4/92 156/4/92 155/4/92
f 156/4/93 142/4/93 141/4/93
f 155/4/94 141/4/94 143/4/94
f 143/4/94 145/4/94 147/4/94
f 147/4/94 149/4/94 151/4/94
f 151/4/94 153/4/94 155/4/94
f 155/4/94 143/4/94 151/4/94
f 158/2/1 160/2/1 159/2/1
f 160/2/2 162/2/2 161/2/2
f 162/2/3 164/2/3 163/2/3
f 164/2/4 166/2/4 165/2/4
f 166/2/5 168/2/5 167/2/5
f 168/2/6 170/2/6 169/2/6
f 170/2/7 172/2/7 171/2/7
f 172/2/8 174/2/8 173/2/8
f 174/2/9 176/2/9 175/2/9
f 176/2/10 178/2/10 177/2/10
f 162/2/11 160/2/11 158/2/11
f 158/2/11 180/2/11 178/2/11
f 178/2/11 176/2/11 174/2/11
f 174/2/11 172/2/11 178/2/11
f 172/2/11 170/2/11 178/2/11
f 170/2/11 168/2/11 162/2/11
f 168/2/11 166/2/11 162/2/11
f 166/2/11 164/2/11 162/2/11
f 162/2/11 158/2/11 170/2/11
f 178/2/12 180/2/12 179/2/12
f 180/2/13 158/2/13 157/2/13
f 179/2/14 157/2/14 159/2/14
f 159/2/14 161/2/14 163/2/14
f 163/2/14 165/2/14 167/2/14
f 167/2/14 169/2/14 163/2/14
f 169/2/14 171/2/14 163/2/14
f 171/2/14 173/2/14 175/2/14
f 175/2/14 177/2/14 179/2/14
f 179/2/14 159/2/14 171/2/14
f 159/2/14 163/2/14 171/2/14
