# Blender 5.2.1 LTS
# www.blender.org
mtllib loot_repair_kit.mtl
o loot_repair_kit
v -0.645000 0.020000 0.330000
v -0.645000 0.100000 0.410000
v -0.725000 0.100000 0.330000
v -0.645000 0.640000 0.410000
v -0.645000 0.720000 0.330000
v -0.725000 0.640000 0.330000
v -0.645000 0.020000 -0.330000
v -0.725000 0.100000 -0.330000
v -0.645000 0.100000 -0.410000
v -0.645000 0.720000 -0.330000
v -0.645000 0.640000 -0.410000
v -0.725000 0.640000 -0.330000
v 0.645000 0.020000 0.330000
v 0.725000 0.100000 0.330000
v 0.645000 0.100000 0.410000
v 0.645000 0.720000 0.330000
v 0.645000 0.640000 0.410000
v 0.725000 0.640000 0.330000
v 0.645000 0.020000 -0.330000
v 0.645000 0.100000 -0.410000
v 0.725000 0.100000 -0.330000
v 0.645000 0.720000 -0.330000
v 0.725000 0.640000 -0.330000
v 0.645000 0.640000 -0.410000
v -0.587000 0.055000 0.432000
v -0.587000 0.063000 0.440000
v -0.595000 0.063000 0.432000
v -0.587000 0.697000 0.440000
v -0.587000 0.705000 0.432000
v -0.595000 0.697000 0.432000
v -0.587000 0.055000 0.408000
v -0.595000 0.063000 0.408000
v -0.587000 0.063000 0.400000
v -0.587000 0.705000 0.408000
v -0.587000 0.697000 0.400000
v -0.595000 0.697000 0.408000
v -0.513000 0.055000 0.432000
v -0.505000 0.063000 0.432000
v -0.513000 0.063000 0.440000
v -0.513000 0.705000 0.432000
v -0.513000 0.697000 0.440000
v -0.505000 0.697000 0.432000
v -0.513000 0.055000 0.408000
v -0.513000 0.063000 0.400000
v -0.505000 0.063000 0.408000
v -0.513000 0.705000 0.408000
v -0.505000 0.697000 0.408000
v -0.513000 0.697000 0.400000
v -0.608000 0.500000 0.478000
v -0.608000 0.512000 0.490000
v -0.620000 0.512000 0.478000
v -0.608000 0.648000 0.490000
v -0.608000 0.660000 0.478000
v -0.620000 0.648000 0.478000
v -0.608000 0.500000 0.442000
v -0.620000 0.512000 0.442000
v -0.608000 0.512000 0.430000
v -0.608000 0.660000 0.442000
v -0.608000 0.648000 0.430000
v -0.620000 0.648000 0.442000
v -0.492000 0.500000 0.478000
v -0.480000 0.512000 0.478000
v -0.492000 0.512000 0.490000
v -0.492000 0.660000 0.478000
v -0.492000 0.648000 0.490000
v -0.480000 0.648000 0.478000
v -0.492000 0.500000 0.442000
v -0.492000 0.512000 0.430000
v -0.480000 0.512000 0.442000
v -0.492000 0.660000 0.442000
v -0.480000 0.648000 0.442000
v -0.492000 0.648000 0.430000
v 0.513000 0.055000 0.432000
v 0.513000 0.063000 0.440000
v 0.505000 0.063000 0.432000
v 0.513000 0.697000 0.440000
v 0.513000 0.705000 0.432000
v 0.505000 0.697000 0.432000
v 0.513000 0.055000 0.408000
v 0.505000 0.063000 0.408000
v 0.513000 0.063000 0.400000
v 0.513000 0.705000 0.408000
v 0.513000 0.697000 0.400000
v 0.505000 0.697000 0.408000
v 0.587000 0.055000 0.432000
v 0.595000 0.063000 0.432000
v 0.587000 0.063000 0.440000
v 0.587000 0.705000 0.432000
v 0.587000 0.697000 0.440000
v 0.595000 0.697000 0.432000
v 0.587000 0.055000 0.408000
v 0.587000 0.063000 0.400000
v 0.595000 0.063000 0.408000
v 0.587000 0.705000 0.408000
v 0.595000 0.697000 0.408000
v 0.587000 0.697000 0.400000
v 0.492000 0.500000 0.478000
v 0.492000 0.512000 0.490000
v 0.480000 0.512000 0.478000
v 0.492000 0.648000 0.490000
v 0.492000 0.660000 0.478000
v 0.480000 0.648000 0.478000
v 0.492000 0.500000 0.442000
v 0.480000 0.512000 0.442000
v 0.492000 0.512000 0.430000
v 0.492000 0.660000 0.442000
v 0.492000 0.648000 0.430000
v 0.480000 0.648000 0.442000
v 0.608000 0.500000 0.478000
v 0.620000 0.512000 0.478000
v 0.608000 0.512000 0.490000
v 0.608000 0.660000 0.478000
v 0.608000 0.648000 0.490000
v 0.620000 0.648000 0.478000
v 0.608000 0.500000 0.442000
v 0.608000 0.512000 0.430000
v 0.620000 0.512000 0.442000
v 0.608000 0.660000 0.442000
v 0.620000 0.648000 0.442000
v 0.608000 0.648000 0.430000
v -0.277000 0.715000 0.042000
v -0.277000 0.733000 0.060000
v -0.295000 0.733000 0.042000
v -0.277000 0.927000 0.060000
v -0.277000 0.945000 0.042000
v -0.295000 0.927000 0.042000
v -0.277000 0.715000 -0.042000
v -0.295000 0.733000 -0.042000
v -0.277000 0.733000 -0.060000
v -0.277000 0.945000 -0.042000
v -0.277000 0.927000 -0.060000
v -0.295000 0.927000 -0.042000
v -0.223000 0.715000 0.042000
v -0.205000 0.733000 0.042000
v -0.223000 0.733000 0.060000
v -0.223000 0.945000 0.042000
v -0.223000 0.927000 0.060000
v -0.205000 0.927000 0.042000
v -0.223000 0.715000 -0.042000
v -0.223000 0.733000 -0.060000
v -0.205000 0.733000 -0.042000
v -0.223000 0.945000 -0.042000
v -0.205000 0.927000 -0.042000
v -0.223000 0.927000 -0.060000
v 0.223000 0.715000 0.042000
v 0.223000 0.733000 0.060000
v 0.205000 0.733000 0.042000
v 0.223000 0.927000 0.060000
v 0.223000 0.945000 0.042000
v 0.205000 0.927000 0.042000
v 0.223000 0.715000 -0.042000
v 0.205000 0.733000 -0.042000
v 0.223000 0.733000 -0.060000
v 0.223000 0.945000 -0.042000
v 0.223000 0.927000 -0.060000
v 0.205000 0.927000 -0.042000
v 0.277000 0.715000 0.042000
v 0.295000 0.733000 0.042000
v 0.277000 0.733000 0.060000
v 0.277000 0.945000 0.042000
v 0.277000 0.927000 0.060000
v 0.295000 0.927000 0.042000
v 0.277000 0.715000 -0.042000
v 0.277000 0.733000 -0.060000
v 0.295000 0.733000 -0.042000
v 0.277000 0.945000 -0.042000
v 0.295000 0.927000 -0.042000
v 0.277000 0.927000 -0.060000
v -0.277000 0.915000 0.042000
v -0.277000 0.933000 0.060000
v -0.295000 0.933000 0.042000
v -0.277000 0.987000 0.060000
v -0.277000 1.005000 0.042000
v -0.295000 0.987000 0.042000
v -0.277000 0.915000 -0.042000
v -0.295000 0.933000 -0.042000
v -0.277000 0.933000 -0.060000
v -0.277000 1.005000 -0.042000
v -0.277000 0.987000 -0.060000
v -0.295000 0.987000 -0.042000
v 0.277000 0.915000 0.042000
v 0.295000 0.933000 0.042000
v 0.277000 0.933000 0.060000
v 0.277000 1.005000 0.042000
v 0.277000 0.987000 0.060000
v 0.295000 0.987000 0.042000
v 0.277000 0.915000 -0.042000
v 0.277000 0.933000 -0.060000
v 0.295000 0.933000 -0.042000
v 0.277000 1.005000 -0.042000
v 0.295000 0.987000 -0.042000
v 0.277000 0.987000 -0.060000
v -0.164000 0.360000 0.439000
v -0.164000 0.366000 0.445000
v -0.170000 0.366000 0.439000
v -0.164000 0.454000 0.445000
v -0.164000 0.460000 0.439000
v -0.170000 0.454000 0.439000
v -0.164000 0.360000 0.421000
v -0.170000 0.366000 0.421000
v -0.164000 0.366000 0.415000
v -0.164000 0.460000 0.421000
v -0.164000 0.454000 0.415000
v -0.170000 0.454000 0.421000
v 0.164000 0.360000 0.439000
v 0.170000 0.366000 0.439000
v 0.164000 0.366000 0.445000
v 0.164000 0.460000 0.439000
v 0.164000 0.454000 0.445000
v 0.170000 0.454000 0.439000
v 0.164000 0.360000 0.421000
v 0.164000 0.366000 0.415000
v 0.170000 0.366000 0.421000
v 0.164000 0.460000 0.421000
v 0.170000 0.454000 0.421000
v 0.164000 0.454000 0.415000
v -0.044000 0.240000 0.459000
v -0.044000 0.246000 0.465000
v -0.050000 0.246000 0.459000
v -0.044000 0.574000 0.465000
v -0.044000 0.580000 0.459000
v -0.050000 0.574000 0.459000
v -0.044000 0.240000 0.441000
v -0.050000 0.246000 0.441000
v -0.044000 0.246000 0.435000
v -0.044000 0.580000 0.441000
v -0.044000 0.574000 0.435000
v -0.050000 0.574000 0.441000
v 0.044000 0.240000 0.459000
v 0.050000 0.246000 0.459000
v 0.044000 0.246000 0.465000
v 0.044000 0.580000 0.459000
v 0.044000 0.574000 0.465000
v 0.050000 0.574000 0.459000
v 0.044000 0.240000 0.441000
v 0.044000 0.246000 0.435000
v 0.050000 0.246000 0.441000
v 0.044000 0.580000 0.441000
v 0.050000 0.574000 0.441000
v 0.044000 0.574000 0.435000
vn -0.5774 -0.5774 0.5774
vn -0.5774 0.5774 0.5774
vn -0.5774 -0.5774 -0.5774
vn -0.5774 0.5774 -0.5774
vn 0.5774 -0.5774 0.5774
vn 0.5774 0.5774 0.5774
vn 0.5774 -0.5774 -0.5774
vn 0.5774 0.5774 -0.5774
vn -0.7071 -0.7071 -0.0000
vn -0.7071 -0.0000 0.7071
vn -0.7071 0.7071 -0.0000
vn -0.7071 -0.0000 -0.7071
vn -0.0000 -0.7071 -0.7071
vn -0.0000 0.7071 -0.7071
vn 0.7071 -0.0000 -0.7071
vn 0.7071 -0.7071 -0.0000
vn 0.7071 0.7071 -0.0000
vn 0.7071 -0.0000 0.7071
vn -0.0000 -0.7071 0.7071
vn -0.0000 0.7071 0.7071
vn -0.0000 -1.0000 -0.0000
vn -1.0000 -0.0000 -0.0000
vn -0.0000 -0.0000 1.0000
vn -0.0000 1.0000 -0.0000
vn -0.0000 -0.0000 -1.0000
vn 1.0000 -0.0000 -0.0000
vn -0.5773 -0.5774 0.5774
vn -0.5773 0.5774 0.5774
vn -0.5773 -0.5773 -0.5774
vn -0.5773 0.5774 -0.5774
vn 0.5774 -0.5774 0.5773
vn 0.5773 0.5774 0.5774
vn 0.5774 -0.5774 -0.5773
vn 0.5773 0.5774 -0.5774
vn -0.5774 -0.5774 0.5773
vn -0.5774 0.5774 0.5773
vn -0.5774 -0.5774 -0.5773
vn -0.5774 0.5774 -0.5773
vn 0.5773 -0.5774 0.5774
vn 0.5773 -0.5773 -0.5774
vn 0.5774 0.5774 0.5773
vn 0.5774 0.5774 -0.5773
vn -0.5774 -0.5773 0.5773
vn -0.5774 -0.5773 -0.5773
vn 0.5774 -0.5773 0.5773
vn 0.5774 -0.5773 -0.5773
vn -0.5773 -0.5773 0.5774
vn -0.5773 -0.5774 -0.5774
vn -0.5773 0.5774 -0.5773
vn 0.5773 -0.5773 0.5774
vn 0.5773 -0.5774 -0.5774
vn 0.5773 0.5774 -0.5773
vn -0.5774 0.5773 0.5773
vn -0.5774 0.5773 -0.5773
vn 0.5774 0.5773 0.5773
vn 0.5774 0.5773 -0.5773
vt 0.625000 0.625000
vt 0.125000 0.625000
vt 0.375000 0.875000
vt 0.875000 0.125000
vt 0.875000 0.875000
s 0
usemtl WorldPickupPalette
f 1/1/1 2/1/1 3/1/1
f 4/1/2 5/1/2 6/1/2
f 7/1/3 8/1/3 9/1/3
f 10/1/4 11/1/4 12/1/4
f 13/1/5 14/1/5 15/1/5
f 16/1/6 17/1/6 18/1/6
f 19/1/7 20/1/7 21/1/7
f 22/1/8 23/1/8 24/1/8
f 1/1/9 8/1/9 7/1/9
f 4/1/10 3/1/10 2/1/10
f 10/1/11 6/1/11 5/1/11
f 9/1/12 12/1/12 11/1/12
f 7/1/13 20/1/13 19/1/13
f 22/1/14 11/1/14 10/1/14
f 21/1/15 24/1/15 23/1/15
f 19/1/16 14/1/16 13/1/16
f 16/1/17 23/1/17 22/1/17
f 15/1/18 18/1/18 17/1/18
f 13/1/19 2/1/19 1/1/19
f 5/1/20 17/1/20 16/1/20
f 19/1/21 1/1/21 7/1/21
f 6/1/22 8/1/22 3/1/22
f 17/1/23 2/1/23 15/1/23
f 10/1/24 16/1/24 22/1/24
f 11/1/25 20/1/25 9/1/25
f 23/1/26 14/1/26 21/1/26
f 25/2/27 26/2/27 27/2/27
f 28/2/28 29/2/28 30/2/28
f 31/2/29 32/2/29 33/2/29
f 34/2/30 35/2/30 36/2/30
f 37/2/31 38/2/31 39/2/31
f 40/2/32 41/2/32 42/2/32
f 43/2/33 44/2/33 45/2/33
f 46/2/34 47/2/34 48/2/34
f 25/2/9 32/2/9 31/2/9
f 28/2/10 27/2/10 26/2/10
f 34/2/11 30/2/11 29/2/11
f 33/2/12 36/2/12 35/2/12
f 31/2/13 44/2/13 43/2/13
f 46/2/14 35/2/14 34/2/14
f 45/2/15 48/2/15 47/2/15
f 43/2/16 38/2/16 37/2/16
f 40/2/17 47/2/17 46/2/17
f 39/2/18 42/2/18 41/2/18
f 37/2/19 26/2/19 25/2/19
f 29/2/20 41/2/20 40/2/20
f 43/2/21 25/2/21 31/2/21
f 30/2/22 32/2/22 27/2/22
f 41/2/23 26/2/23 39/2/23
f 34/2/24 40/2/24 46/2/24
f 35/2/25 44/2/25 33/2/25
f 47/2/26 38/2/26 45/2/26
f 49/3/35 50/3/35 51/3/35
f 52/3/36 53/3/36 54/3/36
f 55/3/37 56/3/37 57/3/37
f 58/3/38 59/3/38 60/3/38
f 61/3/5 62/3/5 63/3/5
f 64/3/6 65/3/6 66/3/6
f 67/3/7 68/3/7 69/3/7
f 70/3/8 71/3/8 72/3/8
f 49/3/9 56/3/9 55/3/9
f 52/3/10 51/3/10 50/3/10
f 58/3/11 54/3/11 53/3/11
f 57/3/12 60/3/12 59/3/12
f 55/3/13 68/3/13 67/3/13
f 70/3/14 59/3/14 58/3/14
f 69/3/15 72/3/15 71/3/15
f 67/3/16 62/3/16 61/3/16
f 64/3/17 71/3/17 70/3/17
f 63/3/18 66/3/18 65/3/18
f 61/3/19 50/3/19 49/3/19
f 53/3/20 65/3/20 64/3/20
f 67/3/21 49/3/21 55/3/21
f 54/3/22 56/3/22 51/3/22
f 65/3/23 50/3/23 63/3/23
f 58/3/24 64/3/24 70/3/24
f 59/3/25 68/3/25 57/3/25
f 71/3/26 62/3/26 69/3/26
f 73/2/35 74/2/35 75/2/35
f 76/2/28 77/2/28 78/2/28
f 79/2/37 80/2/37 81/2/37
f 82/2/30 83/2/30 84/2/30
f 85/2/39 86/2/39 87/2/39
f 88/2/32 89/2/32 90/2/32
f 91/2/40 92/2/40 93/2/40
f 94/2/34 95/2/34 96/2/34
f 73/2/9 80/2/9 79/2/9
f 76/2/10 75/2/10 74/2/10
f 82/2/11 78/2/11 77/2/11
f 81/2/12 84/2/12 83/2/12
f 79/2/13 92/2/13 91/2/13
f 94/2/14 83/2/14 82/2/14
f 93/2/15 96/2/15 95/2/15
f 91/2/16 86/2/16 85/2/16
f 88/2/17 95/2/17 94/2/17
f 87/2/18 90/2/18 89/2/18
f 85/2/19 74/2/19 73/2/19
f 77/2/20 89/2/20 88/2/20
f 91/2/21 73/2/21 79/2/21
f 78/2/22 80/2/22 75/2/22
f 89/2/23 74/2/23 87/2/23
f 82/2/24 88/2/24 94/2/24
f 83/2/25 92/2/25 81/2/25
f 95/2/26 86/2/26 93/2/26
f 97/3/1 98/3/1 99/3/1
f 100/3/2 101/3/2 102/3/2
f 103/3/3 104/3/3 105/3/3
f 106/3/4 107/3/4 108/3/4
f 109/3/31 110/3/31 111/3/31
f 112/3/41 113/3/41 114/3/41
f 115/3/33 116/3/33 117/3/33
f 118/3/42 119/3/42 120/3/42
f 97/3/9 104/3/9 103/3/9
f 100/3/10 99/3/10 98/3/10
f 106/3/11 102/3/11 101/3/11
f 105/3/12 108/3/12 107/3/12
f 103/3/13 116/3/13 115/3/13
f 118/3/14 107/3/14 106/3/14
f 117/3/15 120/3/15 119/3/15
f 115/3/16 110/3/16 109/3/16
f 112/3/17 119/3/17 118/3/17
f 111/3/18 114/3/18 113/3/18
f 109/3/19 98/3/19 97/3/19
f 101/3/20 113/3/20 112/3/20
f 115/3/21 97/3/21 103/3/21
f 102/3/22 104/3/22 99/3/22
f 113/3/23 98/3/23 111/3/23
f 106/3/24 112/3/24 118/3/24
f 107/3/25 116/3/25 105/3/25
f 119/3/26 110/3/26 117/3/26
f 121/4/43 122/4/43 123/4/43
f 124/4/2 125/4/2 126/4/2
f 127/4/44 128/4/44 129/4/44
f 130/4/4 131/4/4 132/4/4
f 133/4/45 134/4/45 135/4/45
f 136/4/32 137/4/32 138/4/32
f 139/4/46 140/4/46 141/4/46
f 142/4/34 143/4/34 144/4/34
f 121/4/9 128/4/9 127/4/9
f 124/4/10 123/4/10 122/4/10
f 130/4/11 126/4/11 125/4/11
f 129/4/12 132/4/12 131/4/12
f 127/4/13 140/4/13 139/4/13
f 142/4/14 131/4/14 130/4/14
f 141/4/15 144/4/15 143/4/15
f 139/4/16 134/4/16 133/4/16
f 136/4/17 143/4/17 142/4/17
f 135/4/18 138/4/18 137/4/18
f 133/4/19 122/4/19 121/4/19
f 125/4/20 137/4/20 136/4/20
f 139/4/21 121/4/21 127/4/21
f 126/4/22 128/4/22 123/4/22
f 137/4/23 122/4/23 135/4/23
f 130/4/24 136/4/24 142/4/24
f 131/4/25 140/4/25 129/4/25
f 143/4/26 134/4/26 141/4/26
f 145/4/43 146/4/43 147/4/43
f 148/4/28 149/4/28 150/4/28
f 151/4/44 152/4/44 153/4/44
f 154/4/30 155/4/30 156/4/30
f 157/4/45 158/4/45 159/4/45
f 160/4/6 161/4/6 162/4/6
f 163/4/46 164/4/46 165/4/46
f 166/4/8 167/4/8 168/4/8
f 145/4/9 152/4/9 151/4/9
f 148/4/10 147/4/10 146/4/10
f 154/4/11 150/4/11 149/4/11
f 153/4/12 156/4/12 155/4/12
f 151/4/13 164/4/13 163/4/13
f 166/4/14 155/4/14 154/4/14
f 165/4/15 168/4/15 167/4/15
f 163/4/16 158/4/16 157/4/16
f 160/4/17 167/4/17 166/4/17
f 159/4/18 162/4/18 161/4/18
f 157/4/19 146/4/19 145/4/19
f 149/4/20 161/4/20 160/4/20
f 163/4/21 145/4/21 151/4/21
f 150/4/22 152/4/22 147/4/22
f 161/4/23 146/4/23 159/4/23
f 154/4/24 160/4/24 166/4/24
f 155/4/25 164/4/25 153/4/25
f 167/4/26 158/4/26 165/4/26
f 169/4/1 170/4/1 171/4/1
f 172/4/2 173/4/2 174/4/2
f 175/4/3 176/4/3 177/4/3
f 178/4/4 179/4/4 180/4/4
f 181/4/5 182/4/5 183/4/5
f 184/4/6 185/4/6 186/4/6
f 187/4/7 188/4/7 189/4/7
f 190/4/8 191/4/8 192/4/8
f 169/4/9 176/4/9 175/4/9
f 172/4/10 171/4/10 170/4/10
f 178/4/11 174/4/11 173/4/11
f 177/4/12 180/4/12 179/4/12
f 175/4/13 188/4/13 187/4/13
f 190/4/14 179/4/14 178/4/14
f 189/4/15 192/4/15 191/4/15
f 187/4/16 182/4/16 181/4/16
f 184/4/17 191/4/17 190/4/17
f 183/4/18 186/4/18 185/4/18
f 181/4/19 170/4/19 169/4/19
f 173/4/20 185/4/20 184/4/20
f 187/4/21 169/4/21 175/4/21
f 174/4/22 176/4/22 171/4/22
f 185/4/23 170/4/23 183/4/23
f 178/4/24 184/4/24 190/4/24
f 179/4/25 188/4/25 177/4/25
f 191/4/26 182/4/26 189/4/26
f 193/5/47 194/5/47 195/5/47
f 196/5/2 197/5/2 198/5/2
f 199/5/48 200/5/48 201/5/48
f 202/5/49 203/5/49 204/5/49
f 205/5/50 206/5/50 207/5/50
f 208/5/6 209/5/6 210/5/6
f 211/5/51 212/5/51 213/5/51
f 214/5/52 215/5/52 216/5/52
f 193/5/9 200/5/9 199/5/9
f 196/5/10 195/5/10 194/5/10
f 202/5/11 198/5/11 197/5/11
f 201/5/12 204/5/12 203/5/12
f 199/5/13 212/5/13 211/5/13
f 214/5/14 203/5/14 202/5/14
f 213/5/15 216/5/15 215/5/15
f 211/5/16 206/5/16 205/5/16
f 208/5/17 215/5/17 214/5/17
f 207/5/18 210/5/18 209/5/18
f 205/5/19 194/5/19 193/5/19
f 197/5/20 209/5/20 208/5/20
f 211/5/21 193/5/21 199/5/21
f 198/5/22 200/5/22 195/5/22
f 209/5/23 194/5/23 207/5/23
f 202/5/24 208/5/24 214/5/24
f 203/5/25 212/5/25 201/5/25
f 215/5/26 206/5/26 213/5/26
f 217/5/47 218/5/47 219/5/47
f 220/5/53 221/5/53 222/5/53
f 223/5/29 224/5/29 225/5/29
f 226/5/54 227/5/54 228/5/54
f 229/5/50 230/5/50 231/5/50
f 232/5/55 233/5/55 234/5/55
f 235/5/40 236/5/40 237/5/40
f 238/5/56 239/5/56 240/5/56
f 217/5/9 224/5/9 223/5/9
f 220/5/10 219/5/10 218/5/10
f 226/5/11 222/5/11 221/5/11
f 225/5/12 228/5/12 227/5/12
f 223/5/13 236/5/13 235/5/13
f 238/5/14 227/5/14 226/5/14
f 237/5/15 240/5/15 239/5/15
f 235/5/16 230/5/16 229/5/16
f 232/5/17 239/5/17 238/5/17
f 231/5/18 234/5/18 233/5/18
f 229/5/19 218/5/19 217/5/19
f 221/5/20 233/5/20 232/5/20
f 235/5/21 217/5/21 223/5/21
f 222/5/22 224/5/22 219/5/22
f 233/5/23 218/5/23 231/5/23
f 226/5/24 232/5/24 238/5/24
f 227/5/25 236/5/25 225/5/25
f 239/5/26 230/5/26 237/5/26
f 1/1/9 3/1/9 8/1/9
f 4/1/10 6/1/10 3/1/10
f 10/1/11 12/1/11 6/1/11
f 9/1/12 8/1/12 12/1/12
f 7/1/13 9/1/13 20/1/13
f 22/1/14 24/1/14 11/1/14
f 21/1/15 20/1/15 24/1/15
f 19/1/16 21/1/16 14/1/16
f 16/1/17 18/1/17 23/1/17
f 15/1/18 14/1/18 18/1/18
f 13/1/19 15/1/19 2/1/19
f 5/1/20 4/1/20 17/1/20
f 19/1/21 13/1/21 1/1/21
f 6/1/22 12/1/22 8/1/22
f 17/1/23 4/1/23 2/1/23
f 10/1/24 5/1/24 16/1/24
f 11/1/25 24/1/25 20/1/25
f 23/1/26 18/1/26 14/1/26
f 25/2/9 27/2/9 32/2/9
f 28/2/10 30/2/10 27/2/10
f 34/2/11 36/2/11 30/2/11
f 33/2/12 32/2/12 36/2/12
f 31/2/13 33/2/13 44/2/13
f 46/2/14 48/2/14 35/2/14
f 45/2/15 44/2/15 48/2/15
f 43/2/16 45/2/16 38/2/16
f 40/2/17 42/2/17 47/2/17
f 39/2/18 38/2/18 42/2/18
f 37/2/19 39/2/19 26/2/19
f 29/2/20 28/2/20 41/2/20
f 43/2/21 37/2/21 25/2/21
f 30/2/22 36/2/22 32/2/22
f 41/2/23 28/2/23 26/2/23
f 34/2/24 29/2/24 40/2/24
f 35/2/25 48/2/25 44/2/25
f 47/2/26 42/2/26 38/2/26
f 49/3/9 51/3/9 56/3/9
f 52/3/10 54/3/10 51/3/10
f 58/3/11 60/3/11 54/3/11
f 57/3/12 56/3/12 60/3/12
f 55/3/13 57/3/13 68/3/13
f 70/3/14 72/3/14 59/3/14
f 69/3/15 68/3/15 72/3/15
f 67/3/16 69/3/16 62/3/16
f 64/3/17 66/3/17 71/3/17
f 63/3/18 62/3/18 66/3/18
f 61/3/19 63/3/19 50/3/19
f 53/3/20 52/3/20 65/3/20
f 67/3/21 61/3/21 49/3/21
f 54/3/22 60/3/22 56/3/22
f 65/3/23 52/3/23 50/3/23
f 58/3/24 53/3/24 64/3/24
f 59/3/25 72/3/25 68/3/25
f 71/3/26 66/3/26 62/3/26
f 73/2/9 75/2/9 80/2/9
f 76/2/10 78/2/10 75/2/10
f 82/2/11 84/2/11 78/2/11
f 81/2/12 80/2/12 84/2/12
f 79/2/13 81/2/13 92/2/13
f 94/2/14 96/2/14 83/2/14
f 93/2/15 92/2/15 96/2/15
f 91/2/16 93/2/16 86/2/16
f 88/2/17 90/2/17 95/2/17
f 87/2/18 86/2/18 90/2/18
f 85/2/19 87/2/19 74/2/19
f 77/2/20 76/2/20 89/2/20
f 91/2/21 85/2/21 73/2/21
f 78/2/22 84/2/22 80/2/22
f 89/2/23 76/2/23 74/2/23
f 82/2/24 77/2/24 88/2/24
f 83/2/25 96/2/25 92/2/25
f 95/2/26 90/2/26 86/2/26
f 97/3/9 99/3/9 104/3/9
f 100/3/10 102/3/10 99/3/10
f 106/3/11 108/3/11 102/3/11
f 105/3/12 104/3/12 108/3/12
f 103/3/13 105/3/13 116/3/13
f 118/3/14 120/3/14 107/3/14
f 117/3/15 116/3/15 120/3/15
f 115/3/16 117/3/16 110/3/16
f 112/3/17 114/3/17 119/3/17
f 111/3/18 110/3/18 114/3/18
f 109/3/19 111/3/19 98/3/19
f 101/3/20 100/3/20 113/3/20
f 115/3/21 109/3/21 97/3/21
f 102/3/22 108/3/22 104/3/22
f 113/3/23 100/3/23 98/3/23
f 106/3/24 101/3/24 112/3/24
f 107/3/25 120/3/25 116/3/25
f 119/3/26 114/3/26 110/3/26
f 121/4/9 123/4/9 128/4/9
f 124/4/10 126/4/10 123/4/10
f 130/4/11 132/4/11 126/4/11
f 129/4/12 128/4/12 132/4/12
f 127/4/13 129/4/13 140/4/13
f 142/4/14 144/4/14 131/4/14
f 141/4/15 140/4/15 144/4/15
f 139/4/16 141/4/16 134/4/16
f 136/4/17 138/4/17 143/4/17
f 135/4/18 134/4/18 138/4/18
f 133/4/19 135/4/19 122/4/19
f 125/4/20 124/4/20 137/4/20
f 139/4/21 133/4/21 121/4/21
f 126/4/22 132/4/22 128/4/22
f 137/4/23 124/4/23 122/4/23
f 130/4/24 125/4/24 136/4/24
f 131/4/25 144/4/25 140/4/25
f 143/4/26 138/4/26 134/4/26
f 145/4/9 147/4/9 152/4/9
f 148/4/10 150/4/10 147/4/10
f 154/4/11 156/4/11 150/4/11
f 153/4/12 152/4/12 156/4/12
f 151/4/13 153/4/13 164/4/13
f 166/4/14 168/4/14 155/4/14
f 165/4/15 164/4/15 168/4/15
f 163/4/16 165/4/16 158/4/16
f 160/4/17 162/4/17 167/4/17
f 159/4/18 158/4/18 162/4/18
f 157/4/19 159/4/19 146/4/19
f 149/4/20 148/4/20 161/4/20
f 163/4/21 157/4/21 145/4/21
f 150/4/22 156/4/22 152/4/22
f 161/4/23 148/4/23 146/4/23
f 154/4/24 149/4/24 160/4/24
f 155/4/25 168/4/25 164/4/25
f 167/4/26 162/4/26 158/4/26
f 169/4/9 171/4/9 176/4/9
f 172/4/10 174/4/10 171/4/10
f 178/4/11 180/4/11 174/4/11
f 177/4/12 176/4/12 180/4/12
f 175/4/13 177/4/13 188/4/13
f 190/4/14 192/4/14 179/4/14
f 189/4/15 188/4/15 192/4/15
f 187/4/16 189/4/16 182/4/16
f 184/4/17 186/4/17 191/4/17
f 183/4/18 182/4/18 186/4/18
f 181/4/19 183/4/19 170/4/19
f 173/4/20 172/4/20 185/4/20
f 187/4/21 181/4/21 169/4/21
f 174/4/22 180/4/22 176/4/22
f 185/4/23 172/4/23 170/4/23
f 178/4/24 173/4/24 184/4/24
f 179/4/25 192/4/25 188/4/25
f 191/4/26 186/4/26 182/4/26
f 193/5/9 195/5/9 200/5/9
f 196/5/10 198/5/10 195/5/10
f 202/5/11 204/5/11 198/5/11
f 201/5/12 200/5/12 204/5/12
f 199/5/13 201/5/13 212/5/13
f 214/5/14 216/5/14 203/5/14
f 213/5/15 212/5/15 216/5/15
f 211/5/16 213/5/16 206/5/16
f 208/5/17 210/5/17 215/5/17
f 207/5/18 206/5/18 210/5/18
f 205/5/19 207/5/19 194/5/19
f 197/5/20 196/5/20 209/5/20
f 211/5/21 205/5/21 193/5/21
f 198/5/22 204/5/22 200/5/22
f 209/5/23 196/5/23 194/5/23
f 202/5/24 197/5/24 208/5/24
f 203/5/25 216/5/25 212/5/25
f 215/5/26 210/5/26 206/5/26
f 217/5/9 219/5/9 224/5/9
f 220/5/10 222/5/10 219/5/10
f 226/5/11 228/5/11 222/5/11
f 225/5/12 224/5/12 228/5/12
f 223/5/13 225/5/13 236/5/13
f 238/5/14 240/5/14 227/5/14
f 237/5/15 236/5/15 240/5/15
f 235/5/16 237/5/16 230/5/16
f 232/5/17 234/5/17 239/5/17
f 231/5/18 230/5/18 234/5/18
f 229/5/19 231/5/19 218/5/19
f 221/5/20 220/5/20 233/5/20
f 235/5/21 229/5/21 217/5/21
f 222/5/22 228/5/22 224/5/22
f 233/5/23 220/5/23 218/5/23
f 226/5/24 221/5/24 232/5/24
f 227/5/25 240/5/25 236/5/25
f 239/5/26 234/5/26 230/5/26
