# Blender 5.2.1 LTS
# www.blender.org
mtllib metalStructure.mtl
o metalStructure
v -0.464286 -0.500000 0.449749
v -0.464286 -0.464286 0.484925
v -0.500000 -0.464286 0.449749
v -0.464286 0.464286 0.484925
v -0.464286 0.500000 0.449749
v -0.500000 0.464286 0.449749
v -0.464286 -0.500000 -0.464824
v -0.500000 -0.464286 -0.464824
v -0.464286 -0.464286 -0.500000
v -0.464286 0.500000 -0.464824
v -0.464286 0.464286 -0.500000
v -0.500000 0.464286 -0.464824
v 0.464286 -0.500000 0.449749
v 0.500000 -0.464286 0.449749
v 0.464286 -0.464286 0.484925
v 0.464286 0.500000 0.449749
v 0.464286 0.464286 0.484925
v 0.500000 0.464286 0.449749
v 0.464286 -0.500000 -0.464824
v 0.464286 -0.464286 -0.500000
v 0.500000 -0.464286 -0.464824
v 0.464286 0.500000 -0.464824
v 0.500000 0.464286 -0.464824
v 0.464286 0.464286 -0.500000
v -0.459694 -0.459184 0.491960
v -0.459694 -0.457143 0.493970
v -0.461735 -0.457143 0.491960
v -0.459694 0.457143 0.493970
v -0.459694 0.459184 0.491960
v -0.461735 0.457143 0.491960
v -0.459694 -0.459184 0.483920
v -0.461735 -0.457143 0.483920
v -0.459694 -0.457143 0.481910
v -0.459694 0.459184 0.483920
v -0.459694 0.457143 0.481910
v -0.461735 0.457143 0.483920
v -0.438265 -0.459184 0.491960
v -0.436224 -0.457143 0.491960
v -0.438265 -0.457143 0.493970
v -0.438265 0.459184 0.491960
v -0.438265 0.457143 0.493970
v -0.436224 0.457143 0.491960
v -0.438265 -0.459184 0.483920
v -0.438265 -0.457143 0.481910
v -0.436224 -0.457143 0.483920
v -0.438265 0.459184 0.483920
v -0.436224 0.457143 0.483920
v -0.438265 0.457143 0.481910
v -0.448980 -0.410204 0.489950
v -0.448980 -0.410204 0.500000
v -0.433073 -0.419388 0.489950
v -0.433073 -0.419388 0.500000
v -0.433073 -0.437755 0.489950
v -0.433073 -0.437755 0.500000
v -0.448980 -0.446939 0.489950
v -0.448980 -0.446939 0.500000
v -0.464886 -0.437755 0.489950
v -0.464886 -0.437755 0.500000
v -0.464886 -0.419388 0.489950
v -0.464886 -0.419388 0.500000
v -0.448980 0.446939 0.489950
v -0.448980 0.446939 0.500000
v -0.433073 0.437755 0.489950
v -0.433073 0.437755 0.500000
v -0.433073 0.419388 0.489950
v -0.433073 0.419388 0.500000
v -0.448980 0.410204 0.489950
v -0.448980 0.410204 0.500000
v -0.464886 0.419388 0.489950
v -0.464886 0.419388 0.500000
v -0.464886 0.437755 0.489950
v -0.464886 0.437755 0.500000
v 0.438265 -0.459184 0.491960
v 0.438265 -0.457143 0.493970
v 0.436224 -0.457143 0.491960
v 0.438265 0.457143 0.493970
v 0.438265 0.459184 0.491960
v 0.436224 0.457143 0.491960
v 0.438265 -0.459184 0.483920
v 0.436224 -0.457143 0.483920
v 0.438265 -0.457143 0.481910
v 0.438265 0.459184 0.483920
v 0.438265 0.457143 0.481910
v 0.436224 0.457143 0.483920
v 0.459694 -0.459184 0.491960
v 0.461735 -0.457143 0.491960
v 0.459694 -0.457143 0.493970
v 0.459694 0.459184 0.491960
v 0.459694 0.457143 0.493970
v 0.461735 0.457143 0.491960
v 0.459694 -0.459184 0.483920
v 0.459694 -0.457143 0.481910
v 0.461735 -0.457143 0.483920
v 0.459694 0.459184 0.483920
v 0.461735 0.457143 0.483920
v 0.459694 0.457143 0.481910
v 0.448980 -0.410204 0.489950
v 0.448980 -0.410204 0.500000
v 0.464886 -0.419388 0.489950
v 0.464886 -0.419388 0.500000
v 0.464886 -0.437755 0.489950
v 0.464886 -0.437755 0.500000
v 0.448980 -0.446939 0.489950
v 0.448980 -0.446939 0.500000
v 0.433073 -0.437755 0.489950
v 0.433073 -0.437755 0.500000
v 0.433073 -0.419388 0.489950
v 0.433073 -0.419388 0.500000
v 0.448980 0.446939 0.489950
v 0.448980 0.446939 0.500000
v 0.464886 0.437755 0.489950
v 0.464886 0.437755 0.500000
v 0.464886 0.419388 0.489950
v 0.464886 0.419388 0.500000
v 0.448980 0.410204 0.489950
v 0.448980 0.410204 0.500000
v 0.433073 0.419388 0.489950
v 0.433073 0.419388 0.500000
v 0.433073 0.437755 0.489950
v 0.433073 0.437755 0.500000
v -0.452041 -0.459184 0.491960
v -0.452041 -0.457143 0.493970
v -0.454082 -0.457143 0.491960
v -0.452041 -0.440816 0.493970
v -0.452041 -0.438776 0.491960
v -0.454082 -0.440816 0.491960
v -0.452041 -0.459184 0.483920
v -0.454082 -0.457143 0.483920
v -0.452041 -0.457143 0.481910
v -0.452041 -0.438776 0.483920
v -0.452041 -0.440816 0.481910
v -0.454082 -0.440816 0.483920
v 0.452041 -0.459184 0.491960
v 0.454082 -0.457143 0.491960
v 0.452041 -0.457143 0.493970
v 0.452041 -0.438776 0.491960
v 0.452041 -0.440816 0.493970
v 0.454082 -0.440816 0.491960
v 0.452041 -0.459184 0.483920
v 0.452041 -0.457143 0.481910
v 0.454082 -0.457143 0.483920
v 0.452041 -0.438776 0.483920
v 0.454082 -0.440816 0.483920
v 0.452041 -0.440816 0.481910
v -0.452041 0.438776 0.491960
v -0.452041 0.440816 0.493970
v -0.454082 0.440816 0.491960
v -0.452041 0.457143 0.493970
v -0.452041 0.459184 0.491960
v -0.454082 0.457143 0.491960
v -0.452041 0.438776 0.483920
v -0.454082 0.440816 0.483920
v -0.452041 0.440816 0.481910
v -0.452041 0.459184 0.483920
v -0.452041 0.457143 0.481910
v -0.454082 0.457143 0.483920
v 0.452041 0.438776 0.491960
v 0.454082 0.440816 0.491960
v 0.452041 0.440816 0.493970
v 0.452041 0.459184 0.491960
v 0.452041 0.457143 0.493970
v 0.454082 0.457143 0.491960
v 0.452041 0.438776 0.483920
v 0.452041 0.440816 0.481910
v 0.454082 0.440816 0.483920
v 0.452041 0.459184 0.483920
v 0.454082 0.457143 0.483920
v 0.452041 0.457143 0.481910
vn -0.5744 -0.5744 0.5832
vn -0.5744 0.5744 0.5832
vn -0.5744 -0.5744 -0.5832
vn -0.5744 0.5744 -0.5832
vn 0.5744 -0.5744 0.5832
vn 0.5744 0.5744 0.5832
vn 0.5744 -0.5744 -0.5832
vn 0.5744 0.5744 -0.5832
vn -0.7071 -0.7071 -0.0000
vn -0.7017 -0.0000 0.7125
vn -0.7071 0.7071 -0.0000
vn -0.7017 -0.0000 -0.7125
vn -0.0000 -0.7017 -0.7125
vn -0.0000 0.7017 -0.7125
vn 0.7017 -0.0000 -0.7125
vn 0.7071 -0.7071 -0.0000
vn 0.7071 0.7071 -0.0000
vn 0.7017 -0.0000 0.7125
vn -0.0000 -0.7017 0.7125
vn -0.0000 0.7017 0.7125
vn -0.0000 -1.0000 -0.0000
vn -1.0000 -0.0000 -0.0000
vn -0.0000 -0.0000 1.0000
vn -0.0000 1.0000 -0.0000
vn -0.0000 -0.0000 -1.0000
vn 1.0000 -0.0000 -0.0000
vn -0.0000 0.7017 -0.7124
vn 0.5000 0.8660 -0.0000
vn 0.5000 -0.8660 -0.0000
vn -0.5000 -0.8660 -0.0000
vn -0.5000 0.8660 -0.0000
vn -0.0000 -0.7017 -0.7124
vn -0.0000 0.7017 0.7124
vn -0.0000 -0.7017 0.7124
vt 0.125000 0.625000
vt 0.375000 0.125000
vt 0.375000 0.875000
s 0
usemtl WorldPickupPalette
f 1/1/1 2/1/1 3/1/1
f 4/1/2 5/1/2 6/1/2
f 7/1/3 8/1/3 9/1/3
f 10/1/4 11/1/4 12/1/4
f 13/1/5 14/1/5 15/1/5
f 16/1/6 17/1/6 18/1/6
f 19/1/7 20/1/7 21/1/7
f 22/1/8 23/1/8 24/1/8
f 1/1/9 8/1/9 7/1/9
f 4/1/10 3/1/10 2/1/10
f 10/1/11 6/1/11 5/1/11
f 9/1/12 12/1/12 11/1/12
f 7/1/13 20/1/13 19/1/13
f 22/1/14 11/1/14 10/1/14
f 21/1/15 24/1/15 23/1/15
f 19/1/16 14/1/16 13/1/16
f 16/1/17 23/1/17 22/1/17
f 15/1/18 18/1/18 17/1/18
f 13/1/19 2/1/19 1/1/19
f 5/1/20 17/1/20 16/1/20
f 19/1/21 1/1/21 7/1/21
f 6/1/22 8/1/22 3/1/22
f 17/1/23 2/1/23 15/1/23
f 10/1/24 16/1/24 22/1/24
f 11/1/25 20/1/25 9/1/25
f 23/1/26 14/1/26 21/1/26
f 25/2/1 26/2/1 27/2/1
f 28/2/2 29/2/2 30/2/2
f 31/2/3 32/2/3 33/2/3
f 34/2/4 35/2/4 36/2/4
f 37/2/5 38/2/5 39/2/5
f 40/2/6 41/2/6 42/2/6
f 43/2/7 44/2/7 45/2/7
f 46/2/8 47/2/8 48/2/8
f 25/2/9 32/2/9 31/2/9
f 28/2/10 27/2/10 26/2/10
f 34/2/11 30/2/11 29/2/11
f 33/2/12 36/2/12 35/2/12
f 31/2/13 44/2/13 43/2/13
f 46/2/27 35/2/27 34/2/27
f 45/2/15 48/2/15 47/2/15
f 43/2/16 38/2/16 37/2/16
f 40/2/17 47/2/17 46/2/17
f 39/2/18 42/2/18 41/2/18
f 37/2/19 26/2/19 25/2/19
f 29/2/20 41/2/20 40/2/20
f 43/2/21 25/2/21 31/2/21
f 30/2/22 32/2/22 27/2/22
f 41/2/23 26/2/23 39/2/23
f 34/2/24 40/2/24 46/2/24
f 35/2/25 44/2/25 33/2/25
f 47/2/26 38/2/26 45/2/26
f 50/3/28 51/3/28 49/3/28
f 52/3/26 53/3/26 51/3/26
f 54/3/29 55/3/29 53/3/29
f 56/3/30 57/3/30 55/3/30
f 56/3/23 54/3/23 50/3/23
f 58/3/22 59/3/22 57/3/22
f 60/3/31 49/3/31 59/3/31
f 55/3/25 57/3/25 59/3/25
f 62/3/28 63/3/28 61/3/28
f 64/3/26 65/3/26 63/3/26
f 66/3/29 67/3/29 65/3/29
f 68/3/30 69/3/30 67/3/30
f 68/3/23 66/3/23 62/3/23
f 70/3/22 71/3/22 69/3/22
f 72/3/31 61/3/31 71/3/31
f 67/3/25 69/3/25 71/3/25
f 73/2/1 74/2/1 75/2/1
f 76/2/2 77/2/2 78/2/2
f 79/2/3 80/2/3 81/2/3
f 82/2/4 83/2/4 84/2/4
f 85/2/5 86/2/5 87/2/5
f 88/2/6 89/2/6 90/2/6
f 91/2/7 92/2/7 93/2/7
f 94/2/8 95/2/8 96/2/8
f 73/2/9 80/2/9 79/2/9
f 76/2/10 75/2/10 74/2/10
f 82/2/11 78/2/11 77/2/11
f 81/2/12 84/2/12 83/2/12
f 79/2/32 92/2/32 91/2/32
f 94/2/14 83/2/14 82/2/14
f 93/2/15 96/2/15 95/2/15
f 91/2/16 86/2/16 85/2/16
f 88/2/17 95/2/17 94/2/17
f 87/2/18 90/2/18 89/2/18
f 85/2/19 74/2/19 73/2/19
f 77/2/20 89/2/20 88/2/20
f 91/2/21 73/2/21 79/2/21
f 78/2/22 80/2/22 75/2/22
f 89/2/23 74/2/23 87/2/23
f 82/2/24 88/2/24 94/2/24
f 83/2/25 92/2/25 81/2/25
f 95/2/26 86/2/26 93/2/26
f 98/3/28 99/3/28 97/3/28
f 100/3/26 101/3/26 99/3/26
f 102/3/29 103/3/29 101/3/29
f 104/3/30 105/3/30 103/3/30
f 104/3/23 102/3/23 98/3/23
f 106/3/22 107/3/22 105/3/22
f 108/3/31 97/3/31 107/3/31
f 103/3/25 105/3/25 107/3/25
f 110/3/28 111/3/28 109/3/28
f 112/3/26 113/3/26 111/3/26
f 114/3/29 115/3/29 113/3/29
f 116/3/30 117/3/30 115/3/30
f 116/3/23 114/3/23 110/3/23
f 118/3/22 119/3/22 117/3/22
f 120/3/31 109/3/31 119/3/31
f 115/3/25 117/3/25 119/3/25
f 121/2/1 122/2/1 123/2/1
f 124/2/2 125/2/2 126/2/2
f 127/2/3 128/2/3 129/2/3
f 130/2/4 131/2/4 132/2/4
f 133/2/5 134/2/5 135/2/5
f 136/2/6 137/2/6 138/2/6
f 139/2/7 140/2/7 141/2/7
f 142/2/8 143/2/8 144/2/8
f 121/2/9 128/2/9 127/2/9
f 124/2/10 123/2/10 122/2/10
f 130/2/11 126/2/11 125/2/11
f 129/2/12 132/2/12 131/2/12
f 127/2/13 140/2/13 139/2/13
f 142/2/14 131/2/14 130/2/14
f 141/2/15 144/2/15 143/2/15
f 139/2/16 134/2/16 133/2/16
f 136/2/17 143/2/17 142/2/17
f 135/2/18 138/2/18 137/2/18
f 133/2/19 122/2/19 121/2/19
f 125/2/20 137/2/20 136/2/20
f 139/2/21 121/2/21 127/2/21
f 126/2/22 128/2/22 123/2/22
f 137/2/23 122/2/23 135/2/23
f 130/2/24 136/2/24 142/2/24
f 131/2/25 140/2/25 129/2/25
f 143/2/26 134/2/26 141/2/26
f 145/2/1 146/2/1 147/2/1
f 148/2/2 149/2/2 150/2/2
f 151/2/3 152/2/3 153/2/3
f 154/2/4 155/2/4 156/2/4
f 157/2/5 158/2/5 159/2/5
f 160/2/6 161/2/6 162/2/6
f 163/2/7 164/2/7 165/2/7
f 166/2/8 167/2/8 168/2/8
f 145/2/9 152/2/9 151/2/9
f 148/2/10 147/2/10 146/2/10
f 154/2/11 150/2/11 149/2/11
f 153/2/12 156/2/12 155/2/12
f 151/2/13 164/2/13 163/2/13
f 166/2/14 155/2/14 154/2/14
f 165/2/15 168/2/15 167/2/15
f 163/2/16 158/2/16 157/2/16
f 160/2/17 167/2/17 166/2/17
f 159/2/18 162/2/18 161/2/18
f 157/2/19 146/2/19 145/2/19
f 149/2/20 161/2/20 160/2/20
f 163/2/21 145/2/21 151/2/21
f 150/2/22 152/2/22 147/2/22
f 161/2/23 146/2/23 159/2/23
f 154/2/24 160/2/24 166/2/24
f 155/2/25 164/2/25 153/2/25
f 167/2/26 158/2/26 165/2/26
f 1/1/9 3/1/9 8/1/9
f 4/1/10 6/1/10 3/1/10
f 10/1/11 12/1/11 6/1/11
f 9/1/12 8/1/12 12/1/12
f 7/1/13 9/1/13 20/1/13
f 22/1/14 24/1/14 11/1/14
f 21/1/15 20/1/15 24/1/15
f 19/1/16 21/1/16 14/1/16
f 16/1/17 18/1/17 23/1/17
f 15/1/18 14/1/18 18/1/18
f 13/1/19 15/1/19 2/1/19
f 5/1/20 4/1/20 17/1/20
f 19/1/21 13/1/21 1/1/21
f 6/1/22 12/1/22 8/1/22
f 17/1/23 4/1/23 2/1/23
f 10/1/24 5/1/24 16/1/24
f 11/1/25 24/1/25 20/1/25
f 23/1/26 18/1/26 14/1/26
f 25/2/9 27/2/9 32/2/9
f 28/2/10 30/2/10 27/2/10
f 34/2/11 36/2/11 30/2/11
f 33/2/12 32/2/12 36/2/12
f 31/2/13 33/2/13 44/2/13
f 46/2/14 48/2/14 35/2/14
f 45/2/15 44/2/15 48/2/15
f 43/2/16 45/2/16 38/2/16
f 40/2/17 42/2/17 47/2/17
f 39/2/18 38/2/18 42/2/18
f 37/2/19 39/2/19 26/2/19
f 29/2/33 28/2/33 41/2/33
f 43/2/21 37/2/21 25/2/21
f 30/2/22 36/2/22 32/2/22
f 41/2/23 28/2/23 26/2/23
f 34/2/24 29/2/24 40/2/24
f 35/2/25 48/2/25 44/2/25
f 47/2/26 42/2/26 38/2/26
f 50/3/28 52/3/28 51/3/28
f 52/3/26 54/3/26 53/3/26
f 54/3/29 56/3/29 55/3/29
f 56/3/30 58/3/30 57/3/30
f 54/3/23 52/3/23 50/3/23
f 50/3/23 60/3/23 58/3/23
f 58/3/23 56/3/23 50/3/23
f 58/3/22 60/3/22 59/3/22
f 60/3/31 50/3/31 49/3/31
f 59/3/25 49/3/25 55/3/25
f 49/3/25 51/3/25 55/3/25
f 51/3/25 53/3/25 55/3/25
f 62/3/28 64/3/28 63/3/28
f 64/3/26 66/3/26 65/3/26
f 66/3/29 68/3/29 67/3/29
f 68/3/30 70/3/30 69/3/30
f 66/3/23 64/3/23 62/3/23
f 62/3/23 72/3/23 70/3/23
f 70/3/23 68/3/23 62/3/23
f 70/3/22 72/3/22 71/3/22
f 72/3/31 62/3/31 61/3/31
f 71/3/25 61/3/25 67/3/25
f 61/3/25 63/3/25 67/3/25
f 63/3/25 65/3/25 67/3/25
f 73/2/9 75/2/9 80/2/9
f 76/2/10 78/2/10 75/2/10
f 82/2/11 84/2/11 78/2/11
f 81/2/12 80/2/12 84/2/12
f 79/2/13 81/2/13 92/2/13
f 94/2/14 96/2/14 83/2/14
f 93/2/15 92/2/15 96/2/15
f 91/2/16 93/2/16 86/2/16
f 88/2/17 90/2/17 95/2/17
f 87/2/18 86/2/18 90/2/18
f 85/2/34 87/2/34 74/2/34
f 77/2/20 76/2/20 89/2/20
f 91/2/21 85/2/21 73/2/21
f 78/2/22 84/2/22 80/2/22
f 89/2/23 76/2/23 74/2/23
f 82/2/24 77/2/24 88/2/24
f 83/2/25 96/2/25 92/2/25
f 95/2/26 90/2/26 86/2/26
f 98/3/28 100/3/28 99/3/28
f 100/3/26 102/3/26 101/3/26
f 102/3/29 104/3/29 103/3/29
f 104/3/30 106/3/30 105/3/30
f 102/3/23 100/3/23 98/3/23
f 98/3/23 108/3/23 106/3/23
f 106/3/23 104/3/23 98/3/23
f 106/3/22 108/3/22 107/3/22
f 108/3/31 98/3/31 97/3/31
f 107/3/25 97/3/25 103/3/25
f 97/3/25 99/3/25 103/3/25
f 99/3/25 101/3/25 103/3/25
f 110/3/28 112/3/28 111/3/28
f 112/3/26 114/3/26 113/3/26
f 114/3/29 116/3/29 115/3/29
f 116/3/30 118/3/30 117/3/30
f 114/3/23 112/3/23 110/3/23
f 110/3/23 120/3/23 118/3/23
f 118/3/23 116/3/23 110/3/23
f 118/3/22 120/3/22 119/3/22
f 120/3/31 110/3/31 109/3/31
f 119/3/25 109/3/25 115/3/25
f 109/3/25 111/3/25 115/3/25
f 111/3/25 113/3/25 115/3/25
f 121/2/9 123/2/9 128/2/9
f 124/2/10 126/2/10 123/2/10
f 130/2/11 132/2/11 126/2/11
f 129/2/12 128/2/12 132/2/12
f 127/2/13 129/2/13 140/2/13
f 142/2/14 144/2/14 131/2/14
f 141/2/15 140/2/15 144/2/15
f 139/2/16 141/2/16 134/2/16
f 136/2/17 138/2/17 143/2/17
f 135/2/18 134/2/18 138/2/18
f 133/2/19 135/2/19 122/2/19
f 125/2/20 124/2/20 137/2/20
f 139/2/21 133/2/21 121/2/21
f 126/2/22 132/2/22 128/2/22
f 137/2/23 124/2/23 122/2/23
f 130/2/24 125/2/24 136/2/24
f 131/2/25 144/2/25 140/2/25
f 143/2/26 138/2/26 134/2/26
f 145/2/9 147/2/9 152/2/9
f 148/2/10 150/2/10 147/2/10
f 154/2/11 156/2/11 150/2/11
f 153/2/12 152/2/12 156/2/12
f 151/2/13 153/2/13 164/2/13
f 166/2/14 168/2/14 155/2/14
f 165/2/15 164/2/15 168/2/15
f 163/2/16 165/2/16 158/2/16
f 160/2/17 162/2/17 167/2/17
f 159/2/18 158/2/18 162/2/18
f 157/2/19 159/2/19 146/2/19
f 149/2/20 148/2/20 161/2/20
f 163/2/21 157/2/21 145/2/21
f 150/2/22 156/2/22 152/2/22
f 161/2/23 148/2/23 146/2/23
f 154/2/24 149/2/24 160/2/24
f 155/2/25 168/2/25 164/2/25
f 167/2/26 162/2/26 158/2/26
