# Blender 5.2.1 LTS
# www.blender.org
mtllib projectile_enemy_bullet.mtl
o projectile_enemy_bullet
v 0.000000 -0.240000 -0.045000
v 0.000000 0.240000 -0.045000
v 0.022500 -0.240000 -0.038971
v 0.022500 0.240000 -0.038971
v 0.038971 -0.240000 -0.022500
v 0.038971 0.240000 -0.022500
v 0.045000 -0.240000 0.000000
v 0.045000 0.240000 0.000000
v 0.038971 -0.240000 0.022500
v 0.038971 0.240000 0.022500
v 0.022500 -0.240000 0.038971
v 0.022500 0.240000 0.038971
v 0.000000 -0.240000 0.045000
v 0.000000 0.240000 0.045000
v -0.022500 -0.240000 0.038971
v -0.022500 0.240000 0.038971
v -0.038971 -0.240000 0.022500
v -0.038971 0.240000 0.022500
v -0.045000 -0.240000 0.000000
v -0.045000 0.240000 0.000000
v -0.038971 -0.240000 -0.022500
v -0.038971 0.240000 -0.022500
v -0.022500 -0.240000 -0.038971
v -0.022500 0.240000 -0.038971
v 0.000000 0.240000 -0.045000
v 0.022500 0.240000 -0.038971
v 0.038971 0.240000 -0.022500
v 0.045000 0.240000 0.000000
v 0.038971 0.240000 0.022500
v 0.022500 0.240000 0.038971
v 0.000000 0.240000 0.045000
v -0.022500 0.240000 0.038971
v -0.038971 0.240000 0.022500
v -0.045000 0.240000 0.000000
v -0.038971 0.240000 -0.022500
v -0.022500 0.240000 -0.038971
v 0.000000 0.375000 0.000000
v 0.000000 -0.212000 -0.047700
v 0.000000 -0.172000 -0.047700
v 0.023850 -0.212000 -0.041309
v 0.023850 -0.172000 -0.041309
v 0.041309 -0.212000 -0.023850
v 0.041309 -0.172000 -0.023850
v 0.047700 -0.212000 0.000000
v 0.047700 -0.172000 0.000000
v 0.041309 -0.212000 0.023850
v 0.041309 -0.172000 0.023850
v 0.023850 -0.212000 0.041309
v 0.023850 -0.172000 0.041309
v 0.000000 -0.212000 0.047700
v 0.000000 -0.172000 0.047700
v -0.023850 -0.212000 0.041309
v -0.023850 -0.172000 0.041309
v -0.041309 -0.212000 0.023850
v -0.041309 -0.172000 0.023850
v -0.047700 -0.212000 0.000000
v -0.047700 -0.172000 0.000000
v -0.041309 -0.212000 -0.023850
v -0.041309 -0.172000 -0.023850
v -0.023850 -0.212000 -0.041309
v -0.023850 -0.172000 -0.041309
v 0.000000 0.148000 -0.047700
v 0.000000 0.188000 -0.047700
v 0.023850 0.148000 -0.041309
v 0.023850 0.188000 -0.041309
v 0.041309 0.148000 -0.023850
v 0.041309 0.188000 -0.023850
v 0.047700 0.148000 0.000000
v 0.047700 0.188000 0.000000
v 0.041309 0.148000 0.023850
v 0.041309 0.188000 0.023850
v 0.023850 0.148000 0.041309
v 0.023850 0.188000 0.041309
v 0.000000 0.148000 0.047700
v 0.000000 0.188000 0.047700
v -0.023850 0.148000 0.041309
v -0.023850 0.188000 0.041309
v -0.041309 0.148000 0.023850
v -0.041309 0.188000 0.023850
v -0.047700 0.148000 0.000000
v -0.047700 0.188000 0.000000
v -0.041309 0.148000 -0.023850
v -0.041309 0.188000 -0.023850
v -0.023850 0.148000 -0.041309
v -0.023850 0.188000 -0.041309
v 0.000000 -0.275000 -0.029250
v 0.000000 -0.245000 -0.029250
v 0.014625 -0.275000 -0.025331
v 0.014625 -0.245000 -0.025331
v 0.025331 -0.275000 -0.014625
v 0.025331 -0.245000 -0.014625
v 0.029250 -0.275000 0.000000
v 0.029250 -0.245000 0.000000
v 0.025331 -0.275000 0.014625
v 0.025331 -0.245000 0.014625
v 0.014625 -0.275000 0.025331
v 0.014625 -0.245000 0.025331
v 0.000000 -0.275000 0.029250
v 0.000000 -0.245000 0.029250
v -0.014625 -0.275000 0.025331
v -0.014625 -0.245000 0.025331
v -0.025331 -0.275000 0.014625
v -0.025331 -0.245000 0.014625
v -0.029250 -0.275000 0.000000
v -0.029250 -0.245000 0.000000
v -0.025331 -0.275000 -0.014625
v -0.025331 -0.245000 -0.014625
v -0.014625 -0.275000 -0.025331
v -0.014625 -0.245000 -0.025331
vn 0.2588 -0.0000 -0.9659
vn 0.7071 -0.0000 -0.7071
vn 0.9659 -0.0000 -0.2588
vn 0.9659 -0.0000 0.2588
vn 0.7071 -0.0000 0.7071
vn 0.2588 -0.0000 0.9659
vn -0.2588 -0.0000 0.9659
vn -0.7071 -0.0000 0.7071
vn -0.9659 -0.0000 0.2588
vn -0.9659 -0.0000 -0.2588
vn -0.0000 1.0000 -0.0000
vn -0.7071 -0.0000 -0.7071
vn -0.2588 -0.0000 -0.9659
vn -0.0000 -1.0000 -0.0000
vn 0.2464 0.3065 -0.9194
vn 0.6731 0.3065 -0.6731
vn 0.9194 0.3065 -0.2464
vn 0.9194 0.3065 0.2464
vn 0.6731 0.3065 0.6731
vn 0.2464 0.3065 0.9194
vn -0.2464 0.3065 0.9194
vn -0.6731 0.3065 0.6731
vn -0.9194 0.3065 0.2464
vn -0.9194 0.3065 -0.2464
vn -0.6731 0.3065 -0.6731
vn -0.2464 0.3065 -0.9194
vt 0.125000 0.625000
vt 0.625000 0.625000
vt 0.625000 0.875000
s 0
usemtl WorldPickupPalette
f 2/1/1 3/1/1 1/1/1
f 4/1/2 5/1/2 3/1/2
f 6/1/3 7/1/3 5/1/3
f 8/1/4 9/1/4 7/1/4
f 10/1/5 11/1/5 9/1/5
f 12/1/6 13/1/6 11/1/6
f 14/1/7 15/1/7 13/1/7
f 16/1/8 17/1/8 15/1/8
f 18/1/9 19/1/9 17/1/9
f 20/1/10 21/1/10 19/1/10
f 22/1/11 14/1/11 6/1/11
f 22/1/12 23/1/12 21/1/12
f 24/1/13 1/1/13 23/1/13
f 7/1/14 15/1/14 23/1/14
f 25/2/15 37/2/15 26/2/15
f 26/2/16 37/2/16 27/2/16
f 27/2/17 37/2/17 28/2/17
f 28/2/18 37/2/18 29/2/18
f 29/2/19 37/2/19 30/2/19
f 30/2/20 37/2/20 31/2/20
f 31/2/21 37/2/21 32/2/21
f 32/2/22 37/2/22 33/2/22
f 33/2/23 37/2/23 34/2/23
f 34/2/24 37/2/24 35/2/24
f 28/2/14 32/2/14 36/2/14
f 35/2/25 37/2/25 36/2/25
f 36/2/26 37/2/26 25/2/26
f 39/2/1 40/2/1 38/2/1
f 41/2/2 42/2/2 40/2/2
f 43/2/3 44/2/3 42/2/3
f 45/2/4 46/2/4 44/2/4
f 47/2/5 48/2/5 46/2/5
f 49/2/6 50/2/6 48/2/6
f 51/2/7 52/2/7 50/2/7
f 53/2/8 54/2/8 52/2/8
f 55/2/9 56/2/9 54/2/9
f 57/2/10 58/2/10 56/2/10
f 59/2/11 51/2/11 43/2/11
f 59/2/12 60/2/12 58/2/12
f 61/2/13 38/2/13 60/2/13
f 44/2/14 52/2/14 60/2/14
f 63/2/1 64/2/1 62/2/1
f 65/2/2 66/2/2 64/2/2
f 67/2/3 68/2/3 66/2/3
f 69/2/4 70/2/4 68/2/4
f 71/2/5 72/2/5 70/2/5
f 73/2/6 74/2/6 72/2/6
f 75/2/7 76/2/7 74/2/7
f 77/2/8 78/2/8 76/2/8
f 79/2/9 80/2/9 78/2/9
f 81/2/10 82/2/10 80/2/10
f 83/2/11 75/2/11 67/2/11
f 83/2/12 84/2/12 82/2/12
f 85/2/13 62/2/13 84/2/13
f 68/2/14 76/2/14 84/2/14
f 87/3/1 88/3/1 86/3/1
f 89/3/2 90/3/2 88/3/2
f 91/3/3 92/3/3 90/3/3
f 93/3/4 94/3/4 92/3/4
f 95/3/5 96/3/5 94/3/5
f 97/3/6 98/3/6 96/3/6
f 99/3/7 100/3/7 98/3/7
f 101/3/8 102/3/8 100/3/8
f 103/3/9 104/3/9 102/3/9
f 105/3/10 106/3/10 104/3/10
f 99/3/11 95/3/11 91/3/11
f 107/3/12 108/3/12 106/3/12
f 109/3/13 86/3/13 108/3/13
f 100/3/14 104/3/14 108/3/14
f 2/1/1 4/1/1 3/1/1
f 4/1/2 6/1/2 5/1/2
f 6/1/3 8/1/3 7/1/3
f 8/1/4 10/1/4 9/1/4
f 10/1/5 12/1/5 11/1/5
f 12/1/6 14/1/6 13/1/6
f 14/1/7 16/1/7 15/1/7
f 16/1/8 18/1/8 17/1/8
f 18/1/9 20/1/9 19/1/9
f 20/1/10 22/1/10 21/1/10
f 6/1/11 4/1/11 2/1/11
f 2/1/11 24/1/11 22/1/11
f 22/1/11 20/1/11 18/1/11
f 18/1/11 16/1/11 14/1/11
f 14/1/11 12/1/11 10/1/11
f 10/1/11 8/1/11 6/1/11
f 6/1/11 2/1/11 22/1/11
f 22/1/11 18/1/11 14/1/11
f 14/1/11 10/1/11 6/1/11
f 22/1/12 24/1/12 23/1/12
f 24/1/13 2/1/13 1/1/13
f 23/1/14 1/1/14 3/1/14
f 3/1/14 5/1/14 7/1/14
f 7/1/14 9/1/14 11/1/14
f 11/1/14 13/1/14 15/1/14
f 15/1/14 17/1/14 19/1/14
f 19/1/14 21/1/14 23/1/14
f 23/1/14 3/1/14 7/1/14
f 7/1/14 11/1/14 15/1/14
f 15/1/14 19/1/14 23/1/14
f 36/2/14 25/2/14 26/2/14
f 26/2/14 27/2/14 28/2/14
f 28/2/14 29/2/14 30/2/14
f 30/2/14 31/2/14 32/2/14
f 32/2/14 33/2/14 34/2/14
f 34/2/14 35/2/14 36/2/14
f 36/2/14 26/2/14 28/2/14
f 28/2/14 30/2/14 32/2/14
f 32/2/14 34/2/14 36/2/14
f 39/2/1 41/2/1 40/2/1
f 41/2/2 43/2/2 42/2/2
f 43/2/3 45/2/3 44/2/3
f 45/2/4 47/2/4 46/2/4
f 47/2/5 49/2/5 48/2/5
f 49/2/6 51/2/6 50/2/6
f 51/2/7 53/2/7 52/2/7
f 53/2/8 55/2/8 54/2/8
f 55/2/9 57/2/9 56/2/9
f 57/2/10 59/2/10 58/2/10
f 43/2/11 41/2/11 39/2/11
f 39/2/11 61/2/11 43/2/11
f 61/2/11 59/2/11 43/2/11
f 59/2/11 57/2/11 55/2/11
f 55/2/11 53/2/11 51/2/11
f 51/2/11 49/2/11 47/2/11
f 47/2/11 45/2/11 43/2/11
f 59/2/11 55/2/11 51/2/11
f 51/2/11 47/2/11 43/2/11
f 59/2/12 61/2/12 60/2/12
f 61/2/13 39/2/13 38/2/13
f 60/2/14 38/2/14 40/2/14
f 40/2/14 42/2/14 44/2/14
f 44/2/14 46/2/14 48/2/14
f 48/2/14 50/2/14 52/2/14
f 52/2/14 54/2/14 56/2/14
f 56/2/14 58/2/14 52/2/14
f 58/2/14 60/2/14 52/2/14
f 60/2/14 40/2/14 44/2/14
f 44/2/14 48/2/14 52/2/14
f 63/2/1 65/2/1 64/2/1
f 65/2/2 67/2/2 66/2/2
f 67/2/3 69/2/3 68/2/3
f 69/2/4 71/2/4 70/2/4
f 71/2/5 73/2/5 72/2/5
f 73/2/6 75/2/6 74/2/6
f 75/2/7 77/2/7 76/2/7
f 77/2/8 79/2/8 78/2/8
f 79/2/9 81/2/9 80/2/9
f 81/2/10 83/2/10 82/2/10
f 67/2/11 65/2/11 63/2/11
f 63/2/11 85/2/11 67/2/11
f 85/2/11 83/2/11 67/2/11
f 83/2/11 81/2/11 79/2/11
f 79/2/11 77/2/11 75/2/11
f 75/2/11 73/2/11 71/2/11
f 71/2/11 69/2/11 67/2/11
f 83/2/11 79/2/11 75/2/11
f 75/2/11 71/2/11 67/2/11
f 83/2/12 85/2/12 84/2/12
f 85/2/13 63/2/13 62/2/13
f 84/2/14 62/2/14 64/2/14
f 64/2/14 66/2/14 68/2/14
f 68/2/14 70/2/14 72/2/14
f 72/2/14 74/2/14 76/2/14
f 76/2/14 78/2/14 80/2/14
f 80/2/14 82/2/14 76/2/14
f 82/2/14 84/2/14 76/2/14
f 84/2/14 64/2/14 68/2/14
f 68/2/14 72/2/14 76/2/14
f 87/3/1 89/3/1 88/3/1
f 89/3/2 91/3/2 90/3/2
f 91/3/3 93/3/3 92/3/3
f 93/3/4 95/3/4 94/3/4
f 95/3/5 97/3/5 96/3/5
f 97/3/6 99/3/6 98/3/6
f 99/3/7 101/3/7 100/3/7
f 101/3/8 103/3/8 102/3/8
f 103/3/9 105/3/9 104/3/9
f 105/3/10 107/3/10 106/3/10
f 91/3/11 89/3/11 87/3/11
f 87/3/11 109/3/11 107/3/11
f 107/3/11 105/3/11 103/3/11
f 103/3/11 101/3/11 99/3/11
f 99/3/11 97/3/11 95/3/11
f 95/3/11 93/3/11 91/3/11
f 91/3/11 87/3/11 99/3/11
f 87/3/11 107/3/11 99/3/11
f 107/3/11 103/3/11 99/3/11
f 107/3/12 109/3/12 108/3/12
f 109/3/13 87/3/13 86/3/13
f 108/3/14 86/3/14 88/3/14
f 88/3/14 90/3/14 92/3/14
f 92/3/14 94/3/14 96/3/14
f 96/3/14 98/3/14 100/3/14
f 100/3/14 102/3/14 104/3/14
f 104/3/14 106/3/14 108/3/14
f 108/3/14 88/3/14 100/3/14
f 88/3/14 92/3/14 100/3/14
f 92/3/14 96/3/14 100/3/14
