# Blender 5.2.1 LTS
# www.blender.org
mtllib projectile_rocket.mtl
o projectile_rocket
v 0.000000 -0.550000 -0.120000
v 0.000000 0.550000 -0.120000
v 0.060000 -0.550000 -0.103923
v 0.060000 0.550000 -0.103923
v 0.103923 -0.550000 -0.060000
v 0.103923 0.550000 -0.060000
v 0.120000 -0.550000 0.000000
v 0.120000 0.550000 0.000000
v 0.103923 -0.550000 0.060000
v 0.103923 0.550000 0.060000
v 0.060000 -0.550000 0.103923
v 0.060000 0.550000 0.103923
v 0.000000 -0.550000 0.120000
v 0.000000 0.550000 0.120000
v -0.060000 -0.550000 0.103923
v -0.060000 0.550000 0.103923
v -0.103923 -0.550000 0.060000
v -0.103923 0.550000 0.060000
v -0.120000 -0.550000 0.000000
v -0.120000 0.550000 0.000000
v -0.103923 -0.550000 -0.060000
v -0.103923 0.550000 -0.060000
v -0.060000 -0.550000 -0.103923
v -0.060000 0.550000 -0.103923
v 0.000000 0.550000 -0.120000
v 0.060000 0.550000 -0.103923
v 0.103923 0.550000 -0.060000
v 0.120000 0.550000 0.000000
v 0.103923 0.550000 0.060000
v 0.060000 0.550000 0.103923
v 0.000000 0.550000 0.120000
v -0.060000 0.550000 0.103923
v -0.103923 0.550000 0.060000
v -0.120000 0.550000 0.000000
v -0.103923 0.550000 -0.060000
v -0.060000 0.550000 -0.103923
v 0.000000 0.910000 0.000000
v 0.000000 -0.460000 -0.127200
v 0.000000 -0.420000 -0.127200
v 0.063600 -0.460000 -0.110158
v 0.063600 -0.420000 -0.110158
v 0.110158 -0.460000 -0.063600
v 0.110158 -0.420000 -0.063600
v 0.127200 -0.460000 0.000000
v 0.127200 -0.420000 0.000000
v 0.110158 -0.460000 0.063600
v 0.110158 -0.420000 0.063600
v 0.063600 -0.460000 0.110158
v 0.063600 -0.420000 0.110158
v 0.000000 -0.460000 0.127200
v 0.000000 -0.420000 0.127200
v -0.063600 -0.460000 0.110158
v -0.063600 -0.420000 0.110158
v -0.110158 -0.460000 0.063600
v -0.110158 -0.420000 0.063600
v -0.127200 -0.460000 0.000000
v -0.127200 -0.420000 0.000000
v -0.110158 -0.460000 -0.063600
v -0.110158 -0.420000 -0.063600
v -0.063600 -0.460000 -0.110158
v -0.063600 -0.420000 -0.110158
v 0.000000 0.365000 -0.127200
v 0.000000 0.405000 -0.127200
v 0.063600 0.365000 -0.110158
v 0.063600 0.405000 -0.110158
v 0.110158 0.365000 -0.063600
v 0.110158 0.405000 -0.063600
v 0.127200 0.365000 0.000000
v 0.127200 0.405000 0.000000
v 0.110158 0.365000 0.063600
v 0.110158 0.405000 0.063600
v 0.063600 0.365000 0.110158
v 0.063600 0.405000 0.110158
v 0.000000 0.365000 0.127200
v 0.000000 0.405000 0.127200
v -0.063600 0.365000 0.110158
v -0.063600 0.405000 0.110158
v -0.110158 0.365000 0.063600
v -0.110158 0.405000 0.063600
v -0.127200 0.365000 0.000000
v -0.127200 0.405000 0.000000
v -0.110158 0.365000 -0.063600
v -0.110158 0.405000 -0.063600
v -0.063600 0.365000 -0.110158
v -0.063600 0.405000 -0.110158
v 0.000000 -0.585000 -0.078000
v 0.000000 -0.555000 -0.078000
v 0.039000 -0.585000 -0.067550
v 0.039000 -0.555000 -0.067550
v 0.067550 -0.585000 -0.039000
v 0.067550 -0.555000 -0.039000
v 0.078000 -0.585000 0.000000
v 0.078000 -0.555000 0.000000
v 0.067550 -0.585000 0.039000
v 0.067550 -0.555000 0.039000
v 0.039000 -0.585000 0.067550
v 0.039000 -0.555000 0.067550
v 0.000000 -0.585000 0.078000
v 0.000000 -0.555000 0.078000
v -0.039000 -0.585000 0.067550
v -0.039000 -0.555000 0.067550
v -0.067550 -0.585000 0.039000
v -0.067550 -0.555000 0.039000
v -0.078000 -0.585000 0.000000
v -0.078000 -0.555000 0.000000
v -0.067550 -0.585000 -0.039000
v -0.067550 -0.555000 -0.039000
v -0.039000 -0.585000 -0.067550
v -0.039000 -0.555000 -0.067550
v -0.003240 -0.514000 0.279840
v -0.003240 -0.511840 0.282000
v -0.005400 -0.511840 0.279840
v -0.003240 -0.236160 0.282000
v -0.003240 -0.234000 0.279840
v -0.005400 -0.236160 0.279840
v -0.003240 -0.514000 0.068160
v -0.005400 -0.511840 0.068160
v -0.003240 -0.511840 0.066000
v -0.003240 -0.234000 0.068160
v -0.003240 -0.236160 0.066000
v -0.005400 -0.236160 0.068160
v 0.003240 -0.514000 0.279840
v 0.005400 -0.511840 0.279840
v 0.003240 -0.511840 0.282000
v 0.003240 -0.234000 0.279840
v 0.003240 -0.236160 0.282000
v 0.005400 -0.236160 0.279840
v 0.003240 -0.514000 0.068160
v 0.003240 -0.511840 0.066000
v 0.005400 -0.511840 0.068160
v 0.003240 -0.234000 0.068160
v 0.005400 -0.236160 0.068160
v 0.003240 -0.236160 0.066000
v 0.068160 -0.514000 -0.003240
v 0.066000 -0.511840 -0.003240
v 0.068160 -0.511840 -0.005400
v 0.066000 -0.236160 -0.003240
v 0.068160 -0.234000 -0.003240
v 0.068160 -0.236160 -0.005400
v 0.279840 -0.514000 -0.003240
v 0.279840 -0.511840 -0.005400
v 0.282000 -0.511840 -0.003240
v 0.279840 -0.234000 -0.003240
v 0.282000 -0.236160 -0.003240
v 0.279840 -0.236160 -0.005400
v 0.068160 -0.514000 0.003240
v 0.068160 -0.511840 0.005400
v 0.066000 -0.511840 0.003240
v 0.068160 -0.234000 0.003240
v 0.066000 -0.236160 0.003240
v 0.068160 -0.236160 0.005400
v 0.279840 -0.514000 0.003240
v 0.282000 -0.511840 0.003240
v 0.279840 -0.511840 0.005400
v 0.279840 -0.234000 0.003240
v 0.279840 -0.236160 0.005400
v 0.282000 -0.236160 0.003240
v 0.003240 -0.514000 -0.279840
v 0.003240 -0.511840 -0.282000
v 0.005400 -0.511840 -0.279840
v 0.003240 -0.236160 -0.282000
v 0.003240 -0.234000 -0.279840
v 0.005400 -0.236160 -0.279840
v 0.003240 -0.514000 -0.068160
v 0.005400 -0.511840 -0.068160
v 0.003240 -0.511840 -0.066000
v 0.003240 -0.234000 -0.068160
v 0.003240 -0.236160 -0.066000
v 0.005400 -0.236160 -0.068160
v -0.003240 -0.514000 -0.279840
v -0.005400 -0.511840 -0.279840
v -0.003240 -0.511840 -0.282000
v -0.003240 -0.234000 -0.279840
v -0.003240 -0.236160 -0.282000
v -0.005400 -0.236160 -0.279840
v -0.003240 -0.514000 -0.068160
v -0.003240 -0.511840 -0.066000
v -0.005400 -0.511840 -0.068160
v -0.003240 -0.234000 -0.068160
v -0.005400 -0.236160 -0.068160
v -0.003240 -0.236160 -0.066000
v -0.068160 -0.514000 0.003240
v -0.066000 -0.511840 0.003240
v -0.068160 -0.511840 0.005400
v -0.066000 -0.236160 0.003240
v -0.068160 -0.234000 0.003240
v -0.068160 -0.236160 0.005400
v -0.279840 -0.514000 0.003240
v -0.279840 -0.511840 0.005400
v -0.282000 -0.511840 0.003240
v -0.279840 -0.234000 0.003240
v -0.282000 -0.236160 0.003240
v -0.279840 -0.236160 0.005400
v -0.068160 -0.514000 -0.003240
v -0.068160 -0.511840 -0.005400
v -0.066000 -0.511840 -0.003240
v -0.068160 -0.234000 -0.003240
v -0.066000 -0.236160 -0.003240
v -0.068160 -0.236160 -0.005400
v -0.279840 -0.514000 -0.003240
v -0.282000 -0.511840 -0.003240
v -0.279840 -0.511840 -0.005400
v -0.279840 -0.234000 -0.003240
v -0.279840 -0.236160 -0.005400
v -0.282000 -0.236160 -0.003240
vn 0.2588 -0.0000 -0.9659
vn 0.7071 -0.0000 -0.7071
vn 0.9659 -0.0000 -0.2588
vn 0.9659 -0.0000 0.2588
vn 0.7071 -0.0000 0.7071
vn 0.2588 -0.0000 0.9659
vn -0.2588 -0.0000 0.9659
vn -0.7071 -0.0000 0.7071
vn -0.9659 -0.0000 0.2588
vn -0.9659 -0.0000 -0.2588
vn -0.0000 1.0000 -0.0000
vn -0.7071 -0.0000 -0.7071
vn -0.2588 -0.0000 -0.9659
vn -0.0000 -1.0000 -0.0000
vn 0.2464 0.3065 -0.9194
vn 0.6731 0.3065 -0.6731
vn 0.9194 0.3065 -0.2464
vn 0.9194 0.3065 0.2464
vn 0.6731 0.3065 0.6731
vn 0.2464 0.3065 0.9194
vn -0.2464 0.3065 0.9194
vn -0.6731 0.3065 0.6731
vn -0.9194 0.3065 0.2464
vn -0.9194 0.3065 -0.2464
vn -0.6731 0.3065 -0.6731
vn -0.2464 0.3065 -0.9194
vn -0.5774 -0.5773 0.5773
vn -0.5773 0.5773 0.5774
vn -0.5774 -0.5773 -0.5773
vn -0.5773 0.5773 -0.5774
vn 0.5774 -0.5773 0.5773
vn 0.5773 0.5773 0.5774
vn 0.5774 -0.5773 -0.5773
vn 0.5773 0.5773 -0.5774
vn -0.7071 -0.7071 -0.0000
vn -0.7071 0.7071 -0.0000
vn -0.0000 -0.7071 -0.7071
vn -0.0000 0.7071 -0.7071
vn 0.7071 -0.7071 -0.0000
vn 0.7071 0.7071 -0.0000
vn -0.0000 -0.7071 0.7071
vn -0.0000 0.7071 0.7071
vn -1.0000 -0.0000 -0.0000
vn -0.0000 -0.0000 1.0000
vn -0.0000 -0.0000 -1.0000
vn 1.0000 -0.0000 -0.0000
vn -0.5774 0.5773 -0.5773
vn 0.5774 -0.5773 -0.5774
vn 0.5773 0.5774 -0.5773
vn -0.5773 0.5774 0.5774
vn 0.5774 -0.5773 0.5774
vn 0.5774 0.5773 0.5773
vn -0.5773 0.5774 -0.5773
vn -0.5774 -0.5773 0.5774
vn -0.5773 0.5774 0.5773
vn 0.5773 0.5774 -0.5774
vn -0.5774 -0.5773 -0.5774
vt 0.625000 0.125000
vt 0.375000 0.875000
vt 0.625000 0.875000
s 0
usemtl WorldPickupPalette
f 2/1/1 3/1/1 1/1/1
f 4/1/2 5/1/2 3/1/2
f 6/1/3 7/1/3 5/1/3
f 8/1/4 9/1/4 7/1/4
f 10/1/5 11/1/5 9/1/5
f 12/1/6 13/1/6 11/1/6
f 14/1/7 15/1/7 13/1/7
f 16/1/8 17/1/8 15/1/8
f 18/1/9 19/1/9 17/1/9
f 20/1/10 21/1/10 19/1/10
f 14/1/11 10/1/11 6/1/11
f 22/1/12 23/1/12 21/1/12
f 24/1/13 1/1/13 23/1/13
f 15/1/14 19/1/14 23/1/14
f 25/2/15 37/2/15 26/2/15
f 26/2/16 37/2/16 27/2/16
f 27/2/17 37/2/17 28/2/17
f 28/2/18 37/2/18 29/2/18
f 29/2/19 37/2/19 30/2/19
f 30/2/20 37/2/20 31/2/20
f 31/2/21 37/2/21 32/2/21
f 32/2/22 37/2/22 33/2/22
f 33/2/23 37/2/23 34/2/23
f 34/2/24 37/2/24 35/2/24
f 32/2/14 34/2/14 36/2/14
f 35/2/25 37/2/25 36/2/25
f 36/2/26 37/2/26 25/2/26
f 39/2/1 40/2/1 38/2/1
f 41/2/2 42/2/2 40/2/2
f 43/2/3 44/2/3 42/2/3
f 45/2/4 46/2/4 44/2/4
f 47/2/5 48/2/5 46/2/5
f 49/2/6 50/2/6 48/2/6
f 51/2/7 52/2/7 50/2/7
f 53/2/8 54/2/8 52/2/8
f 55/2/9 56/2/9 54/2/9
f 57/2/10 58/2/10 56/2/10
f 59/2/11 51/2/11 43/2/11
f 59/2/12 60/2/12 58/2/12
f 61/2/13 38/2/13 60/2/13
f 44/2/14 52/2/14 60/2/14
f 63/2/1 64/2/1 62/2/1
f 65/2/2 66/2/2 64/2/2
f 67/2/3 68/2/3 66/2/3
f 69/2/4 70/2/4 68/2/4
f 71/2/5 72/2/5 70/2/5
f 73/2/6 74/2/6 72/2/6
f 75/2/7 76/2/7 74/2/7
f 77/2/8 78/2/8 76/2/8
f 79/2/9 80/2/9 78/2/9
f 81/2/10 82/2/10 80/2/10
f 83/2/11 75/2/11 67/2/11
f 83/2/12 84/2/12 82/2/12
f 85/2/13 62/2/13 84/2/13
f 68/2/14 76/2/14 84/2/14
f 87/3/1 88/3/1 86/3/1
f 89/3/2 90/3/2 88/3/2
f 91/3/3 92/3/3 90/3/3
f 93/3/4 94/3/4 92/3/4
f 95/3/5 96/3/5 94/3/5
f 97/3/6 98/3/6 96/3/6
f 99/3/7 100/3/7 98/3/7
f 101/3/8 102/3/8 100/3/8
f 103/3/9 104/3/9 102/3/9
f 105/3/10 106/3/10 104/3/10
f 99/3/11 95/3/11 91/3/11
f 107/3/12 108/3/12 106/3/12
f 109/3/13 86/3/13 108/3/13
f 92/3/14 96/3/14 100/3/14
f 110/2/27 111/2/27 112/2/27
f 113/2/28 114/2/28 115/2/28
f 116/2/29 117/2/29 118/2/29
f 119/2/30 120/2/30 121/2/30
f 122/2/31 123/2/31 124/2/31
f 125/2/32 126/2/32 127/2/32
f 128/2/33 129/2/33 130/2/33
f 131/2/34 132/2/34 133/2/34
f 110/2/35 117/2/35 116/2/35
f 113/2/8 112/2/8 111/2/8
f 119/2/36 115/2/36 114/2/36
f 118/2/12 121/2/12 120/2/12
f 116/2/37 129/2/37 128/2/37
f 131/2/38 120/2/38 119/2/38
f 130/2/2 133/2/2 132/2/2
f 128/2/39 123/2/39 122/2/39
f 125/2/40 132/2/40 131/2/40
f 124/2/5 127/2/5 126/2/5
f 122/2/41 111/2/41 110/2/41
f 114/2/42 126/2/42 125/2/42
f 128/2/14 110/2/14 116/2/14
f 115/2/43 117/2/43 112/2/43
f 126/2/44 111/2/44 124/2/44
f 119/2/11 125/2/11 131/2/11
f 120/2/45 129/2/45 118/2/45
f 132/2/46 123/2/46 130/2/46
f 134/2/29 135/2/29 136/2/29
f 137/2/47 138/2/47 139/2/47
f 140/2/48 141/2/48 142/2/48
f 143/2/49 144/2/49 145/2/49
f 146/2/27 147/2/27 148/2/27
f 149/2/50 150/2/50 151/2/50
f 152/2/51 153/2/51 154/2/51
f 155/2/52 156/2/52 157/2/52
f 134/2/37 141/2/37 140/2/37
f 137/2/12 136/2/12 135/2/12
f 143/2/38 139/2/38 138/2/38
f 142/2/2 145/2/2 144/2/2
f 140/2/39 153/2/39 152/2/39
f 155/2/40 144/2/40 143/2/40
f 154/2/5 157/2/5 156/2/5
f 152/2/41 147/2/41 146/2/41
f 149/2/42 156/2/42 155/2/42
f 148/2/8 151/2/8 150/2/8
f 146/2/35 135/2/35 134/2/35
f 138/2/36 150/2/36 149/2/36
f 152/2/14 134/2/14 140/2/14
f 139/2/45 141/2/45 136/2/45
f 150/2/43 135/2/43 148/2/43
f 143/2/11 149/2/11 155/2/11
f 144/2/46 153/2/46 142/2/46
f 156/2/44 147/2/44 154/2/44
f 158/2/33 159/2/33 160/2/33
f 161/2/34 162/2/34 163/2/34
f 164/2/31 165/2/31 166/2/31
f 167/2/32 168/2/32 169/2/32
f 170/2/29 171/2/29 172/2/29
f 173/2/53 174/2/53 175/2/53
f 176/2/27 177/2/27 178/2/27
f 179/2/28 180/2/28 181/2/28
f 158/2/39 165/2/39 164/2/39
f 161/2/2 160/2/2 159/2/2
f 167/2/40 163/2/40 162/2/40
f 166/2/5 169/2/5 168/2/5
f 176/2/41 166/2/41 177/2/41
f 179/2/42 168/2/42 167/2/42
f 178/2/8 181/2/8 180/2/8
f 176/2/35 171/2/35 170/2/35
f 173/2/36 180/2/36 179/2/36
f 172/2/12 175/2/12 174/2/12
f 158/2/37 172/2/37 159/2/37
f 162/2/38 174/2/38 173/2/38
f 176/2/14 158/2/14 164/2/14
f 163/2/46 165/2/46 160/2/46
f 174/2/45 159/2/45 172/2/45
f 167/2/11 173/2/11 179/2/11
f 168/2/44 177/2/44 166/2/44
f 180/2/43 171/2/43 178/2/43
f 182/2/31 183/2/31 184/2/31
f 185/2/52 186/2/52 187/2/52
f 188/2/54 189/2/54 190/2/54
f 191/2/55 192/2/55 193/2/55
f 194/2/33 195/2/33 196/2/33
f 197/2/56 198/2/56 199/2/56
f 200/2/57 201/2/57 202/2/57
f 203/2/47 204/2/47 205/2/47
f 182/2/41 189/2/41 188/2/41
f 185/2/5 184/2/5 183/2/5
f 191/2/42 187/2/42 186/2/42
f 190/2/8 193/2/8 192/2/8
f 200/2/35 190/2/35 201/2/35
f 203/2/36 192/2/36 191/2/36
f 202/2/12 205/2/12 204/2/12
f 200/2/37 195/2/37 194/2/37
f 197/2/38 204/2/38 203/2/38
f 196/2/2 199/2/2 198/2/2
f 182/2/39 196/2/39 183/2/39
f 186/2/40 198/2/40 197/2/40
f 200/2/14 182/2/14 188/2/14
f 187/2/44 189/2/44 184/2/44
f 198/2/46 183/2/46 196/2/46
f 191/2/11 197/2/11 203/2/11
f 192/2/43 201/2/43 190/2/43
f 204/2/45 195/2/45 202/2/45
f 2/1/1 4/1/1 3/1/1
f 4/1/2 6/1/2 5/1/2
f 6/1/3 8/1/3 7/1/3
f 8/1/4 10/1/4 9/1/4
f 10/1/5 12/1/5 11/1/5
f 12/1/6 14/1/6 13/1/6
f 14/1/7 16/1/7 15/1/7
f 16/1/8 18/1/8 17/1/8
f 18/1/9 20/1/9 19/1/9
f 20/1/10 22/1/10 21/1/10
f 6/1/11 4/1/11 2/1/11
f 2/1/11 24/1/11 22/1/11
f 22/1/11 20/1/11 18/1/11
f 18/1/11 16/1/11 14/1/11
f 14/1/11 12/1/11 10/1/11
f 10/1/11 8/1/11 6/1/11
f 6/1/11 2/1/11 14/1/11
f 2/1/11 22/1/11 14/1/11
f 22/1/11 18/1/11 14/1/11
f 22/1/12 24/1/12 23/1/12
f 24/1/13 2/1/13 1/1/13
f 23/1/14 1/1/14 3/1/14
f 3/1/14 5/1/14 7/1/14
f 7/1/14 9/1/14 11/1/14
f 11/1/14 13/1/14 15/1/14
f 15/1/14 17/1/14 19/1/14
f 19/1/14 21/1/14 23/1/14
f 23/1/14 3/1/14 15/1/14
f 3/1/14 7/1/14 15/1/14
f 7/1/14 11/1/14 15/1/14
f 36/2/14 25/2/14 26/2/14
f 26/2/14 27/2/14 28/2/14
f 28/2/14 29/2/14 30/2/14
f 30/2/14 31/2/14 32/2/14
f 32/2/14 33/2/14 34/2/14
f 34/2/14 35/2/14 36/2/14
f 36/2/14 26/2/14 32/2/14
f 26/2/14 28/2/14 32/2/14
f 28/2/14 30/2/14 32/2/14
f 39/2/1 41/2/1 40/2/1
f 41/2/2 43/2/2 42/2/2
f 43/2/3 45/2/3 44/2/3
f 45/2/4 47/2/4 46/2/4
f 47/2/5 49/2/5 48/2/5
f 49/2/6 51/2/6 50/2/6
f 51/2/7 53/2/7 52/2/7
f 53/2/8 55/2/8 54/2/8
f 55/2/9 57/2/9 56/2/9
f 57/2/10 59/2/10 58/2/10
f 43/2/11 41/2/11 39/2/11
f 39/2/11 61/2/11 59/2/11
f 59/2/11 57/2/11 55/2/11
f 55/2/11 53/2/11 51/2/11
f 51/2/11 49/2/11 47/2/11
f 47/2/11 45/2/11 43/2/11
f 43/2/11 39/2/11 59/2/11
f 59/2/11 55/2/11 51/2/11
f 51/2/11 47/2/11 43/2/11
f 59/2/12 61/2/12 60/2/12
f 61/2/13 39/2/13 38/2/13
f 60/2/14 38/2/14 40/2/14
f 40/2/14 42/2/14 44/2/14
f 44/2/14 46/2/14 48/2/14
f 48/2/14 50/2/14 52/2/14
f 52/2/14 54/2/14 56/2/14
f 56/2/14 58/2/14 60/2/14
f 60/2/14 40/2/14 44/2/14
f 44/2/14 48/2/14 52/2/14
f 52/2/14 56/2/14 60/2/14
f 63/2/1 65/2/1 64/2/1
f 65/2/2 67/2/2 66/2/2
f 67/2/3 69/2/3 68/2/3
f 69/2/4 71/2/4 70/2/4
f 71/2/5 73/2/5 72/2/5
f 73/2/6 75/2/6 74/2/6
f 75/2/7 77/2/7 76/2/7
f 77/2/8 79/2/8 78/2/8
f 79/2/9 81/2/9 80/2/9
f 81/2/10 83/2/10 82/2/10
f 67/2/11 65/2/11 63/2/11
f 63/2/11 85/2/11 83/2/11
f 83/2/11 81/2/11 79/2/11
f 79/2/11 77/2/11 75/2/11
f 75/2/11 73/2/11 71/2/11
f 71/2/11 69/2/11 67/2/11
f 67/2/11 63/2/11 83/2/11
f 83/2/11 79/2/11 75/2/11
f 75/2/11 71/2/11 67/2/11
f 83/2/12 85/2/12 84/2/12
f 85/2/13 63/2/13 62/2/13
f 84/2/14 62/2/14 64/2/14
f 64/2/14 66/2/14 68/2/14
f 68/2/14 70/2/14 72/2/14
f 72/2/14 74/2/14 76/2/14
f 76/2/14 78/2/14 80/2/14
f 80/2/14 82/2/14 84/2/14
f 84/2/14 64/2/14 68/2/14
f 68/2/14 72/2/14 76/2/14
f 76/2/14 80/2/14 84/2/14
f 87/3/1 89/3/1 88/3/1
f 89/3/2 91/3/2 90/3/2
f 91/3/3 93/3/3 92/3/3
f 93/3/4 95/3/4 94/3/4
f 95/3/5 97/3/5 96/3/5
f 97/3/6 99/3/6 98/3/6
f 99/3/7 101/3/7 100/3/7
f 101/3/8 103/3/8 102/3/8
f 103/3/9 105/3/9 104/3/9
f 105/3/10 107/3/10 106/3/10
f 91/3/11 89/3/11 87/3/11
f 87/3/11 109/3/11 107/3/11
f 107/3/11 105/3/11 103/3/11
f 103/3/11 101/3/11 107/3/11
f 101/3/11 99/3/11 107/3/11
f 99/3/11 97/3/11 95/3/11
f 95/3/11 93/3/11 91/3/11
f 91/3/11 87/3/11 99/3/11
f 87/3/11 107/3/11 99/3/11
f 107/3/12 109/3/12 108/3/12
f 109/3/13 87/3/13 86/3/13
f 108/3/14 86/3/14 88/3/14
f 88/3/14 90/3/14 92/3/14
f 92/3/14 94/3/14 96/3/14
f 96/3/14 98/3/14 100/3/14
f 100/3/14 102/3/14 104/3/14
f 104/3/14 106/3/14 100/3/14
f 106/3/14 108/3/14 100/3/14
f 108/3/14 88/3/14 100/3/14
f 88/3/14 92/3/14 100/3/14
f 110/2/35 112/2/35 117/2/35
f 113/2/8 115/2/8 112/2/8
f 119/2/36 121/2/36 115/2/36
f 118/2/12 117/2/12 121/2/12
f 116/2/37 118/2/37 129/2/37
f 131/2/38 133/2/38 120/2/38
f 130/2/2 129/2/2 133/2/2
f 128/2/39 130/2/39 123/2/39
f 125/2/40 127/2/40 132/2/40
f 124/2/5 123/2/5 127/2/5
f 122/2/41 124/2/41 111/2/41
f 114/2/42 113/2/42 126/2/42
f 128/2/14 122/2/14 110/2/14
f 115/2/43 121/2/43 117/2/43
f 126/2/44 113/2/44 111/2/44
f 119/2/11 114/2/11 125/2/11
f 120/2/45 133/2/45 129/2/45
f 132/2/46 127/2/46 123/2/46
f 134/2/37 136/2/37 141/2/37
f 137/2/12 139/2/12 136/2/12
f 143/2/38 145/2/38 139/2/38
f 142/2/2 141/2/2 145/2/2
f 140/2/39 142/2/39 153/2/39
f 155/2/40 157/2/40 144/2/40
f 154/2/5 153/2/5 157/2/5
f 152/2/41 154/2/41 147/2/41
f 149/2/42 151/2/42 156/2/42
f 148/2/8 147/2/8 151/2/8
f 146/2/35 148/2/35 135/2/35
f 138/2/36 137/2/36 150/2/36
f 152/2/14 146/2/14 134/2/14
f 139/2/45 145/2/45 141/2/45
f 150/2/43 137/2/43 135/2/43
f 143/2/11 138/2/11 149/2/11
f 144/2/46 157/2/46 153/2/46
f 156/2/44 151/2/44 147/2/44
f 158/2/39 160/2/39 165/2/39
f 161/2/2 163/2/2 160/2/2
f 167/2/40 169/2/40 163/2/40
f 166/2/5 165/2/5 169/2/5
f 176/2/41 164/2/41 166/2/41
f 179/2/42 181/2/42 168/2/42
f 178/2/8 177/2/8 181/2/8
f 176/2/35 178/2/35 171/2/35
f 173/2/36 175/2/36 180/2/36
f 172/2/12 171/2/12 175/2/12
f 158/2/37 170/2/37 172/2/37
f 162/2/38 161/2/38 174/2/38
f 176/2/14 170/2/14 158/2/14
f 163/2/46 169/2/46 165/2/46
f 174/2/45 161/2/45 159/2/45
f 167/2/11 162/2/11 173/2/11
f 168/2/44 181/2/44 177/2/44
f 180/2/43 175/2/43 171/2/43
f 182/2/41 184/2/41 189/2/41
f 185/2/5 187/2/5 184/2/5
f 191/2/42 193/2/42 187/2/42
f 190/2/8 189/2/8 193/2/8
f 200/2/35 188/2/35 190/2/35
f 203/2/36 205/2/36 192/2/36
f 202/2/12 201/2/12 205/2/12
f 200/2/37 202/2/37 195/2/37
f 197/2/38 199/2/38 204/2/38
f 196/2/2 195/2/2 199/2/2
f 182/2/39 194/2/39 196/2/39
f 186/2/40 185/2/40 198/2/40
f 200/2/14 194/2/14 182/2/14
f 187/2/44 193/2/44 189/2/44
f 198/2/46 185/2/46 183/2/46
f 191/2/11 186/2/11 197/2/11
f 192/2/43 205/2/43 201/2/43
f 204/2/45 199/2/45 195/2/45
