# Blender 5.2.1 LTS
# www.blender.org
mtllib projectile_grenade.mtl
o projectile_grenade
v 0.000000 -0.320000 0.000000
v 0.188138 -0.143110 0.136689
v -0.071861 -0.143110 0.221169
v -0.232551 -0.143109 0.000000
v -0.071861 -0.143110 -0.221169
v 0.188138 -0.143110 -0.136689
v 0.071861 0.143110 0.221169
v -0.188138 0.143110 0.136689
v -0.188138 0.143110 -0.136689
v 0.071861 0.143110 -0.221169
v 0.232551 0.143109 0.000000
v 0.000000 0.320000 0.000000
v -0.042238 -0.272209 0.129999
v 0.110584 -0.272209 0.080343
v 0.068346 -0.168236 0.210343
v 0.221168 -0.168235 0.000000
v 0.110584 -0.272209 -0.080343
v -0.136690 -0.272209 0.000000
v -0.178929 -0.168236 0.129999
v -0.042238 -0.272209 -0.129999
v -0.178929 -0.168236 -0.129999
v 0.068346 -0.168236 -0.210343
v 0.247275 0.000000 0.080343
v 0.247275 0.000000 -0.080343
v 0.000000 0.000000 0.260000
v 0.152824 0.000000 0.210344
v -0.247275 0.000000 0.080343
v -0.152824 0.000000 0.210344
v -0.152824 0.000000 -0.210344
v -0.247275 0.000000 -0.080343
v 0.152824 0.000000 -0.210344
v 0.000000 0.000000 -0.260000
v 0.178929 0.168236 0.129999
v -0.068346 0.168236 0.210343
v -0.221168 0.168235 0.000000
v -0.068346 0.168236 -0.210343
v 0.178929 0.168236 -0.129999
v 0.042238 0.272209 0.129999
v 0.136690 0.272209 0.000000
v -0.110584 0.272209 0.080343
v -0.110584 0.272209 -0.080343
v 0.042238 0.272209 -0.129999
v 0.000000 0.280000 -0.100000
v 0.000000 0.380000 -0.100000
v 0.050000 0.280000 -0.086603
v 0.050000 0.380000 -0.086603
v 0.086603 0.280000 -0.050000
v 0.086603 0.380000 -0.050000
v 0.100000 0.280000 0.000000
v 0.100000 0.380000 0.000000
v 0.086603 0.280000 0.050000
v 0.086603 0.380000 0.050000
v 0.050000 0.280000 0.086603
v 0.050000 0.380000 0.086603
v 0.000000 0.280000 0.100000
v 0.000000 0.380000 0.100000
v -0.050000 0.280000 0.086603
v -0.050000 0.380000 0.086603
v -0.086603 0.280000 0.050000
v -0.086603 0.380000 0.050000
v -0.100000 0.280000 0.000000
v -0.100000 0.380000 0.000000
v -0.086603 0.280000 -0.050000
v -0.086603 0.380000 -0.050000
v -0.050000 0.280000 -0.086603
v -0.050000 0.380000 -0.086603
v 0.073000 0.250000 0.172000
v 0.073000 0.268000 0.190000
v 0.055000 0.268000 0.172000
v 0.073000 0.332000 0.190000
v 0.073000 0.350000 0.172000
v 0.055000 0.332000 0.172000
v 0.073000 0.250000 -0.172000
v 0.055000 0.268000 -0.172000
v 0.073000 0.268000 -0.190000
v 0.073000 0.350000 -0.172000
v 0.073000 0.332000 -0.190000
v 0.055000 0.332000 -0.172000
v 0.127000 0.250000 0.172000
v 0.145000 0.268000 0.172000
v 0.127000 0.268000 0.190000
v 0.127000 0.350000 0.172000
v 0.127000 0.332000 0.190000
v 0.145000 0.332000 0.172000
v 0.127000 0.250000 -0.172000
v 0.127000 0.268000 -0.190000
v 0.145000 0.268000 -0.172000
v 0.127000 0.350000 -0.172000
v 0.145000 0.332000 -0.172000
v 0.127000 0.332000 -0.190000
v 0.000000 -0.162500 -0.255000
v 0.000000 -0.137500 -0.255000
v 0.127500 -0.162500 -0.220836
v 0.127500 -0.137500 -0.220836
v 0.220836 -0.162500 -0.127500
v 0.220836 -0.137500 -0.127500
v 0.255000 -0.162500 0.000000
v 0.255000 -0.137500 0.000000
v 0.220836 -0.162500 0.127500
v 0.220836 -0.137500 0.127500
v 0.127500 -0.162500 0.220836
v 0.127500 -0.137500 0.220836
v 0.000000 -0.162500 0.255000
v 0.000000 -0.137500 0.255000
v -0.127500 -0.162500 0.220836
v -0.127500 -0.137500 0.220836
v -0.220836 -0.162500 0.127500
v -0.220836 -0.137500 0.127500
v -0.255000 -0.162500 0.000000
v -0.255000 -0.137500 0.000000
v -0.220836 -0.162500 -0.127500
v -0.220836 -0.137500 -0.127500
v -0.127500 -0.162500 -0.220836
v -0.127500 -0.137500 -0.220836
v 0.000000 -0.012500 -0.255000
v 0.000000 0.012500 -0.255000
v 0.127500 -0.012500 -0.220836
v 0.127500 0.012500 -0.220836
v 0.220836 -0.012500 -0.127500
v 0.220836 0.012500 -0.127500
v 0.255000 -0.012500 0.000000
v 0.255000 0.012500 0.000000
v 0.220836 -0.012500 0.127500
v 0.220836 0.012500 0.127500
v 0.127500 -0.012500 0.220836
v 0.127500 0.012500 0.220836
v 0.000000 -0.012500 0.255000
v 0.000000 0.012500 0.255000
v -0.127500 -0.012500 0.220836
v -0.127500 0.012500 0.220836
v -0.220836 -0.012500 0.127500
v -0.220836 0.012500 0.127500
v -0.255000 -0.012500 0.000000
v -0.255000 0.012500 0.000000
v -0.220836 -0.012500 -0.127500
v -0.220836 0.012500 -0.127500
v -0.127500 -0.012500 -0.220836
v -0.127500 0.012500 -0.220836
v 0.000000 0.137500 -0.255000
v 0.000000 0.162500 -0.255000
v 0.127500 0.137500 -0.220836
v 0.127500 0.162500 -0.220836
v 0.220836 0.137500 -0.127500
v 0.220836 0.162500 -0.127500
v 0.255000 0.137500 0.000000
v 0.255000 0.162500 0.000000
v 0.220836 0.137500 0.127500
v 0.220836 0.162500 0.127500
v 0.127500 0.137500 0.220836
v 0.127500 0.162500 0.220836
v 0.000000 0.137500 0.255000
v 0.000000 0.162500 0.255000
v -0.127500 0.137500 0.220836
v -0.127500 0.162500 0.220836
v -0.220836 0.137500 0.127500
v -0.220836 0.162500 0.127500
v -0.255000 0.137500 0.000000
v -0.255000 0.162500 0.000000
v -0.220836 0.137500 -0.127500
v -0.220836 0.162500 -0.127500
v -0.127500 0.137500 -0.220836
v -0.127500 0.162500 -0.220836
vn 0.1226 -0.9179 0.3773
vn 0.7590 -0.5827 0.2905
vn -0.3209 -0.9179 0.2332
vn -0.3209 -0.9179 -0.2332
vn 0.1226 -0.9179 -0.3773
vn 0.9223 -0.2736 0.2731
vn 0.0252 -0.2736 0.9615
vn -0.9067 -0.2736 0.3211
vn -0.5856 -0.2736 -0.7631
vn 0.5448 -0.2736 -0.7927
vn 0.8048 -0.1023 0.5847
vn -0.3074 -0.1023 0.9461
vn -0.9947 -0.1023 -0.0000
vn -0.3074 -0.1023 -0.9461
vn 0.8048 -0.1023 -0.5847
vn 0.4433 0.5827 0.6811
vn -0.5108 0.5827 0.6320
vn -0.7590 0.5827 -0.2905
vn 0.0418 0.5827 -0.8116
vn 0.7848 0.5827 -0.2111
vn 0.3209 0.9179 -0.2332
vn 0.5542 0.7285 -0.4026
vn 0.4433 0.5827 -0.6811
vn -0.1226 0.9179 -0.3773
vn -0.2117 0.7285 -0.6515
vn -0.5108 0.5827 -0.6320
vn -0.3967 0.9179 -0.0000
vn -0.6850 0.7285 -0.0000
vn -0.7590 0.5827 0.2905
vn -0.1226 0.9179 0.3773
vn -0.2117 0.7285 0.6515
vn 0.0418 0.5827 0.8116
vn 0.3209 0.9179 0.2332
vn 0.5542 0.7285 0.4026
vn 0.7848 0.5827 0.2111
vn 0.9067 0.2736 -0.3211
vn 0.7995 0.1533 -0.5808
vn 0.5856 0.2736 -0.7631
vn -0.0252 0.2736 -0.9615
vn -0.3054 0.1533 -0.9398
vn -0.5448 0.2736 -0.7927
vn -0.9223 0.2736 -0.2731
vn -0.9882 0.1533 -0.0000
vn -0.9223 0.2736 0.2731
vn -0.5448 0.2736 0.7927
vn -0.3054 0.1533 0.9398
vn -0.0252 0.2736 0.9615
vn 0.5856 0.2736 0.7631
vn 0.7995 0.1533 0.5808
vn 0.9067 0.2736 0.3211
vn 0.3074 0.1023 -0.9461
vn 0.3054 -0.1533 -0.9398
vn 0.0252 -0.2736 -0.9615
vn -0.8048 0.1023 -0.5847
vn -0.7995 -0.1533 -0.5808
vn -0.9067 -0.2736 -0.3211
vn -0.8048 0.1023 0.5847
vn -0.7995 -0.1533 0.5808
vn -0.5856 -0.2736 0.7631
vn 0.3074 0.1023 0.9461
vn 0.3054 -0.1533 0.9398
vn 0.5448 -0.2736 0.7927
vn 0.9947 0.1023 -0.0000
vn 0.9882 -0.1533 -0.0000
vn 0.9223 -0.2736 -0.2731
vn 0.5108 -0.5827 -0.6320
vn 0.2117 -0.7285 -0.6515
vn -0.0418 -0.5827 -0.8116
vn -0.4433 -0.5827 -0.6811
vn -0.5542 -0.7285 -0.4026
vn -0.7848 -0.5827 -0.2111
vn -0.7848 -0.5827 0.2111
vn -0.5542 -0.7285 0.4026
vn -0.4433 -0.5827 0.6811
vn 0.7590 -0.5827 -0.2905
vn 0.6850 -0.7285 -0.0000
vn 0.3967 -0.9179 -0.0000
vn -0.0418 -0.5827 0.8116
vn 0.2117 -0.7285 0.6515
vn 0.5108 -0.5827 0.6320
vn 0.2588 -0.0000 -0.9659
vn 0.7071 -0.0000 -0.7071
vn 0.9659 -0.0000 -0.2588
vn 0.9659 -0.0000 0.2588
vn 0.7071 -0.0000 0.7071
vn 0.2588 -0.0000 0.9659
vn -0.2588 -0.0000 0.9659
vn -0.7071 -0.0000 0.7071
vn -0.9659 -0.0000 0.2588
vn -0.9659 -0.0000 -0.2588
vn -0.0000 1.0000 -0.0000
vn -0.7071 -0.0000 -0.7071
vn -0.2588 -0.0000 -0.9659
vn -0.0000 -1.0000 -0.0000
vn -0.5773 -0.5774 0.5774
vn -0.5773 0.5774 0.5774
vn -0.5773 -0.5774 -0.5774
vn -0.5773 0.5774 -0.5774
vn 0.5773 -0.5774 0.5774
vn 0.5773 0.5774 0.5774
vn 0.5773 -0.5774 -0.5774
vn 0.5773 0.5774 -0.5774
vn -0.7071 -0.7071 -0.0000
vn -0.7071 0.7071 -0.0000
vn -0.0000 -0.7071 -0.7071
vn -0.0000 0.7071 -0.7071
vn 0.7071 -0.7071 -0.0000
vn 0.7071 0.7071 -0.0000
vn -0.0000 -0.7071 0.7071
vn -0.0000 0.7071 0.7071
vn -1.0000 -0.0000 -0.0000
vn -0.0000 -0.0000 1.0000
vn -0.0000 -0.0000 -1.0000
vn 1.0000 -0.0000 -0.0000
vt 0.625000 0.125000
vt 0.125000 0.625000
vt 0.375000 0.875000
s 0
usemtl WorldPickupPalette
f 1/1/1 14/1/1 13/1/1
f 2/1/2 14/1/2 16/1/2
f 1/1/3 13/1/3 18/1/3
f 1/1/4 18/1/4 20/1/4
f 1/1/5 20/1/5 17/1/5
f 2/1/6 16/1/6 23/1/6
f 3/1/7 15/1/7 25/1/7
f 4/1/8 19/1/8 27/1/8
f 5/1/9 21/1/9 29/1/9
f 6/1/10 22/1/10 31/1/10
f 2/1/11 23/1/11 26/1/11
f 3/1/12 25/1/12 28/1/12
f 4/1/13 27/1/13 30/1/13
f 5/1/14 29/1/14 32/1/14
f 6/1/15 31/1/15 24/1/15
f 7/1/16 33/1/16 38/1/16
f 8/1/17 34/1/17 40/1/17
f 9/1/18 35/1/18 41/1/18
f 10/1/19 36/1/19 42/1/19
f 11/1/20 37/1/20 39/1/20
f 39/1/21 42/1/21 12/1/21
f 39/1/22 37/1/22 42/1/22
f 37/1/23 10/1/23 42/1/23
f 42/1/24 41/1/24 12/1/24
f 42/1/25 36/1/25 41/1/25
f 36/1/26 9/1/26 41/1/26
f 41/1/27 40/1/27 12/1/27
f 41/1/28 35/1/28 40/1/28
f 35/1/29 8/1/29 40/1/29
f 40/1/30 38/1/30 12/1/30
f 40/1/31 34/1/31 38/1/31
f 34/1/32 7/1/32 38/1/32
f 38/1/33 39/1/33 12/1/33
f 38/1/34 33/1/34 39/1/34
f 33/1/35 11/1/35 39/1/35
f 24/1/36 37/1/36 11/1/36
f 24/1/37 31/1/37 37/1/37
f 31/1/38 10/1/38 37/1/38
f 32/1/39 36/1/39 10/1/39
f 32/1/40 29/1/40 36/1/40
f 29/1/41 9/1/41 36/1/41
f 30/1/42 35/1/42 9/1/42
f 30/1/43 27/1/43 35/1/43
f 27/1/44 8/1/44 35/1/44
f 28/1/45 34/1/45 8/1/45
f 28/1/46 25/1/46 34/1/46
f 25/1/47 7/1/47 34/1/47
f 26/1/48 33/1/48 7/1/48
f 26/1/49 23/1/49 33/1/49
f 23/1/50 11/1/50 33/1/50
f 31/1/51 32/1/51 10/1/51
f 31/1/52 22/1/52 32/1/52
f 22/1/53 5/1/53 32/1/53
f 29/1/54 30/1/54 9/1/54
f 29/1/55 21/1/55 30/1/55
f 21/1/56 4/1/56 30/1/56
f 27/1/57 28/1/57 8/1/57
f 27/1/58 19/1/58 28/1/58
f 19/1/59 3/1/59 28/1/59
f 25/1/60 26/1/60 7/1/60
f 25/1/61 15/1/61 26/1/61
f 15/1/62 2/1/62 26/1/62
f 23/1/63 24/1/63 11/1/63
f 23/1/64 16/1/64 24/1/64
f 16/1/65 6/1/65 24/1/65
f 17/1/66 22/1/66 6/1/66
f 17/1/67 20/1/67 22/1/67
f 20/1/68 5/1/68 22/1/68
f 20/1/69 21/1/69 5/1/69
f 20/1/70 18/1/70 21/1/70
f 18/1/71 4/1/71 21/1/71
f 18/1/72 19/1/72 4/1/72
f 18/1/73 13/1/73 19/1/73
f 13/1/74 3/1/74 19/1/74
f 16/1/75 17/1/75 6/1/75
f 16/1/76 14/1/76 17/1/76
f 14/1/77 1/1/77 17/1/77
f 13/1/78 15/1/78 3/1/78
f 13/1/79 14/1/79 15/1/79
f 14/1/80 2/1/80 15/1/80
f 44/2/81 45/2/81 43/2/81
f 46/2/82 47/2/82 45/2/82
f 48/2/83 49/2/83 47/2/83
f 50/2/84 51/2/84 49/2/84
f 52/2/85 53/2/85 51/2/85
f 54/2/86 55/2/86 53/2/86
f 56/2/87 57/2/87 55/2/87
f 58/2/88 59/2/88 57/2/88
f 60/2/89 61/2/89 59/2/89
f 62/2/90 63/2/90 61/2/90
f 64/2/91 56/2/91 48/2/91
f 64/2/92 65/2/92 63/2/92
f 66/2/93 43/2/93 65/2/93
f 49/2/94 57/2/94 65/2/94
f 67/3/95 68/3/95 69/3/95
f 70/3/96 71/3/96 72/3/96
f 73/3/97 74/3/97 75/3/97
f 76/3/98 77/3/98 78/3/98
f 79/3/99 80/3/99 81/3/99
f 82/3/100 83/3/100 84/3/100
f 85/3/101 86/3/101 87/3/101
f 88/3/102 89/3/102 90/3/102
f 67/3/103 74/3/103 73/3/103
f 70/3/88 69/3/88 68/3/88
f 76/3/104 72/3/104 71/3/104
f 75/3/92 78/3/92 77/3/92
f 73/3/105 86/3/105 85/3/105
f 88/3/106 77/3/106 76/3/106
f 87/3/82 90/3/82 89/3/82
f 85/3/107 80/3/107 79/3/107
f 82/3/108 89/3/108 88/3/108
f 81/3/85 84/3/85 83/3/85
f 79/3/109 68/3/109 67/3/109
f 71/3/110 83/3/110 82/3/110
f 85/3/94 67/3/94 73/3/94
f 72/3/111 74/3/111 69/3/111
f 83/3/112 68/3/112 81/3/112
f 76/3/91 82/3/91 88/3/91
f 77/3/113 86/3/113 75/3/113
f 89/3/114 80/3/114 87/3/114
f 92/2/81 93/2/81 91/2/81
f 94/2/82 95/2/82 93/2/82
f 96/2/83 97/2/83 95/2/83
f 98/2/84 99/2/84 97/2/84
f 100/2/85 101/2/85 99/2/85
f 102/2/86 103/2/86 101/2/86
f 104/2/87 105/2/87 103/2/87
f 106/2/88 107/2/88 105/2/88
f 108/2/89 109/2/89 107/2/89
f 110/2/90 111/2/90 109/2/90
f 112/2/91 104/2/91 96/2/91
f 112/2/92 113/2/92 111/2/92
f 114/2/93 91/2/93 113/2/93
f 97/2/94 105/2/94 113/2/94
f 116/2/81 117/2/81 115/2/81
f 118/2/82 119/2/82 117/2/82
f 120/2/83 121/2/83 119/2/83
f 122/2/84 123/2/84 121/2/84
f 124/2/85 125/2/85 123/2/85
f 126/2/86 127/2/86 125/2/86
f 128/2/87 129/2/87 127/2/87
f 130/2/88 131/2/88 129/2/88
f 132/2/89 133/2/89 131/2/89
f 134/2/90 135/2/90 133/2/90
f 136/2/91 128/2/91 120/2/91
f 136/2/92 137/2/92 135/2/92
f 138/2/93 115/2/93 137/2/93
f 121/2/94 129/2/94 137/2/94
f 140/2/81 141/2/81 139/2/81
f 142/2/82 143/2/82 141/2/82
f 144/2/83 145/2/83 143/2/83
f 146/2/84 147/2/84 145/2/84
f 148/2/85 149/2/85 147/2/85
f 150/2/86 151/2/86 149/2/86
f 152/2/87 153/2/87 151/2/87
f 154/2/88 155/2/88 153/2/88
f 156/2/89 157/2/89 155/2/89
f 158/2/90 159/2/90 157/2/90
f 160/2/91 152/2/91 144/2/91
f 160/2/92 161/2/92 159/2/92
f 162/2/93 139/2/93 161/2/93
f 145/2/94 153/2/94 161/2/94
f 44/2/81 46/2/81 45/2/81
f 46/2/82 48/2/82 47/2/82
f 48/2/83 50/2/83 49/2/83
f 50/2/84 52/2/84 51/2/84
f 52/2/85 54/2/85 53/2/85
f 54/2/86 56/2/86 55/2/86
f 56/2/87 58/2/87 57/2/87
f 58/2/88 60/2/88 59/2/88
f 60/2/89 62/2/89 61/2/89
f 62/2/90 64/2/90 63/2/90
f 48/2/91 46/2/91 44/2/91
f 44/2/91 66/2/91 48/2/91
f 66/2/91 64/2/91 48/2/91
f 64/2/91 62/2/91 60/2/91
f 60/2/91 58/2/91 56/2/91
f 56/2/91 54/2/91 52/2/91
f 52/2/91 50/2/91 48/2/91
f 64/2/91 60/2/91 56/2/91
f 56/2/91 52/2/91 48/2/91
f 64/2/92 66/2/92 65/2/92
f 66/2/93 44/2/93 43/2/93
f 65/2/94 43/2/94 45/2/94
f 45/2/94 47/2/94 49/2/94
f 49/2/94 51/2/94 53/2/94
f 53/2/94 55/2/94 57/2/94
f 57/2/94 59/2/94 61/2/94
f 61/2/94 63/2/94 57/2/94
f 63/2/94 65/2/94 57/2/94
f 65/2/94 45/2/94 49/2/94
f 49/2/94 53/2/94 57/2/94
f 67/3/103 69/3/103 74/3/103
f 70/3/88 72/3/88 69/3/88
f 76/3/104 78/3/104 72/3/104
f 75/3/92 74/3/92 78/3/92
f 73/3/105 75/3/105 86/3/105
f 88/3/106 90/3/106 77/3/106
f 87/3/82 86/3/82 90/3/82
f 85/3/107 87/3/107 80/3/107
f 82/3/108 84/3/108 89/3/108
f 81/3/85 80/3/85 84/3/85
f 79/3/109 81/3/109 68/3/109
f 71/3/110 70/3/110 83/3/110
f 85/3/94 79/3/94 67/3/94
f 72/3/111 78/3/111 74/3/111
f 83/3/112 70/3/112 68/3/112
f 76/3/91 71/3/91 82/3/91
f 77/3/113 90/3/113 86/3/113
f 89/3/114 84/3/114 80/3/114
f 92/2/81 94/2/81 93/2/81
f 94/2/82 96/2/82 95/2/82
f 96/2/83 98/2/83 97/2/83
f 98/2/84 100/2/84 99/2/84
f 100/2/85 102/2/85 101/2/85
f 102/2/86 104/2/86 103/2/86
f 104/2/87 106/2/87 105/2/87
f 106/2/88 108/2/88 107/2/88
f 108/2/89 110/2/89 109/2/89
f 110/2/90 112/2/90 111/2/90
f 96/2/91 94/2/91 112/2/91
f 94/2/91 92/2/91 112/2/91
f 92/2/91 114/2/91 112/2/91
f 112/2/91 110/2/91 104/2/91
f 110/2/91 108/2/91 104/2/91
f 108/2/91 106/2/91 104/2/91
f 104/2/91 102/2/91 100/2/91
f 100/2/91 98/2/91 104/2/91
f 98/2/91 96/2/91 104/2/91
f 112/2/92 114/2/92 113/2/92
f 114/2/93 92/2/93 91/2/93
f 113/2/94 91/2/94 97/2/94
f 91/2/94 93/2/94 97/2/94
f 93/2/94 95/2/94 97/2/94
f 97/2/94 99/2/94 101/2/94
f 101/2/94 103/2/94 97/2/94
f 103/2/94 105/2/94 97/2/94
f 105/2/94 107/2/94 113/2/94
f 107/2/94 109/2/94 113/2/94
f 109/2/94 111/2/94 113/2/94
f 116/2/81 118/2/81 117/2/81
f 118/2/82 120/2/82 119/2/82
f 120/2/83 122/2/83 121/2/83
f 122/2/84 124/2/84 123/2/84
f 124/2/85 126/2/85 125/2/85
f 126/2/86 128/2/86 127/2/86
f 128/2/87 130/2/87 129/2/87
f 130/2/88 132/2/88 131/2/88
f 132/2/89 134/2/89 133/2/89
f 134/2/90 136/2/90 135/2/90
f 120/2/91 118/2/91 136/2/91
f 118/2/91 116/2/91 136/2/91
f 116/2/91 138/2/91 136/2/91
f 136/2/91 134/2/91 128/2/91
f 134/2/91 132/2/91 128/2/91
f 132/2/91 130/2/91 128/2/91
f 128/2/91 126/2/91 124/2/91
f 124/2/91 122/2/91 128/2/91
f 122/2/91 120/2/91 128/2/91
f 136/2/92 138/2/92 137/2/92
f 138/2/93 116/2/93 115/2/93
f 137/2/94 115/2/94 121/2/94
f 115/2/94 117/2/94 121/2/94
f 117/2/94 119/2/94 121/2/94
f 121/2/94 123/2/94 125/2/94
f 125/2/94 127/2/94 121/2/94
f 127/2/94 129/2/94 121/2/94
f 129/2/94 131/2/94 137/2/94
f 131/2/94 133/2/94 137/2/94
f 133/2/94 135/2/94 137/2/94
f 140/2/81 142/2/81 141/2/81
f 142/2/82 144/2/82 143/2/82
f 144/2/83 146/2/83 145/2/83
f 146/2/84 148/2/84 147/2/84
f 148/2/85 150/2/85 149/2/85
f 150/2/86 152/2/86 151/2/86
f 152/2/87 154/2/87 153/2/87
f 154/2/88 156/2/88 155/2/88
f 156/2/89 158/2/89 157/2/89
f 158/2/90 160/2/90 159/2/90
f 144/2/91 142/2/91 160/2/91
f 142/2/91 140/2/91 160/2/91
f 140/2/91 162/2/91 160/2/91
f 160/2/91 158/2/91 152/2/91
f 158/2/91 156/2/91 152/2/91
f 156/2/91 154/2/91 152/2/91
f 152/2/91 150/2/91 148/2/91
f 148/2/91 146/2/91 152/2/91
f 146/2/91 144/2/91 152/2/91
f 160/2/92 162/2/92 161/2/92
f 162/2/93 140/2/93 139/2/93
f 161/2/94 139/2/94 145/2/94
f 139/2/94 141/2/94 145/2/94
f 141/2/94 143/2/94 145/2/94
f 145/2/94 147/2/94 149/2/94
f 149/2/94 151/2/94 145/2/94
f 151/2/94 153/2/94 145/2/94
f 153/2/94 155/2/94 161/2/94
f 155/2/94 157/2/94 161/2/94
f 157/2/94 159/2/94 161/2/94
