# Blender 5.2.1 LTS
# www.blender.org
mtllib pumpjack_arm.mtl
o pumpjack_arm
v -0.975000 -0.130000 0.135000
v -0.975000 -0.105000 0.160000
v -1.000000 -0.105000 0.135000
v -0.975000 0.105000 0.160000
v -0.975000 0.130000 0.135000
v -1.000000 0.105000 0.135000
v -0.975000 -0.130000 -0.135000
v -1.000000 -0.105000 -0.135000
v -0.975000 -0.105000 -0.160000
v -0.975000 0.130000 -0.135000
v -0.975000 0.105000 -0.160000
v -1.000000 0.105000 -0.135000
v 3.775000 -0.130000 0.135000
v 3.800000 -0.105000 0.135000
v 3.775000 -0.105000 0.160000
v 3.775000 0.130000 0.135000
v 3.775000 0.105000 0.160000
v 3.800000 0.105000 0.135000
v 3.775000 -0.130000 -0.135000
v 3.775000 -0.105000 -0.160000
v 3.800000 -0.105000 -0.135000
v 3.775000 0.130000 -0.135000
v 3.800000 0.105000 -0.135000
v 3.775000 0.105000 -0.160000
v -0.890000 0.072500 -0.165000
v -0.890000 0.082500 -0.155000
v -0.900000 0.082500 -0.165000
v -0.890000 0.117500 -0.155000
v -0.890000 0.127500 -0.165000
v -0.900000 0.117500 -0.165000
v -0.890000 0.072500 -0.195000
v -0.900000 0.082500 -0.195000
v -0.890000 0.082500 -0.205000
v -0.890000 0.127500 -0.195000
v -0.890000 0.117500 -0.205000
v -0.900000 0.117500 -0.195000
v 3.690000 0.072500 -0.165000
v 3.700000 0.082500 -0.165000
v 3.690000 0.082500 -0.155000
v 3.690000 0.127500 -0.165000
v 3.690000 0.117500 -0.155000
v 3.700000 0.117500 -0.165000
v 3.690000 0.072500 -0.195000
v 3.690000 0.082500 -0.205000
v 3.700000 0.082500 -0.195000
v 3.690000 0.127500 -0.195000
v 3.700000 0.117500 -0.195000
v 3.690000 0.117500 -0.205000
v -0.700000 0.045000 -0.190000
v -0.700000 0.045000 -0.170000
v -0.661029 0.022500 -0.190000
v -0.661029 0.022500 -0.170000
v -0.661029 -0.022500 -0.190000
v -0.661029 -0.022500 -0.170000
v -0.700000 -0.045000 -0.190000
v -0.700000 -0.045000 -0.170000
v -0.738971 -0.022500 -0.190000
v -0.738971 -0.022500 -0.170000
v -0.738971 0.022500 -0.190000
v -0.738971 0.022500 -0.170000
v 0.000000 0.045000 -0.190000
v 0.000000 0.045000 -0.170000
v 0.038971 0.022500 -0.190000
v 0.038971 0.022500 -0.170000
v 0.038971 -0.022500 -0.190000
v 0.038971 -0.022500 -0.170000
v 0.000000 -0.045000 -0.190000
v 0.000000 -0.045000 -0.170000
v -0.038971 -0.022500 -0.190000
v -0.038971 -0.022500 -0.170000
v -0.038971 0.022500 -0.190000
v -0.038971 0.022500 -0.170000
v 0.800000 0.045000 -0.190000
v 0.800000 0.045000 -0.170000
v 0.838971 0.022500 -0.190000
v 0.838971 0.022500 -0.170000
v 0.838971 -0.022500 -0.190000
v 0.838971 -0.022500 -0.170000
v 0.800000 -0.045000 -0.190000
v 0.800000 -0.045000 -0.170000
v 0.761029 -0.022500 -0.190000
v 0.761029 -0.022500 -0.170000
v 0.761029 0.022500 -0.190000
v 0.761029 0.022500 -0.170000
v 1.600000 0.045000 -0.190000
v 1.600000 0.045000 -0.170000
v 1.638971 0.022500 -0.190000
v 1.638971 0.022500 -0.170000
v 1.638971 -0.022500 -0.190000
v 1.638971 -0.022500 -0.170000
v 1.600000 -0.045000 -0.190000
v 1.600000 -0.045000 -0.170000
v 1.561029 -0.022500 -0.190000
v 1.561029 -0.022500 -0.170000
v 1.561029 0.022500 -0.190000
v 1.561029 0.022500 -0.170000
v 2.400000 0.045000 -0.190000
v 2.400000 0.045000 -0.170000
v 2.438971 0.022500 -0.190000
v 2.438971 0.022500 -0.170000
v 2.438971 -0.022500 -0.190000
v 2.438971 -0.022500 -0.170000
v 2.400000 -0.045000 -0.190000
v 2.400000 -0.045000 -0.170000
v 2.361029 -0.022500 -0.190000
v 2.361029 -0.022500 -0.170000
v 2.361029 0.022500 -0.190000
v 2.361029 0.022500 -0.170000
v 3.300000 0.045000 -0.190000
v 3.300000 0.045000 -0.170000
v 3.338971 0.022500 -0.190000
v 3.338971 0.022500 -0.170000
v 3.338971 -0.022500 -0.190000
v 3.338971 -0.022500 -0.170000
v 3.300000 -0.045000 -0.190000
v 3.300000 -0.045000 -0.170000
v 3.261029 -0.022500 -0.190000
v 3.261029 -0.022500 -0.170000
v 3.261029 0.022500 -0.190000
v 3.261029 0.022500 -0.170000
v -0.890000 0.072500 0.195000
v -0.890000 0.082500 0.205000
v -0.900000 0.082500 0.195000
v -0.890000 0.117500 0.205000
v -0.890000 0.127500 0.195000
v -0.900000 0.117500 0.195000
v -0.890000 0.072500 0.165000
v -0.900000 0.082500 0.165000
v -0.890000 0.082500 0.155000
v -0.890000 0.127500 0.165000
v -0.890000 0.117500 0.155000
v -0.900000 0.117500 0.165000
v 3.690000 0.072500 0.195000
v 3.700000 0.082500 0.195000
v 3.690000 0.082500 0.205000
v 3.690000 0.127500 0.195000
v 3.690000 0.117500 0.205000
v 3.700000 0.117500 0.195000
v 3.690000 0.072500 0.165000
v 3.690000 0.082500 0.155000
v 3.700000 0.082500 0.165000
v 3.690000 0.127500 0.165000
v 3.700000 0.117500 0.165000
v 3.690000 0.117500 0.155000
v -0.700000 0.045000 0.170000
v -0.700000 0.045000 0.190000
v -0.661029 0.022500 0.170000
v -0.661029 0.022500 0.190000
v -0.661029 -0.022500 0.170000
v -0.661029 -0.022500 0.190000
v -0.700000 -0.045000 0.170000
v -0.700000 -0.045000 0.190000
v -0.738971 -0.022500 0.170000
v -0.738971 -0.022500 0.190000
v -0.738971 0.022500 0.170000
v -0.738971 0.022500 0.190000
v 0.000000 0.045000 0.170000
v 0.000000 0.045000 0.190000
v 0.038971 0.022500 0.170000
v 0.038971 0.022500 0.190000
v 0.038971 -0.022500 0.170000
v 0.038971 -0.022500 0.190000
v 0.000000 -0.045000 0.170000
v 0.000000 -0.045000 0.190000
v -0.038971 -0.022500 0.170000
v -0.038971 -0.022500 0.190000
v -0.038971 0.022500 0.170000
v -0.038971 0.022500 0.190000
v 0.800000 0.045000 0.170000
v 0.800000 0.045000 0.190000
v 0.838971 0.022500 0.170000
v 0.838971 0.022500 0.190000
v 0.838971 -0.022500 0.170000
v 0.838971 -0.022500 0.190000
v 0.800000 -0.045000 0.170000
v 0.800000 -0.045000 0.190000
v 0.761029 -0.022500 0.170000
v 0.761029 -0.022500 0.190000
v 0.761029 0.022500 0.170000
v 0.761029 0.022500 0.190000
v 1.600000 0.045000 0.170000
v 1.600000 0.045000 0.190000
v 1.638971 0.022500 0.170000
v 1.638971 0.022500 0.190000
v 1.638971 -0.022500 0.170000
v 1.638971 -0.022500 0.190000
v 1.600000 -0.045000 0.170000
v 1.600000 -0.045000 0.190000
v 1.561029 -0.022500 0.170000
v 1.561029 -0.022500 0.190000
v 1.561029 0.022500 0.170000
v 1.561029 0.022500 0.190000
v 2.400000 0.045000 0.170000
v 2.400000 0.045000 0.190000
v 2.438971 0.022500 0.170000
v 2.438971 0.022500 0.190000
v 2.438971 -0.022500 0.170000
v 2.438971 -0.022500 0.190000
v 2.400000 -0.045000 0.170000
v 2.400000 -0.045000 0.190000
v 2.361029 -0.022500 0.170000
v 2.361029 -0.022500 0.190000
v 2.361029 0.022500 0.170000
v 2.361029 0.022500 0.190000
v 3.300000 0.045000 0.170000
v 3.300000 0.045000 0.190000
v 3.338971 0.022500 0.170000
v 3.338971 0.022500 0.190000
v 3.338971 -0.022500 0.170000
v 3.338971 -0.022500 0.190000
v 3.300000 -0.045000 0.170000
v 3.300000 -0.045000 0.190000
v 3.261029 -0.022500 0.170000
v 3.261029 -0.022500 0.190000
v 3.261029 0.022500 0.170000
v 3.261029 0.022500 0.190000
v 3.295000 -0.270000 0.205000
v 3.295000 -0.235000 0.240000
v 3.260000 -0.235000 0.205000
v 3.295000 0.035000 0.240000
v 3.295000 0.070000 0.205000
v 3.260000 0.035000 0.205000
v 3.295000 -0.270000 -0.205000
v 3.260000 -0.235000 -0.205000
v 3.295000 -0.235000 -0.240000
v 3.295000 0.070000 -0.205000
v 3.295000 0.035000 -0.240000
v 3.260000 0.035000 -0.205000
v 3.705000 -0.270000 0.205000
v 3.740000 -0.235000 0.205000
v 3.705000 -0.235000 0.240000
v 3.705000 0.070000 0.205000
v 3.705000 0.035000 0.240000
v 3.740000 0.035000 0.205000
v 3.705000 -0.270000 -0.205000
v 3.705000 -0.235000 -0.240000
v 3.740000 -0.235000 -0.205000
v 3.705000 0.070000 -0.205000
v 3.740000 0.035000 -0.205000
v 3.705000 0.035000 -0.240000
v 3.367953 -0.540000 0.205000
v 3.367953 -0.505000 0.240000
v 3.332952 -0.505000 0.205000
v 3.367953 -0.235000 0.240000
v 3.367953 -0.200000 0.205000
v 3.332952 -0.235000 0.205000
v 3.367953 -0.540000 -0.205000
v 3.332952 -0.505000 -0.205000
v 3.367953 -0.505000 -0.240000
v 3.367953 -0.200000 -0.205000
v 3.367953 -0.235000 -0.240000
v 3.332952 -0.235000 -0.205000
v 3.777953 -0.540000 0.205000
v 3.812953 -0.505000 0.205000
v 3.777953 -0.505000 0.240000
v 3.777953 -0.200000 0.205000
v 3.777953 -0.235000 0.240000
v 3.812953 -0.235000 0.205000
v 3.777953 -0.540000 -0.205000
v 3.777953 -0.505000 -0.240000
v 3.812953 -0.505000 -0.205000
v 3.777953 -0.200000 -0.205000
v 3.812953 -0.235000 -0.205000
v 3.777953 -0.235000 -0.240000
v 3.437064 -0.810000 0.205000
v 3.437064 -0.775000 0.240000
v 3.402063 -0.775000 0.205000
v 3.437064 -0.505000 0.240000
v 3.437064 -0.470000 0.205000
v 3.402063 -0.505000 0.205000
v 3.437064 -0.810000 -0.205000
v 3.402063 -0.775000 -0.205000
v 3.437064 -0.775000 -0.240000
v 3.437064 -0.470000 -0.205000
v 3.437064 -0.505000 -0.240000
v 3.402063 -0.505000 -0.205000
v 3.847064 -0.810000 0.205000
v 3.882063 -0.775000 0.205000
v 3.847064 -0.775000 0.240000
v 3.847064 -0.470000 0.205000
v 3.847064 -0.505000 0.240000
v 3.882063 -0.505000 0.205000
v 3.847064 -0.810000 -0.205000
v 3.847064 -0.775000 -0.240000
v 3.882063 -0.775000 -0.205000
v 3.847064 -0.470000 -0.205000
v 3.882063 -0.505000 -0.205000
v 3.847064 -0.505000 -0.240000
v 3.498692 -1.080000 0.205000
v 3.498692 -1.045000 0.240000
v 3.463692 -1.045000 0.205000
v 3.498692 -0.775000 0.240000
v 3.498692 -0.740000 0.205000
v 3.463692 -0.775000 0.205000
v 3.498692 -1.080000 -0.205000
v 3.463692 -1.045000 -0.205000
v 3.498692 -1.045000 -0.240000
v 3.498692 -0.740000 -0.205000
v 3.498692 -0.775000 -0.240000
v 3.463692 -0.775000 -0.205000
v 3.908692 -1.080000 0.205000
v 3.943692 -1.045000 0.205000
v 3.908692 -1.045000 0.240000
v 3.908692 -0.740000 0.205000
v 3.908692 -0.775000 0.240000
v 3.943692 -0.775000 0.205000
v 3.908692 -1.080000 -0.205000
v 3.908692 -1.045000 -0.240000
v 3.943692 -1.045000 -0.205000
v 3.908692 -0.740000 -0.205000
v 3.943692 -0.775000 -0.205000
v 3.908692 -0.775000 -0.240000
v 3.549592 -1.350000 0.205000
v 3.549592 -1.315000 0.240000
v 3.514592 -1.315000 0.205000
v 3.549592 -1.045000 0.240000
v 3.549592 -1.010000 0.205000
v 3.514592 -1.045000 0.205000
v 3.549592 -1.350000 -0.205000
v 3.514592 -1.315000 -0.205000
v 3.549592 -1.315000 -0.240000
v 3.549592 -1.010000 -0.205000
v 3.549592 -1.045000 -0.240000
v 3.514592 -1.045000 -0.205000
v 3.959592 -1.350000 0.205000
v 3.994592 -1.315000 0.205000
v 3.959592 -1.315000 0.240000
v 3.959592 -1.010000 0.205000
v 3.959592 -1.045000 0.240000
v 3.994592 -1.045000 0.205000
v 3.959592 -1.350000 -0.205000
v 3.959592 -1.315000 -0.240000
v 3.994592 -1.315000 -0.205000
v 3.959592 -1.010000 -0.205000
v 3.994592 -1.045000 -0.205000
v 3.959592 -1.045000 -0.240000
v 0.000000 0.240000 -0.325000
v 0.000000 0.240000 0.325000
v 0.120000 0.207846 -0.325000
v 0.120000 0.207846 0.325000
v 0.207846 0.120000 -0.325000
v 0.207846 0.120000 0.325000
v 0.240000 -0.000000 -0.325000
v 0.240000 0.000000 0.325000
v 0.207846 -0.120000 -0.325000
v 0.207846 -0.120000 0.325000
v 0.120000 -0.207846 -0.325000
v 0.120000 -0.207846 0.325000
v 0.000000 -0.240000 -0.325000
v 0.000000 -0.240000 0.325000
v -0.120000 -0.207846 -0.325000
v -0.120000 -0.207846 0.325000
v -0.207846 -0.120000 -0.325000
v -0.207846 -0.120000 0.325000
v -0.240000 -0.000000 -0.325000
v -0.240000 0.000000 0.325000
v -0.207846 0.120000 -0.325000
v -0.207846 0.120000 0.325000
v -0.120000 0.207846 -0.325000
v -0.120000 0.207846 0.325000
v 0.000000 0.140000 -0.370000
v 0.000000 0.140000 -0.330000
v 0.070000 0.121244 -0.370000
v 0.070000 0.121244 -0.330000
v 0.121244 0.070000 -0.370000
v 0.121244 0.070000 -0.330000
v 0.140000 -0.000000 -0.370000
v 0.140000 0.000000 -0.330000
v 0.121244 -0.070000 -0.370000
v 0.121244 -0.070000 -0.330000
v 0.070000 -0.121244 -0.370000
v 0.070000 -0.121244 -0.330000
v 0.000000 -0.140000 -0.370000
v 0.000000 -0.140000 -0.330000
v -0.070000 -0.121244 -0.370000
v -0.070000 -0.121244 -0.330000
v -0.121244 -0.070000 -0.370000
v -0.121244 -0.070000 -0.330000
v -0.140000 -0.000000 -0.370000
v -0.140000 0.000000 -0.330000
v -0.121244 0.070000 -0.370000
v -0.121244 0.070000 -0.330000
v -0.070000 0.121244 -0.370000
v -0.070000 0.121244 -0.330000
v 0.000000 0.140000 0.330000
v 0.000000 0.140000 0.370000
v 0.070000 0.121244 0.330000
v 0.070000 0.121244 0.370000
v 0.121244 0.070000 0.330000
v 0.121244 0.070000 0.370000
v 0.140000 -0.000000 0.330000
v 0.140000 0.000000 0.370000
v 0.121244 -0.070000 0.330000
v 0.121244 -0.070000 0.370000
v 0.070000 -0.121244 0.330000
v 0.070000 -0.121244 0.370000
v 0.000000 -0.140000 0.330000
v 0.000000 -0.140000 0.370000
v -0.070000 -0.121244 0.330000
v -0.070000 -0.121244 0.370000
v -0.121244 -0.070000 0.330000
v -0.121244 -0.070000 0.370000
v -0.140000 -0.000000 0.330000
v -0.140000 0.000000 0.370000
v -0.121244 0.070000 0.330000
v -0.121244 0.070000 0.370000
v -0.070000 0.121244 0.330000
v -0.070000 0.121244 0.370000
vn -0.5773 -0.5774 0.5774
vn -0.5773 0.5774 0.5774
vn -0.5773 -0.5774 -0.5774
vn -0.5773 0.5774 -0.5774
vn 0.5773 -0.5774 0.5773
vn 0.5773 0.5774 0.5773
vn 0.5773 -0.5774 -0.5773
vn 0.5773 0.5774 -0.5773
vn -0.7071 -0.7071 -0.0000
vn -0.7071 -0.0000 0.7071
vn -0.7071 0.7071 -0.0000
vn -0.7071 -0.0000 -0.7071
vn -0.0000 -0.7071 -0.7071
vn -0.0000 0.7071 -0.7071
vn 0.7071 -0.0000 -0.7071
vn 0.7071 -0.7071 -0.0000
vn 0.7071 0.7071 -0.0000
vn 0.7071 -0.0000 0.7071
vn -0.0000 -0.7071 0.7071
vn -0.0000 0.7071 0.7071
vn -0.0000 -1.0000 -0.0000
vn -1.0000 -0.0000 -0.0000
vn -0.0000 -0.0000 1.0000
vn -0.0000 1.0000 -0.0000
vn -0.0000 -0.0000 -1.0000
vn 1.0000 -0.0000 -0.0000
vn -0.5774 -0.5774 0.5773
vn -0.5774 0.5774 0.5773
vn -0.5774 -0.5774 -0.5773
vn -0.5774 0.5774 -0.5773
vn 0.5774 -0.5773 0.5774
vn 0.5774 0.5773 0.5774
vn 0.5774 -0.5773 -0.5774
vn 0.5774 0.5773 -0.5774
vn 0.5000 0.8660 -0.0000
vn 0.5000 -0.8660 -0.0000
vn -0.5000 -0.8660 -0.0000
vn -0.5000 0.8660 -0.0000
vn -0.5773 0.5773 0.5774
vn -0.5773 0.5773 -0.5774
vn 0.5774 -0.5773 0.5773
vn 0.5774 0.5773 0.5773
vn 0.5774 -0.5773 -0.5773
vn 0.5774 0.5773 -0.5773
vn -0.5774 -0.5773 0.5774
vn -0.5774 -0.5773 -0.5774
vn 0.5773 -0.5774 0.5774
vn 0.5773 -0.5774 -0.5774
vn 0.2588 0.9659 -0.0000
vn 0.9659 0.2588 -0.0000
vn 0.9659 -0.2588 -0.0000
vn 0.2588 -0.9659 -0.0000
vn -0.2588 -0.9659 -0.0000
vn -0.9659 -0.2588 -0.0000
vn -0.9659 0.2588 -0.0000
vn -0.2588 0.9659 -0.0000
vt 0.625000 0.125000
vt 0.125000 0.625000
vt 0.375000 0.875000
vt 0.625000 0.625000
s 0
usemtl WorldPickupPalette
f 1/1/1 2/1/1 3/1/1
f 4/1/2 5/1/2 6/1/2
f 7/1/3 8/1/3 9/1/3
f 10/1/4 11/1/4 12/1/4
f 13/1/5 14/1/5 15/1/5
f 16/1/6 17/1/6 18/1/6
f 19/1/7 20/1/7 21/1/7
f 22/1/8 23/1/8 24/1/8
f 1/1/9 8/1/9 7/1/9
f 4/1/10 3/1/10 2/1/10
f 10/1/11 6/1/11 5/1/11
f 9/1/12 12/1/12 11/1/12
f 7/1/13 20/1/13 19/1/13
f 22/1/14 11/1/14 10/1/14
f 21/1/15 24/1/15 23/1/15
f 19/1/16 14/1/16 13/1/16
f 16/1/17 23/1/17 22/1/17
f 15/1/18 18/1/18 17/1/18
f 13/1/19 2/1/19 1/1/19
f 5/1/20 17/1/20 16/1/20
f 19/1/21 1/1/21 7/1/21
f 6/1/22 8/1/22 3/1/22
f 17/1/23 2/1/23 15/1/23
f 10/1/24 16/1/24 22/1/24
f 11/1/25 20/1/25 9/1/25
f 23/1/26 14/1/26 21/1/26
f 25/2/27 26/2/27 27/2/27
f 28/2/28 29/2/28 30/2/28
f 31/2/29 32/2/29 33/2/29
f 34/2/30 35/2/30 36/2/30
f 37/2/31 38/2/31 39/2/31
f 40/2/32 41/2/32 42/2/32
f 43/2/33 44/2/33 45/2/33
f 46/2/34 47/2/34 48/2/34
f 25/2/9 32/2/9 31/2/9
f 28/2/10 27/2/10 26/2/10
f 34/2/11 30/2/11 29/2/11
f 33/2/12 36/2/12 35/2/12
f 31/2/13 44/2/13 43/2/13
f 46/2/14 35/2/14 34/2/14
f 45/2/15 48/2/15 47/2/15
f 43/2/16 38/2/16 37/2/16
f 40/2/17 47/2/17 46/2/17
f 39/2/18 42/2/18 41/2/18
f 37/2/19 26/2/19 25/2/19
f 29/2/20 41/2/20 40/2/20
f 43/2/21 25/2/21 31/2/21
f 30/2/22 32/2/22 27/2/22
f 41/2/23 26/2/23 39/2/23
f 34/2/24 40/2/24 46/2/24
f 35/2/25 44/2/25 33/2/25
f 47/2/26 38/2/26 45/2/26
f 50/3/35 51/3/35 49/3/35
f 52/3/26 53/3/26 51/3/26
f 54/3/36 55/3/36 53/3/36
f 55/3/37 58/3/37 57/3/37
f 56/3/23 54/3/23 50/3/23
f 58/3/22 59/3/22 57/3/22
f 59/3/38 50/3/38 49/3/38
f 55/3/25 57/3/25 59/3/25
f 62/3/35 63/3/35 61/3/35
f 64/3/26 65/3/26 63/3/26
f 66/3/36 67/3/36 65/3/36
f 67/3/37 70/3/37 69/3/37
f 68/3/23 66/3/23 62/3/23
f 70/3/22 71/3/22 69/3/22
f 71/3/38 62/3/38 61/3/38
f 67/3/25 69/3/25 71/3/25
f 74/3/35 75/3/35 73/3/35
f 76/3/26 77/3/26 75/3/26
f 78/3/36 79/3/36 77/3/36
f 79/3/37 82/3/37 81/3/37
f 82/3/23 80/3/23 78/3/23
f 82/3/22 83/3/22 81/3/22
f 83/3/38 74/3/38 73/3/38
f 81/3/25 83/3/25 75/3/25
f 86/3/35 87/3/35 85/3/35
f 88/3/26 89/3/26 87/3/26
f 90/3/36 91/3/36 89/3/36
f 91/3/37 94/3/37 93/3/37
f 92/3/23 90/3/23 86/3/23
f 94/3/22 95/3/22 93/3/22
f 95/3/38 86/3/38 85/3/38
f 91/3/25 93/3/25 95/3/25
f 98/3/35 99/3/35 97/3/35
f 100/3/26 101/3/26 99/3/26
f 102/3/36 103/3/36 101/3/36
f 103/3/37 106/3/37 105/3/37
f 104/3/23 102/3/23 98/3/23
f 106/3/22 107/3/22 105/3/22
f 107/3/38 98/3/38 97/3/38
f 103/3/25 105/3/25 107/3/25
f 110/3/35 111/3/35 109/3/35
f 112/3/26 113/3/26 111/3/26
f 114/3/36 115/3/36 113/3/36
f 115/3/37 118/3/37 117/3/37
f 116/3/23 114/3/23 110/3/23
f 118/3/22 119/3/22 117/3/22
f 119/3/38 110/3/38 109/3/38
f 115/3/25 117/3/25 119/3/25
f 121/2/27 122/2/27 123/2/27
f 124/2/28 125/2/28 126/2/28
f 127/2/29 128/2/29 129/2/29
f 130/2/30 131/2/30 132/2/30
f 133/2/31 134/2/31 135/2/31
f 136/2/32 137/2/32 138/2/32
f 139/2/33 140/2/33 141/2/33
f 142/2/34 143/2/34 144/2/34
f 121/2/9 128/2/9 127/2/9
f 124/2/10 123/2/10 122/2/10
f 130/2/11 126/2/11 125/2/11
f 129/2/12 132/2/12 131/2/12
f 127/2/13 140/2/13 139/2/13
f 142/2/14 131/2/14 130/2/14
f 141/2/15 144/2/15 143/2/15
f 139/2/16 134/2/16 133/2/16
f 136/2/17 143/2/17 142/2/17
f 135/2/18 138/2/18 137/2/18
f 133/2/19 122/2/19 121/2/19
f 125/2/20 137/2/20 136/2/20
f 139/2/21 121/2/21 127/2/21
f 126/2/22 128/2/22 123/2/22
f 137/2/23 122/2/23 135/2/23
f 130/2/24 136/2/24 142/2/24
f 131/2/25 140/2/25 129/2/25
f 143/2/26 134/2/26 141/2/26
f 146/3/35 147/3/35 145/3/35
f 148/3/26 149/3/26 147/3/26
f 150/3/36 151/3/36 149/3/36
f 151/3/37 154/3/37 153/3/37
f 152/3/23 150/3/23 146/3/23
f 154/3/22 155/3/22 153/3/22
f 155/3/38 146/3/38 145/3/38
f 151/3/25 153/3/25 155/3/25
f 158/3/35 159/3/35 157/3/35
f 160/3/26 161/3/26 159/3/26
f 162/3/36 163/3/36 161/3/36
f 163/3/37 166/3/37 165/3/37
f 164/3/23 162/3/23 158/3/23
f 166/3/22 167/3/22 165/3/22
f 167/3/38 158/3/38 157/3/38
f 163/3/25 165/3/25 167/3/25
f 170/3/35 171/3/35 169/3/35
f 172/3/26 173/3/26 171/3/26
f 174/3/36 175/3/36 173/3/36
f 175/3/37 178/3/37 177/3/37
f 178/3/23 176/3/23 174/3/23
f 178/3/22 179/3/22 177/3/22
f 179/3/38 170/3/38 169/3/38
f 177/3/25 179/3/25 171/3/25
f 182/3/35 183/3/35 181/3/35
f 184/3/26 185/3/26 183/3/26
f 186/3/36 187/3/36 185/3/36
f 187/3/37 190/3/37 189/3/37
f 188/3/23 186/3/23 182/3/23
f 190/3/22 191/3/22 189/3/22
f 191/3/38 182/3/38 181/3/38
f 187/3/25 189/3/25 191/3/25
f 194/3/35 195/3/35 193/3/35
f 196/3/26 197/3/26 195/3/26
f 198/3/36 199/3/36 197/3/36
f 199/3/37 202/3/37 201/3/37
f 200/3/23 198/3/23 194/3/23
f 202/3/22 203/3/22 201/3/22
f 203/3/38 194/3/38 193/3/38
f 199/3/25 201/3/25 203/3/25
f 206/3/35 207/3/35 205/3/35
f 208/3/26 209/3/26 207/3/26
f 210/3/36 211/3/36 209/3/36
f 211/3/37 214/3/37 213/3/37
f 212/3/23 210/3/23 206/3/23
f 214/3/22 215/3/22 213/3/22
f 215/3/38 206/3/38 205/3/38
f 211/3/25 213/3/25 215/3/25
f 217/4/1 218/4/1 219/4/1
f 220/4/39 221/4/39 222/4/39
f 223/4/3 224/4/3 225/4/3
f 226/4/40 227/4/40 228/4/40
f 229/4/41 230/4/41 231/4/41
f 232/4/42 233/4/42 234/4/42
f 235/4/43 236/4/43 237/4/43
f 238/4/44 239/4/44 240/4/44
f 217/4/9 224/4/9 223/4/9
f 220/4/10 219/4/10 218/4/10
f 226/4/11 222/4/11 221/4/11
f 225/4/12 228/4/12 227/4/12
f 223/4/13 236/4/13 235/4/13
f 238/4/14 227/4/14 226/4/14
f 237/4/15 240/4/15 239/4/15
f 235/4/16 230/4/16 229/4/16
f 232/4/17 239/4/17 238/4/17
f 231/4/18 234/4/18 233/4/18
f 229/4/19 218/4/19 217/4/19
f 221/4/20 233/4/20 232/4/20
f 235/4/21 217/4/21 223/4/21
f 222/4/22 224/4/22 219/4/22
f 233/4/23 218/4/23 231/4/23
f 226/4/24 232/4/24 238/4/24
f 227/4/25 236/4/25 225/4/25
f 239/4/26 230/4/26 237/4/26
f 241/4/45 242/4/45 243/4/45
f 244/4/39 245/4/39 246/4/39
f 247/4/46 248/4/46 249/4/46
f 250/4/40 251/4/40 252/4/40
f 253/4/41 254/4/41 255/4/41
f 256/4/42 257/4/42 258/4/42
f 259/4/43 260/4/43 261/4/43
f 262/4/44 263/4/44 264/4/44
f 241/4/9 248/4/9 247/4/9
f 244/4/10 243/4/10 242/4/10
f 250/4/11 246/4/11 245/4/11
f 249/4/12 252/4/12 251/4/12
f 247/4/13 260/4/13 259/4/13
f 262/4/14 251/4/14 250/4/14
f 261/4/15 264/4/15 263/4/15
f 259/4/16 254/4/16 253/4/16
f 256/4/17 263/4/17 262/4/17
f 255/4/18 258/4/18 257/4/18
f 253/4/19 242/4/19 241/4/19
f 245/4/20 257/4/20 256/4/20
f 259/4/21 241/4/21 247/4/21
f 246/4/22 248/4/22 243/4/22
f 257/4/23 242/4/23 255/4/23
f 250/4/24 256/4/24 262/4/24
f 251/4/25 260/4/25 249/4/25
f 263/4/26 254/4/26 261/4/26
f 265/4/1 266/4/1 267/4/1
f 268/4/2 269/4/2 270/4/2
f 271/4/3 272/4/3 273/4/3
f 274/4/4 275/4/4 276/4/4
f 277/4/41 278/4/41 279/4/41
f 280/4/42 281/4/42 282/4/42
f 283/4/43 284/4/43 285/4/43
f 286/4/44 287/4/44 288/4/44
f 265/4/9 272/4/9 271/4/9
f 268/4/10 267/4/10 266/4/10
f 274/4/11 270/4/11 269/4/11
f 273/4/12 276/4/12 275/4/12
f 271/4/13 284/4/13 283/4/13
f 286/4/14 275/4/14 274/4/14
f 285/4/15 288/4/15 287/4/15
f 283/4/16 278/4/16 277/4/16
f 280/4/17 287/4/17 286/4/17
f 279/4/18 282/4/18 281/4/18
f 277/4/19 266/4/19 265/4/19
f 269/4/20 281/4/20 280/4/20
f 283/4/21 265/4/21 271/4/21
f 270/4/22 272/4/22 267/4/22
f 281/4/23 266/4/23 279/4/23
f 274/4/24 280/4/24 286/4/24
f 275/4/25 284/4/25 273/4/25
f 287/4/26 278/4/26 285/4/26
f 289/4/1 290/4/1 291/4/1
f 292/4/2 293/4/2 294/4/2
f 295/4/3 296/4/3 297/4/3
f 298/4/4 299/4/4 300/4/4
f 301/4/47 302/4/47 303/4/47
f 304/4/42 305/4/42 306/4/42
f 307/4/48 308/4/48 309/4/48
f 310/4/44 311/4/44 312/4/44
f 289/4/9 296/4/9 295/4/9
f 292/4/10 291/4/10 290/4/10
f 298/4/11 294/4/11 293/4/11
f 297/4/12 300/4/12 299/4/12
f 295/4/13 308/4/13 307/4/13
f 310/4/14 299/4/14 298/4/14
f 309/4/15 312/4/15 311/4/15
f 307/4/16 302/4/16 301/4/16
f 304/4/17 311/4/17 310/4/17
f 303/4/18 306/4/18 305/4/18
f 301/4/19 290/4/19 289/4/19
f 293/4/20 305/4/20 304/4/20
f 307/4/21 289/4/21 295/4/21
f 294/4/22 296/4/22 291/4/22
f 305/4/23 290/4/23 303/4/23
f 298/4/24 304/4/24 310/4/24
f 299/4/25 308/4/25 297/4/25
f 311/4/26 302/4/26 309/4/26
f 313/4/1 314/4/1 315/4/1
f 316/4/2 317/4/2 318/4/2
f 319/4/3 320/4/3 321/4/3
f 322/4/4 323/4/4 324/4/4
f 325/4/41 326/4/41 327/4/41
f 328/4/42 329/4/42 330/4/42
f 331/4/43 332/4/43 333/4/43
f 334/4/44 335/4/44 336/4/44
f 313/4/9 320/4/9 319/4/9
f 316/4/10 315/4/10 314/4/10
f 322/4/11 318/4/11 317/4/11
f 321/4/12 324/4/12 323/4/12
f 319/4/13 332/4/13 331/4/13
f 334/4/14 323/4/14 322/4/14
f 333/4/15 336/4/15 335/4/15
f 331/4/16 326/4/16 325/4/16
f 328/4/17 335/4/17 334/4/17
f 327/4/18 330/4/18 329/4/18
f 325/4/19 314/4/19 313/4/19
f 317/4/20 329/4/20 328/4/20
f 331/4/21 313/4/21 319/4/21
f 318/4/22 320/4/22 315/4/22
f 329/4/23 314/4/23 327/4/23
f 322/4/24 328/4/24 334/4/24
f 323/4/25 332/4/25 321/4/25
f 335/4/26 326/4/26 333/4/26
f 338/2/49 339/2/49 337/2/49
f 339/2/17 342/2/17 341/2/17
f 342/2/50 343/2/50 341/2/50
f 344/2/51 345/2/51 343/2/51
f 345/2/16 348/2/16 347/2/16
f 348/2/52 349/2/52 347/2/52
f 350/2/53 351/2/53 349/2/53
f 352/2/9 353/2/9 351/2/9
f 354/2/54 355/2/54 353/2/54
f 356/2/55 357/2/55 355/2/55
f 358/2/23 350/2/23 342/2/23
f 358/2/11 359/2/11 357/2/11
f 360/2/56 337/2/56 359/2/56
f 343/2/25 351/2/25 359/2/25
f 362/3/49 363/3/49 361/3/49
f 364/3/17 365/3/17 363/3/17
f 366/3/50 367/3/50 365/3/50
f 368/3/51 369/3/51 367/3/51
f 370/3/16 371/3/16 369/3/16
f 372/3/52 373/3/52 371/3/52
f 373/3/53 376/3/53 375/3/53
f 376/3/9 377/3/9 375/3/9
f 378/3/54 379/3/54 377/3/54
f 380/3/55 381/3/55 379/3/55
f 362/3/23 382/3/23 374/3/23
f 382/3/11 383/3/11 381/3/11
f 383/3/56 362/3/56 361/3/56
f 379/3/25 383/3/25 367/3/25
f 386/3/49 387/3/49 385/3/49
f 388/3/17 389/3/17 387/3/17
f 390/3/50 391/3/50 389/3/50
f 392/3/51 393/3/51 391/3/51
f 394/3/16 395/3/16 393/3/16
f 396/3/52 397/3/52 395/3/52
f 397/3/53 400/3/53 399/3/53
f 400/3/9 401/3/9 399/3/9
f 402/3/54 403/3/54 401/3/54
f 404/3/55 405/3/55 403/3/55
f 386/3/23 406/3/23 398/3/23
f 406/3/11 407/3/11 405/3/11
f 407/3/56 386/3/56 385/3/56
f 403/3/25 407/3/25 391/3/25
f 1/1/9 3/1/9 8/1/9
f 4/1/10 6/1/10 3/1/10
f 10/1/11 12/1/11 6/1/11
f 9/1/12 8/1/12 12/1/12
f 7/1/13 9/1/13 20/1/13
f 22/1/14 24/1/14 11/1/14
f 21/1/15 20/1/15 24/1/15
f 19/1/16 21/1/16 14/1/16
f 16/1/17 18/1/17 23/1/17
f 15/1/18 14/1/18 18/1/18
f 13/1/19 15/1/19 2/1/19
f 5/1/20 4/1/20 17/1/20
f 19/1/21 13/1/21 1/1/21
f 6/1/22 12/1/22 8/1/22
f 17/1/23 4/1/23 2/1/23
f 10/1/24 5/1/24 16/1/24
f 11/1/25 24/1/25 20/1/25
f 23/1/26 18/1/26 14/1/26
f 25/2/9 27/2/9 32/2/9
f 28/2/10 30/2/10 27/2/10
f 34/2/11 36/2/11 30/2/11
f 33/2/12 32/2/12 36/2/12
f 31/2/13 33/2/13 44/2/13
f 46/2/14 48/2/14 35/2/14
f 45/2/15 44/2/15 48/2/15
f 43/2/16 45/2/16 38/2/16
f 40/2/17 42/2/17 47/2/17
f 39/2/18 38/2/18 42/2/18
f 37/2/19 39/2/19 26/2/19
f 29/2/20 28/2/20 41/2/20
f 43/2/21 37/2/21 25/2/21
f 30/2/22 36/2/22 32/2/22
f 41/2/23 28/2/23 26/2/23
f 34/2/24 29/2/24 40/2/24
f 35/2/25 48/2/25 44/2/25
f 47/2/26 42/2/26 38/2/26
f 50/3/35 52/3/35 51/3/35
f 52/3/26 54/3/26 53/3/26
f 54/3/36 56/3/36 55/3/36
f 55/3/37 56/3/37 58/3/37
f 54/3/23 52/3/23 50/3/23
f 50/3/23 60/3/23 58/3/23
f 58/3/23 56/3/23 50/3/23
f 58/3/22 60/3/22 59/3/22
f 59/3/38 60/3/38 50/3/38
f 59/3/25 49/3/25 55/3/25
f 49/3/25 51/3/25 55/3/25
f 51/3/25 53/3/25 55/3/25
f 62/3/35 64/3/35 63/3/35
f 64/3/26 66/3/26 65/3/26
f 66/3/36 68/3/36 67/3/36
f 67/3/37 68/3/37 70/3/37
f 66/3/23 64/3/23 62/3/23
f 62/3/23 72/3/23 70/3/23
f 70/3/23 68/3/23 62/3/23
f 70/3/22 72/3/22 71/3/22
f 71/3/38 72/3/38 62/3/38
f 71/3/25 61/3/25 67/3/25
f 61/3/25 63/3/25 67/3/25
f 63/3/25 65/3/25 67/3/25
f 74/3/35 76/3/35 75/3/35
f 76/3/26 78/3/26 77/3/26
f 78/3/36 80/3/36 79/3/36
f 79/3/37 80/3/37 82/3/37
f 78/3/23 76/3/23 82/3/23
f 76/3/23 74/3/23 82/3/23
f 74/3/23 84/3/23 82/3/23
f 82/3/22 84/3/22 83/3/22
f 83/3/38 84/3/38 74/3/38
f 83/3/25 73/3/25 75/3/25
f 75/3/25 77/3/25 79/3/25
f 79/3/25 81/3/25 75/3/25
f 86/3/35 88/3/35 87/3/35
f 88/3/26 90/3/26 89/3/26
f 90/3/36 92/3/36 91/3/36
f 91/3/37 92/3/37 94/3/37
f 90/3/23 88/3/23 86/3/23
f 86/3/23 96/3/23 94/3/23
f 94/3/23 92/3/23 86/3/23
f 94/3/22 96/3/22 95/3/22
f 95/3/38 96/3/38 86/3/38
f 95/3/25 85/3/25 91/3/25
f 85/3/25 87/3/25 91/3/25
f 87/3/25 89/3/25 91/3/25
f 98/3/35 100/3/35 99/3/35
f 100/3/26 102/3/26 101/3/26
f 102/3/36 104/3/36 103/3/36
f 103/3/37 104/3/37 106/3/37
f 102/3/23 100/3/23 98/3/23
f 98/3/23 108/3/23 106/3/23
f 106/3/23 104/3/23 98/3/23
f 106/3/22 108/3/22 107/3/22
f 107/3/38 108/3/38 98/3/38
f 107/3/25 97/3/25 103/3/25
f 97/3/25 99/3/25 103/3/25
f 99/3/25 101/3/25 103/3/25
f 110/3/35 112/3/35 111/3/35
f 112/3/26 114/3/26 113/3/26
f 114/3/36 116/3/36 115/3/36
f 115/3/37 116/3/37 118/3/37
f 114/3/23 112/3/23 110/3/23
f 110/3/23 120/3/23 118/3/23
f 118/3/23 116/3/23 110/3/23
f 118/3/22 120/3/22 119/3/22
f 119/3/38 120/3/38 110/3/38
f 119/3/25 109/3/25 115/3/25
f 109/3/25 111/3/25 115/3/25
f 111/3/25 113/3/25 115/3/25
f 121/2/9 123/2/9 128/2/9
f 124/2/10 126/2/10 123/2/10
f 130/2/11 132/2/11 126/2/11
f 129/2/12 128/2/12 132/2/12
f 127/2/13 129/2/13 140/2/13
f 142/2/14 144/2/14 131/2/14
f 141/2/15 140/2/15 144/2/15
f 139/2/16 141/2/16 134/2/16
f 136/2/17 138/2/17 143/2/17
f 135/2/18 134/2/18 138/2/18
f 133/2/19 135/2/19 122/2/19
f 125/2/20 124/2/20 137/2/20
f 139/2/21 133/2/21 121/2/21
f 126/2/22 132/2/22 128/2/22
f 137/2/23 124/2/23 122/2/23
f 130/2/24 125/2/24 136/2/24
f 131/2/25 144/2/25 140/2/25
f 143/2/26 138/2/26 134/2/26
f 146/3/35 148/3/35 147/3/35
f 148/3/26 150/3/26 149/3/26
f 150/3/36 152/3/36 151/3/36
f 151/3/37 152/3/37 154/3/37
f 150/3/23 148/3/23 146/3/23
f 146/3/23 156/3/23 154/3/23
f 154/3/23 152/3/23 146/3/23
f 154/3/22 156/3/22 155/3/22
f 155/3/38 156/3/38 146/3/38
f 155/3/25 145/3/25 151/3/25
f 145/3/25 147/3/25 151/3/25
f 147/3/25 149/3/25 151/3/25
f 158/3/35 160/3/35 159/3/35
f 160/3/26 162/3/26 161/3/26
f 162/3/36 164/3/36 163/3/36
f 163/3/37 164/3/37 166/3/37
f 162/3/23 160/3/23 158/3/23
f 158/3/23 168/3/23 166/3/23
f 166/3/23 164/3/23 158/3/23
f 166/3/22 168/3/22 167/3/22
f 167/3/38 168/3/38 158/3/38
f 167/3/25 157/3/25 163/3/25
f 157/3/25 159/3/25 163/3/25
f 159/3/25 161/3/25 163/3/25
f 170/3/35 172/3/35 171/3/35
f 172/3/26 174/3/26 173/3/26
f 174/3/36 176/3/36 175/3/36
f 175/3/37 176/3/37 178/3/37
f 174/3/23 172/3/23 178/3/23
f 172/3/23 170/3/23 178/3/23
f 170/3/23 180/3/23 178/3/23
f 178/3/22 180/3/22 179/3/22
f 179/3/38 180/3/38 170/3/38
f 179/3/25 169/3/25 171/3/25
f 171/3/25 173/3/25 175/3/25
f 175/3/25 177/3/25 171/3/25
f 182/3/35 184/3/35 183/3/35
f 184/3/26 186/3/26 185/3/26
f 186/3/36 188/3/36 187/3/36
f 187/3/37 188/3/37 190/3/37
f 186/3/23 184/3/23 182/3/23
f 182/3/23 192/3/23 190/3/23
f 190/3/23 188/3/23 182/3/23
f 190/3/22 192/3/22 191/3/22
f 191/3/38 192/3/38 182/3/38
f 191/3/25 181/3/25 187/3/25
f 181/3/25 183/3/25 187/3/25
f 183/3/25 185/3/25 187/3/25
f 194/3/35 196/3/35 195/3/35
f 196/3/26 198/3/26 197/3/26
f 198/3/36 200/3/36 199/3/36
f 199/3/37 200/3/37 202/3/37
f 198/3/23 196/3/23 194/3/23
f 194/3/23 204/3/23 202/3/23
f 202/3/23 200/3/23 194/3/23
f 202/3/22 204/3/22 203/3/22
f 203/3/38 204/3/38 194/3/38
f 203/3/25 193/3/25 199/3/25
f 193/3/25 195/3/25 199/3/25
f 195/3/25 197/3/25 199/3/25
f 206/3/35 208/3/35 207/3/35
f 208/3/26 210/3/26 209/3/26
f 210/3/36 212/3/36 211/3/36
f 211/3/37 212/3/37 214/3/37
f 210/3/23 208/3/23 206/3/23
f 206/3/23 216/3/23 214/3/23
f 214/3/23 212/3/23 206/3/23
f 214/3/22 216/3/22 215/3/22
f 215/3/38 216/3/38 206/3/38
f 215/3/25 205/3/25 211/3/25
f 205/3/25 207/3/25 211/3/25
f 207/3/25 209/3/25 211/3/25
f 217/4/9 219/4/9 224/4/9
f 220/4/10 222/4/10 219/4/10
f 226/4/11 228/4/11 222/4/11
f 225/4/12 224/4/12 228/4/12
f 223/4/13 225/4/13 236/4/13
f 238/4/14 240/4/14 227/4/14
f 237/4/15 236/4/15 240/4/15
f 235/4/16 237/4/16 230/4/16
f 232/4/17 234/4/17 239/4/17
f 231/4/18 230/4/18 234/4/18
f 229/4/19 231/4/19 218/4/19
f 221/4/20 220/4/20 233/4/20
f 235/4/21 229/4/21 217/4/21
f 222/4/22 228/4/22 224/4/22
f 233/4/23 220/4/23 218/4/23
f 226/4/24 221/4/24 232/4/24
f 227/4/25 240/4/25 236/4/25
f 239/4/26 234/4/26 230/4/26
f 241/4/9 243/4/9 248/4/9
f 244/4/10 246/4/10 243/4/10
f 250/4/11 252/4/11 246/4/11
f 249/4/12 248/4/12 252/4/12
f 247/4/13 249/4/13 260/4/13
f 262/4/14 264/4/14 251/4/14
f 261/4/15 260/4/15 264/4/15
f 259/4/16 261/4/16 254/4/16
f 256/4/17 258/4/17 263/4/17
f 255/4/18 254/4/18 258/4/18
f 253/4/19 255/4/19 242/4/19
f 245/4/20 244/4/20 257/4/20
f 259/4/21 253/4/21 241/4/21
f 246/4/22 252/4/22 248/4/22
f 257/4/23 244/4/23 242/4/23
f 250/4/24 245/4/24 256/4/24
f 251/4/25 264/4/25 260/4/25
f 263/4/26 258/4/26 254/4/26
f 265/4/9 267/4/9 272/4/9
f 268/4/10 270/4/10 267/4/10
f 274/4/11 276/4/11 270/4/11
f 273/4/12 272/4/12 276/4/12
f 271/4/13 273/4/13 284/4/13
f 286/4/14 288/4/14 275/4/14
f 285/4/15 284/4/15 288/4/15
f 283/4/16 285/4/16 278/4/16
f 280/4/17 282/4/17 287/4/17
f 279/4/18 278/4/18 282/4/18
f 277/4/19 279/4/19 266/4/19
f 269/4/20 268/4/20 281/4/20
f 283/4/21 277/4/21 265/4/21
f 270/4/22 276/4/22 272/4/22
f 281/4/23 268/4/23 266/4/23
f 274/4/24 269/4/24 280/4/24
f 275/4/25 288/4/25 284/4/25
f 287/4/26 282/4/26 278/4/26
f 289/4/9 291/4/9 296/4/9
f 292/4/10 294/4/10 291/4/10
f 298/4/11 300/4/11 294/4/11
f 297/4/12 296/4/12 300/4/12
f 295/4/13 297/4/13 308/4/13
f 310/4/14 312/4/14 299/4/14
f 309/4/15 308/4/15 312/4/15
f 307/4/16 309/4/16 302/4/16
f 304/4/17 306/4/17 311/4/17
f 303/4/18 302/4/18 306/4/18
f 301/4/19 303/4/19 290/4/19
f 293/4/20 292/4/20 305/4/20
f 307/4/21 301/4/21 289/4/21
f 294/4/22 300/4/22 296/4/22
f 305/4/23 292/4/23 290/4/23
f 298/4/24 293/4/24 304/4/24
f 299/4/25 312/4/25 308/4/25
f 311/4/26 306/4/26 302/4/26
f 313/4/9 315/4/9 320/4/9
f 316/4/10 318/4/10 315/4/10
f 322/4/11 324/4/11 318/4/11
f 321/4/12 320/4/12 324/4/12
f 319/4/13 321/4/13 332/4/13
f 334/4/14 336/4/14 323/4/14
f 333/4/15 332/4/15 336/4/15
f 331/4/16 333/4/16 326/4/16
f 328/4/17 330/4/17 335/4/17
f 327/4/18 326/4/18 330/4/18
f 325/4/19 327/4/19 314/4/19
f 317/4/20 316/4/20 329/4/20
f 331/4/21 325/4/21 313/4/21
f 318/4/22 324/4/22 320/4/22
f 329/4/23 316/4/23 314/4/23
f 322/4/24 317/4/24 328/4/24
f 323/4/25 336/4/25 332/4/25
f 335/4/26 330/4/26 326/4/26
f 338/2/49 340/2/49 339/2/49
f 339/2/17 340/2/17 342/2/17
f 342/2/50 344/2/50 343/2/50
f 344/2/51 346/2/51 345/2/51
f 345/2/16 346/2/16 348/2/16
f 348/2/52 350/2/52 349/2/52
f 350/2/53 352/2/53 351/2/53
f 352/2/9 354/2/9 353/2/9
f 354/2/54 356/2/54 355/2/54
f 356/2/55 358/2/55 357/2/55
f 342/2/23 340/2/23 338/2/23
f 338/2/23 360/2/23 358/2/23
f 358/2/23 356/2/23 354/2/23
f 354/2/23 352/2/23 350/2/23
f 350/2/23 348/2/23 346/2/23
f 346/2/23 344/2/23 342/2/23
f 342/2/23 338/2/23 358/2/23
f 358/2/23 354/2/23 350/2/23
f 350/2/23 346/2/23 342/2/23
f 358/2/11 360/2/11 359/2/11
f 360/2/56 338/2/56 337/2/56
f 359/2/25 337/2/25 339/2/25
f 339/2/25 341/2/25 359/2/25
f 341/2/25 343/2/25 359/2/25
f 343/2/25 345/2/25 351/2/25
f 345/2/25 347/2/25 351/2/25
f 347/2/25 349/2/25 351/2/25
f 351/2/25 353/2/25 359/2/25
f 353/2/25 355/2/25 359/2/25
f 355/2/25 357/2/25 359/2/25
f 362/3/49 364/3/49 363/3/49
f 364/3/17 366/3/17 365/3/17
f 366/3/50 368/3/50 367/3/50
f 368/3/51 370/3/51 369/3/51
f 370/3/16 372/3/16 371/3/16
f 372/3/52 374/3/52 373/3/52
f 373/3/53 374/3/53 376/3/53
f 376/3/9 378/3/9 377/3/9
f 378/3/54 380/3/54 379/3/54
f 380/3/55 382/3/55 381/3/55
f 366/3/23 364/3/23 362/3/23
f 362/3/23 384/3/23 382/3/23
f 382/3/23 380/3/23 374/3/23
f 380/3/23 378/3/23 374/3/23
f 378/3/23 376/3/23 374/3/23
f 374/3/23 372/3/23 370/3/23
f 370/3/23 368/3/23 374/3/23
f 368/3/23 366/3/23 374/3/23
f 366/3/23 362/3/23 374/3/23
f 382/3/11 384/3/11 383/3/11
f 383/3/56 384/3/56 362/3/56
f 383/3/25 361/3/25 367/3/25
f 361/3/25 363/3/25 367/3/25
f 363/3/25 365/3/25 367/3/25
f 367/3/25 369/3/25 371/3/25
f 371/3/25 373/3/25 367/3/25
f 373/3/25 375/3/25 367/3/25
f 375/3/25 377/3/25 379/3/25
f 379/3/25 381/3/25 383/3/25
f 375/3/25 379/3/25 367/3/25
f 386/3/49 388/3/49 387/3/49
f 388/3/17 390/3/17 389/3/17
f 390/3/50 392/3/50 391/3/50
f 392/3/51 394/3/51 393/3/51
f 394/3/16 396/3/16 395/3/16
f 396/3/52 398/3/52 397/3/52
f 397/3/53 398/3/53 400/3/53
f 400/3/9 402/3/9 401/3/9
f 402/3/54 404/3/54 403/3/54
f 404/3/55 406/3/55 405/3/55
f 390/3/23 388/3/23 386/3/23
f 386/3/23 408/3/23 406/3/23
f 406/3/23 404/3/23 398/3/23
f 404/3/23 402/3/23 398/3/23
f 402/3/23 400/3/23 398/3/23
f 398/3/23 396/3/23 394/3/23
f 394/3/23 392/3/23 398/3/23
f 392/3/23 390/3/23 398/3/23
f 390/3/23 386/3/23 398/3/23
f 406/3/11 408/3/11 407/3/11
f 407/3/56 408/3/56 386/3/56
f 407/3/25 385/3/25 391/3/25
f 385/3/25 387/3/25 391/3/25
f 387/3/25 389/3/25 391/3/25
f 391/3/25 393/3/25 395/3/25
f 395/3/25 397/3/25 391/3/25
f 397/3/25 399/3/25 391/3/25
f 399/3/25 401/3/25 403/3/25
f 403/3/25 405/3/25 407/3/25
f 399/3/25 403/3/25 391/3/25
