# Blender 5.2.1 LTS
# www.blender.org
mtllib rockMass3.mtl
o rockMass3
v -0.003585 0.003789 0.000876
v 0.555541 0.195212 0.467894
v -0.195118 0.197644 0.678584
v -0.714100 0.177000 0.000876
v -0.233494 0.178376 -0.812619
v 0.645750 0.200409 -0.541491
v 0.186690 0.673436 0.674135
v -0.492022 0.686924 0.408849
v -0.656172 0.670916 -0.544207
v 0.218839 0.672711 -0.786135
v 0.754206 0.706423 0.000876
v -0.003585 1.000000 0.000876
v -0.118336 0.000000 0.406904
v 0.329024 0.044066 0.278693
v 0.193149 0.149188 0.696962
v 0.655265 0.173590 0.000876
v 0.383830 0.032275 -0.322718
v -0.430393 0.019622 0.000876
v -0.629179 0.149955 0.523416
v -0.130167 0.011593 -0.447011
v -0.489936 0.135786 -0.405359
v 0.233615 0.167933 -0.838387
v 0.711752 0.442468 0.268083
v 0.853963 0.442468 -0.319453
v -0.003585 0.442468 0.853963
v 0.529674 0.442468 0.844687
v -0.853963 0.442468 0.318526
v -0.536391 0.442468 0.843969
v -0.408995 0.442468 -0.640630
v -0.801906 0.442468 -0.297329
v 0.504442 0.442468 -0.803008
v -0.003585 0.442468 -0.853963
v 0.622775 0.739803 0.524057
v -0.182286 0.718453 0.633155
v -0.766950 0.753938 0.000876
v -0.210801 0.729797 -0.732295
v 0.473248 0.736385 -0.397409
v 0.119466 0.879365 0.436272
v 0.419207 0.904614 0.000876
v -0.377753 0.889313 0.313405
v -0.341041 0.884708 -0.280989
v 0.141948 0.933055 -0.514070
v 0.177104 0.088151 -0.127010
v 0.405790 0.182612 0.140995
v 0.089755 0.182612 0.306635
v -0.105570 0.182612 -0.127010
v 0.089755 0.182612 -0.560656
v 0.405790 0.182612 -0.395016
v 0.264452 0.335454 0.306635
v -0.051582 0.335454 0.140995
v -0.051582 0.335454 -0.395016
v 0.264452 0.335454 -0.560656
v 0.459777 0.335454 -0.127010
v 0.177104 0.429915 -0.127010
v -0.064052 0.262981 -0.133973
v 0.116822 0.362199 0.066653
v -0.133139 0.362199 0.190650
v -0.287626 0.362199 -0.133973
v -0.133139 0.362199 -0.458595
v 0.116822 0.362199 -0.334598
v 0.005034 0.522737 0.190650
v -0.244926 0.522737 0.066653
v -0.244926 0.522737 -0.334598
v 0.005034 0.522737 -0.458595
v 0.159522 0.522737 -0.133973
v -0.064052 0.621954 -0.133973
v -0.320465 0.529406 0.281962
v -0.073860 0.582748 0.543595
v -0.414658 0.582748 0.705298
v -0.625287 0.582748 0.281962
v -0.414658 0.582748 -0.141375
v -0.073860 0.582748 0.020328
v -0.226272 0.669057 0.705298
v -0.567070 0.669057 0.543595
v -0.567070 0.669057 0.020328
v -0.226272 0.669057 -0.141375
v -0.015642 0.669057 0.281962
v -0.320465 0.722399 0.281962
vn 0.1037 -0.9944 0.0200
vn 0.4660 -0.8736 0.1400
vn -0.0371 -0.9991 -0.0198
vn -0.0371 -0.9993 -0.0069
vn 0.0476 -0.9984 -0.0309
vn 0.8942 -0.3958 0.2093
vn -0.1053 -0.5233 0.8456
vn -0.8227 -0.5588 0.1048
vn -0.8205 -0.1955 -0.5371
vn 0.5458 -0.4471 -0.7087
vn 0.8975 -0.3380 0.2834
vn -0.0154 -0.5743 0.8185
vn -0.9173 -0.3905 -0.0775
vn -0.4499 0.2578 -0.8550
vn 0.8003 -0.1578 -0.5785
vn 0.1018 0.7662 0.6345
vn -0.5137 0.5857 0.6270
vn -0.4159 0.8826 -0.2190
vn 0.0097 0.7238 -0.6899
vn 0.4884 0.8256 -0.2825
vn 0.2196 0.9735 -0.0645
vn 0.5587 0.7885 -0.2572
vn 0.5666 0.6694 -0.4805
vn -0.1824 0.9671 -0.1773
vn -0.2727 0.8831 -0.3818
vn -0.2781 0.8810 -0.3827
vn -0.3036 0.9524 -0.0261
vn -0.3094 0.9506 -0.0265
vn -0.6195 0.5926 0.5148
vn -0.0499 0.9588 0.2798
vn -0.1117 0.8465 0.5206
vn 0.0202 0.7587 0.6511
vn 0.2155 0.9550 0.2037
vn 0.2268 0.9508 0.2113
vn 0.5078 0.8584 0.0728
vn 0.6127 0.6929 -0.3801
vn 0.6041 0.6667 -0.4366
vn 0.5381 0.7017 -0.4671
vn -0.0715 0.3448 -0.9360
vn -0.4653 0.0389 -0.8843
vn -0.3857 -0.0281 -0.9222
vn -0.9146 0.3285 -0.2359
vn -0.9785 0.1890 -0.0827
vn -0.5683 0.6599 0.4914
vn -0.3883 0.8198 0.4210
vn -0.0147 0.6188 0.7854
vn -0.0115 0.6202 0.7844
vn 0.1313 0.7076 0.6943
vn 0.9533 0.0261 0.3010
vn 0.9676 0.0850 0.2377
vn 0.0979 0.1930 -0.9763
vn 0.0998 0.0298 -0.9946
vn -0.0571 -0.1057 -0.9928
vn -0.6122 -0.3666 -0.7006
vn -0.6101 -0.3746 -0.6982
vn -0.7171 -0.6119 -0.3336
vn -0.5826 0.7325 0.3521
vn -0.8208 -0.2833 0.4961
vn -0.1696 -0.7030 0.6906
vn 0.0138 0.6072 0.7945
vn 0.0154 -0.4638 0.8858
vn 0.4217 -0.7445 0.5175
vn 0.9687 0.0816 0.2345
vn 0.8903 -0.4012 0.2155
vn 0.7773 -0.6276 -0.0447
vn 0.3042 -0.8957 -0.3242
vn 0.1065 -0.9535 -0.2819
vn -0.0427 -0.9135 -0.4046
vn -0.3421 -0.8877 -0.3082
vn -0.3407 -0.9160 -0.2120
vn -0.4775 -0.8608 -0.1762
vn -0.4848 -0.8740 0.0336
vn -0.2482 -0.9579 0.1445
vn -0.1116 -0.8183 0.5638
vn 0.5087 -0.8594 -0.0514
vn 0.4086 -0.9110 0.0551
vn 0.0968 -0.9949 0.0283
vn -0.1287 -0.8189 0.5594
vn 0.1767 -0.9395 0.2935
vn 0.3198 -0.8891 0.3274
vn 0.1231 -0.9642 0.2348
vn 0.3818 -0.9243 -0.0000
vn -0.3138 -0.9389 0.1413
vn -0.3138 -0.9389 -0.1413
vn 0.1231 -0.9642 -0.2348
vn 0.9429 -0.3331 -0.0000
vn 0.4101 -0.4687 0.7824
vn -0.8471 -0.3698 0.3816
vn -0.8471 -0.3698 -0.3816
vn 0.4101 -0.4687 -0.7824
vn 0.8471 0.3698 0.3816
vn -0.4101 0.4687 0.7824
vn -0.9429 0.3331 -0.0000
vn -0.4101 0.4687 -0.7824
vn 0.8471 0.3698 -0.3816
vn 0.3138 0.9389 0.1413
vn -0.1231 0.9642 0.2348
vn -0.3818 0.9243 -0.0000
vn -0.1231 0.9642 -0.2348
vn 0.3138 0.9389 -0.1413
vn 0.1584 -0.9343 0.3193
vn 0.4809 -0.8768 -0.0000
vn -0.3983 -0.8975 0.1895
vn -0.3983 -0.8975 -0.1895
vn 0.1584 -0.9343 -0.3193
vn 0.9664 -0.2570 -0.0000
vn 0.4151 -0.3572 0.8367
vn -0.8656 -0.2846 0.4120
vn -0.8656 -0.2846 -0.4120
vn 0.4151 -0.3572 -0.8367
vn 0.8656 0.2846 0.4120
vn -0.4151 0.3572 0.8367
vn -0.9664 0.2570 -0.0000
vn -0.4151 0.3572 -0.8367
vn 0.8656 0.2846 -0.4120
vn 0.3983 0.8975 0.1895
vn -0.1584 0.9343 0.3193
vn -0.4809 0.8768 -0.0000
vn -0.1584 0.9343 -0.3193
vn 0.3983 0.8975 -0.1895
vn 0.0660 -0.9881 0.1392
vn 0.2114 -0.9774 -0.0000
vn -0.1717 -0.9814 0.0855
vn -0.1717 -0.9814 -0.0855
vn 0.0660 -0.9881 -0.1392
vn 0.8290 -0.5592 -0.0000
vn 0.3130 -0.6832 0.6597
vn -0.7175 -0.5982 0.3570
vn -0.7175 -0.5982 -0.3570
vn 0.3130 -0.6832 -0.6597
vn 0.7175 0.5982 0.3570
vn -0.3130 0.6832 0.6597
vn -0.8290 0.5592 -0.0000
vn -0.3130 0.6832 -0.6597
vn 0.7175 0.5982 -0.3570
vn 0.1717 0.9814 0.0855
vn -0.0660 0.9881 0.1392
vn -0.2114 0.9774 -0.0000
vn -0.0660 0.9881 -0.1392
vn 0.1717 0.9814 -0.0855
vt 0.125000 0.625000
vt 0.375000 0.875000
vt 0.625000 0.125000
s 0
usemtl WorldPickupPalette
f 1/1/1 14/1/1 13/1/1
f 2/1/2 14/1/2 16/1/2
f 1/1/3 13/1/3 18/1/3
f 1/1/4 18/1/4 20/1/4
f 1/1/5 20/1/5 17/1/5
f 2/1/6 16/1/6 23/1/6
f 3/1/7 15/1/7 25/1/7
f 4/1/8 19/1/8 27/1/8
f 5/1/9 21/1/9 29/1/9
f 6/1/10 22/1/10 31/1/10
f 2/1/11 23/1/11 26/1/11
f 3/1/12 25/1/12 28/1/12
f 4/1/13 27/1/13 30/1/13
f 5/1/14 29/1/14 32/1/14
f 6/1/15 31/1/15 24/1/15
f 7/1/16 33/1/16 38/1/16
f 8/1/17 34/1/17 40/1/17
f 9/1/18 35/1/18 41/1/18
f 10/1/19 36/1/19 42/1/19
f 11/1/20 37/1/20 39/1/20
f 39/1/21 42/1/21 12/1/21
f 39/1/22 37/1/22 42/1/22
f 37/1/23 10/1/23 42/1/23
f 42/1/24 41/1/24 12/1/24
f 42/1/25 36/1/25 41/1/25
f 36/1/26 9/1/26 41/1/26
f 41/1/27 40/1/27 12/1/27
f 41/1/28 35/1/28 40/1/28
f 35/1/29 8/1/29 40/1/29
f 40/1/30 38/1/30 12/1/30
f 40/1/31 34/1/31 38/1/31
f 34/1/32 7/1/32 38/1/32
f 38/1/33 39/1/33 12/1/33
f 38/1/34 33/1/34 39/1/34
f 33/1/35 11/1/35 39/1/35
f 24/1/36 37/1/36 11/1/36
f 24/1/37 31/1/37 37/1/37
f 31/1/38 10/1/38 37/1/38
f 32/1/39 36/1/39 10/1/39
f 32/1/40 29/1/40 36/1/40
f 29/1/41 9/1/41 36/1/41
f 30/1/42 35/1/42 9/1/42
f 30/1/43 27/1/43 35/1/43
f 27/1/44 8/1/44 35/1/44
f 28/1/45 34/1/45 8/1/45
f 28/1/46 25/1/46 34/1/46
f 25/1/47 7/1/47 34/1/47
f 26/1/48 33/1/48 7/1/48
f 26/1/49 23/1/49 33/1/49
f 23/1/50 11/1/50 33/1/50
f 31/1/51 32/1/51 10/1/51
f 31/1/52 22/1/52 32/1/52
f 22/1/53 5/1/53 32/1/53
f 29/1/54 30/1/54 9/1/54
f 29/1/55 21/1/55 30/1/55
f 21/1/56 4/1/56 30/1/56
f 27/1/57 28/1/57 8/1/57
f 27/1/58 19/1/58 28/1/58
f 19/1/59 3/1/59 28/1/59
f 25/1/60 26/1/60 7/1/60
f 25/1/61 15/1/61 26/1/61
f 15/1/62 2/1/62 26/1/62
f 23/1/63 24/1/63 11/1/63
f 23/1/64 16/1/64 24/1/64
f 16/1/65 6/1/65 24/1/65
f 17/1/66 22/1/66 6/1/66
f 17/1/67 20/1/67 22/1/67
f 20/1/68 5/1/68 22/1/68
f 20/1/69 21/1/69 5/1/69
f 20/1/70 18/1/70 21/1/70
f 18/1/71 4/1/71 21/1/71
f 18/1/72 19/1/72 4/1/72
f 18/1/73 13/1/73 19/1/73
f 13/1/74 3/1/74 19/1/74
f 16/1/75 17/1/75 6/1/75
f 16/1/76 14/1/76 17/1/76
f 14/1/77 1/1/77 17/1/77
f 13/1/78 15/1/78 3/1/78
f 13/1/79 14/1/79 15/1/79
f 14/1/80 2/1/80 15/1/80
f 43/2/81 44/2/81 45/2/81
f 44/2/82 43/2/82 48/2/82
f 43/2/83 45/2/83 46/2/83
f 43/2/84 46/2/84 47/2/84
f 43/2/85 47/2/85 48/2/85
f 44/2/86 48/2/86 53/2/86
f 45/2/87 44/2/87 49/2/87
f 46/2/88 45/2/88 50/2/88
f 47/2/89 46/2/89 51/2/89
f 48/2/90 47/2/90 52/2/90
f 44/2/91 53/2/91 49/2/91
f 45/2/92 49/2/92 50/2/92
f 46/2/93 50/2/93 51/2/93
f 47/2/94 51/2/94 52/2/94
f 48/2/95 52/2/95 53/2/95
f 49/2/96 53/2/96 54/2/96
f 50/2/97 49/2/97 54/2/97
f 51/2/98 50/2/98 54/2/98
f 52/2/99 51/2/99 54/2/99
f 53/2/100 52/2/100 54/2/100
f 55/3/101 56/3/101 57/3/101
f 56/3/102 55/3/102 60/3/102
f 55/3/103 57/3/103 58/3/103
f 55/3/104 58/3/104 59/3/104
f 55/3/105 59/3/105 60/3/105
f 56/3/106 60/3/106 65/3/106
f 57/3/107 56/3/107 61/3/107
f 58/3/108 57/3/108 62/3/108
f 59/3/109 58/3/109 63/3/109
f 60/3/110 59/3/110 64/3/110
f 56/3/111 65/3/111 61/3/111
f 57/3/112 61/3/112 62/3/112
f 58/3/113 62/3/113 63/3/113
f 59/3/114 63/3/114 64/3/114
f 60/3/115 64/3/115 65/3/115
f 61/3/116 65/3/116 66/3/116
f 62/3/117 61/3/117 66/3/117
f 63/3/118 62/3/118 66/3/118
f 64/3/119 63/3/119 66/3/119
f 65/3/120 64/3/120 66/3/120
f 67/2/121 68/2/121 69/2/121
f 68/2/122 67/2/122 72/2/122
f 67/2/123 69/2/123 70/2/123
f 67/2/124 70/2/124 71/2/124
f 67/2/125 71/2/125 72/2/125
f 68/2/126 72/2/126 77/2/126
f 69/2/127 68/2/127 73/2/127
f 70/2/128 69/2/128 74/2/128
f 71/2/129 70/2/129 75/2/129
f 72/2/130 71/2/130 76/2/130
f 68/2/131 77/2/131 73/2/131
f 69/2/132 73/2/132 74/2/132
f 70/2/133 74/2/133 75/2/133
f 71/2/134 75/2/134 76/2/134
f 72/2/135 76/2/135 77/2/135
f 73/2/136 77/2/136 78/2/136
f 74/2/137 73/2/137 78/2/137
f 75/2/138 74/2/138 78/2/138
f 76/2/139 75/2/139 78/2/139
f 77/2/140 76/2/140 78/2/140
