# Blender 5.2.1 LTS
# www.blender.org
mtllib rockMass0.mtl
o rockMass0
v 0.002993 0.072249 0.046007
v 0.522672 0.184876 0.433325
v -0.210504 0.177448 0.720073
v -0.669780 0.184991 0.046007
v -0.246489 0.192810 -0.741671
v 0.672432 0.185729 -0.452929
v 0.222897 0.667270 0.740299
v -0.644713 0.656879 0.528745
v -0.552968 0.676257 -0.368354
v 0.224329 0.657252 -0.652805
v 0.829777 0.659452 0.046007
v 0.002993 1.000000 0.046007
v -0.116426 0.039368 0.423044
v 0.339902 0.039896 0.297106
v 0.208743 0.143953 0.695587
v 0.780036 0.180632 0.046007
v 0.361285 0.045430 -0.221030
v -0.453551 0.050015 0.046007
v -0.647470 0.136112 0.530804
v -0.131418 0.000000 -0.378362
v -0.563286 0.152526 -0.376047
v 0.192791 0.156559 -0.553211
v 0.808723 0.435250 0.314564
v 0.670483 0.435250 -0.176474
v 0.002993 0.435250 0.773483
v 0.558095 0.435250 0.829777
v -0.829777 0.435250 0.323576
v -0.496410 0.435250 0.751134
v -0.472913 0.435250 -0.625945
v -0.812627 0.435250 -0.225847
v 0.415818 0.435250 -0.536876
v 0.002993 0.435250 -0.829777
v 0.588186 0.728199 0.482156
v -0.190751 0.706041 0.657682
v -0.783151 0.734066 0.046007
v -0.226600 0.739044 -0.678851
v 0.635741 0.720793 -0.425587
v 0.140215 0.898861 0.479250
v 0.456973 0.926293 0.046007
v -0.382314 0.882329 0.333178
v -0.314715 0.870008 -0.190783
v 0.117832 0.865005 -0.316567
v 0.059331 0.104510 0.341946
v 0.221161 0.188299 0.590491
v -0.002482 0.188299 0.744103
v -0.140704 0.188299 0.341946
v -0.002482 0.188299 -0.060212
v 0.221161 0.188299 0.093401
v 0.121143 0.323873 0.744103
v -0.102499 0.323873 0.590491
v -0.102499 0.323873 0.093401
v 0.121143 0.323873 -0.060212
v 0.259366 0.323873 0.341946
v 0.059331 0.407662 0.341946
v 0.151154 0.266093 0.128545
v 0.315057 0.359600 0.344120
v 0.088551 0.359600 0.477356
v -0.051442 0.359600 0.128545
v 0.088551 0.359600 -0.220266
v 0.315057 0.359600 -0.087030
v 0.213758 0.510899 0.477356
v -0.012748 0.510899 0.344120
v -0.012748 0.510899 -0.087030
v 0.213758 0.510899 -0.220266
v 0.353751 0.510899 0.128545
v 0.151154 0.604406 0.128545
v 0.377299 0.455413 0.330928
v 0.575348 0.543306 0.508743
v 0.301652 0.543306 0.618641
v 0.132494 0.543306 0.330928
v 0.301652 0.543306 0.043215
v 0.575348 0.543306 0.153113
v 0.452945 0.685520 0.618641
v 0.179249 0.685520 0.508743
v 0.179249 0.685520 0.153113
v 0.452945 0.685520 0.043215
v 0.622103 0.685520 0.330928
v 0.377299 0.773413 0.330928
vn -0.0250 -0.9952 -0.0947
vn 0.4429 -0.8436 0.3036
vn 0.0485 -0.9963 -0.0715
vn 0.0481 -0.9871 0.1528
vn 0.0416 -0.9871 0.1549
vn 0.6850 -0.5638 0.4614
vn 0.0381 -0.2329 0.9717
vn -0.8495 -0.5275 -0.0141
vn -0.6913 -0.3417 -0.6366
vn 0.2099 -0.1110 -0.9714
vn 0.6954 -0.6340 0.3383
vn -0.0441 -0.1675 0.9849
vn -0.8554 -0.5173 -0.0267
vn -0.3927 0.0709 -0.9169
vn 0.6861 0.5425 -0.4848
vn 0.2857 0.7600 0.5837
vn -0.2470 0.7829 0.5711
vn -0.4200 0.8373 -0.3501
vn 0.1836 0.8612 -0.4740
vn 0.5769 0.8060 -0.1325
vn 0.1528 0.9410 -0.3020
vn 0.1876 0.9245 -0.3318
vn 0.1370 0.8615 -0.4889
vn -0.0982 0.9220 -0.3744
vn -0.0674 0.9605 -0.2699
vn -0.4526 0.8374 -0.3064
vn -0.3357 0.9397 -0.0654
vn -0.3069 0.9497 -0.0619
vn -0.5005 0.8209 0.2748
vn -0.1022 0.9611 0.2567
vn -0.1794 0.8162 0.5493
vn -0.0656 0.7360 0.6738
vn 0.1577 0.9715 0.1768
vn 0.3375 0.8911 0.3032
vn 0.5714 0.7982 0.1907
vn 0.8871 -0.2374 -0.3959
vn 0.7572 -0.3747 -0.5350
vn 0.4873 -0.0353 -0.8725
vn 0.1437 0.5253 -0.8387
vn -0.3888 0.1572 -0.9078
vn -0.6639 0.4320 -0.6105
vn -0.7248 0.5014 -0.4726
vn -0.9916 0.1260 -0.0310
vn -0.8512 0.4223 0.3116
vn -0.2801 0.5801 0.7649
vn -0.0416 0.3676 0.9291
vn -0.1615 0.2881 0.9439
vn 0.3240 0.7094 0.6259
vn 0.8271 0.3925 0.4023
vn 0.8281 0.3967 0.3961
vn 0.5771 0.0730 -0.8134
vn 0.5344 -0.3835 -0.7532
vn 0.2833 -0.5714 -0.7702
vn -0.6981 0.4016 -0.5927
vn -0.7242 -0.3120 -0.6149
vn -0.7797 -0.6080 -0.1500
vn -0.7855 0.0889 0.6124
vn -0.7874 -0.0546 0.6140
vn -0.3179 -0.4529 0.8329
vn -0.0982 0.2315 0.9679
vn -0.0956 -0.3196 0.9427
vn 0.4685 -0.7653 0.4414
vn 0.8891 -0.3833 -0.2503
vn 0.9478 0.1747 -0.2668
vn 0.9513 0.2321 -0.2028
vn 0.1342 -0.9173 -0.3749
vn 0.2113 -0.8897 -0.4048
vn 0.1436 -0.8546 -0.4990
vn -0.3116 -0.8767 -0.3666
vn -0.3304 -0.9333 -0.1408
vn -0.5283 -0.8463 -0.0682
vn -0.5285 -0.8467 -0.0610
vn -0.1561 -0.9814 0.1119
vn -0.0858 -0.9136 0.3975
vn 0.3554 -0.9307 -0.0862
vn 0.3058 -0.9521 0.0025
vn -0.0851 -0.9963 -0.0142
vn -0.0490 -0.9116 0.4082
vn 0.0772 -0.9582 0.2756
vn 0.4053 -0.8431 0.3535
vn 0.1540 -0.9623 0.2242
vn 0.4598 -0.8880 -0.0000
vn -0.3830 -0.9143 0.1316
vn -0.3830 -0.9143 -0.1316
vn 0.1540 -0.9623 -0.2242
vn 0.9625 -0.2712 -0.0000
vn 0.5031 -0.4587 0.7324
vn -0.8982 -0.3129 0.3087
vn -0.8982 -0.3129 -0.3087
vn 0.5031 -0.4587 -0.7324
vn 0.8982 0.3129 0.3087
vn -0.5031 0.4587 0.7324
vn -0.9625 0.2712 -0.0000
vn -0.5031 0.4587 -0.7324
vn 0.8982 0.3129 -0.3087
vn 0.3830 0.9143 0.1316
vn -0.1540 0.9623 0.2242
vn -0.4598 0.8880 -0.0000
vn -0.1540 0.9623 -0.2242
vn 0.3830 0.9143 -0.1316
vn 0.1665 -0.9445 0.2831
vn 0.4955 -0.8686 -0.0000
vn -0.4133 -0.8954 0.1659
vn -0.4133 -0.8954 -0.1659
vn 0.1665 -0.9445 -0.2831
vn 0.9688 -0.2478 -0.0000
vn 0.4675 -0.3869 0.7948
vn -0.8905 -0.2815 0.3574
vn -0.8905 -0.2815 -0.3574
vn 0.4675 -0.3869 -0.7948
vn 0.8905 0.2815 0.3574
vn -0.4675 0.3869 0.7948
vn -0.9688 0.2478 -0.0000
vn -0.4675 0.3869 -0.7948
vn 0.8905 0.2815 -0.3574
vn 0.4133 0.8954 0.1659
vn -0.1665 0.9445 0.2831
vn -0.4955 0.8686 -0.0000
vn -0.1665 0.9445 -0.2831
vn 0.4133 0.8954 -0.1659
vn 0.1287 -0.9385 0.3205
vn 0.4056 -0.9140 -0.0000
vn -0.3314 -0.9231 0.1949
vn -0.3314 -0.9231 -0.1949
vn 0.1287 -0.9385 -0.3205
vn 0.9500 -0.3123 -0.0000
vn 0.3464 -0.3685 0.8627
vn -0.8136 -0.3306 0.4783
vn -0.8136 -0.3306 -0.4783
vn 0.3464 -0.3685 -0.8627
vn 0.8136 0.3306 0.4783
vn -0.3464 0.3685 0.8627
vn -0.9500 0.3123 -0.0000
vn -0.3464 0.3685 -0.8627
vn 0.8136 0.3306 -0.4783
vn 0.3314 0.9231 0.1949
vn -0.1287 0.9385 0.3205
vn -0.4056 0.9140 -0.0000
vn -0.1287 0.9385 -0.3205
vn 0.3314 0.9231 -0.1949
vt 0.125000 0.625000
vt 0.375000 0.875000
vt 0.625000 0.125000
s 0
usemtl WorldPickupPalette
f 1/1/1 14/1/1 13/1/1
f 2/1/2 14/1/2 16/1/2
f 1/1/3 13/1/3 18/1/3
f 1/1/4 18/1/4 20/1/4
f 1/1/5 20/1/5 17/1/5
f 2/1/6 16/1/6 23/1/6
f 3/1/7 15/1/7 25/1/7
f 4/1/8 19/1/8 27/1/8
f 5/1/9 21/1/9 29/1/9
f 6/1/10 22/1/10 31/1/10
f 2/1/11 23/1/11 26/1/11
f 3/1/12 25/1/12 28/1/12
f 4/1/13 27/1/13 30/1/13
f 5/1/14 29/1/14 32/1/14
f 6/1/15 31/1/15 24/1/15
f 7/1/16 33/1/16 38/1/16
f 8/1/17 34/1/17 40/1/17
f 9/1/18 35/1/18 41/1/18
f 10/1/19 36/1/19 42/1/19
f 11/1/20 37/1/20 39/1/20
f 39/1/21 42/1/21 12/1/21
f 39/1/22 37/1/22 42/1/22
f 37/1/23 10/1/23 42/1/23
f 42/1/24 41/1/24 12/1/24
f 42/1/25 36/1/25 41/1/25
f 36/1/26 9/1/26 41/1/26
f 41/1/27 40/1/27 12/1/27
f 41/1/28 35/1/28 40/1/28
f 35/1/29 8/1/29 40/1/29
f 40/1/30 38/1/30 12/1/30
f 40/1/31 34/1/31 38/1/31
f 34/1/32 7/1/32 38/1/32
f 38/1/33 39/1/33 12/1/33
f 38/1/34 33/1/34 39/1/34
f 33/1/35 11/1/35 39/1/35
f 24/1/36 37/1/36 11/1/36
f 24/1/37 31/1/37 37/1/37
f 31/1/38 10/1/38 37/1/38
f 32/1/39 36/1/39 10/1/39
f 32/1/40 29/1/40 36/1/40
f 29/1/41 9/1/41 36/1/41
f 30/1/42 35/1/42 9/1/42
f 30/1/43 27/1/43 35/1/43
f 27/1/44 8/1/44 35/1/44
f 28/1/45 34/1/45 8/1/45
f 28/1/46 25/1/46 34/1/46
f 25/1/47 7/1/47 34/1/47
f 26/1/48 33/1/48 7/1/48
f 26/1/49 23/1/49 33/1/49
f 23/1/50 11/1/50 33/1/50
f 31/1/51 32/1/51 10/1/51
f 31/1/52 22/1/52 32/1/52
f 22/1/53 5/1/53 32/1/53
f 29/1/54 30/1/54 9/1/54
f 29/1/55 21/1/55 30/1/55
f 21/1/56 4/1/56 30/1/56
f 27/1/57 28/1/57 8/1/57
f 27/1/58 19/1/58 28/1/58
f 19/1/59 3/1/59 28/1/59
f 25/1/60 26/1/60 7/1/60
f 25/1/61 15/1/61 26/1/61
f 15/1/62 2/1/62 26/1/62
f 23/1/63 24/1/63 11/1/63
f 23/1/64 16/1/64 24/1/64
f 16/1/65 6/1/65 24/1/65
f 17/1/66 22/1/66 6/1/66
f 17/1/67 20/1/67 22/1/67
f 20/1/68 5/1/68 22/1/68
f 20/1/69 21/1/69 5/1/69
f 20/1/70 18/1/70 21/1/70
f 18/1/71 4/1/71 21/1/71
f 18/1/72 19/1/72 4/1/72
f 18/1/73 13/1/73 19/1/73
f 13/1/74 3/1/74 19/1/74
f 16/1/75 17/1/75 6/1/75
f 16/1/76 14/1/76 17/1/76
f 14/1/77 1/1/77 17/1/77
f 13/1/78 15/1/78 3/1/78
f 13/1/79 14/1/79 15/1/79
f 14/1/80 2/1/80 15/1/80
f 43/2/81 44/2/81 45/2/81
f 44/2/82 43/2/82 48/2/82
f 43/2/83 45/2/83 46/2/83
f 43/2/84 46/2/84 47/2/84
f 43/2/85 47/2/85 48/2/85
f 44/2/86 48/2/86 53/2/86
f 45/2/87 44/2/87 49/2/87
f 46/2/88 45/2/88 50/2/88
f 47/2/89 46/2/89 51/2/89
f 48/2/90 47/2/90 52/2/90
f 44/2/91 53/2/91 49/2/91
f 45/2/92 49/2/92 50/2/92
f 46/2/93 50/2/93 51/2/93
f 47/2/94 51/2/94 52/2/94
f 48/2/95 52/2/95 53/2/95
f 49/2/96 53/2/96 54/2/96
f 50/2/97 49/2/97 54/2/97
f 51/2/98 50/2/98 54/2/98
f 52/2/99 51/2/99 54/2/99
f 53/2/100 52/2/100 54/2/100
f 55/3/101 56/3/101 57/3/101
f 56/3/102 55/3/102 60/3/102
f 55/3/103 57/3/103 58/3/103
f 55/3/104 58/3/104 59/3/104
f 55/3/105 59/3/105 60/3/105
f 56/3/106 60/3/106 65/3/106
f 57/3/107 56/3/107 61/3/107
f 58/3/108 57/3/108 62/3/108
f 59/3/109 58/3/109 63/3/109
f 60/3/110 59/3/110 64/3/110
f 56/3/111 65/3/111 61/3/111
f 57/3/112 61/3/112 62/3/112
f 58/3/113 62/3/113 63/3/113
f 59/3/114 63/3/114 64/3/114
f 60/3/115 64/3/115 65/3/115
f 61/3/116 65/3/116 66/3/116
f 62/3/117 61/3/117 66/3/117
f 63/3/118 62/3/118 66/3/118
f 64/3/119 63/3/119 66/3/119
f 65/3/120 64/3/120 66/3/120
f 67/2/121 68/2/121 69/2/121
f 68/2/122 67/2/122 72/2/122
f 67/2/123 69/2/123 70/2/123
f 67/2/124 70/2/124 71/2/124
f 67/2/125 71/2/125 72/2/125
f 68/2/126 72/2/126 77/2/126
f 69/2/127 68/2/127 73/2/127
f 70/2/128 69/2/128 74/2/128
f 71/2/129 70/2/129 75/2/129
f 72/2/130 71/2/130 76/2/130
f 68/2/131 77/2/131 73/2/131
f 69/2/132 73/2/132 74/2/132
f 70/2/133 74/2/133 75/2/133
f 71/2/134 75/2/134 76/2/134
f 72/2/135 76/2/135 77/2/135
f 73/2/136 77/2/136 78/2/136
f 74/2/137 73/2/137 78/2/137
f 75/2/138 74/2/138 78/2/138
f 76/2/139 75/2/139 78/2/139
f 77/2/140 76/2/140 78/2/140
