# Blender 5.2.1 LTS
# www.blender.org
mtllib rockMass2.mtl
o rockMass2
v -0.007836 0.004604 0.006420
v 0.697575 0.173256 0.537993
v -0.292027 0.186117 0.913626
v -0.842287 0.176877 0.006420
v -0.251397 0.211519 -0.771083
v 0.684870 0.210774 -0.515579
v 0.266699 0.697734 0.882804
v -0.684133 0.662913 0.516054
v -0.648728 0.683379 -0.476533
v 0.256936 0.678931 -0.838797
v 0.918846 0.694860 0.006420
v -0.007836 1.000000 0.006420
v -0.152584 0.004195 0.468491
v 0.430346 0.024112 0.336619
v 0.250008 0.125008 0.829490
v 0.838351 0.158465 0.006420
v 0.398386 0.011980 -0.299694
v -0.466515 0.044631 0.006420
v -0.606885 0.136735 0.457846
v -0.141820 0.000000 -0.421289
v -0.711772 0.168049 -0.524044
v 0.207298 0.171747 -0.680315
v 0.814535 0.433510 0.283562
v 0.891721 0.433510 -0.296733
v -0.007836 0.433510 0.918846
v 0.565424 0.433510 0.824800
v -0.918846 0.433510 0.313434
v -0.532587 0.433510 0.755549
v -0.538080 0.433510 -0.750549
v -0.890794 0.433510 -0.291139
v 0.517831 0.433510 -0.744016
v -0.007836 0.433510 -0.918846
v 0.570215 0.711510 0.442023
v -0.216305 0.730569 0.671878
v -0.849907 0.713916 0.006420
v -0.280455 0.705985 -0.863815
v 0.699574 0.707990 -0.526663
v 0.129402 0.880654 0.444519
v 0.526881 0.866273 0.006420
v -0.444793 0.923649 0.335696
v -0.445059 0.920222 -0.323055
v 0.138844 0.879603 -0.461818
v -0.422817 0.079973 0.083563
v -0.147283 0.173970 0.279826
v -0.528059 0.173970 0.401126
v -0.763398 0.173970 0.083563
v -0.528059 0.173970 -0.234000
v -0.147283 0.173970 -0.112700
v -0.317574 0.326061 0.401126
v -0.698351 0.326061 0.279826
v -0.698351 0.326061 -0.112700
v -0.317574 0.326061 -0.234000
v -0.082236 0.326061 0.083563
v -0.422817 0.420059 0.083563
v -0.065122 0.324880 0.309011
v 0.213089 0.384929 0.515319
v -0.171387 0.384929 0.642828
v -0.409013 0.384929 0.309011
v -0.171387 0.384929 -0.024807
v 0.213089 0.384929 0.102702
v 0.041143 0.482091 0.642828
v -0.343333 0.482091 0.515319
v -0.343333 0.482091 0.102702
v 0.041143 0.482091 -0.024807
v 0.278768 0.482091 0.309011
v -0.065122 0.542140 0.309011
v -0.215433 0.443075 0.362683
v 0.084139 0.539220 0.537742
v -0.329858 0.539220 0.645937
v -0.585728 0.539220 0.362683
v -0.329858 0.539220 0.079429
v 0.084139 0.539220 0.187624
v -0.101009 0.694787 0.645937
v -0.515006 0.694787 0.537742
v -0.515006 0.694787 0.187624
v -0.101009 0.694787 0.079429
v 0.154861 0.694787 0.362683
v -0.215433 0.790933 0.362683
vn 0.0365 -0.9993 0.0106
vn 0.4051 -0.9046 0.1324
vn -0.0869 -0.9958 -0.0281
vn -0.0869 -0.9955 0.0379
vn 0.0212 -0.9998 0.0041
vn 0.9503 -0.1762 0.2566
vn 0.1321 -0.1723 0.9761
vn -0.7265 -0.6055 0.3250
vn -0.3939 -0.4337 -0.8104
vn 0.3112 -0.5566 -0.7703
vn 0.9084 0.0005 0.4181
vn -0.2829 0.3058 0.9091
vn -0.9708 -0.2357 -0.0450
vn -0.2896 -0.2896 -0.9123
vn 0.7647 -0.0821 -0.6392
vn 0.3466 0.8993 0.2668
vn -0.3114 0.7171 0.6235
vn -0.6167 0.7266 -0.3028
vn 0.0658 0.8892 -0.4527
vn 0.3967 0.9071 -0.1408
vn 0.2390 0.9559 -0.1709
vn 0.2665 0.9441 -0.1940
vn 0.2252 0.8876 -0.4019
vn 0.0089 0.9691 -0.2464
vn -0.0246 0.9268 -0.3747
vn -0.5146 0.7319 -0.4466
vn -0.1758 0.9844 -0.0050
vn -0.4569 0.8895 -0.0044
vn -0.6076 0.7461 0.2723
vn 0.0239 0.9664 0.2558
vn -0.0334 0.8567 0.5147
vn -0.1195 0.9024 0.4140
vn 0.2384 0.9534 0.1850
vn 0.3449 0.8948 0.2836
vn 0.3853 0.8810 0.2747
vn 0.8792 0.3191 -0.3538
vn 0.7672 -0.0001 -0.6414
vn 0.5430 0.2701 -0.7951
vn 0.0577 0.2528 -0.9658
vn -0.3007 -0.1095 -0.9474
vn -0.6803 0.3836 -0.6245
vn -0.7892 0.4973 -0.3602
vn -0.9805 0.1912 -0.0455
vn -0.7877 0.5326 0.3095
vn -0.3330 0.5668 0.7536
vn -0.2564 0.5051 0.8241
vn -0.3300 0.4557 0.8267
vn 0.6372 0.6198 0.4581
vn 0.7926 0.4886 0.3648
vn 0.7451 0.3219 0.5841
vn 0.3154 -0.0310 -0.9484
vn 0.2700 -0.5178 -0.8118
vn 0.0992 -0.6245 -0.7747
vn -0.7562 0.3018 -0.5806
vn -0.7932 -0.0006 -0.6090
vn -0.8862 -0.4124 -0.2112
vn -0.7399 0.1861 0.6464
vn -0.6812 -0.4264 0.5951
vn -0.7451 -0.3700 0.5548
vn 0.1618 -0.0336 0.9863
vn 0.1601 -0.1488 0.9758
vn 0.5077 -0.5085 0.6954
vn 0.9603 -0.2478 0.1277
vn 0.9902 -0.0470 0.1317
vn 0.8266 -0.4815 -0.2913
vn 0.2327 -0.8495 -0.4734
vn 0.1175 -0.8933 -0.4339
vn 0.0299 -0.8512 -0.5241
vn -0.1705 -0.8659 -0.4702
vn -0.2646 -0.9591 -0.1008
vn -0.3313 -0.9412 -0.0658
vn -0.3307 -0.9396 0.0889
vn -0.2808 -0.9538 0.1073
vn -0.2744 -0.9172 0.2889
vn 0.4409 -0.8709 -0.2169
vn 0.3145 -0.9493 0.0023
vn 0.0313 -0.9994 0.0175
vn -0.0482 -0.9298 0.3649
vn 0.0851 -0.9696 0.2296
vn 0.2886 -0.9117 0.2923
vn 0.0996 -0.9446 0.3126
vn 0.3229 -0.9464 -0.0000
vn -0.2610 -0.9458 0.1934
vn -0.2610 -0.9458 -0.1934
vn 0.0996 -0.9446 -0.3126
vn 0.9194 -0.3932 -0.0000
vn 0.2798 -0.3873 0.8785
vn -0.7395 -0.3909 0.5480
vn -0.7395 -0.3909 -0.5480
vn 0.2798 -0.3873 -0.8785
vn 0.7395 0.3909 0.5480
vn -0.2798 0.3873 0.8785
vn -0.9194 0.3932 -0.0000
vn -0.2798 0.3873 -0.8785
vn 0.7395 0.3909 -0.5480
vn 0.2610 0.9458 0.1934
vn -0.0996 0.9446 0.3126
vn -0.3229 0.9464 -0.0000
vn -0.0996 0.9446 -0.3126
vn 0.2610 0.9458 -0.1934
vn 0.0653 -0.9783 0.1968
vn 0.2110 -0.9775 -0.0000
vn -0.1707 -0.9778 0.1215
vn -0.1707 -0.9778 -0.1215
vn 0.0653 -0.9783 -0.1968
vn 0.8285 -0.5600 -0.0000
vn 0.2593 -0.5671 0.7818
vn -0.6735 -0.5627 0.4794
vn -0.6735 -0.5627 -0.4794
vn 0.2593 -0.5671 -0.7818
vn 0.6735 0.5627 0.4794
vn -0.2593 0.5671 0.7818
vn -0.8285 0.5600 -0.0000
vn -0.2593 0.5671 -0.7818
vn 0.6735 0.5627 -0.4794
vn 0.1707 0.9778 0.1215
vn -0.0653 0.9783 0.1968
vn -0.2110 0.9775 -0.0000
vn -0.0653 0.9783 -0.1968
vn 0.1707 0.9778 -0.1215
vn 0.0923 -0.9309 0.3533
vn 0.3056 -0.9522 -0.0000
vn -0.2451 -0.9439 0.2214
vn -0.2451 -0.9439 -0.2214
vn 0.0923 -0.9309 -0.3533
vn 0.9103 -0.4139 -0.0000
vn 0.2370 -0.3486 0.9068
vn -0.6849 -0.3849 0.6187
vn -0.6849 -0.3849 -0.6187
vn 0.2370 -0.3486 -0.9068
vn 0.6849 0.3849 0.6187
vn -0.2370 0.3486 0.9068
vn -0.9103 0.4139 -0.0000
vn -0.2370 0.3486 -0.9068
vn 0.6849 0.3849 -0.6187
vn 0.2451 0.9439 0.2214
vn -0.0923 0.9309 0.3533
vn -0.3056 0.9522 -0.0000
vn -0.0923 0.9309 -0.3533
vn 0.2451 0.9439 -0.2214
vt 0.125000 0.625000
vt 0.375000 0.875000
vt 0.625000 0.125000
s 0
usemtl WorldPickupPalette
f 1/1/1 14/1/1 13/1/1
f 2/1/2 14/1/2 16/1/2
f 1/1/3 13/1/3 18/1/3
f 1/1/4 18/1/4 20/1/4
f 1/1/5 20/1/5 17/1/5
f 2/1/6 16/1/6 23/1/6
f 3/1/7 15/1/7 25/1/7
f 4/1/8 19/1/8 27/1/8
f 5/1/9 21/1/9 29/1/9
f 6/1/10 22/1/10 31/1/10
f 2/1/11 23/1/11 26/1/11
f 3/1/12 25/1/12 28/1/12
f 4/1/13 27/1/13 30/1/13
f 5/1/14 29/1/14 32/1/14
f 6/1/15 31/1/15 24/1/15
f 7/1/16 33/1/16 38/1/16
f 8/1/17 34/1/17 40/1/17
f 9/1/18 35/1/18 41/1/18
f 10/1/19 36/1/19 42/1/19
f 11/1/20 37/1/20 39/1/20
f 39/1/21 42/1/21 12/1/21
f 39/1/22 37/1/22 42/1/22
f 37/1/23 10/1/23 42/1/23
f 42/1/24 41/1/24 12/1/24
f 42/1/25 36/1/25 41/1/25
f 36/1/26 9/1/26 41/1/26
f 41/1/27 40/1/27 12/1/27
f 41/1/28 35/1/28 40/1/28
f 35/1/29 8/1/29 40/1/29
f 40/1/30 38/1/30 12/1/30
f 40/1/31 34/1/31 38/1/31
f 34/1/32 7/1/32 38/1/32
f 38/1/33 39/1/33 12/1/33
f 38/1/34 33/1/34 39/1/34
f 33/1/35 11/1/35 39/1/35
f 24/1/36 37/1/36 11/1/36
f 24/1/37 31/1/37 37/1/37
f 31/1/38 10/1/38 37/1/38
f 32/1/39 36/1/39 10/1/39
f 32/1/40 29/1/40 36/1/40
f 29/1/41 9/1/41 36/1/41
f 30/1/42 35/1/42 9/1/42
f 30/1/43 27/1/43 35/1/43
f 27/1/44 8/1/44 35/1/44
f 28/1/45 34/1/45 8/1/45
f 28/1/46 25/1/46 34/1/46
f 25/1/47 7/1/47 34/1/47
f 26/1/48 33/1/48 7/1/48
f 26/1/49 23/1/49 33/1/49
f 23/1/50 11/1/50 33/1/50
f 31/1/51 32/1/51 10/1/51
f 31/1/52 22/1/52 32/1/52
f 22/1/53 5/1/53 32/1/53
f 29/1/54 30/1/54 9/1/54
f 29/1/55 21/1/55 30/1/55
f 21/1/56 4/1/56 30/1/56
f 27/1/57 28/1/57 8/1/57
f 27/1/58 19/1/58 28/1/58
f 19/1/59 3/1/59 28/1/59
f 25/1/60 26/1/60 7/1/60
f 25/1/61 15/1/61 26/1/61
f 15/1/62 2/1/62 26/1/62
f 23/1/63 24/1/63 11/1/63
f 23/1/64 16/1/64 24/1/64
f 16/1/65 6/1/65 24/1/65
f 17/1/66 22/1/66 6/1/66
f 17/1/67 20/1/67 22/1/67
f 20/1/68 5/1/68 22/1/68
f 20/1/69 21/1/69 5/1/69
f 20/1/70 18/1/70 21/1/70
f 18/1/71 4/1/71 21/1/71
f 18/1/72 19/1/72 4/1/72
f 18/1/73 13/1/73 19/1/73
f 13/1/74 3/1/74 19/1/74
f 16/1/75 17/1/75 6/1/75
f 16/1/76 14/1/76 17/1/76
f 14/1/77 1/1/77 17/1/77
f 13/1/78 15/1/78 3/1/78
f 13/1/79 14/1/79 15/1/79
f 14/1/80 2/1/80 15/1/80
f 43/2/81 44/2/81 45/2/81
f 44/2/82 43/2/82 48/2/82
f 43/2/83 45/2/83 46/2/83
f 43/2/84 46/2/84 47/2/84
f 43/2/85 47/2/85 48/2/85
f 44/2/86 48/2/86 53/2/86
f 45/2/87 44/2/87 49/2/87
f 46/2/88 45/2/88 50/2/88
f 47/2/89 46/2/89 51/2/89
f 48/2/90 47/2/90 52/2/90
f 44/2/91 53/2/91 49/2/91
f 45/2/92 49/2/92 50/2/92
f 46/2/93 50/2/93 51/2/93
f 47/2/94 51/2/94 52/2/94
f 48/2/95 52/2/95 53/2/95
f 49/2/96 53/2/96 54/2/96
f 50/2/97 49/2/97 54/2/97
f 51/2/98 50/2/98 54/2/98
f 52/2/99 51/2/99 54/2/99
f 53/2/100 52/2/100 54/2/100
f 55/3/101 56/3/101 57/3/101
f 56/3/102 55/3/102 60/3/102
f 55/3/103 57/3/103 58/3/103
f 55/3/104 58/3/104 59/3/104
f 55/3/105 59/3/105 60/3/105
f 56/3/106 60/3/106 65/3/106
f 57/3/107 56/3/107 61/3/107
f 58/3/108 57/3/108 62/3/108
f 59/3/109 58/3/109 63/3/109
f 60/3/110 59/3/110 64/3/110
f 56/3/111 65/3/111 61/3/111
f 57/3/112 61/3/112 62/3/112
f 58/3/113 62/3/113 63/3/113
f 59/3/114 63/3/114 64/3/114
f 60/3/115 64/3/115 65/3/115
f 61/3/116 65/3/116 66/3/116
f 62/3/117 61/3/117 66/3/117
f 63/3/118 62/3/118 66/3/118
f 64/3/119 63/3/119 66/3/119
f 65/3/120 64/3/120 66/3/120
f 67/2/121 68/2/121 69/2/121
f 68/2/122 67/2/122 72/2/122
f 67/2/123 69/2/123 70/2/123
f 67/2/124 70/2/124 71/2/124
f 67/2/125 71/2/125 72/2/125
f 68/2/126 72/2/126 77/2/126
f 69/2/127 68/2/127 73/2/127
f 70/2/128 69/2/128 74/2/128
f 71/2/129 70/2/129 75/2/129
f 72/2/130 71/2/130 76/2/130
f 68/2/131 77/2/131 73/2/131
f 69/2/132 73/2/132 74/2/132
f 70/2/133 74/2/133 75/2/133
f 71/2/134 75/2/134 76/2/134
f 72/2/135 76/2/135 77/2/135
f 73/2/136 77/2/136 78/2/136
f 74/2/137 73/2/137 78/2/137
f 75/2/138 74/2/138 78/2/138
f 76/2/139 75/2/139 78/2/139
f 77/2/140 76/2/140 78/2/140
