# Blender 5.2.1 LTS
# www.blender.org
mtllib rockMass4.mtl
o rockMass4
v 0.004282 0.053611 -0.018659
v 0.670831 0.204977 0.528382
v -0.252667 0.207488 0.874667
v -0.783526 0.196856 -0.018659
v -0.228965 0.213993 -0.829583
v 0.535359 0.170933 -0.454517
v 0.253737 0.671477 0.848612
v -0.616345 0.657549 0.490693
v -0.673920 0.659477 -0.575264
v 0.212681 0.699759 -0.743192
v 0.827997 0.668874 -0.018659
v 0.004282 1.000000 -0.018659
v -0.116375 0.000000 0.400826
v 0.385574 0.029467 0.294269
v 0.192478 0.147500 0.635613
v 0.660810 0.132677 -0.018659
v 0.377646 0.029479 -0.325081
v -0.492547 0.058390 -0.018659
v -0.631874 0.140242 0.503442
v -0.126964 0.013443 -0.474958
v -0.499696 0.138826 -0.432281
v 0.195733 0.167202 -0.684248
v 0.874667 0.435928 0.300798
v 0.734152 0.435928 -0.286543
v 0.004282 0.435928 0.840393
v 0.540003 0.435928 0.814272
v -0.874667 0.435928 0.303941
v -0.546396 0.435928 0.837527
v -0.476998 0.435928 -0.766947
v -0.696609 0.435928 -0.275907
v 0.424927 0.435928 -0.672671
v 0.004282 0.435928 -0.874667
v 0.500306 0.703584 0.388433
v -0.232275 0.705876 0.803741
v -0.625558 0.707713 -0.018659
v -0.184529 0.708412 -0.675070
v 0.499787 0.725769 -0.425326
v 0.145635 0.902360 0.472777
v 0.499539 0.874390 -0.018659
v -0.319898 0.858462 0.247397
v -0.397599 0.926532 -0.348486
v 0.144327 0.914167 -0.505547
v 0.368083 0.083471 -0.022650
v 0.610328 0.177155 0.254997
v 0.275556 0.177155 0.426597
v 0.068651 0.177155 -0.022650
v 0.275556 0.177155 -0.471897
v 0.610328 0.177155 -0.300297
v 0.460611 0.328740 0.426597
v 0.125839 0.328740 0.254997
v 0.125839 0.328740 -0.300297
v 0.460611 0.328740 -0.471897
v 0.667516 0.328740 -0.022650
v 0.368083 0.422424 -0.022650
v -0.154747 0.270296 -0.074949
v 0.098977 0.361855 0.110256
v -0.251660 0.361855 0.224721
v -0.468371 0.361855 -0.074949
v -0.251660 0.361855 -0.374620
v 0.098977 0.361855 -0.260155
v -0.057835 0.510001 0.224721
v -0.408472 0.510001 0.110256
v -0.408472 0.510001 -0.260155
v -0.057835 0.510001 -0.374620
v 0.158876 0.510001 -0.074949
v -0.154747 0.601560 -0.074949
v 0.250903 0.438277 0.054607
v 0.506383 0.538127 0.260210
v 0.153321 0.538127 0.387283
v -0.064889 0.538127 0.054607
v 0.153321 0.538127 -0.278069
v 0.506383 0.538127 -0.150996
v 0.348486 0.699689 0.387283
v -0.004576 0.699689 0.260210
v -0.004576 0.699689 -0.150996
v 0.348486 0.699689 -0.278069
v 0.566695 0.699689 0.054607
v 0.250903 0.799540 0.054607
vn 0.0334 -0.9925 -0.1172
vn 0.4548 -0.8839 0.1085
vn -0.0095 -0.9915 -0.1295
vn -0.0096 -0.9959 0.0904
vn 0.0061 -0.9963 0.0859
vn 0.7803 -0.6218 0.0679
vn 0.4105 -0.3344 0.8483
vn -0.8159 -0.5503 0.1773
vn -0.6337 -0.5566 -0.5372
vn 0.5149 -0.4067 -0.7546
vn 0.8213 -0.1974 0.5353
vn -0.0051 0.1540 0.9881
vn -0.9555 0.0317 -0.2934
vn -0.2183 0.0313 -0.9754
vn 0.7669 -0.1860 -0.6142
vn 0.5200 0.7864 0.3335
vn -0.3551 0.8858 0.2989
vn -0.6941 0.7199 -0.0021
vn -0.1012 0.7240 -0.6823
vn 0.5067 0.8098 -0.2957
vn 0.2446 0.9645 -0.0997
vn 0.4986 0.8142 -0.2973
vn 0.4908 0.7124 -0.5016
vn -0.0303 0.9828 -0.1820
vn -0.1618 0.7686 -0.6189
vn -0.2037 0.7476 -0.6322
vn -0.2927 0.9450 0.1461
vn -0.5481 0.8199 0.1651
vn -0.5048 0.8582 0.0936
vn -0.2093 0.9458 0.2481
vn -0.2284 0.9291 0.2908
vn 0.0123 0.8536 0.5208
vn 0.2440 0.9622 0.1210
vn 0.5200 0.7880 0.3296
vn 0.4999 0.7990 0.3343
vn 0.7542 0.3413 -0.5610
vn 0.7408 0.3150 -0.5933
vn 0.6738 0.3712 -0.6389
vn -0.1328 0.5241 -0.8412
vn -0.1903 0.4909 -0.8502
vn -0.2204 0.5157 -0.8279
vn -0.9792 0.1911 0.0685
vn -0.8454 0.4667 -0.2596
vn -0.6831 0.7255 0.0838
vn -0.5181 0.6695 0.5323
vn -0.0052 0.1301 0.9915
vn -0.0877 0.0582 0.9944
vn 0.6149 0.6922 0.3778
vn 0.5945 0.7046 0.3875
vn 0.5912 0.6903 0.4170
vn 0.4304 0.1067 -0.8963
vn 0.4110 -0.3137 -0.8559
vn 0.2479 -0.4363 -0.8650
vn -0.8312 -0.4134 -0.3717
vn -0.8504 -0.3635 -0.3803
vn -0.8121 -0.2645 -0.5202
vn -0.7459 0.4827 0.4589
vn -0.8049 -0.3268 0.4952
vn -0.5221 -0.5679 0.6363
vn 0.0485 -0.0861 0.9951
vn 0.0403 -0.5608 0.8270
vn 0.2352 -0.7006 0.6736
vn 0.9651 -0.1233 -0.2309
vn 0.8899 -0.4033 -0.2129
vn 0.8447 -0.4543 -0.2830
vn 0.3337 -0.8113 -0.4801
vn 0.1533 -0.8942 -0.4205
vn 0.0793 -0.8578 -0.5079
vn -0.3334 -0.8585 -0.3896
vn -0.3318 -0.9270 -0.1745
vn -0.4237 -0.8905 -0.1658
vn -0.4295 -0.9026 0.0269
vn -0.2456 -0.9656 0.0858
vn -0.1802 -0.9190 0.3506
vn 0.5406 -0.8102 -0.2267
vn 0.3467 -0.9380 -0.0045
vn -0.0638 -0.9980 0.0008
vn 0.1068 -0.8991 0.4244
vn 0.1366 -0.9098 0.3919
vn 0.2004 -0.8853 0.4195
vn 0.1156 -0.9674 0.2255
vn 0.3607 -0.9327 -0.0000
vn -0.2958 -0.9455 0.1362
vn -0.2958 -0.9455 -0.1362
vn 0.1156 -0.9674 -0.2255
vn 0.9356 -0.3530 -0.0000
vn 0.3985 -0.4865 0.7775
vn -0.8364 -0.3900 0.3852
vn -0.8364 -0.3900 -0.3852
vn 0.3985 -0.4865 -0.7775
vn 0.8364 0.3900 0.3852
vn -0.3985 0.4865 0.7775
vn -0.9356 0.3530 -0.0000
vn -0.3985 0.4865 -0.7775
vn 0.8364 0.3900 -0.3852
vn 0.2958 0.9455 0.1362
vn -0.1156 0.9674 0.2255
vn -0.3607 0.9327 -0.0000
vn -0.1156 0.9674 -0.2255
vn 0.2958 0.9455 -0.1362
vn 0.1049 -0.9411 0.3215
vn 0.3394 -0.9406 -0.0000
vn -0.2747 -0.9408 0.1986
vn -0.2747 -0.9408 -0.1986
vn 0.1049 -0.9411 -0.3215
vn 0.9271 -0.3748 -0.0000
vn 0.2875 -0.3762 0.8808
vn -0.7511 -0.3753 0.5431
vn -0.7511 -0.3753 -0.5431
vn 0.2875 -0.3762 -0.8808
vn 0.7511 0.3753 0.5431
vn -0.2875 0.3762 0.8808
vn -0.9271 0.3748 -0.0000
vn -0.2875 0.3762 -0.8808
vn 0.7511 0.3753 -0.5431
vn 0.2747 0.9408 0.1986
vn -0.1049 0.9411 0.3215
vn -0.3394 0.9406 -0.0000
vn -0.1049 0.9411 -0.3215
vn 0.2747 0.9408 -0.1986
vn 0.1138 -0.9419 0.3161
vn 0.3640 -0.9314 -0.0000
vn -0.2958 -0.9354 0.1940
vn -0.2958 -0.9354 -0.1940
vn 0.1138 -0.9419 -0.3161
vn 0.9368 -0.3497 -0.0000
vn 0.3134 -0.3786 0.8709
vn -0.7801 -0.3600 0.5117
vn -0.7801 -0.3600 -0.5117
vn 0.3134 -0.3786 -0.8709
vn 0.7801 0.3600 0.5117
vn -0.3134 0.3786 0.8709
vn -0.9368 0.3497 -0.0000
vn -0.3134 0.3786 -0.8709
vn 0.7801 0.3600 -0.5117
vn 0.2958 0.9354 0.1940
vn -0.1138 0.9419 0.3161
vn -0.3640 0.9314 -0.0000
vn -0.1138 0.9419 -0.3161
vn 0.2958 0.9354 -0.1940
vt 0.125000 0.625000
vt 0.375000 0.875000
vt 0.625000 0.125000
s 0
usemtl WorldPickupPalette
f 1/1/1 14/1/1 13/1/1
f 2/1/2 14/1/2 16/1/2
f 1/1/3 13/1/3 18/1/3
f 1/1/4 18/1/4 20/1/4
f 1/1/5 20/1/5 17/1/5
f 2/1/6 16/1/6 23/1/6
f 3/1/7 15/1/7 25/1/7
f 4/1/8 19/1/8 27/1/8
f 5/1/9 21/1/9 29/1/9
f 6/1/10 22/1/10 31/1/10
f 2/1/11 23/1/11 26/1/11
f 3/1/12 25/1/12 28/1/12
f 4/1/13 27/1/13 30/1/13
f 5/1/14 29/1/14 32/1/14
f 6/1/15 31/1/15 24/1/15
f 7/1/16 33/1/16 38/1/16
f 8/1/17 34/1/17 40/1/17
f 9/1/18 35/1/18 41/1/18
f 10/1/19 36/1/19 42/1/19
f 11/1/20 37/1/20 39/1/20
f 39/1/21 42/1/21 12/1/21
f 39/1/22 37/1/22 42/1/22
f 37/1/23 10/1/23 42/1/23
f 42/1/24 41/1/24 12/1/24
f 42/1/25 36/1/25 41/1/25
f 36/1/26 9/1/26 41/1/26
f 41/1/27 40/1/27 12/1/27
f 41/1/28 35/1/28 40/1/28
f 35/1/29 8/1/29 40/1/29
f 40/1/30 38/1/30 12/1/30
f 40/1/31 34/1/31 38/1/31
f 34/1/32 7/1/32 38/1/32
f 38/1/33 39/1/33 12/1/33
f 38/1/34 33/1/34 39/1/34
f 33/1/35 11/1/35 39/1/35
f 24/1/36 37/1/36 11/1/36
f 24/1/37 31/1/37 37/1/37
f 31/1/38 10/1/38 37/1/38
f 32/1/39 36/1/39 10/1/39
f 32/1/40 29/1/40 36/1/40
f 29/1/41 9/1/41 36/1/41
f 30/1/42 35/1/42 9/1/42
f 30/1/43 27/1/43 35/1/43
f 27/1/44 8/1/44 35/1/44
f 28/1/45 34/1/45 8/1/45
f 28/1/46 25/1/46 34/1/46
f 25/1/47 7/1/47 34/1/47
f 26/1/48 33/1/48 7/1/48
f 26/1/49 23/1/49 33/1/49
f 23/1/50 11/1/50 33/1/50
f 31/1/51 32/1/51 10/1/51
f 31/1/52 22/1/52 32/1/52
f 22/1/53 5/1/53 32/1/53
f 29/1/54 30/1/54 9/1/54
f 29/1/55 21/1/55 30/1/55
f 21/1/56 4/1/56 30/1/56
f 27/1/57 28/1/57 8/1/57
f 27/1/58 19/1/58 28/1/58
f 19/1/59 3/1/59 28/1/59
f 25/1/60 26/1/60 7/1/60
f 25/1/61 15/1/61 26/1/61
f 15/1/62 2/1/62 26/1/62
f 23/1/63 24/1/63 11/1/63
f 23/1/64 16/1/64 24/1/64
f 16/1/65 6/1/65 24/1/65
f 17/1/66 22/1/66 6/1/66
f 17/1/67 20/1/67 22/1/67
f 20/1/68 5/1/68 22/1/68
f 20/1/69 21/1/69 5/1/69
f 20/1/70 18/1/70 21/1/70
f 18/1/71 4/1/71 21/1/71
f 18/1/72 19/1/72 4/1/72
f 18/1/73 13/1/73 19/1/73
f 13/1/74 3/1/74 19/1/74
f 16/1/75 17/1/75 6/1/75
f 16/1/76 14/1/76 17/1/76
f 14/1/77 1/1/77 17/1/77
f 13/1/78 15/1/78 3/1/78
f 13/1/79 14/1/79 15/1/79
f 14/1/80 2/1/80 15/1/80
f 43/2/81 44/2/81 45/2/81
f 44/2/82 43/2/82 48/2/82
f 43/2/83 45/2/83 46/2/83
f 43/2/84 46/2/84 47/2/84
f 43/2/85 47/2/85 48/2/85
f 44/2/86 48/2/86 53/2/86
f 45/2/87 44/2/87 49/2/87
f 46/2/88 45/2/88 50/2/88
f 47/2/89 46/2/89 51/2/89
f 48/2/90 47/2/90 52/2/90
f 44/2/91 53/2/91 49/2/91
f 45/2/92 49/2/92 50/2/92
f 46/2/93 50/2/93 51/2/93
f 47/2/94 51/2/94 52/2/94
f 48/2/95 52/2/95 53/2/95
f 49/2/96 53/2/96 54/2/96
f 50/2/97 49/2/97 54/2/97
f 51/2/98 50/2/98 54/2/98
f 52/2/99 51/2/99 54/2/99
f 53/2/100 52/2/100 54/2/100
f 55/3/101 56/3/101 57/3/101
f 56/3/102 55/3/102 60/3/102
f 55/3/103 57/3/103 58/3/103
f 55/3/104 58/3/104 59/3/104
f 55/3/105 59/3/105 60/3/105
f 56/3/106 60/3/106 65/3/106
f 57/3/107 56/3/107 61/3/107
f 58/3/108 57/3/108 62/3/108
f 59/3/109 58/3/109 63/3/109
f 60/3/110 59/3/110 64/3/110
f 56/3/111 65/3/111 61/3/111
f 57/3/112 61/3/112 62/3/112
f 58/3/113 62/3/113 63/3/113
f 59/3/114 63/3/114 64/3/114
f 60/3/115 64/3/115 65/3/115
f 61/3/116 65/3/116 66/3/116
f 62/3/117 61/3/117 66/3/117
f 63/3/118 62/3/118 66/3/118
f 64/3/119 63/3/119 66/3/119
f 65/3/120 64/3/120 66/3/120
f 67/2/121 68/2/121 69/2/121
f 68/2/122 67/2/122 72/2/122
f 67/2/123 69/2/123 70/2/123
f 67/2/124 70/2/124 71/2/124
f 67/2/125 71/2/125 72/2/125
f 68/2/126 72/2/126 77/2/126
f 69/2/127 68/2/127 73/2/127
f 70/2/128 69/2/128 74/2/128
f 71/2/129 70/2/129 75/2/129
f 72/2/130 71/2/130 76/2/130
f 68/2/131 77/2/131 73/2/131
f 69/2/132 73/2/132 74/2/132
f 70/2/133 74/2/133 75/2/133
f 71/2/134 75/2/134 76/2/134
f 72/2/135 76/2/135 77/2/135
f 73/2/136 77/2/136 78/2/136
f 74/2/137 73/2/137 78/2/137
f 75/2/138 74/2/138 78/2/138
f 76/2/139 75/2/139 78/2/139
f 77/2/140 76/2/140 78/2/140
