# Blender 5.2.1 LTS
# www.blender.org
mtllib rockInstances.mtl
o rockInstances
v -0.003618 0.048487 -0.036810
v 0.755700 0.185477 0.473970
v -0.266397 0.187829 0.712007
v -0.866857 0.187673 -0.036810
v -0.270546 0.209105 -0.797449
v 0.619435 0.220468 -0.455926
v 0.274359 0.686968 0.755317
v -0.655989 0.692180 0.402029
v -0.646308 0.722466 -0.469136
v 0.287667 0.711410 -0.866857
v 0.866857 0.685063 -0.036810
v -0.003618 1.000000 -0.036810
v -0.133812 0.053835 0.334193
v 0.350701 0.000000 0.201535
v 0.265823 0.155414 0.730964
v 0.758742 0.137951 -0.036810
v 0.333464 0.061568 -0.263559
v -0.487060 0.029448 -0.036810
v -0.679029 0.137128 0.417531
v -0.133330 0.048807 -0.406439
v -0.680002 0.136297 -0.491805
v 0.263690 0.167159 -0.798506
v 0.787747 0.452859 0.201258
v 0.820982 0.452859 -0.284875
v -0.003618 0.452859 0.866857
v 0.457850 0.452859 0.551268
v -0.832094 0.452859 0.212422
v -0.473783 0.452859 0.562351
v -0.523960 0.452859 -0.699913
v -0.849623 0.452859 -0.291314
v 0.597013 0.452859 -0.802231
v -0.003618 0.452859 -0.763049
v 0.545725 0.768125 0.332727
v -0.232043 0.748989 0.614089
v -0.735054 0.725757 -0.036810
v -0.253234 0.766505 -0.748092
v 0.675320 0.738232 -0.493523
v 0.161548 0.943299 0.433851
v 0.439343 0.950095 -0.036810
v -0.337107 0.917297 0.187522
v -0.349805 0.959682 -0.269684
v 0.128486 0.920980 -0.413255
v -0.383923 0.088714 -0.222578
v -0.170610 0.184473 0.025196
v -0.465400 0.184473 0.178333
v -0.647595 0.184473 -0.222578
v -0.465400 0.184473 -0.623490
v -0.170610 0.184473 -0.470353
v -0.302447 0.339417 0.178333
v -0.597237 0.339417 0.025196
v -0.597237 0.339417 -0.470353
v -0.302447 0.339417 -0.623490
v -0.120252 0.339417 -0.222578
v -0.383923 0.435176 -0.222578
v -0.277075 0.346869 -0.271800
v -0.080979 0.405459 -0.077360
v -0.351976 0.405459 0.042814
v -0.519465 0.405459 -0.271800
v -0.351976 0.405459 -0.586414
v -0.080979 0.405459 -0.466240
v -0.202175 0.500259 0.042814
v -0.473172 0.500259 -0.077360
v -0.473172 0.500259 -0.466240
v -0.202175 0.500259 -0.586414
v -0.034685 0.500259 -0.271800
v -0.277075 0.558849 -0.271800
v 0.305061 0.534566 -0.015409
v 0.604646 0.594934 0.232882
v 0.190632 0.594934 0.386337
v -0.065249 0.594934 -0.015409
v 0.190632 0.594934 -0.417155
v 0.604646 0.594934 -0.263699
v 0.419490 0.692612 0.386337
v 0.005476 0.692612 0.232882
v 0.005476 0.692612 -0.263699
v 0.419490 0.692612 -0.417155
v 0.675371 0.692612 -0.015409
v 0.305061 0.752980 -0.015409
vn -0.1177 -0.9927 -0.0270
vn 0.3650 -0.9268 0.0884
vn 0.0393 -0.9988 0.0282
vn 0.0393 -0.9991 -0.0147
vn 0.0309 -0.9995 -0.0117
vn 0.9945 -0.1033 0.0155
vn -0.0595 -0.4589 0.8865
vn -0.9112 -0.2124 0.3531
vn -0.5495 -0.2527 -0.7964
vn 0.5663 -0.6670 -0.4842
vn 0.6206 0.5222 0.5849
vn -0.5430 0.0485 0.8384
vn -0.9946 0.0979 0.0346
vn -0.1162 0.2625 -0.9579
vn 0.8197 -0.4497 -0.3548
vn 0.4659 0.7643 0.4459
vn -0.3216 0.8511 0.4150
vn -0.5683 0.8136 -0.1228
vn 0.0004 0.9078 -0.4193
vn 0.5230 0.8437 -0.1211
vn 0.1104 0.9798 -0.1669
vn 0.2648 0.9197 -0.2898
vn 0.2552 0.9087 -0.3303
vn 0.0196 0.9798 -0.1988
vn -0.0396 0.9237 -0.3810
vn -0.3845 0.8264 -0.4113
vn -0.1785 0.9793 0.0957
vn -0.4744 0.8752 0.0943
vn -0.4980 0.8532 0.1550
vn -0.1320 0.9776 0.1641
vn -0.2472 0.8790 0.4077
vn -0.0846 0.7644 0.6392
vn 0.1116 0.9905 0.0802
vn 0.4586 0.8424 0.2828
vn 0.5091 0.8212 0.2578
vn 0.9112 0.2030 -0.3585
vn 0.9035 0.1752 -0.3911
vn 0.5710 0.5256 -0.6307
vn -0.2255 -0.1334 -0.9651
vn -0.1203 -0.0485 -0.9916
vn -0.5643 0.3740 -0.7360
vn -0.8383 0.5161 -0.1760
vn -0.9320 0.3610 0.0324
vn -0.8567 0.4791 0.1910
vn -0.4598 0.2253 0.8589
vn -0.5211 0.2848 0.8046
vn -0.1554 0.5692 0.8074
vn 0.8171 0.1568 0.5548
vn 0.7021 0.2630 0.6617
vn 0.7473 0.3342 0.5743
vn -0.0619 -0.3111 -0.9484
vn -0.0650 0.0628 -0.9959
vn 0.0083 0.1308 -0.9914
vn -0.7698 0.1759 -0.6136
vn -0.7818 -0.0243 -0.6231
vn -0.9015 -0.2677 -0.3400
vn -0.6977 -0.0526 0.7144
vn -0.6932 0.1251 0.7098
vn -0.5813 0.0046 0.8137
vn 0.5440 -0.2670 0.7955
vn 0.5595 0.1330 0.8181
vn 0.4395 0.2393 0.8658
vn 0.9632 -0.2606 0.0658
vn 0.9876 -0.1420 0.0675
vn 0.8195 -0.4457 -0.3602
vn 0.3530 -0.9081 -0.2253
vn 0.0891 -0.9749 -0.2041
vn -0.0738 -0.9316 -0.3560
vn -0.0947 -0.9323 -0.3490
vn -0.1290 -0.9762 -0.1745
vn -0.3840 -0.9218 -0.0536
vn -0.3840 -0.9216 0.0562
vn -0.1216 -0.9761 0.1800
vn -0.0988 -0.9483 0.3017
vn 0.3135 -0.9065 -0.2827
vn 0.2450 -0.9599 -0.1362
vn -0.0486 -0.9904 -0.1293
vn -0.0688 -0.9476 0.3119
vn -0.0309 -0.9604 0.2770
vn 0.2179 -0.9265 0.3069
vn 0.1328 -0.9576 0.2557
vn 0.4095 -0.9123 -0.0000
vn -0.3373 -0.9288 0.1533
vn -0.3373 -0.9288 -0.1533
vn 0.1328 -0.9576 -0.2557
vn 0.9510 -0.3091 -0.0000
vn 0.4148 -0.4363 0.7985
vn -0.8550 -0.3435 0.3886
vn -0.8550 -0.3435 -0.3886
vn 0.4148 -0.4363 -0.7985
vn 0.8550 0.3435 0.3886
vn -0.4148 0.4363 0.7985
vn -0.9510 0.3091 -0.0000
vn -0.4148 0.4363 -0.7985
vn 0.8550 0.3435 -0.3886
vn 0.3373 0.9288 0.1533
vn -0.1328 0.9576 0.2557
vn -0.4095 0.9123 -0.0000
vn -0.1328 0.9576 -0.2557
vn 0.3373 0.9288 -0.1533
vn 0.0900 -0.9750 0.2030
vn 0.2863 -0.9581 -0.0000
vn -0.2331 -0.9645 0.1241
vn -0.2331 -0.9645 -0.1241
vn 0.0900 -0.9750 -0.2030
vn 0.8986 -0.4388 -0.0000
vn 0.3414 -0.5394 0.7698
vn -0.7790 -0.4702 0.4147
vn -0.7790 -0.4702 -0.4147
vn 0.3414 -0.5394 -0.7698
vn 0.7790 0.4702 0.4147
vn -0.3414 0.5394 0.7698
vn -0.8986 0.4388 -0.0000
vn -0.3414 0.5394 -0.7698
vn 0.7790 0.4702 -0.4147
vn 0.2331 0.9645 0.1241
vn -0.0900 0.9750 0.2030
vn -0.2863 0.9581 -0.0000
vn -0.0900 0.9750 -0.2030
vn 0.2331 0.9645 -0.1241
vn 0.0613 -0.9843 0.1654
vn 0.1975 -0.9803 -0.0000
vn -0.1601 -0.9818 0.1019
vn -0.1601 -0.9818 -0.1019
vn 0.0613 -0.9843 -0.1654
vn 0.8100 -0.5865 -0.0000
vn 0.2695 -0.6314 0.7271
vn -0.6732 -0.6025 0.4288
vn -0.6732 -0.6025 -0.4288
vn 0.2695 -0.6314 -0.7271
vn 0.6732 0.6025 0.4288
vn -0.2695 0.6314 0.7271
vn -0.8100 0.5865 -0.0000
vn -0.2695 0.6314 -0.7271
vn 0.6732 0.6025 -0.4288
vn 0.1601 0.9818 0.1019
vn -0.0613 0.9843 0.1654
vn -0.1975 0.9803 -0.0000
vn -0.0613 0.9843 -0.1654
vn 0.1601 0.9818 -0.1019
vt 0.125000 0.625000
vt 0.375000 0.875000
vt 0.625000 0.125000
s 0
usemtl WorldPickupPalette
f 1/1/1 14/1/1 13/1/1
f 2/1/2 14/1/2 16/1/2
f 1/1/3 13/1/3 18/1/3
f 1/1/4 18/1/4 20/1/4
f 1/1/5 20/1/5 17/1/5
f 2/1/6 16/1/6 23/1/6
f 3/1/7 15/1/7 25/1/7
f 4/1/8 19/1/8 27/1/8
f 5/1/9 21/1/9 29/1/9
f 6/1/10 22/1/10 31/1/10
f 2/1/11 23/1/11 26/1/11
f 3/1/12 25/1/12 28/1/12
f 4/1/13 27/1/13 30/1/13
f 5/1/14 29/1/14 32/1/14
f 6/1/15 31/1/15 24/1/15
f 7/1/16 33/1/16 38/1/16
f 8/1/17 34/1/17 40/1/17
f 9/1/18 35/1/18 41/1/18
f 10/1/19 36/1/19 42/1/19
f 11/1/20 37/1/20 39/1/20
f 39/1/21 42/1/21 12/1/21
f 39/1/22 37/1/22 42/1/22
f 37/1/23 10/1/23 42/1/23
f 42/1/24 41/1/24 12/1/24
f 42/1/25 36/1/25 41/1/25
f 36/1/26 9/1/26 41/1/26
f 41/1/27 40/1/27 12/1/27
f 41/1/28 35/1/28 40/1/28
f 35/1/29 8/1/29 40/1/29
f 40/1/30 38/1/30 12/1/30
f 40/1/31 34/1/31 38/1/31
f 34/1/32 7/1/32 38/1/32
f 38/1/33 39/1/33 12/1/33
f 38/1/34 33/1/34 39/1/34
f 33/1/35 11/1/35 39/1/35
f 24/1/36 37/1/36 11/1/36
f 24/1/37 31/1/37 37/1/37
f 31/1/38 10/1/38 37/1/38
f 32/1/39 36/1/39 10/1/39
f 32/1/40 29/1/40 36/1/40
f 29/1/41 9/1/41 36/1/41
f 30/1/42 35/1/42 9/1/42
f 30/1/43 27/1/43 35/1/43
f 27/1/44 8/1/44 35/1/44
f 28/1/45 34/1/45 8/1/45
f 28/1/46 25/1/46 34/1/46
f 25/1/47 7/1/47 34/1/47
f 26/1/48 33/1/48 7/1/48
f 26/1/49 23/1/49 33/1/49
f 23/1/50 11/1/50 33/1/50
f 31/1/51 32/1/51 10/1/51
f 31/1/52 22/1/52 32/1/52
f 22/1/53 5/1/53 32/1/53
f 29/1/54 30/1/54 9/1/54
f 29/1/55 21/1/55 30/1/55
f 21/1/56 4/1/56 30/1/56
f 27/1/57 28/1/57 8/1/57
f 27/1/58 19/1/58 28/1/58
f 19/1/59 3/1/59 28/1/59
f 25/1/60 26/1/60 7/1/60
f 25/1/61 15/1/61 26/1/61
f 15/1/62 2/1/62 26/1/62
f 23/1/63 24/1/63 11/1/63
f 23/1/64 16/1/64 24/1/64
f 16/1/65 6/1/65 24/1/65
f 17/1/66 22/1/66 6/1/66
f 17/1/67 20/1/67 22/1/67
f 20/1/68 5/1/68 22/1/68
f 20/1/69 21/1/69 5/1/69
f 20/1/70 18/1/70 21/1/70
f 18/1/71 4/1/71 21/1/71
f 18/1/72 19/1/72 4/1/72
f 18/1/73 13/1/73 19/1/73
f 13/1/74 3/1/74 19/1/74
f 16/1/75 17/1/75 6/1/75
f 16/1/76 14/1/76 17/1/76
f 14/1/77 1/1/77 17/1/77
f 13/1/78 15/1/78 3/1/78
f 13/1/79 14/1/79 15/1/79
f 14/1/80 2/1/80 15/1/80
f 43/2/81 44/2/81 45/2/81
f 44/2/82 43/2/82 48/2/82
f 43/2/83 45/2/83 46/2/83
f 43/2/84 46/2/84 47/2/84
f 43/2/85 47/2/85 48/2/85
f 44/2/86 48/2/86 53/2/86
f 45/2/87 44/2/87 49/2/87
f 46/2/88 45/2/88 50/2/88
f 47/2/89 46/2/89 51/2/89
f 48/2/90 47/2/90 52/2/90
f 44/2/91 53/2/91 49/2/91
f 45/2/92 49/2/92 50/2/92
f 46/2/93 50/2/93 51/2/93
f 47/2/94 51/2/94 52/2/94
f 48/2/95 52/2/95 53/2/95
f 49/2/96 53/2/96 54/2/96
f 50/2/97 49/2/97 54/2/97
f 51/2/98 50/2/98 54/2/98
f 52/2/99 51/2/99 54/2/99
f 53/2/100 52/2/100 54/2/100
f 55/3/101 56/3/101 57/3/101
f 56/3/102 55/3/102 60/3/102
f 55/3/103 57/3/103 58/3/103
f 55/3/104 58/3/104 59/3/104
f 55/3/105 59/3/105 60/3/105
f 56/3/106 60/3/106 65/3/106
f 57/3/107 56/3/107 61/3/107
f 58/3/108 57/3/108 62/3/108
f 59/3/109 58/3/109 63/3/109
f 60/3/110 59/3/110 64/3/110
f 56/3/111 65/3/111 61/3/111
f 57/3/112 61/3/112 62/3/112
f 58/3/113 62/3/113 63/3/113
f 59/3/114 63/3/114 64/3/114
f 60/3/115 64/3/115 65/3/115
f 61/3/116 65/3/116 66/3/116
f 62/3/117 61/3/117 66/3/117
f 63/3/118 62/3/118 66/3/118
f 64/3/119 63/3/119 66/3/119
f 65/3/120 64/3/120 66/3/120
f 67/2/121 68/2/121 69/2/121
f 68/2/122 67/2/122 72/2/122
f 67/2/123 69/2/123 70/2/123
f 67/2/124 70/2/124 71/2/124
f 67/2/125 71/2/125 72/2/125
f 68/2/126 72/2/126 77/2/126
f 69/2/127 68/2/127 73/2/127
f 70/2/128 69/2/128 74/2/128
f 71/2/129 70/2/129 75/2/129
f 72/2/130 71/2/130 76/2/130
f 68/2/131 77/2/131 73/2/131
f 69/2/132 73/2/132 74/2/132
f 70/2/133 74/2/133 75/2/133
f 71/2/134 75/2/134 76/2/134
f 72/2/135 76/2/135 77/2/135
f 73/2/136 77/2/136 78/2/136
f 74/2/137 73/2/137 78/2/137
f 75/2/138 74/2/138 78/2/138
f 76/2/139 75/2/139 78/2/139
f 77/2/140 76/2/140 78/2/140
