# Blender 5.2.1 LTS
# www.blender.org
mtllib rockMass5.mtl
o rockMass5
v -0.005329 0.000000 -0.005818
v 0.708769 0.208280 0.482949
v -0.220981 0.190182 0.619462
v -0.697538 0.229284 -0.005818
v -0.234067 0.198197 -0.669040
v 0.680011 0.207417 -0.474902
v 0.232471 0.712401 0.683676
v -0.582313 0.746723 0.389102
v -0.607177 0.735250 -0.417756
v 0.270256 0.736817 -0.804869
v 0.829200 0.732153 -0.005818
v -0.005329 0.997711 -0.005818
v -0.146019 0.038561 0.402111
v 0.345086 0.050487 0.234025
v 0.259260 0.157360 0.761324
v 0.778492 0.165831 -0.005818
v 0.357516 0.057949 -0.254168
v -0.472981 0.002522 -0.005818
v -0.642885 0.145637 0.430564
v -0.148204 0.011929 -0.420083
v -0.676797 0.183043 -0.465411
v 0.261231 0.186365 -0.778674
v 0.793413 0.467087 0.238674
v 0.844348 0.467087 -0.265901
v -0.005329 0.467087 0.844348
v 0.565343 0.467087 0.734150
v -0.762257 0.467087 0.225875
v -0.570674 0.467087 0.727244
v -0.611223 0.467087 -0.791459
v -0.739774 0.467087 -0.230629
v 0.588320 0.467087 -0.775580
v -0.005329 0.467087 -0.844348
v 0.703556 0.778102 0.479385
v -0.230166 0.759627 0.646068
v -0.844348 0.795019 -0.005818
v -0.240806 0.788447 -0.688556
v 0.570502 0.774068 -0.399951
v 0.137201 0.928362 0.407444
v 0.455328 0.952452 -0.005818
v -0.384856 0.924278 0.253951
v -0.444386 1.000000 -0.306333
v 0.133827 0.923980 -0.409298
v 0.149363 0.146687 -0.131323
v 0.395080 0.216052 0.094791
v 0.055509 0.216052 0.234541
v -0.154362 0.216052 -0.131323
v 0.055509 0.216052 -0.497187
v 0.395080 0.216052 -0.357438
v 0.243217 0.328287 0.234541
v -0.096354 0.328287 0.094791
v -0.096354 0.328287 -0.357438
v 0.243217 0.328287 -0.497187
v 0.453088 0.328287 -0.131323
v 0.149363 0.397652 -0.131323
v -0.121033 0.277863 0.241726
v 0.179036 0.382463 0.397526
v -0.235647 0.382463 0.493818
v -0.491942 0.382463 0.241726
v -0.235647 0.382463 -0.010366
v 0.179036 0.382463 0.085926
v -0.006419 0.551711 0.493818
v -0.421102 0.551711 0.397526
v -0.421102 0.551711 0.085926
v -0.006419 0.551711 -0.010366
v 0.249875 0.551711 0.241726
v -0.121033 0.656312 0.241726
v 0.347129 0.564195 -0.210685
v 0.648902 0.618262 -0.022681
v 0.231865 0.618262 0.093514
v -0.025885 0.618262 -0.210685
v 0.231865 0.618262 -0.514885
v 0.648902 0.618262 -0.398689
v 0.462394 0.705747 0.093514
v 0.045356 0.705747 -0.022681
v 0.045356 0.705747 -0.398689
v 0.462394 0.705747 -0.514885
v 0.720144 0.705747 -0.210685
v 0.347129 0.759815 -0.210685
vn 0.0637 -0.9912 0.1157
vn 0.3202 -0.9388 0.1272
vn -0.0054 -0.9957 0.0923
vn -0.0054 -0.9996 -0.0269
vn 0.1123 -0.9914 -0.0673
vn 0.9728 -0.1730 0.1538
vn -0.2799 -0.4644 0.8402
vn -0.9474 -0.3147 0.0583
vn -0.2807 -0.6950 -0.6619
vn 0.4993 -0.5746 -0.6485
vn 0.9041 0.0971 0.4162
vn -0.1710 -0.5374 0.8258
vn -0.9747 -0.2185 -0.0480
vn -0.0754 -0.4988 -0.8634
vn 0.8755 -0.2001 -0.4398
vn 0.1394 0.8029 0.5796
vn -0.3804 0.7896 0.4816
vn -0.6544 0.5974 -0.4635
vn -0.0065 0.9030 -0.4295
vn 0.4935 0.8375 -0.2348
vn 0.0967 0.9845 -0.1465
vn 0.3143 0.8960 -0.3137
vn 0.3142 0.8955 -0.3153
vn 0.1037 0.9841 -0.1441
vn 0.0321 0.8816 -0.4709
vn -0.5352 0.5854 -0.6090
vn -0.0928 0.9854 0.1430
vn -0.3510 0.9223 0.1619
vn -0.4492 0.8009 0.3960
vn -0.0624 0.9806 0.1861
vn -0.1328 0.8941 0.4278
vn 0.0314 0.7927 0.6089
vn 0.0969 0.9865 0.1321
vn 0.2227 0.9481 0.2267
vn 0.5070 0.8605 0.0498
vn 0.7560 0.4800 -0.4451
vn 0.7659 0.5152 -0.3847
vn 0.5881 0.6397 -0.4949
vn -0.1795 0.3195 -0.9304
vn -0.0802 0.3866 -0.9187
vn -0.4795 0.7154 -0.5082
vn -0.8598 0.0724 -0.5055
vn -0.9606 -0.2739 -0.0473
vn -0.8066 0.1929 0.5588
vn -0.4475 0.6815 0.5790
vn -0.1809 0.4528 0.8731
vn -0.0109 0.5553 0.8316
vn 0.2725 0.5344 0.8001
vn 0.9067 -0.0611 0.4174
vn 0.9660 0.0923 0.2414
vn 0.1150 0.0278 -0.9930
vn 0.1142 -0.1222 -0.9859
vn -0.2068 -0.4048 -0.8907
vn -0.9267 0.3100 -0.2124
vn -0.9742 -0.0314 -0.2233
vn -0.9801 -0.1971 -0.0244
vn -0.8695 0.3656 0.3322
vn -0.9275 -0.1188 0.3544
vn -0.2646 -0.6213 0.7376
vn 0.1723 0.4174 0.8923
vn 0.1886 -0.1007 0.9769
vn 0.5087 -0.4377 0.7414
vn 0.9941 -0.0417 0.1003
vn 0.9865 -0.1297 0.0996
vn 0.8947 -0.3874 -0.2222
vn 0.2446 -0.9305 -0.2727
vn 0.1730 -0.9489 -0.2641
vn -0.1436 -0.8155 -0.5606
vn -0.2183 -0.8160 -0.5353
vn -0.2802 -0.9293 -0.2408
vn -0.7100 -0.7031 0.0387
vn -0.7098 -0.7029 -0.0458
vn -0.1916 -0.9523 0.2377
vn -0.1494 -0.8344 0.5305
vn 0.3283 -0.9323 -0.1516
vn 0.2529 -0.9675 -0.0083
vn 0.1502 -0.9886 -0.0113
vn -0.2078 -0.8344 0.5104
vn 0.0964 -0.9723 0.2128
vn 0.2497 -0.9403 0.2312
vn 0.0850 -0.9747 0.2066
vn 0.2717 -0.9624 -0.0000
vn -0.2209 -0.9670 0.1267
vn -0.2209 -0.9670 -0.1267
vn 0.0850 -0.9747 -0.2066
vn 0.8884 -0.4591 -0.0000
vn 0.3211 -0.5370 0.7801
vn -0.7587 -0.4847 0.4352
vn -0.7587 -0.4847 -0.4352
vn 0.3211 -0.5370 -0.7801
vn 0.7587 0.4847 0.4352
vn -0.3211 0.5370 0.7801
vn -0.8884 0.4591 -0.0000
vn -0.3211 0.5370 -0.7801
vn 0.7587 0.4847 -0.4352
vn 0.2209 0.9670 0.1267
vn -0.0850 0.9747 0.2066
vn -0.2717 0.9624 -0.0000
vn -0.0850 0.9747 -0.2066
vn 0.2209 0.9670 -0.1267
vn 0.0973 -0.9028 0.4188
vn 0.3292 -0.9443 -0.0000
vn -0.2616 -0.9278 0.2660
vn -0.2616 -0.9278 -0.2660
vn 0.0973 -0.9028 -0.4188
vn 0.9225 -0.3861 -0.0000
vn 0.2163 -0.2929 0.9314
vn -0.6592 -0.3410 0.6702
vn -0.6592 -0.3410 -0.6702
vn 0.2163 -0.2929 -0.9314
vn 0.6592 0.3410 0.6702
vn -0.2163 0.2929 0.9314
vn -0.9225 0.3861 -0.0000
vn -0.2163 0.2929 -0.9314
vn 0.6592 0.3410 -0.6702
vn 0.2616 0.9278 0.2660
vn -0.0973 0.9028 0.4188
vn -0.3292 0.9443 -0.0000
vn -0.0973 0.9028 -0.4188
vn 0.2616 0.9278 -0.2660
vn 0.0542 -0.9794 0.1946
vn 0.1764 -0.9843 -0.0000
vn -0.1424 -0.9824 0.1207
vn -0.1424 -0.9824 -0.1207
vn 0.0542 -0.9794 -0.1946
vn 0.7754 -0.6314 -0.0000
vn 0.2191 -0.5774 0.7865
vn -0.6051 -0.6091 0.5127
vn -0.6051 -0.6091 -0.5127
vn 0.2191 -0.5774 -0.7865
vn 0.6051 0.6091 0.5127
vn -0.2191 0.5774 0.7865
vn -0.7754 0.6315 -0.0000
vn -0.2191 0.5774 -0.7865
vn 0.6051 0.6091 -0.5127
vn 0.1424 0.9824 0.1207
vn -0.0542 0.9794 0.1946
vn -0.1764 0.9843 -0.0000
vn -0.0542 0.9794 -0.1946
vn 0.1424 0.9824 -0.1207
vt 0.125000 0.625000
vt 0.375000 0.875000
vt 0.625000 0.125000
s 0
usemtl WorldPickupPalette
f 1/1/1 14/1/1 13/1/1
f 2/1/2 14/1/2 16/1/2
f 1/1/3 13/1/3 18/1/3
f 1/1/4 18/1/4 20/1/4
f 1/1/5 20/1/5 17/1/5
f 2/1/6 16/1/6 23/1/6
f 3/1/7 15/1/7 25/1/7
f 4/1/8 19/1/8 27/1/8
f 5/1/9 21/1/9 29/1/9
f 6/1/10 22/1/10 31/1/10
f 2/1/11 23/1/11 26/1/11
f 3/1/12 25/1/12 28/1/12
f 4/1/13 27/1/13 30/1/13
f 5/1/14 29/1/14 32/1/14
f 6/1/15 31/1/15 24/1/15
f 7/1/16 33/1/16 38/1/16
f 8/1/17 34/1/17 40/1/17
f 9/1/18 35/1/18 41/1/18
f 10/1/19 36/1/19 42/1/19
f 11/1/20 37/1/20 39/1/20
f 39/1/21 42/1/21 12/1/21
f 39/1/22 37/1/22 42/1/22
f 37/1/23 10/1/23 42/1/23
f 42/1/24 41/1/24 12/1/24
f 42/1/25 36/1/25 41/1/25
f 36/1/26 9/1/26 41/1/26
f 41/1/27 40/1/27 12/1/27
f 41/1/28 35/1/28 40/1/28
f 35/1/29 8/1/29 40/1/29
f 40/1/30 38/1/30 12/1/30
f 40/1/31 34/1/31 38/1/31
f 34/1/32 7/1/32 38/1/32
f 38/1/33 39/1/33 12/1/33
f 38/1/34 33/1/34 39/1/34
f 33/1/35 11/1/35 39/1/35
f 24/1/36 37/1/36 11/1/36
f 24/1/37 31/1/37 37/1/37
f 31/1/38 10/1/38 37/1/38
f 32/1/39 36/1/39 10/1/39
f 32/1/40 29/1/40 36/1/40
f 29/1/41 9/1/41 36/1/41
f 30/1/42 35/1/42 9/1/42
f 30/1/43 27/1/43 35/1/43
f 27/1/44 8/1/44 35/1/44
f 28/1/45 34/1/45 8/1/45
f 28/1/46 25/1/46 34/1/46
f 25/1/47 7/1/47 34/1/47
f 26/1/48 33/1/48 7/1/48
f 26/1/49 23/1/49 33/1/49
f 23/1/50 11/1/50 33/1/50
f 31/1/51 32/1/51 10/1/51
f 31/1/52 22/1/52 32/1/52
f 22/1/53 5/1/53 32/1/53
f 29/1/54 30/1/54 9/1/54
f 29/1/55 21/1/55 30/1/55
f 21/1/56 4/1/56 30/1/56
f 27/1/57 28/1/57 8/1/57
f 27/1/58 19/1/58 28/1/58
f 19/1/59 3/1/59 28/1/59
f 25/1/60 26/1/60 7/1/60
f 25/1/61 15/1/61 26/1/61
f 15/1/62 2/1/62 26/1/62
f 23/1/63 24/1/63 11/1/63
f 23/1/64 16/1/64 24/1/64
f 16/1/65 6/1/65 24/1/65
f 17/1/66 22/1/66 6/1/66
f 17/1/67 20/1/67 22/1/67
f 20/1/68 5/1/68 22/1/68
f 20/1/69 21/1/69 5/1/69
f 20/1/70 18/1/70 21/1/70
f 18/1/71 4/1/71 21/1/71
f 18/1/72 19/1/72 4/1/72
f 18/1/73 13/1/73 19/1/73
f 13/1/74 3/1/74 19/1/74
f 16/1/75 17/1/75 6/1/75
f 16/1/76 14/1/76 17/1/76
f 14/1/77 1/1/77 17/1/77
f 13/1/78 15/1/78 3/1/78
f 13/1/79 14/1/79 15/1/79
f 14/1/80 2/1/80 15/1/80
f 43/2/81 44/2/81 45/2/81
f 44/2/82 43/2/82 48/2/82
f 43/2/83 45/2/83 46/2/83
f 43/2/84 46/2/84 47/2/84
f 43/2/85 47/2/85 48/2/85
f 44/2/86 48/2/86 53/2/86
f 45/2/87 44/2/87 49/2/87
f 46/2/88 45/2/88 50/2/88
f 47/2/89 46/2/89 51/2/89
f 48/2/90 47/2/90 52/2/90
f 44/2/91 53/2/91 49/2/91
f 45/2/92 49/2/92 50/2/92
f 46/2/93 50/2/93 51/2/93
f 47/2/94 51/2/94 52/2/94
f 48/2/95 52/2/95 53/2/95
f 49/2/96 53/2/96 54/2/96
f 50/2/97 49/2/97 54/2/97
f 51/2/98 50/2/98 54/2/98
f 52/2/99 51/2/99 54/2/99
f 53/2/100 52/2/100 54/2/100
f 55/3/101 56/3/101 57/3/101
f 56/3/102 55/3/102 60/3/102
f 55/3/103 57/3/103 58/3/103
f 55/3/104 58/3/104 59/3/104
f 55/3/105 59/3/105 60/3/105
f 56/3/106 60/3/106 65/3/106
f 57/3/107 56/3/107 61/3/107
f 58/3/108 57/3/108 62/3/108
f 59/3/109 58/3/109 63/3/109
f 60/3/110 59/3/110 64/3/110
f 56/3/111 65/3/111 61/3/111
f 57/3/112 61/3/112 62/3/112
f 58/3/113 62/3/113 63/3/113
f 59/3/114 63/3/114 64/3/114
f 60/3/115 64/3/115 65/3/115
f 61/3/116 65/3/116 66/3/116
f 62/3/117 61/3/117 66/3/117
f 63/3/118 62/3/118 66/3/118
f 64/3/119 63/3/119 66/3/119
f 65/3/120 64/3/120 66/3/120
f 67/2/121 68/2/121 69/2/121
f 68/2/122 67/2/122 72/2/122
f 67/2/123 69/2/123 70/2/123
f 67/2/124 70/2/124 71/2/124
f 67/2/125 71/2/125 72/2/125
f 68/2/126 72/2/126 77/2/126
f 69/2/127 68/2/127 73/2/127
f 70/2/128 69/2/128 74/2/128
f 71/2/129 70/2/129 75/2/129
f 72/2/130 71/2/130 76/2/130
f 68/2/131 77/2/131 73/2/131
f 69/2/132 73/2/132 74/2/132
f 70/2/133 74/2/133 75/2/133
f 71/2/134 75/2/134 76/2/134
f 72/2/135 76/2/135 77/2/135
f 73/2/136 77/2/136 78/2/136
f 74/2/137 73/2/137 78/2/137
f 75/2/138 74/2/138 78/2/138
f 76/2/139 75/2/139 78/2/139
f 77/2/140 76/2/140 78/2/140
