# Blender 5.2.1 LTS
# www.blender.org
mtllib rockMass1.mtl
o rockMass1
v -0.023128 0.064313 0.004588
v 0.564610 0.212033 0.399129
v -0.311671 0.210009 0.825116
v -0.764116 0.213455 0.004588
v -0.257252 0.192484 -0.661187
v 0.606420 0.195338 -0.418019
v 0.243535 0.676395 0.762898
v -0.615462 0.656642 0.402213
v -0.607815 0.656002 -0.387904
v 0.252754 0.666311 -0.779938
v 0.697267 0.670008 0.004588
v -0.023128 1.000000 0.004588
v -0.160899 0.007007 0.396366
v 0.356729 0.007457 0.259581
v 0.226735 0.154775 0.715096
v 0.651685 0.145542 0.004588
v 0.412643 0.000000 -0.287939
v -0.480925 0.030979 0.004588
v -0.653510 0.129402 0.427757
v -0.183071 0.021937 -0.450238
v -0.638655 0.156774 -0.408609
v 0.185404 0.139959 -0.588394
v 0.872175 0.432628 0.273364
v 0.957121 0.432628 -0.289690
v -0.023128 0.432628 0.957121
v 0.584592 0.432628 0.777436
v -0.818233 0.432628 0.243284
v -0.575332 0.432628 0.706834
v -0.559579 0.432628 -0.677625
v -0.957121 0.432628 -0.275803
v 0.510054 0.432628 -0.673468
v -0.023128 0.432628 -0.957121
v 0.623046 0.718838 0.438359
v -0.281299 0.693560 0.738719
v -0.751718 0.728361 0.004588
v -0.270168 0.724048 -0.697891
v 0.617996 0.724081 -0.425793
v 0.148836 0.901566 0.493603
v 0.502104 0.920314 0.004588
v -0.444791 0.925493 0.287644
v -0.378492 0.894529 -0.233962
v 0.123859 0.912130 -0.413401
v -0.066556 0.075317 0.013987
v 0.238713 0.173887 0.261744
v -0.183156 0.173887 0.414869
v -0.443892 0.173887 0.013987
v -0.183156 0.173887 -0.386894
v 0.238713 0.173887 -0.233769
v 0.050044 0.333377 0.414869
v -0.371826 0.333377 0.261744
v -0.371826 0.333377 -0.233769
v 0.050044 0.333377 -0.386894
v 0.310780 0.333377 0.013987
v -0.066556 0.431947 0.013987
v 0.337205 0.285123 0.287411
v 0.612963 0.366661 0.536791
v 0.231877 0.366661 0.690920
v -0.003654 0.366661 0.287411
v 0.231877 0.366661 -0.116097
v 0.612963 0.366661 0.038032
v 0.442533 0.498594 0.690920
v 0.061446 0.498594 0.536791
v 0.061446 0.498594 0.038032
v 0.442533 0.498594 -0.116097
v 0.678063 0.498594 0.287411
v 0.337205 0.580133 0.287411
v 0.139907 0.490467 -0.320832
v 0.431339 0.557441 -0.073589
v 0.028593 0.557441 0.079219
v -0.220324 0.557441 -0.320832
v 0.028593 0.557441 -0.720883
v 0.431339 0.557441 -0.568075
v 0.251222 0.665806 0.079219
v -0.151524 0.665806 -0.073589
v -0.151524 0.665806 -0.568075
v 0.251222 0.665806 -0.720883
v 0.500139 0.665806 -0.320832
v 0.139907 0.732780 -0.320832
vn -0.0411 -0.9865 -0.1587
vn 0.5838 -0.7696 0.2586
vn 0.0721 -0.9902 -0.1195
vn 0.0725 -0.9951 0.0672
vn -0.0682 -0.9909 0.1163
vn 0.6309 -0.7301 0.2623
vn 0.1005 -0.6006 0.7932
vn -0.9048 -0.3954 0.1580
vn -0.4153 -0.5713 -0.7079
vn 0.3650 -0.6095 -0.7038
vn 0.6365 -0.6804 0.3631
vn -0.4128 -0.0050 0.9108
vn -0.8571 -0.4614 0.2293
vn -0.3888 -0.5405 -0.7462
vn 0.5702 -0.4835 -0.6642
vn 0.3591 0.7743 0.5211
vn -0.5976 0.6041 0.5272
vn -0.5564 0.7566 -0.3435
vn 0.0046 0.8313 -0.5559
vn 0.7868 0.6135 -0.0678
vn 0.1482 0.9770 -0.1533
vn 0.3305 0.8892 -0.3164
vn 0.3071 0.8368 -0.4532
vn -0.1212 0.9620 -0.2448
vn -0.1656 0.9125 -0.3740
vn -0.5187 0.7562 -0.3990
vn -0.2295 0.9694 -0.0867
vn -0.4626 0.8796 -0.1110
vn -0.7142 0.6041 0.3537
vn -0.0329 0.9775 0.2083
vn -0.1359 0.8602 0.4915
vn -0.0045 0.7664 0.6424
vn 0.1484 0.9783 0.1447
vn 0.3732 0.8768 0.3032
vn 0.7869 0.6136 0.0656
vn 0.6577 0.7528 -0.0265
vn 0.6040 0.3742 -0.7036
vn 0.6183 0.3633 -0.6969
vn -0.0496 0.6400 -0.7668
vn -0.4294 0.3691 -0.8242
vn -0.6142 0.5722 -0.5434
vn -0.5818 0.7348 -0.3488
vn -0.8888 0.3918 0.2378
vn -0.8043 0.4721 0.3608
vn -0.5960 0.6074 0.5252
vn -0.3892 0.3336 0.8586
vn -0.0150 0.6330 0.7740
vn 0.4450 0.6588 0.6066
vn 0.7860 0.4256 0.4484
vn 0.7698 0.6354 0.0602
vn 0.4666 0.1141 -0.8771
vn 0.3708 -0.6139 -0.6969
vn 0.0102 -0.7804 -0.6252
vn -0.5663 0.6044 -0.5603
vn -0.6404 -0.4343 -0.6335
vn -0.6758 -0.7296 -0.1051
vn -0.8009 0.4272 0.4197
vn -0.8688 -0.1950 0.4552
vn -0.6431 -0.4222 0.6389
vn 0.2582 0.4133 0.8732
vn 0.2452 -0.5019 0.8294
vn 0.5129 -0.7531 0.4120
vn 0.7359 0.6679 0.1110
vn 0.7353 -0.6686 0.1109
vn 0.5921 -0.7905 -0.1566
vn 0.3367 -0.7300 -0.5947
vn 0.0989 -0.8713 -0.4807
vn 0.0118 -0.7756 -0.6312
vn -0.2838 -0.7920 -0.5405
vn -0.2940 -0.9398 -0.1739
vn -0.5410 -0.8396 -0.0491
vn -0.5415 -0.8403 -0.0254
vn -0.2313 -0.9642 0.1299
vn -0.2033 -0.9107 0.3597
vn 0.6468 -0.7463 -0.1572
vn 0.4650 -0.8833 0.0595
vn -0.1470 -0.9891 -0.0015
vn -0.0057 -0.9046 0.4263
vn 0.0878 -0.9402 0.3291
vn 0.4979 -0.7735 0.3922
vn 0.0958 -0.9598 0.2639
vn 0.3073 -0.9516 -0.0000
vn -0.2494 -0.9547 0.1622
vn -0.2494 -0.9547 -0.1622
vn 0.0958 -0.9598 -0.2639
vn 0.9113 -0.4118 -0.0000
vn 0.3053 -0.4464 0.8411
vn -0.7592 -0.4240 0.4938
vn -0.7592 -0.4240 -0.4938
vn 0.3053 -0.4464 -0.8411
vn 0.7592 0.4240 0.4938
vn -0.3053 0.4464 0.8411
vn -0.9113 0.4118 -0.0000
vn -0.3053 0.4464 -0.8411
vn 0.7592 0.4240 -0.4938
vn 0.2494 0.9547 0.1622
vn -0.0958 0.9598 0.2639
vn -0.3073 0.9516 -0.0000
vn -0.0958 0.9598 -0.2639
vn 0.2494 0.9547 -0.1622
vn 0.0888 -0.9716 0.2195
vn 0.2836 -0.9590 -0.0000
vn -0.2305 -0.9637 0.1346
vn -0.2305 -0.9637 -0.1346
vn 0.0888 -0.9716 -0.2195
vn 0.8968 -0.4425 -0.0000
vn 0.3217 -0.5137 0.7954
vn -0.7641 -0.4660 0.4460
vn -0.7641 -0.4660 -0.4460
vn 0.3217 -0.5137 -0.7954
vn 0.7641 0.4660 0.4460
vn -0.3217 0.5137 0.7954
vn -0.8968 0.4425 -0.0000
vn -0.3217 0.5137 -0.7954
vn 0.7641 0.4660 -0.4460
vn 0.2305 0.9637 0.1346
vn -0.0888 0.9716 0.2195
vn -0.2836 0.9590 -0.0000
vn -0.0888 0.9716 -0.2195
vn 0.2305 0.9637 -0.1346
vn 0.0696 -0.9805 0.1835
vn 0.2240 -0.9746 -0.0000
vn -0.1816 -0.9769 0.1130
vn -0.1816 -0.9769 -0.1130
vn 0.0696 -0.9805 -0.1835
vn 0.8442 -0.5360 -0.0000
vn 0.2867 -0.5890 0.7556
vn -0.7066 -0.5545 0.4396
vn -0.7066 -0.5545 -0.4396
vn 0.2867 -0.5890 -0.7556
vn 0.7066 0.5545 0.4396
vn -0.2867 0.5890 0.7556
vn -0.8442 0.5360 -0.0000
vn -0.2867 0.5890 -0.7556
vn 0.7066 0.5545 -0.4396
vn 0.1816 0.9769 0.1130
vn -0.0696 0.9805 0.1835
vn -0.2240 0.9746 -0.0000
vn -0.0696 0.9805 -0.1835
vn 0.1816 0.9769 -0.1130
vt 0.125000 0.625000
vt 0.375000 0.875000
vt 0.625000 0.125000
s 0
usemtl WorldPickupPalette
f 1/1/1 14/1/1 13/1/1
f 2/1/2 14/1/2 16/1/2
f 1/1/3 13/1/3 18/1/3
f 1/1/4 18/1/4 20/1/4
f 1/1/5 20/1/5 17/1/5
f 2/1/6 16/1/6 23/1/6
f 3/1/7 15/1/7 25/1/7
f 4/1/8 19/1/8 27/1/8
f 5/1/9 21/1/9 29/1/9
f 6/1/10 22/1/10 31/1/10
f 2/1/11 23/1/11 26/1/11
f 3/1/12 25/1/12 28/1/12
f 4/1/13 27/1/13 30/1/13
f 5/1/14 29/1/14 32/1/14
f 6/1/15 31/1/15 24/1/15
f 7/1/16 33/1/16 38/1/16
f 8/1/17 34/1/17 40/1/17
f 9/1/18 35/1/18 41/1/18
f 10/1/19 36/1/19 42/1/19
f 11/1/20 37/1/20 39/1/20
f 39/1/21 42/1/21 12/1/21
f 39/1/22 37/1/22 42/1/22
f 37/1/23 10/1/23 42/1/23
f 42/1/24 41/1/24 12/1/24
f 42/1/25 36/1/25 41/1/25
f 36/1/26 9/1/26 41/1/26
f 41/1/27 40/1/27 12/1/27
f 41/1/28 35/1/28 40/1/28
f 35/1/29 8/1/29 40/1/29
f 40/1/30 38/1/30 12/1/30
f 40/1/31 34/1/31 38/1/31
f 34/1/32 7/1/32 38/1/32
f 38/1/33 39/1/33 12/1/33
f 38/1/34 33/1/34 39/1/34
f 33/1/35 11/1/35 39/1/35
f 24/1/36 37/1/36 11/1/36
f 24/1/37 31/1/37 37/1/37
f 31/1/38 10/1/38 37/1/38
f 32/1/39 36/1/39 10/1/39
f 32/1/40 29/1/40 36/1/40
f 29/1/41 9/1/41 36/1/41
f 30/1/42 35/1/42 9/1/42
f 30/1/43 27/1/43 35/1/43
f 27/1/44 8/1/44 35/1/44
f 28/1/45 34/1/45 8/1/45
f 28/1/46 25/1/46 34/1/46
f 25/1/47 7/1/47 34/1/47
f 26/1/48 33/1/48 7/1/48
f 26/1/49 23/1/49 33/1/49
f 23/1/50 11/1/50 33/1/50
f 31/1/51 32/1/51 10/1/51
f 31/1/52 22/1/52 32/1/52
f 22/1/53 5/1/53 32/1/53
f 29/1/54 30/1/54 9/1/54
f 29/1/55 21/1/55 30/1/55
f 21/1/56 4/1/56 30/1/56
f 27/1/57 28/1/57 8/1/57
f 27/1/58 19/1/58 28/1/58
f 19/1/59 3/1/59 28/1/59
f 25/1/60 26/1/60 7/1/60
f 25/1/61 15/1/61 26/1/61
f 15/1/62 2/1/62 26/1/62
f 23/1/63 24/1/63 11/1/63
f 23/1/64 16/1/64 24/1/64
f 16/1/65 6/1/65 24/1/65
f 17/1/66 22/1/66 6/1/66
f 17/1/67 20/1/67 22/1/67
f 20/1/68 5/1/68 22/1/68
f 20/1/69 21/1/69 5/1/69
f 20/1/70 18/1/70 21/1/70
f 18/1/71 4/1/71 21/1/71
f 18/1/72 19/1/72 4/1/72
f 18/1/73 13/1/73 19/1/73
f 13/1/74 3/1/74 19/1/74
f 16/1/75 17/1/75 6/1/75
f 16/1/76 14/1/76 17/1/76
f 14/1/77 1/1/77 17/1/77
f 13/1/78 15/1/78 3/1/78
f 13/1/79 14/1/79 15/1/79
f 14/1/80 2/1/80 15/1/80
f 43/2/81 44/2/81 45/2/81
f 44/2/82 43/2/82 48/2/82
f 43/2/83 45/2/83 46/2/83
f 43/2/84 46/2/84 47/2/84
f 43/2/85 47/2/85 48/2/85
f 44/2/86 48/2/86 53/2/86
f 45/2/87 44/2/87 49/2/87
f 46/2/88 45/2/88 50/2/88
f 47/2/89 46/2/89 51/2/89
f 48/2/90 47/2/90 52/2/90
f 44/2/91 53/2/91 49/2/91
f 45/2/92 49/2/92 50/2/92
f 46/2/93 50/2/93 51/2/93
f 47/2/94 51/2/94 52/2/94
f 48/2/95 52/2/95 53/2/95
f 49/2/96 53/2/96 54/2/96
f 50/2/97 49/2/97 54/2/97
f 51/2/98 50/2/98 54/2/98
f 52/2/99 51/2/99 54/2/99
f 53/2/100 52/2/100 54/2/100
f 55/3/101 56/3/101 57/3/101
f 56/3/102 55/3/102 60/3/102
f 55/3/103 57/3/103 58/3/103
f 55/3/104 58/3/104 59/3/104
f 55/3/105 59/3/105 60/3/105
f 56/3/106 60/3/106 65/3/106
f 57/3/107 56/3/107 61/3/107
f 58/3/108 57/3/108 62/3/108
f 59/3/109 58/3/109 63/3/109
f 60/3/110 59/3/110 64/3/110
f 56/3/111 65/3/111 61/3/111
f 57/3/112 61/3/112 62/3/112
f 58/3/113 62/3/113 63/3/113
f 59/3/114 63/3/114 64/3/114
f 60/3/115 64/3/115 65/3/115
f 61/3/116 65/3/116 66/3/116
f 62/3/117 61/3/117 66/3/117
f 63/3/118 62/3/118 66/3/118
f 64/3/119 63/3/119 66/3/119
f 65/3/120 64/3/120 66/3/120
f 67/2/121 68/2/121 69/2/121
f 68/2/122 67/2/122 72/2/122
f 67/2/123 69/2/123 70/2/123
f 67/2/124 70/2/124 71/2/124
f 67/2/125 71/2/125 72/2/125
f 68/2/126 72/2/126 77/2/126
f 69/2/127 68/2/127 73/2/127
f 70/2/128 69/2/128 74/2/128
f 71/2/129 70/2/129 75/2/129
f 72/2/130 71/2/130 76/2/130
f 68/2/131 77/2/131 73/2/131
f 69/2/132 73/2/132 74/2/132
f 70/2/133 74/2/133 75/2/133
f 71/2/134 75/2/134 76/2/134
f 72/2/135 76/2/135 77/2/135
f 73/2/136 77/2/136 78/2/136
f 74/2/137 73/2/137 78/2/137
f 75/2/138 74/2/138 78/2/138
f 76/2/139 75/2/139 78/2/139
f 77/2/140 76/2/140 78/2/140
