# Blender 5.2.1 LTS
# www.blender.org
mtllib ruinStructure.mtl
o ruinStructure
v -0.435000 -0.500000 0.435000
v -0.435000 -0.435000 0.500000
v -0.500000 -0.435000 0.435000
v -0.435000 0.435000 0.500000
v -0.435000 0.500000 0.435000
v -0.500000 0.435000 0.435000
v -0.435000 -0.500000 -0.435000
v -0.500000 -0.435000 -0.435000
v -0.435000 -0.435000 -0.500000
v -0.435000 0.500000 -0.435000
v -0.435000 0.435000 -0.500000
v -0.500000 0.435000 -0.435000
v 0.435000 -0.500000 0.435000
v 0.500000 -0.435000 0.435000
v 0.435000 -0.435000 0.500000
v 0.435000 0.500000 0.435000
v 0.435000 0.435000 0.500000
v 0.500000 0.435000 0.435000
v 0.435000 -0.500000 -0.435000
v 0.435000 -0.435000 -0.500000
v 0.500000 -0.435000 -0.435000
v 0.435000 0.500000 -0.435000
v 0.500000 0.435000 -0.435000
v 0.435000 0.435000 -0.500000
v -0.422000 -0.342500 0.482000
v -0.422000 -0.334500 0.490000
v -0.430000 -0.334500 0.482000
v -0.422000 -0.305500 0.490000
v -0.422000 -0.297500 0.482000
v -0.430000 -0.305500 0.482000
v -0.422000 -0.342500 0.458000
v -0.430000 -0.334500 0.458000
v -0.422000 -0.334500 0.450000
v -0.422000 -0.297500 0.458000
v -0.422000 -0.305500 0.450000
v -0.430000 -0.305500 0.458000
v 0.422000 -0.342500 0.482000
v 0.430000 -0.334500 0.482000
v 0.422000 -0.334500 0.490000
v 0.422000 -0.297500 0.482000
v 0.422000 -0.305500 0.490000
v 0.430000 -0.305500 0.482000
v 0.422000 -0.342500 0.458000
v 0.422000 -0.334500 0.450000
v 0.430000 -0.334500 0.458000
v 0.422000 -0.297500 0.458000
v 0.430000 -0.305500 0.458000
v 0.422000 -0.305500 0.450000
v -0.422000 -0.042500 0.482000
v -0.422000 -0.034500 0.490000
v -0.430000 -0.034500 0.482000
v -0.422000 -0.005500 0.490000
v -0.422000 0.002500 0.482000
v -0.430000 -0.005500 0.482000
v -0.422000 -0.042500 0.458000
v -0.430000 -0.034500 0.458000
v -0.422000 -0.034500 0.450000
v -0.422000 0.002500 0.458000
v -0.422000 -0.005500 0.450000
v -0.430000 -0.005500 0.458000
v 0.422000 -0.042500 0.482000
v 0.430000 -0.034500 0.482000
v 0.422000 -0.034500 0.490000
v 0.422000 0.002500 0.482000
v 0.422000 -0.005500 0.490000
v 0.430000 -0.005500 0.482000
v 0.422000 -0.042500 0.458000
v 0.422000 -0.034500 0.450000
v 0.430000 -0.034500 0.458000
v 0.422000 0.002500 0.458000
v 0.430000 -0.005500 0.458000
v 0.422000 -0.005500 0.450000
v -0.422000 0.257500 0.482000
v -0.422000 0.265500 0.490000
v -0.430000 0.265500 0.482000
v -0.422000 0.294500 0.490000
v -0.422000 0.302500 0.482000
v -0.430000 0.294500 0.482000
v -0.422000 0.257500 0.458000
v -0.430000 0.265500 0.458000
v -0.422000 0.265500 0.450000
v -0.422000 0.302500 0.458000
v -0.422000 0.294500 0.450000
v -0.430000 0.294500 0.458000
v 0.422000 0.257500 0.482000
v 0.430000 0.265500 0.482000
v 0.422000 0.265500 0.490000
v 0.422000 0.302500 0.482000
v 0.422000 0.294500 0.490000
v 0.430000 0.294500 0.482000
v 0.422000 0.257500 0.458000
v 0.422000 0.265500 0.450000
v 0.430000 0.265500 0.458000
v 0.422000 0.302500 0.458000
v 0.430000 0.294500 0.458000
v 0.422000 0.294500 0.450000
v -0.240000 0.201170 0.383040
v -0.240000 0.491170 0.403040
v -0.227979 0.200827 0.388008
v -0.227979 0.490827 0.408008
v -0.223000 0.200000 0.400000
v -0.223000 0.490000 0.420000
v -0.227979 0.199173 0.411992
v -0.227979 0.489173 0.431992
v -0.240000 0.198830 0.416960
v -0.240000 0.488830 0.436960
v -0.252021 0.199173 0.411992
v -0.252021 0.489173 0.431992
v -0.257000 0.200000 0.400000
v -0.257000 0.490000 0.420000
v -0.252021 0.200827 0.388008
v -0.252021 0.490827 0.408008
v 0.240000 0.201170 0.383040
v 0.240000 0.491170 0.403040
v 0.252021 0.200827 0.388008
v 0.252021 0.490827 0.408008
v 0.257000 0.200000 0.400000
v 0.257000 0.490000 0.420000
v 0.252021 0.199173 0.411992
v 0.252021 0.489173 0.431992
v 0.240000 0.198830 0.416960
v 0.240000 0.488830 0.436960
v 0.227979 0.199173 0.411992
v 0.227979 0.489173 0.431992
v 0.223000 0.200000 0.400000
v 0.223000 0.490000 0.420000
v 0.227979 0.200827 0.388008
v 0.227979 0.490827 0.408008
vn -0.5774 -0.5774 0.5774
vn -0.5774 0.5774 0.5774
vn -0.5774 -0.5774 -0.5774
vn -0.5774 0.5774 -0.5774
vn 0.5774 -0.5774 0.5774
vn 0.5774 0.5774 0.5774
vn 0.5774 -0.5774 -0.5774
vn 0.5774 0.5774 -0.5774
vn -0.7071 -0.7071 -0.0000
vn -0.7071 -0.0000 0.7071
vn -0.7071 0.7071 -0.0000
vn -0.7071 -0.0000 -0.7071
vn -0.0000 -0.7071 -0.7071
vn -0.0000 0.7071 -0.7071
vn 0.7071 -0.0000 -0.7071
vn 0.7071 -0.7071 -0.0000
vn 0.7071 0.7071 -0.0000
vn 0.7071 -0.0000 0.7071
vn -0.0000 -0.7071 0.7071
vn -0.0000 0.7071 0.7071
vn -0.0000 -1.0000 -0.0000
vn -1.0000 -0.0000 -0.0000
vn -0.0000 -0.0000 1.0000
vn -0.0000 1.0000 -0.0000
vn -0.0000 -0.0000 -1.0000
vn 1.0000 -0.0000 -0.0000
vn -0.5774 -0.5774 0.5773
vn -0.5774 0.5774 0.5773
vn -0.5774 -0.5774 -0.5773
vn -0.5774 0.5774 -0.5773
vn 0.5774 -0.5774 0.5773
vn 0.5774 0.5774 0.5773
vn 0.5774 -0.5774 -0.5773
vn 0.5774 0.5774 -0.5773
vn 0.3827 0.0636 -0.9217
vn 0.9239 0.0263 -0.3818
vn 0.9239 -0.0263 0.3818
vn 0.3827 -0.0636 0.9217
vn -0.3827 -0.0636 0.9217
vn -0.9239 -0.0263 0.3818
vn -0.0000 0.9976 0.0688
vn -0.9239 0.0263 -0.3818
vn -0.3827 0.0636 -0.9217
vn -0.0000 -0.9976 -0.0688
vt 0.125000 0.625000
vt 0.625000 0.125000
vt 0.875000 0.125000
s 0
usemtl WorldPickupPalette
f 1/1/1 2/1/1 3/1/1
f 4/1/2 5/1/2 6/1/2
f 7/1/3 8/1/3 9/1/3
f 10/1/4 11/1/4 12/1/4
f 13/1/5 14/1/5 15/1/5
f 16/1/6 17/1/6 18/1/6
f 19/1/7 20/1/7 21/1/7
f 22/1/8 23/1/8 24/1/8
f 1/1/9 8/1/9 7/1/9
f 4/1/10 3/1/10 2/1/10
f 10/1/11 6/1/11 5/1/11
f 9/1/12 12/1/12 11/1/12
f 7/1/13 20/1/13 19/1/13
f 22/1/14 11/1/14 10/1/14
f 21/1/15 24/1/15 23/1/15
f 19/1/16 14/1/16 13/1/16
f 16/1/17 23/1/17 22/1/17
f 15/1/18 18/1/18 17/1/18
f 13/1/19 2/1/19 1/1/19
f 5/1/20 17/1/20 16/1/20
f 19/1/21 1/1/21 7/1/21
f 6/1/22 8/1/22 3/1/22
f 17/1/23 2/1/23 15/1/23
f 10/1/24 16/1/24 22/1/24
f 11/1/25 20/1/25 9/1/25
f 23/1/26 14/1/26 21/1/26
f 25/2/27 26/2/27 27/2/27
f 28/2/28 29/2/28 30/2/28
f 31/2/29 32/2/29 33/2/29
f 34/2/30 35/2/30 36/2/30
f 37/2/31 38/2/31 39/2/31
f 40/2/32 41/2/32 42/2/32
f 43/2/33 44/2/33 45/2/33
f 46/2/34 47/2/34 48/2/34
f 25/2/9 32/2/9 31/2/9
f 28/2/10 27/2/10 26/2/10
f 34/2/11 30/2/11 29/2/11
f 33/2/12 36/2/12 35/2/12
f 31/2/13 44/2/13 43/2/13
f 46/2/14 35/2/14 34/2/14
f 45/2/15 48/2/15 47/2/15
f 43/2/16 38/2/16 37/2/16
f 40/2/17 47/2/17 46/2/17
f 39/2/18 42/2/18 41/2/18
f 37/2/19 26/2/19 25/2/19
f 29/2/20 41/2/20 40/2/20
f 43/2/21 25/2/21 31/2/21
f 30/2/22 32/2/22 27/2/22
f 41/2/23 26/2/23 39/2/23
f 34/2/24 40/2/24 46/2/24
f 35/2/25 44/2/25 33/2/25
f 47/2/26 38/2/26 45/2/26
f 49/2/27 50/2/27 51/2/27
f 52/2/28 53/2/28 54/2/28
f 55/2/29 56/2/29 57/2/29
f 58/2/30 59/2/30 60/2/30
f 61/2/31 62/2/31 63/2/31
f 64/2/32 65/2/32 66/2/32
f 67/2/33 68/2/33 69/2/33
f 70/2/34 71/2/34 72/2/34
f 49/2/9 56/2/9 55/2/9
f 52/2/10 51/2/10 50/2/10
f 58/2/11 54/2/11 53/2/11
f 57/2/12 60/2/12 59/2/12
f 55/2/13 68/2/13 67/2/13
f 70/2/14 59/2/14 58/2/14
f 69/2/15 72/2/15 71/2/15
f 67/2/16 62/2/16 61/2/16
f 64/2/17 71/2/17 70/2/17
f 63/2/18 66/2/18 65/2/18
f 61/2/19 50/2/19 49/2/19
f 53/2/20 65/2/20 64/2/20
f 67/2/21 49/2/21 55/2/21
f 54/2/22 56/2/22 51/2/22
f 65/2/23 50/2/23 63/2/23
f 58/2/24 64/2/24 70/2/24
f 59/2/25 68/2/25 57/2/25
f 71/2/26 62/2/26 69/2/26
f 73/2/27 74/2/27 75/2/27
f 76/2/28 77/2/28 78/2/28
f 79/2/29 80/2/29 81/2/29
f 82/2/30 83/2/30 84/2/30
f 85/2/31 86/2/31 87/2/31
f 88/2/32 89/2/32 90/2/32
f 91/2/33 92/2/33 93/2/33
f 94/2/34 95/2/34 96/2/34
f 73/2/9 80/2/9 79/2/9
f 76/2/10 75/2/10 74/2/10
f 82/2/11 78/2/11 77/2/11
f 81/2/12 84/2/12 83/2/12
f 79/2/13 92/2/13 91/2/13
f 94/2/14 83/2/14 82/2/14
f 93/2/15 96/2/15 95/2/15
f 91/2/16 86/2/16 85/2/16
f 88/2/17 95/2/17 94/2/17
f 87/2/18 90/2/18 89/2/18
f 85/2/19 74/2/19 73/2/19
f 77/2/20 89/2/20 88/2/20
f 91/2/21 73/2/21 79/2/21
f 78/2/22 80/2/22 75/2/22
f 89/2/23 74/2/23 87/2/23
f 82/2/24 88/2/24 94/2/24
f 83/2/25 92/2/25 81/2/25
f 95/2/26 86/2/26 93/2/26
f 98/3/35 99/3/35 97/3/35
f 100/3/36 101/3/36 99/3/36
f 102/3/37 103/3/37 101/3/37
f 104/3/38 105/3/38 103/3/38
f 106/3/39 107/3/39 105/3/39
f 107/3/40 110/3/40 109/3/40
f 102/3/41 98/3/41 110/3/41
f 110/3/42 111/3/42 109/3/42
f 112/3/43 97/3/43 111/3/43
f 111/3/44 99/3/44 103/3/44
f 114/3/35 115/3/35 113/3/35
f 116/3/36 117/3/36 115/3/36
f 118/3/37 119/3/37 117/3/37
f 120/3/38 121/3/38 119/3/38
f 122/3/39 123/3/39 121/3/39
f 123/3/40 126/3/40 125/3/40
f 120/3/41 118/3/41 126/3/41
f 126/3/42 127/3/42 125/3/42
f 128/3/43 113/3/43 127/3/43
f 119/3/44 123/3/44 127/3/44
f 1/1/9 3/1/9 8/1/9
f 4/1/10 6/1/10 3/1/10
f 10/1/11 12/1/11 6/1/11
f 9/1/12 8/1/12 12/1/12
f 7/1/13 9/1/13 20/1/13
f 22/1/14 24/1/14 11/1/14
f 21/1/15 20/1/15 24/1/15
f 19/1/16 21/1/16 14/1/16
f 16/1/17 18/1/17 23/1/17
f 15/1/18 14/1/18 18/1/18
f 13/1/19 15/1/19 2/1/19
f 5/1/20 4/1/20 17/1/20
f 19/1/21 13/1/21 1/1/21
f 6/1/22 12/1/22 8/1/22
f 17/1/23 4/1/23 2/1/23
f 10/1/24 5/1/24 16/1/24
f 11/1/25 24/1/25 20/1/25
f 23/1/26 18/1/26 14/1/26
f 25/2/9 27/2/9 32/2/9
f 28/2/10 30/2/10 27/2/10
f 34/2/11 36/2/11 30/2/11
f 33/2/12 32/2/12 36/2/12
f 31/2/13 33/2/13 44/2/13
f 46/2/14 48/2/14 35/2/14
f 45/2/15 44/2/15 48/2/15
f 43/2/16 45/2/16 38/2/16
f 40/2/17 42/2/17 47/2/17
f 39/2/18 38/2/18 42/2/18
f 37/2/19 39/2/19 26/2/19
f 29/2/20 28/2/20 41/2/20
f 43/2/21 37/2/21 25/2/21
f 30/2/22 36/2/22 32/2/22
f 41/2/23 28/2/23 26/2/23
f 34/2/24 29/2/24 40/2/24
f 35/2/25 48/2/25 44/2/25
f 47/2/26 42/2/26 38/2/26
f 49/2/9 51/2/9 56/2/9
f 52/2/10 54/2/10 51/2/10
f 58/2/11 60/2/11 54/2/11
f 57/2/12 56/2/12 60/2/12
f 55/2/13 57/2/13 68/2/13
f 70/2/14 72/2/14 59/2/14
f 69/2/15 68/2/15 72/2/15
f 67/2/16 69/2/16 62/2/16
f 64/2/17 66/2/17 71/2/17
f 63/2/18 62/2/18 66/2/18
f 61/2/19 63/2/19 50/2/19
f 53/2/20 52/2/20 65/2/20
f 67/2/21 61/2/21 49/2/21
f 54/2/22 60/2/22 56/2/22
f 65/2/23 52/2/23 50/2/23
f 58/2/24 53/2/24 64/2/24
f 59/2/25 72/2/25 68/2/25
f 71/2/26 66/2/26 62/2/26
f 73/2/9 75/2/9 80/2/9
f 76/2/10 78/2/10 75/2/10
f 82/2/11 84/2/11 78/2/11
f 81/2/12 80/2/12 84/2/12
f 79/2/13 81/2/13 92/2/13
f 94/2/14 96/2/14 83/2/14
f 93/2/15 92/2/15 96/2/15
f 91/2/16 93/2/16 86/2/16
f 88/2/17 90/2/17 95/2/17
f 87/2/18 86/2/18 90/2/18
f 85/2/19 87/2/19 74/2/19
f 77/2/20 76/2/20 89/2/20
f 91/2/21 85/2/21 73/2/21
f 78/2/22 84/2/22 80/2/22
f 89/2/23 76/2/23 74/2/23
f 82/2/24 77/2/24 88/2/24
f 83/2/25 96/2/25 92/2/25
f 95/2/26 90/2/26 86/2/26
f 98/3/35 100/3/35 99/3/35
f 100/3/36 102/3/36 101/3/36
f 102/3/37 104/3/37 103/3/37
f 104/3/38 106/3/38 105/3/38
f 106/3/39 108/3/39 107/3/39
f 107/3/40 108/3/40 110/3/40
f 102/3/41 100/3/41 98/3/41
f 98/3/41 112/3/41 110/3/41
f 110/3/41 108/3/41 106/3/41
f 106/3/41 104/3/41 110/3/41
f 104/3/41 102/3/41 110/3/41
f 110/3/42 112/3/42 111/3/42
f 112/3/43 98/3/43 97/3/43
f 111/3/44 97/3/44 99/3/44
f 99/3/44 101/3/44 103/3/44
f 103/3/44 105/3/44 111/3/44
f 105/3/44 107/3/44 111/3/44
f 107/3/44 109/3/44 111/3/44
f 114/3/35 116/3/35 115/3/35
f 116/3/36 118/3/36 117/3/36
f 118/3/37 120/3/37 119/3/37
f 120/3/38 122/3/38 121/3/38
f 122/3/39 124/3/39 123/3/39
f 123/3/40 124/3/40 126/3/40
f 118/3/41 116/3/41 114/3/41
f 114/3/41 128/3/41 118/3/41
f 128/3/41 126/3/41 118/3/41
f 126/3/41 124/3/41 122/3/41
f 122/3/41 120/3/41 126/3/41
f 126/3/42 128/3/42 127/3/42
f 128/3/43 114/3/43 113/3/43
f 127/3/44 113/3/44 115/3/44
f 115/3/44 117/3/44 119/3/44
f 119/3/44 121/3/44 123/3/44
f 123/3/44 125/3/44 127/3/44
f 127/3/44 115/3/44 119/3/44
