# Blender 5.2.1 LTS
# www.blender.org
mtllib satellite_dish.mtl
o satellite_dish
v 0.000000 0.000000 -0.170000
v 0.000000 3.000000 -0.170000
v 0.085000 0.000000 -0.147224
v 0.085000 3.000000 -0.147224
v 0.147224 0.000000 -0.085000
v 0.147224 3.000000 -0.085000
v 0.170000 0.000000 0.000000
v 0.170000 3.000000 0.000000
v 0.147224 0.000000 0.085000
v 0.147224 3.000000 0.085000
v 0.085000 0.000000 0.147224
v 0.085000 3.000000 0.147224
v 0.000000 0.000000 0.170000
v 0.000000 3.000000 0.170000
v -0.085000 0.000000 0.147224
v -0.085000 3.000000 0.147224
v -0.147224 0.000000 0.085000
v -0.147224 3.000000 0.085000
v -0.170000 0.000000 0.000000
v -0.170000 3.000000 0.000000
v -0.147224 0.000000 -0.085000
v -0.147224 3.000000 -0.085000
v -0.085000 0.000000 -0.147224
v -0.085000 3.000000 -0.147224
v -0.475000 0.005000 0.475000
v -0.475000 0.030000 0.500000
v -0.500000 0.030000 0.475000
v -0.475000 0.330000 0.500000
v -0.475000 0.355000 0.475000
v -0.500000 0.330000 0.475000
v -0.475000 0.005000 -0.475000
v -0.500000 0.030000 -0.475000
v -0.475000 0.030000 -0.500000
v -0.475000 0.355000 -0.475000
v -0.475000 0.330000 -0.500000
v -0.500000 0.330000 -0.475000
v 0.475000 0.005000 0.475000
v 0.500000 0.030000 0.475000
v 0.475000 0.030000 0.500000
v 0.475000 0.355000 0.475000
v 0.475000 0.330000 0.500000
v 0.500000 0.330000 0.475000
v 0.475000 0.005000 -0.475000
v 0.475000 0.030000 -0.500000
v 0.500000 0.030000 -0.475000
v 0.475000 0.355000 -0.475000
v 0.500000 0.330000 -0.475000
v 0.475000 0.330000 -0.500000
v 0.050000 3.400000 0.000425
v 0.048296 3.412941 0.000425
v 0.043301 3.425000 0.000425
v 0.035355 3.435355 0.000425
v 0.025000 3.443301 0.000425
v 0.012941 3.448296 0.000425
v 0.000000 3.450000 0.000425
v -0.012941 3.448296 0.000425
v -0.025000 3.443301 0.000425
v -0.035355 3.435355 0.000425
v -0.043301 3.425000 0.000425
v -0.048296 3.412941 0.000425
v -0.050000 3.400000 0.000425
v -0.048296 3.387059 0.000425
v -0.043301 3.375000 0.000425
v -0.035355 3.364645 0.000425
v -0.025000 3.356699 0.000425
v -0.012941 3.351704 0.000425
v -0.000000 3.350000 0.000425
v 0.012941 3.351704 0.000425
v 0.025000 3.356699 0.000425
v 0.035355 3.364645 0.000425
v 0.043301 3.375000 0.000425
v 0.048296 3.387059 0.000425
v 0.450000 3.400000 0.034425
v 0.434667 3.516469 0.034425
v 0.389711 3.625000 0.034425
v 0.318198 3.718198 0.034425
v 0.225000 3.789711 0.034425
v 0.116469 3.834667 0.034425
v 0.000000 3.850000 0.034425
v -0.116469 3.834667 0.034425
v -0.225000 3.789711 0.034425
v -0.318198 3.718198 0.034425
v -0.389711 3.625000 0.034425
v -0.434667 3.516469 0.034425
v -0.450000 3.400000 0.034425
v -0.434667 3.283531 0.034425
v -0.389711 3.175000 0.034425
v -0.318198 3.081802 0.034425
v -0.225000 3.010288 0.034425
v -0.116469 2.965333 0.034425
v -0.000000 2.950000 0.034425
v 0.116469 2.965333 0.034425
v 0.225000 3.010288 0.034425
v 0.318198 3.081802 0.034425
v 0.389711 3.175000 0.034425
v 0.434667 3.283531 0.034425
v 0.850000 3.400000 0.122825
v 0.821037 3.619996 0.122825
v 0.736122 3.825000 0.122825
v 0.601041 4.001041 0.122825
v 0.425000 4.136122 0.122825
v 0.219996 4.221037 0.122825
v 0.000000 4.250000 0.122825
v -0.219996 4.221037 0.122825
v -0.425000 4.136122 0.122825
v -0.601041 4.001041 0.122825
v -0.736122 3.825000 0.122825
v -0.821037 3.619996 0.122825
v -0.850000 3.400000 0.122825
v -0.821037 3.180004 0.122825
v -0.736122 2.975000 0.122825
v -0.601041 2.798959 0.122825
v -0.425000 2.663878 0.122825
v -0.219996 2.578963 0.122825
v -0.000000 2.550000 0.122825
v 0.219996 2.578963 0.122825
v 0.425000 2.663878 0.122825
v 0.601041 2.798959 0.122825
v 0.736122 2.975000 0.122825
v 0.821037 3.180004 0.122825
v 1.250000 3.400000 0.265625
v 1.207407 3.723524 0.265625
v 1.082532 4.025000 0.265625
v 0.883883 4.283884 0.265625
v 0.625000 4.482532 0.265625
v 0.323524 4.607407 0.265625
v 0.000000 4.650000 0.265625
v -0.323524 4.607407 0.265625
v -0.625000 4.482532 0.265625
v -0.883883 4.283884 0.265625
v -1.082532 4.025000 0.265625
v -1.207407 3.723524 0.265625
v -1.250000 3.400000 0.265625
v -1.207407 3.076476 0.265625
v -1.082532 2.775000 0.265625
v -0.883883 2.516117 0.265625
v -0.625000 2.317468 0.265625
v -0.323524 2.192593 0.265625
v -0.000000 2.150000 0.265625
v 0.323524 2.192593 0.265625
v 0.625000 2.317468 0.265625
v 0.883883 2.516117 0.265625
v 1.082532 2.775000 0.265625
v 1.207407 3.076476 0.265625
v 1.650000 3.400000 0.462825
v 1.593778 3.827051 0.462825
v 1.428942 4.225000 0.462825
v 1.166726 4.566726 0.462825
v 0.825000 4.828942 0.462825
v 0.427051 4.993778 0.462825
v 0.000000 5.050000 0.462825
v -0.427051 4.993778 0.462825
v -0.825000 4.828942 0.462825
v -1.166726 4.566726 0.462825
v -1.428942 4.225000 0.462825
v -1.593778 3.827051 0.462825
v -1.650000 3.400000 0.462825
v -1.593778 2.972949 0.462825
v -1.428942 2.575000 0.462825
v -1.166726 2.233274 0.462825
v -0.825000 1.971058 0.462825
v -0.427051 1.806222 0.462825
v -0.000000 1.750000 0.462825
v 0.427051 1.806222 0.462825
v 0.825000 1.971058 0.462825
v 1.166726 2.233274 0.462825
v 1.428942 2.575000 0.462825
v 1.593778 2.972949 0.462825
v 1.650000 3.400000 0.420000
v 1.428942 4.225000 0.420000
v 1.677320 3.407320 0.431716
v 1.456262 4.232320 0.431716
v 1.688637 3.410353 0.460000
v 1.467579 4.235353 0.460000
v 1.677320 3.407320 0.488284
v 1.456262 4.232320 0.488284
v 1.650000 3.400000 0.500000
v 1.428942 4.225000 0.500000
v 1.622679 3.392680 0.488284
v 1.401621 4.217680 0.488284
v 1.611363 3.389647 0.460000
v 1.390305 4.214647 0.460000
v 1.622679 3.392680 0.431716
v 1.401621 4.217680 0.431716
v 1.428942 4.225000 0.420000
v 0.825000 4.828942 0.420000
v 1.448942 4.245000 0.431716
v 0.845000 4.848942 0.431716
v 1.457226 4.253284 0.460000
v 0.853284 4.857226 0.460000
v 1.448942 4.245000 0.488284
v 0.845000 4.848942 0.488284
v 1.428942 4.225000 0.500000
v 0.825000 4.828942 0.500000
v 1.408942 4.205000 0.488284
v 0.805000 4.808942 0.488284
v 1.400658 4.196715 0.460000
v 0.796716 4.800657 0.460000
v 1.408942 4.205000 0.431716
v 0.805000 4.808942 0.431716
v 0.825000 4.828942 0.420000
v 0.000000 5.050000 0.420000
v 0.832321 4.856263 0.431716
v 0.007321 5.077321 0.431716
v 0.835353 4.867579 0.460000
v 0.010353 5.088637 0.460000
v 0.832321 4.856263 0.488284
v 0.007321 5.077321 0.488284
v 0.825000 4.828942 0.500000
v 0.000000 5.050000 0.500000
v 0.817679 4.801621 0.488284
v -0.007321 5.022680 0.488284
v 0.814647 4.790305 0.460000
v -0.010353 5.011364 0.460000
v 0.817679 4.801621 0.431716
v -0.007321 5.022680 0.431716
v 0.000000 5.050000 0.420000
v -0.825000 4.828942 0.420000
v -0.007321 5.077321 0.431716
v -0.832321 4.856263 0.431716
v -0.010353 5.088637 0.460000
v -0.835353 4.867579 0.460000
v -0.007321 5.077321 0.488284
v -0.832321 4.856263 0.488284
v 0.000000 5.050000 0.500000
v -0.825000 4.828942 0.500000
v 0.007321 5.022680 0.488284
v -0.817679 4.801621 0.488284
v 0.010353 5.011364 0.460000
v -0.814647 4.790305 0.460000
v 0.007321 5.022680 0.431716
v -0.817679 4.801621 0.431716
v -0.825000 4.828942 0.420000
v -1.428942 4.225000 0.420000
v -0.845000 4.848942 0.431716
v -1.448942 4.245000 0.431716
v -0.853284 4.857226 0.460000
v -1.457226 4.253284 0.460000
v -0.845000 4.848942 0.488284
v -1.448942 4.245000 0.488284
v -0.825000 4.828942 0.500000
v -1.428942 4.225000 0.500000
v -0.805000 4.808942 0.488284
v -1.408942 4.205000 0.488284
v -0.796716 4.800657 0.460000
v -1.400658 4.196715 0.460000
v -0.805000 4.808942 0.431716
v -1.408942 4.205000 0.431716
v -1.428942 4.225000 0.420000
v -1.650000 3.400000 0.420000
v -1.456262 4.232320 0.431716
v -1.677320 3.407320 0.431716
v -1.467579 4.235353 0.460000
v -1.688637 3.410353 0.460000
v -1.456262 4.232320 0.488284
v -1.677320 3.407320 0.488284
v -1.428942 4.225000 0.500000
v -1.650000 3.400000 0.500000
v -1.401621 4.217680 0.488284
v -1.622679 3.392680 0.488284
v -1.390305 4.214647 0.460000
v -1.611363 3.389647 0.460000
v -1.401621 4.217680 0.431716
v -1.622679 3.392680 0.431716
v -1.650000 3.400000 0.420000
v -1.428942 2.575000 0.420000
v -1.677320 3.392680 0.431716
v -1.456262 2.567680 0.431716
v -1.688637 3.389647 0.460000
v -1.467579 2.564647 0.460000
v -1.677320 3.392680 0.488284
v -1.456262 2.567680 0.488284
v -1.650000 3.400000 0.500000
v -1.428942 2.575000 0.500000
v -1.622679 3.407321 0.488284
v -1.401621 2.582321 0.488284
v -1.611363 3.410353 0.460000
v -1.390305 2.585353 0.460000
v -1.622679 3.407321 0.431716
v -1.401621 2.582321 0.431716
v -1.428942 2.575000 0.420000
v -0.825000 1.971058 0.420000
v -1.448942 2.555000 0.431716
v -0.845000 1.951058 0.431716
v -1.457226 2.546716 0.460000
v -0.853284 1.942774 0.460000
v -1.448942 2.555000 0.488284
v -0.845000 1.951058 0.488284
v -1.428942 2.575000 0.500000
v -0.825000 1.971058 0.500000
v -1.408942 2.595000 0.488284
v -0.805000 1.991058 0.488284
v -1.400658 2.603284 0.460000
v -0.796716 1.999342 0.460000
v -1.408942 2.595000 0.431716
v -0.805000 1.991058 0.431716
v -0.825000 1.971058 0.420000
v -0.000000 1.750000 0.420000
v -0.832320 1.943738 0.431716
v -0.007321 1.722679 0.431716
v -0.835353 1.932421 0.460000
v -0.010353 1.711363 0.460000
v -0.832320 1.943738 0.488284
v -0.007321 1.722679 0.488284
v -0.825000 1.971058 0.500000
v -0.000000 1.750000 0.500000
v -0.817679 1.998379 0.488284
v 0.007320 1.777321 0.488284
v -0.814647 2.009695 0.460000
v 0.010353 1.788637 0.460000
v -0.817679 1.998379 0.431716
v 0.007320 1.777321 0.431716
v 0.000000 1.750000 0.420000
v 0.825000 1.971058 0.420000
v 0.007320 1.722679 0.431716
v 0.832320 1.943738 0.431716
v 0.010353 1.711363 0.460000
v 0.835353 1.932421 0.460000
v 0.007320 1.722679 0.488284
v 0.832320 1.943738 0.488284
v 0.000000 1.750000 0.500000
v 0.825000 1.971058 0.500000
v -0.007320 1.777321 0.488284
v 0.817680 1.998379 0.488284
v -0.010353 1.788637 0.460000
v 0.814647 2.009695 0.460000
v -0.007320 1.777321 0.431716
v 0.817680 1.998379 0.431716
v 0.825000 1.971058 0.420000
v 1.428942 2.575000 0.420000
v 0.845000 1.951058 0.431716
v 1.448942 2.555000 0.431716
v 0.853284 1.942774 0.460000
v 1.457226 2.546716 0.460000
v 0.845000 1.951058 0.488284
v 1.448942 2.555000 0.488284
v 0.825000 1.971058 0.500000
v 1.428942 2.575000 0.500000
v 0.805000 1.991058 0.488284
v 1.408942 2.595000 0.488284
v 0.796716 1.999342 0.460000
v 1.400658 2.603284 0.460000
v 0.805000 1.991058 0.431716
v 1.408942 2.595000 0.431716
v 1.428942 2.575000 0.420000
v 1.650000 3.400000 0.420000
v 1.456262 2.567680 0.431716
v 1.677320 3.392680 0.431716
v 1.467579 2.564647 0.460000
v 1.688637 3.389647 0.460000
v 1.456262 2.567680 0.488284
v 1.677320 3.392680 0.488284
v 1.428942 2.575000 0.500000
v 1.650000 3.400000 0.500000
v 1.401621 2.582321 0.488284
v 1.622679 3.407321 0.488284
v 1.390305 2.585353 0.460000
v 1.611363 3.410353 0.460000
v 1.401621 2.582321 0.431716
v 1.622679 3.407321 0.431716
v 1.591678 3.408906 0.418173
v -0.008322 3.408906 1.028173
v 1.596359 3.422816 0.430450
v -0.003641 3.422815 1.040450
v 1.603173 3.423360 0.448322
v 0.003173 3.423360 1.058322
v 1.608128 3.410221 0.461319
v 0.008128 3.410221 1.071319
v 1.608322 3.391094 0.461827
v 0.008322 3.391094 1.071827
v 1.603641 3.377185 0.449550
v 0.003641 3.377185 1.059550
v 1.596828 3.376640 0.431678
v -0.003173 3.376640 1.041678
v 1.591872 3.389780 0.418681
v -0.008128 3.389780 1.028681
v -0.778192 4.794547 0.431629
v 0.021808 3.408905 1.041629
v -0.787126 4.783679 0.418660
v 0.012874 3.398038 1.028660
v -0.803601 4.773961 0.418192
v -0.003601 3.388319 1.028191
v -0.817967 4.771085 0.430498
v -0.017967 3.385443 1.040498
v -0.821808 4.776735 0.448371
v -0.021809 3.391093 1.058371
v -0.812874 4.787602 0.461340
v -0.012874 3.401961 1.071340
v -0.796399 4.797321 0.461809
v 0.003601 3.411679 1.071808
v -0.782033 4.800198 0.449502
v 0.017967 3.414556 1.059502
v -0.797700 2.023265 0.416754
v 0.002300 3.408906 1.026754
v -0.782829 2.012398 0.421936
v 0.017171 3.398038 1.031936
v -0.778016 2.002679 0.437700
v 0.021984 3.388320 1.047700
v -0.786081 1.999803 0.454811
v 0.013919 3.385444 1.064811
v -0.802300 2.005453 0.463246
v -0.002300 3.391094 1.073246
v -0.817171 2.016321 0.458064
v -0.017171 3.401962 1.068064
v -0.821984 2.026039 0.442300
v -0.021984 3.411680 1.052300
v -0.813919 2.028915 0.425189
v -0.013919 3.414557 1.035189
v 0.000000 3.530000 0.980000
v 0.000000 3.530000 1.180000
v 0.065000 3.512583 0.980000
v 0.065000 3.512583 1.180000
v 0.112583 3.465000 0.980000
v 0.112583 3.465000 1.180000
v 0.130000 3.400000 0.980000
v 0.130000 3.400000 1.180000
v 0.112583 3.335000 0.980000
v 0.112583 3.335000 1.180000
v 0.065000 3.287417 0.980000
v 0.065000 3.287417 1.180000
v 0.000000 3.270000 0.980000
v 0.000000 3.270000 1.180000
v -0.065000 3.287417 0.980000
v -0.065000 3.287417 1.180000
v -0.112583 3.335000 0.980000
v -0.112583 3.335000 1.180000
v -0.130000 3.400000 0.980000
v -0.130000 3.400000 1.180000
v -0.112583 3.465000 0.980000
v -0.112583 3.465000 1.180000
v -0.065000 3.512583 0.980000
v -0.065000 3.512583 1.180000
vn 0.2588 -0.0000 -0.9659
vn 0.7071 -0.0000 -0.7071
vn 0.9659 -0.0000 -0.2588
vn 0.9659 -0.0000 0.2588
vn 0.7071 -0.0000 0.7071
vn 0.2588 -0.0000 0.9659
vn -0.2588 -0.0000 0.9659
vn -0.7071 -0.0000 0.7071
vn -0.9659 -0.0000 0.2588
vn -0.9659 -0.0000 -0.2588
vn -0.0000 1.0000 -0.0000
vn -0.7071 -0.0000 -0.7071
vn -0.2588 -0.0000 -0.9659
vn -0.0000 -1.0000 -0.0000
vn -0.5773 -0.5774 0.5773
vn -0.5773 0.5774 0.5773
vn -0.5773 -0.5774 -0.5773
vn -0.5773 0.5774 -0.5773
vn 0.5773 -0.5774 0.5773
vn 0.5773 0.5774 0.5773
vn 0.5773 -0.5774 -0.5773
vn 0.5773 0.5774 -0.5773
vn -0.7071 -0.7071 -0.0000
vn -0.7071 0.7071 -0.0000
vn -0.0000 -0.7071 -0.7071
vn -0.0000 0.7071 -0.7071
vn 0.7071 -0.7071 -0.0000
vn 0.7071 0.7071 -0.0000
vn -0.0000 -0.7071 0.7071
vn -0.0000 0.7071 0.7071
vn -1.0000 -0.0000 -0.0000
vn -0.0000 -0.0000 1.0000
vn -0.0000 -0.0000 -1.0000
vn 1.0000 -0.0000 -0.0000
vn 0.0847 0.0111 -0.9963
vn 0.0789 0.0327 -0.9963
vn 0.0678 0.0520 -0.9963
vn 0.0520 0.0678 -0.9963
vn 0.0327 0.0789 -0.9963
vn 0.0111 0.0847 -0.9963
vn -0.0112 0.0847 -0.9963
vn -0.0327 0.0789 -0.9963
vn -0.0520 0.0678 -0.9963
vn -0.0678 0.0520 -0.9963
vn -0.0789 0.0327 -0.9963
vn -0.0847 0.0111 -0.9963
vn -0.0847 -0.0111 -0.9963
vn -0.0789 -0.0327 -0.9963
vn -0.0678 -0.0520 -0.9963
vn -0.0520 -0.0678 -0.9963
vn -0.0327 -0.0789 -0.9963
vn -0.0111 -0.0847 -0.9963
vn 0.0111 -0.0847 -0.9963
vn 0.0327 -0.0789 -0.9963
vn 0.0520 -0.0678 -0.9963
vn 0.0678 -0.0520 -0.9963
vn 0.0789 -0.0327 -0.9963
vn 0.0847 -0.0111 -0.9963
vn 0.2157 0.0284 -0.9760
vn 0.2010 0.0833 -0.9760
vn 0.1726 0.1324 -0.9760
vn 0.1324 0.1726 -0.9760
vn 0.0833 0.2010 -0.9760
vn 0.0284 0.2157 -0.9760
vn -0.0284 0.2157 -0.9760
vn -0.0833 0.2010 -0.9760
vn -0.1324 0.1726 -0.9760
vn -0.1726 0.1324 -0.9760
vn -0.2010 0.0833 -0.9760
vn -0.2157 0.0284 -0.9760
vn -0.2157 -0.0284 -0.9760
vn -0.2010 -0.0833 -0.9760
vn -0.1726 -0.1324 -0.9760
vn -0.1324 -0.1726 -0.9760
vn -0.0833 -0.2010 -0.9760
vn -0.0284 -0.2157 -0.9760
vn 0.0284 -0.2157 -0.9760
vn 0.0833 -0.2010 -0.9760
vn 0.1324 -0.1726 -0.9760
vn 0.1726 -0.1324 -0.9760
vn 0.2010 -0.0833 -0.9760
vn 0.2157 -0.0284 -0.9760
vn 0.3359 0.0442 -0.9409
vn 0.3130 0.1296 -0.9409
vn 0.2688 0.2062 -0.9409
vn 0.2062 0.2688 -0.9409
vn 0.1296 0.3130 -0.9409
vn 0.0442 0.3359 -0.9409
vn -0.0442 0.3359 -0.9409
vn -0.1296 0.3130 -0.9409
vn -0.2062 0.2688 -0.9409
vn -0.2688 0.2062 -0.9409
vn -0.3130 0.1296 -0.9409
vn -0.3359 0.0442 -0.9409
vn -0.3359 -0.0442 -0.9409
vn -0.3130 -0.1296 -0.9409
vn -0.2688 -0.2062 -0.9409
vn -0.2062 -0.2688 -0.9409
vn -0.1296 -0.3130 -0.9409
vn -0.0442 -0.3359 -0.9409
vn 0.0442 -0.3359 -0.9409
vn 0.1296 -0.3130 -0.9409
vn 0.2062 -0.2688 -0.9409
vn 0.2688 -0.2062 -0.9409
vn 0.3130 -0.1296 -0.9409
vn 0.3359 -0.0442 -0.9409
vn 0.4414 0.0581 -0.8954
vn 0.4114 0.1704 -0.8954
vn 0.3532 0.2710 -0.8954
vn 0.2710 0.3532 -0.8954
vn 0.1704 0.4114 -0.8954
vn 0.0581 0.4414 -0.8954
vn -0.0581 0.4414 -0.8954
vn -0.1704 0.4114 -0.8954
vn -0.2710 0.3532 -0.8954
vn -0.3532 0.2710 -0.8954
vn -0.4114 0.1704 -0.8954
vn -0.4414 0.0581 -0.8954
vn -0.4414 -0.0581 -0.8954
vn -0.4114 -0.1704 -0.8954
vn -0.3532 -0.2710 -0.8954
vn -0.2710 -0.3532 -0.8954
vn -0.1704 -0.4114 -0.8954
vn -0.0581 -0.4414 -0.8954
vn 0.0581 -0.4414 -0.8954
vn 0.1704 -0.4114 -0.8954
vn 0.2710 -0.3532 -0.8954
vn 0.3532 -0.2710 -0.8954
vn 0.4114 -0.1704 -0.8954
vn 0.4414 -0.0581 -0.8954
vn 0.3696 0.0990 -0.9239
vn 0.8924 0.2391 -0.3827
vn 0.8924 0.2391 0.3827
vn 0.3696 0.0990 0.9239
vn -0.3696 -0.0990 0.9239
vn -0.8924 -0.2391 0.3827
vn -0.2588 0.9659 -0.0000
vn -0.8924 -0.2391 -0.3827
vn -0.3696 -0.0990 -0.9239
vn 0.2588 -0.9659 -0.0000
vn 0.2706 0.2706 -0.9239
vn 0.6533 0.6533 -0.3827
vn 0.6533 0.6533 0.3827
vn 0.2706 0.2706 0.9239
vn -0.2706 -0.2706 0.9239
vn -0.6533 -0.6533 0.3827
vn -0.6533 -0.6533 -0.3827
vn -0.2706 -0.2706 -0.9239
vn 0.0990 0.3696 -0.9239
vn 0.2391 0.8924 -0.3827
vn 0.2391 0.8924 0.3827
vn 0.0990 0.3696 0.9239
vn -0.0990 -0.3696 0.9239
vn -0.2391 -0.8924 0.3827
vn -0.9659 0.2588 -0.0000
vn -0.2391 -0.8924 -0.3827
vn -0.0990 -0.3696 -0.9239
vn 0.9659 -0.2588 -0.0000
vn -0.0990 0.3696 -0.9239
vn -0.2391 0.8924 -0.3827
vn -0.2391 0.8924 0.3827
vn -0.0990 0.3696 0.9239
vn 0.0990 -0.3696 0.9239
vn 0.2391 -0.8924 0.3827
vn -0.9659 -0.2588 -0.0000
vn 0.2391 -0.8924 -0.3827
vn 0.0990 -0.3696 -0.9239
vn 0.9659 0.2588 -0.0000
vn -0.2706 0.2706 -0.9239
vn -0.6533 0.6533 -0.3827
vn -0.6533 0.6533 0.3827
vn -0.2706 0.2706 0.9239
vn 0.2706 -0.2706 0.9239
vn 0.6533 -0.6533 0.3827
vn 0.6533 -0.6533 -0.3827
vn 0.2706 -0.2706 -0.9239
vn -0.3696 0.0990 -0.9239
vn -0.8924 0.2391 -0.3827
vn -0.8924 0.2391 0.3827
vn -0.3696 0.0990 0.9239
vn 0.3696 -0.0990 0.9239
vn 0.8924 -0.2391 0.3827
vn -0.2588 -0.9659 -0.0000
vn 0.8924 -0.2391 -0.3827
vn 0.3696 -0.0990 -0.9239
vn 0.2588 0.9659 -0.0000
vn -0.2589 0.6867 -0.6793
vn -0.0101 0.9996 -0.0266
vn 0.2446 0.7269 0.6416
vn 0.3561 0.0285 0.9340
vn 0.2589 -0.6867 0.6793
vn 0.0101 -0.9996 0.0266
vn -0.9344 -0.0000 0.3562
vn -0.2446 -0.7269 -0.6416
vn -0.3561 -0.0285 -0.9340
vn 0.9344 -0.0000 -0.3562
vn 0.7508 0.1503 -0.6432
vn 0.2007 -0.2953 -0.9341
vn -0.4669 -0.5680 -0.6778
vn -0.8611 -0.5079 -0.0245
vn -0.7508 -0.1503 0.6432
vn -0.2007 0.2953 0.9341
vn 0.4672 -0.8092 0.3562
vn 0.4669 0.5680 0.6778
vn 0.8611 0.5079 0.0245
vn -0.4672 0.8092 -0.3562
vn 0.4215 0.1503 -0.8943
vn 0.8476 -0.2953 -0.4408
vn 0.7772 -0.5680 0.2709
vn 0.2515 -0.5079 0.8239
vn -0.4215 -0.1503 0.8943
vn -0.8476 0.2953 0.4408
vn 0.4672 0.8092 0.3562
vn -0.7772 0.5680 -0.2709
vn -0.2515 0.5079 -0.8239
vn -0.4672 -0.8092 -0.3562
vn 0.0112 0.0847 -0.9963
vn -0.0111 0.0847 -0.9963
vn -0.2590 0.6867 -0.6792
vn 0.2590 -0.6867 0.6793
vn 0.9344 -0.0000 -0.3563
vn -0.7772 0.5680 -0.2708
vn -0.4672 -0.8092 -0.3563
vt 0.625000 0.125000
vt 0.125000 0.625000
vt 0.000000 0.000000
vt 0.375000 0.875000
s 0
usemtl WorldPickupPalette
f 2/1/1 3/1/1 1/1/1
f 4/1/2 5/1/2 3/1/2
f 6/1/3 7/1/3 5/1/3
f 8/1/4 9/1/4 7/1/4
f 10/1/5 11/1/5 9/1/5
f 12/1/6 13/1/6 11/1/6
f 14/1/7 15/1/7 13/1/7
f 16/1/8 17/1/8 15/1/8
f 18/1/9 19/1/9 17/1/9
f 20/1/10 21/1/10 19/1/10
f 2/1/11 22/1/11 14/1/11
f 22/1/12 23/1/12 21/1/12
f 24/1/13 1/1/13 23/1/13
f 15/1/14 19/1/14 23/1/14
f 25/2/15 26/2/15 27/2/15
f 28/2/16 29/2/16 30/2/16
f 31/2/17 32/2/17 33/2/17
f 34/2/18 35/2/18 36/2/18
f 37/2/19 38/2/19 39/2/19
f 40/2/20 41/2/20 42/2/20
f 43/2/21 44/2/21 45/2/21
f 46/2/22 47/2/22 48/2/22
f 25/2/23 32/2/23 31/2/23
f 28/2/8 27/2/8 26/2/8
f 34/2/24 30/2/24 29/2/24
f 33/2/12 36/2/12 35/2/12
f 31/2/25 44/2/25 43/2/25
f 46/2/26 35/2/26 34/2/26
f 45/2/2 48/2/2 47/2/2
f 43/2/27 38/2/27 37/2/27
f 40/2/28 47/2/28 46/2/28
f 39/2/5 42/2/5 41/2/5
f 37/2/29 26/2/29 25/2/29
f 29/2/30 41/2/30 40/2/30
f 43/2/14 25/2/14 31/2/14
f 30/2/31 32/2/31 27/2/31
f 41/2/32 26/2/32 39/2/32
f 34/2/11 40/2/11 46/2/11
f 35/2/33 44/2/33 33/2/33
f 47/2/34 38/2/34 45/2/34
f 50/3/35 73/3/35 49/3/35
f 51/3/36 74/3/36 50/3/36
f 52/3/37 75/3/37 51/3/37
f 52/3/38 77/3/38 76/3/38
f 54/3/39 77/3/39 53/3/39
f 54/3/40 79/3/40 78/3/40
f 56/3/41 79/3/41 55/3/41
f 56/3/42 81/3/42 80/3/42
f 58/3/43 81/3/43 57/3/43
f 58/3/44 83/3/44 82/3/44
f 60/3/45 83/3/45 59/3/45
f 61/3/46 84/3/46 60/3/46
f 62/3/47 85/3/47 61/3/47
f 63/3/48 86/3/48 62/3/48
f 63/3/49 88/3/49 87/3/49
f 65/3/50 88/3/50 64/3/50
f 65/3/51 90/3/51 89/3/51
f 67/3/52 90/3/52 66/3/52
f 67/3/53 92/3/53 91/3/53
f 69/3/54 92/3/54 68/3/54
f 69/3/55 94/3/55 93/3/55
f 71/3/56 94/3/56 70/3/56
f 72/3/57 95/3/57 71/3/57
f 72/3/58 73/3/58 96/3/58
f 73/3/59 98/3/59 97/3/59
f 75/3/60 98/3/60 74/3/60
f 76/3/61 99/3/61 75/3/61
f 77/3/62 100/3/62 76/3/62
f 77/3/63 102/3/63 101/3/63
f 78/3/64 103/3/64 102/3/64
f 80/3/65 103/3/65 79/3/65
f 81/3/66 104/3/66 80/3/66
f 81/3/67 106/3/67 105/3/67
f 82/3/68 107/3/68 106/3/68
f 83/3/69 108/3/69 107/3/69
f 85/3/70 108/3/70 84/3/70
f 85/3/71 110/3/71 109/3/71
f 87/3/72 110/3/72 86/3/72
f 87/3/73 112/3/73 111/3/73
f 88/3/74 113/3/74 112/3/74
f 89/3/75 114/3/75 113/3/75
f 91/3/76 114/3/76 90/3/76
f 91/3/77 116/3/77 115/3/77
f 93/3/78 116/3/78 92/3/78
f 94/3/79 117/3/79 93/3/79
f 95/3/80 118/3/80 94/3/80
f 95/3/81 120/3/81 119/3/81
f 73/3/82 120/3/82 96/3/82
f 98/3/83 121/3/83 97/3/83
f 99/3/84 122/3/84 98/3/84
f 100/3/85 123/3/85 99/3/85
f 100/3/86 125/3/86 124/3/86
f 101/3/87 126/3/87 125/3/87
f 103/3/88 126/3/88 102/3/88
f 103/3/89 128/3/89 127/3/89
f 105/3/90 128/3/90 104/3/90
f 106/3/91 129/3/91 105/3/91
f 107/3/92 130/3/92 106/3/92
f 107/3/93 132/3/93 131/3/93
f 109/3/94 132/3/94 108/3/94
f 110/3/95 133/3/95 109/3/95
f 111/3/96 134/3/96 110/3/96
f 111/3/97 136/3/97 135/3/97
f 113/3/98 136/3/98 112/3/98
f 114/3/99 137/3/99 113/3/99
f 114/3/100 139/3/100 138/3/100
f 116/3/101 139/3/101 115/3/101
f 116/3/102 141/3/102 140/3/102
f 117/3/103 142/3/103 141/3/103
f 119/3/104 142/3/104 118/3/104
f 119/3/105 144/3/105 143/3/105
f 120/3/106 121/3/106 144/3/106
f 121/3/107 146/3/107 145/3/107
f 122/3/108 147/3/108 146/3/108
f 123/3/109 148/3/109 147/3/109
f 124/3/110 149/3/110 148/3/110
f 126/3/111 149/3/111 125/3/111
f 127/3/112 150/3/112 126/3/112
f 127/3/113 152/3/113 151/3/113
f 128/3/114 153/3/114 152/3/114
f 130/3/115 153/3/115 129/3/115
f 131/3/116 154/3/116 130/3/116
f 132/3/117 155/3/117 131/3/117
f 133/3/118 156/3/118 132/3/118
f 133/3/119 158/3/119 157/3/119
f 134/3/120 159/3/120 158/3/120
f 136/3/121 159/3/121 135/3/121
f 137/3/122 160/3/122 136/3/122
f 137/3/123 162/3/123 161/3/123
f 138/3/124 163/3/124 162/3/124
f 140/3/125 163/3/125 139/3/125
f 141/3/126 164/3/126 140/3/126
f 141/3/127 166/3/127 165/3/127
f 142/3/128 167/3/128 166/3/128
f 144/3/129 167/3/129 143/3/129
f 121/3/130 168/3/130 144/3/130
f 169/2/131 172/2/131 171/2/131
f 172/2/132 173/2/132 171/2/132
f 173/2/133 176/2/133 175/2/133
f 176/2/134 177/2/134 175/2/134
f 178/2/135 179/2/135 177/2/135
f 180/2/136 181/2/136 179/2/136
f 170/2/137 182/2/137 178/2/137
f 181/2/138 184/2/138 183/2/138
f 183/2/139 170/2/139 169/2/139
f 181/2/140 183/2/140 175/2/140
f 185/2/141 188/2/141 187/2/141
f 188/2/142 189/2/142 187/2/142
f 189/2/143 192/2/143 191/2/143
f 192/2/144 193/2/144 191/2/144
f 194/2/145 195/2/145 193/2/145
f 195/2/146 198/2/146 197/2/146
f 186/2/24 198/2/24 194/2/24
f 198/2/147 199/2/147 197/2/147
f 199/2/148 186/2/148 185/2/148
f 187/2/27 191/2/27 195/2/27
f 202/2/149 203/2/149 201/2/149
f 203/2/150 206/2/150 205/2/150
f 206/2/151 207/2/151 205/2/151
f 207/2/152 210/2/152 209/2/152
f 209/2/153 212/2/153 211/2/153
f 212/2/154 213/2/154 211/2/154
f 214/2/155 210/2/155 206/2/155
f 213/2/156 216/2/156 215/2/156
f 216/2/157 201/2/157 215/2/157
f 211/2/158 213/2/158 215/2/158
f 217/2/159 220/2/159 219/2/159
f 220/2/160 221/2/160 219/2/160
f 221/2/161 224/2/161 223/2/161
f 224/2/162 225/2/162 223/2/162
f 226/2/163 227/2/163 225/2/163
f 227/2/164 230/2/164 229/2/164
f 226/2/165 224/2/165 222/2/165
f 230/2/166 231/2/166 229/2/166
f 231/2/167 218/2/167 217/2/167
f 229/2/168 231/2/168 223/2/168
f 234/2/169 235/2/169 233/2/169
f 235/2/170 238/2/170 237/2/170
f 238/2/171 239/2/171 237/2/171
f 239/2/172 242/2/172 241/2/172
f 241/2/173 244/2/173 243/2/173
f 244/2/174 245/2/174 243/2/174
f 234/2/23 246/2/23 242/2/23
f 245/2/175 248/2/175 247/2/175
f 248/2/176 233/2/176 247/2/176
f 239/2/28 243/2/28 247/2/28
f 250/2/177 251/2/177 249/2/177
f 252/2/178 253/2/178 251/2/178
f 253/2/179 256/2/179 255/2/179
f 255/2/180 258/2/180 257/2/180
f 257/2/181 260/2/181 259/2/181
f 260/2/182 261/2/182 259/2/182
f 262/2/183 258/2/183 254/2/183
f 261/2/184 264/2/184 263/2/184
f 264/2/185 249/2/185 263/2/185
f 263/2/186 251/2/186 255/2/186
f 266/2/139 267/2/139 265/2/139
f 267/2/138 270/2/138 269/2/138
f 270/2/136 271/2/136 269/2/136
f 271/2/135 274/2/135 273/2/135
f 273/2/134 276/2/134 275/2/134
f 276/2/133 277/2/133 275/2/133
f 274/2/140 272/2/140 270/2/140
f 277/2/132 280/2/132 279/2/132
f 280/2/131 265/2/131 279/2/131
f 271/2/137 275/2/137 279/2/137
f 281/2/148 284/2/148 283/2/148
f 284/2/147 285/2/147 283/2/147
f 285/2/146 288/2/146 287/2/146
f 288/2/145 289/2/145 287/2/145
f 289/2/144 292/2/144 291/2/144
f 292/2/143 293/2/143 291/2/143
f 286/2/27 282/2/27 294/2/27
f 293/2/142 296/2/142 295/2/142
f 296/2/141 281/2/141 295/2/141
f 293/2/24 295/2/24 287/2/24
f 298/2/157 299/2/157 297/2/157
f 300/2/156 301/2/156 299/2/156
f 302/2/154 303/2/154 301/2/154
f 304/2/153 305/2/153 303/2/153
f 306/2/152 307/2/152 305/2/152
f 307/2/151 310/2/151 309/2/151
f 310/2/158 306/2/158 302/2/158
f 310/2/150 311/2/150 309/2/150
f 312/2/149 297/2/149 311/2/149
f 303/2/155 307/2/155 311/2/155
f 313/2/167 316/2/167 315/2/167
f 316/2/166 317/2/166 315/2/166
f 318/2/164 319/2/164 317/2/164
f 320/2/163 321/2/163 319/2/163
f 322/2/162 323/2/162 321/2/162
f 323/2/161 326/2/161 325/2/161
f 322/2/168 320/2/168 318/2/168
f 326/2/160 327/2/160 325/2/160
f 327/2/159 314/2/159 313/2/159
f 325/2/165 327/2/165 319/2/165
f 330/2/176 331/2/176 329/2/176
f 331/2/175 334/2/175 333/2/175
f 334/2/174 335/2/174 333/2/174
f 335/2/173 338/2/173 337/2/173
f 337/2/172 340/2/172 339/2/172
f 340/2/171 341/2/171 339/2/171
f 330/2/28 342/2/28 338/2/28
f 341/2/170 344/2/170 343/2/170
f 344/2/169 329/2/169 343/2/169
f 339/2/23 341/2/23 343/2/23
f 345/2/185 348/2/185 347/2/185
f 348/2/184 349/2/184 347/2/184
f 349/2/182 352/2/182 351/2/182
f 352/2/181 353/2/181 351/2/181
f 354/2/180 355/2/180 353/2/180
f 355/2/179 358/2/179 357/2/179
f 346/2/186 358/2/186 354/2/186
f 358/2/178 359/2/178 357/2/178
f 359/2/177 346/2/177 345/2/177
f 355/2/183 357/2/183 359/2/183
f 362/2/187 363/2/187 361/2/187
f 363/2/188 366/2/188 365/2/188
f 366/2/189 367/2/189 365/2/189
f 367/2/190 370/2/190 369/2/190
f 369/2/191 372/2/191 371/2/191
f 371/2/192 374/2/192 373/2/192
f 374/2/193 370/2/193 366/2/193
f 373/2/194 376/2/194 375/2/194
f 376/2/195 361/2/195 375/2/195
f 367/2/196 371/2/196 375/2/196
f 378/2/197 379/2/197 377/2/197
f 380/2/198 381/2/198 379/2/198
f 381/2/199 384/2/199 383/2/199
f 383/2/200 386/2/200 385/2/200
f 386/2/201 387/2/201 385/2/201
f 388/2/202 389/2/202 387/2/202
f 378/2/203 390/2/203 386/2/203
f 389/2/204 392/2/204 391/2/204
f 392/2/205 377/2/205 391/2/205
f 389/2/206 391/2/206 383/2/206
f 393/2/207 396/2/207 395/2/207
f 396/2/208 397/2/208 395/2/208
f 398/2/209 399/2/209 397/2/209
f 399/2/210 402/2/210 401/2/210
f 402/2/211 403/2/211 401/2/211
f 403/2/212 406/2/212 405/2/212
f 400/2/213 398/2/213 406/2/213
f 405/2/214 408/2/214 407/2/214
f 408/2/215 393/2/215 407/2/215
f 399/2/216 403/2/216 407/2/216
f 410/4/186 411/4/186 409/4/186
f 412/4/28 413/4/28 411/4/28
f 414/4/168 415/4/168 413/4/168
f 416/4/158 417/4/158 415/4/158
f 418/4/27 419/4/27 417/4/27
f 420/4/140 421/4/140 419/4/140
f 422/4/183 423/4/183 421/4/183
f 424/4/23 425/4/23 423/4/23
f 426/4/165 427/4/165 425/4/165
f 428/4/155 429/4/155 427/4/155
f 430/4/32 422/4/32 414/4/32
f 430/4/24 431/4/24 429/4/24
f 432/4/137 409/4/137 431/4/137
f 415/4/33 423/4/33 431/4/33
f 2/1/1 4/1/1 3/1/1
f 4/1/2 6/1/2 5/1/2
f 6/1/3 8/1/3 7/1/3
f 8/1/4 10/1/4 9/1/4
f 10/1/5 12/1/5 11/1/5
f 12/1/6 14/1/6 13/1/6
f 14/1/7 16/1/7 15/1/7
f 16/1/8 18/1/8 17/1/8
f 18/1/9 20/1/9 19/1/9
f 20/1/10 22/1/10 21/1/10
f 6/1/11 4/1/11 2/1/11
f 2/1/11 24/1/11 22/1/11
f 22/1/11 20/1/11 18/1/11
f 18/1/11 16/1/11 22/1/11
f 16/1/11 14/1/11 22/1/11
f 14/1/11 12/1/11 6/1/11
f 12/1/11 10/1/11 6/1/11
f 10/1/11 8/1/11 6/1/11
f 6/1/11 2/1/11 14/1/11
f 22/1/12 24/1/12 23/1/12
f 24/1/13 2/1/13 1/1/13
f 23/1/14 1/1/14 3/1/14
f 3/1/14 5/1/14 7/1/14
f 7/1/14 9/1/14 11/1/14
f 11/1/14 13/1/14 7/1/14
f 13/1/14 15/1/14 7/1/14
f 15/1/14 17/1/14 19/1/14
f 19/1/14 21/1/14 23/1/14
f 23/1/14 3/1/14 15/1/14
f 3/1/14 7/1/14 15/1/14
f 25/2/23 27/2/23 32/2/23
f 28/2/8 30/2/8 27/2/8
f 34/2/24 36/2/24 30/2/24
f 33/2/12 32/2/12 36/2/12
f 31/2/25 33/2/25 44/2/25
f 46/2/26 48/2/26 35/2/26
f 45/2/2 44/2/2 48/2/2
f 43/2/27 45/2/27 38/2/27
f 40/2/28 42/2/28 47/2/28
f 39/2/5 38/2/5 42/2/5
f 37/2/29 39/2/29 26/2/29
f 29/2/30 28/2/30 41/2/30
f 43/2/14 37/2/14 25/2/14
f 30/2/31 36/2/31 32/2/31
f 41/2/32 28/2/32 26/2/32
f 34/2/11 29/2/11 40/2/11
f 35/2/33 48/2/33 44/2/33
f 47/2/34 42/2/34 38/2/34
f 50/3/35 74/3/35 73/3/35
f 51/3/36 75/3/36 74/3/36
f 52/3/37 76/3/37 75/3/37
f 52/3/38 53/3/38 77/3/38
f 54/3/39 78/3/39 77/3/39
f 54/3/217 55/3/217 79/3/217
f 56/3/218 80/3/218 79/3/218
f 56/3/42 57/3/42 81/3/42
f 58/3/43 82/3/43 81/3/43
f 58/3/44 59/3/44 83/3/44
f 60/3/45 84/3/45 83/3/45
f 61/3/46 85/3/46 84/3/46
f 62/3/47 86/3/47 85/3/47
f 63/3/48 87/3/48 86/3/48
f 63/3/49 64/3/49 88/3/49
f 65/3/50 89/3/50 88/3/50
f 65/3/51 66/3/51 90/3/51
f 67/3/52 91/3/52 90/3/52
f 67/3/53 68/3/53 92/3/53
f 69/3/54 93/3/54 92/3/54
f 69/3/55 70/3/55 94/3/55
f 71/3/56 95/3/56 94/3/56
f 72/3/57 96/3/57 95/3/57
f 72/3/58 49/3/58 73/3/58
f 73/3/59 74/3/59 98/3/59
f 75/3/60 99/3/60 98/3/60
f 76/3/61 100/3/61 99/3/61
f 77/3/62 101/3/62 100/3/62
f 77/3/63 78/3/63 102/3/63
f 78/3/64 79/3/64 103/3/64
f 80/3/65 104/3/65 103/3/65
f 81/3/66 105/3/66 104/3/66
f 81/3/67 82/3/67 106/3/67
f 82/3/68 83/3/68 107/3/68
f 83/3/69 84/3/69 108/3/69
f 85/3/70 109/3/70 108/3/70
f 85/3/71 86/3/71 110/3/71
f 87/3/72 111/3/72 110/3/72
f 87/3/73 88/3/73 112/3/73
f 88/3/74 89/3/74 113/3/74
f 89/3/75 90/3/75 114/3/75
f 91/3/76 115/3/76 114/3/76
f 91/3/77 92/3/77 116/3/77
f 93/3/78 117/3/78 116/3/78
f 94/3/79 118/3/79 117/3/79
f 95/3/80 119/3/80 118/3/80
f 95/3/81 96/3/81 120/3/81
f 73/3/82 97/3/82 120/3/82
f 98/3/83 122/3/83 121/3/83
f 99/3/84 123/3/84 122/3/84
f 100/3/85 124/3/85 123/3/85
f 100/3/86 101/3/86 125/3/86
f 101/3/87 102/3/87 126/3/87
f 103/3/88 127/3/88 126/3/88
f 103/3/89 104/3/89 128/3/89
f 105/3/90 129/3/90 128/3/90
f 106/3/91 130/3/91 129/3/91
f 107/3/92 131/3/92 130/3/92
f 107/3/93 108/3/93 132/3/93
f 109/3/94 133/3/94 132/3/94
f 110/3/95 134/3/95 133/3/95
f 111/3/96 135/3/96 134/3/96
f 111/3/97 112/3/97 136/3/97
f 113/3/98 137/3/98 136/3/98
f 114/3/99 138/3/99 137/3/99
f 114/3/100 115/3/100 139/3/100
f 116/3/101 140/3/101 139/3/101
f 116/3/102 117/3/102 141/3/102
f 117/3/103 118/3/103 142/3/103
f 119/3/104 143/3/104 142/3/104
f 119/3/105 120/3/105 144/3/105
f 120/3/106 97/3/106 121/3/106
f 121/3/107 122/3/107 146/3/107
f 122/3/108 123/3/108 147/3/108
f 123/3/109 124/3/109 148/3/109
f 124/3/110 125/3/110 149/3/110
f 126/3/111 150/3/111 149/3/111
f 127/3/112 151/3/112 150/3/112
f 127/3/113 128/3/113 152/3/113
f 128/3/114 129/3/114 153/3/114
f 130/3/115 154/3/115 153/3/115
f 131/3/116 155/3/116 154/3/116
f 132/3/117 156/3/117 155/3/117
f 133/3/118 157/3/118 156/3/118
f 133/3/119 134/3/119 158/3/119
f 134/3/120 135/3/120 159/3/120
f 136/3/121 160/3/121 159/3/121
f 137/3/122 161/3/122 160/3/122
f 137/3/123 138/3/123 162/3/123
f 138/3/124 139/3/124 163/3/124
f 140/3/125 164/3/125 163/3/125
f 141/3/126 165/3/126 164/3/126
f 141/3/127 142/3/127 166/3/127
f 142/3/128 143/3/128 167/3/128
f 144/3/129 168/3/129 167/3/129
f 121/3/130 145/3/130 168/3/130
f 169/2/131 170/2/131 172/2/131
f 172/2/132 174/2/132 173/2/132
f 173/2/133 174/2/133 176/2/133
f 176/2/134 178/2/134 177/2/134
f 178/2/135 180/2/135 179/2/135
f 180/2/136 182/2/136 181/2/136
f 174/2/137 172/2/137 170/2/137
f 170/2/137 184/2/137 182/2/137
f 182/2/137 180/2/137 178/2/137
f 178/2/137 176/2/137 174/2/137
f 174/2/137 170/2/137 178/2/137
f 181/2/138 182/2/138 184/2/138
f 183/2/139 184/2/139 170/2/139
f 183/2/140 169/2/140 171/2/140
f 171/2/140 173/2/140 183/2/140
f 173/2/140 175/2/140 183/2/140
f 175/2/140 177/2/140 179/2/140
f 179/2/140 181/2/140 175/2/140
f 185/2/141 186/2/141 188/2/141
f 188/2/142 190/2/142 189/2/142
f 189/2/143 190/2/143 192/2/143
f 192/2/144 194/2/144 193/2/144
f 194/2/145 196/2/145 195/2/145
f 195/2/146 196/2/146 198/2/146
f 190/2/24 188/2/24 186/2/24
f 186/2/24 200/2/24 198/2/24
f 198/2/24 196/2/24 194/2/24
f 194/2/24 192/2/24 190/2/24
f 190/2/24 186/2/24 194/2/24
f 198/2/147 200/2/147 199/2/147
f 199/2/148 200/2/148 186/2/148
f 199/2/27 185/2/27 187/2/27
f 187/2/27 189/2/27 191/2/27
f 191/2/27 193/2/27 195/2/27
f 195/2/27 197/2/27 199/2/27
f 199/2/27 187/2/27 195/2/27
f 202/2/149 204/2/149 203/2/149
f 203/2/150 204/2/150 206/2/150
f 206/2/151 208/2/151 207/2/151
f 207/2/152 208/2/152 210/2/152
f 209/2/153 210/2/153 212/2/153
f 212/2/154 214/2/154 213/2/154
f 206/2/155 204/2/155 202/2/155
f 202/2/155 216/2/155 214/2/155
f 214/2/155 212/2/155 210/2/155
f 210/2/155 208/2/155 206/2/155
f 206/2/155 202/2/155 214/2/155
f 213/2/156 214/2/156 216/2/156
f 216/2/157 202/2/157 201/2/157
f 215/2/158 201/2/158 203/2/158
f 203/2/158 205/2/158 215/2/158
f 205/2/158 207/2/158 215/2/158
f 207/2/158 209/2/158 215/2/158
f 209/2/158 211/2/158 215/2/158
f 217/2/159 218/2/159 220/2/159
f 220/2/160 222/2/160 221/2/160
f 221/2/161 222/2/161 224/2/161
f 224/2/162 226/2/162 225/2/162
f 226/2/163 228/2/163 227/2/163
f 227/2/164 228/2/164 230/2/164
f 222/2/165 220/2/165 218/2/165
f 218/2/165 232/2/165 222/2/165
f 232/2/165 230/2/165 222/2/165
f 230/2/165 228/2/165 222/2/165
f 228/2/165 226/2/165 222/2/165
f 230/2/166 232/2/166 231/2/166
f 231/2/167 232/2/167 218/2/167
f 231/2/168 217/2/168 219/2/168
f 219/2/168 221/2/168 231/2/168
f 221/2/168 223/2/168 231/2/168
f 223/2/168 225/2/168 227/2/168
f 227/2/168 229/2/168 223/2/168
f 234/2/169 236/2/169 235/2/169
f 235/2/170 236/2/170 238/2/170
f 238/2/171 240/2/171 239/2/171
f 239/2/172 240/2/172 242/2/172
f 241/2/173 242/2/173 244/2/173
f 244/2/174 246/2/174 245/2/174
f 238/2/23 236/2/23 234/2/23
f 234/2/23 248/2/23 246/2/23
f 246/2/23 244/2/23 242/2/23
f 242/2/23 240/2/23 238/2/23
f 238/2/23 234/2/23 242/2/23
f 245/2/175 246/2/175 248/2/175
f 248/2/176 234/2/176 233/2/176
f 247/2/28 233/2/28 235/2/28
f 235/2/28 237/2/28 239/2/28
f 239/2/28 241/2/28 243/2/28
f 243/2/28 245/2/28 247/2/28
f 247/2/28 235/2/28 239/2/28
f 250/2/177 252/2/177 251/2/177
f 252/2/178 254/2/178 253/2/178
f 253/2/179 254/2/179 256/2/179
f 255/2/180 256/2/180 258/2/180
f 257/2/181 258/2/181 260/2/181
f 260/2/182 262/2/182 261/2/182
f 254/2/183 252/2/183 250/2/183
f 250/2/183 264/2/183 254/2/183
f 264/2/183 262/2/183 254/2/183
f 262/2/183 260/2/183 258/2/183
f 258/2/183 256/2/183 254/2/183
f 261/2/184 262/2/184 264/2/184
f 264/2/185 250/2/185 249/2/185
f 263/2/186 249/2/186 251/2/186
f 251/2/186 253/2/186 255/2/186
f 255/2/186 257/2/186 259/2/186
f 259/2/186 261/2/186 255/2/186
f 261/2/186 263/2/186 255/2/186
f 266/2/139 268/2/139 267/2/139
f 267/2/138 268/2/138 270/2/138
f 270/2/136 272/2/136 271/2/136
f 271/2/135 272/2/135 274/2/135
f 273/2/134 274/2/134 276/2/134
f 276/2/133 278/2/133 277/2/133
f 270/2/140 268/2/140 266/2/140
f 266/2/140 280/2/140 270/2/140
f 280/2/140 278/2/140 270/2/140
f 278/2/140 276/2/140 270/2/140
f 276/2/140 274/2/140 270/2/140
f 277/2/132 278/2/132 280/2/132
f 280/2/131 266/2/131 265/2/131
f 279/2/137 265/2/137 267/2/137
f 267/2/137 269/2/137 271/2/137
f 271/2/137 273/2/137 275/2/137
f 275/2/137 277/2/137 279/2/137
f 279/2/137 267/2/137 271/2/137
f 281/2/148 282/2/148 284/2/148
f 284/2/147 286/2/147 285/2/147
f 285/2/146 286/2/146 288/2/146
f 288/2/145 290/2/145 289/2/145
f 289/2/144 290/2/144 292/2/144
f 292/2/143 294/2/143 293/2/143
f 286/2/27 284/2/27 282/2/27
f 282/2/27 296/2/27 294/2/27
f 294/2/27 292/2/27 290/2/27
f 290/2/27 288/2/27 294/2/27
f 288/2/27 286/2/27 294/2/27
f 293/2/142 294/2/142 296/2/142
f 296/2/141 282/2/141 281/2/141
f 295/2/24 281/2/24 287/2/24
f 281/2/24 283/2/24 287/2/24
f 283/2/24 285/2/24 287/2/24
f 287/2/24 289/2/24 291/2/24
f 291/2/24 293/2/24 287/2/24
f 298/2/157 300/2/157 299/2/157
f 300/2/156 302/2/156 301/2/156
f 302/2/154 304/2/154 303/2/154
f 304/2/153 306/2/153 305/2/153
f 306/2/152 308/2/152 307/2/152
f 307/2/151 308/2/151 310/2/151
f 302/2/158 300/2/158 298/2/158
f 298/2/158 312/2/158 310/2/158
f 310/2/158 308/2/158 306/2/158
f 306/2/158 304/2/158 302/2/158
f 302/2/158 298/2/158 310/2/158
f 310/2/150 312/2/150 311/2/150
f 312/2/149 298/2/149 297/2/149
f 311/2/155 297/2/155 299/2/155
f 299/2/155 301/2/155 311/2/155
f 301/2/155 303/2/155 311/2/155
f 303/2/155 305/2/155 307/2/155
f 307/2/155 309/2/155 311/2/155
f 313/2/167 314/2/167 316/2/167
f 316/2/166 318/2/166 317/2/166
f 318/2/164 320/2/164 319/2/164
f 320/2/163 322/2/163 321/2/163
f 322/2/162 324/2/162 323/2/162
f 323/2/161 324/2/161 326/2/161
f 318/2/168 316/2/168 326/2/168
f 316/2/168 314/2/168 326/2/168
f 314/2/168 328/2/168 326/2/168
f 326/2/168 324/2/168 318/2/168
f 324/2/168 322/2/168 318/2/168
f 326/2/160 328/2/160 327/2/160
f 327/2/159 328/2/159 314/2/159
f 327/2/165 313/2/165 315/2/165
f 315/2/165 317/2/165 327/2/165
f 317/2/165 319/2/165 327/2/165
f 319/2/165 321/2/165 323/2/165
f 323/2/165 325/2/165 319/2/165
f 330/2/176 332/2/176 331/2/176
f 331/2/175 332/2/175 334/2/175
f 334/2/174 336/2/174 335/2/174
f 335/2/173 336/2/173 338/2/173
f 337/2/172 338/2/172 340/2/172
f 340/2/171 342/2/171 341/2/171
f 334/2/28 332/2/28 330/2/28
f 330/2/28 344/2/28 342/2/28
f 342/2/28 340/2/28 338/2/28
f 338/2/28 336/2/28 334/2/28
f 334/2/28 330/2/28 338/2/28
f 341/2/170 342/2/170 344/2/170
f 344/2/169 330/2/169 329/2/169
f 343/2/23 329/2/23 335/2/23
f 329/2/23 331/2/23 335/2/23
f 331/2/23 333/2/23 335/2/23
f 335/2/23 337/2/23 343/2/23
f 337/2/23 339/2/23 343/2/23
f 345/2/185 346/2/185 348/2/185
f 348/2/184 350/2/184 349/2/184
f 349/2/182 350/2/182 352/2/182
f 352/2/181 354/2/181 353/2/181
f 354/2/180 356/2/180 355/2/180
f 355/2/179 356/2/179 358/2/179
f 350/2/186 348/2/186 346/2/186
f 346/2/186 360/2/186 358/2/186
f 358/2/186 356/2/186 354/2/186
f 354/2/186 352/2/186 350/2/186
f 350/2/186 346/2/186 354/2/186
f 358/2/178 360/2/178 359/2/178
f 359/2/177 360/2/177 346/2/177
f 359/2/183 345/2/183 351/2/183
f 345/2/183 347/2/183 351/2/183
f 347/2/183 349/2/183 351/2/183
f 351/2/183 353/2/183 359/2/183
f 353/2/183 355/2/183 359/2/183
f 362/2/219 364/2/219 363/2/219
f 363/2/188 364/2/188 366/2/188
f 366/2/189 368/2/189 367/2/189
f 367/2/190 368/2/190 370/2/190
f 369/2/220 370/2/220 372/2/220
f 371/2/192 372/2/192 374/2/192
f 366/2/193 364/2/193 374/2/193
f 364/2/193 362/2/193 374/2/193
f 362/2/193 376/2/193 374/2/193
f 374/2/193 372/2/193 370/2/193
f 370/2/193 368/2/193 366/2/193
f 373/2/194 374/2/194 376/2/194
f 376/2/195 362/2/195 361/2/195
f 375/2/196 361/2/196 363/2/196
f 363/2/221 365/2/221 375/2/221
f 365/2/196 367/2/196 375/2/196
f 367/2/196 369/2/196 371/2/196
f 371/2/196 373/2/196 375/2/196
f 378/2/197 380/2/197 379/2/197
f 380/2/198 382/2/198 381/2/198
f 381/2/199 382/2/199 384/2/199
f 383/2/200 384/2/200 386/2/200
f 386/2/201 388/2/201 387/2/201
f 388/2/202 390/2/202 389/2/202
f 382/2/203 380/2/203 378/2/203
f 378/2/203 392/2/203 390/2/203
f 390/2/203 388/2/203 386/2/203
f 386/2/203 384/2/203 382/2/203
f 382/2/203 378/2/203 386/2/203
f 389/2/204 390/2/204 392/2/204
f 392/2/205 378/2/205 377/2/205
f 391/2/206 377/2/206 383/2/206
f 377/2/206 379/2/206 383/2/206
f 379/2/206 381/2/206 383/2/206
f 383/2/206 385/2/206 387/2/206
f 387/2/206 389/2/206 383/2/206
f 393/2/207 394/2/207 396/2/207
f 396/2/208 398/2/208 397/2/208
f 398/2/209 400/2/209 399/2/209
f 399/2/210 400/2/210 402/2/210
f 402/2/211 404/2/211 403/2/211
f 403/2/212 404/2/212 406/2/212
f 398/2/213 396/2/213 406/2/213
f 396/2/213 394/2/213 406/2/213
f 394/2/213 408/2/213 406/2/213
f 406/2/213 404/2/213 402/2/213
f 402/2/213 400/2/213 406/2/213
f 405/2/222 406/2/222 408/2/222
f 408/2/215 394/2/215 393/2/215
f 407/2/223 393/2/223 395/2/223
f 395/2/216 397/2/216 399/2/216
f 399/2/216 401/2/216 403/2/216
f 403/2/216 405/2/216 407/2/216
f 407/2/216 395/2/216 399/2/216
f 410/4/186 412/4/186 411/4/186
f 412/4/28 414/4/28 413/4/28
f 414/4/168 416/4/168 415/4/168
f 416/4/158 418/4/158 417/4/158
f 418/4/27 420/4/27 419/4/27
f 420/4/140 422/4/140 421/4/140
f 422/4/183 424/4/183 423/4/183
f 424/4/23 426/4/23 425/4/23
f 426/4/165 428/4/165 427/4/165
f 428/4/155 430/4/155 429/4/155
f 414/4/32 412/4/32 410/4/32
f 410/4/32 432/4/32 414/4/32
f 432/4/32 430/4/32 414/4/32
f 430/4/32 428/4/32 426/4/32
f 426/4/32 424/4/32 430/4/32
f 424/4/32 422/4/32 430/4/32
f 422/4/32 420/4/32 414/4/32
f 420/4/32 418/4/32 414/4/32
f 418/4/32 416/4/32 414/4/32
f 430/4/24 432/4/24 431/4/24
f 432/4/137 410/4/137 409/4/137
f 431/4/33 409/4/33 411/4/33
f 411/4/33 413/4/33 431/4/33
f 413/4/33 415/4/33 431/4/33
f 415/4/33 417/4/33 419/4/33
f 419/4/33 421/4/33 423/4/33
f 423/4/33 425/4/33 427/4/33
f 427/4/33 429/4/33 423/4/33
f 429/4/33 431/4/33 423/4/33
f 415/4/33 419/4/33 423/4/33
