# Blender 5.2.1 LTS
# www.blender.org
mtllib scrubInstances.mtl
o scrubInstances
v 0.000000 0.005045 -0.014126
v 0.000000 0.425045 0.135874
v 0.010607 0.003567 -0.009989
v 0.010607 0.423567 0.140011
v 0.015000 0.000000 0.000000
v 0.015000 0.420000 0.150000
v 0.010607 -0.003567 0.009989
v 0.010607 0.416433 0.159989
v 0.000000 -0.005045 0.014126
v 0.000000 0.414955 0.164126
v -0.010607 -0.003567 0.009989
v -0.010607 0.416433 0.159989
v -0.015000 0.000000 0.000000
v -0.015000 0.420000 0.150000
v -0.010607 0.003567 -0.009989
v -0.010607 0.423567 0.140011
v -0.063005 0.292499 0.150000
v 0.049841 0.397225 0.223601
v -0.134369 0.319342 0.269090
v -0.248219 0.271207 0.150000
v -0.134369 0.319342 0.030910
v 0.049841 0.397225 0.076399
v -0.065631 0.440658 0.269090
v -0.249841 0.362775 0.223601
v -0.249841 0.362775 0.076399
v -0.065631 0.440658 0.030910
v 0.048219 0.488793 0.150000
v -0.136995 0.467501 0.150000
v 0.063005 0.292499 0.150000
v 0.216751 0.284512 0.223601
v 0.032542 0.362394 0.269090
v -0.081309 0.410529 0.150000
v 0.032542 0.362394 0.030910
v 0.216751 0.284512 0.076399
v 0.167458 0.397606 0.269090
v -0.016751 0.475488 0.223601
v -0.016751 0.475488 0.076399
v 0.167458 0.397606 0.030910
v 0.281309 0.349471 0.150000
v 0.136995 0.467501 0.150000
v -0.001096 -0.005762 -0.013806
v 0.222050 0.534238 -0.256922
v 0.009120 -0.007815 -0.008987
v 0.232266 0.532185 -0.252104
v 0.013994 -0.005289 0.001096
v 0.237140 0.534711 -0.242021
v 0.010670 0.000335 0.010537
v 0.233816 0.540335 -0.232580
v 0.001096 0.005762 0.013806
v 0.224242 0.545762 -0.229311
v -0.009120 0.007815 0.008987
v 0.214026 0.547815 -0.234130
v -0.013994 0.005289 -0.001096
v 0.209152 0.545289 -0.244213
v -0.010670 -0.000335 -0.010537
v 0.212476 0.539665 -0.253654
v 0.160141 0.412499 -0.243117
v 0.272987 0.517225 -0.169516
v 0.088777 0.439342 -0.124027
v -0.025073 0.391207 -0.243117
v 0.088777 0.439342 -0.362206
v 0.272987 0.517225 -0.316718
v 0.157515 0.560658 -0.124027
v -0.026694 0.482775 -0.169516
v -0.026694 0.482775 -0.316718
v 0.157515 0.560658 -0.362207
v 0.271365 0.608793 -0.243117
v 0.086151 0.587501 -0.243117
v 0.286151 0.412499 -0.243117
v 0.439897 0.404512 -0.169516
v 0.255688 0.482394 -0.124027
v 0.141837 0.530529 -0.243117
v 0.255688 0.482394 -0.362207
v 0.439897 0.404512 -0.316718
v 0.390604 0.517606 -0.124027
v 0.206395 0.595488 -0.169516
v 0.206395 0.595488 -0.316718
v 0.390604 0.517606 -0.362207
v 0.504455 0.469471 -0.243117
v 0.360141 0.587501 -0.243117
v -0.000267 0.000784 -0.014977
v -0.508399 0.660784 0.028631
v 0.008220 0.007016 -0.010402
v -0.499912 0.667016 0.033206
v 0.011892 0.009138 0.000267
v -0.496240 0.669138 0.043875
v 0.008598 0.005907 0.010779
v -0.499535 0.665907 0.054387
v 0.000267 -0.000784 0.014977
v -0.507865 0.659216 0.058585
v -0.008220 -0.007016 0.010402
v -0.516353 0.652984 0.054010
v -0.011892 -0.009138 -0.000267
v -0.520024 0.650862 0.043342
v -0.008598 -0.005907 -0.010779
v -0.516730 0.654093 0.032829
v -0.571137 0.532499 0.043608
v -0.458292 0.637225 0.117209
v -0.642501 0.559342 0.162698
v -0.756352 0.511207 0.043608
v -0.642501 0.559342 -0.075481
v -0.458292 0.637225 -0.029993
v -0.573763 0.680658 0.162698
v -0.757973 0.602775 0.117209
v -0.757973 0.602775 -0.029993
v -0.573763 0.680658 -0.075481
v -0.459913 0.728793 0.043608
v -0.645127 0.707501 0.043608
v -0.445127 0.532499 0.043608
v -0.291381 0.524512 0.117209
v -0.475590 0.602394 0.162698
v -0.589441 0.650529 0.043608
v -0.475590 0.602394 -0.075481
v -0.291381 0.524512 -0.029992
v -0.340674 0.637606 0.162698
v -0.524884 0.715488 0.117209
v -0.524884 0.715488 -0.029992
v -0.340674 0.637606 -0.075481
v -0.226824 0.589471 0.043608
v -0.371137 0.707501 0.043608
v 0.000131 0.001730 -0.014899
v 0.118906 0.781730 0.076710
v 0.010579 -0.000363 -0.010628
v 0.129355 0.779637 0.080982
v 0.014831 -0.002243 -0.000131
v 0.133607 0.777757 0.091479
v 0.010395 -0.002809 0.010443
v 0.129171 0.777191 0.102053
v -0.000131 -0.001730 0.014899
v 0.118645 0.778270 0.106509
v -0.010579 0.000363 0.010628
v 0.108197 0.780363 0.102237
v -0.014831 0.002243 0.000131
v 0.103945 0.782243 0.091740
v -0.010395 0.002809 -0.010443
v 0.108381 0.782809 0.081166
v 0.055771 0.652499 0.091609
v 0.168616 0.757225 0.165210
v -0.015593 0.679342 0.210699
v -0.129443 0.631207 0.091609
v -0.015593 0.679342 -0.027480
v 0.168616 0.757225 0.018009
v 0.053145 0.800658 0.210699
v -0.131065 0.722775 0.165210
v -0.131065 0.722775 0.018009
v 0.053145 0.800658 -0.027480
v 0.166995 0.848793 0.091609
v -0.018219 0.827501 0.091609
v 0.181781 0.652499 0.091609
v 0.335527 0.644512 0.165210
v 0.151318 0.722394 0.210699
v 0.037467 0.770529 0.091609
v 0.151318 0.722394 -0.027480
v 0.335527 0.644512 0.018009
v 0.286234 0.757606 0.210699
v 0.102025 0.835488 0.165210
v 0.102025 0.835488 0.018009
v 0.286234 0.757606 -0.027480
v 0.400084 0.709471 0.091609
v 0.255771 0.827501 0.091609
v 0.000538 -0.009132 -0.011888
v -0.055689 0.410868 -0.337062
v 0.010921 -0.005341 -0.008786
v -0.045306 0.414659 -0.333961
v 0.014907 0.001579 -0.000538
v -0.041321 0.421579 -0.325713
v 0.010160 0.007574 0.008025
v -0.046067 0.427574 -0.317149
v -0.000538 0.009132 0.011888
v -0.056766 0.429132 -0.313287
v -0.010921 0.005341 0.008787
v -0.067149 0.425341 -0.316388
v -0.014907 -0.001579 0.000538
v -0.071135 0.418421 -0.324636
v -0.010160 -0.007574 -0.008025
v -0.066388 0.412426 -0.333200
v -0.119233 0.292499 -0.325175
v -0.006387 0.397225 -0.251574
v -0.190596 0.319342 -0.206085
v -0.304447 0.271207 -0.325175
v -0.190596 0.319342 -0.444264
v -0.006387 0.397225 -0.398775
v -0.121859 0.440658 -0.206085
v -0.306068 0.362775 -0.251574
v -0.306068 0.362775 -0.398775
v -0.121859 0.440658 -0.444264
v -0.008008 0.488793 -0.325174
v -0.193222 0.467501 -0.325174
v 0.006778 0.292499 -0.325175
v 0.160524 0.284512 -0.251574
v -0.023686 0.362394 -0.206085
v -0.137536 0.410529 -0.325175
v -0.023686 0.362394 -0.444264
v 0.160524 0.284512 -0.398775
v 0.111231 0.397606 -0.206085
v -0.072979 0.475488 -0.251574
v -0.072979 0.475488 -0.398775
v 0.111231 0.397606 -0.444264
v 0.225081 0.349471 -0.325175
v 0.080767 0.467501 -0.325174
v -0.001863 0.008663 -0.012103
v -0.277663 0.548663 0.416889
v 0.008443 0.010064 -0.007241
v -0.267358 0.550064 0.421751
v 0.013803 0.005570 0.001863
v -0.261998 0.545570 0.430855
v 0.011077 -0.002188 0.009875
v -0.264724 0.537812 0.438867
v 0.001863 -0.008663 0.012103
v -0.273938 0.531337 0.441095
v -0.008443 -0.010064 0.007241
v -0.284243 0.529936 0.436233
v -0.013802 -0.005570 -0.001863
v -0.289603 0.534430 0.427129
v -0.011077 0.002188 -0.009875
v -0.286878 0.542188 0.419117
v -0.338806 0.412499 0.428992
v -0.225960 0.517225 0.502593
v -0.410169 0.439342 0.548082
v -0.524020 0.391207 0.428992
v -0.410169 0.439342 0.309902
v -0.225960 0.517225 0.355391
v -0.341432 0.560658 0.548081
v -0.525641 0.482775 0.502593
v -0.525641 0.482775 0.355391
v -0.341432 0.560658 0.309902
v -0.227581 0.608793 0.428992
v -0.412795 0.587501 0.428992
v -0.212795 0.412499 0.428992
v -0.059049 0.404512 0.502593
v -0.243259 0.482394 0.548081
v -0.357109 0.530529 0.428992
v -0.243259 0.482394 0.309902
v -0.059049 0.404512 0.355391
v -0.108342 0.517606 0.548081
v -0.292552 0.595488 0.502593
v -0.292552 0.595488 0.355391
v -0.108342 0.517606 0.309902
v 0.005508 0.469471 0.428992
v -0.138806 0.587501 0.428992
v -0.000092 -0.000844 -0.014976
v 0.144988 0.659156 -0.053079
v 0.010295 -0.002871 -0.010525
v 0.155375 0.657129 -0.048628
v 0.014651 -0.003215 0.000092
v 0.159731 0.656785 -0.038011
v 0.010425 -0.001676 0.010654
v 0.155505 0.658324 -0.027448
v 0.000092 0.000844 0.014976
v 0.145172 0.660844 -0.023127
v -0.010295 0.002871 0.010525
v 0.134785 0.662871 -0.027578
v -0.014651 0.003215 -0.000092
v 0.130429 0.663215 -0.038194
v -0.010425 0.001676 -0.010654
v 0.134655 0.661676 -0.048757
v 0.082075 0.532499 -0.038103
v 0.194920 0.637225 0.035498
v 0.010711 0.559342 0.080987
v -0.103139 0.511207 -0.038103
v 0.010711 0.559342 -0.157192
v 0.194920 0.637225 -0.111704
v 0.079449 0.680658 0.080987
v -0.104761 0.602775 0.035498
v -0.104761 0.602775 -0.111704
v 0.079449 0.680658 -0.157192
v 0.193299 0.728793 -0.038103
v 0.008085 0.707501 -0.038103
v 0.208085 0.532499 -0.038103
v 0.361831 0.524512 0.035498
v 0.177622 0.602394 0.080987
v 0.063771 0.650529 -0.038103
v 0.177622 0.602394 -0.157192
v 0.361831 0.524512 -0.111704
v 0.312538 0.637606 0.080987
v 0.128329 0.715488 0.035498
v 0.128329 0.715488 -0.111704
v 0.312538 0.637606 -0.157192
v 0.426389 0.589471 -0.038103
v 0.282075 0.707501 -0.038103
v 0.000489 -0.002729 -0.014742
v -0.291336 0.777271 -0.168812
v 0.010297 0.001725 -0.010770
v -0.281529 0.781725 -0.164840
v 0.014073 0.005169 -0.000489
v -0.277753 0.785168 -0.154560
v 0.009605 0.005584 0.010078
v -0.282221 0.785584 -0.143993
v -0.000489 0.002729 0.014742
v -0.292315 0.782729 -0.139329
v -0.010297 -0.001725 0.010770
v -0.302123 0.778275 -0.143301
v -0.014073 -0.005168 0.000489
v -0.305899 0.774831 -0.153581
v -0.009605 -0.005584 -0.010078
v -0.301431 0.774416 -0.164148
v -0.354831 0.652499 -0.154070
v -0.241985 0.757225 -0.080470
v -0.426195 0.679342 -0.034981
v -0.540045 0.631207 -0.154070
v -0.426195 0.679342 -0.273160
v -0.241985 0.757225 -0.227671
v -0.357457 0.800658 -0.034981
v -0.541666 0.722775 -0.080470
v -0.541666 0.722775 -0.227671
v -0.357457 0.800658 -0.273160
v -0.243606 0.848793 -0.154070
v -0.428821 0.827501 -0.154070
v -0.228821 0.652499 -0.154070
v -0.075074 0.644512 -0.080470
v -0.259284 0.722394 -0.034981
v -0.373134 0.770529 -0.154070
v -0.259284 0.722394 -0.273160
v -0.075074 0.644512 -0.227671
v -0.124368 0.757606 -0.034981
v -0.308577 0.835488 -0.080470
v -0.308577 0.835488 -0.227671
v -0.124368 0.757606 -0.273160
v -0.010517 0.709471 -0.154070
v -0.154831 0.827501 -0.154070
v 0.001728 0.010907 -0.010152
v 0.172981 0.430907 0.470236
v 0.011393 0.004963 -0.008401
v 0.182646 0.424963 0.471987
v 0.014384 -0.003888 -0.001728
v 0.185637 0.416112 0.478659
v 0.008949 -0.010461 0.005956
v 0.180202 0.409539 0.486344
v -0.001728 -0.010907 0.010152
v 0.169525 0.409093 0.490539
v -0.011393 -0.004963 0.008400
v 0.159860 0.415037 0.488788
v -0.014384 0.003888 0.001728
v 0.156869 0.423888 0.482116
v -0.008949 0.010461 -0.005956
v 0.162304 0.430461 0.474432
v 0.108248 0.292499 0.480388
v 0.221094 0.397225 0.553989
v 0.036884 0.319342 0.599477
v -0.076966 0.271207 0.480388
v 0.036884 0.319342 0.361298
v 0.221094 0.397225 0.406787
v 0.105622 0.440658 0.599477
v -0.078588 0.362775 0.553989
v -0.078588 0.362775 0.406787
v 0.105622 0.440658 0.361298
v 0.219472 0.488793 0.480388
v 0.034258 0.467501 0.480388
v 0.234258 0.292499 0.480388
v 0.388004 0.284512 0.553989
v 0.203795 0.362394 0.599477
v 0.089944 0.410529 0.480388
v 0.203795 0.362394 0.361298
v 0.388004 0.284512 0.406787
v 0.338711 0.397606 0.599477
v 0.154502 0.475488 0.553989
v 0.154502 0.475488 0.406787
v 0.338711 0.397606 0.361298
v 0.452562 0.349471 0.480388
v 0.308248 0.467501 0.480388
vn 0.3827 0.3107 -0.8701
vn 0.9239 0.1287 -0.3604
vn 0.9239 -0.1287 0.3604
vn 0.3827 -0.3107 0.8701
vn -0.3827 -0.3107 0.8701
vn -0.9239 -0.1287 0.3604
vn -0.0000 0.9417 0.3363
vn -0.9239 0.1287 -0.3604
vn -0.3827 0.3107 -0.8701
vn -0.0000 -0.9417 -0.3363
vn 0.4397 -0.7830 0.4400
vn 0.6802 -0.7330 -0.0000
vn 0.1096 -0.9535 0.2806
vn 0.1096 -0.9535 -0.2806
vn 0.4397 -0.7830 -0.4400
vn 0.9998 0.0177 -0.0000
vn 0.3042 -0.1724 0.9369
vn -0.4772 -0.5557 0.6808
vn -0.4772 -0.5557 -0.6808
vn 0.3042 -0.1724 -0.9369
vn 0.4772 0.5557 0.6808
vn -0.3042 0.1724 0.9369
vn -0.9998 -0.0177 -0.0000
vn -0.3042 0.1724 -0.9369
vn 0.4772 0.5557 -0.6808
vn -0.1096 0.9535 0.2806
vn -0.4397 0.7830 0.4400
vn -0.6802 0.7330 -0.0000
vn -0.4397 0.7830 -0.4400
vn -0.1096 0.9535 -0.2806
vn -0.2554 -0.8609 0.4400
vn -0.0519 -0.9987 -0.0000
vn -0.6077 -0.7430 0.2806
vn -0.6077 -0.7430 -0.2806
vn -0.2554 -0.8609 -0.4400
vn 0.7093 -0.7049 -0.0000
vn 0.0883 -0.3383 0.9369
vn -0.7311 -0.0448 0.6808
vn -0.7311 -0.0448 -0.6808
vn 0.0883 -0.3383 -0.9369
vn 0.7311 0.0448 0.6808
vn -0.0883 0.3383 0.9369
vn -0.7093 0.7049 -0.0000
vn -0.0883 0.3383 -0.9369
vn 0.7311 0.0448 -0.6808
vn 0.6077 0.7430 0.2806
vn 0.2554 0.8609 0.4400
vn 0.0519 0.9987 -0.0000
vn 0.2554 0.8609 -0.4400
vn 0.6077 0.7430 -0.2806
vn 0.2895 -0.4899 -0.8223
vn 0.8339 -0.4728 -0.2847
vn 0.8899 -0.1788 0.4197
vn 0.4245 0.2200 0.8783
vn -0.2895 0.4899 0.8223
vn -0.8339 0.4728 0.2847
vn 0.3526 0.8533 -0.3842
vn -0.8899 0.1788 -0.4197
vn -0.4245 -0.2200 -0.8783
vn -0.3526 -0.8533 0.3842
vn 0.2870 0.2814 -0.9157
vn 0.7257 0.5828 -0.3657
vn 0.7393 0.5428 0.3985
vn 0.3198 0.1848 0.9293
vn -0.2870 -0.2814 0.9157
vn -0.7257 -0.5828 0.3657
vn -0.6092 0.7913 0.0523
vn -0.7393 -0.5428 -0.3985
vn -0.3198 -0.1848 -0.9293
vn 0.6092 -0.7913 -0.0523
vn 0.3864 0.0493 -0.9210
vn 0.9168 -0.0940 -0.3882
vn 0.9101 -0.1823 0.3721
vn 0.3703 -0.1638 0.9143
vn -0.3864 -0.0493 0.9210
vn -0.9168 0.0940 0.3882
vn 0.1495 0.9820 0.1153
vn -0.9101 0.1823 -0.3721
vn -0.3703 0.1638 -0.9143
vn -0.1495 -0.9820 -0.1153
vn 0.4135 -0.5222 -0.7459
vn 0.9319 -0.1357 -0.3364
vn 0.9044 0.3302 0.2701
vn 0.3472 0.6027 0.7185
vn -0.4135 0.5222 0.7459
vn -0.9319 0.1357 0.3364
vn -0.1053 0.7863 -0.6088
vn -0.9044 -0.3302 -0.2701
vn -0.3472 -0.6027 -0.7185
vn 0.1053 -0.7863 0.6088
vn 0.2374 0.6757 -0.6979
vn 0.8026 0.5641 -0.1940
vn 0.8976 0.1220 0.4235
vn 0.4669 -0.3915 0.7930
vn -0.2374 -0.6757 0.6979
vn -0.8026 -0.5641 0.1940
vn -0.3713 0.7270 0.5776
vn -0.8976 -0.1220 -0.4235
vn -0.4669 0.3915 -0.7930
vn 0.3713 -0.7270 -0.5776
vn 0.3681 -0.1340 -0.9201
vn 0.9000 -0.2196 -0.3764
vn 0.9047 -0.1765 0.3877
vn 0.3794 -0.0300 0.9247
vn -0.3681 0.1340 0.9201
vn -0.9000 0.2196 0.3764
vn 0.2144 0.9751 -0.0563
vn -0.9047 0.1765 -0.3877
vn -0.3794 0.0300 -0.9247
vn -0.2144 -0.9751 0.0563
vn 0.3892 -0.0362 -0.9205
vn 0.8793 0.2487 -0.4062
vn 0.8543 0.3880 0.3459
vn 0.3289 0.2999 0.8955
vn -0.3892 0.0362 0.9205
vn -0.8793 -0.2487 0.4062
vn -0.3446 0.9210 -0.1819
vn -0.8543 -0.3880 -0.3459
vn -0.3289 -0.2999 -0.8955
vn 0.3446 -0.9210 0.1819
vn 0.4734 0.5726 -0.6694
vn 0.9300 0.0388 -0.3654
vn 0.8418 -0.5177 0.1525
vn 0.2605 -0.7710 0.5812
vn -0.4734 -0.5726 0.6694
vn -0.9300 -0.0388 0.3654
vn 0.2592 0.6357 0.7271
vn -0.8418 0.5177 -0.1525
vn -0.2605 0.7710 -0.5812
vn -0.2592 -0.6357 -0.7271
vn 0.2143 0.9751 -0.0563
vn -0.2143 -0.9751 0.0563
vn -0.3892 0.0362 0.9204
vt 0.125000 0.875000
vt 0.375000 0.125000
vt 0.125000 0.125000
s 0
usemtl WorldPickupPalette
f 2/1/1 3/1/1 1/1/1
f 3/1/2 6/1/2 5/1/2
f 6/1/3 7/1/3 5/1/3
f 8/1/4 9/1/4 7/1/4
f 9/1/5 12/1/5 11/1/5
f 12/1/6 13/1/6 11/1/6
f 2/1/7 14/1/7 10/1/7
f 14/1/8 15/1/8 13/1/8
f 15/1/9 2/1/9 1/1/9
f 11/1/10 13/1/10 15/1/10
f 17/2/11 18/2/11 19/2/11
f 18/2/12 17/2/12 22/2/12
f 17/2/13 19/2/13 20/2/13
f 17/2/14 20/2/14 21/2/14
f 17/2/15 21/2/15 22/2/15
f 18/2/16 22/2/16 27/2/16
f 19/2/17 18/2/17 23/2/17
f 20/2/18 19/2/18 24/2/18
f 21/2/19 20/2/19 25/2/19
f 22/2/20 21/2/20 26/2/20
f 18/2/21 27/2/21 23/2/21
f 19/2/22 23/2/22 24/2/22
f 20/2/23 24/2/23 25/2/23
f 21/2/24 25/2/24 26/2/24
f 22/2/25 26/2/25 27/2/25
f 23/2/26 27/2/26 28/2/26
f 24/2/27 23/2/27 28/2/27
f 25/2/28 24/2/28 28/2/28
f 26/2/29 25/2/29 28/2/29
f 27/2/30 26/2/30 28/2/30
f 29/2/31 30/2/31 31/2/31
f 30/2/32 29/2/32 34/2/32
f 29/2/33 31/2/33 32/2/33
f 29/2/34 32/2/34 33/2/34
f 29/2/35 33/2/35 34/2/35
f 30/2/36 34/2/36 39/2/36
f 31/2/37 30/2/37 35/2/37
f 32/2/38 31/2/38 36/2/38
f 33/2/39 32/2/39 37/2/39
f 34/2/40 33/2/40 38/2/40
f 30/2/41 39/2/41 35/2/41
f 31/2/42 35/2/42 36/2/42
f 32/2/43 36/2/43 37/2/43
f 33/2/44 37/2/44 38/2/44
f 34/2/45 38/2/45 39/2/45
f 35/2/46 39/2/46 40/2/46
f 36/2/47 35/2/47 40/2/47
f 37/2/48 36/2/48 40/2/48
f 38/2/49 37/2/49 40/2/49
f 39/2/50 38/2/50 40/2/50
f 41/1/51 44/1/51 43/1/51
f 44/1/52 45/1/52 43/1/52
f 46/1/53 47/1/53 45/1/53
f 48/1/54 49/1/54 47/1/54
f 49/1/55 52/1/55 51/1/55
f 52/1/56 53/1/56 51/1/56
f 50/1/57 48/1/57 46/1/57
f 54/1/58 55/1/58 53/1/58
f 56/1/59 41/1/59 55/1/59
f 47/1/60 51/1/60 55/1/60
f 57/3/11 58/3/11 59/3/11
f 58/3/12 57/3/12 62/3/12
f 57/3/13 59/3/13 60/3/13
f 57/3/14 60/3/14 61/3/14
f 57/3/15 61/3/15 62/3/15
f 58/3/16 62/3/16 67/3/16
f 59/3/17 58/3/17 63/3/17
f 60/3/18 59/3/18 64/3/18
f 61/3/19 60/3/19 65/3/19
f 62/3/20 61/3/20 66/3/20
f 58/3/21 67/3/21 63/3/21
f 59/3/22 63/3/22 64/3/22
f 60/3/23 64/3/23 65/3/23
f 61/3/24 65/3/24 66/3/24
f 62/3/25 66/3/25 67/3/25
f 63/3/26 67/3/26 68/3/26
f 64/3/27 63/3/27 68/3/27
f 65/3/28 64/3/28 68/3/28
f 66/3/29 65/3/29 68/3/29
f 67/3/30 66/3/30 68/3/30
f 69/3/31 70/3/31 71/3/31
f 70/3/32 69/3/32 74/3/32
f 69/3/33 71/3/33 72/3/33
f 69/3/34 72/3/34 73/3/34
f 69/3/35 73/3/35 74/3/35
f 70/3/36 74/3/36 79/3/36
f 71/3/37 70/3/37 75/3/37
f 72/3/38 71/3/38 76/3/38
f 73/3/39 72/3/39 77/3/39
f 74/3/40 73/3/40 78/3/40
f 70/3/41 79/3/41 75/3/41
f 71/3/42 75/3/42 76/3/42
f 72/3/43 76/3/43 77/3/43
f 73/3/44 77/3/44 78/3/44
f 74/3/45 78/3/45 79/3/45
f 75/3/46 79/3/46 80/3/46
f 76/3/47 75/3/47 80/3/47
f 77/3/48 76/3/48 80/3/48
f 78/3/49 77/3/49 80/3/49
f 79/3/50 78/3/50 80/3/50
f 82/1/61 83/1/61 81/1/61
f 84/1/62 85/1/62 83/1/62
f 85/1/63 88/1/63 87/1/63
f 88/1/64 89/1/64 87/1/64
f 89/1/65 92/1/65 91/1/65
f 92/1/66 93/1/66 91/1/66
f 86/1/67 82/1/67 94/1/67
f 94/1/68 95/1/68 93/1/68
f 96/1/69 81/1/69 95/1/69
f 91/1/70 93/1/70 95/1/70
f 97/3/11 98/3/11 99/3/11
f 98/3/12 97/3/12 102/3/12
f 97/3/13 99/3/13 100/3/13
f 97/3/14 100/3/14 101/3/14
f 97/3/15 101/3/15 102/3/15
f 98/3/16 102/3/16 107/3/16
f 99/3/17 98/3/17 103/3/17
f 100/3/18 99/3/18 104/3/18
f 101/3/19 100/3/19 105/3/19
f 102/3/20 101/3/20 106/3/20
f 98/3/21 107/3/21 103/3/21
f 99/3/22 103/3/22 104/3/22
f 100/3/23 104/3/23 105/3/23
f 101/3/24 105/3/24 106/3/24
f 102/3/25 106/3/25 107/3/25
f 103/3/26 107/3/26 108/3/26
f 104/3/27 103/3/27 108/3/27
f 105/3/28 104/3/28 108/3/28
f 106/3/29 105/3/29 108/3/29
f 107/3/30 106/3/30 108/3/30
f 109/3/31 110/3/31 111/3/31
f 110/3/32 109/3/32 114/3/32
f 109/3/33 111/3/33 112/3/33
f 109/3/34 112/3/34 113/3/34
f 109/3/35 113/3/35 114/3/35
f 110/3/36 114/3/36 119/3/36
f 111/3/37 110/3/37 115/3/37
f 112/3/38 111/3/38 116/3/38
f 113/3/39 112/3/39 117/3/39
f 114/3/40 113/3/40 118/3/40
f 110/3/41 119/3/41 115/3/41
f 111/3/42 115/3/42 116/3/42
f 112/3/43 116/3/43 117/3/43
f 113/3/44 117/3/44 118/3/44
f 114/3/45 118/3/45 119/3/45
f 115/3/46 119/3/46 120/3/46
f 116/3/47 115/3/47 120/3/47
f 117/3/48 116/3/48 120/3/48
f 118/3/49 117/3/49 120/3/49
f 119/3/50 118/3/50 120/3/50
f 121/1/71 124/1/71 123/1/71
f 124/1/72 125/1/72 123/1/72
f 126/1/73 127/1/73 125/1/73
f 128/1/74 129/1/74 127/1/74
f 129/1/75 132/1/75 131/1/75
f 132/1/76 133/1/76 131/1/76
f 126/1/77 122/1/77 134/1/77
f 134/1/78 135/1/78 133/1/78
f 136/1/79 121/1/79 135/1/79
f 135/1/80 123/1/80 127/1/80
f 137/2/11 138/2/11 139/2/11
f 138/2/12 137/2/12 142/2/12
f 137/2/13 139/2/13 140/2/13
f 137/2/14 140/2/14 141/2/14
f 137/2/15 141/2/15 142/2/15
f 138/2/16 142/2/16 147/2/16
f 139/2/17 138/2/17 143/2/17
f 140/2/18 139/2/18 144/2/18
f 141/2/19 140/2/19 145/2/19
f 142/2/20 141/2/20 146/2/20
f 138/2/21 147/2/21 143/2/21
f 139/2/22 143/2/22 144/2/22
f 140/2/23 144/2/23 145/2/23
f 141/2/24 145/2/24 146/2/24
f 142/2/25 146/2/25 147/2/25
f 143/2/26 147/2/26 148/2/26
f 144/2/27 143/2/27 148/2/27
f 145/2/28 144/2/28 148/2/28
f 146/2/29 145/2/29 148/2/29
f 147/2/30 146/2/30 148/2/30
f 149/2/31 150/2/31 151/2/31
f 150/2/32 149/2/32 154/2/32
f 149/2/33 151/2/33 152/2/33
f 149/2/34 152/2/34 153/2/34
f 149/2/35 153/2/35 154/2/35
f 150/2/36 154/2/36 159/2/36
f 151/2/37 150/2/37 155/2/37
f 152/2/38 151/2/38 156/2/38
f 153/2/39 152/2/39 157/2/39
f 154/2/40 153/2/40 158/2/40
f 150/2/41 159/2/41 155/2/41
f 151/2/42 155/2/42 156/2/42
f 152/2/43 156/2/43 157/2/43
f 153/2/44 157/2/44 158/2/44
f 154/2/45 158/2/45 159/2/45
f 155/2/46 159/2/46 160/2/46
f 156/2/47 155/2/47 160/2/47
f 157/2/48 156/2/48 160/2/48
f 158/2/49 157/2/49 160/2/49
f 159/2/50 158/2/50 160/2/50
f 162/1/81 163/1/81 161/1/81
f 164/1/82 165/1/82 163/1/82
f 166/1/83 167/1/83 165/1/83
f 167/1/84 170/1/84 169/1/84
f 170/1/85 171/1/85 169/1/85
f 171/1/86 174/1/86 173/1/86
f 162/1/87 174/1/87 170/1/87
f 174/1/88 175/1/88 173/1/88
f 176/1/89 161/1/89 175/1/89
f 167/1/90 171/1/90 175/1/90
f 177/3/11 178/3/11 179/3/11
f 178/3/12 177/3/12 182/3/12
f 177/3/13 179/3/13 180/3/13
f 177/3/14 180/3/14 181/3/14
f 177/3/15 181/3/15 182/3/15
f 178/3/16 182/3/16 187/3/16
f 179/3/17 178/3/17 183/3/17
f 180/3/18 179/3/18 184/3/18
f 181/3/19 180/3/19 185/3/19
f 182/3/20 181/3/20 186/3/20
f 178/3/21 187/3/21 183/3/21
f 179/3/22 183/3/22 184/3/22
f 180/3/23 184/3/23 185/3/23
f 181/3/24 185/3/24 186/3/24
f 182/3/25 186/3/25 187/3/25
f 183/3/26 187/3/26 188/3/26
f 184/3/27 183/3/27 188/3/27
f 185/3/28 184/3/28 188/3/28
f 186/3/29 185/3/29 188/3/29
f 187/3/30 186/3/30 188/3/30
f 189/3/31 190/3/31 191/3/31
f 190/3/32 189/3/32 194/3/32
f 189/3/33 191/3/33 192/3/33
f 189/3/34 192/3/34 193/3/34
f 189/3/35 193/3/35 194/3/35
f 190/3/36 194/3/36 199/3/36
f 191/3/37 190/3/37 195/3/37
f 192/3/38 191/3/38 196/3/38
f 193/3/39 192/3/39 197/3/39
f 194/3/40 193/3/40 198/3/40
f 190/3/41 199/3/41 195/3/41
f 191/3/42 195/3/42 196/3/42
f 192/3/43 196/3/43 197/3/43
f 193/3/44 197/3/44 198/3/44
f 194/3/45 198/3/45 199/3/45
f 195/3/46 199/3/46 200/3/46
f 196/3/47 195/3/47 200/3/47
f 197/3/48 196/3/48 200/3/48
f 198/3/49 197/3/49 200/3/49
f 199/3/50 198/3/50 200/3/50
f 202/1/91 203/1/91 201/1/91
f 204/1/92 205/1/92 203/1/92
f 206/1/93 207/1/93 205/1/93
f 208/1/94 209/1/94 207/1/94
f 210/1/95 211/1/95 209/1/95
f 211/1/96 214/1/96 213/1/96
f 206/1/97 202/1/97 214/1/97
f 214/1/98 215/1/98 213/1/98
f 215/1/99 202/1/99 201/1/99
f 215/1/100 203/1/100 207/1/100
f 217/3/11 218/3/11 219/3/11
f 218/3/12 217/3/12 222/3/12
f 217/3/13 219/3/13 220/3/13
f 217/3/14 220/3/14 221/3/14
f 217/3/15 221/3/15 222/3/15
f 218/3/16 222/3/16 227/3/16
f 219/3/17 218/3/17 223/3/17
f 220/3/18 219/3/18 224/3/18
f 221/3/19 220/3/19 225/3/19
f 222/3/20 221/3/20 226/3/20
f 218/3/21 227/3/21 223/3/21
f 219/3/22 223/3/22 224/3/22
f 220/3/23 224/3/23 225/3/23
f 221/3/24 225/3/24 226/3/24
f 222/3/25 226/3/25 227/3/25
f 223/3/26 227/3/26 228/3/26
f 224/3/27 223/3/27 228/3/27
f 225/3/28 224/3/28 228/3/28
f 226/3/29 225/3/29 228/3/29
f 227/3/30 226/3/30 228/3/30
f 229/3/31 230/3/31 231/3/31
f 230/3/32 229/3/32 234/3/32
f 229/3/33 231/3/33 232/3/33
f 229/3/34 232/3/34 233/3/34
f 229/3/35 233/3/35 234/3/35
f 230/3/36 234/3/36 239/3/36
f 231/3/37 230/3/37 235/3/37
f 232/3/38 231/3/38 236/3/38
f 233/3/39 232/3/39 237/3/39
f 234/3/40 233/3/40 238/3/40
f 230/3/41 239/3/41 235/3/41
f 231/3/42 235/3/42 236/3/42
f 232/3/43 236/3/43 237/3/43
f 233/3/44 237/3/44 238/3/44
f 234/3/45 238/3/45 239/3/45
f 235/3/46 239/3/46 240/3/46
f 236/3/47 235/3/47 240/3/47
f 237/3/48 236/3/48 240/3/48
f 238/3/49 237/3/49 240/3/49
f 239/3/50 238/3/50 240/3/50
f 242/1/101 243/1/101 241/1/101
f 243/1/102 246/1/102 245/1/102
f 246/1/103 247/1/103 245/1/103
f 248/1/104 249/1/104 247/1/104
f 249/1/105 252/1/105 251/1/105
f 252/1/106 253/1/106 251/1/106
f 254/1/107 250/1/107 246/1/107
f 253/1/108 256/1/108 255/1/108
f 255/1/109 242/1/109 241/1/109
f 255/1/110 243/1/110 247/1/110
f 257/2/11 258/2/11 259/2/11
f 258/2/12 257/2/12 262/2/12
f 257/2/13 259/2/13 260/2/13
f 257/2/14 260/2/14 261/2/14
f 257/2/15 261/2/15 262/2/15
f 258/2/16 262/2/16 267/2/16
f 259/2/17 258/2/17 263/2/17
f 260/2/18 259/2/18 264/2/18
f 261/2/19 260/2/19 265/2/19
f 262/2/20 261/2/20 266/2/20
f 258/2/21 267/2/21 263/2/21
f 259/2/22 263/2/22 264/2/22
f 260/2/23 264/2/23 265/2/23
f 261/2/24 265/2/24 266/2/24
f 262/2/25 266/2/25 267/2/25
f 263/2/26 267/2/26 268/2/26
f 264/2/27 263/2/27 268/2/27
f 265/2/28 264/2/28 268/2/28
f 266/2/29 265/2/29 268/2/29
f 267/2/30 266/2/30 268/2/30
f 269/2/31 270/2/31 271/2/31
f 270/2/32 269/2/32 274/2/32
f 269/2/33 271/2/33 272/2/33
f 269/2/34 272/2/34 273/2/34
f 269/2/35 273/2/35 274/2/35
f 270/2/36 274/2/36 279/2/36
f 271/2/37 270/2/37 275/2/37
f 272/2/38 271/2/38 276/2/38
f 273/2/39 272/2/39 277/2/39
f 274/2/40 273/2/40 278/2/40
f 270/2/41 279/2/41 275/2/41
f 271/2/42 275/2/42 276/2/42
f 272/2/43 276/2/43 277/2/43
f 273/2/44 277/2/44 278/2/44
f 274/2/45 278/2/45 279/2/45
f 275/2/46 279/2/46 280/2/46
f 276/2/47 275/2/47 280/2/47
f 277/2/48 276/2/48 280/2/48
f 278/2/49 277/2/49 280/2/49
f 279/2/50 278/2/50 280/2/50
f 282/1/111 283/1/111 281/1/111
f 283/1/112 286/1/112 285/1/112
f 286/1/113 287/1/113 285/1/113
f 287/1/114 290/1/114 289/1/114
f 289/1/115 292/1/115 291/1/115
f 292/1/116 293/1/116 291/1/116
f 290/1/117 288/1/117 286/1/117
f 294/1/118 295/1/118 293/1/118
f 296/1/119 281/1/119 295/1/119
f 283/1/120 287/1/120 291/1/120
f 297/3/11 298/3/11 299/3/11
f 298/3/12 297/3/12 302/3/12
f 297/3/13 299/3/13 300/3/13
f 297/3/14 300/3/14 301/3/14
f 297/3/15 301/3/15 302/3/15
f 298/3/16 302/3/16 307/3/16
f 299/3/17 298/3/17 303/3/17
f 300/3/18 299/3/18 304/3/18
f 301/3/19 300/3/19 305/3/19
f 302/3/20 301/3/20 306/3/20
f 298/3/21 307/3/21 303/3/21
f 299/3/22 303/3/22 304/3/22
f 300/3/23 304/3/23 305/3/23
f 301/3/24 305/3/24 306/3/24
f 302/3/25 306/3/25 307/3/25
f 303/3/26 307/3/26 308/3/26
f 304/3/27 303/3/27 308/3/27
f 305/3/28 304/3/28 308/3/28
f 306/3/29 305/3/29 308/3/29
f 307/3/30 306/3/30 308/3/30
f 309/3/31 310/3/31 311/3/31
f 310/3/32 309/3/32 314/3/32
f 309/3/33 311/3/33 312/3/33
f 309/3/34 312/3/34 313/3/34
f 309/3/35 313/3/35 314/3/35
f 310/3/36 314/3/36 319/3/36
f 311/3/37 310/3/37 315/3/37
f 312/3/38 311/3/38 316/3/38
f 313/3/39 312/3/39 317/3/39
f 314/3/40 313/3/40 318/3/40
f 310/3/41 319/3/41 315/3/41
f 311/3/42 315/3/42 316/3/42
f 312/3/43 316/3/43 317/3/43
f 313/3/44 317/3/44 318/3/44
f 314/3/45 318/3/45 319/3/45
f 315/3/46 319/3/46 320/3/46
f 316/3/47 315/3/47 320/3/47
f 317/3/48 316/3/48 320/3/48
f 318/3/49 317/3/49 320/3/49
f 319/3/50 318/3/50 320/3/50
f 322/1/121 323/1/121 321/1/121
f 323/1/122 326/1/122 325/1/122
f 326/1/123 327/1/123 325/1/123
f 328/1/124 329/1/124 327/1/124
f 329/1/125 332/1/125 331/1/125
f 332/1/126 333/1/126 331/1/126
f 330/1/127 328/1/127 326/1/127
f 333/1/128 336/1/128 335/1/128
f 336/1/129 321/1/129 335/1/129
f 331/1/130 333/1/130 335/1/130
f 337/3/11 338/3/11 339/3/11
f 338/3/12 337/3/12 342/3/12
f 337/3/13 339/3/13 340/3/13
f 337/3/14 340/3/14 341/3/14
f 337/3/15 341/3/15 342/3/15
f 338/3/16 342/3/16 347/3/16
f 339/3/17 338/3/17 343/3/17
f 340/3/18 339/3/18 344/3/18
f 341/3/19 340/3/19 345/3/19
f 342/3/20 341/3/20 346/3/20
f 338/3/21 347/3/21 343/3/21
f 339/3/22 343/3/22 344/3/22
f 340/3/23 344/3/23 345/3/23
f 341/3/24 345/3/24 346/3/24
f 342/3/25 346/3/25 347/3/25
f 343/3/26 347/3/26 348/3/26
f 344/3/27 343/3/27 348/3/27
f 345/3/28 344/3/28 348/3/28
f 346/3/29 345/3/29 348/3/29
f 347/3/30 346/3/30 348/3/30
f 349/3/31 350/3/31 351/3/31
f 350/3/32 349/3/32 354/3/32
f 349/3/33 351/3/33 352/3/33
f 349/3/34 352/3/34 353/3/34
f 349/3/35 353/3/35 354/3/35
f 350/3/36 354/3/36 359/3/36
f 351/3/37 350/3/37 355/3/37
f 352/3/38 351/3/38 356/3/38
f 353/3/39 352/3/39 357/3/39
f 354/3/40 353/3/40 358/3/40
f 350/3/41 359/3/41 355/3/41
f 351/3/42 355/3/42 356/3/42
f 352/3/43 356/3/43 357/3/43
f 353/3/44 357/3/44 358/3/44
f 354/3/45 358/3/45 359/3/45
f 355/3/46 359/3/46 360/3/46
f 356/3/47 355/3/47 360/3/47
f 357/3/48 356/3/48 360/3/48
f 358/3/49 357/3/49 360/3/49
f 359/3/50 358/3/50 360/3/50
f 2/1/1 4/1/1 3/1/1
f 3/1/2 4/1/2 6/1/2
f 6/1/3 8/1/3 7/1/3
f 8/1/4 10/1/4 9/1/4
f 9/1/5 10/1/5 12/1/5
f 12/1/6 14/1/6 13/1/6
f 6/1/7 4/1/7 2/1/7
f 2/1/7 16/1/7 14/1/7
f 14/1/7 12/1/7 10/1/7
f 10/1/7 8/1/7 6/1/7
f 6/1/7 2/1/7 10/1/7
f 14/1/8 16/1/8 15/1/8
f 15/1/9 16/1/9 2/1/9
f 15/1/10 1/1/10 7/1/10
f 1/1/10 3/1/10 7/1/10
f 3/1/10 5/1/10 7/1/10
f 7/1/10 9/1/10 15/1/10
f 9/1/10 11/1/10 15/1/10
f 41/1/51 42/1/51 44/1/51
f 44/1/52 46/1/52 45/1/52
f 46/1/53 48/1/53 47/1/53
f 48/1/54 50/1/54 49/1/54
f 49/1/55 50/1/55 52/1/55
f 52/1/56 54/1/56 53/1/56
f 46/1/57 44/1/57 42/1/57
f 42/1/57 56/1/57 46/1/57
f 56/1/57 54/1/57 46/1/57
f 54/1/57 52/1/57 46/1/57
f 52/1/57 50/1/57 46/1/57
f 54/1/58 56/1/58 55/1/58
f 56/1/59 42/1/59 41/1/59
f 55/1/60 41/1/60 43/1/60
f 43/1/60 45/1/60 55/1/60
f 45/1/60 47/1/60 55/1/60
f 47/1/60 49/1/60 51/1/60
f 51/1/60 53/1/60 55/1/60
f 82/1/61 84/1/61 83/1/61
f 84/1/62 86/1/62 85/1/62
f 85/1/63 86/1/63 88/1/63
f 88/1/64 90/1/64 89/1/64
f 89/1/65 90/1/65 92/1/65
f 92/1/66 94/1/66 93/1/66
f 86/1/67 84/1/67 82/1/67
f 82/1/67 96/1/67 94/1/67
f 94/1/67 92/1/67 90/1/67
f 90/1/67 88/1/67 94/1/67
f 88/1/67 86/1/67 94/1/67
f 94/1/68 96/1/68 95/1/68
f 96/1/69 82/1/69 81/1/69
f 95/1/70 81/1/70 83/1/70
f 83/1/70 85/1/70 95/1/70
f 85/1/70 87/1/70 95/1/70
f 87/1/70 89/1/70 95/1/70
f 89/1/70 91/1/70 95/1/70
f 121/1/71 122/1/71 124/1/71
f 124/1/72 126/1/72 125/1/72
f 126/1/73 128/1/73 127/1/73
f 128/1/74 130/1/74 129/1/74
f 129/1/75 130/1/75 132/1/75
f 132/1/76 134/1/76 133/1/76
f 126/1/77 124/1/77 122/1/77
f 122/1/77 136/1/77 134/1/77
f 134/1/77 132/1/77 130/1/77
f 130/1/77 128/1/77 134/1/77
f 128/1/77 126/1/77 134/1/77
f 134/1/78 136/1/78 135/1/78
f 136/1/79 122/1/79 121/1/79
f 135/1/80 121/1/80 123/1/80
f 123/1/80 125/1/80 127/1/80
f 127/1/80 129/1/80 131/1/80
f 131/1/80 133/1/80 127/1/80
f 133/1/80 135/1/80 127/1/80
f 162/1/81 164/1/81 163/1/81
f 164/1/82 166/1/82 165/1/82
f 166/1/83 168/1/83 167/1/83
f 167/1/84 168/1/84 170/1/84
f 170/1/85 172/1/85 171/1/85
f 171/1/86 172/1/86 174/1/86
f 166/1/87 164/1/87 162/1/87
f 162/1/87 176/1/87 174/1/87
f 174/1/87 172/1/87 170/1/87
f 170/1/87 168/1/87 166/1/87
f 166/1/87 162/1/87 170/1/87
f 174/1/88 176/1/88 175/1/88
f 176/1/89 162/1/89 161/1/89
f 175/1/90 161/1/90 167/1/90
f 161/1/90 163/1/90 167/1/90
f 163/1/90 165/1/90 167/1/90
f 167/1/90 169/1/90 171/1/90
f 171/1/90 173/1/90 175/1/90
f 202/1/91 204/1/91 203/1/91
f 204/1/92 206/1/92 205/1/92
f 206/1/93 208/1/93 207/1/93
f 208/1/94 210/1/94 209/1/94
f 210/1/95 212/1/95 211/1/95
f 211/1/96 212/1/96 214/1/96
f 206/1/97 204/1/97 202/1/97
f 202/1/97 216/1/97 214/1/97
f 214/1/97 212/1/97 206/1/97
f 212/1/97 210/1/97 206/1/97
f 210/1/97 208/1/97 206/1/97
f 214/1/98 216/1/98 215/1/98
f 215/1/99 216/1/99 202/1/99
f 215/1/100 201/1/100 203/1/100
f 203/1/100 205/1/100 207/1/100
f 207/1/100 209/1/100 215/1/100
f 209/1/100 211/1/100 215/1/100
f 211/1/100 213/1/100 215/1/100
f 242/1/101 244/1/101 243/1/101
f 243/1/102 244/1/102 246/1/102
f 246/1/103 248/1/103 247/1/103
f 248/1/104 250/1/104 249/1/104
f 249/1/105 250/1/105 252/1/105
f 252/1/106 254/1/106 253/1/106
f 246/1/131 244/1/131 242/1/131
f 242/1/107 256/1/107 246/1/107
f 256/1/131 254/1/131 246/1/131
f 254/1/131 252/1/131 250/1/131
f 250/1/131 248/1/131 246/1/131
f 253/1/108 254/1/108 256/1/108
f 255/1/109 256/1/109 242/1/109
f 255/1/110 241/1/110 243/1/110
f 243/1/132 245/1/132 247/1/132
f 247/1/110 249/1/110 251/1/110
f 251/1/110 253/1/110 247/1/110
f 253/1/110 255/1/110 247/1/110
f 282/1/111 284/1/111 283/1/111
f 283/1/112 284/1/112 286/1/112
f 286/1/113 288/1/113 287/1/113
f 287/1/114 288/1/114 290/1/114
f 289/1/133 290/1/133 292/1/133
f 292/1/116 294/1/116 293/1/116
f 286/1/117 284/1/117 294/1/117
f 284/1/117 282/1/117 294/1/117
f 282/1/117 296/1/117 294/1/117
f 294/1/117 292/1/117 286/1/117
f 292/1/117 290/1/117 286/1/117
f 294/1/118 296/1/118 295/1/118
f 296/1/119 282/1/119 281/1/119
f 295/1/120 281/1/120 283/1/120
f 283/1/120 285/1/120 287/1/120
f 287/1/120 289/1/120 291/1/120
f 291/1/120 293/1/120 295/1/120
f 295/1/120 283/1/120 291/1/120
f 322/1/121 324/1/121 323/1/121
f 323/1/122 324/1/122 326/1/122
f 326/1/123 328/1/123 327/1/123
f 328/1/124 330/1/124 329/1/124
f 329/1/125 330/1/125 332/1/125
f 332/1/126 334/1/126 333/1/126
f 326/1/127 324/1/127 322/1/127
f 322/1/127 336/1/127 326/1/127
f 336/1/127 334/1/127 326/1/127
f 334/1/127 332/1/127 326/1/127
f 332/1/127 330/1/127 326/1/127
f 333/1/128 334/1/128 336/1/128
f 336/1/129 322/1/129 321/1/129
f 335/1/130 321/1/130 327/1/130
f 321/1/130 323/1/130 327/1/130
f 323/1/130 325/1/130 327/1/130
f 327/1/130 329/1/130 335/1/130
f 329/1/130 331/1/130 335/1/130
