# Blender 5.2.1 LTS
# www.blender.org
mtllib stoneInstances.mtl
o stoneInstances
v -0.067858 0.016131 -0.008460
v 0.586410 0.208349 0.437754
v -0.329068 0.186062 0.746202
v -0.885423 0.193157 -0.008460
v -0.362919 0.188424 -0.860922
v 0.528940 0.188823 -0.415478
v 0.153490 0.683628 0.631037
v -0.834174 0.699736 0.514171
v -0.834785 0.714461 -0.531507
v 0.206842 0.716785 -0.802095
v 0.852483 0.721320 -0.008460
v -0.067858 1.000000 -0.008460
v -0.219849 0.019953 0.430658
v 0.379778 0.053325 0.296829
v 0.147359 0.161617 0.613300
v 0.648193 0.157668 -0.008460
v 0.320633 0.018959 -0.273412
v -0.513441 0.000000 -0.008460
v -0.748054 0.140623 0.455440
v -0.198627 0.032405 -0.386264
v -0.799941 0.136378 -0.507748
v 0.190864 0.138634 -0.755906
v 0.784678 0.452295 0.251564
v 0.947992 0.452295 -0.318294
v -0.067858 0.452295 0.947992
v 0.512792 0.452295 0.741752
v -0.863989 0.452295 0.234361
v -0.540632 0.452295 0.602375
v -0.620620 0.452295 -0.722641
v -0.947992 0.452295 -0.276901
v 0.448850 0.452295 -0.676057
v -0.067858 0.452295 -0.947992
v 0.599527 0.734710 0.446703
v -0.333931 0.730846 0.760223
v -0.921771 0.732091 -0.008460
v -0.323623 0.734250 -0.747365
v 0.635716 0.723790 -0.488304
v 0.081568 0.921660 0.423245
v 0.422417 0.959962 -0.008460
v -0.438865 0.950297 0.244569
v -0.522349 0.885197 -0.318425
v 0.103192 0.883114 -0.502639
v -0.061680 0.163510 0.308924
v 0.185931 0.219689 0.466599
v -0.156257 0.219689 0.564049
v -0.367746 0.219689 0.308924
v -0.156257 0.219689 0.053799
v 0.185931 0.219689 0.151249
v 0.032897 0.310589 0.564049
v -0.309291 0.310589 0.466599
v -0.309291 0.310589 0.151249
v 0.032897 0.310589 0.053799
v 0.244386 0.310589 0.308924
v -0.061680 0.366769 0.308924
v -0.484934 0.306546 -0.272090
v -0.302229 0.387114 -0.078395
v -0.554720 0.387114 0.041318
v -0.710771 0.387114 -0.272090
v -0.554720 0.387114 -0.585497
v -0.302229 0.387114 -0.465784
v -0.415148 0.517476 0.041318
v -0.667639 0.517476 -0.078395
v -0.667639 0.517476 -0.465784
v -0.415148 0.517476 -0.585497
v -0.259097 0.517476 -0.272090
v -0.484934 0.598044 -0.272090
v -0.349299 0.483781 -0.292744
v -0.161168 0.569833 -0.037574
v -0.421157 0.569833 0.120133
v -0.581844 0.569833 -0.292744
v -0.421157 0.569833 -0.705620
v -0.161168 0.569833 -0.547913
v -0.277441 0.709069 0.120133
v -0.537430 0.709069 -0.037574
v -0.537430 0.709069 -0.547913
v -0.277441 0.709069 -0.705620
v -0.116754 0.709069 -0.292744
v -0.349299 0.795121 -0.292744
vn 0.0623 -0.9976 0.0302
vn 0.5163 -0.8400 0.1669
vn 0.0362 -0.9991 0.0212
vn 0.0361 -0.9978 -0.0555
vn -0.0179 -0.9992 -0.0369
vn 0.8252 -0.5369 0.1752
vn 0.1609 -0.6916 0.7041
vn -0.9503 -0.1673 0.2625
vn -0.6044 -0.1841 -0.7751
vn 0.6787 -0.4017 -0.6148
vn 0.8278 -0.3224 0.4591
vn -0.5898 -0.0328 0.8069
vn -0.9843 -0.0701 0.1617
vn -0.3750 0.1158 -0.9198
vn 0.4936 -0.5311 -0.6887
vn 0.2130 0.6783 0.7033
vn -0.2618 0.8677 0.4226
vn -0.4233 0.9004 -0.1007
vn -0.0220 0.8707 -0.4913
vn 0.4744 0.8549 -0.2099
vn 0.0797 0.9759 -0.2032
vn 0.2794 0.9049 -0.3212
vn 0.2733 0.8780 -0.3931
vn -0.0713 0.9649 -0.2529
vn -0.1070 0.9213 -0.3738
vn -0.2070 0.8889 -0.4087
vn -0.1891 0.9783 -0.0851
vn -0.3901 0.9195 -0.0485
vn -0.4648 0.8755 0.1321
vn -0.0081 0.9834 0.1813
vn -0.0891 0.9098 0.4053
vn 0.2489 0.6785 0.6911
vn 0.0805 0.9853 0.1509
vn 0.3083 0.8948 0.3228
vn 0.4714 0.8495 0.2370
vn 0.7148 0.6220 -0.3197
vn 0.5751 0.1591 -0.8024
vn 0.5820 0.1519 -0.7989
vn -0.0692 0.5360 -0.8414
vn -0.3599 0.3017 -0.8829
vn -0.3788 0.3229 -0.8673
vn -0.9538 0.2496 -0.1670
vn -0.9848 -0.0630 0.1618
vn -0.9849 -0.0635 0.1611
vn -0.4241 -0.1873 0.8860
vn -0.5900 -0.0195 0.8071
vn 0.2467 0.6926 0.6778
vn 0.2153 0.6731 0.7075
vn 0.8507 0.2317 0.4718
vn 0.8523 0.2363 0.4667
vn 0.4657 0.0044 -0.8849
vn 0.4600 -0.1559 -0.8741
vn 0.1293 -0.4381 -0.8896
vn -0.7860 -0.2212 -0.5773
vn -0.8048 0.0548 -0.5911
vn -0.9297 -0.3483 -0.1196
vn -0.6282 -0.5484 0.5519
vn -0.7382 0.1855 0.6486
vn -0.5695 -0.0085 0.8220
vn 0.2401 0.6966 0.6761
vn 0.2566 -0.6419 0.7225
vn 0.3292 -0.6959 0.6382
vn 0.9610 0.0240 0.2754
vn 0.7918 -0.5671 0.2269
vn 0.5554 -0.8008 -0.2240
vn 0.4529 -0.8293 -0.3275
vn 0.0288 -0.9683 -0.2479
vn -0.0281 -0.9525 -0.3033
vn -0.1093 -0.9549 -0.2760
vn -0.1296 -0.9729 -0.1914
vn -0.4607 -0.8873 0.0220
vn -0.4605 -0.8869 0.0359
vn -0.2107 -0.9600 0.1845
vn -0.1853 -0.8945 0.4068
vn 0.5240 -0.8237 -0.2166
vn 0.3785 -0.9254 0.0165
vn 0.0451 -0.9974 0.0554
vn 0.0918 -0.8677 0.4885
vn 0.1421 -0.8999 0.4123
vn 0.2838 -0.8240 0.4904
vn 0.0679 -0.9688 0.2385
vn 0.2213 -0.9752 -0.0000
vn -0.1785 -0.9727 0.1480
vn -0.1785 -0.9727 -0.1480
vn 0.0679 -0.9688 -0.2385
vn 0.8411 -0.5409 -0.0000
vn 0.2380 -0.4952 0.8356
vn -0.6567 -0.5220 0.5444
vn -0.6567 -0.5220 -0.5444
vn 0.2380 -0.4952 -0.8356
vn 0.6567 0.5220 0.5444
vn -0.2380 0.4952 0.8356
vn -0.8411 0.5409 -0.0000
vn -0.2380 0.4952 -0.8356
vn 0.6567 0.5220 -0.5444
vn 0.1785 0.9727 0.1480
vn -0.0679 0.9688 0.2385
vn -0.2213 0.9752 -0.0000
vn -0.0679 0.9688 -0.2385
vn 0.1785 0.9727 -0.1480
vn 0.1299 -0.9530 0.2739
vn 0.4035 -0.9150 -0.0000
vn -0.3314 -0.9289 0.1650
vn -0.3314 -0.9289 -0.1650
vn 0.1299 -0.9530 -0.2739
vn 0.9494 -0.3141 -0.0000
vn 0.3894 -0.4169 0.8213
vn -0.8406 -0.3438 0.4186
vn -0.8406 -0.3438 -0.4186
vn 0.3894 -0.4169 -0.8213
vn 0.8406 0.3438 0.4186
vn -0.3894 0.4169 0.8213
vn -0.9494 0.3141 -0.0000
vn -0.3894 0.4169 -0.8213
vn 0.8406 0.3438 -0.4186
vn 0.3314 0.9289 0.1650
vn -0.1299 0.9530 0.2739
vn -0.4035 0.9150 -0.0000
vn -0.1299 0.9530 -0.2739
vn 0.3314 0.9289 -0.1650
vn 0.1364 -0.9648 0.2248
vn 0.4160 -0.9094 -0.0000
vn -0.3439 -0.9294 0.1339
vn -0.3439 -0.9294 -0.1339
vn 0.1364 -0.9648 -0.2248
vn 0.9527 -0.3039 -0.0000
vn 0.4572 -0.4720 0.7538
vn -0.8747 -0.3449 0.3404
vn -0.8747 -0.3449 -0.3404
vn 0.4572 -0.4720 -0.7538
vn 0.8747 0.3449 0.3404
vn -0.4572 0.4720 0.7538
vn -0.9527 0.3039 -0.0000
vn -0.4572 0.4720 -0.7538
vn 0.8747 0.3449 -0.3404
vn 0.3439 0.9294 0.1339
vn -0.1364 0.9648 0.2248
vn -0.4160 0.9094 -0.0000
vn -0.1364 0.9648 -0.2248
vn 0.3439 0.9294 -0.1339
vt 0.125000 0.625000
vt 0.375000 0.875000
vt 0.625000 0.125000
s 0
usemtl WorldPickupPalette
f 1/1/1 14/1/1 13/1/1
f 2/1/2 14/1/2 16/1/2
f 1/1/3 13/1/3 18/1/3
f 1/1/4 18/1/4 20/1/4
f 1/1/5 20/1/5 17/1/5
f 2/1/6 16/1/6 23/1/6
f 3/1/7 15/1/7 25/1/7
f 4/1/8 19/1/8 27/1/8
f 5/1/9 21/1/9 29/1/9
f 6/1/10 22/1/10 31/1/10
f 2/1/11 23/1/11 26/1/11
f 3/1/12 25/1/12 28/1/12
f 4/1/13 27/1/13 30/1/13
f 5/1/14 29/1/14 32/1/14
f 6/1/15 31/1/15 24/1/15
f 7/1/16 33/1/16 38/1/16
f 8/1/17 34/1/17 40/1/17
f 9/1/18 35/1/18 41/1/18
f 10/1/19 36/1/19 42/1/19
f 11/1/20 37/1/20 39/1/20
f 39/1/21 42/1/21 12/1/21
f 39/1/22 37/1/22 42/1/22
f 37/1/23 10/1/23 42/1/23
f 42/1/24 41/1/24 12/1/24
f 42/1/25 36/1/25 41/1/25
f 36/1/26 9/1/26 41/1/26
f 41/1/27 40/1/27 12/1/27
f 41/1/28 35/1/28 40/1/28
f 35/1/29 8/1/29 40/1/29
f 40/1/30 38/1/30 12/1/30
f 40/1/31 34/1/31 38/1/31
f 34/1/32 7/1/32 38/1/32
f 38/1/33 39/1/33 12/1/33
f 38/1/34 33/1/34 39/1/34
f 33/1/35 11/1/35 39/1/35
f 24/1/36 37/1/36 11/1/36
f 24/1/37 31/1/37 37/1/37
f 31/1/38 10/1/38 37/1/38
f 32/1/39 36/1/39 10/1/39
f 32/1/40 29/1/40 36/1/40
f 29/1/41 9/1/41 36/1/41
f 30/1/42 35/1/42 9/1/42
f 30/1/43 27/1/43 35/1/43
f 27/1/44 8/1/44 35/1/44
f 28/1/45 34/1/45 8/1/45
f 28/1/46 25/1/46 34/1/46
f 25/1/47 7/1/47 34/1/47
f 26/1/48 33/1/48 7/1/48
f 26/1/49 23/1/49 33/1/49
f 23/1/50 11/1/50 33/1/50
f 31/1/51 32/1/51 10/1/51
f 31/1/52 22/1/52 32/1/52
f 22/1/53 5/1/53 32/1/53
f 29/1/54 30/1/54 9/1/54
f 29/1/55 21/1/55 30/1/55
f 21/1/56 4/1/56 30/1/56
f 27/1/57 28/1/57 8/1/57
f 27/1/58 19/1/58 28/1/58
f 19/1/59 3/1/59 28/1/59
f 25/1/60 26/1/60 7/1/60
f 25/1/61 15/1/61 26/1/61
f 15/1/62 2/1/62 26/1/62
f 23/1/63 24/1/63 11/1/63
f 23/1/64 16/1/64 24/1/64
f 16/1/65 6/1/65 24/1/65
f 17/1/66 22/1/66 6/1/66
f 17/1/67 20/1/67 22/1/67
f 20/1/68 5/1/68 22/1/68
f 20/1/69 21/1/69 5/1/69
f 20/1/70 18/1/70 21/1/70
f 18/1/71 4/1/71 21/1/71
f 18/1/72 19/1/72 4/1/72
f 18/1/73 13/1/73 19/1/73
f 13/1/74 3/1/74 19/1/74
f 16/1/75 17/1/75 6/1/75
f 16/1/76 14/1/76 17/1/76
f 14/1/77 1/1/77 17/1/77
f 13/1/78 15/1/78 3/1/78
f 13/1/79 14/1/79 15/1/79
f 14/1/80 2/1/80 15/1/80
f 43/2/81 44/2/81 45/2/81
f 44/2/82 43/2/82 48/2/82
f 43/2/83 45/2/83 46/2/83
f 43/2/84 46/2/84 47/2/84
f 43/2/85 47/2/85 48/2/85
f 44/2/86 48/2/86 53/2/86
f 45/2/87 44/2/87 49/2/87
f 46/2/88 45/2/88 50/2/88
f 47/2/89 46/2/89 51/2/89
f 48/2/90 47/2/90 52/2/90
f 44/2/91 53/2/91 49/2/91
f 45/2/92 49/2/92 50/2/92
f 46/2/93 50/2/93 51/2/93
f 47/2/94 51/2/94 52/2/94
f 48/2/95 52/2/95 53/2/95
f 49/2/96 53/2/96 54/2/96
f 50/2/97 49/2/97 54/2/97
f 51/2/98 50/2/98 54/2/98
f 52/2/99 51/2/99 54/2/99
f 53/2/100 52/2/100 54/2/100
f 55/3/101 56/3/101 57/3/101
f 56/3/102 55/3/102 60/3/102
f 55/3/103 57/3/103 58/3/103
f 55/3/104 58/3/104 59/3/104
f 55/3/105 59/3/105 60/3/105
f 56/3/106 60/3/106 65/3/106
f 57/3/107 56/3/107 61/3/107
f 58/3/108 57/3/108 62/3/108
f 59/3/109 58/3/109 63/3/109
f 60/3/110 59/3/110 64/3/110
f 56/3/111 65/3/111 61/3/111
f 57/3/112 61/3/112 62/3/112
f 58/3/113 62/3/113 63/3/113
f 59/3/114 63/3/114 64/3/114
f 60/3/115 64/3/115 65/3/115
f 61/3/116 65/3/116 66/3/116
f 62/3/117 61/3/117 66/3/117
f 63/3/118 62/3/118 66/3/118
f 64/3/119 63/3/119 66/3/119
f 65/3/120 64/3/120 66/3/120
f 67/2/121 68/2/121 69/2/121
f 68/2/122 67/2/122 72/2/122
f 67/2/123 69/2/123 70/2/123
f 67/2/124 70/2/124 71/2/124
f 67/2/125 71/2/125 72/2/125
f 68/2/126 72/2/126 77/2/126
f 69/2/127 68/2/127 73/2/127
f 70/2/128 69/2/128 74/2/128
f 71/2/129 70/2/129 75/2/129
f 72/2/130 71/2/130 76/2/130
f 68/2/131 77/2/131 73/2/131
f 69/2/132 73/2/132 74/2/132
f 70/2/133 74/2/133 75/2/133
f 71/2/134 75/2/134 76/2/134
f 72/2/135 76/2/135 77/2/135
f 73/2/136 77/2/136 78/2/136
f 74/2/137 73/2/137 78/2/137
f 75/2/138 74/2/138 78/2/138
f 76/2/139 75/2/139 78/2/139
f 77/2/140 76/2/140 78/2/140
