# Blender 5.2.1 LTS
# www.blender.org
mtllib tankInstances.mtl
o tankInstances
v -0.014019 -0.500000 -0.480769
v -0.014019 0.434579 -0.480769
v 0.130382 -0.500000 -0.457239
v 0.130382 0.434579 -0.457239
v 0.260647 -0.500000 -0.388950
v 0.260647 0.434579 -0.388950
v 0.364027 -0.500000 -0.282589
v 0.364027 0.434579 -0.282589
v 0.430400 -0.500000 -0.148566
v 0.430400 0.434579 -0.148566
v 0.453271 -0.500000 0.000000
v 0.453271 0.434579 0.000000
v 0.430400 -0.500000 0.148566
v 0.430400 0.434579 0.148566
v 0.364027 -0.500000 0.282589
v 0.364027 0.434579 0.282589
v 0.260647 -0.500000 0.388950
v 0.260647 0.434579 0.388950
v 0.130382 -0.500000 0.457239
v 0.130382 0.434579 0.457239
v -0.014019 -0.500000 0.480769
v -0.014019 0.434579 0.480769
v -0.158419 -0.500000 0.457239
v -0.158419 0.434579 0.457239
v -0.288685 -0.500000 0.388950
v -0.288685 0.434579 0.388950
v -0.392064 -0.500000 0.282589
v -0.392064 0.434579 0.282589
v -0.458438 -0.500000 0.148566
v -0.458438 0.434579 0.148566
v -0.481308 -0.500000 0.000000
v -0.481308 0.434579 0.000000
v -0.458438 -0.500000 -0.148566
v -0.458438 0.434579 -0.148566
v -0.392064 -0.500000 -0.282589
v -0.392064 0.434579 -0.282589
v -0.288685 -0.500000 -0.388950
v -0.288685 0.434579 -0.388950
v -0.158419 -0.500000 -0.457239
v -0.158419 0.434579 -0.457239
v -0.014019 -0.490654 -0.500000
v -0.014019 -0.434579 -0.500000
v 0.136158 -0.490654 -0.475528
v 0.136158 -0.434579 -0.475528
v 0.271634 -0.490654 -0.404509
v 0.271634 -0.434579 -0.404509
v 0.379148 -0.490654 -0.293893
v 0.379148 -0.434579 -0.293893
v 0.448177 -0.490654 -0.154509
v 0.448177 -0.434579 -0.154509
v 0.471963 -0.490654 0.000000
v 0.471963 -0.434579 0.000000
v 0.448177 -0.490654 0.154509
v 0.448177 -0.434579 0.154509
v 0.379148 -0.490654 0.293893
v 0.379148 -0.434579 0.293893
v 0.271634 -0.490654 0.404509
v 0.271634 -0.434579 0.404509
v 0.136158 -0.490654 0.475528
v 0.136158 -0.434579 0.475528
v -0.014019 -0.490654 0.500000
v -0.014019 -0.434579 0.500000
v -0.164195 -0.490654 0.475528
v -0.164195 -0.434579 0.475528
v -0.299671 -0.490654 0.404509
v -0.299671 -0.434579 0.404509
v -0.407186 -0.490654 0.293893
v -0.407186 -0.434579 0.293893
v -0.476214 -0.490654 0.154509
v -0.476214 -0.434579 0.154509
v -0.500000 -0.490654 0.000000
v -0.500000 -0.434579 0.000000
v -0.476214 -0.490654 -0.154509
v -0.476214 -0.434579 -0.154509
v -0.407186 -0.490654 -0.293893
v -0.407186 -0.434579 -0.293893
v -0.299671 -0.490654 -0.404509
v -0.299671 -0.434579 -0.404509
v -0.164195 -0.490654 -0.475528
v -0.164195 -0.434579 -0.475528
v -0.014019 0.369159 -0.500000
v -0.014019 0.425234 -0.500000
v 0.136158 0.369159 -0.475528
v 0.136158 0.425234 -0.475528
v 0.271634 0.369159 -0.404509
v 0.271634 0.425234 -0.404509
v 0.379148 0.369159 -0.293893
v 0.379148 0.425234 -0.293893
v 0.448177 0.369159 -0.154509
v 0.448177 0.425234 -0.154509
v 0.471963 0.369159 0.000000
v 0.471963 0.425234 0.000000
v 0.448177 0.369159 0.154509
v 0.448177 0.425234 0.154509
v 0.379148 0.369159 0.293893
v 0.379148 0.425234 0.293893
v 0.271634 0.369159 0.404509
v 0.271634 0.425234 0.404509
v 0.136158 0.369159 0.475528
v 0.136158 0.425234 0.475528
v -0.014019 0.369159 0.500000
v -0.014019 0.425234 0.500000
v -0.164195 0.369159 0.475528
v -0.164195 0.425234 0.475528
v -0.299671 0.369159 0.404509
v -0.299671 0.425234 0.404509
v -0.407186 0.369159 0.293893
v -0.407186 0.425234 0.293893
v -0.476214 0.369159 0.154509
v -0.476214 0.425234 0.154509
v -0.500000 0.369159 0.000000
v -0.500000 0.425234 0.000000
v -0.476214 0.369159 -0.154509
v -0.476214 0.425234 -0.154509
v -0.407186 0.369159 -0.293893
v -0.407186 0.425234 -0.293893
v -0.299671 0.369159 -0.404509
v -0.299671 0.425234 -0.404509
v -0.164195 0.369159 -0.475528
v -0.164195 0.425234 -0.475528
v -0.014019 0.425234 -0.153846
v -0.014019 0.481308 -0.153846
v 0.060748 0.425234 -0.133235
v 0.060748 0.481308 -0.133235
v 0.115480 0.425234 -0.076923
v 0.115480 0.481308 -0.076923
v 0.135514 0.425234 0.000000
v 0.135514 0.481308 0.000000
v 0.115480 0.425234 0.076923
v 0.115480 0.481308 0.076923
v 0.060748 0.425234 0.133235
v 0.060748 0.481308 0.133235
v -0.014019 0.425234 0.153846
v -0.014019 0.481308 0.153846
v -0.088785 0.425234 0.133235
v -0.088785 0.481308 0.133235
v -0.143518 0.425234 0.076923
v -0.143518 0.481308 0.076923
v -0.163551 0.425234 0.000000
v -0.163551 0.481308 0.000000
v -0.143518 0.425234 -0.076923
v -0.143518 0.481308 -0.076923
v -0.088785 0.425234 -0.133235
v -0.088785 0.481308 -0.133235
v -0.014019 0.481308 0.110577
v -0.014019 0.500000 0.110577
v -0.001878 0.481308 0.117788
v -0.001878 0.500000 0.117788
v -0.001878 0.481308 0.132212
v -0.001878 0.500000 0.132212
v -0.014019 0.481308 0.139423
v -0.014019 0.500000 0.139423
v -0.026159 0.481308 0.132212
v -0.026159 0.500000 0.132212
v -0.026159 0.481308 0.117788
v -0.026159 0.500000 0.117788
v 0.071891 0.481308 0.073965
v 0.071891 0.500000 0.073965
v 0.084032 0.481308 0.081177
v 0.084032 0.500000 0.081177
v 0.084032 0.481308 0.095600
v 0.084032 0.500000 0.095600
v 0.071891 0.481308 0.102811
v 0.071891 0.500000 0.102811
v 0.059751 0.481308 0.095600
v 0.059751 0.500000 0.095600
v 0.059751 0.481308 0.081177
v 0.059751 0.500000 0.081177
v 0.107477 0.481308 -0.014423
v 0.107477 0.500000 -0.014423
v 0.119617 0.481308 -0.007212
v 0.119617 0.500000 -0.007212
v 0.119617 0.481308 0.007212
v 0.119617 0.500000 0.007212
v 0.107477 0.481308 0.014423
v 0.107477 0.500000 0.014423
v 0.095336 0.481308 0.007212
v 0.095336 0.500000 0.007212
v 0.095336 0.481308 -0.007212
v 0.095336 0.500000 -0.007212
v 0.071891 0.481308 -0.102811
v 0.071891 0.500000 -0.102811
v 0.084032 0.481308 -0.095600
v 0.084032 0.500000 -0.095600
v 0.084032 0.481308 -0.081177
v 0.084032 0.500000 -0.081177
v 0.071891 0.481308 -0.073965
v 0.071891 0.500000 -0.073965
v 0.059751 0.481308 -0.081177
v 0.059751 0.500000 -0.081177
v 0.059751 0.481308 -0.095600
v 0.059751 0.500000 -0.095600
v -0.014019 0.481308 -0.139423
v -0.014019 0.500000 -0.139423
v -0.001878 0.481308 -0.132212
v -0.001878 0.500000 -0.132212
v -0.001878 0.481308 -0.117788
v -0.001878 0.500000 -0.117788
v -0.014019 0.481308 -0.110577
v -0.014019 0.500000 -0.110577
v -0.026159 0.481308 -0.117788
v -0.026159 0.500000 -0.117788
v -0.026159 0.481308 -0.132212
v -0.026159 0.500000 -0.132212
v -0.099929 0.481308 -0.102811
v -0.099929 0.500000 -0.102811
v -0.087788 0.481308 -0.095600
v -0.087788 0.500000 -0.095600
v -0.087788 0.481308 -0.081177
v -0.087788 0.500000 -0.081177
v -0.099929 0.481308 -0.073965
v -0.099929 0.500000 -0.073965
v -0.112069 0.481308 -0.081177
v -0.112069 0.500000 -0.081177
v -0.112069 0.481308 -0.095600
v -0.112069 0.500000 -0.095600
v -0.135514 0.481308 -0.014423
v -0.135514 0.500000 -0.014423
v -0.123373 0.481308 -0.007212
v -0.123373 0.500000 -0.007212
v -0.123373 0.481308 0.007212
v -0.123373 0.500000 0.007212
v -0.135514 0.481308 0.014423
v -0.135514 0.500000 0.014423
v -0.147655 0.481308 0.007212
v -0.147655 0.500000 0.007212
v -0.147655 0.481308 -0.007212
v -0.147655 0.500000 -0.007212
v -0.099929 0.481308 0.073965
v -0.099929 0.500000 0.073965
v -0.087788 0.481308 0.081177
v -0.087788 0.500000 0.081177
v -0.087788 0.481308 0.095600
v -0.087788 0.500000 0.095600
v -0.099929 0.481308 0.102811
v -0.099929 0.500000 0.102811
v -0.112069 0.481308 0.095600
v -0.112069 0.500000 0.095600
v -0.112069 0.481308 0.081177
v -0.112069 0.500000 0.081177
v 0.350467 -0.032710 -0.067308
v 0.500000 -0.032710 -0.067308
v 0.350467 -0.065421 -0.058290
v 0.500000 -0.065421 -0.058290
v 0.350467 -0.089366 -0.033654
v 0.500000 -0.089366 -0.033654
v 0.350467 -0.098131 0.000000
v 0.500000 -0.098131 0.000000
v 0.350467 -0.089366 0.033654
v 0.500000 -0.089366 0.033654
v 0.350467 -0.065421 0.058290
v 0.500000 -0.065421 0.058290
v 0.350467 -0.032710 0.067308
v 0.500000 -0.032710 0.067308
v 0.350467 0.000000 0.058290
v 0.500000 0.000000 0.058290
v 0.350467 0.023946 0.033654
v 0.500000 0.023946 0.033654
v 0.350467 0.032710 0.000000
v 0.500000 0.032710 0.000000
v 0.350467 0.023946 -0.033654
v 0.500000 0.023946 -0.033654
v 0.350467 0.000000 -0.058290
v 0.500000 0.000000 -0.058290
vn 0.1608 -0.0000 -0.9870
vn 0.4643 -0.0000 -0.8857
vn 0.7171 -0.0000 -0.6970
vn 0.8961 -0.0000 -0.4438
vn 0.9884 -0.0000 -0.1522
vn 0.9884 -0.0000 0.1522
vn 0.8961 -0.0000 0.4438
vn 0.7171 -0.0000 0.6970
vn 0.4643 -0.0000 0.8857
vn 0.1608 -0.0000 0.9870
vn -0.1608 -0.0000 0.9870
vn -0.4643 -0.0000 0.8857
vn -0.7171 -0.0000 0.6970
vn -0.8961 -0.0000 0.4438
vn -0.9884 -0.0000 0.1522
vn -0.9884 -0.0000 -0.1522
vn -0.8961 -0.0000 -0.4438
vn -0.7171 -0.0000 -0.6970
vn -0.0000 1.0000 -0.0000
vn -0.4643 -0.0000 -0.8857
vn -0.1608 -0.0000 -0.9870
vn -0.0000 -1.0000 -0.0000
vn 0.2658 -0.0000 -0.9640
vn 0.9677 -0.0000 -0.2520
vn 0.9677 -0.0000 0.2520
vn 0.2658 -0.0000 0.9640
vn -0.2658 -0.0000 0.9640
vn -0.9677 -0.0000 0.2520
vn -0.9677 -0.0000 -0.2520
vn -0.2658 -0.0000 -0.9640
vn 0.5107 -0.0000 -0.8598
vn 1.0000 -0.0000 -0.0000
vn 0.5107 -0.0000 0.8598
vn -0.5107 -0.0000 0.8598
vn -1.0000 -0.0000 -0.0000
vn -0.5107 -0.0000 -0.8598
vn -0.0000 -0.2658 -0.9640
vn -0.0000 -0.7171 -0.6970
vn -0.0000 -0.9677 -0.2520
vn -0.0000 -0.9677 0.2520
vn -0.0000 -0.7171 0.6970
vn -0.0000 -0.2658 0.9640
vn -0.0000 0.2658 0.9640
vn -0.0000 0.7171 0.6970
vn -0.0000 0.9677 0.2520
vn -0.0000 0.9677 -0.2520
vn -0.0000 0.7171 -0.6970
vn -0.0000 0.2658 -0.9640
vt 0.125000 0.625000
vt 0.625000 0.125000
vt 0.875000 0.125000
vt 0.375000 0.875000
s 0
usemtl WorldPickupPalette
f 2/1/1 3/1/1 1/1/1
f 4/1/2 5/1/2 3/1/2
f 6/1/3 7/1/3 5/1/3
f 8/1/4 9/1/4 7/1/4
f 10/1/5 11/1/5 9/1/5
f 12/1/6 13/1/6 11/1/6
f 14/1/7 15/1/7 13/1/7
f 16/1/8 17/1/8 15/1/8
f 18/1/9 19/1/9 17/1/9
f 20/1/10 21/1/10 19/1/10
f 22/1/11 23/1/11 21/1/11
f 24/1/12 25/1/12 23/1/12
f 26/1/13 27/1/13 25/1/13
f 28/1/14 29/1/14 27/1/14
f 30/1/15 31/1/15 29/1/15
f 32/1/16 33/1/16 31/1/16
f 34/1/17 35/1/17 33/1/17
f 36/1/18 37/1/18 35/1/18
f 10/1/19 8/1/19 34/1/19
f 38/1/20 39/1/20 37/1/20
f 40/1/21 1/1/21 39/1/21
f 35/1/22 37/1/22 7/1/22
f 42/2/1 43/2/1 41/2/1
f 44/2/2 45/2/2 43/2/2
f 46/2/3 47/2/3 45/2/3
f 48/2/4 49/2/4 47/2/4
f 50/2/5 51/2/5 49/2/5
f 52/2/6 53/2/6 51/2/6
f 54/2/7 55/2/7 53/2/7
f 56/2/8 57/2/8 55/2/8
f 58/2/9 59/2/9 57/2/9
f 60/2/10 61/2/10 59/2/10
f 62/2/11 63/2/11 61/2/11
f 64/2/12 65/2/12 63/2/12
f 66/2/13 67/2/13 65/2/13
f 68/2/14 69/2/14 67/2/14
f 70/2/15 71/2/15 69/2/15
f 72/2/16 73/2/16 71/2/16
f 74/2/17 75/2/17 73/2/17
f 76/2/18 77/2/18 75/2/18
f 50/2/19 48/2/19 74/2/19
f 78/2/20 79/2/20 77/2/20
f 80/2/21 41/2/21 79/2/21
f 75/2/22 77/2/22 47/2/22
f 82/2/1 83/2/1 81/2/1
f 84/2/2 85/2/2 83/2/2
f 86/2/3 87/2/3 85/2/3
f 88/2/4 89/2/4 87/2/4
f 90/2/5 91/2/5 89/2/5
f 92/2/6 93/2/6 91/2/6
f 94/2/7 95/2/7 93/2/7
f 96/2/8 97/2/8 95/2/8
f 98/2/9 99/2/9 97/2/9
f 100/2/10 101/2/10 99/2/10
f 102/2/11 103/2/11 101/2/11
f 104/2/12 105/2/12 103/2/12
f 106/2/13 107/2/13 105/2/13
f 108/2/14 109/2/14 107/2/14
f 110/2/15 111/2/15 109/2/15
f 112/2/16 113/2/16 111/2/16
f 114/2/17 115/2/17 113/2/17
f 116/2/18 117/2/18 115/2/18
f 90/2/19 88/2/19 114/2/19
f 118/2/20 119/2/20 117/2/20
f 120/2/21 81/2/21 119/2/21
f 115/2/22 117/2/22 87/2/22
f 122/3/23 123/3/23 121/3/23
f 124/3/3 125/3/3 123/3/3
f 126/3/24 127/3/24 125/3/24
f 128/3/25 129/3/25 127/3/25
f 130/3/8 131/3/8 129/3/8
f 132/3/26 133/3/26 131/3/26
f 134/3/27 135/3/27 133/3/27
f 136/3/13 137/3/13 135/3/13
f 138/3/28 139/3/28 137/3/28
f 140/3/29 141/3/29 139/3/29
f 128/3/19 126/3/19 142/3/19
f 142/3/18 143/3/18 141/3/18
f 144/3/30 121/3/30 143/3/30
f 139/3/22 141/3/22 127/3/22
f 146/4/31 147/4/31 145/4/31
f 148/4/32 149/4/32 147/4/32
f 150/4/33 151/4/33 149/4/33
f 152/4/34 153/4/34 151/4/34
f 154/4/19 152/4/19 150/4/19
f 154/4/35 155/4/35 153/4/35
f 156/4/36 145/4/36 155/4/36
f 153/4/22 155/4/22 147/4/22
f 158/4/31 159/4/31 157/4/31
f 160/4/32 161/4/32 159/4/32
f 162/4/33 163/4/33 161/4/33
f 164/4/34 165/4/34 163/4/34
f 166/4/19 164/4/19 162/4/19
f 166/4/35 167/4/35 165/4/35
f 168/4/36 157/4/36 167/4/36
f 165/4/22 167/4/22 159/4/22
f 170/4/31 171/4/31 169/4/31
f 172/4/32 173/4/32 171/4/32
f 174/4/33 175/4/33 173/4/33
f 176/4/34 177/4/34 175/4/34
f 178/4/19 176/4/19 174/4/19
f 178/4/35 179/4/35 177/4/35
f 180/4/36 169/4/36 179/4/36
f 177/4/22 179/4/22 171/4/22
f 182/4/31 183/4/31 181/4/31
f 184/4/32 185/4/32 183/4/32
f 186/4/33 187/4/33 185/4/33
f 188/4/34 189/4/34 187/4/34
f 190/4/19 188/4/19 186/4/19
f 190/4/35 191/4/35 189/4/35
f 192/4/36 181/4/36 191/4/36
f 189/4/22 191/4/22 183/4/22
f 194/4/31 195/4/31 193/4/31
f 196/4/32 197/4/32 195/4/32
f 198/4/33 199/4/33 197/4/33
f 200/4/34 201/4/34 199/4/34
f 202/4/19 200/4/19 198/4/19
f 202/4/35 203/4/35 201/4/35
f 204/4/36 193/4/36 203/4/36
f 203/4/22 197/4/22 201/4/22
f 206/4/31 207/4/31 205/4/31
f 208/4/32 209/4/32 207/4/32
f 210/4/33 211/4/33 209/4/33
f 212/4/34 213/4/34 211/4/34
f 214/4/19 212/4/19 210/4/19
f 214/4/35 215/4/35 213/4/35
f 216/4/36 205/4/36 215/4/36
f 213/4/22 215/4/22 207/4/22
f 218/4/31 219/4/31 217/4/31
f 220/4/32 221/4/32 219/4/32
f 222/4/33 223/4/33 221/4/33
f 224/4/34 225/4/34 223/4/34
f 226/4/19 224/4/19 222/4/19
f 226/4/35 227/4/35 225/4/35
f 228/4/36 217/4/36 227/4/36
f 227/4/22 221/4/22 225/4/22
f 230/4/31 231/4/31 229/4/31
f 232/4/32 233/4/32 231/4/32
f 234/4/33 235/4/33 233/4/33
f 236/4/34 237/4/34 235/4/34
f 238/4/19 236/4/19 234/4/19
f 238/4/35 239/4/35 237/4/35
f 240/4/36 229/4/36 239/4/36
f 237/4/22 239/4/22 231/4/22
f 241/3/37 244/3/37 243/3/37
f 244/3/38 245/3/38 243/3/38
f 246/3/39 247/3/39 245/3/39
f 248/3/40 249/3/40 247/3/40
f 250/3/41 251/3/41 249/3/41
f 252/3/42 253/3/42 251/3/42
f 254/3/43 255/3/43 253/3/43
f 256/3/44 257/3/44 255/3/44
f 258/3/45 259/3/45 257/3/45
f 260/3/46 261/3/46 259/3/46
f 248/3/32 246/3/32 262/3/32
f 262/3/47 263/3/47 261/3/47
f 264/3/48 241/3/48 263/3/48
f 259/3/35 261/3/35 247/3/35
f 2/1/1 4/1/1 3/1/1
f 4/1/2 6/1/2 5/1/2
f 6/1/3 8/1/3 7/1/3
f 8/1/4 10/1/4 9/1/4
f 10/1/5 12/1/5 11/1/5
f 12/1/6 14/1/6 13/1/6
f 14/1/7 16/1/7 15/1/7
f 16/1/8 18/1/8 17/1/8
f 18/1/9 20/1/9 19/1/9
f 20/1/10 22/1/10 21/1/10
f 22/1/11 24/1/11 23/1/11
f 24/1/12 26/1/12 25/1/12
f 26/1/13 28/1/13 27/1/13
f 28/1/14 30/1/14 29/1/14
f 30/1/15 32/1/15 31/1/15
f 32/1/16 34/1/16 33/1/16
f 34/1/17 36/1/17 35/1/17
f 36/1/18 38/1/18 37/1/18
f 6/1/19 4/1/19 38/1/19
f 4/1/19 2/1/19 40/1/19
f 38/1/19 4/1/19 40/1/19
f 38/1/19 36/1/19 6/1/19
f 36/1/19 34/1/19 8/1/19
f 6/1/19 36/1/19 8/1/19
f 34/1/19 32/1/19 10/1/19
f 32/1/19 30/1/19 12/1/19
f 10/1/19 32/1/19 12/1/19
f 30/1/19 28/1/19 16/1/19
f 28/1/19 26/1/19 18/1/19
f 26/1/19 24/1/19 20/1/19
f 24/1/19 22/1/19 20/1/19
f 20/1/19 18/1/19 26/1/19
f 18/1/19 16/1/19 28/1/19
f 16/1/19 14/1/19 30/1/19
f 14/1/19 12/1/19 30/1/19
f 38/1/20 40/1/20 39/1/20
f 40/1/21 2/1/21 1/1/21
f 39/1/22 1/1/22 3/1/22
f 3/1/22 5/1/22 39/1/22
f 5/1/22 7/1/22 37/1/22
f 39/1/22 5/1/22 37/1/22
f 7/1/22 9/1/22 33/1/22
f 9/1/22 11/1/22 31/1/22
f 11/1/22 13/1/22 31/1/22
f 13/1/22 15/1/22 29/1/22
f 31/1/22 13/1/22 29/1/22
f 15/1/22 17/1/22 25/1/22
f 17/1/22 19/1/22 23/1/22
f 19/1/22 21/1/22 23/1/22
f 23/1/22 25/1/22 17/1/22
f 25/1/22 27/1/22 15/1/22
f 27/1/22 29/1/22 15/1/22
f 31/1/22 33/1/22 9/1/22
f 33/1/22 35/1/22 7/1/22
f 42/2/1 44/2/1 43/2/1
f 44/2/2 46/2/2 45/2/2
f 46/2/3 48/2/3 47/2/3
f 48/2/4 50/2/4 49/2/4
f 50/2/5 52/2/5 51/2/5
f 52/2/6 54/2/6 53/2/6
f 54/2/7 56/2/7 55/2/7
f 56/2/8 58/2/8 57/2/8
f 58/2/9 60/2/9 59/2/9
f 60/2/10 62/2/10 61/2/10
f 62/2/11 64/2/11 63/2/11
f 64/2/12 66/2/12 65/2/12
f 66/2/13 68/2/13 67/2/13
f 68/2/14 70/2/14 69/2/14
f 70/2/15 72/2/15 71/2/15
f 72/2/16 74/2/16 73/2/16
f 74/2/17 76/2/17 75/2/17
f 76/2/18 78/2/18 77/2/18
f 46/2/19 44/2/19 80/2/19
f 44/2/19 42/2/19 80/2/19
f 80/2/19 78/2/19 46/2/19
f 78/2/19 76/2/19 46/2/19
f 76/2/19 74/2/19 48/2/19
f 46/2/19 76/2/19 48/2/19
f 74/2/19 72/2/19 50/2/19
f 72/2/19 70/2/19 52/2/19
f 50/2/19 72/2/19 52/2/19
f 70/2/19 68/2/19 56/2/19
f 68/2/19 66/2/19 58/2/19
f 66/2/19 64/2/19 60/2/19
f 64/2/19 62/2/19 60/2/19
f 60/2/19 58/2/19 66/2/19
f 58/2/19 56/2/19 68/2/19
f 56/2/19 54/2/19 70/2/19
f 54/2/19 52/2/19 70/2/19
f 78/2/20 80/2/20 79/2/20
f 80/2/21 42/2/21 41/2/21
f 79/2/22 41/2/22 43/2/22
f 43/2/22 45/2/22 79/2/22
f 45/2/22 47/2/22 77/2/22
f 79/2/22 45/2/22 77/2/22
f 47/2/22 49/2/22 73/2/22
f 49/2/22 51/2/22 71/2/22
f 51/2/22 53/2/22 71/2/22
f 53/2/22 55/2/22 69/2/22
f 71/2/22 53/2/22 69/2/22
f 55/2/22 57/2/22 65/2/22
f 57/2/22 59/2/22 63/2/22
f 59/2/22 61/2/22 63/2/22
f 63/2/22 65/2/22 57/2/22
f 65/2/22 67/2/22 55/2/22
f 67/2/22 69/2/22 55/2/22
f 71/2/22 73/2/22 49/2/22
f 73/2/22 75/2/22 47/2/22
f 82/2/1 84/2/1 83/2/1
f 84/2/2 86/2/2 85/2/2
f 86/2/3 88/2/3 87/2/3
f 88/2/4 90/2/4 89/2/4
f 90/2/5 92/2/5 91/2/5
f 92/2/6 94/2/6 93/2/6
f 94/2/7 96/2/7 95/2/7
f 96/2/8 98/2/8 97/2/8
f 98/2/9 100/2/9 99/2/9
f 100/2/10 102/2/10 101/2/10
f 102/2/11 104/2/11 103/2/11
f 104/2/12 106/2/12 105/2/12
f 106/2/13 108/2/13 107/2/13
f 108/2/14 110/2/14 109/2/14
f 110/2/15 112/2/15 111/2/15
f 112/2/16 114/2/16 113/2/16
f 114/2/17 116/2/17 115/2/17
f 116/2/18 118/2/18 117/2/18
f 86/2/19 84/2/19 120/2/19
f 84/2/19 82/2/19 120/2/19
f 120/2/19 118/2/19 86/2/19
f 118/2/19 116/2/19 86/2/19
f 116/2/19 114/2/19 88/2/19
f 86/2/19 116/2/19 88/2/19
f 114/2/19 112/2/19 90/2/19
f 112/2/19 110/2/19 92/2/19
f 90/2/19 112/2/19 92/2/19
f 110/2/19 108/2/19 96/2/19
f 108/2/19 106/2/19 98/2/19
f 106/2/19 104/2/19 100/2/19
f 104/2/19 102/2/19 100/2/19
f 100/2/19 98/2/19 106/2/19
f 98/2/19 96/2/19 108/2/19
f 96/2/19 94/2/19 110/2/19
f 94/2/19 92/2/19 110/2/19
f 118/2/20 120/2/20 119/2/20
f 120/2/21 82/2/21 81/2/21
f 119/2/22 81/2/22 83/2/22
f 83/2/22 85/2/22 119/2/22
f 85/2/22 87/2/22 117/2/22
f 119/2/22 85/2/22 117/2/22
f 87/2/22 89/2/22 113/2/22
f 89/2/22 91/2/22 111/2/22
f 91/2/22 93/2/22 111/2/22
f 93/2/22 95/2/22 109/2/22
f 111/2/22 93/2/22 109/2/22
f 95/2/22 97/2/22 105/2/22
f 97/2/22 99/2/22 103/2/22
f 99/2/22 101/2/22 103/2/22
f 103/2/22 105/2/22 97/2/22
f 105/2/22 107/2/22 95/2/22
f 107/2/22 109/2/22 95/2/22
f 111/2/22 113/2/22 89/2/22
f 113/2/22 115/2/22 87/2/22
f 122/3/23 124/3/23 123/3/23
f 124/3/3 126/3/3 125/3/3
f 126/3/24 128/3/24 127/3/24
f 128/3/25 130/3/25 129/3/25
f 130/3/8 132/3/8 131/3/8
f 132/3/26 134/3/26 133/3/26
f 134/3/27 136/3/27 135/3/27
f 136/3/13 138/3/13 137/3/13
f 138/3/28 140/3/28 139/3/28
f 140/3/29 142/3/29 141/3/29
f 126/3/19 124/3/19 142/3/19
f 124/3/19 122/3/19 144/3/19
f 142/3/19 124/3/19 144/3/19
f 142/3/19 140/3/19 128/3/19
f 140/3/19 138/3/19 130/3/19
f 138/3/19 136/3/19 130/3/19
f 136/3/19 134/3/19 132/3/19
f 130/3/19 136/3/19 132/3/19
f 130/3/19 128/3/19 140/3/19
f 142/3/18 144/3/18 143/3/18
f 144/3/30 122/3/30 121/3/30
f 143/3/22 121/3/22 123/3/22
f 123/3/22 125/3/22 143/3/22
f 125/3/22 127/3/22 141/3/22
f 143/3/22 125/3/22 141/3/22
f 127/3/22 129/3/22 137/3/22
f 129/3/22 131/3/22 135/3/22
f 131/3/22 133/3/22 135/3/22
f 135/3/22 137/3/22 129/3/22
f 137/3/22 139/3/22 127/3/22
f 146/4/31 148/4/31 147/4/31
f 148/4/32 150/4/32 149/4/32
f 150/4/33 152/4/33 151/4/33
f 152/4/34 154/4/34 153/4/34
f 150/4/19 148/4/19 154/4/19
f 148/4/19 146/4/19 156/4/19
f 154/4/19 148/4/19 156/4/19
f 154/4/35 156/4/35 155/4/35
f 156/4/36 146/4/36 145/4/36
f 155/4/22 145/4/22 147/4/22
f 147/4/22 149/4/22 153/4/22
f 149/4/22 151/4/22 153/4/22
f 158/4/31 160/4/31 159/4/31
f 160/4/32 162/4/32 161/4/32
f 162/4/33 164/4/33 163/4/33
f 164/4/34 166/4/34 165/4/34
f 162/4/19 160/4/19 166/4/19
f 160/4/19 158/4/19 168/4/19
f 166/4/19 160/4/19 168/4/19
f 166/4/35 168/4/35 167/4/35
f 168/4/36 158/4/36 157/4/36
f 167/4/22 157/4/22 159/4/22
f 159/4/22 161/4/22 165/4/22
f 161/4/22 163/4/22 165/4/22
f 170/4/31 172/4/31 171/4/31
f 172/4/32 174/4/32 173/4/32
f 174/4/33 176/4/33 175/4/33
f 176/4/34 178/4/34 177/4/34
f 174/4/19 172/4/19 178/4/19
f 172/4/19 170/4/19 180/4/19
f 178/4/19 172/4/19 180/4/19
f 178/4/35 180/4/35 179/4/35
f 180/4/36 170/4/36 169/4/36
f 179/4/22 169/4/22 171/4/22
f 171/4/22 173/4/22 177/4/22
f 173/4/22 175/4/22 177/4/22
f 182/4/31 184/4/31 183/4/31
f 184/4/32 186/4/32 185/4/32
f 186/4/33 188/4/33 187/4/33
f 188/4/34 190/4/34 189/4/34
f 186/4/19 184/4/19 190/4/19
f 184/4/19 182/4/19 192/4/19
f 190/4/19 184/4/19 192/4/19
f 190/4/35 192/4/35 191/4/35
f 192/4/36 182/4/36 181/4/36
f 191/4/22 181/4/22 183/4/22
f 183/4/22 185/4/22 189/4/22
f 185/4/22 187/4/22 189/4/22
f 194/4/31 196/4/31 195/4/31
f 196/4/32 198/4/32 197/4/32
f 198/4/33 200/4/33 199/4/33
f 200/4/34 202/4/34 201/4/34
f 198/4/19 196/4/19 202/4/19
f 196/4/19 194/4/19 204/4/19
f 202/4/19 196/4/19 204/4/19
f 202/4/35 204/4/35 203/4/35
f 204/4/36 194/4/36 193/4/36
f 203/4/22 193/4/22 195/4/22
f 195/4/22 197/4/22 203/4/22
f 197/4/22 199/4/22 201/4/22
f 206/4/31 208/4/31 207/4/31
f 208/4/32 210/4/32 209/4/32
f 210/4/33 212/4/33 211/4/33
f 212/4/34 214/4/34 213/4/34
f 210/4/19 208/4/19 214/4/19
f 208/4/19 206/4/19 216/4/19
f 214/4/19 208/4/19 216/4/19
f 214/4/35 216/4/35 215/4/35
f 216/4/36 206/4/36 205/4/36
f 215/4/22 205/4/22 207/4/22
f 207/4/22 209/4/22 213/4/22
f 209/4/22 211/4/22 213/4/22
f 218/4/31 220/4/31 219/4/31
f 220/4/32 222/4/32 221/4/32
f 222/4/33 224/4/33 223/4/33
f 224/4/34 226/4/34 225/4/34
f 222/4/19 220/4/19 226/4/19
f 220/4/19 218/4/19 228/4/19
f 226/4/19 220/4/19 228/4/19
f 226/4/35 228/4/35 227/4/35
f 228/4/36 218/4/36 217/4/36
f 227/4/22 217/4/22 219/4/22
f 219/4/22 221/4/22 227/4/22
f 221/4/22 223/4/22 225/4/22
f 230/4/31 232/4/31 231/4/31
f 232/4/32 234/4/32 233/4/32
f 234/4/33 236/4/33 235/4/33
f 236/4/34 238/4/34 237/4/34
f 234/4/19 232/4/19 238/4/19
f 232/4/19 230/4/19 240/4/19
f 238/4/19 232/4/19 240/4/19
f 238/4/35 240/4/35 239/4/35
f 240/4/36 230/4/36 229/4/36
f 239/4/22 229/4/22 231/4/22
f 231/4/22 233/4/22 237/4/22
f 233/4/22 235/4/22 237/4/22
f 241/3/37 242/3/37 244/3/37
f 244/3/38 246/3/38 245/3/38
f 246/3/39 248/3/39 247/3/39
f 248/3/40 250/3/40 249/3/40
f 250/3/41 252/3/41 251/3/41
f 252/3/42 254/3/42 253/3/42
f 254/3/43 256/3/43 255/3/43
f 256/3/44 258/3/44 257/3/44
f 258/3/45 260/3/45 259/3/45
f 260/3/46 262/3/46 261/3/46
f 246/3/32 244/3/32 262/3/32
f 244/3/32 242/3/32 264/3/32
f 262/3/32 244/3/32 264/3/32
f 262/3/32 260/3/32 248/3/32
f 260/3/32 258/3/32 250/3/32
f 258/3/32 256/3/32 250/3/32
f 256/3/32 254/3/32 252/3/32
f 250/3/32 256/3/32 252/3/32
f 250/3/32 248/3/32 260/3/32
f 262/3/47 264/3/47 263/3/47
f 264/3/48 242/3/48 241/3/48
f 263/3/35 241/3/35 243/3/35
f 243/3/35 245/3/35 263/3/35
f 245/3/35 247/3/35 261/3/35
f 263/3/35 245/3/35 261/3/35
f 247/3/35 249/3/35 257/3/35
f 249/3/35 251/3/35 255/3/35
f 251/3/35 253/3/35 255/3/35
f 255/3/35 257/3/35 249/3/35
f 257/3/35 259/3/35 247/3/35
