# Blender 5.2.1 LTS
# www.blender.org
mtllib utility_pole.mtl
o utility_pole
v 0.000000 0.000000 -0.110000
v 0.000000 3.600000 -0.110000
v 0.055000 0.000000 -0.095263
v 0.055000 3.600000 -0.095263
v 0.095263 0.000000 -0.055000
v 0.095263 3.600000 -0.055000
v 0.110000 0.000000 0.000000
v 0.110000 3.600000 0.000000
v 0.095263 0.000000 0.055000
v 0.095263 3.600000 0.055000
v 0.055000 0.000000 0.095263
v 0.055000 3.600000 0.095263
v 0.000000 0.000000 0.110000
v 0.000000 3.600000 0.110000
v -0.055000 0.000000 0.095263
v -0.055000 3.600000 0.095263
v -0.095263 0.000000 0.055000
v -0.095263 3.600000 0.055000
v -0.110000 0.000000 0.000000
v -0.110000 3.600000 0.000000
v -0.095263 0.000000 -0.055000
v -0.095263 3.600000 -0.055000
v -0.055000 0.000000 -0.095263
v -0.055000 3.600000 -0.095263
v -0.776000 2.860000 0.046000
v -0.776000 2.884000 0.070000
v -0.800000 2.884000 0.046000
v -0.776000 2.956000 0.070000
v -0.776000 2.980000 0.046000
v -0.800000 2.956000 0.046000
v -0.776000 2.860000 -0.046000
v -0.800000 2.884000 -0.046000
v -0.776000 2.884000 -0.070000
v -0.776000 2.980000 -0.046000
v -0.776000 2.956000 -0.070000
v -0.800000 2.956000 -0.046000
v 0.776000 2.860000 0.046000
v 0.800000 2.884000 0.046000
v 0.776000 2.884000 0.070000
v 0.776000 2.980000 0.046000
v 0.776000 2.956000 0.070000
v 0.800000 2.956000 0.046000
v 0.776000 2.860000 -0.046000
v 0.776000 2.884000 -0.070000
v 0.800000 2.884000 -0.046000
v 0.776000 2.980000 -0.046000
v 0.800000 2.956000 -0.046000
v 0.776000 2.956000 -0.070000
v -0.600000 2.955000 -0.065000
v -0.600000 3.205000 -0.065000
v -0.567500 2.955000 -0.056292
v -0.567500 3.205000 -0.056292
v -0.543708 2.955000 -0.032500
v -0.543708 3.205000 -0.032500
v -0.535000 2.955000 0.000000
v -0.535000 3.205000 0.000000
v -0.543708 2.955000 0.032500
v -0.543708 3.205000 0.032500
v -0.567500 2.955000 0.056292
v -0.567500 3.205000 0.056292
v -0.600000 2.955000 0.065000
v -0.600000 3.205000 0.065000
v -0.632500 2.955000 0.056292
v -0.632500 3.205000 0.056292
v -0.656292 2.955000 0.032500
v -0.656292 3.205000 0.032500
v -0.665000 2.955000 0.000000
v -0.665000 3.205000 0.000000
v -0.656292 2.955000 -0.032500
v -0.656292 3.205000 -0.032500
v -0.632500 2.955000 -0.056292
v -0.632500 3.205000 -0.056292
v -0.600000 2.982500 -0.095000
v -0.600000 3.017500 -0.095000
v -0.552500 2.982500 -0.082272
v -0.552500 3.017500 -0.082272
v -0.517728 2.982500 -0.047500
v -0.517728 3.017500 -0.047500
v -0.505000 2.982500 0.000000
v -0.505000 3.017500 0.000000
v -0.517728 2.982500 0.047500
v -0.517728 3.017500 0.047500
v -0.552500 2.982500 0.082272
v -0.552500 3.017500 0.082272
v -0.600000 2.982500 0.095000
v -0.600000 3.017500 0.095000
v -0.647500 2.982500 0.082272
v -0.647500 3.017500 0.082272
v -0.682272 2.982500 0.047500
v -0.682272 3.017500 0.047500
v -0.695000 2.982500 0.000000
v -0.695000 3.017500 0.000000
v -0.682272 2.982500 -0.047500
v -0.682272 3.017500 -0.047500
v -0.647500 2.982500 -0.082272
v -0.647500 3.017500 -0.082272
v -0.600000 3.062500 -0.095000
v -0.600000 3.097500 -0.095000
v -0.552500 3.062500 -0.082272
v -0.552500 3.097500 -0.082272
v -0.517728 3.062500 -0.047500
v -0.517728 3.097500 -0.047500
v -0.505000 3.062500 0.000000
v -0.505000 3.097500 0.000000
v -0.517728 3.062500 0.047500
v -0.517728 3.097500 0.047500
v -0.552500 3.062500 0.082272
v -0.552500 3.097500 0.082272
v -0.600000 3.062500 0.095000
v -0.600000 3.097500 0.095000
v -0.647500 3.062500 0.082272
v -0.647500 3.097500 0.082272
v -0.682272 3.062500 0.047500
v -0.682272 3.097500 0.047500
v -0.695000 3.062500 0.000000
v -0.695000 3.097500 0.000000
v -0.682272 3.062500 -0.047500
v -0.682272 3.097500 -0.047500
v -0.647500 3.062500 -0.082272
v -0.647500 3.097500 -0.082272
v -0.600000 3.142500 -0.095000
v -0.600000 3.177500 -0.095000
v -0.552500 3.142500 -0.082272
v -0.552500 3.177500 -0.082272
v -0.517728 3.142500 -0.047500
v -0.517728 3.177500 -0.047500
v -0.505000 3.142500 0.000000
v -0.505000 3.177500 0.000000
v -0.517728 3.142500 0.047500
v -0.517728 3.177500 0.047500
v -0.552500 3.142500 0.082272
v -0.552500 3.177500 0.082272
v -0.600000 3.142500 0.095000
v -0.600000 3.177500 0.095000
v -0.647500 3.142500 0.082272
v -0.647500 3.177500 0.082272
v -0.682272 3.142500 0.047500
v -0.682272 3.177500 0.047500
v -0.695000 3.142500 0.000000
v -0.695000 3.177500 0.000000
v -0.682272 3.142500 -0.047500
v -0.682272 3.177500 -0.047500
v -0.647500 3.142500 -0.082272
v -0.647500 3.177500 -0.082272
v 0.000000 2.955000 -0.065000
v 0.000000 3.205000 -0.065000
v 0.032500 2.955000 -0.056292
v 0.032500 3.205000 -0.056292
v 0.056292 2.955000 -0.032500
v 0.056292 3.205000 -0.032500
v 0.065000 2.955000 0.000000
v 0.065000 3.205000 0.000000
v 0.056292 2.955000 0.032500
v 0.056292 3.205000 0.032500
v 0.032500 2.955000 0.056292
v 0.032500 3.205000 0.056292
v 0.000000 2.955000 0.065000
v 0.000000 3.205000 0.065000
v -0.032500 2.955000 0.056292
v -0.032500 3.205000 0.056292
v -0.056292 2.955000 0.032500
v -0.056292 3.205000 0.032500
v -0.065000 2.955000 0.000000
v -0.065000 3.205000 0.000000
v -0.056292 2.955000 -0.032500
v -0.056292 3.205000 -0.032500
v -0.032500 2.955000 -0.056292
v -0.032500 3.205000 -0.056292
v 0.000000 2.982500 -0.095000
v 0.000000 3.017500 -0.095000
v 0.047500 2.982500 -0.082272
v 0.047500 3.017500 -0.082272
v 0.082272 2.982500 -0.047500
v 0.082272 3.017500 -0.047500
v 0.095000 2.982500 0.000000
v 0.095000 3.017500 0.000000
v 0.082272 2.982500 0.047500
v 0.082272 3.017500 0.047500
v 0.047500 2.982500 0.082272
v 0.047500 3.017500 0.082272
v 0.000000 2.982500 0.095000
v 0.000000 3.017500 0.095000
v -0.047500 2.982500 0.082272
v -0.047500 3.017500 0.082272
v -0.082272 2.982500 0.047500
v -0.082272 3.017500 0.047500
v -0.095000 2.982500 0.000000
v -0.095000 3.017500 0.000000
v -0.082272 2.982500 -0.047500
v -0.082272 3.017500 -0.047500
v -0.047500 2.982500 -0.082272
v -0.047500 3.017500 -0.082272
v 0.000000 3.062500 -0.095000
v 0.000000 3.097500 -0.095000
v 0.047500 3.062500 -0.082272
v 0.047500 3.097500 -0.082272
v 0.082272 3.062500 -0.047500
v 0.082272 3.097500 -0.047500
v 0.095000 3.062500 0.000000
v 0.095000 3.097500 0.000000
v 0.082272 3.062500 0.047500
v 0.082272 3.097500 0.047500
v 0.047500 3.062500 0.082272
v 0.047500 3.097500 0.082272
v 0.000000 3.062500 0.095000
v 0.000000 3.097500 0.095000
v -0.047500 3.062500 0.082272
v -0.047500 3.097500 0.082272
v -0.082272 3.062500 0.047500
v -0.082272 3.097500 0.047500
v -0.095000 3.062500 0.000000
v -0.095000 3.097500 0.000000
v -0.082272 3.062500 -0.047500
v -0.082272 3.097500 -0.047500
v -0.047500 3.062500 -0.082272
v -0.047500 3.097500 -0.082272
v 0.000000 3.142500 -0.095000
v 0.000000 3.177500 -0.095000
v 0.047500 3.142500 -0.082272
v 0.047500 3.177500 -0.082272
v 0.082272 3.142500 -0.047500
v 0.082272 3.177500 -0.047500
v 0.095000 3.142500 0.000000
v 0.095000 3.177500 0.000000
v 0.082272 3.142500 0.047500
v 0.082272 3.177500 0.047500
v 0.047500 3.142500 0.082272
v 0.047500 3.177500 0.082272
v 0.000000 3.142500 0.095000
v 0.000000 3.177500 0.095000
v -0.047500 3.142500 0.082272
v -0.047500 3.177500 0.082272
v -0.082272 3.142500 0.047500
v -0.082272 3.177500 0.047500
v -0.095000 3.142500 0.000000
v -0.095000 3.177500 0.000000
v -0.082272 3.142500 -0.047500
v -0.082272 3.177500 -0.047500
v -0.047500 3.142500 -0.082272
v -0.047500 3.177500 -0.082272
v 0.600000 2.955000 -0.065000
v 0.600000 3.205000 -0.065000
v 0.632500 2.955000 -0.056292
v 0.632500 3.205000 -0.056292
v 0.656292 2.955000 -0.032500
v 0.656292 3.205000 -0.032500
v 0.665000 2.955000 0.000000
v 0.665000 3.205000 0.000000
v 0.656292 2.955000 0.032500
v 0.656292 3.205000 0.032500
v 0.632500 2.955000 0.056292
v 0.632500 3.205000 0.056292
v 0.600000 2.955000 0.065000
v 0.600000 3.205000 0.065000
v 0.567500 2.955000 0.056292
v 0.567500 3.205000 0.056292
v 0.543708 2.955000 0.032500
v 0.543708 3.205000 0.032500
v 0.535000 2.955000 0.000000
v 0.535000 3.205000 0.000000
v 0.543708 2.955000 -0.032500
v 0.543708 3.205000 -0.032500
v 0.567500 2.955000 -0.056292
v 0.567500 3.205000 -0.056292
v 0.600000 2.982500 -0.095000
v 0.600000 3.017500 -0.095000
v 0.647500 2.982500 -0.082272
v 0.647500 3.017500 -0.082272
v 0.682272 2.982500 -0.047500
v 0.682272 3.017500 -0.047500
v 0.695000 2.982500 0.000000
v 0.695000 3.017500 0.000000
v 0.682272 2.982500 0.047500
v 0.682272 3.017500 0.047500
v 0.647500 2.982500 0.082272
v 0.647500 3.017500 0.082272
v 0.600000 2.982500 0.095000
v 0.600000 3.017500 0.095000
v 0.552500 2.982500 0.082272
v 0.552500 3.017500 0.082272
v 0.517728 2.982500 0.047500
v 0.517728 3.017500 0.047500
v 0.505000 2.982500 0.000000
v 0.505000 3.017500 0.000000
v 0.517728 2.982500 -0.047500
v 0.517728 3.017500 -0.047500
v 0.552500 2.982500 -0.082272
v 0.552500 3.017500 -0.082272
v 0.600000 3.062500 -0.095000
v 0.600000 3.097500 -0.095000
v 0.647500 3.062500 -0.082272
v 0.647500 3.097500 -0.082272
v 0.682272 3.062500 -0.047500
v 0.682272 3.097500 -0.047500
v 0.695000 3.062500 0.000000
v 0.695000 3.097500 0.000000
v 0.682272 3.062500 0.047500
v 0.682272 3.097500 0.047500
v 0.647500 3.062500 0.082272
v 0.647500 3.097500 0.082272
v 0.600000 3.062500 0.095000
v 0.600000 3.097500 0.095000
v 0.552500 3.062500 0.082272
v 0.552500 3.097500 0.082272
v 0.517728 3.062500 0.047500
v 0.517728 3.097500 0.047500
v 0.505000 3.062500 0.000000
v 0.505000 3.097500 0.000000
v 0.517728 3.062500 -0.047500
v 0.517728 3.097500 -0.047500
v 0.552500 3.062500 -0.082272
v 0.552500 3.097500 -0.082272
v 0.600000 3.142500 -0.095000
v 0.600000 3.177500 -0.095000
v 0.647500 3.142500 -0.082272
v 0.647500 3.177500 -0.082272
v 0.682272 3.142500 -0.047500
v 0.682272 3.177500 -0.047500
v 0.695000 3.142500 0.000000
v 0.695000 3.177500 0.000000
v 0.682272 3.142500 0.047500
v 0.682272 3.177500 0.047500
v 0.647500 3.142500 0.082272
v 0.647500 3.177500 0.082272
v 0.600000 3.142500 0.095000
v 0.600000 3.177500 0.095000
v 0.552500 3.142500 0.082272
v 0.552500 3.177500 0.082272
v 0.517728 3.142500 0.047500
v 0.517728 3.177500 0.047500
v 0.505000 3.142500 0.000000
v 0.505000 3.177500 0.000000
v 0.517728 3.142500 -0.047500
v 0.517728 3.177500 -0.047500
v 0.552500 3.142500 -0.082272
v 0.552500 3.177500 -0.082272
v -0.015000 1.325000 0.175000
v -0.015000 1.350000 0.200000
v -0.040000 1.350000 0.175000
v -0.015000 1.850000 0.200000
v -0.015000 1.875000 0.175000
v -0.040000 1.850000 0.175000
v -0.015000 1.325000 0.025000
v -0.040000 1.350000 0.025000
v -0.015000 1.350000 0.000000
v -0.015000 1.875000 0.025000
v -0.015000 1.850000 0.000000
v -0.040000 1.850000 0.025000
v 0.315000 1.325000 0.175000
v 0.340000 1.350000 0.175000
v 0.315000 1.350000 0.200000
v 0.315000 1.875000 0.175000
v 0.315000 1.850000 0.200000
v 0.340000 1.850000 0.175000
v 0.315000 1.325000 0.025000
v 0.315000 1.350000 0.000000
v 0.340000 1.350000 0.025000
v 0.315000 1.875000 0.025000
v 0.340000 1.850000 0.025000
v 0.315000 1.850000 0.000000
v -0.002000 1.412000 0.200000
v -0.002000 1.412000 0.228000
v 0.025713 1.396000 0.200000
v 0.025713 1.396000 0.228000
v 0.025713 1.364000 0.200000
v 0.025713 1.364000 0.228000
v -0.002000 1.348000 0.200000
v -0.002000 1.348000 0.228000
v -0.029713 1.364000 0.200000
v -0.029713 1.364000 0.228000
v -0.029713 1.396000 0.200000
v -0.029713 1.396000 0.228000
v -0.002000 1.852000 0.200000
v -0.002000 1.852000 0.228000
v 0.025713 1.836000 0.200000
v 0.025713 1.836000 0.228000
v 0.025713 1.804000 0.200000
v 0.025713 1.804000 0.228000
v -0.002000 1.788000 0.200000
v -0.002000 1.788000 0.228000
v -0.029713 1.804000 0.200000
v -0.029713 1.804000 0.228000
v -0.029713 1.836000 0.200000
v -0.029713 1.836000 0.228000
v 0.302000 1.412000 0.200000
v 0.302000 1.412000 0.228000
v 0.329713 1.396000 0.200000
v 0.329713 1.396000 0.228000
v 0.329713 1.364000 0.200000
v 0.329713 1.364000 0.228000
v 0.302000 1.348000 0.200000
v 0.302000 1.348000 0.228000
v 0.274287 1.364000 0.200000
v 0.274287 1.364000 0.228000
v 0.274287 1.396000 0.200000
v 0.274287 1.396000 0.228000
v 0.302000 1.852000 0.200000
v 0.302000 1.852000 0.228000
v 0.329713 1.836000 0.200000
v 0.329713 1.836000 0.228000
v 0.329713 1.804000 0.200000
v 0.329713 1.804000 0.228000
v 0.302000 1.788000 0.200000
v 0.302000 1.788000 0.228000
v 0.274287 1.804000 0.200000
v 0.274287 1.804000 0.228000
v 0.274287 1.836000 0.200000
v 0.274287 1.836000 0.228000
v -0.100000 0.875000 0.140000
v -0.100000 0.885000 0.150000
v -0.110000 0.885000 0.140000
v -0.100000 0.915000 0.150000
v -0.100000 0.925000 0.140000
v -0.110000 0.915000 0.140000
v -0.100000 0.875000 0.060000
v -0.110000 0.885000 0.060000
v -0.100000 0.885000 0.050000
v -0.100000 0.925000 0.060000
v -0.100000 0.915000 0.050000
v -0.110000 0.915000 0.060000
v 0.100000 0.875000 0.140000
v 0.110000 0.885000 0.140000
v 0.100000 0.885000 0.150000
v 0.100000 0.925000 0.140000
v 0.100000 0.915000 0.150000
v 0.110000 0.915000 0.140000
v 0.100000 0.875000 0.060000
v 0.100000 0.885000 0.050000
v 0.110000 0.885000 0.060000
v 0.100000 0.925000 0.060000
v 0.110000 0.915000 0.060000
v 0.100000 0.915000 0.050000
v -0.100000 1.825000 0.140000
v -0.100000 1.835000 0.150000
v -0.110000 1.835000 0.140000
v -0.100000 1.865000 0.150000
v -0.100000 1.875000 0.140000
v -0.110000 1.865000 0.140000
v -0.100000 1.825000 0.060000
v -0.110000 1.835000 0.060000
v -0.100000 1.835000 0.050000
v -0.100000 1.875000 0.060000
v -0.100000 1.865000 0.050000
v -0.110000 1.865000 0.060000
v 0.100000 1.825000 0.140000
v 0.110000 1.835000 0.140000
v 0.100000 1.835000 0.150000
v 0.100000 1.875000 0.140000
v 0.100000 1.865000 0.150000
v 0.110000 1.865000 0.140000
v 0.100000 1.825000 0.060000
v 0.100000 1.835000 0.050000
v 0.110000 1.835000 0.060000
v 0.100000 1.875000 0.060000
v 0.110000 1.865000 0.060000
v 0.100000 1.865000 0.050000
v 0.025000 2.685355 -0.025000
v 0.525000 2.685355 0.475000
v 0.035355 2.650000 -0.035355
v 0.535355 2.650000 0.464645
v 0.025000 2.614645 -0.025000
v 0.525000 2.614645 0.475000
v 0.000000 2.600000 0.000000
v 0.500000 2.600000 0.500000
v -0.025000 2.614645 0.025000
v 0.475000 2.614645 0.525000
v -0.035355 2.650000 0.035355
v 0.464645 2.650000 0.535355
v -0.025000 2.685355 0.025000
v 0.475000 2.685355 0.525000
v 0.000000 2.700000 0.000000
v 0.500000 2.700000 0.500000
v 0.370000 2.570000 0.670000
v 0.370000 2.590000 0.690000
v 0.350000 2.590000 0.670000
v 0.370000 2.650000 0.690000
v 0.370000 2.670000 0.670000
v 0.350000 2.650000 0.670000
v 0.370000 2.570000 0.390000
v 0.350000 2.590000 0.390000
v 0.370000 2.590000 0.370000
v 0.370000 2.670000 0.390000
v 0.370000 2.650000 0.370000
v 0.350000 2.650000 0.390000
v 0.630000 2.570000 0.670000
v 0.650000 2.590000 0.670000
v 0.630000 2.590000 0.690000
v 0.630000 2.670000 0.670000
v 0.630000 2.650000 0.690000
v 0.650000 2.650000 0.670000
v 0.630000 2.570000 0.390000
v 0.630000 2.590000 0.370000
v 0.650000 2.590000 0.390000
v 0.630000 2.670000 0.390000
v 0.650000 2.650000 0.390000
v 0.630000 2.650000 0.370000
v 0.390000 2.547500 0.650000
v 0.390000 2.552500 0.655000
v 0.385000 2.552500 0.650000
v 0.390000 2.567500 0.655000
v 0.390000 2.572500 0.650000
v 0.385000 2.567500 0.650000
v 0.390000 2.547500 0.410000
v 0.385000 2.552500 0.410000
v 0.390000 2.552500 0.405000
v 0.390000 2.572500 0.410000
v 0.390000 2.567500 0.405000
v 0.385000 2.567500 0.410000
v 0.610000 2.547500 0.650000
v 0.615000 2.552500 0.650000
v 0.610000 2.552500 0.655000
v 0.610000 2.572500 0.650000
v 0.610000 2.567500 0.655000
v 0.615000 2.567500 0.650000
v 0.610000 2.547500 0.410000
v 0.610000 2.552500 0.405000
v 0.615000 2.552500 0.410000
v 0.610000 2.572500 0.410000
v 0.615000 2.567500 0.410000
v 0.610000 2.567500 0.405000
vn 0.2588 -0.0000 -0.9659
vn 0.7071 -0.0000 -0.7071
vn 0.9659 -0.0000 -0.2588
vn 0.9659 -0.0000 0.2588
vn 0.7071 -0.0000 0.7071
vn 0.2588 -0.0000 0.9659
vn -0.2588 -0.0000 0.9659
vn -0.7071 -0.0000 0.7071
vn -0.9659 -0.0000 0.2588
vn -0.9659 -0.0000 -0.2588
vn -0.0000 1.0000 -0.0000
vn -0.7071 -0.0000 -0.7071
vn -0.2588 -0.0000 -0.9659
vn -0.0000 -1.0000 -0.0000
vn -0.5773 -0.5774 0.5774
vn -0.5773 0.5774 0.5773
vn -0.5774 -0.5773 -0.5773
vn -0.5774 0.5773 -0.5773
vn 0.5774 -0.5773 0.5773
vn 0.5774 0.5773 0.5773
vn 0.5773 -0.5774 -0.5774
vn 0.5773 0.5774 -0.5774
vn -0.7071 -0.7071 -0.0000
vn -0.7071 0.7071 -0.0000
vn -0.0000 -0.7071 -0.7071
vn -0.0000 0.7071 -0.7071
vn 0.7071 -0.7071 -0.0000
vn 0.7071 0.7071 -0.0000
vn -0.0000 -0.7071 0.7071
vn -0.0000 0.7071 0.7071
vn -1.0000 -0.0000 -0.0000
vn -0.0000 -0.0000 1.0000
vn -0.0000 -0.0000 -1.0000
vn 1.0000 -0.0000 -0.0000
vn -0.5774 -0.5774 0.5774
vn -0.5773 0.5774 0.5774
vn -0.5773 -0.5774 -0.5774
vn -0.5774 0.5774 -0.5774
vn 0.5774 -0.5774 0.5773
vn 0.5773 0.5774 0.5774
vn 0.5774 0.5774 -0.5773
vn 0.5000 0.8660 -0.0000
vn 0.5000 -0.8660 -0.0000
vn -0.5000 -0.8660 -0.0000
vn -0.5000 0.8660 -0.0000
vn -0.5773 -0.5774 0.5773
vn -0.5773 -0.5774 -0.5773
vn -0.5773 0.5774 -0.5773
vn 0.5773 -0.5774 0.5773
vn 0.5773 0.5774 0.5773
vn 0.5773 -0.5774 -0.5773
vn 0.5773 0.5774 -0.5773
vn -0.5774 -0.5773 0.5773
vn 0.5774 0.5773 -0.5773
vn 0.6533 0.3827 -0.6533
vn 0.6533 -0.3827 -0.6533
vn 0.2706 -0.9239 -0.2706
vn -0.2706 -0.9239 0.2706
vn -0.6533 -0.3827 0.6533
vn -0.6533 0.3827 0.6533
vn -0.2706 0.9239 0.2706
vn 0.2706 0.9239 -0.2706
vn 0.5774 -0.5774 0.5774
vn 0.5774 0.5774 0.5774
vn 0.5774 -0.5774 -0.5774
vn 0.5774 0.5774 -0.5774
vn -0.5774 -0.5773 0.5774
vn -0.5774 0.5773 0.5774
vn -0.5774 -0.5773 -0.5774
vn -0.5774 0.5773 -0.5774
vn 0.5774 -0.5773 0.5774
vn 0.5774 0.5773 0.5774
vn 0.5774 -0.5773 -0.5774
vn 0.5774 0.5773 -0.5774
vt 0.125000 0.875000
vt 0.125000 0.625000
vt 0.875000 0.875000
vt 0.625000 0.125000
vt 0.875000 0.125000
vt 0.375000 0.625000
s 0
usemtl WorldPickupPalette
f 2/1/1 3/1/1 1/1/1
f 4/1/2 5/1/2 3/1/2
f 6/1/3 7/1/3 5/1/3
f 8/1/4 9/1/4 7/1/4
f 10/1/5 11/1/5 9/1/5
f 12/1/6 13/1/6 11/1/6
f 14/1/7 15/1/7 13/1/7
f 16/1/8 17/1/8 15/1/8
f 18/1/9 19/1/9 17/1/9
f 20/1/10 21/1/10 19/1/10
f 22/1/11 14/1/11 6/1/11
f 22/1/12 23/1/12 21/1/12
f 24/1/13 1/1/13 23/1/13
f 7/1/14 15/1/14 23/1/14
f 25/2/15 26/2/15 27/2/15
f 28/2/16 29/2/16 30/2/16
f 31/2/17 32/2/17 33/2/17
f 34/2/18 35/2/18 36/2/18
f 37/2/19 38/2/19 39/2/19
f 40/2/20 41/2/20 42/2/20
f 43/2/21 44/2/21 45/2/21
f 46/2/22 47/2/22 48/2/22
f 25/2/23 32/2/23 31/2/23
f 28/2/8 27/2/8 26/2/8
f 34/2/24 30/2/24 29/2/24
f 33/2/12 36/2/12 35/2/12
f 31/2/25 44/2/25 43/2/25
f 46/2/26 35/2/26 34/2/26
f 45/2/2 48/2/2 47/2/2
f 43/2/27 38/2/27 37/2/27
f 40/2/28 47/2/28 46/2/28
f 39/2/5 42/2/5 41/2/5
f 37/2/29 26/2/29 25/2/29
f 29/2/30 41/2/30 40/2/30
f 43/2/14 25/2/14 31/2/14
f 30/2/31 32/2/31 27/2/31
f 41/2/32 26/2/32 39/2/32
f 34/2/11 40/2/11 46/2/11
f 35/2/33 44/2/33 33/2/33
f 47/2/34 38/2/34 45/2/34
f 50/3/1 51/3/1 49/3/1
f 52/3/2 53/3/2 51/3/2
f 54/3/3 55/3/3 53/3/3
f 56/3/4 57/3/4 55/3/4
f 58/3/5 59/3/5 57/3/5
f 60/3/6 61/3/6 59/3/6
f 62/3/7 63/3/7 61/3/7
f 64/3/8 65/3/8 63/3/8
f 66/3/9 67/3/9 65/3/9
f 68/3/10 69/3/10 67/3/10
f 70/3/11 62/3/11 54/3/11
f 70/3/12 71/3/12 69/3/12
f 72/3/13 49/3/13 71/3/13
f 55/3/14 63/3/14 71/3/14
f 74/3/1 75/3/1 73/3/1
f 76/3/2 77/3/2 75/3/2
f 78/3/3 79/3/3 77/3/3
f 80/3/4 81/3/4 79/3/4
f 82/3/5 83/3/5 81/3/5
f 84/3/6 85/3/6 83/3/6
f 86/3/7 87/3/7 85/3/7
f 88/3/8 89/3/8 87/3/8
f 90/3/9 91/3/9 89/3/9
f 92/3/10 93/3/10 91/3/10
f 94/3/11 86/3/11 78/3/11
f 94/3/12 95/3/12 93/3/12
f 96/3/13 73/3/13 95/3/13
f 79/3/14 87/3/14 95/3/14
f 98/3/1 99/3/1 97/3/1
f 100/3/2 101/3/2 99/3/2
f 102/3/3 103/3/3 101/3/3
f 104/3/4 105/3/4 103/3/4
f 106/3/5 107/3/5 105/3/5
f 108/3/6 109/3/6 107/3/6
f 110/3/7 111/3/7 109/3/7
f 112/3/8 113/3/8 111/3/8
f 114/3/9 115/3/9 113/3/9
f 116/3/10 117/3/10 115/3/10
f 118/3/11 110/3/11 102/3/11
f 118/3/12 119/3/12 117/3/12
f 120/3/13 97/3/13 119/3/13
f 103/3/14 111/3/14 119/3/14
f 122/3/1 123/3/1 121/3/1
f 124/3/2 125/3/2 123/3/2
f 126/3/3 127/3/3 125/3/3
f 128/3/4 129/3/4 127/3/4
f 130/3/5 131/3/5 129/3/5
f 132/3/6 133/3/6 131/3/6
f 134/3/7 135/3/7 133/3/7
f 136/3/8 137/3/8 135/3/8
f 138/3/9 139/3/9 137/3/9
f 140/3/10 141/3/10 139/3/10
f 142/3/11 134/3/11 126/3/11
f 142/3/12 143/3/12 141/3/12
f 144/3/13 121/3/13 143/3/13
f 127/3/14 135/3/14 143/3/14
f 146/3/1 147/3/1 145/3/1
f 148/3/2 149/3/2 147/3/2
f 150/3/3 151/3/3 149/3/3
f 152/3/4 153/3/4 151/3/4
f 154/3/5 155/3/5 153/3/5
f 156/3/6 157/3/6 155/3/6
f 158/3/7 159/3/7 157/3/7
f 160/3/8 161/3/8 159/3/8
f 162/3/9 163/3/9 161/3/9
f 164/3/10 165/3/10 163/3/10
f 146/3/11 166/3/11 158/3/11
f 166/3/12 167/3/12 165/3/12
f 168/3/13 145/3/13 167/3/13
f 159/3/14 163/3/14 167/3/14
f 170/3/1 171/3/1 169/3/1
f 172/3/2 173/3/2 171/3/2
f 174/3/3 175/3/3 173/3/3
f 176/3/4 177/3/4 175/3/4
f 178/3/5 179/3/5 177/3/5
f 180/3/6 181/3/6 179/3/6
f 182/3/7 183/3/7 181/3/7
f 184/3/8 185/3/8 183/3/8
f 186/3/9 187/3/9 185/3/9
f 188/3/10 189/3/10 187/3/10
f 190/3/11 182/3/11 174/3/11
f 190/3/12 191/3/12 189/3/12
f 192/3/13 169/3/13 191/3/13
f 175/3/14 183/3/14 191/3/14
f 194/3/1 195/3/1 193/3/1
f 196/3/2 197/3/2 195/3/2
f 198/3/3 199/3/3 197/3/3
f 200/3/4 201/3/4 199/3/4
f 202/3/5 203/3/5 201/3/5
f 204/3/6 205/3/6 203/3/6
f 206/3/7 207/3/7 205/3/7
f 208/3/8 209/3/8 207/3/8
f 210/3/9 211/3/9 209/3/9
f 212/3/10 213/3/10 211/3/10
f 214/3/11 206/3/11 198/3/11
f 214/3/12 215/3/12 213/3/12
f 216/3/13 193/3/13 215/3/13
f 199/3/14 207/3/14 215/3/14
f 218/3/1 219/3/1 217/3/1
f 220/3/2 221/3/2 219/3/2
f 222/3/3 223/3/3 221/3/3
f 224/3/4 225/3/4 223/3/4
f 226/3/5 227/3/5 225/3/5
f 228/3/6 229/3/6 227/3/6
f 230/3/7 231/3/7 229/3/7
f 232/3/8 233/3/8 231/3/8
f 234/3/9 235/3/9 233/3/9
f 236/3/10 237/3/10 235/3/10
f 238/3/11 230/3/11 222/3/11
f 238/3/12 239/3/12 237/3/12
f 240/3/13 217/3/13 239/3/13
f 223/3/14 231/3/14 239/3/14
f 242/3/1 243/3/1 241/3/1
f 244/3/2 245/3/2 243/3/2
f 246/3/3 247/3/3 245/3/3
f 248/3/4 249/3/4 247/3/4
f 250/3/5 251/3/5 249/3/5
f 252/3/6 253/3/6 251/3/6
f 254/3/7 255/3/7 253/3/7
f 256/3/8 257/3/8 255/3/8
f 258/3/9 259/3/9 257/3/9
f 260/3/10 261/3/10 259/3/10
f 262/3/11 254/3/11 246/3/11
f 262/3/12 263/3/12 261/3/12
f 264/3/13 241/3/13 263/3/13
f 247/3/14 255/3/14 263/3/14
f 266/3/1 267/3/1 265/3/1
f 268/3/2 269/3/2 267/3/2
f 270/3/3 271/3/3 269/3/3
f 272/3/4 273/3/4 271/3/4
f 274/3/5 275/3/5 273/3/5
f 276/3/6 277/3/6 275/3/6
f 278/3/7 279/3/7 277/3/7
f 280/3/8 281/3/8 279/3/8
f 282/3/9 283/3/9 281/3/9
f 284/3/10 285/3/10 283/3/10
f 286/3/11 278/3/11 270/3/11
f 286/3/12 287/3/12 285/3/12
f 288/3/13 265/3/13 287/3/13
f 271/3/14 279/3/14 287/3/14
f 290/3/1 291/3/1 289/3/1
f 292/3/2 293/3/2 291/3/2
f 294/3/3 295/3/3 293/3/3
f 296/3/4 297/3/4 295/3/4
f 298/3/5 299/3/5 297/3/5
f 300/3/6 301/3/6 299/3/6
f 302/3/7 303/3/7 301/3/7
f 304/3/8 305/3/8 303/3/8
f 306/3/9 307/3/9 305/3/9
f 308/3/10 309/3/10 307/3/10
f 310/3/11 302/3/11 294/3/11
f 310/3/12 311/3/12 309/3/12
f 312/3/13 289/3/13 311/3/13
f 295/3/14 303/3/14 311/3/14
f 314/3/1 315/3/1 313/3/1
f 316/3/2 317/3/2 315/3/2
f 318/3/3 319/3/3 317/3/3
f 320/3/4 321/3/4 319/3/4
f 322/3/5 323/3/5 321/3/5
f 324/3/6 325/3/6 323/3/6
f 326/3/7 327/3/7 325/3/7
f 328/3/8 329/3/8 327/3/8
f 330/3/9 331/3/9 329/3/9
f 332/3/10 333/3/10 331/3/10
f 334/3/11 326/3/11 318/3/11
f 334/3/12 335/3/12 333/3/12
f 336/3/13 313/3/13 335/3/13
f 319/3/14 327/3/14 335/3/14
f 337/4/35 338/4/35 339/4/35
f 340/4/36 341/4/36 342/4/36
f 343/4/37 344/4/37 345/4/37
f 346/4/38 347/4/38 348/4/38
f 349/4/39 350/4/39 351/4/39
f 352/4/40 353/4/40 354/4/40
f 355/4/21 356/4/21 357/4/21
f 358/4/41 359/4/41 360/4/41
f 337/4/23 344/4/23 343/4/23
f 340/4/8 339/4/8 338/4/8
f 346/4/24 342/4/24 341/4/24
f 345/4/12 348/4/12 347/4/12
f 343/4/25 356/4/25 355/4/25
f 358/4/26 347/4/26 346/4/26
f 357/4/2 360/4/2 359/4/2
f 355/4/27 350/4/27 349/4/27
f 352/4/28 359/4/28 358/4/28
f 351/4/5 354/4/5 353/4/5
f 349/4/29 338/4/29 337/4/29
f 341/4/30 353/4/30 352/4/30
f 355/4/14 337/4/14 343/4/14
f 342/4/31 344/4/31 339/4/31
f 353/4/32 338/4/32 351/4/32
f 346/4/11 352/4/11 358/4/11
f 347/4/33 356/4/33 345/4/33
f 359/4/34 350/4/34 357/4/34
f 362/2/42 363/2/42 361/2/42
f 364/2/34 365/2/34 363/2/34
f 366/2/43 367/2/43 365/2/43
f 368/2/44 369/2/44 367/2/44
f 368/2/32 366/2/32 362/2/32
f 370/2/31 371/2/31 369/2/31
f 372/2/45 361/2/45 371/2/45
f 367/2/33 369/2/33 371/2/33
f 374/2/42 375/2/42 373/2/42
f 376/2/34 377/2/34 375/2/34
f 378/2/43 379/2/43 377/2/43
f 380/2/44 381/2/44 379/2/44
f 380/2/32 378/2/32 374/2/32
f 382/2/31 383/2/31 381/2/31
f 384/2/45 373/2/45 383/2/45
f 379/2/33 381/2/33 383/2/33
f 386/2/42 387/2/42 385/2/42
f 388/2/34 389/2/34 387/2/34
f 390/2/43 391/2/43 389/2/43
f 392/2/44 393/2/44 391/2/44
f 392/2/32 390/2/32 386/2/32
f 394/2/31 395/2/31 393/2/31
f 396/2/45 385/2/45 395/2/45
f 391/2/33 393/2/33 395/2/33
f 398/2/42 399/2/42 397/2/42
f 400/2/34 401/2/34 399/2/34
f 402/2/43 403/2/43 401/2/43
f 404/2/44 405/2/44 403/2/44
f 404/2/32 402/2/32 398/2/32
f 406/2/31 407/2/31 405/2/31
f 408/2/45 397/2/45 407/2/45
f 403/2/33 405/2/33 407/2/33
f 409/2/46 410/2/46 411/2/46
f 412/2/16 413/2/16 414/2/16
f 415/2/47 416/2/47 417/2/47
f 418/2/48 419/2/48 420/2/48
f 421/2/49 422/2/49 423/2/49
f 424/2/50 425/2/50 426/2/50
f 427/2/51 428/2/51 429/2/51
f 430/2/52 431/2/52 432/2/52
f 409/2/23 416/2/23 415/2/23
f 412/2/8 411/2/8 410/2/8
f 418/2/24 414/2/24 413/2/24
f 417/2/12 420/2/12 419/2/12
f 415/2/25 428/2/25 427/2/25
f 430/2/26 419/2/26 418/2/26
f 429/2/2 432/2/2 431/2/2
f 427/2/27 422/2/27 421/2/27
f 424/2/28 431/2/28 430/2/28
f 423/2/5 426/2/5 425/2/5
f 421/2/29 410/2/29 409/2/29
f 413/2/30 425/2/30 424/2/30
f 427/2/14 409/2/14 415/2/14
f 414/2/31 416/2/31 411/2/31
f 425/2/32 410/2/32 423/2/32
f 418/2/11 424/2/11 430/2/11
f 419/2/33 428/2/33 417/2/33
f 431/2/34 422/2/34 429/2/34
f 433/2/53 434/2/53 435/2/53
f 436/2/36 437/2/36 438/2/36
f 439/2/37 440/2/37 441/2/37
f 442/2/18 443/2/18 444/2/18
f 445/2/19 446/2/19 447/2/19
f 448/2/40 449/2/40 450/2/40
f 451/2/21 452/2/21 453/2/21
f 454/2/54 455/2/54 456/2/54
f 433/2/23 440/2/23 439/2/23
f 436/2/8 435/2/8 434/2/8
f 442/2/24 438/2/24 437/2/24
f 441/2/12 444/2/12 443/2/12
f 439/2/25 452/2/25 451/2/25
f 454/2/26 443/2/26 442/2/26
f 453/2/2 456/2/2 455/2/2
f 451/2/27 446/2/27 445/2/27
f 448/2/28 455/2/28 454/2/28
f 447/2/5 450/2/5 449/2/5
f 445/2/29 434/2/29 433/2/29
f 437/2/30 449/2/30 448/2/30
f 451/2/14 433/2/14 439/2/14
f 438/2/31 440/2/31 435/2/31
f 449/2/32 434/2/32 447/2/32
f 442/2/11 448/2/11 454/2/11
f 443/2/33 452/2/33 441/2/33
f 455/2/34 446/2/34 453/2/34
f 458/2/55 459/2/55 457/2/55
f 460/2/56 461/2/56 459/2/56
f 462/2/57 463/2/57 461/2/57
f 464/2/58 465/2/58 463/2/58
f 466/2/59 467/2/59 465/2/59
f 468/2/60 469/2/60 467/2/60
f 464/2/5 462/2/5 470/2/5
f 470/2/61 471/2/61 469/2/61
f 472/2/62 457/2/62 471/2/62
f 463/2/12 467/2/12 471/2/12
f 473/5/46 474/5/46 475/5/46
f 476/5/16 477/5/16 478/5/16
f 479/5/47 480/5/47 481/5/47
f 482/5/48 483/5/48 484/5/48
f 485/5/63 486/5/63 487/5/63
f 488/5/64 489/5/64 490/5/64
f 491/5/65 492/5/65 493/5/65
f 494/5/66 495/5/66 496/5/66
f 473/5/23 480/5/23 479/5/23
f 476/5/8 475/5/8 474/5/8
f 482/5/24 478/5/24 477/5/24
f 481/5/12 484/5/12 483/5/12
f 479/5/25 492/5/25 491/5/25
f 494/5/26 483/5/26 482/5/26
f 493/5/2 496/5/2 495/5/2
f 491/5/27 486/5/27 485/5/27
f 488/5/28 495/5/28 494/5/28
f 487/5/5 490/5/5 489/5/5
f 485/5/29 474/5/29 473/5/29
f 477/5/30 489/5/30 488/5/30
f 491/5/14 473/5/14 479/5/14
f 478/5/31 480/5/31 475/5/31
f 489/5/32 474/5/32 487/5/32
f 482/5/11 488/5/11 494/5/11
f 483/5/33 492/5/33 481/5/33
f 495/5/34 486/5/34 493/5/34
f 497/6/67 498/6/67 499/6/67
f 500/6/68 501/6/68 502/6/68
f 503/6/69 504/6/69 505/6/69
f 506/6/70 507/6/70 508/6/70
f 509/6/71 510/6/71 511/6/71
f 512/6/72 513/6/72 514/6/72
f 515/6/73 516/6/73 517/6/73
f 518/6/74 519/6/74 520/6/74
f 497/6/23 504/6/23 503/6/23
f 500/6/8 499/6/8 498/6/8
f 506/6/24 502/6/24 501/6/24
f 505/6/12 508/6/12 507/6/12
f 503/6/25 516/6/25 515/6/25
f 518/6/26 507/6/26 506/6/26
f 517/6/2 520/6/2 519/6/2
f 515/6/27 510/6/27 509/6/27
f 512/6/28 519/6/28 518/6/28
f 511/6/5 514/6/5 513/6/5
f 509/6/29 498/6/29 497/6/29
f 501/6/30 513/6/30 512/6/30
f 515/6/14 497/6/14 503/6/14
f 502/6/31 504/6/31 499/6/31
f 513/6/32 498/6/32 511/6/32
f 506/6/11 512/6/11 518/6/11
f 507/6/33 516/6/33 505/6/33
f 519/6/34 510/6/34 517/6/34
f 2/1/1 4/1/1 3/1/1
f 4/1/2 6/1/2 5/1/2
f 6/1/3 8/1/3 7/1/3
f 8/1/4 10/1/4 9/1/4
f 10/1/5 12/1/5 11/1/5
f 12/1/6 14/1/6 13/1/6
f 14/1/7 16/1/7 15/1/7
f 16/1/8 18/1/8 17/1/8
f 18/1/9 20/1/9 19/1/9
f 20/1/10 22/1/10 21/1/10
f 6/1/11 4/1/11 2/1/11
f 2/1/11 24/1/11 22/1/11
f 22/1/11 20/1/11 18/1/11
f 18/1/11 16/1/11 14/1/11
f 14/1/11 12/1/11 10/1/11
f 10/1/11 8/1/11 6/1/11
f 6/1/11 2/1/11 22/1/11
f 22/1/11 18/1/11 14/1/11
f 14/1/11 10/1/11 6/1/11
f 22/1/12 24/1/12 23/1/12
f 24/1/13 2/1/13 1/1/13
f 23/1/14 1/1/14 3/1/14
f 3/1/14 5/1/14 7/1/14
f 7/1/14 9/1/14 11/1/14
f 11/1/14 13/1/14 15/1/14
f 15/1/14 17/1/14 19/1/14
f 19/1/14 21/1/14 23/1/14
f 23/1/14 3/1/14 7/1/14
f 7/1/14 11/1/14 15/1/14
f 15/1/14 19/1/14 23/1/14
f 25/2/23 27/2/23 32/2/23
f 28/2/8 30/2/8 27/2/8
f 34/2/24 36/2/24 30/2/24
f 33/2/12 32/2/12 36/2/12
f 31/2/25 33/2/25 44/2/25
f 46/2/26 48/2/26 35/2/26
f 45/2/2 44/2/2 48/2/2
f 43/2/27 45/2/27 38/2/27
f 40/2/28 42/2/28 47/2/28
f 39/2/5 38/2/5 42/2/5
f 37/2/29 39/2/29 26/2/29
f 29/2/30 28/2/30 41/2/30
f 43/2/14 37/2/14 25/2/14
f 30/2/31 36/2/31 32/2/31
f 41/2/32 28/2/32 26/2/32
f 34/2/11 29/2/11 40/2/11
f 35/2/33 48/2/33 44/2/33
f 47/2/34 42/2/34 38/2/34
f 50/3/1 52/3/1 51/3/1
f 52/3/2 54/3/2 53/3/2
f 54/3/3 56/3/3 55/3/3
f 56/3/4 58/3/4 57/3/4
f 58/3/5 60/3/5 59/3/5
f 60/3/6 62/3/6 61/3/6
f 62/3/7 64/3/7 63/3/7
f 64/3/8 66/3/8 65/3/8
f 66/3/9 68/3/9 67/3/9
f 68/3/10 70/3/10 69/3/10
f 54/3/11 52/3/11 50/3/11
f 50/3/11 72/3/11 70/3/11
f 70/3/11 68/3/11 66/3/11
f 66/3/11 64/3/11 62/3/11
f 62/3/11 60/3/11 58/3/11
f 58/3/11 56/3/11 54/3/11
f 54/3/11 50/3/11 70/3/11
f 70/3/11 66/3/11 62/3/11
f 62/3/11 58/3/11 54/3/11
f 70/3/12 72/3/12 71/3/12
f 72/3/13 50/3/13 49/3/13
f 71/3/14 49/3/14 51/3/14
f 51/3/14 53/3/14 71/3/14
f 53/3/14 55/3/14 71/3/14
f 55/3/14 57/3/14 63/3/14
f 57/3/14 59/3/14 63/3/14
f 59/3/14 61/3/14 63/3/14
f 63/3/14 65/3/14 67/3/14
f 67/3/14 69/3/14 63/3/14
f 69/3/14 71/3/14 63/3/14
f 74/3/1 76/3/1 75/3/1
f 76/3/2 78/3/2 77/3/2
f 78/3/3 80/3/3 79/3/3
f 80/3/4 82/3/4 81/3/4
f 82/3/5 84/3/5 83/3/5
f 84/3/6 86/3/6 85/3/6
f 86/3/7 88/3/7 87/3/7
f 88/3/8 90/3/8 89/3/8
f 90/3/9 92/3/9 91/3/9
f 92/3/10 94/3/10 93/3/10
f 78/3/11 76/3/11 74/3/11
f 74/3/11 96/3/11 94/3/11
f 94/3/11 92/3/11 90/3/11
f 90/3/11 88/3/11 86/3/11
f 86/3/11 84/3/11 82/3/11
f 82/3/11 80/3/11 78/3/11
f 78/3/11 74/3/11 94/3/11
f 94/3/11 90/3/11 86/3/11
f 86/3/11 82/3/11 78/3/11
f 94/3/12 96/3/12 95/3/12
f 96/3/13 74/3/13 73/3/13
f 95/3/14 73/3/14 75/3/14
f 75/3/14 77/3/14 95/3/14
f 77/3/14 79/3/14 95/3/14
f 79/3/14 81/3/14 87/3/14
f 81/3/14 83/3/14 87/3/14
f 83/3/14 85/3/14 87/3/14
f 87/3/14 89/3/14 91/3/14
f 91/3/14 93/3/14 87/3/14
f 93/3/14 95/3/14 87/3/14
f 98/3/1 100/3/1 99/3/1
f 100/3/2 102/3/2 101/3/2
f 102/3/3 104/3/3 103/3/3
f 104/3/4 106/3/4 105/3/4
f 106/3/5 108/3/5 107/3/5
f 108/3/6 110/3/6 109/3/6
f 110/3/7 112/3/7 111/3/7
f 112/3/8 114/3/8 113/3/8
f 114/3/9 116/3/9 115/3/9
f 116/3/10 118/3/10 117/3/10
f 102/3/11 100/3/11 98/3/11
f 98/3/11 120/3/11 118/3/11
f 118/3/11 116/3/11 114/3/11
f 114/3/11 112/3/11 110/3/11
f 110/3/11 108/3/11 106/3/11
f 106/3/11 104/3/11 102/3/11
f 102/3/11 98/3/11 118/3/11
f 118/3/11 114/3/11 110/3/11
f 110/3/11 106/3/11 102/3/11
f 118/3/12 120/3/12 119/3/12
f 120/3/13 98/3/13 97/3/13
f 119/3/14 97/3/14 99/3/14
f 99/3/14 101/3/14 119/3/14
f 101/3/14 103/3/14 119/3/14
f 103/3/14 105/3/14 111/3/14
f 105/3/14 107/3/14 111/3/14
f 107/3/14 109/3/14 111/3/14
f 111/3/14 113/3/14 115/3/14
f 115/3/14 117/3/14 111/3/14
f 117/3/14 119/3/14 111/3/14
f 122/3/1 124/3/1 123/3/1
f 124/3/2 126/3/2 125/3/2
f 126/3/3 128/3/3 127/3/3
f 128/3/4 130/3/4 129/3/4
f 130/3/5 132/3/5 131/3/5
f 132/3/6 134/3/6 133/3/6
f 134/3/7 136/3/7 135/3/7
f 136/3/8 138/3/8 137/3/8
f 138/3/9 140/3/9 139/3/9
f 140/3/10 142/3/10 141/3/10
f 126/3/11 124/3/11 122/3/11
f 122/3/11 144/3/11 142/3/11
f 142/3/11 140/3/11 138/3/11
f 138/3/11 136/3/11 134/3/11
f 134/3/11 132/3/11 130/3/11
f 130/3/11 128/3/11 126/3/11
f 126/3/11 122/3/11 142/3/11
f 142/3/11 138/3/11 134/3/11
f 134/3/11 130/3/11 126/3/11
f 142/3/12 144/3/12 143/3/12
f 144/3/13 122/3/13 121/3/13
f 143/3/14 121/3/14 123/3/14
f 123/3/14 125/3/14 143/3/14
f 125/3/14 127/3/14 143/3/14
f 127/3/14 129/3/14 135/3/14
f 129/3/14 131/3/14 135/3/14
f 131/3/14 133/3/14 135/3/14
f 135/3/14 137/3/14 139/3/14
f 139/3/14 141/3/14 135/3/14
f 141/3/14 143/3/14 135/3/14
f 146/3/1 148/3/1 147/3/1
f 148/3/2 150/3/2 149/3/2
f 150/3/3 152/3/3 151/3/3
f 152/3/4 154/3/4 153/3/4
f 154/3/5 156/3/5 155/3/5
f 156/3/6 158/3/6 157/3/6
f 158/3/7 160/3/7 159/3/7
f 160/3/8 162/3/8 161/3/8
f 162/3/9 164/3/9 163/3/9
f 164/3/10 166/3/10 165/3/10
f 150/3/11 148/3/11 146/3/11
f 146/3/11 168/3/11 166/3/11
f 166/3/11 164/3/11 158/3/11
f 164/3/11 162/3/11 158/3/11
f 162/3/11 160/3/11 158/3/11
f 158/3/11 156/3/11 154/3/11
f 154/3/11 152/3/11 158/3/11
f 152/3/11 150/3/11 158/3/11
f 150/3/11 146/3/11 158/3/11
f 166/3/12 168/3/12 167/3/12
f 168/3/13 146/3/13 145/3/13
f 167/3/14 145/3/14 147/3/14
f 147/3/14 149/3/14 151/3/14
f 151/3/14 153/3/14 155/3/14
f 155/3/14 157/3/14 151/3/14
f 157/3/14 159/3/14 151/3/14
f 159/3/14 161/3/14 163/3/14
f 163/3/14 165/3/14 167/3/14
f 167/3/14 147/3/14 159/3/14
f 147/3/14 151/3/14 159/3/14
f 170/3/1 172/3/1 171/3/1
f 172/3/2 174/3/2 173/3/2
f 174/3/3 176/3/3 175/3/3
f 176/3/4 178/3/4 177/3/4
f 178/3/5 180/3/5 179/3/5
f 180/3/6 182/3/6 181/3/6
f 182/3/7 184/3/7 183/3/7
f 184/3/8 186/3/8 185/3/8
f 186/3/9 188/3/9 187/3/9
f 188/3/10 190/3/10 189/3/10
f 174/3/11 172/3/11 170/3/11
f 170/3/11 192/3/11 174/3/11
f 192/3/11 190/3/11 174/3/11
f 190/3/11 188/3/11 186/3/11
f 186/3/11 184/3/11 182/3/11
f 182/3/11 180/3/11 178/3/11
f 178/3/11 176/3/11 174/3/11
f 190/3/11 186/3/11 182/3/11
f 182/3/11 178/3/11 174/3/11
f 190/3/12 192/3/12 191/3/12
f 192/3/13 170/3/13 169/3/13
f 191/3/14 169/3/14 171/3/14
f 171/3/14 173/3/14 175/3/14
f 175/3/14 177/3/14 179/3/14
f 179/3/14 181/3/14 183/3/14
f 183/3/14 185/3/14 187/3/14
f 187/3/14 189/3/14 183/3/14
f 189/3/14 191/3/14 183/3/14
f 191/3/14 171/3/14 175/3/14
f 175/3/14 179/3/14 183/3/14
f 194/3/1 196/3/1 195/3/1
f 196/3/2 198/3/2 197/3/2
f 198/3/3 200/3/3 199/3/3
f 200/3/4 202/3/4 201/3/4
f 202/3/5 204/3/5 203/3/5
f 204/3/6 206/3/6 205/3/6
f 206/3/7 208/3/7 207/3/7
f 208/3/8 210/3/8 209/3/8
f 210/3/9 212/3/9 211/3/9
f 212/3/10 214/3/10 213/3/10
f 198/3/11 196/3/11 194/3/11
f 194/3/11 216/3/11 198/3/11
f 216/3/11 214/3/11 198/3/11
f 214/3/11 212/3/11 210/3/11
f 210/3/11 208/3/11 206/3/11
f 206/3/11 204/3/11 202/3/11
f 202/3/11 200/3/11 198/3/11
f 214/3/11 210/3/11 206/3/11
f 206/3/11 202/3/11 198/3/11
f 214/3/12 216/3/12 215/3/12
f 216/3/13 194/3/13 193/3/13
f 215/3/14 193/3/14 195/3/14
f 195/3/14 197/3/14 199/3/14
f 199/3/14 201/3/14 203/3/14
f 203/3/14 205/3/14 207/3/14
f 207/3/14 209/3/14 211/3/14
f 211/3/14 213/3/14 207/3/14
f 213/3/14 215/3/14 207/3/14
f 215/3/14 195/3/14 199/3/14
f 199/3/14 203/3/14 207/3/14
f 218/3/1 220/3/1 219/3/1
f 220/3/2 222/3/2 221/3/2
f 222/3/3 224/3/3 223/3/3
f 224/3/4 226/3/4 225/3/4
f 226/3/5 228/3/5 227/3/5
f 228/3/6 230/3/6 229/3/6
f 230/3/7 232/3/7 231/3/7
f 232/3/8 234/3/8 233/3/8
f 234/3/9 236/3/9 235/3/9
f 236/3/10 238/3/10 237/3/10
f 222/3/11 220/3/11 218/3/11
f 218/3/11 240/3/11 222/3/11
f 240/3/11 238/3/11 222/3/11
f 238/3/11 236/3/11 234/3/11
f 234/3/11 232/3/11 230/3/11
f 230/3/11 228/3/11 226/3/11
f 226/3/11 224/3/11 222/3/11
f 238/3/11 234/3/11 230/3/11
f 230/3/11 226/3/11 222/3/11
f 238/3/12 240/3/12 239/3/12
f 240/3/13 218/3/13 217/3/13
f 239/3/14 217/3/14 219/3/14
f 219/3/14 221/3/14 223/3/14
f 223/3/14 225/3/14 227/3/14
f 227/3/14 229/3/14 231/3/14
f 231/3/14 233/3/14 235/3/14
f 235/3/14 237/3/14 231/3/14
f 237/3/14 239/3/14 231/3/14
f 239/3/14 219/3/14 223/3/14
f 223/3/14 227/3/14 231/3/14
f 242/3/1 244/3/1 243/3/1
f 244/3/2 246/3/2 245/3/2
f 246/3/3 248/3/3 247/3/3
f 248/3/4 250/3/4 249/3/4
f 250/3/5 252/3/5 251/3/5
f 252/3/6 254/3/6 253/3/6
f 254/3/7 256/3/7 255/3/7
f 256/3/8 258/3/8 257/3/8
f 258/3/9 260/3/9 259/3/9
f 260/3/10 262/3/10 261/3/10
f 246/3/11 244/3/11 242/3/11
f 242/3/11 264/3/11 262/3/11
f 262/3/11 260/3/11 258/3/11
f 258/3/11 256/3/11 254/3/11
f 254/3/11 252/3/11 250/3/11
f 250/3/11 248/3/11 246/3/11
f 246/3/11 242/3/11 262/3/11
f 262/3/11 258/3/11 254/3/11
f 254/3/11 250/3/11 246/3/11
f 262/3/12 264/3/12 263/3/12
f 264/3/13 242/3/13 241/3/13
f 263/3/14 241/3/14 243/3/14
f 243/3/14 245/3/14 263/3/14
f 245/3/14 247/3/14 263/3/14
f 247/3/14 249/3/14 255/3/14
f 249/3/14 251/3/14 255/3/14
f 251/3/14 253/3/14 255/3/14
f 255/3/14 257/3/14 259/3/14
f 259/3/14 261/3/14 255/3/14
f 261/3/14 263/3/14 255/3/14
f 266/3/1 268/3/1 267/3/1
f 268/3/2 270/3/2 269/3/2
f 270/3/3 272/3/3 271/3/3
f 272/3/4 274/3/4 273/3/4
f 274/3/5 276/3/5 275/3/5
f 276/3/6 278/3/6 277/3/6
f 278/3/7 280/3/7 279/3/7
f 280/3/8 282/3/8 281/3/8
f 282/3/9 284/3/9 283/3/9
f 284/3/10 286/3/10 285/3/10
f 270/3/11 268/3/11 266/3/11
f 266/3/11 288/3/11 286/3/11
f 286/3/11 284/3/11 282/3/11
f 282/3/11 280/3/11 278/3/11
f 278/3/11 276/3/11 274/3/11
f 274/3/11 272/3/11 270/3/11
f 270/3/11 266/3/11 286/3/11
f 286/3/11 282/3/11 278/3/11
f 278/3/11 274/3/11 270/3/11
f 286/3/12 288/3/12 287/3/12
f 288/3/13 266/3/13 265/3/13
f 287/3/14 265/3/14 267/3/14
f 267/3/14 269/3/14 287/3/14
f 269/3/14 271/3/14 287/3/14
f 271/3/14 273/3/14 279/3/14
f 273/3/14 275/3/14 279/3/14
f 275/3/14 277/3/14 279/3/14
f 279/3/14 281/3/14 283/3/14
f 283/3/14 285/3/14 279/3/14
f 285/3/14 287/3/14 279/3/14
f 290/3/1 292/3/1 291/3/1
f 292/3/2 294/3/2 293/3/2
f 294/3/3 296/3/3 295/3/3
f 296/3/4 298/3/4 297/3/4
f 298/3/5 300/3/5 299/3/5
f 300/3/6 302/3/6 301/3/6
f 302/3/7 304/3/7 303/3/7
f 304/3/8 306/3/8 305/3/8
f 306/3/9 308/3/9 307/3/9
f 308/3/10 310/3/10 309/3/10
f 294/3/11 292/3/11 290/3/11
f 290/3/11 312/3/11 310/3/11
f 310/3/11 308/3/11 306/3/11
f 306/3/11 304/3/11 302/3/11
f 302/3/11 300/3/11 298/3/11
f 298/3/11 296/3/11 294/3/11
f 294/3/11 290/3/11 310/3/11
f 310/3/11 306/3/11 302/3/11
f 302/3/11 298/3/11 294/3/11
f 310/3/12 312/3/12 311/3/12
f 312/3/13 290/3/13 289/3/13
f 311/3/14 289/3/14 291/3/14
f 291/3/14 293/3/14 311/3/14
f 293/3/14 295/3/14 311/3/14
f 295/3/14 297/3/14 303/3/14
f 297/3/14 299/3/14 303/3/14
f 299/3/14 301/3/14 303/3/14
f 303/3/14 305/3/14 307/3/14
f 307/3/14 309/3/14 303/3/14
f 309/3/14 311/3/14 303/3/14
f 314/3/1 316/3/1 315/3/1
f 316/3/2 318/3/2 317/3/2
f 318/3/3 320/3/3 319/3/3
f 320/3/4 322/3/4 321/3/4
f 322/3/5 324/3/5 323/3/5
f 324/3/6 326/3/6 325/3/6
f 326/3/7 328/3/7 327/3/7
f 328/3/8 330/3/8 329/3/8
f 330/3/9 332/3/9 331/3/9
f 332/3/10 334/3/10 333/3/10
f 318/3/11 316/3/11 314/3/11
f 314/3/11 336/3/11 334/3/11
f 334/3/11 332/3/11 330/3/11
f 330/3/11 328/3/11 326/3/11
f 326/3/11 324/3/11 322/3/11
f 322/3/11 320/3/11 318/3/11
f 318/3/11 314/3/11 334/3/11
f 334/3/11 330/3/11 326/3/11
f 326/3/11 322/3/11 318/3/11
f 334/3/12 336/3/12 335/3/12
f 336/3/13 314/3/13 313/3/13
f 335/3/14 313/3/14 315/3/14
f 315/3/14 317/3/14 335/3/14
f 317/3/14 319/3/14 335/3/14
f 319/3/14 321/3/14 327/3/14
f 321/3/14 323/3/14 327/3/14
f 323/3/14 325/3/14 327/3/14
f 327/3/14 329/3/14 331/3/14
f 331/3/14 333/3/14 327/3/14
f 333/3/14 335/3/14 327/3/14
f 337/4/23 339/4/23 344/4/23
f 340/4/8 342/4/8 339/4/8
f 346/4/24 348/4/24 342/4/24
f 345/4/12 344/4/12 348/4/12
f 343/4/25 345/4/25 356/4/25
f 358/4/26 360/4/26 347/4/26
f 357/4/2 356/4/2 360/4/2
f 355/4/27 357/4/27 350/4/27
f 352/4/28 354/4/28 359/4/28
f 351/4/5 350/4/5 354/4/5
f 349/4/29 351/4/29 338/4/29
f 341/4/30 340/4/30 353/4/30
f 355/4/14 349/4/14 337/4/14
f 342/4/31 348/4/31 344/4/31
f 353/4/32 340/4/32 338/4/32
f 346/4/11 341/4/11 352/4/11
f 347/4/33 360/4/33 356/4/33
f 359/4/34 354/4/34 350/4/34
f 362/2/42 364/2/42 363/2/42
f 364/2/34 366/2/34 365/2/34
f 366/2/43 368/2/43 367/2/43
f 368/2/44 370/2/44 369/2/44
f 366/2/32 364/2/32 362/2/32
f 362/2/32 372/2/32 370/2/32
f 370/2/32 368/2/32 362/2/32
f 370/2/31 372/2/31 371/2/31
f 372/2/45 362/2/45 361/2/45
f 371/2/33 361/2/33 367/2/33
f 361/2/33 363/2/33 367/2/33
f 363/2/33 365/2/33 367/2/33
f 374/2/42 376/2/42 375/2/42
f 376/2/34 378/2/34 377/2/34
f 378/2/43 380/2/43 379/2/43
f 380/2/44 382/2/44 381/2/44
f 378/2/32 376/2/32 374/2/32
f 374/2/32 384/2/32 382/2/32
f 382/2/32 380/2/32 374/2/32
f 382/2/31 384/2/31 383/2/31
f 384/2/45 374/2/45 373/2/45
f 383/2/33 373/2/33 379/2/33
f 373/2/33 375/2/33 379/2/33
f 375/2/33 377/2/33 379/2/33
f 386/2/42 388/2/42 387/2/42
f 388/2/34 390/2/34 389/2/34
f 390/2/43 392/2/43 391/2/43
f 392/2/44 394/2/44 393/2/44
f 390/2/32 388/2/32 386/2/32
f 386/2/32 396/2/32 394/2/32
f 394/2/32 392/2/32 386/2/32
f 394/2/31 396/2/31 395/2/31
f 396/2/45 386/2/45 385/2/45
f 395/2/33 385/2/33 391/2/33
f 385/2/33 387/2/33 391/2/33
f 387/2/33 389/2/33 391/2/33
f 398/2/42 400/2/42 399/2/42
f 400/2/34 402/2/34 401/2/34
f 402/2/43 404/2/43 403/2/43
f 404/2/44 406/2/44 405/2/44
f 402/2/32 400/2/32 398/2/32
f 398/2/32 408/2/32 406/2/32
f 406/2/32 404/2/32 398/2/32
f 406/2/31 408/2/31 407/2/31
f 408/2/45 398/2/45 397/2/45
f 407/2/33 397/2/33 403/2/33
f 397/2/33 399/2/33 403/2/33
f 399/2/33 401/2/33 403/2/33
f 409/2/23 411/2/23 416/2/23
f 412/2/8 414/2/8 411/2/8
f 418/2/24 420/2/24 414/2/24
f 417/2/12 416/2/12 420/2/12
f 415/2/25 417/2/25 428/2/25
f 430/2/26 432/2/26 419/2/26
f 429/2/2 428/2/2 432/2/2
f 427/2/27 429/2/27 422/2/27
f 424/2/28 426/2/28 431/2/28
f 423/2/5 422/2/5 426/2/5
f 421/2/29 423/2/29 410/2/29
f 413/2/30 412/2/30 425/2/30
f 427/2/14 421/2/14 409/2/14
f 414/2/31 420/2/31 416/2/31
f 425/2/32 412/2/32 410/2/32
f 418/2/11 413/2/11 424/2/11
f 419/2/33 432/2/33 428/2/33
f 431/2/34 426/2/34 422/2/34
f 433/2/23 435/2/23 440/2/23
f 436/2/8 438/2/8 435/2/8
f 442/2/24 444/2/24 438/2/24
f 441/2/12 440/2/12 444/2/12
f 439/2/25 441/2/25 452/2/25
f 454/2/26 456/2/26 443/2/26
f 453/2/2 452/2/2 456/2/2
f 451/2/27 453/2/27 446/2/27
f 448/2/28 450/2/28 455/2/28
f 447/2/5 446/2/5 450/2/5
f 445/2/29 447/2/29 434/2/29
f 437/2/30 436/2/30 449/2/30
f 451/2/14 445/2/14 433/2/14
f 438/2/31 444/2/31 440/2/31
f 449/2/32 436/2/32 434/2/32
f 442/2/11 437/2/11 448/2/11
f 443/2/33 456/2/33 452/2/33
f 455/2/34 450/2/34 446/2/34
f 458/2/55 460/2/55 459/2/55
f 460/2/56 462/2/56 461/2/56
f 462/2/57 464/2/57 463/2/57
f 464/2/58 466/2/58 465/2/58
f 466/2/59 468/2/59 467/2/59
f 468/2/60 470/2/60 469/2/60
f 462/2/5 460/2/5 458/2/5
f 458/2/5 472/2/5 462/2/5
f 472/2/5 470/2/5 462/2/5
f 470/2/5 468/2/5 466/2/5
f 466/2/5 464/2/5 470/2/5
f 470/2/61 472/2/61 471/2/61
f 472/2/62 458/2/62 457/2/62
f 471/2/12 457/2/12 459/2/12
f 459/2/12 461/2/12 463/2/12
f 463/2/12 465/2/12 467/2/12
f 467/2/12 469/2/12 471/2/12
f 471/2/12 459/2/12 463/2/12
f 473/5/23 475/5/23 480/5/23
f 476/5/8 478/5/8 475/5/8
f 482/5/24 484/5/24 478/5/24
f 481/5/12 480/5/12 484/5/12
f 479/5/25 481/5/25 492/5/25
f 494/5/26 496/5/26 483/5/26
f 493/5/2 492/5/2 496/5/2
f 491/5/27 493/5/27 486/5/27
f 488/5/28 490/5/28 495/5/28
f 487/5/5 486/5/5 490/5/5
f 485/5/29 487/5/29 474/5/29
f 477/5/30 476/5/30 489/5/30
f 491/5/14 485/5/14 473/5/14
f 478/5/31 484/5/31 480/5/31
f 489/5/32 476/5/32 474/5/32
f 482/5/11 477/5/11 488/5/11
f 483/5/33 496/5/33 492/5/33
f 495/5/34 490/5/34 486/5/34
f 497/6/23 499/6/23 504/6/23
f 500/6/8 502/6/8 499/6/8
f 506/6/24 508/6/24 502/6/24
f 505/6/12 504/6/12 508/6/12
f 503/6/25 505/6/25 516/6/25
f 518/6/26 520/6/26 507/6/26
f 517/6/2 516/6/2 520/6/2
f 515/6/27 517/6/27 510/6/27
f 512/6/28 514/6/28 519/6/28
f 511/6/5 510/6/5 514/6/5
f 509/6/29 511/6/29 498/6/29
f 501/6/30 500/6/30 513/6/30
f 515/6/14 509/6/14 497/6/14
f 502/6/31 508/6/31 504/6/31
f 513/6/32 500/6/32 498/6/32
f 506/6/11 501/6/11 512/6/11
f 507/6/33 520/6/33 516/6/33
f 519/6/34 514/6/34 510/6/34
