# Blender 5.2.1 LTS
# www.blender.org
mtllib windmill_blades.mtl
o windmill_blades
v 0.000000 0.220000 -0.110000
v 0.000000 0.220000 0.110000
v 0.110000 0.190526 -0.110000
v 0.110000 0.190526 0.110000
v 0.190526 0.110000 -0.110000
v 0.190526 0.110000 0.110000
v 0.220000 -0.000000 -0.110000
v 0.220000 0.000000 0.110000
v 0.190526 -0.110000 -0.110000
v 0.190526 -0.110000 0.110000
v 0.110000 -0.190526 -0.110000
v 0.110000 -0.190526 0.110000
v 0.000000 -0.220000 -0.110000
v 0.000000 -0.220000 0.110000
v -0.110000 -0.190526 -0.110000
v -0.110000 -0.190526 0.110000
v -0.190526 -0.110000 -0.110000
v -0.190526 -0.110000 0.110000
v -0.220000 -0.000000 -0.110000
v -0.220000 0.000000 0.110000
v -0.190526 0.110000 -0.110000
v -0.190526 0.110000 0.110000
v -0.110000 0.190526 -0.110000
v -0.110000 0.190526 0.110000
v 0.000000 -0.000000 -0.055000
v 0.000000 2.100000 -0.055000
v 0.038891 -0.000000 -0.038891
v 0.038891 2.100000 -0.038891
v 0.055000 0.000000 0.000000
v 0.055000 2.100000 0.000000
v 0.038891 0.000000 0.038891
v 0.038891 2.100000 0.038891
v 0.000000 0.000000 0.055000
v 0.000000 2.100000 0.055000
v -0.038891 0.000000 0.038891
v -0.038891 2.100000 0.038891
v -0.055000 0.000000 0.000000
v -0.055000 2.100000 0.000000
v -0.038891 -0.000000 -0.038891
v -0.038891 2.100000 -0.038891
v -0.198000 0.775000 0.038000
v -0.198000 0.787000 0.050000
v -0.210000 0.787000 0.038000
v -0.198000 1.013000 0.050000
v -0.198000 1.025000 0.038000
v -0.210000 1.013000 0.038000
v -0.198000 0.775000 0.002000
v -0.210000 0.787000 0.002000
v -0.198000 0.787000 -0.010000
v -0.198000 1.025000 0.002000
v -0.198000 1.013000 -0.010000
v -0.210000 1.013000 0.002000
v 0.198000 0.775000 0.038000
v 0.210000 0.787000 0.038000
v 0.198000 0.787000 0.050000
v 0.198000 1.025000 0.038000
v 0.198000 1.013000 0.050000
v 0.210000 1.013000 0.038000
v 0.198000 0.775000 0.002000
v 0.198000 0.787000 -0.010000
v 0.210000 0.787000 0.002000
v 0.198000 1.025000 0.002000
v 0.210000 1.013000 0.002000
v 0.198000 1.013000 -0.010000
v -0.198000 1.075000 0.038000
v -0.198000 1.087000 0.050000
v -0.210000 1.087000 0.038000
v -0.198000 1.313000 0.050000
v -0.198000 1.325000 0.038000
v -0.210000 1.313000 0.038000
v -0.198000 1.075000 0.002000
v -0.210000 1.087000 0.002000
v -0.198000 1.087000 -0.010000
v -0.198000 1.325000 0.002000
v -0.198000 1.313000 -0.010000
v -0.210000 1.313000 0.002000
v 0.198000 1.075000 0.038000
v 0.210000 1.087000 0.038000
v 0.198000 1.087000 0.050000
v 0.198000 1.325000 0.038000
v 0.198000 1.313000 0.050000
v 0.210000 1.313000 0.038000
v 0.198000 1.075000 0.002000
v 0.198000 1.087000 -0.010000
v 0.210000 1.087000 0.002000
v 0.198000 1.325000 0.002000
v 0.210000 1.313000 0.002000
v 0.198000 1.313000 -0.010000
v -0.198000 1.375000 0.038000
v -0.198000 1.387000 0.050000
v -0.210000 1.387000 0.038000
v -0.198000 1.613000 0.050000
v -0.198000 1.625000 0.038000
v -0.210000 1.613000 0.038000
v -0.198000 1.375000 0.002000
v -0.210000 1.387000 0.002000
v -0.198000 1.387000 -0.010000
v -0.198000 1.625000 0.002000
v -0.198000 1.613000 -0.010000
v -0.210000 1.613000 0.002000
v 0.198000 1.375000 0.038000
v 0.210000 1.387000 0.038000
v 0.198000 1.387000 0.050000
v 0.198000 1.625000 0.038000
v 0.198000 1.613000 0.050000
v 0.210000 1.613000 0.038000
v 0.198000 1.375000 0.002000
v 0.198000 1.387000 -0.010000
v 0.210000 1.387000 0.002000
v 0.198000 1.625000 0.002000
v 0.210000 1.613000 0.002000
v 0.198000 1.613000 -0.010000
v -0.198000 1.675000 0.038000
v -0.198000 1.687000 0.050000
v -0.210000 1.687000 0.038000
v -0.198000 1.913000 0.050000
v -0.198000 1.925000 0.038000
v -0.210000 1.913000 0.038000
v -0.198000 1.675000 0.002000
v -0.210000 1.687000 0.002000
v -0.198000 1.687000 -0.010000
v -0.198000 1.925000 0.002000
v -0.198000 1.913000 -0.010000
v -0.210000 1.913000 0.002000
v 0.198000 1.675000 0.038000
v 0.210000 1.687000 0.038000
v 0.198000 1.687000 0.050000
v 0.198000 1.925000 0.038000
v 0.198000 1.913000 0.050000
v 0.210000 1.913000 0.038000
v 0.198000 1.675000 0.002000
v 0.198000 1.687000 -0.010000
v 0.210000 1.687000 0.002000
v 0.198000 1.925000 0.002000
v 0.210000 1.913000 0.002000
v 0.198000 1.913000 -0.010000
v -0.000000 -0.000000 -0.055000
v -1.818653 -1.050000 -0.055000
v -0.019445 0.033680 -0.038891
v -1.838099 -1.016320 -0.038891
v -0.027500 0.047631 -0.000000
v -1.846153 -1.002369 0.000000
v -0.019445 0.033680 0.038891
v -1.838099 -1.016320 0.038891
v -0.000000 -0.000000 0.055000
v -1.818653 -1.050000 0.055000
v 0.019445 -0.033681 0.038891
v -1.799208 -1.083680 0.038891
v 0.027500 -0.047632 -0.000000
v -1.791153 -1.097631 0.000000
v 0.019445 -0.033681 -0.038891
v -1.799208 -1.083680 -0.038891
v -0.572170 -0.558973 0.038000
v -0.582562 -0.564973 0.050000
v -0.576562 -0.575365 0.038000
v -0.778284 -0.677973 0.050000
v -0.788676 -0.683973 0.038000
v -0.772284 -0.688365 0.038000
v -0.572170 -0.558973 0.002000
v -0.576562 -0.575365 0.002000
v -0.582562 -0.564973 -0.010000
v -0.788676 -0.683973 0.002000
v -0.778284 -0.677973 -0.010000
v -0.772284 -0.688365 0.002000
v -0.770170 -0.216027 0.038000
v -0.786562 -0.211635 0.038000
v -0.780562 -0.222027 0.050000
v -0.986676 -0.341027 0.038000
v -0.976284 -0.335027 0.050000
v -0.982284 -0.324635 0.038000
v -0.770170 -0.216027 0.002000
v -0.780562 -0.222027 -0.010000
v -0.786562 -0.211635 0.002000
v -0.986676 -0.341027 0.002000
v -0.982284 -0.324635 0.002000
v -0.976284 -0.335027 -0.010000
v -0.831977 -0.708973 0.038000
v -0.842370 -0.714973 0.050000
v -0.836370 -0.725365 0.038000
v -1.038091 -0.827973 0.050000
v -1.048484 -0.833973 0.038000
v -1.032091 -0.838365 0.038000
v -0.831977 -0.708973 0.002000
v -0.836370 -0.725365 0.002000
v -0.842370 -0.714973 -0.010000
v -1.048484 -0.833973 0.002000
v -1.038091 -0.827973 -0.010000
v -1.032091 -0.838365 0.002000
v -1.029977 -0.366027 0.038000
v -1.046370 -0.361635 0.038000
v -1.040370 -0.372027 0.050000
v -1.246484 -0.491027 0.038000
v -1.236091 -0.485027 0.050000
v -1.242091 -0.474635 0.038000
v -1.029977 -0.366027 0.002000
v -1.040370 -0.372027 -0.010000
v -1.046370 -0.361635 0.002000
v -1.246484 -0.491027 0.002000
v -1.242091 -0.474635 0.002000
v -1.236091 -0.485027 -0.010000
v -1.091785 -0.858973 0.038000
v -1.102177 -0.864973 0.050000
v -1.096177 -0.875365 0.038000
v -1.297899 -0.977973 0.050000
v -1.308291 -0.983973 0.038000
v -1.291899 -0.988365 0.038000
v -1.091785 -0.858973 0.002000
v -1.096177 -0.875365 0.002000
v -1.102177 -0.864973 -0.010000
v -1.308291 -0.983973 0.002000
v -1.297899 -0.977973 -0.010000
v -1.291899 -0.988365 0.002000
v -1.289785 -0.516027 0.038000
v -1.306177 -0.511635 0.038000
v -1.300177 -0.522027 0.050000
v -1.506291 -0.641027 0.038000
v -1.495899 -0.635027 0.050000
v -1.501899 -0.624635 0.038000
v -1.289785 -0.516027 0.002000
v -1.300177 -0.522027 -0.010000
v -1.306177 -0.511635 0.002000
v -1.506291 -0.641027 0.002000
v -1.501899 -0.624635 0.002000
v -1.495899 -0.635027 -0.010000
v -1.351592 -1.008973 0.038000
v -1.361985 -1.014973 0.050000
v -1.355985 -1.025365 0.038000
v -1.557706 -1.127973 0.050000
v -1.568099 -1.133973 0.038000
v -1.551707 -1.138365 0.038000
v -1.351592 -1.008973 0.002000
v -1.355985 -1.025365 0.002000
v -1.361985 -1.014973 -0.010000
v -1.568099 -1.133973 0.002000
v -1.557706 -1.127973 -0.010000
v -1.551707 -1.138365 0.002000
v -1.549592 -0.666027 0.038000
v -1.565985 -0.661635 0.038000
v -1.559985 -0.672027 0.050000
v -1.766099 -0.791027 0.038000
v -1.755707 -0.785027 0.050000
v -1.761706 -0.774635 0.038000
v -1.549592 -0.666027 0.002000
v -1.559985 -0.672027 -0.010000
v -1.565985 -0.661635 0.002000
v -1.766099 -0.791027 0.002000
v -1.761706 -0.774635 0.002000
v -1.755707 -0.785027 -0.010000
v 0.000000 0.000000 -0.055000
v 1.818653 -1.050000 -0.055000
v -0.019445 -0.033680 -0.038891
v 1.799208 -1.083680 -0.038891
v -0.027500 -0.047631 0.000000
v 1.791153 -1.097631 0.000000
v -0.019445 -0.033680 0.038891
v 1.799208 -1.083680 0.038891
v 0.000000 0.000000 0.055000
v 1.818653 -1.050000 0.055000
v 0.019445 0.033681 0.038891
v 1.838099 -1.016319 0.038891
v 0.027500 0.047632 -0.000000
v 1.846153 -1.002368 0.000000
v 0.019445 0.033681 -0.038891
v 1.838099 -1.016319 -0.038891
v 0.770170 -0.216027 0.038000
v 0.780562 -0.222027 0.050000
v 0.786562 -0.211635 0.038000
v 0.976284 -0.335027 0.050000
v 0.986676 -0.341027 0.038000
v 0.982284 -0.324634 0.038000
v 0.770170 -0.216027 0.002000
v 0.786562 -0.211635 0.002000
v 0.780562 -0.222027 -0.010000
v 0.986676 -0.341027 0.002000
v 0.976284 -0.335027 -0.010000
v 0.982284 -0.324634 0.002000
v 0.572170 -0.558973 0.038000
v 0.576562 -0.575365 0.038000
v 0.582562 -0.564973 0.050000
v 0.788676 -0.683973 0.038000
v 0.778284 -0.677973 0.050000
v 0.772284 -0.688365 0.038000
v 0.572170 -0.558973 0.002000
v 0.582562 -0.564973 -0.010000
v 0.576562 -0.575365 0.002000
v 0.788676 -0.683973 0.002000
v 0.772284 -0.688365 0.002000
v 0.778284 -0.677973 -0.010000
v 1.029977 -0.366027 0.038000
v 1.040370 -0.372027 0.050000
v 1.046370 -0.361635 0.038000
v 1.236092 -0.485027 0.050000
v 1.246484 -0.491027 0.038000
v 1.242092 -0.474634 0.038000
v 1.029977 -0.366027 0.002000
v 1.046370 -0.361635 0.002000
v 1.040370 -0.372027 -0.010000
v 1.246484 -0.491027 0.002000
v 1.236092 -0.485027 -0.010000
v 1.242092 -0.474634 0.002000
v 0.831978 -0.708973 0.038000
v 0.836370 -0.725365 0.038000
v 0.842370 -0.714973 0.050000
v 1.048484 -0.833973 0.038000
v 1.038092 -0.827973 0.050000
v 1.032092 -0.838365 0.038000
v 0.831978 -0.708973 0.002000
v 0.842370 -0.714973 -0.010000
v 0.836370 -0.725365 0.002000
v 1.048484 -0.833973 0.002000
v 1.032092 -0.838365 0.002000
v 1.038092 -0.827973 -0.010000
v 1.289785 -0.516027 0.038000
v 1.300177 -0.522027 0.050000
v 1.306177 -0.511634 0.038000
v 1.495899 -0.635027 0.050000
v 1.506291 -0.641027 0.038000
v 1.501899 -0.624634 0.038000
v 1.289785 -0.516027 0.002000
v 1.306177 -0.511634 0.002000
v 1.300177 -0.522027 -0.010000
v 1.506291 -0.641027 0.002000
v 1.495899 -0.635027 -0.010000
v 1.501899 -0.624634 0.002000
v 1.091785 -0.858973 0.038000
v 1.096177 -0.875365 0.038000
v 1.102177 -0.864973 0.050000
v 1.308292 -0.983973 0.038000
v 1.297899 -0.977973 0.050000
v 1.291899 -0.988365 0.038000
v 1.091785 -0.858973 0.002000
v 1.102177 -0.864973 -0.010000
v 1.096177 -0.875365 0.002000
v 1.308292 -0.983973 0.002000
v 1.291899 -0.988365 0.002000
v 1.297899 -0.977973 -0.010000
v 1.549593 -0.666027 0.038000
v 1.559985 -0.672027 0.050000
v 1.565985 -0.661634 0.038000
v 1.755707 -0.785027 0.050000
v 1.766099 -0.791027 0.038000
v 1.761707 -0.774634 0.038000
v 1.549593 -0.666027 0.002000
v 1.565985 -0.661634 0.002000
v 1.559985 -0.672027 -0.010000
v 1.766099 -0.791027 0.002000
v 1.755707 -0.785027 -0.010000
v 1.761707 -0.774634 0.002000
v 1.351593 -1.008973 0.038000
v 1.355985 -1.025365 0.038000
v 1.361985 -1.014973 0.050000
v 1.568099 -1.133973 0.038000
v 1.557707 -1.127973 0.050000
v 1.551707 -1.138365 0.038000
v 1.351593 -1.008973 0.002000
v 1.361985 -1.014973 -0.010000
v 1.355985 -1.025365 0.002000
v 1.568099 -1.133973 0.002000
v 1.551707 -1.138365 0.002000
v 1.557707 -1.127973 -0.010000
vn 0.2588 0.9659 -0.0000
vn 0.7071 0.7071 -0.0000
vn 0.9659 0.2588 -0.0000
vn 0.9659 -0.2588 -0.0000
vn 0.7071 -0.7071 -0.0000
vn 0.2588 -0.9659 -0.0000
vn -0.2588 -0.9659 -0.0000
vn -0.7071 -0.7071 -0.0000
vn -0.9659 -0.2588 -0.0000
vn -0.9659 0.2588 -0.0000
vn -0.0000 -0.0000 1.0000
vn -0.7071 0.7071 -0.0000
vn -0.2588 0.9659 -0.0000
vn -0.0000 -0.0000 -1.0000
vn 0.3827 -0.0000 -0.9239
vn 0.9239 -0.0000 -0.3827
vn 0.9239 -0.0000 0.3827
vn 0.3827 -0.0000 0.9239
vn -0.3827 -0.0000 0.9239
vn -0.9239 -0.0000 0.3827
vn -0.0000 1.0000 -0.0000
vn -0.9239 -0.0000 -0.3827
vn -0.3827 -0.0000 -0.9239
vn -0.0000 -1.0000 -0.0000
vn -0.5773 -0.5774 0.5774
vn -0.5774 0.5773 0.5773
vn -0.5773 -0.5774 -0.5774
vn -0.5774 0.5773 -0.5773
vn 0.5773 -0.5774 0.5774
vn 0.5774 0.5773 0.5773
vn 0.5773 -0.5774 -0.5774
vn 0.5774 0.5773 -0.5773
vn -0.7071 -0.0000 0.7071
vn -0.7071 -0.0000 -0.7071
vn -0.0000 -0.7071 -0.7071
vn -0.0000 0.7071 -0.7071
vn 0.7071 -0.0000 -0.7071
vn 0.7071 -0.0000 0.7071
vn -0.0000 -0.7071 0.7071
vn -0.0000 0.7071 0.7071
vn -1.0000 -0.0000 -0.0000
vn 1.0000 -0.0000 -0.0000
vn -0.5774 -0.5773 -0.5773
vn -0.5773 0.5774 -0.5774
vn 0.5774 -0.5773 -0.5773
vn 0.5773 0.5774 -0.5774
vn -0.5774 -0.5773 0.5773
vn 0.5774 -0.5773 0.5773
vn -0.5773 0.5774 0.5774
vn 0.5773 0.5774 0.5774
vn -0.1913 0.3314 -0.9239
vn -0.4619 0.8001 -0.3827
vn -0.4619 0.8001 0.3827
vn -0.1913 0.3314 0.9239
vn 0.1913 -0.3314 0.9239
vn 0.4619 -0.8001 0.3827
vn -0.8660 -0.5000 -0.0000
vn 0.4619 -0.8001 -0.3827
vn 0.1913 -0.3314 -0.9239
vn 0.8660 0.5000 -0.0000
vn 0.7887 -0.2113 0.5774
vn -0.2113 -0.7887 0.5773
vn 0.7887 -0.2113 -0.5774
vn -0.2113 -0.7887 -0.5773
vn 0.2113 0.7887 0.5773
vn -0.7887 0.2113 0.5773
vn 0.2113 0.7887 -0.5773
vn -0.7887 0.2113 -0.5773
vn 0.3536 -0.6124 0.7071
vn 0.3536 -0.6124 -0.7071
vn 0.6124 0.3536 -0.7071
vn -0.6124 -0.3536 -0.7071
vn -0.3536 0.6124 -0.7071
vn -0.3536 0.6124 0.7071
vn 0.6124 0.3536 0.7071
vn -0.6124 -0.3536 0.7071
vn 0.5000 -0.8660 -0.0000
vn -0.5000 0.8660 -0.0000
vn 0.7887 -0.2113 0.5773
vn -0.2113 -0.7887 0.5774
vn 0.7887 -0.2113 -0.5773
vn -0.2113 -0.7887 -0.5774
vn -0.7887 0.2113 0.5774
vn -0.7887 0.2113 -0.5774
vn -0.1913 -0.3314 -0.9239
vn -0.4619 -0.8001 -0.3827
vn -0.4619 -0.8001 0.3827
vn -0.1913 -0.3314 0.9239
vn 0.1913 0.3314 0.9239
vn 0.4619 0.8001 0.3827
vn 0.8660 -0.5000 -0.0000
vn 0.4619 0.8001 -0.3827
vn 0.1913 0.3314 -0.9239
vn -0.8660 0.5000 -0.0000
vn -0.2113 0.7887 0.5773
vn 0.7887 0.2113 0.5774
vn -0.2113 0.7887 -0.5773
vn 0.7887 0.2113 -0.5773
vn -0.7887 -0.2113 0.5773
vn 0.2113 -0.7887 0.5774
vn -0.7887 -0.2113 -0.5773
vn 0.2113 -0.7887 -0.5774
vn 0.3536 0.6124 0.7071
vn 0.3536 0.6124 -0.7071
vn -0.6124 0.3536 -0.7071
vn 0.6124 -0.3536 -0.7071
vn -0.3536 -0.6124 -0.7071
vn -0.3536 -0.6124 0.7071
vn -0.6124 0.3536 0.7071
vn 0.6124 -0.3536 0.7071
vn 0.5000 0.8660 -0.0000
vn -0.5000 -0.8660 -0.0000
vn -0.7887 -0.2113 0.5774
vn 0.2113 -0.7887 0.5773
vn -0.7887 -0.2113 -0.5774
vn 0.2113 -0.7887 -0.5773
vn 0.7887 0.2113 -0.5774
vn -0.2113 0.7887 0.5774
vn -0.2113 0.7887 -0.5774
vt 0.125000 0.625000
vt 0.375000 0.125000
s 0
usemtl WorldPickupPalette
f 2/1/1 3/1/1 1/1/1
f 4/1/2 5/1/2 3/1/2
f 5/1/3 8/1/3 7/1/3
f 7/1/4 10/1/4 9/1/4
f 10/1/5 11/1/5 9/1/5
f 12/1/6 13/1/6 11/1/6
f 14/1/7 15/1/7 13/1/7
f 16/1/8 17/1/8 15/1/8
f 18/1/9 19/1/9 17/1/9
f 20/1/10 21/1/10 19/1/10
f 22/1/11 14/1/11 6/1/11
f 22/1/12 23/1/12 21/1/12
f 24/1/13 1/1/13 23/1/13
f 7/1/14 15/1/14 23/1/14
f 26/1/15 27/1/15 25/1/15
f 28/1/16 29/1/16 27/1/16
f 30/1/17 31/1/17 29/1/17
f 32/1/18 33/1/18 31/1/18
f 34/1/19 35/1/19 33/1/19
f 36/1/20 37/1/20 35/1/20
f 38/1/21 34/1/21 30/1/21
f 38/1/22 39/1/22 37/1/22
f 40/1/23 25/1/23 39/1/23
f 31/1/24 35/1/24 39/1/24
f 41/2/25 42/2/25 43/2/25
f 44/2/26 45/2/26 46/2/26
f 47/2/27 48/2/27 49/2/27
f 50/2/28 51/2/28 52/2/28
f 53/2/29 54/2/29 55/2/29
f 56/2/30 57/2/30 58/2/30
f 59/2/31 60/2/31 61/2/31
f 62/2/32 63/2/32 64/2/32
f 41/2/8 48/2/8 47/2/8
f 44/2/33 43/2/33 42/2/33
f 50/2/12 46/2/12 45/2/12
f 49/2/34 52/2/34 51/2/34
f 47/2/35 60/2/35 59/2/35
f 62/2/36 51/2/36 50/2/36
f 61/2/37 64/2/37 63/2/37
f 59/2/5 54/2/5 53/2/5
f 56/2/2 63/2/2 62/2/2
f 55/2/38 58/2/38 57/2/38
f 53/2/39 42/2/39 41/2/39
f 45/2/40 57/2/40 56/2/40
f 59/2/24 41/2/24 47/2/24
f 46/2/41 48/2/41 43/2/41
f 57/2/11 42/2/11 55/2/11
f 50/2/21 56/2/21 62/2/21
f 51/2/14 60/2/14 49/2/14
f 63/2/42 54/2/42 61/2/42
f 65/2/25 66/2/25 67/2/25
f 68/2/26 69/2/26 70/2/26
f 71/2/43 72/2/43 73/2/43
f 74/2/44 75/2/44 76/2/44
f 77/2/29 78/2/29 79/2/29
f 80/2/30 81/2/30 82/2/30
f 83/2/45 84/2/45 85/2/45
f 86/2/46 87/2/46 88/2/46
f 65/2/8 72/2/8 71/2/8
f 68/2/33 67/2/33 66/2/33
f 74/2/12 70/2/12 69/2/12
f 73/2/34 76/2/34 75/2/34
f 71/2/35 84/2/35 83/2/35
f 86/2/36 75/2/36 74/2/36
f 85/2/37 88/2/37 87/2/37
f 83/2/5 78/2/5 77/2/5
f 80/2/2 87/2/2 86/2/2
f 79/2/38 82/2/38 81/2/38
f 77/2/39 66/2/39 65/2/39
f 69/2/40 81/2/40 80/2/40
f 83/2/24 65/2/24 71/2/24
f 70/2/41 72/2/41 67/2/41
f 81/2/11 66/2/11 79/2/11
f 74/2/21 80/2/21 86/2/21
f 75/2/14 84/2/14 73/2/14
f 87/2/42 78/2/42 85/2/42
f 89/2/47 90/2/47 91/2/47
f 92/2/26 93/2/26 94/2/26
f 95/2/27 96/2/27 97/2/27
f 98/2/44 99/2/44 100/2/44
f 101/2/48 102/2/48 103/2/48
f 104/2/30 105/2/30 106/2/30
f 107/2/31 108/2/31 109/2/31
f 110/2/46 111/2/46 112/2/46
f 89/2/8 96/2/8 95/2/8
f 92/2/33 91/2/33 90/2/33
f 98/2/12 94/2/12 93/2/12
f 97/2/34 100/2/34 99/2/34
f 95/2/35 108/2/35 107/2/35
f 110/2/36 99/2/36 98/2/36
f 109/2/37 112/2/37 111/2/37
f 107/2/5 102/2/5 101/2/5
f 104/2/2 111/2/2 110/2/2
f 103/2/38 106/2/38 105/2/38
f 101/2/39 90/2/39 89/2/39
f 93/2/40 105/2/40 104/2/40
f 107/2/24 89/2/24 95/2/24
f 94/2/41 96/2/41 91/2/41
f 105/2/11 90/2/11 103/2/11
f 98/2/21 104/2/21 110/2/21
f 99/2/14 108/2/14 97/2/14
f 111/2/42 102/2/42 109/2/42
f 113/2/47 114/2/47 115/2/47
f 116/2/49 117/2/49 118/2/49
f 119/2/27 120/2/27 121/2/27
f 122/2/44 123/2/44 124/2/44
f 125/2/48 126/2/48 127/2/48
f 128/2/50 129/2/50 130/2/50
f 131/2/31 132/2/31 133/2/31
f 134/2/46 135/2/46 136/2/46
f 119/2/8 115/2/8 120/2/8
f 116/2/33 115/2/33 114/2/33
f 122/2/12 118/2/12 117/2/12
f 121/2/34 124/2/34 123/2/34
f 119/2/35 132/2/35 131/2/35
f 134/2/36 123/2/36 122/2/36
f 133/2/37 136/2/37 135/2/37
f 131/2/5 126/2/5 125/2/5
f 128/2/2 135/2/2 134/2/2
f 127/2/38 130/2/38 129/2/38
f 125/2/39 114/2/39 113/2/39
f 117/2/40 129/2/40 128/2/40
f 131/2/24 113/2/24 119/2/24
f 118/2/41 120/2/41 115/2/41
f 129/2/11 114/2/11 127/2/11
f 122/2/21 128/2/21 134/2/21
f 123/2/14 132/2/14 121/2/14
f 135/2/42 126/2/42 133/2/42
f 138/1/51 139/1/51 137/1/51
f 139/1/52 142/1/52 141/1/52
f 142/1/53 143/1/53 141/1/53
f 144/1/54 145/1/54 143/1/54
f 146/1/55 147/1/55 145/1/55
f 148/1/56 149/1/56 147/1/56
f 144/1/57 142/1/57 150/1/57
f 149/1/58 152/1/58 151/1/58
f 152/1/59 137/1/59 151/1/59
f 149/1/60 151/1/60 143/1/60
f 153/2/61 154/2/61 155/2/61
f 156/2/62 157/2/62 158/2/62
f 159/2/63 160/2/63 161/2/63
f 162/2/64 163/2/64 164/2/64
f 165/2/65 166/2/65 167/2/65
f 168/2/66 169/2/66 170/2/66
f 171/2/67 172/2/67 173/2/67
f 174/2/68 175/2/68 176/2/68
f 153/2/4 160/2/4 159/2/4
f 154/2/69 158/2/69 155/2/69
f 162/2/7 158/2/7 157/2/7
f 161/2/70 164/2/70 163/2/70
f 171/2/71 161/2/71 172/2/71
f 162/2/72 176/2/72 163/2/72
f 173/2/73 176/2/73 175/2/73
f 171/2/1 166/2/1 165/2/1
f 168/2/10 175/2/10 174/2/10
f 169/2/74 166/2/74 170/2/74
f 165/2/75 154/2/75 153/2/75
f 157/2/76 169/2/76 168/2/76
f 171/2/60 153/2/60 159/2/60
f 158/2/77 160/2/77 155/2/77
f 169/2/11 154/2/11 167/2/11
f 162/2/57 168/2/57 174/2/57
f 161/2/14 176/2/14 172/2/14
f 175/2/78 166/2/78 173/2/78
f 177/2/79 178/2/79 179/2/79
f 180/2/80 181/2/80 182/2/80
f 183/2/81 184/2/81 185/2/81
f 186/2/82 187/2/82 188/2/82
f 189/2/65 190/2/65 191/2/65
f 192/2/66 193/2/66 194/2/66
f 195/2/67 196/2/67 197/2/67
f 198/2/68 199/2/68 200/2/68
f 177/2/4 184/2/4 183/2/4
f 180/2/69 179/2/69 178/2/69
f 186/2/7 182/2/7 181/2/7
f 187/2/70 184/2/70 188/2/70
f 195/2/71 185/2/71 196/2/71
f 186/2/72 200/2/72 187/2/72
f 199/2/73 196/2/73 200/2/73
f 195/2/1 190/2/1 189/2/1
f 198/2/10 194/2/10 199/2/10
f 191/2/74 194/2/74 193/2/74
f 189/2/75 178/2/75 177/2/75
f 181/2/76 193/2/76 192/2/76
f 195/2/60 177/2/60 183/2/60
f 182/2/77 184/2/77 179/2/77
f 191/2/11 180/2/11 178/2/11
f 186/2/57 192/2/57 198/2/57
f 187/2/14 196/2/14 185/2/14
f 199/2/78 190/2/78 197/2/78
f 201/2/79 202/2/79 203/2/79
f 204/2/80 205/2/80 206/2/80
f 207/2/63 208/2/63 209/2/63
f 210/2/82 211/2/82 212/2/82
f 213/2/65 214/2/65 215/2/65
f 216/2/83 217/2/83 218/2/83
f 219/2/67 220/2/67 221/2/67
f 222/2/84 223/2/84 224/2/84
f 201/2/4 208/2/4 207/2/4
f 204/2/69 203/2/69 202/2/69
f 210/2/7 206/2/7 205/2/7
f 211/2/70 208/2/70 212/2/70
f 219/2/71 209/2/71 220/2/71
f 210/2/72 224/2/72 211/2/72
f 223/2/73 220/2/73 224/2/73
f 219/2/1 214/2/1 213/2/1
f 216/2/10 223/2/10 222/2/10
f 215/2/74 218/2/74 217/2/74
f 213/2/75 202/2/75 201/2/75
f 205/2/76 217/2/76 216/2/76
f 219/2/60 201/2/60 207/2/60
f 206/2/77 208/2/77 203/2/77
f 215/2/11 204/2/11 202/2/11
f 210/2/57 216/2/57 222/2/57
f 211/2/14 220/2/14 209/2/14
f 223/2/78 214/2/78 221/2/78
f 225/2/79 226/2/79 227/2/79
f 228/2/62 229/2/62 230/2/62
f 231/2/81 232/2/81 233/2/81
f 234/2/64 235/2/64 236/2/64
f 237/2/65 238/2/65 239/2/65
f 240/2/66 241/2/66 242/2/66
f 243/2/67 244/2/67 245/2/67
f 246/2/68 247/2/68 248/2/68
f 225/2/4 232/2/4 231/2/4
f 228/2/69 227/2/69 226/2/69
f 234/2/7 230/2/7 229/2/7
f 235/2/70 232/2/70 236/2/70
f 231/2/71 244/2/71 243/2/71
f 246/2/72 235/2/72 234/2/72
f 247/2/73 244/2/73 248/2/73
f 243/2/1 238/2/1 237/2/1
f 240/2/10 247/2/10 246/2/10
f 239/2/74 242/2/74 241/2/74
f 237/2/75 226/2/75 225/2/75
f 240/2/76 228/2/76 241/2/76
f 243/2/60 225/2/60 231/2/60
f 230/2/77 232/2/77 227/2/77
f 239/2/11 228/2/11 226/2/11
f 234/2/57 240/2/57 246/2/57
f 235/2/14 244/2/14 233/2/14
f 247/2/78 238/2/78 245/2/78
f 250/1/85 251/1/85 249/1/85
f 251/1/86 254/1/86 253/1/86
f 254/1/87 255/1/87 253/1/87
f 256/1/88 257/1/88 255/1/88
f 258/1/89 259/1/89 257/1/89
f 260/1/90 261/1/90 259/1/90
f 256/1/91 254/1/91 262/1/91
f 261/1/92 264/1/92 263/1/92
f 264/1/93 249/1/93 263/1/93
f 263/1/94 251/1/94 255/1/94
f 265/2/95 266/2/95 267/2/95
f 268/2/96 269/2/96 270/2/96
f 271/2/97 272/2/97 273/2/97
f 274/2/98 275/2/98 276/2/98
f 277/2/99 278/2/99 279/2/99
f 280/2/100 281/2/100 282/2/100
f 283/2/101 284/2/101 285/2/101
f 286/2/102 287/2/102 288/2/102
f 265/2/13 272/2/13 271/2/13
f 266/2/103 270/2/103 267/2/103
f 274/2/3 270/2/3 269/2/3
f 273/2/104 276/2/104 275/2/104
f 271/2/105 284/2/105 283/2/105
f 286/2/106 275/2/106 274/2/106
f 285/2/107 288/2/107 287/2/107
f 283/2/9 278/2/9 277/2/9
f 280/2/6 287/2/6 286/2/6
f 281/2/108 278/2/108 282/2/108
f 265/2/109 279/2/109 266/2/109
f 280/2/110 268/2/110 281/2/110
f 283/2/94 265/2/94 271/2/94
f 270/2/111 272/2/111 267/2/111
f 279/2/11 268/2/11 266/2/11
f 274/2/91 280/2/91 286/2/91
f 275/2/14 284/2/14 273/2/14
f 287/2/112 278/2/112 285/2/112
f 289/2/95 290/2/95 291/2/95
f 292/2/96 293/2/96 294/2/96
f 295/2/97 296/2/97 297/2/97
f 298/2/98 299/2/98 300/2/98
f 301/2/113 302/2/113 303/2/113
f 304/2/114 305/2/114 306/2/114
f 307/2/115 308/2/115 309/2/115
f 310/2/116 311/2/116 312/2/116
f 289/2/13 296/2/13 295/2/13
f 290/2/103 294/2/103 291/2/103
f 298/2/3 294/2/3 293/2/3
f 297/2/104 300/2/104 299/2/104
f 295/2/105 308/2/105 307/2/105
f 298/2/106 312/2/106 299/2/106
f 311/2/107 308/2/107 312/2/107
f 307/2/9 302/2/9 301/2/9
f 304/2/6 311/2/6 310/2/6
f 303/2/108 306/2/108 305/2/108
f 289/2/109 303/2/109 290/2/109
f 293/2/110 305/2/110 304/2/110
f 307/2/94 289/2/94 295/2/94
f 294/2/111 296/2/111 291/2/111
f 305/2/11 290/2/11 303/2/11
f 298/2/91 304/2/91 310/2/91
f 297/2/14 312/2/14 308/2/14
f 311/2/112 302/2/112 309/2/112
f 313/2/95 314/2/95 315/2/95
f 316/2/96 317/2/96 318/2/96
f 319/2/97 320/2/97 321/2/97
f 322/2/117 323/2/117 324/2/117
f 325/2/113 326/2/113 327/2/113
f 328/2/114 329/2/114 330/2/114
f 331/2/115 332/2/115 333/2/115
f 334/2/116 335/2/116 336/2/116
f 313/2/13 320/2/13 319/2/13
f 316/2/103 315/2/103 314/2/103
f 322/2/3 318/2/3 317/2/3
f 323/2/104 320/2/104 324/2/104
f 331/2/105 321/2/105 332/2/105
f 322/2/106 336/2/106 323/2/106
f 335/2/107 332/2/107 336/2/107
f 331/2/9 326/2/9 325/2/9
f 328/2/6 335/2/6 334/2/6
f 327/2/108 330/2/108 329/2/108
f 325/2/109 314/2/109 313/2/109
f 317/2/110 329/2/110 328/2/110
f 331/2/94 313/2/94 319/2/94
f 318/2/111 320/2/111 315/2/111
f 329/2/11 314/2/11 327/2/11
f 322/2/91 328/2/91 334/2/91
f 321/2/14 336/2/14 332/2/14
f 335/2/112 326/2/112 333/2/112
f 337/2/118 338/2/118 339/2/118
f 340/2/96 341/2/96 342/2/96
f 343/2/119 344/2/119 345/2/119
f 346/2/98 347/2/98 348/2/98
f 349/2/99 350/2/99 351/2/99
f 352/2/114 353/2/114 354/2/114
f 355/2/101 356/2/101 357/2/101
f 358/2/116 359/2/116 360/2/116
f 337/2/13 344/2/13 343/2/13
f 340/2/103 339/2/103 338/2/103
f 346/2/3 342/2/3 341/2/3
f 347/2/104 344/2/104 348/2/104
f 355/2/105 345/2/105 356/2/105
f 358/2/106 347/2/106 346/2/106
f 359/2/107 356/2/107 360/2/107
f 355/2/9 350/2/9 349/2/9
f 352/2/6 359/2/6 358/2/6
f 351/2/108 354/2/108 353/2/108
f 349/2/109 338/2/109 337/2/109
f 341/2/110 353/2/110 352/2/110
f 355/2/94 337/2/94 343/2/94
f 342/2/111 344/2/111 339/2/111
f 353/2/11 338/2/11 351/2/11
f 346/2/91 352/2/91 358/2/91
f 345/2/14 360/2/14 356/2/14
f 359/2/112 350/2/112 357/2/112
f 2/1/1 4/1/1 3/1/1
f 4/1/2 6/1/2 5/1/2
f 5/1/3 6/1/3 8/1/3
f 7/1/4 8/1/4 10/1/4
f 10/1/5 12/1/5 11/1/5
f 12/1/6 14/1/6 13/1/6
f 14/1/7 16/1/7 15/1/7
f 16/1/8 18/1/8 17/1/8
f 18/1/9 20/1/9 19/1/9
f 20/1/10 22/1/10 21/1/10
f 6/1/11 4/1/11 2/1/11
f 2/1/11 24/1/11 22/1/11
f 22/1/11 20/1/11 18/1/11
f 18/1/11 16/1/11 14/1/11
f 14/1/11 12/1/11 10/1/11
f 10/1/11 8/1/11 6/1/11
f 6/1/11 2/1/11 22/1/11
f 22/1/11 18/1/11 14/1/11
f 14/1/11 10/1/11 6/1/11
f 22/1/12 24/1/12 23/1/12
f 24/1/13 2/1/13 1/1/13
f 23/1/14 1/1/14 3/1/14
f 3/1/14 5/1/14 7/1/14
f 7/1/14 9/1/14 11/1/14
f 11/1/14 13/1/14 15/1/14
f 15/1/14 17/1/14 19/1/14
f 19/1/14 21/1/14 15/1/14
f 21/1/14 23/1/14 15/1/14
f 23/1/14 3/1/14 7/1/14
f 7/1/14 11/1/14 15/1/14
f 26/1/15 28/1/15 27/1/15
f 28/1/16 30/1/16 29/1/16
f 30/1/17 32/1/17 31/1/17
f 32/1/18 34/1/18 33/1/18
f 34/1/19 36/1/19 35/1/19
f 36/1/20 38/1/20 37/1/20
f 30/1/21 28/1/21 26/1/21
f 26/1/21 40/1/21 38/1/21
f 38/1/21 36/1/21 34/1/21
f 34/1/21 32/1/21 30/1/21
f 30/1/21 26/1/21 38/1/21
f 38/1/22 40/1/22 39/1/22
f 40/1/23 26/1/23 25/1/23
f 39/1/24 25/1/24 27/1/24
f 27/1/24 29/1/24 31/1/24
f 31/1/24 33/1/24 35/1/24
f 35/1/24 37/1/24 39/1/24
f 39/1/24 27/1/24 31/1/24
f 41/2/8 43/2/8 48/2/8
f 44/2/33 46/2/33 43/2/33
f 50/2/12 52/2/12 46/2/12
f 49/2/34 48/2/34 52/2/34
f 47/2/35 49/2/35 60/2/35
f 62/2/36 64/2/36 51/2/36
f 61/2/37 60/2/37 64/2/37
f 59/2/5 61/2/5 54/2/5
f 56/2/2 58/2/2 63/2/2
f 55/2/38 54/2/38 58/2/38
f 53/2/39 55/2/39 42/2/39
f 45/2/40 44/2/40 57/2/40
f 59/2/24 53/2/24 41/2/24
f 46/2/41 52/2/41 48/2/41
f 57/2/11 44/2/11 42/2/11
f 50/2/21 45/2/21 56/2/21
f 51/2/14 64/2/14 60/2/14
f 63/2/42 58/2/42 54/2/42
f 65/2/8 67/2/8 72/2/8
f 68/2/33 70/2/33 67/2/33
f 74/2/12 76/2/12 70/2/12
f 73/2/34 72/2/34 76/2/34
f 71/2/35 73/2/35 84/2/35
f 86/2/36 88/2/36 75/2/36
f 85/2/37 84/2/37 88/2/37
f 83/2/5 85/2/5 78/2/5
f 80/2/2 82/2/2 87/2/2
f 79/2/38 78/2/38 82/2/38
f 77/2/39 79/2/39 66/2/39
f 69/2/40 68/2/40 81/2/40
f 83/2/24 77/2/24 65/2/24
f 70/2/41 76/2/41 72/2/41
f 81/2/11 68/2/11 66/2/11
f 74/2/21 69/2/21 80/2/21
f 75/2/14 88/2/14 84/2/14
f 87/2/42 82/2/42 78/2/42
f 89/2/8 91/2/8 96/2/8
f 92/2/33 94/2/33 91/2/33
f 98/2/12 100/2/12 94/2/12
f 97/2/34 96/2/34 100/2/34
f 95/2/35 97/2/35 108/2/35
f 110/2/36 112/2/36 99/2/36
f 109/2/37 108/2/37 112/2/37
f 107/2/5 109/2/5 102/2/5
f 104/2/2 106/2/2 111/2/2
f 103/2/38 102/2/38 106/2/38
f 101/2/39 103/2/39 90/2/39
f 93/2/40 92/2/40 105/2/40
f 107/2/24 101/2/24 89/2/24
f 94/2/41 100/2/41 96/2/41
f 105/2/11 92/2/11 90/2/11
f 98/2/21 93/2/21 104/2/21
f 99/2/14 112/2/14 108/2/14
f 111/2/42 106/2/42 102/2/42
f 119/2/8 113/2/8 115/2/8
f 116/2/33 118/2/33 115/2/33
f 122/2/12 124/2/12 118/2/12
f 121/2/34 120/2/34 124/2/34
f 119/2/35 121/2/35 132/2/35
f 134/2/36 136/2/36 123/2/36
f 133/2/37 132/2/37 136/2/37
f 131/2/5 133/2/5 126/2/5
f 128/2/2 130/2/2 135/2/2
f 127/2/38 126/2/38 130/2/38
f 125/2/39 127/2/39 114/2/39
f 117/2/40 116/2/40 129/2/40
f 131/2/24 125/2/24 113/2/24
f 118/2/41 124/2/41 120/2/41
f 129/2/11 116/2/11 114/2/11
f 122/2/21 117/2/21 128/2/21
f 123/2/14 136/2/14 132/2/14
f 135/2/42 130/2/42 126/2/42
f 138/1/51 140/1/51 139/1/51
f 139/1/52 140/1/52 142/1/52
f 142/1/53 144/1/53 143/1/53
f 144/1/54 146/1/54 145/1/54
f 146/1/55 148/1/55 147/1/55
f 148/1/56 150/1/56 149/1/56
f 142/1/57 140/1/57 138/1/57
f 138/1/57 152/1/57 142/1/57
f 152/1/57 150/1/57 142/1/57
f 150/1/57 148/1/57 146/1/57
f 146/1/57 144/1/57 150/1/57
f 149/1/58 150/1/58 152/1/58
f 152/1/59 138/1/59 137/1/59
f 151/1/60 137/1/60 139/1/60
f 139/1/60 141/1/60 151/1/60
f 141/1/60 143/1/60 151/1/60
f 143/1/60 145/1/60 147/1/60
f 147/1/60 149/1/60 143/1/60
f 153/2/4 155/2/4 160/2/4
f 154/2/69 156/2/69 158/2/69
f 162/2/7 164/2/7 158/2/7
f 161/2/70 160/2/70 164/2/70
f 171/2/71 159/2/71 161/2/71
f 162/2/72 174/2/72 176/2/72
f 173/2/73 172/2/73 176/2/73
f 171/2/1 173/2/1 166/2/1
f 168/2/10 170/2/10 175/2/10
f 169/2/74 167/2/74 166/2/74
f 165/2/75 167/2/75 154/2/75
f 157/2/76 156/2/76 169/2/76
f 171/2/60 165/2/60 153/2/60
f 158/2/77 164/2/77 160/2/77
f 169/2/11 156/2/11 154/2/11
f 162/2/57 157/2/57 168/2/57
f 161/2/14 163/2/14 176/2/14
f 175/2/78 170/2/78 166/2/78
f 177/2/4 179/2/4 184/2/4
f 180/2/69 182/2/69 179/2/69
f 186/2/7 188/2/7 182/2/7
f 187/2/70 185/2/70 184/2/70
f 195/2/71 183/2/71 185/2/71
f 186/2/72 198/2/72 200/2/72
f 199/2/73 197/2/73 196/2/73
f 195/2/1 197/2/1 190/2/1
f 198/2/10 192/2/10 194/2/10
f 191/2/74 190/2/74 194/2/74
f 189/2/75 191/2/75 178/2/75
f 181/2/76 180/2/76 193/2/76
f 195/2/60 189/2/60 177/2/60
f 182/2/77 188/2/77 184/2/77
f 191/2/11 193/2/11 180/2/11
f 186/2/57 181/2/57 192/2/57
f 187/2/14 200/2/14 196/2/14
f 199/2/78 194/2/78 190/2/78
f 201/2/4 203/2/4 208/2/4
f 204/2/69 206/2/69 203/2/69
f 210/2/7 212/2/7 206/2/7
f 211/2/70 209/2/70 208/2/70
f 219/2/71 207/2/71 209/2/71
f 210/2/72 222/2/72 224/2/72
f 223/2/73 221/2/73 220/2/73
f 219/2/1 221/2/1 214/2/1
f 216/2/10 218/2/10 223/2/10
f 215/2/74 214/2/74 218/2/74
f 213/2/75 215/2/75 202/2/75
f 205/2/76 204/2/76 217/2/76
f 219/2/60 213/2/60 201/2/60
f 206/2/77 212/2/77 208/2/77
f 215/2/11 217/2/11 204/2/11
f 210/2/57 205/2/57 216/2/57
f 211/2/14 224/2/14 220/2/14
f 223/2/78 218/2/78 214/2/78
f 225/2/4 227/2/4 232/2/4
f 228/2/69 230/2/69 227/2/69
f 234/2/7 236/2/7 230/2/7
f 235/2/70 233/2/70 232/2/70
f 231/2/71 233/2/71 244/2/71
f 246/2/72 248/2/72 235/2/72
f 247/2/73 245/2/73 244/2/73
f 243/2/1 245/2/1 238/2/1
f 240/2/10 242/2/10 247/2/10
f 239/2/74 238/2/74 242/2/74
f 237/2/75 239/2/75 226/2/75
f 240/2/76 229/2/76 228/2/76
f 243/2/60 237/2/60 225/2/60
f 230/2/77 236/2/77 232/2/77
f 239/2/11 241/2/11 228/2/11
f 234/2/57 229/2/57 240/2/57
f 235/2/14 248/2/14 244/2/14
f 247/2/78 242/2/78 238/2/78
f 250/1/85 252/1/85 251/1/85
f 251/1/86 252/1/86 254/1/86
f 254/1/87 256/1/87 255/1/87
f 256/1/88 258/1/88 257/1/88
f 258/1/89 260/1/89 259/1/89
f 260/1/90 262/1/90 261/1/90
f 254/1/91 252/1/91 250/1/91
f 250/1/91 264/1/91 254/1/91
f 264/1/91 262/1/91 254/1/91
f 262/1/91 260/1/91 258/1/91
f 258/1/91 256/1/91 262/1/91
f 261/1/92 262/1/92 264/1/92
f 264/1/93 250/1/93 249/1/93
f 263/1/94 249/1/94 251/1/94
f 251/1/94 253/1/94 255/1/94
f 255/1/94 257/1/94 259/1/94
f 259/1/94 261/1/94 255/1/94
f 261/1/94 263/1/94 255/1/94
f 265/2/13 267/2/13 272/2/13
f 266/2/103 268/2/103 270/2/103
f 274/2/3 276/2/3 270/2/3
f 273/2/104 272/2/104 276/2/104
f 271/2/105 273/2/105 284/2/105
f 286/2/106 288/2/106 275/2/106
f 285/2/107 284/2/107 288/2/107
f 283/2/9 285/2/9 278/2/9
f 280/2/6 282/2/6 287/2/6
f 281/2/108 279/2/108 278/2/108
f 265/2/109 277/2/109 279/2/109
f 280/2/110 269/2/110 268/2/110
f 283/2/94 277/2/94 265/2/94
f 270/2/111 276/2/111 272/2/111
f 279/2/11 281/2/11 268/2/11
f 274/2/91 269/2/91 280/2/91
f 275/2/14 288/2/14 284/2/14
f 287/2/112 282/2/112 278/2/112
f 289/2/13 291/2/13 296/2/13
f 290/2/103 292/2/103 294/2/103
f 298/2/3 300/2/3 294/2/3
f 297/2/104 296/2/104 300/2/104
f 295/2/105 297/2/105 308/2/105
f 298/2/106 310/2/106 312/2/106
f 311/2/107 309/2/107 308/2/107
f 307/2/9 309/2/9 302/2/9
f 304/2/6 306/2/6 311/2/6
f 303/2/108 302/2/108 306/2/108
f 289/2/109 301/2/109 303/2/109
f 293/2/110 292/2/110 305/2/110
f 307/2/94 301/2/94 289/2/94
f 294/2/111 300/2/111 296/2/111
f 305/2/11 292/2/11 290/2/11
f 298/2/91 293/2/91 304/2/91
f 297/2/14 299/2/14 312/2/14
f 311/2/112 306/2/112 302/2/112
f 313/2/13 315/2/13 320/2/13
f 316/2/103 318/2/103 315/2/103
f 322/2/3 324/2/3 318/2/3
f 323/2/104 321/2/104 320/2/104
f 331/2/105 319/2/105 321/2/105
f 322/2/106 334/2/106 336/2/106
f 335/2/107 333/2/107 332/2/107
f 331/2/9 333/2/9 326/2/9
f 328/2/6 330/2/6 335/2/6
f 327/2/108 326/2/108 330/2/108
f 325/2/109 327/2/109 314/2/109
f 317/2/110 316/2/110 329/2/110
f 331/2/94 325/2/94 313/2/94
f 318/2/111 324/2/111 320/2/111
f 329/2/11 316/2/11 314/2/11
f 322/2/91 317/2/91 328/2/91
f 321/2/14 323/2/14 336/2/14
f 335/2/112 330/2/112 326/2/112
f 337/2/13 339/2/13 344/2/13
f 340/2/103 342/2/103 339/2/103
f 346/2/3 348/2/3 342/2/3
f 347/2/104 345/2/104 344/2/104
f 355/2/105 343/2/105 345/2/105
f 358/2/106 360/2/106 347/2/106
f 359/2/107 357/2/107 356/2/107
f 355/2/9 357/2/9 350/2/9
f 352/2/6 354/2/6 359/2/6
f 351/2/108 350/2/108 354/2/108
f 349/2/109 351/2/109 338/2/109
f 341/2/110 340/2/110 353/2/110
f 355/2/94 349/2/94 337/2/94
f 342/2/111 348/2/111 344/2/111
f 353/2/11 340/2/11 338/2/11
f 346/2/91 341/2/91 352/2/91
f 345/2/14 347/2/14 360/2/14
f 359/2/112 354/2/112 350/2/112
