# Blender 5.2.1 LTS
# www.blender.org
mtllib woodStructure.mtl
o woodStructure
v -0.490909 -0.500000 0.487052
v -0.490909 -0.491000 0.496016
v -0.500000 -0.491000 0.487052
v -0.490909 0.491000 0.496016
v -0.490909 0.500000 0.487052
v -0.500000 0.491000 0.487052
v -0.490909 -0.500000 -0.491036
v -0.500000 -0.491000 -0.491036
v -0.490909 -0.491000 -0.500000
v -0.490909 0.500000 -0.491036
v -0.490909 0.491000 -0.500000
v -0.500000 0.491000 -0.491036
v -0.317172 -0.500000 0.487052
v -0.308081 -0.491000 0.487052
v -0.317172 -0.491000 0.496016
v -0.317172 0.500000 0.487052
v -0.317172 0.491000 0.496016
v -0.308081 0.491000 0.487052
v -0.317172 -0.500000 -0.491036
v -0.317172 -0.491000 -0.500000
v -0.308081 -0.491000 -0.491036
v -0.317172 0.500000 -0.491036
v -0.308081 0.491000 -0.491036
v -0.317172 0.491000 -0.500000
v -0.288889 -0.500000 0.487052
v -0.288889 -0.491000 0.496016
v -0.297980 -0.491000 0.487052
v -0.288889 0.491000 0.496016
v -0.288889 0.500000 0.487052
v -0.297980 0.491000 0.487052
v -0.288889 -0.500000 -0.491036
v -0.297980 -0.491000 -0.491036
v -0.288889 -0.491000 -0.500000
v -0.288889 0.500000 -0.491036
v -0.288889 0.491000 -0.500000
v -0.297980 0.491000 -0.491036
v -0.115151 -0.500000 0.487052
v -0.106061 -0.491000 0.487052
v -0.115151 -0.491000 0.496016
v -0.115151 0.500000 0.487052
v -0.115151 0.491000 0.496016
v -0.106061 0.491000 0.487052
v -0.115151 -0.500000 -0.491036
v -0.115151 -0.491000 -0.500000
v -0.106061 -0.491000 -0.491036
v -0.115151 0.500000 -0.491036
v -0.106061 0.491000 -0.491036
v -0.115151 0.491000 -0.500000
v -0.086869 -0.500000 0.487052
v -0.086869 -0.491000 0.496016
v -0.095960 -0.491000 0.487052
v -0.086869 0.491000 0.496016
v -0.086869 0.500000 0.487052
v -0.095960 0.491000 0.487052
v -0.086869 -0.500000 -0.491036
v -0.095960 -0.491000 -0.491036
v -0.086869 -0.491000 -0.500000
v -0.086869 0.500000 -0.491036
v -0.086869 0.491000 -0.500000
v -0.095960 0.491000 -0.491036
v 0.086869 -0.500000 0.487052
v 0.095960 -0.491000 0.487052
v 0.086869 -0.491000 0.496016
v 0.086869 0.500000 0.487052
v 0.086869 0.491000 0.496016
v 0.095960 0.491000 0.487052
v 0.086869 -0.500000 -0.491036
v 0.086869 -0.491000 -0.500000
v 0.095960 -0.491000 -0.491036
v 0.086869 0.500000 -0.491036
v 0.095960 0.491000 -0.491036
v 0.086869 0.491000 -0.500000
v 0.115152 -0.500000 0.487052
v 0.115152 -0.491000 0.496016
v 0.106061 -0.491000 0.487052
v 0.115152 0.491000 0.496016
v 0.115152 0.500000 0.487052
v 0.106061 0.491000 0.487052
v 0.115152 -0.500000 -0.491036
v 0.106061 -0.491000 -0.491036
v 0.115152 -0.491000 -0.500000
v 0.115152 0.500000 -0.491036
v 0.115152 0.491000 -0.500000
v 0.106061 0.491000 -0.491036
v 0.288889 -0.500000 0.487052
v 0.297980 -0.491000 0.487052
v 0.288889 -0.491000 0.496016
v 0.288889 0.500000 0.487052
v 0.288889 0.491000 0.496016
v 0.297980 0.491000 0.487052
v 0.288889 -0.500000 -0.491036
v 0.288889 -0.491000 -0.500000
v 0.297980 -0.491000 -0.491036
v 0.288889 0.500000 -0.491036
v 0.297980 0.491000 -0.491036
v 0.288889 0.491000 -0.500000
v 0.317172 -0.500000 0.487052
v 0.317172 -0.491000 0.496016
v 0.308081 -0.491000 0.487052
v 0.317172 0.491000 0.496016
v 0.317172 0.500000 0.487052
v 0.308081 0.491000 0.487052
v 0.317172 -0.500000 -0.491036
v 0.308081 -0.491000 -0.491036
v 0.317172 -0.491000 -0.500000
v 0.317172 0.500000 -0.491036
v 0.317172 0.491000 -0.500000
v 0.308081 0.491000 -0.491036
v 0.490909 -0.500000 0.487052
v 0.500000 -0.491000 0.487052
v 0.490909 -0.491000 0.496016
v 0.490909 0.500000 0.487052
v 0.490909 0.491000 0.496016
v 0.500000 0.491000 0.487052
v 0.490909 -0.500000 -0.491036
v 0.490909 -0.491000 -0.500000
v 0.500000 -0.491000 -0.491036
v 0.490909 0.500000 -0.491036
v 0.500000 0.491000 -0.491036
v 0.490909 0.491000 -0.500000
v -0.489899 -0.402500 0.488546
v -0.489899 -0.397500 0.493526
v -0.494949 -0.397500 0.488546
v -0.489899 -0.362500 0.493526
v -0.489899 -0.357500 0.488546
v -0.494949 -0.362500 0.488546
v -0.489899 -0.402500 0.463645
v -0.494949 -0.397500 0.463645
v -0.489899 -0.397500 0.458665
v -0.489899 -0.357500 0.463645
v -0.489899 -0.362500 0.458665
v -0.494949 -0.362500 0.463645
v 0.489899 -0.402500 0.488546
v 0.494949 -0.397500 0.488546
v 0.489899 -0.397500 0.493526
v 0.489899 -0.357500 0.488546
v 0.489899 -0.362500 0.493526
v 0.494949 -0.362500 0.488546
v 0.489899 -0.402500 0.463645
v 0.489899 -0.397500 0.458665
v 0.494949 -0.397500 0.463645
v 0.489899 -0.357500 0.463645
v 0.494949 -0.362500 0.463645
v 0.489899 -0.362500 0.458665
v -0.404040 -0.368000 0.492032
v -0.404040 -0.368000 0.500000
v -0.393543 -0.374000 0.492032
v -0.393543 -0.374000 0.500000
v -0.393543 -0.386000 0.492032
v -0.393543 -0.386000 0.500000
v -0.404040 -0.392000 0.492032
v -0.404040 -0.392000 0.500000
v -0.414538 -0.386000 0.492032
v -0.414538 -0.386000 0.500000
v -0.414538 -0.374000 0.492032
v -0.414538 -0.374000 0.500000
v 0.000000 -0.368000 0.492032
v 0.000000 -0.368000 0.500000
v 0.010497 -0.374000 0.492032
v 0.010497 -0.374000 0.500000
v 0.010497 -0.386000 0.492032
v 0.010497 -0.386000 0.500000
v 0.000000 -0.392000 0.492032
v 0.000000 -0.392000 0.500000
v -0.010497 -0.386000 0.492032
v -0.010497 -0.386000 0.500000
v -0.010497 -0.374000 0.492032
v -0.010497 -0.374000 0.500000
v 0.404040 -0.368000 0.492032
v 0.404040 -0.368000 0.500000
v 0.414538 -0.374000 0.492032
v 0.414538 -0.374000 0.500000
v 0.414538 -0.386000 0.492032
v 0.414538 -0.386000 0.500000
v 0.404040 -0.392000 0.492032
v 0.404040 -0.392000 0.500000
v 0.393543 -0.386000 0.492032
v 0.393543 -0.386000 0.500000
v 0.393543 -0.374000 0.492032
v 0.393543 -0.374000 0.500000
v -0.489899 0.357500 0.488546
v -0.489899 0.362500 0.493526
v -0.494949 0.362500 0.488546
v -0.489899 0.397500 0.493526
v -0.489899 0.402500 0.488546
v -0.494949 0.397500 0.488546
v -0.489899 0.357500 0.463645
v -0.494949 0.362500 0.463645
v -0.489899 0.362500 0.458665
v -0.489899 0.402500 0.463645
v -0.489899 0.397500 0.458665
v -0.494949 0.397500 0.463645
v 0.489899 0.357500 0.488546
v 0.494949 0.362500 0.488546
v 0.489899 0.362500 0.493526
v 0.489899 0.402500 0.488546
v 0.489899 0.397500 0.493526
v 0.494949 0.397500 0.488546
v 0.489899 0.357500 0.463645
v 0.489899 0.362500 0.458665
v 0.494949 0.362500 0.463645
v 0.489899 0.402500 0.463645
v 0.494949 0.397500 0.463645
v 0.489899 0.397500 0.458665
v -0.404040 0.392000 0.492032
v -0.404040 0.392000 0.500000
v -0.393543 0.386000 0.492032
v -0.393543 0.386000 0.500000
v -0.393543 0.374000 0.492032
v -0.393543 0.374000 0.500000
v -0.404040 0.368000 0.492032
v -0.404040 0.368000 0.500000
v -0.414538 0.374000 0.492032
v -0.414538 0.374000 0.500000
v -0.414538 0.386000 0.492032
v -0.414538 0.386000 0.500000
v 0.000000 0.392000 0.492032
v 0.000000 0.392000 0.500000
v 0.010497 0.386000 0.492032
v 0.010497 0.386000 0.500000
v 0.010497 0.374000 0.492032
v 0.010497 0.374000 0.500000
v 0.000000 0.368000 0.492032
v 0.000000 0.368000 0.500000
v -0.010497 0.374000 0.492032
v -0.010497 0.374000 0.500000
v -0.010497 0.386000 0.492032
v -0.010497 0.386000 0.500000
v 0.404040 0.392000 0.492032
v 0.404040 0.392000 0.500000
v 0.414538 0.386000 0.492032
v 0.414538 0.386000 0.500000
v 0.414538 0.374000 0.492032
v 0.414538 0.374000 0.500000
v 0.404040 0.368000 0.492032
v 0.404040 0.368000 0.500000
v 0.393543 0.374000 0.492032
v 0.393543 0.374000 0.500000
v 0.393543 0.386000 0.492032
v 0.393543 0.386000 0.500000
vn -0.5727 -0.5785 0.5808
vn -0.5727 0.5785 0.5808
vn -0.5727 -0.5785 -0.5808
vn -0.5727 0.5785 -0.5808
vn 0.5727 -0.5785 0.5808
vn 0.5727 0.5785 0.5808
vn 0.5727 -0.5785 -0.5808
vn 0.5727 0.5785 -0.5808
vn -0.7035 -0.7107 -0.0000
vn -0.7021 -0.0000 0.7121
vn -0.7035 0.7107 -0.0000
vn -0.7021 -0.0000 -0.7121
vn -0.0000 -0.7057 -0.7085
vn -0.0000 0.7057 -0.7085
vn 0.7021 -0.0000 -0.7121
vn 0.7035 -0.7107 -0.0000
vn 0.7035 0.7107 -0.0000
vn 0.7021 -0.0000 0.7121
vn -0.0000 -0.7057 0.7085
vn -0.0000 0.7057 0.7085
vn -0.0000 -1.0000 -0.0000
vn -1.0000 -0.0000 -0.0000
vn -0.0000 -0.0000 1.0000
vn -0.0000 1.0000 -0.0000
vn -0.0000 -0.0000 -1.0000
vn 1.0000 -0.0000 -0.0000
vn 0.7035 -0.7106 -0.0000
vn 0.7035 0.7106 -0.0000
vn 0.7021 -0.0000 0.7120
vn 0.7021 -0.0000 -0.7120
vn 0.4962 0.8682 -0.0000
vn 0.4962 -0.8682 -0.0000
vn -0.4962 -0.8682 -0.0000
vn -0.4962 0.8682 -0.0000
vn -0.7035 -0.7106 -0.0000
vn -0.7035 0.7106 -0.0000
vn -0.7021 -0.0000 0.7120
vn -0.7021 -0.0000 -0.7120
vt 0.625000 0.125000
vt 0.125000 0.875000
vt 0.375000 0.875000
vt 0.125000 0.625000
s 0
usemtl WorldPickupPalette
f 1/1/1 2/1/1 3/1/1
f 4/1/2 5/1/2 6/1/2
f 7/1/3 8/1/3 9/1/3
f 10/1/4 11/1/4 12/1/4
f 13/1/5 14/1/5 15/1/5
f 16/1/6 17/1/6 18/1/6
f 19/1/7 20/1/7 21/1/7
f 22/1/8 23/1/8 24/1/8
f 1/1/9 8/1/9 7/1/9
f 4/1/10 3/1/10 2/1/10
f 10/1/11 6/1/11 5/1/11
f 9/1/12 12/1/12 11/1/12
f 7/1/13 20/1/13 19/1/13
f 22/1/14 11/1/14 10/1/14
f 21/1/15 24/1/15 23/1/15
f 19/1/16 14/1/16 13/1/16
f 16/1/17 23/1/17 22/1/17
f 15/1/18 18/1/18 17/1/18
f 13/1/19 2/1/19 1/1/19
f 5/1/20 17/1/20 16/1/20
f 19/1/21 1/1/21 7/1/21
f 6/1/22 8/1/22 3/1/22
f 17/1/23 2/1/23 15/1/23
f 10/1/24 16/1/24 22/1/24
f 11/1/25 20/1/25 9/1/25
f 23/1/26 14/1/26 21/1/26
f 25/2/1 26/2/1 27/2/1
f 28/2/2 29/2/2 30/2/2
f 31/2/3 32/2/3 33/2/3
f 34/2/4 35/2/4 36/2/4
f 37/2/5 38/2/5 39/2/5
f 40/2/6 41/2/6 42/2/6
f 43/2/7 44/2/7 45/2/7
f 46/2/8 47/2/8 48/2/8
f 25/2/9 32/2/9 31/2/9
f 28/2/10 27/2/10 26/2/10
f 34/2/11 30/2/11 29/2/11
f 33/2/12 36/2/12 35/2/12
f 31/2/13 44/2/13 43/2/13
f 46/2/14 35/2/14 34/2/14
f 45/2/15 48/2/15 47/2/15
f 43/2/16 38/2/16 37/2/16
f 40/2/17 47/2/17 46/2/17
f 39/2/18 42/2/18 41/2/18
f 37/2/19 26/2/19 25/2/19
f 29/2/20 41/2/20 40/2/20
f 43/2/21 25/2/21 31/2/21
f 30/2/22 32/2/22 27/2/22
f 41/2/23 26/2/23 39/2/23
f 34/2/24 40/2/24 46/2/24
f 35/2/25 44/2/25 33/2/25
f 47/2/26 38/2/26 45/2/26
f 49/1/1 50/1/1 51/1/1
f 52/1/2 53/1/2 54/1/2
f 55/1/3 56/1/3 57/1/3
f 58/1/4 59/1/4 60/1/4
f 61/1/5 62/1/5 63/1/5
f 64/1/6 65/1/6 66/1/6
f 67/1/7 68/1/7 69/1/7
f 70/1/8 71/1/8 72/1/8
f 49/1/9 56/1/9 55/1/9
f 52/1/10 51/1/10 50/1/10
f 58/1/11 54/1/11 53/1/11
f 57/1/12 60/1/12 59/1/12
f 55/1/13 68/1/13 67/1/13
f 70/1/14 59/1/14 58/1/14
f 69/1/15 72/1/15 71/1/15
f 67/1/16 62/1/16 61/1/16
f 64/1/17 71/1/17 70/1/17
f 63/1/18 66/1/18 65/1/18
f 61/1/19 50/1/19 49/1/19
f 53/1/20 65/1/20 64/1/20
f 67/1/21 49/1/21 55/1/21
f 54/1/22 56/1/22 51/1/22
f 65/1/23 50/1/23 63/1/23
f 58/1/24 64/1/24 70/1/24
f 59/1/25 68/1/25 57/1/25
f 71/1/26 62/1/26 69/1/26
f 73/2/1 74/2/1 75/2/1
f 76/2/2 77/2/2 78/2/2
f 79/2/3 80/2/3 81/2/3
f 82/2/4 83/2/4 84/2/4
f 85/2/5 86/2/5 87/2/5
f 88/2/6 89/2/6 90/2/6
f 91/2/7 92/2/7 93/2/7
f 94/2/8 95/2/8 96/2/8
f 73/2/9 80/2/9 79/2/9
f 76/2/10 75/2/10 74/2/10
f 82/2/11 78/2/11 77/2/11
f 81/2/12 84/2/12 83/2/12
f 79/2/13 92/2/13 91/2/13
f 94/2/14 83/2/14 82/2/14
f 93/2/15 96/2/15 95/2/15
f 91/2/16 86/2/16 85/2/16
f 88/2/17 95/2/17 94/2/17
f 87/2/18 90/2/18 89/2/18
f 85/2/19 74/2/19 73/2/19
f 77/2/20 89/2/20 88/2/20
f 91/2/21 73/2/21 79/2/21
f 78/2/22 80/2/22 75/2/22
f 89/2/23 74/2/23 87/2/23
f 82/2/24 88/2/24 94/2/24
f 83/2/25 92/2/25 81/2/25
f 95/2/26 86/2/26 93/2/26
f 97/1/1 98/1/1 99/1/1
f 100/1/2 101/1/2 102/1/2
f 103/1/3 104/1/3 105/1/3
f 106/1/4 107/1/4 108/1/4
f 109/1/5 110/1/5 111/1/5
f 112/1/6 113/1/6 114/1/6
f 115/1/7 116/1/7 117/1/7
f 118/1/8 119/1/8 120/1/8
f 97/1/9 104/1/9 103/1/9
f 100/1/10 99/1/10 98/1/10
f 106/1/11 102/1/11 101/1/11
f 105/1/12 108/1/12 107/1/12
f 103/1/13 116/1/13 115/1/13
f 118/1/14 107/1/14 106/1/14
f 117/1/15 120/1/15 119/1/15
f 115/1/27 110/1/27 109/1/27
f 112/1/28 119/1/28 118/1/28
f 111/1/29 114/1/29 113/1/29
f 109/1/19 98/1/19 97/1/19
f 101/1/20 113/1/20 112/1/20
f 115/1/21 97/1/21 103/1/21
f 102/1/22 104/1/22 99/1/22
f 113/1/23 98/1/23 111/1/23
f 106/1/24 112/1/24 118/1/24
f 107/1/25 116/1/25 105/1/25
f 119/1/26 110/1/26 117/1/26
f 121/3/1 122/3/1 123/3/1
f 124/3/2 125/3/2 126/3/2
f 127/3/3 128/3/3 129/3/3
f 130/3/4 131/3/4 132/3/4
f 133/3/5 134/3/5 135/3/5
f 136/3/6 137/3/6 138/3/6
f 139/3/7 140/3/7 141/3/7
f 142/3/8 143/3/8 144/3/8
f 121/3/9 128/3/9 127/3/9
f 124/3/10 123/3/10 122/3/10
f 130/3/11 126/3/11 125/3/11
f 129/3/12 132/3/12 131/3/12
f 127/3/13 140/3/13 139/3/13
f 142/3/14 131/3/14 130/3/14
f 141/3/30 144/3/30 143/3/30
f 139/3/16 134/3/16 133/3/16
f 136/3/17 143/3/17 142/3/17
f 135/3/18 138/3/18 137/3/18
f 133/3/19 122/3/19 121/3/19
f 125/3/20 137/3/20 136/3/20
f 139/3/21 121/3/21 127/3/21
f 126/3/22 128/3/22 123/3/22
f 137/3/23 122/3/23 135/3/23
f 130/3/24 136/3/24 142/3/24
f 131/3/25 140/3/25 129/3/25
f 143/3/26 134/3/26 141/3/26
f 146/4/31 147/4/31 145/4/31
f 148/4/26 149/4/26 147/4/26
f 150/4/32 151/4/32 149/4/32
f 152/4/33 153/4/33 151/4/33
f 152/4/23 150/4/23 146/4/23
f 154/4/22 155/4/22 153/4/22
f 156/4/34 145/4/34 155/4/34
f 151/4/25 153/4/25 155/4/25
f 158/4/31 159/4/31 157/4/31
f 160/4/26 161/4/26 159/4/26
f 162/4/32 163/4/32 161/4/32
f 164/4/33 165/4/33 163/4/33
f 164/4/23 162/4/23 158/4/23
f 166/4/22 167/4/22 165/4/22
f 168/4/34 157/4/34 167/4/34
f 163/4/25 165/4/25 167/4/25
f 170/4/31 171/4/31 169/4/31
f 172/4/26 173/4/26 171/4/26
f 174/4/32 175/4/32 173/4/32
f 176/4/33 177/4/33 175/4/33
f 176/4/23 174/4/23 170/4/23
f 178/4/22 179/4/22 177/4/22
f 180/4/34 169/4/34 179/4/34
f 175/4/25 177/4/25 179/4/25
f 181/3/1 182/3/1 183/3/1
f 184/3/2 185/3/2 186/3/2
f 187/3/3 188/3/3 189/3/3
f 190/3/4 191/3/4 192/3/4
f 193/3/5 194/3/5 195/3/5
f 196/3/6 197/3/6 198/3/6
f 199/3/7 200/3/7 201/3/7
f 202/3/8 203/3/8 204/3/8
f 181/3/9 188/3/9 187/3/9
f 184/3/10 183/3/10 182/3/10
f 190/3/11 186/3/11 185/3/11
f 189/3/12 192/3/12 191/3/12
f 187/3/13 200/3/13 199/3/13
f 202/3/14 191/3/14 190/3/14
f 201/3/30 204/3/30 203/3/30
f 199/3/16 194/3/16 193/3/16
f 196/3/17 203/3/17 202/3/17
f 195/3/18 198/3/18 197/3/18
f 193/3/19 182/3/19 181/3/19
f 185/3/20 197/3/20 196/3/20
f 199/3/21 181/3/21 187/3/21
f 186/3/22 188/3/22 183/3/22
f 197/3/23 182/3/23 195/3/23
f 190/3/24 196/3/24 202/3/24
f 191/3/25 200/3/25 189/3/25
f 203/3/26 194/3/26 201/3/26
f 206/4/31 207/4/31 205/4/31
f 208/4/26 209/4/26 207/4/26
f 210/4/32 211/4/32 209/4/32
f 212/4/33 213/4/33 211/4/33
f 212/4/23 210/4/23 206/4/23
f 214/4/22 215/4/22 213/4/22
f 216/4/34 205/4/34 215/4/34
f 211/4/25 213/4/25 215/4/25
f 218/4/31 219/4/31 217/4/31
f 220/4/26 221/4/26 219/4/26
f 222/4/32 223/4/32 221/4/32
f 224/4/33 225/4/33 223/4/33
f 224/4/23 222/4/23 218/4/23
f 226/4/22 227/4/22 225/4/22
f 228/4/34 217/4/34 227/4/34
f 223/4/25 225/4/25 227/4/25
f 230/4/31 231/4/31 229/4/31
f 232/4/26 233/4/26 231/4/26
f 234/4/32 235/4/32 233/4/32
f 236/4/33 237/4/33 235/4/33
f 236/4/23 234/4/23 230/4/23
f 238/4/22 239/4/22 237/4/22
f 240/4/34 229/4/34 239/4/34
f 235/4/25 237/4/25 239/4/25
f 1/1/35 3/1/35 8/1/35
f 4/1/10 6/1/10 3/1/10
f 10/1/36 12/1/36 6/1/36
f 9/1/12 8/1/12 12/1/12
f 7/1/13 9/1/13 20/1/13
f 22/1/14 24/1/14 11/1/14
f 21/1/15 20/1/15 24/1/15
f 19/1/16 21/1/16 14/1/16
f 16/1/17 18/1/17 23/1/17
f 15/1/18 14/1/18 18/1/18
f 13/1/19 15/1/19 2/1/19
f 5/1/20 4/1/20 17/1/20
f 19/1/21 13/1/21 1/1/21
f 6/1/22 12/1/22 8/1/22
f 17/1/23 4/1/23 2/1/23
f 10/1/24 5/1/24 16/1/24
f 11/1/25 24/1/25 20/1/25
f 23/1/26 18/1/26 14/1/26
f 25/2/35 27/2/35 32/2/35
f 28/2/10 30/2/10 27/2/10
f 34/2/36 36/2/36 30/2/36
f 33/2/12 32/2/12 36/2/12
f 31/2/13 33/2/13 44/2/13
f 46/2/14 48/2/14 35/2/14
f 45/2/15 44/2/15 48/2/15
f 43/2/27 45/2/27 38/2/27
f 40/2/28 42/2/28 47/2/28
f 39/2/18 38/2/18 42/2/18
f 37/2/19 39/2/19 26/2/19
f 29/2/20 28/2/20 41/2/20
f 43/2/21 37/2/21 25/2/21
f 30/2/22 36/2/22 32/2/22
f 41/2/23 28/2/23 26/2/23
f 34/2/24 29/2/24 40/2/24
f 35/2/25 48/2/25 44/2/25
f 47/2/26 42/2/26 38/2/26
f 49/1/35 51/1/35 56/1/35
f 52/1/10 54/1/10 51/1/10
f 58/1/36 60/1/36 54/1/36
f 57/1/12 56/1/12 60/1/12
f 55/1/13 57/1/13 68/1/13
f 70/1/14 72/1/14 59/1/14
f 69/1/15 68/1/15 72/1/15
f 67/1/27 69/1/27 62/1/27
f 64/1/28 66/1/28 71/1/28
f 63/1/18 62/1/18 66/1/18
f 61/1/19 63/1/19 50/1/19
f 53/1/20 52/1/20 65/1/20
f 67/1/21 61/1/21 49/1/21
f 54/1/22 60/1/22 56/1/22
f 65/1/23 52/1/23 50/1/23
f 58/1/24 53/1/24 64/1/24
f 59/1/25 72/1/25 68/1/25
f 71/1/26 66/1/26 62/1/26
f 73/2/9 75/2/9 80/2/9
f 76/2/10 78/2/10 75/2/10
f 82/2/11 84/2/11 78/2/11
f 81/2/12 80/2/12 84/2/12
f 79/2/13 81/2/13 92/2/13
f 94/2/14 96/2/14 83/2/14
f 93/2/15 92/2/15 96/2/15
f 91/2/16 93/2/16 86/2/16
f 88/2/17 90/2/17 95/2/17
f 87/2/18 86/2/18 90/2/18
f 85/2/19 87/2/19 74/2/19
f 77/2/20 76/2/20 89/2/20
f 91/2/21 85/2/21 73/2/21
f 78/2/22 84/2/22 80/2/22
f 89/2/23 76/2/23 74/2/23
f 82/2/24 77/2/24 88/2/24
f 83/2/25 96/2/25 92/2/25
f 95/2/26 90/2/26 86/2/26
f 97/1/35 99/1/35 104/1/35
f 100/1/10 102/1/10 99/1/10
f 106/1/36 108/1/36 102/1/36
f 105/1/12 104/1/12 108/1/12
f 103/1/13 105/1/13 116/1/13
f 118/1/14 120/1/14 107/1/14
f 117/1/30 116/1/30 120/1/30
f 115/1/27 117/1/27 110/1/27
f 112/1/28 114/1/28 119/1/28
f 111/1/18 110/1/18 114/1/18
f 109/1/19 111/1/19 98/1/19
f 101/1/20 100/1/20 113/1/20
f 115/1/21 109/1/21 97/1/21
f 102/1/22 108/1/22 104/1/22
f 113/1/23 100/1/23 98/1/23
f 106/1/24 101/1/24 112/1/24
f 107/1/25 120/1/25 116/1/25
f 119/1/26 114/1/26 110/1/26
f 121/3/35 123/3/35 128/3/35
f 124/3/37 126/3/37 123/3/37
f 130/3/11 132/3/11 126/3/11
f 129/3/38 128/3/38 132/3/38
f 127/3/13 129/3/13 140/3/13
f 142/3/14 144/3/14 131/3/14
f 141/3/15 140/3/15 144/3/15
f 139/3/27 141/3/27 134/3/27
f 136/3/17 138/3/17 143/3/17
f 135/3/29 134/3/29 138/3/29
f 133/3/19 135/3/19 122/3/19
f 125/3/20 124/3/20 137/3/20
f 139/3/21 133/3/21 121/3/21
f 126/3/22 132/3/22 128/3/22
f 137/3/23 124/3/23 122/3/23
f 130/3/24 125/3/24 136/3/24
f 131/3/25 144/3/25 140/3/25
f 143/3/26 138/3/26 134/3/26
f 146/4/31 148/4/31 147/4/31
f 148/4/26 150/4/26 149/4/26
f 150/4/32 152/4/32 151/4/32
f 152/4/33 154/4/33 153/4/33
f 150/4/23 148/4/23 146/4/23
f 146/4/23 156/4/23 154/4/23
f 154/4/23 152/4/23 146/4/23
f 154/4/22 156/4/22 155/4/22
f 156/4/34 146/4/34 145/4/34
f 155/4/25 145/4/25 151/4/25
f 145/4/25 147/4/25 151/4/25
f 147/4/25 149/4/25 151/4/25
f 158/4/31 160/4/31 159/4/31
f 160/4/26 162/4/26 161/4/26
f 162/4/32 164/4/32 163/4/32
f 164/4/33 166/4/33 165/4/33
f 162/4/23 160/4/23 158/4/23
f 158/4/23 168/4/23 166/4/23
f 166/4/23 164/4/23 158/4/23
f 166/4/22 168/4/22 167/4/22
f 168/4/34 158/4/34 157/4/34
f 167/4/25 157/4/25 163/4/25
f 157/4/25 159/4/25 163/4/25
f 159/4/25 161/4/25 163/4/25
f 170/4/31 172/4/31 171/4/31
f 172/4/26 174/4/26 173/4/26
f 174/4/32 176/4/32 175/4/32
f 176/4/33 178/4/33 177/4/33
f 174/4/23 172/4/23 170/4/23
f 170/4/23 180/4/23 178/4/23
f 178/4/23 176/4/23 170/4/23
f 178/4/22 180/4/22 179/4/22
f 180/4/34 170/4/34 169/4/34
f 179/4/25 169/4/25 175/4/25
f 169/4/25 171/4/25 175/4/25
f 171/4/25 173/4/25 175/4/25
f 181/3/9 183/3/9 188/3/9
f 184/3/37 186/3/37 183/3/37
f 190/3/36 192/3/36 186/3/36
f 189/3/38 188/3/38 192/3/38
f 187/3/13 189/3/13 200/3/13
f 202/3/14 204/3/14 191/3/14
f 201/3/15 200/3/15 204/3/15
f 199/3/16 201/3/16 194/3/16
f 196/3/28 198/3/28 203/3/28
f 195/3/29 194/3/29 198/3/29
f 193/3/19 195/3/19 182/3/19
f 185/3/20 184/3/20 197/3/20
f 199/3/21 193/3/21 181/3/21
f 186/3/22 192/3/22 188/3/22
f 197/3/23 184/3/23 182/3/23
f 190/3/24 185/3/24 196/3/24
f 191/3/25 204/3/25 200/3/25
f 203/3/26 198/3/26 194/3/26
f 206/4/31 208/4/31 207/4/31
f 208/4/26 210/4/26 209/4/26
f 210/4/32 212/4/32 211/4/32
f 212/4/33 214/4/33 213/4/33
f 210/4/23 208/4/23 206/4/23
f 206/4/23 216/4/23 214/4/23
f 214/4/23 212/4/23 206/4/23
f 214/4/22 216/4/22 215/4/22
f 216/4/34 206/4/34 205/4/34
f 215/4/25 205/4/25 211/4/25
f 205/4/25 207/4/25 211/4/25
f 207/4/25 209/4/25 211/4/25
f 218/4/31 220/4/31 219/4/31
f 220/4/26 222/4/26 221/4/26
f 222/4/32 224/4/32 223/4/32
f 224/4/33 226/4/33 225/4/33
f 222/4/23 220/4/23 218/4/23
f 218/4/23 228/4/23 226/4/23
f 226/4/23 224/4/23 218/4/23
f 226/4/22 228/4/22 227/4/22
f 228/4/34 218/4/34 217/4/34
f 227/4/25 217/4/25 223/4/25
f 217/4/25 219/4/25 223/4/25
f 219/4/25 221/4/25 223/4/25
f 230/4/31 232/4/31 231/4/31
f 232/4/26 234/4/26 233/4/26
f 234/4/32 236/4/32 235/4/32
f 236/4/33 238/4/33 237/4/33
f 234/4/23 232/4/23 230/4/23
f 230/4/23 240/4/23 238/4/23
f 238/4/23 236/4/23 230/4/23
f 238/4/22 240/4/22 239/4/22
f 240/4/34 230/4/34 229/4/34
f 239/4/25 229/4/25 235/4/25
f 229/4/25 231/4/25 235/4/25
f 231/4/25 233/4/25 235/4/25
