# Blender 5.2.1 LTS
# www.blender.org
mtllib landmark_refinery.mtl
o fencePosts_0004
v -6.751297 1.145000 8.520784
v -6.751297 -0.005000 8.520784
v -6.784650 1.145000 8.364300
v -6.751297 -0.005000 8.520784
v -6.784650 -0.005000 8.364300
v -6.784650 1.145000 8.364300
v -6.941135 1.145000 8.397654
v -6.941135 -0.005000 8.397654
v -6.907782 1.145000 8.554138
v -6.941135 -0.005000 8.397654
v -6.907782 -0.005000 8.554138
v -6.907782 1.145000 8.554138
v -6.941135 1.145000 8.397654
v -6.907782 1.145000 8.554138
v -6.784650 1.145000 8.364300
v -6.907782 1.145000 8.554138
v -6.751297 1.145000 8.520784
v -6.784650 1.145000 8.364300
v -6.907782 -0.005000 8.554138
v -6.941135 -0.005000 8.397654
v -6.751297 -0.005000 8.520784
v -6.941135 -0.005000 8.397654
v -6.784650 -0.005000 8.364300
v -6.751297 -0.005000 8.520784
v -6.907782 1.145000 8.554138
v -6.907782 -0.005000 8.554138
v -6.751297 1.145000 8.520784
v -6.907782 -0.005000 8.554138
v -6.751297 -0.005000 8.520784
v -6.751297 1.145000 8.520784
v -6.784650 1.145000 8.364300
v -6.784650 -0.005000 8.364300
v -6.941135 1.145000 8.397654
v -6.784650 -0.005000 8.364300
v -6.941135 -0.005000 8.397654
v -6.941135 1.145000 8.397654
vn 0.9780 -0.0000 -0.2085
vn -0.9780 -0.0000 0.2085
vn -0.0000 1.0000 -0.0000
vn -0.0000 -1.0000 -0.0000
vn 0.2085 -0.0000 0.9780
vn -0.2085 -0.0000 -0.9780
vt 0.000000 1.000000
vt 1.000000 0.000000
vt 0.000000 0.000000
vt 1.000000 1.000000
s 0
usemtl Material_3
f 2/1/1 3/2/1 1/3/1
f 5/4/1 6/2/1 4/1/1
f 8/1/2 9/2/2 7/3/2
f 11/4/2 12/2/2 10/1/2
f 14/1/3 15/2/3 13/3/3
f 17/4/3 18/2/3 16/1/3
f 20/1/4 21/2/4 19/3/4
f 23/4/4 24/2/4 22/1/4
f 26/1/5 27/2/5 25/3/5
f 29/4/5 30/2/5 28/1/5
f 32/1/6 33/2/6 31/3/6
f 35/4/6 36/2/6 34/1/6
o fencePosts_0014
v -5.039743 1.145000 8.155980
v -5.039743 -0.005000 8.155980
v -5.073096 1.145000 7.999496
v -5.039743 -0.005000 8.155980
v -5.073096 -0.005000 7.999496
v -5.073096 1.145000 7.999496
v -5.229581 1.145000 8.032849
v -5.229581 -0.005000 8.032849
v -5.196228 1.145000 8.189334
v -5.229581 -0.005000 8.032849
v -5.196228 -0.005000 8.189334
v -5.196228 1.145000 8.189334
v -5.229581 1.145000 8.032849
v -5.196228 1.145000 8.189334
v -5.073096 1.145000 7.999496
v -5.196228 1.145000 8.189334
v -5.039743 1.145000 8.155980
v -5.073096 1.145000 7.999496
v -5.196228 -0.005000 8.189334
v -5.229581 -0.005000 8.032849
v -5.039743 -0.005000 8.155980
v -5.229581 -0.005000 8.032849
v -5.073096 -0.005000 7.999496
v -5.039743 -0.005000 8.155980
v -5.196228 1.145000 8.189334
v -5.196228 -0.005000 8.189334
v -5.039743 1.145000 8.155980
v -5.196228 -0.005000 8.189334
v -5.039743 -0.005000 8.155980
v -5.039743 1.145000 8.155980
v -5.073096 1.145000 7.999496
v -5.073096 -0.005000 7.999496
v -5.229581 1.145000 8.032849
v -5.073096 -0.005000 7.999496
v -5.229581 -0.005000 8.032849
v -5.229581 1.145000 8.032849
vn 0.9780 -0.0000 -0.2085
vn -0.9780 -0.0000 0.2085
vn -0.0000 1.0000 -0.0000
vn -0.0000 -1.0000 -0.0000
vn 0.2085 -0.0000 0.9780
vn -0.2085 -0.0000 -0.9780
vt 0.000000 1.000000
vt 1.000000 0.000000
vt 0.000000 0.000000
vt 1.000000 1.000000
s 0
usemtl Material_3
f 38/5/7 39/6/7 37/7/7
f 41/8/7 42/6/7 40/5/7
f 44/5/8 45/6/8 43/7/8
f 47/8/8 48/6/8 46/5/8
f 50/5/9 51/6/9 49/7/9
f 53/8/9 54/6/9 52/5/9
f 56/5/10 57/6/10 55/7/10
f 59/8/10 60/6/10 58/5/10
f 62/5/11 63/6/11 61/7/11
f 65/8/11 66/6/11 64/5/11
f 68/5/12 69/6/12 67/7/12
f 71/8/12 72/6/12 70/5/12
o fencePosts_0024
v -3.328189 1.145000 7.791175
v -3.328189 -0.005000 7.791175
v -3.361542 1.145000 7.634690
v -3.328189 -0.005000 7.791175
v -3.361542 -0.005000 7.634690
v -3.361542 1.145000 7.634690
v -3.518027 1.145000 7.668044
v -3.518027 -0.005000 7.668044
v -3.484674 1.145000 7.824529
v -3.518027 -0.005000 7.668044
v -3.484674 -0.005000 7.824529
v -3.484674 1.145000 7.824529
v -3.518027 1.145000 7.668044
v -3.484674 1.145000 7.824529
v -3.361542 1.145000 7.634690
v -3.484674 1.145000 7.824529
v -3.328189 1.145000 7.791175
v -3.361542 1.145000 7.634690
v -3.484674 -0.005000 7.824529
v -3.518027 -0.005000 7.668044
v -3.328189 -0.005000 7.791175
v -3.518027 -0.005000 7.668044
v -3.361542 -0.005000 7.634690
v -3.328189 -0.005000 7.791175
v -3.484674 1.145000 7.824529
v -3.484674 -0.005000 7.824529
v -3.328189 1.145000 7.791175
v -3.484674 -0.005000 7.824529
v -3.328189 -0.005000 7.791175
v -3.328189 1.145000 7.791175
v -3.361542 1.145000 7.634690
v -3.361542 -0.005000 7.634690
v -3.518027 1.145000 7.668044
v -3.361542 -0.005000 7.634690
v -3.518027 -0.005000 7.668044
v -3.518027 1.145000 7.668044
vn 0.9780 -0.0000 -0.2085
vn -0.9780 -0.0000 0.2085
vn -0.0000 1.0000 -0.0000
vn -0.0000 -1.0000 -0.0000
vn 0.2085 -0.0000 0.9780
vn -0.2085 -0.0000 -0.9780
vt 0.000000 1.000000
vt 1.000000 0.000000
vt 0.000000 0.000000
vt 1.000000 1.000000
s 0
usemtl Material_3
f 74/9/13 75/10/13 73/11/13
f 77/12/13 78/10/13 76/9/13
f 80/9/14 81/10/14 79/11/14
f 83/12/14 84/10/14 82/9/14
f 86/9/15 87/10/15 85/11/15
f 89/12/15 90/10/15 88/9/15
f 92/9/16 93/10/16 91/11/16
f 95/12/16 96/10/16 94/9/16
f 98/9/17 99/10/17 97/11/17
f 101/12/17 102/10/17 100/9/17
f 104/9/18 105/10/18 103/11/18
f 107/12/18 108/10/18 106/9/18
o fencePosts_0034
v -1.616635 1.145000 7.426371
v -1.616635 -0.005000 7.426371
v -1.649988 1.145000 7.269886
v -1.616635 -0.005000 7.426371
v -1.649988 -0.005000 7.269886
v -1.649988 1.145000 7.269886
v -1.806473 1.145000 7.303239
v -1.806473 -0.005000 7.303239
v -1.773120 1.145000 7.459724
v -1.806473 -0.005000 7.303239
v -1.773120 -0.005000 7.459724
v -1.773120 1.145000 7.459724
v -1.806473 1.145000 7.303239
v -1.773120 1.145000 7.459724
v -1.649988 1.145000 7.269886
v -1.773120 1.145000 7.459724
v -1.616635 1.145000 7.426371
v -1.649988 1.145000 7.269886
v -1.773120 -0.005000 7.459724
v -1.806473 -0.005000 7.303239
v -1.616635 -0.005000 7.426371
v -1.806473 -0.005000 7.303239
v -1.649988 -0.005000 7.269886
v -1.616635 -0.005000 7.426371
v -1.773120 1.145000 7.459724
v -1.773120 -0.005000 7.459724
v -1.616635 1.145000 7.426371
v -1.773120 -0.005000 7.459724
v -1.616635 -0.005000 7.426371
v -1.616635 1.145000 7.426371
v -1.649988 1.145000 7.269886
v -1.649988 -0.005000 7.269886
v -1.806473 1.145000 7.303239
v -1.649988 -0.005000 7.269886
v -1.806473 -0.005000 7.303239
v -1.806473 1.145000 7.303239
vn 0.9780 -0.0000 -0.2085
vn -0.9780 -0.0000 0.2085
vn -0.0000 1.0000 -0.0000
vn -0.0000 -1.0000 -0.0000
vn 0.2085 -0.0000 0.9780
vn -0.2085 -0.0000 -0.9780
vt 0.000000 1.000000
vt 1.000000 0.000000
vt 0.000000 0.000000
vt 1.000000 1.000000
s 0
usemtl Material_3
f 110/13/19 111/14/19 109/15/19
f 113/16/19 114/14/19 112/13/19
f 116/13/20 117/14/20 115/15/20
f 119/16/20 120/14/20 118/13/20
f 122/13/21 123/14/21 121/15/21
f 125/16/21 126/14/21 124/13/21
f 128/13/22 129/14/22 127/15/22
f 131/16/22 132/14/22 130/13/22
f 134/13/23 135/14/23 133/15/23
f 137/16/23 138/14/23 136/13/23
f 140/13/24 141/14/24 139/15/24
f 143/16/24 144/14/24 142/13/24
o fencePosts_0044
v 0.094919 1.145000 7.061566
v 0.094919 -0.005000 7.061566
v 0.061566 1.145000 6.905081
v 0.094919 -0.005000 7.061566
v 0.061566 -0.005000 6.905081
v 0.061566 1.145000 6.905081
v -0.094919 1.145000 6.938434
v -0.094919 -0.005000 6.938434
v -0.061566 1.145000 7.094919
v -0.094919 -0.005000 6.938434
v -0.061566 -0.005000 7.094919
v -0.061566 1.145000 7.094919
v -0.094919 1.145000 6.938434
v -0.061566 1.145000 7.094919
v 0.061566 1.145000 6.905081
v -0.061566 1.145000 7.094919
v 0.094919 1.145000 7.061566
v 0.061566 1.145000 6.905081
v -0.061566 -0.005000 7.094919
v -0.094919 -0.005000 6.938434
v 0.094919 -0.005000 7.061566
v -0.094919 -0.005000 6.938434
v 0.061566 -0.005000 6.905081
v 0.094919 -0.005000 7.061566
v -0.061566 1.145000 7.094919
v -0.061566 -0.005000 7.094919
v 0.094919 1.145000 7.061566
v -0.061566 -0.005000 7.094919
v 0.094919 -0.005000 7.061566
v 0.094919 1.145000 7.061566
v 0.061566 1.145000 6.905081
v 0.061566 -0.005000 6.905081
v -0.094919 1.145000 6.938434
v 0.061566 -0.005000 6.905081
v -0.094919 -0.005000 6.938434
v -0.094919 1.145000 6.938434
vn 0.9780 -0.0000 -0.2085
vn -0.9780 -0.0000 0.2085
vn -0.0000 1.0000 -0.0000
vn -0.0000 -1.0000 -0.0000
vn 0.2085 -0.0000 0.9780
vn -0.2085 -0.0000 -0.9780
vt 0.000000 1.000000
vt 1.000000 0.000000
vt 0.000000 0.000000
vt 1.000000 1.000000
s 0
usemtl Material_3
f 146/17/25 147/18/25 145/19/25
f 149/20/25 150/18/25 148/17/25
f 152/17/26 153/18/26 151/19/26
f 155/20/26 156/18/26 154/17/26
f 158/17/27 159/18/27 157/19/27
f 161/20/27 162/18/27 160/17/27
f 164/17/28 165/18/28 163/19/28
f 167/20/28 168/18/28 166/17/28
f 170/17/29 171/18/29 169/19/29
f 173/20/29 174/18/29 172/17/29
f 176/17/30 177/18/30 175/19/30
f 179/20/30 180/18/30 178/17/30
o fencePosts_0054
v 1.806473 1.145000 6.696761
v 1.806473 -0.005000 6.696761
v 1.773120 1.145000 6.540276
v 1.806473 -0.005000 6.696761
v 1.773120 -0.005000 6.540276
v 1.773120 1.145000 6.540276
v 1.616635 1.145000 6.573629
v 1.616635 -0.005000 6.573629
v 1.649988 1.145000 6.730114
v 1.616635 -0.005000 6.573629
v 1.649988 -0.005000 6.730114
v 1.649988 1.145000 6.730114
v 1.616635 1.145000 6.573629
v 1.649988 1.145000 6.730114
v 1.773120 1.145000 6.540276
v 1.649988 1.145000 6.730114
v 1.806473 1.145000 6.696761
v 1.773120 1.145000 6.540276
v 1.649988 -0.005000 6.730114
v 1.616635 -0.005000 6.573629
v 1.806473 -0.005000 6.696761
v 1.616635 -0.005000 6.573629
v 1.773120 -0.005000 6.540276
v 1.806473 -0.005000 6.696761
v 1.649988 1.145000 6.730114
v 1.649988 -0.005000 6.730114
v 1.806473 1.145000 6.696761
v 1.649988 -0.005000 6.730114
v 1.806473 -0.005000 6.696761
v 1.806473 1.145000 6.696761
v 1.773120 1.145000 6.540276
v 1.773120 -0.005000 6.540276
v 1.616635 1.145000 6.573629
v 1.773120 -0.005000 6.540276
v 1.616635 -0.005000 6.573629
v 1.616635 1.145000 6.573629
vn 0.9780 -0.0000 -0.2085
vn -0.9780 -0.0000 0.2085
vn -0.0000 1.0000 -0.0000
vn -0.0000 -1.0000 -0.0000
vn 0.2085 -0.0000 0.9780
vn -0.2085 -0.0000 -0.9780
vt 0.000000 1.000000
vt 1.000000 0.000000
vt 0.000000 0.000000
vt 1.000000 1.000000
s 0
usemtl Material_3
f 182/21/31 183/22/31 181/23/31
f 185/24/31 186/22/31 184/21/31
f 188/21/32 189/22/32 187/23/32
f 191/24/32 192/22/32 190/21/32
f 194/21/33 195/22/33 193/23/33
f 197/24/33 198/22/33 196/21/33
f 200/21/34 201/22/34 199/23/34
f 203/24/34 204/22/34 202/21/34
f 206/21/35 207/22/35 205/23/35
f 209/24/35 210/22/35 208/21/35
f 212/21/36 213/22/36 211/23/36
f 215/24/36 216/22/36 214/21/36
o fencePosts_0063
v 3.518027 1.145000 6.331956
v 3.518027 -0.005000 6.331956
v 3.484674 1.145000 6.175471
v 3.518027 -0.005000 6.331956
v 3.484674 -0.005000 6.175471
v 3.484674 1.145000 6.175471
v 3.328189 1.145000 6.208825
v 3.328189 -0.005000 6.208825
v 3.361542 1.145000 6.365310
v 3.328189 -0.005000 6.208825
v 3.361542 -0.005000 6.365310
v 3.361542 1.145000 6.365310
v 3.328189 1.145000 6.208825
v 3.361542 1.145000 6.365310
v 3.484674 1.145000 6.175471
v 3.361542 1.145000 6.365310
v 3.518027 1.145000 6.331956
v 3.484674 1.145000 6.175471
v 3.361542 -0.005000 6.365310
v 3.328189 -0.005000 6.208825
v 3.518027 -0.005000 6.331956
v 3.328189 -0.005000 6.208825
v 3.484674 -0.005000 6.175471
v 3.518027 -0.005000 6.331956
v 3.361542 1.145000 6.365310
v 3.361542 -0.005000 6.365310
v 3.518027 1.145000 6.331956
v 3.361542 -0.005000 6.365310
v 3.518027 -0.005000 6.331956
v 3.518027 1.145000 6.331956
v 3.484674 1.145000 6.175471
v 3.484674 -0.005000 6.175471
v 3.328189 1.145000 6.208825
v 3.484674 -0.005000 6.175471
v 3.328189 -0.005000 6.208825
v 3.328189 1.145000 6.208825
vn 0.9780 -0.0000 -0.2085
vn -0.9780 -0.0000 0.2085
vn -0.0000 1.0000 -0.0000
vn -0.0000 -1.0000 -0.0000
vn 0.2085 -0.0000 0.9780
vn -0.2085 -0.0000 -0.9780
vt 0.000000 1.000000
vt 1.000000 0.000000
vt 0.000000 0.000000
vt 1.000000 1.000000
s 0
usemtl Material_3
f 218/25/37 219/26/37 217/27/37
f 221/28/37 222/26/37 220/25/37
f 224/25/38 225/26/38 223/27/38
f 227/28/38 228/26/38 226/25/38
f 230/25/39 231/26/39 229/27/39
f 233/28/39 234/26/39 232/25/39
f 236/25/40 237/26/40 235/27/40
f 239/28/40 240/26/40 238/25/40
f 242/25/41 243/26/41 241/27/41
f 245/28/41 246/26/41 244/25/41
f 248/25/42 249/26/42 247/27/42
f 251/28/42 252/26/42 250/25/42
o fencePosts_0073
v 5.229581 1.145000 5.967151
v 5.229581 -0.005000 5.967151
v 5.196228 1.145000 5.810666
v 5.229581 -0.005000 5.967151
v 5.196228 -0.005000 5.810666
v 5.196228 1.145000 5.810666
v 5.039743 1.145000 5.844019
v 5.039743 -0.005000 5.844019
v 5.073096 1.145000 6.000504
v 5.039743 -0.005000 5.844019
v 5.073096 -0.005000 6.000504
v 5.073096 1.145000 6.000504
v 5.039743 1.145000 5.844019
v 5.073096 1.145000 6.000504
v 5.196228 1.145000 5.810666
v 5.073096 1.145000 6.000504
v 5.229581 1.145000 5.967151
v 5.196228 1.145000 5.810666
v 5.073096 -0.005000 6.000504
v 5.039743 -0.005000 5.844019
v 5.229581 -0.005000 5.967151
v 5.039743 -0.005000 5.844019
v 5.196228 -0.005000 5.810666
v 5.229581 -0.005000 5.967151
v 5.073096 1.145000 6.000504
v 5.073096 -0.005000 6.000504
v 5.229581 1.145000 5.967151
v 5.073096 -0.005000 6.000504
v 5.229581 -0.005000 5.967151
v 5.229581 1.145000 5.967151
v 5.196228 1.145000 5.810666
v 5.196228 -0.005000 5.810666
v 5.039743 1.145000 5.844019
v 5.196228 -0.005000 5.810666
v 5.039743 -0.005000 5.844019
v 5.039743 1.145000 5.844019
vn 0.9780 -0.0000 -0.2085
vn -0.9780 -0.0000 0.2085
vn -0.0000 1.0000 -0.0000
vn -0.0000 -1.0000 -0.0000
vn 0.2085 -0.0000 0.9780
vn -0.2085 -0.0000 -0.9780
vt 0.000000 1.000000
vt 1.000000 0.000000
vt 0.000000 0.000000
vt 1.000000 1.000000
s 0
usemtl Material_3
f 254/29/43 255/30/43 253/31/43
f 257/32/43 258/30/43 256/29/43
f 260/29/44 261/30/44 259/31/44
f 263/32/44 264/30/44 262/29/44
f 266/29/45 267/30/45 265/31/45
f 269/32/45 270/30/45 268/29/45
f 272/29/46 273/30/46 271/31/46
f 275/32/46 276/30/46 274/29/46
f 278/29/47 279/30/47 277/31/47
f 281/32/47 282/30/47 280/29/47
f 284/29/48 285/30/48 283/31/48
f 287/32/48 288/30/48 286/29/48
o fencePosts_0082
v 6.941135 1.145000 5.602346
v 6.941135 -0.005000 5.602346
v 6.907782 1.145000 5.445861
v 6.941135 -0.005000 5.602346
v 6.907782 -0.005000 5.445861
v 6.907782 1.145000 5.445861
v 6.751297 1.145000 5.479215
v 6.751297 -0.005000 5.479215
v 6.784650 1.145000 5.635700
v 6.751297 -0.005000 5.479215
v 6.784650 -0.005000 5.635700
v 6.784650 1.145000 5.635700
v 6.751297 1.145000 5.479215
v 6.784650 1.145000 5.635700
v 6.907782 1.145000 5.445861
v 6.784650 1.145000 5.635700
v 6.941135 1.145000 5.602346
v 6.907782 1.145000 5.445861
v 6.784650 -0.005000 5.635700
v 6.751297 -0.005000 5.479215
v 6.941135 -0.005000 5.602346
v 6.751297 -0.005000 5.479215
v 6.907782 -0.005000 5.445861
v 6.941135 -0.005000 5.602346
v 6.784650 1.145000 5.635700
v 6.784650 -0.005000 5.635700
v 6.941135 1.145000 5.602346
v 6.784650 -0.005000 5.635700
v 6.941135 -0.005000 5.602346
v 6.941135 1.145000 5.602346
v 6.907782 1.145000 5.445861
v 6.907782 -0.005000 5.445861
v 6.751297 1.145000 5.479215
v 6.907782 -0.005000 5.445861
v 6.751297 -0.005000 5.479215
v 6.751297 1.145000 5.479215
vn 0.9780 -0.0000 -0.2085
vn -0.9780 -0.0000 0.2085
vn -0.0000 1.0000 -0.0000
vn -0.0000 -1.0000 -0.0000
vn 0.2085 -0.0000 0.9780
vn -0.2085 -0.0000 -0.9780
vt 0.000000 1.000000
vt 1.000000 0.000000
vt 0.000000 0.000000
vt 1.000000 1.000000
s 0
usemtl Material_3
f 290/33/49 291/34/49 289/35/49
f 293/36/49 294/34/49 292/33/49
f 296/33/50 297/34/50 295/35/50
f 299/36/50 300/34/50 298/33/50
f 302/33/51 303/34/51 301/35/51
f 305/36/51 306/34/51 304/33/51
f 308/33/52 309/34/52 307/35/52
f 311/36/52 312/34/52 310/33/52
f 314/33/53 315/34/53 313/35/53
f 317/36/53 318/34/53 316/33/53
f 320/33/54 321/34/54 319/35/54
f 323/36/54 324/34/54 322/33/54
o fenceRails_0004
v -5.097704 0.510000 8.147885
v -5.097704 0.390000 8.147885
v -5.122719 0.510000 8.030521
v -5.097704 0.390000 8.147885
v -5.122719 0.390000 8.030521
v -5.122719 0.510000 8.030521
v -6.883175 0.510000 8.405749
v -6.883175 0.390000 8.405749
v -6.858160 0.510000 8.523113
v -6.883175 0.390000 8.405749
v -6.858160 0.390000 8.523113
v -6.858160 0.510000 8.523113
v -6.883175 0.510000 8.405749
v -6.858160 0.510000 8.523113
v -5.122719 0.510000 8.030521
v -6.858160 0.510000 8.523113
v -5.097704 0.510000 8.147885
v -5.122719 0.510000 8.030521
v -6.858160 0.390000 8.523113
v -6.883175 0.390000 8.405749
v -5.097704 0.390000 8.147885
v -6.883175 0.390000 8.405749
v -5.122719 0.390000 8.030521
v -5.097704 0.390000 8.147885
v -6.858160 0.510000 8.523113
v -6.858160 0.390000 8.523113
v -5.097704 0.510000 8.147885
v -6.858160 0.390000 8.523113
v -5.097704 0.390000 8.147885
v -5.097704 0.510000 8.147885
v -5.122719 0.510000 8.030521
v -5.122719 0.390000 8.030521
v -6.883175 0.510000 8.405749
v -5.122719 0.390000 8.030521
v -6.883175 0.390000 8.405749
v -6.883175 0.510000 8.405749
vn 0.9780 -0.0000 -0.2085
vn -0.9780 -0.0000 0.2085
vn -0.0000 1.0000 -0.0000
vn -0.0000 -1.0000 -0.0000
vn 0.2085 -0.0000 0.9780
vn -0.2085 -0.0000 -0.9780
vt 0.000000 1.000000
vt 1.000000 0.000000
vt 0.000000 0.000000
vt 1.000000 1.000000
s 0
usemtl Material_3
f 326/37/55 327/38/55 325/39/55
f 329/40/55 330/38/55 328/37/55
f 332/37/56 333/38/56 331/39/56
f 335/40/56 336/38/56 334/37/56
f 338/37/57 339/38/57 337/39/57
f 341/40/57 342/38/57 340/37/57
f 344/37/58 345/38/58 343/39/58
f 347/40/58 348/38/58 346/37/58
f 350/37/59 351/38/59 349/39/59
f 353/40/59 354/38/59 352/37/59
f 356/37/60 357/38/60 355/39/60
f 359/40/60 360/38/60 358/37/60
o fenceRails_0014
v -5.097704 0.940000 8.147885
v -5.097704 0.820000 8.147885
v -5.122719 0.940000 8.030521
v -5.097704 0.820000 8.147885
v -5.122719 0.820000 8.030521
v -5.122719 0.940000 8.030521
v -6.883175 0.940000 8.405749
v -6.883175 0.820000 8.405749
v -6.858160 0.940000 8.523113
v -6.883175 0.820000 8.405749
v -6.858160 0.820000 8.523113
v -6.858160 0.940000 8.523113
v -6.883175 0.940000 8.405749
v -6.858160 0.940000 8.523113
v -5.122719 0.940000 8.030521
v -6.858160 0.940000 8.523113
v -5.097704 0.940000 8.147885
v -5.122719 0.940000 8.030521
v -6.858160 0.820000 8.523113
v -6.883175 0.820000 8.405749
v -5.097704 0.820000 8.147885
v -6.883175 0.820000 8.405749
v -5.122719 0.820000 8.030521
v -5.097704 0.820000 8.147885
v -6.858160 0.940000 8.523113
v -6.858160 0.820000 8.523113
v -5.097704 0.940000 8.147885
v -6.858160 0.820000 8.523113
v -5.097704 0.820000 8.147885
v -5.097704 0.940000 8.147885
v -5.122719 0.940000 8.030521
v -5.122719 0.820000 8.030521
v -6.883175 0.940000 8.405749
v -5.122719 0.820000 8.030521
v -6.883175 0.820000 8.405749
v -6.883175 0.940000 8.405749
vn 0.9780 -0.0000 -0.2085
vn -0.9780 -0.0000 0.2085
vn -0.0000 1.0000 -0.0000
vn -0.0000 -1.0000 -0.0000
vn 0.2085 -0.0000 0.9780
vn -0.2085 -0.0000 -0.9780
vt 0.000000 1.000000
vt 1.000000 0.000000
vt 0.000000 0.000000
vt 1.000000 1.000000
s 0
usemtl Material_3
f 362/41/61 363/42/61 361/43/61
f 365/44/61 366/42/61 364/41/61
f 368/41/62 369/42/62 367/43/62
f 371/44/62 372/42/62 370/41/62
f 374/41/63 375/42/63 373/43/63
f 377/44/63 378/42/63 376/41/63
f 380/41/64 381/42/64 379/43/64
f 383/44/64 384/42/64 382/41/64
f 386/41/65 387/42/65 385/43/65
f 389/44/65 390/42/65 388/41/65
f 392/41/66 393/42/66 391/43/66
f 395/44/66 396/42/66 394/41/66
o fenceRails_0024
v -3.386150 0.510000 7.783080
v -3.386150 0.390000 7.783080
v -3.411165 0.510000 7.665716
v -3.386150 0.390000 7.783080
v -3.411165 0.390000 7.665716
v -3.411165 0.510000 7.665716
v -5.171621 0.510000 8.040944
v -5.171621 0.390000 8.040944
v -5.146605 0.510000 8.158308
v -5.171621 0.390000 8.040944
v -5.146605 0.390000 8.158308
v -5.146605 0.510000 8.158308
v -5.171621 0.510000 8.040944
v -5.146605 0.510000 8.158308
v -3.411165 0.510000 7.665716
v -5.146605 0.510000 8.158308
v -3.386150 0.510000 7.783080
v -3.411165 0.510000 7.665716
v -5.146605 0.390000 8.158308
v -5.171621 0.390000 8.040944
v -3.386150 0.390000 7.783080
v -5.171621 0.390000 8.040944
v -3.411165 0.390000 7.665716
v -3.386150 0.390000 7.783080
v -5.146605 0.510000 8.158308
v -5.146605 0.390000 8.158308
v -3.386150 0.510000 7.783080
v -5.146605 0.390000 8.158308
v -3.386150 0.390000 7.783080
v -3.386150 0.510000 7.783080
v -3.411165 0.510000 7.665716
v -3.411165 0.390000 7.665716
v -5.171621 0.510000 8.040944
v -3.411165 0.390000 7.665716
v -5.171621 0.390000 8.040944
v -5.171621 0.510000 8.040944
vn 0.9780 -0.0000 -0.2085
vn -0.9780 -0.0000 0.2085
vn -0.0000 1.0000 -0.0000
vn -0.0000 -1.0000 -0.0000
vn 0.2085 -0.0000 0.9780
vn -0.2085 -0.0000 -0.9780
vt 0.000000 1.000000
vt 1.000000 0.000000
vt 0.000000 0.000000
vt 1.000000 1.000000
s 0
usemtl Material_3
f 398/45/67 399/46/67 397/47/67
f 401/48/67 402/46/67 400/45/67
f 404/45/68 405/46/68 403/47/68
f 407/48/68 408/46/68 406/45/68
f 410/45/69 411/46/69 409/47/69
f 413/48/69 414/46/69 412/45/69
f 416/45/70 417/46/70 415/47/70
f 419/48/70 420/46/70 418/45/70
f 422/45/71 423/46/71 421/47/71
f 425/48/71 426/46/71 424/45/71
f 428/45/72 429/46/72 427/47/72
f 431/48/72 432/46/72 430/45/72
o fenceRails_0034
v -3.386150 0.940000 7.783080
v -3.386150 0.820000 7.783080
v -3.411165 0.940000 7.665716
v -3.386150 0.820000 7.783080
v -3.411165 0.820000 7.665716
v -3.411165 0.940000 7.665716
v -5.171621 0.940000 8.040944
v -5.171621 0.820000 8.040944
v -5.146605 0.940000 8.158308
v -5.171621 0.820000 8.040944
v -5.146605 0.820000 8.158308
v -5.146605 0.940000 8.158308
v -5.171621 0.940000 8.040944
v -5.146605 0.940000 8.158308
v -3.411165 0.940000 7.665716
v -5.146605 0.940000 8.158308
v -3.386150 0.940000 7.783080
v -3.411165 0.940000 7.665716
v -5.146605 0.820000 8.158308
v -5.171621 0.820000 8.040944
v -3.386150 0.820000 7.783080
v -5.171621 0.820000 8.040944
v -3.411165 0.820000 7.665716
v -3.386150 0.820000 7.783080
v -5.146605 0.940000 8.158308
v -5.146605 0.820000 8.158308
v -3.386150 0.940000 7.783080
v -5.146605 0.820000 8.158308
v -3.386150 0.820000 7.783080
v -3.386150 0.940000 7.783080
v -3.411165 0.940000 7.665716
v -3.411165 0.820000 7.665716
v -5.171621 0.940000 8.040944
v -3.411165 0.820000 7.665716
v -5.171621 0.820000 8.040944
v -5.171621 0.940000 8.040944
vn 0.9780 -0.0000 -0.2085
vn -0.9780 -0.0000 0.2085
vn -0.0000 1.0000 -0.0000
vn -0.0000 -1.0000 -0.0000
vn 0.2085 -0.0000 0.9780
vn -0.2085 -0.0000 -0.9780
vt 0.000000 1.000000
vt 1.000000 0.000000
vt 0.000000 0.000000
vt 1.000000 1.000000
s 0
usemtl Material_3
f 434/49/73 435/50/73 433/51/73
f 437/52/73 438/50/73 436/49/73
f 440/49/74 441/50/74 439/51/74
f 443/52/74 444/50/74 442/49/74
f 446/49/75 447/50/75 445/51/75
f 449/52/75 450/50/75 448/49/75
f 452/49/76 453/50/76 451/51/76
f 455/52/76 456/50/76 454/49/76
f 458/49/77 459/50/77 457/51/77
f 461/52/77 462/50/77 460/49/77
f 464/49/78 465/50/78 463/51/78
f 467/52/78 468/50/78 466/49/78
o fenceRails_0044
v -1.674596 0.510000 7.418275
v -1.674596 0.390000 7.418275
v -1.699611 0.510000 7.300911
v -1.674596 0.390000 7.418275
v -1.699611 0.390000 7.300911
v -1.699611 0.510000 7.300911
v -3.460067 0.510000 7.676139
v -3.460067 0.390000 7.676139
v -3.435051 0.510000 7.793503
v -3.460067 0.390000 7.676139
v -3.435051 0.390000 7.793503
v -3.435051 0.510000 7.793503
v -3.460067 0.510000 7.676139
v -3.435051 0.510000 7.793503
v -1.699611 0.510000 7.300911
v -3.435051 0.510000 7.793503
v -1.674596 0.510000 7.418275
v -1.699611 0.510000 7.300911
v -3.435051 0.390000 7.793503
v -3.460067 0.390000 7.676139
v -1.674596 0.390000 7.418275
v -3.460067 0.390000 7.676139
v -1.699611 0.390000 7.300911
v -1.674596 0.390000 7.418275
v -3.435051 0.510000 7.793503
v -3.435051 0.390000 7.793503
v -1.674596 0.510000 7.418275
v -3.435051 0.390000 7.793503
v -1.674596 0.390000 7.418275
v -1.674596 0.510000 7.418275
v -1.699611 0.510000 7.300911
v -1.699611 0.390000 7.300911
v -3.460067 0.510000 7.676139
v -1.699611 0.390000 7.300911
v -3.460067 0.390000 7.676139
v -3.460067 0.510000 7.676139
vn 0.9780 -0.0000 -0.2085
vn -0.9780 -0.0000 0.2085
vn -0.0000 1.0000 -0.0000
vn -0.0000 -1.0000 -0.0000
vn 0.2085 -0.0000 0.9780
vn -0.2085 -0.0000 -0.9780
vt 0.000000 1.000000
vt 1.000000 0.000000
vt 0.000000 0.000000
vt 1.000000 1.000000
s 0
usemtl Material_3
f 470/53/79 471/54/79 469/55/79
f 473/56/79 474/54/79 472/53/79
f 476/53/80 477/54/80 475/55/80
f 479/56/80 480/54/80 478/53/80
f 482/53/81 483/54/81 481/55/81
f 485/56/81 486/54/81 484/53/81
f 488/53/82 489/54/82 487/55/82
f 491/56/82 492/54/82 490/53/82
f 494/53/83 495/54/83 493/55/83
f 497/56/83 498/54/83 496/53/83
f 500/53/84 501/54/84 499/55/84
f 503/56/84 504/54/84 502/53/84
o fenceRails_0054
v -1.674596 0.940000 7.418275
v -1.674596 0.820000 7.418275
v -1.699611 0.940000 7.300911
v -1.674596 0.820000 7.418275
v -1.699611 0.820000 7.300911
v -1.699611 0.940000 7.300911
v -3.460067 0.940000 7.676139
v -3.460067 0.820000 7.676139
v -3.435051 0.940000 7.793503
v -3.460067 0.820000 7.676139
v -3.435051 0.820000 7.793503
v -3.435051 0.940000 7.793503
v -3.460067 0.940000 7.676139
v -3.435051 0.940000 7.793503
v -1.699611 0.940000 7.300911
v -3.435051 0.940000 7.793503
v -1.674596 0.940000 7.418275
v -1.699611 0.940000 7.300911
v -3.435051 0.820000 7.793503
v -3.460067 0.820000 7.676139
v -1.674596 0.820000 7.418275
v -3.460067 0.820000 7.676139
v -1.699611 0.820000 7.300911
v -1.674596 0.820000 7.418275
v -3.435051 0.940000 7.793503
v -3.435051 0.820000 7.793503
v -1.674596 0.940000 7.418275
v -3.435051 0.820000 7.793503
v -1.674596 0.820000 7.418275
v -1.674596 0.940000 7.418275
v -1.699611 0.940000 7.300911
v -1.699611 0.820000 7.300911
v -3.460067 0.940000 7.676139
v -1.699611 0.820000 7.300911
v -3.460067 0.820000 7.676139
v -3.460067 0.940000 7.676139
vn 0.9780 -0.0000 -0.2085
vn -0.9780 -0.0000 0.2085
vn -0.0000 1.0000 -0.0000
vn -0.0000 -1.0000 -0.0000
vn 0.2085 -0.0000 0.9780
vn -0.2085 -0.0000 -0.9780
vt 0.000000 1.000000
vt 1.000000 0.000000
vt 0.000000 0.000000
vt 1.000000 1.000000
s 0
usemtl Material_3
f 506/57/85 507/58/85 505/59/85
f 509/60/85 510/58/85 508/57/85
f 512/57/86 513/58/86 511/59/86
f 515/60/86 516/58/86 514/57/86
f 518/57/87 519/58/87 517/59/87
f 521/60/87 522/58/87 520/57/87
f 524/57/88 525/58/88 523/59/88
f 527/60/88 528/58/88 526/57/88
f 530/57/89 531/58/89 529/59/89
f 533/60/89 534/58/89 532/57/89
f 536/57/90 537/58/90 535/59/90
f 539/60/90 540/58/90 538/57/90
o fenceRails_0064
v 0.036958 0.510000 7.053471
v 0.036958 0.390000 7.053471
v 0.011943 0.510000 6.936107
v 0.036958 0.390000 7.053471
v 0.011943 0.390000 6.936107
v 0.011943 0.510000 6.936107
v -1.748513 0.510000 7.311335
v -1.748513 0.390000 7.311335
v -1.723497 0.510000 7.428699
v -1.748513 0.390000 7.311335
v -1.723497 0.390000 7.428699
v -1.723497 0.510000 7.428699
v -1.748513 0.510000 7.311335
v -1.723497 0.510000 7.428699
v 0.011943 0.510000 6.936107
v -1.723497 0.510000 7.428699
v 0.036958 0.510000 7.053471
v 0.011943 0.510000 6.936107
v -1.723497 0.390000 7.428699
v -1.748513 0.390000 7.311335
v 0.036958 0.390000 7.053471
v -1.748513 0.390000 7.311335
v 0.011943 0.390000 6.936107
v 0.036958 0.390000 7.053471
v -1.723497 0.510000 7.428699
v -1.723497 0.390000 7.428699
v 0.036958 0.510000 7.053471
v -1.723497 0.390000 7.428699
v 0.036958 0.390000 7.053471
v 0.036958 0.510000 7.053471
v 0.011943 0.510000 6.936107
v 0.011943 0.390000 6.936107
v -1.748513 0.510000 7.311335
v 0.011943 0.390000 6.936107
v -1.748513 0.390000 7.311335
v -1.748513 0.510000 7.311335
vn 0.9780 -0.0000 -0.2085
vn -0.9780 -0.0000 0.2085
vn -0.0000 1.0000 -0.0000
vn -0.0000 -1.0000 -0.0000
vn 0.2085 -0.0000 0.9780
vn -0.2085 -0.0000 -0.9780
vt 0.000000 1.000000
vt 1.000000 0.000000
vt 0.000000 0.000000
vt 1.000000 1.000000
s 0
usemtl Material_3
f 542/61/91 543/62/91 541/63/91
f 545/64/91 546/62/91 544/61/91
f 548/61/92 549/62/92 547/63/92
f 551/64/92 552/62/92 550/61/92
f 554/61/93 555/62/93 553/63/93
f 557/64/93 558/62/93 556/61/93
f 560/61/94 561/62/94 559/63/94
f 563/64/94 564/62/94 562/61/94
f 566/61/95 567/62/95 565/63/95
f 569/64/95 570/62/95 568/61/95
f 572/61/96 573/62/96 571/63/96
f 575/64/96 576/62/96 574/61/96
o fenceRails_0074
v 0.036958 0.940000 7.053471
v 0.036958 0.820000 7.053471
v 0.011943 0.940000 6.936107
v 0.036958 0.820000 7.053471
v 0.011943 0.820000 6.936107
v 0.011943 0.940000 6.936107
v -1.748513 0.940000 7.311335
v -1.748513 0.820000 7.311335
v -1.723497 0.940000 7.428699
v -1.748513 0.820000 7.311335
v -1.723497 0.820000 7.428699
v -1.723497 0.940000 7.428699
v -1.748513 0.940000 7.311335
v -1.723497 0.940000 7.428699
v 0.011943 0.940000 6.936107
v -1.723497 0.940000 7.428699
v 0.036958 0.940000 7.053471
v 0.011943 0.940000 6.936107
v -1.723497 0.820000 7.428699
v -1.748513 0.820000 7.311335
v 0.036958 0.820000 7.053471
v -1.748513 0.820000 7.311335
v 0.011943 0.820000 6.936107
v 0.036958 0.820000 7.053471
v -1.723497 0.940000 7.428699
v -1.723497 0.820000 7.428699
v 0.036958 0.940000 7.053471
v -1.723497 0.820000 7.428699
v 0.036958 0.820000 7.053471
v 0.036958 0.940000 7.053471
v 0.011943 0.940000 6.936107
v 0.011943 0.820000 6.936107
v -1.748513 0.940000 7.311335
v 0.011943 0.820000 6.936107
v -1.748513 0.820000 7.311335
v -1.748513 0.940000 7.311335
vn 0.9780 -0.0000 -0.2085
vn -0.9780 -0.0000 0.2085
vn -0.0000 1.0000 -0.0000
vn -0.0000 -1.0000 -0.0000
vn 0.2085 -0.0000 0.9780
vn -0.2085 -0.0000 -0.9780
vt 0.000000 1.000000
vt 1.000000 0.000000
vt 0.000000 0.000000
vt 1.000000 1.000000
s 0
usemtl Material_3
f 578/65/97 579/66/97 577/67/97
f 581/68/97 582/66/97 580/65/97
f 584/65/98 585/66/98 583/67/98
f 587/68/98 588/66/98 586/65/98
f 590/65/99 591/66/99 589/67/99
f 593/68/99 594/66/99 592/65/99
f 596/65/100 597/66/100 595/67/100
f 599/68/100 600/66/100 598/65/100
f 602/65/101 603/66/101 601/67/101
f 605/68/101 606/66/101 604/65/101
f 608/65/102 609/66/102 607/67/102
f 611/68/102 612/66/102 610/65/102
o fenceRails_0084
v 1.748513 0.510000 6.688665
v 1.748513 0.390000 6.688665
v 1.723497 0.510000 6.571301
v 1.748513 0.390000 6.688665
v 1.723497 0.390000 6.571301
v 1.723497 0.510000 6.571301
v -0.036958 0.510000 6.946529
v -0.036958 0.390000 6.946529
v -0.011943 0.510000 7.063893
v -0.036958 0.390000 6.946529
v -0.011943 0.390000 7.063893
v -0.011943 0.510000 7.063893
v -0.036958 0.510000 6.946529
v -0.011943 0.510000 7.063893
v 1.723497 0.510000 6.571301
v -0.011943 0.510000 7.063893
v 1.748513 0.510000 6.688665
v 1.723497 0.510000 6.571301
v -0.011943 0.390000 7.063893
v -0.036958 0.390000 6.946529
v 1.748513 0.390000 6.688665
v -0.036958 0.390000 6.946529
v 1.723497 0.390000 6.571301
v 1.748513 0.390000 6.688665
v -0.011943 0.510000 7.063893
v -0.011943 0.390000 7.063893
v 1.748513 0.510000 6.688665
v -0.011943 0.390000 7.063893
v 1.748513 0.390000 6.688665
v 1.748513 0.510000 6.688665
v 1.723497 0.510000 6.571301
v 1.723497 0.390000 6.571301
v -0.036958 0.510000 6.946529
v 1.723497 0.390000 6.571301
v -0.036958 0.390000 6.946529
v -0.036958 0.510000 6.946529
vn 0.9780 -0.0000 -0.2085
vn -0.9780 -0.0000 0.2085
vn -0.0000 1.0000 -0.0000
vn -0.0000 -1.0000 -0.0000
vn 0.2085 -0.0000 0.9780
vn -0.2085 -0.0000 -0.9780
vt 0.000000 1.000000
vt 1.000000 0.000000
vt 0.000000 0.000000
vt 1.000000 1.000000
s 0
usemtl Material_3
f 614/69/103 615/70/103 613/71/103
f 617/72/103 618/70/103 616/69/103
f 620/69/104 621/70/104 619/71/104
f 623/72/104 624/70/104 622/69/104
f 626/69/105 627/70/105 625/71/105
f 629/72/105 630/70/105 628/69/105
f 632/69/106 633/70/106 631/71/106
f 635/72/106 636/70/106 634/69/106
f 638/69/107 639/70/107 637/71/107
f 641/72/107 642/70/107 640/69/107
f 644/69/108 645/70/108 643/71/108
f 647/72/108 648/70/108 646/69/108
o fenceRails_0094
v 1.748513 0.940000 6.688665
v 1.748513 0.820000 6.688665
v 1.723497 0.940000 6.571301
v 1.748513 0.820000 6.688665
v 1.723497 0.820000 6.571301
v 1.723497 0.940000 6.571301
v -0.036958 0.940000 6.946529
v -0.036958 0.820000 6.946529
v -0.011943 0.940000 7.063893
v -0.036958 0.820000 6.946529
v -0.011943 0.820000 7.063893
v -0.011943 0.940000 7.063893
v -0.036958 0.940000 6.946529
v -0.011943 0.940000 7.063893
v 1.723497 0.940000 6.571301
v -0.011943 0.940000 7.063893
v 1.748513 0.940000 6.688665
v 1.723497 0.940000 6.571301
v -0.011943 0.820000 7.063893
v -0.036958 0.820000 6.946529
v 1.748513 0.820000 6.688665
v -0.036958 0.820000 6.946529
v 1.723497 0.820000 6.571301
v 1.748513 0.820000 6.688665
v -0.011943 0.940000 7.063893
v -0.011943 0.820000 7.063893
v 1.748513 0.940000 6.688665
v -0.011943 0.820000 7.063893
v 1.748513 0.820000 6.688665
v 1.748513 0.940000 6.688665
v 1.723497 0.940000 6.571301
v 1.723497 0.820000 6.571301
v -0.036958 0.940000 6.946529
v 1.723497 0.820000 6.571301
v -0.036958 0.820000 6.946529
v -0.036958 0.940000 6.946529
vn 0.9780 -0.0000 -0.2085
vn -0.9780 -0.0000 0.2085
vn -0.0000 1.0000 -0.0000
vn -0.0000 -1.0000 -0.0000
vn 0.2085 -0.0000 0.9780
vn -0.2085 -0.0000 -0.9780
vt 0.000000 1.000000
vt 1.000000 0.000000
vt 0.000000 0.000000
vt 1.000000 1.000000
s 0
usemtl Material_3
f 650/73/109 651/74/109 649/75/109
f 653/76/109 654/74/109 652/73/109
f 656/73/110 657/74/110 655/75/110
f 659/76/110 660/74/110 658/73/110
f 662/73/111 663/74/111 661/75/111
f 665/76/111 666/74/111 664/73/111
f 668/73/112 669/74/112 667/75/112
f 671/76/112 672/74/112 670/73/112
f 674/73/113 675/74/113 673/75/113
f 677/76/113 678/74/113 676/73/113
f 680/73/114 681/74/114 679/75/114
f 683/76/114 684/74/114 682/73/114
o fenceRails_0103
v 3.460067 0.510000 6.323861
v 3.460067 0.390000 6.323861
v 3.435051 0.510000 6.206497
v 3.460067 0.390000 6.323861
v 3.435051 0.390000 6.206497
v 3.435051 0.510000 6.206497
v 1.674596 0.510000 6.581725
v 1.674596 0.390000 6.581725
v 1.699611 0.510000 6.699089
v 1.674596 0.390000 6.581725
v 1.699611 0.390000 6.699089
v 1.699611 0.510000 6.699089
v 1.674596 0.510000 6.581725
v 1.699611 0.510000 6.699089
v 3.435051 0.510000 6.206497
v 1.699611 0.510000 6.699089
v 3.460067 0.510000 6.323861
v 3.435051 0.510000 6.206497
v 1.699611 0.390000 6.699089
v 1.674596 0.390000 6.581725
v 3.460067 0.390000 6.323861
v 1.674596 0.390000 6.581725
v 3.435051 0.390000 6.206497
v 3.460067 0.390000 6.323861
v 1.699611 0.510000 6.699089
v 1.699611 0.390000 6.699089
v 3.460067 0.510000 6.323861
v 1.699611 0.390000 6.699089
v 3.460067 0.390000 6.323861
v 3.460067 0.510000 6.323861
v 3.435051 0.510000 6.206497
v 3.435051 0.390000 6.206497
v 1.674596 0.510000 6.581725
v 3.435051 0.390000 6.206497
v 1.674596 0.390000 6.581725
v 1.674596 0.510000 6.581725
vn 0.9780 -0.0000 -0.2085
vn -0.9780 -0.0000 0.2085
vn -0.0000 1.0000 -0.0000
vn -0.0000 -1.0000 -0.0000
vn 0.2085 -0.0000 0.9780
vn -0.2085 -0.0000 -0.9780
vt 0.000000 1.000000
vt 1.000000 0.000000
vt 0.000000 0.000000
vt 1.000000 1.000000
s 0
usemtl Material_3
f 686/77/115 687/78/115 685/79/115
f 689/80/115 690/78/115 688/77/115
f 692/77/116 693/78/116 691/79/116
f 695/80/116 696/78/116 694/77/116
f 698/77/117 699/78/117 697/79/117
f 701/80/117 702/78/117 700/77/117
f 704/77/118 705/78/118 703/79/118
f 707/80/118 708/78/118 706/77/118
f 710/77/119 711/78/119 709/79/119
f 713/80/119 714/78/119 712/77/119
f 716/77/120 717/78/120 715/79/120
f 719/80/120 720/78/120 718/77/120
o fenceRails_0113
v 3.460067 0.940000 6.323861
v 3.460067 0.820000 6.323861
v 3.435051 0.940000 6.206497
v 3.460067 0.820000 6.323861
v 3.435051 0.820000 6.206497
v 3.435051 0.940000 6.206497
v 1.674596 0.940000 6.581725
v 1.674596 0.820000 6.581725
v 1.699611 0.940000 6.699089
v 1.674596 0.820000 6.581725
v 1.699611 0.820000 6.699089
v 1.699611 0.940000 6.699089
v 1.674596 0.940000 6.581725
v 1.699611 0.940000 6.699089
v 3.435051 0.940000 6.206497
v 1.699611 0.940000 6.699089
v 3.460067 0.940000 6.323861
v 3.435051 0.940000 6.206497
v 1.699611 0.820000 6.699089
v 1.674596 0.820000 6.581725
v 3.460067 0.820000 6.323861
v 1.674596 0.820000 6.581725
v 3.435051 0.820000 6.206497
v 3.460067 0.820000 6.323861
v 1.699611 0.940000 6.699089
v 1.699611 0.820000 6.699089
v 3.460067 0.940000 6.323861
v 1.699611 0.820000 6.699089
v 3.460067 0.820000 6.323861
v 3.460067 0.940000 6.323861
v 3.435051 0.940000 6.206497
v 3.435051 0.820000 6.206497
v 1.674596 0.940000 6.581725
v 3.435051 0.820000 6.206497
v 1.674596 0.820000 6.581725
v 1.674596 0.940000 6.581725
vn 0.9780 -0.0000 -0.2085
vn -0.9780 -0.0000 0.2085
vn -0.0000 1.0000 -0.0000
vn -0.0000 -1.0000 -0.0000
vn 0.2085 -0.0000 0.9780
vn -0.2085 -0.0000 -0.9780
vt 0.000000 1.000000
vt 1.000000 0.000000
vt 0.000000 0.000000
vt 1.000000 1.000000
s 0
usemtl Material_3
f 722/81/121 723/82/121 721/83/121
f 725/84/121 726/82/121 724/81/121
f 728/81/122 729/82/122 727/83/122
f 731/84/122 732/82/122 730/81/122
f 734/81/123 735/82/123 733/83/123
f 737/84/123 738/82/123 736/81/123
f 740/81/124 741/82/124 739/83/124
f 743/84/124 744/82/124 742/81/124
f 746/81/125 747/82/125 745/83/125
f 749/84/125 750/82/125 748/81/125
f 752/81/126 753/82/126 751/83/126
f 755/84/126 756/82/126 754/81/126
o fenceRails_0123
v 5.171621 0.510000 5.959056
v 5.171621 0.390000 5.959056
v 5.146605 0.510000 5.841692
v 5.171621 0.390000 5.959056
v 5.146605 0.390000 5.841692
v 5.146605 0.510000 5.841692
v 3.386150 0.510000 6.216920
v 3.386150 0.390000 6.216920
v 3.411165 0.510000 6.334284
v 3.386150 0.390000 6.216920
v 3.411165 0.390000 6.334284
v 3.411165 0.510000 6.334284
v 3.386150 0.510000 6.216920
v 3.411165 0.510000 6.334284
v 5.146605 0.510000 5.841692
v 3.411165 0.510000 6.334284
v 5.171621 0.510000 5.959056
v 5.146605 0.510000 5.841692
v 3.411165 0.390000 6.334284
v 3.386150 0.390000 6.216920
v 5.171621 0.390000 5.959056
v 3.386150 0.390000 6.216920
v 5.146605 0.390000 5.841692
v 5.171621 0.390000 5.959056
v 3.411165 0.510000 6.334284
v 3.411165 0.390000 6.334284
v 5.171621 0.510000 5.959056
v 3.411165 0.390000 6.334284
v 5.171621 0.390000 5.959056
v 5.171621 0.510000 5.959056
v 5.146605 0.510000 5.841692
v 5.146605 0.390000 5.841692
v 3.386150 0.510000 6.216920
v 5.146605 0.390000 5.841692
v 3.386150 0.390000 6.216920
v 3.386150 0.510000 6.216920
vn 0.9780 -0.0000 -0.2085
vn -0.9780 -0.0000 0.2085
vn -0.0000 1.0000 -0.0000
vn -0.0000 -1.0000 -0.0000
vn 0.2085 -0.0000 0.9780
vn -0.2085 -0.0000 -0.9780
vt 0.000000 1.000000
vt 1.000000 0.000000
vt 0.000000 0.000000
vt 1.000000 1.000000
s 0
usemtl Material_3
f 758/85/127 759/86/127 757/87/127
f 761/88/127 762/86/127 760/85/127
f 764/85/128 765/86/128 763/87/128
f 767/88/128 768/86/128 766/85/128
f 770/85/129 771/86/129 769/87/129
f 773/88/129 774/86/129 772/85/129
f 776/85/130 777/86/130 775/87/130
f 779/88/130 780/86/130 778/85/130
f 782/85/131 783/86/131 781/87/131
f 785/88/131 786/86/131 784/85/131
f 788/85/132 789/86/132 787/87/132
f 791/88/132 792/86/132 790/85/132
o fenceRails_0133
v 5.171621 0.940000 5.959056
v 5.171621 0.820000 5.959056
v 5.146605 0.940000 5.841692
v 5.171621 0.820000 5.959056
v 5.146605 0.820000 5.841692
v 5.146605 0.940000 5.841692
v 3.386150 0.940000 6.216920
v 3.386150 0.820000 6.216920
v 3.411165 0.940000 6.334284
v 3.386150 0.820000 6.216920
v 3.411165 0.820000 6.334284
v 3.411165 0.940000 6.334284
v 3.386150 0.940000 6.216920
v 3.411165 0.940000 6.334284
v 5.146605 0.940000 5.841692
v 3.411165 0.940000 6.334284
v 5.171621 0.940000 5.959056
v 5.146605 0.940000 5.841692
v 3.411165 0.820000 6.334284
v 3.386150 0.820000 6.216920
v 5.171621 0.820000 5.959056
v 3.386150 0.820000 6.216920
v 5.146605 0.820000 5.841692
v 5.171621 0.820000 5.959056
v 3.411165 0.940000 6.334284
v 3.411165 0.820000 6.334284
v 5.171621 0.940000 5.959056
v 3.411165 0.820000 6.334284
v 5.171621 0.820000 5.959056
v 5.171621 0.940000 5.959056
v 5.146605 0.940000 5.841692
v 5.146605 0.820000 5.841692
v 3.386150 0.940000 6.216920
v 5.146605 0.820000 5.841692
v 3.386150 0.820000 6.216920
v 3.386150 0.940000 6.216920
vn 0.9780 -0.0000 -0.2085
vn -0.9780 -0.0000 0.2085
vn -0.0000 1.0000 -0.0000
vn -0.0000 -1.0000 -0.0000
vn 0.2085 -0.0000 0.9780
vn -0.2085 -0.0000 -0.9780
vt 0.000000 1.000000
vt 1.000000 0.000000
vt 0.000000 0.000000
vt 1.000000 1.000000
s 0
usemtl Material_3
f 794/89/133 795/90/133 793/91/133
f 797/92/133 798/90/133 796/89/133
f 800/89/134 801/90/134 799/91/134
f 803/92/134 804/90/134 802/89/134
f 806/89/135 807/90/135 805/91/135
f 809/92/135 810/90/135 808/89/135
f 812/89/136 813/90/136 811/91/136
f 815/92/136 816/90/136 814/89/136
f 818/89/137 819/90/137 817/91/137
f 821/92/137 822/90/137 820/89/137
f 824/89/138 825/90/138 823/91/138
f 827/92/138 828/90/138 826/89/138
o fenceRails_0142
v 6.883175 0.510000 5.594251
v 6.883175 0.390000 5.594251
v 6.858160 0.510000 5.476887
v 6.883175 0.390000 5.594251
v 6.858160 0.390000 5.476887
v 6.858160 0.510000 5.476887
v 5.097704 0.510000 5.852115
v 5.097704 0.390000 5.852115
v 5.122719 0.510000 5.969479
v 5.097704 0.390000 5.852115
v 5.122719 0.390000 5.969479
v 5.122719 0.510000 5.969479
v 5.097704 0.510000 5.852115
v 5.122719 0.510000 5.969479
v 6.858160 0.510000 5.476887
v 5.122719 0.510000 5.969479
v 6.883175 0.510000 5.594251
v 6.858160 0.510000 5.476887
v 5.122719 0.390000 5.969479
v 5.097704 0.390000 5.852115
v 6.883175 0.390000 5.594251
v 5.097704 0.390000 5.852115
v 6.858160 0.390000 5.476887
v 6.883175 0.390000 5.594251
v 5.122719 0.510000 5.969479
v 5.122719 0.390000 5.969479
v 6.883175 0.510000 5.594251
v 5.122719 0.390000 5.969479
v 6.883175 0.390000 5.594251
v 6.883175 0.510000 5.594251
v 6.858160 0.510000 5.476887
v 6.858160 0.390000 5.476887
v 5.097704 0.510000 5.852115
v 6.858160 0.390000 5.476887
v 5.097704 0.390000 5.852115
v 5.097704 0.510000 5.852115
vn 0.9780 -0.0000 -0.2085
vn -0.9780 -0.0000 0.2085
vn -0.0000 1.0000 -0.0000
vn -0.0000 -1.0000 -0.0000
vn 0.2085 -0.0000 0.9780
vn -0.2085 -0.0000 -0.9780
vt 0.000000 1.000000
vt 1.000000 0.000000
vt 0.000000 0.000000
vt 1.000000 1.000000
s 0
usemtl Material_3
f 830/93/139 831/94/139 829/95/139
f 833/96/139 834/94/139 832/93/139
f 836/93/140 837/94/140 835/95/140
f 839/96/140 840/94/140 838/93/140
f 842/93/141 843/94/141 841/95/141
f 845/96/141 846/94/141 844/93/141
f 848/93/142 849/94/142 847/95/142
f 851/96/142 852/94/142 850/93/142
f 854/93/143 855/94/143 853/95/143
f 857/96/143 858/94/143 856/93/143
f 860/93/144 861/94/144 859/95/144
f 863/96/144 864/94/144 862/93/144
o fenceRails_0152
v 6.883175 0.940000 5.594251
v 6.883175 0.820000 5.594251
v 6.858160 0.940000 5.476887
v 6.883175 0.820000 5.594251
v 6.858160 0.820000 5.476887
v 6.858160 0.940000 5.476887
v 5.097704 0.940000 5.852115
v 5.097704 0.820000 5.852115
v 5.122719 0.940000 5.969479
v 5.097704 0.820000 5.852115
v 5.122719 0.820000 5.969479
v 5.122719 0.940000 5.969479
v 5.097704 0.940000 5.852115
v 5.122719 0.940000 5.969479
v 6.858160 0.940000 5.476887
v 5.122719 0.940000 5.969479
v 6.883175 0.940000 5.594251
v 6.858160 0.940000 5.476887
v 5.122719 0.820000 5.969479
v 5.097704 0.820000 5.852115
v 6.883175 0.820000 5.594251
v 5.097704 0.820000 5.852115
v 6.858160 0.820000 5.476887
v 6.883175 0.820000 5.594251
v 5.122719 0.940000 5.969479
v 5.122719 0.820000 5.969479
v 6.883175 0.940000 5.594251
v 5.122719 0.820000 5.969479
v 6.883175 0.820000 5.594251
v 6.883175 0.940000 5.594251
v 6.858160 0.940000 5.476887
v 6.858160 0.820000 5.476887
v 5.097704 0.940000 5.852115
v 6.858160 0.820000 5.476887
v 5.097704 0.820000 5.852115
v 5.097704 0.940000 5.852115
vn 0.9780 -0.0000 -0.2085
vn -0.9780 -0.0000 0.2085
vn -0.0000 1.0000 -0.0000
vn -0.0000 -1.0000 -0.0000
vn 0.2085 -0.0000 0.9780
vn -0.2085 -0.0000 -0.9780
vt 0.000000 1.000000
vt 1.000000 0.000000
vt 0.000000 0.000000
vt 1.000000 1.000000
s 0
usemtl Material_3
f 866/97/145 867/98/145 865/99/145
f 869/100/145 870/98/145 868/97/145
f 872/97/146 873/98/146 871/99/146
f 875/100/146 876/98/146 874/97/146
f 878/97/147 879/98/147 877/99/147
f 881/100/147 882/98/147 880/97/147
f 884/97/148 885/98/148 883/99/148
f 887/100/148 888/98/148 886/97/148
f 890/97/149 891/98/149 889/99/149
f 893/100/149 894/98/149 892/97/149
f 896/97/150 897/98/150 895/99/150
f 899/100/150 900/98/150 898/97/150
o ironStructure_0007
v -0.519584 8.400000 -3.876859
v -0.519584 0.000000 -3.876859
v -0.644660 8.400000 -4.463677
v -0.519584 0.000000 -3.876859
v -0.644660 0.000000 -4.463677
v -0.644660 8.400000 -4.463677
v -1.231479 8.400000 -4.338601
v -1.231479 0.000000 -4.338601
v -1.106403 8.400000 -3.751783
v -1.231479 0.000000 -4.338601
v -1.106403 0.000000 -3.751783
v -1.106403 8.400000 -3.751783
v -1.231479 8.400000 -4.338601
v -1.106403 8.400000 -3.751783
v -0.644660 8.400000 -4.463677
v -1.106403 8.400000 -3.751783
v -0.519584 8.400000 -3.876859
v -0.644660 8.400000 -4.463677
v -1.106403 0.000000 -3.751783
v -1.231479 0.000000 -4.338601
v -0.519584 0.000000 -3.876859
v -1.231479 0.000000 -4.338601
v -0.644660 0.000000 -4.463677
v -0.519584 0.000000 -3.876859
v -1.106403 8.400000 -3.751783
v -1.106403 0.000000 -3.751783
v -0.519584 8.400000 -3.876859
v -1.106403 0.000000 -3.751783
v -0.519584 0.000000 -3.876859
v -0.519584 8.400000 -3.876859
v -0.644660 8.400000 -4.463677
v -0.644660 0.000000 -4.463677
v -1.231479 8.400000 -4.338601
v -0.644660 0.000000 -4.463677
v -1.231479 0.000000 -4.338601
v -1.231479 8.400000 -4.338601
vn 0.9780 -0.0000 -0.2085
vn -0.9780 -0.0000 0.2085
vn -0.0000 1.0000 -0.0000
vn -0.0000 -1.0000 -0.0000
vn 0.2085 -0.0000 0.9780
vn -0.2085 -0.0000 -0.9780
vt 0.000000 1.000000
vt 1.000000 0.000000
vt 0.000000 0.000000
vt 1.000000 1.000000
s 0
usemtl Material_2
f 902/101/151 903/102/151 901/103/151
f 905/104/151 906/102/151 904/101/151
f 908/101/152 909/102/152 907/103/152
f 911/104/152 912/102/152 910/101/152
f 914/101/153 915/102/153 913/103/153
f 917/104/153 918/102/153 916/101/153
f 920/101/154 921/102/154 919/103/154
f 923/104/154 924/102/154 922/101/154
f 926/101/155 927/102/155 925/103/155
f 929/104/155 930/102/155 928/101/155
f 932/101/156 933/102/156 931/103/156
f 935/104/156 936/102/156 934/101/156
o metalStructure_0007
v 1.410420 6.950000 -4.416032
v 1.410420 6.650000 -4.416032
v 1.337459 6.950000 -4.758343
v 1.410420 6.650000 -4.416032
v 1.337459 6.650000 -4.758343
v 1.337459 6.950000 -4.758343
v -3.161483 6.950000 -3.799428
v -3.161483 6.650000 -3.799428
v -3.088522 6.950000 -3.457117
v -3.161483 6.650000 -3.799428
v -3.088522 6.650000 -3.457117
v -3.088522 6.950000 -3.457117
v -3.161483 6.950000 -3.799428
v -3.088522 6.950000 -3.457117
v 1.337459 6.950000 -4.758343
v -3.088522 6.950000 -3.457117
v 1.410420 6.950000 -4.416032
v 1.337459 6.950000 -4.758343
v -3.088522 6.650000 -3.457117
v -3.161483 6.650000 -3.799428
v 1.410420 6.650000 -4.416032
v -3.161483 6.650000 -3.799428
v 1.337459 6.650000 -4.758343
v 1.410420 6.650000 -4.416032
v -3.088522 6.950000 -3.457117
v -3.088522 6.650000 -3.457117
v 1.410420 6.950000 -4.416032
v -3.088522 6.650000 -3.457117
v 1.410420 6.650000 -4.416032
v 1.410420 6.950000 -4.416032
v 1.337459 6.950000 -4.758343
v 1.337459 6.650000 -4.758343
v -3.161483 6.950000 -3.799428
v 1.337459 6.650000 -4.758343
v -3.161483 6.650000 -3.799428
v -3.161483 6.950000 -3.799428
vn 0.9780 -0.0000 -0.2085
vn -0.9780 -0.0000 0.2085
vn -0.0000 1.0000 -0.0000
vn -0.0000 -1.0000 -0.0000
vn 0.2085 -0.0000 0.9780
vn -0.2085 -0.0000 -0.9780
vt 0.000000 1.000000
vt 1.000000 0.000000
vt 0.000000 0.000000
vt 1.000000 1.000000
s 0
usemtl Material_2
f 938/105/157 939/106/157 937/107/157
f 941/108/157 942/106/157 940/105/157
f 944/105/158 945/106/158 943/107/158
f 947/108/158 948/106/158 946/105/158
f 950/105/159 951/106/159 949/107/159
f 953/108/159 954/106/159 952/105/159
f 956/105/160 957/106/160 955/107/160
f 959/108/160 960/106/160 958/105/160
f 962/105/161 963/106/161 961/107/161
f 965/108/161 966/106/161 964/105/161
f 968/105/162 969/106/162 967/107/162
f 971/108/162 972/106/162 970/105/162
o tankInstances_0003
v -3.238991 3.917880 0.154308
v -3.238991 -0.244907 0.154308
v -2.507115 3.917880 -0.383729
v -3.238991 -0.244907 0.154308
v -2.507115 -0.244907 -0.383729
v -2.507115 3.917880 -0.383729
v -2.507115 3.917880 -0.383729
v -2.507115 -0.244907 -0.383729
v -2.359743 3.917880 -1.337471
v -2.507115 -0.244907 -0.383729
v -2.359743 -0.244907 -1.337471
v -2.359743 3.917880 -1.337471
v -2.359743 3.917880 -1.337471
v -2.359743 -0.244907 -1.337471
v -2.883205 3.917880 -2.148230
v -2.359743 -0.244907 -1.337471
v -2.883205 -0.244907 -2.148230
v -2.883205 3.917880 -2.148230
v -2.883205 3.917880 -2.148230
v -2.883205 -0.244907 -2.148230
v -3.770863 3.917880 -2.341076
v -2.883205 -0.244907 -2.148230
v -3.770863 -0.244907 -2.341076
v -3.770863 3.917880 -2.341076
v -3.770863 3.917880 -2.341076
v -3.770863 -0.244907 -2.341076
v -4.502738 3.917880 -1.803039
v -3.770863 -0.244907 -2.341076
v -4.502738 -0.244907 -1.803039
v -4.502738 3.917880 -1.803039
v -4.502738 3.917880 -1.803039
v -4.502738 -0.244907 -1.803039
v -4.650110 3.917880 -0.849297
v -4.502738 -0.244907 -1.803039
v -4.650110 -0.244907 -0.849297
v -4.650110 3.917880 -0.849297
v -4.650110 3.917880 -0.849297
v -4.650110 -0.244907 -0.849297
v -4.126648 3.917880 -0.038538
v -4.650110 -0.244907 -0.849297
v -4.126648 -0.244907 -0.038538
v -4.126648 3.917880 -0.038538
v -4.126648 3.917880 -0.038538
v -4.126648 -0.244907 -0.038538
v -3.238991 3.917880 0.154308
v -4.126648 -0.244907 -0.038538
v -3.238991 -0.244907 0.154308
v -3.238991 3.917880 0.154308
v -3.238991 3.917880 0.154308
v -2.507115 3.917880 -0.383729
v -3.504927 3.917880 -1.093384
v -2.507115 3.917880 -0.383729
v -2.359743 3.917880 -1.337471
v -3.504927 3.917880 -1.093384
v -2.359743 3.917880 -1.337471
v -2.883205 3.917880 -2.148230
v -3.504927 3.917880 -1.093384
v -2.883205 3.917880 -2.148230
v -3.770863 3.917880 -2.341076
v -3.504927 3.917880 -1.093384
v -3.770863 3.917880 -2.341076
v -4.502738 3.917880 -1.803039
v -3.504927 3.917880 -1.093384
v -4.502738 3.917880 -1.803039
v -4.650110 3.917880 -0.849297
v -3.504927 3.917880 -1.093384
v -4.650110 3.917880 -0.849297
v -4.126648 3.917880 -0.038538
v -3.504927 3.917880 -1.093384
v -4.126648 3.917880 -0.038538
v -3.238991 3.917880 0.154308
v -3.504927 3.917880 -1.093384
v -2.507115 -0.244907 -0.383729
v -3.238991 -0.244907 0.154308
v -3.504927 -0.244907 -1.093384
v -2.359743 -0.244907 -1.337471
v -2.507115 -0.244907 -0.383729
v -3.504927 -0.244907 -1.093384
v -2.883205 -0.244907 -2.148230
v -2.359743 -0.244907 -1.337471
v -3.504927 -0.244907 -1.093384
v -3.770863 -0.244907 -2.341076
v -2.883205 -0.244907 -2.148230
v -3.504927 -0.244907 -1.093384
v -4.502738 -0.244907 -1.803039
v -3.770863 -0.244907 -2.341076
v -3.504927 -0.244907 -1.093384
v -4.650110 -0.244907 -0.849297
v -4.502738 -0.244907 -1.803039
v -3.504927 -0.244907 -1.093384
v -4.126648 -0.244907 -0.038538
v -4.650110 -0.244907 -0.849297
v -3.504927 -0.244907 -1.093384
v -3.238991 -0.244907 0.154308
v -4.126648 -0.244907 -0.038538
v -3.504927 -0.244907 -1.093384
vn 0.5923 -0.0000 0.8057
vn 0.9883 -0.0000 0.1527
vn 0.8401 -0.0000 -0.5424
vn 0.2123 -0.0000 -0.9772
vn -0.5923 -0.0000 -0.8057
vn -0.9883 -0.0000 -0.1527
vn -0.8401 -0.0000 0.5424
vn -0.2123 -0.0000 0.9772
vn -0.0000 1.0000 -0.0000
vn -0.0000 -1.0000 -0.0000
vt 0.000000 1.000000
vt 0.125000 0.000000
vt 0.000000 0.000000
vt 0.125000 1.000000
vt 0.250000 0.000000
vt 0.250000 1.000000
vt 0.375000 0.000000
vt 0.375000 1.000000
vt 0.500000 0.000000
vt 0.500000 1.000000
vt 0.625000 0.000000
vt 0.625000 1.000000
vt 0.750000 0.000000
vt 0.750000 1.000000
vt 0.875000 0.000000
vt 0.875000 1.000000
vt 1.000000 0.000000
vt 1.000000 1.000000
vt 0.853553 0.146447
vt 0.500000 0.500000
vt 1.000000 0.500000
vt 0.146447 0.146447
vt 0.000000 0.500000
vt 0.146447 0.853553
vt 0.853553 0.853553
s 0
usemtl Material_2
f 974/109/163 975/110/163 973/111/163
f 977/112/163 978/110/163 976/109/163
f 980/112/164 981/113/164 979/110/164
f 983/114/164 984/113/164 982/112/164
f 986/114/165 987/115/165 985/113/165
f 989/116/165 990/115/165 988/114/165
f 992/116/166 993/117/166 991/115/166
f 995/118/166 996/117/166 994/116/166
f 998/118/167 999/119/167 997/117/167
f 1001/120/167 1002/119/167 1000/118/167
f 1004/120/168 1005/121/168 1003/119/168
f 1007/122/168 1008/121/168 1006/120/168
f 1010/122/169 1011/123/169 1009/121/169
f 1013/124/169 1014/123/169 1012/122/169
f 1016/124/170 1017/125/170 1015/123/170
f 1019/126/170 1020/125/170 1018/124/170
f 1022/127/171 1023/128/171 1021/129/171
f 1025/117/171 1026/128/171 1024/127/171
f 1028/130/171 1029/128/171 1027/117/171
f 1031/131/171 1032/128/171 1030/130/171
f 1034/132/171 1035/128/171 1033/131/171
f 1037/118/171 1038/128/171 1036/132/171
f 1040/133/171 1041/128/171 1039/118/171
f 1043/129/171 1044/128/171 1042/133/171
f 1046/129/172 1047/128/172 1045/133/172
f 1049/133/172 1050/128/172 1048/118/172
f 1052/118/172 1053/128/172 1051/132/172
f 1055/132/172 1056/128/172 1054/131/172
f 1058/131/172 1059/128/172 1057/130/172
f 1061/130/172 1062/128/172 1060/117/172
f 1064/117/172 1065/128/172 1063/127/172
f 1067/127/172 1068/128/172 1066/129/172
o tankInstances_001
v 0.810305 4.523463 2.842290
v 0.810305 0.635237 2.842290
v 1.744848 4.523463 2.209234
v 0.810305 0.635237 2.842290
v 1.744848 0.635237 2.209234
v 1.744848 4.523463 2.209234
v 1.744848 4.523463 2.209234
v 1.744848 0.635237 2.209234
v 1.955038 4.523463 1.116992
v 1.744848 0.635237 2.209234
v 1.955038 0.635237 1.116992
v 1.955038 4.523463 1.116992
v 1.955038 4.523463 1.116992
v 1.955038 0.635237 1.116992
v 1.317743 4.523463 0.205386
v 1.955038 0.635237 1.116992
v 1.317743 0.635237 0.205386
v 1.317743 4.523463 0.205386
v 1.317743 4.523463 0.205386
v 1.317743 0.635237 0.205386
v 0.206287 4.523463 0.008419
v 1.317743 0.635237 0.205386
v 0.206287 0.635237 0.008419
v 0.206287 4.523463 0.008419
v 0.206287 4.523463 0.008419
v 0.206287 0.635237 0.008419
v -0.728256 4.523463 0.641475
v 0.206287 0.635237 0.008419
v -0.728256 0.635237 0.641475
v -0.728256 4.523463 0.641475
v -0.728256 4.523463 0.641475
v -0.728256 0.635237 0.641475
v -0.938446 4.523463 1.733716
v -0.728256 0.635237 0.641475
v -0.938446 0.635237 1.733716
v -0.938446 4.523463 1.733716
v -0.938446 4.523463 1.733716
v -0.938446 0.635237 1.733716
v -0.301151 4.523463 2.645323
v -0.938446 0.635237 1.733716
v -0.301151 0.635237 2.645323
v -0.301151 4.523463 2.645323
v -0.301151 4.523463 2.645323
v -0.301151 0.635237 2.645323
v 0.810305 4.523463 2.842290
v -0.301151 0.635237 2.645323
v 0.810305 0.635237 2.842290
v 0.810305 4.523463 2.842290
v 0.810305 4.523463 2.842290
v 1.744848 4.523463 2.209234
v 0.508296 4.523463 1.425354
v 1.744848 4.523463 2.209234
v 1.955038 4.523463 1.116992
v 0.508296 4.523463 1.425354
v 1.955038 4.523463 1.116992
v 1.317743 4.523463 0.205386
v 0.508296 4.523463 1.425354
v 1.317743 4.523463 0.205386
v 0.206287 4.523463 0.008419
v 0.508296 4.523463 1.425354
v 0.206287 4.523463 0.008419
v -0.728256 4.523463 0.641475
v 0.508296 4.523463 1.425354
v -0.728256 4.523463 0.641475
v -0.938446 4.523463 1.733716
v 0.508296 4.523463 1.425354
v -0.938446 4.523463 1.733716
v -0.301151 4.523463 2.645323
v 0.508296 4.523463 1.425354
v -0.301151 4.523463 2.645323
v 0.810305 4.523463 2.842290
v 0.508296 4.523463 1.425354
v 1.744848 0.635237 2.209234
v 0.810305 0.635237 2.842290
v 0.508296 0.635237 1.425354
v 1.955038 0.635237 1.116992
v 1.744848 0.635237 2.209234
v 0.508296 0.635237 1.425354
v 1.317743 0.635237 0.205386
v 1.955038 0.635237 1.116992
v 0.508296 0.635237 1.425354
v 0.206287 0.635237 0.008419
v 1.317743 0.635237 0.205386
v 0.508296 0.635237 1.425354
v -0.728256 0.635237 0.641475
v 0.206287 0.635237 0.008419
v 0.508296 0.635237 1.425354
v -0.938446 0.635237 1.733716
v -0.728256 0.635237 0.641475
v 0.508296 0.635237 1.425354
v -0.301151 0.635237 2.645323
v -0.938446 0.635237 1.733716
v 0.508296 0.635237 1.425354
v 0.810305 0.635237 2.842290
v -0.301151 0.635237 2.645323
v 0.508296 0.635237 1.425354
vn 0.5608 -0.0000 0.8279
vn 0.9820 -0.0000 0.1890
vn 0.8196 -0.0000 -0.5730
vn 0.1745 -0.0000 -0.9847
vn -0.5608 -0.0000 -0.8279
vn -0.9820 -0.0000 -0.1890
vn -0.8196 -0.0000 0.5730
vn -0.1745 -0.0000 0.9847
vn -0.0000 1.0000 -0.0000
vn -0.0000 -1.0000 -0.0000
vt 0.000000 1.000000
vt 0.125000 0.000000
vt 0.000000 0.000000
vt 0.125000 1.000000
vt 0.250000 0.000000
vt 0.250000 1.000000
vt 0.375000 0.000000
vt 0.375000 1.000000
vt 0.500000 0.000000
vt 0.500000 1.000000
vt 0.625000 0.000000
vt 0.625000 1.000000
vt 0.750000 0.000000
vt 0.750000 1.000000
vt 0.875000 0.000000
vt 0.875000 1.000000
vt 1.000000 0.000000
vt 1.000000 1.000000
vt 0.853553 0.146447
vt 0.500000 0.500000
vt 1.000000 0.500000
vt 0.146447 0.146447
vt 0.000000 0.500000
vt 0.146447 0.853553
vt 0.853553 0.853553
s 0
usemtl Material_2
f 1070/134/173 1071/135/173 1069/136/173
f 1073/137/173 1074/135/173 1072/134/173
f 1076/137/174 1077/138/174 1075/135/174
f 1079/139/174 1080/138/174 1078/137/174
f 1082/139/175 1083/140/175 1081/138/175
f 1085/141/175 1086/140/175 1084/139/175
f 1088/141/176 1089/142/176 1087/140/176
f 1091/143/176 1092/142/176 1090/141/176
f 1094/143/177 1095/144/177 1093/142/177
f 1097/145/177 1098/144/177 1096/143/177
f 1100/145/178 1101/146/178 1099/144/178
f 1103/147/178 1104/146/178 1102/145/178
f 1106/147/179 1107/148/179 1105/146/179
f 1109/149/179 1110/148/179 1108/147/179
f 1112/149/180 1113/150/180 1111/148/180
f 1115/151/180 1116/150/180 1114/149/180
f 1118/152/181 1119/153/181 1117/154/181
f 1121/142/181 1122/153/181 1120/152/181
f 1124/155/181 1125/153/181 1123/142/181
f 1127/156/181 1128/153/181 1126/155/181
f 1130/157/181 1131/153/181 1129/156/181
f 1133/143/181 1134/153/181 1132/157/181
f 1136/158/181 1137/153/181 1135/143/181
f 1139/154/181 1140/153/181 1138/158/181
f 1142/154/182 1143/153/182 1141/158/182
f 1145/158/182 1146/153/182 1144/143/182
f 1148/143/182 1149/153/182 1147/157/182
f 1151/157/182 1152/153/182 1150/156/182
f 1154/156/182 1155/153/182 1153/155/182
f 1157/155/182 1158/153/182 1156/142/182
f 1160/142/182 1161/153/182 1159/152/182
f 1163/152/182 1164/153/182 1162/154/182
o tankInstances_002
v 3.377403 4.061321 -0.464335
v 3.377403 -0.154324 -0.464335
v 4.290973 4.061321 -1.033373
v 3.377403 -0.154324 -0.464335
v 4.290973 -0.154324 -1.033373
v 4.290973 4.061321 -1.033373
v 4.290973 4.061321 -1.033373
v 4.290973 -0.154324 -1.033373
v 4.516757 4.061321 -1.985175
v 4.290973 -0.154324 -1.033373
v 4.516757 -0.154324 -1.985175
v 4.516757 4.061321 -1.985175
v 4.516757 4.061321 -1.985175
v 4.516757 -0.154324 -1.985175
v 3.922489 4.061321 -2.762189
v 4.516757 -0.154324 -1.985175
v 3.922489 -0.154324 -2.762189
v 3.922489 4.061321 -2.762189
v 3.922489 4.061321 -2.762189
v 3.922489 -0.154324 -2.762189
v 2.856287 4.061321 -2.909254
v 3.922489 -0.154324 -2.762189
v 2.856287 -0.154324 -2.909254
v 2.856287 4.061321 -2.909254
v 2.856287 4.061321 -2.909254
v 2.856287 -0.154324 -2.909254
v 1.942717 4.061321 -2.340216
v 2.856287 -0.154324 -2.909254
v 1.942717 -0.154324 -2.340216
v 1.942717 4.061321 -2.340216
v 1.942717 4.061321 -2.340216
v 1.942717 -0.154324 -2.340216
v 1.716934 4.061321 -1.388414
v 1.942717 -0.154324 -2.340216
v 1.716934 -0.154324 -1.388414
v 1.716934 4.061321 -1.388414
v 1.716934 4.061321 -1.388414
v 1.716934 -0.154324 -1.388414
v 2.311202 4.061321 -0.611400
v 1.716934 -0.154324 -1.388414
v 2.311202 -0.154324 -0.611400
v 2.311202 4.061321 -0.611400
v 2.311202 4.061321 -0.611400
v 2.311202 -0.154324 -0.611400
v 3.377403 4.061321 -0.464335
v 2.311202 -0.154324 -0.611400
v 3.377403 -0.154324 -0.464335
v 3.377403 4.061321 -0.464335
v 3.377403 4.061321 -0.464335
v 4.290973 4.061321 -1.033373
v 3.116845 4.061321 -1.686795
v 4.290973 4.061321 -1.033373
v 4.516757 4.061321 -1.985175
v 3.116845 4.061321 -1.686795
v 4.516757 4.061321 -1.985175
v 3.922489 4.061321 -2.762189
v 3.116845 4.061321 -1.686795
v 3.922489 4.061321 -2.762189
v 2.856287 4.061321 -2.909254
v 3.116845 4.061321 -1.686795
v 2.856287 4.061321 -2.909254
v 1.942717 4.061321 -2.340216
v 3.116845 4.061321 -1.686795
v 1.942717 4.061321 -2.340216
v 1.716934 4.061321 -1.388414
v 3.116845 4.061321 -1.686795
v 1.716934 4.061321 -1.388414
v 2.311202 4.061321 -0.611400
v 3.116845 4.061321 -1.686795
v 2.311202 4.061321 -0.611400
v 3.377403 4.061321 -0.464335
v 3.116845 4.061321 -1.686795
v 4.290973 -0.154324 -1.033373
v 3.377403 -0.154324 -0.464335
v 3.116845 -0.154324 -1.686795
v 4.516757 -0.154324 -1.985175
v 4.290973 -0.154324 -1.033373
v 3.116845 -0.154324 -1.686795
v 3.922489 -0.154324 -2.762189
v 4.516757 -0.154324 -1.985175
v 3.116845 -0.154324 -1.686795
v 2.856287 -0.154324 -2.909254
v 3.922489 -0.154324 -2.762189
v 3.116845 -0.154324 -1.686795
v 1.942717 -0.154324 -2.340216
v 2.856287 -0.154324 -2.909254
v 3.116845 -0.154324 -1.686795
v 1.716934 -0.154324 -1.388414
v 1.942717 -0.154324 -2.340216
v 3.116845 -0.154324 -1.686795
v 2.311202 -0.154324 -0.611400
v 1.716934 -0.154324 -1.388414
v 3.116845 -0.154324 -1.686795
v 3.377403 -0.154324 -0.464335
v 2.311202 -0.154324 -0.611400
v 3.116845 -0.154324 -1.686795
vn 0.5287 -0.0000 0.8488
vn 0.9730 -0.0000 0.2308
vn 0.7943 -0.0000 -0.6075
vn 0.1366 -0.0000 -0.9906
vn -0.5287 -0.0000 -0.8488
vn -0.9730 -0.0000 -0.2308
vn -0.7943 -0.0000 0.6075
vn -0.1366 -0.0000 0.9906
vn -0.0000 1.0000 -0.0000
vn -0.0000 -1.0000 -0.0000
vt 0.000000 1.000000
vt 0.125000 0.000000
vt 0.000000 0.000000
vt 0.125000 1.000000
vt 0.250000 0.000000
vt 0.250000 1.000000
vt 0.375000 0.000000
vt 0.375000 1.000000
vt 0.500000 0.000000
vt 0.500000 1.000000
vt 0.625000 0.000000
vt 0.625000 1.000000
vt 0.750000 0.000000
vt 0.750000 1.000000
vt 0.875000 0.000000
vt 0.875000 1.000000
vt 1.000000 0.000000
vt 1.000000 1.000000
vt 0.853553 0.146447
vt 0.500000 0.500000
vt 1.000000 0.500000
vt 0.146447 0.146447
vt 0.000000 0.500000
vt 0.146447 0.853553
vt 0.853553 0.853553
s 0
usemtl Material_2
f 1166/159/183 1167/160/183 1165/161/183
f 1169/162/183 1170/160/183 1168/159/183
f 1172/162/184 1173/163/184 1171/160/184
f 1175/164/184 1176/163/184 1174/162/184
f 1178/164/185 1179/165/185 1177/163/185
f 1181/166/185 1182/165/185 1180/164/185
f 1184/166/186 1185/167/186 1183/165/186
f 1187/168/186 1188/167/186 1186/166/186
f 1190/168/187 1191/169/187 1189/167/187
f 1193/170/187 1194/169/187 1192/168/187
f 1196/170/188 1197/171/188 1195/169/188
f 1199/172/188 1200/171/188 1198/170/188
f 1202/172/189 1203/173/189 1201/171/189
f 1205/174/189 1206/173/189 1204/172/189
f 1208/174/190 1209/175/190 1207/173/190
f 1211/176/190 1212/175/190 1210/174/190
f 1214/177/191 1215/178/191 1213/179/191
f 1217/167/191 1218/178/191 1216/177/191
f 1220/180/191 1221/178/191 1219/167/191
f 1223/181/191 1224/178/191 1222/180/191
f 1226/182/191 1227/178/191 1225/181/191
f 1229/168/191 1230/178/191 1228/182/191
f 1232/183/191 1233/178/191 1231/168/191
f 1235/179/191 1236/178/191 1234/183/191
f 1238/179/192 1239/178/192 1237/183/192
f 1241/183/192 1242/178/192 1240/168/192
f 1244/168/192 1245/178/192 1243/182/192
f 1247/182/192 1248/178/192 1246/181/192
f 1250/181/192 1251/178/192 1249/180/192
f 1253/180/192 1254/178/192 1252/167/192
f 1256/167/192 1257/178/192 1255/177/192
f 1259/177/192 1260/178/192 1258/179/192
o MilitaryStructure7
v -5.023392 0.665000 -1.981353
v 3.730941 0.665000 -4.082439
v 3.778887 0.665000 -3.857491
v -5.071338 0.665000 -2.206300
v -5.023392 0.435000 -1.981353
v 3.730941 0.435000 -4.082439
v 3.778887 0.435000 -3.857491
v -5.071338 0.435000 -2.206300
v 3.778887 0.665000 -3.857491
v -5.071338 0.665000 -2.206300
v 3.730941 0.665000 -4.082439
v -5.023392 0.665000 -1.981353
v 3.778887 0.435000 -3.857491
v -5.071338 0.435000 -2.206300
v 3.730941 0.435000 -4.082439
v -5.023392 0.435000 -1.981353
v 3.778887 0.665000 -3.857491
v -5.023392 0.435000 -1.981353
v -5.023392 0.665000 -1.981353
v 3.778887 0.435000 -3.857491
v 3.730941 0.665000 -4.082439
v -5.071338 0.435000 -2.206300
v -5.071338 0.665000 -2.206300
v 3.730941 0.435000 -4.082439
v -3.758518 1.225000 4.072980
v -4.848154 1.225000 -2.238533
v -3.514011 1.225000 4.020865
v -5.092662 1.225000 -2.186418
v -3.758518 0.975000 4.072980
v -4.848154 0.975000 -2.238533
v -3.514011 0.975000 4.020865
v -5.092662 0.975000 -2.186418
v -3.514011 1.225000 4.020865
v -5.092662 1.225000 -2.186418
v -4.848154 1.225000 -2.238533
v -3.758518 1.225000 4.072980
v -3.514011 0.975000 4.020865
v -5.092662 0.975000 -2.186418
v -4.848154 0.975000 -2.238533
v -3.758518 0.975000 4.072980
v -3.514011 1.225000 4.020865
v -3.758518 0.975000 4.072980
v -3.758518 1.225000 4.072980
v -3.514011 0.975000 4.020865
v -4.848154 1.225000 -2.238533
v -5.092662 0.975000 -2.186418
v -5.092662 1.225000 -2.186418
v -4.848154 0.975000 -2.238533
v -3.730941 0.665000 4.082439
v 5.023392 0.665000 1.981353
v 5.071338 0.665000 2.206300
v -3.778887 0.665000 3.857491
v -3.730941 0.435000 4.082439
v 5.023392 0.435000 1.981353
v 5.071338 0.435000 2.206300
v -3.778887 0.435000 3.857491
v 5.071338 0.665000 2.206300
v -3.778887 0.665000 3.857491
v 5.023392 0.665000 1.981353
v -3.730941 0.665000 4.082439
v 5.071338 0.435000 2.206300
v -3.778887 0.435000 3.857491
v 5.023392 0.435000 1.981353
v -3.730941 0.435000 4.082439
v 5.071338 0.665000 2.206300
v -3.730941 0.435000 4.082439
v -3.730941 0.665000 4.082439
v 5.071338 0.435000 2.206300
v 5.023392 0.665000 1.981353
v -3.778887 0.435000 3.857491
v -3.778887 0.665000 3.857491
v 5.023392 0.435000 1.981353
v 4.848154 1.225000 2.238533
v 3.758518 1.225000 -4.072980
v 5.092662 1.225000 2.186418
v 3.514011 1.225000 -4.020865
v 4.848154 0.975000 2.238533
v 3.758518 0.975000 -4.072980
v 5.092662 0.975000 2.186418
v 3.514011 0.975000 -4.020865
v 5.092662 1.225000 2.186418
v 3.514011 1.225000 -4.020865
v 3.758518 1.225000 -4.072980
v 4.848154 1.225000 2.238533
v 5.092662 0.975000 2.186418
v 3.514011 0.975000 -4.020865
v 3.758518 0.975000 -4.072980
v 4.848154 0.975000 2.238533
v 5.092662 1.225000 2.186418
v 4.848154 0.975000 2.238533
v 4.848154 1.225000 2.238533
v 5.092662 0.975000 2.186418
v 3.758518 1.225000 -4.072980
v 3.514011 0.975000 -4.020865
v 3.514011 1.225000 -4.020865
v 3.758518 0.975000 -4.072980
v -4.466149 0.600000 -1.885408
v -4.259337 0.600000 -2.594089
v -4.123838 0.600000 -1.958369
v -4.601648 0.600000 -2.521128
v -4.466149 0.000000 -1.885408
v -4.259337 0.000000 -2.594089
v -4.123838 0.000000 -1.958369
v -4.601648 0.000000 -2.521128
v -4.123838 0.600000 -1.958369
v -4.601648 0.600000 -2.521128
v -4.259337 0.600000 -2.594089
v -4.466149 0.600000 -1.885408
v -4.123838 0.000000 -1.958369
v -4.601648 0.000000 -2.521128
v -4.259337 0.000000 -2.594089
v -4.466149 0.000000 -1.885408
v -4.123838 0.600000 -1.958369
v -4.466149 0.000000 -1.885408
v -4.466149 0.600000 -1.885408
v -4.123838 0.000000 -1.958369
v -4.259337 0.600000 -2.594089
v -4.601648 0.000000 -2.521128
v -4.601648 0.600000 -2.521128
v -4.259337 0.000000 -2.594089
v -2.021072 0.600000 -2.406558
v -1.814260 0.600000 -3.115238
v -1.678761 0.600000 -2.479518
v -2.156570 0.600000 -3.042277
v -2.021072 0.000000 -2.406558
v -1.814260 0.000000 -3.115238
v -1.678761 0.000000 -2.479518
v -2.156570 0.000000 -3.042277
v -1.678761 0.600000 -2.479518
v -2.156570 0.600000 -3.042277
v -1.814260 0.600000 -3.115238
v -2.021072 0.600000 -2.406558
v -1.678761 0.000000 -2.479518
v -2.156570 0.000000 -3.042277
v -1.814260 0.000000 -3.115238
v -2.021072 0.000000 -2.406558
v -1.678761 0.600000 -2.479518
v -2.021072 0.000000 -2.406558
v -2.021072 0.600000 -2.406558
v -1.678761 0.000000 -2.479518
v -1.814260 0.600000 -3.115238
v -2.156570 0.000000 -3.042277
v -2.156570 0.600000 -3.042277
v -1.814260 0.000000 -3.115238
v 0.424006 0.600000 -2.927707
v 0.630817 0.600000 -3.636388
v 0.766316 0.600000 -3.000668
v 0.288507 0.600000 -3.563427
v 0.424006 0.000000 -2.927707
v 0.630817 0.000000 -3.636388
v 0.766316 0.000000 -3.000668
v 0.288507 0.000000 -3.563427
v 0.766316 0.600000 -3.000668
v 0.288507 0.600000 -3.563427
v 0.630817 0.600000 -3.636388
v 0.424006 0.600000 -2.927707
v 0.766316 0.000000 -3.000668
v 0.288507 0.000000 -3.563427
v 0.630817 0.000000 -3.636388
v 0.424006 0.000000 -2.927707
v 0.766316 0.600000 -3.000668
v 0.424006 0.000000 -2.927707
v 0.424006 0.600000 -2.927707
v 0.766316 0.000000 -3.000668
v 0.630817 0.600000 -3.636388
v 0.288507 0.000000 -3.563427
v 0.288507 0.600000 -3.563427
v 0.630817 0.000000 -3.636388
v 2.869083 0.600000 -3.448857
v 3.075895 0.600000 -4.157538
v 3.211394 0.600000 -3.521818
v 2.733584 0.600000 -4.084577
v 2.869083 0.000000 -3.448857
v 3.075895 0.000000 -4.157538
v 3.211394 0.000000 -3.521818
v 2.733584 0.000000 -4.084577
v 3.211394 0.600000 -3.521818
v 2.733584 0.600000 -4.084577
v 3.075895 0.600000 -4.157538
v 2.869083 0.600000 -3.448857
v 3.211394 0.000000 -3.521818
v 2.733584 0.000000 -4.084577
v 3.075895 0.000000 -4.157538
v 2.869083 0.000000 -3.448857
v 3.211394 0.600000 -3.521818
v 2.869083 0.000000 -3.448857
v 2.869083 0.600000 -3.448857
v 3.211394 0.000000 -3.521818
v 3.075895 0.600000 -4.157538
v 2.733584 0.000000 -4.084577
v 2.733584 0.600000 -4.084577
v 3.075895 0.000000 -4.157538
v -3.173698 0.600000 4.178384
v -2.966886 0.600000 3.469703
v -2.831387 0.600000 4.105423
v -3.309197 0.600000 3.542664
v -3.173698 0.000000 4.178384
v -2.966886 0.000000 3.469703
v -2.831387 0.000000 4.105423
v -3.309197 0.000000 3.542664
v -2.831387 0.600000 4.105423
v -3.309197 0.600000 3.542664
v -2.966886 0.600000 3.469703
v -3.173698 0.600000 4.178384
v -2.831387 0.000000 4.105423
v -3.309197 0.000000 3.542664
v -2.966886 0.000000 3.469703
v -3.173698 0.000000 4.178384
v -2.831387 0.600000 4.105423
v -3.173698 0.000000 4.178384
v -3.173698 0.600000 4.178384
v -2.831387 0.000000 4.105423
v -2.966886 0.600000 3.469703
v -3.309197 0.000000 3.542664
v -3.309197 0.600000 3.542664
v -2.966886 0.000000 3.469703
v -0.728620 0.600000 3.657234
v -0.521809 0.600000 2.948553
v -0.386310 0.600000 3.584273
v -0.864119 0.600000 3.021514
v -0.728620 0.000000 3.657234
v -0.521809 0.000000 2.948553
v -0.386310 0.000000 3.584273
v -0.864119 0.000000 3.021514
v -0.386310 0.600000 3.584273
v -0.864119 0.600000 3.021514
v -0.521809 0.600000 2.948553
v -0.728620 0.600000 3.657234
v -0.386310 0.000000 3.584273
v -0.864119 0.000000 3.021514
v -0.521809 0.000000 2.948553
v -0.728620 0.000000 3.657234
v -0.386310 0.600000 3.584273
v -0.728620 0.000000 3.657234
v -0.728620 0.600000 3.657234
v -0.386310 0.000000 3.584273
v -0.521809 0.600000 2.948553
v -0.864119 0.000000 3.021514
v -0.864119 0.600000 3.021514
v -0.521809 0.000000 2.948553
v 1.716457 0.600000 3.136084
v 1.923269 0.600000 2.427403
v 2.058768 0.600000 3.063123
v 1.580958 0.600000 2.500364
v 1.716457 0.000000 3.136084
v 1.923269 0.000000 2.427403
v 2.058768 0.000000 3.063123
v 1.580958 0.000000 2.500364
v 2.058768 0.600000 3.063123
v 1.580958 0.600000 2.500364
v 1.923269 0.600000 2.427403
v 1.716457 0.600000 3.136084
v 2.058768 0.000000 3.063123
v 1.580958 0.000000 2.500364
v 1.923269 0.000000 2.427403
v 1.716457 0.000000 3.136084
v 2.058768 0.600000 3.063123
v 1.716457 0.000000 3.136084
v 1.716457 0.600000 3.136084
v 2.058768 0.000000 3.063123
v 1.923269 0.600000 2.427403
v 1.580958 0.000000 2.500364
v 1.580958 0.600000 2.500364
v 1.923269 0.000000 2.427403
v 4.161534 0.600000 2.614935
v 4.368346 0.600000 1.906254
v 4.503845 0.600000 2.541974
v 4.026035 0.600000 1.979215
v 4.161534 0.000000 2.614935
v 4.368346 0.000000 1.906254
v 4.503845 0.000000 2.541974
v 4.026035 0.000000 1.979215
v 4.503845 0.600000 2.541974
v 4.026035 0.600000 1.979215
v 4.368346 0.600000 1.906254
v 4.161534 0.600000 2.614935
v 4.503845 0.000000 2.541974
v 4.026035 0.000000 1.979215
v 4.368346 0.000000 1.906254
v 4.161534 0.000000 2.614935
v 4.503845 0.600000 2.541974
v 4.161534 0.000000 2.614935
v 4.161534 0.600000 2.614935
v 4.503845 0.000000 2.541974
v 4.368346 0.600000 1.906254
v 4.026035 0.000000 1.979215
v 4.026035 0.600000 1.979215
v 4.368346 0.000000 1.906254
v 0.255149 1.225000 5.226636
v 0.616378 1.225000 5.098519
v 0.626801 1.225000 5.147421
v 0.244726 1.225000 5.177734
v 0.255149 0.875000 5.226636
v 0.616378 0.875000 5.098519
v 0.626801 0.875000 5.147421
v 0.244726 0.875000 5.177734
v 0.626801 1.225000 5.147421
v 0.244726 1.225000 5.177734
v 0.616378 1.225000 5.098519
v 0.255149 1.225000 5.226636
v 0.626801 0.875000 5.147421
v 0.244726 0.875000 5.177734
v 0.616378 0.875000 5.098519
v 0.255149 0.875000 5.226636
v 0.626801 1.225000 5.147421
v 0.255149 0.875000 5.226636
v 0.255149 1.225000 5.226636
v 0.626801 0.875000 5.147421
v 0.616378 1.225000 5.098519
v 0.244726 0.875000 5.177734
v 0.244726 1.225000 5.177734
v 0.616378 0.875000 5.098519
v 0.890869 1.225000 5.091137
v 1.252098 1.225000 4.963020
v 1.262521 1.225000 5.011922
v 0.880446 1.225000 5.042235
v 0.890869 0.875000 5.091137
v 1.252098 0.875000 4.963020
v 1.262521 0.875000 5.011922
v 0.880446 0.875000 5.042235
v 1.262521 1.225000 5.011922
v 0.880446 1.225000 5.042235
v 1.252098 1.225000 4.963020
v 0.890869 1.225000 5.091137
v 1.262521 0.875000 5.011922
v 0.880446 0.875000 5.042235
v 1.252098 0.875000 4.963020
v 0.890869 0.875000 5.091137
v 1.262521 1.225000 5.011922
v 0.890869 0.875000 5.091137
v 0.890869 1.225000 5.091137
v 1.262521 0.875000 5.011922
v 1.252098 1.225000 4.963020
v 0.880446 0.875000 5.042235
v 0.880446 1.225000 5.042235
v 1.252098 0.875000 4.963020
v 1.526590 1.225000 4.955638
v 1.887818 1.225000 4.827521
v 1.898241 1.225000 4.876423
v 1.516166 1.225000 4.906736
v 1.526590 0.875000 4.955638
v 1.887818 0.875000 4.827521
v 1.898241 0.875000 4.876423
v 1.516166 0.875000 4.906736
v 1.898241 1.225000 4.876423
v 1.516166 1.225000 4.906736
v 1.887818 1.225000 4.827521
v 1.526590 1.225000 4.955638
v 1.898241 0.875000 4.876423
v 1.516166 0.875000 4.906736
v 1.887818 0.875000 4.827521
v 1.526590 0.875000 4.955638
v 1.898241 1.225000 4.876423
v 1.526590 0.875000 4.955638
v 1.526590 1.225000 4.955638
v 1.898241 0.875000 4.876423
v 1.887818 1.225000 4.827521
v 1.516166 0.875000 4.906736
v 1.516166 1.225000 4.906736
v 1.887818 0.875000 4.827521
v -5.064998 1.200000 -1.936698
v -4.834126 1.200000 -2.292646
v -4.771588 1.200000 -1.999236
v -5.127535 1.200000 -2.230108
v -5.064998 0.400000 -1.936698
v -4.834126 0.400000 -2.292646
v -4.771588 0.400000 -1.999236
v -5.127535 0.400000 -2.230108
v -4.771588 1.200000 -1.999236
v -5.127535 1.200000 -2.230108
v -4.834126 1.200000 -2.292646
v -5.064998 1.200000 -1.936698
v -4.771588 0.400000 -1.999236
v -5.127535 0.400000 -2.230108
v -4.834126 0.400000 -2.292646
v -5.064998 0.400000 -1.936698
v -4.771588 1.200000 -1.999236
v -5.064998 0.400000 -1.936698
v -5.064998 1.200000 -1.936698
v -4.771588 0.400000 -1.999236
v -4.834126 1.200000 -2.292646
v -5.127535 0.400000 -2.230108
v -5.127535 1.200000 -2.230108
v -4.834126 0.400000 -2.292646
v 3.541675 1.200000 -3.771145
v 3.772546 1.200000 -4.127093
v 3.835084 1.200000 -3.833683
v 3.479137 1.200000 -4.064555
v 3.541675 0.400000 -3.771145
v 3.772546 0.400000 -4.127093
v 3.835084 0.400000 -3.833683
v 3.479137 0.400000 -4.064555
v 3.835084 1.200000 -3.833683
v 3.479137 1.200000 -4.064555
v 3.772546 1.200000 -4.127093
v 3.541675 1.200000 -3.771145
v 3.835084 0.400000 -3.833683
v 3.479137 0.400000 -4.064555
v 3.772546 0.400000 -4.127093
v 3.541675 0.400000 -3.771145
v 3.835084 1.200000 -3.833683
v 3.541675 0.400000 -3.771145
v 3.541675 1.200000 -3.771145
v 3.835084 0.400000 -3.833683
v 3.772546 1.200000 -4.127093
v 3.479137 0.400000 -4.064555
v 3.479137 1.200000 -4.064555
v 3.772546 0.400000 -4.127093
v -0.007477 1.500000 5.241714
v 2.008692 1.500000 4.147383
v 2.144191 1.500000 4.783103
v -0.142976 1.500000 4.605995
v -0.007477 0.000000 5.241714
v 2.008692 0.000000 4.147383
v 2.144191 0.000000 4.783103
v -0.142976 0.000000 4.605995
v 2.144191 1.500000 4.783103
v -0.142976 1.500000 4.605995
v 2.008692 1.500000 4.147383
v -0.007477 1.500000 5.241714
v 2.144191 0.000000 4.783103
v -0.142976 0.000000 4.605995
v 2.008692 0.000000 4.147383
v -0.007477 0.000000 5.241714
v 2.144191 1.500000 4.783103
v -0.007477 0.000000 5.241714
v -0.007477 1.500000 5.241714
v 2.144191 0.000000 4.783103
v 2.008692 1.500000 4.147383
v -0.142976 0.000000 4.605995
v -0.142976 1.500000 4.605995
v 2.008692 0.000000 4.147383
vn 0.2085 -0.0000 0.9780
vn -0.2085 -0.0000 -0.9780
vn 0.9780 -0.0000 -0.2085
vn -0.9780 -0.0000 0.2085
vn -0.0000 1.0000 -0.0000
vn -0.0000 -1.0000 -0.0000
vt 0.000000 0.500000
vt 0.333333 1.000000
vt 0.000000 1.000000
vt 0.333333 0.500000
vt 0.666667 0.500000
vt 1.000000 1.000000
vt 0.666667 1.000000
vt 1.000000 0.500000
vt 0.000000 0.000000
vt 0.333333 0.000000
vt 0.666667 0.000000
vt 1.000000 0.000000
s 0
usemtl Material_5
f 1265/184/193 1263/185/193 1261/186/193
f 1265/184/193 1267/187/193 1263/185/193
f 1266/188/194 1264/189/194 1262/190/194
f 1266/188/194 1268/191/194 1264/189/194
f 1273/187/195 1271/190/195 1269/185/195
f 1273/187/195 1275/188/195 1271/190/195
f 1274/192/196 1272/187/196 1270/184/196
f 1274/192/196 1276/193/196 1272/187/196
f 1281/193/197 1279/188/197 1277/187/197
f 1281/193/197 1283/194/197 1279/188/197
f 1282/194/198 1280/191/198 1278/188/198
f 1282/194/198 1284/195/198 1280/191/198
f 1289/184/193 1287/185/193 1285/186/193
f 1289/184/193 1291/187/193 1287/185/193
f 1290/188/194 1288/189/194 1286/190/194
f 1290/188/194 1292/191/194 1288/189/194
f 1297/187/195 1295/190/195 1293/185/195
f 1297/187/195 1299/188/195 1295/190/195
f 1298/192/196 1296/187/196 1294/184/196
f 1298/192/196 1300/193/196 1296/187/196
f 1305/193/197 1303/188/197 1301/187/197
f 1305/193/197 1307/194/197 1303/188/197
f 1306/194/198 1304/191/198 1302/188/198
f 1306/194/198 1308/195/198 1304/191/198
f 1313/184/193 1311/185/193 1309/186/193
f 1313/184/193 1315/187/193 1311/185/193
f 1314/188/194 1312/189/194 1310/190/194
f 1314/188/194 1316/191/194 1312/189/194
f 1321/187/195 1319/190/195 1317/185/195
f 1321/187/195 1323/188/195 1319/190/195
f 1322/192/196 1320/187/196 1318/184/196
f 1322/192/196 1324/193/196 1320/187/196
f 1329/193/197 1327/188/197 1325/187/197
f 1329/193/197 1331/194/197 1327/188/197
f 1330/194/198 1328/191/198 1326/188/198
f 1330/194/198 1332/195/198 1328/191/198
f 1337/184/193 1335/185/193 1333/186/193
f 1337/184/193 1339/187/193 1335/185/193
f 1338/188/194 1336/189/194 1334/190/194
f 1338/188/194 1340/191/194 1336/189/194
f 1345/187/195 1343/190/195 1341/185/195
f 1345/187/195 1347/188/195 1343/190/195
f 1346/192/196 1344/187/196 1342/184/196
f 1346/192/196 1348/193/196 1344/187/196
f 1353/193/197 1351/188/197 1349/187/197
f 1353/193/197 1355/194/197 1351/188/197
f 1354/194/198 1352/191/198 1350/188/198
f 1354/194/198 1356/195/198 1352/191/198
usemtl Material_2
f 1361/184/193 1359/185/193 1357/186/193
f 1361/184/193 1363/187/193 1359/185/193
f 1362/188/194 1360/189/194 1358/190/194
f 1362/188/194 1364/191/194 1360/189/194
f 1369/187/195 1367/190/195 1365/185/195
f 1369/187/195 1371/188/195 1367/190/195
f 1370/192/196 1368/187/196 1366/184/196
f 1370/192/196 1372/193/196 1368/187/196
f 1377/193/197 1375/188/197 1373/187/197
f 1377/193/197 1379/194/197 1375/188/197
f 1378/194/198 1376/191/198 1374/188/198
f 1378/194/198 1380/195/198 1376/191/198
f 1385/184/193 1383/185/193 1381/186/193
f 1385/184/193 1387/187/193 1383/185/193
f 1386/188/194 1384/189/194 1382/190/194
f 1386/188/194 1388/191/194 1384/189/194
f 1393/187/195 1391/190/195 1389/185/195
f 1393/187/195 1395/188/195 1391/190/195
f 1394/192/196 1392/187/196 1390/184/196
f 1394/192/196 1396/193/196 1392/187/196
f 1401/193/197 1399/188/197 1397/187/197
f 1401/193/197 1403/194/197 1399/188/197
f 1402/194/198 1400/191/198 1398/188/198
f 1402/194/198 1404/195/198 1400/191/198
f 1409/184/193 1407/185/193 1405/186/193
f 1409/184/193 1411/187/193 1407/185/193
f 1410/188/194 1408/189/194 1406/190/194
f 1410/188/194 1412/191/194 1408/189/194
f 1417/187/195 1415/190/195 1413/185/195
f 1417/187/195 1419/188/195 1415/190/195
f 1418/192/196 1416/187/196 1414/184/196
f 1418/192/196 1420/193/196 1416/187/196
f 1425/193/197 1423/188/197 1421/187/197
f 1425/193/197 1427/194/197 1423/188/197
f 1426/194/198 1424/191/198 1422/188/198
f 1426/194/198 1428/195/198 1424/191/198
f 1433/184/193 1431/185/193 1429/186/193
f 1433/184/193 1435/187/193 1431/185/193
f 1434/188/194 1432/189/194 1430/190/194
f 1434/188/194 1436/191/194 1432/189/194
f 1441/187/195 1439/190/195 1437/185/195
f 1441/187/195 1443/188/195 1439/190/195
f 1442/192/196 1440/187/196 1438/184/196
f 1442/192/196 1444/193/196 1440/187/196
f 1449/193/197 1447/188/197 1445/187/197
f 1449/193/197 1451/194/197 1447/188/197
f 1450/194/198 1448/191/198 1446/188/198
f 1450/194/198 1452/195/198 1448/191/198
f 1457/184/193 1455/185/193 1453/186/193
f 1457/184/193 1459/187/193 1455/185/193
f 1458/188/194 1456/189/194 1454/190/194
f 1458/188/194 1460/191/194 1456/189/194
f 1465/187/195 1463/190/195 1461/185/195
f 1465/187/195 1467/188/195 1463/190/195
f 1466/192/196 1464/187/196 1462/184/196
f 1466/192/196 1468/193/196 1464/187/196
f 1473/193/197 1471/188/197 1469/187/197
f 1473/193/197 1475/194/197 1471/188/197
f 1474/194/198 1472/191/198 1470/188/198
f 1474/194/198 1476/195/198 1472/191/198
f 1481/184/193 1479/185/193 1477/186/193
f 1481/184/193 1483/187/193 1479/185/193
f 1482/188/194 1480/189/194 1478/190/194
f 1482/188/194 1484/191/194 1480/189/194
f 1489/187/195 1487/190/195 1485/185/195
f 1489/187/195 1491/188/195 1487/190/195
f 1490/192/196 1488/187/196 1486/184/196
f 1490/192/196 1492/193/196 1488/187/196
f 1497/193/197 1495/188/197 1493/187/197
f 1497/193/197 1499/194/197 1495/188/197
f 1498/194/198 1496/191/198 1494/188/198
f 1498/194/198 1500/195/198 1496/191/198
f 1505/184/193 1503/185/193 1501/186/193
f 1505/184/193 1507/187/193 1503/185/193
f 1506/188/194 1504/189/194 1502/190/194
f 1506/188/194 1508/191/194 1504/189/194
f 1513/187/195 1511/190/195 1509/185/195
f 1513/187/195 1515/188/195 1511/190/195
f 1514/192/196 1512/187/196 1510/184/196
f 1514/192/196 1516/193/196 1512/187/196
f 1521/193/197 1519/188/197 1517/187/197
f 1521/193/197 1523/194/197 1519/188/197
f 1522/194/198 1520/191/198 1518/188/198
f 1522/194/198 1524/195/198 1520/191/198
f 1529/184/193 1527/185/193 1525/186/193
f 1529/184/193 1531/187/193 1527/185/193
f 1530/188/194 1528/189/194 1526/190/194
f 1530/188/194 1532/191/194 1528/189/194
f 1537/187/195 1535/190/195 1533/185/195
f 1537/187/195 1539/188/195 1535/190/195
f 1538/192/196 1536/187/196 1534/184/196
f 1538/192/196 1540/193/196 1536/187/196
f 1545/193/197 1543/188/197 1541/187/197
f 1545/193/197 1547/194/197 1543/188/197
f 1546/194/198 1544/191/198 1542/188/198
f 1546/194/198 1548/195/198 1544/191/198
f 1553/184/193 1551/185/193 1549/186/193
f 1553/184/193 1555/187/193 1551/185/193
f 1554/188/194 1552/189/194 1550/190/194
f 1554/188/194 1556/191/194 1552/189/194
f 1561/187/195 1559/190/195 1557/185/195
f 1561/187/195 1563/188/195 1559/190/195
f 1562/192/196 1560/187/196 1558/184/196
f 1562/192/196 1564/193/196 1560/187/196
f 1569/193/197 1567/188/197 1565/187/197
f 1569/193/197 1571/194/197 1567/188/197
f 1570/194/198 1568/191/198 1566/188/198
f 1570/194/198 1572/195/198 1568/191/198
f 1577/184/193 1575/185/193 1573/186/193
f 1577/184/193 1579/187/193 1575/185/193
f 1578/188/194 1576/189/194 1574/190/194
f 1578/188/194 1580/191/194 1576/189/194
f 1585/187/195 1583/190/195 1581/185/195
f 1585/187/195 1587/188/195 1583/190/195
f 1586/192/196 1584/187/196 1582/184/196
f 1586/192/196 1588/193/196 1584/187/196
f 1593/193/197 1591/188/197 1589/187/197
f 1593/193/197 1595/194/197 1591/188/197
f 1594/194/198 1592/191/198 1590/188/198
f 1594/194/198 1596/195/198 1592/191/198
f 1601/184/193 1599/185/193 1597/186/193
f 1601/184/193 1603/187/193 1599/185/193
f 1602/188/194 1600/189/194 1598/190/194
f 1602/188/194 1604/191/194 1600/189/194
f 1609/187/195 1607/190/195 1605/185/195
f 1609/187/195 1611/188/195 1607/190/195
f 1610/192/196 1608/187/196 1606/184/196
f 1610/192/196 1612/193/196 1608/187/196
f 1617/193/197 1615/188/197 1613/187/197
f 1617/193/197 1619/194/197 1615/188/197
f 1618/194/198 1616/191/198 1614/188/198
f 1618/194/198 1620/195/198 1616/191/198
usemtl Material_8
f 1625/184/193 1623/185/193 1621/186/193
f 1625/184/193 1627/187/193 1623/185/193
f 1626/188/194 1624/189/194 1622/190/194
f 1626/188/194 1628/191/194 1624/189/194
f 1633/187/195 1631/190/195 1629/185/195
f 1633/187/195 1635/188/195 1631/190/195
f 1634/192/196 1632/187/196 1630/184/196
f 1634/192/196 1636/193/196 1632/187/196
f 1641/193/197 1639/188/197 1637/187/197
f 1641/193/197 1643/194/197 1639/188/197
f 1642/194/198 1640/191/198 1638/188/198
f 1642/194/198 1644/195/198 1640/191/198
f 1649/184/193 1647/185/193 1645/186/193
f 1649/184/193 1651/187/193 1647/185/193
f 1650/188/194 1648/189/194 1646/190/194
f 1650/188/194 1652/191/194 1648/189/194
f 1657/187/195 1655/190/195 1653/185/195
f 1657/187/195 1659/188/195 1655/190/195
f 1658/192/196 1656/187/196 1654/184/196
f 1658/192/196 1660/193/196 1656/187/196
f 1665/193/197 1663/188/197 1661/187/197
f 1665/193/197 1667/194/197 1663/188/197
f 1666/194/198 1664/191/198 1662/188/198
f 1666/194/198 1668/195/198 1664/191/198
usemtl Material_6
f 1673/184/193 1671/185/193 1669/186/193
f 1673/184/193 1675/187/193 1671/185/193
f 1674/188/194 1672/189/194 1670/190/194
f 1674/188/194 1676/191/194 1672/189/194
f 1681/187/195 1679/190/195 1677/185/195
f 1681/187/195 1683/188/195 1679/190/195
f 1682/192/196 1680/187/196 1678/184/196
f 1682/192/196 1684/193/196 1680/187/196
f 1689/193/197 1687/188/197 1685/187/197
f 1689/193/197 1691/194/197 1687/188/197
f 1690/194/198 1688/191/198 1686/188/198
f 1690/194/198 1692/195/198 1688/191/198
