# Blender 5.2.1 LTS
# www.blender.org
mtllib landmark_cargo_crane.mtl
o ironStructure_0006
v -2.207368 6.987203 0.726100
v -2.481144 -0.007198 0.784453
v -2.311598 6.987203 0.237084
v -2.481144 -0.007198 0.784453
v -2.585374 -0.007198 0.295437
v -2.311598 6.987203 0.237084
v -2.800223 7.007198 0.341231
v -3.073998 0.012797 0.399584
v -2.695993 7.007198 0.830246
v -3.073998 0.012797 0.399584
v -2.969769 0.012797 0.888599
v -2.695993 7.007198 0.830246
v -2.800223 7.007198 0.341231
v -2.695993 7.007198 0.830246
v -2.311598 6.987203 0.237084
v -2.695993 7.007198 0.830246
v -2.207368 6.987203 0.726100
v -2.311598 6.987203 0.237084
v -2.969769 0.012797 0.888599
v -3.073998 0.012797 0.399584
v -2.481144 -0.007198 0.784453
v -3.073998 0.012797 0.399584
v -2.585374 -0.007198 0.295437
v -2.481144 -0.007198 0.784453
v -2.695993 7.007198 0.830246
v -2.969769 0.012797 0.888599
v -2.207368 6.987203 0.726100
v -2.969769 0.012797 0.888599
v -2.481144 -0.007198 0.784453
v -2.207368 6.987203 0.726100
v -2.311598 6.987203 0.237084
v -2.585374 -0.007198 0.295437
v -2.800223 7.007198 0.341231
v -2.585374 -0.007198 0.295437
v -3.073998 0.012797 0.399584
v -2.800223 7.007198 0.341231
vn 0.9772 -0.0400 -0.2083
vn -0.9772 0.0400 0.2083
vn 0.0391 0.9992 -0.0083
vn -0.0391 -0.9992 0.0083
vn 0.2085 -0.0000 0.9780
vn -0.2085 -0.0000 -0.9780
vt 0.000000 1.000000
vt 1.000000 0.000000
vt 0.000000 0.000000
vt 1.000000 1.000000
s 0
usemtl Material_2
f 2/1/1 3/2/1 1/3/1
f 5/4/1 6/2/1 4/1/1
f 8/1/2 9/2/2 7/3/2
f 11/4/2 12/2/2 10/1/2
f 14/1/3 15/2/3 13/3/3
f 17/4/3 18/2/3 16/1/3
f 20/1/4 21/2/4 19/3/4
f 23/4/4 24/2/4 22/1/4
f 26/1/5 27/2/5 25/3/5
f 29/4/5 30/2/5 28/1/5
f 32/1/6 33/2/6 31/3/6
f 35/4/6 36/2/6 34/1/6
o ironStructure_0015
v 2.800223 7.007198 -0.341231
v 3.073998 0.012797 -0.399584
v 2.695993 7.007198 -0.830246
v 3.073998 0.012797 -0.399584
v 2.969769 0.012797 -0.888599
v 2.695993 7.007198 -0.830246
v 2.207368 6.987203 -0.726100
v 2.481144 -0.007198 -0.784453
v 2.311598 6.987203 -0.237084
v 2.481144 -0.007198 -0.784453
v 2.585374 -0.007198 -0.295437
v 2.311598 6.987203 -0.237084
v 2.207368 6.987203 -0.726100
v 2.311598 6.987203 -0.237084
v 2.695993 7.007198 -0.830246
v 2.311598 6.987203 -0.237084
v 2.800223 7.007198 -0.341231
v 2.695993 7.007198 -0.830246
v 2.585374 -0.007198 -0.295437
v 2.481144 -0.007198 -0.784453
v 3.073998 0.012797 -0.399584
v 2.481144 -0.007198 -0.784453
v 2.969769 0.012797 -0.888599
v 3.073998 0.012797 -0.399584
v 2.311598 6.987203 -0.237084
v 2.585374 -0.007198 -0.295437
v 2.800223 7.007198 -0.341231
v 2.585374 -0.007198 -0.295437
v 3.073998 0.012797 -0.399584
v 2.800223 7.007198 -0.341231
v 2.695993 7.007198 -0.830246
v 2.969769 0.012797 -0.888599
v 2.207368 6.987203 -0.726100
v 2.969769 0.012797 -0.888599
v 2.481144 -0.007198 -0.784453
v 2.207368 6.987203 -0.726100
vn 0.9772 0.0400 -0.2083
vn -0.9772 -0.0400 0.2083
vn -0.0391 0.9992 0.0083
vn 0.0391 -0.9992 -0.0083
vn 0.2085 -0.0000 0.9780
vn -0.2085 -0.0000 -0.9780
vt 0.000000 1.000000
vt 1.000000 0.000000
vt 0.000000 0.000000
vt 1.000000 1.000000
s 0
usemtl Material_2
f 38/5/7 39/6/7 37/7/7
f 41/8/7 42/6/7 40/5/7
f 44/5/8 45/6/8 43/7/8
f 47/8/8 48/6/8 46/5/8
f 50/5/9 51/6/9 49/7/9
f 53/8/9 54/6/9 52/5/9
f 56/5/10 57/6/10 55/7/10
f 59/8/10 60/6/10 58/5/10
f 62/5/11 63/6/11 61/7/11
f 65/8/11 66/6/11 64/5/11
f 68/5/12 69/6/12 67/7/12
f 71/8/12 72/6/12 70/5/12
o ironStructure_0025
v 2.539996 6.950000 -0.459584
v 2.539996 5.750000 -0.459584
v 2.506643 6.950000 -0.616069
v 2.539996 5.750000 -0.459584
v 2.506643 5.750000 -0.616069
v 2.506643 6.950000 -0.616069
v 2.350158 6.950000 -0.582715
v 2.350158 5.750000 -0.582715
v 2.383512 6.950000 -0.426230
v 2.350158 5.750000 -0.582715
v 2.383512 5.750000 -0.426230
v 2.383512 6.950000 -0.426230
v 2.350158 6.950000 -0.582715
v 2.383512 6.950000 -0.426230
v 2.506643 6.950000 -0.616069
v 2.383512 6.950000 -0.426230
v 2.539996 6.950000 -0.459584
v 2.506643 6.950000 -0.616069
v 2.383512 5.750000 -0.426230
v 2.350158 5.750000 -0.582715
v 2.539996 5.750000 -0.459584
v 2.350158 5.750000 -0.582715
v 2.506643 5.750000 -0.616069
v 2.539996 5.750000 -0.459584
v 2.383512 6.950000 -0.426230
v 2.383512 5.750000 -0.426230
v 2.539996 6.950000 -0.459584
v 2.383512 5.750000 -0.426230
v 2.539996 5.750000 -0.459584
v 2.539996 6.950000 -0.459584
v 2.506643 6.950000 -0.616069
v 2.506643 5.750000 -0.616069
v 2.350158 6.950000 -0.582715
v 2.506643 5.750000 -0.616069
v 2.350158 5.750000 -0.582715
v 2.350158 6.950000 -0.582715
vn 0.9780 -0.0000 -0.2085
vn -0.9780 -0.0000 0.2085
vn -0.0000 1.0000 -0.0000
vn -0.0000 -1.0000 -0.0000
vn 0.2085 -0.0000 0.9780
vn -0.2085 -0.0000 -0.9780
vt 0.000000 1.000000
vt 1.000000 0.000000
vt 0.000000 0.000000
vt 1.000000 1.000000
s 0
usemtl Material_2
f 74/9/13 75/10/13 73/11/13
f 77/12/13 78/10/13 76/9/13
f 80/9/14 81/10/14 79/11/14
f 83/12/14 84/10/14 82/9/14
f 86/9/15 87/10/15 85/11/15
f 89/12/15 90/10/15 88/9/15
f 92/9/16 93/10/16 91/11/16
f 95/12/16 96/10/16 94/9/16
f 98/9/17 99/10/17 97/11/17
f 101/12/17 102/10/17 100/9/17
f 104/9/18 105/10/18 103/11/18
f 107/12/18 108/10/18 106/9/18
o metalStructure_0006
v 3.593872 7.050000 -0.408145
v 3.593872 6.550000 -0.408145
v 3.447950 7.050000 -1.092766
v 3.593872 6.550000 -0.408145
v 3.447950 6.550000 -1.092766
v 3.447950 7.050000 -1.092766
v -3.593872 7.050000 0.408145
v -3.593872 6.550000 0.408145
v -3.447950 7.050000 1.092766
v -3.593872 6.550000 0.408145
v -3.447950 6.550000 1.092766
v -3.447950 7.050000 1.092766
v -3.593872 7.050000 0.408145
v -3.447950 7.050000 1.092766
v 3.447950 7.050000 -1.092766
v -3.447950 7.050000 1.092766
v 3.593872 7.050000 -0.408145
v 3.447950 7.050000 -1.092766
v -3.447950 6.550000 1.092766
v -3.593872 6.550000 0.408145
v 3.593872 6.550000 -0.408145
v -3.593872 6.550000 0.408145
v 3.447950 6.550000 -1.092766
v 3.593872 6.550000 -0.408145
v -3.447950 7.050000 1.092766
v -3.447950 6.550000 1.092766
v 3.593872 7.050000 -0.408145
v -3.447950 6.550000 1.092766
v 3.593872 6.550000 -0.408145
v 3.593872 7.050000 -0.408145
v 3.447950 7.050000 -1.092766
v 3.447950 6.550000 -1.092766
v -3.593872 7.050000 0.408145
v 3.447950 6.550000 -1.092766
v -3.593872 6.550000 0.408145
v -3.593872 7.050000 0.408145
vn 0.9780 -0.0000 -0.2085
vn -0.9780 -0.0000 0.2085
vn -0.0000 1.0000 -0.0000
vn -0.0000 -1.0000 -0.0000
vn 0.2085 -0.0000 0.9780
vn -0.2085 -0.0000 -0.9780
vt 0.000000 1.000000
vt 1.000000 0.000000
vt 0.000000 0.000000
vt 1.000000 1.000000
s 0
usemtl Material_2
f 110/13/19 111/14/19 109/15/19
f 113/16/19 114/14/19 112/13/19
f 116/13/20 117/14/20 115/15/20
f 119/16/20 120/14/20 118/13/20
f 122/13/21 123/14/21 121/15/21
f 125/16/21 126/14/21 124/13/21
f 128/13/22 129/14/22 127/15/22
f 131/16/22 132/14/22 130/13/22
f 134/13/23 135/14/23 133/15/23
f 137/16/23 138/14/23 136/13/23
f 140/13/24 141/14/24 139/15/24
f 143/16/24 144/14/24 142/13/24
o metalStructure_0013
v -0.042269 1.300000 1.271584
v -0.042269 0.000000 1.271584
v -0.298802 1.300000 -1.095256
v -0.042269 0.000000 1.271584
v -0.298802 0.000000 -1.095256
v -0.298802 1.300000 -1.095256
v -2.265497 1.300000 -0.882093
v -2.265497 0.000000 -0.882093
v -2.008964 1.300000 1.484747
v -2.265497 0.000000 -0.882093
v -2.008964 0.000000 1.484747
v -2.008964 1.300000 1.484747
v -2.265497 1.300000 -0.882093
v -2.008964 1.300000 1.484747
v -0.298802 1.300000 -1.095256
v -2.008964 1.300000 1.484747
v -0.042269 1.300000 1.271584
v -0.298802 1.300000 -1.095256
v -2.008964 0.000000 1.484747
v -2.265497 0.000000 -0.882093
v -0.042269 0.000000 1.271584
v -2.265497 0.000000 -0.882093
v -0.298802 0.000000 -1.095256
v -0.042269 0.000000 1.271584
v -2.008964 1.300000 1.484747
v -2.008964 0.000000 1.484747
v -0.042269 1.300000 1.271584
v -2.008964 0.000000 1.484747
v -0.042269 0.000000 1.271584
v -0.042269 1.300000 1.271584
v -0.298802 1.300000 -1.095256
v -0.298802 0.000000 -1.095256
v -2.265497 1.300000 -0.882093
v -0.298802 0.000000 -1.095256
v -2.265497 0.000000 -0.882093
v -2.265497 1.300000 -0.882093
vn 0.9942 -0.0000 -0.1078
vn -0.9942 -0.0000 0.1078
vn -0.0000 1.0000 -0.0000
vn -0.0000 -1.0000 -0.0000
vn 0.1078 -0.0000 0.9942
vn -0.1078 -0.0000 -0.9942
vt 0.000000 1.000000
vt 1.000000 0.000000
vt 0.000000 0.000000
vt 1.000000 1.000000
s 0
usemtl Material_2
f 146/17/25 147/18/25 145/19/25
f 149/20/25 150/18/25 148/17/25
f 152/17/26 153/18/26 151/19/26
f 155/20/26 156/18/26 154/17/26
f 158/17/27 159/18/27 157/19/27
f 161/20/27 162/18/27 160/17/27
f 164/17/28 165/18/28 163/19/28
f 167/20/28 168/18/28 166/17/28
f 170/17/29 171/18/29 169/19/29
f 173/20/29 174/18/29 172/17/29
f 176/17/30 177/18/30 175/19/30
f 179/20/30 180/18/30 178/17/30
o metalStructure_0022
v 3.981683 1.300000 -3.745801
v 3.981683 0.000000 -3.745801
v 3.533063 1.300000 -6.690341
v 3.981683 0.000000 -3.745801
v 3.533063 0.000000 -6.690341
v 3.533063 1.300000 -6.690341
v 1.389570 1.300000 -6.363766
v 1.389570 0.000000 -6.363766
v 1.838189 1.300000 -3.419226
v 1.389570 0.000000 -6.363766
v 1.838189 0.000000 -3.419226
v 1.838189 1.300000 -3.419226
v 1.389570 1.300000 -6.363766
v 1.838189 1.300000 -3.419226
v 3.533063 1.300000 -6.690341
v 1.838189 1.300000 -3.419226
v 3.981683 1.300000 -3.745801
v 3.533063 1.300000 -6.690341
v 1.838189 0.000000 -3.419226
v 1.389570 0.000000 -6.363766
v 3.981683 0.000000 -3.745801
v 1.389570 0.000000 -6.363766
v 3.533063 0.000000 -6.690341
v 3.981683 0.000000 -3.745801
v 1.838189 1.300000 -3.419226
v 1.838189 0.000000 -3.419226
v 3.981683 1.300000 -3.745801
v 1.838189 0.000000 -3.419226
v 3.981683 0.000000 -3.745801
v 3.981683 1.300000 -3.745801
v 3.533063 1.300000 -6.690341
v 3.533063 0.000000 -6.690341
v 1.389570 1.300000 -6.363766
v 3.533063 0.000000 -6.690341
v 1.389570 0.000000 -6.363766
v 1.389570 1.300000 -6.363766
vn 0.9886 -0.0000 -0.1506
vn -0.9886 -0.0000 0.1506
vn -0.0000 1.0000 -0.0000
vn -0.0000 -1.0000 -0.0000
vn 0.1506 -0.0000 0.9886
vn -0.1506 -0.0000 -0.9886
vt 0.000000 1.000000
vt 1.000000 0.000000
vt 0.000000 0.000000
vt 1.000000 1.000000
s 0
usemtl Material_2
f 182/21/31 183/22/31 181/23/31
f 185/24/31 186/22/31 184/21/31
f 188/21/32 189/22/32 187/23/32
f 191/24/32 192/22/32 190/21/32
f 194/21/33 195/22/33 193/23/33
f 197/24/33 198/22/33 196/21/33
f 200/21/34 201/22/34 199/23/34
f 203/24/34 204/22/34 202/21/34
f 206/21/35 207/22/35 205/23/35
f 209/24/35 210/22/35 208/21/35
f 212/21/36 213/22/36 211/23/36
f 215/24/36 216/22/36 214/21/36
o metalStructure_0032
v 2.586727 1.300000 0.234364
v 2.586727 0.000000 0.234364
v 1.831342 1.300000 -1.935520
v 2.586727 0.000000 0.234364
v 1.831342 0.000000 -1.935520
v 1.831342 1.300000 -1.935520
v -0.969041 1.300000 -0.960643
v -0.969041 0.000000 -0.960643
v -0.213656 1.300000 1.209241
v -0.969041 0.000000 -0.960643
v -0.213656 0.000000 1.209241
v -0.213656 1.300000 1.209241
v -0.969041 1.300000 -0.960643
v -0.213656 1.300000 1.209241
v 1.831342 1.300000 -1.935520
v -0.213656 1.300000 1.209241
v 2.586727 1.300000 0.234364
v 1.831342 1.300000 -1.935520
v -0.213656 0.000000 1.209241
v -0.969041 0.000000 -0.960643
v 2.586727 0.000000 0.234364
v -0.969041 0.000000 -0.960643
v 1.831342 0.000000 -1.935520
v 2.586727 0.000000 0.234364
v -0.213656 1.300000 1.209241
v -0.213656 0.000000 1.209241
v 2.586727 1.300000 0.234364
v -0.213656 0.000000 1.209241
v 2.586727 0.000000 0.234364
v 2.586727 1.300000 0.234364
v 1.831342 1.300000 -1.935520
v 1.831342 0.000000 -1.935520
v -0.969041 1.300000 -0.960643
v 1.831342 0.000000 -1.935520
v -0.969041 0.000000 -0.960643
v -0.969041 1.300000 -0.960643
vn 0.9444 -0.0000 -0.3288
vn -0.9444 -0.0000 0.3288
vn -0.0000 1.0000 -0.0000
vn -0.0000 -1.0000 -0.0000
vn 0.3288 -0.0000 0.9444
vn -0.3288 -0.0000 -0.9444
vt 0.000000 1.000000
vt 1.000000 0.000000
vt 0.000000 0.000000
vt 1.000000 1.000000
s 0
usemtl Material_2
f 218/25/37 219/26/37 217/27/37
f 221/28/37 222/26/37 220/25/37
f 224/25/38 225/26/38 223/27/38
f 227/28/38 228/26/38 226/25/38
f 230/25/39 231/26/39 229/27/39
f 233/28/39 234/26/39 232/25/39
f 236/25/40 237/26/40 235/27/40
f 239/28/40 240/26/40 238/25/40
f 242/25/41 243/26/41 241/27/41
f 245/28/41 246/26/41 244/25/41
f 248/25/42 249/26/42 247/27/42
f 251/28/42 252/26/42 250/25/42
o redStructure_0005
v 3.275621 6.100000 0.017550
v 3.275621 5.000000 0.017550
v 2.983777 6.100000 -1.351693
v 3.275621 5.000000 0.017550
v 2.983777 5.000000 -1.351693
v 2.983777 6.100000 -1.351693
v 1.614534 6.100000 -1.059850
v 1.614534 5.000000 -1.059850
v 1.906377 6.100000 0.309394
v 1.614534 5.000000 -1.059850
v 1.906377 5.000000 0.309394
v 1.906377 6.100000 0.309394
v 1.614534 6.100000 -1.059850
v 1.906377 6.100000 0.309394
v 2.983777 6.100000 -1.351693
v 1.906377 6.100000 0.309394
v 3.275621 6.100000 0.017550
v 2.983777 6.100000 -1.351693
v 1.906377 5.000000 0.309394
v 1.614534 5.000000 -1.059850
v 3.275621 5.000000 0.017550
v 1.614534 5.000000 -1.059850
v 2.983777 5.000000 -1.351693
v 3.275621 5.000000 0.017550
v 1.906377 6.100000 0.309394
v 1.906377 5.000000 0.309394
v 3.275621 6.100000 0.017550
v 1.906377 5.000000 0.309394
v 3.275621 5.000000 0.017550
v 3.275621 6.100000 0.017550
v 2.983777 6.100000 -1.351693
v 2.983777 5.000000 -1.351693
v 1.614534 6.100000 -1.059850
v 2.983777 5.000000 -1.351693
v 1.614534 5.000000 -1.059850
v 1.614534 6.100000 -1.059850
vn 0.9780 -0.0000 -0.2085
vn -0.9780 -0.0000 0.2085
vn -0.0000 1.0000 -0.0000
vn -0.0000 -1.0000 -0.0000
vn 0.2085 -0.0000 0.9780
vn -0.2085 -0.0000 -0.9780
vt 0.000000 1.000000
vt 1.000000 0.000000
vt 0.000000 0.000000
vt 1.000000 1.000000
s 0
usemtl Material_4
f 254/29/43 255/30/43 253/31/43
f 257/32/43 258/30/43 256/29/43
f 260/29/44 261/30/44 259/31/44
f 263/32/44 264/30/44 262/29/44
f 266/29/45 267/30/45 265/31/45
f 269/32/45 270/30/45 268/29/45
f 272/29/46 273/30/46 271/31/46
f 275/32/46 276/30/46 274/29/46
f 278/29/47 279/30/47 277/31/47
f 281/32/47 282/30/47 280/29/47
f 284/29/48 285/30/48 283/31/48
f 287/32/48 288/30/48 286/29/48
o redStructure_0012
v -5.509521 1.300000 -1.316241
v -5.509521 0.000000 -1.316241
v -5.830944 1.300000 -3.477666
v -5.509521 0.000000 -1.316241
v -5.830944 0.000000 -3.477666
v -5.830944 1.300000 -3.477666
v -7.610295 1.300000 -3.213061
v -7.610295 0.000000 -3.213061
v -7.288873 1.300000 -1.051636
v -7.610295 0.000000 -3.213061
v -7.288873 0.000000 -1.051636
v -7.288873 1.300000 -1.051636
v -7.610295 1.300000 -3.213061
v -7.288873 1.300000 -1.051636
v -5.830944 1.300000 -3.477666
v -7.288873 1.300000 -1.051636
v -5.509521 1.300000 -1.316241
v -5.830944 1.300000 -3.477666
v -7.288873 0.000000 -1.051636
v -7.610295 0.000000 -3.213061
v -5.509521 0.000000 -1.316241
v -7.610295 0.000000 -3.213061
v -5.830944 0.000000 -3.477666
v -5.509521 0.000000 -1.316241
v -7.288873 1.300000 -1.051636
v -7.288873 0.000000 -1.051636
v -5.509521 1.300000 -1.316241
v -7.288873 0.000000 -1.051636
v -5.509521 0.000000 -1.316241
v -5.509521 1.300000 -1.316241
v -5.830944 1.300000 -3.477666
v -5.830944 0.000000 -3.477666
v -7.610295 1.300000 -3.213061
v -5.830944 0.000000 -3.477666
v -7.610295 0.000000 -3.213061
v -7.610295 1.300000 -3.213061
vn 0.9891 -0.0000 -0.1471
vn -0.9891 -0.0000 0.1471
vn -0.0000 1.0000 -0.0000
vn -0.0000 -1.0000 -0.0000
vn 0.1471 -0.0000 0.9891
vn -0.1471 -0.0000 -0.9891
vt 0.000000 1.000000
vt 1.000000 0.000000
vt 0.000000 0.000000
vt 1.000000 1.000000
s 0
usemtl Material_4
f 290/33/49 291/34/49 289/35/49
f 293/36/49 294/34/49 292/33/49
f 296/33/50 297/34/50 295/35/50
f 299/36/50 300/34/50 298/33/50
f 302/33/51 303/34/51 301/35/51
f 305/36/51 306/34/51 304/33/51
f 308/33/52 309/34/52 307/35/52
f 311/36/52 312/34/52 310/33/52
f 314/33/53 315/34/53 313/35/53
f 317/36/53 318/34/53 316/33/53
f 320/33/54 321/34/54 319/35/54
f 323/36/54 324/34/54 322/33/54
o redStructure_0022
v -0.109581 1.300000 -3.092924
v -0.109581 0.000000 -3.092924
v -0.985393 1.300000 -5.829481
v -0.109581 0.000000 -3.092924
v -0.985393 0.000000 -5.829481
v -0.985393 1.300000 -5.829481
v -3.170387 1.300000 -5.130192
v -3.170387 0.000000 -5.130192
v -2.294576 1.300000 -2.393635
v -3.170387 0.000000 -5.130192
v -2.294576 0.000000 -2.393635
v -2.294576 1.300000 -2.393635
v -3.170387 1.300000 -5.130192
v -2.294576 1.300000 -2.393635
v -0.985393 1.300000 -5.829481
v -2.294576 1.300000 -2.393635
v -0.109581 1.300000 -3.092924
v -0.985393 1.300000 -5.829481
v -2.294576 0.000000 -2.393635
v -3.170387 0.000000 -5.130192
v -0.109581 0.000000 -3.092924
v -3.170387 0.000000 -5.130192
v -0.985393 0.000000 -5.829481
v -0.109581 0.000000 -3.092924
v -2.294576 1.300000 -2.393635
v -2.294576 0.000000 -2.393635
v -0.109581 1.300000 -3.092924
v -2.294576 0.000000 -2.393635
v -0.109581 0.000000 -3.092924
v -0.109581 1.300000 -3.092924
v -0.985393 1.300000 -5.829481
v -0.985393 0.000000 -5.829481
v -3.170387 1.300000 -5.130192
v -0.985393 0.000000 -5.829481
v -3.170387 0.000000 -5.130192
v -3.170387 1.300000 -5.130192
vn 0.9524 -0.0000 -0.3048
vn -0.9524 -0.0000 0.3048
vn -0.0000 1.0000 -0.0000
vn -0.0000 -1.0000 -0.0000
vn 0.3048 -0.0000 0.9524
vn -0.3048 -0.0000 -0.9524
vt 0.000000 1.000000
vt 1.000000 0.000000
vt 0.000000 0.000000
vt 1.000000 1.000000
s 0
usemtl Material_4
f 326/37/55 327/38/55 325/39/55
f 329/40/55 330/38/55 328/37/55
f 332/37/56 333/38/56 331/39/56
f 335/40/56 336/38/56 334/37/56
f 338/37/57 339/38/57 337/39/57
f 341/40/57 342/38/57 340/37/57
f 344/37/58 345/38/58 343/39/58
f 347/40/58 348/38/58 346/37/58
f 350/37/59 351/38/59 349/39/59
f 353/40/59 354/38/59 352/37/59
f 356/37/60 357/38/60 355/39/60
f 359/40/60 360/38/60 358/37/60
o redStructure_0032
v -3.061098 1.300000 7.011599
v -3.061098 0.000000 7.011599
v -3.285307 1.300000 4.517857
v -3.061098 0.000000 7.011599
v -3.285307 0.000000 4.517857
v -3.285307 1.300000 4.517857
v -5.030258 1.300000 4.674743
v -5.030258 0.000000 4.674743
v -4.806049 1.300000 7.168485
v -5.030258 0.000000 4.674743
v -4.806049 0.000000 7.168485
v -4.806049 1.300000 7.168485
v -5.030258 1.300000 4.674743
v -4.806049 1.300000 7.168485
v -3.285307 1.300000 4.517857
v -4.806049 1.300000 7.168485
v -3.061098 1.300000 7.011599
v -3.285307 1.300000 4.517857
v -4.806049 0.000000 7.168485
v -5.030258 0.000000 4.674743
v -3.061098 0.000000 7.011599
v -5.030258 0.000000 4.674743
v -3.285307 0.000000 4.517857
v -3.061098 0.000000 7.011599
v -4.806049 1.300000 7.168485
v -4.806049 0.000000 7.168485
v -3.061098 1.300000 7.011599
v -4.806049 0.000000 7.168485
v -3.061098 0.000000 7.011599
v -3.061098 1.300000 7.011599
v -3.285307 1.300000 4.517857
v -3.285307 0.000000 4.517857
v -5.030258 1.300000 4.674743
v -3.285307 0.000000 4.517857
v -5.030258 0.000000 4.674743
v -5.030258 1.300000 4.674743
vn 0.9960 -0.0000 -0.0895
vn -0.9960 -0.0000 0.0895
vn -0.0000 1.0000 -0.0000
vn -0.0000 -1.0000 -0.0000
vn 0.0895 -0.0000 0.9960
vn -0.0895 -0.0000 -0.9960
vt 0.000000 1.000000
vt 1.000000 0.000000
vt 0.000000 0.000000
vt 1.000000 1.000000
s 0
usemtl Material_4
f 362/41/61 363/42/61 361/43/61
f 365/44/61 366/42/61 364/41/61
f 368/41/62 369/42/62 367/43/62
f 371/44/62 372/42/62 370/41/62
f 374/41/63 375/42/63 373/43/63
f 377/44/63 378/42/63 376/41/63
f 380/41/64 381/42/64 379/43/64
f 383/44/64 384/42/64 382/41/64
f 386/41/65 387/42/65 385/43/65
f 389/44/65 390/42/65 388/41/65
f 392/41/66 393/42/66 391/43/66
f 395/44/66 396/42/66 394/41/66
o redStructure_0042
v 5.756844 1.300000 -0.027895
v 5.756844 0.000000 -0.027895
v 5.049905 1.300000 -2.067951
v 5.756844 0.000000 -0.027895
v 5.049905 0.000000 -2.067951
v 5.049905 1.300000 -2.067951
v 2.633732 1.300000 -1.230676
v 2.633732 0.000000 -1.230676
v 3.340671 1.300000 0.809380
v 2.633732 0.000000 -1.230676
v 3.340671 0.000000 0.809380
v 3.340671 1.300000 0.809380
v 2.633732 1.300000 -1.230676
v 3.340671 1.300000 0.809380
v 5.049905 1.300000 -2.067951
v 3.340671 1.300000 0.809380
v 5.756844 1.300000 -0.027895
v 5.049905 1.300000 -2.067951
v 3.340671 0.000000 0.809380
v 2.633732 0.000000 -1.230676
v 5.756844 0.000000 -0.027895
v 2.633732 0.000000 -1.230676
v 5.049905 0.000000 -2.067951
v 5.756844 0.000000 -0.027895
v 3.340671 1.300000 0.809380
v 3.340671 0.000000 0.809380
v 5.756844 1.300000 -0.027895
v 3.340671 0.000000 0.809380
v 5.756844 0.000000 -0.027895
v 5.756844 1.300000 -0.027895
v 5.049905 1.300000 -2.067951
v 5.049905 0.000000 -2.067951
v 2.633732 1.300000 -1.230676
v 5.049905 0.000000 -2.067951
v 2.633732 0.000000 -1.230676
v 2.633732 1.300000 -1.230676
vn 0.9449 -0.0000 -0.3274
vn -0.9449 -0.0000 0.3274
vn -0.0000 1.0000 -0.0000
vn -0.0000 -1.0000 -0.0000
vn 0.3274 -0.0000 0.9449
vn -0.3274 -0.0000 -0.9449
vt 0.000000 1.000000
vt 1.000000 0.000000
vt 0.000000 0.000000
vt 1.000000 1.000000
s 0
usemtl Material_4
f 398/45/67 399/46/67 397/47/67
f 401/48/67 402/46/67 400/45/67
f 404/45/68 405/46/68 403/47/68
f 407/48/68 408/46/68 406/45/68
f 410/45/69 411/46/69 409/47/69
f 413/48/69 414/46/69 412/45/69
f 416/45/70 417/46/70 415/47/70
f 419/48/70 420/46/70 418/45/70
f 422/45/71 423/46/71 421/47/71
f 425/48/71 426/46/71 424/45/71
f 428/45/72 429/46/72 427/47/72
f 431/48/72 432/46/72 430/45/72
o MilitaryStructure6
v -2.420153 0.260000 3.276486
v -2.861214 0.260000 -2.150803
v -1.735531 0.260000 3.130564
v -3.545836 0.260000 -2.004881
v -2.420153 0.000000 3.276486
v -2.861214 0.000000 -2.150803
v -1.735531 0.000000 3.130564
v -3.545836 0.000000 -2.004881
v -1.735531 0.260000 3.130564
v -3.545836 0.260000 -2.004881
v -2.861214 0.260000 -2.150803
v -2.420153 0.260000 3.276486
v -1.735531 0.000000 3.130564
v -3.545836 0.000000 -2.004881
v -2.861214 0.000000 -2.150803
v -2.420153 0.000000 3.276486
v -1.735531 0.260000 3.130564
v -2.420153 0.000000 3.276486
v -2.420153 0.260000 3.276486
v -1.735531 0.000000 3.130564
v -2.861214 0.260000 -2.150803
v -3.545836 0.000000 -2.004881
v -3.545836 0.260000 -2.004881
v -2.861214 0.000000 -2.150803
v 2.861214 0.260000 2.150803
v 2.420153 0.260000 -3.276486
v 3.545836 0.260000 2.004881
v 1.735531 0.260000 -3.130564
v 2.861214 0.000000 2.150803
v 2.420153 0.000000 -3.276486
v 3.545836 0.000000 2.004881
v 1.735531 0.000000 -3.130564
v 3.545836 0.260000 2.004881
v 1.735531 0.260000 -3.130564
v 2.420153 0.260000 -3.276486
v 2.861214 0.260000 2.150803
v 3.545836 0.000000 2.004881
v 1.735531 0.000000 -3.130564
v 2.420153 0.000000 -3.276486
v 2.861214 0.000000 2.150803
v 3.545836 0.260000 2.004881
v 2.861214 0.000000 2.150803
v 2.861214 0.260000 2.150803
v 3.545836 0.000000 2.004881
v 2.420153 0.260000 -3.276486
v 1.735531 0.000000 -3.130564
v 1.735531 0.260000 -3.130564
v 2.420153 0.000000 -3.276486
v -3.024340 6.360000 1.401237
v -1.956845 6.360000 1.132810
v -1.948506 6.360000 1.171932
v -3.032679 6.360000 1.362116
v -3.024340 5.840000 1.401237
v -1.956845 5.840000 1.132810
v -1.948506 5.840000 1.171932
v -3.032679 5.840000 1.362116
v -1.948506 6.360000 1.171932
v -3.032679 6.360000 1.362116
v -1.956845 6.360000 1.132810
v -3.024340 6.360000 1.401237
v -1.948506 5.840000 1.171932
v -3.032679 5.840000 1.362116
v -1.956845 5.840000 1.132810
v -3.024340 5.840000 1.401237
v -1.948506 6.360000 1.171932
v -3.024340 5.840000 1.401237
v -3.024340 6.360000 1.401237
v -1.948506 5.840000 1.171932
v -1.956845 6.360000 1.132810
v -3.032679 5.840000 1.362116
v -3.032679 6.360000 1.362116
v -1.956845 5.840000 1.132810
v -3.126877 1.200000 1.279948
v -2.154490 1.200000 -0.154264
v -1.904338 1.200000 1.019373
v -3.377029 1.200000 0.106311
v -3.126877 1.000000 1.279948
v -2.154490 1.000000 -0.154264
v -1.904338 1.000000 1.019373
v -3.377029 1.000000 0.106311
v -1.904338 1.200000 1.019373
v -3.377029 1.200000 0.106311
v -2.154490 1.200000 -0.154264
v -3.126877 1.200000 1.279948
v -1.904338 1.000000 1.019373
v -3.377029 1.000000 0.106311
v -2.154490 1.000000 -0.154264
v -3.126877 1.000000 1.279948
v -1.904338 1.200000 1.019373
v -3.126877 1.000000 1.279948
v -3.126877 1.200000 1.279948
v -1.904338 1.000000 1.019373
v -2.154490 1.200000 -0.154264
v -3.377029 1.000000 0.106311
v -3.377029 1.200000 0.106311
v -2.154490 1.000000 -0.154264
v 2.154490 1.200000 0.154264
v 3.126877 1.200000 -1.279948
v 3.377029 1.200000 -0.106311
v 1.904338 1.200000 -1.019373
v 2.154490 1.000000 0.154264
v 3.126877 1.000000 -1.279948
v 3.377029 1.000000 -0.106311
v 1.904338 1.000000 -1.019373
v 3.377029 1.200000 -0.106311
v 1.904338 1.200000 -1.019373
v 3.126877 1.200000 -1.279948
v 2.154490 1.200000 0.154264
v 3.377029 1.000000 -0.106311
v 1.904338 1.000000 -1.019373
v 3.126877 1.000000 -1.279948
v 2.154490 1.000000 0.154264
v 3.377029 1.200000 -0.106311
v 2.154490 1.000000 0.154264
v 2.154490 1.200000 0.154264
v 3.377029 1.000000 -0.106311
v 3.126877 1.200000 -1.279948
v 1.904338 1.000000 -1.019373
v 1.904338 1.200000 -1.019373
v 3.126877 1.000000 -1.279948
v -3.591788 7.390000 0.417925
v 3.433358 7.390000 -1.161229
v 3.450035 7.390000 -1.082986
v -3.608464 7.390000 0.339683
v -3.591788 7.310000 0.417925
v 3.433358 7.310000 -1.161229
v 3.450035 7.310000 -1.082986
v -3.608464 7.310000 0.339683
v 3.450035 7.390000 -1.082986
v -3.608464 7.390000 0.339683
v 3.433358 7.390000 -1.161229
v -3.591788 7.390000 0.417925
v 3.450035 7.310000 -1.082986
v -3.608464 7.310000 0.339683
v 3.433358 7.310000 -1.161229
v -3.591788 7.310000 0.417925
v 3.450035 7.390000 -1.082986
v -3.591788 7.310000 0.417925
v -3.591788 7.390000 0.417925
v 3.450035 7.310000 -1.082986
v 3.433358 7.390000 -1.161229
v -3.608464 7.310000 0.339683
v -3.608464 7.390000 0.339683
v 3.433358 7.310000 -1.161229
v -3.431455 7.350000 0.378639
v -3.377585 7.350000 0.295585
v -3.362993 7.350000 0.364047
v -3.446047 7.350000 0.310177
v -3.431455 6.850000 0.378639
v -3.377585 6.850000 0.295585
v -3.362993 6.850000 0.364047
v -3.446047 6.850000 0.310177
v -3.362993 7.350000 0.364047
v -3.446047 7.350000 0.310177
v -3.377585 7.350000 0.295585
v -3.431455 7.350000 0.378639
v -3.362993 6.850000 0.364047
v -3.446047 6.850000 0.310177
v -3.377585 6.850000 0.295585
v -3.431455 6.850000 0.378639
v -3.362993 7.350000 0.364047
v -3.431455 6.850000 0.378639
v -3.431455 7.350000 0.378639
v -3.362993 6.850000 0.364047
v -3.377585 7.350000 0.295585
v -3.446047 6.850000 0.310177
v -3.446047 7.350000 0.310177
v -3.377585 6.850000 0.295585
v -1.768802 7.350000 0.024257
v -1.714932 7.350000 -0.058797
v -1.700340 7.350000 0.009665
v -1.783395 7.350000 -0.044205
v -1.768802 6.850000 0.024257
v -1.714932 6.850000 -0.058797
v -1.700340 6.850000 0.009665
v -1.783395 6.850000 -0.044205
v -1.700340 7.350000 0.009665
v -1.783395 7.350000 -0.044205
v -1.714932 7.350000 -0.058797
v -1.768802 7.350000 0.024257
v -1.700340 6.850000 0.009665
v -1.783395 6.850000 -0.044205
v -1.714932 6.850000 -0.058797
v -1.768802 6.850000 0.024257
v -1.700340 7.350000 0.009665
v -1.768802 6.850000 0.024257
v -1.768802 7.350000 0.024257
v -1.700340 6.850000 0.009665
v -1.714932 7.350000 -0.058797
v -1.783395 6.850000 -0.044205
v -1.783395 7.350000 -0.044205
v -1.714932 6.850000 -0.058797
v -0.106150 7.350000 -0.330125
v -0.052280 7.350000 -0.413179
v -0.037688 7.350000 -0.344717
v -0.120742 7.350000 -0.398587
v -0.106150 6.850000 -0.330125
v -0.052280 6.850000 -0.413179
v -0.037688 6.850000 -0.344717
v -0.120742 6.850000 -0.398587
v -0.037688 7.350000 -0.344717
v -0.120742 7.350000 -0.398587
v -0.052280 7.350000 -0.413179
v -0.106150 7.350000 -0.330125
v -0.037688 6.850000 -0.344717
v -0.120742 6.850000 -0.398587
v -0.052280 6.850000 -0.413179
v -0.106150 6.850000 -0.330125
v -0.037688 7.350000 -0.344717
v -0.106150 6.850000 -0.330125
v -0.106150 7.350000 -0.330125
v -0.037688 6.850000 -0.344717
v -0.052280 7.350000 -0.413179
v -0.120742 6.850000 -0.398587
v -0.120742 7.350000 -0.398587
v -0.052280 6.850000 -0.413179
v 1.556503 7.350000 -0.684506
v 1.610373 7.350000 -0.767561
v 1.624965 7.350000 -0.699099
v 1.541911 7.350000 -0.752969
v 1.556503 6.850000 -0.684506
v 1.610373 6.850000 -0.767561
v 1.624965 6.850000 -0.699099
v 1.541911 6.850000 -0.752969
v 1.624965 7.350000 -0.699099
v 1.541911 7.350000 -0.752969
v 1.610373 7.350000 -0.767561
v 1.556503 7.350000 -0.684506
v 1.624965 6.850000 -0.699099
v 1.541911 6.850000 -0.752969
v 1.610373 6.850000 -0.767561
v 1.556503 6.850000 -0.684506
v 1.624965 7.350000 -0.699099
v 1.556503 6.850000 -0.684506
v 1.556503 7.350000 -0.684506
v 1.624965 6.850000 -0.699099
v 1.610373 7.350000 -0.767561
v 1.541911 6.850000 -0.752969
v 1.541911 7.350000 -0.752969
v 1.610373 6.850000 -0.767561
v 3.219155 7.350000 -1.038888
v 3.273026 7.350000 -1.121943
v 3.287618 7.350000 -1.053480
v 3.204563 7.350000 -1.107350
v 3.219155 6.850000 -1.038888
v 3.273026 6.850000 -1.121943
v 3.287618 6.850000 -1.053480
v 3.204563 6.850000 -1.107350
v 3.287618 7.350000 -1.053480
v 3.204563 7.350000 -1.107350
v 3.273026 7.350000 -1.121943
v 3.219155 7.350000 -1.038888
v 3.287618 6.850000 -1.053480
v 3.204563 6.850000 -1.107350
v 3.273026 6.850000 -1.121943
v 3.219155 6.850000 -1.038888
v 3.287618 7.350000 -1.053480
v 3.219155 6.850000 -1.038888
v 3.219155 7.350000 -1.038888
v 3.287618 6.850000 -1.053480
v 3.273026 7.350000 -1.121943
v 3.204563 6.850000 -1.107350
v 3.204563 7.350000 -1.107350
v 3.273026 6.850000 -1.121943
v -3.433358 7.390000 1.161229
v 3.591788 7.390000 -0.417925
v 3.608464 7.390000 -0.339683
v -3.450035 7.390000 1.082986
v -3.433358 7.310000 1.161229
v 3.591788 7.310000 -0.417925
v 3.608464 7.310000 -0.339683
v -3.450035 7.310000 1.082986
v 3.608464 7.390000 -0.339683
v -3.450035 7.390000 1.082986
v 3.591788 7.390000 -0.417925
v -3.433358 7.390000 1.161229
v 3.608464 7.310000 -0.339683
v -3.450035 7.310000 1.082986
v 3.591788 7.310000 -0.417925
v -3.433358 7.310000 1.161229
v 3.608464 7.390000 -0.339683
v -3.433358 7.310000 1.161229
v -3.433358 7.390000 1.161229
v 3.608464 7.310000 -0.339683
v 3.591788 7.390000 -0.417925
v -3.450035 7.310000 1.082986
v -3.450035 7.390000 1.082986
v 3.591788 7.310000 -0.417925
v -3.273026 7.350000 1.121943
v -3.219155 7.350000 1.038888
v -3.204563 7.350000 1.107350
v -3.287618 7.350000 1.053480
v -3.273026 6.850000 1.121943
v -3.219155 6.850000 1.038888
v -3.204563 6.850000 1.107350
v -3.287618 6.850000 1.053480
v -3.204563 7.350000 1.107350
v -3.287618 7.350000 1.053480
v -3.219155 7.350000 1.038888
v -3.273026 7.350000 1.121943
v -3.204563 6.850000 1.107350
v -3.287618 6.850000 1.053480
v -3.219155 6.850000 1.038888
v -3.273026 6.850000 1.121943
v -3.204563 7.350000 1.107350
v -3.273026 6.850000 1.121943
v -3.273026 7.350000 1.121943
v -3.204563 6.850000 1.107350
v -3.219155 7.350000 1.038888
v -3.287618 6.850000 1.053480
v -3.287618 7.350000 1.053480
v -3.219155 6.850000 1.038888
v -1.610373 7.350000 0.767561
v -1.556503 7.350000 0.684506
v -1.541911 7.350000 0.752969
v -1.624965 7.350000 0.699099
v -1.610373 6.850000 0.767561
v -1.556503 6.850000 0.684506
v -1.541911 6.850000 0.752969
v -1.624965 6.850000 0.699099
v -1.541911 7.350000 0.752969
v -1.624965 7.350000 0.699099
v -1.556503 7.350000 0.684506
v -1.610373 7.350000 0.767561
v -1.541911 6.850000 0.752969
v -1.624965 6.850000 0.699099
v -1.556503 6.850000 0.684506
v -1.610373 6.850000 0.767561
v -1.541911 7.350000 0.752969
v -1.610373 6.850000 0.767561
v -1.610373 7.350000 0.767561
v -1.541911 6.850000 0.752969
v -1.556503 7.350000 0.684506
v -1.624965 6.850000 0.699099
v -1.624965 7.350000 0.699099
v -1.556503 6.850000 0.684506
v 0.052280 7.350000 0.413179
v 0.106150 7.350000 0.330125
v 0.120742 7.350000 0.398587
v 0.037688 7.350000 0.344717
v 0.052280 6.850000 0.413179
v 0.106150 6.850000 0.330125
v 0.120742 6.850000 0.398587
v 0.037688 6.850000 0.344717
v 0.120742 7.350000 0.398587
v 0.037688 7.350000 0.344717
v 0.106150 7.350000 0.330125
v 0.052280 7.350000 0.413179
v 0.120742 6.850000 0.398587
v 0.037688 6.850000 0.344717
v 0.106150 6.850000 0.330125
v 0.052280 6.850000 0.413179
v 0.120742 7.350000 0.398587
v 0.052280 6.850000 0.413179
v 0.052280 7.350000 0.413179
v 0.120742 6.850000 0.398587
v 0.106150 7.350000 0.330125
v 0.037688 6.850000 0.344717
v 0.037688 7.350000 0.344717
v 0.106150 6.850000 0.330125
v 1.714932 7.350000 0.058797
v 1.768802 7.350000 -0.024257
v 1.783395 7.350000 0.044205
v 1.700340 7.350000 -0.009665
v 1.714932 6.850000 0.058797
v 1.768802 6.850000 -0.024257
v 1.783395 6.850000 0.044205
v 1.700340 6.850000 -0.009665
v 1.783395 7.350000 0.044205
v 1.700340 7.350000 -0.009665
v 1.768802 7.350000 -0.024257
v 1.714932 7.350000 0.058797
v 1.783395 6.850000 0.044205
v 1.700340 6.850000 -0.009665
v 1.768802 6.850000 -0.024257
v 1.714932 6.850000 0.058797
v 1.783395 7.350000 0.044205
v 1.714932 6.850000 0.058797
v 1.714932 7.350000 0.058797
v 1.783395 6.850000 0.044205
v 1.768802 7.350000 -0.024257
v 1.700340 6.850000 -0.009665
v 1.700340 7.350000 -0.009665
v 1.768802 6.850000 -0.024257
v 3.377585 7.350000 -0.295585
v 3.431455 7.350000 -0.378639
v 3.446047 7.350000 -0.310177
v 3.362993 7.350000 -0.364047
v 3.377585 6.850000 -0.295585
v 3.431455 6.850000 -0.378639
v 3.446047 6.850000 -0.310177
v 3.362993 6.850000 -0.364047
v 3.446047 7.350000 -0.310177
v 3.362993 7.350000 -0.364047
v 3.431455 7.350000 -0.378639
v 3.377585 7.350000 -0.295585
v 3.446047 6.850000 -0.310177
v 3.362993 6.850000 -0.364047
v 3.431455 6.850000 -0.378639
v 3.377585 6.850000 -0.295585
v 3.446047 7.350000 -0.310177
v 3.377585 6.850000 -0.295585
v 3.377585 7.350000 -0.295585
v 3.446047 6.850000 -0.310177
v 3.431455 7.350000 -0.378639
v 3.362993 6.850000 -0.364047
v 3.362993 7.350000 -0.364047
v 3.431455 6.850000 -0.378639
v -2.819831 0.330000 1.521242
v -2.107154 0.330000 1.267094
v -2.086308 0.330000 1.364897
v -2.840677 0.330000 1.423439
v -2.819831 0.270000 1.521242
v -2.107154 0.270000 1.267094
v -2.086308 0.270000 1.364897
v -2.840677 0.270000 1.423439
v -2.086308 0.330000 1.364897
v -2.840677 0.330000 1.423439
v -2.107154 0.330000 1.267094
v -2.819831 0.330000 1.521242
v -2.086308 0.270000 1.364897
v -2.840677 0.270000 1.423439
v -2.107154 0.270000 1.267094
v -2.819831 0.270000 1.521242
v -2.086308 0.330000 1.364897
v -2.819831 0.270000 1.521242
v -2.819831 0.330000 1.521242
v -2.086308 0.270000 1.364897
v -2.107154 0.330000 1.267094
v -2.840677 0.270000 1.423439
v -2.840677 0.330000 1.423439
v -2.107154 0.270000 1.267094
v -2.819831 0.650000 1.521242
v -2.107154 0.650000 1.267094
v -2.086308 0.650000 1.364897
v -2.840677 0.650000 1.423439
v -2.819831 0.590000 1.521242
v -2.107154 0.590000 1.267094
v -2.086308 0.590000 1.364897
v -2.840677 0.590000 1.423439
v -2.086308 0.650000 1.364897
v -2.840677 0.650000 1.423439
v -2.107154 0.650000 1.267094
v -2.819831 0.650000 1.521242
v -2.086308 0.590000 1.364897
v -2.840677 0.590000 1.423439
v -2.107154 0.590000 1.267094
v -2.819831 0.590000 1.521242
v -2.086308 0.650000 1.364897
v -2.819831 0.590000 1.521242
v -2.819831 0.650000 1.521242
v -2.086308 0.590000 1.364897
v -2.107154 0.650000 1.267094
v -2.840677 0.590000 1.423439
v -2.840677 0.650000 1.423439
v -2.107154 0.590000 1.267094
v -2.819831 0.970000 1.521242
v -2.107154 0.970000 1.267094
v -2.086308 0.970000 1.364897
v -2.840677 0.970000 1.423439
v -2.819831 0.910000 1.521242
v -2.107154 0.910000 1.267094
v -2.086308 0.910000 1.364897
v -2.840677 0.910000 1.423439
v -2.086308 0.970000 1.364897
v -2.840677 0.970000 1.423439
v -2.107154 0.970000 1.267094
v -2.819831 0.970000 1.521242
v -2.086308 0.910000 1.364897
v -2.840677 0.910000 1.423439
v -2.107154 0.910000 1.267094
v -2.819831 0.910000 1.521242
v -2.086308 0.970000 1.364897
v -2.819831 0.910000 1.521242
v -2.819831 0.970000 1.521242
v -2.086308 0.910000 1.364897
v -2.107154 0.970000 1.267094
v -2.840677 0.910000 1.423439
v -2.840677 0.970000 1.423439
v -2.107154 0.910000 1.267094
v -2.819831 1.290000 1.521242
v -2.107154 1.290000 1.267094
v -2.086308 1.290000 1.364897
v -2.840677 1.290000 1.423439
v -2.819831 1.230000 1.521242
v -2.107154 1.230000 1.267094
v -2.086308 1.230000 1.364897
v -2.840677 1.230000 1.423439
v -2.086308 1.290000 1.364897
v -2.840677 1.290000 1.423439
v -2.107154 1.290000 1.267094
v -2.819831 1.290000 1.521242
v -2.086308 1.230000 1.364897
v -2.840677 1.230000 1.423439
v -2.107154 1.230000 1.267094
v -2.819831 1.230000 1.521242
v -2.086308 1.290000 1.364897
v -2.819831 1.230000 1.521242
v -2.819831 1.290000 1.521242
v -2.086308 1.230000 1.364897
v -2.107154 1.290000 1.267094
v -2.840677 1.230000 1.423439
v -2.840677 1.290000 1.423439
v -2.107154 1.230000 1.267094
v -2.819831 1.610000 1.521242
v -2.107154 1.610000 1.267094
v -2.086308 1.610000 1.364897
v -2.840677 1.610000 1.423439
v -2.819831 1.550000 1.521242
v -2.107154 1.550000 1.267094
v -2.086308 1.550000 1.364897
v -2.840677 1.550000 1.423439
v -2.086308 1.610000 1.364897
v -2.840677 1.610000 1.423439
v -2.107154 1.610000 1.267094
v -2.819831 1.610000 1.521242
v -2.086308 1.550000 1.364897
v -2.840677 1.550000 1.423439
v -2.107154 1.550000 1.267094
v -2.819831 1.550000 1.521242
v -2.086308 1.610000 1.364897
v -2.819831 1.550000 1.521242
v -2.819831 1.610000 1.521242
v -2.086308 1.550000 1.364897
v -2.107154 1.610000 1.267094
v -2.840677 1.550000 1.423439
v -2.840677 1.610000 1.423439
v -2.107154 1.550000 1.267094
v -2.819831 1.930000 1.521242
v -2.107154 1.930000 1.267094
v -2.086308 1.930000 1.364897
v -2.840677 1.930000 1.423439
v -2.819831 1.870000 1.521242
v -2.107154 1.870000 1.267094
v -2.086308 1.870000 1.364897
v -2.840677 1.870000 1.423439
v -2.086308 1.930000 1.364897
v -2.840677 1.930000 1.423439
v -2.107154 1.930000 1.267094
v -2.819831 1.930000 1.521242
v -2.086308 1.870000 1.364897
v -2.840677 1.870000 1.423439
v -2.107154 1.870000 1.267094
v -2.819831 1.870000 1.521242
v -2.086308 1.930000 1.364897
v -2.819831 1.870000 1.521242
v -2.819831 1.930000 1.521242
v -2.086308 1.870000 1.364897
v -2.107154 1.930000 1.267094
v -2.840677 1.870000 1.423439
v -2.840677 1.930000 1.423439
v -2.107154 1.870000 1.267094
v -2.819831 2.250000 1.521242
v -2.107154 2.250000 1.267094
v -2.086308 2.250000 1.364897
v -2.840677 2.250000 1.423439
v -2.819831 2.190000 1.521242
v -2.107154 2.190000 1.267094
v -2.086308 2.190000 1.364897
v -2.840677 2.190000 1.423439
v -2.086308 2.250000 1.364897
v -2.840677 2.250000 1.423439
v -2.107154 2.250000 1.267094
v -2.819831 2.250000 1.521242
v -2.086308 2.190000 1.364897
v -2.840677 2.190000 1.423439
v -2.107154 2.190000 1.267094
v -2.819831 2.190000 1.521242
v -2.086308 2.250000 1.364897
v -2.819831 2.190000 1.521242
v -2.819831 2.250000 1.521242
v -2.086308 2.190000 1.364897
v -2.107154 2.250000 1.267094
v -2.840677 2.190000 1.423439
v -2.840677 2.250000 1.423439
v -2.107154 2.190000 1.267094
v -2.819831 2.570000 1.521242
v -2.107154 2.570000 1.267094
v -2.086308 2.570000 1.364897
v -2.840677 2.570000 1.423439
v -2.819831 2.510000 1.521242
v -2.107154 2.510000 1.267094
v -2.086308 2.510000 1.364897
v -2.840677 2.510000 1.423439
v -2.086308 2.570000 1.364897
v -2.840677 2.570000 1.423439
v -2.107154 2.570000 1.267094
v -2.819831 2.570000 1.521242
v -2.086308 2.510000 1.364897
v -2.840677 2.510000 1.423439
v -2.107154 2.510000 1.267094
v -2.819831 2.510000 1.521242
v -2.086308 2.570000 1.364897
v -2.819831 2.510000 1.521242
v -2.819831 2.570000 1.521242
v -2.086308 2.510000 1.364897
v -2.107154 2.570000 1.267094
v -2.840677 2.510000 1.423439
v -2.840677 2.570000 1.423439
v -2.107154 2.510000 1.267094
v -2.819831 2.890000 1.521242
v -2.107154 2.890000 1.267094
v -2.086308 2.890000 1.364897
v -2.840677 2.890000 1.423439
v -2.819831 2.830000 1.521242
v -2.107154 2.830000 1.267094
v -2.086308 2.830000 1.364897
v -2.840677 2.830000 1.423439
v -2.086308 2.890000 1.364897
v -2.840677 2.890000 1.423439
v -2.107154 2.890000 1.267094
v -2.819831 2.890000 1.521242
v -2.086308 2.830000 1.364897
v -2.840677 2.830000 1.423439
v -2.107154 2.830000 1.267094
v -2.819831 2.830000 1.521242
v -2.086308 2.890000 1.364897
v -2.819831 2.830000 1.521242
v -2.819831 2.890000 1.521242
v -2.086308 2.830000 1.364897
v -2.107154 2.890000 1.267094
v -2.840677 2.830000 1.423439
v -2.840677 2.890000 1.423439
v -2.107154 2.830000 1.267094
v -2.819831 3.210000 1.521242
v -2.107154 3.210000 1.267094
v -2.086308 3.210000 1.364897
v -2.840677 3.210000 1.423439
v -2.819831 3.150000 1.521242
v -2.107154 3.150000 1.267094
v -2.086308 3.150000 1.364897
v -2.840677 3.150000 1.423439
v -2.086308 3.210000 1.364897
v -2.840677 3.210000 1.423439
v -2.107154 3.210000 1.267094
v -2.819831 3.210000 1.521242
v -2.086308 3.150000 1.364897
v -2.840677 3.150000 1.423439
v -2.107154 3.150000 1.267094
v -2.819831 3.150000 1.521242
v -2.086308 3.210000 1.364897
v -2.819831 3.150000 1.521242
v -2.819831 3.210000 1.521242
v -2.086308 3.150000 1.364897
v -2.107154 3.210000 1.267094
v -2.840677 3.150000 1.423439
v -2.840677 3.210000 1.423439
v -2.107154 3.150000 1.267094
v -2.819831 3.530000 1.521242
v -2.107154 3.530000 1.267094
v -2.086308 3.530000 1.364897
v -2.840677 3.530000 1.423439
v -2.819831 3.470000 1.521242
v -2.107154 3.470000 1.267094
v -2.086308 3.470000 1.364897
v -2.840677 3.470000 1.423439
v -2.086308 3.530000 1.364897
v -2.840677 3.530000 1.423439
v -2.107154 3.530000 1.267094
v -2.819831 3.530000 1.521242
v -2.086308 3.470000 1.364897
v -2.840677 3.470000 1.423439
v -2.107154 3.470000 1.267094
v -2.819831 3.470000 1.521242
v -2.086308 3.530000 1.364897
v -2.819831 3.470000 1.521242
v -2.819831 3.530000 1.521242
v -2.086308 3.470000 1.364897
v -2.107154 3.530000 1.267094
v -2.840677 3.470000 1.423439
v -2.840677 3.530000 1.423439
v -2.107154 3.470000 1.267094
v -2.819831 3.850000 1.521242
v -2.107154 3.850000 1.267094
v -2.086308 3.850000 1.364897
v -2.840677 3.850000 1.423439
v -2.819831 3.790000 1.521242
v -2.107154 3.790000 1.267094
v -2.086308 3.790000 1.364897
v -2.840677 3.790000 1.423439
v -2.086308 3.850000 1.364897
v -2.840677 3.850000 1.423439
v -2.107154 3.850000 1.267094
v -2.819831 3.850000 1.521242
v -2.086308 3.790000 1.364897
v -2.840677 3.790000 1.423439
v -2.107154 3.790000 1.267094
v -2.819831 3.790000 1.521242
v -2.086308 3.850000 1.364897
v -2.819831 3.790000 1.521242
v -2.819831 3.850000 1.521242
v -2.086308 3.790000 1.364897
v -2.107154 3.850000 1.267094
v -2.840677 3.790000 1.423439
v -2.840677 3.850000 1.423439
v -2.107154 3.790000 1.267094
v -2.819831 4.170000 1.521242
v -2.107154 4.170000 1.267094
v -2.086308 4.170000 1.364897
v -2.840677 4.170000 1.423439
v -2.819831 4.110000 1.521242
v -2.107154 4.110000 1.267094
v -2.086308 4.110000 1.364897
v -2.840677 4.110000 1.423439
v -2.086308 4.170000 1.364897
v -2.840677 4.170000 1.423439
v -2.107154 4.170000 1.267094
v -2.819831 4.170000 1.521242
v -2.086308 4.110000 1.364897
v -2.840677 4.110000 1.423439
v -2.107154 4.110000 1.267094
v -2.819831 4.110000 1.521242
v -2.086308 4.170000 1.364897
v -2.819831 4.110000 1.521242
v -2.819831 4.170000 1.521242
v -2.086308 4.110000 1.364897
v -2.107154 4.170000 1.267094
v -2.840677 4.110000 1.423439
v -2.840677 4.170000 1.423439
v -2.107154 4.110000 1.267094
v -2.819831 4.490000 1.521242
v -2.107154 4.490000 1.267094
v -2.086308 4.490000 1.364897
v -2.840677 4.490000 1.423439
v -2.819831 4.430000 1.521242
v -2.107154 4.430000 1.267094
v -2.086308 4.430000 1.364897
v -2.840677 4.430000 1.423439
v -2.086308 4.490000 1.364897
v -2.840677 4.490000 1.423439
v -2.107154 4.490000 1.267094
v -2.819831 4.490000 1.521242
v -2.086308 4.430000 1.364897
v -2.840677 4.430000 1.423439
v -2.107154 4.430000 1.267094
v -2.819831 4.430000 1.521242
v -2.086308 4.490000 1.364897
v -2.819831 4.430000 1.521242
v -2.819831 4.490000 1.521242
v -2.086308 4.430000 1.364897
v -2.107154 4.490000 1.267094
v -2.840677 4.430000 1.423439
v -2.840677 4.490000 1.423439
v -2.107154 4.430000 1.267094
v -2.819831 4.810000 1.521242
v -2.107154 4.810000 1.267094
v -2.086308 4.810000 1.364897
v -2.840677 4.810000 1.423439
v -2.819831 4.750000 1.521242
v -2.107154 4.750000 1.267094
v -2.086308 4.750000 1.364897
v -2.840677 4.750000 1.423439
v -2.086308 4.810000 1.364897
v -2.840677 4.810000 1.423439
v -2.107154 4.810000 1.267094
v -2.819831 4.810000 1.521242
v -2.086308 4.750000 1.364897
v -2.840677 4.750000 1.423439
v -2.107154 4.750000 1.267094
v -2.819831 4.750000 1.521242
v -2.086308 4.810000 1.364897
v -2.819831 4.750000 1.521242
v -2.819831 4.810000 1.521242
v -2.086308 4.750000 1.364897
v -2.107154 4.810000 1.267094
v -2.840677 4.750000 1.423439
v -2.840677 4.810000 1.423439
v -2.107154 4.750000 1.267094
v -2.819831 5.130000 1.521242
v -2.107154 5.130000 1.267094
v -2.086308 5.130000 1.364897
v -2.840677 5.130000 1.423439
v -2.819831 5.070000 1.521242
v -2.107154 5.070000 1.267094
v -2.086308 5.070000 1.364897
v -2.840677 5.070000 1.423439
v -2.086308 5.130000 1.364897
v -2.840677 5.130000 1.423439
v -2.107154 5.130000 1.267094
v -2.819831 5.130000 1.521242
v -2.086308 5.070000 1.364897
v -2.840677 5.070000 1.423439
v -2.107154 5.070000 1.267094
v -2.819831 5.070000 1.521242
v -2.086308 5.130000 1.364897
v -2.819831 5.070000 1.521242
v -2.819831 5.130000 1.521242
v -2.086308 5.070000 1.364897
v -2.107154 5.130000 1.267094
v -2.840677 5.070000 1.423439
v -2.840677 5.130000 1.423439
v -2.107154 5.070000 1.267094
v -2.819831 5.450000 1.521242
v -2.107154 5.450000 1.267094
v -2.086308 5.450000 1.364897
v -2.840677 5.450000 1.423439
v -2.819831 5.390000 1.521242
v -2.107154 5.390000 1.267094
v -2.086308 5.390000 1.364897
v -2.840677 5.390000 1.423439
v -2.086308 5.450000 1.364897
v -2.840677 5.450000 1.423439
v -2.107154 5.450000 1.267094
v -2.819831 5.450000 1.521242
v -2.086308 5.390000 1.364897
v -2.840677 5.390000 1.423439
v -2.107154 5.390000 1.267094
v -2.819831 5.390000 1.521242
v -2.086308 5.450000 1.364897
v -2.819831 5.390000 1.521242
v -2.819831 5.450000 1.521242
v -2.086308 5.390000 1.364897
v -2.107154 5.450000 1.267094
v -2.840677 5.390000 1.423439
v -2.840677 5.450000 1.423439
v -2.107154 5.390000 1.267094
v -3.179383 6.500000 1.393385
v -2.101984 6.500000 -0.267702
v -1.810140 6.500000 1.101541
v -3.471227 6.500000 0.024142
v -3.179383 5.200000 1.393385
v -2.101984 5.200000 -0.267702
v -1.810140 5.200000 1.101541
v -3.471227 5.200000 0.024142
v -1.810140 6.500000 1.101541
v -3.471227 6.500000 0.024142
v -2.101984 6.500000 -0.267702
v -3.179383 6.500000 1.393385
v -1.810140 5.200000 1.101541
v -3.471227 5.200000 0.024142
v -2.101984 5.200000 -0.267702
v -3.179383 5.200000 1.393385
v -1.810140 6.500000 1.101541
v -3.179383 5.200000 1.393385
v -3.179383 6.500000 1.393385
v -1.810140 5.200000 1.101541
v -2.101984 6.500000 -0.267702
v -3.471227 5.200000 0.024142
v -3.471227 6.500000 0.024142
v -2.101984 5.200000 -0.267702
vn 0.2085 -0.0000 0.9780
vn -0.2085 -0.0000 -0.9780
vn 0.9780 -0.0000 -0.2085
vn -0.9780 -0.0000 0.2085
vn -0.0000 1.0000 -0.0000
vn -0.0000 -1.0000 -0.0000
vt 0.000000 0.500000
vt 0.333333 1.000000
vt 0.000000 1.000000
vt 0.333333 0.500000
vt 0.666667 0.500000
vt 1.000000 1.000000
vt 0.666667 1.000000
vt 1.000000 0.500000
vt 0.000000 0.000000
vt 0.333333 0.000000
vt 0.666667 0.000000
vt 1.000000 0.000000
s 0
usemtl Material_2
f 437/49/73 435/50/73 433/51/73
f 437/49/73 439/52/73 435/50/73
f 438/53/74 436/54/74 434/55/74
f 438/53/74 440/56/74 436/54/74
f 445/52/75 443/55/75 441/50/75
f 445/52/75 447/53/75 443/55/75
f 446/57/76 444/52/76 442/49/76
f 446/57/76 448/58/76 444/52/76
f 453/58/77 451/53/77 449/52/77
f 453/58/77 455/59/77 451/53/77
f 454/59/78 452/56/78 450/53/78
f 454/59/78 456/60/78 452/56/78
f 461/49/73 459/50/73 457/51/73
f 461/49/73 463/52/73 459/50/73
f 462/53/74 460/54/74 458/55/74
f 462/53/74 464/56/74 460/54/74
f 469/52/75 467/55/75 465/50/75
f 469/52/75 471/53/75 467/55/75
f 470/57/76 468/52/76 466/49/76
f 470/57/76 472/58/76 468/52/76
f 477/58/77 475/53/77 473/52/77
f 477/58/77 479/59/77 475/53/77
f 478/59/78 476/56/78 474/53/78
f 478/59/78 480/60/78 476/56/78
f 485/49/73 483/50/73 481/51/73
f 485/49/73 487/52/73 483/50/73
f 486/53/74 484/54/74 482/55/74
f 486/53/74 488/56/74 484/54/74
f 493/52/75 491/55/75 489/50/75
f 493/52/75 495/53/75 491/55/75
f 494/57/76 492/52/76 490/49/76
f 494/57/76 496/58/76 492/52/76
f 501/58/77 499/53/77 497/52/77
f 501/58/77 503/59/77 499/53/77
f 502/59/78 500/56/78 498/53/78
f 502/59/78 504/60/78 500/56/78
usemtl Material_8
f 509/49/73 507/50/73 505/51/73
f 509/49/73 511/52/73 507/50/73
f 510/53/74 508/54/74 506/55/74
f 510/53/74 512/56/74 508/54/74
f 517/52/75 515/55/75 513/50/75
f 517/52/75 519/53/75 515/55/75
f 518/57/76 516/52/76 514/49/76
f 518/57/76 520/58/76 516/52/76
f 525/58/77 523/53/77 521/52/77
f 525/58/77 527/59/77 523/53/77
f 526/59/78 524/56/78 522/53/78
f 526/59/78 528/60/78 524/56/78
f 533/49/73 531/50/73 529/51/73
f 533/49/73 535/52/73 531/50/73
f 534/53/74 532/54/74 530/55/74
f 534/53/74 536/56/74 532/54/74
f 541/52/75 539/55/75 537/50/75
f 541/52/75 543/53/75 539/55/75
f 542/57/76 540/52/76 538/49/76
f 542/57/76 544/58/76 540/52/76
f 549/58/77 547/53/77 545/52/77
f 549/58/77 551/59/77 547/53/77
f 550/59/78 548/56/78 546/53/78
f 550/59/78 552/60/78 548/56/78
usemtl Material_5
f 557/49/73 555/50/73 553/51/73
f 557/49/73 559/52/73 555/50/73
f 558/53/74 556/54/74 554/55/74
f 558/53/74 560/56/74 556/54/74
f 565/52/75 563/55/75 561/50/75
f 565/52/75 567/53/75 563/55/75
f 566/57/76 564/52/76 562/49/76
f 566/57/76 568/58/76 564/52/76
f 573/58/77 571/53/77 569/52/77
f 573/58/77 575/59/77 571/53/77
f 574/59/78 572/56/78 570/53/78
f 574/59/78 576/60/78 572/56/78
f 581/49/73 579/50/73 577/51/73
f 581/49/73 583/52/73 579/50/73
f 582/53/74 580/54/74 578/55/74
f 582/53/74 584/56/74 580/54/74
f 589/52/75 587/55/75 585/50/75
f 589/52/75 591/53/75 587/55/75
f 590/57/76 588/52/76 586/49/76
f 590/57/76 592/58/76 588/52/76
f 597/58/77 595/53/77 593/52/77
f 597/58/77 599/59/77 595/53/77
f 598/59/78 596/56/78 594/53/78
f 598/59/78 600/60/78 596/56/78
f 605/49/73 603/50/73 601/51/73
f 605/49/73 607/52/73 603/50/73
f 606/53/74 604/54/74 602/55/74
f 606/53/74 608/56/74 604/54/74
f 613/52/75 611/55/75 609/50/75
f 613/52/75 615/53/75 611/55/75
f 614/57/76 612/52/76 610/49/76
f 614/57/76 616/58/76 612/52/76
f 621/58/77 619/53/77 617/52/77
f 621/58/77 623/59/77 619/53/77
f 622/59/78 620/56/78 618/53/78
f 622/59/78 624/60/78 620/56/78
f 629/49/73 627/50/73 625/51/73
f 629/49/73 631/52/73 627/50/73
f 630/53/74 628/54/74 626/55/74
f 630/53/74 632/56/74 628/54/74
f 637/52/75 635/55/75 633/50/75
f 637/52/75 639/53/75 635/55/75
f 638/57/76 636/52/76 634/49/76
f 638/57/76 640/58/76 636/52/76
f 645/58/77 643/53/77 641/52/77
f 645/58/77 647/59/77 643/53/77
f 646/59/78 644/56/78 642/53/78
f 646/59/78 648/60/78 644/56/78
f 653/49/73 651/50/73 649/51/73
f 653/49/73 655/52/73 651/50/73
f 654/53/74 652/54/74 650/55/74
f 654/53/74 656/56/74 652/54/74
f 661/52/75 659/55/75 657/50/75
f 661/52/75 663/53/75 659/55/75
f 662/57/76 660/52/76 658/49/76
f 662/57/76 664/58/76 660/52/76
f 669/58/77 667/53/77 665/52/77
f 669/58/77 671/59/77 667/53/77
f 670/59/78 668/56/78 666/53/78
f 670/59/78 672/60/78 668/56/78
f 677/49/73 675/50/73 673/51/73
f 677/49/73 679/52/73 675/50/73
f 678/53/74 676/54/74 674/55/74
f 678/53/74 680/56/74 676/54/74
f 685/52/75 683/55/75 681/50/75
f 685/52/75 687/53/75 683/55/75
f 686/57/76 684/52/76 682/49/76
f 686/57/76 688/58/76 684/52/76
f 693/58/77 691/53/77 689/52/77
f 693/58/77 695/59/77 691/53/77
f 694/59/78 692/56/78 690/53/78
f 694/59/78 696/60/78 692/56/78
f 701/49/73 699/50/73 697/51/73
f 701/49/73 703/52/73 699/50/73
f 702/53/74 700/54/74 698/55/74
f 702/53/74 704/56/74 700/54/74
f 709/52/75 707/55/75 705/50/75
f 709/52/75 711/53/75 707/55/75
f 710/57/76 708/52/76 706/49/76
f 710/57/76 712/58/76 708/52/76
f 717/58/77 715/53/77 713/52/77
f 717/58/77 719/59/77 715/53/77
f 718/59/78 716/56/78 714/53/78
f 718/59/78 720/60/78 716/56/78
f 725/49/73 723/50/73 721/51/73
f 725/49/73 727/52/73 723/50/73
f 726/53/74 724/54/74 722/55/74
f 726/53/74 728/56/74 724/54/74
f 733/52/75 731/55/75 729/50/75
f 733/52/75 735/53/75 731/55/75
f 734/57/76 732/52/76 730/49/76
f 734/57/76 736/58/76 732/52/76
f 741/58/77 739/53/77 737/52/77
f 741/58/77 743/59/77 739/53/77
f 742/59/78 740/56/78 738/53/78
f 742/59/78 744/60/78 740/56/78
f 749/49/73 747/50/73 745/51/73
f 749/49/73 751/52/73 747/50/73
f 750/53/74 748/54/74 746/55/74
f 750/53/74 752/56/74 748/54/74
f 757/52/75 755/55/75 753/50/75
f 757/52/75 759/53/75 755/55/75
f 758/57/76 756/52/76 754/49/76
f 758/57/76 760/58/76 756/52/76
f 765/58/77 763/53/77 761/52/77
f 765/58/77 767/59/77 763/53/77
f 766/59/78 764/56/78 762/53/78
f 766/59/78 768/60/78 764/56/78
f 773/49/73 771/50/73 769/51/73
f 773/49/73 775/52/73 771/50/73
f 774/53/74 772/54/74 770/55/74
f 774/53/74 776/56/74 772/54/74
f 781/52/75 779/55/75 777/50/75
f 781/52/75 783/53/75 779/55/75
f 782/57/76 780/52/76 778/49/76
f 782/57/76 784/58/76 780/52/76
f 789/58/77 787/53/77 785/52/77
f 789/58/77 791/59/77 787/53/77
f 790/59/78 788/56/78 786/53/78
f 790/59/78 792/60/78 788/56/78
f 797/49/73 795/50/73 793/51/73
f 797/49/73 799/52/73 795/50/73
f 798/53/74 796/54/74 794/55/74
f 798/53/74 800/56/74 796/54/74
f 805/52/75 803/55/75 801/50/75
f 805/52/75 807/53/75 803/55/75
f 806/57/76 804/52/76 802/49/76
f 806/57/76 808/58/76 804/52/76
f 813/58/77 811/53/77 809/52/77
f 813/58/77 815/59/77 811/53/77
f 814/59/78 812/56/78 810/53/78
f 814/59/78 816/60/78 812/56/78
f 821/49/73 819/50/73 817/51/73
f 821/49/73 823/52/73 819/50/73
f 822/53/74 820/54/74 818/55/74
f 822/53/74 824/56/74 820/54/74
f 829/52/75 827/55/75 825/50/75
f 829/52/75 831/53/75 827/55/75
f 830/57/76 828/52/76 826/49/76
f 830/57/76 832/58/76 828/52/76
f 837/58/77 835/53/77 833/52/77
f 837/58/77 839/59/77 835/53/77
f 838/59/78 836/56/78 834/53/78
f 838/59/78 840/60/78 836/56/78
f 845/49/73 843/50/73 841/51/73
f 845/49/73 847/52/73 843/50/73
f 846/53/74 844/54/74 842/55/74
f 846/53/74 848/56/74 844/54/74
f 853/52/75 851/55/75 849/50/75
f 853/52/75 855/53/75 851/55/75
f 854/57/76 852/52/76 850/49/76
f 854/57/76 856/58/76 852/52/76
f 861/58/77 859/53/77 857/52/77
f 861/58/77 863/59/77 859/53/77
f 862/59/78 860/56/78 858/53/78
f 862/59/78 864/60/78 860/56/78
f 869/49/73 867/50/73 865/51/73
f 869/49/73 871/52/73 867/50/73
f 870/53/74 868/54/74 866/55/74
f 870/53/74 872/56/74 868/54/74
f 877/52/75 875/55/75 873/50/75
f 877/52/75 879/53/75 875/55/75
f 878/57/76 876/52/76 874/49/76
f 878/57/76 880/58/76 876/52/76
f 885/58/77 883/53/77 881/52/77
f 885/58/77 887/59/77 883/53/77
f 886/59/78 884/56/78 882/53/78
f 886/59/78 888/60/78 884/56/78
f 893/49/73 891/50/73 889/51/73
f 893/49/73 895/52/73 891/50/73
f 894/53/74 892/54/74 890/55/74
f 894/53/74 896/56/74 892/54/74
f 901/52/75 899/55/75 897/50/75
f 901/52/75 903/53/75 899/55/75
f 902/57/76 900/52/76 898/49/76
f 902/57/76 904/58/76 900/52/76
f 909/58/77 907/53/77 905/52/77
f 909/58/77 911/59/77 907/53/77
f 910/59/78 908/56/78 906/53/78
f 910/59/78 912/60/78 908/56/78
f 917/49/73 915/50/73 913/51/73
f 917/49/73 919/52/73 915/50/73
f 918/53/74 916/54/74 914/55/74
f 918/53/74 920/56/74 916/54/74
f 925/52/75 923/55/75 921/50/75
f 925/52/75 927/53/75 923/55/75
f 926/57/76 924/52/76 922/49/76
f 926/57/76 928/58/76 924/52/76
f 933/58/77 931/53/77 929/52/77
f 933/58/77 935/59/77 931/53/77
f 934/59/78 932/56/78 930/53/78
f 934/59/78 936/60/78 932/56/78
f 941/49/73 939/50/73 937/51/73
f 941/49/73 943/52/73 939/50/73
f 942/53/74 940/54/74 938/55/74
f 942/53/74 944/56/74 940/54/74
f 949/52/75 947/55/75 945/50/75
f 949/52/75 951/53/75 947/55/75
f 950/57/76 948/52/76 946/49/76
f 950/57/76 952/58/76 948/52/76
f 957/58/77 955/53/77 953/52/77
f 957/58/77 959/59/77 955/53/77
f 958/59/78 956/56/78 954/53/78
f 958/59/78 960/60/78 956/56/78
f 965/49/73 963/50/73 961/51/73
f 965/49/73 967/52/73 963/50/73
f 966/53/74 964/54/74 962/55/74
f 966/53/74 968/56/74 964/54/74
f 973/52/75 971/55/75 969/50/75
f 973/52/75 975/53/75 971/55/75
f 974/57/76 972/52/76 970/49/76
f 974/57/76 976/58/76 972/52/76
f 981/58/77 979/53/77 977/52/77
f 981/58/77 983/59/77 979/53/77
f 982/59/78 980/56/78 978/53/78
f 982/59/78 984/60/78 980/56/78
f 989/49/73 987/50/73 985/51/73
f 989/49/73 991/52/73 987/50/73
f 990/53/74 988/54/74 986/55/74
f 990/53/74 992/56/74 988/54/74
f 997/52/75 995/55/75 993/50/75
f 997/52/75 999/53/75 995/55/75
f 998/57/76 996/52/76 994/49/76
f 998/57/76 1000/58/76 996/52/76
f 1005/58/77 1003/53/77 1001/52/77
f 1005/58/77 1007/59/77 1003/53/77
f 1006/59/78 1004/56/78 1002/53/78
f 1006/59/78 1008/60/78 1004/56/78
f 1013/49/73 1011/50/73 1009/51/73
f 1013/49/73 1015/52/73 1011/50/73
f 1014/53/74 1012/54/74 1010/55/74
f 1014/53/74 1016/56/74 1012/54/74
f 1021/52/75 1019/55/75 1017/50/75
f 1021/52/75 1023/53/75 1019/55/75
f 1022/57/76 1020/52/76 1018/49/76
f 1022/57/76 1024/58/76 1020/52/76
f 1029/58/77 1027/53/77 1025/52/77
f 1029/58/77 1031/59/77 1027/53/77
f 1030/59/78 1028/56/78 1026/53/78
f 1030/59/78 1032/60/78 1028/56/78
f 1037/49/73 1035/50/73 1033/51/73
f 1037/49/73 1039/52/73 1035/50/73
f 1038/53/74 1036/54/74 1034/55/74
f 1038/53/74 1040/56/74 1036/54/74
f 1045/52/75 1043/55/75 1041/50/75
f 1045/52/75 1047/53/75 1043/55/75
f 1046/57/76 1044/52/76 1042/49/76
f 1046/57/76 1048/58/76 1044/52/76
f 1053/58/77 1051/53/77 1049/52/77
f 1053/58/77 1055/59/77 1051/53/77
f 1054/59/78 1052/56/78 1050/53/78
f 1054/59/78 1056/60/78 1052/56/78
f 1061/49/73 1059/50/73 1057/51/73
f 1061/49/73 1063/52/73 1059/50/73
f 1062/53/74 1060/54/74 1058/55/74
f 1062/53/74 1064/56/74 1060/54/74
f 1069/52/75 1067/55/75 1065/50/75
f 1069/52/75 1071/53/75 1067/55/75
f 1070/57/76 1068/52/76 1066/49/76
f 1070/57/76 1072/58/76 1068/52/76
f 1077/58/77 1075/53/77 1073/52/77
f 1077/58/77 1079/59/77 1075/53/77
f 1078/59/78 1076/56/78 1074/53/78
f 1078/59/78 1080/60/78 1076/56/78
f 1085/49/73 1083/50/73 1081/51/73
f 1085/49/73 1087/52/73 1083/50/73
f 1086/53/74 1084/54/74 1082/55/74
f 1086/53/74 1088/56/74 1084/54/74
f 1093/52/75 1091/55/75 1089/50/75
f 1093/52/75 1095/53/75 1091/55/75
f 1094/57/76 1092/52/76 1090/49/76
f 1094/57/76 1096/58/76 1092/52/76
f 1101/58/77 1099/53/77 1097/52/77
f 1101/58/77 1103/59/77 1099/53/77
f 1102/59/78 1100/56/78 1098/53/78
f 1102/59/78 1104/60/78 1100/56/78
f 1109/49/73 1107/50/73 1105/51/73
f 1109/49/73 1111/52/73 1107/50/73
f 1110/53/74 1108/54/74 1106/55/74
f 1110/53/74 1112/56/74 1108/54/74
f 1117/52/75 1115/55/75 1113/50/75
f 1117/52/75 1119/53/75 1115/55/75
f 1118/57/76 1116/52/76 1114/49/76
f 1118/57/76 1120/58/76 1116/52/76
f 1125/58/77 1123/53/77 1121/52/77
f 1125/58/77 1127/59/77 1123/53/77
f 1126/59/78 1124/56/78 1122/53/78
f 1126/59/78 1128/60/78 1124/56/78
f 1133/49/73 1131/50/73 1129/51/73
f 1133/49/73 1135/52/73 1131/50/73
f 1134/53/74 1132/54/74 1130/55/74
f 1134/53/74 1136/56/74 1132/54/74
f 1141/52/75 1139/55/75 1137/50/75
f 1141/52/75 1143/53/75 1139/55/75
f 1142/57/76 1140/52/76 1138/49/76
f 1142/57/76 1144/58/76 1140/52/76
f 1149/58/77 1147/53/77 1145/52/77
f 1149/58/77 1151/59/77 1147/53/77
f 1150/59/78 1148/56/78 1146/53/78
f 1150/59/78 1152/60/78 1148/56/78
f 1157/49/73 1155/50/73 1153/51/73
f 1157/49/73 1159/52/73 1155/50/73
f 1158/53/74 1156/54/74 1154/55/74
f 1158/53/74 1160/56/74 1156/54/74
f 1165/52/75 1163/55/75 1161/50/75
f 1165/52/75 1167/53/75 1163/55/75
f 1166/57/76 1164/52/76 1162/49/76
f 1166/57/76 1168/58/76 1164/52/76
f 1173/58/77 1171/53/77 1169/52/77
f 1173/58/77 1175/59/77 1171/53/77
f 1174/59/78 1172/56/78 1170/53/78
f 1174/59/78 1176/60/78 1172/56/78
f 1181/49/73 1179/50/73 1177/51/73
f 1181/49/73 1183/52/73 1179/50/73
f 1182/53/74 1180/54/74 1178/55/74
f 1182/53/74 1184/56/74 1180/54/74
f 1189/52/75 1187/55/75 1185/50/75
f 1189/52/75 1191/53/75 1187/55/75
f 1190/57/76 1188/52/76 1186/49/76
f 1190/57/76 1192/58/76 1188/52/76
f 1197/58/77 1195/53/77 1193/52/77
f 1197/58/77 1199/59/77 1195/53/77
f 1198/59/78 1196/56/78 1194/53/78
f 1198/59/78 1200/60/78 1196/56/78
f 1205/49/73 1203/50/73 1201/51/73
f 1205/49/73 1207/52/73 1203/50/73
f 1206/53/74 1204/54/74 1202/55/74
f 1206/53/74 1208/56/74 1204/54/74
f 1213/52/75 1211/55/75 1209/50/75
f 1213/52/75 1215/53/75 1211/55/75
f 1214/57/76 1212/52/76 1210/49/76
f 1214/57/76 1216/58/76 1212/52/76
f 1221/58/77 1219/53/77 1217/52/77
f 1221/58/77 1223/59/77 1219/53/77
f 1222/59/78 1220/56/78 1218/53/78
f 1222/59/78 1224/60/78 1220/56/78
f 1229/49/73 1227/50/73 1225/51/73
f 1229/49/73 1231/52/73 1227/50/73
f 1230/53/74 1228/54/74 1226/55/74
f 1230/53/74 1232/56/74 1228/54/74
f 1237/52/75 1235/55/75 1233/50/75
f 1237/52/75 1239/53/75 1235/55/75
f 1238/57/76 1236/52/76 1234/49/76
f 1238/57/76 1240/58/76 1236/52/76
f 1245/58/77 1243/53/77 1241/52/77
f 1245/58/77 1247/59/77 1243/53/77
f 1246/59/78 1244/56/78 1242/53/78
f 1246/59/78 1248/60/78 1244/56/78
usemtl Material_6
f 1253/49/73 1251/50/73 1249/51/73
f 1253/49/73 1255/52/73 1251/50/73
f 1254/53/74 1252/54/74 1250/55/74
f 1254/53/74 1256/56/74 1252/54/74
f 1261/52/75 1259/55/75 1257/50/75
f 1261/52/75 1263/53/75 1259/55/75
f 1262/57/76 1260/52/76 1258/49/76
f 1262/57/76 1264/58/76 1260/52/76
f 1269/58/77 1267/53/77 1265/52/77
f 1269/58/77 1271/59/77 1267/53/77
f 1270/59/78 1268/56/78 1266/53/78
f 1270/59/78 1272/60/78 1268/56/78
