# Blender 5.2.1 LTS
# www.blender.org
mtllib landmark_pumpjack.mtl
o barrelInstances_000
v 4.171762 0.760000 -1.600954
v 4.153911 0.040000 -1.559646
v 4.405937 0.760000 -1.597390
v 4.153911 0.040000 -1.559646
v 4.422523 0.040000 -1.555557
v 4.405937 0.760000 -1.597390
v 4.405937 0.760000 -1.597390
v 4.422523 0.040000 -1.555557
v 4.574044 0.760000 -1.760457
v 4.422523 0.040000 -1.555557
v 4.615352 0.040000 -1.742605
v 4.574044 0.760000 -1.760457
v 4.574044 0.760000 -1.760457
v 4.615352 0.040000 -1.742605
v 4.577607 0.760000 -1.994632
v 4.615352 0.040000 -1.742605
v 4.619440 0.040000 -2.011218
v 4.577607 0.760000 -1.994632
v 4.577607 0.760000 -1.994632
v 4.619440 0.040000 -2.011218
v 4.414541 0.760000 -2.162739
v 4.619440 0.040000 -2.011218
v 4.432392 0.040000 -2.204046
v 4.414541 0.760000 -2.162739
v 4.414541 0.760000 -2.162739
v 4.432392 0.040000 -2.204046
v 4.180366 0.760000 -2.166302
v 4.432392 0.040000 -2.204046
v 4.163779 0.040000 -2.208135
v 4.180366 0.760000 -2.166302
v 4.180366 0.760000 -2.166302
v 4.163779 0.040000 -2.208135
v 4.012259 0.760000 -2.003236
v 4.163779 0.040000 -2.208135
v 3.970951 0.040000 -2.021087
v 4.012259 0.760000 -2.003236
v 4.012259 0.760000 -2.003236
v 3.970951 0.040000 -2.021087
v 4.008696 0.760000 -1.769060
v 3.970951 0.040000 -2.021087
v 3.966863 0.040000 -1.752474
v 4.008696 0.760000 -1.769060
v 4.008696 0.760000 -1.769060
v 3.966863 0.040000 -1.752474
v 4.171762 0.760000 -1.600954
v 3.966863 0.040000 -1.752474
v 4.153911 0.040000 -1.559646
v 4.171762 0.760000 -1.600954
v 4.171762 0.760000 -1.600954
v 4.405937 0.760000 -1.597390
v 4.293151 0.760000 -1.881846
v 4.405937 0.760000 -1.597390
v 4.574044 0.760000 -1.760457
v 4.293151 0.760000 -1.881846
v 4.574044 0.760000 -1.760457
v 4.577607 0.760000 -1.994632
v 4.293151 0.760000 -1.881846
v 4.577607 0.760000 -1.994632
v 4.414541 0.760000 -2.162739
v 4.293151 0.760000 -1.881846
v 4.414541 0.760000 -2.162739
v 4.180366 0.760000 -2.166302
v 4.293151 0.760000 -1.881846
v 4.180366 0.760000 -2.166302
v 4.012259 0.760000 -2.003236
v 4.293151 0.760000 -1.881846
v 4.012259 0.760000 -2.003236
v 4.008696 0.760000 -1.769060
v 4.293151 0.760000 -1.881846
v 4.008696 0.760000 -1.769060
v 4.171762 0.760000 -1.600954
v 4.293151 0.760000 -1.881846
v 4.422523 0.040000 -1.555557
v 4.153911 0.040000 -1.559646
v 4.293151 0.040000 -1.881846
v 4.615352 0.040000 -1.742605
v 4.422523 0.040000 -1.555557
v 4.293151 0.040000 -1.881846
v 4.619440 0.040000 -2.011218
v 4.615352 0.040000 -1.742605
v 4.293151 0.040000 -1.881846
v 4.432392 0.040000 -2.204046
v 4.619440 0.040000 -2.011218
v 4.293151 0.040000 -1.881846
v 4.163779 0.040000 -2.208135
v 4.432392 0.040000 -2.204046
v 4.293151 0.040000 -1.881846
v 3.970951 0.040000 -2.021087
v 4.163779 0.040000 -2.208135
v 4.293151 0.040000 -1.881846
v 3.966863 0.040000 -1.752474
v 3.970951 0.040000 -2.021087
v 4.293151 0.040000 -1.881846
v 4.153911 0.040000 -1.559646
v 3.966863 0.040000 -1.752474
v 4.293151 0.040000 -1.881846
vn -0.0152 0.0576 0.9982
vn 0.6951 0.0576 0.7166
vn 0.9982 0.0576 0.0152
vn 0.7166 0.0576 -0.6951
vn 0.0152 0.0576 -0.9982
vn -0.6951 0.0576 -0.7166
vn -0.9982 0.0576 -0.0152
vn -0.7166 0.0576 0.6951
vn -0.0000 1.0000 -0.0000
vn -0.0000 -1.0000 -0.0000
vt 0.000000 1.000000
vt 0.125000 0.000000
vt 0.000000 0.000000
vt 0.125000 1.000000
vt 0.250000 0.000000
vt 0.250000 1.000000
vt 0.375000 0.000000
vt 0.375000 1.000000
vt 0.500000 0.000000
vt 0.500000 1.000000
vt 0.625000 0.000000
vt 0.625000 1.000000
vt 0.750000 0.000000
vt 0.750000 1.000000
vt 0.875000 0.000000
vt 0.875000 1.000000
vt 1.000000 0.000000
vt 1.000000 1.000000
vt 0.853553 0.146447
vt 0.500000 0.500000
vt 1.000000 0.500000
vt 0.146447 0.146447
vt 0.000000 0.500000
vt 0.146447 0.853553
vt 0.853553 0.853553
s 0
usemtl Material_4
f 2/1/1 3/2/1 1/3/1
f 5/4/1 6/2/1 4/1/1
f 8/4/2 9/5/2 7/2/2
f 11/6/2 12/5/2 10/4/2
f 14/6/3 15/7/3 13/5/3
f 17/8/3 18/7/3 16/6/3
f 20/8/4 21/9/4 19/7/4
f 23/10/4 24/9/4 22/8/4
f 26/10/5 27/11/5 25/9/5
f 29/12/5 30/11/5 28/10/5
f 32/12/6 33/13/6 31/11/6
f 35/14/6 36/13/6 34/12/6
f 38/14/7 39/15/7 37/13/7
f 41/16/7 42/15/7 40/14/7
f 44/16/8 45/17/8 43/15/8
f 47/18/8 48/17/8 46/16/8
f 50/19/9 51/20/9 49/21/9
f 53/9/9 54/20/9 52/19/9
f 56/22/9 57/20/9 55/9/9
f 59/23/9 60/20/9 58/22/9
f 62/24/9 63/20/9 61/23/9
f 65/10/9 66/20/9 64/24/9
f 68/25/9 69/20/9 67/10/9
f 71/21/9 72/20/9 70/25/9
f 74/21/10 75/20/10 73/25/10
f 77/25/10 78/20/10 76/10/10
f 80/10/10 81/20/10 79/24/10
f 83/24/10 84/20/10 82/23/10
f 86/23/10 87/20/10 85/22/10
f 89/22/10 90/20/10 88/9/10
f 92/9/10 93/20/10 91/19/10
f 95/19/10 96/20/10 94/21/10
o fencePosts_000
v -2.040729 1.145000 2.647127
v -2.040729 -0.005000 2.647127
v -2.074082 1.145000 2.490642
v -2.040729 -0.005000 2.647127
v -2.074082 -0.005000 2.490642
v -2.074082 1.145000 2.490642
v -2.230567 1.145000 2.523996
v -2.230567 -0.005000 2.523996
v -2.197214 1.145000 2.680481
v -2.230567 -0.005000 2.523996
v -2.197214 -0.005000 2.680481
v -2.197214 1.145000 2.680481
v -2.230567 1.145000 2.523996
v -2.197214 1.145000 2.680481
v -2.074082 1.145000 2.490642
v -2.197214 1.145000 2.680481
v -2.040729 1.145000 2.647127
v -2.074082 1.145000 2.490642
v -2.197214 -0.005000 2.680481
v -2.230567 -0.005000 2.523996
v -2.040729 -0.005000 2.647127
v -2.230567 -0.005000 2.523996
v -2.074082 -0.005000 2.490642
v -2.040729 -0.005000 2.647127
v -2.197214 1.145000 2.680481
v -2.197214 -0.005000 2.680481
v -2.040729 1.145000 2.647127
v -2.197214 -0.005000 2.680481
v -2.040729 -0.005000 2.647127
v -2.040729 1.145000 2.647127
v -2.074082 1.145000 2.490642
v -2.074082 -0.005000 2.490642
v -2.230567 1.145000 2.523996
v -2.074082 -0.005000 2.490642
v -2.230567 -0.005000 2.523996
v -2.230567 1.145000 2.523996
vn 0.9780 -0.0000 -0.2085
vn -0.9780 -0.0000 0.2085
vn -0.0000 1.0000 -0.0000
vn -0.0000 -1.0000 -0.0000
vn 0.2085 -0.0000 0.9780
vn -0.2085 -0.0000 -0.9780
vt 0.000000 1.000000
vt 1.000000 0.000000
vt 0.000000 0.000000
vt 1.000000 1.000000
s 0
usemtl Material_3
f 98/26/11 99/27/11 97/28/11
f 101/29/11 102/27/11 100/26/11
f 104/26/12 105/27/12 103/28/12
f 107/29/12 108/27/12 106/26/12
f 110/26/13 111/27/13 109/28/13
f 113/29/13 114/27/13 112/26/13
f 116/26/14 117/27/14 115/28/14
f 119/29/14 120/27/14 118/26/14
f 122/26/15 123/27/15 121/28/15
f 125/29/15 126/27/15 124/26/15
f 128/26/16 129/27/16 127/28/16
f 131/29/16 132/27/16 130/26/16
o fencePosts_001
v -0.329175 1.145000 2.282322
v -0.329175 -0.005000 2.282322
v -0.362528 1.145000 2.125838
v -0.329175 -0.005000 2.282322
v -0.362528 -0.005000 2.125838
v -0.362528 1.145000 2.125838
v -0.519013 1.145000 2.159191
v -0.519013 -0.005000 2.159191
v -0.485660 1.145000 2.315676
v -0.519013 -0.005000 2.159191
v -0.485660 -0.005000 2.315676
v -0.485660 1.145000 2.315676
v -0.519013 1.145000 2.159191
v -0.485660 1.145000 2.315676
v -0.362528 1.145000 2.125838
v -0.485660 1.145000 2.315676
v -0.329175 1.145000 2.282322
v -0.362528 1.145000 2.125838
v -0.485660 -0.005000 2.315676
v -0.519013 -0.005000 2.159191
v -0.329175 -0.005000 2.282322
v -0.519013 -0.005000 2.159191
v -0.362528 -0.005000 2.125838
v -0.329175 -0.005000 2.282322
v -0.485660 1.145000 2.315676
v -0.485660 -0.005000 2.315676
v -0.329175 1.145000 2.282322
v -0.485660 -0.005000 2.315676
v -0.329175 -0.005000 2.282322
v -0.329175 1.145000 2.282322
v -0.362528 1.145000 2.125838
v -0.362528 -0.005000 2.125838
v -0.519013 1.145000 2.159191
v -0.362528 -0.005000 2.125838
v -0.519013 -0.005000 2.159191
v -0.519013 1.145000 2.159191
vn 0.9780 -0.0000 -0.2085
vn -0.9780 -0.0000 0.2085
vn -0.0000 1.0000 -0.0000
vn -0.0000 -1.0000 -0.0000
vn 0.2085 -0.0000 0.9780
vn -0.2085 -0.0000 -0.9780
vt 0.000000 1.000000
vt 1.000000 0.000000
vt 0.000000 0.000000
vt 1.000000 1.000000
s 0
usemtl Material_3
f 134/30/17 135/31/17 133/32/17
f 137/33/17 138/31/17 136/30/17
f 140/30/18 141/31/18 139/32/18
f 143/33/18 144/31/18 142/30/18
f 146/30/19 147/31/19 145/32/19
f 149/33/19 150/31/19 148/30/19
f 152/30/20 153/31/20 151/32/20
f 155/33/20 156/31/20 154/30/20
f 158/30/21 159/31/21 157/32/21
f 161/33/21 162/31/21 160/30/21
f 164/30/22 165/31/22 163/32/22
f 167/33/22 168/31/22 166/30/22
o fencePosts_002
v 1.382379 1.145000 1.917518
v 1.382379 -0.005000 1.917518
v 1.349026 1.145000 1.761033
v 1.382379 -0.005000 1.917518
v 1.349026 -0.005000 1.761033
v 1.349026 1.145000 1.761033
v 1.192541 1.145000 1.794386
v 1.192541 -0.005000 1.794386
v 1.225894 1.145000 1.950871
v 1.192541 -0.005000 1.794386
v 1.225894 -0.005000 1.950871
v 1.225894 1.145000 1.950871
v 1.192541 1.145000 1.794386
v 1.225894 1.145000 1.950871
v 1.349026 1.145000 1.761033
v 1.225894 1.145000 1.950871
v 1.382379 1.145000 1.917518
v 1.349026 1.145000 1.761033
v 1.225894 -0.005000 1.950871
v 1.192541 -0.005000 1.794386
v 1.382379 -0.005000 1.917518
v 1.192541 -0.005000 1.794386
v 1.349026 -0.005000 1.761033
v 1.382379 -0.005000 1.917518
v 1.225894 1.145000 1.950871
v 1.225894 -0.005000 1.950871
v 1.382379 1.145000 1.917518
v 1.225894 -0.005000 1.950871
v 1.382379 -0.005000 1.917518
v 1.382379 1.145000 1.917518
v 1.349026 1.145000 1.761033
v 1.349026 -0.005000 1.761033
v 1.192541 1.145000 1.794386
v 1.349026 -0.005000 1.761033
v 1.192541 -0.005000 1.794386
v 1.192541 1.145000 1.794386
vn 0.9780 -0.0000 -0.2085
vn -0.9780 -0.0000 0.2085
vn -0.0000 1.0000 -0.0000
vn -0.0000 -1.0000 -0.0000
vn 0.2085 -0.0000 0.9780
vn -0.2085 -0.0000 -0.9780
vt 0.000000 1.000000
vt 1.000000 0.000000
vt 0.000000 0.000000
vt 1.000000 1.000000
s 0
usemtl Material_3
f 170/34/23 171/35/23 169/36/23
f 173/37/23 174/35/23 172/34/23
f 176/34/24 177/35/24 175/36/24
f 179/37/24 180/35/24 178/34/24
f 182/34/25 183/35/25 181/36/25
f 185/37/25 186/35/25 184/34/25
f 188/34/26 189/35/26 187/36/26
f 191/37/26 192/35/26 190/34/26
f 194/34/27 195/35/27 193/36/27
f 197/37/27 198/35/27 196/34/27
f 200/34/28 201/35/28 199/36/28
f 203/37/28 204/35/28 202/34/28
o fencePosts_003
v 3.093933 1.145000 1.552713
v 3.093933 -0.005000 1.552713
v 3.060580 1.145000 1.396228
v 3.093933 -0.005000 1.552713
v 3.060580 -0.005000 1.396228
v 3.060580 1.145000 1.396228
v 2.904095 1.145000 1.429582
v 2.904095 -0.005000 1.429582
v 2.937449 1.145000 1.586066
v 2.904095 -0.005000 1.429582
v 2.937449 -0.005000 1.586066
v 2.937449 1.145000 1.586066
v 2.904095 1.145000 1.429582
v 2.937449 1.145000 1.586066
v 3.060580 1.145000 1.396228
v 2.937449 1.145000 1.586066
v 3.093933 1.145000 1.552713
v 3.060580 1.145000 1.396228
v 2.937449 -0.005000 1.586066
v 2.904095 -0.005000 1.429582
v 3.093933 -0.005000 1.552713
v 2.904095 -0.005000 1.429582
v 3.060580 -0.005000 1.396228
v 3.093933 -0.005000 1.552713
v 2.937449 1.145000 1.586066
v 2.937449 -0.005000 1.586066
v 3.093933 1.145000 1.552713
v 2.937449 -0.005000 1.586066
v 3.093933 -0.005000 1.552713
v 3.093933 1.145000 1.552713
v 3.060580 1.145000 1.396228
v 3.060580 -0.005000 1.396228
v 2.904095 1.145000 1.429582
v 3.060580 -0.005000 1.396228
v 2.904095 -0.005000 1.429582
v 2.904095 1.145000 1.429582
vn 0.9780 -0.0000 -0.2085
vn -0.9780 -0.0000 0.2085
vn -0.0000 1.0000 -0.0000
vn -0.0000 -1.0000 -0.0000
vn 0.2085 -0.0000 0.9780
vn -0.2085 -0.0000 -0.9780
vt 0.000000 1.000000
vt 1.000000 0.000000
vt 0.000000 0.000000
vt 1.000000 1.000000
s 0
usemtl Material_3
f 206/38/29 207/39/29 205/40/29
f 209/41/29 210/39/29 208/38/29
f 212/38/30 213/39/30 211/40/30
f 215/41/30 216/39/30 214/38/30
f 218/38/31 219/39/31 217/40/31
f 221/41/31 222/39/31 220/38/31
f 224/38/32 225/39/32 223/40/32
f 227/41/32 228/39/32 226/38/32
f 230/38/33 231/39/33 229/40/33
f 233/41/33 234/39/33 232/38/33
f 236/38/34 237/39/34 235/40/34
f 239/41/34 240/39/34 238/38/34
o fencePosts_004
v 4.805488 1.145000 1.187908
v 4.805488 -0.005000 1.187908
v 4.772134 1.145000 1.031423
v 4.805488 -0.005000 1.187908
v 4.772134 -0.005000 1.031423
v 4.772134 1.145000 1.031423
v 4.615649 1.145000 1.064777
v 4.615649 -0.005000 1.064777
v 4.649003 1.145000 1.221262
v 4.615649 -0.005000 1.064777
v 4.649003 -0.005000 1.221262
v 4.649003 1.145000 1.221262
v 4.615649 1.145000 1.064777
v 4.649003 1.145000 1.221262
v 4.772134 1.145000 1.031423
v 4.649003 1.145000 1.221262
v 4.805488 1.145000 1.187908
v 4.772134 1.145000 1.031423
v 4.649003 -0.005000 1.221262
v 4.615649 -0.005000 1.064777
v 4.805488 -0.005000 1.187908
v 4.615649 -0.005000 1.064777
v 4.772134 -0.005000 1.031423
v 4.805488 -0.005000 1.187908
v 4.649003 1.145000 1.221262
v 4.649003 -0.005000 1.221262
v 4.805488 1.145000 1.187908
v 4.649003 -0.005000 1.221262
v 4.805488 -0.005000 1.187908
v 4.805488 1.145000 1.187908
v 4.772134 1.145000 1.031423
v 4.772134 -0.005000 1.031423
v 4.615649 1.145000 1.064777
v 4.772134 -0.005000 1.031423
v 4.615649 -0.005000 1.064777
v 4.615649 1.145000 1.064777
vn 0.9780 -0.0000 -0.2085
vn -0.9780 -0.0000 0.2085
vn -0.0000 1.0000 -0.0000
vn -0.0000 -1.0000 -0.0000
vn 0.2085 -0.0000 0.9780
vn -0.2085 -0.0000 -0.9780
vt 0.000000 1.000000
vt 1.000000 0.000000
vt 0.000000 0.000000
vt 1.000000 1.000000
s 0
usemtl Material_3
f 242/42/35 243/43/35 241/44/35
f 245/45/35 246/43/35 244/42/35
f 248/42/36 249/43/36 247/44/36
f 251/45/36 252/43/36 250/42/36
f 254/42/37 255/43/37 253/44/37
f 257/45/37 258/43/37 256/42/37
f 260/42/38 261/43/38 259/44/38
f 263/45/38 264/43/38 262/42/38
f 266/42/39 267/43/39 265/44/39
f 269/45/39 270/43/39 268/42/39
f 272/42/40 273/43/40 271/44/40
f 275/45/40 276/43/40 274/42/40
o fencePosts_005
v 6.517042 1.145000 0.823103
v 6.517042 -0.005000 0.823103
v 6.483688 1.145000 0.666618
v 6.517042 -0.005000 0.823103
v 6.483688 -0.005000 0.666618
v 6.483688 1.145000 0.666618
v 6.327203 1.145000 0.699972
v 6.327203 -0.005000 0.699972
v 6.360557 1.145000 0.856457
v 6.327203 -0.005000 0.699972
v 6.360557 -0.005000 0.856457
v 6.360557 1.145000 0.856457
v 6.327203 1.145000 0.699972
v 6.360557 1.145000 0.856457
v 6.483688 1.145000 0.666618
v 6.360557 1.145000 0.856457
v 6.517042 1.145000 0.823103
v 6.483688 1.145000 0.666618
v 6.360557 -0.005000 0.856457
v 6.327203 -0.005000 0.699972
v 6.517042 -0.005000 0.823103
v 6.327203 -0.005000 0.699972
v 6.483688 -0.005000 0.666618
v 6.517042 -0.005000 0.823103
v 6.360557 1.145000 0.856457
v 6.360557 -0.005000 0.856457
v 6.517042 1.145000 0.823103
v 6.360557 -0.005000 0.856457
v 6.517042 -0.005000 0.823103
v 6.517042 1.145000 0.823103
v 6.483688 1.145000 0.666618
v 6.483688 -0.005000 0.666618
v 6.327203 1.145000 0.699972
v 6.483688 -0.005000 0.666618
v 6.327203 -0.005000 0.699972
v 6.327203 1.145000 0.699972
vn 0.9780 -0.0000 -0.2085
vn -0.9780 -0.0000 0.2085
vn -0.0000 1.0000 -0.0000
vn -0.0000 -1.0000 -0.0000
vn 0.2085 -0.0000 0.9780
vn -0.2085 -0.0000 -0.9780
vt 0.000000 1.000000
vt 1.000000 0.000000
vt 0.000000 0.000000
vt 1.000000 1.000000
s 0
usemtl Material_3
f 278/46/41 279/47/41 277/48/41
f 281/49/41 282/47/41 280/46/41
f 284/46/42 285/47/42 283/48/42
f 287/49/42 288/47/42 286/46/42
f 290/46/43 291/47/43 289/48/43
f 293/49/43 294/47/43 292/46/43
f 296/46/44 297/47/44 295/48/44
f 299/49/44 300/47/44 298/46/44
f 302/46/45 303/47/45 301/48/45
f 305/49/45 306/47/45 304/46/45
f 308/46/46 309/47/46 307/48/46
f 311/49/46 312/47/46 310/46/46
o fenceRails_000
v -0.387136 0.510000 2.274227
v -0.387136 0.390000 2.274227
v -0.412151 0.510000 2.156863
v -0.387136 0.390000 2.274227
v -0.412151 0.390000 2.156863
v -0.412151 0.510000 2.156863
v -2.172606 0.510000 2.532091
v -2.172606 0.390000 2.532091
v -2.147591 0.510000 2.649455
v -2.172606 0.390000 2.532091
v -2.147591 0.390000 2.649455
v -2.147591 0.510000 2.649455
v -2.172606 0.510000 2.532091
v -2.147591 0.510000 2.649455
v -0.412151 0.510000 2.156863
v -2.147591 0.510000 2.649455
v -0.387136 0.510000 2.274227
v -0.412151 0.510000 2.156863
v -2.147591 0.390000 2.649455
v -2.172606 0.390000 2.532091
v -0.387136 0.390000 2.274227
v -2.172606 0.390000 2.532091
v -0.412151 0.390000 2.156863
v -0.387136 0.390000 2.274227
v -2.147591 0.510000 2.649455
v -2.147591 0.390000 2.649455
v -0.387136 0.510000 2.274227
v -2.147591 0.390000 2.649455
v -0.387136 0.390000 2.274227
v -0.387136 0.510000 2.274227
v -0.412151 0.510000 2.156863
v -0.412151 0.390000 2.156863
v -2.172606 0.510000 2.532091
v -0.412151 0.390000 2.156863
v -2.172606 0.390000 2.532091
v -2.172606 0.510000 2.532091
vn 0.9780 -0.0000 -0.2085
vn -0.9780 -0.0000 0.2085
vn -0.0000 1.0000 -0.0000
vn -0.0000 -1.0000 -0.0000
vn 0.2085 -0.0000 0.9780
vn -0.2085 -0.0000 -0.9780
vt 0.000000 1.000000
vt 1.000000 0.000000
vt 0.000000 0.000000
vt 1.000000 1.000000
s 0
usemtl Material_3
f 314/50/47 315/51/47 313/52/47
f 317/53/47 318/51/47 316/50/47
f 320/50/48 321/51/48 319/52/48
f 323/53/48 324/51/48 322/50/48
f 326/50/49 327/51/49 325/52/49
f 329/53/49 330/51/49 328/50/49
f 332/50/50 333/51/50 331/52/50
f 335/53/50 336/51/50 334/50/50
f 338/50/51 339/51/51 337/52/51
f 341/53/51 342/51/51 340/50/51
f 344/50/52 345/51/52 343/52/52
f 347/53/52 348/51/52 346/50/52
o fenceRails_001
v -0.387136 0.940000 2.274227
v -0.387136 0.820000 2.274227
v -0.412151 0.940000 2.156863
v -0.387136 0.820000 2.274227
v -0.412151 0.820000 2.156863
v -0.412151 0.940000 2.156863
v -2.172606 0.940000 2.532091
v -2.172606 0.820000 2.532091
v -2.147591 0.940000 2.649455
v -2.172606 0.820000 2.532091
v -2.147591 0.820000 2.649455
v -2.147591 0.940000 2.649455
v -2.172606 0.940000 2.532091
v -2.147591 0.940000 2.649455
v -0.412151 0.940000 2.156863
v -2.147591 0.940000 2.649455
v -0.387136 0.940000 2.274227
v -0.412151 0.940000 2.156863
v -2.147591 0.820000 2.649455
v -2.172606 0.820000 2.532091
v -0.387136 0.820000 2.274227
v -2.172606 0.820000 2.532091
v -0.412151 0.820000 2.156863
v -0.387136 0.820000 2.274227
v -2.147591 0.940000 2.649455
v -2.147591 0.820000 2.649455
v -0.387136 0.940000 2.274227
v -2.147591 0.820000 2.649455
v -0.387136 0.820000 2.274227
v -0.387136 0.940000 2.274227
v -0.412151 0.940000 2.156863
v -0.412151 0.820000 2.156863
v -2.172606 0.940000 2.532091
v -0.412151 0.820000 2.156863
v -2.172606 0.820000 2.532091
v -2.172606 0.940000 2.532091
vn 0.9780 -0.0000 -0.2085
vn -0.9780 -0.0000 0.2085
vn -0.0000 1.0000 -0.0000
vn -0.0000 -1.0000 -0.0000
vn 0.2085 -0.0000 0.9780
vn -0.2085 -0.0000 -0.9780
vt 0.000000 1.000000
vt 1.000000 0.000000
vt 0.000000 0.000000
vt 1.000000 1.000000
s 0
usemtl Material_3
f 350/54/53 351/55/53 349/56/53
f 353/57/53 354/55/53 352/54/53
f 356/54/54 357/55/54 355/56/54
f 359/57/54 360/55/54 358/54/54
f 362/54/55 363/55/55 361/56/55
f 365/57/55 366/55/55 364/54/55
f 368/54/56 369/55/56 367/56/56
f 371/57/56 372/55/56 370/54/56
f 374/54/57 375/55/57 373/56/57
f 377/57/57 378/55/57 376/54/57
f 380/54/58 381/55/58 379/56/58
f 383/57/58 384/55/58 382/54/58
o fenceRails_002
v 1.324418 0.510000 1.909422
v 1.324418 0.390000 1.909422
v 1.299403 0.510000 1.792059
v 1.324418 0.390000 1.909422
v 1.299403 0.390000 1.792059
v 1.299403 0.510000 1.792059
v -0.461052 0.510000 2.167286
v -0.461052 0.390000 2.167286
v -0.436037 0.510000 2.284650
v -0.461052 0.390000 2.167286
v -0.436037 0.390000 2.284650
v -0.436037 0.510000 2.284650
v -0.461052 0.510000 2.167286
v -0.436037 0.510000 2.284650
v 1.299403 0.510000 1.792059
v -0.436037 0.510000 2.284650
v 1.324418 0.510000 1.909422
v 1.299403 0.510000 1.792059
v -0.436037 0.390000 2.284650
v -0.461052 0.390000 2.167286
v 1.324418 0.390000 1.909422
v -0.461052 0.390000 2.167286
v 1.299403 0.390000 1.792059
v 1.324418 0.390000 1.909422
v -0.436037 0.510000 2.284650
v -0.436037 0.390000 2.284650
v 1.324418 0.510000 1.909422
v -0.436037 0.390000 2.284650
v 1.324418 0.390000 1.909422
v 1.324418 0.510000 1.909422
v 1.299403 0.510000 1.792059
v 1.299403 0.390000 1.792059
v -0.461052 0.510000 2.167286
v 1.299403 0.390000 1.792059
v -0.461052 0.390000 2.167286
v -0.461052 0.510000 2.167286
vn 0.9780 -0.0000 -0.2085
vn -0.9780 -0.0000 0.2085
vn -0.0000 1.0000 -0.0000
vn -0.0000 -1.0000 -0.0000
vn 0.2085 -0.0000 0.9780
vn -0.2085 -0.0000 -0.9780
vt 0.000000 1.000000
vt 1.000000 0.000000
vt 0.000000 0.000000
vt 1.000000 1.000000
s 0
usemtl Material_3
f 386/58/59 387/59/59 385/60/59
f 389/61/59 390/59/59 388/58/59
f 392/58/60 393/59/60 391/60/60
f 395/61/60 396/59/60 394/58/60
f 398/58/61 399/59/61 397/60/61
f 401/61/61 402/59/61 400/58/61
f 404/58/62 405/59/62 403/60/62
f 407/61/62 408/59/62 406/58/62
f 410/58/63 411/59/63 409/60/63
f 413/61/63 414/59/63 412/58/63
f 416/58/64 417/59/64 415/60/64
f 419/61/64 420/59/64 418/58/64
o fenceRails_003
v 1.324418 0.940000 1.909422
v 1.324418 0.820000 1.909422
v 1.299403 0.940000 1.792059
v 1.324418 0.820000 1.909422
v 1.299403 0.820000 1.792059
v 1.299403 0.940000 1.792059
v -0.461052 0.940000 2.167286
v -0.461052 0.820000 2.167286
v -0.436037 0.940000 2.284650
v -0.461052 0.820000 2.167286
v -0.436037 0.820000 2.284650
v -0.436037 0.940000 2.284650
v -0.461052 0.940000 2.167286
v -0.436037 0.940000 2.284650
v 1.299403 0.940000 1.792059
v -0.436037 0.940000 2.284650
v 1.324418 0.940000 1.909422
v 1.299403 0.940000 1.792059
v -0.436037 0.820000 2.284650
v -0.461052 0.820000 2.167286
v 1.324418 0.820000 1.909422
v -0.461052 0.820000 2.167286
v 1.299403 0.820000 1.792059
v 1.324418 0.820000 1.909422
v -0.436037 0.940000 2.284650
v -0.436037 0.820000 2.284650
v 1.324418 0.940000 1.909422
v -0.436037 0.820000 2.284650
v 1.324418 0.820000 1.909422
v 1.324418 0.940000 1.909422
v 1.299403 0.940000 1.792059
v 1.299403 0.820000 1.792059
v -0.461052 0.940000 2.167286
v 1.299403 0.820000 1.792059
v -0.461052 0.820000 2.167286
v -0.461052 0.940000 2.167286
vn 0.9780 -0.0000 -0.2085
vn -0.9780 -0.0000 0.2085
vn -0.0000 1.0000 -0.0000
vn -0.0000 -1.0000 -0.0000
vn 0.2085 -0.0000 0.9780
vn -0.2085 -0.0000 -0.9780
vt 0.000000 1.000000
vt 1.000000 0.000000
vt 0.000000 0.000000
vt 1.000000 1.000000
s 0
usemtl Material_3
f 422/62/65 423/63/65 421/64/65
f 425/65/65 426/63/65 424/62/65
f 428/62/66 429/63/66 427/64/66
f 431/65/66 432/63/66 430/62/66
f 434/62/67 435/63/67 433/64/67
f 437/65/67 438/63/67 436/62/67
f 440/62/68 441/63/68 439/64/68
f 443/65/68 444/63/68 442/62/68
f 446/62/69 447/63/69 445/64/69
f 449/65/69 450/63/69 448/62/69
f 452/62/70 453/63/70 451/64/70
f 455/65/70 456/63/70 454/62/70
o fenceRails_004
v 3.035973 0.510000 1.544618
v 3.035973 0.390000 1.544618
v 3.010957 0.510000 1.427254
v 3.035973 0.390000 1.544618
v 3.010957 0.390000 1.427254
v 3.010957 0.510000 1.427254
v 1.250502 0.510000 1.802482
v 1.250502 0.390000 1.802482
v 1.275517 0.510000 1.919845
v 1.250502 0.390000 1.802482
v 1.275517 0.390000 1.919845
v 1.275517 0.510000 1.919845
v 1.250502 0.510000 1.802482
v 1.275517 0.510000 1.919845
v 3.010957 0.510000 1.427254
v 1.275517 0.510000 1.919845
v 3.035973 0.510000 1.544618
v 3.010957 0.510000 1.427254
v 1.275517 0.390000 1.919845
v 1.250502 0.390000 1.802482
v 3.035973 0.390000 1.544618
v 1.250502 0.390000 1.802482
v 3.010957 0.390000 1.427254
v 3.035973 0.390000 1.544618
v 1.275517 0.510000 1.919845
v 1.275517 0.390000 1.919845
v 3.035973 0.510000 1.544618
v 1.275517 0.390000 1.919845
v 3.035973 0.390000 1.544618
v 3.035973 0.510000 1.544618
v 3.010957 0.510000 1.427254
v 3.010957 0.390000 1.427254
v 1.250502 0.510000 1.802482
v 3.010957 0.390000 1.427254
v 1.250502 0.390000 1.802482
v 1.250502 0.510000 1.802482
vn 0.9780 -0.0000 -0.2085
vn -0.9780 -0.0000 0.2085
vn -0.0000 1.0000 -0.0000
vn -0.0000 -1.0000 -0.0000
vn 0.2085 -0.0000 0.9780
vn -0.2085 -0.0000 -0.9780
vt 0.000000 1.000000
vt 1.000000 0.000000
vt 0.000000 0.000000
vt 1.000000 1.000000
s 0
usemtl Material_3
f 458/66/71 459/67/71 457/68/71
f 461/69/71 462/67/71 460/66/71
f 464/66/72 465/67/72 463/68/72
f 467/69/72 468/67/72 466/66/72
f 470/66/73 471/67/73 469/68/73
f 473/69/73 474/67/73 472/66/73
f 476/66/74 477/67/74 475/68/74
f 479/69/74 480/67/74 478/66/74
f 482/66/75 483/67/75 481/68/75
f 485/69/75 486/67/75 484/66/75
f 488/66/76 489/67/76 487/68/76
f 491/69/76 492/67/76 490/66/76
o fenceRails_005
v 3.035973 0.940000 1.544618
v 3.035973 0.820000 1.544618
v 3.010957 0.940000 1.427254
v 3.035973 0.820000 1.544618
v 3.010957 0.820000 1.427254
v 3.010957 0.940000 1.427254
v 1.250502 0.940000 1.802482
v 1.250502 0.820000 1.802482
v 1.275517 0.940000 1.919845
v 1.250502 0.820000 1.802482
v 1.275517 0.820000 1.919845
v 1.275517 0.940000 1.919845
v 1.250502 0.940000 1.802482
v 1.275517 0.940000 1.919845
v 3.010957 0.940000 1.427254
v 1.275517 0.940000 1.919845
v 3.035973 0.940000 1.544618
v 3.010957 0.940000 1.427254
v 1.275517 0.820000 1.919845
v 1.250502 0.820000 1.802482
v 3.035973 0.820000 1.544618
v 1.250502 0.820000 1.802482
v 3.010957 0.820000 1.427254
v 3.035973 0.820000 1.544618
v 1.275517 0.940000 1.919845
v 1.275517 0.820000 1.919845
v 3.035973 0.940000 1.544618
v 1.275517 0.820000 1.919845
v 3.035973 0.820000 1.544618
v 3.035973 0.940000 1.544618
v 3.010957 0.940000 1.427254
v 3.010957 0.820000 1.427254
v 1.250502 0.940000 1.802482
v 3.010957 0.820000 1.427254
v 1.250502 0.820000 1.802482
v 1.250502 0.940000 1.802482
vn 0.9780 -0.0000 -0.2085
vn -0.9780 -0.0000 0.2085
vn -0.0000 1.0000 -0.0000
vn -0.0000 -1.0000 -0.0000
vn 0.2085 -0.0000 0.9780
vn -0.2085 -0.0000 -0.9780
vt 0.000000 1.000000
vt 1.000000 0.000000
vt 0.000000 0.000000
vt 1.000000 1.000000
s 0
usemtl Material_3
f 494/70/77 495/71/77 493/72/77
f 497/73/77 498/71/77 496/70/77
f 500/70/78 501/71/78 499/72/78
f 503/73/78 504/71/78 502/70/78
f 506/70/79 507/71/79 505/72/79
f 509/73/79 510/71/79 508/70/79
f 512/70/80 513/71/80 511/72/80
f 515/73/80 516/71/80 514/70/80
f 518/70/81 519/71/81 517/72/81
f 521/73/81 522/71/81 520/70/81
f 524/70/82 525/71/82 523/72/82
f 527/73/82 528/71/82 526/70/82
o fenceRails_006
v 4.747527 0.510000 1.179813
v 4.747527 0.390000 1.179813
v 4.722511 0.510000 1.062449
v 4.747527 0.390000 1.179813
v 4.722511 0.390000 1.062449
v 4.722511 0.510000 1.062449
v 2.962056 0.510000 1.437677
v 2.962056 0.390000 1.437677
v 2.987071 0.510000 1.555041
v 2.962056 0.390000 1.437677
v 2.987071 0.390000 1.555041
v 2.987071 0.510000 1.555041
v 2.962056 0.510000 1.437677
v 2.987071 0.510000 1.555041
v 4.722511 0.510000 1.062449
v 2.987071 0.510000 1.555041
v 4.747527 0.510000 1.179813
v 4.722511 0.510000 1.062449
v 2.987071 0.390000 1.555041
v 2.962056 0.390000 1.437677
v 4.747527 0.390000 1.179813
v 2.962056 0.390000 1.437677
v 4.722511 0.390000 1.062449
v 4.747527 0.390000 1.179813
v 2.987071 0.510000 1.555041
v 2.987071 0.390000 1.555041
v 4.747527 0.510000 1.179813
v 2.987071 0.390000 1.555041
v 4.747527 0.390000 1.179813
v 4.747527 0.510000 1.179813
v 4.722511 0.510000 1.062449
v 4.722511 0.390000 1.062449
v 2.962056 0.510000 1.437677
v 4.722511 0.390000 1.062449
v 2.962056 0.390000 1.437677
v 2.962056 0.510000 1.437677
vn 0.9780 -0.0000 -0.2085
vn -0.9780 -0.0000 0.2085
vn -0.0000 1.0000 -0.0000
vn -0.0000 -1.0000 -0.0000
vn 0.2085 -0.0000 0.9780
vn -0.2085 -0.0000 -0.9780
vt 0.000000 1.000000
vt 1.000000 0.000000
vt 0.000000 0.000000
vt 1.000000 1.000000
s 0
usemtl Material_3
f 530/74/83 531/75/83 529/76/83
f 533/77/83 534/75/83 532/74/83
f 536/74/84 537/75/84 535/76/84
f 539/77/84 540/75/84 538/74/84
f 542/74/85 543/75/85 541/76/85
f 545/77/85 546/75/85 544/74/85
f 548/74/86 549/75/86 547/76/86
f 551/77/86 552/75/86 550/74/86
f 554/74/87 555/75/87 553/76/87
f 557/77/87 558/75/87 556/74/87
f 560/74/88 561/75/88 559/76/88
f 563/77/88 564/75/88 562/74/88
o fenceRails_007
v 4.747527 0.940000 1.179813
v 4.747527 0.820000 1.179813
v 4.722511 0.940000 1.062449
v 4.747527 0.820000 1.179813
v 4.722511 0.820000 1.062449
v 4.722511 0.940000 1.062449
v 2.962056 0.940000 1.437677
v 2.962056 0.820000 1.437677
v 2.987071 0.940000 1.555041
v 2.962056 0.820000 1.437677
v 2.987071 0.820000 1.555041
v 2.987071 0.940000 1.555041
v 2.962056 0.940000 1.437677
v 2.987071 0.940000 1.555041
v 4.722511 0.940000 1.062449
v 2.987071 0.940000 1.555041
v 4.747527 0.940000 1.179813
v 4.722511 0.940000 1.062449
v 2.987071 0.820000 1.555041
v 2.962056 0.820000 1.437677
v 4.747527 0.820000 1.179813
v 2.962056 0.820000 1.437677
v 4.722511 0.820000 1.062449
v 4.747527 0.820000 1.179813
v 2.987071 0.940000 1.555041
v 2.987071 0.820000 1.555041
v 4.747527 0.940000 1.179813
v 2.987071 0.820000 1.555041
v 4.747527 0.820000 1.179813
v 4.747527 0.940000 1.179813
v 4.722511 0.940000 1.062449
v 4.722511 0.820000 1.062449
v 2.962056 0.940000 1.437677
v 4.722511 0.820000 1.062449
v 2.962056 0.820000 1.437677
v 2.962056 0.940000 1.437677
vn 0.9780 -0.0000 -0.2085
vn -0.9780 -0.0000 0.2085
vn -0.0000 1.0000 -0.0000
vn -0.0000 -1.0000 -0.0000
vn 0.2085 -0.0000 0.9780
vn -0.2085 -0.0000 -0.9780
vt 0.000000 1.000000
vt 1.000000 0.000000
vt 0.000000 0.000000
vt 1.000000 1.000000
s 0
usemtl Material_3
f 566/78/89 567/79/89 565/80/89
f 569/81/89 570/79/89 568/78/89
f 572/78/90 573/79/90 571/80/90
f 575/81/90 576/79/90 574/78/90
f 578/78/91 579/79/91 577/80/91
f 581/81/91 582/79/91 580/78/91
f 584/78/92 585/79/92 583/80/92
f 587/81/92 588/79/92 586/78/92
f 590/78/93 591/79/93 589/80/93
f 593/81/93 594/79/93 592/78/93
f 596/78/94 597/79/94 595/80/94
f 599/81/94 600/79/94 598/78/94
o fenceRails_008
v 6.459081 0.510000 0.815008
v 6.459081 0.390000 0.815008
v 6.434065 0.510000 0.697644
v 6.459081 0.390000 0.815008
v 6.434065 0.390000 0.697644
v 6.434065 0.510000 0.697644
v 4.673610 0.510000 1.072872
v 4.673610 0.390000 1.072872
v 4.698625 0.510000 1.190236
v 4.673610 0.390000 1.072872
v 4.698625 0.390000 1.190236
v 4.698625 0.510000 1.190236
v 4.673610 0.510000 1.072872
v 4.698625 0.510000 1.190236
v 6.434065 0.510000 0.697644
v 4.698625 0.510000 1.190236
v 6.459081 0.510000 0.815008
v 6.434065 0.510000 0.697644
v 4.698625 0.390000 1.190236
v 4.673610 0.390000 1.072872
v 6.459081 0.390000 0.815008
v 4.673610 0.390000 1.072872
v 6.434065 0.390000 0.697644
v 6.459081 0.390000 0.815008
v 4.698625 0.510000 1.190236
v 4.698625 0.390000 1.190236
v 6.459081 0.510000 0.815008
v 4.698625 0.390000 1.190236
v 6.459081 0.390000 0.815008
v 6.459081 0.510000 0.815008
v 6.434065 0.510000 0.697644
v 6.434065 0.390000 0.697644
v 4.673610 0.510000 1.072872
v 6.434065 0.390000 0.697644
v 4.673610 0.390000 1.072872
v 4.673610 0.510000 1.072872
vn 0.9780 -0.0000 -0.2085
vn -0.9780 -0.0000 0.2085
vn -0.0000 1.0000 -0.0000
vn -0.0000 -1.0000 -0.0000
vn 0.2085 -0.0000 0.9780
vn -0.2085 -0.0000 -0.9780
vt 0.000000 1.000000
vt 1.000000 0.000000
vt 0.000000 0.000000
vt 1.000000 1.000000
s 0
usemtl Material_3
f 602/82/95 603/83/95 601/84/95
f 605/85/95 606/83/95 604/82/95
f 608/82/96 609/83/96 607/84/96
f 611/85/96 612/83/96 610/82/96
f 614/82/97 615/83/97 613/84/97
f 617/85/97 618/83/97 616/82/97
f 620/82/98 621/83/98 619/84/98
f 623/85/98 624/83/98 622/82/98
f 626/82/99 627/83/99 625/84/99
f 629/85/99 630/83/99 628/82/99
f 632/82/100 633/83/100 631/84/100
f 635/85/100 636/83/100 634/82/100
o fenceRails_009
v 6.459081 0.940000 0.815008
v 6.459081 0.820000 0.815008
v 6.434065 0.940000 0.697644
v 6.459081 0.820000 0.815008
v 6.434065 0.820000 0.697644
v 6.434065 0.940000 0.697644
v 4.673610 0.940000 1.072872
v 4.673610 0.820000 1.072872
v 4.698625 0.940000 1.190236
v 4.673610 0.820000 1.072872
v 4.698625 0.820000 1.190236
v 4.698625 0.940000 1.190236
v 4.673610 0.940000 1.072872
v 4.698625 0.940000 1.190236
v 6.434065 0.940000 0.697644
v 4.698625 0.940000 1.190236
v 6.459081 0.940000 0.815008
v 6.434065 0.940000 0.697644
v 4.698625 0.820000 1.190236
v 4.673610 0.820000 1.072872
v 6.459081 0.820000 0.815008
v 4.673610 0.820000 1.072872
v 6.434065 0.820000 0.697644
v 6.459081 0.820000 0.815008
v 4.698625 0.940000 1.190236
v 4.698625 0.820000 1.190236
v 6.459081 0.940000 0.815008
v 4.698625 0.820000 1.190236
v 6.459081 0.820000 0.815008
v 6.459081 0.940000 0.815008
v 6.434065 0.940000 0.697644
v 6.434065 0.820000 0.697644
v 4.673610 0.940000 1.072872
v 6.434065 0.820000 0.697644
v 4.673610 0.820000 1.072872
v 4.673610 0.940000 1.072872
vn 0.9780 -0.0000 -0.2085
vn -0.9780 -0.0000 0.2085
vn -0.0000 1.0000 -0.0000
vn -0.0000 -1.0000 -0.0000
vn 0.2085 -0.0000 0.9780
vn -0.2085 -0.0000 -0.9780
vt 0.000000 1.000000
vt 1.000000 0.000000
vt 0.000000 0.000000
vt 1.000000 1.000000
s 0
usemtl Material_3
f 638/86/101 639/87/101 637/88/101
f 641/89/101 642/87/101 640/86/101
f 644/86/102 645/87/102 643/88/102
f 647/89/102 648/87/102 646/86/102
f 650/86/103 651/87/103 649/88/103
f 653/89/103 654/87/103 652/86/103
f 656/86/104 657/87/104 655/88/104
f 659/89/104 660/87/104 658/86/104
f 662/86/105 663/87/105 661/88/105
f 665/89/105 666/87/105 664/86/105
f 668/86/106 669/87/106 667/88/106
f 671/89/106 672/87/106 670/86/106
o ironStructure_0002
v 2.743348 0.360000 1.357955
v 2.743348 0.000000 1.357955
v 1.951200 0.360000 -2.358562
v 2.743348 0.000000 1.357955
v 1.951200 0.000000 -2.358562
v 1.951200 0.360000 -2.358562
v -2.743348 0.360000 -1.357955
v -2.743348 0.000000 -1.357955
v -1.951200 0.360000 2.358562
v -2.743348 0.000000 -1.357955
v -1.951200 0.000000 2.358562
v -1.951200 0.360000 2.358562
v -2.743348 0.360000 -1.357955
v -1.951200 0.360000 2.358562
v 1.951200 0.360000 -2.358562
v -1.951200 0.360000 2.358562
v 2.743348 0.360000 1.357955
v 1.951200 0.360000 -2.358562
v -1.951200 0.000000 2.358562
v -2.743348 0.000000 -1.357955
v 2.743348 0.000000 1.357955
v -2.743348 0.000000 -1.357955
v 1.951200 0.000000 -2.358562
v 2.743348 0.000000 1.357955
v -1.951200 0.360000 2.358562
v -1.951200 0.000000 2.358562
v 2.743348 0.360000 1.357955
v -1.951200 0.000000 2.358562
v 2.743348 0.000000 1.357955
v 2.743348 0.360000 1.357955
v 1.951200 0.360000 -2.358562
v 1.951200 0.000000 -2.358562
v -2.743348 0.360000 -1.357955
v 1.951200 0.000000 -2.358562
v -2.743348 0.000000 -1.357955
v -2.743348 0.360000 -1.357955
vn 0.9780 -0.0000 -0.2085
vn -0.9780 -0.0000 0.2085
vn -0.0000 1.0000 -0.0000
vn -0.0000 -1.0000 -0.0000
vn 0.2085 -0.0000 0.9780
vn -0.2085 -0.0000 -0.9780
vt 0.000000 1.000000
vt 1.000000 0.000000
vt 0.000000 0.000000
vt 1.000000 1.000000
s 0
usemtl Material_2
f 674/90/107 675/91/107 673/92/107
f 677/93/107 678/91/107 676/90/107
f 680/90/108 681/91/108 679/92/108
f 683/93/108 684/91/108 682/90/108
f 686/90/109 687/91/109 685/92/109
f 689/93/109 690/91/109 688/90/109
f 692/90/110 693/91/110 691/92/110
f 695/93/110 696/91/110 694/90/110
f 698/90/111 699/91/111 697/92/111
f 701/93/111 702/91/111 700/90/111
f 704/90/112 705/91/112 703/92/112
f 707/93/112 708/91/112 706/90/112
o ironStructure_0012
v -1.288852 2.992330 0.402517
v -0.669890 0.162227 0.270590
v -1.340967 2.992330 0.158009
v -0.669890 0.162227 0.270590
v -0.722005 0.162227 0.026082
v -1.340967 2.992330 0.158009
v -1.579581 2.937773 0.208868
v -0.960619 0.107670 0.076941
v -1.527467 2.937773 0.453376
v -0.960619 0.107670 0.076941
v -0.908504 0.107670 0.321449
v -1.527467 2.937773 0.453376
v -1.579581 2.937773 0.208868
v -1.527467 2.937773 0.453376
v -1.340967 2.992330 0.158009
v -1.527467 2.937773 0.453376
v -1.288852 2.992330 0.402517
v -1.340967 2.992330 0.158009
v -0.908504 0.107670 0.321449
v -0.960619 0.107670 0.076941
v -0.669890 0.162227 0.270590
v -0.960619 0.107670 0.076941
v -0.722005 0.162227 0.026082
v -0.669890 0.162227 0.270590
v -1.527467 2.937773 0.453376
v -0.908504 0.107670 0.321449
v -1.288852 2.992330 0.402517
v -0.908504 0.107670 0.321449
v -0.669890 0.162227 0.270590
v -1.288852 2.992330 0.402517
v -1.340967 2.992330 0.158009
v -0.722005 0.162227 0.026082
v -1.579581 2.937773 0.208868
v -0.722005 0.162227 0.026082
v -0.960619 0.107670 0.076941
v -1.579581 2.937773 0.208868
vn 0.9545 0.2182 -0.2034
vn -0.9545 -0.2182 0.2034
vn -0.2134 0.9759 0.0455
vn 0.2134 -0.9759 -0.0455
vn 0.2085 -0.0000 0.9780
vn -0.2085 -0.0000 -0.9780
vt 0.000000 1.000000
vt 1.000000 0.000000
vt 0.000000 0.000000
vt 1.000000 1.000000
s 0
usemtl Material_2
f 710/94/113 711/95/113 709/96/113
f 713/97/113 714/95/113 712/94/113
f 716/94/114 717/95/114 715/96/114
f 719/97/114 720/95/114 718/94/114
f 722/94/115 723/95/115 721/96/115
f 725/97/115 726/95/115 724/94/115
f 728/94/116 729/95/116 727/96/116
f 731/97/116 732/95/116 730/94/116
f 734/94/117 735/95/117 733/96/117
f 737/97/117 738/95/117 736/94/117
f 740/94/118 741/95/118 739/96/118
f 743/97/118 744/95/118 742/94/118
o ironStructure_0022
v 1.579581 2.937773 -0.208868
v 0.960619 0.107670 -0.076941
v 1.527467 2.937773 -0.453376
v 0.960619 0.107670 -0.076941
v 0.908504 0.107670 -0.321449
v 1.527467 2.937773 -0.453376
v 1.288852 2.992330 -0.402517
v 0.669890 0.162227 -0.270590
v 1.340967 2.992330 -0.158009
v 0.669890 0.162227 -0.270590
v 0.722005 0.162227 -0.026082
v 1.340967 2.992330 -0.158009
v 1.288852 2.992330 -0.402517
v 1.340967 2.992330 -0.158009
v 1.527467 2.937773 -0.453376
v 1.340967 2.992330 -0.158009
v 1.579581 2.937773 -0.208868
v 1.527467 2.937773 -0.453376
v 0.722005 0.162227 -0.026082
v 0.669890 0.162227 -0.270590
v 0.960619 0.107670 -0.076941
v 0.669890 0.162227 -0.270590
v 0.908504 0.107670 -0.321449
v 0.960619 0.107670 -0.076941
v 1.340967 2.992330 -0.158009
v 0.722005 0.162227 -0.026082
v 1.579581 2.937773 -0.208868
v 0.722005 0.162227 -0.026082
v 0.960619 0.107670 -0.076941
v 1.579581 2.937773 -0.208868
v 1.527467 2.937773 -0.453376
v 0.908504 0.107670 -0.321449
v 1.288852 2.992330 -0.402517
v 0.908504 0.107670 -0.321449
v 0.669890 0.162227 -0.270590
v 1.288852 2.992330 -0.402517
vn 0.9545 -0.2182 -0.2034
vn -0.9545 0.2182 0.2034
vn 0.2134 0.9759 -0.0455
vn -0.2134 -0.9759 0.0455
vn 0.2085 -0.0000 0.9780
vn -0.2085 -0.0000 -0.9780
vt 0.000000 1.000000
vt 1.000000 0.000000
vt 0.000000 0.000000
vt 1.000000 1.000000
s 0
usemtl Material_2
f 746/98/119 747/99/119 745/100/119
f 749/101/119 750/99/119 748/98/119
f 752/98/120 753/99/120 751/100/120
f 755/101/120 756/99/120 754/98/120
f 758/98/121 759/99/121 757/100/121
f 761/101/121 762/99/121 760/98/121
f 764/98/122 765/99/122 763/100/122
f 767/101/122 768/99/122 766/98/122
f 770/98/123 771/99/123 769/100/123
f 773/101/123 774/99/123 772/98/123
f 776/98/124 777/99/124 775/100/124
f 779/101/124 780/99/124 778/98/124
o metalStructure_0002
v 1.527978 2.840000 -0.146746
v 1.527978 2.560000 -0.146746
v 1.455017 2.840000 -0.489057
v 1.527978 2.560000 -0.146746
v 1.455017 2.560000 -0.489057
v 1.455017 2.840000 -0.489057
v -1.527978 2.840000 0.146746
v -1.527978 2.560000 0.146746
v -1.455017 2.840000 0.489057
v -1.527978 2.560000 0.146746
v -1.455017 2.560000 0.489057
v -1.455017 2.840000 0.489057
v -1.527978 2.840000 0.146746
v -1.455017 2.840000 0.489057
v 1.455017 2.840000 -0.489057
v -1.455017 2.840000 0.489057
v 1.527978 2.840000 -0.146746
v 1.455017 2.840000 -0.489057
v -1.455017 2.560000 0.489057
v -1.527978 2.560000 0.146746
v 1.527978 2.560000 -0.146746
v -1.527978 2.560000 0.146746
v 1.455017 2.560000 -0.489057
v 1.527978 2.560000 -0.146746
v -1.455017 2.840000 0.489057
v -1.455017 2.560000 0.489057
v 1.527978 2.840000 -0.146746
v -1.455017 2.560000 0.489057
v 1.527978 2.560000 -0.146746
v 1.527978 2.840000 -0.146746
v 1.455017 2.840000 -0.489057
v 1.455017 2.560000 -0.489057
v -1.527978 2.840000 0.146746
v 1.455017 2.560000 -0.489057
v -1.527978 2.560000 0.146746
v -1.527978 2.840000 0.146746
vn 0.9780 -0.0000 -0.2085
vn -0.9780 -0.0000 0.2085
vn -0.0000 1.0000 -0.0000
vn -0.0000 -1.0000 -0.0000
vn 0.2085 -0.0000 0.9780
vn -0.2085 -0.0000 -0.9780
vt 0.000000 1.000000
vt 1.000000 0.000000
vt 0.000000 0.000000
vt 1.000000 1.000000
s 0
usemtl Material_2
f 782/102/125 783/103/125 781/104/125
f 785/105/125 786/103/125 784/102/125
f 788/102/126 789/103/126 787/104/126
f 791/105/126 792/103/126 790/102/126
f 794/102/127 795/103/127 793/104/127
f 797/105/127 798/103/127 796/102/127
f 800/102/128 801/103/128 799/104/128
f 803/105/128 804/103/128 802/102/128
f 806/102/129 807/103/129 805/104/129
f 809/105/129 810/103/129 808/102/129
f 812/102/130 813/103/130 811/104/130
f 815/105/130 816/103/130 814/102/130
o tankInstances_000
v -4.563396 1.050000 4.014480
v -2.020515 1.050000 3.472484
v -4.610714 1.598007 3.792474
v -2.020515 1.050000 3.472484
v -2.067834 1.598007 3.250478
v -4.610714 1.598007 3.792474
v -4.610714 1.598007 3.792474
v -2.067834 1.598007 3.250478
v -4.724952 1.825000 3.256505
v -2.067834 1.598007 3.250478
v -2.182072 1.825000 2.714510
v -4.724952 1.825000 3.256505
v -4.724952 1.825000 3.256505
v -2.182072 1.825000 2.714510
v -4.839190 1.598007 2.720538
v -2.182072 1.825000 2.714510
v -2.296309 1.598007 2.178542
v -4.839190 1.598007 2.720538
v -4.839190 1.598007 2.720538
v -2.296309 1.598007 2.178542
v -4.886508 1.050000 2.498532
v -2.296309 1.598007 2.178542
v -2.343628 1.050000 1.956536
v -4.886508 1.050000 2.498532
v -4.886508 1.050000 2.498532
v -2.343628 1.050000 1.956536
v -4.839190 0.501993 2.720538
v -2.343628 1.050000 1.956536
v -2.296309 0.501993 2.178542
v -4.839190 0.501993 2.720538
v -4.839190 0.501993 2.720538
v -2.296309 0.501993 2.178542
v -4.724952 0.275000 3.256505
v -2.296309 0.501993 2.178542
v -2.182072 0.275000 2.714510
v -4.724952 0.275000 3.256505
v -4.724952 0.275000 3.256505
v -2.182072 0.275000 2.714510
v -4.610714 0.501993 3.792474
v -2.182072 0.275000 2.714510
v -2.067834 0.501993 3.250478
v -4.610714 0.501993 3.792474
v -4.610714 0.501993 3.792474
v -2.067834 0.501993 3.250478
v -4.563396 1.050000 4.014480
v -2.067834 0.501993 3.250478
v -2.020515 1.050000 3.472484
v -4.563396 1.050000 4.014480
v -4.563396 1.050000 4.014480
v -4.610714 1.598007 3.792474
v -4.724952 1.050000 3.256505
v -4.610714 1.598007 3.792474
v -4.724952 1.825000 3.256505
v -4.724952 1.050000 3.256505
v -4.724952 1.825000 3.256505
v -4.839190 1.598007 2.720538
v -4.724952 1.050000 3.256505
v -4.839190 1.598007 2.720538
v -4.886508 1.050000 2.498532
v -4.724952 1.050000 3.256505
v -4.886508 1.050000 2.498532
v -4.839190 0.501993 2.720538
v -4.724952 1.050000 3.256505
v -4.839190 0.501993 2.720538
v -4.724952 0.275000 3.256505
v -4.724952 1.050000 3.256505
v -4.724952 0.275000 3.256505
v -4.610714 0.501993 3.792474
v -4.724952 1.050000 3.256505
v -4.610714 0.501993 3.792474
v -4.563396 1.050000 4.014480
v -4.724952 1.050000 3.256505
v -2.067834 1.598007 3.250478
v -2.020515 1.050000 3.472484
v -2.182072 1.050000 2.714510
v -2.182072 1.825000 2.714510
v -2.067834 1.598007 3.250478
v -2.182072 1.050000 2.714510
v -2.296309 1.598007 2.178542
v -2.182072 1.825000 2.714510
v -2.182072 1.050000 2.714510
v -2.343628 1.050000 1.956536
v -2.296309 1.598007 2.178542
v -2.182072 1.050000 2.714510
v -2.296309 0.501993 2.178542
v -2.343628 1.050000 1.956536
v -2.182072 1.050000 2.714510
v -2.182072 0.275000 2.714510
v -2.296309 0.501993 2.178542
v -2.182072 1.050000 2.714510
v -2.067834 0.501993 3.250478
v -2.182072 0.275000 2.714510
v -2.182072 1.050000 2.714510
v -2.020515 1.050000 3.472484
v -2.067834 0.501993 3.250478
v -2.182072 1.050000 2.714510
vn 0.1926 0.3827 0.9036
vn 0.0798 0.9239 0.3743
vn -0.0798 0.9239 -0.3743
vn -0.1926 0.3827 -0.9036
vn -0.1926 -0.3827 -0.9036
vn -0.0798 -0.9239 -0.3743
vn 0.0798 -0.9239 0.3743
vn 0.1926 -0.3827 0.9036
vn -0.9780 -0.0000 0.2085
vn 0.9780 -0.0000 -0.2085
vt 0.000000 1.000000
vt 0.125000 0.000000
vt 0.000000 0.000000
vt 0.125000 1.000000
vt 0.250000 0.000000
vt 0.250000 1.000000
vt 0.375000 0.000000
vt 0.375000 1.000000
vt 0.500000 0.000000
vt 0.500000 1.000000
vt 0.625000 0.000000
vt 0.625000 1.000000
vt 0.750000 0.000000
vt 0.750000 1.000000
vt 0.875000 0.000000
vt 0.875000 1.000000
vt 1.000000 0.000000
vt 1.000000 1.000000
vt 0.853553 0.146447
vt 0.500000 0.500000
vt 1.000000 0.500000
vt 0.146447 0.146447
vt 0.000000 0.500000
vt 0.146447 0.853553
vt 0.853553 0.853553
s 0
usemtl Material_2
f 818/106/131 819/107/131 817/108/131
f 821/109/131 822/107/131 820/106/131
f 824/109/132 825/110/132 823/107/132
f 827/111/132 828/110/132 826/109/132
f 830/111/133 831/112/133 829/110/133
f 833/113/133 834/112/133 832/111/133
f 836/113/134 837/114/134 835/112/134
f 839/115/134 840/114/134 838/113/134
f 842/115/135 843/116/135 841/114/135
f 845/117/135 846/116/135 844/115/135
f 848/117/136 849/118/136 847/116/136
f 851/119/136 852/118/136 850/117/136
f 854/119/137 855/120/137 853/118/137
f 857/121/137 858/120/137 856/119/137
f 860/121/138 861/122/138 859/120/138
f 863/123/138 864/122/138 862/121/138
f 866/124/139 867/125/139 865/126/139
f 869/114/139 870/125/139 868/124/139
f 872/127/139 873/125/139 871/114/139
f 875/128/139 876/125/139 874/127/139
f 878/129/139 879/125/139 877/128/139
f 881/115/139 882/125/139 880/129/139
f 884/130/139 885/125/139 883/115/139
f 887/126/139 888/125/139 886/130/139
f 890/126/140 891/125/140 889/130/140
f 893/130/140 894/125/140 892/115/140
f 896/115/140 897/125/140 895/129/140
f 899/129/140 900/125/140 898/128/140
f 902/128/140 903/125/140 901/127/140
f 905/127/140 906/125/140 904/114/140
f 908/114/140 909/125/140 907/124/140
f 911/124/140 912/125/140 910/126/140
o iron_box
v 3.505363 3.430000 -0.583548
v 3.505363 3.170000 -0.583548
v 3.438656 3.430000 -0.896518
v 3.505363 3.170000 -0.583548
v 3.438656 3.170000 -0.896518
v 3.438656 3.430000 -0.896518
v -1.255892 3.430000 0.104090
v -1.255892 3.170000 0.104090
v -1.189185 3.430000 0.417060
v -1.255892 3.170000 0.104090
v -1.189185 3.170000 0.417060
v -1.189185 3.430000 0.417060
v -1.255892 3.430000 0.104090
v -1.189185 3.430000 0.417060
v 3.438656 3.430000 -0.896518
v -1.189185 3.430000 0.417060
v 3.505363 3.430000 -0.583548
v 3.438656 3.430000 -0.896518
v -1.189185 3.170000 0.417060
v -1.255892 3.170000 0.104090
v 3.505363 3.170000 -0.583548
v -1.255892 3.170000 0.104090
v 3.438656 3.170000 -0.896518
v 3.505363 3.170000 -0.583548
v -1.189185 3.430000 0.417060
v -1.189185 3.170000 0.417060
v 3.505363 3.430000 -0.583548
v -1.189185 3.170000 0.417060
v 3.505363 3.170000 -0.583548
v 3.505363 3.430000 -0.583548
v 3.438656 3.430000 -0.896518
v 3.438656 3.170000 -0.896518
v -1.255892 3.430000 0.104090
v 3.438656 3.170000 -0.896518
v -1.255892 3.170000 0.104090
v -1.255892 3.430000 0.104090
vn 0.9780 -0.0000 -0.2085
vn -0.9780 -0.0000 0.2085
vn -0.0000 1.0000 -0.0000
vn -0.0000 -1.0000 -0.0000
vn 0.2085 -0.0000 0.9780
vn -0.2085 -0.0000 -0.9780
vt 0.000000 1.000000
vt 1.000000 0.000000
vt 0.000000 0.000000
vt 1.000000 1.000000
s 0
usemtl Material_2
f 914/131/141 915/132/141 913/133/141
f 917/134/141 918/132/141 916/131/141
f 920/131/142 921/132/142 919/133/142
f 923/134/142 924/132/142 922/131/142
f 926/131/143 927/132/143 925/133/143
f 929/134/143 930/132/143 928/131/143
f 932/131/144 933/132/144 931/133/144
f 935/134/144 936/132/144 934/131/144
f 938/131/145 939/132/145 937/133/145
f 941/134/145 942/132/145 940/131/145
f 944/131/146 945/132/146 943/133/146
f 947/134/146 948/132/146 946/131/146
o enemyRed_box
v 3.661049 3.430000 -0.524709
v 3.661049 1.930000 -0.524709
v 3.556819 3.430000 -1.013725
v 3.661049 1.930000 -0.524709
v 3.556819 1.930000 -1.013725
v 3.556819 3.430000 -1.013725
v 2.852637 3.430000 -0.863634
v 2.852637 1.930000 -0.863634
v 2.956867 3.430000 -0.374618
v 2.852637 1.930000 -0.863634
v 2.956867 1.930000 -0.374618
v 2.956867 3.430000 -0.374618
v 2.852637 3.430000 -0.863634
v 2.956867 3.430000 -0.374618
v 3.556819 3.430000 -1.013725
v 2.956867 3.430000 -0.374618
v 3.661049 3.430000 -0.524709
v 3.556819 3.430000 -1.013725
v 2.956867 1.930000 -0.374618
v 2.852637 1.930000 -0.863634
v 3.661049 1.930000 -0.524709
v 2.852637 1.930000 -0.863634
v 3.556819 1.930000 -1.013725
v 3.661049 1.930000 -0.524709
v 2.956867 3.430000 -0.374618
v 2.956867 1.930000 -0.374618
v 3.661049 3.430000 -0.524709
v 2.956867 1.930000 -0.374618
v 3.661049 1.930000 -0.524709
v 3.661049 3.430000 -0.524709
v 3.556819 3.430000 -1.013725
v 3.556819 1.930000 -1.013725
v 2.852637 3.430000 -0.863634
v 3.556819 1.930000 -1.013725
v 2.852637 1.930000 -0.863634
v 2.852637 3.430000 -0.863634
vn 0.9780 -0.0000 -0.2085
vn -0.9780 -0.0000 0.2085
vn -0.0000 1.0000 -0.0000
vn -0.0000 -1.0000 -0.0000
vn 0.2085 -0.0000 0.9780
vn -0.2085 -0.0000 -0.9780
vt 0.000000 1.000000
vt 1.000000 0.000000
vt 0.000000 0.000000
vt 1.000000 1.000000
s 0
usemtl Material_4
f 950/135/147 951/136/147 949/137/147
f 953/138/147 954/136/147 952/135/147
f 956/135/148 957/136/148 955/137/148
f 959/138/148 960/136/148 958/135/148
f 962/135/149 963/136/149 961/137/149
f 965/138/149 966/136/149 964/135/149
f 968/135/150 969/136/150 967/137/150
f 971/138/150 972/136/150 970/135/150
f 974/135/151 975/136/151 973/137/151
f 977/138/151 978/136/151 976/135/151
f 980/135/152 981/136/152 979/137/152
f 983/138/152 984/136/152 982/135/152
o iron_box2
v 3.529950 0.234000 -2.399176
v 3.529950 0.036000 -2.399176
v 4.489872 0.234000 -2.641351
v 3.529950 0.036000 -2.399176
v 4.489872 0.036000 -2.641351
v 4.489872 0.234000 -2.641351
v 4.291728 0.234000 -3.426743
v 4.291728 0.036000 -3.426743
v 3.331806 0.234000 -3.184567
v 4.291728 0.036000 -3.426743
v 3.331806 0.036000 -3.184567
v 3.331806 0.234000 -3.184567
v 4.291728 0.234000 -3.426743
v 3.331806 0.234000 -3.184567
v 4.489872 0.234000 -2.641351
v 3.331806 0.234000 -3.184567
v 3.529950 0.234000 -2.399176
v 4.489872 0.234000 -2.641351
v 3.331806 0.036000 -3.184567
v 4.291728 0.036000 -3.426743
v 3.529950 0.036000 -2.399176
v 4.291728 0.036000 -3.426743
v 4.489872 0.036000 -2.641351
v 3.529950 0.036000 -2.399176
v 3.331806 0.234000 -3.184567
v 3.331806 0.036000 -3.184567
v 3.529950 0.234000 -2.399176
v 3.331806 0.036000 -3.184567
v 3.529950 0.036000 -2.399176
v 3.529950 0.234000 -2.399176
v 4.489872 0.234000 -2.641351
v 4.489872 0.036000 -2.641351
v 4.291728 0.234000 -3.426743
v 4.489872 0.036000 -2.641351
v 4.291728 0.036000 -3.426743
v 4.291728 0.234000 -3.426743
vn 0.2446 -0.0000 0.9696
vn -0.2446 -0.0000 -0.9696
vn -0.0000 1.0000 -0.0000
vn -0.0000 -1.0000 -0.0000
vn -0.9696 -0.0000 0.2446
vn 0.9696 -0.0000 -0.2446
vt 0.000000 1.000000
vt 1.000000 0.000000
vt 0.000000 0.000000
vt 1.000000 1.000000
s 0
usemtl Material_2
f 986/139/153 987/140/153 985/141/153
f 989/142/153 990/140/153 988/139/153
f 992/139/154 993/140/154 991/141/154
f 995/142/154 996/140/154 994/139/154
f 998/139/155 999/140/155 997/141/155
f 1001/142/155 1002/140/155 1000/139/155
f 1004/139/156 1005/140/156 1003/141/156
f 1007/142/156 1008/140/156 1006/139/156
f 1010/139/157 1011/140/157 1009/141/157
f 1013/142/157 1014/140/157 1012/139/157
f 1016/139/158 1017/140/158 1015/141/158
f 1019/142/158 1020/140/158 1018/139/158
o enemyRed_box2
v 3.901810 0.540000 -2.544042
v 3.901810 0.234000 -2.544042
v 4.233419 0.540000 -2.627703
v 3.901810 0.234000 -2.544042
v 4.233419 0.234000 -2.627703
v 4.233419 0.540000 -2.627703
v 4.112331 0.540000 -3.107664
v 4.112331 0.234000 -3.107664
v 3.780722 0.540000 -3.024004
v 4.112331 0.234000 -3.107664
v 3.780722 0.234000 -3.024004
v 3.780722 0.540000 -3.024004
v 4.112331 0.540000 -3.107664
v 3.780722 0.540000 -3.024004
v 4.233419 0.540000 -2.627703
v 3.780722 0.540000 -3.024004
v 3.901810 0.540000 -2.544042
v 4.233419 0.540000 -2.627703
v 3.780722 0.234000 -3.024004
v 4.112331 0.234000 -3.107664
v 3.901810 0.234000 -2.544042
v 4.112331 0.234000 -3.107664
v 4.233419 0.234000 -2.627703
v 3.901810 0.234000 -2.544042
v 3.780722 0.540000 -3.024004
v 3.780722 0.234000 -3.024004
v 3.901810 0.540000 -2.544042
v 3.780722 0.234000 -3.024004
v 3.901810 0.234000 -2.544042
v 3.901810 0.540000 -2.544042
v 4.233419 0.540000 -2.627703
v 4.233419 0.234000 -2.627703
v 4.112331 0.540000 -3.107664
v 4.233419 0.234000 -2.627703
v 4.112331 0.234000 -3.107664
v 4.112331 0.540000 -3.107664
vn 0.2446 -0.0000 0.9696
vn -0.2446 -0.0000 -0.9696
vn -0.0000 1.0000 -0.0000
vn -0.0000 -1.0000 -0.0000
vn -0.9696 -0.0000 0.2446
vn 0.9696 -0.0000 -0.2446
vt 0.000000 1.000000
vt 1.000000 0.000000
vt 0.000000 0.000000
vt 1.000000 1.000000
s 0
usemtl Material_4
f 1022/143/159 1023/144/159 1021/145/159
f 1025/146/159 1026/144/159 1024/143/159
f 1028/143/160 1029/144/160 1027/145/160
f 1031/146/160 1032/144/160 1030/143/160
f 1034/143/161 1035/144/161 1033/145/161
f 1037/146/161 1038/144/161 1036/143/161
f 1040/143/162 1041/144/162 1039/145/162
f 1043/146/162 1044/144/162 1042/143/162
f 1046/143/163 1047/144/163 1045/145/163
f 1049/146/163 1050/144/163 1048/143/163
f 1052/143/164 1053/144/164 1051/145/164
f 1055/146/164 1056/144/164 1054/143/164
o MilitaryStructure2
v -2.222198 1.375000 1.087122
v -0.711895 1.375000 -0.461743
v -0.461743 1.375000 0.711895
v -2.472350 1.375000 -0.086515
v -2.222198 0.225000 1.087122
v -0.711895 0.225000 -0.461743
v -0.461743 0.225000 0.711895
v -2.472350 0.225000 -0.086515
v -0.461743 1.375000 0.711895
v -2.472350 1.375000 -0.086515
v -0.711895 1.375000 -0.461743
v -2.222198 1.375000 1.087122
v -0.461743 0.225000 0.711895
v -2.472350 0.225000 -0.086515
v -0.711895 0.225000 -0.461743
v -2.222198 0.225000 1.087122
v -0.461743 1.375000 0.711895
v -2.222198 0.225000 1.087122
v -2.222198 1.375000 1.087122
v -0.461743 0.225000 0.711895
v -0.711895 1.375000 -0.461743
v -2.472350 0.225000 -0.086515
v -2.472350 1.375000 -0.086515
v -0.711895 0.225000 -0.461743
v -2.066999 1.430000 0.951796
v -2.197216 1.430000 -0.042911
v -1.988756 1.430000 0.935120
v -2.275459 1.430000 -0.026235
v -2.066999 1.370000 0.951796
v -2.197216 1.370000 -0.042911
v -1.988756 1.370000 0.935120
v -2.275459 1.370000 -0.026235
v -1.988756 1.430000 0.935120
v -2.275459 1.430000 -0.026235
v -2.197216 1.430000 -0.042911
v -2.066999 1.430000 0.951796
v -1.988756 1.370000 0.935120
v -2.275459 1.370000 -0.026235
v -2.197216 1.370000 -0.042911
v -2.066999 1.370000 0.951796
v -1.988756 1.430000 0.935120
v -2.066999 1.370000 0.951796
v -2.066999 1.430000 0.951796
v -1.988756 1.370000 0.935120
v -2.197216 1.430000 -0.042911
v -2.275459 1.370000 -0.026235
v -2.275459 1.430000 -0.026235
v -2.197216 1.370000 -0.042911
v -1.822491 1.430000 0.899681
v -1.952708 1.430000 -0.095026
v -1.744249 1.430000 0.883005
v -2.030951 1.430000 -0.078350
v -1.822491 1.370000 0.899681
v -1.952708 1.370000 -0.095026
v -1.744249 1.370000 0.883005
v -2.030951 1.370000 -0.078350
v -1.744249 1.430000 0.883005
v -2.030951 1.430000 -0.078350
v -1.952708 1.430000 -0.095026
v -1.822491 1.430000 0.899681
v -1.744249 1.370000 0.883005
v -2.030951 1.370000 -0.078350
v -1.952708 1.370000 -0.095026
v -1.822491 1.370000 0.899681
v -1.744249 1.430000 0.883005
v -1.822491 1.370000 0.899681
v -1.822491 1.430000 0.899681
v -1.744249 1.370000 0.883005
v -1.952708 1.430000 -0.095026
v -2.030951 1.370000 -0.078350
v -2.030951 1.430000 -0.078350
v -1.952708 1.370000 -0.095026
v -1.577983 1.430000 0.847566
v -1.708201 1.430000 -0.147141
v -1.499741 1.430000 0.830890
v -1.786443 1.430000 -0.130464
v -1.577983 1.370000 0.847566
v -1.708201 1.370000 -0.147141
v -1.499741 1.370000 0.830890
v -1.786443 1.370000 -0.130464
v -1.499741 1.430000 0.830890
v -1.786443 1.430000 -0.130464
v -1.708201 1.430000 -0.147141
v -1.577983 1.430000 0.847566
v -1.499741 1.370000 0.830890
v -1.786443 1.370000 -0.130464
v -1.708201 1.370000 -0.147141
v -1.577983 1.370000 0.847566
v -1.499741 1.430000 0.830890
v -1.577983 1.370000 0.847566
v -1.577983 1.430000 0.847566
v -1.499741 1.370000 0.830890
v -1.708201 1.430000 -0.147141
v -1.786443 1.370000 -0.130464
v -1.786443 1.430000 -0.130464
v -1.708201 1.370000 -0.147141
v -1.333475 1.430000 0.795451
v -1.463693 1.430000 -0.199256
v -1.255233 1.430000 0.778775
v -1.541935 1.430000 -0.182579
v -1.333475 1.370000 0.795451
v -1.463693 1.370000 -0.199256
v -1.255233 1.370000 0.778775
v -1.541935 1.370000 -0.182579
v -1.255233 1.430000 0.778775
v -1.541935 1.430000 -0.182579
v -1.463693 1.430000 -0.199256
v -1.333475 1.430000 0.795451
v -1.255233 1.370000 0.778775
v -1.541935 1.370000 -0.182579
v -1.463693 1.370000 -0.199256
v -1.333475 1.370000 0.795451
v -1.255233 1.430000 0.778775
v -1.333475 1.370000 0.795451
v -1.333475 1.430000 0.795451
v -1.255233 1.370000 0.778775
v -1.463693 1.430000 -0.199256
v -1.541935 1.370000 -0.182579
v -1.541935 1.430000 -0.182579
v -1.463693 1.370000 -0.199256
v -1.088968 1.430000 0.743336
v -1.219185 1.430000 -0.251371
v -1.010725 1.430000 0.726660
v -1.297428 1.430000 -0.234694
v -1.088968 1.370000 0.743336
v -1.219185 1.370000 -0.251371
v -1.010725 1.370000 0.726660
v -1.297428 1.370000 -0.234694
v -1.010725 1.430000 0.726660
v -1.297428 1.430000 -0.234694
v -1.219185 1.430000 -0.251371
v -1.088968 1.430000 0.743336
v -1.010725 1.370000 0.726660
v -1.297428 1.370000 -0.234694
v -1.219185 1.370000 -0.251371
v -1.088968 1.370000 0.743336
v -1.010725 1.430000 0.726660
v -1.088968 1.370000 0.743336
v -1.088968 1.430000 0.743336
v -1.010725 1.370000 0.726660
v -1.219185 1.430000 -0.251371
v -1.297428 1.370000 -0.234694
v -1.297428 1.430000 -0.234694
v -1.219185 1.370000 -0.251371
v -0.844460 1.430000 0.691222
v -0.974677 1.430000 -0.303486
v -0.766218 1.430000 0.674545
v -1.052920 1.430000 -0.286809
v -0.844460 1.370000 0.691222
v -0.974677 1.370000 -0.303486
v -0.766218 1.370000 0.674545
v -1.052920 1.370000 -0.286809
v -0.766218 1.430000 0.674545
v -1.052920 1.430000 -0.286809
v -0.974677 1.430000 -0.303486
v -0.844460 1.430000 0.691222
v -0.766218 1.370000 0.674545
v -1.052920 1.370000 -0.286809
v -0.974677 1.370000 -0.303486
v -0.844460 1.370000 0.691222
v -0.766218 1.430000 0.674545
v -0.844460 1.370000 0.691222
v -0.844460 1.430000 0.691222
v -0.766218 1.370000 0.674545
v -0.974677 1.430000 -0.303486
v -1.052920 1.370000 -0.286809
v -1.052920 1.430000 -0.286809
v -0.974677 1.370000 -0.303486
v 2.842716 0.320000 -0.094672
v 3.612288 0.320000 -1.281163
v 3.820747 0.320000 -0.303132
v 2.634257 0.320000 -1.072703
v 2.842716 0.000000 -0.094672
v 3.612288 0.000000 -1.281163
v 3.820747 0.000000 -0.303132
v 2.634257 0.000000 -1.072703
v 3.820747 0.320000 -0.303132
v 2.634257 0.320000 -1.072703
v 3.612288 0.320000 -1.281163
v 2.842716 0.320000 -0.094672
v 3.820747 0.000000 -0.303132
v 2.634257 0.000000 -1.072703
v 3.612288 0.000000 -1.281163
v 2.842716 0.000000 -0.094672
v 3.820747 0.320000 -0.303132
v 2.842716 0.000000 -0.094672
v 2.842716 0.320000 -0.094672
v 3.820747 0.000000 -0.303132
v 3.612288 0.320000 -1.281163
v 2.634257 0.000000 -1.072703
v 2.634257 0.320000 -1.072703
v 3.612288 0.000000 -1.281163
v 3.173632 2.200000 -0.604863
v 3.281372 2.200000 -0.770972
v 3.310556 2.200000 -0.634048
v 3.144448 2.200000 -0.741788
v 3.173632 0.000000 -0.604863
v 3.281372 0.000000 -0.770972
v 3.310556 0.000000 -0.634048
v 3.144448 0.000000 -0.741788
v 3.310556 2.200000 -0.634048
v 3.144448 2.200000 -0.741788
v 3.281372 2.200000 -0.770972
v 3.173632 2.200000 -0.604863
v 3.310556 0.000000 -0.634048
v 3.144448 0.000000 -0.741788
v 3.281372 0.000000 -0.770972
v 3.173632 0.000000 -0.604863
v 3.310556 2.200000 -0.634048
v 3.173632 0.000000 -0.604863
v 3.173632 2.200000 -0.604863
v 3.310556 0.000000 -0.634048
v 3.281372 2.200000 -0.770972
v 3.144448 0.000000 -0.741788
v 3.144448 2.200000 -0.741788
v 3.281372 0.000000 -0.770972
vn 0.2085 -0.0000 0.9780
vn -0.2085 -0.0000 -0.9780
vn 0.9780 -0.0000 -0.2085
vn -0.9780 -0.0000 0.2085
vn -0.0000 1.0000 -0.0000
vn -0.0000 -1.0000 -0.0000
vt 0.000000 0.500000
vt 0.333333 1.000000
vt 0.000000 1.000000
vt 0.333333 0.500000
vt 0.666667 0.500000
vt 1.000000 1.000000
vt 0.666667 1.000000
vt 1.000000 0.500000
vt 0.000000 0.000000
vt 0.333333 0.000000
vt 0.666667 0.000000
vt 1.000000 0.000000
s 0
usemtl Material_6
f 1061/147/165 1059/148/165 1057/149/165
f 1061/147/165 1063/150/165 1059/148/165
f 1062/151/166 1060/152/166 1058/153/166
f 1062/151/166 1064/154/166 1060/152/166
f 1069/150/167 1067/153/167 1065/148/167
f 1069/150/167 1071/151/167 1067/153/167
f 1070/155/168 1068/150/168 1066/147/168
f 1070/155/168 1072/156/168 1068/150/168
f 1077/156/169 1075/151/169 1073/150/169
f 1077/156/169 1079/157/169 1075/151/169
f 1078/157/170 1076/154/170 1074/151/170
f 1078/157/170 1080/158/170 1076/154/170
usemtl Material_2
f 1085/147/165 1083/148/165 1081/149/165
f 1085/147/165 1087/150/165 1083/148/165
f 1086/151/166 1084/152/166 1082/153/166
f 1086/151/166 1088/154/166 1084/152/166
f 1093/150/167 1091/153/167 1089/148/167
f 1093/150/167 1095/151/167 1091/153/167
f 1094/155/168 1092/150/168 1090/147/168
f 1094/155/168 1096/156/168 1092/150/168
f 1101/156/169 1099/151/169 1097/150/169
f 1101/156/169 1103/157/169 1099/151/169
f 1102/157/170 1100/154/170 1098/151/170
f 1102/157/170 1104/158/170 1100/154/170
f 1109/147/165 1107/148/165 1105/149/165
f 1109/147/165 1111/150/165 1107/148/165
f 1110/151/166 1108/152/166 1106/153/166
f 1110/151/166 1112/154/166 1108/152/166
f 1117/150/167 1115/153/167 1113/148/167
f 1117/150/167 1119/151/167 1115/153/167
f 1118/155/168 1116/150/168 1114/147/168
f 1118/155/168 1120/156/168 1116/150/168
f 1125/156/169 1123/151/169 1121/150/169
f 1125/156/169 1127/157/169 1123/151/169
f 1126/157/170 1124/154/170 1122/151/170
f 1126/157/170 1128/158/170 1124/154/170
f 1133/147/165 1131/148/165 1129/149/165
f 1133/147/165 1135/150/165 1131/148/165
f 1134/151/166 1132/152/166 1130/153/166
f 1134/151/166 1136/154/166 1132/152/166
f 1141/150/167 1139/153/167 1137/148/167
f 1141/150/167 1143/151/167 1139/153/167
f 1142/155/168 1140/150/168 1138/147/168
f 1142/155/168 1144/156/168 1140/150/168
f 1149/156/169 1147/151/169 1145/150/169
f 1149/156/169 1151/157/169 1147/151/169
f 1150/157/170 1148/154/170 1146/151/170
f 1150/157/170 1152/158/170 1148/154/170
f 1157/147/165 1155/148/165 1153/149/165
f 1157/147/165 1159/150/165 1155/148/165
f 1158/151/166 1156/152/166 1154/153/166
f 1158/151/166 1160/154/166 1156/152/166
f 1165/150/167 1163/153/167 1161/148/167
f 1165/150/167 1167/151/167 1163/153/167
f 1166/155/168 1164/150/168 1162/147/168
f 1166/155/168 1168/156/168 1164/150/168
f 1173/156/169 1171/151/169 1169/150/169
f 1173/156/169 1175/157/169 1171/151/169
f 1174/157/170 1172/154/170 1170/151/170
f 1174/157/170 1176/158/170 1172/154/170
f 1181/147/165 1179/148/165 1177/149/165
f 1181/147/165 1183/150/165 1179/148/165
f 1182/151/166 1180/152/166 1178/153/166
f 1182/151/166 1184/154/166 1180/152/166
f 1189/150/167 1187/153/167 1185/148/167
f 1189/150/167 1191/151/167 1187/153/167
f 1190/155/168 1188/150/168 1186/147/168
f 1190/155/168 1192/156/168 1188/150/168
f 1197/156/169 1195/151/169 1193/150/169
f 1197/156/169 1199/157/169 1195/151/169
f 1198/157/170 1196/154/170 1194/151/170
f 1198/157/170 1200/158/170 1196/154/170
f 1205/147/165 1203/148/165 1201/149/165
f 1205/147/165 1207/150/165 1203/148/165
f 1206/151/166 1204/152/166 1202/153/166
f 1206/151/166 1208/154/166 1204/152/166
f 1213/150/167 1211/153/167 1209/148/167
f 1213/150/167 1215/151/167 1211/153/167
f 1214/155/168 1212/150/168 1210/147/168
f 1214/155/168 1216/156/168 1212/150/168
f 1221/156/169 1219/151/169 1217/150/169
f 1221/156/169 1223/157/169 1219/151/169
f 1222/157/170 1220/154/170 1218/151/170
f 1222/157/170 1224/158/170 1220/154/170
f 1229/147/165 1227/148/165 1225/149/165
f 1229/147/165 1231/150/165 1227/148/165
f 1230/151/166 1228/152/166 1226/153/166
f 1230/151/166 1232/154/166 1228/152/166
f 1237/150/167 1235/153/167 1233/148/167
f 1237/150/167 1239/151/167 1235/153/167
f 1238/155/168 1236/150/168 1234/147/168
f 1238/155/168 1240/156/168 1236/150/168
f 1245/156/169 1243/151/169 1241/150/169
f 1245/156/169 1247/157/169 1243/151/169
f 1246/157/170 1244/154/170 1242/151/170
f 1246/157/170 1248/158/170 1244/154/170
usemtl Material_5
f 1253/147/165 1251/148/165 1249/149/165
f 1253/147/165 1255/150/165 1251/148/165
f 1254/151/166 1252/152/166 1250/153/166
f 1254/151/166 1256/154/166 1252/152/166
f 1261/150/167 1259/153/167 1257/148/167
f 1261/150/167 1263/151/167 1259/153/167
f 1262/155/168 1260/150/168 1258/147/168
f 1262/155/168 1264/156/168 1260/150/168
f 1269/156/169 1267/151/169 1265/150/169
f 1269/156/169 1271/157/169 1267/151/169
f 1270/157/170 1268/154/170 1266/151/170
f 1270/157/170 1272/158/170 1268/154/170
