# Blender 5.2.1 LTS
# www.blender.org
mtllib prop_windmill.mtl
o metal_box
v 0.226249 7.100000 0.677725
v 0.226249 5.000000 0.677725
v 0.201234 7.100000 0.560361
v 0.226249 5.000000 0.677725
v 0.201234 5.000000 0.560361
v 0.201234 7.100000 0.560361
v 0.044749 7.100000 0.593715
v 0.044749 5.000000 0.593715
v 0.069764 7.100000 0.711079
v 0.044749 5.000000 0.593715
v 0.069764 5.000000 0.711079
v 0.069764 7.100000 0.711079
v 0.044749 7.100000 0.593715
v 0.069764 7.100000 0.711079
v 0.201234 7.100000 0.560361
v 0.069764 7.100000 0.711079
v 0.226249 7.100000 0.677725
v 0.201234 7.100000 0.560361
v 0.069764 5.000000 0.711079
v 0.044749 5.000000 0.593715
v 0.226249 5.000000 0.677725
v 0.044749 5.000000 0.593715
v 0.201234 5.000000 0.560361
v 0.226249 5.000000 0.677725
v 0.069764 7.100000 0.711079
v 0.069764 5.000000 0.711079
v 0.226249 7.100000 0.677725
v 0.069764 5.000000 0.711079
v 0.226249 5.000000 0.677725
v 0.226249 7.100000 0.677725
v 0.201234 7.100000 0.560361
v 0.201234 5.000000 0.560361
v 0.044749 7.100000 0.593715
v 0.201234 5.000000 0.560361
v 0.044749 5.000000 0.593715
v 0.044749 7.100000 0.593715
vn 0.9780 -0.0000 -0.2085
vn -0.9780 -0.0000 0.2085
vn -0.0000 1.0000 -0.0000
vn -0.0000 -1.0000 -0.0000
vn 0.2085 -0.0000 0.9780
vn -0.2085 -0.0000 -0.9780
vt 0.000000 1.000000
vt 1.000000 0.000000
vt 0.000000 0.000000
vt 1.000000 1.000000
s 0
usemtl Material_5
f 2/1/1 3/2/1 1/3/1
f 5/4/1 6/2/1 4/1/1
f 8/1/2 9/2/2 7/3/2
f 11/4/2 12/2/2 10/1/2
f 14/1/3 15/2/3 13/3/3
f 17/4/3 18/2/3 16/1/3
f 20/1/4 21/2/4 19/3/4
f 23/4/4 24/2/4 22/1/4
f 26/1/5 27/2/5 25/3/5
f 29/4/5 30/2/5 28/1/5
f 32/1/6 33/2/6 31/3/6
f 35/4/6 36/2/6 34/1/6
o enemyRed_box10
v 0.310103 7.075000 0.639403
v 0.310103 6.025000 0.639403
v 0.293426 7.075000 0.561161
v 0.310103 6.025000 0.639403
v 0.293426 6.025000 0.561161
v 0.293426 7.075000 0.561161
v -0.039105 7.075000 0.632037
v -0.039105 6.025000 0.632037
v -0.022428 7.075000 0.710279
v -0.039105 6.025000 0.632037
v -0.022428 6.025000 0.710279
v -0.022428 7.075000 0.710279
v -0.039105 7.075000 0.632037
v -0.022428 7.075000 0.710279
v 0.293426 7.075000 0.561161
v -0.022428 7.075000 0.710279
v 0.310103 7.075000 0.639403
v 0.293426 7.075000 0.561161
v -0.022428 6.025000 0.710279
v -0.039105 6.025000 0.632037
v 0.310103 6.025000 0.639403
v -0.039105 6.025000 0.632037
v 0.293426 6.025000 0.561161
v 0.310103 6.025000 0.639403
v -0.022428 7.075000 0.710279
v -0.022428 6.025000 0.710279
v 0.310103 7.075000 0.639403
v -0.022428 6.025000 0.710279
v 0.310103 6.025000 0.639403
v 0.310103 7.075000 0.639403
v 0.293426 7.075000 0.561161
v 0.293426 6.025000 0.561161
v -0.039105 7.075000 0.632037
v 0.293426 6.025000 0.561161
v -0.039105 6.025000 0.632037
v -0.039105 7.075000 0.632037
vn 0.9780 -0.0000 -0.2085
vn -0.9780 -0.0000 0.2085
vn -0.0000 1.0000 -0.0000
vn -0.0000 -1.0000 -0.0000
vn 0.2085 -0.0000 0.9780
vn -0.2085 -0.0000 -0.9780
vt 0.000000 1.000000
vt 1.000000 0.000000
vt 0.000000 0.000000
vt 1.000000 1.000000
s 0
usemtl Material_4
f 38/5/7 39/6/7 37/7/7
f 41/8/7 42/6/7 40/5/7
f 44/5/8 45/6/8 43/7/8
f 47/8/8 48/6/8 46/5/8
f 50/5/9 51/6/9 49/7/9
f 53/8/9 54/6/9 52/5/9
f 56/5/10 57/6/10 55/7/10
f 59/8/10 60/6/10 58/5/10
f 62/5/11 63/6/11 61/7/11
f 65/8/11 66/6/11 64/5/11
f 68/5/12 69/6/12 67/7/12
f 71/8/12 72/6/12 70/5/12
o metal_box2
v -1.669814 4.019282 1.081856
v 0.108885 5.069282 0.702740
v -1.694829 4.019282 0.964493
v 0.108885 5.069282 0.702740
v 0.083870 5.069282 0.585377
v -1.694829 4.019282 0.964493
v -1.616586 3.880718 0.947816
v 0.162113 4.930718 0.568700
v -1.591571 3.880718 1.065180
v 0.162113 4.930718 0.568700
v 0.187128 4.930718 0.686064
v -1.591571 3.880718 1.065180
v -1.616586 3.880718 0.947816
v -1.591571 3.880718 1.065180
v -1.694829 4.019282 0.964493
v -1.591571 3.880718 1.065180
v -1.669814 4.019282 1.081856
v -1.694829 4.019282 0.964493
v 0.187128 4.930718 0.686064
v 0.162113 4.930718 0.568700
v 0.108885 5.069282 0.702740
v 0.162113 4.930718 0.568700
v 0.083870 5.069282 0.585377
v 0.108885 5.069282 0.702740
v -1.591571 3.880718 1.065180
v 0.187128 4.930718 0.686064
v -1.669814 4.019282 1.081856
v 0.187128 4.930718 0.686064
v 0.108885 5.069282 0.702740
v -1.669814 4.019282 1.081856
v -1.694829 4.019282 0.964493
v 0.083870 5.069282 0.585377
v -1.616586 3.880718 0.947816
v 0.083870 5.069282 0.585377
v 0.162113 4.930718 0.568700
v -1.616586 3.880718 0.947816
vn -0.4890 0.8660 0.1042
vn 0.4890 -0.8660 -0.1042
vn -0.8470 -0.5000 0.1805
vn 0.8470 0.5000 -0.1805
vn 0.2085 -0.0000 0.9780
vn -0.2085 -0.0000 -0.9780
vt 0.000000 1.000000
vt 1.000000 0.000000
vt 0.000000 0.000000
vt 1.000000 1.000000
s 0
usemtl Material_5
f 74/9/13 75/10/13 73/11/13
f 77/12/13 78/10/13 76/9/13
f 80/9/14 81/10/14 79/11/14
f 83/12/14 84/10/14 82/9/14
f 86/9/15 87/10/15 85/11/15
f 89/12/15 90/10/15 88/9/15
f 92/9/16 93/10/16 91/11/16
f 95/12/16 96/10/16 94/9/16
f 98/9/17 99/10/17 97/11/17
f 101/12/17 102/10/17 100/9/17
f 104/9/18 105/10/18 103/11/18
f 107/12/18 108/10/18 106/9/18
o enemyRed_box11
v -1.696819 4.109725 1.067163
v -0.807470 4.634725 0.877605
v -1.713496 4.109725 0.988921
v -0.807470 4.634725 0.877605
v -0.824147 4.634725 0.799363
v -1.713496 4.109725 0.988921
v -1.547231 3.815276 0.953483
v -0.657881 4.340276 0.763925
v -1.530554 3.815276 1.031725
v -0.657881 4.340276 0.763925
v -0.641205 4.340276 0.842167
v -1.530554 3.815276 1.031725
v -1.547231 3.815276 0.953483
v -1.530554 3.815276 1.031725
v -1.713496 4.109725 0.988921
v -1.530554 3.815276 1.031725
v -1.696819 4.109725 1.067163
v -1.713496 4.109725 0.988921
v -0.641205 4.340276 0.842167
v -0.657881 4.340276 0.763925
v -0.807470 4.634725 0.877605
v -0.657881 4.340276 0.763925
v -0.824147 4.634725 0.799363
v -0.807470 4.634725 0.877605
v -1.530554 3.815276 1.031725
v -0.641205 4.340276 0.842167
v -1.696819 4.109725 1.067163
v -0.641205 4.340276 0.842167
v -0.807470 4.634725 0.877605
v -1.696819 4.109725 1.067163
v -1.713496 4.109725 0.988921
v -0.824147 4.634725 0.799363
v -1.547231 3.815276 0.953483
v -0.824147 4.634725 0.799363
v -0.657881 4.340276 0.763925
v -1.547231 3.815276 0.953483
vn -0.4890 0.8660 0.1042
vn 0.4890 -0.8660 -0.1042
vn -0.8470 -0.5000 0.1805
vn 0.8470 0.5000 -0.1805
vn 0.2085 -0.0000 0.9780
vn -0.2085 -0.0000 -0.9780
vt 0.000000 1.000000
vt 1.000000 0.000000
vt 0.000000 0.000000
vt 1.000000 1.000000
s 0
usemtl Material_4
f 110/13/19 111/14/19 109/15/19
f 113/16/19 114/14/19 112/13/19
f 116/13/20 117/14/20 115/15/20
f 119/16/20 120/14/20 118/13/20
f 122/13/21 123/14/21 121/15/21
f 125/16/21 126/14/21 124/13/21
f 128/13/22 129/14/22 127/15/22
f 131/16/22 132/14/22 130/13/22
f 134/13/23 135/14/23 133/15/23
f 137/16/23 138/14/23 136/13/23
f 140/13/24 141/14/24 139/15/24
f 143/16/24 144/14/24 142/13/24
o metal_box3
v 1.887585 3.880718 0.323624
v 0.108885 4.930718 0.702740
v 1.862570 3.880718 0.206260
v 0.108885 4.930718 0.702740
v 0.083870 4.930718 0.585377
v 1.862570 3.880718 0.206260
v 1.940812 4.019282 0.189583
v 0.162113 5.069282 0.568700
v 1.965827 4.019282 0.306947
v 0.162113 5.069282 0.568700
v 0.187128 5.069282 0.686064
v 1.965827 4.019282 0.306947
v 1.940812 4.019282 0.189583
v 1.965827 4.019282 0.306947
v 1.862570 3.880718 0.206260
v 1.965827 4.019282 0.306947
v 1.887585 3.880718 0.323624
v 1.862570 3.880718 0.206260
v 0.187128 5.069282 0.686064
v 0.162113 5.069282 0.568700
v 0.108885 4.930718 0.702740
v 0.162113 5.069282 0.568700
v 0.083870 4.930718 0.585377
v 0.108885 4.930718 0.702740
v 1.965827 4.019282 0.306947
v 0.187128 5.069282 0.686064
v 1.887585 3.880718 0.323624
v 0.187128 5.069282 0.686064
v 0.108885 4.930718 0.702740
v 1.887585 3.880718 0.323624
v 1.862570 3.880718 0.206260
v 0.083870 4.930718 0.585377
v 1.940812 4.019282 0.189583
v 0.083870 4.930718 0.585377
v 0.162113 5.069282 0.568700
v 1.940812 4.019282 0.189583
vn -0.4890 -0.8660 0.1042
vn 0.4890 0.8660 -0.1042
vn 0.8470 -0.5000 -0.1805
vn -0.8470 0.5000 0.1805
vn 0.2085 -0.0000 0.9780
vn -0.2085 -0.0000 -0.9780
vt 0.000000 1.000000
vt 1.000000 0.000000
vt 0.000000 0.000000
vt 1.000000 1.000000
s 0
usemtl Material_5
f 146/17/25 147/18/25 145/19/25
f 149/20/25 150/18/25 148/17/25
f 152/17/26 153/18/26 151/19/26
f 155/20/26 156/18/26 154/17/26
f 158/17/27 159/18/27 157/19/27
f 161/20/27 162/18/27 160/17/27
f 164/17/28 165/18/28 163/19/28
f 167/20/28 168/18/28 166/17/28
f 170/17/29 171/18/29 169/19/29
f 173/20/29 174/18/29 172/17/29
f 176/17/30 177/18/30 175/19/30
f 179/20/30 180/18/30 178/17/30
o enemyRed_box12
v 1.818229 3.815275 0.317957
v 0.928879 4.340276 0.507515
v 1.801552 3.815275 0.239715
v 0.928879 4.340276 0.507515
v 0.912203 4.340276 0.429273
v 1.801552 3.815275 0.239715
v 1.967818 4.109724 0.204277
v 1.078468 4.634724 0.393835
v 1.984494 4.109724 0.282519
v 1.078468 4.634724 0.393835
v 1.095145 4.634724 0.472077
v 1.984494 4.109724 0.282519
v 1.967818 4.109724 0.204277
v 1.984494 4.109724 0.282519
v 1.801552 3.815275 0.239715
v 1.984494 4.109724 0.282519
v 1.818229 3.815275 0.317957
v 1.801552 3.815275 0.239715
v 1.095145 4.634724 0.472077
v 1.078468 4.634724 0.393835
v 0.928879 4.340276 0.507515
v 1.078468 4.634724 0.393835
v 0.912203 4.340276 0.429273
v 0.928879 4.340276 0.507515
v 1.984494 4.109724 0.282519
v 1.095145 4.634724 0.472077
v 1.818229 3.815275 0.317957
v 1.095145 4.634724 0.472077
v 0.928879 4.340276 0.507515
v 1.818229 3.815275 0.317957
v 1.801552 3.815275 0.239715
v 0.912203 4.340276 0.429273
v 1.967818 4.109724 0.204277
v 0.912203 4.340276 0.429273
v 1.078468 4.634724 0.393835
v 1.967818 4.109724 0.204277
vn -0.4890 -0.8660 0.1042
vn 0.4890 0.8660 -0.1042
vn 0.8470 -0.5000 -0.1805
vn -0.8470 0.5000 0.1805
vn 0.2085 -0.0000 0.9780
vn -0.2085 -0.0000 -0.9780
vt 0.000000 1.000000
vt 1.000000 0.000000
vt 0.000000 0.000000
vt 1.000000 1.000000
s 0
usemtl Material_4
f 182/21/31 183/22/31 181/23/31
f 185/24/31 186/22/31 184/21/31
f 188/21/32 189/22/32 187/23/32
f 191/24/32 192/22/32 190/21/32
f 194/21/33 195/22/33 193/23/33
f 197/24/33 198/22/33 196/21/33
f 200/21/34 201/22/34 199/23/34
f 203/24/34 204/22/34 202/21/34
f 206/21/35 207/22/35 205/23/35
f 209/24/35 210/22/35 208/21/35
f 212/21/36 213/22/36 211/23/36
f 215/24/36 216/22/36 214/21/36
o MilitaryStructure12
v 0.860206 5.900000 0.557939
v 0.860206 0.000000 0.557939
v 0.557939 5.900000 -0.860206
v 0.860206 0.000000 0.557939
v 0.557939 0.000000 -0.860206
v 0.557939 5.900000 -0.860206
v -0.860206 5.900000 -0.557939
v -0.860206 0.000000 -0.557939
v -0.557939 5.900000 0.860206
v -0.860206 0.000000 -0.557939
v -0.557939 0.000000 0.860206
v -0.557939 5.900000 0.860206
v -0.860206 5.900000 -0.557939
v -0.557939 5.900000 0.860206
v 0.557939 5.900000 -0.860206
v -0.557939 5.900000 0.860206
v 0.860206 5.900000 0.557939
v 0.557939 5.900000 -0.860206
v -0.557939 0.000000 0.860206
v -0.860206 0.000000 -0.557939
v 0.860206 0.000000 0.557939
v -0.860206 0.000000 -0.557939
v 0.557939 0.000000 -0.860206
v 0.860206 0.000000 0.557939
v -0.557939 5.900000 0.860206
v -0.557939 0.000000 0.860206
v 0.860206 5.900000 0.557939
v -0.557939 0.000000 0.860206
v 0.860206 0.000000 0.557939
v 0.860206 5.900000 0.557939
v 0.557939 5.900000 -0.860206
v 0.557939 0.000000 -0.860206
v -0.860206 5.900000 -0.557939
v 0.557939 0.000000 -0.860206
v -0.860206 0.000000 -0.557939
v -0.860206 5.900000 -0.557939
v 0.949206 3.759502 -0.110294
v 1.025780 3.597422 -0.126616
v 0.911683 3.759502 -0.286340
v 1.025780 3.597422 -0.126616
v 0.988257 3.597422 -0.302661
v 0.911683 3.759502 -0.286340
v -1.025780 2.802578 0.126616
v -0.949206 2.640498 0.110294
v -0.988257 2.802578 0.302661
v -0.949206 2.640498 0.110294
v -0.911683 2.640498 0.286340
v -0.988257 2.802578 0.302661
v -1.025780 2.802578 0.126616
v -0.988257 2.802578 0.302661
v 0.911683 3.759502 -0.286340
v -0.988257 2.802578 0.302661
v 0.949206 3.759502 -0.110294
v 0.911683 3.759502 -0.286340
v -0.911683 2.640498 0.286340
v -0.949206 2.640498 0.110294
v 1.025780 3.597422 -0.126616
v -0.949206 2.640498 0.110294
v 0.988257 3.597422 -0.302661
v 1.025780 3.597422 -0.126616
v -0.988257 2.802578 0.302661
v -0.911683 2.640498 0.286340
v 0.949206 3.759502 -0.110294
v -0.911683 2.640498 0.286340
v 1.025780 3.597422 -0.126616
v 0.949206 3.759502 -0.110294
v 0.911683 3.759502 -0.286340
v 0.988257 3.597422 -0.302661
v -1.025780 2.802578 0.126616
v 0.988257 3.597422 -0.302661
v -0.949206 2.640498 0.110294
v -1.025780 2.802578 0.126616
v 1.025780 2.802578 -0.126616
v 0.949206 2.640498 -0.110294
v 0.988257 2.802578 -0.302661
v 0.949206 2.640498 -0.110294
v 0.911683 2.640498 -0.286340
v 0.988257 2.802578 -0.302661
v -0.949206 3.759502 0.110294
v -1.025780 3.597422 0.126616
v -0.911683 3.759502 0.286340
v -1.025780 3.597422 0.126616
v -0.988257 3.597422 0.302661
v -0.911683 3.759502 0.286340
v -0.949206 3.759502 0.110294
v -0.911683 3.759502 0.286340
v 0.988257 2.802578 -0.302661
v -0.911683 3.759502 0.286340
v 1.025780 2.802578 -0.126616
v 0.988257 2.802578 -0.302661
v -0.988257 3.597422 0.302661
v -1.025780 3.597422 0.126616
v 0.949206 2.640498 -0.110294
v -1.025780 3.597422 0.126616
v 0.911683 2.640498 -0.286340
v 0.949206 2.640498 -0.110294
v -0.911683 3.759502 0.286340
v -0.988257 3.597422 0.302661
v 1.025780 2.802578 -0.126616
v -0.988257 3.597422 0.302661
v 0.949206 2.640498 -0.110294
v 1.025780 2.802578 -0.126616
v 0.988257 2.802578 -0.302661
v 0.911683 2.640498 -0.286340
v -0.949206 3.759502 0.110294
v 0.911683 2.640498 -0.286340
v -1.025780 3.597422 0.126616
v -0.949206 3.759502 0.110294
v 0.837580 2.100000 -0.147850
v 0.837580 0.800000 -0.147850
v 1.014125 2.100000 -0.269331
v 0.837580 0.800000 -0.147850
v 1.014125 0.800000 -0.269331
v 1.014125 2.100000 -0.269331
v 1.014125 2.100000 -0.269331
v 1.014125 0.800000 -0.269331
v 1.053060 2.100000 -0.480067
v 1.014125 0.800000 -0.269331
v 1.053060 0.800000 -0.480067
v 1.053060 2.100000 -0.480067
v 1.053060 2.100000 -0.480067
v 1.053060 0.800000 -0.480067
v 0.931579 2.100000 -0.656612
v 1.053060 0.800000 -0.480067
v 0.931579 0.800000 -0.656612
v 0.931579 2.100000 -0.656612
v 0.931579 2.100000 -0.656612
v 0.931579 0.800000 -0.656612
v 0.720843 2.100000 -0.695547
v 0.931579 0.800000 -0.656612
v 0.720843 0.800000 -0.695547
v 0.720843 2.100000 -0.695547
v 0.720843 2.100000 -0.695547
v 0.720843 0.800000 -0.695547
v 0.544298 2.100000 -0.574066
v 0.720843 0.800000 -0.695547
v 0.544298 0.800000 -0.574066
v 0.544298 2.100000 -0.574066
v 0.544298 2.100000 -0.574066
v 0.544298 0.800000 -0.574066
v 0.505363 2.100000 -0.363330
v 0.544298 0.800000 -0.574066
v 0.505363 0.800000 -0.363330
v 0.505363 2.100000 -0.363330
v 0.505363 2.100000 -0.363330
v 0.505363 0.800000 -0.363330
v 0.626844 2.100000 -0.186785
v 0.505363 0.800000 -0.363330
v 0.626844 0.800000 -0.186785
v 0.626844 2.100000 -0.186785
v 0.626844 2.100000 -0.186785
v 0.626844 0.800000 -0.186785
v 0.837580 2.100000 -0.147850
v 0.626844 0.800000 -0.186785
v 0.837580 0.800000 -0.147850
v 0.837580 2.100000 -0.147850
v 0.837580 2.100000 -0.147850
v 1.014125 2.100000 -0.269331
v 0.779211 2.100000 -0.421699
v 1.014125 2.100000 -0.269331
v 1.053060 2.100000 -0.480067
v 0.779211 2.100000 -0.421699
v 1.053060 2.100000 -0.480067
v 0.931579 2.100000 -0.656612
v 0.779211 2.100000 -0.421699
v 0.931579 2.100000 -0.656612
v 0.720843 2.100000 -0.695547
v 0.779211 2.100000 -0.421699
v 0.720843 2.100000 -0.695547
v 0.544298 2.100000 -0.574066
v 0.779211 2.100000 -0.421699
v 0.544298 2.100000 -0.574066
v 0.505363 2.100000 -0.363330
v 0.779211 2.100000 -0.421699
v 0.505363 2.100000 -0.363330
v 0.626844 2.100000 -0.186785
v 0.779211 2.100000 -0.421699
v 0.626844 2.100000 -0.186785
v 0.837580 2.100000 -0.147850
v 0.779211 2.100000 -0.421699
v 1.014125 0.800000 -0.269331
v 0.837580 0.800000 -0.147850
v 0.779211 0.800000 -0.421699
v 1.053060 0.800000 -0.480067
v 1.014125 0.800000 -0.269331
v 0.779211 0.800000 -0.421699
v 0.931579 0.800000 -0.656612
v 1.053060 0.800000 -0.480067
v 0.779211 0.800000 -0.421699
v 0.720843 0.800000 -0.695547
v 0.931579 0.800000 -0.656612
v 0.779211 0.800000 -0.421699
v 0.544298 0.800000 -0.574066
v 0.720843 0.800000 -0.695547
v 0.779211 0.800000 -0.421699
v 0.505363 0.800000 -0.363330
v 0.544298 0.800000 -0.574066
v 0.779211 0.800000 -0.421699
v 0.626844 0.800000 -0.186785
v 0.505363 0.800000 -0.363330
v 0.779211 0.800000 -0.421699
v 0.837580 0.800000 -0.147850
v 0.626844 0.800000 -0.186785
v 0.779211 0.800000 -0.421699
v 1.026150 1.650000 0.497008
v 1.026150 0.550000 0.497008
v 0.755152 1.650000 -0.774432
v 1.026150 0.550000 0.497008
v 0.755152 0.550000 -0.774432
v 0.755152 1.650000 -0.774432
v -1.005304 1.650000 -0.399205
v -1.005304 0.550000 -0.399205
v -0.734306 1.650000 0.872236
v -1.005304 0.550000 -0.399205
v -0.734306 0.550000 0.872236
v -0.734306 1.650000 0.872236
v -1.005304 1.650000 -0.399205
v -0.734306 1.650000 0.872236
v 0.755152 1.650000 -0.774432
v -0.734306 1.650000 0.872236
v 1.026150 1.650000 0.497008
v 0.755152 1.650000 -0.774432
v -0.734306 0.550000 0.872236
v -1.005304 0.550000 -0.399205
v 1.026150 0.550000 0.497008
v -1.005304 0.550000 -0.399205
v 0.755152 0.550000 -0.774432
v 1.026150 0.550000 0.497008
v -0.734306 1.650000 0.872236
v -0.734306 0.550000 0.872236
v 1.026150 1.650000 0.497008
v -0.734306 0.550000 0.872236
v 1.026150 0.550000 0.497008
v 1.026150 1.650000 0.497008
v 0.755152 1.650000 -0.774432
v 0.755152 0.550000 -0.774432
v -1.005304 1.650000 -0.399205
v 0.755152 0.550000 -0.774432
v -1.005304 0.550000 -0.399205
v -1.005304 1.650000 -0.399205
vn 0.9780 -0.0000 -0.2085
vn -0.9780 -0.0000 0.2085
vn -0.0000 1.0000 -0.0000
vn -0.0000 -1.0000 -0.0000
vn 0.2085 -0.0000 0.9780
vn -0.2085 -0.0000 -0.9780
vn 0.8807 0.4350 -0.1877
vn -0.8807 -0.4350 0.1877
vn -0.4254 0.9004 0.0907
vn 0.4254 -0.9004 -0.0907
vn 0.8807 -0.4350 -0.1877
vn -0.8807 0.4350 0.1877
vn 0.4254 0.9004 -0.0907
vn -0.4254 -0.9004 0.0907
vn 0.5669 -0.0000 0.8238
vn 0.9834 -0.0000 0.1817
vn 0.8238 -0.0000 -0.5669
vn 0.1817 -0.0000 -0.9834
vn -0.5669 -0.0000 -0.8238
vn -0.9834 -0.0000 -0.1817
vn -0.8238 -0.0000 0.5669
vn -0.1817 -0.0000 0.9834
vt 0.000000 1.000000
vt 1.000000 0.000000
vt 0.000000 0.000000
vt 1.000000 1.000000
vt 0.125000 0.000000
vt 0.125000 1.000000
vt 0.250000 0.000000
vt 0.250000 1.000000
vt 0.375000 0.000000
vt 0.375000 1.000000
vt 0.500000 0.000000
vt 0.500000 1.000000
vt 0.625000 0.000000
vt 0.625000 1.000000
vt 0.750000 0.000000
vt 0.750000 1.000000
vt 0.875000 0.000000
vt 0.875000 1.000000
vt 0.853553 0.146447
vt 0.500000 0.500000
vt 1.000000 0.500000
vt 0.146447 0.146447
vt 0.000000 0.500000
vt 0.146447 0.853553
vt 0.853553 0.853553
s 0
usemtl Material_2
f 218/25/37 219/26/37 217/27/37
f 221/28/37 222/26/37 220/25/37
f 224/25/38 225/26/38 223/27/38
f 227/28/38 228/26/38 226/25/38
f 230/25/39 231/26/39 229/27/39
f 233/28/39 234/26/39 232/25/39
f 236/25/40 237/26/40 235/27/40
f 239/28/40 240/26/40 238/25/40
f 242/25/41 243/26/41 241/27/41
f 245/28/41 246/26/41 244/25/41
f 248/25/42 249/26/42 247/27/42
f 251/28/42 252/26/42 250/25/42
usemtl Material_5
f 254/25/43 255/26/43 253/27/43
f 257/28/43 258/26/43 256/25/43
f 260/25/44 261/26/44 259/27/44
f 263/28/44 264/26/44 262/25/44
f 266/25/45 267/26/45 265/27/45
f 269/28/45 270/26/45 268/25/45
f 272/25/46 273/26/46 271/27/46
f 275/28/46 276/26/46 274/25/46
f 278/25/41 279/26/41 277/27/41
f 281/28/41 282/26/41 280/25/41
f 284/25/42 285/26/42 283/27/42
f 287/28/42 288/26/42 286/25/42
f 290/25/47 291/26/47 289/27/47
f 293/28/47 294/26/47 292/25/47
f 296/25/48 297/26/48 295/27/48
f 299/28/48 300/26/48 298/25/48
f 302/25/49 303/26/49 301/27/49
f 305/28/49 306/26/49 304/25/49
f 308/25/50 309/26/50 307/27/50
f 311/28/50 312/26/50 310/25/50
f 314/25/41 315/26/41 313/27/41
f 317/28/41 318/26/41 316/25/41
f 320/25/42 321/26/42 319/27/42
f 323/28/42 324/26/42 322/25/42
f 326/25/51 327/29/51 325/27/51
f 329/30/51 330/29/51 328/25/51
f 332/30/52 333/31/52 331/29/52
f 335/32/52 336/31/52 334/30/52
s 1
f 338/32/53 339/33/53 337/31/53
s 0
f 341/34/53 342/33/53 340/32/53
f 344/34/54 345/35/54 343/33/54
f 347/36/54 348/35/54 346/34/54
f 350/36/55 351/37/55 349/35/55
f 353/38/55 354/37/55 352/36/55
f 356/38/56 357/39/56 355/37/56
f 359/40/56 360/39/56 358/38/56
f 362/40/57 363/41/57 361/39/57
f 365/42/57 366/41/57 364/40/57
f 368/42/58 369/26/58 367/41/58
f 371/28/58 372/26/58 370/42/58
f 374/43/39 375/44/39 373/45/39
f 377/35/39 378/44/39 376/43/39
f 380/46/39 381/44/39 379/35/39
f 383/47/39 384/44/39 382/46/39
f 386/48/39 387/44/39 385/47/39
f 389/36/39 390/44/39 388/48/39
f 392/49/39 393/44/39 391/36/39
f 395/45/39 396/44/39 394/49/39
f 398/45/40 399/44/40 397/49/40
f 401/49/40 402/44/40 400/36/40
f 404/36/40 405/44/40 403/48/40
f 407/48/40 408/44/40 406/47/40
f 410/47/40 411/44/40 409/46/40
f 413/46/40 414/44/40 412/35/40
f 416/35/40 417/44/40 415/43/40
f 419/43/40 420/44/40 418/45/40
usemtl Material_7
f 422/25/37 423/26/37 421/27/37
f 425/28/37 426/26/37 424/25/37
f 428/25/38 429/26/38 427/27/38
f 431/28/38 432/26/38 430/25/38
f 434/25/39 435/26/39 433/27/39
f 437/28/39 438/26/39 436/25/39
f 440/25/40 441/26/40 439/27/40
f 443/28/40 444/26/40 442/25/40
f 446/25/41 447/26/41 445/27/41
f 449/28/41 450/26/41 448/25/41
f 452/25/42 453/26/42 451/27/42
f 455/28/42 456/26/42 454/25/42
