# Blender 5.2.1 LTS
# www.blender.org
mtllib prop_utility_pole.mtl
o MilitaryStructure13
v 0.142379 3.500000 0.092349
v 0.142379 0.000000 0.092349
v 0.092349 3.500000 -0.142379
v 0.142379 0.000000 0.092349
v 0.092349 0.000000 -0.142379
v 0.092349 3.500000 -0.142379
v -0.142379 3.500000 -0.092349
v -0.142379 0.000000 -0.092349
v -0.092349 3.500000 0.142379
v -0.142379 0.000000 -0.092349
v -0.092349 0.000000 0.142379
v -0.092349 3.500000 0.142379
v -0.142379 3.500000 -0.092349
v -0.092349 3.500000 0.142379
v 0.092349 3.500000 -0.142379
v -0.092349 3.500000 0.142379
v 0.142379 3.500000 0.092349
v 0.092349 3.500000 -0.142379
v -0.092349 0.000000 0.142379
v -0.142379 0.000000 -0.092349
v 0.142379 0.000000 0.092349
v -0.142379 0.000000 -0.092349
v 0.092349 0.000000 -0.142379
v 0.142379 0.000000 0.092349
v -0.092349 3.500000 0.142379
v -0.092349 0.000000 0.142379
v 0.142379 3.500000 0.092349
v -0.092349 0.000000 0.142379
v 0.142379 0.000000 0.092349
v 0.142379 3.500000 0.092349
v 0.092349 3.500000 -0.142379
v 0.092349 0.000000 -0.142379
v -0.142379 3.500000 -0.092349
v 0.092349 0.000000 -0.142379
v -0.142379 0.000000 -0.092349
v -0.142379 3.500000 -0.092349
v 0.797017 2.820000 -0.098306
v 0.797017 2.680000 -0.098306
v 0.767833 2.820000 -0.235230
v 0.797017 2.680000 -0.098306
v 0.767833 2.680000 -0.235230
v 0.767833 2.820000 -0.235230
v -0.797017 2.820000 0.098306
v -0.797017 2.680000 0.098306
v -0.767833 2.820000 0.235230
v -0.797017 2.680000 0.098306
v -0.767833 2.680000 0.235230
v -0.767833 2.820000 0.235230
v -0.797017 2.820000 0.098306
v -0.767833 2.820000 0.235230
v 0.767833 2.820000 -0.235230
v -0.767833 2.820000 0.235230
v 0.797017 2.820000 -0.098306
v 0.767833 2.820000 -0.235230
v -0.767833 2.680000 0.235230
v -0.797017 2.680000 0.098306
v 0.797017 2.680000 -0.098306
v -0.797017 2.680000 0.098306
v 0.767833 2.680000 -0.235230
v 0.797017 2.680000 -0.098306
v -0.767833 2.820000 0.235230
v -0.767833 2.680000 0.235230
v 0.797017 2.820000 -0.098306
v -0.767833 2.680000 0.235230
v 0.797017 2.680000 -0.098306
v 0.797017 2.820000 -0.098306
v 0.767833 2.820000 -0.235230
v 0.767833 2.680000 -0.235230
v -0.797017 2.820000 0.098306
v 0.767833 2.680000 -0.235230
v -0.797017 2.680000 0.098306
v -0.797017 2.820000 0.098306
v 0.596286 2.240000 0.159196
v 0.816400 2.240000 -0.085541
v 0.537917 2.660000 -0.114653
v 0.816400 2.240000 -0.085541
v 0.651660 2.240000 -0.370509
v 0.537917 2.660000 -0.114653
v 0.651660 2.240000 -0.370509
v 0.329731 2.240000 -0.301893
v 0.537917 2.660000 -0.114653
v 0.329731 2.240000 -0.301893
v 0.295508 2.240000 0.025483
v 0.537917 2.660000 -0.114653
v 0.295508 2.240000 0.025483
v 0.596286 2.240000 0.159196
v 0.537917 2.660000 -0.114653
v 0.816400 2.240000 -0.085541
v 0.596286 2.240000 0.159196
v 0.537917 2.240000 -0.114653
v 0.651660 2.240000 -0.370509
v 0.816400 2.240000 -0.085541
v 0.537917 2.240000 -0.114653
v 0.329731 2.240000 -0.301893
v 0.651660 2.240000 -0.370509
v 0.537917 2.240000 -0.114653
v 0.295508 2.240000 0.025483
v 0.329731 2.240000 -0.301893
v 0.537917 2.240000 -0.114653
v 0.596286 2.240000 0.159196
v 0.295508 2.240000 0.025483
v 0.537917 2.240000 -0.114653
v 0.608701 2.814676 -0.109291
v 0.613384 2.774964 -0.110289
v 0.600363 2.814676 -0.148412
v 0.613384 2.774964 -0.110289
v 0.605046 2.774964 -0.149410
v 0.600363 2.814676 -0.148412
v -0.613384 2.665036 0.110289
v -0.608701 2.625324 0.109291
v -0.605046 2.665036 0.149410
v -0.608701 2.625324 0.109291
v -0.600363 2.625324 0.148412
v -0.605046 2.665036 0.149410
v -0.613384 2.665036 0.110289
v -0.605046 2.665036 0.149410
v 0.600363 2.814676 -0.148412
v -0.605046 2.665036 0.149410
v 0.608701 2.814676 -0.109291
v 0.600363 2.814676 -0.148412
v -0.600363 2.625324 0.148412
v -0.608701 2.625324 0.109291
v 0.613384 2.774964 -0.110289
v -0.608701 2.625324 0.109291
v 0.605046 2.774964 -0.149410
v 0.613384 2.774964 -0.110289
v -0.605046 2.665036 0.149410
v -0.600363 2.625324 0.148412
v 0.608701 2.814676 -0.109291
v -0.600363 2.625324 0.148412
v 0.613384 2.774964 -0.110289
v 0.608701 2.814676 -0.109291
v 0.600363 2.814676 -0.148412
v 0.605046 2.774964 -0.149410
v -0.613384 2.665036 0.110289
v 0.605046 2.774964 -0.149410
v -0.608701 2.625324 0.109291
v -0.613384 2.665036 0.110289
v -0.014483 1.966301 0.043985
v -0.098529 1.494056 0.061899
v -0.031160 1.966301 -0.034257
v -0.098529 1.494056 0.061899
v -0.115206 1.494056 -0.016343
v -0.031160 1.966301 -0.034257
v -0.781699 2.105944 0.125715
v -0.865745 1.633699 0.143628
v -0.765022 2.105944 0.203957
v -0.865745 1.633699 0.143628
v -0.849068 1.633699 0.221871
v -0.765022 2.105944 0.203957
v -0.781699 2.105944 0.125715
v -0.765022 2.105944 0.203957
v -0.031160 1.966301 -0.034257
v -0.765022 2.105944 0.203957
v -0.014483 1.966301 0.043985
v -0.031160 1.966301 -0.034257
v -0.849068 1.633699 0.221871
v -0.865745 1.633699 0.143628
v -0.098529 1.494056 0.061899
v -0.865745 1.633699 0.143628
v -0.115206 1.494056 -0.016343
v -0.098529 1.494056 0.061899
v -0.765022 2.105944 0.203957
v -0.849068 1.633699 0.221871
v -0.014483 1.966301 0.043985
v -0.849068 1.633699 0.221871
v -0.098529 1.494056 0.061899
v -0.014483 1.966301 0.043985
v -0.031160 1.966301 -0.034257
v -0.115206 1.494056 -0.016343
v -0.781699 2.105944 0.125715
v -0.115206 1.494056 -0.016343
v -0.865745 1.633699 0.143628
v -0.781699 2.105944 0.125715
vn 0.9780 -0.0000 -0.2085
vn -0.9780 -0.0000 0.2085
vn -0.0000 1.0000 -0.0000
vn -0.0000 -1.0000 -0.0000
vn 0.2085 -0.0000 0.9780
vn -0.2085 -0.0000 -0.9780
vn 0.6544 0.4747 0.5886
vn 0.7620 0.4747 -0.4405
vn -0.1835 0.4747 -0.8608
vn -0.8754 0.4747 -0.0915
vn -0.3575 0.4747 0.8043
vn 0.9710 0.1197 -0.2070
vn -0.9710 -0.1197 0.2070
vn -0.1171 0.9928 0.0250
vn 0.1171 -0.9928 -0.0250
vn 0.9622 -0.1790 -0.2051
vn -0.9622 0.1790 0.2051
vn 0.1751 0.9838 -0.0373
vn -0.1751 -0.9838 0.0373
vt 0.000000 1.000000
vt 1.000000 0.000000
vt 0.000000 0.000000
vt 1.000000 1.000000
vt 0.200000 1.000000
vt 0.200000 0.000000
vt 0.400000 1.000000
vt 0.400000 0.000000
vt 0.600000 1.000000
vt 0.600000 0.000000
vt 0.800000 1.000000
vt 0.800000 0.000000
vt 1.000000 0.500000
vt 0.500000 0.500000
vt 0.654508 0.975528
vt 0.095492 0.793893
vt 0.095492 0.206107
vt 0.654508 0.024472
s 0
usemtl Material_2
f 2/1/1 3/2/1 1/3/1
f 5/4/1 6/2/1 4/1/1
f 8/1/2 9/2/2 7/3/2
f 11/4/2 12/2/2 10/1/2
f 14/1/3 15/2/3 13/3/3
f 17/4/3 18/2/3 16/1/3
f 20/1/4 21/2/4 19/3/4
f 23/4/4 24/2/4 22/1/4
f 26/1/5 27/2/5 25/3/5
f 29/4/5 30/2/5 28/1/5
f 32/1/6 33/2/6 31/3/6
f 35/4/6 36/2/6 34/1/6
usemtl Material_5
f 38/1/1 39/2/1 37/3/1
f 41/4/1 42/2/1 40/1/1
f 44/1/2 45/2/2 43/3/2
f 47/4/2 48/2/2 46/1/2
f 50/1/3 51/2/3 49/3/3
f 53/4/3 54/2/3 52/1/3
f 56/1/4 57/2/4 55/3/4
f 59/4/4 60/2/4 58/1/4
f 62/1/5 63/2/5 61/3/5
f 65/4/5 66/2/5 64/1/5
f 68/1/6 69/2/6 67/3/6
f 71/4/6 72/2/6 70/1/6
usemtl Material_8
f 74/5/7 75/6/7 73/1/7
f 77/7/8 78/8/8 76/5/8
f 80/9/9 81/10/9 79/7/9
f 83/11/10 84/12/10 82/9/10
f 86/4/11 87/2/11 85/11/11
f 89/13/4 90/14/4 88/15/4
f 92/15/4 93/14/4 91/16/4
f 95/16/4 96/14/4 94/17/4
f 98/17/4 99/14/4 97/18/4
f 101/18/4 102/14/4 100/13/4
usemtl Material_3
f 104/1/12 105/2/12 103/3/12
f 107/4/12 108/2/12 106/1/12
f 110/1/13 111/2/13 109/3/13
f 113/4/13 114/2/13 112/1/13
f 116/1/14 117/2/14 115/3/14
f 119/4/14 120/2/14 118/1/14
f 122/1/15 123/2/15 121/3/15
f 125/4/15 126/2/15 124/1/15
f 128/1/5 129/2/5 127/3/5
f 131/4/5 132/2/5 130/1/5
f 134/1/6 135/2/6 133/3/6
f 137/4/6 138/2/6 136/1/6
usemtl Material_4
f 140/1/16 141/2/16 139/3/16
f 143/4/16 144/2/16 142/1/16
f 146/1/17 147/2/17 145/3/17
f 149/4/17 150/2/17 148/1/17
f 152/1/18 153/2/18 151/3/18
f 155/4/18 156/2/18 154/1/18
f 158/1/19 159/2/19 157/3/19
f 161/4/19 162/2/19 160/1/19
f 164/1/5 165/2/5 163/3/5
f 167/4/5 168/2/5 166/1/5
f 170/1/6 171/2/6 169/3/6
f 173/4/6 174/2/6 172/1/6
