# Blender 5.2.1 LTS
# www.blender.org
mtllib prop_wreck.mtl
o MilitaryStructure14
v 0.956180 0.558228 0.924442
v 0.906986 -0.039664 0.934688
v 0.507559 0.558228 -1.229332
v 0.906986 -0.039664 0.934688
v 0.458365 -0.039664 -1.219085
v 0.507559 0.558228 -1.229332
v -0.906986 0.679664 -0.934688
v -0.956180 0.081772 -0.924442
v -0.458365 0.679664 1.219085
v -0.956180 0.081772 -0.924442
v -0.507559 0.081772 1.229332
v -0.458365 0.679664 1.219085
v -0.906986 0.679664 -0.934688
v -0.458365 0.679664 1.219085
v 0.507559 0.558228 -1.229332
v -0.458365 0.679664 1.219085
v 0.956180 0.558228 0.924442
v 0.507559 0.558228 -1.229332
v -0.507559 0.081772 1.229332
v -0.956180 0.081772 -0.924442
v 0.906986 -0.039664 0.934688
v -0.956180 0.081772 -0.924442
v 0.458365 -0.039664 -1.219085
v 0.906986 -0.039664 0.934688
v -0.458365 0.679664 1.219085
v -0.507559 0.081772 1.229332
v 0.956180 0.558228 0.924442
v -0.507559 0.081772 1.229332
v 0.906986 -0.039664 0.934688
v 0.956180 0.558228 0.924442
v 0.507559 0.558228 -1.229332
v 0.458365 -0.039664 -1.219085
v -0.906986 0.679664 -0.934688
v 0.458365 -0.039664 -1.219085
v -0.956180 0.081772 -0.924442
v -0.906986 0.679664 -0.934688
v 0.702413 1.035000 0.160130
v 0.702413 0.485000 0.160130
v 0.498494 1.035000 -0.818858
v 0.702413 0.485000 0.160130
v 0.498494 0.485000 -0.818858
v 0.498494 1.035000 -0.818858
v -0.431544 1.035000 -0.625135
v -0.431544 0.485000 -0.625135
v -0.227626 1.035000 0.353852
v -0.431544 0.485000 -0.625135
v -0.227626 0.485000 0.353852
v -0.227626 1.035000 0.353852
v -0.431544 1.035000 -0.625135
v -0.227626 1.035000 0.353852
v 0.498494 1.035000 -0.818858
v -0.227626 1.035000 0.353852
v 0.702413 1.035000 0.160130
v 0.498494 1.035000 -0.818858
v -0.227626 0.485000 0.353852
v -0.431544 0.485000 -0.625135
v 0.702413 0.485000 0.160130
v -0.431544 0.485000 -0.625135
v 0.498494 0.485000 -0.818858
v 0.702413 0.485000 0.160130
v -0.227626 1.035000 0.353852
v -0.227626 0.485000 0.353852
v 0.702413 1.035000 0.160130
v -0.227626 0.485000 0.353852
v 0.702413 0.485000 0.160130
v 0.702413 1.035000 0.160130
v 0.498494 1.035000 -0.818858
v 0.498494 0.485000 -0.818858
v -0.431544 1.035000 -0.625135
v 0.498494 0.485000 -0.818858
v -0.431544 0.485000 -0.625135
v -0.431544 1.035000 -0.625135
v 0.143987 0.990000 0.695574
v 0.143987 0.810000 0.695574
v -0.070633 0.990000 0.243979
v 0.143987 0.810000 0.695574
v -0.070633 0.810000 0.243979
v -0.070633 0.990000 0.243979
v -0.702866 0.990000 0.544447
v -0.702866 0.810000 0.544447
v -0.488246 0.990000 0.996043
v -0.702866 0.810000 0.544447
v -0.488246 0.810000 0.996043
v -0.488246 0.990000 0.996043
v -0.702866 0.990000 0.544447
v -0.488246 0.990000 0.996043
v -0.070633 0.990000 0.243979
v -0.488246 0.990000 0.996043
v 0.143987 0.990000 0.695574
v -0.070633 0.990000 0.243979
v -0.488246 0.810000 0.996043
v -0.702866 0.810000 0.544447
v 0.143987 0.810000 0.695574
v -0.702866 0.810000 0.544447
v -0.070633 0.810000 0.243979
v 0.143987 0.810000 0.695574
v -0.488246 0.990000 0.996043
v -0.488246 0.810000 0.996043
v 0.143987 0.990000 0.695574
v -0.488246 0.810000 0.996043
v 0.143987 0.810000 0.695574
v 0.143987 0.990000 0.695574
v -0.070633 0.990000 0.243979
v -0.070633 0.810000 0.243979
v -0.702866 0.990000 0.544447
v -0.070633 0.810000 0.243979
v -0.702866 0.810000 0.544447
v -0.702866 0.990000 0.544447
vn 0.9755 -0.0837 -0.2032
vn -0.9755 0.0837 0.2032
vn 0.0820 0.9965 -0.0171
vn -0.0820 -0.9965 0.0171
vn 0.2039 -0.0000 0.9790
vn -0.2039 -0.0000 -0.9790
vn 0.9790 -0.0000 -0.2039
vn -0.9790 -0.0000 0.2039
vn -0.0000 1.0000 -0.0000
vn -0.0000 -1.0000 -0.0000
vn 0.9032 -0.0000 -0.4292
vn -0.9032 -0.0000 0.4292
vn 0.4292 -0.0000 0.9032
vn -0.4292 -0.0000 -0.9032
vt 0.000000 1.000000
vt 1.000000 0.000000
vt 0.000000 0.000000
vt 1.000000 1.000000
s 0
usemtl Material_7
f 2/1/1 3/2/1 1/3/1
f 5/4/1 6/2/1 4/1/1
f 8/1/2 9/2/2 7/3/2
f 11/4/2 12/2/2 10/1/2
f 14/1/3 15/2/3 13/3/3
f 17/4/3 18/2/3 16/1/3
f 20/1/4 21/2/4 19/3/4
f 23/4/4 24/2/4 22/1/4
f 26/1/5 27/2/5 25/3/5
f 29/4/5 30/2/5 28/1/5
f 32/1/6 33/2/6 31/3/6
f 35/4/6 36/2/6 34/1/6
usemtl Material_5
f 38/1/7 39/2/7 37/3/7
f 41/4/7 42/2/7 40/1/7
f 44/1/8 45/2/8 43/3/8
f 47/4/8 48/2/8 46/1/8
f 50/1/9 51/2/9 49/3/9
f 53/4/9 54/2/9 52/1/9
f 56/1/10 57/2/10 55/3/10
f 59/4/10 60/2/10 58/1/10
f 62/1/5 63/2/5 61/3/5
f 65/4/5 66/2/5 64/1/5
f 68/1/6 69/2/6 67/3/6
f 71/4/6 72/2/6 70/1/6
usemtl Material_4
f 74/1/11 75/2/11 73/3/11
f 77/4/11 78/2/11 76/1/11
f 80/1/12 81/2/12 79/3/12
f 83/4/12 84/2/12 82/1/12
f 86/1/9 87/2/9 85/3/9
f 89/4/9 90/2/9 88/1/9
f 92/1/10 93/2/10 91/3/10
f 95/4/10 96/2/10 94/1/10
f 98/1/13 99/2/13 97/3/13
f 101/4/13 102/2/13 100/1/13
f 104/1/14 105/2/14 103/3/14
f 107/4/14 108/2/14 106/1/14
