# Blender 5.2.1 LTS
# www.blender.org
mtllib prop_house.mtl
o MilitaryStructure9
v 1.758890 1.850000 1.056553
v 1.758890 0.050000 1.056553
v 1.175203 1.850000 -1.681933
v 1.758890 0.050000 1.056553
v 1.175203 0.050000 -1.681933
v 1.175203 1.850000 -1.681933
v -1.758890 1.850000 -1.056553
v -1.758890 0.050000 -1.056553
v -1.175203 1.850000 1.681933
v -1.758890 0.050000 -1.056553
v -1.175203 0.050000 1.681933
v -1.175203 1.850000 1.681933
v -1.758890 1.850000 -1.056553
v -1.175203 1.850000 1.681933
v 1.175203 1.850000 -1.681933
v -1.175203 1.850000 1.681933
v 1.758890 1.850000 1.056553
v 1.175203 1.850000 -1.681933
v -1.175203 0.050000 1.681933
v -1.758890 0.050000 -1.056553
v 1.758890 0.050000 1.056553
v -1.758890 0.050000 -1.056553
v 1.175203 0.050000 -1.681933
v 1.758890 0.050000 1.056553
v -1.175203 1.850000 1.681933
v -1.175203 0.050000 1.681933
v 1.758890 1.850000 1.056553
v -1.175203 0.050000 1.681933
v 1.758890 0.050000 1.056553
v 1.758890 1.850000 1.056553
v 1.175203 1.850000 -1.681933
v 1.175203 0.050000 -1.681933
v -1.758890 1.850000 -1.056553
v 1.175203 0.050000 -1.681933
v -1.758890 0.050000 -1.056553
v -1.758890 1.850000 -1.056553
v -0.488050 1.305800 1.351429
v -0.531296 1.152031 1.360646
v -0.946662 1.305800 -0.800239
v -0.531296 1.152031 1.360646
v -0.989908 1.152031 -0.791022
v -0.946662 1.305800 -0.800239
v -2.450569 1.747969 -0.479693
v -2.493815 1.594200 -0.470476
v -1.991957 1.747969 1.671975
v -2.493815 1.594200 -0.470476
v -2.035203 1.594200 1.681193
v -1.991957 1.747969 1.671975
v -2.450569 1.747969 -0.479693
v -1.991957 1.747969 1.671975
v -0.946662 1.305800 -0.800239
v -1.991957 1.747969 1.671975
v -0.488050 1.305800 1.351429
v -0.946662 1.305800 -0.800239
v -2.035203 1.594200 1.681193
v -2.493815 1.594200 -0.470476
v -0.531296 1.152031 1.360646
v -2.493815 1.594200 -0.470476
v -0.989908 1.152031 -0.791022
v -0.531296 1.152031 1.360646
v -1.991957 1.747969 1.671975
v -2.035203 1.594200 1.681193
v -0.488050 1.305800 1.351429
v -2.035203 1.594200 1.681193
v -0.531296 1.152031 1.360646
v -0.488050 1.305800 1.351429
v -0.946662 1.305800 -0.800239
v -0.989908 1.152031 -0.791022
v -2.450569 1.747969 -0.479693
v -0.989908 1.152031 -0.791022
v -2.493815 1.594200 -0.470476
v -2.450569 1.747969 -0.479693
v 1.944611 2.163601 1.144776
v 1.957116 2.004113 1.142111
v 1.308808 2.163601 -1.838218
v 1.957116 2.004113 1.142111
v 1.321314 2.004113 -1.840883
v 1.308808 2.163601 -1.838218
v -1.957116 1.895887 -1.142111
v -1.944611 1.736399 -1.144776
v -1.321314 1.895887 1.840883
v -1.944611 1.736399 -1.144776
v -1.308808 1.736399 1.838218
v -1.321314 1.895887 1.840883
v -1.957116 1.895887 -1.142111
v -1.321314 1.895887 1.840883
v 1.308808 2.163601 -1.838218
v -1.321314 1.895887 1.840883
v 1.944611 2.163601 1.144776
v 1.308808 2.163601 -1.838218
v -1.308808 1.736399 1.838218
v -1.944611 1.736399 -1.144776
v 1.957116 2.004113 1.142111
v -1.944611 1.736399 -1.144776
v 1.321314 2.004113 -1.840883
v 1.957116 2.004113 1.142111
v -1.321314 1.895887 1.840883
v -1.308808 1.736399 1.838218
v 1.944611 2.163601 1.144776
v -1.308808 1.736399 1.838218
v 1.957116 2.004113 1.142111
v 1.944611 2.163601 1.144776
v 1.308808 2.163601 -1.838218
v 1.321314 2.004113 -1.840883
v -1.957116 1.895887 -1.142111
v 1.321314 2.004113 -1.840883
v -1.944611 1.736399 -1.144776
v -1.957116 1.895887 -1.142111
v -1.256065 1.570000 -0.376431
v -1.256065 0.070000 -0.376431
v -0.991249 1.570000 -0.558653
v -1.256065 0.070000 -0.376431
v -0.991249 0.070000 -0.558653
v -0.991249 1.570000 -0.558653
v -0.991249 1.570000 -0.558653
v -0.991249 0.070000 -0.558653
v -0.932845 1.570000 -0.874757
v -0.991249 0.070000 -0.558653
v -0.932845 0.070000 -0.874757
v -0.932845 1.570000 -0.874757
v -0.932845 1.570000 -0.874757
v -0.932845 0.070000 -0.874757
v -1.115067 1.570000 -1.139573
v -0.932845 0.070000 -0.874757
v -1.115067 0.070000 -1.139573
v -1.115067 1.570000 -1.139573
v -1.115067 1.570000 -1.139573
v -1.115067 0.070000 -1.139573
v -1.431172 1.570000 -1.197977
v -1.115067 0.070000 -1.139573
v -1.431172 0.070000 -1.197977
v -1.431172 1.570000 -1.197977
v -1.431172 1.570000 -1.197977
v -1.431172 0.070000 -1.197977
v -1.695988 1.570000 -1.015755
v -1.431172 0.070000 -1.197977
v -1.695988 0.070000 -1.015755
v -1.695988 1.570000 -1.015755
v -1.695988 1.570000 -1.015755
v -1.695988 0.070000 -1.015755
v -1.754391 1.570000 -0.699650
v -1.695988 0.070000 -1.015755
v -1.754391 0.070000 -0.699650
v -1.754391 1.570000 -0.699650
v -1.754391 1.570000 -0.699650
v -1.754391 0.070000 -0.699650
v -1.572169 1.570000 -0.434834
v -1.754391 0.070000 -0.699650
v -1.572169 0.070000 -0.434834
v -1.572169 1.570000 -0.434834
v -1.572169 1.570000 -0.434834
v -1.572169 0.070000 -0.434834
v -1.256065 1.570000 -0.376431
v -1.572169 0.070000 -0.434834
v -1.256065 0.070000 -0.376431
v -1.256065 1.570000 -0.376431
v -1.256065 1.570000 -0.376431
v -0.991249 1.570000 -0.558653
v -1.343619 1.570000 -0.787204
v -0.991249 1.570000 -0.558653
v -0.932845 1.570000 -0.874757
v -1.343619 1.570000 -0.787204
v -0.932845 1.570000 -0.874757
v -1.115067 1.570000 -1.139573
v -1.343619 1.570000 -0.787204
v -1.115067 1.570000 -1.139573
v -1.431172 1.570000 -1.197977
v -1.343619 1.570000 -0.787204
v -1.431172 1.570000 -1.197977
v -1.695988 1.570000 -1.015755
v -1.343619 1.570000 -0.787204
v -1.695988 1.570000 -1.015755
v -1.754391 1.570000 -0.699650
v -1.343619 1.570000 -0.787204
v -1.754391 1.570000 -0.699650
v -1.572169 1.570000 -0.434834
v -1.343619 1.570000 -0.787204
v -1.572169 1.570000 -0.434834
v -1.256065 1.570000 -0.376431
v -1.343619 1.570000 -0.787204
v -0.991249 0.070000 -0.558653
v -1.256065 0.070000 -0.376431
v -1.343619 0.070000 -0.787204
v -0.932845 0.070000 -0.874757
v -0.991249 0.070000 -0.558653
v -1.343619 0.070000 -0.787204
v -1.115067 0.070000 -1.139573
v -0.932845 0.070000 -0.874757
v -1.343619 0.070000 -0.787204
v -1.431172 0.070000 -1.197977
v -1.115067 0.070000 -1.139573
v -1.343619 0.070000 -0.787204
v -1.695988 0.070000 -1.015755
v -1.431172 0.070000 -1.197977
v -1.343619 0.070000 -0.787204
v -1.754391 0.070000 -0.699650
v -1.695988 0.070000 -1.015755
v -1.343619 0.070000 -0.787204
v -1.572169 0.070000 -0.434834
v -1.754391 0.070000 -0.699650
v -1.343619 0.070000 -0.787204
v -1.256065 0.070000 -0.376431
v -1.572169 0.070000 -0.434834
v -1.343619 0.070000 -0.787204
v 1.282111 2.070878 0.135713
v 1.272744 1.991453 0.137709
v 0.990267 2.070878 -1.233531
v 1.272744 1.991453 0.137709
v 0.980901 1.991453 -1.231534
v 0.990267 2.070878 -1.233531
v -0.126380 2.208547 -0.995526
v -0.135747 2.129122 -0.993529
v 0.165464 2.208547 0.373718
v -0.135747 2.129122 -0.993529
v 0.156097 2.129122 0.375714
v 0.165464 2.208547 0.373718
v -0.126380 2.208547 -0.995526
v 0.165464 2.208547 0.373718
v 0.990267 2.070878 -1.233531
v 0.165464 2.208547 0.373718
v 1.282111 2.070878 0.135713
v 0.990267 2.070878 -1.233531
v 0.156097 2.129122 0.375714
v -0.135747 2.129122 -0.993529
v 1.272744 1.991453 0.137709
v -0.135747 2.129122 -0.993529
v 0.980901 1.991453 -1.231534
v 1.272744 1.991453 0.137709
v 0.165464 2.208547 0.373718
v 0.156097 2.129122 0.375714
v 1.282111 2.070878 0.135713
v 0.156097 2.129122 0.375714
v 1.272744 1.991453 0.137709
v 1.282111 2.070878 0.135713
v 0.990267 2.070878 -1.233531
v 0.980901 1.991453 -1.231534
v -0.126380 2.208547 -0.995526
v 0.980901 1.991453 -1.231534
v -0.135747 2.129122 -0.993529
v -0.126380 2.208547 -0.995526
v -0.112284 2.164212 0.969710
v -0.101376 2.095106 0.967385
v -0.331166 2.164212 -0.057222
v -0.101376 2.095106 0.967385
v -0.320259 2.095106 -0.059547
v -0.331166 2.164212 -0.057222
v -1.296705 2.004894 0.148575
v -1.285798 1.935788 0.146250
v -1.077822 2.004894 1.175508
v -1.285798 1.935788 0.146250
v -1.066915 1.935788 1.173183
v -1.077822 2.004894 1.175508
v -1.296705 2.004894 0.148575
v -1.077822 2.004894 1.175508
v -0.331166 2.164212 -0.057222
v -1.077822 2.004894 1.175508
v -0.112284 2.164212 0.969710
v -0.331166 2.164212 -0.057222
v -1.066915 1.935788 1.173183
v -1.285798 1.935788 0.146250
v -0.101376 2.095106 0.967385
v -1.285798 1.935788 0.146250
v -0.320259 2.095106 -0.059547
v -0.101376 2.095106 0.967385
v -1.077822 2.004894 1.175508
v -1.066915 1.935788 1.173183
v -0.112284 2.164212 0.969710
v -1.066915 1.935788 1.173183
v -0.101376 2.095106 0.967385
v -0.112284 2.164212 0.969710
v -0.331166 2.164212 -0.057222
v -0.320259 2.095106 -0.059547
v -1.296705 2.004894 0.148575
v -0.320259 2.095106 -0.059547
v -1.285798 1.935788 0.146250
v -1.296705 2.004894 0.148575
v 0.683621 1.190000 1.408435
v 0.683621 0.010000 1.408435
v 0.654436 1.190000 1.271510
v 0.683621 0.010000 1.408435
v 0.654436 0.010000 1.271510
v 0.654436 1.190000 1.271510
v -0.079087 1.190000 1.427855
v -0.079087 0.010000 1.427855
v -0.049903 1.190000 1.564780
v -0.079087 0.010000 1.427855
v -0.049903 0.010000 1.564780
v -0.049903 1.190000 1.564780
v -0.079087 1.190000 1.427855
v -0.049903 1.190000 1.564780
v 0.654436 1.190000 1.271510
v -0.049903 1.190000 1.564780
v 0.683621 1.190000 1.408435
v 0.654436 1.190000 1.271510
v -0.049903 0.010000 1.564780
v -0.079087 0.010000 1.427855
v 0.683621 0.010000 1.408435
v -0.079087 0.010000 1.427855
v 0.654436 0.010000 1.271510
v 0.683621 0.010000 1.408435
v -0.049903 1.190000 1.564780
v -0.049903 0.010000 1.564780
v 0.683621 1.190000 1.408435
v -0.049903 0.010000 1.564780
v 0.683621 0.010000 1.408435
v 0.683621 1.190000 1.408435
v 0.654436 1.190000 1.271510
v 0.654436 0.010000 1.271510
v -0.079087 1.190000 1.427855
v 0.654436 0.010000 1.271510
v -0.079087 0.010000 1.427855
v -0.079087 1.190000 1.427855
v 1.506349 2.240000 0.471342
v 1.506349 2.060000 0.471342
v 1.391696 2.240000 -0.066575
v 1.506349 2.060000 0.471342
v 1.391696 2.060000 -0.066575
v 1.391696 2.240000 -0.066575
v 0.853779 2.240000 0.048078
v 0.853779 2.060000 0.048078
v 0.968432 2.240000 0.585995
v 0.853779 2.060000 0.048078
v 0.968432 2.060000 0.585995
v 0.968432 2.240000 0.585995
v 0.853779 2.240000 0.048078
v 0.968432 2.240000 0.585995
v 1.391696 2.240000 -0.066575
v 0.968432 2.240000 0.585995
v 1.506349 2.240000 0.471342
v 1.391696 2.240000 -0.066575
v 0.968432 2.060000 0.585995
v 0.853779 2.060000 0.048078
v 1.506349 2.060000 0.471342
v 0.853779 2.060000 0.048078
v 1.391696 2.060000 -0.066575
v 1.506349 2.060000 0.471342
v 0.968432 2.240000 0.585995
v 0.968432 2.060000 0.585995
v 1.506349 2.240000 0.471342
v 0.968432 2.060000 0.585995
v 1.506349 2.060000 0.471342
v 1.506349 2.240000 0.471342
v 1.391696 2.240000 -0.066575
v 1.391696 2.060000 -0.066575
v 0.853779 2.240000 0.048078
v 1.391696 2.060000 -0.066575
v 0.853779 2.060000 0.048078
v 0.853779 2.240000 0.048078
v 1.466766 1.390000 1.221064
v 1.450090 1.390000 1.142821
v 1.466766 0.970000 1.221064
v 1.450090 0.970000 1.142821
v 0.941513 1.390000 1.251220
v 0.958190 1.390000 1.329463
v 0.941513 0.970000 1.251220
v 0.958190 0.970000 1.329463
v 0.941513 1.390000 1.251220
v 1.450090 1.390000 1.142821
v 0.958190 1.390000 1.329463
v 1.466766 1.390000 1.221064
v 0.958190 0.970000 1.329463
v 1.466766 0.970000 1.221064
v 0.941513 0.970000 1.251220
v 1.450090 0.970000 1.142821
v 0.958190 1.390000 1.329463
v 1.466766 1.390000 1.221064
v 0.958190 0.970000 1.329463
v 1.466766 0.970000 1.221064
v 1.450090 1.390000 1.142821
v 0.941513 1.390000 1.251220
v 1.450090 0.970000 1.142821
v 0.941513 0.970000 1.251220
v -0.914554 2.850000 -0.357200
v -0.914554 1.050000 -0.357200
v -0.855132 2.850000 -0.410763
v -0.914554 1.050000 -0.357200
v -0.855132 1.050000 -0.410763
v -0.855132 2.850000 -0.410763
v -0.855132 2.850000 -0.410763
v -0.855132 1.050000 -0.410763
v -0.871809 2.850000 -0.489006
v -0.855132 1.050000 -0.410763
v -0.871809 1.050000 -0.489006
v -0.871809 2.850000 -0.489006
v -0.871809 2.850000 -0.489006
v -0.871809 1.050000 -0.489006
v -0.947907 2.850000 -0.513685
v -0.871809 1.050000 -0.489006
v -0.947907 1.050000 -0.513685
v -0.947907 2.850000 -0.513685
v -0.947907 2.850000 -0.513685
v -0.947907 1.050000 -0.513685
v -1.007329 2.850000 -0.460121
v -0.947907 1.050000 -0.513685
v -1.007329 1.050000 -0.460121
v -1.007329 2.850000 -0.460121
v -1.007329 2.850000 -0.460121
v -1.007329 1.050000 -0.460121
v -0.990652 2.850000 -0.381878
v -1.007329 1.050000 -0.460121
v -0.990652 1.050000 -0.381878
v -0.990652 2.850000 -0.381878
v -0.990652 2.850000 -0.381878
v -0.990652 1.050000 -0.381878
v -0.914554 2.850000 -0.357200
v -0.990652 1.050000 -0.381878
v -0.914554 1.050000 -0.357200
v -0.914554 2.850000 -0.357200
v -0.914554 2.850000 -0.357200
v -0.855132 2.850000 -0.410763
v -0.931230 2.850000 -0.435442
v -0.855132 2.850000 -0.410763
v -0.871809 2.850000 -0.489006
v -0.931230 2.850000 -0.435442
v -0.871809 2.850000 -0.489006
v -0.947907 2.850000 -0.513685
v -0.931230 2.850000 -0.435442
v -0.947907 2.850000 -0.513685
v -1.007329 2.850000 -0.460121
v -0.931230 2.850000 -0.435442
v -1.007329 2.850000 -0.460121
v -0.990652 2.850000 -0.381878
v -0.931230 2.850000 -0.435442
v -0.990652 2.850000 -0.381878
v -0.914554 2.850000 -0.357200
v -0.931230 2.850000 -0.435442
v -0.855132 1.050000 -0.410763
v -0.914554 1.050000 -0.357200
v -0.931230 1.050000 -0.435442
v -0.871809 1.050000 -0.489006
v -0.855132 1.050000 -0.410763
v -0.931230 1.050000 -0.435442
v -0.947907 1.050000 -0.513685
v -0.871809 1.050000 -0.489006
v -0.931230 1.050000 -0.435442
v -1.007329 1.050000 -0.460121
v -0.947907 1.050000 -0.513685
v -0.931230 1.050000 -0.435442
v -0.990652 1.050000 -0.381878
v -1.007329 1.050000 -0.460121
v -0.931230 1.050000 -0.435442
v -0.914554 1.050000 -0.357200
v -0.990652 1.050000 -0.381878
v -0.931230 1.050000 -0.435442
vn 0.9780 -0.0000 -0.2085
vn -0.9780 -0.0000 0.2085
vn -0.0000 1.0000 -0.0000
vn -0.0000 -1.0000 -0.0000
vn 0.2085 -0.0000 0.9780
vn -0.2085 -0.0000 -0.9780
vn 0.9399 -0.2764 -0.2003
vn -0.9399 0.2764 0.2003
vn 0.2703 0.9611 -0.0576
vn -0.2703 -0.9611 0.0576
vn 0.9749 0.0799 -0.2078
vn -0.9749 -0.0799 0.2078
vn -0.0782 0.9968 0.0167
vn 0.0782 -0.9968 -0.0167
vn 0.5669 -0.0000 0.8238
vn 0.9834 -0.0000 0.1817
vn 0.8238 -0.0000 -0.5669
vn 0.1817 -0.0000 -0.9834
vn -0.5669 -0.0000 -0.8238
vn -0.9834 -0.0000 -0.1817
vn -0.8238 -0.0000 0.5669
vn -0.1817 -0.0000 0.9834
vn 0.9710 -0.1197 -0.2070
vn -0.9710 0.1197 0.2070
vn 0.1171 0.9928 -0.0250
vn -0.1171 -0.9928 0.0250
vn 0.9655 0.1593 -0.2058
vn -0.9655 -0.1593 0.2058
vn -0.1558 0.9872 0.0332
vn 0.1558 -0.9872 -0.0332
vn 0.6695 -0.0000 0.7428
vn 0.3085 -0.0000 -0.9512
vn -0.6695 -0.0000 -0.7428
vn -0.3085 -0.0000 0.9512
vt 0.000000 1.000000
vt 1.000000 0.000000
vt 0.000000 0.000000
vt 1.000000 1.000000
vt 0.125000 0.000000
vt 0.125000 1.000000
vt 0.250000 0.000000
vt 0.250000 1.000000
vt 0.375000 0.000000
vt 0.375000 1.000000
vt 0.500000 0.000000
vt 0.500000 1.000000
vt 0.625000 0.000000
vt 0.625000 1.000000
vt 0.750000 0.000000
vt 0.750000 1.000000
vt 0.875000 0.000000
vt 0.875000 1.000000
vt 0.853553 0.146447
vt 0.500000 0.500000
vt 1.000000 0.500000
vt 0.146447 0.146447
vt 0.000000 0.500000
vt 0.146447 0.853553
vt 0.853553 0.853553
vt 0.166667 0.000000
vt 0.166667 1.000000
vt 0.333333 0.000000
vt 0.333333 1.000000
vt 0.666667 0.000000
vt 0.666667 1.000000
vt 0.833333 0.000000
vt 0.833333 1.000000
vt 0.750000 0.066987
vt 0.250000 0.066987
vt 0.250000 0.933013
vt 0.750000 0.933013
s 0
usemtl Material_7
f 2/1/1 3/2/1 1/3/1
f 5/4/1 6/2/1 4/1/1
f 8/1/2 9/2/2 7/3/2
f 11/4/2 12/2/2 10/1/2
f 14/1/3 15/2/3 13/3/3
f 17/4/3 18/2/3 16/1/3
f 20/1/4 21/2/4 19/3/4
f 23/4/4 24/2/4 22/1/4
f 26/1/5 27/2/5 25/3/5
f 29/4/5 30/2/5 28/1/5
f 32/1/6 33/2/6 31/3/6
f 35/4/6 36/2/6 34/1/6
usemtl Material_5
f 38/1/7 39/2/7 37/3/7
f 41/4/7 42/2/7 40/1/7
f 44/1/8 45/2/8 43/3/8
f 47/4/8 48/2/8 46/1/8
f 50/1/9 51/2/9 49/3/9
f 53/4/9 54/2/9 52/1/9
f 56/1/10 57/2/10 55/3/10
f 59/4/10 60/2/10 58/1/10
f 62/1/5 63/2/5 61/3/5
f 65/4/5 66/2/5 64/1/5
f 68/1/6 69/2/6 67/3/6
f 71/4/6 72/2/6 70/1/6
f 74/1/11 75/2/11 73/3/11
f 77/4/11 78/2/11 76/1/11
f 80/1/12 81/2/12 79/3/12
f 83/4/12 84/2/12 82/1/12
f 86/1/13 87/2/13 85/3/13
f 89/4/13 90/2/13 88/1/13
f 92/1/14 93/2/14 91/3/14
f 95/4/14 96/2/14 94/1/14
f 98/1/5 99/2/5 97/3/5
f 101/4/5 102/2/5 100/1/5
f 104/1/6 105/2/6 103/3/6
f 107/4/6 108/2/6 106/1/6
f 110/1/15 111/5/15 109/3/15
f 113/6/15 114/5/15 112/1/15
f 116/6/16 117/7/16 115/5/16
f 119/8/16 120/7/16 118/6/16
f 122/8/17 123/9/17 121/7/17
f 125/10/17 126/9/17 124/8/17
f 128/10/18 129/11/18 127/9/18
f 131/12/18 132/11/18 130/10/18
f 134/12/19 135/13/19 133/11/19
f 137/14/19 138/13/19 136/12/19
f 140/14/20 141/15/20 139/13/20
f 143/16/20 144/15/20 142/14/20
f 146/16/21 147/17/21 145/15/21
f 149/18/21 150/17/21 148/16/21
f 152/18/22 153/2/22 151/17/22
f 155/4/22 156/2/22 154/18/22
f 158/19/3 159/20/3 157/21/3
f 161/11/3 162/20/3 160/19/3
f 164/22/3 165/20/3 163/11/3
f 167/23/3 168/20/3 166/22/3
f 170/24/3 171/20/3 169/23/3
f 173/12/3 174/20/3 172/24/3
f 176/25/3 177/20/3 175/12/3
f 179/21/3 180/20/3 178/25/3
f 182/21/4 183/20/4 181/25/4
f 185/25/4 186/20/4 184/12/4
f 188/12/4 189/20/4 187/24/4
f 191/24/4 192/20/4 190/23/4
f 194/23/4 195/20/4 193/22/4
f 197/22/4 198/20/4 196/11/4
f 200/11/4 201/20/4 199/19/4
f 203/19/4 204/20/4 202/21/4
usemtl Material_4
f 206/1/23 207/2/23 205/3/23
f 209/4/23 210/2/23 208/1/23
f 212/1/24 213/2/24 211/3/24
f 215/4/24 216/2/24 214/1/24
f 218/1/25 219/2/25 217/3/25
f 221/4/25 222/2/25 220/1/25
f 224/1/26 225/2/26 223/3/26
f 227/4/26 228/2/26 226/1/26
f 230/1/5 231/2/5 229/3/5
f 233/4/5 234/2/5 232/1/5
f 236/1/6 237/2/6 235/3/6
f 239/4/6 240/2/6 238/1/6
usemtl Material_3
f 242/1/27 243/2/27 241/3/27
f 245/4/27 246/2/27 244/1/27
f 248/1/28 249/2/28 247/3/28
f 251/4/28 252/2/28 250/1/28
f 254/1/29 255/2/29 253/3/29
f 257/4/29 258/2/29 256/1/29
f 260/1/30 261/2/30 259/3/30
f 263/4/30 264/2/30 262/1/30
f 266/1/5 267/2/5 265/3/5
f 269/4/5 270/2/5 268/1/5
f 272/1/6 273/2/6 271/3/6
f 275/4/6 276/2/6 274/1/6
f 278/1/1 279/2/1 277/3/1
f 281/4/1 282/2/1 280/1/1
f 284/1/2 285/2/2 283/3/2
f 287/4/2 288/2/2 286/1/2
f 290/1/3 291/2/3 289/3/3
f 293/4/3 294/2/3 292/1/3
f 296/1/4 297/2/4 295/3/4
f 299/4/4 300/2/4 298/1/4
f 302/1/5 303/2/5 301/3/5
f 305/4/5 306/2/5 304/1/5
f 308/1/6 309/2/6 307/3/6
f 311/4/6 312/2/6 310/1/6
f 314/1/1 315/2/1 313/3/1
f 317/4/1 318/2/1 316/1/1
f 320/1/2 321/2/2 319/3/2
f 323/4/2 324/2/2 322/1/2
f 326/1/3 327/2/3 325/3/3
f 329/4/3 330/2/3 328/1/3
f 332/1/4 333/2/4 331/3/4
f 335/4/4 336/2/4 334/1/4
f 338/1/5 339/2/5 337/3/5
f 341/4/5 342/2/5 340/1/5
f 344/1/6 345/2/6 343/3/6
f 347/4/6 348/2/6 346/1/6
usemtl Material_8
f 351/1/1 350/2/1 349/3/1
f 352/4/1 350/2/1 351/1/1
f 355/1/2 354/2/2 353/3/2
f 356/4/2 354/2/2 355/1/2
f 359/1/3 358/2/3 357/3/3
f 360/4/3 358/2/3 359/1/3
f 363/1/4 362/2/4 361/3/4
f 364/4/4 362/2/4 363/1/4
f 367/1/5 366/2/5 365/3/5
f 368/4/5 366/2/5 367/1/5
f 371/1/6 370/2/6 369/3/6
f 372/4/6 370/2/6 371/1/6
usemtl Material_2
f 374/1/31 375/26/31 373/3/31
f 377/27/31 378/26/31 376/1/31
f 380/27/1 381/28/1 379/26/1
f 383/29/1 384/28/1 382/27/1
f 386/29/32 387/11/32 385/28/32
f 389/12/32 390/11/32 388/29/32
f 392/12/33 393/30/33 391/11/33
f 395/31/33 396/30/33 394/12/33
f 398/31/2 399/32/2 397/30/2
f 401/33/2 402/32/2 400/31/2
f 404/33/34 405/2/34 403/32/34
f 407/4/34 408/2/34 406/33/34
f 410/34/3 411/20/3 409/21/3
f 413/35/3 414/20/3 412/34/3
f 416/23/3 417/20/3 415/35/3
f 419/36/3 420/20/3 418/23/3
f 422/37/3 423/20/3 421/36/3
f 425/21/3 426/20/3 424/37/3
f 428/21/4 429/20/4 427/37/4
f 431/37/4 432/20/4 430/36/4
f 434/36/4 435/20/4 433/23/4
f 437/23/4 438/20/4 436/35/4
f 440/35/4 441/20/4 439/34/4
f 443/34/4 444/20/4 442/21/4
