# Blender 5.2.1 LTS
# www.blender.org
mtllib prop_well.mtl
o MilitaryStructure10
v 0.000000 2.200000 1.000000
v 0.000000 0.000000 1.200000
v 0.587785 2.200000 0.809017
v 0.000000 0.000000 1.200000
v 0.705342 0.000000 0.970820
v 0.587785 2.200000 0.809017
v 0.587785 2.200000 0.809017
v 0.705342 0.000000 0.970820
v 0.951057 2.200000 0.309017
v 0.705342 0.000000 0.970820
v 1.141268 0.000000 0.370820
v 0.951057 2.200000 0.309017
v 0.951057 2.200000 0.309017
v 1.141268 0.000000 0.370820
v 0.951057 2.200000 -0.309017
v 1.141268 0.000000 0.370820
v 1.141268 0.000000 -0.370820
v 0.951057 2.200000 -0.309017
v 0.951057 2.200000 -0.309017
v 1.141268 0.000000 -0.370820
v 0.587785 2.200000 -0.809017
v 1.141268 0.000000 -0.370820
v 0.705342 0.000000 -0.970820
v 0.587785 2.200000 -0.809017
v 0.587785 2.200000 -0.809017
v 0.705342 0.000000 -0.970820
v 0.000000 2.200000 -1.000000
v 0.705342 0.000000 -0.970820
v 0.000000 0.000000 -1.200000
v 0.000000 2.200000 -1.000000
v 0.000000 2.200000 -1.000000
v 0.000000 0.000000 -1.200000
v -0.587785 2.200000 -0.809017
v 0.000000 0.000000 -1.200000
v -0.705342 0.000000 -0.970820
v -0.587785 2.200000 -0.809017
v -0.587785 2.200000 -0.809017
v -0.705342 0.000000 -0.970820
v -0.951057 2.200000 -0.309017
v -0.705342 0.000000 -0.970820
v -1.141268 0.000000 -0.370820
v -0.951057 2.200000 -0.309017
v -0.951057 2.200000 -0.309017
v -1.141268 0.000000 -0.370820
v -0.951057 2.200000 0.309017
v -1.141268 0.000000 -0.370820
v -1.141268 0.000000 0.370820
v -0.951057 2.200000 0.309017
v -0.951057 2.200000 0.309017
v -1.141268 0.000000 0.370820
v -0.587785 2.200000 0.809017
v -1.141268 0.000000 0.370820
v -0.705342 0.000000 0.970820
v -0.587785 2.200000 0.809017
v -0.587785 2.200000 0.809017
v -0.705342 0.000000 0.970820
v -0.000000 2.200000 1.000000
v -0.705342 0.000000 0.970820
v -0.000000 0.000000 1.200000
v -0.000000 2.200000 1.000000
v 0.000000 2.200000 1.000000
v 0.587785 2.200000 0.809017
v 0.000000 2.200000 0.000000
v 0.587785 2.200000 0.809017
v 0.951057 2.200000 0.309017
v 0.000000 2.200000 0.000000
v 0.951057 2.200000 0.309017
v 0.951057 2.200000 -0.309017
v 0.000000 2.200000 0.000000
v 0.951057 2.200000 -0.309017
v 0.587785 2.200000 -0.809017
v 0.000000 2.200000 0.000000
v 0.587785 2.200000 -0.809017
v 0.000000 2.200000 -1.000000
v 0.000000 2.200000 0.000000
v 0.000000 2.200000 -1.000000
v -0.587785 2.200000 -0.809017
v 0.000000 2.200000 0.000000
v -0.587785 2.200000 -0.809017
v -0.951057 2.200000 -0.309017
v 0.000000 2.200000 0.000000
v -0.951057 2.200000 -0.309017
v -0.951057 2.200000 0.309017
v 0.000000 2.200000 0.000000
v -0.951057 2.200000 0.309017
v -0.587785 2.200000 0.809017
v 0.000000 2.200000 0.000000
v -0.587785 2.200000 0.809017
v -0.000000 2.200000 1.000000
v 0.000000 2.200000 0.000000
v 0.705342 0.000000 0.970820
v 0.000000 0.000000 1.200000
v 0.000000 0.000000 0.000000
v 1.141268 0.000000 0.370820
v 0.705342 0.000000 0.970820
v 0.000000 0.000000 0.000000
v 1.141268 0.000000 -0.370820
v 1.141268 0.000000 0.370820
v 0.000000 0.000000 0.000000
v 0.705342 0.000000 -0.970820
v 1.141268 0.000000 -0.370820
v 0.000000 0.000000 0.000000
v 0.000000 0.000000 -1.200000
v 0.705342 0.000000 -0.970820
v 0.000000 0.000000 0.000000
v -0.705342 0.000000 -0.970820
v 0.000000 0.000000 -1.200000
v 0.000000 0.000000 0.000000
v -1.141268 0.000000 -0.370820
v -0.705342 0.000000 -0.970820
v 0.000000 0.000000 0.000000
v -1.141268 0.000000 0.370820
v -1.141268 0.000000 -0.370820
v 0.000000 0.000000 0.000000
v -0.705342 0.000000 0.970820
v -1.141268 0.000000 0.370820
v 0.000000 0.000000 0.000000
v -0.000000 0.000000 1.200000
v -0.705342 0.000000 0.970820
v 0.000000 0.000000 0.000000
v 0.000000 2.240000 1.080000
v 0.000000 2.120000 1.080000
v 0.634808 2.240000 0.873738
v 0.000000 2.120000 1.080000
v 0.634808 2.120000 0.873738
v 0.634808 2.240000 0.873738
v 0.634808 2.240000 0.873738
v 0.634808 2.120000 0.873738
v 1.027141 2.240000 0.333738
v 0.634808 2.120000 0.873738
v 1.027141 2.120000 0.333738
v 1.027141 2.240000 0.333738
v 1.027141 2.240000 0.333738
v 1.027141 2.120000 0.333738
v 1.027141 2.240000 -0.333738
v 1.027141 2.120000 0.333738
v 1.027141 2.120000 -0.333738
v 1.027141 2.240000 -0.333738
v 1.027141 2.240000 -0.333738
v 1.027141 2.120000 -0.333738
v 0.634808 2.240000 -0.873738
v 1.027141 2.120000 -0.333738
v 0.634808 2.120000 -0.873738
v 0.634808 2.240000 -0.873738
v 0.634808 2.240000 -0.873738
v 0.634808 2.120000 -0.873738
v 0.000000 2.240000 -1.080000
v 0.634808 2.120000 -0.873738
v 0.000000 2.120000 -1.080000
v 0.000000 2.240000 -1.080000
v 0.000000 2.240000 -1.080000
v 0.000000 2.120000 -1.080000
v -0.634808 2.240000 -0.873738
v 0.000000 2.120000 -1.080000
v -0.634808 2.120000 -0.873738
v -0.634808 2.240000 -0.873738
v -0.634808 2.240000 -0.873738
v -0.634808 2.120000 -0.873738
v -1.027141 2.240000 -0.333738
v -0.634808 2.120000 -0.873738
v -1.027141 2.120000 -0.333738
v -1.027141 2.240000 -0.333738
v -1.027141 2.240000 -0.333738
v -1.027141 2.120000 -0.333738
v -1.027141 2.240000 0.333738
v -1.027141 2.120000 -0.333738
v -1.027141 2.120000 0.333738
v -1.027141 2.240000 0.333738
v -1.027141 2.240000 0.333738
v -1.027141 2.120000 0.333738
v -0.634808 2.240000 0.873738
v -1.027141 2.120000 0.333738
v -0.634808 2.120000 0.873738
v -0.634808 2.240000 0.873738
v -0.634808 2.240000 0.873738
v -0.634808 2.120000 0.873738
v -0.000000 2.240000 1.080000
v -0.634808 2.120000 0.873738
v -0.000000 2.120000 1.080000
v -0.000000 2.240000 1.080000
v 0.000000 2.240000 1.080000
v 0.634808 2.240000 0.873738
v 0.000000 2.240000 0.000000
v 0.634808 2.240000 0.873738
v 1.027141 2.240000 0.333738
v 0.000000 2.240000 0.000000
v 1.027141 2.240000 0.333738
v 1.027141 2.240000 -0.333738
v 0.000000 2.240000 0.000000
v 1.027141 2.240000 -0.333738
v 0.634808 2.240000 -0.873738
v 0.000000 2.240000 0.000000
v 0.634808 2.240000 -0.873738
v 0.000000 2.240000 -1.080000
v 0.000000 2.240000 0.000000
v 0.000000 2.240000 -1.080000
v -0.634808 2.240000 -0.873738
v 0.000000 2.240000 0.000000
v -0.634808 2.240000 -0.873738
v -1.027141 2.240000 -0.333738
v 0.000000 2.240000 0.000000
v -1.027141 2.240000 -0.333738
v -1.027141 2.240000 0.333738
v 0.000000 2.240000 0.000000
v -1.027141 2.240000 0.333738
v -0.634808 2.240000 0.873738
v 0.000000 2.240000 0.000000
v -0.634808 2.240000 0.873738
v -0.000000 2.240000 1.080000
v 0.000000 2.240000 0.000000
v 0.634808 2.120000 0.873738
v 0.000000 2.120000 1.080000
v 0.000000 2.120000 0.000000
v 1.027141 2.120000 0.333738
v 0.634808 2.120000 0.873738
v 0.000000 2.120000 0.000000
v 1.027141 2.120000 -0.333738
v 1.027141 2.120000 0.333738
v 0.000000 2.120000 0.000000
v 0.634808 2.120000 -0.873738
v 1.027141 2.120000 -0.333738
v 0.000000 2.120000 0.000000
v 0.000000 2.120000 -1.080000
v 0.634808 2.120000 -0.873738
v 0.000000 2.120000 0.000000
v -0.634808 2.120000 -0.873738
v 0.000000 2.120000 -1.080000
v 0.000000 2.120000 0.000000
v -1.027141 2.120000 -0.333738
v -0.634808 2.120000 -0.873738
v 0.000000 2.120000 0.000000
v -1.027141 2.120000 0.333738
v -1.027141 2.120000 -0.333738
v 0.000000 2.120000 0.000000
v -0.634808 2.120000 0.873738
v -1.027141 2.120000 0.333738
v 0.000000 2.120000 0.000000
v -0.000000 2.120000 1.080000
v -0.634808 2.120000 0.873738
v 0.000000 2.120000 0.000000
v 0.050000 1.400000 0.200000
v 1.750000 1.400000 0.200000
v 0.050000 1.486602 0.150000
v 1.750000 1.400000 0.200000
v 1.750000 1.486603 0.150000
v 0.050000 1.486602 0.150000
v 0.050000 1.486602 0.150000
v 1.750000 1.486603 0.150000
v 0.050000 1.486602 0.050000
v 1.750000 1.486603 0.150000
v 1.750000 1.486603 0.050000
v 0.050000 1.486602 0.050000
v 0.050000 1.486602 0.050000
v 1.750000 1.486603 0.050000
v 0.050000 1.400000 0.000000
v 1.750000 1.486603 0.050000
v 1.750000 1.400000 0.000000
v 0.050000 1.400000 0.000000
v 0.050000 1.400000 0.000000
v 1.750000 1.400000 0.000000
v 0.050000 1.313397 0.050000
v 1.750000 1.400000 0.000000
v 1.750000 1.313398 0.050000
v 0.050000 1.313397 0.050000
v 0.050000 1.313397 0.050000
v 1.750000 1.313398 0.050000
v 0.050000 1.313397 0.150000
v 1.750000 1.313398 0.050000
v 1.750000 1.313398 0.150000
v 0.050000 1.313397 0.150000
v 0.050000 1.313397 0.150000
v 1.750000 1.313398 0.150000
v 0.050000 1.400000 0.200000
v 1.750000 1.313398 0.150000
v 1.750000 1.400000 0.200000
v 0.050000 1.400000 0.200000
v 0.050000 1.400000 0.200000
v 0.050000 1.486602 0.150000
v 0.050000 1.400000 0.100000
v 0.050000 1.486602 0.150000
v 0.050000 1.486602 0.050000
v 0.050000 1.400000 0.100000
v 0.050000 1.486602 0.050000
v 0.050000 1.400000 0.000000
v 0.050000 1.400000 0.100000
v 0.050000 1.400000 0.000000
v 0.050000 1.313397 0.050000
v 0.050000 1.400000 0.100000
v 0.050000 1.313397 0.050000
v 0.050000 1.313397 0.150000
v 0.050000 1.400000 0.100000
v 0.050000 1.313397 0.150000
v 0.050000 1.400000 0.200000
v 0.050000 1.400000 0.100000
v 1.750000 1.486603 0.150000
v 1.750000 1.400000 0.200000
v 1.750000 1.400000 0.100000
v 1.750000 1.486603 0.050000
v 1.750000 1.486603 0.150000
v 1.750000 1.400000 0.100000
v 1.750000 1.400000 0.000000
v 1.750000 1.486603 0.050000
v 1.750000 1.400000 0.100000
v 1.750000 1.313398 0.050000
v 1.750000 1.400000 0.000000
v 1.750000 1.400000 0.100000
v 1.750000 1.313398 0.150000
v 1.750000 1.313398 0.050000
v 1.750000 1.400000 0.100000
v 1.750000 1.400000 0.200000
v 1.750000 1.313398 0.150000
v 1.750000 1.400000 0.100000
v -0.620000 1.600000 0.080000
v -0.620000 0.000000 0.080000
v -0.620000 1.600000 -0.080000
v -0.620000 0.000000 0.080000
v -0.620000 0.000000 -0.080000
v -0.620000 1.600000 -0.080000
v -0.780000 1.600000 -0.080000
v -0.780000 0.000000 -0.080000
v -0.780000 1.600000 0.080000
v -0.780000 0.000000 -0.080000
v -0.780000 0.000000 0.080000
v -0.780000 1.600000 0.080000
v -0.780000 1.600000 -0.080000
v -0.780000 1.600000 0.080000
v -0.620000 1.600000 -0.080000
v -0.780000 1.600000 0.080000
v -0.620000 1.600000 0.080000
v -0.620000 1.600000 -0.080000
v -0.780000 0.000000 0.080000
v -0.780000 0.000000 -0.080000
v -0.620000 0.000000 0.080000
v -0.780000 0.000000 -0.080000
v -0.620000 0.000000 -0.080000
v -0.620000 0.000000 0.080000
v -0.780000 1.600000 0.080000
v -0.780000 0.000000 0.080000
v -0.620000 1.600000 0.080000
v -0.780000 0.000000 0.080000
v -0.620000 0.000000 0.080000
v -0.620000 1.600000 0.080000
v -0.620000 1.600000 -0.080000
v -0.620000 0.000000 -0.080000
v -0.780000 1.600000 -0.080000
v -0.620000 0.000000 -0.080000
v -0.780000 0.000000 -0.080000
v -0.780000 1.600000 -0.080000
v 0.780000 1.600000 0.080000
v 0.780000 0.000000 0.080000
v 0.780000 1.600000 -0.080000
v 0.780000 0.000000 0.080000
v 0.780000 0.000000 -0.080000
v 0.780000 1.600000 -0.080000
v 0.620000 1.600000 -0.080000
v 0.620000 0.000000 -0.080000
v 0.620000 1.600000 0.080000
v 0.620000 0.000000 -0.080000
v 0.620000 0.000000 0.080000
v 0.620000 1.600000 0.080000
v 0.620000 1.600000 -0.080000
v 0.620000 1.600000 0.080000
v 0.780000 1.600000 -0.080000
v 0.620000 1.600000 0.080000
v 0.780000 1.600000 0.080000
v 0.780000 1.600000 -0.080000
v 0.620000 0.000000 0.080000
v 0.620000 0.000000 -0.080000
v 0.780000 0.000000 0.080000
v 0.620000 0.000000 -0.080000
v 0.780000 0.000000 -0.080000
v 0.780000 0.000000 0.080000
v 0.620000 1.600000 0.080000
v 0.620000 0.000000 0.080000
v 0.780000 1.600000 0.080000
v 0.620000 0.000000 0.080000
v 0.780000 0.000000 0.080000
v 0.780000 1.600000 0.080000
v 0.780000 1.600000 -0.080000
v 0.780000 0.000000 -0.080000
v 0.620000 1.600000 -0.080000
v 0.780000 0.000000 -0.080000
v 0.620000 0.000000 -0.080000
v 0.620000 1.600000 -0.080000
v 1.622918 1.460000 0.137082
v 1.682918 1.497082 0.160000
v 1.656912 1.502078 0.100000
v 1.622918 1.460000 0.137082
v 1.660000 1.437082 0.197082
v 1.682918 1.497082 0.160000
v 1.617922 1.400000 0.163088
v 1.660000 1.437082 0.197082
v 1.622918 1.460000 0.137082
v 1.660000 1.437082 0.197082
v 1.720000 1.463088 0.202078
v 1.682918 1.497082 0.160000
v 1.682918 1.497082 0.160000
v 1.720000 1.520000 0.100000
v 1.656912 1.502078 0.100000
v 1.682918 1.497082 0.160000
v 1.757082 1.497082 0.160000
v 1.720000 1.520000 0.100000
v 1.720000 1.463088 0.202078
v 1.757082 1.497082 0.160000
v 1.682918 1.497082 0.160000
v 1.757082 1.497082 0.160000
v 1.783088 1.502078 0.100000
v 1.720000 1.520000 0.100000
v 1.720000 1.520000 0.100000
v 1.682918 1.497082 0.040000
v 1.656912 1.502078 0.100000
v 1.720000 1.520000 0.100000
v 1.757082 1.497082 0.040000
v 1.682918 1.497082 0.040000
v 1.783088 1.502078 0.100000
v 1.757082 1.497082 0.040000
v 1.720000 1.520000 0.100000
v 1.757082 1.497082 0.040000
v 1.720000 1.463088 -0.002078
v 1.682918 1.497082 0.040000
v 1.682918 1.497082 0.040000
v 1.622918 1.460000 0.062918
v 1.656912 1.502078 0.100000
v 1.682918 1.497082 0.040000
v 1.660000 1.437082 0.002918
v 1.622918 1.460000 0.062918
v 1.720000 1.463088 -0.002078
v 1.660000 1.437082 0.002918
v 1.682918 1.497082 0.040000
v 1.660000 1.437082 0.002918
v 1.617922 1.400000 0.036912
v 1.622918 1.460000 0.062918
v 1.622918 1.460000 0.062918
v 1.622918 1.460000 0.137082
v 1.656912 1.502078 0.100000
v 1.622918 1.460000 0.062918
v 1.600000 1.400000 0.100000
v 1.622918 1.460000 0.137082
v 1.617922 1.400000 0.036912
v 1.600000 1.400000 0.100000
v 1.622918 1.460000 0.062918
v 1.600000 1.400000 0.100000
v 1.617922 1.400000 0.163088
v 1.622918 1.460000 0.137082
v 1.757082 1.497082 0.160000
v 1.817082 1.460000 0.137082
v 1.783088 1.502078 0.100000
v 1.757082 1.497082 0.160000
v 1.780000 1.437082 0.197082
v 1.817082 1.460000 0.137082
v 1.720000 1.463088 0.202078
v 1.780000 1.437082 0.197082
v 1.757082 1.497082 0.160000
v 1.780000 1.437082 0.197082
v 1.822078 1.400000 0.163088
v 1.817082 1.460000 0.137082
v 1.660000 1.437082 0.197082
v 1.720000 1.400000 0.220000
v 1.720000 1.463088 0.202078
v 1.660000 1.437082 0.197082
v 1.660000 1.362918 0.197082
v 1.720000 1.400000 0.220000
v 1.617922 1.400000 0.163088
v 1.660000 1.362918 0.197082
v 1.660000 1.437082 0.197082
v 1.660000 1.362918 0.197082
v 1.720000 1.336912 0.202078
v 1.720000 1.400000 0.220000
v 1.600000 1.400000 0.100000
v 1.622918 1.340000 0.137082
v 1.617922 1.400000 0.163088
v 1.600000 1.400000 0.100000
v 1.622918 1.340000 0.062918
v 1.622918 1.340000 0.137082
v 1.617922 1.400000 0.036912
v 1.622918 1.340000 0.062918
v 1.600000 1.400000 0.100000
v 1.622918 1.340000 0.062918
v 1.656912 1.297922 0.100000
v 1.622918 1.340000 0.137082
v 1.660000 1.437082 0.002918
v 1.660000 1.362918 0.002918
v 1.617922 1.400000 0.036912
v 1.660000 1.437082 0.002918
v 1.720000 1.400000 -0.020000
v 1.660000 1.362918 0.002918
v 1.720000 1.463088 -0.002078
v 1.720000 1.400000 -0.020000
v 1.660000 1.437082 0.002918
v 1.720000 1.400000 -0.020000
v 1.720000 1.336912 -0.002078
v 1.660000 1.362918 0.002918
v 1.757082 1.497082 0.040000
v 1.780000 1.437082 0.002918
v 1.720000 1.463088 -0.002078
v 1.757082 1.497082 0.040000
v 1.817082 1.460000 0.062918
v 1.780000 1.437082 0.002918
v 1.783088 1.502078 0.100000
v 1.817082 1.460000 0.062918
v 1.757082 1.497082 0.040000
v 1.817082 1.460000 0.062918
v 1.822078 1.400000 0.036912
v 1.780000 1.437082 0.002918
v 1.817082 1.340000 0.137082
v 1.757082 1.302918 0.160000
v 1.783088 1.297922 0.100000
v 1.817082 1.340000 0.137082
v 1.780000 1.362918 0.197082
v 1.757082 1.302918 0.160000
v 1.822078 1.400000 0.163088
v 1.780000 1.362918 0.197082
v 1.817082 1.340000 0.137082
v 1.780000 1.362918 0.197082
v 1.720000 1.336912 0.202078
v 1.757082 1.302918 0.160000
v 1.757082 1.302918 0.160000
v 1.720000 1.280000 0.100000
v 1.783088 1.297922 0.100000
v 1.757082 1.302918 0.160000
v 1.682918 1.302918 0.160000
v 1.720000 1.280000 0.100000
v 1.720000 1.336912 0.202078
v 1.682918 1.302918 0.160000
v 1.757082 1.302918 0.160000
v 1.682918 1.302918 0.160000
v 1.656912 1.297922 0.100000
v 1.720000 1.280000 0.100000
v 1.720000 1.280000 0.100000
v 1.757082 1.302918 0.040000
v 1.783088 1.297922 0.100000
v 1.720000 1.280000 0.100000
v 1.682918 1.302918 0.040000
v 1.757082 1.302918 0.040000
v 1.656912 1.297922 0.100000
v 1.682918 1.302918 0.040000
v 1.720000 1.280000 0.100000
v 1.682918 1.302918 0.040000
v 1.720000 1.336912 -0.002078
v 1.757082 1.302918 0.040000
v 1.757082 1.302918 0.040000
v 1.817082 1.340000 0.062918
v 1.783088 1.297922 0.100000
v 1.757082 1.302918 0.040000
v 1.780000 1.362918 0.002918
v 1.817082 1.340000 0.062918
v 1.720000 1.336912 -0.002078
v 1.780000 1.362918 0.002918
v 1.757082 1.302918 0.040000
v 1.780000 1.362918 0.002918
v 1.822078 1.400000 0.036912
v 1.817082 1.340000 0.062918
v 1.817082 1.340000 0.062918
v 1.817082 1.340000 0.137082
v 1.783088 1.297922 0.100000
v 1.817082 1.340000 0.062918
v 1.840000 1.400000 0.100000
v 1.817082 1.340000 0.137082
v 1.822078 1.400000 0.036912
v 1.840000 1.400000 0.100000
v 1.817082 1.340000 0.062918
v 1.840000 1.400000 0.100000
v 1.822078 1.400000 0.163088
v 1.817082 1.340000 0.137082
v 1.780000 1.362918 0.197082
v 1.720000 1.400000 0.220000
v 1.720000 1.336912 0.202078
v 1.780000 1.362918 0.197082
v 1.780000 1.437082 0.197082
v 1.720000 1.400000 0.220000
v 1.822078 1.400000 0.163088
v 1.780000 1.437082 0.197082
v 1.780000 1.362918 0.197082
v 1.780000 1.437082 0.197082
v 1.720000 1.463088 0.202078
v 1.720000 1.400000 0.220000
v 1.682918 1.302918 0.160000
v 1.622918 1.340000 0.137082
v 1.656912 1.297922 0.100000
v 1.682918 1.302918 0.160000
v 1.660000 1.362918 0.197082
v 1.622918 1.340000 0.137082
v 1.720000 1.336912 0.202078
v 1.660000 1.362918 0.197082
v 1.682918 1.302918 0.160000
v 1.660000 1.362918 0.197082
v 1.617922 1.400000 0.163088
v 1.622918 1.340000 0.137082
v 1.682918 1.302918 0.040000
v 1.660000 1.362918 0.002918
v 1.720000 1.336912 -0.002078
v 1.682918 1.302918 0.040000
v 1.622918 1.340000 0.062918
v 1.660000 1.362918 0.002918
v 1.656912 1.297922 0.100000
v 1.622918 1.340000 0.062918
v 1.682918 1.302918 0.040000
v 1.622918 1.340000 0.062918
v 1.617922 1.400000 0.036912
v 1.660000 1.362918 0.002918
v 1.780000 1.362918 0.002918
v 1.780000 1.437082 0.002918
v 1.822078 1.400000 0.036912
v 1.780000 1.362918 0.002918
v 1.720000 1.400000 -0.020000
v 1.780000 1.437082 0.002918
v 1.720000 1.336912 -0.002078
v 1.720000 1.400000 -0.020000
v 1.780000 1.362918 0.002918
v 1.720000 1.400000 -0.020000
v 1.720000 1.463088 -0.002078
v 1.780000 1.437082 0.002918
v 1.840000 1.400000 0.100000
v 1.817082 1.460000 0.137082
v 1.822078 1.400000 0.163088
v 1.840000 1.400000 0.100000
v 1.817082 1.460000 0.062918
v 1.817082 1.460000 0.137082
v 1.822078 1.400000 0.036912
v 1.817082 1.460000 0.062918
v 1.840000 1.400000 0.100000
v 1.817082 1.460000 0.062918
v 1.783088 1.502078 0.100000
v 1.817082 1.460000 0.137082
vn 0.3079 0.0861 0.9475
vn 0.8060 0.0861 0.5856
vn 0.9963 0.0861 -0.0000
vn 0.8060 0.0861 -0.5856
vn 0.3079 0.0861 -0.9475
vn -0.3079 0.0861 -0.9475
vn -0.8060 0.0861 -0.5856
vn -0.9963 0.0861 -0.0000
vn -0.8060 0.0861 0.5856
vn -0.3079 0.0861 0.9475
vn -0.0000 1.0000 -0.0000
vn -0.0000 -1.0000 -0.0000
vn 0.3090 -0.0000 0.9511
vn 0.8090 -0.0000 0.5878
vn 1.0000 -0.0000 -0.0000
vn 0.8090 -0.0000 -0.5878
vn 0.3090 -0.0000 -0.9511
vn -0.3090 -0.0000 -0.9511
vn -0.8090 -0.0000 -0.5878
vn -1.0000 -0.0000 -0.0000
vn -0.8090 -0.0000 0.5878
vn -0.3090 -0.0000 0.9511
vn -0.0000 0.5000 0.8660
vn -0.0000 0.5000 -0.8660
vn -0.0000 -0.5000 -0.8660
vn -0.0000 -0.5000 0.8660
vn -0.0000 -0.0000 1.0000
vn -0.0000 -0.0000 -1.0000
vn -0.5831 0.7488 0.3151
vn -0.5774 0.5773 0.5774
vn -0.7488 0.3151 0.5831
vn -0.3151 0.5831 0.7488
vn -0.2680 0.9435 0.1947
vn -0.0000 0.9342 0.3568
vn -0.0000 0.7779 0.6284
vn 0.2680 0.9435 0.1947
vn -0.2680 0.9435 -0.1947
vn -0.0000 0.9342 -0.3568
vn 0.2680 0.9435 -0.1947
vn -0.0000 0.7779 -0.6284
vn -0.5831 0.7488 -0.3151
vn -0.5774 0.5773 -0.5774
vn -0.3151 0.5831 -0.7488
vn -0.7488 0.3151 -0.5831
vn -0.7779 0.6284 -0.0000
vn -0.9342 0.3568 -0.0000
vn -0.9435 0.1947 -0.2680
vn -0.9435 0.1947 0.2680
vn 0.5831 0.7488 0.3151
vn 0.5774 0.5773 0.5774
vn 0.3151 0.5831 0.7488
vn 0.7488 0.3151 0.5831
vn -0.1947 0.2680 0.9435
vn -0.3568 -0.0000 0.9342
vn -0.6284 -0.0000 0.7779
vn -0.1947 -0.2680 0.9435
vn -0.9435 -0.1947 0.2680
vn -0.9342 -0.3568 -0.0000
vn -0.9435 -0.1947 -0.2680
vn -0.7780 -0.6283 -0.0005
vn -0.6284 -0.0000 -0.7779
vn -0.3568 -0.0000 -0.9342
vn -0.1947 0.2680 -0.9435
vn -0.1947 -0.2680 -0.9435
vn 0.3151 0.5831 -0.7488
vn 0.5774 0.5773 -0.5774
vn 0.5831 0.7488 -0.3151
vn 0.7488 0.3151 -0.5831
vn 0.5831 -0.7488 0.3151
vn 0.5774 -0.5773 0.5774
vn 0.7488 -0.3151 0.5831
vn 0.3151 -0.5831 0.7488
vn 0.2680 -0.9435 0.1947
vn -0.0000 -0.9342 0.3568
vn -0.0000 -0.7779 0.6284
vn -0.2680 -0.9435 0.1947
vn 0.2680 -0.9435 -0.1947
vn -0.0000 -0.9342 -0.3568
vn -0.2680 -0.9435 -0.1947
vn -0.0000 -0.7779 -0.6284
vn 0.5831 -0.7488 -0.3151
vn 0.5774 -0.5773 -0.5774
vn 0.3151 -0.5831 -0.7488
vn 0.7488 -0.3151 -0.5831
vn 0.7779 -0.6284 -0.0000
vn 0.9342 -0.3568 -0.0000
vn 0.9435 -0.1947 -0.2680
vn 0.9435 -0.1947 0.2680
vn 0.1947 -0.2680 0.9435
vn 0.3568 -0.0000 0.9342
vn 0.6284 -0.0000 0.7779
vn 0.1947 0.2680 0.9435
vn -0.5831 -0.7488 0.3151
vn -0.5774 -0.5773 0.5774
vn -0.3151 -0.5831 0.7488
vn -0.7488 -0.3151 0.5831
vn -0.3151 -0.5831 -0.7488
vn -0.5774 -0.5774 -0.5773
vn -0.5831 -0.7488 -0.3151
vn -0.7488 -0.3151 -0.5831
vn 0.6284 -0.0000 -0.7779
vn 0.3568 -0.0000 -0.9342
vn 0.1947 -0.2680 -0.9435
vn 0.1947 0.2680 -0.9435
vn 0.9435 0.1947 0.2680
vn 0.9342 0.3568 -0.0000
vn 0.9435 0.1947 -0.2680
vn 0.7779 0.6284 -0.0000
vt 0.000000 1.000000
vt 0.100000 0.000000
vt 0.000000 0.000000
vt 0.100000 1.000000
vt 0.200000 0.000000
vt 0.200000 1.000000
vt 0.300000 0.000000
vt 0.300000 1.000000
vt 0.400000 0.000000
vt 0.400000 1.000000
vt 0.500000 0.000000
vt 0.500000 1.000000
vt 0.600000 0.000000
vt 0.600000 1.000000
vt 0.700000 0.000000
vt 0.700000 1.000000
vt 0.800000 0.000000
vt 0.800000 1.000000
vt 0.900000 0.000000
vt 0.900000 1.000000
vt 1.000000 0.000000
vt 1.000000 1.000000
vt 0.904508 0.206107
vt 0.500000 0.500000
vt 1.000000 0.500000
vt 0.654508 0.024472
vt 0.345491 0.024472
vt 0.095492 0.206107
vt 0.000000 0.500000
vt 0.095492 0.793893
vt 0.345491 0.975528
vt 0.654508 0.975528
vt 0.904508 0.793893
vt 0.166667 0.000000
vt 0.166667 1.000000
vt 0.333333 0.000000
vt 0.333333 1.000000
vt 0.666667 0.000000
vt 0.666667 1.000000
vt 0.833333 0.000000
vt 0.833333 1.000000
vt 0.750000 0.066987
vt 0.250000 0.066987
vt 0.250000 0.933013
vt 0.750000 0.933013
vt 0.661896 0.200000
vt 0.500000 0.176208
vt 0.558070 0.333333
vt 0.661896 0.400000
vt 0.588104 0.500000
vt 0.750000 0.323792
vt 0.585891 0.000000
vt 0.838104 0.200000
vt 0.750000 0.000000
vt 1.000000 0.176208
vt 0.914109 0.000000
vt 0.338104 0.200000
vt 0.414109 0.000000
vt 0.161896 0.200000
vt 0.250000 0.000000
vt 0.085891 0.000000
vt 0.000000 0.176208
vt 0.250000 0.323792
vt 0.441930 0.333333
vt 0.338104 0.400000
vt 0.411896 0.500000
vt 0.941930 0.333333
vt 0.838104 0.400000
vt 0.911896 0.500000
vt 0.750000 0.500000
vt 0.661896 0.600000
vt 0.750000 0.676208
vt 0.558070 0.666667
vt 0.441930 0.666667
vt 0.500000 0.823792
vt 0.338104 0.600000
vt 0.250000 0.500000
vt 0.250000 0.676208
vt 0.161896 0.400000
vt 0.058070 0.333333
vt 0.088104 0.500000
vt 0.838104 0.800000
vt 1.000000 0.823792
vt 0.941930 0.666667
vt 0.838104 0.600000
vt 0.914109 1.000000
vt 0.661896 0.800000
vt 0.750000 1.000000
vt 0.585891 1.000000
vt 0.161896 0.800000
vt 0.000000 0.823792
vt 0.085891 1.000000
vt 0.338104 0.800000
vt 0.250000 1.000000
vt 0.414109 1.000000
vt 0.058070 0.666667
vt 0.161896 0.600000
vt 1.058070 0.666667
vt 1.058070 0.333333
s 0
usemtl Material_5
f 2/1/1 3/2/1 1/3/1
f 5/4/1 6/2/1 4/1/1
f 8/4/2 9/5/2 7/2/2
f 11/6/2 12/5/2 10/4/2
f 14/6/3 15/7/3 13/5/3
f 17/8/3 18/7/3 16/6/3
f 20/8/4 21/9/4 19/7/4
f 23/10/4 24/9/4 22/8/4
f 26/10/5 27/11/5 25/9/5
f 29/12/5 30/11/5 28/10/5
f 32/12/6 33/13/6 31/11/6
f 35/14/6 36/13/6 34/12/6
f 38/14/7 39/15/7 37/13/7
f 41/16/7 42/15/7 40/14/7
f 44/16/8 45/17/8 43/15/8
f 47/18/8 48/17/8 46/16/8
f 50/18/9 51/19/9 49/17/9
f 53/20/9 54/19/9 52/18/9
f 56/20/10 57/21/10 55/19/10
f 59/22/10 60/21/10 58/20/10
f 62/23/11 63/24/11 61/25/11
f 65/26/11 66/24/11 64/23/11
f 68/27/11 69/24/11 67/26/11
f 71/28/11 72/24/11 70/27/11
f 74/29/11 75/24/11 73/28/11
f 77/30/11 78/24/11 76/29/11
f 80/31/11 81/24/11 79/30/11
f 83/32/11 84/24/11 82/31/11
f 86/33/11 87/24/11 85/32/11
f 89/25/11 90/24/11 88/33/11
f 92/25/12 93/24/12 91/33/12
f 95/33/12 96/24/12 94/32/12
f 98/32/12 99/24/12 97/31/12
f 101/31/12 102/24/12 100/30/12
f 104/30/12 105/24/12 103/29/12
f 107/29/12 108/24/12 106/28/12
f 110/28/12 111/24/12 109/27/12
f 113/27/12 114/24/12 112/26/12
f 116/26/12 117/24/12 115/23/12
f 119/23/12 120/24/12 118/25/12
usemtl Material_2
f 122/1/13 123/2/13 121/3/13
f 125/4/13 126/2/13 124/1/13
f 128/4/14 129/5/14 127/2/14
f 131/6/14 132/5/14 130/4/14
f 134/6/15 135/7/15 133/5/15
f 137/8/15 138/7/15 136/6/15
f 140/8/16 141/9/16 139/7/16
f 143/10/16 144/9/16 142/8/16
f 146/10/17 147/11/17 145/9/17
f 149/12/17 150/11/17 148/10/17
f 152/12/18 153/13/18 151/11/18
f 155/14/18 156/13/18 154/12/18
f 158/14/19 159/15/19 157/13/19
f 161/16/19 162/15/19 160/14/19
f 164/16/20 165/17/20 163/15/20
f 167/18/20 168/17/20 166/16/20
f 170/18/21 171/19/21 169/17/21
f 173/20/21 174/19/21 172/18/21
f 176/20/22 177/21/22 175/19/22
f 179/22/22 180/21/22 178/20/22
f 182/23/11 183/24/11 181/25/11
f 185/26/11 186/24/11 184/23/11
f 188/27/11 189/24/11 187/26/11
f 191/28/11 192/24/11 190/27/11
f 194/29/11 195/24/11 193/28/11
f 197/30/11 198/24/11 196/29/11
f 200/31/11 201/24/11 199/30/11
f 203/32/11 204/24/11 202/31/11
f 206/33/11 207/24/11 205/32/11
f 209/25/11 210/24/11 208/33/11
f 212/25/12 213/24/12 211/33/12
f 215/33/12 216/24/12 214/32/12
f 218/32/12 219/24/12 217/31/12
f 221/31/12 222/24/12 220/30/12
f 224/30/12 225/24/12 223/29/12
f 227/29/12 228/24/12 226/28/12
f 230/28/12 231/24/12 229/27/12
f 233/27/12 234/24/12 232/26/12
f 236/26/12 237/24/12 235/23/12
f 239/23/12 240/24/12 238/25/12
f 242/1/23 243/34/23 241/3/23
f 245/35/23 246/34/23 244/1/23
f 248/35/11 249/36/11 247/34/11
f 251/37/11 252/36/11 250/35/11
f 254/37/24 255/11/24 253/36/24
f 257/12/24 258/11/24 256/37/24
f 260/12/25 261/38/25 259/11/25
f 263/39/25 264/38/25 262/12/25
f 266/39/12 267/40/12 265/38/12
f 269/41/12 270/40/12 268/39/12
f 272/41/26 273/21/26 271/40/26
f 275/22/26 276/21/26 274/41/26
f 278/42/20 279/24/20 277/25/20
f 281/43/20 282/24/20 280/42/20
f 284/29/20 285/24/20 283/43/20
f 287/44/20 288/24/20 286/29/20
f 290/45/20 291/24/20 289/44/20
f 293/25/20 294/24/20 292/45/20
f 296/25/15 297/24/15 295/45/15
f 299/45/15 300/24/15 298/44/15
f 302/44/15 303/24/15 301/29/15
f 305/29/15 306/24/15 304/43/15
f 308/43/15 309/24/15 307/42/15
f 311/42/15 312/24/15 310/25/15
usemtl Material_3
f 314/1/15 315/21/15 313/3/15
f 317/22/15 318/21/15 316/1/15
f 320/1/20 321/21/20 319/3/20
f 323/22/20 324/21/20 322/1/20
f 326/1/11 327/21/11 325/3/11
f 329/22/11 330/21/11 328/1/11
f 332/1/12 333/21/12 331/3/12
f 335/22/12 336/21/12 334/1/12
f 338/1/27 339/21/27 337/3/27
f 341/22/27 342/21/27 340/1/27
f 344/1/28 345/21/28 343/3/28
f 347/22/28 348/21/28 346/1/28
f 350/1/15 351/21/15 349/3/15
f 353/22/15 354/21/15 352/1/15
f 356/1/20 357/21/20 355/3/20
f 359/22/20 360/21/20 358/1/20
f 362/1/11 363/21/11 361/3/11
f 365/22/11 366/21/11 364/1/11
f 368/1/12 369/21/12 367/3/12
f 371/22/12 372/21/12 370/1/12
f 374/1/27 375/21/27 373/3/27
f 377/22/27 378/21/27 376/1/27
f 380/1/28 381/21/28 379/3/28
f 383/22/28 384/21/28 382/1/28
usemtl Material_8
f 386/46/29 387/47/29 385/48/29
f 389/49/30 390/46/30 388/48/30
f 392/49/31 393/48/31 391/50/31
f 395/51/32 396/46/32 394/49/32
f 398/52/33 399/47/33 397/46/33
f 401/53/34 402/54/34 400/46/34
f 404/53/35 405/46/35 403/51/35
f 407/55/36 408/56/36 406/53/36
f 410/57/37 411/47/37 409/58/37
f 413/59/38 414/57/38 412/60/38
f 416/59/39 417/61/39 415/62/39
f 419/63/40 420/57/40 418/59/40
f 422/64/41 423/47/41 421/57/41
f 425/65/42 426/64/42 424/57/42
f 428/65/43 429/57/43 427/63/43
f 431/66/44 432/64/44 430/65/44
f 434/48/45 435/47/45 433/64/45
f 437/24/46 438/48/46 436/64/46
f 440/24/47 441/64/47 439/66/47
f 443/50/48 444/48/48 442/24/48
f 446/67/49 447/55/49 445/53/49
f 449/68/50 450/67/50 448/53/50
s 1
f 452/68/51 453/53/51 451/51/51
s 0
f 455/69/52 456/67/52 454/68/52
f 458/70/53 459/51/53 457/49/53
f 461/71/54 462/70/54 460/49/54
f 464/71/55 465/49/55 463/50/55
f 467/72/56 468/70/56 466/71/56
f 470/73/57 471/50/57 469/24/57
f 473/74/58 474/73/58 472/24/58
f 476/74/59 477/24/59 475/66/59
s 1
f 479/75/60 480/73/60 478/74/60
s 0
f 482/76/61 483/66/61 481/65/61
f 485/77/62 486/76/62 484/65/62
f 488/77/63 489/65/63 487/63/63
f 491/78/64 492/76/64 490/77/64
f 494/79/65 495/63/65 493/59/65
f 497/80/66 498/79/66 496/59/66
f 500/80/67 501/59/67 499/62/67
f 503/81/68 504/79/68 502/80/68
f 506/82/69 507/83/69 505/84/69
f 509/85/70 510/82/70 508/84/70
f 512/85/71 513/84/71 511/69/71
f 515/72/72 516/82/72 514/85/72
f 518/86/73 519/83/73 517/82/73
f 521/87/74 522/88/74 520/82/74
f 524/87/75 525/82/75 523/72/75
s 1
f 527/75/76 528/89/76 526/87/76
s 0
f 530/90/77 531/91/77 529/92/77
f 533/93/78 534/90/78 532/94/78
f 536/93/79 537/95/79 535/75/79
f 539/78/80 540/90/80 538/93/80
f 542/96/81 543/91/81 541/90/81
f 545/97/82 546/96/82 544/90/82
f 548/97/83 549/90/83 547/78/83
f 551/81/84 552/96/84 550/97/84
f 554/84/85 555/83/85 553/98/85
f 557/25/86 558/84/86 556/98/86
f 560/29/87 561/96/87 559/81/87
f 563/69/88 564/84/88 562/25/88
f 566/70/89 567/72/89 565/85/89
f 569/68/90 570/70/90 568/85/90
f 572/68/91 573/85/91 571/69/91
f 575/51/92 576/70/92 574/68/92
f 578/73/93 579/75/93 577/87/93
f 581/71/94 582/73/94 580/87/94
f 584/71/95 585/87/95 583/72/95
f 587/50/96 588/73/96 586/71/96
f 590/76/97 591/78/97 589/93/97
f 593/74/98 594/76/98 592/93/98
f 596/74/99 597/93/99 595/75/99
f 599/66/100 600/76/100 598/74/100
f 602/79/101 603/81/101 601/97/101
f 605/77/102 606/79/102 604/97/102
f 608/77/103 609/97/103 607/78/103
f 611/63/104 612/79/104 610/77/104
f 614/67/105 615/69/105 613/25/105
f 617/99/106 618/67/106 616/25/106
f 620/80/107 621/29/107 619/81/107
f 623/55/108 624/67/108 622/99/108
