# Blender 5.2.1 LTS
# www.blender.org
mtllib prop_market_stall.mtl
o MilitaryStructure11
v 1.368461 0.960000 0.424047
v 1.368461 0.720000 0.424047
v 1.076617 0.960000 -0.945197
v 1.368461 0.720000 0.424047
v 1.076617 0.720000 -0.945197
v 1.076617 0.960000 -0.945197
v -1.368461 0.960000 -0.424047
v -1.368461 0.720000 -0.424047
v -1.076617 0.960000 0.945197
v -1.368461 0.720000 -0.424047
v -1.076617 0.720000 0.945197
v -1.076617 0.960000 0.945197
v -1.368461 0.960000 -0.424047
v -1.076617 0.960000 0.945197
v 1.076617 0.960000 -0.945197
v -1.076617 0.960000 0.945197
v 1.368461 0.960000 0.424047
v 1.076617 0.960000 -0.945197
v -1.076617 0.720000 0.945197
v -1.368461 0.720000 -0.424047
v 1.368461 0.720000 0.424047
v -1.368461 0.720000 -0.424047
v 1.076617 0.720000 -0.945197
v 1.368461 0.720000 0.424047
v -1.076617 0.960000 0.945197
v -1.076617 0.720000 0.945197
v 1.368461 0.960000 0.424047
v -1.076617 0.720000 0.945197
v 1.368461 0.720000 0.424047
v 1.368461 0.960000 0.424047
v 1.076617 0.960000 -0.945197
v 1.076617 0.720000 -0.945197
v -1.368461 0.960000 -0.424047
v 1.076617 0.720000 -0.945197
v -1.368461 0.720000 -0.424047
v -1.368461 0.960000 -0.424047
v -0.291638 1.370000 0.358675
v -0.291638 0.990000 0.358675
v -0.391699 1.370000 -0.110780
v -0.291638 0.990000 0.358675
v -0.391699 0.990000 -0.110780
v -0.391699 1.370000 -0.110780
v -0.861153 1.370000 -0.010720
v -0.861153 0.990000 -0.010720
v -0.761093 1.370000 0.458735
v -0.861153 0.990000 -0.010720
v -0.761093 0.990000 0.458735
v -0.761093 1.370000 0.458735
v -0.861153 1.370000 -0.010720
v -0.761093 1.370000 0.458735
v -0.391699 1.370000 -0.110780
v -0.761093 1.370000 0.458735
v -0.291638 1.370000 0.358675
v -0.391699 1.370000 -0.110780
v -0.761093 0.990000 0.458735
v -0.861153 0.990000 -0.010720
v -0.291638 0.990000 0.358675
v -0.861153 0.990000 -0.010720
v -0.391699 0.990000 -0.110780
v -0.291638 0.990000 0.358675
v -0.761093 1.370000 0.458735
v -0.761093 0.990000 0.458735
v -0.291638 1.370000 0.358675
v -0.761093 0.990000 0.458735
v -0.291638 0.990000 0.358675
v -0.291638 1.370000 0.358675
v -0.391699 1.370000 -0.110780
v -0.391699 0.990000 -0.110780
v -0.861153 1.370000 -0.010720
v -0.391699 0.990000 -0.110780
v -0.861153 0.990000 -0.010720
v -0.861153 1.370000 -0.010720
v 0.295181 1.370000 0.233599
v 0.295181 0.990000 0.233599
v 0.195120 1.370000 -0.235856
v 0.295181 0.990000 0.233599
v 0.195120 0.990000 -0.235856
v 0.195120 1.370000 -0.235856
v -0.274335 1.370000 -0.135796
v -0.274335 0.990000 -0.135796
v -0.174274 1.370000 0.333659
v -0.274335 0.990000 -0.135796
v -0.174274 0.990000 0.333659
v -0.174274 1.370000 0.333659
v -0.274335 1.370000 -0.135796
v -0.174274 1.370000 0.333659
v 0.195120 1.370000 -0.235856
v -0.174274 1.370000 0.333659
v 0.295181 1.370000 0.233599
v 0.195120 1.370000 -0.235856
v -0.174274 0.990000 0.333659
v -0.274335 0.990000 -0.135796
v 0.295181 0.990000 0.233599
v -0.274335 0.990000 -0.135796
v 0.195120 0.990000 -0.235856
v 0.295181 0.990000 0.233599
v -0.174274 1.370000 0.333659
v -0.174274 0.990000 0.333659
v 0.295181 1.370000 0.233599
v -0.174274 0.990000 0.333659
v 0.295181 0.990000 0.233599
v 0.295181 1.370000 0.233599
v 0.195120 1.370000 -0.235856
v 0.195120 0.990000 -0.235856
v -0.274335 1.370000 -0.135796
v 0.195120 0.990000 -0.235856
v -0.274335 0.990000 -0.135796
v -0.274335 1.370000 -0.135796
v 0.881999 1.370000 0.108523
v 0.881999 0.990000 0.108523
v 0.781939 1.370000 -0.360932
v 0.881999 0.990000 0.108523
v 0.781939 0.990000 -0.360932
v 0.781939 1.370000 -0.360932
v 0.312484 1.370000 -0.260871
v 0.312484 0.990000 -0.260871
v 0.412544 1.370000 0.208583
v 0.312484 0.990000 -0.260871
v 0.412544 0.990000 0.208583
v 0.412544 1.370000 0.208583
v 0.312484 1.370000 -0.260871
v 0.412544 1.370000 0.208583
v 0.781939 1.370000 -0.360932
v 0.412544 1.370000 0.208583
v 0.881999 1.370000 0.108523
v 0.781939 1.370000 -0.360932
v 0.412544 0.990000 0.208583
v 0.312484 0.990000 -0.260871
v 0.881999 0.990000 0.108523
v 0.312484 0.990000 -0.260871
v 0.781939 0.990000 -0.360932
v 0.881999 0.990000 0.108523
v 0.412544 1.370000 0.208583
v 0.412544 0.990000 0.208583
v 0.881999 1.370000 0.108523
v 0.412544 0.990000 0.208583
v 0.881999 0.990000 0.108523
v 0.881999 1.370000 0.108523
v 0.781939 1.370000 -0.360932
v 0.781939 0.990000 -0.360932
v 0.312484 1.370000 -0.260871
v 0.781939 0.990000 -0.360932
v 0.312484 0.990000 -0.260871
v 0.312484 1.370000 -0.260871
v -1.097652 2.250000 -0.256826
v -1.097652 0.150000 -0.256826
v -1.122668 2.250000 -0.374189
v -1.097652 0.150000 -0.256826
v -1.122668 0.150000 -0.374189
v -1.122668 2.250000 -0.374189
v -1.240031 2.250000 -0.349174
v -1.240031 0.150000 -0.349174
v -1.215016 2.250000 -0.231811
v -1.240031 0.150000 -0.349174
v -1.215016 0.150000 -0.231811
v -1.215016 2.250000 -0.231811
v -1.240031 2.250000 -0.349174
v -1.215016 2.250000 -0.231811
v -1.122668 2.250000 -0.374189
v -1.215016 2.250000 -0.231811
v -1.097652 2.250000 -0.256826
v -1.122668 2.250000 -0.374189
v -1.215016 0.150000 -0.231811
v -1.240031 0.150000 -0.349174
v -1.097652 0.150000 -0.256826
v -1.240031 0.150000 -0.349174
v -1.122668 0.150000 -0.374189
v -1.097652 0.150000 -0.256826
v -1.215016 2.250000 -0.231811
v -1.215016 0.150000 -0.231811
v -1.097652 2.250000 -0.256826
v -1.215016 0.150000 -0.231811
v -1.097652 0.150000 -0.256826
v -1.097652 2.250000 -0.256826
v -1.122668 2.250000 -0.374189
v -1.122668 0.150000 -0.374189
v -1.240031 2.250000 -0.349174
v -1.122668 0.150000 -0.374189
v -1.240031 0.150000 -0.349174
v -1.240031 2.250000 -0.349174
v -0.872516 2.250000 0.799448
v -0.872516 0.150000 0.799448
v -0.897531 2.250000 0.682084
v -0.872516 0.150000 0.799448
v -0.897531 0.150000 0.682084
v -0.897531 2.250000 0.682084
v -1.014894 2.250000 0.707099
v -1.014894 0.150000 0.707099
v -0.989879 2.250000 0.824463
v -1.014894 0.150000 0.707099
v -0.989879 0.150000 0.824463
v -0.989879 2.250000 0.824463
v -1.014894 2.250000 0.707099
v -0.989879 2.250000 0.824463
v -0.897531 2.250000 0.682084
v -0.989879 2.250000 0.824463
v -0.872516 2.250000 0.799448
v -0.897531 2.250000 0.682084
v -0.989879 0.150000 0.824463
v -1.014894 0.150000 0.707099
v -0.872516 0.150000 0.799448
v -1.014894 0.150000 0.707099
v -0.897531 0.150000 0.682084
v -0.872516 0.150000 0.799448
v -0.989879 2.250000 0.824463
v -0.989879 0.150000 0.824463
v -0.872516 2.250000 0.799448
v -0.989879 0.150000 0.824463
v -0.872516 0.150000 0.799448
v -0.872516 2.250000 0.799448
v -0.897531 2.250000 0.682084
v -0.897531 0.150000 0.682084
v -1.014894 2.250000 0.707099
v -0.897531 0.150000 0.682084
v -1.014894 0.150000 0.707099
v -1.014894 2.250000 0.707099
v 1.014894 2.250000 -0.707099
v 1.014894 0.150000 -0.707099
v 0.989879 2.250000 -0.824463
v 1.014894 0.150000 -0.707099
v 0.989879 0.150000 -0.824463
v 0.989879 2.250000 -0.824463
v 0.872516 2.250000 -0.799448
v 0.872516 0.150000 -0.799448
v 0.897531 2.250000 -0.682084
v 0.872516 0.150000 -0.799448
v 0.897531 0.150000 -0.682084
v 0.897531 2.250000 -0.682084
v 0.872516 2.250000 -0.799448
v 0.897531 2.250000 -0.682084
v 0.989879 2.250000 -0.824463
v 0.897531 2.250000 -0.682084
v 1.014894 2.250000 -0.707099
v 0.989879 2.250000 -0.824463
v 0.897531 0.150000 -0.682084
v 0.872516 0.150000 -0.799448
v 1.014894 0.150000 -0.707099
v 0.872516 0.150000 -0.799448
v 0.989879 0.150000 -0.824463
v 1.014894 0.150000 -0.707099
v 0.897531 2.250000 -0.682084
v 0.897531 0.150000 -0.682084
v 1.014894 2.250000 -0.707099
v 0.897531 0.150000 -0.682084
v 1.014894 0.150000 -0.707099
v 1.014894 2.250000 -0.707099
v 0.989879 2.250000 -0.824463
v 0.989879 0.150000 -0.824463
v 0.872516 2.250000 -0.799448
v 0.989879 0.150000 -0.824463
v 0.872516 0.150000 -0.799448
v 0.872516 2.250000 -0.799448
v 1.240031 2.250000 0.349174
v 1.240031 0.150000 0.349174
v 1.215016 2.250000 0.231811
v 1.240031 0.150000 0.349174
v 1.215016 0.150000 0.231811
v 1.215016 2.250000 0.231811
v 1.097652 2.250000 0.256826
v 1.097652 0.150000 0.256826
v 1.122668 2.250000 0.374189
v 1.097652 0.150000 0.256826
v 1.122668 0.150000 0.374189
v 1.122668 2.250000 0.374189
v 1.097652 2.250000 0.256826
v 1.122668 2.250000 0.374189
v 1.215016 2.250000 0.231811
v 1.122668 2.250000 0.374189
v 1.240031 2.250000 0.349174
v 1.215016 2.250000 0.231811
v 1.122668 0.150000 0.374189
v 1.097652 0.150000 0.256826
v 1.240031 0.150000 0.349174
v 1.097652 0.150000 0.256826
v 1.215016 0.150000 0.231811
v 1.240031 0.150000 0.349174
v 1.122668 2.250000 0.374189
v 1.122668 0.150000 0.374189
v 1.240031 2.250000 0.349174
v 1.122668 0.150000 0.374189
v 1.240031 0.150000 0.349174
v 1.240031 2.250000 0.349174
v 1.215016 2.250000 0.231811
v 1.215016 0.150000 0.231811
v 1.097652 2.250000 0.256826
v 1.215016 0.150000 0.231811
v 1.097652 0.150000 0.256826
v 1.097652 2.250000 0.256826
v 1.588181 2.273458 0.510135
v 1.592875 2.113530 0.509135
v 1.242138 2.273458 -1.113396
v 1.592875 2.113530 0.509135
v 1.246832 2.113530 -1.114397
v 1.242138 2.273458 -1.113396
v -1.592875 2.186471 -0.509135
v -1.588181 2.026543 -0.510135
v -1.246832 2.186471 1.114397
v -1.588181 2.026543 -0.510135
v -1.242138 2.026543 1.113396
v -1.246832 2.186471 1.114397
v -1.592875 2.186471 -0.509135
v -1.246832 2.186471 1.114397
v 1.242138 2.273458 -1.113396
v -1.246832 2.186471 1.114397
v 1.588181 2.273458 0.510135
v 1.242138 2.273458 -1.113396
v -1.242138 2.026543 1.113396
v -1.588181 2.026543 -0.510135
v 1.592875 2.113530 0.509135
v -1.588181 2.026543 -0.510135
v 1.246832 2.113530 -1.114397
v 1.592875 2.113530 0.509135
v -1.246832 2.186471 1.114397
v -1.242138 2.026543 1.113396
v 1.588181 2.273458 0.510135
v -1.242138 2.026543 1.113396
v 1.592875 2.113530 0.509135
v 1.588181 2.273458 0.510135
v 1.242138 2.273458 -1.113396
v 1.246832 2.113530 -1.114397
v -1.592875 2.186471 -0.509135
v 1.246832 2.113530 -1.114397
v -1.588181 2.026543 -0.510135
v -1.592875 2.186471 -0.509135
vn 0.9780 -0.0000 -0.2085
vn -0.9780 -0.0000 0.2085
vn -0.0000 1.0000 -0.0000
vn -0.0000 -1.0000 -0.0000
vn 0.2085 -0.0000 0.9780
vn -0.2085 -0.0000 -0.9780
vn 0.9776 0.0300 -0.2084
vn -0.9776 -0.0300 0.2084
vn -0.0293 0.9995 0.0063
vn 0.0293 -0.9996 -0.0063
vt 0.000000 1.000000
vt 1.000000 0.000000
vt 0.000000 0.000000
vt 1.000000 1.000000
s 0
usemtl Material_3
f 2/1/1 3/2/1 1/3/1
f 5/4/1 6/2/1 4/1/1
f 8/1/2 9/2/2 7/3/2
f 11/4/2 12/2/2 10/1/2
f 14/1/3 15/2/3 13/3/3
f 17/4/3 18/2/3 16/1/3
f 20/1/4 21/2/4 19/3/4
f 23/4/4 24/2/4 22/1/4
f 26/1/5 27/2/5 25/3/5
f 29/4/5 30/2/5 28/1/5
f 32/1/6 33/2/6 31/3/6
f 35/4/6 36/2/6 34/1/6
f 38/1/1 39/2/1 37/3/1
f 41/4/1 42/2/1 40/1/1
f 44/1/2 45/2/2 43/3/2
f 47/4/2 48/2/2 46/1/2
f 50/1/3 51/2/3 49/3/3
f 53/4/3 54/2/3 52/1/3
f 56/1/4 57/2/4 55/3/4
f 59/4/4 60/2/4 58/1/4
f 62/1/5 63/2/5 61/3/5
f 65/4/5 66/2/5 64/1/5
f 68/1/6 69/2/6 67/3/6
f 71/4/6 72/2/6 70/1/6
f 74/1/1 75/2/1 73/3/1
f 77/4/1 78/2/1 76/1/1
f 80/1/2 81/2/2 79/3/2
f 83/4/2 84/2/2 82/1/2
f 86/1/3 87/2/3 85/3/3
f 89/4/3 90/2/3 88/1/3
f 92/1/4 93/2/4 91/3/4
f 95/4/4 96/2/4 94/1/4
f 98/1/5 99/2/5 97/3/5
f 101/4/5 102/2/5 100/1/5
f 104/1/6 105/2/6 103/3/6
f 107/4/6 108/2/6 106/1/6
f 110/1/1 111/2/1 109/3/1
f 113/4/1 114/2/1 112/1/1
f 116/1/2 117/2/2 115/3/2
f 119/4/2 120/2/2 118/1/2
f 122/1/3 123/2/3 121/3/3
f 125/4/3 126/2/3 124/1/3
f 128/1/4 129/2/4 127/3/4
f 131/4/4 132/2/4 130/1/4
f 134/1/5 135/2/5 133/3/5
f 137/4/5 138/2/5 136/1/5
f 140/1/6 141/2/6 139/3/6
f 143/4/6 144/2/6 142/1/6
usemtl Material_2
f 146/1/1 147/2/1 145/3/1
f 149/4/1 150/2/1 148/1/1
f 152/1/2 153/2/2 151/3/2
f 155/4/2 156/2/2 154/1/2
f 158/1/3 159/2/3 157/3/3
f 161/4/3 162/2/3 160/1/3
f 164/1/4 165/2/4 163/3/4
f 167/4/4 168/2/4 166/1/4
f 170/1/5 171/2/5 169/3/5
f 173/4/5 174/2/5 172/1/5
f 176/1/6 177/2/6 175/3/6
f 179/4/6 180/2/6 178/1/6
f 182/1/1 183/2/1 181/3/1
f 185/4/1 186/2/1 184/1/1
f 188/1/2 189/2/2 187/3/2
f 191/4/2 192/2/2 190/1/2
f 194/1/3 195/2/3 193/3/3
f 197/4/3 198/2/3 196/1/3
f 200/1/4 201/2/4 199/3/4
f 203/4/4 204/2/4 202/1/4
f 206/1/5 207/2/5 205/3/5
f 209/4/5 210/2/5 208/1/5
f 212/1/6 213/2/6 211/3/6
f 215/4/6 216/2/6 214/1/6
f 218/1/1 219/2/1 217/3/1
f 221/4/1 222/2/1 220/1/1
f 224/1/2 225/2/2 223/3/2
f 227/4/2 228/2/2 226/1/2
f 230/1/3 231/2/3 229/3/3
f 233/4/3 234/2/3 232/1/3
f 236/1/4 237/2/4 235/3/4
f 239/4/4 240/2/4 238/1/4
f 242/1/5 243/2/5 241/3/5
f 245/4/5 246/2/5 244/1/5
f 248/1/6 249/2/6 247/3/6
f 251/4/6 252/2/6 250/1/6
f 254/1/1 255/2/1 253/3/1
f 257/4/1 258/2/1 256/1/1
f 260/1/2 261/2/2 259/3/2
f 263/4/2 264/2/2 262/1/2
f 266/1/3 267/2/3 265/3/3
f 269/4/3 270/2/3 268/1/3
f 272/1/4 273/2/4 271/3/4
f 275/4/4 276/2/4 274/1/4
f 278/1/5 279/2/5 277/3/5
f 281/4/5 282/2/5 280/1/5
f 284/1/6 285/2/6 283/3/6
f 287/4/6 288/2/6 286/1/6
usemtl Material_9
f 290/1/7 291/2/7 289/3/7
f 293/4/7 294/2/7 292/1/7
f 296/1/8 297/2/8 295/3/8
f 299/4/8 300/2/8 298/1/8
f 302/1/9 303/2/9 301/3/9
f 305/4/9 306/2/9 304/1/9
f 308/1/10 309/2/10 307/3/10
f 311/4/10 312/2/10 310/1/10
f 314/1/5 315/2/5 313/3/5
f 317/4/5 318/2/5 316/1/5
f 320/1/6 321/2/6 319/3/6
f 323/4/6 324/2/6 322/1/6
