# Blender 5.2.1 LTS
# www.blender.org
mtllib birchTrees.mtl
o birchTrees
v 0.000000 0.000000 -0.290000
v 0.000000 6.300000 -0.150000
v 0.205061 0.000000 -0.205061
v 0.106066 6.300000 -0.106066
v 0.290000 0.000000 0.000000
v 0.150000 6.300000 0.000000
v 0.205061 0.000000 0.205061
v 0.106066 6.300000 0.106066
v 0.000000 0.000000 0.290000
v 0.000000 6.300000 0.150000
v -0.205061 0.000000 0.205061
v -0.106066 6.300000 0.106066
v -0.290000 0.000000 0.000000
v -0.150000 6.300000 0.000000
v -0.205061 0.000000 -0.205061
v -0.106066 6.300000 -0.106066
v 0.276000 0.622500 0.037500
v 0.276000 0.677500 0.037500
v 0.276000 0.622500 -0.037500
v 0.276000 0.677500 -0.037500
v 0.294000 0.622500 0.037500
v 0.294000 0.677500 0.037500
v 0.294000 0.622500 -0.037500
v 0.294000 0.677500 -0.037500
v -0.221072 1.393500 -0.152896
v -0.221072 1.466500 -0.152896
v -0.221072 1.393500 -0.227896
v -0.221072 1.466500 -0.227896
v -0.203072 1.393500 -0.152896
v -0.203072 1.466500 -0.152896
v -0.203072 1.393500 -0.227896
v -0.203072 1.466500 -0.227896
v 0.021610 2.164500 0.320851
v 0.021610 2.255500 0.320851
v 0.021610 2.164500 0.245851
v 0.021610 2.255500 0.245851
v 0.039610 2.164500 0.320851
v 0.039610 2.255500 0.320851
v 0.039610 2.164500 0.245851
v 0.039610 2.255500 0.245851
v 0.157517 2.962500 -0.193794
v 0.157517 3.017500 -0.193794
v 0.157517 2.962500 -0.268794
v 0.157517 3.017500 -0.268794
v 0.175517 2.962500 -0.193794
v 0.175517 3.017500 -0.193794
v 0.175517 2.962500 -0.268794
v 0.175517 3.017500 -0.268794
v -0.287425 3.733500 0.098366
v -0.287425 3.806500 0.098366
v -0.287425 3.733500 0.023366
v -0.287425 3.806500 0.023366
v -0.269425 3.733500 0.098366
v -0.269425 3.806500 0.098366
v -0.269425 3.733500 0.023366
v -0.269425 3.806500 0.023366
v 0.238841 4.504500 0.178212
v 0.238841 4.595500 0.178212
v 0.238841 4.504500 0.103212
v 0.238841 4.595500 0.103212
v 0.256841 4.504500 0.178212
v 0.256841 4.595500 0.178212
v 0.256841 4.504500 0.103212
v 0.256841 4.595500 0.103212
v -0.099418 0.622500 -0.232777
v -0.099418 0.677500 -0.232777
v -0.099418 0.622500 -0.307777
v -0.099418 0.677500 -0.307777
v -0.081418 0.622500 -0.232777
v -0.081418 0.677500 -0.232777
v -0.081418 0.622500 -0.307777
v -0.081418 0.677500 -0.307777
v -0.122279 1.393500 0.299020
v -0.122279 1.466500 0.299020
v -0.122279 1.393500 0.224020
v -0.122279 1.466500 0.224020
v -0.104279 1.393500 0.299020
v -0.104279 1.466500 0.299020
v -0.104279 1.393500 0.224020
v -0.104279 1.466500 0.224020
v 0.250002 2.164500 -0.081423
v 0.250002 2.255500 -0.081423
v 0.250002 2.164500 -0.156423
v 0.250002 2.255500 -0.156423
v 0.268002 2.164500 -0.081423
v 0.268002 2.255500 -0.081423
v 0.268002 2.164500 -0.156423
v 0.268002 2.255500 -0.156423
v -0.281174 2.962500 -0.047036
v -0.281174 3.017500 -0.047036
v -0.281174 2.962500 -0.122036
v -0.281174 3.017500 -0.122036
v -0.263174 2.962500 -0.047036
v -0.263174 3.017500 -0.047036
v -0.263174 2.962500 -0.122036
v -0.263174 3.017500 -0.122036
v 0.002433 3.093441 -0.129812
v -1.548638 4.896327 -0.192695
v 0.086583 3.170090 -0.067013
v -1.501513 4.939250 -0.157527
v 0.084150 3.176649 0.062799
v -1.502876 4.942924 -0.084833
v -0.002433 3.106559 0.129812
v -1.551363 4.903673 -0.047305
v -0.086583 3.029910 0.067013
v -1.598487 4.860749 -0.082473
v -0.084150 3.023351 -0.062799
v -1.597124 4.857077 -0.155167
v -1.550000 3.980000 -0.120000
v -0.667208 4.488563 0.447778
v -1.887190 4.488563 0.798691
v -2.641198 4.488563 -0.120000
v -1.887190 4.488563 -1.038691
v -0.667208 4.488563 -0.687778
v -1.212810 5.311438 0.798691
v -2.432792 5.311438 0.447778
v -2.432792 5.311438 -0.687778
v -1.212810 5.311438 -1.038691
v -0.458802 5.311438 -0.120000
v -1.550000 5.820000 -0.120000
v 0.003352 3.809317 -0.117584
v 1.451877 5.555218 0.114153
v 0.080480 3.739662 -0.061695
v 1.495069 5.516211 0.145451
v 0.077128 3.730346 0.055889
v 1.493192 5.510994 0.211298
v -0.003352 3.790684 0.117584
v 1.448123 5.544783 0.245847
v -0.080480 3.860338 0.061695
v 1.404931 5.583789 0.214549
v -0.077128 3.869655 -0.055889
v 1.406808 5.589007 0.148702
v 1.450000 4.630000 0.180000
v 2.332792 5.138562 0.747778
v 1.112810 5.138562 1.098691
v 0.358802 5.138562 0.180000
v 1.112810 5.138562 -0.738691
v 2.332792 5.138562 -0.387778
v 1.787190 5.961438 1.098691
v 0.567208 5.961438 0.747778
v 0.567208 5.961438 -0.387778
v 1.787190 5.961438 -0.738691
v 2.541198 5.961438 0.180000
v 1.450000 6.470000 0.180000
v -0.002892 4.611160 -0.105371
v -0.921620 6.256249 0.140992
v 0.078831 4.650037 -0.050181
v -0.875855 6.278021 0.171899
v 0.081723 4.638877 0.055190
v -0.874235 6.271771 0.230907
v 0.002892 4.588840 0.105371
v -0.918380 6.243751 0.259008
v -0.078830 4.549964 0.050181
v -0.964145 6.221980 0.228101
v -0.081723 4.561123 -0.055190
v -0.965765 6.228229 0.169093
v -0.920000 5.330000 0.200000
v -0.037208 5.838562 0.767778
v -1.257190 5.838562 1.118691
v -2.011199 5.838562 0.200000
v -1.257190 5.838562 -0.718691
v -0.037208 5.838562 -0.367778
v -0.582810 6.661438 1.118691
v -1.802792 6.661438 0.767778
v -1.802792 6.661438 -0.367778
v -0.582810 6.661438 -0.718691
v 0.171198 6.661438 0.200000
v -0.920000 7.170000 0.200000
v -0.002246 4.990993 -0.093541
v 0.878742 6.644956 -0.232383
v 0.070773 4.957364 -0.044825
v 0.919633 6.626123 -0.205102
v 0.073020 4.966371 0.048716
v 0.920891 6.631167 -0.152719
v 0.002246 5.009007 0.093541
v 0.881258 6.655044 -0.127617
v -0.070774 5.042636 0.044825
v 0.840367 6.673876 -0.154898
v -0.073020 5.033629 -0.048715
v 0.839109 6.668832 -0.207281
v 0.880000 5.730000 -0.180000
v 1.762792 6.238563 0.387778
v 0.542810 6.238563 0.738691
v -0.211198 6.238563 -0.180000
v 0.542810 6.238563 -1.098691
v 1.762792 6.238563 -0.747778
v 1.217190 7.061438 0.738691
v -0.002792 7.061438 0.387778
v -0.002792 7.061438 -0.747778
v 1.217190 7.061438 -1.098691
v 1.971198 7.061438 -0.180000
v 0.880000 7.570000 -0.180000
v 0.000000 6.170000 0.000000
v 0.832140 6.656451 0.536234
v -0.317843 6.656451 0.867653
v -1.028589 6.656451 0.000000
v -0.317843 6.656451 -0.867653
v 0.832140 6.656451 -0.536234
v 0.317843 7.443550 0.867653
v -0.832140 7.443550 0.536234
v -0.832140 7.443550 -0.536234
v 0.317843 7.443550 -0.867653
v 1.028589 7.443550 0.000000
v 0.000000 7.930000 0.000000
vn 0.3826 0.0205 -0.9237
vn 0.9237 0.0205 -0.3826
vn 0.9237 0.0205 0.3826
vn 0.3826 0.0205 0.9237
vn -0.3826 0.0205 0.9237
vn -0.9237 0.0205 0.3826
vn -0.0000 1.0000 -0.0000
vn -0.9237 0.0205 -0.3826
vn -0.3826 0.0205 -0.9237
vn -0.0000 -1.0000 -0.0000
vn -1.0000 -0.0000 -0.0000
vn -0.0000 -0.0000 -1.0000
vn 1.0000 -0.0000 -0.0000
vn -0.0000 -0.0000 1.0000
vn 0.3817 0.2978 -0.8750
vn 0.7445 0.6673 -0.0198
vn 0.3493 0.3852 0.8542
vn -0.4088 -0.2663 0.8729
vn -0.6517 0.7568 -0.0505
vn -0.7717 -0.6358 0.0177
vn -0.3764 -0.3537 -0.8563
vn 0.6517 -0.7568 0.0505
vn 0.1497 -0.8407 0.5203
vn 0.4992 -0.8665 -0.0000
vn -0.3991 -0.8564 0.3276
vn -0.3991 -0.8564 -0.3276
vn 0.1497 -0.8407 -0.5203
vn 0.9694 -0.2455 -0.0000
vn 0.2696 -0.2209 0.9373
vn -0.7513 -0.2352 0.6166
vn -0.7513 -0.2352 -0.6166
vn 0.2696 -0.2209 -0.9373
vn 0.7513 0.2352 0.6166
vn -0.2696 0.2209 0.9373
vn -0.9694 0.2455 -0.0000
vn -0.2696 0.2209 -0.9373
vn 0.7513 0.2352 -0.6166
vn 0.3991 0.8564 0.3276
vn -0.1497 0.8407 0.5203
vn -0.4992 0.8665 -0.0000
vn -0.1497 0.8407 -0.5203
vn 0.3991 0.8564 -0.3276
vn 0.4226 -0.2345 -0.8754
vn 0.7835 -0.6208 -0.0268
vn 0.3734 -0.3712 0.8502
vn -0.3976 0.2647 0.8786
vn 0.6360 0.7676 0.0790
vn -0.7585 0.6510 0.0300
vn -0.3484 0.4015 -0.8470
vn -0.6360 -0.7676 -0.0790
vn 0.4032 0.3517 -0.8448
vn 0.8640 0.5026 0.0295
vn 0.4505 0.1694 0.8766
vn -0.4238 -0.3148 0.8493
vn -0.4843 0.8686 0.1053
vn -0.8846 -0.4657 -0.0250
vn -0.4711 -0.1325 -0.8721
vn 0.4843 -0.8686 -0.1053
vn 0.4297 -0.3004 -0.8515
vn 0.8919 -0.4516 0.0221
vn 0.4711 -0.1345 0.8718
vn -0.4119 0.3339 0.8479
vn 0.4684 0.8783 -0.0958
vn -0.8741 0.4851 -0.0257
vn -0.4533 0.1679 -0.8754
vn -0.4684 -0.8783 0.0958
vn 0.1513 -0.8375 0.5250
vn 0.5047 -0.8633 -0.0000
vn -0.4035 -0.8532 0.3305
vn -0.4035 -0.8532 -0.3305
vn 0.1513 -0.8375 -0.5250
vn 0.9702 -0.2422 -0.0000
vn 0.2702 -0.2183 0.9377
vn -0.7525 -0.2321 0.6164
vn -0.7525 -0.2321 -0.6164
vn 0.2702 -0.2183 -0.9377
vn 0.7525 0.2321 0.6164
vn -0.2702 0.2183 0.9377
vn -0.9702 0.2422 -0.0000
vn -0.2702 0.2183 -0.9377
vn 0.7525 0.2321 -0.6164
vn 0.4035 0.8532 0.3305
vn -0.1513 0.8375 0.5250
vn -0.5047 0.8633 -0.0000
vn -0.1513 0.8375 -0.5250
vn 0.4035 0.8532 -0.3305
vn -0.6517 0.7568 -0.0504
vn 0.4226 -0.2344 -0.8754
vn 0.6360 0.7676 0.0789
vn -0.4843 0.8685 0.1053
vn 0.8920 -0.4516 0.0221
vt 1.000000 1.000000
vt 0.875000 0.500000
vt 1.000000 0.500000
vt 0.875000 1.000000
vt 0.750000 0.500000
vt 0.750000 1.000000
vt 0.625000 0.500000
vt 0.625000 1.000000
vt 0.500000 0.500000
vt 0.500000 1.000000
vt 0.375000 0.500000
vt 0.375000 1.000000
vt 0.250000 0.500000
vt 0.010000 0.250000
vt 0.250000 0.010000
vt 0.490000 0.250000
vt 0.250000 1.000000
vt 0.125000 0.500000
vt 0.125000 1.000000
vt 0.000000 0.500000
vt 0.919706 0.080294
vt 0.580294 0.080294
vt 0.580294 0.419706
vt 0.625000 0.000000
vt 0.375000 0.250000
vt 0.375000 0.000000
vt 0.625000 0.250000
vt 0.375000 0.750000
vt 0.625000 0.750000
vt 0.125000 0.750000
vt 0.833333 1.000000
vt 0.833333 0.500000
vt 0.666667 1.000000
vt 0.666667 0.500000
vt 0.500000 0.500000
vt 0.333333 1.000000
vt 0.333333 0.500000
vt 0.250000 0.490000
vt 0.042154 0.130000
vt 0.457846 0.130000
vt 0.166667 0.500000
vt -0.000000 1.000000
vt -0.000000 0.500000
vt 0.957846 0.370000
vt 0.750000 0.010000
vt 0.542154 0.370000
vt 0.181819 0.000000
vt 0.272728 0.157461
vt 0.090910 0.157461
vt 0.363637 0.000000
vt 0.454546 0.157461
vt 0.909091 0.000000
vt 1.000000 0.157461
vt 0.818182 0.157461
vt 0.727273 0.000000
vt 0.636364 0.157461
vt 0.545455 0.000000
vt 0.363637 0.314921
vt 0.181819 0.314921
vt 0.909091 0.314921
vt 0.727273 0.314921
vt 0.545455 0.314921
vt 0.000000 0.314921
vt 0.272728 0.472382
vt 0.090910 0.472382
vt 0.818182 0.472382
vt 0.636364 0.472382
vt 0.454546 0.472382
vt 0.500000 1.000000
vt 0.166667 1.000000
vt 0.750000 0.010000
vt 0.250000 0.490000
vt 0.042154 0.130000
vt 0.457846 0.130000
vt 0.750000 0.010000
vt 0.419706 0.419706
vt 0.080294 0.419706
vt 0.080294 0.080294
vt 0.419706 0.080294
vt 0.000000 1.000000
vt 0.750000 0.490000
vt 0.919706 0.419706
vt 0.990000 0.250000
vt 0.510000 0.250000
vt 0.875000 0.750000
vt 0.457846 0.370000
vt 0.042154 0.370000
vt 0.957846 0.130000
vt 0.542154 0.130000
vt 0.250000 0.010000
vt 0.750000 0.490000
vt 0.957846 0.130000
vt 0.542154 0.130000
s 0
usemtl military_environment_palette
f 2/1/1 3/2/1 1/3/1
f 4/4/2 5/5/2 3/2/2
f 6/6/3 7/7/3 5/5/3
f 8/8/4 9/9/4 7/7/4
f 10/10/5 11/11/5 9/9/5
f 12/12/6 13/13/6 11/11/6
f 14/14/7 10/15/7 6/16/7
f 14/17/8 15/18/8 13/13/8
f 16/19/9 1/20/9 15/18/9
f 7/21/10 11/22/10 15/23/10
f 18/24/11 19/25/11 17/26/11
f 20/27/12 23/11/12 19/25/12
f 24/7/13 21/28/13 23/11/13
f 22/29/14 17/12/14 21/28/14
f 23/11/10 17/30/10 19/18/10
f 20/2/7 22/29/7 24/7/7
f 26/24/11 27/25/11 25/26/11
f 28/27/12 31/11/12 27/25/12
f 32/7/13 29/28/13 31/11/13
f 30/29/14 25/12/14 29/28/14
f 31/11/10 25/30/10 27/18/10
f 28/2/7 30/29/7 32/7/7
f 34/24/11 35/25/11 33/26/11
f 36/27/12 39/11/12 35/25/12
f 40/7/13 37/28/13 39/11/13
f 38/29/14 33/12/14 37/28/14
f 39/11/10 33/30/10 35/18/10
f 36/2/7 38/29/7 40/7/7
f 42/24/11 43/25/11 41/26/11
f 44/27/12 47/11/12 43/25/12
f 48/7/13 45/28/13 47/11/13
f 46/29/14 41/12/14 45/28/14
f 47/11/10 41/30/10 43/18/10
f 44/2/7 46/29/7 48/7/7
f 50/24/11 51/25/11 49/26/11
f 52/27/12 55/11/12 51/25/12
f 56/7/13 53/28/13 55/11/13
f 54/29/14 49/12/14 53/28/14
f 55/11/10 49/30/10 51/18/10
f 52/2/7 54/29/7 56/7/7
f 58/24/11 59/25/11 57/26/11
f 60/27/12 63/11/12 59/25/12
f 64/7/13 61/28/13 63/11/13
f 62/29/14 57/12/14 61/28/14
f 63/11/10 57/30/10 59/18/10
f 60/2/7 62/29/7 64/7/7
f 66/24/11 67/25/11 65/26/11
f 68/27/12 71/11/12 67/25/12
f 72/7/13 69/28/13 71/11/13
f 70/29/14 65/12/14 69/28/14
f 71/11/10 65/30/10 67/18/10
f 68/2/7 70/29/7 72/7/7
f 74/24/11 75/25/11 73/26/11
f 76/27/12 79/11/12 75/25/12
f 80/7/13 77/28/13 79/11/13
f 78/29/14 73/12/14 77/28/14
f 79/11/10 73/30/10 75/18/10
f 76/2/7 78/29/7 80/7/7
f 82/24/11 83/25/11 81/26/11
f 84/27/12 87/11/12 83/25/12
f 88/7/13 85/28/13 87/11/13
f 86/29/14 81/12/14 85/28/14
f 87/11/10 81/30/10 83/18/10
f 84/2/7 86/29/7 88/7/7
f 90/24/11 91/25/11 89/26/11
f 92/27/12 95/11/12 91/25/12
f 96/7/13 93/28/13 95/11/13
f 94/29/14 89/12/14 93/28/14
f 95/11/10 89/30/10 91/18/10
f 92/2/7 94/29/7 96/7/7
f 97/3/15 100/31/15 99/32/15
f 99/32/16 102/33/16 101/34/16
f 102/33/17 103/35/17 101/34/17
f 103/35/18 106/36/18 105/37/18
f 98/38/19 106/39/19 102/40/19
f 106/36/20 107/41/20 105/37/20
f 107/41/21 98/42/21 97/43/21
f 99/44/22 103/45/22 107/46/22
f 109/47/23 110/48/23 111/49/23
f 110/48/24 109/50/24 114/51/24
f 109/52/25 111/53/25 112/54/25
f 109/55/26 112/54/26 113/56/26
f 109/57/27 113/56/27 114/51/27
f 110/48/28 114/51/28 119/58/28
f 111/49/29 110/48/29 115/59/29
f 112/54/30 111/53/30 116/60/30
f 113/56/31 112/54/31 117/61/31
f 114/51/32 113/56/32 118/62/32
f 110/48/33 119/58/33 115/59/33
f 111/49/34 115/59/34 116/63/34
f 112/54/35 116/60/35 117/61/35
f 113/56/36 117/61/36 118/62/36
f 114/51/37 118/62/37 119/58/37
f 115/59/38 119/58/38 120/64/38
f 116/63/39 115/59/39 120/65/39
f 117/61/40 116/60/40 120/66/40
f 118/62/41 117/61/41 120/67/41
f 119/58/42 118/62/42 120/68/42
f 121/3/43 124/31/43 123/32/43
f 124/31/44 125/34/44 123/32/44
f 125/34/45 128/69/45 127/35/45
f 127/35/46 130/36/46 129/37/46
f 122/38/47 130/39/47 126/40/47
f 130/36/48 131/41/48 129/37/48
f 132/70/49 121/43/49 131/41/49
f 123/44/50 127/71/50 131/46/50
f 133/47/23 134/48/23 135/49/23
f 134/48/24 133/50/24 138/51/24
f 133/52/25 135/53/25 136/54/25
f 133/55/26 136/54/26 137/56/26
f 133/57/27 137/56/27 138/51/27
f 134/48/28 138/51/28 143/58/28
f 135/49/29 134/48/29 139/59/29
f 136/54/30 135/53/30 140/60/30
f 137/56/31 136/54/31 141/61/31
f 138/51/32 137/56/32 142/62/32
f 134/48/33 143/58/33 139/59/33
f 135/49/34 139/59/34 140/63/34
f 136/54/35 140/60/35 141/61/35
f 137/56/36 141/61/36 142/62/36
f 138/51/37 142/62/37 143/58/37
f 139/59/38 143/58/38 144/64/38
f 140/63/39 139/59/39 144/65/39
f 141/61/40 140/60/40 144/66/40
f 142/62/41 141/61/41 144/67/41
f 143/58/42 142/62/42 144/68/42
f 146/1/51 147/32/51 145/3/51
f 147/32/52 150/33/52 149/34/52
f 149/34/53 152/69/53 151/35/53
f 152/69/54 153/37/54 151/35/54
f 146/38/55 154/39/55 150/40/55
f 153/37/56 156/70/56 155/41/56
f 156/70/57 145/43/57 155/41/57
f 147/44/58 151/45/58 155/46/58
f 157/47/23 158/48/23 159/49/23
f 158/48/24 157/50/24 162/51/24
f 157/52/25 159/53/25 160/54/25
f 157/55/26 160/54/26 161/56/26
f 157/57/27 161/56/27 162/51/27
f 158/48/28 162/51/28 167/58/28
f 159/49/29 158/48/29 163/59/29
f 160/54/30 159/53/30 164/60/30
f 161/56/31 160/54/31 165/61/31
f 162/51/32 161/56/32 166/62/32
f 158/48/33 167/58/33 163/59/33
f 159/49/34 163/59/34 164/63/34
f 160/54/35 164/60/35 165/61/35
f 161/56/36 165/61/36 166/62/36
f 162/51/37 166/62/37 167/58/37
f 163/59/38 167/58/38 168/64/38
f 164/63/39 163/59/39 168/65/39
f 165/61/40 164/60/40 168/66/40
f 166/62/41 165/61/41 168/67/41
f 167/58/42 166/62/42 168/68/42
f 170/1/59 171/32/59 169/3/59
f 172/31/60 173/34/60 171/32/60
f 173/34/61 176/69/61 175/35/61
f 176/69/62 177/37/62 175/35/62
f 170/72/63 178/73/63 174/74/63
f 177/37/64 180/70/64 179/41/64
f 180/70/65 169/43/65 179/41/65
f 171/44/66 175/75/66 179/46/66
f 181/47/23 182/48/23 183/49/23
f 182/48/24 181/50/24 186/51/24
f 181/52/25 183/53/25 184/54/25
f 181/55/26 184/54/26 185/56/26
f 181/57/27 185/56/27 186/51/27
f 182/48/28 186/51/28 191/58/28
f 183/49/29 182/48/29 187/59/29
f 184/54/30 183/53/30 188/60/30
f 185/56/31 184/54/31 189/61/31
f 186/51/32 185/56/32 190/62/32
f 182/48/33 191/58/33 187/59/33
f 183/49/34 187/59/34 188/63/34
f 184/54/35 188/60/35 189/61/35
f 185/56/36 189/61/36 190/62/36
f 186/51/37 190/62/37 191/58/37
f 187/59/38 191/58/38 192/64/38
f 188/63/39 187/59/39 192/65/39
f 189/61/40 188/60/40 192/66/40
f 190/62/41 189/61/41 192/67/41
f 191/58/42 190/62/42 192/68/42
f 193/47/67 194/48/67 195/49/67
f 194/48/68 193/50/68 198/51/68
f 193/52/69 195/53/69 196/54/69
f 193/55/70 196/54/70 197/56/70
f 193/57/71 197/56/71 198/51/71
f 194/48/72 198/51/72 203/58/72
f 195/49/73 194/48/73 199/59/73
f 196/54/74 195/53/74 200/60/74
f 197/56/75 196/54/75 201/61/75
f 198/51/76 197/56/76 202/62/76
f 194/48/77 203/58/77 199/59/77
f 195/49/78 199/59/78 200/63/78
f 196/54/79 200/60/79 201/61/79
f 197/56/80 201/61/80 202/62/80
f 198/51/81 202/62/81 203/58/81
f 199/59/82 203/58/82 204/64/82
f 200/63/83 199/59/83 204/65/83
f 201/61/84 200/60/84 204/66/84
f 202/62/85 201/61/85 204/67/85
f 203/58/86 202/62/86 204/68/86
f 2/1/1 4/4/1 3/2/1
f 4/4/2 6/6/2 5/5/2
f 6/6/3 8/8/3 7/7/3
f 8/8/4 10/10/4 9/9/4
f 10/10/5 12/12/5 11/11/5
f 12/12/6 14/17/6 13/13/6
f 6/16/7 4/76/7 2/38/7
f 2/38/7 16/77/7 14/14/7
f 14/14/7 12/78/7 10/15/7
f 10/15/7 8/79/7 6/16/7
f 6/16/7 2/38/7 14/14/7
f 14/17/8 16/19/8 15/18/8
f 16/19/9 2/80/9 1/20/9
f 15/23/10 1/81/10 3/82/10
f 3/82/10 5/83/10 7/21/10
f 7/21/10 9/45/10 11/22/10
f 11/22/10 13/84/10 15/23/10
f 15/23/10 3/82/10 7/21/10
f 18/24/11 20/27/11 19/25/11
f 20/27/12 24/7/12 23/11/12
f 24/7/13 22/29/13 21/28/13
f 22/29/14 18/8/14 17/12/14
f 23/11/10 21/28/10 17/30/10
f 20/2/7 18/85/7 22/29/7
f 26/24/11 28/27/11 27/25/11
f 28/27/12 32/7/12 31/11/12
f 32/7/13 30/29/13 29/28/13
f 30/29/14 26/8/14 25/12/14
f 31/11/10 29/28/10 25/30/10
f 28/2/7 26/85/7 30/29/7
f 34/24/11 36/27/11 35/25/11
f 36/27/12 40/7/12 39/11/12
f 40/7/13 38/29/13 37/28/13
f 38/29/14 34/8/14 33/12/14
f 39/11/10 37/28/10 33/30/10
f 36/2/7 34/85/7 38/29/7
f 42/24/11 44/27/11 43/25/11
f 44/27/12 48/7/12 47/11/12
f 48/7/13 46/29/13 45/28/13
f 46/29/14 42/8/14 41/12/14
f 47/11/10 45/28/10 41/30/10
f 44/2/7 42/85/7 46/29/7
f 50/24/11 52/27/11 51/25/11
f 52/27/12 56/7/12 55/11/12
f 56/7/13 54/29/13 53/28/13
f 54/29/14 50/8/14 49/12/14
f 55/11/10 53/28/10 49/30/10
f 52/2/7 50/85/7 54/29/7
f 58/24/11 60/27/11 59/25/11
f 60/27/12 64/7/12 63/11/12
f 64/7/13 62/29/13 61/28/13
f 62/29/14 58/8/14 57/12/14
f 63/11/10 61/28/10 57/30/10
f 60/2/7 58/85/7 62/29/7
f 66/24/11 68/27/11 67/25/11
f 68/27/12 72/7/12 71/11/12
f 72/7/13 70/29/13 69/28/13
f 70/29/14 66/8/14 65/12/14
f 71/11/10 69/28/10 65/30/10
f 68/2/7 66/85/7 70/29/7
f 74/24/11 76/27/11 75/25/11
f 76/27/12 80/7/12 79/11/12
f 80/7/13 78/29/13 77/28/13
f 78/29/14 74/8/14 73/12/14
f 79/11/10 77/28/10 73/30/10
f 76/2/7 74/85/7 78/29/7
f 82/24/11 84/27/11 83/25/11
f 84/27/12 88/7/12 87/11/12
f 88/7/13 86/29/13 85/28/13
f 86/29/14 82/8/14 81/12/14
f 87/11/10 85/28/10 81/30/10
f 84/2/7 82/85/7 86/29/7
f 90/24/11 92/27/11 91/25/11
f 92/27/12 96/7/12 95/11/12
f 96/7/13 94/29/13 93/28/13
f 94/29/14 90/8/14 89/12/14
f 95/11/10 93/28/10 89/30/10
f 92/2/7 90/85/7 94/29/7
f 97/3/15 98/1/15 100/31/15
f 99/32/16 100/31/16 102/33/16
f 102/33/17 104/69/17 103/35/17
f 103/35/18 104/69/18 106/36/18
f 102/40/19 100/86/19 98/38/19
f 98/38/87 108/87/87 106/39/87
f 106/39/19 104/15/19 102/40/19
f 106/36/20 108/70/20 107/41/20
f 107/41/21 108/70/21 98/42/21
f 107/46/22 97/81/22 99/44/22
f 99/44/22 101/88/22 103/45/22
f 103/45/22 105/89/22 107/46/22
f 121/3/88 122/1/88 124/31/88
f 124/31/44 126/33/44 125/34/44
f 125/34/45 126/33/45 128/69/45
f 127/35/46 128/69/46 130/36/46
f 126/40/89 124/86/89 122/38/89
f 122/38/47 132/87/47 130/39/47
f 130/39/47 128/15/47 126/40/47
f 130/36/48 132/70/48 131/41/48
f 132/70/49 122/42/49 121/43/49
f 131/46/50 121/81/50 123/44/50
f 123/44/50 125/88/50 127/71/50
f 127/71/50 129/89/50 131/46/50
f 146/1/51 148/31/51 147/32/51
f 147/32/52 148/31/52 150/33/52
f 149/34/53 150/33/53 152/69/53
f 152/69/54 154/36/54 153/37/54
f 150/40/90 148/86/90 146/38/90
f 146/38/55 156/87/55 154/39/55
f 154/39/55 152/15/55 150/40/55
f 153/37/56 154/36/56 156/70/56
f 156/70/57 146/42/57 145/43/57
f 155/46/58 145/81/58 147/44/58
f 147/44/58 149/88/58 151/45/58
f 151/45/58 153/89/58 155/46/58
f 170/1/59 172/31/59 171/32/59
f 172/31/91 174/33/91 173/34/91
f 173/34/61 174/33/61 176/69/61
f 176/69/62 178/36/62 177/37/62
f 174/74/63 172/86/63 170/72/63
f 170/72/63 180/87/63 178/73/63
f 178/73/63 176/90/63 174/74/63
f 177/37/64 178/36/64 180/70/64
f 180/70/65 170/42/65 169/43/65
f 179/46/66 169/91/66 171/44/66
f 171/44/66 173/92/66 175/75/66
f 175/75/66 177/93/66 179/46/66
