# Blender 5.2.1 LTS
# www.blender.org
mtllib flowerInstances.mtl
o flowerInstances
v 0.130000 -0.300000 0.000000
v 0.209596 -0.233666 0.057829
v 0.099598 -0.233666 0.093570
v 0.031613 -0.233666 0.000000
v 0.099598 -0.233666 -0.093570
v 0.209596 -0.233666 -0.057829
v 0.160402 -0.126334 0.093570
v 0.050404 -0.126334 0.057829
v 0.050404 -0.126334 -0.057829
v 0.160402 -0.126334 -0.093570
v 0.228387 -0.126334 0.000000
v 0.130000 -0.060000 0.000000
v 0.040172 -0.300000 -0.123637
v 0.119768 -0.233666 -0.065808
v 0.009770 -0.233666 -0.030067
v -0.058215 -0.233666 -0.123637
v 0.009770 -0.233666 -0.217208
v 0.119768 -0.233666 -0.181467
v 0.070575 -0.126334 -0.030067
v -0.039424 -0.126334 -0.065808
v -0.039424 -0.126334 -0.181467
v 0.070575 -0.126334 -0.217208
v 0.138559 -0.126334 -0.123637
v 0.040172 -0.060000 -0.123637
v -0.105172 -0.300000 -0.076412
v -0.025576 -0.233666 -0.018583
v -0.135575 -0.233666 0.017158
v -0.203559 -0.233666 -0.076412
v -0.135575 -0.233666 -0.169982
v -0.025576 -0.233666 -0.134241
v -0.074770 -0.126334 0.017158
v -0.184768 -0.126334 -0.018583
v -0.184768 -0.126334 -0.134241
v -0.074770 -0.126334 -0.169982
v -0.006785 -0.126334 -0.076412
v -0.105172 -0.060000 -0.076412
v -0.105172 -0.300000 0.076412
v -0.025576 -0.233666 0.134241
v -0.135575 -0.233666 0.169982
v -0.203559 -0.233666 0.076412
v -0.135575 -0.233666 -0.017158
v -0.025576 -0.233666 0.018583
v -0.074770 -0.126334 0.169982
v -0.184768 -0.126334 0.134241
v -0.184768 -0.126334 0.018583
v -0.074770 -0.126334 -0.017158
v -0.006785 -0.126334 0.076412
v -0.105172 -0.060000 0.076412
v 0.040172 -0.300000 0.123637
v 0.119768 -0.233666 0.181467
v 0.009770 -0.233666 0.217208
v -0.058215 -0.233666 0.123637
v 0.009770 -0.233666 0.030067
v 0.119768 -0.233666 0.065808
v 0.070575 -0.126334 0.217208
v -0.039424 -0.126334 0.181467
v -0.039424 -0.126334 0.065808
v 0.070575 -0.126334 0.030067
v 0.138559 -0.126334 0.123637
v 0.040172 -0.060000 0.123637
vn 0.1978 -0.7682 0.6089
vn 0.6402 -0.7682 -0.0000
vn -0.5179 -0.7682 0.3763
vn -0.5179 -0.7682 -0.3763
vn 0.1978 -0.7682 -0.6089
vn 0.9850 -0.1724 -0.0000
vn 0.3044 -0.1724 0.9368
vn -0.7969 -0.1724 0.5790
vn -0.7969 -0.1724 -0.5790
vn 0.3044 -0.1724 -0.9368
vn 0.7969 0.1724 0.5790
vn -0.3044 0.1724 0.9368
vn -0.9850 0.1724 -0.0000
vn -0.3044 0.1724 -0.9368
vn 0.7969 0.1724 -0.5790
vn 0.5179 0.7682 0.3763
vn -0.1978 0.7682 0.6089
vn -0.6402 0.7682 -0.0000
vn -0.1978 0.7682 -0.6089
vn 0.5179 0.7682 -0.3763
vt 0.181819 0.000000
vt 0.272728 0.157461
vt 0.090910 0.157461
vt 0.363637 0.000000
vt 0.454546 0.157461
vt 0.909091 0.000000
vt 1.000000 0.157461
vt 0.818182 0.157461
vt 0.727273 0.000000
vt 0.636364 0.157461
vt 0.545455 0.000000
vt 0.363637 0.314921
vt 0.181819 0.314921
vt 0.909091 0.314921
vt 0.727273 0.314921
vt 0.545455 0.314921
vt 0.000000 0.314921
vt 0.272728 0.472382
vt 0.090910 0.472382
vt 0.818182 0.472382
vt 0.636364 0.472382
vt 0.454546 0.472382
s 0
usemtl military_environment_palette
f 1/1/1 2/2/1 3/3/1
f 2/2/2 1/4/2 6/5/2
f 1/6/3 3/7/3 4/8/3
f 1/9/4 4/8/4 5/10/4
f 1/11/5 5/10/5 6/5/5
f 2/2/6 6/5/6 11/12/6
f 3/3/7 2/2/7 7/13/7
f 4/8/8 3/7/8 8/14/8
f 5/10/9 4/8/9 9/15/9
f 6/5/10 5/10/10 10/16/10
f 2/2/11 11/12/11 7/13/11
f 3/3/12 7/13/12 8/17/12
f 4/8/13 8/14/13 9/15/13
f 5/10/14 9/15/14 10/16/14
f 6/5/15 10/16/15 11/12/15
f 7/13/16 11/12/16 12/18/16
f 8/17/17 7/13/17 12/19/17
f 9/15/18 8/14/18 12/20/18
f 10/16/19 9/15/19 12/21/19
f 11/12/20 10/16/20 12/22/20
f 13/1/1 14/2/1 15/3/1
f 14/2/2 13/4/2 18/5/2
f 13/6/3 15/7/3 16/8/3
f 13/9/4 16/8/4 17/10/4
f 13/11/5 17/10/5 18/5/5
f 14/2/6 18/5/6 23/12/6
f 15/3/7 14/2/7 19/13/7
f 16/8/8 15/7/8 20/14/8
f 17/10/9 16/8/9 21/15/9
f 18/5/10 17/10/10 22/16/10
f 14/2/11 23/12/11 19/13/11
f 15/3/12 19/13/12 20/17/12
f 16/8/13 20/14/13 21/15/13
f 17/10/14 21/15/14 22/16/14
f 18/5/15 22/16/15 23/12/15
f 19/13/16 23/12/16 24/18/16
f 20/17/17 19/13/17 24/19/17
f 21/15/18 20/14/18 24/20/18
f 22/16/19 21/15/19 24/21/19
f 23/12/20 22/16/20 24/22/20
f 25/1/1 26/2/1 27/3/1
f 26/2/2 25/4/2 30/5/2
f 25/6/3 27/7/3 28/8/3
f 25/9/4 28/8/4 29/10/4
f 25/11/5 29/10/5 30/5/5
f 26/2/6 30/5/6 35/12/6
f 27/3/7 26/2/7 31/13/7
f 28/8/8 27/7/8 32/14/8
f 29/10/9 28/8/9 33/15/9
f 30/5/10 29/10/10 34/16/10
f 26/2/11 35/12/11 31/13/11
f 27/3/12 31/13/12 32/17/12
f 28/8/13 32/14/13 33/15/13
f 29/10/14 33/15/14 34/16/14
f 30/5/15 34/16/15 35/12/15
f 31/13/16 35/12/16 36/18/16
f 32/17/17 31/13/17 36/19/17
f 33/15/18 32/14/18 36/20/18
f 34/16/19 33/15/19 36/21/19
f 35/12/20 34/16/20 36/22/20
f 37/1/1 38/2/1 39/3/1
f 38/2/2 37/4/2 42/5/2
f 37/6/3 39/7/3 40/8/3
f 37/9/4 40/8/4 41/10/4
f 37/11/5 41/10/5 42/5/5
f 38/2/6 42/5/6 47/12/6
f 39/3/7 38/2/7 43/13/7
f 40/8/8 39/7/8 44/14/8
f 41/10/9 40/8/9 45/15/9
f 42/5/10 41/10/10 46/16/10
f 38/2/11 47/12/11 43/13/11
f 39/3/12 43/13/12 44/17/12
f 40/8/13 44/14/13 45/15/13
f 41/10/14 45/15/14 46/16/14
f 42/5/15 46/16/15 47/12/15
f 43/13/16 47/12/16 48/18/16
f 44/17/17 43/13/17 48/19/17
f 45/15/18 44/14/18 48/20/18
f 46/16/19 45/15/19 48/21/19
f 47/12/20 46/16/20 48/22/20
f 49/1/1 50/2/1 51/3/1
f 50/2/2 49/4/2 54/5/2
f 49/6/3 51/7/3 52/8/3
f 49/9/4 52/8/4 53/10/4
f 49/11/5 53/10/5 54/5/5
f 50/2/6 54/5/6 59/12/6
f 51/3/7 50/2/7 55/13/7
f 52/8/8 51/7/8 56/14/8
f 53/10/9 52/8/9 57/15/9
f 54/5/10 53/10/10 58/16/10
f 50/2/11 59/12/11 55/13/11
f 51/3/12 55/13/12 56/17/12
f 52/8/13 56/14/13 57/15/13
f 53/10/14 57/15/14 58/16/14
f 54/5/15 58/16/15 59/12/15
f 55/13/16 59/12/16 60/18/16
f 56/17/17 55/13/17 60/19/17
f 57/15/18 56/14/18 60/20/18
f 58/16/19 57/15/19 60/21/19
f 59/12/20 58/16/20 60/22/20
