# Blender 5.2.1 LTS
# www.blender.org
mtllib grassTufts.mtl
o grassTufts
v 0.050000 -0.230000 -0.028000
v 0.380000 0.280000 -0.015680
v 0.070359 -0.243173 -0.014000
v 0.391401 0.272623 -0.007840
v 0.070359 -0.243173 0.014000
v 0.391401 0.272623 0.007840
v 0.050000 -0.230000 0.028000
v 0.380000 0.280000 0.015680
v 0.029642 -0.216827 0.014000
v 0.368599 0.287377 0.007840
v 0.029642 -0.216827 -0.014000
v 0.368599 0.287377 -0.007840
v 0.029438 -0.240686 -0.064914
v 0.235954 0.354016 -0.311556
v 0.053355 -0.242723 -0.050499
v 0.249347 0.352875 -0.303484
v 0.055092 -0.232037 -0.024676
v 0.250320 0.358859 -0.289023
v 0.032911 -0.219314 -0.013269
v 0.237899 0.365984 -0.282636
v 0.008994 -0.217277 -0.027684
v 0.224505 0.367125 -0.290708
v 0.007257 -0.227963 -0.053507
v 0.223532 0.361141 -0.305168
v -0.010501 -0.242062 -0.074008
v -0.084208 0.433246 -0.384619
v 0.013312 -0.233647 -0.061918
v -0.070873 0.437958 -0.377849
v 0.012687 -0.221585 -0.036657
v -0.071223 0.444712 -0.363703
v -0.011751 -0.217938 -0.023485
v -0.084908 0.446755 -0.356326
v -0.035564 -0.226353 -0.035574
v -0.098243 0.442042 -0.363096
v -0.034939 -0.238415 -0.060836
v -0.097893 0.435288 -0.377243
v -0.043292 -0.236600 -0.048849
v -0.341385 0.276304 -0.180082
v -0.023080 -0.221431 -0.036792
v -0.330066 0.284798 -0.173331
v -0.024836 -0.214831 -0.009638
v -0.331049 0.288494 -0.158124
v -0.046804 -0.223400 0.005460
v -0.343352 0.283696 -0.149669
v -0.067017 -0.238569 -0.006596
v -0.354671 0.275201 -0.156421
v -0.065261 -0.245168 -0.033751
v -0.353687 0.271506 -0.171627
v -0.046441 -0.224070 -0.005635
v -0.343148 0.363321 0.149571
v -0.024001 -0.216370 0.009236
v -0.330581 0.367633 0.157899
v -0.022608 -0.222300 0.036565
v -0.329802 0.364312 0.173203
v -0.043656 -0.235930 0.049023
v -0.341588 0.356679 0.180180
v -0.066096 -0.243630 0.034153
v -0.354155 0.352367 0.171853
v -0.067489 -0.237700 0.006823
v -0.354935 0.355688 0.156548
v -0.011751 -0.217938 0.023485
v -0.084908 0.446755 0.356326
v 0.012687 -0.221585 0.036657
v -0.071223 0.444712 0.363703
v 0.013312 -0.233647 0.061918
v -0.070873 0.437958 0.377849
v -0.010501 -0.242062 0.074008
v -0.084208 0.433246 0.384619
v -0.034939 -0.238415 0.060836
v -0.097893 0.435288 0.377243
v -0.035564 -0.226353 0.035574
v -0.098243 0.442042 0.363096
v 0.033364 -0.218107 0.013837
v 0.238152 0.286660 0.282954
v 0.055006 -0.232267 0.024568
v 0.250272 0.278730 0.288963
v 0.052816 -0.244160 0.049822
v 0.249045 0.272071 0.303105
v 0.028985 -0.241892 0.064346
v 0.235700 0.273340 0.311238
v 0.007343 -0.227733 0.053615
v 0.223581 0.281270 0.305229
v 0.009533 -0.215840 0.028361
v 0.224807 0.287929 0.291087
vn 0.4293 -0.2568 -0.8659
vn 0.8490 -0.5284 -0.0000
vn 0.4293 -0.2568 0.8659
vn -0.4102 0.2863 0.8659
vn 0.5433 0.8396 -0.0000
vn -0.8299 0.5579 -0.0000
vn -0.4102 0.2863 -0.8659
vn -0.5433 -0.8396 -0.0000
vn 0.4263 -0.4689 -0.7736
vn 0.9552 -0.2905 0.0560
vn 0.5337 0.1921 0.8236
vn -0.4167 0.4964 0.7615
vn 0.3044 0.8728 -0.3817
vn -0.9456 0.3181 -0.0680
vn -0.5241 -0.1645 -0.8356
vn -0.3044 -0.8728 0.3817
vn 0.5153 -0.3111 -0.7986
vn 0.9934 0.1111 -0.0285
vn 0.4767 0.4350 0.7639
vn -0.5181 0.3367 0.7862
vn -0.0983 0.8971 -0.4308
vn -0.9962 -0.0855 0.0162
vn -0.4795 -0.4094 -0.7762
vn 0.0983 -0.8971 0.4308
vn 0.4805 0.0553 -0.8752
vn 0.8610 0.5041 -0.0668
vn 0.3719 0.4635 0.8042
vn -0.4977 -0.0258 0.8670
vn -0.4895 0.8396 -0.2357
vn -0.8782 -0.4746 0.0586
vn -0.3891 -0.4340 -0.8125
vn 0.4895 -0.8396 0.2357
vn 0.3983 0.4171 -0.8170
vn 0.8897 0.4535 0.0531
vn 0.4844 0.0502 0.8734
vn -0.4122 -0.3895 0.8237
vn -0.4398 0.8728 0.2118
vn -0.9035 -0.4260 -0.0464
vn -0.4983 -0.0227 -0.8667
vn 0.4398 -0.8728 -0.2118
vn 0.4767 0.4350 -0.7639
vn 0.9934 0.1111 0.0285
vn 0.5153 -0.3111 0.7986
vn -0.4795 -0.4094 0.7762
vn -0.0983 0.8971 0.4308
vn -0.9962 -0.0855 -0.0162
vn -0.5181 0.3367 -0.7862
vn 0.0983 -0.8971 -0.4308
vn 0.5424 0.2132 -0.8126
vn 0.9434 -0.3239 -0.0707
vn 0.4070 -0.5224 0.7493
vn -0.5305 -0.1837 0.8275
vn 0.3387 0.8396 0.4247
vn -0.9315 0.3534 0.0857
vn -0.3951 0.5518 -0.7344
vn -0.3387 -0.8396 -0.4247
vn -0.4122 -0.3895 0.8236
vt 1.000000 1.000000
vt 0.833333 0.500000
vt 1.000000 0.500000
vt 0.833333 1.000000
vt 0.666667 0.500000
vt 0.500000 1.000000
vt 0.500000 0.500000
vt 0.333333 1.000000
vt 0.333333 0.500000
vt 0.250000 0.490000
vt 0.042154 0.130000
vt 0.457846 0.130000
vt 0.166667 0.500000
vt -0.000000 1.000000
vt -0.000000 0.500000
vt 0.957846 0.370000
vt 0.750000 0.010000
vt 0.542154 0.370000
vt 0.166667 1.000000
vt 0.666667 1.000000
vt 0.457846 0.370000
vt 0.042154 0.370000
vt 0.250000 0.010000
vt 0.750000 0.490000
vt 0.957846 0.130000
vt 0.542154 0.130000
s 0
usemtl military_environment_palette
f 2/1/1 3/2/1 1/3/1
f 4/4/2 5/5/2 3/2/2
f 5/5/3 8/6/3 7/7/3
f 7/7/4 10/8/4 9/9/4
f 2/10/5 10/11/5 6/12/5
f 10/8/6 11/13/6 9/9/6
f 11/13/7 2/14/7 1/15/7
f 3/16/8 7/17/8 11/18/8
f 13/3/9 16/4/9 15/2/9
f 16/4/10 17/5/10 15/2/10
f 17/5/11 20/6/11 19/7/11
f 20/6/12 21/9/12 19/7/12
f 14/10/13 22/11/13 18/12/13
f 22/8/14 23/13/14 21/9/14
f 24/19/15 13/15/15 23/13/15
f 15/16/16 19/17/16 23/18/16
f 25/3/17 28/4/17 27/2/17
f 27/2/18 30/20/18 29/5/18
f 29/5/19 32/6/19 31/7/19
f 31/7/20 34/8/20 33/9/20
f 26/10/21 34/11/21 30/12/21
f 33/9/22 36/19/22 35/13/22
f 35/13/23 26/14/23 25/15/23
f 27/16/24 31/17/24 35/18/24
f 38/1/25 39/2/25 37/3/25
f 40/4/26 41/5/26 39/2/26
f 41/5/27 44/6/27 43/7/27
f 44/6/28 45/9/28 43/7/28
f 38/10/29 46/11/29 42/12/29
f 46/8/30 47/13/30 45/9/30
f 47/13/31 38/14/31 37/15/31
f 39/16/32 43/17/32 47/18/32
f 49/3/33 52/4/33 51/2/33
f 52/4/34 53/5/34 51/2/34
f 54/20/35 55/7/35 53/5/35
f 55/7/36 58/8/36 57/9/36
f 50/10/37 58/11/37 54/12/37
f 58/8/38 59/13/38 57/9/38
f 60/19/39 49/15/39 59/13/39
f 51/16/40 55/17/40 59/18/40
f 62/1/41 63/2/41 61/3/41
f 64/4/42 65/5/42 63/2/42
f 66/20/43 67/7/43 65/5/43
f 67/7/44 70/8/44 69/9/44
f 62/10/45 70/11/45 66/12/45
f 69/9/46 72/19/46 71/13/46
f 72/19/47 61/15/47 71/13/47
f 63/16/48 67/17/48 71/18/48
f 73/3/49 76/4/49 75/2/49
f 76/4/50 77/5/50 75/2/50
f 78/20/51 79/7/51 77/5/51
f 80/6/52 81/9/52 79/7/52
f 74/10/53 82/11/53 78/12/53
f 82/8/54 83/13/54 81/9/54
f 83/13/55 74/14/55 73/15/55
f 75/16/56 79/17/56 83/18/56
f 2/1/1 4/4/1 3/2/1
f 4/4/2 6/20/2 5/5/2
f 5/5/3 6/20/3 8/6/3
f 7/7/4 8/6/4 10/8/4
f 6/12/5 4/21/5 2/10/5
f 2/10/5 12/22/5 10/11/5
f 10/11/5 8/23/5 6/12/5
f 10/8/6 12/19/6 11/13/6
f 11/13/7 12/19/7 2/14/7
f 11/18/8 1/24/8 3/16/8
f 3/16/8 5/25/8 7/17/8
f 7/17/8 9/26/8 11/18/8
f 13/3/9 14/1/9 16/4/9
f 16/4/10 18/20/10 17/5/10
f 17/5/11 18/20/11 20/6/11
f 20/6/12 22/8/12 21/9/12
f 18/12/13 16/21/13 14/10/13
f 14/10/13 24/22/13 22/11/13
f 22/11/13 20/23/13 18/12/13
f 22/8/14 24/19/14 23/13/14
f 24/19/15 14/14/15 13/15/15
f 23/18/16 13/24/16 15/16/16
f 15/16/16 17/25/16 19/17/16
f 19/17/16 21/26/16 23/18/16
f 25/3/17 26/1/17 28/4/17
f 27/2/18 28/4/18 30/20/18
f 29/5/19 30/20/19 32/6/19
f 31/7/20 32/6/20 34/8/20
f 30/12/21 28/21/21 26/10/21
f 26/10/21 36/22/21 34/11/21
f 34/11/21 32/23/21 30/12/21
f 33/9/22 34/8/22 36/19/22
f 35/13/23 36/19/23 26/14/23
f 35/18/24 25/24/24 27/16/24
f 27/16/24 29/25/24 31/17/24
f 31/17/24 33/26/24 35/18/24
f 38/1/25 40/4/25 39/2/25
f 40/4/26 42/20/26 41/5/26
f 41/5/27 42/20/27 44/6/27
f 44/6/28 46/8/28 45/9/28
f 42/12/29 40/21/29 38/10/29
f 38/10/29 48/22/29 46/11/29
f 46/11/29 44/23/29 42/12/29
f 46/8/30 48/19/30 47/13/30
f 47/13/31 48/19/31 38/14/31
f 47/18/32 37/24/32 39/16/32
f 39/16/32 41/25/32 43/17/32
f 43/17/32 45/26/32 47/18/32
f 49/3/33 50/1/33 52/4/33
f 52/4/34 54/20/34 53/5/34
f 54/20/35 56/6/35 55/7/35
f 55/7/57 56/6/57 58/8/57
f 54/12/37 52/21/37 50/10/37
f 50/10/37 60/22/37 58/11/37
f 58/11/37 56/23/37 54/12/37
f 58/8/38 60/19/38 59/13/38
f 60/19/39 50/14/39 49/15/39
f 59/18/40 49/24/40 51/16/40
f 51/16/40 53/25/40 55/17/40
f 55/17/40 57/26/40 59/18/40
f 62/1/41 64/4/41 63/2/41
f 64/4/42 66/20/42 65/5/42
f 66/20/43 68/6/43 67/7/43
f 67/7/44 68/6/44 70/8/44
f 66/12/45 64/21/45 62/10/45
f 62/10/45 72/22/45 70/11/45
f 70/11/45 68/23/45 66/12/45
f 69/9/46 70/8/46 72/19/46
f 72/19/47 62/14/47 61/15/47
f 71/18/48 61/24/48 63/16/48
f 63/16/48 65/25/48 67/17/48
f 67/17/48 69/26/48 71/18/48
f 73/3/49 74/1/49 76/4/49
f 76/4/50 78/20/50 77/5/50
f 78/20/51 80/6/51 79/7/51
f 80/6/52 82/8/52 81/9/52
f 78/12/53 76/21/53 74/10/53
f 74/10/53 84/22/53 82/11/53
f 82/11/53 80/23/53 78/12/53
f 82/8/54 84/19/54 83/13/54
f 83/13/55 84/19/55 74/14/55
f 83/18/56 73/24/56 75/16/56
f 75/16/56 77/25/56 79/17/56
f 79/17/56 81/26/56 83/18/56
