# Blender 5.2.1 LTS
# www.blender.org
mtllib LibraryRock.mtl
o LibraryRock
v 5.000000 -1.000000 0.000000
v 6.013040 -0.447215 0.578292
v 4.613061 -0.447215 0.935704
v 3.747805 -0.447215 0.000000
v 4.613061 -0.447215 -0.935704
v 6.013040 -0.447215 -0.578292
v 5.386939 0.447215 0.935704
v 3.986960 0.447215 0.578292
v 3.986960 0.447215 -0.578292
v 5.386939 0.447215 -0.935704
v 6.252195 0.447215 0.000000
v 5.000000 1.000000 0.000000
vn 0.1393 -0.8263 0.5458
vn 0.4790 -0.8778 -0.0000
vn -0.3783 -0.8570 0.3498
vn -0.3783 -0.8570 -0.3498
vn 0.1393 -0.8263 -0.5458
vn 0.9661 -0.2583 -0.0000
vn 0.2419 -0.2093 0.9475
vn -0.7135 -0.2358 0.6598
vn -0.7135 -0.2358 -0.6598
vn 0.2419 -0.2093 -0.9475
vn 0.7135 0.2358 0.6598
vn -0.2419 0.2093 0.9475
vn -0.9661 0.2583 -0.0000
vn -0.2419 0.2093 -0.9475
vn 0.7135 0.2358 -0.6598
vn 0.3783 0.8570 0.3498
vn -0.1393 0.8263 0.5458
vn -0.4790 0.8778 -0.0000
vn -0.1393 0.8263 -0.5458
vn 0.3783 0.8570 -0.3498
vt 0.181819 0.000000
vt 0.272728 0.157461
vt 0.090910 0.157461
vt 0.363637 0.000000
vt 0.454546 0.157461
vt 0.909091 0.000000
vt 1.000000 0.157461
vt 0.818182 0.157461
vt 0.727273 0.000000
vt 0.636364 0.157461
vt 0.545455 0.000000
vt 0.363637 0.314921
vt 0.181819 0.314921
vt 0.909091 0.314921
vt 0.727273 0.314921
vt 0.545455 0.314921
vt 0.000000 0.314921
vt 0.272728 0.472382
vt 0.090910 0.472382
vt 0.818182 0.472382
vt 0.636364 0.472382
vt 0.454546 0.472382
s 0
usemtl military_environment_palette
f 1/1/1 2/2/1 3/3/1
f 2/2/2 1/4/2 6/5/2
f 1/6/3 3/7/3 4/8/3
f 1/9/4 4/8/4 5/10/4
f 1/11/5 5/10/5 6/5/5
f 2/2/6 6/5/6 11/12/6
f 3/3/7 2/2/7 7/13/7
f 4/8/8 3/7/8 8/14/8
f 5/10/9 4/8/9 9/15/9
f 6/5/10 5/10/10 10/16/10
f 2/2/11 11/12/11 7/13/11
f 3/3/12 7/13/12 8/17/12
f 4/8/13 8/14/13 9/15/13
f 5/10/14 9/15/14 10/16/14
f 6/5/15 10/16/15 11/12/15
f 7/13/16 11/12/16 12/18/16
f 8/17/17 7/13/17 12/19/17
f 9/15/18 8/14/18 12/20/18
f 10/16/19 9/15/19 12/21/19
f 11/12/20 10/16/20 12/22/20
