# Blender 5.2.1 LTS
# www.blender.org
mtllib scrubInstances.mtl
o scrubInstances
v -0.005465 -0.330626 -0.063892
v 0.408568 -0.035951 -0.119221
v 0.030211 -0.370712 -0.027213
v 0.428546 -0.058399 -0.098681
v 0.035676 -0.360086 0.036679
v 0.431607 -0.052448 -0.062901
v 0.005465 -0.309373 0.063892
v 0.414688 -0.024049 -0.047661
v -0.030211 -0.269288 0.027213
v 0.394710 -0.001601 -0.068202
v -0.035676 -0.279914 -0.036679
v 0.391649 -0.007552 -0.103981
v 0.411628 -0.330000 -0.083441
v 0.715540 -0.164165 0.105818
v 0.295546 -0.164165 0.222789
v 0.035969 -0.164164 -0.083441
v 0.295546 -0.164164 -0.389672
v 0.715540 -0.164164 -0.272700
v 0.527710 0.104164 0.222789
v 0.107716 0.104164 0.105818
v 0.107716 0.104165 -0.272700
v 0.527710 0.104164 -0.389672
v 0.787286 0.104164 -0.083441
v 0.411628 0.270000 -0.083441
v -0.002218 -0.366210 -0.045659
v 0.046601 0.064123 -0.442835
v 0.054963 -0.347693 -0.020909
v 0.078622 0.074492 -0.428975
v 0.057180 -0.301484 0.024750
v 0.079864 0.100369 -0.403406
v 0.002218 -0.273790 0.045659
v 0.049085 0.115877 -0.391697
v -0.054963 -0.292307 0.020909
v 0.017064 0.105508 -0.405557
v -0.057180 -0.338516 -0.024750
v 0.015822 0.079631 -0.431126
v 0.047843 -0.210000 -0.417266
v 0.351755 -0.044165 -0.228007
v -0.068239 -0.044165 -0.111036
v -0.327816 -0.044164 -0.417266
v -0.068239 -0.044164 -0.723497
v 0.351755 -0.044164 -0.606525
v 0.163925 0.224164 -0.111036
v -0.256069 0.224164 -0.228007
v -0.256069 0.224165 -0.606525
v 0.163925 0.224165 -0.723497
v 0.423501 0.224164 -0.417266
v 0.047843 0.390000 -0.417266
v 0.010605 -0.342216 -0.060158
v -0.376121 -0.042441 -0.208132
v 0.041480 -0.288970 -0.039263
v -0.358831 -0.012623 -0.196431
v 0.030875 -0.266754 0.020895
v -0.364769 -0.000182 -0.162742
v -0.010605 -0.297784 0.060158
v -0.387998 -0.017559 -0.140755
v -0.041480 -0.351030 0.039263
v -0.405288 -0.047377 -0.152456
v -0.030875 -0.373246 -0.020895
v -0.399350 -0.059818 -0.186145
v -0.382059 -0.330000 -0.174444
v -0.078147 -0.164165 0.014816
v -0.498141 -0.164165 0.131787
v -0.757718 -0.164165 -0.174444
v -0.498141 -0.164164 -0.480674
v -0.078148 -0.164165 -0.363703
v -0.265978 0.104164 0.131787
v -0.685971 0.104164 0.014816
v -0.685971 0.104164 -0.363703
v -0.265978 0.104164 -0.480674
v -0.006401 0.104164 -0.174444
v -0.382059 0.270000 -0.174444
v -0.009761 -0.285730 -0.054362
v -0.289435 0.109191 0.279011
v 0.043653 -0.275630 -0.018728
v -0.259523 0.114847 0.298967
v 0.053415 -0.309901 0.035635
v -0.254056 0.095656 0.329410
v 0.009761 -0.354270 0.054362
v -0.278502 0.070809 0.339897
v -0.043653 -0.364370 0.018728
v -0.308414 0.065153 0.319942
v -0.053415 -0.330099 -0.035635
v -0.313881 0.084344 0.289499
v -0.283969 -0.210000 0.309454
v 0.019943 -0.044165 0.498713
v -0.400050 -0.044165 0.615685
v -0.659627 -0.044165 0.309454
v -0.400050 -0.044165 0.003224
v 0.019943 -0.044165 0.120195
v -0.167887 0.224164 0.615685
v -0.587880 0.224164 0.498713
v -0.587880 0.224165 0.120195
v -0.167887 0.224164 0.003224
v 0.091690 0.224164 0.309454
v -0.283969 0.390000 0.309454
v 0.012019 -0.273427 -0.043721
v 0.213288 -0.003919 0.341213
v 0.056422 -0.319495 -0.032269
v 0.238154 -0.029717 0.347626
v 0.044403 -0.366068 0.011452
v 0.231423 -0.055798 0.372110
v -0.012019 -0.366573 0.043721
v 0.199827 -0.056081 0.390180
v -0.056422 -0.320505 0.032269
v 0.174961 -0.030283 0.383768
v -0.044403 -0.273932 -0.011452
v 0.181692 -0.004202 0.359284
v 0.206557 -0.330000 0.365697
v 0.510469 -0.164165 0.554956
v 0.090476 -0.164165 0.671927
v -0.169101 -0.164164 0.365697
v 0.090476 -0.164165 0.059466
v 0.510469 -0.164165 0.176438
v 0.322639 0.104164 0.671927
v -0.097355 0.104164 0.554956
v -0.097355 0.104164 0.176438
v 0.322639 0.104164 0.059466
v 0.582216 0.104164 0.365697
v 0.206557 0.270000 0.365697
vn 0.2586 -0.5166 -0.8162
vn 0.6236 -0.7780 0.0761
vn 0.4041 -0.2338 0.8843
vn -0.1805 0.5717 0.8004
vn 0.8065 0.5682 -0.1635
vn -0.5455 0.8331 -0.0919
vn -0.3259 0.2889 -0.9002
vn -0.8065 -0.5682 0.1635
vn 0.1428 -0.8467 0.5126
vn 0.4790 -0.8778 -0.0000
vn -0.3821 -0.8655 0.3239
vn -0.3821 -0.8655 -0.3239
vn 0.1428 -0.8467 -0.5126
vn 0.9661 -0.2583 -0.0000
vn 0.2613 -0.2261 0.9384
vn -0.7397 -0.2445 0.6270
vn -0.7397 -0.2445 -0.6270
vn 0.2613 -0.2261 -0.9384
vn 0.7397 0.2445 0.6270
vn -0.2613 0.2261 0.9384
vn -0.9661 0.2583 -0.0000
vn -0.2613 0.2261 -0.9384
vn 0.7397 0.2445 -0.6270
vn 0.3821 0.8655 0.3239
vn -0.1428 0.8467 0.5126
vn -0.4790 0.8778 -0.0000
vn -0.1428 0.8467 -0.5126
vn 0.3821 0.8655 -0.3239
vn 0.4715 -0.6264 -0.6207
vn 0.9986 -0.0520 0.0041
vn 0.5306 0.6039 0.5949
vn -0.4646 0.6853 0.5608
vn 0.0815 0.6985 -0.7109
vn -0.9918 0.1109 -0.0641
vn -0.5237 -0.5450 -0.6548
vn -0.0815 -0.6985 0.7109
vn 0.4258 0.1057 -0.8986
vn 0.6056 0.7752 -0.1795
vn 0.1436 0.6970 0.7025
vn -0.4984 -0.0507 0.8655
vn -0.7486 0.5682 -0.3418
vn -0.6782 -0.7201 0.1464
vn -0.2161 -0.6419 -0.7357
vn 0.7486 -0.5682 0.3418
vn 0.2804 0.7273 -0.6264
vn 0.8410 0.5128 0.1723
vn 0.5403 -0.1850 0.8209
vn -0.3212 -0.6684 0.6709
vn -0.4838 0.6985 0.5272
vn -0.8818 -0.4539 -0.1278
vn -0.5811 0.2440 -0.7764
vn 0.4838 -0.6985 -0.5272
vn 0.6268 0.4452 -0.6394
vn 0.9141 -0.3767 -0.1500
vn 0.3069 -0.7944 0.5242
vn -0.5876 -0.3901 0.7089
vn 0.4047 0.5682 0.7165
vn -0.8749 0.4318 0.2194
vn -0.2677 0.8494 -0.4548
vn -0.4047 -0.5682 -0.7165
vt 1.000000 1.000000
vt 0.833333 0.500000
vt 1.000000 0.500000
vt 0.833333 1.000000
vt 0.666667 0.500000
vt 0.500000 1.000000
vt 0.500000 0.500000
vt 0.333333 1.000000
vt 0.333333 0.500000
vt 0.250000 0.490000
vt 0.042154 0.130000
vt 0.457846 0.130000
vt 0.166667 0.500000
vt 0.166667 1.000000
vt -0.000000 0.500000
vt 0.957846 0.370000
vt 0.750000 0.010000
vt 0.542154 0.370000
vt 0.181819 0.000000
vt 0.272728 0.157461
vt 0.090910 0.157461
vt 0.363637 0.000000
vt 0.454546 0.157461
vt 0.909091 0.000000
vt 1.000000 0.157461
vt 0.818182 0.157461
vt 0.727273 0.000000
vt 0.636364 0.157461
vt 0.545455 0.000000
vt 0.363637 0.314921
vt 0.181819 0.314921
vt 0.909091 0.314921
vt 0.727273 0.314921
vt 0.545455 0.314921
vt 0.000000 0.314921
vt 0.272728 0.472382
vt 0.090910 0.472382
vt 0.818182 0.472382
vt 0.636364 0.472382
vt 0.454546 0.472382
vt 0.666667 1.000000
vt -0.000000 1.000000
vt 0.457846 0.370000
vt 0.042154 0.370000
vt 0.250000 0.010000
vt 0.750000 0.490000
vt 0.957846 0.130000
vt 0.542154 0.130000
s 0
usemtl military_environment_palette
f 2/1/1 3/2/1 1/3/1
f 4/4/2 5/5/2 3/2/2
f 5/5/3 8/6/3 7/7/3
f 7/7/4 10/8/4 9/9/4
f 2/10/5 10/11/5 6/12/5
f 10/8/6 11/13/6 9/9/6
f 12/14/7 1/15/7 11/13/7
f 3/16/8 7/17/8 11/18/8
f 13/19/9 14/20/9 15/21/9
f 14/20/10 13/22/10 18/23/10
f 13/24/11 15/25/11 16/26/11
f 13/27/12 16/26/12 17/28/12
f 13/29/13 17/28/13 18/23/13
f 14/20/14 18/23/14 23/30/14
f 15/21/15 14/20/15 19/31/15
f 16/26/16 15/25/16 20/32/16
f 17/28/17 16/26/17 21/33/17
f 18/23/18 17/28/18 22/34/18
f 14/20/19 23/30/19 19/31/19
f 15/21/20 19/31/20 20/35/20
f 16/26/21 20/32/21 21/33/21
f 17/28/22 21/33/22 22/34/22
f 18/23/23 22/34/23 23/30/23
f 19/31/24 23/30/24 24/36/24
f 20/35/25 19/31/25 24/37/25
f 21/33/26 20/32/26 24/38/26
f 22/34/27 21/33/27 24/39/27
f 23/30/28 22/34/28 24/40/28
f 26/1/29 27/2/29 25/3/29
f 28/4/30 29/5/30 27/2/30
f 30/41/31 31/7/31 29/5/31
f 32/6/32 33/9/32 31/7/32
f 26/10/33 34/11/33 30/12/33
f 33/9/34 36/14/34 35/13/34
f 35/13/35 26/42/35 25/15/35
f 27/16/36 31/17/36 35/18/36
f 37/19/9 38/20/9 39/21/9
f 38/20/10 37/22/10 42/23/10
f 37/24/11 39/25/11 40/26/11
f 37/27/12 40/26/12 41/28/12
f 37/29/13 41/28/13 42/23/13
f 38/20/14 42/23/14 47/30/14
f 39/21/15 38/20/15 43/31/15
f 40/26/16 39/25/16 44/32/16
f 41/28/17 40/26/17 45/33/17
f 42/23/18 41/28/18 46/34/18
f 38/20/19 47/30/19 43/31/19
f 39/21/20 43/31/20 44/35/20
f 40/26/21 44/32/21 45/33/21
f 41/28/22 45/33/22 46/34/22
f 42/23/23 46/34/23 47/30/23
f 43/31/24 47/30/24 48/36/24
f 44/35/25 43/31/25 48/37/25
f 45/33/26 44/32/26 48/38/26
f 46/34/27 45/33/27 48/39/27
f 47/30/28 46/34/28 48/40/28
f 49/3/37 52/4/37 51/2/37
f 51/2/38 54/41/38 53/5/38
f 53/5/39 56/6/39 55/7/39
f 55/7/40 58/8/40 57/9/40
f 50/10/41 58/11/41 54/12/41
f 58/8/42 59/13/42 57/9/42
f 60/14/43 49/15/43 59/13/43
f 51/16/44 55/17/44 59/18/44
f 61/19/9 62/20/9 63/21/9
f 62/20/10 61/22/10 66/23/10
f 61/24/11 63/25/11 64/26/11
f 61/27/12 64/26/12 65/28/12
f 61/29/13 65/28/13 66/23/13
f 62/20/14 66/23/14 71/30/14
f 63/21/15 62/20/15 67/31/15
f 64/26/16 63/25/16 68/32/16
f 65/28/17 64/26/17 69/33/17
f 66/23/18 65/28/18 70/34/18
f 62/20/19 71/30/19 67/31/19
f 63/21/20 67/31/20 68/35/20
f 64/26/21 68/32/21 69/33/21
f 65/28/22 69/33/22 70/34/22
f 66/23/23 70/34/23 71/30/23
f 67/31/24 71/30/24 72/36/24
f 68/35/25 67/31/25 72/37/25
f 69/33/26 68/32/26 72/38/26
f 70/34/27 69/33/27 72/39/27
f 71/30/28 70/34/28 72/40/28
f 73/3/45 76/4/45 75/2/45
f 76/4/46 77/5/46 75/2/46
f 78/41/47 79/7/47 77/5/47
f 79/7/48 82/8/48 81/9/48
f 74/10/49 82/11/49 78/12/49
f 81/9/50 84/14/50 83/13/50
f 83/13/51 74/42/51 73/15/51
f 75/16/52 79/17/52 83/18/52
f 85/19/9 86/20/9 87/21/9
f 86/20/10 85/22/10 90/23/10
f 85/24/11 87/25/11 88/26/11
f 85/27/12 88/26/12 89/28/12
f 85/29/13 89/28/13 90/23/13
f 86/20/14 90/23/14 95/30/14
f 87/21/15 86/20/15 91/31/15
f 88/26/16 87/25/16 92/32/16
f 89/28/17 88/26/17 93/33/17
f 90/23/18 89/28/18 94/34/18
f 86/20/19 95/30/19 91/31/19
f 87/21/20 91/31/20 92/35/20
f 88/26/21 92/32/21 93/33/21
f 89/28/22 93/33/22 94/34/22
f 90/23/23 94/34/23 95/30/23
f 91/31/24 95/30/24 96/36/24
f 92/35/25 91/31/25 96/37/25
f 93/33/26 92/32/26 96/38/26
f 94/34/27 93/33/27 96/39/27
f 95/30/28 94/34/28 96/40/28
f 98/1/53 99/2/53 97/3/53
f 100/4/54 101/5/54 99/2/54
f 101/5/55 104/6/55 103/7/55
f 104/6/56 105/9/56 103/7/56
f 98/10/57 106/11/57 102/12/57
f 106/8/58 107/13/58 105/9/58
f 108/14/59 97/15/59 107/13/59
f 99/16/60 103/17/60 107/18/60
f 109/19/9 110/20/9 111/21/9
f 110/20/10 109/22/10 114/23/10
f 109/24/11 111/25/11 112/26/11
f 109/27/12 112/26/12 113/28/12
f 109/29/13 113/28/13 114/23/13
f 110/20/14 114/23/14 119/30/14
f 111/21/15 110/20/15 115/31/15
f 112/26/16 111/25/16 116/32/16
f 113/28/17 112/26/17 117/33/17
f 114/23/18 113/28/18 118/34/18
f 110/20/19 119/30/19 115/31/19
f 111/21/20 115/31/20 116/35/20
f 112/26/21 116/32/21 117/33/21
f 113/28/22 117/33/22 118/34/22
f 114/23/23 118/34/23 119/30/23
f 115/31/24 119/30/24 120/36/24
f 116/35/25 115/31/25 120/37/25
f 117/33/26 116/32/26 120/38/26
f 118/34/27 117/33/27 120/39/27
f 119/30/28 118/34/28 120/40/28
f 2/1/1 4/4/1 3/2/1
f 4/4/2 6/41/2 5/5/2
f 5/5/3 6/41/3 8/6/3
f 7/7/4 8/6/4 10/8/4
f 6/12/5 4/43/5 2/10/5
f 2/10/5 12/44/5 10/11/5
f 10/11/5 8/45/5 6/12/5
f 10/8/6 12/14/6 11/13/6
f 12/14/7 2/42/7 1/15/7
f 11/18/8 1/46/8 3/16/8
f 3/16/8 5/47/8 7/17/8
f 7/17/8 9/48/8 11/18/8
f 26/1/29 28/4/29 27/2/29
f 28/4/30 30/41/30 29/5/30
f 30/41/31 32/6/31 31/7/31
f 32/6/32 34/8/32 33/9/32
f 30/12/33 28/43/33 26/10/33
f 26/10/33 36/44/33 34/11/33
f 34/11/33 32/45/33 30/12/33
f 33/9/34 34/8/34 36/14/34
f 35/13/35 36/14/35 26/42/35
f 35/18/36 25/46/36 27/16/36
f 27/16/36 29/47/36 31/17/36
f 31/17/36 33/48/36 35/18/36
f 49/3/37 50/1/37 52/4/37
f 51/2/38 52/4/38 54/41/38
f 53/5/39 54/41/39 56/6/39
f 55/7/40 56/6/40 58/8/40
f 54/12/41 52/43/41 50/10/41
f 50/10/41 60/44/41 58/11/41
f 58/11/41 56/45/41 54/12/41
f 58/8/42 60/14/42 59/13/42
f 60/14/43 50/42/43 49/15/43
f 59/18/44 49/46/44 51/16/44
f 51/16/44 53/47/44 55/17/44
f 55/17/44 57/48/44 59/18/44
f 73/3/45 74/1/45 76/4/45
f 76/4/46 78/41/46 77/5/46
f 78/41/47 80/6/47 79/7/47
f 79/7/48 80/6/48 82/8/48
f 78/12/49 76/43/49 74/10/49
f 74/10/49 84/44/49 82/11/49
f 82/11/49 80/45/49 78/12/49
f 81/9/50 82/8/50 84/14/50
f 83/13/51 84/14/51 74/42/51
f 83/18/52 73/46/52 75/16/52
f 75/16/52 77/47/52 79/17/52
f 79/17/52 81/48/52 83/18/52
f 98/1/53 100/4/53 99/2/53
f 100/4/54 102/41/54 101/5/54
f 101/5/55 102/41/55 104/6/55
f 104/6/56 106/8/56 105/9/56
f 102/12/57 100/43/57 98/10/57
f 98/10/57 108/44/57 106/11/57
f 106/11/57 104/45/57 102/12/57
f 106/8/58 108/14/58 107/13/58
f 108/14/59 98/42/59 97/15/59
f 107/18/60 97/46/60 99/16/60
f 99/16/60 101/47/60 103/17/60
f 103/17/60 105/48/60 107/18/60
