# Blender 5.2.1 LTS
# www.blender.org
mtllib spruceTrees.mtl
o spruceTrees
v 0.000000 0.000000 -0.320000
v 0.000000 5.300000 -0.130000
v 0.250186 0.000000 -0.199517
v 0.101638 5.300000 -0.081054
v 0.311977 0.000000 0.071207
v 0.126741 5.300000 0.028928
v 0.138843 0.000000 0.288310
v 0.056405 5.300000 0.117126
v -0.138843 0.000000 0.288310
v -0.056405 5.300000 0.117126
v -0.311977 0.000000 0.071207
v -0.126741 5.300000 0.028928
v -0.250186 0.000000 -0.199517
v -0.101638 5.300000 -0.081054
v 0.000000 0.490000 -2.120000
v 1.499066 0.490000 -1.499066
v 2.120000 0.490000 0.000000
v 1.499066 0.490000 1.499066
v 0.000000 0.490000 2.120000
v -1.499066 0.490000 1.499066
v -2.120000 0.490000 0.000000
v -1.499066 0.490000 -1.499066
v 0.000000 2.210000 0.000000
v -0.000000 1.350000 -0.075000
v 1.526400 1.430000 -0.042000
v 0.003399 1.285137 -0.037500
v 1.528304 1.393677 -0.021000
v 0.003399 1.285137 0.037500
v 1.528304 1.393677 0.021000
v -0.000000 1.350000 0.075000
v 1.526400 1.430000 0.042000
v -0.003400 1.414863 0.037500
v 1.524496 1.466323 0.021000
v -0.003400 1.414863 -0.037500
v 1.524496 1.466323 -0.021000
v -0.020888 1.278769 -0.010712
v 0.459986 1.390110 -1.457692
v 0.048630 1.294341 0.012734
v 0.498916 1.398831 -1.444562
v 0.069518 1.365572 0.023446
v 0.510614 1.438720 -1.438563
v 0.020888 1.421232 0.010712
v 0.483381 1.469890 -1.445694
v -0.048630 1.405660 -0.012734
v 0.444451 1.461169 -1.458823
v -0.069518 1.334428 -0.023446
v 0.432753 1.421280 -1.464823
v 0.033798 1.305977 -0.050444
v -1.215957 1.405347 -0.925444
v 0.041564 1.380463 -0.054492
v -1.211607 1.447060 -0.927711
v 0.007766 1.424487 -0.004048
v -1.230534 1.471713 -0.899462
v -0.033798 1.394024 0.050444
v -1.253810 1.454653 -0.868947
v -0.041564 1.319537 0.054492
v -1.258160 1.412940 -0.866680
v -0.007766 1.275513 0.004048
v -1.239233 1.388287 -0.894929
v -0.033798 1.394024 -0.050444
v -1.253810 1.454653 0.868947
v 0.007766 1.424487 0.004048
v -1.230534 1.471713 0.899462
v 0.041564 1.380463 0.054492
v -1.211607 1.447060 0.927711
v 0.033798 1.305977 0.050444
v -1.215957 1.405347 0.925444
v -0.007766 1.275513 -0.004048
v -1.239233 1.388287 0.894929
v -0.041564 1.319537 -0.054492
v -1.258160 1.412940 0.866680
v 0.020888 1.421232 -0.010712
v 0.483381 1.469890 1.445694
v 0.069518 1.365572 -0.023446
v 0.510614 1.438720 1.438563
v 0.048630 1.294341 -0.012734
v 0.498916 1.398831 1.444562
v -0.020888 1.278769 0.010712
v 0.459986 1.390110 1.457692
v -0.069518 1.334428 0.023446
v 0.432753 1.421280 1.464823
v -0.048630 1.405660 0.012734
v 0.444451 1.461169 1.458823
v 0.000000 1.390000 -1.835000
v 1.297541 1.390000 -1.297541
v 1.835000 1.390000 0.000000
v 1.297541 1.390000 1.297541
v 0.000000 1.390000 1.835000
v -1.297541 1.390000 1.297541
v -1.835000 1.390000 0.000000
v -1.297541 1.390000 -1.297541
v 0.000000 3.110000 0.000000
v -0.022155 2.225034 -0.067163
v 1.233161 2.316019 -0.478214
v -0.000365 2.176395 -0.014395
v 1.245363 2.288781 -0.448664
v 0.021790 2.201361 0.052768
v 1.257770 2.302762 -0.411053
v 0.022155 2.274966 0.067163
v 1.257974 2.343981 -0.402992
v 0.000365 2.323605 0.014395
v 1.245772 2.371218 -0.432542
v -0.021790 2.298639 -0.052768
v 1.233365 2.357238 -0.470153
v 0.001820 2.175162 -0.004580
v -0.033118 2.288091 -1.323324
v 0.065821 2.214256 -0.003866
v 0.002723 2.309983 -1.322924
v 0.064001 2.289094 0.000714
v 0.001704 2.351892 -1.320359
v -0.001820 2.324838 0.004580
v -0.035156 2.371909 -1.318194
v -0.065821 2.285744 0.003866
v -0.070997 2.350016 -1.318594
v -0.064001 2.210906 -0.000714
v -0.069978 2.308107 -1.321159
v 0.019210 2.228714 -0.069303
v -1.255908 2.318079 -0.414480
v 0.018464 2.301514 -0.051287
v -1.256325 2.358848 -0.404392
v -0.000745 2.322800 0.018015
v -1.267082 2.370768 -0.365582
v -0.019210 2.271286 0.069303
v -1.277423 2.341920 -0.336861
v -0.018464 2.198486 0.051287
v -1.277005 2.301152 -0.346950
v 0.000745 2.177200 -0.018015
v -1.266248 2.289232 -0.385759
v -0.032902 2.311682 -0.027162
v -0.767130 2.364542 1.073371
v 0.028904 2.317581 0.014913
v -0.732519 2.367845 1.096933
v 0.061805 2.255899 0.042075
v -0.714094 2.333303 1.112144
v 0.032902 2.188318 0.027162
v -0.730280 2.295458 1.103792
v -0.028903 2.182419 -0.014913
v -0.764891 2.292154 1.080230
v -0.061805 2.244101 -0.042075
v -0.783316 2.326696 1.065020
v 0.034027 2.309408 -0.030624
v 0.822995 2.363268 1.031302
v 0.059369 2.240254 -0.044780
v 0.837187 2.324542 1.023374
v 0.025343 2.180845 -0.014156
v 0.818132 2.291273 1.040524
v -0.034027 2.190592 0.030624
v 0.784885 2.296731 1.065601
v -0.059370 2.259747 0.044780
v 0.770693 2.335458 1.073528
v -0.025343 2.319155 0.014156
v 0.789748 2.368726 1.056379
v 0.000000 2.290000 -1.550000
v 1.096015 2.290000 -1.096015
v 1.550000 2.290000 0.000000
v 1.096015 2.290000 1.096015
v 0.000000 2.290000 1.550000
v -1.096015 2.290000 1.096015
v -1.550000 2.290000 0.000000
v -1.096015 2.290000 -1.096015
v 0.000000 4.010000 0.000000
v -0.034048 3.102961 -0.047467
v 0.848704 3.203658 -0.728314
v 0.011465 3.076105 0.005753
v 0.874191 3.188619 -0.698511
v 0.045513 3.123144 0.053220
v 0.893258 3.214961 -0.671930
v 0.034048 3.197039 0.047467
v 0.886838 3.256342 -0.675152
v -0.011465 3.223895 -0.005753
v 0.861351 3.271381 -0.704955
v -0.045513 3.176856 -0.053220
v 0.842284 3.245039 -0.731536
v 0.023263 3.080143 -0.014274
v -0.386204 3.190880 -1.050140
v 0.068866 3.138247 -0.027284
v -0.360667 3.223418 -1.057426
v 0.045603 3.208105 -0.013009
v -0.373694 3.262539 -1.049432
v -0.023263 3.219858 0.014274
v -0.412259 3.269120 -1.034153
v -0.068866 3.161753 0.027284
v -0.437797 3.236581 -1.026868
v -0.045603 3.091895 0.013009
v -0.424769 3.197461 -1.034862
v -0.003593 3.153865 -0.074814
v -1.116522 3.232164 0.015755
v 0.003009 3.216631 -0.034296
v -1.112825 3.267313 0.038445
v 0.006601 3.212767 0.040518
v -1.110813 3.265150 0.080341
v 0.003593 3.146136 0.074814
v -1.112498 3.227836 0.099547
v -0.003009 3.083369 0.034296
v -1.116195 3.192686 0.076857
v -0.006601 3.087233 -0.040518
v -1.118207 3.194850 0.034961
v -0.017450 3.222246 -0.010051
v -0.299345 3.270458 1.072149
v 0.052166 3.202933 0.010087
v -0.260360 3.259643 1.083426
v 0.069617 3.130687 0.020138
v -0.250588 3.219185 1.089054
v 0.017450 3.077754 0.010051
v -0.279801 3.189542 1.083406
v -0.052166 3.097067 -0.010087
v -0.318787 3.200357 1.072129
v -0.069617 3.169313 -0.020138
v -0.328559 3.240815 1.066500
v 0.031828 3.190786 -0.054300
v 0.953367 3.252840 0.578044
v 0.038484 3.116083 -0.054714
v 0.957095 3.211006 0.577812
v 0.006657 3.075297 -0.000414
v 0.939272 3.188166 0.608220
v -0.031828 3.109214 0.054300
v 0.917720 3.207160 0.638860
v -0.038485 3.183917 0.054714
v 0.913993 3.248993 0.639092
v -0.006657 3.224703 0.000413
v 0.931816 3.271833 0.608684
v 0.000000 3.190000 -1.265000
v 0.894490 3.190000 -0.894490
v 1.265000 3.190000 0.000000
v 0.894490 3.190000 0.894490
v 0.000000 3.190000 1.265000
v -0.894490 3.190000 0.894490
v -1.265000 3.190000 0.000000
v -0.894490 3.190000 -0.894490
v 0.000000 4.910000 0.000000
v -0.030521 3.986337 -0.025308
v 0.459590 4.094349 -0.790273
v 0.033457 3.984305 0.013778
v 0.495418 4.093211 -0.768385
v 0.063978 4.047968 0.039086
v 0.512509 4.128862 -0.754212
v 0.030521 4.113663 0.025308
v 0.493773 4.165651 -0.761927
v -0.033457 4.115695 -0.013778
v 0.457946 4.166789 -0.783816
v -0.063978 4.052032 -0.039086
v 0.440854 4.131138 -0.797988
v 0.033787 3.993139 -0.035359
v -0.571892 4.098158 -0.712981
v 0.056906 4.063541 -0.046940
v -0.558945 4.137583 -0.719466
v 0.023120 4.120402 -0.011580
v -0.577865 4.169425 -0.699664
v -0.033787 4.106861 0.035359
v -0.609733 4.161842 -0.673378
v -0.056906 4.036460 0.046940
v -0.622680 4.122417 -0.666893
v -0.023120 3.979599 0.011580
v -0.603759 4.090575 -0.686694
v -0.024147 4.078521 -0.065027
v -0.855346 4.145972 0.311277
v 0.002247 4.124063 -0.011601
v -0.840566 4.171475 0.341195
v 0.026394 4.095542 0.053425
v -0.827043 4.155504 0.377610
v 0.024147 4.021479 0.065027
v -0.828301 4.114028 0.384107
v -0.002247 3.975937 0.011601
v -0.843082 4.088525 0.354188
v -0.026394 4.004458 -0.053425
v -0.856604 4.104496 0.317773
v 0.005284 4.124488 -0.006973
v 0.073496 4.171713 0.904160
v 0.067239 4.082233 -0.008063
v 0.108190 4.148051 0.903549
v 0.061954 4.007745 -0.001090
v 0.105231 4.106338 0.907454
v -0.005284 3.975512 0.006973
v 0.067577 4.088287 0.911969
v -0.067239 4.017767 0.008063
v 0.032883 4.111949 0.912580
v -0.061954 4.092255 0.001090
v 0.035842 4.153663 0.908675
v 0.015597 4.067515 -0.071239
v 0.894152 4.139809 0.173630
v 0.016739 3.995858 -0.049127
v 0.894792 4.099680 0.186012
v 0.001142 3.978343 0.022112
v 0.886057 4.089872 0.225906
v -0.015597 4.032485 0.071239
v 0.876683 4.120192 0.253417
v -0.016739 4.104142 0.049127
v 0.876044 4.160320 0.241034
v -0.001142 4.121657 -0.022112
v 0.884778 4.170128 0.201140
v 0.000000 4.090000 -0.980000
v 0.692965 4.090000 -0.692965
v 0.980000 4.090000 0.000000
v 0.692965 4.090000 0.692965
v 0.000000 4.090000 0.980000
v -0.692965 4.090000 0.692965
v -0.980000 4.090000 0.000000
v -0.692965 4.090000 -0.692965
v 0.000000 5.810000 0.000000
v -0.013617 4.877127 -0.011363
v 0.140013 4.989191 -0.696344
v 0.055620 4.900059 0.006111
v 0.178786 5.002033 -0.686559
v 0.069237 4.972932 0.017474
v 0.186412 5.042842 -0.680196
v 0.013617 5.022872 0.011363
v 0.155264 5.070809 -0.683618
v -0.055620 4.999940 -0.006111
v 0.116491 5.057967 -0.693403
v -0.069237 4.927067 -0.017474
v 0.108866 5.017158 -0.699767
v 0.028862 4.912651 -0.058284
v -0.594425 5.009085 -0.386268
v 0.036225 4.987173 -0.054138
v -0.590302 5.050817 -0.383946
v 0.007363 5.024522 0.004147
v -0.606465 5.071733 -0.351307
v -0.028862 4.987349 0.058284
v -0.626751 5.050915 -0.320990
v -0.036225 4.912826 0.054138
v -0.630874 5.009183 -0.323312
v -0.007363 4.875477 -0.004147
v -0.614711 4.988267 -0.355951
v -0.033083 4.999790 -0.045293
v -0.543530 5.057882 0.446063
v 0.016503 5.022915 0.006005
v -0.515761 5.070832 0.474789
v 0.049586 4.973125 0.051297
v -0.497235 5.042950 0.500153
v 0.033083 4.900209 0.045293
v -0.506476 5.002117 0.496791
v -0.016503 4.877085 -0.006005
v -0.534245 4.989167 0.468064
v -0.049586 4.926875 -0.051297
v -0.552772 5.017050 0.442700
v 0.024668 5.018120 -0.019392
v 0.299933 5.068148 0.634127
v 0.067809 4.957890 -0.031059
v 0.324092 5.034419 0.627593
v 0.043141 4.889769 -0.011667
v 0.310278 4.996271 0.638453
v -0.024668 4.881879 0.019392
v 0.272304 4.991852 0.655846
v -0.067809 4.942109 0.031059
v 0.248145 5.025581 0.662380
v -0.043141 5.010230 0.011667
v 0.261959 5.063729 0.651520
v -0.006830 4.942310 -0.074292
v 0.698009 5.025694 -0.114406
v 0.004516 4.881961 -0.031231
v 0.704363 4.991899 -0.090292
v 0.011346 4.889650 0.043061
v 0.708188 4.996204 -0.048689
v 0.006830 4.957689 0.074292
v 0.705659 5.034306 -0.031200
v -0.004516 5.018038 0.031231
v 0.699305 5.068101 -0.055314
v -0.011346 5.010349 -0.043061
v 0.695480 5.063796 -0.096917
v 0.000000 4.990000 -0.695000
v 0.491439 4.990000 -0.491439
v 0.695000 4.990000 0.000000
v 0.491439 4.990000 0.491439
v 0.000000 4.990000 0.695000
v -0.491439 4.990000 0.491439
v -0.695000 4.990000 0.000000
v -0.491439 4.990000 -0.491439
v 0.000000 6.710000 0.000000
v 0.008070 5.776558 -0.012888
v -0.059955 5.888872 -0.503447
v 0.068079 5.821543 -0.013433
v -0.026350 5.914063 -0.503752
v 0.060009 5.894985 -0.000544
v -0.030869 5.955192 -0.496534
v -0.008070 5.923442 0.012889
v -0.068993 5.971128 -0.489012
v -0.068079 5.878457 0.013433
v -0.102598 5.945936 -0.488707
v -0.060009 5.805015 0.000545
v -0.098079 5.904808 -0.495924
v 0.011417 5.836380 -0.072864
v -0.485472 5.922373 -0.132829
v 0.017812 5.906234 -0.046320
v -0.481891 5.961491 -0.117964
v 0.006395 5.919853 0.026544
v -0.488284 5.969118 -0.077160
v -0.011417 5.863620 0.072864
v -0.498259 5.937627 -0.051221
v -0.017812 5.793766 0.046320
v -0.501840 5.898509 -0.066086
v -0.006395 5.780147 -0.026544
v -0.495447 5.890882 -0.106890
v -0.026543 5.915025 -0.026310
v -0.254380 5.966413 0.424621
v 0.039149 5.913212 0.009832
v -0.217593 5.965398 0.444860
v 0.065692 5.848186 0.036142
v -0.202728 5.928985 0.459594
v 0.026543 5.784975 0.026310
v -0.224651 5.893586 0.454088
v -0.039149 5.786788 -0.009832
v -0.261439 5.894601 0.433849
v -0.065692 5.851813 -0.036142
v -0.276303 5.931015 0.419115
v 0.031531 5.903807 -0.041660
v 0.361494 5.960132 0.340231
v 0.054892 5.832833 -0.048137
v 0.374576 5.920386 0.336604
v 0.023361 5.779026 -0.006476
v 0.356919 5.890254 0.359934
v -0.031531 5.796193 0.041660
v 0.326179 5.899868 0.386891
v -0.054892 5.867167 0.048137
v 0.313097 5.939613 0.390518
v -0.023361 5.920974 0.006476
v 0.330754 5.969745 0.367188
v -0.024475 5.818230 -0.063377
v 0.438313 5.912209 -0.250153
v 0.008082 5.776178 -0.010493
v 0.456544 5.888660 -0.220537
v 0.032557 5.807949 0.052884
v 0.470250 5.906451 -0.185046
v 0.024475 5.881770 0.063377
v 0.465724 5.947791 -0.179170
v -0.008082 5.923821 0.010493
v 0.447492 5.971340 -0.208785
v -0.032557 5.892051 -0.052884
v 0.433787 5.953548 -0.244277
vn 0.4337 0.0323 -0.9005
vn 0.9744 0.0323 -0.2224
vn 0.7814 0.0323 0.6232
vn -0.0000 0.0323 0.9995
vn -0.7814 0.0323 0.6232
vn -0.0000 1.0000 -0.0000
vn -0.9744 0.0323 -0.2224
vn -0.4337 0.0323 -0.9005
vn -0.0000 -1.0000 -0.0000
vn 0.2525 0.7514 -0.6096
vn 0.6096 0.7514 -0.2525
vn 0.6096 0.7514 0.2525
vn 0.2525 0.7514 0.6096
vn -0.2525 0.7514 0.6096
vn -0.6096 0.7514 0.2525
vn -0.6096 0.7514 -0.2525
vn -0.2525 0.7514 -0.6096
vn 0.0448 -0.4982 -0.8659
vn 0.0710 -0.9975 -0.0000
vn 0.0448 -0.4982 0.8659
vn -0.0075 0.5002 0.8659
vn 0.9986 0.0523 -0.0000
vn -0.0337 0.9994 -0.0000
vn -0.0075 0.5002 -0.8659
vn -0.9986 -0.0523 -0.0000
vn 0.2193 -0.9757 -0.0022
vn 0.9151 -0.3076 0.2607
vn 0.7016 0.6691 0.2452
vn -0.2077 0.9776 -0.0333
vn 0.3086 0.0523 -0.9498
vn -0.9036 0.3095 -0.2962
vn -0.6901 -0.6671 -0.2807
vn -0.3086 -0.0523 0.9498
vn 0.5649 -0.1034 -0.8186
vn 0.3646 0.8087 -0.4615
vn -0.2155 0.9131 0.3461
vn -0.5951 0.1053 0.7967
vn -0.8079 0.0523 -0.5870
vn -0.3948 -0.8068 0.4396
vn 0.1853 -0.9112 -0.3681
vn 0.8079 -0.0523 0.5870
vn -0.2155 0.9131 -0.3461
vn 0.3646 0.8087 0.4615
vn 0.5649 -0.1034 0.8186
vn 0.1852 -0.9112 0.3681
vn -0.8079 0.0523 0.5870
vn -0.3948 -0.8068 -0.4396
vn -0.5951 0.1053 -0.7967
vn 0.8079 -0.0523 -0.5870
vn 0.7016 0.6691 -0.2452
vn 0.9151 -0.3076 -0.2607
vn 0.2193 -0.9757 0.0022
vn -0.6901 -0.6671 0.2807
vn 0.3086 0.0523 0.9498
vn -0.9036 0.3095 0.2962
vn -0.2077 0.9776 0.0333
vn -0.3086 -0.0523 -0.9498
vn 0.2725 0.7020 -0.6580
vn 0.6580 0.7020 -0.2725
vn 0.6580 0.7020 0.2725
vn 0.2725 0.7020 0.6580
vn -0.2725 0.7020 0.6580
vn -0.6580 0.7020 0.2725
vn -0.6580 0.7020 -0.2725
vn -0.2725 0.7020 -0.6580
vn -0.1530 -0.7573 -0.6349
vn 0.1852 -0.9395 0.2881
vn 0.3585 -0.1809 0.9158
vn 0.1936 0.7599 0.6205
vn 0.9410 0.0604 -0.3329
vn -0.1446 0.9421 -0.3025
vn -0.3179 0.1835 -0.9302
vn -0.9410 -0.0604 0.3329
vn 0.5200 -0.8498 -0.0865
vn 0.9986 0.0271 -0.0458
vn 0.4780 0.8781 0.0192
vn -0.5211 0.8524 0.0435
vn -0.0258 0.0604 -0.9978
vn -0.9997 -0.0245 0.0027
vn -0.4791 -0.8755 -0.0623
vn 0.0258 -0.0604 0.9978
vn 0.2693 0.2339 -0.9342
vn 0.1157 0.9581 -0.2622
vn -0.1742 0.7254 0.6659
vn -0.3106 -0.2313 0.9220
vn -0.9570 0.0604 -0.2838
vn -0.1570 -0.9554 0.2499
vn 0.1329 -0.7228 -0.6781
vn 0.9570 -0.0604 0.2838
vn -0.0430 0.9961 -0.0765
vn 0.6859 0.5668 0.4563
vn 0.7167 -0.4280 0.5506
vn 0.0186 -0.9935 0.1120
vn -0.5656 0.0604 0.8224
vn -0.7103 -0.5642 -0.4208
vn -0.7411 0.4306 -0.5151
vn 0.5657 -0.0604 -0.8224
vn 0.7319 0.3835 -0.5632
vn 0.6651 -0.6059 -0.4365
vn -0.0537 -0.9881 0.1438
vn -0.7057 -0.3809 0.5974
vn 0.6074 0.0604 0.7921
vn -0.6389 0.6085 0.4707
vn 0.0799 0.9908 -0.1096
vn -0.6074 -0.0604 -0.7921
vn 0.2941 0.6398 -0.7100
vn 0.7100 0.6398 -0.2941
vn 0.7100 0.6398 0.2941
vn 0.2941 0.6398 0.7100
vn -0.2941 0.6398 0.7100
vn -0.7100 0.6398 0.2941
vn -0.7100 0.6398 -0.2941
vn -0.2941 0.6398 -0.7100
vn -0.1540 -0.9288 -0.3370
vn 0.4583 -0.7735 0.4378
vn 0.6321 0.1571 0.7588
vn 0.1936 0.9325 0.3050
vn 0.7756 0.0715 -0.6272
vn -0.4187 0.7772 -0.4698
vn -0.5925 -0.1535 -0.7908
vn -0.7756 -0.0715 0.6272
vn 0.6999 -0.6262 -0.3436
vn 0.8718 0.3585 -0.3339
vn 0.1628 0.9866 -0.0140
vn -0.7181 0.6299 0.2960
vn -0.3568 0.0715 -0.9314
vn -0.8900 -0.3549 0.2863
vn -0.1810 -0.9829 -0.0335
vn 0.3568 -0.0715 0.9314
vn -0.0299 0.5443 -0.8383
vn 0.0485 0.9976 0.0492
vn 0.0530 0.4551 0.8889
vn -0.0209 -0.5407 0.8410
vn -0.9961 0.0715 0.0515
vn -0.0994 -0.9940 -0.0466
vn -0.1039 -0.4515 -0.8862
vn 0.9961 -0.0715 -0.0515
vn 0.2605 0.9651 0.0249
vn 0.9306 0.2606 0.2572
vn 0.6634 -0.7028 0.2569
vn -0.2738 -0.9615 0.0243
vn -0.2588 0.0715 0.9633
vn -0.9438 -0.2569 -0.2080
vn -0.6766 0.7064 -0.2077
vn 0.2588 -0.0715 -0.9633
vn 0.5624 0.0547 -0.8250
vn 0.3687 -0.8341 -0.4103
vn -0.1723 -0.8869 0.4286
vn -0.5197 -0.0510 0.8528
vn 0.8362 0.0715 0.5438
vn -0.3260 0.8377 0.4381
vn 0.2150 0.8906 -0.4008
vn -0.8362 -0.0715 -0.5438
vn 0.3165 0.5620 -0.7642
vn 0.7642 0.5620 -0.3165
vn 0.7642 0.5620 0.3165
vn 0.3165 0.5620 0.7642
vn -0.3165 0.5620 0.7642
vn -0.7642 0.5620 0.3165
vn -0.7642 0.5620 -0.3165
vn -0.3165 0.5620 -0.7642
vn 0.0389 -0.9926 -0.1152
vn 0.7660 -0.5184 0.3802
vn 0.7434 0.4769 0.4689
vn -0.0063 0.9980 0.0622
vn 0.5214 0.0875 -0.8488
vn -0.7334 0.5238 -0.4333
vn -0.7108 -0.4715 -0.5220
vn -0.5214 -0.0875 0.8488
vn 0.6776 -0.3306 -0.6569
vn 0.5955 0.6486 -0.4740
vn -0.1023 0.9819 0.1593
vn -0.7180 0.3361 0.6095
vn -0.6462 0.0875 -0.7581
vn -0.6359 -0.6431 0.4266
vn 0.0619 -0.9765 -0.2066
vn 0.6462 -0.0875 0.7581
vn -0.1973 0.7920 -0.5777
vn 0.1916 0.9230 0.3337
vn 0.3601 0.1337 0.9233
vn 0.1397 -0.7866 0.6015
vn -0.9207 0.0875 0.3803
vn -0.2491 -0.9175 -0.3099
vn -0.4176 -0.1282 -0.8995
vn 0.9207 -0.0875 -0.3803
vn 0.5604 0.8239 -0.0847
vn 0.9965 -0.0744 -0.0394
vn 0.4384 -0.8955 0.0763
vn -0.5556 -0.8184 0.1467
vn 0.0771 0.0875 0.9932
vn -0.9916 0.0798 0.1015
vn -0.4336 0.9010 -0.0142
vn -0.0771 -0.0875 -0.9932
vn 0.2791 -0.2791 -0.9188
vn 0.1678 -0.9652 -0.2006
vn -0.0810 -0.6834 0.7256
vn -0.2185 0.2846 0.9334
vn 0.9684 0.0875 0.2335
vn -0.1073 0.9707 0.2152
vn 0.1415 0.6888 -0.7110
vn -0.9684 -0.0875 -0.2335
vn 0.3386 0.4658 -0.8175
vn 0.8175 0.4658 -0.3386
vn 0.8175 0.4658 0.3386
vn 0.3386 0.4658 0.8175
vn -0.3386 0.4658 0.8175
vn -0.8175 0.4658 0.3386
vn -0.8175 0.4658 -0.3386
vn -0.3386 0.4658 -0.8175
vn 0.3314 -0.9401 -0.0795
vn 0.9687 -0.2032 0.1423
vn 0.6456 0.7415 0.1827
vn -0.3147 0.9492 0.0013
vn 0.2079 0.1127 -0.9716
vn -0.9520 0.2123 -0.2205
vn -0.6289 -0.7324 -0.2609
vn -0.2079 -0.1127 0.9716
vn 0.4661 0.0032 -0.8847
vn 0.3007 0.8637 -0.4045
vn -0.1999 0.8650 0.4602
vn -0.5352 0.0059 0.8447
vn -0.8598 0.1127 -0.4980
vn -0.3698 -0.8546 0.3645
vn 0.1308 -0.8560 -0.5002
vn 0.8598 -0.1127 0.4980
vn -0.1573 0.9483 -0.2755
vn 0.4786 0.7432 0.4675
vn 0.6061 -0.2006 0.7696
vn 0.0978 -0.9393 0.3289
vn -0.7393 0.1127 0.6639
vn -0.5381 -0.7342 -0.4141
vn -0.6656 0.2096 -0.7163
vn 0.7393 -0.1127 -0.6639
vn 0.7275 0.5892 -0.3515
vn 0.8696 -0.3981 -0.2921
vn 0.1583 -0.9827 0.0959
vn -0.6951 -0.5801 0.4246
vn 0.4029 0.1127 0.9083
vn -0.8372 0.4071 0.3652
vn -0.1259 0.9918 -0.0229
vn -0.4029 -0.1127 -0.9083
vn 0.0219 -0.5779 -0.8158
vn 0.1617 -0.9830 0.0869
vn 0.1795 -0.4005 0.8985
vn 0.0575 0.5870 0.8075
vn 0.9883 0.1127 -0.1025
vn -0.0823 0.9921 -0.0951
vn -0.1001 0.4096 -0.9068
vn -0.9883 -0.1127 0.1025
vn 0.3585 0.3497 -0.8655
vn 0.8655 0.3497 -0.3585
vn 0.8655 0.3497 0.3585
vn 0.3585 0.3497 0.8655
vn -0.3585 0.3497 0.8655
vn -0.8655 0.3497 0.3585
vn -0.8655 0.3497 -0.3585
vn -0.3585 0.3497 -0.8655
vn 0.5781 -0.7743 -0.2574
vn 0.9773 0.1359 -0.1626
vn 0.3920 0.9191 0.0397
vn -0.5924 0.7921 0.1472
vn -0.1272 0.1579 -0.9792
vn -0.9916 -0.1181 0.0523
vn -0.4064 -0.9013 -0.1500
vn 0.1272 -0.1579 0.9792
vn 0.1700 0.3364 -0.9262
vn 0.1314 0.9780 -0.1622
vn -0.0932 0.6504 0.7538
vn -0.2793 -0.3186 0.9058
vn -0.9706 0.1579 -0.1816
vn -0.2407 -0.9602 0.1418
vn -0.0161 -0.6327 -0.7743
vn 0.9706 -0.1579 0.1816
vn 0.0703 0.9945 -0.0778
vn 0.7792 0.4808 0.4022
vn 0.6823 -0.5048 0.5288
vn -0.1235 -0.9767 0.1755
vn -0.4726 0.1579 0.8670
vn -0.8324 -0.4630 -0.3045
vn -0.7355 0.5226 -0.4312
vn 0.4726 -0.1579 -0.8670
vn 0.7024 0.2905 -0.6498
vn 0.6396 -0.6685 -0.3793
vn -0.0246 -0.9502 0.3108
vn -0.6260 -0.2727 0.7306
vn 0.6785 0.1579 0.7174
vn -0.5632 0.6863 0.4601
vn 0.1010 0.9679 -0.2300
vn -0.6785 -0.1579 -0.7174
vn -0.0758 -0.8027 -0.5916
vn 0.3626 -0.8817 0.3020
vn 0.4886 -0.0701 0.8697
vn 0.1762 0.8204 0.5439
vn 0.8920 0.1579 -0.4236
vn -0.2621 0.8995 -0.3497
vn -0.3881 0.0879 -0.9174
vn -0.8920 -0.1579 0.4236
vn -0.2078 0.9776 -0.0333
vn 0.1852 -0.9112 -0.3681
vn 0.1853 -0.9112 0.3681
vn -0.2078 0.9776 0.0333
vn 0.4780 0.8782 0.0192
vn -0.0258 0.0605 -0.9978
vn -0.5657 0.0604 0.8224
vn 0.5656 -0.0604 -0.8224
vn -0.6388 0.6085 0.4707
vn 0.2151 0.8906 -0.4008
vn 0.5956 0.6486 -0.4740
vn 0.6462 -0.0875 0.7582
vn 0.4385 -0.8955 0.0763
vn 0.0772 0.0875 0.9932
vn -0.9916 0.0798 0.1014
vn 0.2790 -0.2791 -0.9188
vn -0.2185 0.2845 0.9334
vn 0.6457 0.7414 0.1827
vn -0.2000 0.8650 0.4602
vn -0.1573 0.9484 -0.2755
vn 0.0219 -0.5780 -0.8158
vn -0.0933 0.6504 0.7538
vn -0.4727 0.1579 0.8670
vn 0.4727 -0.1579 -0.8670
vn -0.5633 0.6863 0.4601
vt 1.000000 1.000000
vt 0.857143 0.500000
vt 1.000000 0.500000
vt 0.857143 1.000000
vt 0.714286 0.500000
vt 0.714286 1.000000
vt 0.571429 0.500000
vt 0.571429 1.000000
vt 0.428571 0.500000
vt 0.428571 1.000000
vt 0.285714 0.500000
vt 0.250000 0.490000
vt 0.016017 0.196595
vt 0.354132 0.033767
vt 0.285714 1.000000
vt 0.142857 0.500000
vt 0.142857 1.000000
vt 0.000000 0.500000
vt 0.937640 0.399638
vt 0.854132 0.033767
vt 0.516017 0.196595
vt 0.250000 0.250000
vt 0.419706 0.419706
vt 0.490000 0.250000
vt 0.419706 0.080294
vt 0.250000 0.010000
vt 0.080294 0.080294
vt 0.010000 0.250000
vt 0.919706 0.080294
vt 0.580294 0.080294
vt 0.580294 0.419706
vt 0.080294 0.419706
vt 0.833333 1.000000
vt 0.833333 0.500000
vt 0.666667 0.500000
vt 0.666667 1.000000
vt 0.500000 0.500000
vt 0.500000 1.000000
vt 0.333333 0.500000
vt 0.042154 0.130000
vt 0.457846 0.130000
vt 0.333333 1.000000
vt 0.166667 0.500000
vt 0.166667 1.000000
vt -0.000000 0.500000
vt 0.957846 0.370000
vt 0.750000 0.010000
vt 0.542154 0.370000
vt -0.000000 1.000000
vt 0.419706 0.080294
vt 0.080294 0.080294
vt 0.919706 0.080294
vt 0.580294 0.080294
vt 0.080294 0.419706
vt 0.483983 0.196595
vt 0.437640 0.399638
vt 0.062360 0.399638
vt 0.145868 0.033767
vt 0.000000 1.000000
vt 0.562360 0.399638
vt 0.750000 0.490000
vt 0.983983 0.196595
vt 0.645868 0.033767
vt 0.919706 0.419706
vt 0.990000 0.250000
vt 0.510000 0.250000
vt 0.457846 0.370000
vt 0.042154 0.370000
vt 0.250000 0.010000
vt 0.957846 0.130000
vt 0.542154 0.130000
s 0
usemtl military_environment_palette
f 2/1/1 3/2/1 1/3/1
f 4/4/2 5/5/2 3/2/2
f 6/6/3 7/7/3 5/5/3
f 8/8/4 9/9/4 7/7/4
f 10/10/5 11/11/5 9/9/5
f 2/12/6 12/13/6 8/14/6
f 12/15/7 13/16/7 11/11/7
f 14/17/8 1/18/8 13/16/8
f 3/19/9 7/20/9 11/21/9
f 15/12/10 23/22/10 16/23/10
f 16/23/11 23/22/11 17/24/11
f 17/24/12 23/22/12 18/25/12
f 18/25/13 23/22/13 19/26/13
f 19/26/14 23/22/14 20/27/14
f 20/27/15 23/22/15 21/28/15
f 18/29/9 20/30/9 22/31/9
f 21/28/16 23/22/16 22/32/16
f 22/32/17 23/22/17 15/12/17
f 24/3/18 27/33/18 26/34/18
f 27/33/19 28/35/19 26/34/19
f 29/36/20 30/37/20 28/35/20
f 31/38/21 32/39/21 30/37/21
f 25/12/22 33/40/22 29/41/22
f 33/42/23 34/43/23 32/39/23
f 35/44/24 24/45/24 34/43/24
f 26/46/25 30/47/25 34/48/25
f 36/3/26 39/33/26 38/34/26
f 38/34/27 41/36/27 40/35/27
f 41/36/28 42/37/28 40/35/28
f 42/37/29 45/42/29 44/39/29
f 37/12/30 45/40/30 41/41/30
f 45/42/31 46/43/31 44/39/31
f 46/43/32 37/49/32 36/45/32
f 38/46/33 42/47/33 46/48/33
f 48/3/34 51/33/34 50/34/34
f 51/33/35 52/35/35 50/34/35
f 53/36/36 54/37/36 52/35/36
f 55/38/37 56/39/37 54/37/37
f 49/12/38 57/40/38 53/41/38
f 57/42/39 58/43/39 56/39/39
f 59/44/40 48/45/40 58/43/40
f 50/46/41 54/47/41 58/48/41
f 61/1/42 62/34/42 60/3/42
f 63/33/43 64/35/43 62/34/43
f 65/36/44 66/37/44 64/35/44
f 67/38/45 68/39/45 66/37/45
f 61/12/46 69/40/46 65/41/46
f 69/42/47 70/43/47 68/39/47
f 71/44/48 60/45/48 70/43/48
f 62/46/49 66/47/49 70/48/49
f 72/3/50 75/33/50 74/34/50
f 75/33/51 76/35/51 74/34/51
f 77/36/52 78/37/52 76/35/52
f 79/38/53 80/39/53 78/37/53
f 73/12/54 81/40/54 77/41/54
f 81/42/55 82/43/55 80/39/55
f 83/44/56 72/45/56 82/43/56
f 74/46/57 78/47/57 82/48/57
f 84/12/58 92/22/58 85/23/58
f 85/23/59 92/22/59 86/24/59
f 86/24/60 92/22/60 87/25/60
f 87/25/61 92/22/61 88/26/61
f 88/26/62 92/22/62 89/27/62
f 89/27/63 92/22/63 90/28/63
f 87/29/9 89/30/9 91/31/9
f 90/28/64 92/22/64 91/32/64
f 91/32/65 92/22/65 84/12/65
f 94/1/66 95/34/66 93/3/66
f 95/34/67 98/36/67 97/35/67
f 98/36/68 99/37/68 97/35/68
f 99/37/69 102/42/69 101/39/69
f 94/12/70 102/40/70 98/41/70
f 102/42/71 103/43/71 101/39/71
f 104/44/72 93/45/72 103/43/72
f 95/46/73 99/47/73 103/48/73
f 105/3/74 108/33/74 107/34/74
f 108/33/75 109/35/75 107/34/75
f 110/36/76 111/37/76 109/35/76
f 112/38/77 113/39/77 111/37/77
f 106/12/78 114/40/78 110/41/78
f 114/42/79 115/43/79 113/39/79
f 115/43/80 106/49/80 105/45/80
f 107/46/81 111/47/81 115/48/81
f 117/3/82 120/33/82 119/34/82
f 120/33/83 121/35/83 119/34/83
f 122/36/84 123/37/84 121/35/84
f 123/37/85 126/42/85 125/39/85
f 118/12/86 126/40/86 122/41/86
f 126/42/87 127/43/87 125/39/87
f 127/43/88 118/49/88 117/45/88
f 119/46/89 123/47/89 127/48/89
f 130/1/90 131/34/90 129/3/90
f 132/33/91 133/35/91 131/34/91
f 133/35/92 136/38/92 135/37/92
f 135/37/93 138/42/93 137/39/93
f 130/12/94 138/40/94 134/41/94
f 137/39/95 140/44/95 139/43/95
f 139/43/96 130/49/96 129/45/96
f 131/46/97 135/47/97 139/48/97
f 141/3/98 144/33/98 143/34/98
f 143/34/99 146/36/99 145/35/99
f 145/35/100 148/38/100 147/37/100
f 147/37/101 150/42/101 149/39/101
f 142/12/102 150/40/102 146/41/102
f 150/42/103 151/43/103 149/39/103
f 152/44/104 141/45/104 151/43/104
f 143/46/105 147/47/105 151/48/105
f 153/12/106 161/22/106 154/23/106
f 154/23/107 161/22/107 155/24/107
f 155/24/108 161/22/108 156/25/108
f 156/25/109 161/22/109 157/26/109
f 157/26/110 161/22/110 158/27/110
f 158/27/111 161/22/111 159/28/111
f 156/29/9 158/30/9 160/31/9
f 159/28/112 161/22/112 160/32/112
f 160/32/113 161/22/113 153/12/113
f 163/1/114 164/34/114 162/3/114
f 165/33/115 166/35/115 164/34/115
f 166/35/116 169/38/116 168/37/116
f 169/38/117 170/39/117 168/37/117
f 163/12/118 171/40/118 167/41/118
f 170/39/119 173/44/119 172/43/119
f 172/43/120 163/49/120 162/45/120
f 164/46/121 168/47/121 172/48/121
f 175/1/122 176/34/122 174/3/122
f 177/33/123 178/35/123 176/34/123
f 178/35/124 181/38/124 180/37/124
f 181/38/125 182/39/125 180/37/125
f 175/12/126 183/40/126 179/41/126
f 183/42/127 184/43/127 182/39/127
f 185/44/128 174/45/128 184/43/128
f 176/46/129 180/47/129 184/48/129
f 187/1/130 188/34/130 186/3/130
f 189/33/131 190/35/131 188/34/131
f 190/35/132 193/38/132 192/37/132
f 193/38/133 194/39/133 192/37/133
f 187/12/134 195/40/134 191/41/134
f 195/42/135 196/43/135 194/39/135
f 197/44/136 186/45/136 196/43/136
f 188/46/137 192/47/137 196/48/137
f 199/1/138 200/34/138 198/3/138
f 201/33/139 202/35/139 200/34/139
f 202/35/140 205/38/140 204/37/140
f 204/37/141 207/42/141 206/39/141
f 199/12/142 207/40/142 203/41/142
f 206/39/143 209/44/143 208/43/143
f 209/44/144 198/45/144 208/43/144
f 200/46/145 204/47/145 208/48/145
f 210/3/146 213/33/146 212/34/146
f 212/34/147 215/36/147 214/35/147
f 215/36/148 216/37/148 214/35/148
f 217/38/149 218/39/149 216/37/149
f 211/12/150 219/40/150 215/41/150
f 218/39/151 221/44/151 220/43/151
f 221/44/152 210/45/152 220/43/152
f 212/46/153 216/47/153 220/48/153
f 222/12/154 230/22/154 223/23/154
f 223/23/155 230/22/155 224/24/155
f 224/24/156 230/22/156 225/25/156
f 225/25/157 230/22/157 226/26/157
f 226/26/158 230/22/158 227/27/158
f 227/27/159 230/22/159 228/28/159
f 225/29/9 227/30/9 229/31/9
f 228/28/160 230/22/160 229/32/160
f 229/32/161 230/22/161 222/12/161
f 232/1/162 233/34/162 231/3/162
f 234/33/163 235/35/163 233/34/163
f 236/36/164 237/37/164 235/35/164
f 238/38/165 239/39/165 237/37/165
f 232/12/166 240/40/166 236/41/166
f 239/39/167 242/44/167 241/43/167
f 241/43/168 232/49/168 231/45/168
f 233/46/169 237/47/169 241/48/169
f 244/1/170 245/34/170 243/3/170
f 246/33/171 247/35/171 245/34/171
f 248/36/172 249/37/172 247/35/172
f 250/38/173 251/39/173 249/37/173
f 244/12/174 252/40/174 248/41/174
f 251/39/175 254/44/175 253/43/175
f 254/44/176 243/45/176 253/43/176
f 245/46/177 249/47/177 253/48/177
f 256/1/178 257/34/178 255/3/178
f 258/33/179 259/35/179 257/34/179
f 260/36/180 261/37/180 259/35/180
f 262/38/181 263/39/181 261/37/181
f 256/12/182 264/40/182 260/41/182
f 263/39/183 266/44/183 265/43/183
f 266/44/184 255/45/184 265/43/184
f 257/46/185 261/47/185 265/48/185
f 268/1/186 269/34/186 267/3/186
f 270/33/187 271/35/187 269/34/187
f 272/36/188 273/37/188 271/35/188
f 274/38/189 275/39/189 273/37/189
f 268/12/190 276/40/190 272/41/190
f 276/42/191 277/43/191 275/39/191
f 278/44/192 267/45/192 277/43/192
f 269/46/193 273/47/193 277/48/193
f 279/3/194 282/33/194 281/34/194
f 281/34/195 284/36/195 283/35/195
f 283/35/196 286/38/196 285/37/196
f 286/38/197 287/39/197 285/37/197
f 280/12/198 288/40/198 284/41/198
f 288/42/199 289/43/199 287/39/199
f 290/44/200 279/45/200 289/43/200
f 281/46/201 285/47/201 289/48/201
f 291/12/202 299/22/202 292/23/202
f 292/23/203 299/22/203 293/24/203
f 293/24/204 299/22/204 294/50/204
f 294/50/205 299/22/205 295/26/205
f 295/26/206 299/22/206 296/51/206
f 296/51/207 299/22/207 297/28/207
f 294/52/9 296/53/9 298/31/9
f 297/28/208 299/22/208 298/54/208
f 298/54/209 299/22/209 291/12/209
f 301/1/210 302/34/210 300/3/210
f 303/33/211 304/35/211 302/34/211
f 305/36/212 306/37/212 304/35/212
f 307/38/213 308/39/213 306/37/213
f 301/12/214 309/40/214 305/41/214
f 308/39/215 311/44/215 310/43/215
f 310/43/216 301/49/216 300/45/216
f 302/46/217 306/47/217 310/48/217
f 313/1/218 314/34/218 312/3/218
f 315/33/219 316/35/219 314/34/219
f 317/36/220 318/37/220 316/35/220
f 319/38/221 320/39/221 318/37/221
f 313/12/222 321/40/222 317/41/222
f 320/39/223 323/44/223 322/43/223
f 323/44/224 312/45/224 322/43/224
f 314/46/225 318/47/225 322/48/225
f 325/1/226 326/34/226 324/3/226
f 327/33/227 328/35/227 326/34/227
f 329/36/228 330/37/228 328/35/228
f 330/37/229 333/42/229 332/39/229
f 325/12/230 333/40/230 329/41/230
f 332/39/231 335/44/231 334/43/231
f 335/44/232 324/45/232 334/43/232
f 326/46/233 330/47/233 334/48/233
f 337/1/234 338/34/234 336/3/234
f 338/34/235 341/36/235 340/35/235
f 341/36/236 342/37/236 340/35/236
f 343/38/237 344/39/237 342/37/237
f 337/12/238 345/40/238 341/41/238
f 345/42/239 346/43/239 344/39/239
f 347/44/240 336/45/240 346/43/240
f 338/46/241 342/47/241 346/48/241
f 349/1/242 350/34/242 348/3/242
f 351/33/243 352/35/243 350/34/243
f 352/35/244 355/38/244 354/37/244
f 354/37/245 357/42/245 356/39/245
f 349/12/246 357/40/246 353/41/246
f 357/42/247 358/43/247 356/39/247
f 358/43/248 349/49/248 348/45/248
f 350/46/249 354/47/249 358/48/249
f 360/12/250 368/22/250 361/23/250
f 361/23/251 368/22/251 362/24/251
f 362/24/252 368/22/252 363/25/252
f 363/25/253 368/22/253 364/26/253
f 364/26/254 368/22/254 365/27/254
f 365/27/255 368/22/255 366/28/255
f 363/29/9 365/30/9 367/31/9
f 366/28/256 368/22/256 367/32/256
f 367/32/257 368/22/257 360/12/257
f 370/1/258 371/34/258 369/3/258
f 372/33/259 373/35/259 371/34/259
f 374/36/260 375/37/260 373/35/260
f 375/37/261 378/42/261 377/39/261
f 370/12/262 378/40/262 374/41/262
f 377/39/263 380/44/263 379/43/263
f 380/44/264 369/45/264 379/43/264
f 371/46/265 375/47/265 379/48/265
f 381/3/266 384/33/266 383/34/266
f 384/33/267 385/35/267 383/34/267
f 385/35/268 388/38/268 387/37/268
f 388/38/269 389/39/269 387/37/269
f 382/12/270 390/40/270 386/41/270
f 390/42/271 391/43/271 389/39/271
f 392/44/272 381/45/272 391/43/272
f 383/46/273 387/47/273 391/48/273
f 394/1/274 395/34/274 393/3/274
f 395/34/275 398/36/275 397/35/275
f 398/36/276 399/37/276 397/35/276
f 400/38/277 401/39/277 399/37/277
f 394/12/278 402/40/278 398/41/278
f 402/42/279 403/43/279 401/39/279
f 403/43/280 394/49/280 393/45/280
f 395/46/281 399/47/281 403/48/281
f 406/1/282 407/34/282 405/3/282
f 408/33/283 409/35/283 407/34/283
f 410/36/284 411/37/284 409/35/284
f 412/38/285 413/39/285 411/37/285
f 406/12/286 414/40/286 410/41/286
f 414/42/287 415/43/287 413/39/287
f 416/44/288 405/45/288 415/43/288
f 407/46/289 411/47/289 415/48/289
f 418/1/290 419/34/290 417/3/290
f 420/33/291 421/35/291 419/34/291
f 421/35/292 424/38/292 423/37/292
f 423/37/293 426/42/293 425/39/293
f 418/12/294 426/40/294 422/41/294
f 426/42/295 427/43/295 425/39/295
f 427/43/296 418/49/296 417/45/296
f 419/46/297 423/47/297 427/48/297
f 2/1/1 4/4/1 3/2/1
f 4/4/2 6/6/2 5/5/2
f 6/6/3 8/8/3 7/7/3
f 8/8/4 10/10/4 9/9/4
f 10/10/5 12/15/5 11/11/5
f 6/55/6 4/56/6 2/12/6
f 2/12/6 14/57/6 12/13/6
f 12/13/6 10/58/6 8/14/6
f 8/14/6 6/55/6 2/12/6
f 12/15/7 14/17/7 13/16/7
f 14/17/8 2/59/8 1/18/8
f 13/60/9 1/61/9 3/19/9
f 3/19/9 5/62/9 7/20/9
f 7/20/9 9/63/9 11/21/9
f 11/21/9 13/60/9 3/19/9
f 22/31/9 15/61/9 16/64/9
f 16/64/9 17/65/9 18/29/9
f 18/29/9 19/47/9 20/30/9
f 20/30/9 21/66/9 22/31/9
f 22/31/9 16/64/9 18/29/9
f 24/3/18 25/1/18 27/33/18
f 27/33/19 29/36/19 28/35/19
f 29/36/20 31/38/20 30/37/20
f 31/38/21 33/42/21 32/39/21
f 29/41/22 27/67/22 25/12/22
f 25/12/22 35/68/22 33/40/22
f 33/40/22 31/69/22 29/41/22
f 33/42/23 35/44/23 34/43/23
f 35/44/24 25/49/24 24/45/24
f 34/48/25 24/61/25 26/46/25
f 26/46/25 28/70/25 30/47/25
f 30/47/25 32/71/25 34/48/25
f 36/3/26 37/1/26 39/33/26
f 38/34/27 39/33/27 41/36/27
f 41/36/28 43/38/28 42/37/28
f 42/37/298 43/38/298 45/42/298
f 41/41/30 39/67/30 37/12/30
f 37/12/30 47/68/30 45/40/30
f 45/40/30 43/69/30 41/41/30
f 45/42/31 47/44/31 46/43/31
f 46/43/32 47/44/32 37/49/32
f 46/48/33 36/61/33 38/46/33
f 38/46/33 40/70/33 42/47/33
f 42/47/33 44/71/33 46/48/33
f 48/3/34 49/1/34 51/33/34
f 51/33/35 53/36/35 52/35/35
f 53/36/36 55/38/36 54/37/36
f 55/38/37 57/42/37 56/39/37
f 53/41/38 51/67/38 49/12/38
f 49/12/38 59/68/38 57/40/38
f 57/40/38 55/69/38 53/41/38
f 57/42/39 59/44/39 58/43/39
f 59/44/299 49/49/299 48/45/299
f 58/48/41 48/61/41 50/46/41
f 50/46/41 52/70/41 54/47/41
f 54/47/41 56/71/41 58/48/41
f 61/1/42 63/33/42 62/34/42
f 63/33/43 65/36/43 64/35/43
f 65/36/44 67/38/44 66/37/44
f 67/38/300 69/42/300 68/39/300
f 65/41/46 63/67/46 61/12/46
f 61/12/46 71/68/46 69/40/46
f 69/40/46 67/69/46 65/41/46
f 69/42/47 71/44/47 70/43/47
f 71/44/48 61/49/48 60/45/48
f 70/48/49 60/61/49 62/46/49
f 62/46/49 64/70/49 66/47/49
f 66/47/49 68/71/49 70/48/49
f 72/3/50 73/1/50 75/33/50
f 75/33/51 77/36/51 76/35/51
f 77/36/52 79/38/52 78/37/52
f 79/38/53 81/42/53 80/39/53
f 77/41/54 75/67/54 73/12/54
f 73/12/54 83/68/54 81/40/54
f 81/40/54 79/69/54 77/41/54
f 81/42/55 83/44/55 82/43/55
f 83/44/301 73/49/301 72/45/301
f 82/48/57 72/61/57 74/46/57
f 74/46/57 76/70/57 78/47/57
f 78/47/57 80/71/57 82/48/57
f 91/31/9 84/61/9 85/64/9
f 85/64/9 86/65/9 87/29/9
f 87/29/9 88/47/9 89/30/9
f 89/30/9 90/66/9 91/31/9
f 91/31/9 85/64/9 87/29/9
f 94/1/66 96/33/66 95/34/66
f 95/34/67 96/33/67 98/36/67
f 98/36/68 100/38/68 99/37/68
f 99/37/69 100/38/69 102/42/69
f 98/41/70 96/67/70 94/12/70
f 94/12/70 104/68/70 102/40/70
f 102/40/70 100/69/70 98/41/70
f 102/42/71 104/44/71 103/43/71
f 104/44/72 94/49/72 93/45/72
f 103/48/73 93/61/73 95/46/73
f 95/46/73 97/70/73 99/47/73
f 99/47/73 101/71/73 103/48/73
f 105/3/74 106/1/74 108/33/74
f 108/33/75 110/36/75 109/35/75
f 110/36/302 112/38/302 111/37/302
f 112/38/77 114/42/77 113/39/77
f 110/41/78 108/67/78 106/12/78
f 106/12/78 116/68/78 114/40/78
f 114/40/303 112/69/303 110/41/303
f 114/42/79 116/44/79 115/43/79
f 115/43/80 116/44/80 106/49/80
f 115/48/81 105/61/81 107/46/81
f 107/46/81 109/70/81 111/47/81
f 111/47/81 113/71/81 115/48/81
f 117/3/82 118/1/82 120/33/82
f 120/33/83 122/36/83 121/35/83
f 122/36/84 124/38/84 123/37/84
f 123/37/85 124/38/85 126/42/85
f 122/41/86 120/67/86 118/12/86
f 118/12/86 128/68/86 126/40/86
f 126/40/86 124/69/86 122/41/86
f 126/42/87 128/44/87 127/43/87
f 127/43/88 128/44/88 118/49/88
f 127/48/89 117/61/89 119/46/89
f 119/46/89 121/70/89 123/47/89
f 123/47/89 125/71/89 127/48/89
f 130/1/90 132/33/90 131/34/90
f 132/33/91 134/36/91 133/35/91
f 133/35/92 134/36/92 136/38/92
f 135/37/93 136/38/93 138/42/93
f 134/41/304 132/67/304 130/12/304
f 130/12/94 140/68/94 138/40/94
f 138/40/304 136/69/304 134/41/304
f 137/39/95 138/42/95 140/44/95
f 139/43/96 140/44/96 130/49/96
f 139/48/305 129/61/305 131/46/305
f 131/46/305 133/70/305 135/47/305
f 135/47/305 137/71/305 139/48/305
f 141/3/98 142/1/98 144/33/98
f 143/34/99 144/33/99 146/36/99
f 145/35/100 146/36/100 148/38/100
f 147/37/101 148/38/101 150/42/101
f 146/41/102 144/67/102 142/12/102
f 142/12/102 152/68/102 150/40/102
f 150/40/102 148/69/102 146/41/102
f 150/42/306 152/44/306 151/43/306
f 152/44/104 142/49/104 141/45/104
f 151/48/105 141/61/105 143/46/105
f 143/46/105 145/70/105 147/47/105
f 147/47/105 149/71/105 151/48/105
f 160/31/9 153/61/9 154/64/9
f 154/64/9 155/65/9 156/29/9
f 156/29/9 157/47/9 158/30/9
f 158/30/9 159/66/9 160/31/9
f 160/31/9 154/64/9 156/29/9
f 163/1/114 165/33/114 164/34/114
f 165/33/115 167/36/115 166/35/115
f 166/35/116 167/36/116 169/38/116
f 169/38/117 171/42/117 170/39/117
f 167/41/118 165/67/118 163/12/118
f 163/12/118 173/68/118 171/40/118
f 171/40/118 169/69/118 167/41/118
f 170/39/119 171/42/119 173/44/119
f 172/43/120 173/44/120 163/49/120
f 172/48/121 162/61/121 164/46/121
f 164/46/121 166/70/121 168/47/121
f 168/47/121 170/71/121 172/48/121
f 175/1/122 177/33/122 176/34/122
f 177/33/123 179/36/123 178/35/123
f 178/35/124 179/36/124 181/38/124
f 181/38/125 183/42/125 182/39/125
f 179/41/126 177/67/126 175/12/126
f 175/12/126 185/68/126 183/40/126
f 183/40/126 181/69/126 179/41/126
f 183/42/127 185/44/127 184/43/127
f 185/44/128 175/49/128 174/45/128
f 184/48/129 174/61/129 176/46/129
f 176/46/129 178/70/129 180/47/129
f 180/47/129 182/71/129 184/48/129
f 187/1/130 189/33/130 188/34/130
f 189/33/131 191/36/131 190/35/131
f 190/35/132 191/36/132 193/38/132
f 193/38/133 195/42/133 194/39/133
f 191/41/134 189/67/134 187/12/134
f 187/12/134 197/68/134 195/40/134
f 195/40/134 193/69/134 191/41/134
f 195/42/135 197/44/135 196/43/135
f 197/44/136 187/49/136 186/45/136
f 196/48/137 186/61/137 188/46/137
f 188/46/137 190/70/137 192/47/137
f 192/47/137 194/71/137 196/48/137
f 199/1/138 201/33/138 200/34/138
f 201/33/139 203/36/139 202/35/139
f 202/35/140 203/36/140 205/38/140
f 204/37/141 205/38/141 207/42/141
f 203/41/142 201/67/142 199/12/142
f 199/12/142 209/68/142 207/40/142
f 207/40/142 205/69/142 203/41/142
f 206/39/143 207/42/143 209/44/143
f 209/44/144 199/49/144 198/45/144
f 208/48/145 198/61/145 200/46/145
f 200/46/145 202/70/145 204/47/145
f 204/47/145 206/71/145 208/48/145
f 210/3/146 211/1/146 213/33/146
f 212/34/147 213/33/147 215/36/147
f 215/36/148 217/38/148 216/37/148
f 217/38/149 219/42/149 218/39/149
f 215/41/150 213/67/150 211/12/150
f 211/12/150 221/68/150 219/40/150
f 219/40/150 217/69/150 215/41/150
f 218/39/151 219/42/151 221/44/151
f 221/44/307 211/49/307 210/45/307
f 220/48/153 210/61/153 212/46/153
f 212/46/153 214/70/153 216/47/153
f 216/47/153 218/71/153 220/48/153
f 229/31/9 222/61/9 223/64/9
f 223/64/9 224/65/9 225/29/9
f 225/29/9 226/47/9 227/30/9
f 227/30/9 228/66/9 229/31/9
f 229/31/9 223/64/9 225/29/9
f 232/1/162 234/33/162 233/34/162
f 234/33/163 236/36/163 235/35/163
f 236/36/164 238/38/164 237/37/164
f 238/38/165 240/42/165 239/39/165
f 236/41/166 234/67/166 232/12/166
f 232/12/166 242/68/166 240/40/166
f 240/40/166 238/69/166 236/41/166
f 239/39/167 240/42/167 242/44/167
f 241/43/168 242/44/168 232/49/168
f 241/48/169 231/61/169 233/46/169
f 233/46/169 235/70/169 237/47/169
f 237/47/169 239/71/169 241/48/169
f 244/1/170 246/33/170 245/34/170
f 246/33/308 248/36/308 247/35/308
f 248/36/172 250/38/172 249/37/172
f 250/38/173 252/42/173 251/39/173
f 248/41/174 246/67/174 244/12/174
f 244/12/174 254/68/174 252/40/174
f 252/40/174 250/69/174 248/41/174
f 251/39/175 252/42/175 254/44/175
f 254/44/176 244/49/176 243/45/176
f 253/48/309 243/61/309 245/46/309
f 245/46/177 247/70/177 249/47/177
f 249/47/177 251/71/177 253/48/177
f 256/1/178 258/33/178 257/34/178
f 258/33/179 260/36/179 259/35/179
f 260/36/180 262/38/180 261/37/180
f 262/38/181 264/42/181 263/39/181
f 260/41/182 258/67/182 256/12/182
f 256/12/182 266/68/182 264/40/182
f 264/40/182 262/69/182 260/41/182
f 263/39/183 264/42/183 266/44/183
f 266/44/184 256/49/184 255/45/184
f 265/48/185 255/61/185 257/46/185
f 257/46/185 259/70/185 261/47/185
f 261/47/185 263/71/185 265/48/185
f 268/1/186 270/33/186 269/34/186
f 270/33/187 272/36/187 271/35/187
f 272/36/310 274/38/310 273/37/310
f 274/38/189 276/42/189 275/39/189
f 272/41/190 270/67/190 268/12/190
f 268/12/311 278/68/311 276/40/311
f 276/40/190 274/69/190 272/41/190
f 276/42/312 278/44/312 277/43/312
f 278/44/192 268/49/192 267/45/192
f 277/48/193 267/61/193 269/46/193
f 269/46/193 271/70/193 273/47/193
f 273/47/193 275/71/193 277/48/193
f 279/3/313 280/1/313 282/33/313
f 281/34/195 282/33/195 284/36/195
f 283/35/196 284/36/196 286/38/196
f 286/38/314 288/42/314 287/39/314
f 284/41/198 282/67/198 280/12/198
f 280/12/198 290/68/198 288/40/198
f 288/40/198 286/69/198 284/41/198
f 288/42/199 290/44/199 289/43/199
f 290/44/200 280/49/200 279/45/200
f 289/48/201 279/61/201 281/46/201
f 281/46/201 283/70/201 285/47/201
f 285/47/201 287/71/201 289/48/201
f 298/31/9 291/61/9 292/64/9
f 292/64/9 293/65/9 294/52/9
f 294/52/9 295/47/9 296/53/9
f 296/53/9 297/66/9 298/31/9
f 298/31/9 292/64/9 294/52/9
f 301/1/210 303/33/210 302/34/210
f 303/33/211 305/36/211 304/35/211
f 305/36/315 307/38/315 306/37/315
f 307/38/213 309/42/213 308/39/213
f 305/41/214 303/67/214 301/12/214
f 301/12/214 311/68/214 309/40/214
f 309/40/214 307/69/214 305/41/214
f 308/39/215 309/42/215 311/44/215
f 310/43/216 311/44/216 301/49/216
f 310/48/217 300/61/217 302/46/217
f 302/46/217 304/70/217 306/47/217
f 306/47/217 308/71/217 310/48/217
f 313/1/218 315/33/218 314/34/218
f 315/33/219 317/36/219 316/35/219
f 317/36/316 319/38/316 318/37/316
f 319/38/221 321/42/221 320/39/221
f 317/41/222 315/67/222 313/12/222
f 313/12/222 323/68/222 321/40/222
f 321/40/222 319/69/222 317/41/222
f 320/39/223 321/42/223 323/44/223
f 323/44/224 313/49/224 312/45/224
f 322/48/225 312/61/225 314/46/225
f 314/46/225 316/70/225 318/47/225
f 318/47/225 320/71/225 322/48/225
f 325/1/317 327/33/317 326/34/317
f 327/33/227 329/36/227 328/35/227
f 329/36/228 331/38/228 330/37/228
f 330/37/229 331/38/229 333/42/229
f 329/41/230 327/67/230 325/12/230
f 325/12/230 335/68/230 333/40/230
f 333/40/230 331/69/230 329/41/230
f 332/39/231 333/42/231 335/44/231
f 335/44/232 325/49/232 324/45/232
f 334/48/233 324/61/233 326/46/233
f 326/46/233 328/70/233 330/47/233
f 330/47/233 332/71/233 334/48/233
f 337/1/234 339/33/234 338/34/234
f 338/34/235 339/33/235 341/36/235
f 341/36/236 343/38/236 342/37/236
f 343/38/237 345/42/237 344/39/237
f 341/41/238 339/67/238 337/12/238
f 337/12/238 347/68/238 345/40/238
f 345/40/238 343/69/238 341/41/238
f 345/42/239 347/44/239 346/43/239
f 347/44/240 337/49/240 336/45/240
f 346/48/241 336/61/241 338/46/241
f 338/46/241 340/70/241 342/47/241
f 342/47/241 344/71/241 346/48/241
f 349/1/318 351/33/318 350/34/318
f 351/33/243 353/36/243 352/35/243
f 352/35/244 353/36/244 355/38/244
f 354/37/245 355/38/245 357/42/245
f 353/41/246 351/67/246 349/12/246
f 349/12/246 359/68/246 357/40/246
f 357/40/246 355/69/246 353/41/246
f 357/42/247 359/44/247 358/43/247
f 358/43/248 359/44/248 349/49/248
f 358/48/249 348/61/249 350/46/249
f 350/46/249 352/70/249 354/47/249
f 354/47/249 356/71/249 358/48/249
f 367/31/9 360/61/9 361/64/9
f 361/64/9 362/65/9 363/29/9
f 363/29/9 364/47/9 365/30/9
f 365/30/9 366/66/9 367/31/9
f 367/31/9 361/64/9 363/29/9
f 370/1/258 372/33/258 371/34/258
f 372/33/259 374/36/259 373/35/259
f 374/36/260 376/38/260 375/37/260
f 375/37/261 376/38/261 378/42/261
f 374/41/262 372/67/262 370/12/262
f 370/12/262 380/68/262 378/40/262
f 378/40/262 376/69/262 374/41/262
f 377/39/263 378/42/263 380/44/263
f 380/44/264 370/49/264 369/45/264
f 379/48/265 369/61/265 371/46/265
f 371/46/265 373/70/265 375/47/265
f 375/47/265 377/71/265 379/48/265
f 381/3/266 382/1/266 384/33/266
f 384/33/267 386/36/267 385/35/267
f 385/35/319 386/36/319 388/38/319
f 388/38/269 390/42/269 389/39/269
f 386/41/270 384/67/270 382/12/270
f 382/12/270 392/68/270 390/40/270
f 390/40/270 388/69/270 386/41/270
f 390/42/271 392/44/271 391/43/271
f 392/44/272 382/49/272 381/45/272
f 391/48/273 381/61/273 383/46/273
f 383/46/273 385/70/273 387/47/273
f 387/47/273 389/71/273 391/48/273
f 394/1/274 396/33/274 395/34/274
f 395/34/275 396/33/275 398/36/275
f 398/36/276 400/38/276 399/37/276
f 400/38/277 402/42/277 401/39/277
f 398/41/278 396/67/278 394/12/278
f 394/12/278 404/68/278 402/40/278
f 402/40/320 400/69/320 398/41/320
f 402/42/279 404/44/279 403/43/279
f 403/43/280 404/44/280 394/49/280
f 403/48/281 393/61/281 395/46/281
f 395/46/281 397/70/281 399/47/281
f 399/47/321 401/71/321 403/48/321
f 406/1/282 408/33/282 407/34/282
f 408/33/283 410/36/283 409/35/283
f 410/36/284 412/38/284 411/37/284
f 412/38/285 414/42/285 413/39/285
f 410/41/286 408/67/286 406/12/286
f 406/12/286 416/68/286 414/40/286
f 414/40/286 412/69/286 410/41/286
f 414/42/322 416/44/322 415/43/322
f 416/44/288 406/49/288 405/45/288
f 415/48/289 405/61/289 407/46/289
f 407/46/289 409/70/289 411/47/289
f 411/47/289 413/71/289 415/48/289
f 418/1/290 420/33/290 419/34/290
f 420/33/291 422/36/291 421/35/291
f 421/35/292 422/36/292 424/38/292
f 423/37/293 424/38/293 426/42/293
f 422/41/294 420/67/294 418/12/294
f 418/12/294 428/68/294 426/40/294
f 426/40/294 424/69/294 422/41/294
f 426/42/295 428/44/295 427/43/295
f 427/43/296 428/44/296 418/49/296
f 427/48/297 417/61/297 419/46/297
f 419/46/297 421/70/297 423/47/297
f 423/47/297 425/71/297 427/48/297
