# Blender 5.2.1 LTS
# www.blender.org
mtllib treeBranches.mtl
o treeBranches
v 0.000000 -0.850000 -0.120000
v 0.780000 0.850000 -0.067200
v 0.094455 -0.893338 -0.060000
v 0.832895 0.825731 -0.033600
v 0.094455 -0.893338 0.060000
v 0.832895 0.825731 0.033600
v 0.000000 -0.850000 0.120000
v 0.780000 0.850000 0.067200
v -0.094455 -0.806662 0.060000
v 0.727105 0.874269 0.033600
v -0.094455 -0.806662 -0.060000
v 0.727105 0.874269 -0.033600
vn 0.4645 -0.1862 -0.8658
vn 0.9188 -0.3947 -0.0000
vn 0.4645 -0.1862 0.8658
vn -0.4441 0.2307 0.8658
vn 0.4170 0.9089 -0.0000
vn -0.8984 0.4391 -0.0000
vn -0.4441 0.2307 -0.8658
vn -0.4170 -0.9089 -0.0000
vt 1.000000 1.000000
vt 0.833333 0.500000
vt 1.000000 0.500000
vt 0.833333 1.000000
vt 0.666667 0.500000
vt 0.500000 1.000000
vt 0.500000 0.500000
vt 0.333333 1.000000
vt 0.333333 0.500000
vt 0.250000 0.490000
vt 0.042154 0.130000
vt 0.457846 0.130000
vt 0.166667 0.500000
vt 0.166667 1.000000
vt -0.000000 0.500000
vt 0.957846 0.370000
vt 0.750000 0.010000
vt 0.542154 0.370000
vt 0.666667 1.000000
vt 0.457846 0.370000
vt 0.042154 0.370000
vt 0.250000 0.010000
vt -0.000000 1.000000
vt 0.750000 0.490000
vt 0.957846 0.130000
vt 0.542154 0.130000
s 0
usemtl military_environment_palette
f 2/1/1 3/2/1 1/3/1
f 4/4/2 5/5/2 3/2/2
f 5/5/3 8/6/3 7/7/3
f 7/7/4 10/8/4 9/9/4
f 2/10/5 10/11/5 6/12/5
f 10/8/6 11/13/6 9/9/6
f 12/14/7 1/15/7 11/13/7
f 3/16/8 7/17/8 11/18/8
f 2/1/1 4/4/1 3/2/1
f 4/4/2 6/19/2 5/5/2
f 5/5/3 6/19/3 8/6/3
f 7/7/4 8/6/4 10/8/4
f 6/12/5 4/20/5 2/10/5
f 2/10/5 12/21/5 10/11/5
f 10/11/5 8/22/5 6/12/5
f 10/8/6 12/14/6 11/13/6
f 12/14/7 2/23/7 1/15/7
f 11/18/8 1/24/8 3/16/8
f 3/16/8 5/25/8 7/17/8
f 7/17/8 9/26/8 11/18/8
