# Blender 5.2.1 LTS
# www.blender.org
mtllib treeTrunks.mtl
o treeTrunks
v 0.000000 -1.140000 -0.300000
v 0.000000 1.140000 -0.160000
v 0.234549 -1.140000 -0.187047
v 0.125093 1.140000 -0.099758
v 0.292478 -1.140000 0.066756
v 0.155988 1.140000 0.035603
v 0.130165 -1.140000 0.270291
v 0.069421 1.140000 0.144155
v -0.130165 -1.140000 0.270291
v -0.069421 1.140000 0.144155
v -0.292478 -1.140000 0.066756
v -0.155988 1.140000 0.035603
v -0.234549 -1.140000 -0.187047
v -0.125093 1.140000 -0.099758
vn 0.4332 0.0552 -0.8996
vn 0.9734 0.0552 -0.2222
vn 0.7806 0.0552 0.6225
vn -0.0000 0.0552 0.9985
vn -0.7806 0.0552 0.6225
vn -0.0000 1.0000 -0.0000
vn -0.9734 0.0552 -0.2222
vn -0.4332 0.0552 -0.8996
vn -0.0000 -1.0000 -0.0000
vt 1.000000 1.000000
vt 0.857143 0.500000
vt 1.000000 0.500000
vt 0.857143 1.000000
vt 0.714286 0.500000
vt 0.714286 1.000000
vt 0.571429 0.500000
vt 0.428571 1.000000
vt 0.428571 0.500000
vt 0.285714 0.500000
vt 0.250000 0.490000
vt 0.016017 0.196595
vt 0.354132 0.033767
vt 0.285714 1.000000
vt 0.142857 0.500000
vt 0.142857 1.000000
vt 0.000000 0.500000
vt 0.937640 0.399638
vt 0.854132 0.033767
vt 0.516017 0.196595
vt 0.571429 1.000000
vt 0.483983 0.196595
vt 0.437640 0.399638
vt 0.062360 0.399638
vt 0.145868 0.033767
vt 0.000000 1.000000
vt 0.562360 0.399638
vt 0.750000 0.490000
vt 0.983983 0.196595
vt 0.645868 0.033767
s 0
usemtl military_environment_palette
f 2/1/1 3/2/1 1/3/1
f 4/4/2 5/5/2 3/2/2
f 6/6/3 7/7/3 5/5/3
f 7/7/4 10/8/4 9/9/4
f 10/8/5 11/10/5 9/9/5
f 2/11/6 12/12/6 8/13/6
f 12/14/7 13/15/7 11/10/7
f 14/16/8 1/17/8 13/15/8
f 3/18/9 7/19/9 11/20/9
f 2/1/1 4/4/1 3/2/1
f 4/4/2 6/6/2 5/5/2
f 6/6/3 8/21/3 7/7/3
f 7/7/4 8/21/4 10/8/4
f 10/8/5 12/14/5 11/10/5
f 6/22/6 4/23/6 2/11/6
f 2/11/6 14/24/6 12/12/6
f 12/12/6 10/25/6 8/13/6
f 8/13/6 6/22/6 2/11/6
f 12/14/7 14/16/7 13/15/7
f 14/16/8 2/26/8 1/17/8
f 13/27/9 1/28/9 3/18/9
f 3/18/9 5/29/9 7/19/9
f 7/19/9 9/30/9 11/20/9
f 11/20/9 13/27/9 3/18/9
