# Blender 5.2.1 LTS
# www.blender.org
mtllib akTurret.mtl
o BASE.009
v -0.361200 0.000000 0.350600
v 0.361200 0.000000 0.350600
v 0.375600 0.000000 0.336200
v 0.375600 0.000000 -0.336200
v 0.361200 0.000000 -0.350600
v -0.361200 0.000000 -0.350600
v -0.375600 0.000000 -0.336200
v -0.375600 0.000000 0.336200
v -0.375600 0.014400 0.365000
v 0.375600 0.014400 0.365000
v 0.390000 0.014400 0.350600
v 0.390000 0.014400 -0.350600
v 0.375600 0.014400 -0.365000
v -0.375600 0.014400 -0.365000
v -0.390000 0.014400 -0.350600
v -0.390000 0.014400 0.350600
v -0.375600 0.105600 0.365000
v 0.375600 0.105600 0.365000
v 0.390000 0.105600 0.350600
v 0.390000 0.105600 -0.350600
v 0.375600 0.105600 -0.365000
v -0.375600 0.105600 -0.365000
v -0.390000 0.105600 -0.350600
v -0.390000 0.105600 0.350600
v -0.361200 0.120000 0.350600
v 0.361200 0.120000 0.350600
v 0.375600 0.120000 0.336200
v 0.375600 0.120000 -0.336200
v 0.361200 0.120000 -0.350600
v -0.361200 0.120000 -0.350600
v -0.375600 0.120000 -0.336200
v -0.375600 0.120000 0.336200
v -0.300000 0.121000 -0.302000
v -0.327713 0.121000 -0.286000
v -0.327713 0.121000 -0.254000
v -0.300000 0.121000 -0.238000
v -0.272287 0.121000 -0.254000
v -0.272287 0.121000 -0.286000
v -0.300000 0.141000 -0.302000
v -0.327713 0.141000 -0.286000
v -0.327713 0.141000 -0.254000
v -0.300000 0.141000 -0.238000
v -0.272287 0.141000 -0.254000
v -0.272287 0.141000 -0.286000
v -0.300000 0.121000 0.238000
v -0.327713 0.121000 0.254000
v -0.327713 0.121000 0.286000
v -0.300000 0.121000 0.302000
v -0.272287 0.121000 0.286000
v -0.272287 0.121000 0.254000
v -0.300000 0.141000 0.238000
v -0.327713 0.141000 0.254000
v -0.327713 0.141000 0.286000
v -0.300000 0.141000 0.302000
v -0.272287 0.141000 0.286000
v -0.272287 0.141000 0.254000
v 0.300000 0.121000 -0.302000
v 0.272287 0.121000 -0.286000
v 0.272287 0.121000 -0.254000
v 0.300000 0.121000 -0.238000
v 0.327713 0.121000 -0.254000
v 0.327713 0.121000 -0.286000
v 0.300000 0.141000 -0.302000
v 0.272287 0.141000 -0.286000
v 0.272287 0.141000 -0.254000
v 0.300000 0.141000 -0.238000
v 0.327713 0.141000 -0.254000
v 0.327713 0.141000 -0.286000
v 0.300000 0.121000 0.238000
v 0.272287 0.121000 0.254000
v 0.272287 0.121000 0.286000
v 0.300000 0.121000 0.302000
v 0.327713 0.121000 0.286000
v 0.327713 0.121000 0.254000
v 0.300000 0.141000 0.238000
v 0.272287 0.141000 0.254000
v 0.272287 0.141000 0.286000
v 0.300000 0.141000 0.302000
v 0.327713 0.141000 0.286000
v 0.327713 0.141000 0.254000
v 0.000000 0.110000 -0.360000
v -0.180000 0.110000 -0.311769
v -0.311769 0.110000 -0.180000
v -0.360000 0.110000 -0.000000
v -0.311769 0.110000 0.180000
v -0.180000 0.110000 0.311769
v -0.000000 0.110000 0.360000
v 0.180000 0.110000 0.311769
v 0.311769 0.110000 0.180000
v 0.360000 0.110000 0.000000
v 0.311769 0.110000 -0.180000
v 0.180000 0.110000 -0.311769
v 0.000000 0.210000 -0.360000
v -0.180000 0.210000 -0.311769
v -0.311769 0.210000 -0.180000
v -0.360000 0.210000 -0.000000
v -0.311769 0.210000 0.180000
v -0.180000 0.210000 0.311769
v -0.000000 0.210000 0.360000
v 0.180000 0.210000 0.311769
v 0.311769 0.210000 0.180000
v 0.360000 0.210000 0.000000
v 0.311769 0.210000 -0.180000
v 0.180000 0.210000 -0.311769
vn -0.0000 -1.0000 -0.0000
vn -0.0000 -0.7071 0.7071
vn 0.4082 -0.8165 0.4082
vn 0.7071 -0.7071 -0.0000
vn 0.4082 -0.8165 -0.4082
vn -0.0000 -0.7071 -0.7071
vn -0.4082 -0.8165 -0.4082
vn -0.7071 -0.7071 -0.0000
vn -0.4082 -0.8165 0.4082
vn -0.0000 -0.0000 1.0000
vn 0.7071 -0.0000 0.7071
vn 1.0000 -0.0000 -0.0000
vn 0.7071 -0.0000 -0.7071
vn -0.0000 -0.0000 -1.0000
vn -0.7071 -0.0000 -0.7071
vn -1.0000 -0.0000 -0.0000
vn -0.7071 -0.0000 0.7071
vn -0.0000 0.7071 0.7071
vn 0.4082 0.8165 0.4082
vn 0.7071 0.7071 -0.0000
vn 0.4082 0.8165 -0.4082
vn -0.0000 0.7071 -0.7071
vn -0.4082 0.8165 -0.4082
vn -0.7071 0.7071 -0.0000
vn -0.4082 0.8165 0.4082
vn -0.0000 1.0000 -0.0000
vn -0.5000 -0.0000 -0.8660
vn -0.5000 -0.0000 0.8660
vn 0.5000 -0.0000 0.8660
vn 0.5000 -0.0000 -0.8660
vn -0.2588 -0.0000 -0.9659
vn -0.9659 -0.0000 -0.2588
vn -0.9659 -0.0000 0.2588
vn -0.2588 -0.0000 0.9659
vn 0.2588 -0.0000 0.9659
vn 0.9659 -0.0000 0.2588
vn 0.9659 -0.0000 -0.2588
vn 0.2588 -0.0000 -0.9659
vt 0.625000 0.125000
vt 0.375000 0.875000
vt 0.125000 0.625000
s 0
usemtl Military_Equipment_Palette
f 2/1/1 1/1/1 5/1/1
f 2/1/2 9/1/2 1/1/2
f 2/1/3 11/1/3 10/1/3
f 4/1/4 11/1/4 3/1/4
f 5/1/5 12/1/5 4/1/5
f 6/1/6 13/1/6 5/1/6
f 6/1/7 15/1/7 14/1/7
f 8/1/8 15/1/8 7/1/8
f 1/1/9 16/1/9 8/1/9
f 10/1/10 17/1/10 9/1/10
f 11/1/11 18/1/11 10/1/11
f 12/1/12 19/1/12 11/1/12
f 13/1/13 20/1/13 12/1/13
f 14/1/14 21/1/14 13/1/14
f 15/1/15 22/1/15 14/1/15
f 16/1/16 23/1/16 15/1/16
f 9/1/17 24/1/17 16/1/17
f 18/1/18 25/1/18 17/1/18
f 19/1/19 26/1/19 18/1/19
f 20/1/20 27/1/20 19/1/20
f 20/1/21 29/1/21 28/1/21
f 22/1/22 29/1/22 21/1/22
f 23/1/23 30/1/23 22/1/23
f 24/1/24 31/1/24 23/1/24
f 24/1/25 25/1/25 32/1/25
f 30/1/26 31/1/26 32/1/26
f 37/2/1 35/2/1 33/2/1
f 34/2/27 39/2/27 33/2/27
f 35/2/16 40/2/16 34/2/16
f 36/2/28 41/2/28 35/2/28
f 37/2/29 42/2/29 36/2/29
f 38/2/12 43/2/12 37/2/12
f 33/2/30 44/2/30 38/2/30
f 40/2/26 42/2/26 44/2/26
f 49/2/1 47/2/1 45/2/1
f 46/2/27 51/2/27 45/2/27
f 47/2/16 52/2/16 46/2/16
f 48/2/28 53/2/28 47/2/28
f 49/2/29 54/2/29 48/2/29
f 50/2/12 55/2/12 49/2/12
f 45/2/30 56/2/30 50/2/30
f 52/2/26 54/2/26 56/2/26
f 61/2/1 59/2/1 57/2/1
f 58/2/27 63/2/27 57/2/27
f 59/2/16 64/2/16 58/2/16
f 60/2/28 65/2/28 59/2/28
f 61/2/29 66/2/29 60/2/29
f 62/2/12 67/2/12 61/2/12
f 57/2/30 68/2/30 62/2/30
f 64/2/26 66/2/26 68/2/26
f 73/2/1 71/2/1 69/2/1
f 70/2/27 75/2/27 69/2/27
f 71/2/16 76/2/16 70/2/16
f 72/2/28 77/2/28 71/2/28
f 73/2/29 78/2/29 72/2/29
f 74/2/12 79/2/12 73/2/12
f 69/2/30 80/2/30 74/2/30
f 76/2/26 78/2/26 80/2/26
f 89/3/1 85/3/1 81/3/1
f 82/3/31 93/3/31 81/3/31
f 83/3/15 94/3/15 82/3/15
f 84/3/32 95/3/32 83/3/32
f 85/3/33 96/3/33 84/3/33
f 86/3/17 97/3/17 85/3/17
f 87/3/34 98/3/34 86/3/34
f 88/3/35 99/3/35 87/3/35
f 89/3/11 100/3/11 88/3/11
f 90/3/36 101/3/36 89/3/36
f 91/3/37 102/3/37 90/3/37
f 92/3/13 103/3/13 91/3/13
f 81/3/38 104/3/38 92/3/38
f 96/3/26 100/3/26 104/3/26
f 1/1/1 8/1/1 7/1/1
f 7/1/1 6/1/1 1/1/1
f 6/1/1 5/1/1 1/1/1
f 5/1/1 4/1/1 3/1/1
f 3/1/1 2/1/1 5/1/1
f 2/1/2 10/1/2 9/1/2
f 2/1/3 3/1/3 11/1/3
f 4/1/4 12/1/4 11/1/4
f 5/1/5 13/1/5 12/1/5
f 6/1/6 14/1/6 13/1/6
f 6/1/7 7/1/7 15/1/7
f 8/1/8 16/1/8 15/1/8
f 1/1/9 9/1/9 16/1/9
f 10/1/10 18/1/10 17/1/10
f 11/1/11 19/1/11 18/1/11
f 12/1/12 20/1/12 19/1/12
f 13/1/13 21/1/13 20/1/13
f 14/1/14 22/1/14 21/1/14
f 15/1/15 23/1/15 22/1/15
f 16/1/16 24/1/16 23/1/16
f 9/1/17 17/1/17 24/1/17
f 18/1/18 26/1/18 25/1/18
f 19/1/19 27/1/19 26/1/19
f 20/1/20 28/1/20 27/1/20
f 20/1/21 21/1/21 29/1/21
f 22/1/22 30/1/22 29/1/22
f 23/1/23 31/1/23 30/1/23
f 24/1/24 32/1/24 31/1/24
f 24/1/25 17/1/25 25/1/25
f 32/1/26 25/1/26 30/1/26
f 25/1/26 26/1/26 30/1/26
f 26/1/26 27/1/26 28/1/26
f 28/1/26 29/1/26 26/1/26
f 29/1/26 30/1/26 26/1/26
f 33/2/1 38/2/1 37/2/1
f 37/2/1 36/2/1 35/2/1
f 35/2/1 34/2/1 33/2/1
f 34/2/27 40/2/27 39/2/27
f 35/2/16 41/2/16 40/2/16
f 36/2/28 42/2/28 41/2/28
f 37/2/29 43/2/29 42/2/29
f 38/2/12 44/2/12 43/2/12
f 33/2/30 39/2/30 44/2/30
f 44/2/26 39/2/26 40/2/26
f 40/2/26 41/2/26 42/2/26
f 42/2/26 43/2/26 44/2/26
f 45/2/1 50/2/1 49/2/1
f 49/2/1 48/2/1 47/2/1
f 47/2/1 46/2/1 45/2/1
f 46/2/27 52/2/27 51/2/27
f 47/2/16 53/2/16 52/2/16
f 48/2/28 54/2/28 53/2/28
f 49/2/29 55/2/29 54/2/29
f 50/2/12 56/2/12 55/2/12
f 45/2/30 51/2/30 56/2/30
f 56/2/26 51/2/26 52/2/26
f 52/2/26 53/2/26 54/2/26
f 54/2/26 55/2/26 56/2/26
f 57/2/1 62/2/1 61/2/1
f 61/2/1 60/2/1 59/2/1
f 59/2/1 58/2/1 57/2/1
f 58/2/27 64/2/27 63/2/27
f 59/2/16 65/2/16 64/2/16
f 60/2/28 66/2/28 65/2/28
f 61/2/29 67/2/29 66/2/29
f 62/2/12 68/2/12 67/2/12
f 57/2/30 63/2/30 68/2/30
f 68/2/26 63/2/26 64/2/26
f 64/2/26 65/2/26 66/2/26
f 66/2/26 67/2/26 68/2/26
f 69/2/1 74/2/1 73/2/1
f 73/2/1 72/2/1 71/2/1
f 71/2/1 70/2/1 69/2/1
f 70/2/27 76/2/27 75/2/27
f 71/2/16 77/2/16 76/2/16
f 72/2/28 78/2/28 77/2/28
f 73/2/29 79/2/29 78/2/29
f 74/2/12 80/2/12 79/2/12
f 69/2/30 75/2/30 80/2/30
f 80/2/26 75/2/26 76/2/26
f 76/2/26 77/2/26 78/2/26
f 78/2/26 79/2/26 80/2/26
f 81/3/1 92/3/1 91/3/1
f 91/3/1 90/3/1 89/3/1
f 89/3/1 88/3/1 87/3/1
f 87/3/1 86/3/1 85/3/1
f 85/3/1 84/3/1 83/3/1
f 83/3/1 82/3/1 81/3/1
f 81/3/1 91/3/1 89/3/1
f 89/3/1 87/3/1 85/3/1
f 85/3/1 83/3/1 81/3/1
f 82/3/31 94/3/31 93/3/31
f 83/3/15 95/3/15 94/3/15
f 84/3/32 96/3/32 95/3/32
f 85/3/33 97/3/33 96/3/33
f 86/3/17 98/3/17 97/3/17
f 87/3/34 99/3/34 98/3/34
f 88/3/35 100/3/35 99/3/35
f 89/3/11 101/3/11 100/3/11
f 90/3/36 102/3/36 101/3/36
f 91/3/37 103/3/37 102/3/37
f 92/3/13 104/3/13 103/3/13
f 81/3/38 93/3/38 104/3/38
f 104/3/26 93/3/26 94/3/26
f 94/3/26 95/3/26 96/3/26
f 96/3/26 97/3/26 98/3/26
f 98/3/26 99/3/26 100/3/26
f 100/3/26 101/3/26 102/3/26
f 102/3/26 103/3/26 104/3/26
f 104/3/26 94/3/26 96/3/26
f 96/3/26 98/3/26 100/3/26
f 100/3/26 102/3/26 104/3/26
o MOVING.003
v 0.000000 0.130000 -0.290000
v -0.170458 0.130000 -0.234615
v -0.275806 0.130000 -0.089615
v -0.275806 0.130000 0.089615
v -0.170458 0.130000 0.234615
v -0.000000 0.130000 0.290000
v 0.170458 0.130000 0.234615
v 0.275806 0.130000 0.089615
v 0.275806 0.130000 -0.089615
v 0.170458 0.130000 -0.234615
v 0.000000 0.470000 -0.290000
v -0.170458 0.470000 -0.234615
v -0.275806 0.470000 -0.089615
v -0.275806 0.470000 0.089615
v -0.170458 0.470000 0.234615
v -0.000000 0.470000 0.290000
v 0.170458 0.470000 0.234615
v 0.275806 0.470000 0.089615
v 0.275806 0.470000 -0.089615
v 0.170458 0.470000 -0.234615
v -0.255000 0.320000 0.260000
v 0.255000 0.320000 0.260000
v 0.280000 0.320000 0.235000
v 0.280000 0.320000 -0.235000
v 0.255000 0.320000 -0.260000
v -0.255000 0.320000 -0.260000
v -0.280000 0.320000 -0.235000
v -0.280000 0.320000 0.235000
v -0.280000 0.345000 0.285000
v 0.280000 0.345000 0.285000
v 0.305000 0.345000 0.260000
v 0.305000 0.345000 -0.260000
v 0.280000 0.345000 -0.285000
v -0.280000 0.345000 -0.285000
v -0.305000 0.345000 -0.260000
v -0.305000 0.345000 0.260000
v -0.280000 0.695000 0.285000
v 0.280000 0.695000 0.285000
v 0.305000 0.695000 0.260000
v 0.305000 0.695000 -0.260000
v 0.280000 0.695000 -0.285000
v -0.280000 0.695000 -0.285000
v -0.305000 0.695000 -0.260000
v -0.305000 0.695000 0.260000
v -0.255000 0.720000 0.260000
v 0.255000 0.720000 0.260000
v 0.280000 0.720000 0.235000
v 0.280000 0.720000 -0.235000
v 0.255000 0.720000 -0.260000
v -0.255000 0.720000 -0.260000
v -0.280000 0.720000 -0.235000
v -0.280000 0.720000 0.235000
v -0.230000 0.715000 0.150000
v 0.230000 0.715000 0.150000
v 0.230000 0.715000 -0.270000
v -0.230000 0.715000 -0.270000
v -0.230000 0.775000 0.150000
v 0.230000 0.775000 0.150000
v 0.230000 0.775000 -0.270000
v -0.230000 0.775000 -0.270000
v 0.000000 0.652000 0.360000
v -0.042321 0.638249 0.360000
v -0.068476 0.602249 0.360000
v -0.068476 0.557751 0.360000
v -0.042321 0.521751 0.360000
v -0.000000 0.508000 0.360000
v 0.042321 0.521751 0.360000
v 0.068476 0.557751 0.360000
v 0.068476 0.602249 0.360000
v 0.042321 0.638249 0.360000
v 0.000000 0.652000 1.490000
v -0.042321 0.638249 1.490000
v -0.068476 0.602249 1.490000
v -0.068476 0.557751 1.490000
v -0.042321 0.521751 1.490000
v -0.000000 0.508000 1.490000
v 0.042321 0.521751 1.490000
v 0.068476 0.557751 1.490000
v 0.068476 0.602249 1.490000
v 0.042321 0.638249 1.490000
v 0.000000 0.677200 1.455000
v -0.057133 0.658636 1.455000
v -0.092443 0.610036 1.455000
v -0.092443 0.549964 1.455000
v -0.057133 0.501364 1.455000
v -0.000000 0.482800 1.455000
v 0.057133 0.501364 1.455000
v 0.092443 0.549964 1.455000
v 0.092443 0.610036 1.455000
v 0.057133 0.658636 1.455000
v 0.000000 0.677200 1.545000
v -0.057133 0.658636 1.545000
v -0.092443 0.610036 1.545000
v -0.092443 0.549964 1.545000
v -0.057133 0.501364 1.545000
v -0.000000 0.482800 1.545000
v 0.057133 0.501364 1.545000
v 0.092443 0.549964 1.545000
v 0.092443 0.610036 1.545000
v 0.057133 0.658636 1.545000
v 0.000000 0.634000 1.548000
v -0.031740 0.623687 1.548000
v -0.051357 0.596687 1.548000
v -0.051357 0.563313 1.548000
v -0.031740 0.536313 1.548000
v -0.000000 0.526000 1.548000
v 0.031740 0.536313 1.548000
v 0.051357 0.563313 1.548000
v 0.051357 0.596687 1.548000
v 0.031740 0.623687 1.548000
v 0.000000 0.634000 1.562000
v -0.031740 0.623687 1.562000
v -0.051357 0.596687 1.562000
v -0.051357 0.563313 1.562000
v -0.031740 0.536313 1.562000
v -0.000000 0.526000 1.562000
v 0.031740 0.536313 1.562000
v 0.051357 0.563313 1.562000
v 0.051357 0.596687 1.562000
v 0.031740 0.623687 1.562000
v -0.465000 0.255000 0.105000
v -0.335000 0.255000 0.105000
v -0.310000 0.255000 0.080000
v -0.310000 0.255000 -0.240000
v -0.335000 0.255000 -0.265000
v -0.465000 0.255000 -0.265000
v -0.490000 0.255000 -0.240000
v -0.490000 0.255000 0.080000
v -0.490000 0.280000 0.130000
v -0.310000 0.280000 0.130000
v -0.285000 0.280000 0.105000
v -0.285000 0.280000 -0.265000
v -0.310000 0.280000 -0.290000
v -0.490000 0.280000 -0.290000
v -0.515000 0.280000 -0.265000
v -0.515000 0.280000 0.105000
v -0.490000 0.560000 0.130000
v -0.310000 0.560000 0.130000
v -0.285000 0.560000 0.105000
v -0.285000 0.560000 -0.265000
v -0.310000 0.560000 -0.290000
v -0.490000 0.560000 -0.290000
v -0.515000 0.560000 -0.265000
v -0.515000 0.560000 0.105000
v -0.465000 0.585000 0.105000
v -0.335000 0.585000 0.105000
v -0.310000 0.585000 0.080000
v -0.310000 0.585000 -0.240000
v -0.335000 0.585000 -0.265000
v -0.465000 0.585000 -0.265000
v -0.490000 0.585000 -0.240000
v -0.490000 0.585000 0.080000
v -0.532500 0.585000 0.147500
v -0.267500 0.585000 0.147500
v -0.267500 0.585000 -0.307500
v -0.532500 0.585000 -0.307500
v -0.532500 0.635000 0.147500
v -0.267500 0.635000 0.147500
v -0.267500 0.635000 -0.307500
v -0.532500 0.635000 -0.307500
v -0.486500 0.220000 0.155000
v -0.451500 0.220000 0.155000
v -0.451500 0.220000 -0.315000
v -0.486500 0.220000 -0.315000
v -0.486500 0.620000 0.155000
v -0.451500 0.620000 0.155000
v -0.451500 0.620000 -0.315000
v -0.486500 0.620000 -0.315000
v -0.495600 0.440900 0.167500
v -0.405600 0.440900 0.167500
v -0.405600 0.440900 0.132500
v -0.495600 0.440900 0.132500
v -0.495600 0.550900 0.167500
v -0.405600 0.550900 0.167500
v -0.405600 0.550900 0.132500
v -0.495600 0.550900 0.132500
v -0.348500 0.220000 0.155000
v -0.313500 0.220000 0.155000
v -0.313500 0.220000 -0.315000
v -0.348500 0.220000 -0.315000
v -0.348500 0.620000 0.155000
v -0.313500 0.620000 0.155000
v -0.313500 0.620000 -0.315000
v -0.348500 0.620000 -0.315000
v -0.394400 0.440900 0.167500
v -0.304400 0.440900 0.167500
v -0.304400 0.440900 0.132500
v -0.394400 0.440900 0.132500
v -0.394400 0.550900 0.167500
v -0.304400 0.550900 0.167500
v -0.304400 0.550900 0.132500
v -0.394400 0.550900 0.132500
v -0.500000 0.434600 0.192500
v -0.300000 0.434600 0.192500
v -0.300000 0.434600 0.147500
v -0.500000 0.434600 0.147500
v -0.500000 0.484600 0.192500
v -0.300000 0.484600 0.192500
v -0.300000 0.484600 0.147500
v -0.500000 0.484600 0.147500
v -0.222500 0.685000 0.127500
v -0.197500 0.685000 0.127500
v -0.197500 0.685000 0.072500
v -0.222500 0.685000 0.072500
v -0.222500 0.815000 0.127500
v -0.197500 0.815000 0.127500
v -0.197500 0.815000 0.072500
v -0.222500 0.815000 0.072500
v 0.197500 0.685000 0.127500
v 0.222500 0.685000 0.127500
v 0.222500 0.685000 0.072500
v 0.197500 0.685000 0.072500
v 0.197500 0.815000 0.127500
v 0.222500 0.815000 0.127500
v 0.222500 0.815000 0.072500
v 0.197500 0.815000 0.072500
v -0.080000 0.475000 0.575000
v 0.080000 0.475000 0.575000
v 0.105000 0.475000 0.550000
v 0.105000 0.475000 -0.070000
v 0.080000 0.475000 -0.095000
v -0.080000 0.475000 -0.095000
v -0.105000 0.475000 -0.070000
v -0.105000 0.475000 0.550000
v -0.105000 0.500000 0.600000
v 0.105000 0.500000 0.600000
v 0.130000 0.500000 0.575000
v 0.130000 0.500000 -0.095000
v 0.105000 0.500000 -0.120000
v -0.105000 0.500000 -0.120000
v -0.130000 0.500000 -0.095000
v -0.130000 0.500000 0.575000
v -0.105000 0.700000 0.600000
v 0.105000 0.700000 0.600000
v 0.130000 0.700000 0.575000
v 0.130000 0.700000 -0.095000
v 0.105000 0.700000 -0.120000
v -0.105000 0.700000 -0.120000
v -0.130000 0.700000 -0.095000
v -0.130000 0.700000 0.575000
v -0.080000 0.725000 0.575000
v 0.080000 0.725000 0.575000
v 0.105000 0.725000 0.550000
v 0.105000 0.725000 -0.070000
v 0.080000 0.725000 -0.095000
v -0.080000 0.725000 -0.095000
v -0.105000 0.725000 -0.070000
v -0.105000 0.725000 0.550000
v 0.000000 0.757000 0.490000
v -0.019092 0.749092 0.490000
v -0.027000 0.730000 0.490000
v -0.019092 0.710908 0.490000
v -0.000000 0.703000 0.490000
v 0.019092 0.710908 0.490000
v 0.027000 0.730000 0.490000
v 0.019092 0.749092 0.490000
v 0.000000 0.757000 1.230000
v -0.019092 0.749092 1.230000
v -0.027000 0.730000 1.230000
v -0.019092 0.710908 1.230000
v -0.000000 0.703000 1.230000
v 0.019092 0.710908 1.230000
v 0.027000 0.730000 1.230000
v 0.019092 0.749092 1.230000
v -0.052000 0.470000 -0.289000
v 0.052000 0.470000 -0.289000
v 0.076000 0.470000 -0.313000
v 0.076000 0.470000 -0.587000
v 0.052000 0.470000 -0.611000
v -0.052000 0.470000 -0.611000
v -0.076000 0.470000 -0.587000
v -0.076000 0.470000 -0.313000
v -0.076000 0.494000 -0.265000
v 0.076000 0.494000 -0.265000
v 0.100000 0.494000 -0.289000
v 0.100000 0.494000 -0.611000
v 0.076000 0.494000 -0.635000
v -0.076000 0.494000 -0.635000
v -0.100000 0.494000 -0.611000
v -0.100000 0.494000 -0.289000
v -0.076000 0.706000 -0.265000
v 0.076000 0.706000 -0.265000
v 0.100000 0.706000 -0.289000
v 0.100000 0.706000 -0.611000
v 0.076000 0.706000 -0.635000
v -0.076000 0.706000 -0.635000
v -0.100000 0.706000 -0.611000
v -0.100000 0.706000 -0.289000
v -0.052000 0.730000 -0.289000
v 0.052000 0.730000 -0.289000
v 0.076000 0.730000 -0.313000
v 0.076000 0.730000 -0.587000
v 0.052000 0.730000 -0.611000
v -0.052000 0.730000 -0.611000
v -0.076000 0.730000 -0.587000
v -0.076000 0.730000 -0.313000
v -0.125000 0.647500 0.502500
v 0.125000 0.647500 0.502500
v 0.125000 0.647500 0.457500
v -0.125000 0.647500 0.457500
v -0.125000 0.692500 0.502500
v 0.125000 0.692500 0.502500
v 0.125000 0.692500 0.457500
v -0.125000 0.692500 0.457500
v -0.125000 0.647500 0.632500
v 0.125000 0.647500 0.632500
v 0.125000 0.647500 0.587500
v -0.125000 0.647500 0.587500
v -0.125000 0.692500 0.632500
v 0.125000 0.692500 0.632500
v 0.125000 0.692500 0.587500
v -0.125000 0.692500 0.587500
v -0.125000 0.647500 0.762500
v 0.125000 0.647500 0.762500
v 0.125000 0.647500 0.717500
v -0.125000 0.647500 0.717500
v -0.125000 0.692500 0.762500
v 0.125000 0.692500 0.762500
v 0.125000 0.692500 0.717500
v -0.125000 0.692500 0.717500
v -0.125000 0.647500 0.892500
v 0.125000 0.647500 0.892500
v 0.125000 0.647500 0.847500
v -0.125000 0.647500 0.847500
v -0.125000 0.692500 0.892500
v 0.125000 0.692500 0.892500
v 0.125000 0.692500 0.847500
v -0.125000 0.692500 0.847500
v 0.094000 0.300000 0.248000
v 0.146000 0.300000 0.248000
v 0.158000 0.300000 0.236000
v 0.158000 0.300000 0.084000
v 0.146000 0.300000 0.072000
v 0.094000 0.300000 0.072000
v 0.082000 0.300000 0.084000
v 0.082000 0.300000 0.236000
v 0.082000 0.312000 0.260000
v 0.158000 0.312000 0.260000
v 0.170000 0.312000 0.248000
v 0.170000 0.312000 0.072000
v 0.158000 0.312000 0.060000
v 0.082000 0.312000 0.060000
v 0.070000 0.312000 0.072000
v 0.070000 0.312000 0.248000
v 0.082000 0.448000 0.260000
v 0.158000 0.448000 0.260000
v 0.170000 0.448000 0.248000
v 0.170000 0.448000 0.072000
v 0.158000 0.448000 0.060000
v 0.082000 0.448000 0.060000
v 0.070000 0.448000 0.072000
v 0.070000 0.448000 0.248000
v 0.094000 0.460000 0.248000
v 0.146000 0.460000 0.248000
v 0.158000 0.460000 0.236000
v 0.158000 0.460000 0.084000
v 0.146000 0.460000 0.072000
v 0.094000 0.460000 0.072000
v 0.082000 0.460000 0.084000
v 0.082000 0.460000 0.236000
v 0.094000 0.170000 0.318000
v 0.146000 0.170000 0.318000
v 0.158000 0.170000 0.306000
v 0.158000 0.170000 0.154000
v 0.146000 0.170000 0.142000
v 0.094000 0.170000 0.142000
v 0.082000 0.170000 0.154000
v 0.082000 0.170000 0.306000
v 0.082000 0.182000 0.330000
v 0.158000 0.182000 0.330000
v 0.170000 0.182000 0.318000
v 0.170000 0.182000 0.142000
v 0.158000 0.182000 0.130000
v 0.082000 0.182000 0.130000
v 0.070000 0.182000 0.142000
v 0.070000 0.182000 0.318000
v 0.082000 0.318000 0.330000
v 0.158000 0.318000 0.330000
v 0.170000 0.318000 0.318000
v 0.170000 0.318000 0.142000
v 0.158000 0.318000 0.130000
v 0.082000 0.318000 0.130000
v 0.070000 0.318000 0.142000
v 0.070000 0.318000 0.318000
v 0.094000 0.330000 0.318000
v 0.146000 0.330000 0.318000
v 0.158000 0.330000 0.306000
v 0.158000 0.330000 0.154000
v 0.146000 0.330000 0.142000
v 0.094000 0.330000 0.142000
v 0.082000 0.330000 0.154000
v 0.082000 0.330000 0.306000
v 0.094000 0.040000 0.408000
v 0.146000 0.040000 0.408000
v 0.158000 0.040000 0.396000
v 0.158000 0.040000 0.244000
v 0.146000 0.040000 0.232000
v 0.094000 0.040000 0.232000
v 0.082000 0.040000 0.244000
v 0.082000 0.040000 0.396000
v 0.082000 0.052000 0.420000
v 0.158000 0.052000 0.420000
v 0.170000 0.052000 0.408000
v 0.170000 0.052000 0.232000
v 0.158000 0.052000 0.220000
v 0.082000 0.052000 0.220000
v 0.070000 0.052000 0.232000
v 0.070000 0.052000 0.408000
v 0.082000 0.188000 0.420000
v 0.158000 0.188000 0.420000
v 0.170000 0.188000 0.408000
v 0.170000 0.188000 0.232000
v 0.158000 0.188000 0.220000
v 0.082000 0.188000 0.220000
v 0.070000 0.188000 0.232000
v 0.070000 0.188000 0.408000
v 0.094000 0.200000 0.408000
v 0.146000 0.200000 0.408000
v 0.158000 0.200000 0.396000
v 0.158000 0.200000 0.244000
v 0.146000 0.200000 0.232000
v 0.094000 0.200000 0.232000
v 0.082000 0.200000 0.244000
v 0.082000 0.200000 0.396000
vn -0.0000 -1.0000 -0.0000
vn -0.3090 -0.0000 -0.9511
vn -0.8090 -0.0000 -0.5878
vn -1.0000 -0.0000 -0.0000
vn -0.8090 -0.0000 0.5878
vn -0.3090 -0.0000 0.9511
vn 0.3090 -0.0000 0.9511
vn 0.8090 -0.0000 0.5878
vn 1.0000 -0.0000 -0.0000
vn 0.8090 -0.0000 -0.5878
vn 0.3090 -0.0000 -0.9511
vn -0.0000 1.0000 -0.0000
vn -0.0000 -0.7071 0.7071
vn 0.4082 -0.8165 0.4082
vn 0.7071 -0.7071 -0.0000
vn 0.4082 -0.8165 -0.4082
vn -0.0000 -0.7071 -0.7071
vn -0.4082 -0.8165 -0.4082
vn -0.7071 -0.7071 -0.0000
vn -0.4082 -0.8165 0.4082
vn -0.0000 -0.0000 1.0000
vn 0.7071 -0.0000 0.7071
vn 0.7071 -0.0000 -0.7071
vn -0.0000 -0.0000 -1.0000
vn -0.7071 -0.0000 -0.7071
vn -0.7071 -0.0000 0.7071
vn -0.0000 0.7071 0.7071
vn 0.4082 0.8165 0.4082
vn 0.7071 0.7071 -0.0000
vn 0.4082 0.8165 -0.4083
vn -0.0000 0.7071 -0.7071
vn -0.4082 0.8165 -0.4082
vn -0.7071 0.7071 -0.0000
vn -0.4082 0.8165 0.4083
vn -0.3090 0.9511 -0.0000
vn -0.8090 0.5878 -0.0000
vn -0.8090 -0.5878 -0.0000
vn -0.3090 -0.9511 -0.0000
vn 0.3090 -0.9511 -0.0000
vn 0.8090 -0.5878 -0.0000
vn 0.8090 0.5878 -0.0000
vn 0.3090 0.9511 -0.0000
vn 0.4082 0.8165 -0.4082
vn -0.4082 0.8165 0.4082
vn -0.3827 0.9239 -0.0000
vn -0.9239 0.3827 -0.0000
vn -0.9239 -0.3827 -0.0000
vn -0.3827 -0.9239 -0.0000
vn 0.3827 -0.9239 -0.0000
vn 0.9239 -0.3827 -0.0000
vn 0.9239 0.3827 -0.0000
vn 0.3827 0.9239 -0.0000
vn 0.4083 0.8165 0.4082
vn -0.4083 0.8165 0.4082
vn -0.4083 -0.8165 -0.4082
vn 0.4083 0.8165 -0.4082
vn 0.4082 0.8165 0.4083
vn -0.4082 0.8165 -0.4083
vn 0.4083 -0.8165 0.4083
vt 0.625000 0.125000
vt 0.125000 0.125000
vt 0.375000 0.125000
vt 0.875000 0.125000
vt 0.125000 0.625000
vt 0.625000 0.875000
vt 0.125000 0.875000
vt 0.375000 0.875000
s 0
usemtl Military_Equipment_Palette
f 111/4/39 107/4/39 105/4/39
f 106/4/40 115/4/40 105/4/40
f 107/4/41 116/4/41 106/4/41
f 108/4/42 117/4/42 107/4/42
f 109/4/43 118/4/43 108/4/43
f 110/4/44 119/4/44 109/4/44
f 111/4/45 120/4/45 110/4/45
f 112/4/46 121/4/46 111/4/46
f 113/4/47 122/4/47 112/4/47
f 114/4/48 123/4/48 113/4/48
f 105/4/49 124/4/49 114/4/49
f 118/4/50 122/4/50 124/4/50
f 126/5/39 125/5/39 129/5/39
f 126/5/51 133/5/51 125/5/51
f 127/5/52 134/5/52 126/5/52
f 128/5/53 135/5/53 127/5/53
f 128/5/54 137/5/54 136/5/54
f 130/5/55 137/5/55 129/5/55
f 131/5/56 138/5/56 130/5/56
f 132/5/57 139/5/57 131/5/57
f 132/5/58 133/5/58 140/5/58
f 134/5/59 141/5/59 133/5/59
f 135/5/60 142/5/60 134/5/60
f 136/5/47 143/5/47 135/5/47
f 137/5/61 144/5/61 136/5/61
f 138/5/62 145/5/62 137/5/62
f 139/5/63 146/5/63 138/5/63
f 140/5/42 147/5/42 139/5/42
f 133/5/64 148/5/64 140/5/64
f 142/5/65 149/5/65 141/5/65
f 142/5/66 151/5/66 150/5/66
f 144/5/67 151/5/67 143/5/67
f 145/5/68 152/5/68 144/5/68
f 146/5/69 153/5/69 145/5/69
f 146/5/70 155/5/70 154/5/70
f 148/5/71 155/5/71 147/5/71
f 141/5/72 156/5/72 148/5/72
f 154/5/50 155/5/50 156/5/50
f 159/6/39 157/6/39 160/6/39
f 162/6/50 164/6/50 161/6/50
f 158/6/59 161/6/59 157/6/59
f 159/6/47 162/6/47 158/6/47
f 160/6/62 163/6/62 159/6/62
f 157/6/42 164/6/42 160/6/42
f 171/7/62 167/7/62 165/7/62
f 166/7/73 175/7/73 165/7/73
f 167/7/74 176/7/74 166/7/74
f 168/7/42 177/7/42 167/7/42
f 169/7/75 178/7/75 168/7/75
f 170/7/76 179/7/76 169/7/76
f 171/7/77 180/7/77 170/7/77
f 172/7/78 181/7/78 171/7/78
f 173/7/47 182/7/47 172/7/47
f 174/7/79 183/7/79 173/7/79
f 165/7/80 184/7/80 174/7/80
f 180/7/59 182/7/59 184/7/59
f 189/8/62 187/8/62 185/8/62
f 186/8/73 195/8/73 185/8/73
f 187/8/74 196/8/74 186/8/74
f 188/8/42 197/8/42 187/8/42
f 189/8/75 198/8/75 188/8/75
f 190/8/76 199/8/76 189/8/76
f 191/8/77 200/8/77 190/8/77
f 192/8/78 201/8/78 191/8/78
f 193/8/47 202/8/47 192/8/47
f 194/8/79 203/8/79 193/8/79
f 185/8/80 204/8/80 194/8/80
f 198/8/59 202/8/59 204/8/59
f 213/9/62 211/9/62 207/9/62
f 206/9/73 215/9/73 205/9/73
f 207/9/74 216/9/74 206/9/74
f 208/9/42 217/9/42 207/9/42
f 209/9/75 218/9/75 208/9/75
f 210/9/76 219/9/76 209/9/76
f 211/9/77 220/9/77 210/9/77
f 212/9/78 221/9/78 211/9/78
f 213/9/47 222/9/47 212/9/47
f 214/9/79 223/9/79 213/9/79
f 205/9/80 224/9/80 214/9/80
f 223/9/59 224/9/59 218/9/59
f 227/10/39 226/10/39 225/10/39
f 226/10/51 233/10/51 225/10/51
f 227/10/52 234/10/52 226/10/52
f 227/10/53 236/10/53 235/10/53
f 228/10/54 237/10/54 236/10/54
f 230/10/55 237/10/55 229/10/55
f 230/10/56 239/10/56 238/10/56
f 232/10/57 239/10/57 231/10/57
f 225/10/58 240/10/58 232/10/58
f 234/10/59 241/10/59 233/10/59
f 235/10/60 242/10/60 234/10/60
f 236/10/47 243/10/47 235/10/47
f 237/10/61 244/10/61 236/10/61
f 238/10/62 245/10/62 237/10/62
f 239/10/63 246/10/63 238/10/63
f 240/10/42 247/10/42 239/10/42
f 233/10/64 248/10/64 240/10/64
f 242/10/65 249/10/65 241/10/65
f 242/10/66 251/10/66 250/10/66
f 244/10/67 251/10/67 243/10/67
f 245/10/81 252/10/81 244/10/81
f 246/10/69 253/10/69 245/10/69
f 247/10/70 254/10/70 246/10/70
f 248/10/71 255/10/71 247/10/71
f 241/10/82 256/10/82 248/10/82
f 255/10/50 256/10/50 252/10/50
f 259/6/39 257/6/39 260/6/39
f 262/6/50 264/6/50 261/6/50
f 258/6/59 261/6/59 257/6/59
f 259/6/47 262/6/47 258/6/47
f 260/6/62 263/6/62 259/6/62
f 257/6/42 264/6/42 260/6/42
f 267/7/39 265/7/39 268/7/39
f 270/7/50 272/7/50 269/7/50
f 266/7/59 269/7/59 265/7/59
f 267/7/47 270/7/47 266/7/47
f 268/7/62 271/7/62 267/7/62
f 265/7/42 272/7/42 268/7/42
f 275/11/39 273/11/39 276/11/39
f 278/11/50 280/11/50 277/11/50
f 274/11/59 277/11/59 273/11/59
f 275/11/47 278/11/47 274/11/47
f 276/11/62 279/11/62 275/11/62
f 273/11/42 280/11/42 276/11/42
f 283/7/39 281/7/39 284/7/39
f 286/7/50 288/7/50 285/7/50
f 282/7/59 285/7/59 281/7/59
f 283/7/47 286/7/47 282/7/47
f 284/7/62 287/7/62 283/7/62
f 281/7/42 288/7/42 284/7/42
f 291/11/39 289/11/39 292/11/39
f 294/11/50 296/11/50 293/11/50
f 290/11/59 293/11/59 289/11/59
f 291/11/47 294/11/47 290/11/47
f 292/11/62 295/11/62 291/11/62
f 289/11/42 296/11/42 292/11/42
f 299/8/39 297/8/39 300/8/39
f 302/8/50 304/8/50 301/8/50
f 298/8/59 301/8/59 297/8/59
f 299/8/47 302/8/47 298/8/47
f 300/8/62 303/8/62 299/8/62
f 297/8/42 304/8/42 300/8/42
f 307/7/39 305/7/39 308/7/39
f 310/7/50 312/7/50 309/7/50
f 306/7/59 309/7/59 305/7/59
f 307/7/47 310/7/47 306/7/47
f 308/7/62 311/7/62 307/7/62
f 305/7/42 312/7/42 308/7/42
f 315/7/39 313/7/39 316/7/39
f 318/7/50 320/7/50 317/7/50
f 314/7/59 317/7/59 313/7/59
f 315/7/47 318/7/47 314/7/47
f 316/7/62 319/7/62 315/7/62
f 313/7/42 320/7/42 316/7/42
f 323/4/39 322/4/39 321/4/39
f 322/4/51 329/4/51 321/4/51
f 323/4/52 330/4/52 322/4/52
f 324/4/53 331/4/53 323/4/53
f 325/4/54 332/4/54 324/4/54
f 325/4/55 334/4/55 333/4/55
f 326/4/56 335/4/56 334/4/56
f 328/4/57 335/4/57 327/4/57
f 328/4/58 329/4/58 336/4/58
f 330/4/59 337/4/59 329/4/59
f 331/4/60 338/4/60 330/4/60
f 332/4/47 339/4/47 331/4/47
f 333/4/61 340/4/61 332/4/61
f 334/4/62 341/4/62 333/4/62
f 335/4/63 342/4/63 334/4/63
f 336/4/42 343/4/42 335/4/42
f 329/4/64 344/4/64 336/4/64
f 338/4/65 345/4/65 337/4/65
f 338/4/66 347/4/66 346/4/66
f 340/4/67 347/4/67 339/4/67
f 340/4/81 349/4/81 348/4/81
f 341/4/69 350/4/69 349/4/69
f 343/4/70 350/4/70 342/4/70
f 344/4/71 351/4/71 343/4/71
f 337/4/82 352/4/82 344/4/82
f 351/4/50 352/4/50 348/4/50
f 359/8/62 357/8/62 355/8/62
f 354/8/83 361/8/83 353/8/83
f 355/8/84 362/8/84 354/8/84
f 356/8/85 363/8/85 355/8/85
f 357/8/86 364/8/86 356/8/86
f 358/8/87 365/8/87 357/8/87
f 359/8/88 366/8/88 358/8/88
f 360/8/89 367/8/89 359/8/89
f 353/8/90 368/8/90 360/8/90
f 367/8/59 368/8/59 364/8/59
f 371/10/39 370/10/39 369/10/39
f 370/10/51 377/10/51 369/10/51
f 370/10/52 379/10/52 378/10/52
f 372/10/53 379/10/53 371/10/53
f 373/10/54 380/10/54 372/10/54
f 374/10/55 381/10/55 373/10/55
f 375/10/56 382/10/56 374/10/56
f 376/10/57 383/10/57 375/10/57
f 369/10/58 384/10/58 376/10/58
f 378/10/59 385/10/59 377/10/59
f 379/10/60 386/10/60 378/10/60
f 380/10/47 387/10/47 379/10/47
f 381/10/61 388/10/61 380/10/61
f 382/10/62 389/10/62 381/10/62
f 383/10/63 390/10/63 382/10/63
f 384/10/42 391/10/42 383/10/42
f 377/10/64 392/10/64 384/10/64
f 386/10/65 393/10/65 385/10/65
f 387/10/91 394/10/91 386/10/91
f 388/10/67 395/10/67 387/10/67
f 389/10/81 396/10/81 388/10/81
f 390/10/69 397/10/69 389/10/69
f 390/10/70 399/10/70 398/10/70
f 392/10/71 399/10/71 391/10/71
f 385/10/92 400/10/92 392/10/92
f 399/10/50 400/10/50 396/10/50
f 403/8/39 401/8/39 404/8/39
f 406/8/50 408/8/50 405/8/50
f 402/8/59 405/8/59 401/8/59
f 403/8/47 406/8/47 402/8/47
f 404/8/62 407/8/62 403/8/62
f 401/8/42 408/8/42 404/8/42
f 411/8/39 409/8/39 412/8/39
f 414/8/50 416/8/50 413/8/50
f 410/8/59 413/8/59 409/8/59
f 411/8/47 414/8/47 410/8/47
f 412/8/62 415/8/62 411/8/62
f 409/8/42 416/8/42 412/8/42
f 419/8/39 417/8/39 420/8/39
f 422/8/50 424/8/50 421/8/50
f 418/8/59 421/8/59 417/8/59
f 419/8/47 422/8/47 418/8/47
f 420/8/62 423/8/62 419/8/62
f 417/8/42 424/8/42 420/8/42
f 427/8/39 425/8/39 428/8/39
f 430/8/50 432/8/50 429/8/50
f 426/8/59 429/8/59 425/8/59
f 427/8/47 430/8/47 426/8/47
f 428/8/62 431/8/62 427/8/62
f 425/8/42 432/8/42 428/8/42
f 435/10/39 434/10/39 433/10/39
f 434/10/51 441/10/51 433/10/51
f 435/10/52 442/10/52 434/10/52
f 436/10/53 443/10/53 435/10/53
f 436/10/54 445/10/54 444/10/54
f 437/10/55 446/10/55 445/10/55
f 438/10/93 447/10/93 446/10/93
f 440/10/57 447/10/57 439/10/57
f 440/10/58 441/10/58 448/10/58
f 442/10/59 449/10/59 441/10/59
f 443/10/60 450/10/60 442/10/60
f 444/10/47 451/10/47 443/10/47
f 445/10/61 452/10/61 444/10/61
f 446/10/62 453/10/62 445/10/62
f 447/10/63 454/10/63 446/10/63
f 448/10/42 455/10/42 447/10/42
f 441/10/64 456/10/64 448/10/64
f 449/10/65 458/10/65 457/10/65
f 450/10/91 459/10/91 458/10/91
f 451/10/67 460/10/67 459/10/67
f 453/10/81 460/10/81 452/10/81
f 454/10/69 461/10/69 453/10/69
f 455/10/70 462/10/70 454/10/70
f 456/10/71 463/10/71 455/10/71
f 456/10/92 457/10/92 464/10/92
f 463/10/50 464/10/50 460/10/50
f 467/10/39 466/10/39 465/10/39
f 466/10/51 473/10/51 465/10/51
f 466/10/52 475/10/52 474/10/52
f 467/10/53 476/10/53 475/10/53
f 469/10/54 476/10/54 468/10/54
f 469/10/55 478/10/55 477/10/55
f 470/10/56 479/10/56 478/10/56
f 472/10/57 479/10/57 471/10/57
f 465/10/58 480/10/58 472/10/58
f 474/10/59 481/10/59 473/10/59
f 475/10/60 482/10/60 474/10/60
f 476/10/47 483/10/47 475/10/47
f 477/10/61 484/10/61 476/10/61
f 478/10/62 485/10/62 477/10/62
f 479/10/63 486/10/63 478/10/63
f 480/10/42 487/10/42 479/10/42
f 473/10/64 488/10/64 480/10/64
f 481/10/65 490/10/65 489/10/65
f 483/10/66 490/10/66 482/10/66
f 484/10/67 491/10/67 483/10/67
f 485/10/94 492/10/94 484/10/94
f 486/10/69 493/10/69 485/10/69
f 487/10/70 494/10/70 486/10/70
f 488/10/71 495/10/71 487/10/71
f 488/10/82 489/10/82 496/10/82
f 495/10/50 496/10/50 492/10/50
f 499/10/39 498/10/39 497/10/39
f 498/10/51 505/10/51 497/10/51
f 498/10/52 507/10/52 506/10/52
f 500/10/53 507/10/53 499/10/53
f 500/10/54 509/10/54 508/10/54
f 501/10/55 510/10/55 509/10/55
f 502/10/56 511/10/56 510/10/56
f 503/10/57 512/10/57 511/10/57
f 497/10/58 512/10/58 504/10/58
f 506/10/59 513/10/59 505/10/59
f 507/10/60 514/10/60 506/10/60
f 508/10/47 515/10/47 507/10/47
f 509/10/61 516/10/61 508/10/61
f 510/10/62 517/10/62 509/10/62
f 511/10/63 518/10/63 510/10/63
f 512/10/42 519/10/42 511/10/42
f 505/10/64 520/10/64 512/10/64
f 513/10/65 522/10/65 521/10/65
f 514/10/95 523/10/95 522/10/95
f 515/10/67 524/10/67 523/10/67
f 517/10/81 524/10/81 516/10/81
f 518/10/69 525/10/69 517/10/69
f 519/10/70 526/10/70 518/10/70
f 520/10/71 527/10/71 519/10/71
f 520/10/72 521/10/72 528/10/72
f 527/10/50 528/10/50 524/10/50
f 105/4/39 114/4/39 111/4/39
f 114/4/39 113/4/39 111/4/39
f 113/4/39 112/4/39 111/4/39
f 111/4/39 110/4/39 109/4/39
f 109/4/39 108/4/39 111/4/39
f 108/4/39 107/4/39 111/4/39
f 107/4/39 106/4/39 105/4/39
f 106/4/40 116/4/40 115/4/40
f 107/4/41 117/4/41 116/4/41
f 108/4/42 118/4/42 117/4/42
f 109/4/43 119/4/43 118/4/43
f 110/4/44 120/4/44 119/4/44
f 111/4/45 121/4/45 120/4/45
f 112/4/46 122/4/46 121/4/46
f 113/4/47 123/4/47 122/4/47
f 114/4/48 124/4/48 123/4/48
f 105/4/49 115/4/49 124/4/49
f 124/4/50 115/4/50 116/4/50
f 116/4/50 117/4/50 124/4/50
f 117/4/50 118/4/50 124/4/50
f 118/4/50 119/4/50 120/4/50
f 120/4/50 121/4/50 118/4/50
f 121/4/50 122/4/50 118/4/50
f 122/4/50 123/4/50 124/4/50
f 125/5/39 132/5/39 131/5/39
f 131/5/39 130/5/39 125/5/39
f 130/5/39 129/5/39 125/5/39
f 129/5/39 128/5/39 127/5/39
f 127/5/39 126/5/39 129/5/39
f 126/5/51 134/5/51 133/5/51
f 127/5/52 135/5/52 134/5/52
f 128/5/53 136/5/53 135/5/53
f 128/5/54 129/5/54 137/5/54
f 130/5/55 138/5/55 137/5/55
f 131/5/56 139/5/56 138/5/56
f 132/5/57 140/5/57 139/5/57
f 132/5/58 125/5/58 133/5/58
f 134/5/59 142/5/59 141/5/59
f 135/5/60 143/5/60 142/5/60
f 136/5/47 144/5/47 143/5/47
f 137/5/61 145/5/61 144/5/61
f 138/5/62 146/5/62 145/5/62
f 139/5/63 147/5/63 146/5/63
f 140/5/42 148/5/42 147/5/42
f 133/5/64 141/5/64 148/5/64
f 142/5/65 150/5/65 149/5/65
f 142/5/95 143/5/95 151/5/95
f 144/5/67 152/5/67 151/5/67
f 145/5/81 153/5/81 152/5/81
f 146/5/69 154/5/69 153/5/69
f 146/5/96 147/5/96 155/5/96
f 148/5/71 156/5/71 155/5/71
f 141/5/82 149/5/82 156/5/82
f 156/5/50 149/5/50 154/5/50
f 149/5/50 150/5/50 154/5/50
f 150/5/50 151/5/50 152/5/50
f 152/5/50 153/5/50 150/5/50
f 153/5/50 154/5/50 150/5/50
f 159/6/39 158/6/39 157/6/39
f 162/6/50 163/6/50 164/6/50
f 158/6/59 162/6/59 161/6/59
f 159/6/47 163/6/47 162/6/47
f 160/6/62 164/6/62 163/6/62
f 157/6/42 161/6/42 164/6/42
f 165/7/62 174/7/62 173/7/62
f 173/7/62 172/7/62 171/7/62
f 171/7/62 170/7/62 167/7/62
f 170/7/62 169/7/62 167/7/62
f 169/7/62 168/7/62 167/7/62
f 167/7/62 166/7/62 165/7/62
f 165/7/62 173/7/62 171/7/62
f 166/7/73 176/7/73 175/7/73
f 167/7/74 177/7/74 176/7/74
f 168/7/42 178/7/42 177/7/42
f 169/7/75 179/7/75 178/7/75
f 170/7/76 180/7/76 179/7/76
f 171/7/77 181/7/77 180/7/77
f 172/7/78 182/7/78 181/7/78
f 173/7/47 183/7/47 182/7/47
f 174/7/79 184/7/79 183/7/79
f 165/7/80 175/7/80 184/7/80
f 184/7/59 175/7/59 178/7/59
f 175/7/59 176/7/59 178/7/59
f 176/7/59 177/7/59 178/7/59
f 178/7/59 179/7/59 180/7/59
f 180/7/59 181/7/59 182/7/59
f 182/7/59 183/7/59 184/7/59
f 178/7/59 180/7/59 184/7/59
f 185/8/62 194/8/62 193/8/62
f 193/8/62 192/8/62 185/8/62
f 192/8/62 191/8/62 185/8/62
f 191/8/62 190/8/62 189/8/62
f 189/8/62 188/8/62 187/8/62
f 187/8/62 186/8/62 185/8/62
f 191/8/62 189/8/62 185/8/62
f 186/8/73 196/8/73 195/8/73
f 187/8/74 197/8/74 196/8/74
f 188/8/42 198/8/42 197/8/42
f 189/8/75 199/8/75 198/8/75
f 190/8/76 200/8/76 199/8/76
f 191/8/77 201/8/77 200/8/77
f 192/8/78 202/8/78 201/8/78
f 193/8/47 203/8/47 202/8/47
f 194/8/79 204/8/79 203/8/79
f 185/8/80 195/8/80 204/8/80
f 204/8/59 195/8/59 198/8/59
f 195/8/59 196/8/59 198/8/59
f 196/8/59 197/8/59 198/8/59
f 198/8/59 199/8/59 200/8/59
f 200/8/59 201/8/59 202/8/59
f 202/8/59 203/8/59 204/8/59
f 198/8/59 200/8/59 202/8/59
f 205/9/62 214/9/62 213/9/62
f 213/9/62 212/9/62 211/9/62
f 211/9/62 210/9/62 209/9/62
f 209/9/62 208/9/62 211/9/62
f 208/9/62 207/9/62 211/9/62
f 207/9/62 206/9/62 205/9/62
f 205/9/62 213/9/62 207/9/62
f 206/9/73 216/9/73 215/9/73
f 207/9/74 217/9/74 216/9/74
f 208/9/42 218/9/42 217/9/42
f 209/9/75 219/9/75 218/9/75
f 210/9/76 220/9/76 219/9/76
f 211/9/77 221/9/77 220/9/77
f 212/9/78 222/9/78 221/9/78
f 213/9/47 223/9/47 222/9/47
f 214/9/79 224/9/79 223/9/79
f 205/9/80 215/9/80 224/9/80
f 224/9/59 215/9/59 216/9/59
f 216/9/59 217/9/59 224/9/59
f 217/9/59 218/9/59 224/9/59
f 218/9/59 219/9/59 222/9/59
f 219/9/59 220/9/59 222/9/59
f 220/9/59 221/9/59 222/9/59
f 222/9/59 223/9/59 218/9/59
f 225/10/39 232/10/39 227/10/39
f 232/10/39 231/10/39 227/10/39
f 231/10/39 230/10/39 229/10/39
f 229/10/39 228/10/39 231/10/39
f 228/10/39 227/10/39 231/10/39
f 226/10/51 234/10/51 233/10/51
f 227/10/52 235/10/52 234/10/52
f 227/10/53 228/10/53 236/10/53
f 228/10/54 229/10/54 237/10/54
f 230/10/55 238/10/55 237/10/55
f 230/10/56 231/10/56 239/10/56
f 232/10/57 240/10/57 239/10/57
f 225/10/58 233/10/58 240/10/58
f 234/10/59 242/10/59 241/10/59
f 235/10/60 243/10/60 242/10/60
f 236/10/47 244/10/47 243/10/47
f 237/10/61 245/10/61 244/10/61
f 238/10/62 246/10/62 245/10/62
f 239/10/63 247/10/63 246/10/63
f 240/10/42 248/10/42 247/10/42
f 233/10/64 241/10/64 248/10/64
f 242/10/65 250/10/65 249/10/65
f 242/10/66 243/10/66 251/10/66
f 244/10/67 252/10/67 251/10/67
f 245/10/81 253/10/81 252/10/81
f 246/10/69 254/10/69 253/10/69
f 247/10/70 255/10/70 254/10/70
f 248/10/71 256/10/71 255/10/71
f 241/10/82 249/10/82 256/10/82
f 256/10/50 249/10/50 250/10/50
f 250/10/50 251/10/50 256/10/50
f 251/10/50 252/10/50 256/10/50
f 252/10/50 253/10/50 254/10/50
f 254/10/50 255/10/50 252/10/50
f 259/6/39 258/6/39 257/6/39
f 262/6/50 263/6/50 264/6/50
f 258/6/59 262/6/59 261/6/59
f 259/6/47 263/6/47 262/6/47
f 260/6/62 264/6/62 263/6/62
f 257/6/42 261/6/42 264/6/42
f 267/7/39 266/7/39 265/7/39
f 270/7/50 271/7/50 272/7/50
f 266/7/59 270/7/59 269/7/59
f 267/7/47 271/7/47 270/7/47
f 268/7/62 272/7/62 271/7/62
f 265/7/42 269/7/42 272/7/42
f 275/11/39 274/11/39 273/11/39
f 278/11/50 279/11/50 280/11/50
f 274/11/59 278/11/59 277/11/59
f 275/11/47 279/11/47 278/11/47
f 276/11/62 280/11/62 279/11/62
f 273/11/42 277/11/42 280/11/42
f 283/7/39 282/7/39 281/7/39
f 286/7/50 287/7/50 288/7/50
f 282/7/59 286/7/59 285/7/59
f 283/7/47 287/7/47 286/7/47
f 284/7/62 288/7/62 287/7/62
f 281/7/42 285/7/42 288/7/42
f 291/11/39 290/11/39 289/11/39
f 294/11/50 295/11/50 296/11/50
f 290/11/59 294/11/59 293/11/59
f 291/11/47 295/11/47 294/11/47
f 292/11/62 296/11/62 295/11/62
f 289/11/42 293/11/42 296/11/42
f 299/8/39 298/8/39 297/8/39
f 302/8/50 303/8/50 304/8/50
f 298/8/59 302/8/59 301/8/59
f 299/8/47 303/8/47 302/8/47
f 300/8/62 304/8/62 303/8/62
f 297/8/42 301/8/42 304/8/42
f 307/7/39 306/7/39 305/7/39
f 310/7/50 311/7/50 312/7/50
f 306/7/59 310/7/59 309/7/59
f 307/7/47 311/7/47 310/7/47
f 308/7/62 312/7/62 311/7/62
f 305/7/42 309/7/42 312/7/42
f 315/7/39 314/7/39 313/7/39
f 318/7/50 319/7/50 320/7/50
f 314/7/59 318/7/59 317/7/59
f 315/7/47 319/7/47 318/7/47
f 316/7/62 320/7/62 319/7/62
f 313/7/42 317/7/42 320/7/42
f 321/4/39 328/4/39 323/4/39
f 328/4/39 327/4/39 323/4/39
f 327/4/39 326/4/39 325/4/39
f 325/4/39 324/4/39 327/4/39
f 324/4/39 323/4/39 327/4/39
f 322/4/51 330/4/51 329/4/51
f 323/4/52 331/4/52 330/4/52
f 324/4/53 332/4/53 331/4/53
f 325/4/54 333/4/54 332/4/54
f 325/4/55 326/4/55 334/4/55
f 326/4/56 327/4/56 335/4/56
f 328/4/57 336/4/57 335/4/57
f 328/4/58 321/4/58 329/4/58
f 330/4/59 338/4/59 337/4/59
f 331/4/60 339/4/60 338/4/60
f 332/4/47 340/4/47 339/4/47
f 333/4/61 341/4/61 340/4/61
f 334/4/62 342/4/62 341/4/62
f 335/4/63 343/4/63 342/4/63
f 336/4/42 344/4/42 343/4/42
f 329/4/64 337/4/64 344/4/64
f 338/4/65 346/4/65 345/4/65
f 338/4/66 339/4/66 347/4/66
f 340/4/67 348/4/67 347/4/67
f 340/4/81 341/4/81 349/4/81
f 341/4/69 342/4/69 350/4/69
f 343/4/70 351/4/70 350/4/70
f 344/4/71 352/4/71 351/4/71
f 337/4/82 345/4/82 352/4/82
f 352/4/50 345/4/50 346/4/50
f 346/4/50 347/4/50 352/4/50
f 347/4/50 348/4/50 352/4/50
f 348/4/50 349/4/50 350/4/50
f 350/4/50 351/4/50 348/4/50
f 353/8/62 360/8/62 359/8/62
f 359/8/62 358/8/62 357/8/62
f 357/8/62 356/8/62 355/8/62
f 355/8/62 354/8/62 353/8/62
f 353/8/62 359/8/62 355/8/62
f 354/8/83 362/8/83 361/8/83
f 355/8/84 363/8/84 362/8/84
f 356/8/85 364/8/85 363/8/85
f 357/8/86 365/8/86 364/8/86
f 358/8/87 366/8/87 365/8/87
f 359/8/88 367/8/88 366/8/88
f 360/8/89 368/8/89 367/8/89
f 353/8/90 361/8/90 368/8/90
f 368/8/59 361/8/59 362/8/59
f 362/8/59 363/8/59 368/8/59
f 363/8/59 364/8/59 368/8/59
f 364/8/59 365/8/59 366/8/59
f 366/8/59 367/8/59 364/8/59
f 369/10/39 376/10/39 371/10/39
f 376/10/39 375/10/39 371/10/39
f 375/10/39 374/10/39 373/10/39
f 373/10/39 372/10/39 375/10/39
f 372/10/39 371/10/39 375/10/39
f 370/10/51 378/10/51 377/10/51
f 370/10/52 371/10/52 379/10/52
f 372/10/53 380/10/53 379/10/53
f 373/10/54 381/10/54 380/10/54
f 374/10/55 382/10/55 381/10/55
f 375/10/56 383/10/56 382/10/56
f 376/10/57 384/10/57 383/10/57
f 369/10/58 377/10/58 384/10/58
f 378/10/59 386/10/59 385/10/59
f 379/10/60 387/10/60 386/10/60
f 380/10/47 388/10/47 387/10/47
f 381/10/61 389/10/61 388/10/61
f 382/10/62 390/10/62 389/10/62
f 383/10/63 391/10/63 390/10/63
f 384/10/42 392/10/42 391/10/42
f 377/10/64 385/10/64 392/10/64
f 386/10/65 394/10/65 393/10/65
f 387/10/66 395/10/66 394/10/66
f 388/10/67 396/10/67 395/10/67
f 389/10/81 397/10/81 396/10/81
f 390/10/69 398/10/69 397/10/69
f 390/10/70 391/10/70 399/10/70
f 392/10/71 400/10/71 399/10/71
f 385/10/82 393/10/82 400/10/82
f 400/10/50 393/10/50 394/10/50
f 394/10/50 395/10/50 400/10/50
f 395/10/50 396/10/50 400/10/50
f 396/10/50 397/10/50 398/10/50
f 398/10/50 399/10/50 396/10/50
f 403/8/39 402/8/39 401/8/39
f 406/8/50 407/8/50 408/8/50
f 402/8/59 406/8/59 405/8/59
f 403/8/47 407/8/47 406/8/47
f 404/8/62 408/8/62 407/8/62
f 401/8/42 405/8/42 408/8/42
f 411/8/39 410/8/39 409/8/39
f 414/8/50 415/8/50 416/8/50
f 410/8/59 414/8/59 413/8/59
f 411/8/47 415/8/47 414/8/47
f 412/8/62 416/8/62 415/8/62
f 409/8/42 413/8/42 416/8/42
f 419/8/39 418/8/39 417/8/39
f 422/8/50 423/8/50 424/8/50
f 418/8/59 422/8/59 421/8/59
f 419/8/47 423/8/47 422/8/47
f 420/8/62 424/8/62 423/8/62
f 417/8/42 421/8/42 424/8/42
f 427/8/39 426/8/39 425/8/39
f 430/8/50 431/8/50 432/8/50
f 426/8/59 430/8/59 429/8/59
f 427/8/47 431/8/47 430/8/47
f 428/8/62 432/8/62 431/8/62
f 425/8/42 429/8/42 432/8/42
f 433/10/39 440/10/39 435/10/39
f 440/10/39 439/10/39 435/10/39
f 439/10/39 438/10/39 437/10/39
f 437/10/39 436/10/39 439/10/39
f 436/10/39 435/10/39 439/10/39
f 434/10/51 442/10/51 441/10/51
f 435/10/52 443/10/52 442/10/52
f 436/10/53 444/10/53 443/10/53
f 436/10/54 437/10/54 445/10/54
f 437/10/55 438/10/55 446/10/55
f 438/10/56 439/10/56 447/10/56
f 440/10/57 448/10/57 447/10/57
f 440/10/58 433/10/58 441/10/58
f 442/10/59 450/10/59 449/10/59
f 443/10/60 451/10/60 450/10/60
f 444/10/47 452/10/47 451/10/47
f 445/10/61 453/10/61 452/10/61
f 446/10/62 454/10/62 453/10/62
f 447/10/63 455/10/63 454/10/63
f 448/10/42 456/10/42 455/10/42
f 441/10/64 449/10/64 456/10/64
f 449/10/65 450/10/65 458/10/65
f 450/10/66 451/10/66 459/10/66
f 451/10/67 452/10/67 460/10/67
f 453/10/81 461/10/81 460/10/81
f 454/10/69 462/10/69 461/10/69
f 455/10/70 463/10/70 462/10/70
f 456/10/71 464/10/71 463/10/71
f 456/10/82 449/10/82 457/10/82
f 464/10/50 457/10/50 458/10/50
f 458/10/50 459/10/50 464/10/50
f 459/10/50 460/10/50 464/10/50
f 460/10/50 461/10/50 462/10/50
f 462/10/50 463/10/50 460/10/50
f 465/10/39 472/10/39 467/10/39
f 472/10/39 471/10/39 467/10/39
f 471/10/39 470/10/39 469/10/39
f 469/10/39 468/10/39 471/10/39
f 468/10/39 467/10/39 471/10/39
f 466/10/51 474/10/51 473/10/51
f 466/10/52 467/10/52 475/10/52
f 467/10/53 468/10/53 476/10/53
f 469/10/54 477/10/54 476/10/54
f 469/10/55 470/10/55 478/10/55
f 470/10/56 471/10/56 479/10/56
f 472/10/57 480/10/57 479/10/57
f 465/10/58 473/10/58 480/10/58
f 474/10/59 482/10/59 481/10/59
f 475/10/60 483/10/60 482/10/60
f 476/10/47 484/10/47 483/10/47
f 477/10/61 485/10/61 484/10/61
f 478/10/62 486/10/62 485/10/62
f 479/10/63 487/10/63 486/10/63
f 480/10/42 488/10/42 487/10/42
f 473/10/64 481/10/64 488/10/64
f 481/10/65 482/10/65 490/10/65
f 483/10/66 491/10/66 490/10/66
f 484/10/67 492/10/67 491/10/67
f 485/10/81 493/10/81 492/10/81
f 486/10/69 494/10/69 493/10/69
f 487/10/70 495/10/70 494/10/70
f 488/10/71 496/10/71 495/10/71
f 488/10/82 481/10/82 489/10/82
f 496/10/50 489/10/50 490/10/50
f 490/10/50 491/10/50 496/10/50
f 491/10/50 492/10/50 496/10/50
f 492/10/50 493/10/50 494/10/50
f 494/10/50 495/10/50 492/10/50
f 497/10/39 504/10/39 499/10/39
f 504/10/39 503/10/39 499/10/39
f 503/10/39 502/10/39 501/10/39
f 501/10/39 500/10/39 503/10/39
f 500/10/39 499/10/39 503/10/39
f 498/10/51 506/10/51 505/10/51
f 498/10/97 499/10/97 507/10/97
f 500/10/53 508/10/53 507/10/53
f 500/10/54 501/10/54 509/10/54
f 501/10/55 502/10/55 510/10/55
f 502/10/56 503/10/56 511/10/56
f 503/10/57 504/10/57 512/10/57
f 497/10/58 505/10/58 512/10/58
f 506/10/59 514/10/59 513/10/59
f 507/10/60 515/10/60 514/10/60
f 508/10/47 516/10/47 515/10/47
f 509/10/61 517/10/61 516/10/61
f 510/10/62 518/10/62 517/10/62
f 511/10/63 519/10/63 518/10/63
f 512/10/42 520/10/42 519/10/42
f 505/10/64 513/10/64 520/10/64
f 513/10/65 514/10/65 522/10/65
f 514/10/91 515/10/91 523/10/91
f 515/10/67 516/10/67 524/10/67
f 517/10/81 525/10/81 524/10/81
f 518/10/69 526/10/69 525/10/69
f 519/10/70 527/10/70 526/10/70
f 520/10/71 528/10/71 527/10/71
f 520/10/92 513/10/92 521/10/92
f 528/10/50 521/10/50 522/10/50
f 522/10/50 523/10/50 528/10/50
f 523/10/50 524/10/50 528/10/50
f 524/10/50 525/10/50 526/10/50
f 526/10/50 527/10/50 524/10/50
