# Blender 5.2.1 LTS
# www.blender.org
mtllib ammo_feed.mtl
o BASE.002
v -0.361200 0.000000 0.350600
v 0.361200 0.000000 0.350600
v 0.375600 0.000000 0.336200
v 0.375600 0.000000 -0.336200
v 0.361200 0.000000 -0.350600
v -0.361200 0.000000 -0.350600
v -0.375600 0.000000 -0.336200
v -0.375600 0.000000 0.336200
v -0.375600 0.014400 0.365000
v 0.375600 0.014400 0.365000
v 0.390000 0.014400 0.350600
v 0.390000 0.014400 -0.350600
v 0.375600 0.014400 -0.365000
v -0.375600 0.014400 -0.365000
v -0.390000 0.014400 -0.350600
v -0.390000 0.014400 0.350600
v -0.375600 0.105600 0.365000
v 0.375600 0.105600 0.365000
v 0.390000 0.105600 0.350600
v 0.390000 0.105600 -0.350600
v 0.375600 0.105600 -0.365000
v -0.375600 0.105600 -0.365000
v -0.390000 0.105600 -0.350600
v -0.390000 0.105600 0.350600
v -0.361200 0.120000 0.350600
v 0.361200 0.120000 0.350600
v 0.375600 0.120000 0.336200
v 0.375600 0.120000 -0.336200
v 0.361200 0.120000 -0.350600
v -0.361200 0.120000 -0.350600
v -0.375600 0.120000 -0.336200
v -0.375600 0.120000 0.336200
v -0.300000 0.121000 -0.302000
v -0.327713 0.121000 -0.286000
v -0.327713 0.121000 -0.254000
v -0.300000 0.121000 -0.238000
v -0.272287 0.121000 -0.254000
v -0.272287 0.121000 -0.286000
v -0.300000 0.141000 -0.302000
v -0.327713 0.141000 -0.286000
v -0.327713 0.141000 -0.254000
v -0.300000 0.141000 -0.238000
v -0.272287 0.141000 -0.254000
v -0.272287 0.141000 -0.286000
v -0.300000 0.121000 0.238000
v -0.327713 0.121000 0.254000
v -0.327713 0.121000 0.286000
v -0.300000 0.121000 0.302000
v -0.272287 0.121000 0.286000
v -0.272287 0.121000 0.254000
v -0.300000 0.141000 0.238000
v -0.327713 0.141000 0.254000
v -0.327713 0.141000 0.286000
v -0.300000 0.141000 0.302000
v -0.272287 0.141000 0.286000
v -0.272287 0.141000 0.254000
v 0.300000 0.121000 -0.302000
v 0.272287 0.121000 -0.286000
v 0.272287 0.121000 -0.254000
v 0.300000 0.121000 -0.238000
v 0.327713 0.121000 -0.254000
v 0.327713 0.121000 -0.286000
v 0.300000 0.141000 -0.302000
v 0.272287 0.141000 -0.286000
v 0.272287 0.141000 -0.254000
v 0.300000 0.141000 -0.238000
v 0.327713 0.141000 -0.254000
v 0.327713 0.141000 -0.286000
v 0.300000 0.121000 0.238000
v 0.272287 0.121000 0.254000
v 0.272287 0.121000 0.286000
v 0.300000 0.121000 0.302000
v 0.327713 0.121000 0.286000
v 0.327713 0.121000 0.254000
v 0.300000 0.141000 0.238000
v 0.272287 0.141000 0.254000
v 0.272287 0.141000 0.286000
v 0.300000 0.141000 0.302000
v 0.327713 0.141000 0.286000
v 0.327713 0.141000 0.254000
v -0.325000 0.135000 0.325000
v 0.325000 0.135000 0.325000
v 0.350000 0.135000 0.300000
v 0.350000 0.135000 -0.300000
v 0.325000 0.135000 -0.325000
v -0.325000 0.135000 -0.325000
v -0.350000 0.135000 -0.300000
v -0.350000 0.135000 0.300000
v -0.350000 0.160000 0.350000
v 0.350000 0.160000 0.350000
v 0.375000 0.160000 0.325000
v 0.375000 0.160000 -0.325000
v 0.350000 0.160000 -0.350000
v -0.350000 0.160000 -0.350000
v -0.375000 0.160000 -0.325000
v -0.375000 0.160000 0.325000
v -0.350000 0.720000 0.350000
v 0.350000 0.720000 0.350000
v 0.375000 0.720000 0.325000
v 0.375000 0.720000 -0.325000
v 0.350000 0.720000 -0.350000
v -0.350000 0.720000 -0.350000
v -0.375000 0.720000 -0.325000
v -0.375000 0.720000 0.325000
v -0.325000 0.745000 0.325000
v 0.325000 0.745000 0.325000
v 0.350000 0.745000 0.300000
v 0.350000 0.745000 -0.300000
v 0.325000 0.745000 -0.325000
v -0.325000 0.745000 -0.325000
v -0.350000 0.745000 -0.300000
v -0.350000 0.745000 0.300000
v -0.392500 0.745000 0.367500
v 0.392500 0.745000 0.367500
v 0.392500 0.745000 -0.367500
v -0.392500 0.745000 -0.367500
v -0.392500 0.795000 0.367500
v 0.392500 0.795000 0.367500
v 0.392500 0.795000 -0.367500
v -0.392500 0.795000 -0.367500
v -0.242500 0.100000 0.375000
v -0.207500 0.100000 0.375000
v -0.207500 0.100000 -0.375000
v -0.242500 0.100000 -0.375000
v -0.242500 0.780000 0.375000
v -0.207500 0.780000 0.375000
v -0.207500 0.780000 -0.375000
v -0.242500 0.780000 -0.375000
v -0.210000 0.525300 0.387500
v -0.120000 0.525300 0.387500
v -0.120000 0.525300 0.352500
v -0.210000 0.525300 0.352500
v -0.210000 0.635300 0.387500
v -0.120000 0.635300 0.387500
v -0.120000 0.635300 0.352500
v -0.210000 0.635300 0.352500
v 0.207500 0.100000 0.375000
v 0.242500 0.100000 0.375000
v 0.242500 0.100000 -0.375000
v 0.207500 0.100000 -0.375000
v 0.207500 0.780000 0.375000
v 0.242500 0.780000 0.375000
v 0.242500 0.780000 -0.375000
v 0.207500 0.780000 -0.375000
v 0.120000 0.525300 0.387500
v 0.210000 0.525300 0.387500
v 0.210000 0.525300 0.352500
v 0.120000 0.525300 0.352500
v 0.120000 0.635300 0.387500
v 0.210000 0.635300 0.387500
v 0.210000 0.635300 0.352500
v 0.120000 0.635300 0.352500
v -0.100000 0.488200 0.412500
v 0.100000 0.488200 0.412500
v 0.100000 0.488200 0.367500
v -0.100000 0.488200 0.367500
v -0.100000 0.538200 0.412500
v 0.100000 0.538200 0.412500
v 0.100000 0.538200 0.367500
v -0.100000 0.538200 0.367500
v -0.410000 0.445000 0.120000
v -0.370000 0.445000 0.120000
v -0.370000 0.445000 -0.120000
v -0.410000 0.445000 -0.120000
v -0.410000 0.515000 0.120000
v -0.370000 0.515000 0.120000
v -0.370000 0.515000 -0.120000
v -0.410000 0.515000 -0.120000
v 0.370000 0.445000 0.120000
v 0.410000 0.445000 0.120000
v 0.410000 0.445000 -0.120000
v 0.370000 0.445000 -0.120000
v 0.370000 0.515000 0.120000
v 0.410000 0.515000 0.120000
v 0.410000 0.515000 -0.120000
v 0.370000 0.515000 -0.120000
v -0.240000 0.840000 -0.030000
v -0.268284 0.828284 -0.030000
v -0.280000 0.800000 -0.030000
v -0.268284 0.771716 -0.030000
v -0.240000 0.760000 -0.030000
v -0.211716 0.771716 -0.030000
v -0.200000 0.800000 -0.030000
v -0.211716 0.828284 -0.030000
v -0.240000 0.840000 0.230000
v -0.268284 0.828284 0.230000
v -0.280000 0.800000 0.230000
v -0.268284 0.771716 0.230000
v -0.240000 0.760000 0.230000
v -0.211716 0.771716 0.230000
v -0.200000 0.800000 0.230000
v -0.211716 0.828284 0.230000
v -0.240000 0.840000 0.210000
v -0.268284 0.828284 0.210000
v -0.280000 0.800000 0.210000
v -0.268284 0.771716 0.210000
v -0.240000 0.760000 0.210000
v -0.211716 0.771716 0.210000
v -0.200000 0.800000 0.210000
v -0.211716 0.828284 0.210000
v -0.240000 0.800000 0.290000
v -0.240000 0.800000 0.290000
v -0.240000 0.800000 0.290000
v -0.240000 0.800000 0.290000
v -0.240000 0.800000 0.290000
v -0.240000 0.800000 0.290000
v -0.240000 0.800000 0.290000
v -0.240000 0.800000 0.290000
v -0.120000 0.840000 -0.030000
v -0.148284 0.828284 -0.030000
v -0.160000 0.800000 -0.030000
v -0.148284 0.771716 -0.030000
v -0.120000 0.760000 -0.030000
v -0.091716 0.771716 -0.030000
v -0.080000 0.800000 -0.030000
v -0.091716 0.828284 -0.030000
v -0.120000 0.840000 0.230000
v -0.148284 0.828284 0.230000
v -0.160000 0.800000 0.230000
v -0.148284 0.771716 0.230000
v -0.120000 0.760000 0.230000
v -0.091716 0.771716 0.230000
v -0.080000 0.800000 0.230000
v -0.091716 0.828284 0.230000
v -0.120000 0.840000 0.210000
v -0.148284 0.828284 0.210000
v -0.160000 0.800000 0.210000
v -0.148284 0.771716 0.210000
v -0.120000 0.760000 0.210000
v -0.091716 0.771716 0.210000
v -0.080000 0.800000 0.210000
v -0.091716 0.828284 0.210000
v -0.120000 0.800000 0.290000
v -0.120000 0.800000 0.290000
v -0.120000 0.800000 0.290000
v -0.120000 0.800000 0.290000
v -0.120000 0.800000 0.290000
v -0.120000 0.800000 0.290000
v -0.120000 0.800000 0.290000
v -0.120000 0.800000 0.290000
v 0.000000 0.840000 -0.030000
v -0.028284 0.828284 -0.030000
v -0.040000 0.800000 -0.030000
v -0.028284 0.771716 -0.030000
v -0.000000 0.760000 -0.030000
v 0.028284 0.771716 -0.030000
v 0.040000 0.800000 -0.030000
v 0.028284 0.828284 -0.030000
v 0.000000 0.840000 0.230000
v -0.028284 0.828284 0.230000
v -0.040000 0.800000 0.230000
v -0.028284 0.771716 0.230000
v -0.000000 0.760000 0.230000
v 0.028284 0.771716 0.230000
v 0.040000 0.800000 0.230000
v 0.028284 0.828284 0.230000
v 0.000000 0.840000 0.210000
v -0.028284 0.828284 0.210000
v -0.040000 0.800000 0.210000
v -0.028284 0.771716 0.210000
v -0.000000 0.760000 0.210000
v 0.028284 0.771716 0.210000
v 0.040000 0.800000 0.210000
v 0.028284 0.828284 0.210000
v 0.000000 0.800000 0.290000
v 0.000000 0.800000 0.290000
v 0.000000 0.800000 0.290000
v 0.000000 0.800000 0.290000
v 0.000000 0.800000 0.290000
v 0.000000 0.800000 0.290000
v 0.000000 0.800000 0.290000
v 0.000000 0.800000 0.290000
v 0.120000 0.840000 -0.030000
v 0.091716 0.828284 -0.030000
v 0.080000 0.800000 -0.030000
v 0.091716 0.771716 -0.030000
v 0.120000 0.760000 -0.030000
v 0.148284 0.771716 -0.030000
v 0.160000 0.800000 -0.030000
v 0.148284 0.828284 -0.030000
v 0.120000 0.840000 0.230000
v 0.091716 0.828284 0.230000
v 0.080000 0.800000 0.230000
v 0.091716 0.771716 0.230000
v 0.120000 0.760000 0.230000
v 0.148284 0.771716 0.230000
v 0.160000 0.800000 0.230000
v 0.148284 0.828284 0.230000
v 0.120000 0.840000 0.210000
v 0.091716 0.828284 0.210000
v 0.080000 0.800000 0.210000
v 0.091716 0.771716 0.210000
v 0.120000 0.760000 0.210000
v 0.148284 0.771716 0.210000
v 0.160000 0.800000 0.210000
v 0.148284 0.828284 0.210000
v 0.120000 0.800000 0.290000
v 0.120000 0.800000 0.290000
v 0.120000 0.800000 0.290000
v 0.120000 0.800000 0.290000
v 0.120000 0.800000 0.290000
v 0.120000 0.800000 0.290000
v 0.120000 0.800000 0.290000
v 0.120000 0.800000 0.290000
v 0.240000 0.840000 -0.030000
v 0.211716 0.828284 -0.030000
v 0.200000 0.800000 -0.030000
v 0.211716 0.771716 -0.030000
v 0.240000 0.760000 -0.030000
v 0.268284 0.771716 -0.030000
v 0.280000 0.800000 -0.030000
v 0.268284 0.828284 -0.030000
v 0.240000 0.840000 0.230000
v 0.211716 0.828284 0.230000
v 0.200000 0.800000 0.230000
v 0.211716 0.771716 0.230000
v 0.240000 0.760000 0.230000
v 0.268284 0.771716 0.230000
v 0.280000 0.800000 0.230000
v 0.268284 0.828284 0.230000
v 0.240000 0.840000 0.210000
v 0.211716 0.828284 0.210000
v 0.200000 0.800000 0.210000
v 0.211716 0.771716 0.210000
v 0.240000 0.760000 0.210000
v 0.268284 0.771716 0.210000
v 0.280000 0.800000 0.210000
v 0.268284 0.828284 0.210000
v 0.240000 0.800000 0.290000
v 0.240000 0.800000 0.290000
v 0.240000 0.800000 0.290000
v 0.240000 0.800000 0.290000
v 0.240000 0.800000 0.290000
v 0.240000 0.800000 0.290000
v 0.240000 0.800000 0.290000
v 0.240000 0.800000 0.290000
vn -0.0000 -1.0000 -0.0000
vn -0.0000 -0.7071 0.7071
vn 0.4082 -0.8165 0.4082
vn 0.7071 -0.7071 -0.0000
vn 0.4082 -0.8165 -0.4082
vn -0.0000 -0.7071 -0.7071
vn -0.4082 -0.8165 -0.4082
vn -0.7071 -0.7071 -0.0000
vn -0.4082 -0.8165 0.4082
vn -0.0000 -0.0000 1.0000
vn 0.7071 -0.0000 0.7071
vn 1.0000 -0.0000 -0.0000
vn 0.7071 -0.0000 -0.7071
vn -0.0000 -0.0000 -1.0000
vn -0.7071 -0.0000 -0.7071
vn -1.0000 -0.0000 -0.0000
vn -0.7071 -0.0000 0.7071
vn -0.0000 0.7071 0.7071
vn 0.4082 0.8165 0.4082
vn 0.7071 0.7071 -0.0000
vn 0.4082 0.8165 -0.4082
vn -0.0000 0.7071 -0.7071
vn -0.4082 0.8165 -0.4082
vn -0.7071 0.7071 -0.0000
vn -0.4082 0.8165 0.4082
vn -0.0000 1.0000 -0.0000
vn -0.5000 -0.0000 -0.8660
vn -0.5000 -0.0000 0.8660
vn 0.5000 -0.0000 0.8660
vn 0.5000 -0.0000 -0.8660
vn -0.3827 0.9239 -0.0000
vn -0.9239 0.3827 -0.0000
vn -0.9239 -0.3827 -0.0000
vn -0.3827 -0.9239 -0.0000
vn 0.3827 -0.9239 -0.0000
vn 0.9239 -0.3827 -0.0000
vn 0.9239 0.3827 -0.0000
vn 0.3827 0.9239 -0.0000
vn -0.3474 0.8387 0.4194
vn -0.8387 0.3474 0.4194
vn -0.8387 -0.3474 0.4194
vn -0.3474 -0.8387 0.4194
vn 0.3474 -0.8387 0.4194
vn 0.8387 -0.3474 0.4194
vn 0.8387 0.3474 0.4194
vn 0.3474 0.8387 0.4194
vt 0.625000 0.125000
vt 0.375000 0.875000
vt 0.375000 0.125000
vt 0.875000 0.125000
vt 0.125000 0.625000
s 0
usemtl Military_Equipment_Palette
f 2/1/1 1/1/1 5/1/1
f 2/1/2 9/1/2 1/1/2
f 2/1/3 11/1/3 10/1/3
f 4/1/4 11/1/4 3/1/4
f 5/1/5 12/1/5 4/1/5
f 6/1/6 13/1/6 5/1/6
f 6/1/7 15/1/7 14/1/7
f 8/1/8 15/1/8 7/1/8
f 1/1/9 16/1/9 8/1/9
f 10/1/10 17/1/10 9/1/10
f 11/1/11 18/1/11 10/1/11
f 12/1/12 19/1/12 11/1/12
f 13/1/13 20/1/13 12/1/13
f 14/1/14 21/1/14 13/1/14
f 15/1/15 22/1/15 14/1/15
f 16/1/16 23/1/16 15/1/16
f 9/1/17 24/1/17 16/1/17
f 18/1/18 25/1/18 17/1/18
f 19/1/19 26/1/19 18/1/19
f 20/1/20 27/1/20 19/1/20
f 20/1/21 29/1/21 28/1/21
f 22/1/22 29/1/22 21/1/22
f 23/1/23 30/1/23 22/1/23
f 24/1/24 31/1/24 23/1/24
f 24/1/25 25/1/25 32/1/25
f 30/1/26 31/1/26 32/1/26
f 37/2/1 35/2/1 33/2/1
f 34/2/27 39/2/27 33/2/27
f 35/2/16 40/2/16 34/2/16
f 36/2/28 41/2/28 35/2/28
f 37/2/29 42/2/29 36/2/29
f 38/2/12 43/2/12 37/2/12
f 33/2/30 44/2/30 38/2/30
f 40/2/26 42/2/26 44/2/26
f 49/2/1 47/2/1 45/2/1
f 46/2/27 51/2/27 45/2/27
f 47/2/16 52/2/16 46/2/16
f 48/2/28 53/2/28 47/2/28
f 49/2/29 54/2/29 48/2/29
f 50/2/12 55/2/12 49/2/12
f 45/2/30 56/2/30 50/2/30
f 52/2/26 54/2/26 56/2/26
f 61/2/1 59/2/1 57/2/1
f 58/2/27 63/2/27 57/2/27
f 59/2/16 64/2/16 58/2/16
f 60/2/28 65/2/28 59/2/28
f 61/2/29 66/2/29 60/2/29
f 62/2/12 67/2/12 61/2/12
f 57/2/30 68/2/30 62/2/30
f 64/2/26 66/2/26 68/2/26
f 73/2/1 71/2/1 69/2/1
f 70/2/27 75/2/27 69/2/27
f 71/2/16 76/2/16 70/2/16
f 72/2/28 77/2/28 71/2/28
f 73/2/29 78/2/29 72/2/29
f 74/2/12 79/2/12 73/2/12
f 69/2/30 80/2/30 74/2/30
f 76/2/26 78/2/26 80/2/26
f 82/2/1 81/2/1 85/2/1
f 82/2/2 89/2/2 81/2/2
f 83/2/3 90/2/3 82/2/3
f 84/2/4 91/2/4 83/2/4
f 84/2/5 93/2/5 92/2/5
f 86/2/6 93/2/6 85/2/6
f 87/2/7 94/2/7 86/2/7
f 88/2/8 95/2/8 87/2/8
f 88/2/9 89/2/9 96/2/9
f 90/2/10 97/2/10 89/2/10
f 91/2/11 98/2/11 90/2/11
f 92/2/12 99/2/12 91/2/12
f 93/2/13 100/2/13 92/2/13
f 94/2/14 101/2/14 93/2/14
f 95/2/15 102/2/15 94/2/15
f 96/2/16 103/2/16 95/2/16
f 89/2/17 104/2/17 96/2/17
f 98/2/18 105/2/18 97/2/18
f 98/2/19 107/2/19 106/2/19
f 100/2/20 107/2/20 99/2/20
f 101/2/21 108/2/21 100/2/21
f 102/2/22 109/2/22 101/2/22
f 102/2/23 111/2/23 110/2/23
f 104/2/24 111/2/24 103/2/24
f 97/2/25 112/2/25 104/2/25
f 110/2/26 111/2/26 112/2/26
f 115/3/1 113/3/1 116/3/1
f 118/3/26 120/3/26 117/3/26
f 114/3/10 117/3/10 113/3/10
f 115/3/12 118/3/12 114/3/12
f 116/3/14 119/3/14 115/3/14
f 113/3/16 120/3/16 116/3/16
f 123/4/1 121/4/1 124/4/1
f 126/4/26 128/4/26 125/4/26
f 122/4/10 125/4/10 121/4/10
f 123/4/12 126/4/12 122/4/12
f 124/4/14 127/4/14 123/4/14
f 121/4/16 128/4/16 124/4/16
f 131/2/1 129/2/1 132/2/1
f 134/2/26 136/2/26 133/2/26
f 130/2/10 133/2/10 129/2/10
f 131/2/12 134/2/12 130/2/12
f 132/2/14 135/2/14 131/2/14
f 129/2/16 136/2/16 132/2/16
f 139/4/1 137/4/1 140/4/1
f 142/4/26 144/4/26 141/4/26
f 138/4/10 141/4/10 137/4/10
f 139/4/12 142/4/12 138/4/12
f 140/4/14 143/4/14 139/4/14
f 137/4/16 144/4/16 140/4/16
f 147/2/1 145/2/1 148/2/1
f 150/2/26 152/2/26 149/2/26
f 146/2/10 149/2/10 145/2/10
f 147/2/12 150/2/12 146/2/12
f 148/2/14 151/2/14 147/2/14
f 145/2/16 152/2/16 148/2/16
f 155/5/1 153/5/1 156/5/1
f 158/5/26 160/5/26 157/5/26
f 154/5/10 157/5/10 153/5/10
f 155/5/12 158/5/12 154/5/12
f 156/5/14 159/5/14 155/5/14
f 153/5/16 160/5/16 156/5/16
f 163/5/1 161/5/1 164/5/1
f 166/5/26 168/5/26 165/5/26
f 162/5/10 165/5/10 161/5/10
f 163/5/12 166/5/12 162/5/12
f 164/5/14 167/5/14 163/5/14
f 161/5/16 168/5/16 164/5/16
f 171/5/1 169/5/1 172/5/1
f 174/5/26 176/5/26 173/5/26
f 170/5/10 173/5/10 169/5/10
f 171/5/12 174/5/12 170/5/12
f 172/5/14 175/5/14 171/5/14
f 169/5/16 176/5/16 172/5/16
f 178/2/14 177/2/14 181/2/14
f 178/2/31 185/2/31 177/2/31
f 179/2/32 186/2/32 178/2/32
f 180/2/33 187/2/33 179/2/33
f 181/2/34 188/2/34 180/2/34
f 182/2/35 189/2/35 181/2/35
f 183/2/36 190/2/36 182/2/36
f 184/2/37 191/2/37 183/2/37
f 177/2/38 192/2/38 184/2/38
f 188/2/10 190/2/10 192/2/10
f 194/5/14 193/5/14 197/5/14
f 193/5/26 202/5/26 201/5/26
f 194/5/26 203/5/26 202/5/26
f 195/5/26 204/5/26 203/5/26
f 196/5/26 205/5/26 204/5/26
f 197/5/26 206/5/26 205/5/26
f 198/5/26 207/5/26 206/5/26
f 199/5/26 208/5/26 207/5/26
f 200/5/26 201/5/26 208/5/26
f 202/5/26 203/5/26 206/5/26
f 210/2/14 209/2/14 213/2/14
f 210/2/31 217/2/31 209/2/31
f 211/2/32 218/2/32 210/2/32
f 212/2/33 219/2/33 211/2/33
f 213/2/34 220/2/34 212/2/34
f 214/2/35 221/2/35 213/2/35
f 215/2/36 222/2/36 214/2/36
f 216/2/37 223/2/37 215/2/37
f 209/2/38 224/2/38 216/2/38
f 220/2/10 222/2/10 224/2/10
f 226/5/14 225/5/14 229/5/14
f 225/5/26 234/5/26 233/5/26
f 226/5/26 235/5/26 234/5/26
f 227/5/26 236/5/26 235/5/26
f 228/5/26 237/5/26 236/5/26
f 229/5/26 238/5/26 237/5/26
f 230/5/26 239/5/26 238/5/26
f 231/5/26 240/5/26 239/5/26
f 232/5/26 233/5/26 240/5/26
f 234/5/26 235/5/26 238/5/26
f 247/2/14 245/2/14 243/2/14
f 242/2/31 249/2/31 241/2/31
f 243/2/32 250/2/32 242/2/32
f 244/2/33 251/2/33 243/2/33
f 245/2/34 252/2/34 244/2/34
f 246/2/35 253/2/35 245/2/35
f 247/2/36 254/2/36 246/2/36
f 248/2/37 255/2/37 247/2/37
f 241/2/38 256/2/38 248/2/38
f 252/2/10 254/2/10 256/2/10
f 263/5/14 261/5/14 259/5/14
f 257/5/26 266/5/26 265/5/26
f 258/5/26 267/5/26 266/5/26
f 259/5/26 268/5/26 267/5/26
f 260/5/26 269/5/26 268/5/26
f 261/5/26 270/5/26 269/5/26
f 262/5/26 271/5/26 270/5/26
f 263/5/26 272/5/26 271/5/26
f 264/5/26 265/5/26 272/5/26
f 266/5/26 267/5/26 270/5/26
f 274/2/14 273/2/14 277/2/14
f 274/2/31 281/2/31 273/2/31
f 275/2/32 282/2/32 274/2/32
f 276/2/33 283/2/33 275/2/33
f 277/2/34 284/2/34 276/2/34
f 278/2/35 285/2/35 277/2/35
f 279/2/36 286/2/36 278/2/36
f 280/2/37 287/2/37 279/2/37
f 273/2/38 288/2/38 280/2/38
f 284/2/10 286/2/10 288/2/10
f 290/5/14 289/5/14 293/5/14
f 289/5/26 298/5/26 297/5/26
f 290/5/26 299/5/26 298/5/26
f 291/5/26 300/5/26 299/5/26
f 292/5/26 301/5/26 300/5/26
f 293/5/26 302/5/26 301/5/26
f 294/5/26 303/5/26 302/5/26
f 295/5/26 304/5/26 303/5/26
f 296/5/26 297/5/26 304/5/26
f 298/5/26 299/5/26 302/5/26
f 306/2/14 305/2/14 309/2/14
f 306/2/31 313/2/31 305/2/31
f 307/2/32 314/2/32 306/2/32
f 308/2/33 315/2/33 307/2/33
f 309/2/34 316/2/34 308/2/34
f 310/2/35 317/2/35 309/2/35
f 311/2/36 318/2/36 310/2/36
f 312/2/37 319/2/37 311/2/37
f 305/2/38 320/2/38 312/2/38
f 316/2/10 318/2/10 320/2/10
f 322/5/14 321/5/14 325/5/14
f 321/5/26 330/5/26 329/5/26
f 322/5/26 331/5/26 330/5/26
f 323/5/26 332/5/26 331/5/26
f 324/5/26 333/5/26 332/5/26
f 325/5/26 334/5/26 333/5/26
f 326/5/26 335/5/26 334/5/26
f 327/5/26 336/5/26 335/5/26
f 328/5/26 329/5/26 336/5/26
f 330/5/26 331/5/26 334/5/26
f 1/1/1 8/1/1 7/1/1
f 7/1/1 6/1/1 1/1/1
f 6/1/1 5/1/1 1/1/1
f 5/1/1 4/1/1 3/1/1
f 3/1/1 2/1/1 5/1/1
f 2/1/2 10/1/2 9/1/2
f 2/1/3 3/1/3 11/1/3
f 4/1/4 12/1/4 11/1/4
f 5/1/5 13/1/5 12/1/5
f 6/1/6 14/1/6 13/1/6
f 6/1/7 7/1/7 15/1/7
f 8/1/8 16/1/8 15/1/8
f 1/1/9 9/1/9 16/1/9
f 10/1/10 18/1/10 17/1/10
f 11/1/11 19/1/11 18/1/11
f 12/1/12 20/1/12 19/1/12
f 13/1/13 21/1/13 20/1/13
f 14/1/14 22/1/14 21/1/14
f 15/1/15 23/1/15 22/1/15
f 16/1/16 24/1/16 23/1/16
f 9/1/17 17/1/17 24/1/17
f 18/1/18 26/1/18 25/1/18
f 19/1/19 27/1/19 26/1/19
f 20/1/20 28/1/20 27/1/20
f 20/1/21 21/1/21 29/1/21
f 22/1/22 30/1/22 29/1/22
f 23/1/23 31/1/23 30/1/23
f 24/1/24 32/1/24 31/1/24
f 24/1/25 17/1/25 25/1/25
f 32/1/26 25/1/26 30/1/26
f 25/1/26 26/1/26 30/1/26
f 26/1/26 27/1/26 28/1/26
f 28/1/26 29/1/26 26/1/26
f 29/1/26 30/1/26 26/1/26
f 33/2/1 38/2/1 37/2/1
f 37/2/1 36/2/1 35/2/1
f 35/2/1 34/2/1 33/2/1
f 34/2/27 40/2/27 39/2/27
f 35/2/16 41/2/16 40/2/16
f 36/2/28 42/2/28 41/2/28
f 37/2/29 43/2/29 42/2/29
f 38/2/12 44/2/12 43/2/12
f 33/2/30 39/2/30 44/2/30
f 44/2/26 39/2/26 40/2/26
f 40/2/26 41/2/26 42/2/26
f 42/2/26 43/2/26 44/2/26
f 45/2/1 50/2/1 49/2/1
f 49/2/1 48/2/1 47/2/1
f 47/2/1 46/2/1 45/2/1
f 46/2/27 52/2/27 51/2/27
f 47/2/16 53/2/16 52/2/16
f 48/2/28 54/2/28 53/2/28
f 49/2/29 55/2/29 54/2/29
f 50/2/12 56/2/12 55/2/12
f 45/2/30 51/2/30 56/2/30
f 56/2/26 51/2/26 52/2/26
f 52/2/26 53/2/26 54/2/26
f 54/2/26 55/2/26 56/2/26
f 57/2/1 62/2/1 61/2/1
f 61/2/1 60/2/1 59/2/1
f 59/2/1 58/2/1 57/2/1
f 58/2/27 64/2/27 63/2/27
f 59/2/16 65/2/16 64/2/16
f 60/2/28 66/2/28 65/2/28
f 61/2/29 67/2/29 66/2/29
f 62/2/12 68/2/12 67/2/12
f 57/2/30 63/2/30 68/2/30
f 68/2/26 63/2/26 64/2/26
f 64/2/26 65/2/26 66/2/26
f 66/2/26 67/2/26 68/2/26
f 69/2/1 74/2/1 73/2/1
f 73/2/1 72/2/1 71/2/1
f 71/2/1 70/2/1 69/2/1
f 70/2/27 76/2/27 75/2/27
f 71/2/16 77/2/16 76/2/16
f 72/2/28 78/2/28 77/2/28
f 73/2/29 79/2/29 78/2/29
f 74/2/12 80/2/12 79/2/12
f 69/2/30 75/2/30 80/2/30
f 80/2/26 75/2/26 76/2/26
f 76/2/26 77/2/26 78/2/26
f 78/2/26 79/2/26 80/2/26
f 81/2/1 88/2/1 87/2/1
f 87/2/1 86/2/1 81/2/1
f 86/2/1 85/2/1 81/2/1
f 85/2/1 84/2/1 83/2/1
f 83/2/1 82/2/1 85/2/1
f 82/2/2 90/2/2 89/2/2
f 83/2/3 91/2/3 90/2/3
f 84/2/4 92/2/4 91/2/4
f 84/2/5 85/2/5 93/2/5
f 86/2/6 94/2/6 93/2/6
f 87/2/7 95/2/7 94/2/7
f 88/2/8 96/2/8 95/2/8
f 88/2/9 81/2/9 89/2/9
f 90/2/10 98/2/10 97/2/10
f 91/2/11 99/2/11 98/2/11
f 92/2/12 100/2/12 99/2/12
f 93/2/13 101/2/13 100/2/13
f 94/2/14 102/2/14 101/2/14
f 95/2/15 103/2/15 102/2/15
f 96/2/16 104/2/16 103/2/16
f 89/2/17 97/2/17 104/2/17
f 98/2/18 106/2/18 105/2/18
f 98/2/19 99/2/19 107/2/19
f 100/2/20 108/2/20 107/2/20
f 101/2/21 109/2/21 108/2/21
f 102/2/22 110/2/22 109/2/22
f 102/2/23 103/2/23 111/2/23
f 104/2/24 112/2/24 111/2/24
f 97/2/25 105/2/25 112/2/25
f 112/2/26 105/2/26 110/2/26
f 105/2/26 106/2/26 110/2/26
f 106/2/26 107/2/26 108/2/26
f 108/2/26 109/2/26 106/2/26
f 109/2/26 110/2/26 106/2/26
f 115/3/1 114/3/1 113/3/1
f 118/3/26 119/3/26 120/3/26
f 114/3/10 118/3/10 117/3/10
f 115/3/12 119/3/12 118/3/12
f 116/3/14 120/3/14 119/3/14
f 113/3/16 117/3/16 120/3/16
f 123/4/1 122/4/1 121/4/1
f 126/4/26 127/4/26 128/4/26
f 122/4/10 126/4/10 125/4/10
f 123/4/12 127/4/12 126/4/12
f 124/4/14 128/4/14 127/4/14
f 121/4/16 125/4/16 128/4/16
f 131/2/1 130/2/1 129/2/1
f 134/2/26 135/2/26 136/2/26
f 130/2/10 134/2/10 133/2/10
f 131/2/12 135/2/12 134/2/12
f 132/2/14 136/2/14 135/2/14
f 129/2/16 133/2/16 136/2/16
f 139/4/1 138/4/1 137/4/1
f 142/4/26 143/4/26 144/4/26
f 138/4/10 142/4/10 141/4/10
f 139/4/12 143/4/12 142/4/12
f 140/4/14 144/4/14 143/4/14
f 137/4/16 141/4/16 144/4/16
f 147/2/1 146/2/1 145/2/1
f 150/2/26 151/2/26 152/2/26
f 146/2/10 150/2/10 149/2/10
f 147/2/12 151/2/12 150/2/12
f 148/2/14 152/2/14 151/2/14
f 145/2/16 149/2/16 152/2/16
f 155/5/1 154/5/1 153/5/1
f 158/5/26 159/5/26 160/5/26
f 154/5/10 158/5/10 157/5/10
f 155/5/12 159/5/12 158/5/12
f 156/5/14 160/5/14 159/5/14
f 153/5/16 157/5/16 160/5/16
f 163/5/1 162/5/1 161/5/1
f 166/5/26 167/5/26 168/5/26
f 162/5/10 166/5/10 165/5/10
f 163/5/12 167/5/12 166/5/12
f 164/5/14 168/5/14 167/5/14
f 161/5/16 165/5/16 168/5/16
f 171/5/1 170/5/1 169/5/1
f 174/5/26 175/5/26 176/5/26
f 170/5/10 174/5/10 173/5/10
f 171/5/12 175/5/12 174/5/12
f 172/5/14 176/5/14 175/5/14
f 169/5/16 173/5/16 176/5/16
f 177/2/14 184/2/14 183/2/14
f 183/2/14 182/2/14 177/2/14
f 182/2/14 181/2/14 177/2/14
f 181/2/14 180/2/14 179/2/14
f 179/2/14 178/2/14 181/2/14
f 178/2/31 186/2/31 185/2/31
f 179/2/32 187/2/32 186/2/32
f 180/2/33 188/2/33 187/2/33
f 181/2/34 189/2/34 188/2/34
f 182/2/35 190/2/35 189/2/35
f 183/2/36 191/2/36 190/2/36
f 184/2/37 192/2/37 191/2/37
f 177/2/38 185/2/38 192/2/38
f 192/2/10 185/2/10 186/2/10
f 186/2/10 187/2/10 188/2/10
f 188/2/10 189/2/10 190/2/10
f 190/2/10 191/2/10 192/2/10
f 192/2/10 186/2/10 188/2/10
f 193/5/14 200/5/14 199/5/14
f 199/5/14 198/5/14 193/5/14
f 198/5/14 197/5/14 193/5/14
f 197/5/14 196/5/14 195/5/14
f 195/5/14 194/5/14 197/5/14
f 193/5/39 194/5/39 202/5/39
f 194/5/40 195/5/40 203/5/40
f 195/5/41 196/5/41 204/5/41
f 196/5/42 197/5/42 205/5/42
f 197/5/43 198/5/43 206/5/43
f 198/5/44 199/5/44 207/5/44
f 199/5/45 200/5/45 208/5/45
f 200/5/46 193/5/46 201/5/46
f 208/5/26 201/5/26 202/5/26
f 203/5/26 204/5/26 205/5/26
f 207/5/26 208/5/26 202/5/26
f 203/5/26 205/5/26 206/5/26
f 206/5/26 207/5/26 202/5/26
f 209/2/14 216/2/14 215/2/14
f 215/2/14 214/2/14 209/2/14
f 214/2/14 213/2/14 209/2/14
f 213/2/14 212/2/14 211/2/14
f 211/2/14 210/2/14 213/2/14
f 210/2/31 218/2/31 217/2/31
f 211/2/32 219/2/32 218/2/32
f 212/2/33 220/2/33 219/2/33
f 213/2/34 221/2/34 220/2/34
f 214/2/35 222/2/35 221/2/35
f 215/2/36 223/2/36 222/2/36
f 216/2/37 224/2/37 223/2/37
f 209/2/38 217/2/38 224/2/38
f 224/2/10 217/2/10 218/2/10
f 218/2/10 219/2/10 220/2/10
f 220/2/10 221/2/10 222/2/10
f 222/2/10 223/2/10 224/2/10
f 224/2/10 218/2/10 220/2/10
f 225/5/14 232/5/14 231/5/14
f 231/5/14 230/5/14 225/5/14
f 230/5/14 229/5/14 225/5/14
f 229/5/14 228/5/14 227/5/14
f 227/5/14 226/5/14 229/5/14
f 225/5/39 226/5/39 234/5/39
f 226/5/40 227/5/40 235/5/40
f 227/5/41 228/5/41 236/5/41
f 228/5/42 229/5/42 237/5/42
f 229/5/43 230/5/43 238/5/43
f 230/5/44 231/5/44 239/5/44
f 231/5/45 232/5/45 240/5/45
f 232/5/46 225/5/46 233/5/46
f 240/5/26 233/5/26 234/5/26
f 235/5/26 236/5/26 237/5/26
f 239/5/26 240/5/26 234/5/26
f 235/5/26 237/5/26 238/5/26
f 238/5/26 239/5/26 234/5/26
f 241/2/14 248/2/14 247/2/14
f 247/2/14 246/2/14 245/2/14
f 245/2/14 244/2/14 243/2/14
f 243/2/14 242/2/14 241/2/14
f 241/2/14 247/2/14 243/2/14
f 242/2/31 250/2/31 249/2/31
f 243/2/32 251/2/32 250/2/32
f 244/2/33 252/2/33 251/2/33
f 245/2/34 253/2/34 252/2/34
f 246/2/35 254/2/35 253/2/35
f 247/2/36 255/2/36 254/2/36
f 248/2/37 256/2/37 255/2/37
f 241/2/38 249/2/38 256/2/38
f 256/2/10 249/2/10 250/2/10
f 250/2/10 251/2/10 252/2/10
f 252/2/10 253/2/10 254/2/10
f 254/2/10 255/2/10 256/2/10
f 256/2/10 250/2/10 252/2/10
f 257/5/14 264/5/14 263/5/14
f 263/5/14 262/5/14 261/5/14
f 261/5/14 260/5/14 259/5/14
f 259/5/14 258/5/14 257/5/14
f 257/5/14 263/5/14 259/5/14
f 257/5/39 258/5/39 266/5/39
f 258/5/40 259/5/40 267/5/40
f 259/5/41 260/5/41 268/5/41
f 260/5/42 261/5/42 269/5/42
f 261/5/43 262/5/43 270/5/43
f 262/5/44 263/5/44 271/5/44
f 263/5/45 264/5/45 272/5/45
f 264/5/46 257/5/46 265/5/46
f 272/5/26 265/5/26 266/5/26
f 267/5/26 268/5/26 269/5/26
f 271/5/26 272/5/26 266/5/26
f 267/5/26 269/5/26 270/5/26
f 270/5/26 271/5/26 266/5/26
f 273/2/14 280/2/14 279/2/14
f 279/2/14 278/2/14 273/2/14
f 278/2/14 277/2/14 273/2/14
f 277/2/14 276/2/14 275/2/14
f 275/2/14 274/2/14 277/2/14
f 274/2/31 282/2/31 281/2/31
f 275/2/32 283/2/32 282/2/32
f 276/2/33 284/2/33 283/2/33
f 277/2/34 285/2/34 284/2/34
f 278/2/35 286/2/35 285/2/35
f 279/2/36 287/2/36 286/2/36
f 280/2/37 288/2/37 287/2/37
f 273/2/38 281/2/38 288/2/38
f 288/2/10 281/2/10 282/2/10
f 282/2/10 283/2/10 284/2/10
f 284/2/10 285/2/10 286/2/10
f 286/2/10 287/2/10 288/2/10
f 288/2/10 282/2/10 284/2/10
f 289/5/14 296/5/14 295/5/14
f 295/5/14 294/5/14 289/5/14
f 294/5/14 293/5/14 289/5/14
f 293/5/14 292/5/14 291/5/14
f 291/5/14 290/5/14 293/5/14
f 289/5/39 290/5/39 298/5/39
f 290/5/40 291/5/40 299/5/40
f 291/5/41 292/5/41 300/5/41
f 292/5/42 293/5/42 301/5/42
f 293/5/43 294/5/43 302/5/43
f 294/5/44 295/5/44 303/5/44
f 295/5/45 296/5/45 304/5/45
f 296/5/46 289/5/46 297/5/46
f 304/5/26 297/5/26 298/5/26
f 299/5/26 300/5/26 301/5/26
f 303/5/26 304/5/26 298/5/26
f 299/5/26 301/5/26 302/5/26
f 302/5/26 303/5/26 298/5/26
f 305/2/14 312/2/14 311/2/14
f 311/2/14 310/2/14 305/2/14
f 310/2/14 309/2/14 305/2/14
f 309/2/14 308/2/14 307/2/14
f 307/2/14 306/2/14 309/2/14
f 306/2/31 314/2/31 313/2/31
f 307/2/32 315/2/32 314/2/32
f 308/2/33 316/2/33 315/2/33
f 309/2/34 317/2/34 316/2/34
f 310/2/35 318/2/35 317/2/35
f 311/2/36 319/2/36 318/2/36
f 312/2/37 320/2/37 319/2/37
f 305/2/38 313/2/38 320/2/38
f 320/2/10 313/2/10 314/2/10
f 314/2/10 315/2/10 316/2/10
f 316/2/10 317/2/10 318/2/10
f 318/2/10 319/2/10 320/2/10
f 320/2/10 314/2/10 316/2/10
f 321/5/14 328/5/14 327/5/14
f 327/5/14 326/5/14 321/5/14
f 326/5/14 325/5/14 321/5/14
f 325/5/14 324/5/14 323/5/14
f 323/5/14 322/5/14 325/5/14
f 321/5/39 322/5/39 330/5/39
f 322/5/40 323/5/40 331/5/40
f 323/5/41 324/5/41 332/5/41
f 324/5/42 325/5/42 333/5/42
f 325/5/43 326/5/43 334/5/43
f 326/5/44 327/5/44 335/5/44
f 327/5/45 328/5/45 336/5/45
f 328/5/46 321/5/46 329/5/46
f 336/5/26 329/5/26 330/5/26
f 331/5/26 332/5/26 333/5/26
f 335/5/26 336/5/26 330/5/26
f 331/5/26 333/5/26 334/5/26
f 334/5/26 335/5/26 330/5/26
