# Blender 5.2.1 LTS
# www.blender.org
mtllib anti_tank_station.mtl
o BASE.006
v -0.361200 0.000000 0.350600
v 0.361200 0.000000 0.350600
v 0.375600 0.000000 0.336200
v 0.375600 0.000000 -0.336200
v 0.361200 0.000000 -0.350600
v -0.361200 0.000000 -0.350600
v -0.375600 0.000000 -0.336200
v -0.375600 0.000000 0.336200
v -0.375600 0.014400 0.365000
v 0.375600 0.014400 0.365000
v 0.390000 0.014400 0.350600
v 0.390000 0.014400 -0.350600
v 0.375600 0.014400 -0.365000
v -0.375600 0.014400 -0.365000
v -0.390000 0.014400 -0.350600
v -0.390000 0.014400 0.350600
v -0.375600 0.105600 0.365000
v 0.375600 0.105600 0.365000
v 0.390000 0.105600 0.350600
v 0.390000 0.105600 -0.350600
v 0.375600 0.105600 -0.365000
v -0.375600 0.105600 -0.365000
v -0.390000 0.105600 -0.350600
v -0.390000 0.105600 0.350600
v -0.361200 0.120000 0.350600
v 0.361200 0.120000 0.350600
v 0.375600 0.120000 0.336200
v 0.375600 0.120000 -0.336200
v 0.361200 0.120000 -0.350600
v -0.361200 0.120000 -0.350600
v -0.375600 0.120000 -0.336200
v -0.375600 0.120000 0.336200
v -0.300000 0.121000 -0.302000
v -0.327713 0.121000 -0.286000
v -0.327713 0.121000 -0.254000
v -0.300000 0.121000 -0.238000
v -0.272287 0.121000 -0.254000
v -0.272287 0.121000 -0.286000
v -0.300000 0.141000 -0.302000
v -0.327713 0.141000 -0.286000
v -0.327713 0.141000 -0.254000
v -0.300000 0.141000 -0.238000
v -0.272287 0.141000 -0.254000
v -0.272287 0.141000 -0.286000
v -0.300000 0.121000 0.238000
v -0.327713 0.121000 0.254000
v -0.327713 0.121000 0.286000
v -0.300000 0.121000 0.302000
v -0.272287 0.121000 0.286000
v -0.272287 0.121000 0.254000
v -0.300000 0.141000 0.238000
v -0.327713 0.141000 0.254000
v -0.327713 0.141000 0.286000
v -0.300000 0.141000 0.302000
v -0.272287 0.141000 0.286000
v -0.272287 0.141000 0.254000
v 0.300000 0.121000 -0.302000
v 0.272287 0.121000 -0.286000
v 0.272287 0.121000 -0.254000
v 0.300000 0.121000 -0.238000
v 0.327713 0.121000 -0.254000
v 0.327713 0.121000 -0.286000
v 0.300000 0.141000 -0.302000
v 0.272287 0.141000 -0.286000
v 0.272287 0.141000 -0.254000
v 0.300000 0.141000 -0.238000
v 0.327713 0.141000 -0.254000
v 0.327713 0.141000 -0.286000
v 0.300000 0.121000 0.238000
v 0.272287 0.121000 0.254000
v 0.272287 0.121000 0.286000
v 0.300000 0.121000 0.302000
v 0.327713 0.121000 0.286000
v 0.327713 0.121000 0.254000
v 0.300000 0.141000 0.238000
v 0.272287 0.141000 0.254000
v 0.272287 0.141000 0.286000
v 0.300000 0.141000 0.302000
v 0.327713 0.141000 0.286000
v 0.327713 0.141000 0.254000
v 0.000000 0.110000 -0.360000
v -0.180000 0.110000 -0.311769
v -0.311769 0.110000 -0.180000
v -0.360000 0.110000 -0.000000
v -0.311769 0.110000 0.180000
v -0.180000 0.110000 0.311769
v -0.000000 0.110000 0.360000
v 0.180000 0.110000 0.311769
v 0.311769 0.110000 0.180000
v 0.360000 0.110000 0.000000
v 0.311769 0.110000 -0.180000
v 0.180000 0.110000 -0.311769
v 0.000000 0.210000 -0.360000
v -0.180000 0.210000 -0.311769
v -0.311769 0.210000 -0.180000
v -0.360000 0.210000 -0.000000
v -0.311769 0.210000 0.180000
v -0.180000 0.210000 0.311769
v -0.000000 0.210000 0.360000
v 0.180000 0.210000 0.311769
v 0.311769 0.210000 0.180000
v 0.360000 0.210000 0.000000
v 0.311769 0.210000 -0.180000
v 0.180000 0.210000 -0.311769
vn -0.0000 -1.0000 -0.0000
vn -0.0000 -0.7071 0.7071
vn 0.4082 -0.8165 0.4082
vn 0.7071 -0.7071 -0.0000
vn 0.4082 -0.8165 -0.4082
vn -0.0000 -0.7071 -0.7071
vn -0.4082 -0.8165 -0.4082
vn -0.7071 -0.7071 -0.0000
vn -0.4082 -0.8165 0.4082
vn -0.0000 -0.0000 1.0000
vn 0.7071 -0.0000 0.7071
vn 1.0000 -0.0000 -0.0000
vn 0.7071 -0.0000 -0.7071
vn -0.0000 -0.0000 -1.0000
vn -0.7071 -0.0000 -0.7071
vn -1.0000 -0.0000 -0.0000
vn -0.7071 -0.0000 0.7071
vn -0.0000 0.7071 0.7071
vn 0.4082 0.8165 0.4082
vn 0.7071 0.7071 -0.0000
vn 0.4082 0.8165 -0.4082
vn -0.0000 0.7071 -0.7071
vn -0.4082 0.8165 -0.4082
vn -0.7071 0.7071 -0.0000
vn -0.4082 0.8165 0.4082
vn -0.0000 1.0000 -0.0000
vn -0.5000 -0.0000 -0.8660
vn -0.5000 -0.0000 0.8660
vn 0.5000 -0.0000 0.8660
vn 0.5000 -0.0000 -0.8660
vn -0.2588 -0.0000 -0.9659
vn -0.9659 -0.0000 -0.2588
vn -0.9659 -0.0000 0.2588
vn -0.2588 -0.0000 0.9659
vn 0.2588 -0.0000 0.9659
vn 0.9659 -0.0000 0.2588
vn 0.9659 -0.0000 -0.2588
vn 0.2588 -0.0000 -0.9659
vt 0.625000 0.125000
vt 0.375000 0.875000
vt 0.125000 0.625000
s 0
usemtl Military_Equipment_Palette
f 2/1/1 1/1/1 5/1/1
f 2/1/2 9/1/2 1/1/2
f 2/1/3 11/1/3 10/1/3
f 4/1/4 11/1/4 3/1/4
f 5/1/5 12/1/5 4/1/5
f 6/1/6 13/1/6 5/1/6
f 6/1/7 15/1/7 14/1/7
f 8/1/8 15/1/8 7/1/8
f 1/1/9 16/1/9 8/1/9
f 10/1/10 17/1/10 9/1/10
f 11/1/11 18/1/11 10/1/11
f 12/1/12 19/1/12 11/1/12
f 13/1/13 20/1/13 12/1/13
f 14/1/14 21/1/14 13/1/14
f 15/1/15 22/1/15 14/1/15
f 16/1/16 23/1/16 15/1/16
f 9/1/17 24/1/17 16/1/17
f 18/1/18 25/1/18 17/1/18
f 19/1/19 26/1/19 18/1/19
f 20/1/20 27/1/20 19/1/20
f 20/1/21 29/1/21 28/1/21
f 22/1/22 29/1/22 21/1/22
f 23/1/23 30/1/23 22/1/23
f 24/1/24 31/1/24 23/1/24
f 24/1/25 25/1/25 32/1/25
f 30/1/26 31/1/26 32/1/26
f 37/2/1 35/2/1 33/2/1
f 34/2/27 39/2/27 33/2/27
f 35/2/16 40/2/16 34/2/16
f 36/2/28 41/2/28 35/2/28
f 37/2/29 42/2/29 36/2/29
f 38/2/12 43/2/12 37/2/12
f 33/2/30 44/2/30 38/2/30
f 40/2/26 42/2/26 44/2/26
f 49/2/1 47/2/1 45/2/1
f 46/2/27 51/2/27 45/2/27
f 47/2/16 52/2/16 46/2/16
f 48/2/28 53/2/28 47/2/28
f 49/2/29 54/2/29 48/2/29
f 50/2/12 55/2/12 49/2/12
f 45/2/30 56/2/30 50/2/30
f 52/2/26 54/2/26 56/2/26
f 61/2/1 59/2/1 57/2/1
f 58/2/27 63/2/27 57/2/27
f 59/2/16 64/2/16 58/2/16
f 60/2/28 65/2/28 59/2/28
f 61/2/29 66/2/29 60/2/29
f 62/2/12 67/2/12 61/2/12
f 57/2/30 68/2/30 62/2/30
f 64/2/26 66/2/26 68/2/26
f 73/2/1 71/2/1 69/2/1
f 70/2/27 75/2/27 69/2/27
f 71/2/16 76/2/16 70/2/16
f 72/2/28 77/2/28 71/2/28
f 73/2/29 78/2/29 72/2/29
f 74/2/12 79/2/12 73/2/12
f 69/2/30 80/2/30 74/2/30
f 76/2/26 78/2/26 80/2/26
f 89/3/1 85/3/1 81/3/1
f 82/3/31 93/3/31 81/3/31
f 83/3/15 94/3/15 82/3/15
f 84/3/32 95/3/32 83/3/32
f 85/3/33 96/3/33 84/3/33
f 86/3/17 97/3/17 85/3/17
f 87/3/34 98/3/34 86/3/34
f 88/3/35 99/3/35 87/3/35
f 89/3/11 100/3/11 88/3/11
f 90/3/36 101/3/36 89/3/36
f 91/3/37 102/3/37 90/3/37
f 92/3/13 103/3/13 91/3/13
f 81/3/38 104/3/38 92/3/38
f 96/3/26 100/3/26 104/3/26
f 1/1/1 8/1/1 7/1/1
f 7/1/1 6/1/1 1/1/1
f 6/1/1 5/1/1 1/1/1
f 5/1/1 4/1/1 3/1/1
f 3/1/1 2/1/1 5/1/1
f 2/1/2 10/1/2 9/1/2
f 2/1/3 3/1/3 11/1/3
f 4/1/4 12/1/4 11/1/4
f 5/1/5 13/1/5 12/1/5
f 6/1/6 14/1/6 13/1/6
f 6/1/7 7/1/7 15/1/7
f 8/1/8 16/1/8 15/1/8
f 1/1/9 9/1/9 16/1/9
f 10/1/10 18/1/10 17/1/10
f 11/1/11 19/1/11 18/1/11
f 12/1/12 20/1/12 19/1/12
f 13/1/13 21/1/13 20/1/13
f 14/1/14 22/1/14 21/1/14
f 15/1/15 23/1/15 22/1/15
f 16/1/16 24/1/16 23/1/16
f 9/1/17 17/1/17 24/1/17
f 18/1/18 26/1/18 25/1/18
f 19/1/19 27/1/19 26/1/19
f 20/1/20 28/1/20 27/1/20
f 20/1/21 21/1/21 29/1/21
f 22/1/22 30/1/22 29/1/22
f 23/1/23 31/1/23 30/1/23
f 24/1/24 32/1/24 31/1/24
f 24/1/25 17/1/25 25/1/25
f 32/1/26 25/1/26 30/1/26
f 25/1/26 26/1/26 30/1/26
f 26/1/26 27/1/26 28/1/26
f 28/1/26 29/1/26 26/1/26
f 29/1/26 30/1/26 26/1/26
f 33/2/1 38/2/1 37/2/1
f 37/2/1 36/2/1 35/2/1
f 35/2/1 34/2/1 33/2/1
f 34/2/27 40/2/27 39/2/27
f 35/2/16 41/2/16 40/2/16
f 36/2/28 42/2/28 41/2/28
f 37/2/29 43/2/29 42/2/29
f 38/2/12 44/2/12 43/2/12
f 33/2/30 39/2/30 44/2/30
f 44/2/26 39/2/26 40/2/26
f 40/2/26 41/2/26 42/2/26
f 42/2/26 43/2/26 44/2/26
f 45/2/1 50/2/1 49/2/1
f 49/2/1 48/2/1 47/2/1
f 47/2/1 46/2/1 45/2/1
f 46/2/27 52/2/27 51/2/27
f 47/2/16 53/2/16 52/2/16
f 48/2/28 54/2/28 53/2/28
f 49/2/29 55/2/29 54/2/29
f 50/2/12 56/2/12 55/2/12
f 45/2/30 51/2/30 56/2/30
f 56/2/26 51/2/26 52/2/26
f 52/2/26 53/2/26 54/2/26
f 54/2/26 55/2/26 56/2/26
f 57/2/1 62/2/1 61/2/1
f 61/2/1 60/2/1 59/2/1
f 59/2/1 58/2/1 57/2/1
f 58/2/27 64/2/27 63/2/27
f 59/2/16 65/2/16 64/2/16
f 60/2/28 66/2/28 65/2/28
f 61/2/29 67/2/29 66/2/29
f 62/2/12 68/2/12 67/2/12
f 57/2/30 63/2/30 68/2/30
f 68/2/26 63/2/26 64/2/26
f 64/2/26 65/2/26 66/2/26
f 66/2/26 67/2/26 68/2/26
f 69/2/1 74/2/1 73/2/1
f 73/2/1 72/2/1 71/2/1
f 71/2/1 70/2/1 69/2/1
f 70/2/27 76/2/27 75/2/27
f 71/2/16 77/2/16 76/2/16
f 72/2/28 78/2/28 77/2/28
f 73/2/29 79/2/29 78/2/29
f 74/2/12 80/2/12 79/2/12
f 69/2/30 75/2/30 80/2/30
f 80/2/26 75/2/26 76/2/26
f 76/2/26 77/2/26 78/2/26
f 78/2/26 79/2/26 80/2/26
f 81/3/1 92/3/1 91/3/1
f 91/3/1 90/3/1 89/3/1
f 89/3/1 88/3/1 87/3/1
f 87/3/1 86/3/1 85/3/1
f 85/3/1 84/3/1 83/3/1
f 83/3/1 82/3/1 81/3/1
f 81/3/1 91/3/1 89/3/1
f 89/3/1 87/3/1 85/3/1
f 85/3/1 83/3/1 81/3/1
f 82/3/31 94/3/31 93/3/31
f 83/3/15 95/3/15 94/3/15
f 84/3/32 96/3/32 95/3/32
f 85/3/33 97/3/33 96/3/33
f 86/3/17 98/3/17 97/3/17
f 87/3/34 99/3/34 98/3/34
f 88/3/35 100/3/35 99/3/35
f 89/3/11 101/3/11 100/3/11
f 90/3/36 102/3/36 101/3/36
f 91/3/37 103/3/37 102/3/37
f 92/3/13 104/3/13 103/3/13
f 81/3/38 93/3/38 104/3/38
f 104/3/26 93/3/26 94/3/26
f 94/3/26 95/3/26 96/3/26
f 96/3/26 97/3/26 98/3/26
f 98/3/26 99/3/26 100/3/26
f 100/3/26 101/3/26 102/3/26
f 102/3/26 103/3/26 104/3/26
f 104/3/26 94/3/26 96/3/26
f 96/3/26 98/3/26 100/3/26
f 100/3/26 102/3/26 104/3/26
o MOVING.001
v 0.000000 0.130000 -0.290000
v -0.170458 0.130000 -0.234615
v -0.275806 0.130000 -0.089615
v -0.275806 0.130000 0.089615
v -0.170458 0.130000 0.234615
v -0.000000 0.130000 0.290000
v 0.170458 0.130000 0.234615
v 0.275806 0.130000 0.089615
v 0.275806 0.130000 -0.089615
v 0.170458 0.130000 -0.234615
v 0.000000 0.470000 -0.290000
v -0.170458 0.470000 -0.234615
v -0.275806 0.470000 -0.089615
v -0.275806 0.470000 0.089615
v -0.170458 0.470000 0.234615
v -0.000000 0.470000 0.290000
v 0.170458 0.470000 0.234615
v 0.275806 0.470000 0.089615
v 0.275806 0.470000 -0.089615
v 0.170458 0.470000 -0.234615
v -0.255000 0.320000 0.260000
v 0.255000 0.320000 0.260000
v 0.280000 0.320000 0.235000
v 0.280000 0.320000 -0.235000
v 0.255000 0.320000 -0.260000
v -0.255000 0.320000 -0.260000
v -0.280000 0.320000 -0.235000
v -0.280000 0.320000 0.235000
v -0.280000 0.345000 0.285000
v 0.280000 0.345000 0.285000
v 0.305000 0.345000 0.260000
v 0.305000 0.345000 -0.260000
v 0.280000 0.345000 -0.285000
v -0.280000 0.345000 -0.285000
v -0.305000 0.345000 -0.260000
v -0.305000 0.345000 0.260000
v -0.280000 0.695000 0.285000
v 0.280000 0.695000 0.285000
v 0.305000 0.695000 0.260000
v 0.305000 0.695000 -0.260000
v 0.280000 0.695000 -0.285000
v -0.280000 0.695000 -0.285000
v -0.305000 0.695000 -0.260000
v -0.305000 0.695000 0.260000
v -0.255000 0.720000 0.260000
v 0.255000 0.720000 0.260000
v 0.280000 0.720000 0.235000
v 0.280000 0.720000 -0.235000
v 0.255000 0.720000 -0.260000
v -0.255000 0.720000 -0.260000
v -0.280000 0.720000 -0.235000
v -0.280000 0.720000 0.235000
v -0.230000 0.715000 0.150000
v 0.230000 0.715000 0.150000
v 0.230000 0.715000 -0.270000
v -0.230000 0.715000 -0.270000
v -0.230000 0.775000 0.150000
v 0.230000 0.775000 0.150000
v 0.230000 0.775000 -0.270000
v -0.230000 0.775000 -0.270000
v 0.000000 0.675000 0.360000
v -0.055840 0.656857 0.360000
v -0.090350 0.609357 0.360000
v -0.090350 0.550643 0.360000
v -0.055840 0.503143 0.360000
v -0.000000 0.485000 0.360000
v 0.055840 0.503143 0.360000
v 0.090350 0.550643 0.360000
v 0.090350 0.609357 0.360000
v 0.055840 0.656857 0.360000
v 0.000000 0.675000 1.880000
v -0.055840 0.656857 1.880000
v -0.090350 0.609357 1.880000
v -0.090350 0.550643 1.880000
v -0.055840 0.503143 1.880000
v -0.000000 0.485000 1.880000
v 0.055840 0.503143 1.880000
v 0.090350 0.550643 1.880000
v 0.090350 0.609357 1.880000
v 0.055840 0.656857 1.880000
v 0.000000 0.708250 1.845000
v -0.075383 0.683756 1.845000
v -0.121973 0.619631 1.845000
v -0.121973 0.540369 1.845000
v -0.075383 0.476244 1.845000
v -0.000000 0.451750 1.845000
v 0.075383 0.476244 1.845000
v 0.121973 0.540369 1.845000
v 0.121973 0.619631 1.845000
v 0.075383 0.683756 1.845000
v 0.000000 0.708250 1.935000
v -0.075383 0.683756 1.935000
v -0.121973 0.619631 1.935000
v -0.121973 0.540369 1.935000
v -0.075383 0.476244 1.935000
v -0.000000 0.451750 1.935000
v 0.075383 0.476244 1.935000
v 0.121973 0.540369 1.935000
v 0.121973 0.619631 1.935000
v 0.075383 0.683756 1.935000
v 0.000000 0.651250 1.938000
v -0.041880 0.637642 1.938000
v -0.067763 0.602017 1.938000
v -0.067763 0.557983 1.938000
v -0.041880 0.522358 1.938000
v -0.000000 0.508750 1.938000
v 0.041880 0.522358 1.938000
v 0.067763 0.557983 1.938000
v 0.067763 0.602017 1.938000
v 0.041880 0.637642 1.938000
v 0.000000 0.651250 1.952000
v -0.041880 0.637642 1.952000
v -0.067763 0.602017 1.952000
v -0.067763 0.557983 1.952000
v -0.041880 0.522358 1.952000
v -0.000000 0.508750 1.952000
v 0.041880 0.522358 1.952000
v 0.067763 0.557983 1.952000
v 0.067763 0.602017 1.952000
v 0.041880 0.637642 1.952000
v -0.465000 0.255000 0.105000
v -0.335000 0.255000 0.105000
v -0.310000 0.255000 0.080000
v -0.310000 0.255000 -0.240000
v -0.335000 0.255000 -0.265000
v -0.465000 0.255000 -0.265000
v -0.490000 0.255000 -0.240000
v -0.490000 0.255000 0.080000
v -0.490000 0.280000 0.130000
v -0.310000 0.280000 0.130000
v -0.285000 0.280000 0.105000
v -0.285000 0.280000 -0.265000
v -0.310000 0.280000 -0.290000
v -0.490000 0.280000 -0.290000
v -0.515000 0.280000 -0.265000
v -0.515000 0.280000 0.105000
v -0.490000 0.560000 0.130000
v -0.310000 0.560000 0.130000
v -0.285000 0.560000 0.105000
v -0.285000 0.560000 -0.265000
v -0.310000 0.560000 -0.290000
v -0.490000 0.560000 -0.290000
v -0.515000 0.560000 -0.265000
v -0.515000 0.560000 0.105000
v -0.465000 0.585000 0.105000
v -0.335000 0.585000 0.105000
v -0.310000 0.585000 0.080000
v -0.310000 0.585000 -0.240000
v -0.335000 0.585000 -0.265000
v -0.465000 0.585000 -0.265000
v -0.490000 0.585000 -0.240000
v -0.490000 0.585000 0.080000
v -0.532500 0.585000 0.147500
v -0.267500 0.585000 0.147500
v -0.267500 0.585000 -0.307500
v -0.532500 0.585000 -0.307500
v -0.532500 0.635000 0.147500
v -0.267500 0.635000 0.147500
v -0.267500 0.635000 -0.307500
v -0.532500 0.635000 -0.307500
v -0.486500 0.220000 0.155000
v -0.451500 0.220000 0.155000
v -0.451500 0.220000 -0.315000
v -0.486500 0.220000 -0.315000
v -0.486500 0.620000 0.155000
v -0.451500 0.620000 0.155000
v -0.451500 0.620000 -0.315000
v -0.486500 0.620000 -0.315000
v -0.495600 0.440900 0.167500
v -0.405600 0.440900 0.167500
v -0.405600 0.440900 0.132500
v -0.495600 0.440900 0.132500
v -0.495600 0.550900 0.167500
v -0.405600 0.550900 0.167500
v -0.405600 0.550900 0.132500
v -0.495600 0.550900 0.132500
v -0.348500 0.220000 0.155000
v -0.313500 0.220000 0.155000
v -0.313500 0.220000 -0.315000
v -0.348500 0.220000 -0.315000
v -0.348500 0.620000 0.155000
v -0.313500 0.620000 0.155000
v -0.313500 0.620000 -0.315000
v -0.348500 0.620000 -0.315000
v -0.394400 0.440900 0.167500
v -0.304400 0.440900 0.167500
v -0.304400 0.440900 0.132500
v -0.394400 0.440900 0.132500
v -0.394400 0.550900 0.167500
v -0.304400 0.550900 0.167500
v -0.304400 0.550900 0.132500
v -0.394400 0.550900 0.132500
v -0.500000 0.434600 0.192500
v -0.300000 0.434600 0.192500
v -0.300000 0.434600 0.147500
v -0.500000 0.434600 0.147500
v -0.500000 0.484600 0.192500
v -0.300000 0.484600 0.192500
v -0.300000 0.484600 0.147500
v -0.500000 0.484600 0.147500
v -0.222500 0.685000 0.127500
v -0.197500 0.685000 0.127500
v -0.197500 0.685000 0.072500
v -0.222500 0.685000 0.072500
v -0.222500 0.815000 0.127500
v -0.197500 0.815000 0.127500
v -0.197500 0.815000 0.072500
v -0.222500 0.815000 0.072500
v 0.197500 0.685000 0.127500
v 0.222500 0.685000 0.127500
v 0.222500 0.685000 0.072500
v 0.197500 0.685000 0.072500
v 0.197500 0.815000 0.127500
v 0.222500 0.815000 0.127500
v 0.222500 0.815000 0.072500
v 0.197500 0.815000 0.072500
v -0.341600 0.505000 0.985800
v -0.258400 0.505000 0.985800
v -0.239200 0.505000 0.966600
v -0.239200 0.505000 0.093400
v -0.258400 0.505000 0.074200
v -0.341600 0.505000 0.074200
v -0.360800 0.505000 0.093400
v -0.360800 0.505000 0.966600
v -0.360800 0.524200 1.005000
v -0.239200 0.524200 1.005000
v -0.220000 0.524200 0.985800
v -0.220000 0.524200 0.074200
v -0.239200 0.524200 0.055000
v -0.360800 0.524200 0.055000
v -0.380000 0.524200 0.074200
v -0.380000 0.524200 0.985800
v -0.360800 0.715800 1.005000
v -0.239200 0.715800 1.005000
v -0.220000 0.715800 0.985800
v -0.220000 0.715800 0.074200
v -0.239200 0.715800 0.055000
v -0.360800 0.715800 0.055000
v -0.380000 0.715800 0.074200
v -0.380000 0.715800 0.985800
v -0.341600 0.735000 0.985800
v -0.258400 0.735000 0.985800
v -0.239200 0.735000 0.966600
v -0.239200 0.735000 0.093400
v -0.258400 0.735000 0.074200
v -0.341600 0.735000 0.074200
v -0.360800 0.735000 0.093400
v -0.360800 0.735000 0.966600
v -0.190000 0.556000 0.300000
v -0.222916 0.545305 0.300000
v -0.243259 0.517305 0.300000
v -0.243259 0.482695 0.300000
v -0.222916 0.454695 0.300000
v -0.190000 0.444000 0.300000
v -0.157084 0.454695 0.300000
v -0.136741 0.482695 0.300000
v -0.136741 0.517305 0.300000
v -0.157084 0.545305 0.300000
v -0.190000 0.556000 1.160000
v -0.222916 0.545305 1.160000
v -0.243259 0.517305 1.160000
v -0.243259 0.482695 1.160000
v -0.222916 0.454695 1.160000
v -0.190000 0.444000 1.160000
v -0.157084 0.454695 1.160000
v -0.136741 0.482695 1.160000
v -0.136741 0.517305 1.160000
v -0.157084 0.545305 1.160000
v -0.486200 0.430000 0.345600
v -0.313800 0.430000 0.345600
v -0.299400 0.430000 0.331200
v -0.299400 0.430000 0.268800
v -0.313800 0.430000 0.254400
v -0.486200 0.430000 0.254400
v -0.500600 0.430000 0.268800
v -0.500600 0.430000 0.331200
v -0.500600 0.444400 0.360000
v -0.299400 0.444400 0.360000
v -0.285000 0.444400 0.345600
v -0.285000 0.444400 0.254400
v -0.299400 0.444400 0.240000
v -0.500600 0.444400 0.240000
v -0.515000 0.444400 0.254400
v -0.515000 0.444400 0.345600
v -0.500600 1.035600 0.360000
v -0.299400 1.035600 0.360000
v -0.285000 1.035600 0.345600
v -0.285000 1.035600 0.254400
v -0.299400 1.035600 0.240000
v -0.500600 1.035600 0.240000
v -0.515000 1.035600 0.254400
v -0.515000 1.035600 0.345600
v -0.486200 1.050000 0.345600
v -0.313800 1.050000 0.345600
v -0.299400 1.050000 0.331200
v -0.299400 1.050000 0.268800
v -0.313800 1.050000 0.254400
v -0.486200 1.050000 0.254400
v -0.500600 1.050000 0.268800
v -0.500600 1.050000 0.331200
v 0.258400 0.505000 0.985800
v 0.341600 0.505000 0.985800
v 0.360800 0.505000 0.966600
v 0.360800 0.505000 0.093400
v 0.341600 0.505000 0.074200
v 0.258400 0.505000 0.074200
v 0.239200 0.505000 0.093400
v 0.239200 0.505000 0.966600
v 0.239200 0.524200 1.005000
v 0.360800 0.524200 1.005000
v 0.380000 0.524200 0.985800
v 0.380000 0.524200 0.074200
v 0.360800 0.524200 0.055000
v 0.239200 0.524200 0.055000
v 0.220000 0.524200 0.074200
v 0.220000 0.524200 0.985800
v 0.239200 0.715800 1.005000
v 0.360800 0.715800 1.005000
v 0.380000 0.715800 0.985800
v 0.380000 0.715800 0.074200
v 0.360800 0.715800 0.055000
v 0.239200 0.715800 0.055000
v 0.220000 0.715800 0.074200
v 0.220000 0.715800 0.985800
v 0.258400 0.735000 0.985800
v 0.341600 0.735000 0.985800
v 0.360800 0.735000 0.966600
v 0.360800 0.735000 0.093400
v 0.341600 0.735000 0.074200
v 0.258400 0.735000 0.074200
v 0.239200 0.735000 0.093400
v 0.239200 0.735000 0.966600
v 0.190000 0.556000 0.300000
v 0.157084 0.545305 0.300000
v 0.136741 0.517305 0.300000
v 0.136741 0.482695 0.300000
v 0.157084 0.454695 0.300000
v 0.190000 0.444000 0.300000
v 0.222916 0.454695 0.300000
v 0.243259 0.482695 0.300000
v 0.243259 0.517305 0.300000
v 0.222916 0.545305 0.300000
v 0.190000 0.556000 1.160000
v 0.157084 0.545305 1.160000
v 0.136741 0.517305 1.160000
v 0.136741 0.482695 1.160000
v 0.157084 0.454695 1.160000
v 0.190000 0.444000 1.160000
v 0.222916 0.454695 1.160000
v 0.243259 0.482695 1.160000
v 0.243259 0.517305 1.160000
v 0.222916 0.545305 1.160000
v 0.313800 0.430000 0.345600
v 0.486200 0.430000 0.345600
v 0.500600 0.430000 0.331200
v 0.500600 0.430000 0.268800
v 0.486200 0.430000 0.254400
v 0.313800 0.430000 0.254400
v 0.299400 0.430000 0.268800
v 0.299400 0.430000 0.331200
v 0.299400 0.444400 0.360000
v 0.500600 0.444400 0.360000
v 0.515000 0.444400 0.345600
v 0.515000 0.444400 0.254400
v 0.500600 0.444400 0.240000
v 0.299400 0.444400 0.240000
v 0.285000 0.444400 0.254400
v 0.285000 0.444400 0.345600
v 0.299400 1.035600 0.360000
v 0.500600 1.035600 0.360000
v 0.515000 1.035600 0.345600
v 0.515000 1.035600 0.254400
v 0.500600 1.035600 0.240000
v 0.299400 1.035600 0.240000
v 0.285000 1.035600 0.254400
v 0.285000 1.035600 0.345600
v 0.313800 1.050000 0.345600
v 0.486200 1.050000 0.345600
v 0.500600 1.050000 0.331200
v 0.500600 1.050000 0.268800
v 0.486200 1.050000 0.254400
v 0.313800 1.050000 0.254400
v 0.299400 1.050000 0.268800
v 0.299400 1.050000 0.331200
v -0.102000 0.480000 1.941000
v 0.102000 0.480000 1.941000
v 0.126000 0.480000 1.917000
v 0.126000 0.480000 1.783000
v 0.102000 0.480000 1.759000
v -0.102000 0.480000 1.759000
v -0.126000 0.480000 1.783000
v -0.126000 0.480000 1.917000
v -0.126000 0.504000 1.965000
v 0.126000 0.504000 1.965000
v 0.150000 0.504000 1.941000
v 0.150000 0.504000 1.759000
v 0.126000 0.504000 1.735000
v -0.126000 0.504000 1.735000
v -0.150000 0.504000 1.759000
v -0.150000 0.504000 1.941000
v -0.126000 0.656000 1.965000
v 0.126000 0.656000 1.965000
v 0.150000 0.656000 1.941000
v 0.150000 0.656000 1.759000
v 0.126000 0.656000 1.735000
v -0.126000 0.656000 1.735000
v -0.150000 0.656000 1.759000
v -0.150000 0.656000 1.941000
v -0.102000 0.680000 1.941000
v 0.102000 0.680000 1.941000
v 0.126000 0.680000 1.917000
v 0.126000 0.680000 1.783000
v 0.102000 0.680000 1.759000
v -0.102000 0.680000 1.759000
v -0.126000 0.680000 1.783000
v -0.126000 0.680000 1.917000
v -0.080000 0.525000 1.976000
v 0.080000 0.525000 1.976000
v 0.080000 0.525000 1.964000
v -0.080000 0.525000 1.964000
v -0.080000 0.635000 1.976000
v 0.080000 0.635000 1.976000
v 0.080000 0.635000 1.964000
v -0.080000 0.635000 1.964000
vn -0.0000 -1.0000 -0.0000
vn -0.3090 -0.0000 -0.9511
vn -0.8090 -0.0000 -0.5878
vn -1.0000 -0.0000 -0.0000
vn -0.8090 -0.0000 0.5878
vn -0.3090 -0.0000 0.9511
vn 0.3090 -0.0000 0.9511
vn 0.8090 -0.0000 0.5878
vn 1.0000 -0.0000 -0.0000
vn 0.8090 -0.0000 -0.5878
vn 0.3090 -0.0000 -0.9511
vn -0.0000 1.0000 -0.0000
vn -0.0000 -0.7071 0.7071
vn 0.4082 -0.8165 0.4082
vn 0.7071 -0.7071 -0.0000
vn 0.4082 -0.8165 -0.4082
vn -0.0000 -0.7071 -0.7071
vn -0.4082 -0.8165 -0.4082
vn -0.7071 -0.7071 -0.0000
vn -0.4082 -0.8165 0.4082
vn -0.0000 -0.0000 1.0000
vn 0.7071 -0.0000 0.7071
vn 0.7071 -0.0000 -0.7071
vn -0.0000 -0.0000 -1.0000
vn -0.7071 -0.0000 -0.7071
vn -0.7071 -0.0000 0.7071
vn -0.0000 0.7071 0.7071
vn 0.4082 0.8165 0.4082
vn 0.7071 0.7071 -0.0000
vn 0.4082 0.8165 -0.4083
vn -0.0000 0.7071 -0.7071
vn -0.4082 0.8165 -0.4082
vn -0.7071 0.7071 -0.0000
vn -0.4082 0.8165 0.4083
vn -0.3090 0.9511 -0.0000
vn -0.8090 0.5878 -0.0000
vn -0.8090 -0.5878 -0.0000
vn -0.3090 -0.9511 -0.0000
vn 0.3090 -0.9511 -0.0000
vn 0.8090 -0.5878 -0.0000
vn 0.8090 0.5878 -0.0000
vn 0.3090 0.9511 -0.0000
vn 0.4082 0.8165 -0.4082
vn -0.4082 0.8165 0.4082
vn -0.4082 -0.8165 -0.4083
vn -0.4082 0.8165 -0.4083
vn 0.4083 -0.8165 -0.4083
vn -0.4083 -0.8165 0.4082
vn 0.4083 0.8165 -0.4082
vn 0.4082 0.8165 0.4083
vn 0.4082 -0.8165 -0.4083
vn 0.4083 -0.8165 0.4082
vn -0.4083 -0.8165 -0.4083
vn 0.4083 0.8165 0.4082
vn -0.4083 0.8165 -0.4082
vn -0.4083 0.8165 0.4082
vt 0.625000 0.125000
vt 0.125000 0.125000
vt 0.375000 0.125000
vt 0.875000 0.125000
vt 0.125000 0.625000
vt 0.625000 0.875000
vt 0.125000 0.875000
vt 0.375000 0.875000
s 0
usemtl Military_Equipment_Palette
f 111/4/39 107/4/39 105/4/39
f 106/4/40 115/4/40 105/4/40
f 107/4/41 116/4/41 106/4/41
f 108/4/42 117/4/42 107/4/42
f 109/4/43 118/4/43 108/4/43
f 110/4/44 119/4/44 109/4/44
f 111/4/45 120/4/45 110/4/45
f 112/4/46 121/4/46 111/4/46
f 113/4/47 122/4/47 112/4/47
f 114/4/48 123/4/48 113/4/48
f 105/4/49 124/4/49 114/4/49
f 118/4/50 122/4/50 124/4/50
f 126/5/39 125/5/39 129/5/39
f 126/5/51 133/5/51 125/5/51
f 127/5/52 134/5/52 126/5/52
f 128/5/53 135/5/53 127/5/53
f 128/5/54 137/5/54 136/5/54
f 130/5/55 137/5/55 129/5/55
f 131/5/56 138/5/56 130/5/56
f 132/5/57 139/5/57 131/5/57
f 132/5/58 133/5/58 140/5/58
f 134/5/59 141/5/59 133/5/59
f 135/5/60 142/5/60 134/5/60
f 136/5/47 143/5/47 135/5/47
f 137/5/61 144/5/61 136/5/61
f 138/5/62 145/5/62 137/5/62
f 139/5/63 146/5/63 138/5/63
f 140/5/42 147/5/42 139/5/42
f 133/5/64 148/5/64 140/5/64
f 142/5/65 149/5/65 141/5/65
f 142/5/66 151/5/66 150/5/66
f 144/5/67 151/5/67 143/5/67
f 145/5/68 152/5/68 144/5/68
f 146/5/69 153/5/69 145/5/69
f 146/5/70 155/5/70 154/5/70
f 148/5/71 155/5/71 147/5/71
f 141/5/72 156/5/72 148/5/72
f 154/5/50 155/5/50 156/5/50
f 159/6/39 157/6/39 160/6/39
f 162/6/50 164/6/50 161/6/50
f 158/6/59 161/6/59 157/6/59
f 159/6/47 162/6/47 158/6/47
f 160/6/62 163/6/62 159/6/62
f 157/6/42 164/6/42 160/6/42
f 171/7/62 167/7/62 165/7/62
f 166/7/73 175/7/73 165/7/73
f 167/7/74 176/7/74 166/7/74
f 168/7/42 177/7/42 167/7/42
f 169/7/75 178/7/75 168/7/75
f 170/7/76 179/7/76 169/7/76
f 171/7/77 180/7/77 170/7/77
f 172/7/78 181/7/78 171/7/78
f 173/7/47 182/7/47 172/7/47
f 174/7/79 183/7/79 173/7/79
f 165/7/80 184/7/80 174/7/80
f 178/7/59 180/7/59 182/7/59
f 191/8/62 187/8/62 185/8/62
f 186/8/73 195/8/73 185/8/73
f 187/8/74 196/8/74 186/8/74
f 188/8/42 197/8/42 187/8/42
f 189/8/75 198/8/75 188/8/75
f 190/8/76 199/8/76 189/8/76
f 191/8/77 200/8/77 190/8/77
f 192/8/78 201/8/78 191/8/78
f 193/8/47 202/8/47 192/8/47
f 194/8/79 203/8/79 193/8/79
f 185/8/80 204/8/80 194/8/80
f 198/8/59 202/8/59 204/8/59
f 213/9/62 211/9/62 207/9/62
f 206/9/73 215/9/73 205/9/73
f 207/9/74 216/9/74 206/9/74
f 208/9/42 217/9/42 207/9/42
f 209/9/75 218/9/75 208/9/75
f 210/9/76 219/9/76 209/9/76
f 211/9/77 220/9/77 210/9/77
f 212/9/78 221/9/78 211/9/78
f 213/9/47 222/9/47 212/9/47
f 214/9/79 223/9/79 213/9/79
f 205/9/80 224/9/80 214/9/80
f 218/9/59 222/9/59 224/9/59
f 227/10/39 226/10/39 225/10/39
f 226/10/51 233/10/51 225/10/51
f 227/10/52 234/10/52 226/10/52
f 227/10/53 236/10/53 235/10/53
f 228/10/54 237/10/54 236/10/54
f 230/10/55 237/10/55 229/10/55
f 230/10/56 239/10/56 238/10/56
f 232/10/57 239/10/57 231/10/57
f 225/10/58 240/10/58 232/10/58
f 234/10/59 241/10/59 233/10/59
f 235/10/60 242/10/60 234/10/60
f 236/10/47 243/10/47 235/10/47
f 237/10/61 244/10/61 236/10/61
f 238/10/62 245/10/62 237/10/62
f 239/10/63 246/10/63 238/10/63
f 240/10/42 247/10/42 239/10/42
f 233/10/64 248/10/64 240/10/64
f 242/10/65 249/10/65 241/10/65
f 242/10/66 251/10/66 250/10/66
f 244/10/67 251/10/67 243/10/67
f 245/10/81 252/10/81 244/10/81
f 246/10/69 253/10/69 245/10/69
f 247/10/70 254/10/70 246/10/70
f 248/10/71 255/10/71 247/10/71
f 241/10/82 256/10/82 248/10/82
f 255/10/50 256/10/50 252/10/50
f 259/6/39 257/6/39 260/6/39
f 262/6/50 264/6/50 261/6/50
f 258/6/59 261/6/59 257/6/59
f 259/6/47 262/6/47 258/6/47
f 260/6/62 263/6/62 259/6/62
f 257/6/42 264/6/42 260/6/42
f 267/7/39 265/7/39 268/7/39
f 270/7/50 272/7/50 269/7/50
f 266/7/59 269/7/59 265/7/59
f 267/7/47 270/7/47 266/7/47
f 268/7/62 271/7/62 267/7/62
f 265/7/42 272/7/42 268/7/42
f 275/11/39 273/11/39 276/11/39
f 278/11/50 280/11/50 277/11/50
f 274/11/59 277/11/59 273/11/59
f 275/11/47 278/11/47 274/11/47
f 276/11/62 279/11/62 275/11/62
f 273/11/42 280/11/42 276/11/42
f 283/7/39 281/7/39 284/7/39
f 286/7/50 288/7/50 285/7/50
f 282/7/59 285/7/59 281/7/59
f 283/7/47 286/7/47 282/7/47
f 284/7/62 287/7/62 283/7/62
f 281/7/42 288/7/42 284/7/42
f 291/11/39 289/11/39 292/11/39
f 294/11/50 296/11/50 293/11/50
f 290/11/59 293/11/59 289/11/59
f 291/11/47 294/11/47 290/11/47
f 292/11/62 295/11/62 291/11/62
f 289/11/42 296/11/42 292/11/42
f 299/8/39 297/8/39 300/8/39
f 302/8/50 304/8/50 301/8/50
f 298/8/59 301/8/59 297/8/59
f 299/8/47 302/8/47 298/8/47
f 300/8/62 303/8/62 299/8/62
f 297/8/42 304/8/42 300/8/42
f 307/7/39 305/7/39 308/7/39
f 310/7/50 312/7/50 309/7/50
f 306/7/59 309/7/59 305/7/59
f 307/7/47 310/7/47 306/7/47
f 308/7/62 311/7/62 307/7/62
f 305/7/42 312/7/42 308/7/42
f 315/7/39 313/7/39 316/7/39
f 318/7/50 320/7/50 317/7/50
f 314/7/59 317/7/59 313/7/59
f 315/7/47 318/7/47 314/7/47
f 316/7/62 319/7/62 315/7/62
f 313/7/42 320/7/42 316/7/42
f 323/5/39 322/5/39 321/5/39
f 321/5/51 330/5/51 329/5/51
f 322/5/52 331/5/52 330/5/52
f 324/5/53 331/5/53 323/5/53
f 325/5/54 332/5/54 324/5/54
f 326/5/55 333/5/55 325/5/55
f 326/5/56 335/5/56 334/5/56
f 328/5/57 335/5/57 327/5/57
f 321/5/58 336/5/58 328/5/58
f 330/5/59 337/5/59 329/5/59
f 331/5/60 338/5/60 330/5/60
f 332/5/47 339/5/47 331/5/47
f 333/5/61 340/5/61 332/5/61
f 334/5/62 341/5/62 333/5/62
f 335/5/63 342/5/63 334/5/63
f 336/5/42 343/5/42 335/5/42
f 329/5/64 344/5/64 336/5/64
f 338/5/65 345/5/65 337/5/65
f 339/5/66 346/5/66 338/5/66
f 340/5/67 347/5/67 339/5/67
f 341/5/81 348/5/81 340/5/81
f 341/5/69 350/5/69 349/5/69
f 343/5/70 350/5/70 342/5/70
f 344/5/71 351/5/71 343/5/71
f 344/5/82 345/5/82 352/5/82
f 351/5/50 352/5/50 348/5/50
f 359/8/62 355/8/62 353/8/62
f 354/8/73 363/8/73 353/8/73
f 355/8/74 364/8/74 354/8/74
f 356/8/42 365/8/42 355/8/42
f 357/8/75 366/8/75 356/8/75
f 358/8/76 367/8/76 357/8/76
f 359/8/77 368/8/77 358/8/77
f 360/8/78 369/8/78 359/8/78
f 361/8/47 370/8/47 360/8/47
f 362/8/79 371/8/79 361/8/79
f 353/8/80 372/8/80 362/8/80
f 366/8/59 368/8/59 370/8/59
f 374/6/39 373/6/39 377/6/39
f 374/6/51 381/6/51 373/6/51
f 374/6/52 383/6/52 382/6/52
f 375/6/53 384/6/53 383/6/53
f 377/6/54 384/6/54 376/6/54
f 377/6/55 386/6/55 385/6/55
f 379/6/83 386/6/83 378/6/83
f 380/6/57 387/6/57 379/6/57
f 373/6/58 388/6/58 380/6/58
f 382/6/59 389/6/59 381/6/59
f 383/6/60 390/6/60 382/6/60
f 384/6/47 391/6/47 383/6/47
f 385/6/61 392/6/61 384/6/61
f 386/6/62 393/6/62 385/6/62
f 387/6/63 394/6/63 386/6/63
f 388/6/42 395/6/42 387/6/42
f 381/6/64 396/6/64 388/6/64
f 389/6/65 398/6/65 397/6/65
f 391/6/66 398/6/66 390/6/66
f 392/6/67 399/6/67 391/6/67
f 392/6/81 401/6/81 400/6/81
f 394/6/69 401/6/69 393/6/69
f 394/6/84 403/6/84 402/6/84
f 395/6/71 404/6/71 403/6/71
f 396/6/82 397/6/82 404/6/82
f 402/6/50 403/6/50 404/6/50
f 407/5/39 406/5/39 405/5/39
f 406/5/51 413/5/51 405/5/51
f 407/5/52 414/5/52 406/5/52
f 408/5/53 415/5/53 407/5/53
f 409/5/54 416/5/54 408/5/54
f 409/5/55 418/5/55 417/5/55
f 411/5/56 418/5/56 410/5/56
f 412/5/57 419/5/57 411/5/57
f 405/5/58 420/5/58 412/5/58
f 414/5/59 421/5/59 413/5/59
f 415/5/60 422/5/60 414/5/60
f 416/5/47 423/5/47 415/5/47
f 417/5/61 424/5/61 416/5/61
f 418/5/62 425/5/62 417/5/62
f 419/5/63 426/5/63 418/5/63
f 420/5/42 427/5/42 419/5/42
f 413/5/64 428/5/64 420/5/64
f 421/5/65 430/5/65 429/5/65
f 423/5/66 430/5/66 422/5/66
f 424/5/67 431/5/67 423/5/67
f 424/5/81 433/5/81 432/5/81
f 426/5/69 433/5/69 425/5/69
f 426/5/70 435/5/70 434/5/70
f 428/5/71 435/5/71 427/5/71
f 428/5/82 429/5/82 436/5/82
f 435/5/50 436/5/50 432/5/50
f 443/8/62 439/8/62 437/8/62
f 438/8/73 447/8/73 437/8/73
f 439/8/74 448/8/74 438/8/74
f 440/8/42 449/8/42 439/8/42
f 441/8/75 450/8/75 440/8/75
f 442/8/76 451/8/76 441/8/76
f 443/8/77 452/8/77 442/8/77
f 444/8/78 453/8/78 443/8/78
f 445/8/47 454/8/47 444/8/47
f 446/8/79 455/8/79 445/8/79
f 437/8/80 456/8/80 446/8/80
f 450/8/59 452/8/59 454/8/59
f 458/6/39 457/6/39 461/6/39
f 457/6/51 466/6/51 465/6/51
f 458/6/52 467/6/52 466/6/52
f 459/6/53 468/6/53 467/6/53
f 460/6/54 469/6/54 468/6/54
f 462/6/55 469/6/55 461/6/55
f 462/6/56 471/6/56 470/6/56
f 464/6/57 471/6/57 463/6/57
f 457/6/58 472/6/58 464/6/58
f 466/6/59 473/6/59 465/6/59
f 467/6/60 474/6/60 466/6/60
f 468/6/47 475/6/47 467/6/47
f 469/6/61 476/6/61 468/6/61
f 470/6/62 477/6/62 469/6/62
f 471/6/63 478/6/63 470/6/63
f 472/6/42 479/6/42 471/6/42
f 465/6/64 480/6/64 472/6/64
f 474/6/65 481/6/65 473/6/65
f 475/6/66 482/6/66 474/6/66
f 476/6/67 483/6/67 475/6/67
f 477/6/81 484/6/81 476/6/81
f 477/6/69 486/6/69 485/6/69
f 479/6/70 486/6/70 478/6/70
f 479/6/71 488/6/71 487/6/71
f 480/6/82 481/6/82 488/6/82
f 486/6/50 487/6/50 488/6/50
f 490/7/39 489/7/39 493/7/39
f 490/7/51 497/7/51 489/7/51
f 491/7/52 498/7/52 490/7/52
f 492/7/53 499/7/53 491/7/53
f 492/7/85 501/7/85 500/7/85
f 494/7/55 501/7/55 493/7/55
f 495/7/83 502/7/83 494/7/83
f 495/7/57 504/7/57 503/7/57
f 496/7/86 497/7/86 504/7/86
f 498/7/59 505/7/59 497/7/59
f 499/7/60 506/7/60 498/7/60
f 500/7/47 507/7/47 499/7/47
f 501/7/61 508/7/61 500/7/61
f 502/7/62 509/7/62 501/7/62
f 503/7/63 510/7/63 502/7/63
f 504/7/42 511/7/42 503/7/42
f 497/7/64 512/7/64 504/7/64
f 506/7/65 513/7/65 505/7/65
f 507/7/66 514/7/66 506/7/66
f 507/7/67 516/7/67 515/7/67
f 508/7/87 517/7/87 516/7/87
f 510/7/69 517/7/69 509/7/69
f 511/7/70 518/7/70 510/7/70
f 512/7/71 519/7/71 511/7/71
f 505/7/82 520/7/82 512/7/82
f 518/7/50 519/7/50 520/7/50
f 523/9/39 521/9/39 524/9/39
f 526/9/50 528/9/50 525/9/50
f 522/9/59 525/9/59 521/9/59
f 523/9/47 526/9/47 522/9/47
f 524/9/62 527/9/62 523/9/62
f 521/9/42 528/9/42 524/9/42
f 105/4/39 114/4/39 111/4/39
f 114/4/39 113/4/39 111/4/39
f 113/4/39 112/4/39 111/4/39
f 111/4/39 110/4/39 109/4/39
f 109/4/39 108/4/39 111/4/39
f 108/4/39 107/4/39 111/4/39
f 107/4/39 106/4/39 105/4/39
f 106/4/40 116/4/40 115/4/40
f 107/4/41 117/4/41 116/4/41
f 108/4/42 118/4/42 117/4/42
f 109/4/43 119/4/43 118/4/43
f 110/4/44 120/4/44 119/4/44
f 111/4/45 121/4/45 120/4/45
f 112/4/46 122/4/46 121/4/46
f 113/4/47 123/4/47 122/4/47
f 114/4/48 124/4/48 123/4/48
f 105/4/49 115/4/49 124/4/49
f 124/4/50 115/4/50 116/4/50
f 116/4/50 117/4/50 124/4/50
f 117/4/50 118/4/50 124/4/50
f 118/4/50 119/4/50 120/4/50
f 120/4/50 121/4/50 118/4/50
f 121/4/50 122/4/50 118/4/50
f 122/4/50 123/4/50 124/4/50
f 125/5/39 132/5/39 131/5/39
f 131/5/39 130/5/39 125/5/39
f 130/5/39 129/5/39 125/5/39
f 129/5/39 128/5/39 127/5/39
f 127/5/39 126/5/39 129/5/39
f 126/5/51 134/5/51 133/5/51
f 127/5/52 135/5/52 134/5/52
f 128/5/53 136/5/53 135/5/53
f 128/5/54 129/5/54 137/5/54
f 130/5/55 138/5/55 137/5/55
f 131/5/56 139/5/56 138/5/56
f 132/5/57 140/5/57 139/5/57
f 132/5/58 125/5/58 133/5/58
f 134/5/59 142/5/59 141/5/59
f 135/5/60 143/5/60 142/5/60
f 136/5/47 144/5/47 143/5/47
f 137/5/61 145/5/61 144/5/61
f 138/5/62 146/5/62 145/5/62
f 139/5/63 147/5/63 146/5/63
f 140/5/42 148/5/42 147/5/42
f 133/5/64 141/5/64 148/5/64
f 142/5/65 150/5/65 149/5/65
f 142/5/88 143/5/88 151/5/88
f 144/5/67 152/5/67 151/5/67
f 145/5/81 153/5/81 152/5/81
f 146/5/69 154/5/69 153/5/69
f 146/5/84 147/5/84 155/5/84
f 148/5/71 156/5/71 155/5/71
f 141/5/82 149/5/82 156/5/82
f 156/5/50 149/5/50 154/5/50
f 149/5/50 150/5/50 154/5/50
f 150/5/50 151/5/50 152/5/50
f 152/5/50 153/5/50 150/5/50
f 153/5/50 154/5/50 150/5/50
f 159/6/39 158/6/39 157/6/39
f 162/6/50 163/6/50 164/6/50
f 158/6/59 162/6/59 161/6/59
f 159/6/47 163/6/47 162/6/47
f 160/6/62 164/6/62 163/6/62
f 157/6/42 161/6/42 164/6/42
f 165/7/62 174/7/62 173/7/62
f 173/7/62 172/7/62 165/7/62
f 172/7/62 171/7/62 165/7/62
f 171/7/62 170/7/62 167/7/62
f 170/7/62 169/7/62 167/7/62
f 169/7/62 168/7/62 167/7/62
f 167/7/62 166/7/62 165/7/62
f 166/7/73 176/7/73 175/7/73
f 167/7/74 177/7/74 176/7/74
f 168/7/42 178/7/42 177/7/42
f 169/7/75 179/7/75 178/7/75
f 170/7/76 180/7/76 179/7/76
f 171/7/77 181/7/77 180/7/77
f 172/7/78 182/7/78 181/7/78
f 173/7/47 183/7/47 182/7/47
f 174/7/79 184/7/79 183/7/79
f 165/7/80 175/7/80 184/7/80
f 184/7/59 175/7/59 178/7/59
f 175/7/59 176/7/59 178/7/59
f 176/7/59 177/7/59 178/7/59
f 178/7/59 179/7/59 180/7/59
f 180/7/59 181/7/59 182/7/59
f 182/7/59 183/7/59 178/7/59
f 183/7/59 184/7/59 178/7/59
f 185/8/62 194/8/62 191/8/62
f 194/8/62 193/8/62 191/8/62
f 193/8/62 192/8/62 191/8/62
f 191/8/62 190/8/62 189/8/62
f 189/8/62 188/8/62 187/8/62
f 187/8/62 186/8/62 185/8/62
f 191/8/62 189/8/62 187/8/62
f 186/8/73 196/8/73 195/8/73
f 187/8/74 197/8/74 196/8/74
f 188/8/42 198/8/42 197/8/42
f 189/8/75 199/8/75 198/8/75
f 190/8/76 200/8/76 199/8/76
f 191/8/77 201/8/77 200/8/77
f 192/8/78 202/8/78 201/8/78
f 193/8/47 203/8/47 202/8/47
f 194/8/79 204/8/79 203/8/79
f 185/8/80 195/8/80 204/8/80
f 204/8/59 195/8/59 196/8/59
f 196/8/59 197/8/59 198/8/59
f 198/8/59 199/8/59 202/8/59
f 199/8/59 200/8/59 202/8/59
f 200/8/59 201/8/59 202/8/59
f 202/8/59 203/8/59 204/8/59
f 204/8/59 196/8/59 198/8/59
f 205/9/62 214/9/62 213/9/62
f 213/9/62 212/9/62 211/9/62
f 211/9/62 210/9/62 209/9/62
f 209/9/62 208/9/62 211/9/62
f 208/9/62 207/9/62 211/9/62
f 207/9/62 206/9/62 205/9/62
f 205/9/62 213/9/62 207/9/62
f 206/9/73 216/9/73 215/9/73
f 207/9/74 217/9/74 216/9/74
f 208/9/42 218/9/42 217/9/42
f 209/9/75 219/9/75 218/9/75
f 210/9/76 220/9/76 219/9/76
f 211/9/77 221/9/77 220/9/77
f 212/9/78 222/9/78 221/9/78
f 213/9/47 223/9/47 222/9/47
f 214/9/79 224/9/79 223/9/79
f 205/9/80 215/9/80 224/9/80
f 224/9/59 215/9/59 216/9/59
f 216/9/59 217/9/59 224/9/59
f 217/9/59 218/9/59 224/9/59
f 218/9/59 219/9/59 220/9/59
f 220/9/59 221/9/59 218/9/59
f 221/9/59 222/9/59 218/9/59
f 222/9/59 223/9/59 224/9/59
f 225/10/39 232/10/39 227/10/39
f 232/10/39 231/10/39 227/10/39
f 231/10/39 230/10/39 229/10/39
f 229/10/39 228/10/39 231/10/39
f 228/10/39 227/10/39 231/10/39
f 226/10/51 234/10/51 233/10/51
f 227/10/52 235/10/52 234/10/52
f 227/10/53 228/10/53 236/10/53
f 228/10/54 229/10/54 237/10/54
f 230/10/55 238/10/55 237/10/55
f 230/10/56 231/10/56 239/10/56
f 232/10/57 240/10/57 239/10/57
f 225/10/58 233/10/58 240/10/58
f 234/10/59 242/10/59 241/10/59
f 235/10/60 243/10/60 242/10/60
f 236/10/47 244/10/47 243/10/47
f 237/10/61 245/10/61 244/10/61
f 238/10/62 246/10/62 245/10/62
f 239/10/63 247/10/63 246/10/63
f 240/10/42 248/10/42 247/10/42
f 233/10/64 241/10/64 248/10/64
f 242/10/65 250/10/65 249/10/65
f 242/10/66 243/10/66 251/10/66
f 244/10/67 252/10/67 251/10/67
f 245/10/81 253/10/81 252/10/81
f 246/10/69 254/10/69 253/10/69
f 247/10/70 255/10/70 254/10/70
f 248/10/71 256/10/71 255/10/71
f 241/10/82 249/10/82 256/10/82
f 256/10/50 249/10/50 250/10/50
f 250/10/50 251/10/50 256/10/50
f 251/10/50 252/10/50 256/10/50
f 252/10/50 253/10/50 254/10/50
f 254/10/50 255/10/50 252/10/50
f 259/6/39 258/6/39 257/6/39
f 262/6/50 263/6/50 264/6/50
f 258/6/59 262/6/59 261/6/59
f 259/6/47 263/6/47 262/6/47
f 260/6/62 264/6/62 263/6/62
f 257/6/42 261/6/42 264/6/42
f 267/7/39 266/7/39 265/7/39
f 270/7/50 271/7/50 272/7/50
f 266/7/59 270/7/59 269/7/59
f 267/7/47 271/7/47 270/7/47
f 268/7/62 272/7/62 271/7/62
f 265/7/42 269/7/42 272/7/42
f 275/11/39 274/11/39 273/11/39
f 278/11/50 279/11/50 280/11/50
f 274/11/59 278/11/59 277/11/59
f 275/11/47 279/11/47 278/11/47
f 276/11/62 280/11/62 279/11/62
f 273/11/42 277/11/42 280/11/42
f 283/7/39 282/7/39 281/7/39
f 286/7/50 287/7/50 288/7/50
f 282/7/59 286/7/59 285/7/59
f 283/7/47 287/7/47 286/7/47
f 284/7/62 288/7/62 287/7/62
f 281/7/42 285/7/42 288/7/42
f 291/11/39 290/11/39 289/11/39
f 294/11/50 295/11/50 296/11/50
f 290/11/59 294/11/59 293/11/59
f 291/11/47 295/11/47 294/11/47
f 292/11/62 296/11/62 295/11/62
f 289/11/42 293/11/42 296/11/42
f 299/8/39 298/8/39 297/8/39
f 302/8/50 303/8/50 304/8/50
f 298/8/59 302/8/59 301/8/59
f 299/8/47 303/8/47 302/8/47
f 300/8/62 304/8/62 303/8/62
f 297/8/42 301/8/42 304/8/42
f 307/7/39 306/7/39 305/7/39
f 310/7/50 311/7/50 312/7/50
f 306/7/59 310/7/59 309/7/59
f 307/7/47 311/7/47 310/7/47
f 308/7/62 312/7/62 311/7/62
f 305/7/42 309/7/42 312/7/42
f 315/7/39 314/7/39 313/7/39
f 318/7/50 319/7/50 320/7/50
f 314/7/59 318/7/59 317/7/59
f 315/7/47 319/7/47 318/7/47
f 316/7/62 320/7/62 319/7/62
f 313/7/42 317/7/42 320/7/42
f 321/5/39 328/5/39 323/5/39
f 328/5/39 327/5/39 323/5/39
f 327/5/39 326/5/39 325/5/39
f 325/5/39 324/5/39 327/5/39
f 324/5/39 323/5/39 327/5/39
f 321/5/51 322/5/51 330/5/51
f 322/5/52 323/5/52 331/5/52
f 324/5/53 332/5/53 331/5/53
f 325/5/54 333/5/54 332/5/54
f 326/5/55 334/5/55 333/5/55
f 326/5/56 327/5/56 335/5/56
f 328/5/57 336/5/57 335/5/57
f 321/5/58 329/5/58 336/5/58
f 330/5/59 338/5/59 337/5/59
f 331/5/60 339/5/60 338/5/60
f 332/5/47 340/5/47 339/5/47
f 333/5/61 341/5/61 340/5/61
f 334/5/62 342/5/62 341/5/62
f 335/5/63 343/5/63 342/5/63
f 336/5/42 344/5/42 343/5/42
f 329/5/64 337/5/64 344/5/64
f 338/5/65 346/5/65 345/5/65
f 339/5/66 347/5/66 346/5/66
f 340/5/67 348/5/67 347/5/67
f 341/5/81 349/5/81 348/5/81
f 341/5/69 342/5/69 350/5/69
f 343/5/70 351/5/70 350/5/70
f 344/5/71 352/5/71 351/5/71
f 344/5/82 337/5/82 345/5/82
f 352/5/50 345/5/50 346/5/50
f 346/5/50 347/5/50 352/5/50
f 347/5/50 348/5/50 352/5/50
f 348/5/50 349/5/50 350/5/50
f 350/5/50 351/5/50 348/5/50
f 353/8/62 362/8/62 361/8/62
f 361/8/62 360/8/62 359/8/62
f 359/8/62 358/8/62 355/8/62
f 358/8/62 357/8/62 355/8/62
f 357/8/62 356/8/62 355/8/62
f 355/8/62 354/8/62 353/8/62
f 353/8/62 361/8/62 359/8/62
f 354/8/73 364/8/73 363/8/73
f 355/8/74 365/8/74 364/8/74
f 356/8/42 366/8/42 365/8/42
f 357/8/75 367/8/75 366/8/75
f 358/8/76 368/8/76 367/8/76
f 359/8/77 369/8/77 368/8/77
f 360/8/78 370/8/78 369/8/78
f 361/8/47 371/8/47 370/8/47
f 362/8/79 372/8/79 371/8/79
f 353/8/80 363/8/80 372/8/80
f 372/8/59 363/8/59 366/8/59
f 363/8/59 364/8/59 366/8/59
f 364/8/59 365/8/59 366/8/59
f 366/8/59 367/8/59 368/8/59
f 368/8/59 369/8/59 370/8/59
f 370/8/59 371/8/59 366/8/59
f 371/8/59 372/8/59 366/8/59
f 373/6/39 380/6/39 379/6/39
f 379/6/39 378/6/39 373/6/39
f 378/6/39 377/6/39 373/6/39
f 377/6/39 376/6/39 375/6/39
f 375/6/39 374/6/39 377/6/39
f 374/6/51 382/6/51 381/6/51
f 374/6/52 375/6/52 383/6/52
f 375/6/53 376/6/53 384/6/53
f 377/6/54 385/6/54 384/6/54
f 377/6/55 378/6/55 386/6/55
f 379/6/56 387/6/56 386/6/56
f 380/6/57 388/6/57 387/6/57
f 373/6/58 381/6/58 388/6/58
f 382/6/59 390/6/59 389/6/59
f 383/6/60 391/6/60 390/6/60
f 384/6/47 392/6/47 391/6/47
f 385/6/61 393/6/61 392/6/61
f 386/6/62 394/6/62 393/6/62
f 387/6/63 395/6/63 394/6/63
f 388/6/42 396/6/42 395/6/42
f 381/6/64 389/6/64 396/6/64
f 389/6/65 390/6/65 398/6/65
f 391/6/66 399/6/66 398/6/66
f 392/6/67 400/6/67 399/6/67
f 392/6/81 393/6/81 401/6/81
f 394/6/69 402/6/69 401/6/69
f 394/6/70 395/6/70 403/6/70
f 395/6/71 396/6/71 404/6/71
f 396/6/82 389/6/82 397/6/82
f 404/6/50 397/6/50 402/6/50
f 397/6/50 398/6/50 402/6/50
f 398/6/50 399/6/50 400/6/50
f 400/6/50 401/6/50 398/6/50
f 401/6/50 402/6/50 398/6/50
f 405/5/39 412/5/39 407/5/39
f 412/5/39 411/5/39 407/5/39
f 411/5/39 410/5/39 409/5/39
f 409/5/39 408/5/39 411/5/39
f 408/5/39 407/5/39 411/5/39
f 406/5/51 414/5/51 413/5/51
f 407/5/52 415/5/52 414/5/52
f 408/5/53 416/5/53 415/5/53
f 409/5/54 417/5/54 416/5/54
f 409/5/55 410/5/55 418/5/55
f 411/5/56 419/5/56 418/5/56
f 412/5/57 420/5/57 419/5/57
f 405/5/58 413/5/58 420/5/58
f 414/5/59 422/5/59 421/5/59
f 415/5/60 423/5/60 422/5/60
f 416/5/47 424/5/47 423/5/47
f 417/5/61 425/5/61 424/5/61
f 418/5/62 426/5/62 425/5/62
f 419/5/63 427/5/63 426/5/63
f 420/5/42 428/5/42 427/5/42
f 413/5/64 421/5/64 428/5/64
f 421/5/65 422/5/65 430/5/65
f 423/5/66 431/5/66 430/5/66
f 424/5/67 432/5/67 431/5/67
f 424/5/81 425/5/81 433/5/81
f 426/5/69 434/5/69 433/5/69
f 426/5/70 427/5/70 435/5/70
f 428/5/71 436/5/71 435/5/71
f 428/5/82 421/5/82 429/5/82
f 436/5/50 429/5/50 430/5/50
f 430/5/50 431/5/50 436/5/50
f 431/5/50 432/5/50 436/5/50
f 432/5/50 433/5/50 434/5/50
f 434/5/50 435/5/50 432/5/50
f 437/8/62 446/8/62 445/8/62
f 445/8/62 444/8/62 443/8/62
f 443/8/62 442/8/62 439/8/62
f 442/8/62 441/8/62 439/8/62
f 441/8/62 440/8/62 439/8/62
f 439/8/62 438/8/62 437/8/62
f 437/8/62 445/8/62 443/8/62
f 438/8/73 448/8/73 447/8/73
f 439/8/74 449/8/74 448/8/74
f 440/8/42 450/8/42 449/8/42
f 441/8/75 451/8/75 450/8/75
f 442/8/76 452/8/76 451/8/76
f 443/8/77 453/8/77 452/8/77
f 444/8/78 454/8/78 453/8/78
f 445/8/47 455/8/47 454/8/47
f 446/8/79 456/8/79 455/8/79
f 437/8/80 447/8/80 456/8/80
f 456/8/59 447/8/59 450/8/59
f 447/8/59 448/8/59 450/8/59
f 448/8/59 449/8/59 450/8/59
f 450/8/59 451/8/59 452/8/59
f 452/8/59 453/8/59 454/8/59
f 454/8/59 455/8/59 450/8/59
f 455/8/59 456/8/59 450/8/59
f 457/6/39 464/6/39 463/6/39
f 463/6/39 462/6/39 457/6/39
f 462/6/39 461/6/39 457/6/39
f 461/6/39 460/6/39 459/6/39
f 459/6/39 458/6/39 461/6/39
f 457/6/51 458/6/51 466/6/51
f 458/6/52 459/6/52 467/6/52
f 459/6/53 460/6/53 468/6/53
f 460/6/89 461/6/89 469/6/89
f 462/6/55 470/6/55 469/6/55
f 462/6/56 463/6/56 471/6/56
f 464/6/57 472/6/57 471/6/57
f 457/6/58 465/6/58 472/6/58
f 466/6/59 474/6/59 473/6/59
f 467/6/60 475/6/60 474/6/60
f 468/6/47 476/6/47 475/6/47
f 469/6/61 477/6/61 476/6/61
f 470/6/62 478/6/62 477/6/62
f 471/6/63 479/6/63 478/6/63
f 472/6/42 480/6/42 479/6/42
f 465/6/64 473/6/64 480/6/64
f 474/6/65 482/6/65 481/6/65
f 475/6/66 483/6/66 482/6/66
f 476/6/67 484/6/67 483/6/67
f 477/6/68 485/6/68 484/6/68
f 477/6/69 478/6/69 486/6/69
f 479/6/70 487/6/70 486/6/70
f 479/6/71 480/6/71 488/6/71
f 480/6/82 473/6/82 481/6/82
f 488/6/50 481/6/50 486/6/50
f 481/6/50 482/6/50 486/6/50
f 482/6/50 483/6/50 484/6/50
f 484/6/50 485/6/50 482/6/50
f 485/6/50 486/6/50 482/6/50
f 489/7/39 496/7/39 495/7/39
f 495/7/39 494/7/39 489/7/39
f 494/7/39 493/7/39 489/7/39
f 493/7/39 492/7/39 491/7/39
f 491/7/39 490/7/39 493/7/39
f 490/7/51 498/7/51 497/7/51
f 491/7/90 499/7/90 498/7/90
f 492/7/53 500/7/53 499/7/53
f 492/7/89 493/7/89 501/7/89
f 494/7/55 502/7/55 501/7/55
f 495/7/91 503/7/91 502/7/91
f 495/7/57 496/7/57 504/7/57
f 496/7/58 489/7/58 497/7/58
f 498/7/59 506/7/59 505/7/59
f 499/7/60 507/7/60 506/7/60
f 500/7/47 508/7/47 507/7/47
f 501/7/61 509/7/61 508/7/61
f 502/7/62 510/7/62 509/7/62
f 503/7/63 511/7/63 510/7/63
f 504/7/42 512/7/42 511/7/42
f 497/7/64 505/7/64 512/7/64
f 506/7/65 514/7/65 513/7/65
f 507/7/92 515/7/92 514/7/92
f 507/7/67 508/7/67 516/7/67
f 508/7/81 509/7/81 517/7/81
f 510/7/69 518/7/69 517/7/69
f 511/7/93 519/7/93 518/7/93
f 512/7/71 520/7/71 519/7/71
f 505/7/94 513/7/94 520/7/94
f 520/7/50 513/7/50 518/7/50
f 513/7/50 514/7/50 518/7/50
f 514/7/50 515/7/50 516/7/50
f 516/7/50 517/7/50 514/7/50
f 517/7/50 518/7/50 514/7/50
f 523/9/39 522/9/39 521/9/39
f 526/9/50 527/9/50 528/9/50
f 522/9/59 526/9/59 525/9/59
f 523/9/47 527/9/47 526/9/47
f 524/9/62 528/9/62 527/9/62
f 521/9/42 525/9/42 528/9/42
