# Blender 5.2.1 LTS
# www.blender.org
mtllib anti_air_station.mtl
o BASE.007
v -0.390000 0.000000 0.365000
v 0.390000 0.000000 0.365000
v 0.390000 0.000000 -0.365000
v -0.390000 0.000000 -0.365000
v -0.390000 0.120000 0.365000
v 0.390000 0.120000 0.365000
v 0.390000 0.120000 -0.365000
v -0.390000 0.120000 -0.365000
v -0.300000 0.121000 -0.302000
v -0.327713 0.121000 -0.286000
v -0.327713 0.121000 -0.254000
v -0.300000 0.121000 -0.238000
v -0.272287 0.121000 -0.254000
v -0.272287 0.121000 -0.286000
v -0.300000 0.141000 -0.302000
v -0.327713 0.141000 -0.286000
v -0.327713 0.141000 -0.254000
v -0.300000 0.141000 -0.238000
v -0.272287 0.141000 -0.254000
v -0.272287 0.141000 -0.286000
v -0.300000 0.121000 0.238000
v -0.327713 0.121000 0.254000
v -0.327713 0.121000 0.286000
v -0.300000 0.121000 0.302000
v -0.272287 0.121000 0.286000
v -0.272287 0.121000 0.254000
v -0.300000 0.141000 0.238000
v -0.327713 0.141000 0.254000
v -0.327713 0.141000 0.286000
v -0.300000 0.141000 0.302000
v -0.272287 0.141000 0.286000
v -0.272287 0.141000 0.254000
v 0.300000 0.121000 -0.302000
v 0.272287 0.121000 -0.286000
v 0.272287 0.121000 -0.254000
v 0.300000 0.121000 -0.238000
v 0.327713 0.121000 -0.254000
v 0.327713 0.121000 -0.286000
v 0.300000 0.141000 -0.302000
v 0.272287 0.141000 -0.286000
v 0.272287 0.141000 -0.254000
v 0.300000 0.141000 -0.238000
v 0.327713 0.141000 -0.254000
v 0.327713 0.141000 -0.286000
v 0.300000 0.121000 0.238000
v 0.272287 0.121000 0.254000
v 0.272287 0.121000 0.286000
v 0.300000 0.121000 0.302000
v 0.327713 0.121000 0.286000
v 0.327713 0.121000 0.254000
v 0.300000 0.141000 0.238000
v 0.272287 0.141000 0.254000
v 0.272287 0.141000 0.286000
v 0.300000 0.141000 0.302000
v 0.327713 0.141000 0.286000
v 0.327713 0.141000 0.254000
v 0.000000 0.110000 -0.360000
v -0.180000 0.110000 -0.311769
v -0.311769 0.110000 -0.180000
v -0.360000 0.110000 -0.000000
v -0.311769 0.110000 0.180000
v -0.180000 0.110000 0.311769
v -0.000000 0.110000 0.360000
v 0.180000 0.110000 0.311769
v 0.311769 0.110000 0.180000
v 0.360000 0.110000 0.000000
v 0.311769 0.110000 -0.180000
v 0.180000 0.110000 -0.311769
v 0.000000 0.210000 -0.360000
v -0.180000 0.210000 -0.311769
v -0.311769 0.210000 -0.180000
v -0.360000 0.210000 -0.000000
v -0.311769 0.210000 0.180000
v -0.180000 0.210000 0.311769
v -0.000000 0.210000 0.360000
v 0.180000 0.210000 0.311769
v 0.311769 0.210000 0.180000
v 0.360000 0.210000 0.000000
v 0.311769 0.210000 -0.180000
v 0.180000 0.210000 -0.311769
vn -0.0000 -1.0000 -0.0000
vn -0.0000 1.0000 -0.0000
vn -0.0000 -0.0000 1.0000
vn 1.0000 -0.0000 -0.0000
vn -0.0000 -0.0000 -1.0000
vn -1.0000 -0.0000 -0.0000
vn -0.5000 -0.0000 -0.8660
vn -0.5000 -0.0000 0.8660
vn 0.5000 -0.0000 0.8660
vn 0.5000 -0.0000 -0.8660
vn -0.2588 -0.0000 -0.9659
vn -0.7071 -0.0000 -0.7071
vn -0.9659 -0.0000 -0.2588
vn -0.9659 -0.0000 0.2588
vn -0.7071 -0.0000 0.7071
vn -0.2588 -0.0000 0.9659
vn 0.2588 -0.0000 0.9659
vn 0.7071 -0.0000 0.7071
vn 0.9659 -0.0000 0.2588
vn 0.9659 -0.0000 -0.2588
vn 0.7071 -0.0000 -0.7071
vn 0.2588 -0.0000 -0.9659
vt 0.625000 0.125000
vt 0.375000 0.875000
vt 0.125000 0.625000
s 0
usemtl Military_Equipment_Palette
f 3/1/1 1/1/1 4/1/1
f 6/1/2 8/1/2 5/1/2
f 2/1/3 5/1/3 1/1/3
f 3/1/4 6/1/4 2/1/4
f 4/1/5 7/1/5 3/1/5
f 1/1/6 8/1/6 4/1/6
f 13/2/1 11/2/1 9/2/1
f 10/2/7 15/2/7 9/2/7
f 11/2/6 16/2/6 10/2/6
f 12/2/8 17/2/8 11/2/8
f 13/2/9 18/2/9 12/2/9
f 14/2/4 19/2/4 13/2/4
f 9/2/10 20/2/10 14/2/10
f 16/2/2 18/2/2 20/2/2
f 25/2/1 23/2/1 21/2/1
f 22/2/7 27/2/7 21/2/7
f 23/2/6 28/2/6 22/2/6
f 24/2/8 29/2/8 23/2/8
f 25/2/9 30/2/9 24/2/9
f 26/2/4 31/2/4 25/2/4
f 21/2/10 32/2/10 26/2/10
f 28/2/2 30/2/2 32/2/2
f 37/2/1 35/2/1 33/2/1
f 34/2/7 39/2/7 33/2/7
f 35/2/6 40/2/6 34/2/6
f 36/2/8 41/2/8 35/2/8
f 37/2/9 42/2/9 36/2/9
f 38/2/4 43/2/4 37/2/4
f 33/2/10 44/2/10 38/2/10
f 40/2/2 42/2/2 44/2/2
f 49/2/1 47/2/1 45/2/1
f 46/2/7 51/2/7 45/2/7
f 47/2/6 52/2/6 46/2/6
f 48/2/8 53/2/8 47/2/8
f 49/2/9 54/2/9 48/2/9
f 50/2/4 55/2/4 49/2/4
f 45/2/10 56/2/10 50/2/10
f 52/2/2 54/2/2 56/2/2
f 65/3/1 61/3/1 57/3/1
f 58/3/11 69/3/11 57/3/11
f 59/3/12 70/3/12 58/3/12
f 60/3/13 71/3/13 59/3/13
f 61/3/14 72/3/14 60/3/14
f 62/3/15 73/3/15 61/3/15
f 63/3/16 74/3/16 62/3/16
f 64/3/17 75/3/17 63/3/17
f 65/3/18 76/3/18 64/3/18
f 66/3/19 77/3/19 65/3/19
f 67/3/20 78/3/20 66/3/20
f 68/3/21 79/3/21 67/3/21
f 57/3/22 80/3/22 68/3/22
f 72/3/2 76/3/2 80/3/2
f 3/1/1 2/1/1 1/1/1
f 6/1/2 7/1/2 8/1/2
f 2/1/3 6/1/3 5/1/3
f 3/1/4 7/1/4 6/1/4
f 4/1/5 8/1/5 7/1/5
f 1/1/6 5/1/6 8/1/6
f 9/2/1 14/2/1 13/2/1
f 13/2/1 12/2/1 11/2/1
f 11/2/1 10/2/1 9/2/1
f 10/2/7 16/2/7 15/2/7
f 11/2/6 17/2/6 16/2/6
f 12/2/8 18/2/8 17/2/8
f 13/2/9 19/2/9 18/2/9
f 14/2/4 20/2/4 19/2/4
f 9/2/10 15/2/10 20/2/10
f 20/2/2 15/2/2 16/2/2
f 16/2/2 17/2/2 18/2/2
f 18/2/2 19/2/2 20/2/2
f 21/2/1 26/2/1 25/2/1
f 25/2/1 24/2/1 23/2/1
f 23/2/1 22/2/1 21/2/1
f 22/2/7 28/2/7 27/2/7
f 23/2/6 29/2/6 28/2/6
f 24/2/8 30/2/8 29/2/8
f 25/2/9 31/2/9 30/2/9
f 26/2/4 32/2/4 31/2/4
f 21/2/10 27/2/10 32/2/10
f 32/2/2 27/2/2 28/2/2
f 28/2/2 29/2/2 30/2/2
f 30/2/2 31/2/2 32/2/2
f 33/2/1 38/2/1 37/2/1
f 37/2/1 36/2/1 35/2/1
f 35/2/1 34/2/1 33/2/1
f 34/2/7 40/2/7 39/2/7
f 35/2/6 41/2/6 40/2/6
f 36/2/8 42/2/8 41/2/8
f 37/2/9 43/2/9 42/2/9
f 38/2/4 44/2/4 43/2/4
f 33/2/10 39/2/10 44/2/10
f 44/2/2 39/2/2 40/2/2
f 40/2/2 41/2/2 42/2/2
f 42/2/2 43/2/2 44/2/2
f 45/2/1 50/2/1 49/2/1
f 49/2/1 48/2/1 47/2/1
f 47/2/1 46/2/1 45/2/1
f 46/2/7 52/2/7 51/2/7
f 47/2/6 53/2/6 52/2/6
f 48/2/8 54/2/8 53/2/8
f 49/2/9 55/2/9 54/2/9
f 50/2/4 56/2/4 55/2/4
f 45/2/10 51/2/10 56/2/10
f 56/2/2 51/2/2 52/2/2
f 52/2/2 53/2/2 54/2/2
f 54/2/2 55/2/2 56/2/2
f 57/3/1 68/3/1 67/3/1
f 67/3/1 66/3/1 65/3/1
f 65/3/1 64/3/1 63/3/1
f 63/3/1 62/3/1 61/3/1
f 61/3/1 60/3/1 59/3/1
f 59/3/1 58/3/1 57/3/1
f 57/3/1 67/3/1 65/3/1
f 65/3/1 63/3/1 61/3/1
f 61/3/1 59/3/1 57/3/1
f 58/3/11 70/3/11 69/3/11
f 59/3/12 71/3/12 70/3/12
f 60/3/13 72/3/13 71/3/13
f 61/3/14 73/3/14 72/3/14
f 62/3/15 74/3/15 73/3/15
f 63/3/16 75/3/16 74/3/16
f 64/3/17 76/3/17 75/3/17
f 65/3/18 77/3/18 76/3/18
f 66/3/19 78/3/19 77/3/19
f 67/3/20 79/3/20 78/3/20
f 68/3/21 80/3/21 79/3/21
f 57/3/22 69/3/22 80/3/22
f 80/3/2 69/3/2 70/3/2
f 70/3/2 71/3/2 72/3/2
f 72/3/2 73/3/2 74/3/2
f 74/3/2 75/3/2 76/3/2
f 76/3/2 77/3/2 78/3/2
f 78/3/2 79/3/2 80/3/2
f 80/3/2 70/3/2 72/3/2
f 72/3/2 74/3/2 76/3/2
f 76/3/2 78/3/2 80/3/2
o MOVING.002
v 0.000000 0.130000 -0.290000
v -0.170458 0.130000 -0.234615
v -0.275806 0.130000 -0.089615
v -0.275806 0.130000 0.089615
v -0.170458 0.130000 0.234615
v -0.000000 0.130000 0.290000
v 0.170458 0.130000 0.234615
v 0.275806 0.130000 0.089615
v 0.275806 0.130000 -0.089615
v 0.170458 0.130000 -0.234615
v 0.000000 0.470000 -0.290000
v -0.170458 0.470000 -0.234615
v -0.275806 0.470000 -0.089615
v -0.275806 0.470000 0.089615
v -0.170458 0.470000 0.234615
v -0.000000 0.470000 0.290000
v 0.170458 0.470000 0.234615
v 0.275806 0.470000 0.089615
v 0.275806 0.470000 -0.089615
v 0.170458 0.470000 -0.234615
v -0.305000 0.320000 0.285000
v 0.305000 0.320000 0.285000
v 0.305000 0.320000 -0.285000
v -0.305000 0.320000 -0.285000
v -0.305000 0.720000 0.285000
v 0.305000 0.720000 0.285000
v 0.305000 0.720000 -0.285000
v -0.305000 0.720000 -0.285000
v -0.230000 0.715000 0.150000
v 0.230000 0.715000 0.150000
v 0.230000 0.715000 -0.270000
v -0.230000 0.715000 -0.270000
v -0.230000 0.775000 0.150000
v 0.230000 0.775000 0.150000
v 0.230000 0.775000 -0.270000
v -0.230000 0.775000 -0.270000
v -0.130000 0.652000 0.360000
v -0.172321 0.638249 0.360000
v -0.198476 0.602249 0.360000
v -0.198476 0.557751 0.360000
v -0.172321 0.521751 0.360000
v -0.130000 0.508000 0.360000
v -0.087679 0.521751 0.360000
v -0.061524 0.557751 0.360000
v -0.061524 0.602249 0.360000
v -0.087679 0.638249 0.360000
v -0.130000 0.652000 1.490000
v -0.172321 0.638249 1.490000
v -0.198476 0.602249 1.490000
v -0.198476 0.557751 1.490000
v -0.172321 0.521751 1.490000
v -0.130000 0.508000 1.490000
v -0.087679 0.521751 1.490000
v -0.061524 0.557751 1.490000
v -0.061524 0.602249 1.490000
v -0.087679 0.638249 1.490000
v -0.130000 0.677200 1.455000
v -0.187133 0.658636 1.455000
v -0.222443 0.610036 1.455000
v -0.222443 0.549964 1.455000
v -0.187133 0.501364 1.455000
v -0.130000 0.482800 1.455000
v -0.072867 0.501364 1.455000
v -0.037557 0.549964 1.455000
v -0.037557 0.610036 1.455000
v -0.072867 0.658636 1.455000
v -0.130000 0.677200 1.545000
v -0.187133 0.658636 1.545000
v -0.222443 0.610036 1.545000
v -0.222443 0.549964 1.545000
v -0.187133 0.501364 1.545000
v -0.130000 0.482800 1.545000
v -0.072867 0.501364 1.545000
v -0.037557 0.549964 1.545000
v -0.037557 0.610036 1.545000
v -0.072867 0.658636 1.545000
v -0.130000 0.634000 1.548000
v -0.161740 0.623687 1.548000
v -0.181357 0.596687 1.548000
v -0.181357 0.563313 1.548000
v -0.161740 0.536313 1.548000
v -0.130000 0.526000 1.548000
v -0.098260 0.536313 1.548000
v -0.078643 0.563313 1.548000
v -0.078643 0.596687 1.548000
v -0.098260 0.623687 1.548000
v -0.130000 0.634000 1.562000
v -0.161740 0.623687 1.562000
v -0.181357 0.596687 1.562000
v -0.181357 0.563313 1.562000
v -0.161740 0.536313 1.562000
v -0.130000 0.526000 1.562000
v -0.098260 0.536313 1.562000
v -0.078643 0.563313 1.562000
v -0.078643 0.596687 1.562000
v -0.098260 0.623687 1.562000
v 0.130000 0.652000 0.360000
v 0.087679 0.638249 0.360000
v 0.061524 0.602249 0.360000
v 0.061524 0.557751 0.360000
v 0.087679 0.521751 0.360000
v 0.130000 0.508000 0.360000
v 0.172321 0.521751 0.360000
v 0.198476 0.557751 0.360000
v 0.198476 0.602249 0.360000
v 0.172321 0.638249 0.360000
v 0.130000 0.652000 1.490000
v 0.087679 0.638249 1.490000
v 0.061524 0.602249 1.490000
v 0.061524 0.557751 1.490000
v 0.087679 0.521751 1.490000
v 0.130000 0.508000 1.490000
v 0.172321 0.521751 1.490000
v 0.198476 0.557751 1.490000
v 0.198476 0.602249 1.490000
v 0.172321 0.638249 1.490000
v 0.130000 0.677200 1.455000
v 0.072867 0.658636 1.455000
v 0.037557 0.610036 1.455000
v 0.037557 0.549964 1.455000
v 0.072867 0.501364 1.455000
v 0.130000 0.482800 1.455000
v 0.187133 0.501364 1.455000
v 0.222443 0.549964 1.455000
v 0.222443 0.610036 1.455000
v 0.187133 0.658636 1.455000
v 0.130000 0.677200 1.545000
v 0.072867 0.658636 1.545000
v 0.037557 0.610036 1.545000
v 0.037557 0.549964 1.545000
v 0.072867 0.501364 1.545000
v 0.130000 0.482800 1.545000
v 0.187133 0.501364 1.545000
v 0.222443 0.549964 1.545000
v 0.222443 0.610036 1.545000
v 0.187133 0.658636 1.545000
v 0.130000 0.634000 1.548000
v 0.098260 0.623687 1.548000
v 0.078643 0.596687 1.548000
v 0.078643 0.563313 1.548000
v 0.098260 0.536313 1.548000
v 0.130000 0.526000 1.548000
v 0.161740 0.536313 1.548000
v 0.181357 0.563313 1.548000
v 0.181357 0.596687 1.548000
v 0.161740 0.623687 1.548000
v 0.130000 0.634000 1.562000
v 0.098260 0.623687 1.562000
v 0.078643 0.596687 1.562000
v 0.078643 0.563313 1.562000
v 0.098260 0.536313 1.562000
v 0.130000 0.526000 1.562000
v 0.161740 0.536313 1.562000
v 0.181357 0.563313 1.562000
v 0.181357 0.596687 1.562000
v 0.161740 0.623687 1.562000
v -0.515000 0.255000 0.130000
v -0.285000 0.255000 0.130000
v -0.285000 0.255000 -0.290000
v -0.515000 0.255000 -0.290000
v -0.515000 0.585000 0.130000
v -0.285000 0.585000 0.130000
v -0.285000 0.585000 -0.290000
v -0.515000 0.585000 -0.290000
v -0.532500 0.585000 0.147500
v -0.267500 0.585000 0.147500
v -0.267500 0.585000 -0.307500
v -0.532500 0.585000 -0.307500
v -0.532500 0.635000 0.147500
v -0.267500 0.635000 0.147500
v -0.267500 0.635000 -0.307500
v -0.532500 0.635000 -0.307500
v -0.486500 0.220000 0.155000
v -0.451500 0.220000 0.155000
v -0.451500 0.220000 -0.315000
v -0.486500 0.220000 -0.315000
v -0.486500 0.620000 0.155000
v -0.451500 0.620000 0.155000
v -0.451500 0.620000 -0.315000
v -0.486500 0.620000 -0.315000
v -0.495600 0.440900 0.167500
v -0.405600 0.440900 0.167500
v -0.405600 0.440900 0.132500
v -0.495600 0.440900 0.132500
v -0.495600 0.550900 0.167500
v -0.405600 0.550900 0.167500
v -0.405600 0.550900 0.132500
v -0.495600 0.550900 0.132500
v -0.348500 0.220000 0.155000
v -0.313500 0.220000 0.155000
v -0.313500 0.220000 -0.315000
v -0.348500 0.220000 -0.315000
v -0.348500 0.620000 0.155000
v -0.313500 0.620000 0.155000
v -0.313500 0.620000 -0.315000
v -0.348500 0.620000 -0.315000
v -0.394400 0.440900 0.167500
v -0.304400 0.440900 0.167500
v -0.304400 0.440900 0.132500
v -0.394400 0.440900 0.132500
v -0.394400 0.550900 0.167500
v -0.304400 0.550900 0.167500
v -0.304400 0.550900 0.132500
v -0.394400 0.550900 0.132500
v -0.500000 0.434600 0.192500
v -0.300000 0.434600 0.192500
v -0.300000 0.434600 0.147500
v -0.500000 0.434600 0.147500
v -0.500000 0.484600 0.192500
v -0.300000 0.484600 0.192500
v -0.300000 0.484600 0.147500
v -0.500000 0.484600 0.147500
v -0.222500 0.685000 0.127500
v -0.197500 0.685000 0.127500
v -0.197500 0.685000 0.072500
v -0.222500 0.685000 0.072500
v -0.222500 0.815000 0.127500
v -0.197500 0.815000 0.127500
v -0.197500 0.815000 0.072500
v -0.222500 0.815000 0.072500
v 0.197500 0.685000 0.127500
v 0.222500 0.685000 0.127500
v 0.222500 0.685000 0.072500
v 0.197500 0.685000 0.072500
v 0.197500 0.815000 0.127500
v 0.222500 0.815000 0.127500
v 0.222500 0.815000 0.072500
v 0.197500 0.815000 0.072500
vn -0.0000 -1.0000 -0.0000
vn -0.3090 -0.0000 -0.9511
vn -0.8090 -0.0000 -0.5878
vn -1.0000 -0.0000 -0.0000
vn -0.8090 -0.0000 0.5878
vn -0.3090 -0.0000 0.9511
vn 0.3090 -0.0000 0.9511
vn 0.8090 -0.0000 0.5878
vn 1.0000 -0.0000 -0.0000
vn 0.8090 -0.0000 -0.5878
vn 0.3090 -0.0000 -0.9511
vn -0.0000 1.0000 -0.0000
vn -0.0000 -0.0000 1.0000
vn -0.0000 -0.0000 -1.0000
vn -0.3090 0.9511 -0.0000
vn -0.8090 0.5878 -0.0000
vn -0.8090 -0.5878 -0.0000
vn -0.3090 -0.9511 -0.0000
vn 0.3090 -0.9511 -0.0000
vn 0.8090 -0.5878 -0.0000
vn 0.8090 0.5878 -0.0000
vn 0.3090 0.9511 -0.0000
vt 0.625000 0.125000
vt 0.125000 0.125000
vt 0.375000 0.125000
vt 0.875000 0.125000
vt 0.125000 0.625000
vt 0.625000 0.875000
vt 0.125000 0.875000
vt 0.375000 0.875000
s 0
usemtl Military_Equipment_Palette
f 87/4/23 83/4/23 81/4/23
f 82/4/24 91/4/24 81/4/24
f 83/4/25 92/4/25 82/4/25
f 84/4/26 93/4/26 83/4/26
f 85/4/27 94/4/27 84/4/27
f 86/4/28 95/4/28 85/4/28
f 87/4/29 96/4/29 86/4/29
f 88/4/30 97/4/30 87/4/30
f 89/4/31 98/4/31 88/4/31
f 90/4/32 99/4/32 89/4/32
f 81/4/33 100/4/33 90/4/33
f 94/4/34 98/4/34 100/4/34
f 103/5/23 101/5/23 104/5/23
f 106/5/34 108/5/34 105/5/34
f 102/5/35 105/5/35 101/5/35
f 103/5/31 106/5/31 102/5/31
f 104/5/36 107/5/36 103/5/36
f 101/5/26 108/5/26 104/5/26
f 111/6/23 109/6/23 112/6/23
f 114/6/34 116/6/34 113/6/34
f 110/6/35 113/6/35 109/6/35
f 111/6/31 114/6/31 110/6/31
f 112/6/36 115/6/36 111/6/36
f 109/6/26 116/6/26 112/6/26
f 123/7/36 119/7/36 117/7/36
f 118/7/37 127/7/37 117/7/37
f 119/7/38 128/7/38 118/7/38
f 120/7/26 129/7/26 119/7/26
f 121/7/39 130/7/39 120/7/39
f 122/7/40 131/7/40 121/7/40
f 123/7/41 132/7/41 122/7/41
f 124/7/42 133/7/42 123/7/42
f 125/7/31 134/7/31 124/7/31
f 126/7/43 135/7/43 125/7/43
f 117/7/44 136/7/44 126/7/44
f 132/7/35 134/7/35 136/7/35
f 143/8/36 139/8/36 137/8/36
f 138/8/37 147/8/37 137/8/37
f 139/8/38 148/8/38 138/8/38
f 140/8/26 149/8/26 139/8/26
f 141/8/39 150/8/39 140/8/39
f 142/8/40 151/8/40 141/8/40
f 143/8/41 152/8/41 142/8/41
f 144/8/42 153/8/42 143/8/42
f 145/8/31 154/8/31 144/8/31
f 146/8/43 155/8/43 145/8/43
f 137/8/44 156/8/44 146/8/44
f 150/8/35 154/8/35 156/8/35
f 163/9/36 161/9/36 159/9/36
f 158/9/37 167/9/37 157/9/37
f 159/9/38 168/9/38 158/9/38
f 160/9/26 169/9/26 159/9/26
f 161/9/39 170/9/39 160/9/39
f 162/9/40 171/9/40 161/9/40
f 163/9/41 172/9/41 162/9/41
f 164/9/42 173/9/42 163/9/42
f 165/9/31 174/9/31 164/9/31
f 166/9/43 175/9/43 165/9/43
f 157/9/44 176/9/44 166/9/44
f 168/9/35 170/9/35 174/9/35
f 183/7/36 179/7/36 177/7/36
f 178/7/37 187/7/37 177/7/37
f 179/7/38 188/7/38 178/7/38
f 180/7/26 189/7/26 179/7/26
f 181/7/39 190/7/39 180/7/39
f 182/7/40 191/7/40 181/7/40
f 183/7/41 192/7/41 182/7/41
f 184/7/42 193/7/42 183/7/42
f 185/7/31 194/7/31 184/7/31
f 186/7/43 195/7/43 185/7/43
f 177/7/44 196/7/44 186/7/44
f 192/7/35 194/7/35 196/7/35
f 203/8/36 199/8/36 197/8/36
f 198/8/37 207/8/37 197/8/37
f 199/8/38 208/8/38 198/8/38
f 200/8/26 209/8/26 199/8/26
f 201/8/39 210/8/39 200/8/39
f 202/8/40 211/8/40 201/8/40
f 203/8/41 212/8/41 202/8/41
f 204/8/42 213/8/42 203/8/42
f 205/8/31 214/8/31 204/8/31
f 206/8/43 215/8/43 205/8/43
f 197/8/44 216/8/44 206/8/44
f 210/8/35 214/8/35 216/8/35
f 225/9/36 223/9/36 219/9/36
f 218/9/37 227/9/37 217/9/37
f 219/9/38 228/9/38 218/9/38
f 220/9/26 229/9/26 219/9/26
f 221/9/39 230/9/39 220/9/39
f 222/9/40 231/9/40 221/9/40
f 223/9/41 232/9/41 222/9/41
f 224/9/42 233/9/42 223/9/42
f 225/9/31 234/9/31 224/9/31
f 226/9/43 235/9/43 225/9/43
f 217/9/44 236/9/44 226/9/44
f 230/9/35 234/9/35 236/9/35
f 239/10/23 237/10/23 240/10/23
f 242/10/34 244/10/34 241/10/34
f 238/10/35 241/10/35 237/10/35
f 239/10/31 242/10/31 238/10/31
f 240/10/36 243/10/36 239/10/36
f 237/10/26 244/10/26 240/10/26
f 247/6/23 245/6/23 248/6/23
f 250/6/34 252/6/34 249/6/34
f 246/6/35 249/6/35 245/6/35
f 247/6/31 250/6/31 246/6/31
f 248/6/36 251/6/36 247/6/36
f 245/6/26 252/6/26 248/6/26
f 255/7/23 253/7/23 256/7/23
f 258/7/34 260/7/34 257/7/34
f 254/7/35 257/7/35 253/7/35
f 255/7/31 258/7/31 254/7/31
f 256/7/36 259/7/36 255/7/36
f 253/7/26 260/7/26 256/7/26
f 263/11/23 261/11/23 264/11/23
f 266/11/34 268/11/34 265/11/34
f 262/11/35 265/11/35 261/11/35
f 263/11/31 266/11/31 262/11/31
f 264/11/36 267/11/36 263/11/36
f 261/11/26 268/11/26 264/11/26
f 271/7/23 269/7/23 272/7/23
f 274/7/34 276/7/34 273/7/34
f 270/7/35 273/7/35 269/7/35
f 271/7/31 274/7/31 270/7/31
f 272/7/36 275/7/36 271/7/36
f 269/7/26 276/7/26 272/7/26
f 279/11/23 277/11/23 280/11/23
f 282/11/34 284/11/34 281/11/34
f 278/11/35 281/11/35 277/11/35
f 279/11/31 282/11/31 278/11/31
f 280/11/36 283/11/36 279/11/36
f 277/11/26 284/11/26 280/11/26
f 287/8/23 285/8/23 288/8/23
f 290/8/34 292/8/34 289/8/34
f 286/8/35 289/8/35 285/8/35
f 287/8/31 290/8/31 286/8/31
f 288/8/36 291/8/36 287/8/36
f 285/8/26 292/8/26 288/8/26
f 295/7/23 293/7/23 296/7/23
f 298/7/34 300/7/34 297/7/34
f 294/7/35 297/7/35 293/7/35
f 295/7/31 298/7/31 294/7/31
f 296/7/36 299/7/36 295/7/36
f 293/7/26 300/7/26 296/7/26
f 303/7/23 301/7/23 304/7/23
f 306/7/34 308/7/34 305/7/34
f 302/7/35 305/7/35 301/7/35
f 303/7/31 306/7/31 302/7/31
f 304/7/36 307/7/36 303/7/36
f 301/7/26 308/7/26 304/7/26
f 81/4/23 90/4/23 87/4/23
f 90/4/23 89/4/23 87/4/23
f 89/4/23 88/4/23 87/4/23
f 87/4/23 86/4/23 85/4/23
f 85/4/23 84/4/23 87/4/23
f 84/4/23 83/4/23 87/4/23
f 83/4/23 82/4/23 81/4/23
f 82/4/24 92/4/24 91/4/24
f 83/4/25 93/4/25 92/4/25
f 84/4/26 94/4/26 93/4/26
f 85/4/27 95/4/27 94/4/27
f 86/4/28 96/4/28 95/4/28
f 87/4/29 97/4/29 96/4/29
f 88/4/30 98/4/30 97/4/30
f 89/4/31 99/4/31 98/4/31
f 90/4/32 100/4/32 99/4/32
f 81/4/33 91/4/33 100/4/33
f 100/4/34 91/4/34 92/4/34
f 92/4/34 93/4/34 100/4/34
f 93/4/34 94/4/34 100/4/34
f 94/4/34 95/4/34 96/4/34
f 96/4/34 97/4/34 94/4/34
f 97/4/34 98/4/34 94/4/34
f 98/4/34 99/4/34 100/4/34
f 103/5/23 102/5/23 101/5/23
f 106/5/34 107/5/34 108/5/34
f 102/5/35 106/5/35 105/5/35
f 103/5/31 107/5/31 106/5/31
f 104/5/36 108/5/36 107/5/36
f 101/5/26 105/5/26 108/5/26
f 111/6/23 110/6/23 109/6/23
f 114/6/34 115/6/34 116/6/34
f 110/6/35 114/6/35 113/6/35
f 111/6/31 115/6/31 114/6/31
f 112/6/36 116/6/36 115/6/36
f 109/6/26 113/6/26 116/6/26
f 117/7/36 126/7/36 125/7/36
f 125/7/36 124/7/36 123/7/36
f 123/7/36 122/7/36 119/7/36
f 122/7/36 121/7/36 119/7/36
f 121/7/36 120/7/36 119/7/36
f 119/7/36 118/7/36 117/7/36
f 117/7/36 125/7/36 123/7/36
f 118/7/37 128/7/37 127/7/37
f 119/7/38 129/7/38 128/7/38
f 120/7/26 130/7/26 129/7/26
f 121/7/39 131/7/39 130/7/39
f 122/7/40 132/7/40 131/7/40
f 123/7/41 133/7/41 132/7/41
f 124/7/42 134/7/42 133/7/42
f 125/7/31 135/7/31 134/7/31
f 126/7/43 136/7/43 135/7/43
f 117/7/44 127/7/44 136/7/44
f 136/7/35 127/7/35 130/7/35
f 127/7/35 128/7/35 130/7/35
f 128/7/35 129/7/35 130/7/35
f 130/7/35 131/7/35 132/7/35
f 132/7/35 133/7/35 134/7/35
f 134/7/35 135/7/35 136/7/35
f 130/7/35 132/7/35 136/7/35
f 137/8/36 146/8/36 145/8/36
f 145/8/36 144/8/36 137/8/36
f 144/8/36 143/8/36 137/8/36
f 143/8/36 142/8/36 139/8/36
f 142/8/36 141/8/36 139/8/36
f 141/8/36 140/8/36 139/8/36
f 139/8/36 138/8/36 137/8/36
f 138/8/37 148/8/37 147/8/37
f 139/8/38 149/8/38 148/8/38
f 140/8/26 150/8/26 149/8/26
f 141/8/39 151/8/39 150/8/39
f 142/8/40 152/8/40 151/8/40
f 143/8/41 153/8/41 152/8/41
f 144/8/42 154/8/42 153/8/42
f 145/8/31 155/8/31 154/8/31
f 146/8/43 156/8/43 155/8/43
f 137/8/44 147/8/44 156/8/44
f 156/8/35 147/8/35 150/8/35
f 147/8/35 148/8/35 150/8/35
f 148/8/35 149/8/35 150/8/35
f 150/8/35 151/8/35 152/8/35
f 152/8/35 153/8/35 154/8/35
f 154/8/35 155/8/35 156/8/35
f 150/8/35 152/8/35 154/8/35
f 157/9/36 166/9/36 165/9/36
f 165/9/36 164/9/36 163/9/36
f 163/9/36 162/9/36 161/9/36
f 161/9/36 160/9/36 159/9/36
f 159/9/36 158/9/36 157/9/36
f 157/9/36 165/9/36 159/9/36
f 165/9/36 163/9/36 159/9/36
f 158/9/37 168/9/37 167/9/37
f 159/9/38 169/9/38 168/9/38
f 160/9/26 170/9/26 169/9/26
f 161/9/39 171/9/39 170/9/39
f 162/9/40 172/9/40 171/9/40
f 163/9/41 173/9/41 172/9/41
f 164/9/42 174/9/42 173/9/42
f 165/9/31 175/9/31 174/9/31
f 166/9/43 176/9/43 175/9/43
f 157/9/44 167/9/44 176/9/44
f 176/9/35 167/9/35 168/9/35
f 168/9/35 169/9/35 170/9/35
f 170/9/35 171/9/35 174/9/35
f 171/9/35 172/9/35 174/9/35
f 172/9/35 173/9/35 174/9/35
f 174/9/35 175/9/35 176/9/35
f 176/9/35 168/9/35 174/9/35
f 177/7/36 186/7/36 185/7/36
f 185/7/36 184/7/36 183/7/36
f 183/7/36 182/7/36 179/7/36
f 182/7/36 181/7/36 179/7/36
f 181/7/36 180/7/36 179/7/36
f 179/7/36 178/7/36 177/7/36
f 177/7/36 185/7/36 183/7/36
f 178/7/37 188/7/37 187/7/37
f 179/7/38 189/7/38 188/7/38
f 180/7/26 190/7/26 189/7/26
f 181/7/39 191/7/39 190/7/39
f 182/7/40 192/7/40 191/7/40
f 183/7/41 193/7/41 192/7/41
f 184/7/42 194/7/42 193/7/42
f 185/7/31 195/7/31 194/7/31
f 186/7/43 196/7/43 195/7/43
f 177/7/44 187/7/44 196/7/44
f 196/7/35 187/7/35 190/7/35
f 187/7/35 188/7/35 190/7/35
f 188/7/35 189/7/35 190/7/35
f 190/7/35 191/7/35 192/7/35
f 192/7/35 193/7/35 194/7/35
f 194/7/35 195/7/35 196/7/35
f 190/7/35 192/7/35 196/7/35
f 197/8/36 206/8/36 205/8/36
f 205/8/36 204/8/36 197/8/36
f 204/8/36 203/8/36 197/8/36
f 203/8/36 202/8/36 199/8/36
f 202/8/36 201/8/36 199/8/36
f 201/8/36 200/8/36 199/8/36
f 199/8/36 198/8/36 197/8/36
f 198/8/37 208/8/37 207/8/37
f 199/8/38 209/8/38 208/8/38
f 200/8/26 210/8/26 209/8/26
f 201/8/39 211/8/39 210/8/39
f 202/8/40 212/8/40 211/8/40
f 203/8/41 213/8/41 212/8/41
f 204/8/42 214/8/42 213/8/42
f 205/8/31 215/8/31 214/8/31
f 206/8/43 216/8/43 215/8/43
f 197/8/44 207/8/44 216/8/44
f 216/8/35 207/8/35 210/8/35
f 207/8/35 208/8/35 210/8/35
f 208/8/35 209/8/35 210/8/35
f 210/8/35 211/8/35 212/8/35
f 212/8/35 213/8/35 214/8/35
f 214/8/35 215/8/35 216/8/35
f 210/8/35 212/8/35 214/8/35
f 217/9/36 226/9/36 225/9/36
f 225/9/36 224/9/36 223/9/36
f 223/9/36 222/9/36 221/9/36
f 221/9/36 220/9/36 223/9/36
f 220/9/36 219/9/36 223/9/36
f 219/9/36 218/9/36 217/9/36
f 217/9/36 225/9/36 219/9/36
f 218/9/37 228/9/37 227/9/37
f 219/9/38 229/9/38 228/9/38
f 220/9/26 230/9/26 229/9/26
f 221/9/39 231/9/39 230/9/39
f 222/9/40 232/9/40 231/9/40
f 223/9/41 233/9/41 232/9/41
f 224/9/42 234/9/42 233/9/42
f 225/9/31 235/9/31 234/9/31
f 226/9/43 236/9/43 235/9/43
f 217/9/44 227/9/44 236/9/44
f 236/9/35 227/9/35 228/9/35
f 228/9/35 229/9/35 236/9/35
f 229/9/35 230/9/35 236/9/35
f 230/9/35 231/9/35 232/9/35
f 232/9/35 233/9/35 230/9/35
f 233/9/35 234/9/35 230/9/35
f 234/9/35 235/9/35 236/9/35
f 239/10/23 238/10/23 237/10/23
f 242/10/34 243/10/34 244/10/34
f 238/10/35 242/10/35 241/10/35
f 239/10/31 243/10/31 242/10/31
f 240/10/36 244/10/36 243/10/36
f 237/10/26 241/10/26 244/10/26
f 247/6/23 246/6/23 245/6/23
f 250/6/34 251/6/34 252/6/34
f 246/6/35 250/6/35 249/6/35
f 247/6/31 251/6/31 250/6/31
f 248/6/36 252/6/36 251/6/36
f 245/6/26 249/6/26 252/6/26
f 255/7/23 254/7/23 253/7/23
f 258/7/34 259/7/34 260/7/34
f 254/7/35 258/7/35 257/7/35
f 255/7/31 259/7/31 258/7/31
f 256/7/36 260/7/36 259/7/36
f 253/7/26 257/7/26 260/7/26
f 263/11/23 262/11/23 261/11/23
f 266/11/34 267/11/34 268/11/34
f 262/11/35 266/11/35 265/11/35
f 263/11/31 267/11/31 266/11/31
f 264/11/36 268/11/36 267/11/36
f 261/11/26 265/11/26 268/11/26
f 271/7/23 270/7/23 269/7/23
f 274/7/34 275/7/34 276/7/34
f 270/7/35 274/7/35 273/7/35
f 271/7/31 275/7/31 274/7/31
f 272/7/36 276/7/36 275/7/36
f 269/7/26 273/7/26 276/7/26
f 279/11/23 278/11/23 277/11/23
f 282/11/34 283/11/34 284/11/34
f 278/11/35 282/11/35 281/11/35
f 279/11/31 283/11/31 282/11/31
f 280/11/36 284/11/36 283/11/36
f 277/11/26 281/11/26 284/11/26
f 287/8/23 286/8/23 285/8/23
f 290/8/34 291/8/34 292/8/34
f 286/8/35 290/8/35 289/8/35
f 287/8/31 291/8/31 290/8/31
f 288/8/36 292/8/36 291/8/36
f 285/8/26 289/8/26 292/8/26
f 295/7/23 294/7/23 293/7/23
f 298/7/34 299/7/34 300/7/34
f 294/7/35 298/7/35 297/7/35
f 295/7/31 299/7/31 298/7/31
f 296/7/36 300/7/36 299/7/36
f 293/7/26 297/7/26 300/7/26
f 303/7/23 302/7/23 301/7/23
f 306/7/34 307/7/34 308/7/34
f 302/7/35 306/7/35 305/7/35
f 303/7/31 307/7/31 306/7/31
f 304/7/36 308/7/36 307/7/36
f 301/7/26 305/7/26 308/7/26
