# Blender 5.2.1 LTS
# www.blender.org
mtllib armor_panels.mtl
o BASE.008
v -0.390000 0.000000 0.365000
v 0.390000 0.000000 0.365000
v 0.390000 0.000000 -0.365000
v -0.390000 0.000000 -0.365000
v -0.390000 0.120000 0.365000
v 0.390000 0.120000 0.365000
v 0.390000 0.120000 -0.365000
v -0.390000 0.120000 -0.365000
v -0.300000 0.121000 -0.302000
v -0.327713 0.121000 -0.286000
v -0.327713 0.121000 -0.254000
v -0.300000 0.121000 -0.238000
v -0.272287 0.121000 -0.254000
v -0.272287 0.121000 -0.286000
v -0.300000 0.141000 -0.302000
v -0.327713 0.141000 -0.286000
v -0.327713 0.141000 -0.254000
v -0.300000 0.141000 -0.238000
v -0.272287 0.141000 -0.254000
v -0.272287 0.141000 -0.286000
v -0.300000 0.121000 0.238000
v -0.327713 0.121000 0.254000
v -0.327713 0.121000 0.286000
v -0.300000 0.121000 0.302000
v -0.272287 0.121000 0.286000
v -0.272287 0.121000 0.254000
v -0.300000 0.141000 0.238000
v -0.327713 0.141000 0.254000
v -0.327713 0.141000 0.286000
v -0.300000 0.141000 0.302000
v -0.272287 0.141000 0.286000
v -0.272287 0.141000 0.254000
v 0.300000 0.121000 -0.302000
v 0.272287 0.121000 -0.286000
v 0.272287 0.121000 -0.254000
v 0.300000 0.121000 -0.238000
v 0.327713 0.121000 -0.254000
v 0.327713 0.121000 -0.286000
v 0.300000 0.141000 -0.302000
v 0.272287 0.141000 -0.286000
v 0.272287 0.141000 -0.254000
v 0.300000 0.141000 -0.238000
v 0.327713 0.141000 -0.254000
v 0.327713 0.141000 -0.286000
v 0.300000 0.121000 0.238000
v 0.272287 0.121000 0.254000
v 0.272287 0.121000 0.286000
v 0.300000 0.121000 0.302000
v 0.327713 0.121000 0.286000
v 0.327713 0.121000 0.254000
v 0.300000 0.141000 0.238000
v 0.272287 0.141000 0.254000
v 0.272287 0.141000 0.286000
v 0.300000 0.141000 0.302000
v 0.327713 0.141000 0.286000
v 0.327713 0.141000 0.254000
v -0.375000 0.140000 -0.175000
v 0.375000 0.140000 -0.175000
v 0.375000 0.140000 -0.265000
v -0.375000 0.140000 -0.265000
v -0.375000 0.780000 -0.175000
v 0.375000 0.780000 -0.175000
v 0.375000 0.780000 -0.265000
v -0.375000 0.780000 -0.265000
v -0.380000 0.767500 -0.170000
v 0.380000 0.767500 -0.170000
v 0.380000 0.767500 -0.270000
v -0.380000 0.767500 -0.270000
v -0.380000 0.812500 -0.170000
v 0.380000 0.812500 -0.170000
v 0.380000 0.812500 -0.270000
v -0.380000 0.812500 -0.270000
v -0.280000 0.355000 -0.182500
v -0.301651 0.342500 -0.182500
v -0.301651 0.317500 -0.182500
v -0.280000 0.305000 -0.182500
v -0.258349 0.317500 -0.182500
v -0.258349 0.342500 -0.182500
v -0.280000 0.355000 -0.157500
v -0.301651 0.342500 -0.157500
v -0.301651 0.317500 -0.157500
v -0.280000 0.305000 -0.157500
v -0.258349 0.317500 -0.157500
v -0.258349 0.342500 -0.157500
v 0.280000 0.355000 -0.182500
v 0.258349 0.342500 -0.182500
v 0.258349 0.317500 -0.182500
v 0.280000 0.305000 -0.182500
v 0.301651 0.317500 -0.182500
v 0.301651 0.342500 -0.182500
v 0.280000 0.355000 -0.157500
v 0.258349 0.342500 -0.157500
v 0.258349 0.317500 -0.157500
v 0.280000 0.305000 -0.157500
v 0.301651 0.317500 -0.157500
v 0.301651 0.342500 -0.157500
v -0.375000 0.140000 0.045000
v 0.375000 0.140000 0.045000
v 0.375000 0.140000 -0.045000
v -0.375000 0.140000 -0.045000
v -0.375000 0.780000 0.045000
v 0.375000 0.780000 0.045000
v 0.375000 0.780000 -0.045000
v -0.375000 0.780000 -0.045000
v -0.380000 0.767500 0.050000
v 0.380000 0.767500 0.050000
v 0.380000 0.767500 -0.050000
v -0.380000 0.767500 -0.050000
v -0.380000 0.812500 0.050000
v 0.380000 0.812500 0.050000
v 0.380000 0.812500 -0.050000
v -0.380000 0.812500 -0.050000
v -0.280000 0.355000 0.037500
v -0.301651 0.342500 0.037500
v -0.301651 0.317500 0.037500
v -0.280000 0.305000 0.037500
v -0.258349 0.317500 0.037500
v -0.258349 0.342500 0.037500
v -0.280000 0.355000 0.062500
v -0.301651 0.342500 0.062500
v -0.301651 0.317500 0.062500
v -0.280000 0.305000 0.062500
v -0.258349 0.317500 0.062500
v -0.258349 0.342500 0.062500
v 0.280000 0.355000 0.037500
v 0.258349 0.342500 0.037500
v 0.258349 0.317500 0.037500
v 0.280000 0.305000 0.037500
v 0.301651 0.317500 0.037500
v 0.301651 0.342500 0.037500
v 0.280000 0.355000 0.062500
v 0.258349 0.342500 0.062500
v 0.258349 0.317500 0.062500
v 0.280000 0.305000 0.062500
v 0.301651 0.317500 0.062500
v 0.301651 0.342500 0.062500
v -0.375000 0.140000 0.265000
v 0.375000 0.140000 0.265000
v 0.375000 0.140000 0.175000
v -0.375000 0.140000 0.175000
v -0.375000 0.780000 0.265000
v 0.375000 0.780000 0.265000
v 0.375000 0.780000 0.175000
v -0.375000 0.780000 0.175000
v -0.380000 0.767500 0.270000
v 0.380000 0.767500 0.270000
v 0.380000 0.767500 0.170000
v -0.380000 0.767500 0.170000
v -0.380000 0.812500 0.270000
v 0.380000 0.812500 0.270000
v 0.380000 0.812500 0.170000
v -0.380000 0.812500 0.170000
v -0.280000 0.355000 0.257500
v -0.301651 0.342500 0.257500
v -0.301651 0.317500 0.257500
v -0.280000 0.305000 0.257500
v -0.258349 0.317500 0.257500
v -0.258349 0.342500 0.257500
v -0.280000 0.355000 0.282500
v -0.301651 0.342500 0.282500
v -0.301651 0.317500 0.282500
v -0.280000 0.305000 0.282500
v -0.258349 0.317500 0.282500
v -0.258349 0.342500 0.282500
v 0.280000 0.355000 0.257500
v 0.258349 0.342500 0.257500
v 0.258349 0.317500 0.257500
v 0.280000 0.305000 0.257500
v 0.301651 0.317500 0.257500
v 0.301651 0.342500 0.257500
v 0.280000 0.355000 0.282500
v 0.258349 0.342500 0.282500
v 0.258349 0.317500 0.282500
v 0.280000 0.305000 0.282500
v 0.301651 0.317500 0.282500
v 0.301651 0.342500 0.282500
vn -0.0000 -1.0000 -0.0000
vn -0.0000 1.0000 -0.0000
vn -0.0000 -0.0000 1.0000
vn 1.0000 -0.0000 -0.0000
vn -0.0000 -0.0000 -1.0000
vn -1.0000 -0.0000 -0.0000
vn -0.5000 -0.0000 -0.8660
vn -0.5000 -0.0000 0.8660
vn 0.5000 -0.0000 0.8660
vn 0.5000 -0.0000 -0.8660
vn -0.5000 0.8660 -0.0000
vn -0.5000 -0.8660 -0.0000
vn 0.5000 -0.8660 -0.0000
vn 0.5000 0.8660 -0.0000
vt 0.625000 0.125000
vt 0.375000 0.875000
vt 0.125000 0.125000
vt 0.125000 0.625000
s 0
usemtl Military_Equipment_Palette
f 3/1/1 1/1/1 4/1/1
f 6/1/2 8/1/2 5/1/2
f 2/1/3 5/1/3 1/1/3
f 3/1/4 6/1/4 2/1/4
f 4/1/5 7/1/5 3/1/5
f 1/1/6 8/1/6 4/1/6
f 13/2/1 11/2/1 9/2/1
f 10/2/7 15/2/7 9/2/7
f 11/2/6 16/2/6 10/2/6
f 12/2/8 17/2/8 11/2/8
f 13/2/9 18/2/9 12/2/9
f 14/2/4 19/2/4 13/2/4
f 9/2/10 20/2/10 14/2/10
f 16/2/2 18/2/2 20/2/2
f 25/2/1 23/2/1 21/2/1
f 22/2/7 27/2/7 21/2/7
f 23/2/6 28/2/6 22/2/6
f 24/2/8 29/2/8 23/2/8
f 25/2/9 30/2/9 24/2/9
f 26/2/4 31/2/4 25/2/4
f 21/2/10 32/2/10 26/2/10
f 28/2/2 30/2/2 32/2/2
f 37/2/1 35/2/1 33/2/1
f 34/2/7 39/2/7 33/2/7
f 35/2/6 40/2/6 34/2/6
f 36/2/8 41/2/8 35/2/8
f 37/2/9 42/2/9 36/2/9
f 38/2/4 43/2/4 37/2/4
f 33/2/10 44/2/10 38/2/10
f 40/2/2 42/2/2 44/2/2
f 49/2/1 47/2/1 45/2/1
f 46/2/7 51/2/7 45/2/7
f 47/2/6 52/2/6 46/2/6
f 48/2/8 53/2/8 47/2/8
f 49/2/9 54/2/9 48/2/9
f 50/2/4 55/2/4 49/2/4
f 45/2/10 56/2/10 50/2/10
f 52/2/2 54/2/2 56/2/2
f 59/3/1 57/3/1 60/3/1
f 62/3/2 64/3/2 61/3/2
f 58/3/3 61/3/3 57/3/3
f 59/3/4 62/3/4 58/3/4
f 60/3/5 63/3/5 59/3/5
f 57/3/6 64/3/6 60/3/6
f 67/4/1 65/4/1 68/4/1
f 70/4/2 72/4/2 69/4/2
f 66/4/3 69/4/3 65/4/3
f 67/4/4 70/4/4 66/4/4
f 68/4/5 71/4/5 67/4/5
f 65/4/6 72/4/6 68/4/6
f 75/2/5 74/2/5 73/2/5
f 74/2/11 79/2/11 73/2/11
f 75/2/6 80/2/6 74/2/6
f 76/2/12 81/2/12 75/2/12
f 77/2/13 82/2/13 76/2/13
f 78/2/4 83/2/4 77/2/4
f 73/2/14 84/2/14 78/2/14
f 83/2/3 84/2/3 80/2/3
f 87/2/5 86/2/5 85/2/5
f 86/2/11 91/2/11 85/2/11
f 87/2/6 92/2/6 86/2/6
f 88/2/12 93/2/12 87/2/12
f 89/2/13 94/2/13 88/2/13
f 90/2/4 95/2/4 89/2/4
f 85/2/14 96/2/14 90/2/14
f 95/2/3 96/2/3 92/2/3
f 99/3/1 97/3/1 100/3/1
f 102/3/2 104/3/2 101/3/2
f 98/3/3 101/3/3 97/3/3
f 99/3/4 102/3/4 98/3/4
f 100/3/5 103/3/5 99/3/5
f 97/3/6 104/3/6 100/3/6
f 107/4/1 105/4/1 108/4/1
f 110/4/2 112/4/2 109/4/2
f 106/4/3 109/4/3 105/4/3
f 107/4/4 110/4/4 106/4/4
f 108/4/5 111/4/5 107/4/5
f 105/4/6 112/4/6 108/4/6
f 115/2/5 114/2/5 113/2/5
f 114/2/11 119/2/11 113/2/11
f 115/2/6 120/2/6 114/2/6
f 116/2/12 121/2/12 115/2/12
f 117/2/13 122/2/13 116/2/13
f 118/2/4 123/2/4 117/2/4
f 113/2/14 124/2/14 118/2/14
f 123/2/3 124/2/3 120/2/3
f 127/2/5 126/2/5 125/2/5
f 126/2/11 131/2/11 125/2/11
f 127/2/6 132/2/6 126/2/6
f 128/2/12 133/2/12 127/2/12
f 129/2/13 134/2/13 128/2/13
f 130/2/4 135/2/4 129/2/4
f 125/2/14 136/2/14 130/2/14
f 135/2/3 136/2/3 132/2/3
f 139/3/1 137/3/1 140/3/1
f 142/3/2 144/3/2 141/3/2
f 138/3/3 141/3/3 137/3/3
f 139/3/4 142/3/4 138/3/4
f 140/3/5 143/3/5 139/3/5
f 137/3/6 144/3/6 140/3/6
f 147/4/1 145/4/1 148/4/1
f 150/4/2 152/4/2 149/4/2
f 146/4/3 149/4/3 145/4/3
f 147/4/4 150/4/4 146/4/4
f 148/4/5 151/4/5 147/4/5
f 145/4/6 152/4/6 148/4/6
f 155/2/5 154/2/5 153/2/5
f 154/2/11 159/2/11 153/2/11
f 155/2/6 160/2/6 154/2/6
f 156/2/12 161/2/12 155/2/12
f 157/2/13 162/2/13 156/2/13
f 158/2/4 163/2/4 157/2/4
f 153/2/14 164/2/14 158/2/14
f 163/2/3 164/2/3 160/2/3
f 167/2/5 166/2/5 165/2/5
f 166/2/11 171/2/11 165/2/11
f 167/2/6 172/2/6 166/2/6
f 168/2/12 173/2/12 167/2/12
f 169/2/13 174/2/13 168/2/13
f 170/2/4 175/2/4 169/2/4
f 165/2/14 176/2/14 170/2/14
f 175/2/3 176/2/3 172/2/3
f 3/1/1 2/1/1 1/1/1
f 6/1/2 7/1/2 8/1/2
f 2/1/3 6/1/3 5/1/3
f 3/1/4 7/1/4 6/1/4
f 4/1/5 8/1/5 7/1/5
f 1/1/6 5/1/6 8/1/6
f 9/2/1 14/2/1 13/2/1
f 13/2/1 12/2/1 11/2/1
f 11/2/1 10/2/1 9/2/1
f 10/2/7 16/2/7 15/2/7
f 11/2/6 17/2/6 16/2/6
f 12/2/8 18/2/8 17/2/8
f 13/2/9 19/2/9 18/2/9
f 14/2/4 20/2/4 19/2/4
f 9/2/10 15/2/10 20/2/10
f 20/2/2 15/2/2 16/2/2
f 16/2/2 17/2/2 18/2/2
f 18/2/2 19/2/2 20/2/2
f 21/2/1 26/2/1 25/2/1
f 25/2/1 24/2/1 23/2/1
f 23/2/1 22/2/1 21/2/1
f 22/2/7 28/2/7 27/2/7
f 23/2/6 29/2/6 28/2/6
f 24/2/8 30/2/8 29/2/8
f 25/2/9 31/2/9 30/2/9
f 26/2/4 32/2/4 31/2/4
f 21/2/10 27/2/10 32/2/10
f 32/2/2 27/2/2 28/2/2
f 28/2/2 29/2/2 30/2/2
f 30/2/2 31/2/2 32/2/2
f 33/2/1 38/2/1 37/2/1
f 37/2/1 36/2/1 35/2/1
f 35/2/1 34/2/1 33/2/1
f 34/2/7 40/2/7 39/2/7
f 35/2/6 41/2/6 40/2/6
f 36/2/8 42/2/8 41/2/8
f 37/2/9 43/2/9 42/2/9
f 38/2/4 44/2/4 43/2/4
f 33/2/10 39/2/10 44/2/10
f 44/2/2 39/2/2 40/2/2
f 40/2/2 41/2/2 42/2/2
f 42/2/2 43/2/2 44/2/2
f 45/2/1 50/2/1 49/2/1
f 49/2/1 48/2/1 47/2/1
f 47/2/1 46/2/1 45/2/1
f 46/2/7 52/2/7 51/2/7
f 47/2/6 53/2/6 52/2/6
f 48/2/8 54/2/8 53/2/8
f 49/2/9 55/2/9 54/2/9
f 50/2/4 56/2/4 55/2/4
f 45/2/10 51/2/10 56/2/10
f 56/2/2 51/2/2 52/2/2
f 52/2/2 53/2/2 54/2/2
f 54/2/2 55/2/2 56/2/2
f 59/3/1 58/3/1 57/3/1
f 62/3/2 63/3/2 64/3/2
f 58/3/3 62/3/3 61/3/3
f 59/3/4 63/3/4 62/3/4
f 60/3/5 64/3/5 63/3/5
f 57/3/6 61/3/6 64/3/6
f 67/4/1 66/4/1 65/4/1
f 70/4/2 71/4/2 72/4/2
f 66/4/3 70/4/3 69/4/3
f 67/4/4 71/4/4 70/4/4
f 68/4/5 72/4/5 71/4/5
f 65/4/6 69/4/6 72/4/6
f 73/2/5 78/2/5 75/2/5
f 78/2/5 77/2/5 75/2/5
f 77/2/5 76/2/5 75/2/5
f 74/2/11 80/2/11 79/2/11
f 75/2/6 81/2/6 80/2/6
f 76/2/12 82/2/12 81/2/12
f 77/2/13 83/2/13 82/2/13
f 78/2/4 84/2/4 83/2/4
f 73/2/14 79/2/14 84/2/14
f 84/2/3 79/2/3 80/2/3
f 80/2/3 81/2/3 82/2/3
f 82/2/3 83/2/3 80/2/3
f 85/2/5 90/2/5 87/2/5
f 90/2/5 89/2/5 87/2/5
f 89/2/5 88/2/5 87/2/5
f 86/2/11 92/2/11 91/2/11
f 87/2/6 93/2/6 92/2/6
f 88/2/12 94/2/12 93/2/12
f 89/2/13 95/2/13 94/2/13
f 90/2/4 96/2/4 95/2/4
f 85/2/14 91/2/14 96/2/14
f 96/2/3 91/2/3 92/2/3
f 92/2/3 93/2/3 94/2/3
f 94/2/3 95/2/3 92/2/3
f 99/3/1 98/3/1 97/3/1
f 102/3/2 103/3/2 104/3/2
f 98/3/3 102/3/3 101/3/3
f 99/3/4 103/3/4 102/3/4
f 100/3/5 104/3/5 103/3/5
f 97/3/6 101/3/6 104/3/6
f 107/4/1 106/4/1 105/4/1
f 110/4/2 111/4/2 112/4/2
f 106/4/3 110/4/3 109/4/3
f 107/4/4 111/4/4 110/4/4
f 108/4/5 112/4/5 111/4/5
f 105/4/6 109/4/6 112/4/6
f 113/2/5 118/2/5 115/2/5
f 118/2/5 117/2/5 115/2/5
f 117/2/5 116/2/5 115/2/5
f 114/2/11 120/2/11 119/2/11
f 115/2/6 121/2/6 120/2/6
f 116/2/12 122/2/12 121/2/12
f 117/2/13 123/2/13 122/2/13
f 118/2/4 124/2/4 123/2/4
f 113/2/14 119/2/14 124/2/14
f 124/2/3 119/2/3 120/2/3
f 120/2/3 121/2/3 122/2/3
f 122/2/3 123/2/3 120/2/3
f 125/2/5 130/2/5 127/2/5
f 130/2/5 129/2/5 127/2/5
f 129/2/5 128/2/5 127/2/5
f 126/2/11 132/2/11 131/2/11
f 127/2/6 133/2/6 132/2/6
f 128/2/12 134/2/12 133/2/12
f 129/2/13 135/2/13 134/2/13
f 130/2/4 136/2/4 135/2/4
f 125/2/14 131/2/14 136/2/14
f 136/2/3 131/2/3 132/2/3
f 132/2/3 133/2/3 134/2/3
f 134/2/3 135/2/3 132/2/3
f 139/3/1 138/3/1 137/3/1
f 142/3/2 143/3/2 144/3/2
f 138/3/3 142/3/3 141/3/3
f 139/3/4 143/3/4 142/3/4
f 140/3/5 144/3/5 143/3/5
f 137/3/6 141/3/6 144/3/6
f 147/4/1 146/4/1 145/4/1
f 150/4/2 151/4/2 152/4/2
f 146/4/3 150/4/3 149/4/3
f 147/4/4 151/4/4 150/4/4
f 148/4/5 152/4/5 151/4/5
f 145/4/6 149/4/6 152/4/6
f 153/2/5 158/2/5 155/2/5
f 158/2/5 157/2/5 155/2/5
f 157/2/5 156/2/5 155/2/5
f 154/2/11 160/2/11 159/2/11
f 155/2/6 161/2/6 160/2/6
f 156/2/12 162/2/12 161/2/12
f 157/2/13 163/2/13 162/2/13
f 158/2/4 164/2/4 163/2/4
f 153/2/14 159/2/14 164/2/14
f 164/2/3 159/2/3 160/2/3
f 160/2/3 161/2/3 162/2/3
f 162/2/3 163/2/3 160/2/3
f 165/2/5 170/2/5 167/2/5
f 170/2/5 169/2/5 167/2/5
f 169/2/5 168/2/5 167/2/5
f 166/2/11 172/2/11 171/2/11
f 167/2/6 173/2/6 172/2/6
f 168/2/12 174/2/12 173/2/12
f 169/2/13 175/2/13 174/2/13
f 170/2/4 176/2/4 175/2/4
f 165/2/14 171/2/14 176/2/14
f 176/2/3 171/2/3 172/2/3
f 172/2/3 173/2/3 174/2/3
f 174/2/3 175/2/3 172/2/3
