# Blender 5.2.1 LTS
# www.blender.org
mtllib armor.mtl
o BASE.010
v -0.361200 0.000000 0.350600
v 0.361200 0.000000 0.350600
v 0.375600 0.000000 0.336200
v 0.375600 0.000000 -0.336200
v 0.361200 0.000000 -0.350600
v -0.361200 0.000000 -0.350600
v -0.375600 0.000000 -0.336200
v -0.375600 0.000000 0.336200
v -0.375600 0.014400 0.365000
v 0.375600 0.014400 0.365000
v 0.390000 0.014400 0.350600
v 0.390000 0.014400 -0.350600
v 0.375600 0.014400 -0.365000
v -0.375600 0.014400 -0.365000
v -0.390000 0.014400 -0.350600
v -0.390000 0.014400 0.350600
v -0.375600 0.105600 0.365000
v 0.375600 0.105600 0.365000
v 0.390000 0.105600 0.350600
v 0.390000 0.105600 -0.350600
v 0.375600 0.105600 -0.365000
v -0.375600 0.105600 -0.365000
v -0.390000 0.105600 -0.350600
v -0.390000 0.105600 0.350600
v -0.361200 0.120000 0.350600
v 0.361200 0.120000 0.350600
v 0.375600 0.120000 0.336200
v 0.375600 0.120000 -0.336200
v 0.361200 0.120000 -0.350600
v -0.361200 0.120000 -0.350600
v -0.375600 0.120000 -0.336200
v -0.375600 0.120000 0.336200
v -0.300000 0.121000 -0.302000
v -0.327713 0.121000 -0.286000
v -0.327713 0.121000 -0.254000
v -0.300000 0.121000 -0.238000
v -0.272287 0.121000 -0.254000
v -0.272287 0.121000 -0.286000
v -0.300000 0.141000 -0.302000
v -0.327713 0.141000 -0.286000
v -0.327713 0.141000 -0.254000
v -0.300000 0.141000 -0.238000
v -0.272287 0.141000 -0.254000
v -0.272287 0.141000 -0.286000
v -0.300000 0.121000 0.238000
v -0.327713 0.121000 0.254000
v -0.327713 0.121000 0.286000
v -0.300000 0.121000 0.302000
v -0.272287 0.121000 0.286000
v -0.272287 0.121000 0.254000
v -0.300000 0.141000 0.238000
v -0.327713 0.141000 0.254000
v -0.327713 0.141000 0.286000
v -0.300000 0.141000 0.302000
v -0.272287 0.141000 0.286000
v -0.272287 0.141000 0.254000
v 0.300000 0.121000 -0.302000
v 0.272287 0.121000 -0.286000
v 0.272287 0.121000 -0.254000
v 0.300000 0.121000 -0.238000
v 0.327713 0.121000 -0.254000
v 0.327713 0.121000 -0.286000
v 0.300000 0.141000 -0.302000
v 0.272287 0.141000 -0.286000
v 0.272287 0.141000 -0.254000
v 0.300000 0.141000 -0.238000
v 0.327713 0.141000 -0.254000
v 0.327713 0.141000 -0.286000
v 0.300000 0.121000 0.238000
v 0.272287 0.121000 0.254000
v 0.272287 0.121000 0.286000
v 0.300000 0.121000 0.302000
v 0.327713 0.121000 0.286000
v 0.327713 0.121000 0.254000
v 0.300000 0.141000 0.238000
v 0.272287 0.141000 0.254000
v 0.272287 0.141000 0.286000
v 0.300000 0.141000 0.302000
v 0.327713 0.141000 0.286000
v 0.327713 0.141000 0.254000
v -0.353400 0.140000 -0.185800
v 0.353400 0.140000 -0.185800
v 0.364200 0.140000 -0.196600
v 0.364200 0.140000 -0.243400
v 0.353400 0.140000 -0.254200
v -0.353400 0.140000 -0.254200
v -0.364200 0.140000 -0.243400
v -0.364200 0.140000 -0.196600
v -0.364200 0.150800 -0.175000
v 0.364200 0.150800 -0.175000
v 0.375000 0.150800 -0.185800
v 0.375000 0.150800 -0.254200
v 0.364200 0.150800 -0.265000
v -0.364200 0.150800 -0.265000
v -0.375000 0.150800 -0.254200
v -0.375000 0.150800 -0.185800
v -0.364200 0.769200 -0.175000
v 0.364200 0.769200 -0.175000
v 0.375000 0.769200 -0.185800
v 0.375000 0.769200 -0.254200
v 0.364200 0.769200 -0.265000
v -0.364200 0.769200 -0.265000
v -0.375000 0.769200 -0.254200
v -0.375000 0.769200 -0.185800
v -0.353400 0.780000 -0.185800
v 0.353400 0.780000 -0.185800
v 0.364200 0.780000 -0.196600
v 0.364200 0.780000 -0.243400
v 0.353400 0.780000 -0.254200
v -0.353400 0.780000 -0.254200
v -0.364200 0.780000 -0.243400
v -0.364200 0.780000 -0.196600
v -0.380000 0.767500 -0.170000
v 0.380000 0.767500 -0.170000
v 0.380000 0.767500 -0.270000
v -0.380000 0.767500 -0.270000
v -0.380000 0.812500 -0.170000
v 0.380000 0.812500 -0.170000
v 0.380000 0.812500 -0.270000
v -0.380000 0.812500 -0.270000
v -0.280000 0.355000 -0.182500
v -0.301651 0.342500 -0.182500
v -0.301651 0.317500 -0.182500
v -0.280000 0.305000 -0.182500
v -0.258349 0.317500 -0.182500
v -0.258349 0.342500 -0.182500
v -0.280000 0.355000 -0.157500
v -0.301651 0.342500 -0.157500
v -0.301651 0.317500 -0.157500
v -0.280000 0.305000 -0.157500
v -0.258349 0.317500 -0.157500
v -0.258349 0.342500 -0.157500
v 0.280000 0.355000 -0.182500
v 0.258349 0.342500 -0.182500
v 0.258349 0.317500 -0.182500
v 0.280000 0.305000 -0.182500
v 0.301651 0.317500 -0.182500
v 0.301651 0.342500 -0.182500
v 0.280000 0.355000 -0.157500
v 0.258349 0.342500 -0.157500
v 0.258349 0.317500 -0.157500
v 0.280000 0.305000 -0.157500
v 0.301651 0.317500 -0.157500
v 0.301651 0.342500 -0.157500
v -0.353400 0.140000 0.034200
v 0.353400 0.140000 0.034200
v 0.364200 0.140000 0.023400
v 0.364200 0.140000 -0.023400
v 0.353400 0.140000 -0.034200
v -0.353400 0.140000 -0.034200
v -0.364200 0.140000 -0.023400
v -0.364200 0.140000 0.023400
v -0.364200 0.150800 0.045000
v 0.364200 0.150800 0.045000
v 0.375000 0.150800 0.034200
v 0.375000 0.150800 -0.034200
v 0.364200 0.150800 -0.045000
v -0.364200 0.150800 -0.045000
v -0.375000 0.150800 -0.034200
v -0.375000 0.150800 0.034200
v -0.364200 0.769200 0.045000
v 0.364200 0.769200 0.045000
v 0.375000 0.769200 0.034200
v 0.375000 0.769200 -0.034200
v 0.364200 0.769200 -0.045000
v -0.364200 0.769200 -0.045000
v -0.375000 0.769200 -0.034200
v -0.375000 0.769200 0.034200
v -0.353400 0.780000 0.034200
v 0.353400 0.780000 0.034200
v 0.364200 0.780000 0.023400
v 0.364200 0.780000 -0.023400
v 0.353400 0.780000 -0.034200
v -0.353400 0.780000 -0.034200
v -0.364200 0.780000 -0.023400
v -0.364200 0.780000 0.023400
v -0.380000 0.767500 0.050000
v 0.380000 0.767500 0.050000
v 0.380000 0.767500 -0.050000
v -0.380000 0.767500 -0.050000
v -0.380000 0.812500 0.050000
v 0.380000 0.812500 0.050000
v 0.380000 0.812500 -0.050000
v -0.380000 0.812500 -0.050000
v -0.280000 0.355000 0.037500
v -0.301651 0.342500 0.037500
v -0.301651 0.317500 0.037500
v -0.280000 0.305000 0.037500
v -0.258349 0.317500 0.037500
v -0.258349 0.342500 0.037500
v -0.280000 0.355000 0.062500
v -0.301651 0.342500 0.062500
v -0.301651 0.317500 0.062500
v -0.280000 0.305000 0.062500
v -0.258349 0.317500 0.062500
v -0.258349 0.342500 0.062500
v 0.280000 0.355000 0.037500
v 0.258349 0.342500 0.037500
v 0.258349 0.317500 0.037500
v 0.280000 0.305000 0.037500
v 0.301651 0.317500 0.037500
v 0.301651 0.342500 0.037500
v 0.280000 0.355000 0.062500
v 0.258349 0.342500 0.062500
v 0.258349 0.317500 0.062500
v 0.280000 0.305000 0.062500
v 0.301651 0.317500 0.062500
v 0.301651 0.342500 0.062500
v -0.353400 0.140000 0.254200
v 0.353400 0.140000 0.254200
v 0.364200 0.140000 0.243400
v 0.364200 0.140000 0.196600
v 0.353400 0.140000 0.185800
v -0.353400 0.140000 0.185800
v -0.364200 0.140000 0.196600
v -0.364200 0.140000 0.243400
v -0.364200 0.150800 0.265000
v 0.364200 0.150800 0.265000
v 0.375000 0.150800 0.254200
v 0.375000 0.150800 0.185800
v 0.364200 0.150800 0.175000
v -0.364200 0.150800 0.175000
v -0.375000 0.150800 0.185800
v -0.375000 0.150800 0.254200
v -0.364200 0.769200 0.265000
v 0.364200 0.769200 0.265000
v 0.375000 0.769200 0.254200
v 0.375000 0.769200 0.185800
v 0.364200 0.769200 0.175000
v -0.364200 0.769200 0.175000
v -0.375000 0.769200 0.185800
v -0.375000 0.769200 0.254200
v -0.353400 0.780000 0.254200
v 0.353400 0.780000 0.254200
v 0.364200 0.780000 0.243400
v 0.364200 0.780000 0.196600
v 0.353400 0.780000 0.185800
v -0.353400 0.780000 0.185800
v -0.364200 0.780000 0.196600
v -0.364200 0.780000 0.243400
v -0.380000 0.767500 0.270000
v 0.380000 0.767500 0.270000
v 0.380000 0.767500 0.170000
v -0.380000 0.767500 0.170000
v -0.380000 0.812500 0.270000
v 0.380000 0.812500 0.270000
v 0.380000 0.812500 0.170000
v -0.380000 0.812500 0.170000
v -0.280000 0.355000 0.257500
v -0.301651 0.342500 0.257500
v -0.301651 0.317500 0.257500
v -0.280000 0.305000 0.257500
v -0.258349 0.317500 0.257500
v -0.258349 0.342500 0.257500
v -0.280000 0.355000 0.282500
v -0.301651 0.342500 0.282500
v -0.301651 0.317500 0.282500
v -0.280000 0.305000 0.282500
v -0.258349 0.317500 0.282500
v -0.258349 0.342500 0.282500
v 0.280000 0.355000 0.257500
v 0.258349 0.342500 0.257500
v 0.258349 0.317500 0.257500
v 0.280000 0.305000 0.257500
v 0.301651 0.317500 0.257500
v 0.301651 0.342500 0.257500
v 0.280000 0.355000 0.282500
v 0.258349 0.342500 0.282500
v 0.258349 0.317500 0.282500
v 0.280000 0.305000 0.282500
v 0.301651 0.317500 0.282500
v 0.301651 0.342500 0.282500
v -0.355000 0.405000 -0.132500
v -0.085000 0.405000 -0.132500
v -0.085000 0.405000 -0.187500
v -0.355000 0.405000 -0.187500
v -0.355000 0.655000 -0.132500
v -0.085000 0.655000 -0.132500
v -0.085000 0.655000 -0.187500
v -0.355000 0.655000 -0.187500
v 0.085000 0.405000 -0.132500
v 0.355000 0.405000 -0.132500
v 0.355000 0.405000 -0.187500
v 0.085000 0.405000 -0.187500
v 0.085000 0.655000 -0.132500
v 0.355000 0.655000 -0.132500
v 0.355000 0.655000 -0.187500
v 0.085000 0.655000 -0.187500
v -0.355000 0.405000 0.087500
v -0.085000 0.405000 0.087500
v -0.085000 0.405000 0.032500
v -0.355000 0.405000 0.032500
v -0.355000 0.655000 0.087500
v -0.085000 0.655000 0.087500
v -0.085000 0.655000 0.032500
v -0.355000 0.655000 0.032500
v 0.085000 0.405000 0.087500
v 0.355000 0.405000 0.087500
v 0.355000 0.405000 0.032500
v 0.085000 0.405000 0.032500
v 0.085000 0.655000 0.087500
v 0.355000 0.655000 0.087500
v 0.355000 0.655000 0.032500
v 0.085000 0.655000 0.032500
v -0.355000 0.405000 0.307500
v -0.085000 0.405000 0.307500
v -0.085000 0.405000 0.252500
v -0.355000 0.405000 0.252500
v -0.355000 0.655000 0.307500
v -0.085000 0.655000 0.307500
v -0.085000 0.655000 0.252500
v -0.355000 0.655000 0.252500
v 0.085000 0.405000 0.307500
v 0.355000 0.405000 0.307500
v 0.355000 0.405000 0.252500
v 0.085000 0.405000 0.252500
v 0.085000 0.655000 0.307500
v 0.355000 0.655000 0.307500
v 0.355000 0.655000 0.252500
v 0.085000 0.655000 0.252500
vn -0.0000 -1.0000 -0.0000
vn -0.0000 -0.7071 0.7071
vn 0.4082 -0.8165 0.4082
vn 0.7071 -0.7071 -0.0000
vn 0.4082 -0.8165 -0.4082
vn -0.0000 -0.7071 -0.7071
vn -0.4082 -0.8165 -0.4082
vn -0.7071 -0.7071 -0.0000
vn -0.4082 -0.8165 0.4082
vn -0.0000 -0.0000 1.0000
vn 0.7071 -0.0000 0.7071
vn 1.0000 -0.0000 -0.0000
vn 0.7071 -0.0000 -0.7071
vn -0.0000 -0.0000 -1.0000
vn -0.7071 -0.0000 -0.7071
vn -1.0000 -0.0000 -0.0000
vn -0.7071 -0.0000 0.7071
vn -0.0000 0.7071 0.7071
vn 0.4082 0.8165 0.4082
vn 0.7071 0.7071 -0.0000
vn 0.4082 0.8165 -0.4082
vn -0.0000 0.7071 -0.7071
vn -0.4082 0.8165 -0.4082
vn -0.7071 0.7071 -0.0000
vn -0.4082 0.8165 0.4082
vn -0.0000 1.0000 -0.0000
vn -0.5000 -0.0000 -0.8660
vn -0.5000 -0.0000 0.8660
vn 0.5000 -0.0000 0.8660
vn 0.5000 -0.0000 -0.8660
vn 0.4082 -0.8165 -0.4083
vn -0.5000 0.8660 -0.0000
vn -0.5000 -0.8660 -0.0000
vn 0.5000 -0.8660 -0.0000
vn 0.5000 0.8660 -0.0000
vn -0.4082 -0.8165 0.4083
vn 0.4083 0.8165 0.4082
vn -0.4083 0.8165 -0.4082
vn -0.4082 -0.8165 -0.4083
vn 0.4082 -0.8165 0.4083
vn 0.4083 0.8165 -0.4082
vn -0.4083 0.8165 0.4082
vt 0.625000 0.125000
vt 0.375000 0.875000
vt 0.125000 0.125000
vt 0.125000 0.625000
vt 0.375000 0.125000
s 0
usemtl Military_Equipment_Palette
f 2/1/1 1/1/1 5/1/1
f 2/1/2 9/1/2 1/1/2
f 2/1/3 11/1/3 10/1/3
f 4/1/4 11/1/4 3/1/4
f 5/1/5 12/1/5 4/1/5
f 6/1/6 13/1/6 5/1/6
f 6/1/7 15/1/7 14/1/7
f 8/1/8 15/1/8 7/1/8
f 1/1/9 16/1/9 8/1/9
f 10/1/10 17/1/10 9/1/10
f 11/1/11 18/1/11 10/1/11
f 12/1/12 19/1/12 11/1/12
f 13/1/13 20/1/13 12/1/13
f 14/1/14 21/1/14 13/1/14
f 15/1/15 22/1/15 14/1/15
f 16/1/16 23/1/16 15/1/16
f 9/1/17 24/1/17 16/1/17
f 18/1/18 25/1/18 17/1/18
f 19/1/19 26/1/19 18/1/19
f 20/1/20 27/1/20 19/1/20
f 20/1/21 29/1/21 28/1/21
f 22/1/22 29/1/22 21/1/22
f 23/1/23 30/1/23 22/1/23
f 24/1/24 31/1/24 23/1/24
f 24/1/25 25/1/25 32/1/25
f 30/1/26 31/1/26 32/1/26
f 37/2/1 35/2/1 33/2/1
f 34/2/27 39/2/27 33/2/27
f 35/2/16 40/2/16 34/2/16
f 36/2/28 41/2/28 35/2/28
f 37/2/29 42/2/29 36/2/29
f 38/2/12 43/2/12 37/2/12
f 33/2/30 44/2/30 38/2/30
f 40/2/26 42/2/26 44/2/26
f 49/2/1 47/2/1 45/2/1
f 46/2/27 51/2/27 45/2/27
f 47/2/16 52/2/16 46/2/16
f 48/2/28 53/2/28 47/2/28
f 49/2/29 54/2/29 48/2/29
f 50/2/12 55/2/12 49/2/12
f 45/2/30 56/2/30 50/2/30
f 52/2/26 54/2/26 56/2/26
f 61/2/1 59/2/1 57/2/1
f 58/2/27 63/2/27 57/2/27
f 59/2/16 64/2/16 58/2/16
f 60/2/28 65/2/28 59/2/28
f 61/2/29 66/2/29 60/2/29
f 62/2/12 67/2/12 61/2/12
f 57/2/30 68/2/30 62/2/30
f 64/2/26 66/2/26 68/2/26
f 73/2/1 71/2/1 69/2/1
f 70/2/27 75/2/27 69/2/27
f 71/2/16 76/2/16 70/2/16
f 72/2/28 77/2/28 71/2/28
f 73/2/29 78/2/29 72/2/29
f 74/2/12 79/2/12 73/2/12
f 69/2/30 80/2/30 74/2/30
f 76/2/26 78/2/26 80/2/26
f 82/3/1 81/3/1 85/3/1
f 82/3/2 89/3/2 81/3/2
f 82/3/3 91/3/3 90/3/3
f 84/3/4 91/3/4 83/3/4
f 84/3/31 93/3/31 92/3/31
f 86/3/6 93/3/6 85/3/6
f 87/3/7 94/3/7 86/3/7
f 88/3/8 95/3/8 87/3/8
f 81/3/9 96/3/9 88/3/9
f 90/3/10 97/3/10 89/3/10
f 91/3/11 98/3/11 90/3/11
f 92/3/12 99/3/12 91/3/12
f 93/3/13 100/3/13 92/3/13
f 94/3/14 101/3/14 93/3/14
f 95/3/15 102/3/15 94/3/15
f 96/3/16 103/3/16 95/3/16
f 89/3/17 104/3/17 96/3/17
f 98/3/18 105/3/18 97/3/18
f 99/3/19 106/3/19 98/3/19
f 100/3/20 107/3/20 99/3/20
f 101/3/21 108/3/21 100/3/21
f 102/3/22 109/3/22 101/3/22
f 102/3/23 111/3/23 110/3/23
f 104/3/24 111/3/24 103/3/24
f 104/3/25 105/3/25 112/3/25
f 110/3/26 111/3/26 112/3/26
f 115/4/1 113/4/1 116/4/1
f 118/4/26 120/4/26 117/4/26
f 114/4/10 117/4/10 113/4/10
f 115/4/12 118/4/12 114/4/12
f 116/4/14 119/4/14 115/4/14
f 113/4/16 120/4/16 116/4/16
f 123/2/14 122/2/14 121/2/14
f 122/2/32 127/2/32 121/2/32
f 123/2/16 128/2/16 122/2/16
f 124/2/33 129/2/33 123/2/33
f 125/2/34 130/2/34 124/2/34
f 126/2/12 131/2/12 125/2/12
f 121/2/35 132/2/35 126/2/35
f 131/2/10 132/2/10 128/2/10
f 135/2/14 134/2/14 133/2/14
f 134/2/32 139/2/32 133/2/32
f 135/2/16 140/2/16 134/2/16
f 136/2/33 141/2/33 135/2/33
f 137/2/34 142/2/34 136/2/34
f 138/2/12 143/2/12 137/2/12
f 133/2/35 144/2/35 138/2/35
f 143/2/10 144/2/10 140/2/10
f 146/3/1 145/3/1 149/3/1
f 146/3/2 153/3/2 145/3/2
f 147/3/3 154/3/3 146/3/3
f 148/3/4 155/3/4 147/3/4
f 149/3/31 156/3/31 148/3/31
f 150/3/6 157/3/6 149/3/6
f 151/3/7 158/3/7 150/3/7
f 152/3/8 159/3/8 151/3/8
f 145/3/36 160/3/36 152/3/36
f 154/3/10 161/3/10 153/3/10
f 155/3/11 162/3/11 154/3/11
f 156/3/12 163/3/12 155/3/12
f 157/3/13 164/3/13 156/3/13
f 158/3/14 165/3/14 157/3/14
f 159/3/15 166/3/15 158/3/15
f 160/3/16 167/3/16 159/3/16
f 153/3/17 168/3/17 160/3/17
f 162/3/18 169/3/18 161/3/18
f 163/3/37 170/3/37 162/3/37
f 164/3/20 171/3/20 163/3/20
f 164/3/21 173/3/21 172/3/21
f 166/3/22 173/3/22 165/3/22
f 167/3/38 174/3/38 166/3/38
f 168/3/24 175/3/24 167/3/24
f 168/3/25 169/3/25 176/3/25
f 174/3/26 175/3/26 176/3/26
f 179/4/1 177/4/1 180/4/1
f 182/4/26 184/4/26 181/4/26
f 178/4/10 181/4/10 177/4/10
f 179/4/12 182/4/12 178/4/12
f 180/4/14 183/4/14 179/4/14
f 177/4/16 184/4/16 180/4/16
f 187/2/14 186/2/14 185/2/14
f 186/2/32 191/2/32 185/2/32
f 187/2/16 192/2/16 186/2/16
f 188/2/33 193/2/33 187/2/33
f 189/2/34 194/2/34 188/2/34
f 190/2/12 195/2/12 189/2/12
f 185/2/35 196/2/35 190/2/35
f 195/2/10 196/2/10 192/2/10
f 199/2/14 198/2/14 197/2/14
f 198/2/32 203/2/32 197/2/32
f 199/2/16 204/2/16 198/2/16
f 200/2/33 205/2/33 199/2/33
f 201/2/34 206/2/34 200/2/34
f 202/2/12 207/2/12 201/2/12
f 197/2/35 208/2/35 202/2/35
f 207/2/10 208/2/10 204/2/10
f 210/3/1 209/3/1 213/3/1
f 210/3/2 217/3/2 209/3/2
f 211/3/3 218/3/3 210/3/3
f 212/3/4 219/3/4 211/3/4
f 213/3/5 220/3/5 212/3/5
f 214/3/6 221/3/6 213/3/6
f 214/3/7 223/3/7 222/3/7
f 216/3/8 223/3/8 215/3/8
f 216/3/36 217/3/36 224/3/36
f 218/3/10 225/3/10 217/3/10
f 219/3/11 226/3/11 218/3/11
f 220/3/12 227/3/12 219/3/12
f 221/3/13 228/3/13 220/3/13
f 222/3/14 229/3/14 221/3/14
f 223/3/15 230/3/15 222/3/15
f 224/3/16 231/3/16 223/3/16
f 217/3/17 232/3/17 224/3/17
f 226/3/18 233/3/18 225/3/18
f 226/3/19 235/3/19 234/3/19
f 228/3/20 235/3/20 227/3/20
f 228/3/21 237/3/21 236/3/21
f 230/3/22 237/3/22 229/3/22
f 231/3/23 238/3/23 230/3/23
f 232/3/24 239/3/24 231/3/24
f 225/3/25 240/3/25 232/3/25
f 238/3/26 239/3/26 240/3/26
f 243/4/1 241/4/1 244/4/1
f 246/4/26 248/4/26 245/4/26
f 242/4/10 245/4/10 241/4/10
f 243/4/12 246/4/12 242/4/12
f 244/4/14 247/4/14 243/4/14
f 241/4/16 248/4/16 244/4/16
f 251/2/14 250/2/14 249/2/14
f 250/2/32 255/2/32 249/2/32
f 251/2/16 256/2/16 250/2/16
f 252/2/33 257/2/33 251/2/33
f 253/2/34 258/2/34 252/2/34
f 254/2/12 259/2/12 253/2/12
f 249/2/35 260/2/35 254/2/35
f 259/2/10 260/2/10 256/2/10
f 263/2/14 262/2/14 261/2/14
f 262/2/32 267/2/32 261/2/32
f 263/2/16 268/2/16 262/2/16
f 264/2/33 269/2/33 263/2/33
f 265/2/34 270/2/34 264/2/34
f 266/2/12 271/2/12 265/2/12
f 261/2/35 272/2/35 266/2/35
f 271/2/10 272/2/10 268/2/10
f 275/5/1 273/5/1 276/5/1
f 278/5/26 280/5/26 277/5/26
f 274/5/10 277/5/10 273/5/10
f 275/5/12 278/5/12 274/5/12
f 276/5/14 279/5/14 275/5/14
f 273/5/16 280/5/16 276/5/16
f 283/5/1 281/5/1 284/5/1
f 286/5/26 288/5/26 285/5/26
f 282/5/10 285/5/10 281/5/10
f 283/5/12 286/5/12 282/5/12
f 284/5/14 287/5/14 283/5/14
f 281/5/16 288/5/16 284/5/16
f 291/5/1 289/5/1 292/5/1
f 294/5/26 296/5/26 293/5/26
f 290/5/10 293/5/10 289/5/10
f 291/5/12 294/5/12 290/5/12
f 292/5/14 295/5/14 291/5/14
f 289/5/16 296/5/16 292/5/16
f 299/5/1 297/5/1 300/5/1
f 302/5/26 304/5/26 301/5/26
f 298/5/10 301/5/10 297/5/10
f 299/5/12 302/5/12 298/5/12
f 300/5/14 303/5/14 299/5/14
f 297/5/16 304/5/16 300/5/16
f 307/5/1 305/5/1 308/5/1
f 310/5/26 312/5/26 309/5/26
f 306/5/10 309/5/10 305/5/10
f 307/5/12 310/5/12 306/5/12
f 308/5/14 311/5/14 307/5/14
f 305/5/16 312/5/16 308/5/16
f 315/5/1 313/5/1 316/5/1
f 318/5/26 320/5/26 317/5/26
f 314/5/10 317/5/10 313/5/10
f 315/5/12 318/5/12 314/5/12
f 316/5/14 319/5/14 315/5/14
f 313/5/16 320/5/16 316/5/16
f 1/1/1 8/1/1 7/1/1
f 7/1/1 6/1/1 1/1/1
f 6/1/1 5/1/1 1/1/1
f 5/1/1 4/1/1 3/1/1
f 3/1/1 2/1/1 5/1/1
f 2/1/2 10/1/2 9/1/2
f 2/1/3 3/1/3 11/1/3
f 4/1/4 12/1/4 11/1/4
f 5/1/5 13/1/5 12/1/5
f 6/1/6 14/1/6 13/1/6
f 6/1/7 7/1/7 15/1/7
f 8/1/8 16/1/8 15/1/8
f 1/1/9 9/1/9 16/1/9
f 10/1/10 18/1/10 17/1/10
f 11/1/11 19/1/11 18/1/11
f 12/1/12 20/1/12 19/1/12
f 13/1/13 21/1/13 20/1/13
f 14/1/14 22/1/14 21/1/14
f 15/1/15 23/1/15 22/1/15
f 16/1/16 24/1/16 23/1/16
f 9/1/17 17/1/17 24/1/17
f 18/1/18 26/1/18 25/1/18
f 19/1/19 27/1/19 26/1/19
f 20/1/20 28/1/20 27/1/20
f 20/1/21 21/1/21 29/1/21
f 22/1/22 30/1/22 29/1/22
f 23/1/23 31/1/23 30/1/23
f 24/1/24 32/1/24 31/1/24
f 24/1/25 17/1/25 25/1/25
f 32/1/26 25/1/26 30/1/26
f 25/1/26 26/1/26 30/1/26
f 26/1/26 27/1/26 28/1/26
f 28/1/26 29/1/26 26/1/26
f 29/1/26 30/1/26 26/1/26
f 33/2/1 38/2/1 37/2/1
f 37/2/1 36/2/1 35/2/1
f 35/2/1 34/2/1 33/2/1
f 34/2/27 40/2/27 39/2/27
f 35/2/16 41/2/16 40/2/16
f 36/2/28 42/2/28 41/2/28
f 37/2/29 43/2/29 42/2/29
f 38/2/12 44/2/12 43/2/12
f 33/2/30 39/2/30 44/2/30
f 44/2/26 39/2/26 40/2/26
f 40/2/26 41/2/26 42/2/26
f 42/2/26 43/2/26 44/2/26
f 45/2/1 50/2/1 49/2/1
f 49/2/1 48/2/1 47/2/1
f 47/2/1 46/2/1 45/2/1
f 46/2/27 52/2/27 51/2/27
f 47/2/16 53/2/16 52/2/16
f 48/2/28 54/2/28 53/2/28
f 49/2/29 55/2/29 54/2/29
f 50/2/12 56/2/12 55/2/12
f 45/2/30 51/2/30 56/2/30
f 56/2/26 51/2/26 52/2/26
f 52/2/26 53/2/26 54/2/26
f 54/2/26 55/2/26 56/2/26
f 57/2/1 62/2/1 61/2/1
f 61/2/1 60/2/1 59/2/1
f 59/2/1 58/2/1 57/2/1
f 58/2/27 64/2/27 63/2/27
f 59/2/16 65/2/16 64/2/16
f 60/2/28 66/2/28 65/2/28
f 61/2/29 67/2/29 66/2/29
f 62/2/12 68/2/12 67/2/12
f 57/2/30 63/2/30 68/2/30
f 68/2/26 63/2/26 64/2/26
f 64/2/26 65/2/26 66/2/26
f 66/2/26 67/2/26 68/2/26
f 69/2/1 74/2/1 73/2/1
f 73/2/1 72/2/1 71/2/1
f 71/2/1 70/2/1 69/2/1
f 70/2/27 76/2/27 75/2/27
f 71/2/16 77/2/16 76/2/16
f 72/2/28 78/2/28 77/2/28
f 73/2/29 79/2/29 78/2/29
f 74/2/12 80/2/12 79/2/12
f 69/2/30 75/2/30 80/2/30
f 80/2/26 75/2/26 76/2/26
f 76/2/26 77/2/26 78/2/26
f 78/2/26 79/2/26 80/2/26
f 81/3/1 88/3/1 87/3/1
f 87/3/1 86/3/1 81/3/1
f 86/3/1 85/3/1 81/3/1
f 85/3/1 84/3/1 83/3/1
f 83/3/1 82/3/1 85/3/1
f 82/3/2 90/3/2 89/3/2
f 82/3/3 83/3/3 91/3/3
f 84/3/4 92/3/4 91/3/4
f 84/3/5 85/3/5 93/3/5
f 86/3/6 94/3/6 93/3/6
f 87/3/39 95/3/39 94/3/39
f 88/3/8 96/3/8 95/3/8
f 81/3/9 89/3/9 96/3/9
f 90/3/10 98/3/10 97/3/10
f 91/3/11 99/3/11 98/3/11
f 92/3/12 100/3/12 99/3/12
f 93/3/13 101/3/13 100/3/13
f 94/3/14 102/3/14 101/3/14
f 95/3/15 103/3/15 102/3/15
f 96/3/16 104/3/16 103/3/16
f 89/3/17 97/3/17 104/3/17
f 98/3/18 106/3/18 105/3/18
f 99/3/19 107/3/19 106/3/19
f 100/3/20 108/3/20 107/3/20
f 101/3/21 109/3/21 108/3/21
f 102/3/22 110/3/22 109/3/22
f 102/3/23 103/3/23 111/3/23
f 104/3/24 112/3/24 111/3/24
f 104/3/25 97/3/25 105/3/25
f 112/3/26 105/3/26 110/3/26
f 105/3/26 106/3/26 110/3/26
f 106/3/26 107/3/26 108/3/26
f 108/3/26 109/3/26 106/3/26
f 109/3/26 110/3/26 106/3/26
f 115/4/1 114/4/1 113/4/1
f 118/4/26 119/4/26 120/4/26
f 114/4/10 118/4/10 117/4/10
f 115/4/12 119/4/12 118/4/12
f 116/4/14 120/4/14 119/4/14
f 113/4/16 117/4/16 120/4/16
f 121/2/14 126/2/14 123/2/14
f 126/2/14 125/2/14 123/2/14
f 125/2/14 124/2/14 123/2/14
f 122/2/32 128/2/32 127/2/32
f 123/2/16 129/2/16 128/2/16
f 124/2/33 130/2/33 129/2/33
f 125/2/34 131/2/34 130/2/34
f 126/2/12 132/2/12 131/2/12
f 121/2/35 127/2/35 132/2/35
f 132/2/10 127/2/10 128/2/10
f 128/2/10 129/2/10 130/2/10
f 130/2/10 131/2/10 128/2/10
f 133/2/14 138/2/14 135/2/14
f 138/2/14 137/2/14 135/2/14
f 137/2/14 136/2/14 135/2/14
f 134/2/32 140/2/32 139/2/32
f 135/2/16 141/2/16 140/2/16
f 136/2/33 142/2/33 141/2/33
f 137/2/34 143/2/34 142/2/34
f 138/2/12 144/2/12 143/2/12
f 133/2/35 139/2/35 144/2/35
f 144/2/10 139/2/10 140/2/10
f 140/2/10 141/2/10 142/2/10
f 142/2/10 143/2/10 140/2/10
f 145/3/1 152/3/1 151/3/1
f 151/3/1 150/3/1 145/3/1
f 150/3/1 149/3/1 145/3/1
f 149/3/1 148/3/1 147/3/1
f 147/3/1 146/3/1 149/3/1
f 146/3/2 154/3/2 153/3/2
f 147/3/40 155/3/40 154/3/40
f 148/3/4 156/3/4 155/3/4
f 149/3/5 157/3/5 156/3/5
f 150/3/6 158/3/6 157/3/6
f 151/3/39 159/3/39 158/3/39
f 152/3/8 160/3/8 159/3/8
f 145/3/9 153/3/9 160/3/9
f 154/3/10 162/3/10 161/3/10
f 155/3/11 163/3/11 162/3/11
f 156/3/12 164/3/12 163/3/12
f 157/3/13 165/3/13 164/3/13
f 158/3/14 166/3/14 165/3/14
f 159/3/15 167/3/15 166/3/15
f 160/3/16 168/3/16 167/3/16
f 153/3/17 161/3/17 168/3/17
f 162/3/18 170/3/18 169/3/18
f 163/3/19 171/3/19 170/3/19
f 164/3/20 172/3/20 171/3/20
f 164/3/41 165/3/41 173/3/41
f 166/3/22 174/3/22 173/3/22
f 167/3/23 175/3/23 174/3/23
f 168/3/24 176/3/24 175/3/24
f 168/3/42 161/3/42 169/3/42
f 176/3/26 169/3/26 174/3/26
f 169/3/26 170/3/26 174/3/26
f 170/3/26 171/3/26 172/3/26
f 172/3/26 173/3/26 170/3/26
f 173/3/26 174/3/26 170/3/26
f 179/4/1 178/4/1 177/4/1
f 182/4/26 183/4/26 184/4/26
f 178/4/10 182/4/10 181/4/10
f 179/4/12 183/4/12 182/4/12
f 180/4/14 184/4/14 183/4/14
f 177/4/16 181/4/16 184/4/16
f 185/2/14 190/2/14 187/2/14
f 190/2/14 189/2/14 187/2/14
f 189/2/14 188/2/14 187/2/14
f 186/2/32 192/2/32 191/2/32
f 187/2/16 193/2/16 192/2/16
f 188/2/33 194/2/33 193/2/33
f 189/2/34 195/2/34 194/2/34
f 190/2/12 196/2/12 195/2/12
f 185/2/35 191/2/35 196/2/35
f 196/2/10 191/2/10 192/2/10
f 192/2/10 193/2/10 194/2/10
f 194/2/10 195/2/10 192/2/10
f 197/2/14 202/2/14 199/2/14
f 202/2/14 201/2/14 199/2/14
f 201/2/14 200/2/14 199/2/14
f 198/2/32 204/2/32 203/2/32
f 199/2/16 205/2/16 204/2/16
f 200/2/33 206/2/33 205/2/33
f 201/2/34 207/2/34 206/2/34
f 202/2/12 208/2/12 207/2/12
f 197/2/35 203/2/35 208/2/35
f 208/2/10 203/2/10 204/2/10
f 204/2/10 205/2/10 206/2/10
f 206/2/10 207/2/10 204/2/10
f 209/3/1 216/3/1 215/3/1
f 215/3/1 214/3/1 209/3/1
f 214/3/1 213/3/1 209/3/1
f 213/3/1 212/3/1 211/3/1
f 211/3/1 210/3/1 213/3/1
f 210/3/2 218/3/2 217/3/2
f 211/3/40 219/3/40 218/3/40
f 212/3/4 220/3/4 219/3/4
f 213/3/5 221/3/5 220/3/5
f 214/3/6 222/3/6 221/3/6
f 214/3/7 215/3/7 223/3/7
f 216/3/8 224/3/8 223/3/8
f 216/3/9 209/3/9 217/3/9
f 218/3/10 226/3/10 225/3/10
f 219/3/11 227/3/11 226/3/11
f 220/3/12 228/3/12 227/3/12
f 221/3/13 229/3/13 228/3/13
f 222/3/14 230/3/14 229/3/14
f 223/3/15 231/3/15 230/3/15
f 224/3/16 232/3/16 231/3/16
f 217/3/17 225/3/17 232/3/17
f 226/3/18 234/3/18 233/3/18
f 226/3/19 227/3/19 235/3/19
f 228/3/20 236/3/20 235/3/20
f 228/3/21 229/3/21 237/3/21
f 230/3/22 238/3/22 237/3/22
f 231/3/23 239/3/23 238/3/23
f 232/3/24 240/3/24 239/3/24
f 225/3/25 233/3/25 240/3/25
f 240/3/26 233/3/26 238/3/26
f 233/3/26 234/3/26 238/3/26
f 234/3/26 235/3/26 236/3/26
f 236/3/26 237/3/26 234/3/26
f 237/3/26 238/3/26 234/3/26
f 243/4/1 242/4/1 241/4/1
f 246/4/26 247/4/26 248/4/26
f 242/4/10 246/4/10 245/4/10
f 243/4/12 247/4/12 246/4/12
f 244/4/14 248/4/14 247/4/14
f 241/4/16 245/4/16 248/4/16
f 249/2/14 254/2/14 251/2/14
f 254/2/14 253/2/14 251/2/14
f 253/2/14 252/2/14 251/2/14
f 250/2/32 256/2/32 255/2/32
f 251/2/16 257/2/16 256/2/16
f 252/2/33 258/2/33 257/2/33
f 253/2/34 259/2/34 258/2/34
f 254/2/12 260/2/12 259/2/12
f 249/2/35 255/2/35 260/2/35
f 260/2/10 255/2/10 256/2/10
f 256/2/10 257/2/10 258/2/10
f 258/2/10 259/2/10 256/2/10
f 261/2/14 266/2/14 263/2/14
f 266/2/14 265/2/14 263/2/14
f 265/2/14 264/2/14 263/2/14
f 262/2/32 268/2/32 267/2/32
f 263/2/16 269/2/16 268/2/16
f 264/2/33 270/2/33 269/2/33
f 265/2/34 271/2/34 270/2/34
f 266/2/12 272/2/12 271/2/12
f 261/2/35 267/2/35 272/2/35
f 272/2/10 267/2/10 268/2/10
f 268/2/10 269/2/10 270/2/10
f 270/2/10 271/2/10 268/2/10
f 275/5/1 274/5/1 273/5/1
f 278/5/26 279/5/26 280/5/26
f 274/5/10 278/5/10 277/5/10
f 275/5/12 279/5/12 278/5/12
f 276/5/14 280/5/14 279/5/14
f 273/5/16 277/5/16 280/5/16
f 283/5/1 282/5/1 281/5/1
f 286/5/26 287/5/26 288/5/26
f 282/5/10 286/5/10 285/5/10
f 283/5/12 287/5/12 286/5/12
f 284/5/14 288/5/14 287/5/14
f 281/5/16 285/5/16 288/5/16
f 291/5/1 290/5/1 289/5/1
f 294/5/26 295/5/26 296/5/26
f 290/5/10 294/5/10 293/5/10
f 291/5/12 295/5/12 294/5/12
f 292/5/14 296/5/14 295/5/14
f 289/5/16 293/5/16 296/5/16
f 299/5/1 298/5/1 297/5/1
f 302/5/26 303/5/26 304/5/26
f 298/5/10 302/5/10 301/5/10
f 299/5/12 303/5/12 302/5/12
f 300/5/14 304/5/14 303/5/14
f 297/5/16 301/5/16 304/5/16
f 307/5/1 306/5/1 305/5/1
f 310/5/26 311/5/26 312/5/26
f 306/5/10 310/5/10 309/5/10
f 307/5/12 311/5/12 310/5/12
f 308/5/14 312/5/14 311/5/14
f 305/5/16 309/5/16 312/5/16
f 315/5/1 314/5/1 313/5/1
f 318/5/26 319/5/26 320/5/26
f 314/5/10 318/5/10 317/5/10
f 315/5/12 319/5/12 318/5/12
f 316/5/14 320/5/14 319/5/14
f 313/5/16 317/5/16 320/5/16
