# Blender 5.2.1 LTS
# www.blender.org
mtllib bazooka.mtl
o BASE.012
v -0.361200 0.000000 0.350600
v 0.361200 0.000000 0.350600
v 0.375600 0.000000 0.336200
v 0.375600 0.000000 -0.336200
v 0.361200 0.000000 -0.350600
v -0.361200 0.000000 -0.350600
v -0.375600 0.000000 -0.336200
v -0.375600 0.000000 0.336200
v -0.375600 0.014400 0.365000
v 0.375600 0.014400 0.365000
v 0.390000 0.014400 0.350600
v 0.390000 0.014400 -0.350600
v 0.375600 0.014400 -0.365000
v -0.375600 0.014400 -0.365000
v -0.390000 0.014400 -0.350600
v -0.390000 0.014400 0.350600
v -0.375600 0.105600 0.365000
v 0.375600 0.105600 0.365000
v 0.390000 0.105600 0.350600
v 0.390000 0.105600 -0.350600
v 0.375600 0.105600 -0.365000
v -0.375600 0.105600 -0.365000
v -0.390000 0.105600 -0.350600
v -0.390000 0.105600 0.350600
v -0.361200 0.120000 0.350600
v 0.361200 0.120000 0.350600
v 0.375600 0.120000 0.336200
v 0.375600 0.120000 -0.336200
v 0.361200 0.120000 -0.350600
v -0.361200 0.120000 -0.350600
v -0.375600 0.120000 -0.336200
v -0.375600 0.120000 0.336200
v -0.300000 0.121000 -0.302000
v -0.327713 0.121000 -0.286000
v -0.327713 0.121000 -0.254000
v -0.300000 0.121000 -0.238000
v -0.272287 0.121000 -0.254000
v -0.272287 0.121000 -0.286000
v -0.300000 0.141000 -0.302000
v -0.327713 0.141000 -0.286000
v -0.327713 0.141000 -0.254000
v -0.300000 0.141000 -0.238000
v -0.272287 0.141000 -0.254000
v -0.272287 0.141000 -0.286000
v -0.300000 0.121000 0.238000
v -0.327713 0.121000 0.254000
v -0.327713 0.121000 0.286000
v -0.300000 0.121000 0.302000
v -0.272287 0.121000 0.286000
v -0.272287 0.121000 0.254000
v -0.300000 0.141000 0.238000
v -0.327713 0.141000 0.254000
v -0.327713 0.141000 0.286000
v -0.300000 0.141000 0.302000
v -0.272287 0.141000 0.286000
v -0.272287 0.141000 0.254000
v 0.300000 0.121000 -0.302000
v 0.272287 0.121000 -0.286000
v 0.272287 0.121000 -0.254000
v 0.300000 0.121000 -0.238000
v 0.327713 0.121000 -0.254000
v 0.327713 0.121000 -0.286000
v 0.300000 0.141000 -0.302000
v 0.272287 0.141000 -0.286000
v 0.272287 0.141000 -0.254000
v 0.300000 0.141000 -0.238000
v 0.327713 0.141000 -0.254000
v 0.327713 0.141000 -0.286000
v 0.300000 0.121000 0.238000
v 0.272287 0.121000 0.254000
v 0.272287 0.121000 0.286000
v 0.300000 0.121000 0.302000
v 0.327713 0.121000 0.286000
v 0.327713 0.121000 0.254000
v 0.300000 0.141000 0.238000
v 0.272287 0.141000 0.254000
v 0.272287 0.141000 0.286000
v 0.300000 0.141000 0.302000
v 0.327713 0.141000 0.286000
v 0.327713 0.141000 0.254000
v 0.000000 0.110000 -0.360000
v -0.180000 0.110000 -0.311769
v -0.311769 0.110000 -0.180000
v -0.360000 0.110000 -0.000000
v -0.311769 0.110000 0.180000
v -0.180000 0.110000 0.311769
v -0.000000 0.110000 0.360000
v 0.180000 0.110000 0.311769
v 0.311769 0.110000 0.180000
v 0.360000 0.110000 0.000000
v 0.311769 0.110000 -0.180000
v 0.180000 0.110000 -0.311769
v 0.000000 0.210000 -0.360000
v -0.180000 0.210000 -0.311769
v -0.311769 0.210000 -0.180000
v -0.360000 0.210000 -0.000000
v -0.311769 0.210000 0.180000
v -0.180000 0.210000 0.311769
v -0.000000 0.210000 0.360000
v 0.180000 0.210000 0.311769
v 0.311769 0.210000 0.180000
v 0.360000 0.210000 0.000000
v 0.311769 0.210000 -0.180000
v 0.180000 0.210000 -0.311769
vn -0.0000 -1.0000 -0.0000
vn -0.0000 -0.7071 0.7071
vn 0.4082 -0.8165 0.4082
vn 0.7071 -0.7071 -0.0000
vn 0.4082 -0.8165 -0.4082
vn -0.0000 -0.7071 -0.7071
vn -0.4082 -0.8165 -0.4082
vn -0.7071 -0.7071 -0.0000
vn -0.4082 -0.8165 0.4082
vn -0.0000 -0.0000 1.0000
vn 0.7071 -0.0000 0.7071
vn 1.0000 -0.0000 -0.0000
vn 0.7071 -0.0000 -0.7071
vn -0.0000 -0.0000 -1.0000
vn -0.7071 -0.0000 -0.7071
vn -1.0000 -0.0000 -0.0000
vn -0.7071 -0.0000 0.7071
vn -0.0000 0.7071 0.7071
vn 0.4082 0.8165 0.4082
vn 0.7071 0.7071 -0.0000
vn 0.4082 0.8165 -0.4082
vn -0.0000 0.7071 -0.7071
vn -0.4082 0.8165 -0.4082
vn -0.7071 0.7071 -0.0000
vn -0.4082 0.8165 0.4082
vn -0.0000 1.0000 -0.0000
vn -0.5000 -0.0000 -0.8660
vn -0.5000 -0.0000 0.8660
vn 0.5000 -0.0000 0.8660
vn 0.5000 -0.0000 -0.8660
vn -0.2588 -0.0000 -0.9659
vn -0.9659 -0.0000 -0.2588
vn -0.9659 -0.0000 0.2588
vn -0.2588 -0.0000 0.9659
vn 0.2588 -0.0000 0.9659
vn 0.9659 -0.0000 0.2588
vn 0.9659 -0.0000 -0.2588
vn 0.2588 -0.0000 -0.9659
vt 0.625000 0.125000
vt 0.375000 0.875000
vt 0.125000 0.625000
s 0
usemtl Military_Equipment_Palette
f 2/1/1 1/1/1 5/1/1
f 2/1/2 9/1/2 1/1/2
f 2/1/3 11/1/3 10/1/3
f 4/1/4 11/1/4 3/1/4
f 5/1/5 12/1/5 4/1/5
f 6/1/6 13/1/6 5/1/6
f 6/1/7 15/1/7 14/1/7
f 8/1/8 15/1/8 7/1/8
f 1/1/9 16/1/9 8/1/9
f 10/1/10 17/1/10 9/1/10
f 11/1/11 18/1/11 10/1/11
f 12/1/12 19/1/12 11/1/12
f 13/1/13 20/1/13 12/1/13
f 14/1/14 21/1/14 13/1/14
f 15/1/15 22/1/15 14/1/15
f 16/1/16 23/1/16 15/1/16
f 9/1/17 24/1/17 16/1/17
f 18/1/18 25/1/18 17/1/18
f 19/1/19 26/1/19 18/1/19
f 20/1/20 27/1/20 19/1/20
f 20/1/21 29/1/21 28/1/21
f 22/1/22 29/1/22 21/1/22
f 23/1/23 30/1/23 22/1/23
f 24/1/24 31/1/24 23/1/24
f 24/1/25 25/1/25 32/1/25
f 30/1/26 31/1/26 32/1/26
f 37/2/1 35/2/1 33/2/1
f 34/2/27 39/2/27 33/2/27
f 35/2/16 40/2/16 34/2/16
f 36/2/28 41/2/28 35/2/28
f 37/2/29 42/2/29 36/2/29
f 38/2/12 43/2/12 37/2/12
f 33/2/30 44/2/30 38/2/30
f 40/2/26 42/2/26 44/2/26
f 49/2/1 47/2/1 45/2/1
f 46/2/27 51/2/27 45/2/27
f 47/2/16 52/2/16 46/2/16
f 48/2/28 53/2/28 47/2/28
f 49/2/29 54/2/29 48/2/29
f 50/2/12 55/2/12 49/2/12
f 45/2/30 56/2/30 50/2/30
f 52/2/26 54/2/26 56/2/26
f 61/2/1 59/2/1 57/2/1
f 58/2/27 63/2/27 57/2/27
f 59/2/16 64/2/16 58/2/16
f 60/2/28 65/2/28 59/2/28
f 61/2/29 66/2/29 60/2/29
f 62/2/12 67/2/12 61/2/12
f 57/2/30 68/2/30 62/2/30
f 64/2/26 66/2/26 68/2/26
f 73/2/1 71/2/1 69/2/1
f 70/2/27 75/2/27 69/2/27
f 71/2/16 76/2/16 70/2/16
f 72/2/28 77/2/28 71/2/28
f 73/2/29 78/2/29 72/2/29
f 74/2/12 79/2/12 73/2/12
f 69/2/30 80/2/30 74/2/30
f 76/2/26 78/2/26 80/2/26
f 89/3/1 85/3/1 81/3/1
f 82/3/31 93/3/31 81/3/31
f 83/3/15 94/3/15 82/3/15
f 84/3/32 95/3/32 83/3/32
f 85/3/33 96/3/33 84/3/33
f 86/3/17 97/3/17 85/3/17
f 87/3/34 98/3/34 86/3/34
f 88/3/35 99/3/35 87/3/35
f 89/3/11 100/3/11 88/3/11
f 90/3/36 101/3/36 89/3/36
f 91/3/37 102/3/37 90/3/37
f 92/3/13 103/3/13 91/3/13
f 81/3/38 104/3/38 92/3/38
f 96/3/26 100/3/26 104/3/26
f 1/1/1 8/1/1 7/1/1
f 7/1/1 6/1/1 1/1/1
f 6/1/1 5/1/1 1/1/1
f 5/1/1 4/1/1 3/1/1
f 3/1/1 2/1/1 5/1/1
f 2/1/2 10/1/2 9/1/2
f 2/1/3 3/1/3 11/1/3
f 4/1/4 12/1/4 11/1/4
f 5/1/5 13/1/5 12/1/5
f 6/1/6 14/1/6 13/1/6
f 6/1/7 7/1/7 15/1/7
f 8/1/8 16/1/8 15/1/8
f 1/1/9 9/1/9 16/1/9
f 10/1/10 18/1/10 17/1/10
f 11/1/11 19/1/11 18/1/11
f 12/1/12 20/1/12 19/1/12
f 13/1/13 21/1/13 20/1/13
f 14/1/14 22/1/14 21/1/14
f 15/1/15 23/1/15 22/1/15
f 16/1/16 24/1/16 23/1/16
f 9/1/17 17/1/17 24/1/17
f 18/1/18 26/1/18 25/1/18
f 19/1/19 27/1/19 26/1/19
f 20/1/20 28/1/20 27/1/20
f 20/1/21 21/1/21 29/1/21
f 22/1/22 30/1/22 29/1/22
f 23/1/23 31/1/23 30/1/23
f 24/1/24 32/1/24 31/1/24
f 24/1/25 17/1/25 25/1/25
f 32/1/26 25/1/26 30/1/26
f 25/1/26 26/1/26 30/1/26
f 26/1/26 27/1/26 28/1/26
f 28/1/26 29/1/26 26/1/26
f 29/1/26 30/1/26 26/1/26
f 33/2/1 38/2/1 37/2/1
f 37/2/1 36/2/1 35/2/1
f 35/2/1 34/2/1 33/2/1
f 34/2/27 40/2/27 39/2/27
f 35/2/16 41/2/16 40/2/16
f 36/2/28 42/2/28 41/2/28
f 37/2/29 43/2/29 42/2/29
f 38/2/12 44/2/12 43/2/12
f 33/2/30 39/2/30 44/2/30
f 44/2/26 39/2/26 40/2/26
f 40/2/26 41/2/26 42/2/26
f 42/2/26 43/2/26 44/2/26
f 45/2/1 50/2/1 49/2/1
f 49/2/1 48/2/1 47/2/1
f 47/2/1 46/2/1 45/2/1
f 46/2/27 52/2/27 51/2/27
f 47/2/16 53/2/16 52/2/16
f 48/2/28 54/2/28 53/2/28
f 49/2/29 55/2/29 54/2/29
f 50/2/12 56/2/12 55/2/12
f 45/2/30 51/2/30 56/2/30
f 56/2/26 51/2/26 52/2/26
f 52/2/26 53/2/26 54/2/26
f 54/2/26 55/2/26 56/2/26
f 57/2/1 62/2/1 61/2/1
f 61/2/1 60/2/1 59/2/1
f 59/2/1 58/2/1 57/2/1
f 58/2/27 64/2/27 63/2/27
f 59/2/16 65/2/16 64/2/16
f 60/2/28 66/2/28 65/2/28
f 61/2/29 67/2/29 66/2/29
f 62/2/12 68/2/12 67/2/12
f 57/2/30 63/2/30 68/2/30
f 68/2/26 63/2/26 64/2/26
f 64/2/26 65/2/26 66/2/26
f 66/2/26 67/2/26 68/2/26
f 69/2/1 74/2/1 73/2/1
f 73/2/1 72/2/1 71/2/1
f 71/2/1 70/2/1 69/2/1
f 70/2/27 76/2/27 75/2/27
f 71/2/16 77/2/16 76/2/16
f 72/2/28 78/2/28 77/2/28
f 73/2/29 79/2/29 78/2/29
f 74/2/12 80/2/12 79/2/12
f 69/2/30 75/2/30 80/2/30
f 80/2/26 75/2/26 76/2/26
f 76/2/26 77/2/26 78/2/26
f 78/2/26 79/2/26 80/2/26
f 81/3/1 92/3/1 91/3/1
f 91/3/1 90/3/1 89/3/1
f 89/3/1 88/3/1 87/3/1
f 87/3/1 86/3/1 85/3/1
f 85/3/1 84/3/1 83/3/1
f 83/3/1 82/3/1 81/3/1
f 81/3/1 91/3/1 89/3/1
f 89/3/1 87/3/1 85/3/1
f 85/3/1 83/3/1 81/3/1
f 82/3/31 94/3/31 93/3/31
f 83/3/15 95/3/15 94/3/15
f 84/3/32 96/3/32 95/3/32
f 85/3/33 97/3/33 96/3/33
f 86/3/17 98/3/17 97/3/17
f 87/3/34 99/3/34 98/3/34
f 88/3/35 100/3/35 99/3/35
f 89/3/11 101/3/11 100/3/11
f 90/3/36 102/3/36 101/3/36
f 91/3/37 103/3/37 102/3/37
f 92/3/13 104/3/13 103/3/13
f 81/3/38 93/3/38 104/3/38
f 104/3/26 93/3/26 94/3/26
f 94/3/26 95/3/26 96/3/26
f 96/3/26 97/3/26 98/3/26
f 98/3/26 99/3/26 100/3/26
f 100/3/26 101/3/26 102/3/26
f 102/3/26 103/3/26 104/3/26
f 104/3/26 94/3/26 96/3/26
f 96/3/26 98/3/26 100/3/26
f 100/3/26 102/3/26 104/3/26
o MOVING.005
v 0.000000 0.130000 -0.290000
v -0.170458 0.130000 -0.234615
v -0.275806 0.130000 -0.089615
v -0.275806 0.130000 0.089615
v -0.170458 0.130000 0.234615
v -0.000000 0.130000 0.290000
v 0.170458 0.130000 0.234615
v 0.275806 0.130000 0.089615
v 0.275806 0.130000 -0.089615
v 0.170458 0.130000 -0.234615
v 0.000000 0.470000 -0.290000
v -0.170458 0.470000 -0.234615
v -0.275806 0.470000 -0.089615
v -0.275806 0.470000 0.089615
v -0.170458 0.470000 0.234615
v -0.000000 0.470000 0.290000
v 0.170458 0.470000 0.234615
v 0.275806 0.470000 0.089615
v 0.275806 0.470000 -0.089615
v 0.170458 0.470000 -0.234615
v -0.255000 0.320000 0.260000
v 0.255000 0.320000 0.260000
v 0.280000 0.320000 0.235000
v 0.280000 0.320000 -0.235000
v 0.255000 0.320000 -0.260000
v -0.255000 0.320000 -0.260000
v -0.280000 0.320000 -0.235000
v -0.280000 0.320000 0.235000
v -0.280000 0.345000 0.285000
v 0.280000 0.345000 0.285000
v 0.305000 0.345000 0.260000
v 0.305000 0.345000 -0.260000
v 0.280000 0.345000 -0.285000
v -0.280000 0.345000 -0.285000
v -0.305000 0.345000 -0.260000
v -0.305000 0.345000 0.260000
v -0.280000 0.695000 0.285000
v 0.280000 0.695000 0.285000
v 0.305000 0.695000 0.260000
v 0.305000 0.695000 -0.260000
v 0.280000 0.695000 -0.285000
v -0.280000 0.695000 -0.285000
v -0.305000 0.695000 -0.260000
v -0.305000 0.695000 0.260000
v -0.255000 0.720000 0.260000
v 0.255000 0.720000 0.260000
v 0.280000 0.720000 0.235000
v 0.280000 0.720000 -0.235000
v 0.255000 0.720000 -0.260000
v -0.255000 0.720000 -0.260000
v -0.280000 0.720000 -0.235000
v -0.280000 0.720000 0.235000
v -0.230000 0.715000 0.150000
v 0.230000 0.715000 0.150000
v 0.230000 0.715000 -0.270000
v -0.230000 0.715000 -0.270000
v -0.230000 0.775000 0.150000
v 0.230000 0.775000 0.150000
v 0.230000 0.775000 -0.270000
v -0.230000 0.775000 -0.270000
v 0.000000 0.910000 -0.375000
v -0.115000 0.879186 -0.375000
v -0.199186 0.795000 -0.375000
v -0.230000 0.680000 -0.375000
v -0.199186 0.565000 -0.375000
v -0.115000 0.480814 -0.375000
v -0.000000 0.450000 -0.375000
v 0.115000 0.480814 -0.375000
v 0.199186 0.565000 -0.375000
v 0.230000 0.680000 -0.375000
v 0.199186 0.795000 -0.375000
v 0.115000 0.879186 -0.375000
v 0.000000 0.910000 1.375000
v -0.115000 0.879186 1.375000
v -0.199186 0.795000 1.375000
v -0.230000 0.680000 1.375000
v -0.199186 0.565000 1.375000
v -0.115000 0.480814 1.375000
v -0.000000 0.450000 1.375000
v 0.115000 0.480814 1.375000
v 0.199186 0.565000 1.375000
v 0.230000 0.680000 1.375000
v 0.199186 0.795000 1.375000
v 0.115000 0.879186 1.375000
v 0.000000 0.970000 -0.470000
v -0.145000 0.931147 -0.470000
v -0.251147 0.825000 -0.470000
v -0.290000 0.680000 -0.470000
v -0.251147 0.535000 -0.470000
v -0.145000 0.428853 -0.470000
v -0.000000 0.390000 -0.470000
v 0.145000 0.428853 -0.470000
v 0.251147 0.535000 -0.470000
v 0.290000 0.680000 -0.470000
v 0.251147 0.825000 -0.470000
v 0.145000 0.931147 -0.470000
v 0.000000 0.970000 -0.310000
v -0.145000 0.931147 -0.310000
v -0.251147 0.825000 -0.310000
v -0.290000 0.680000 -0.310000
v -0.251147 0.535000 -0.310000
v -0.145000 0.428853 -0.310000
v -0.000000 0.390000 -0.310000
v 0.145000 0.428853 -0.310000
v 0.251147 0.535000 -0.310000
v 0.290000 0.680000 -0.310000
v 0.251147 0.825000 -0.310000
v 0.145000 0.931147 -0.310000
v 0.000000 0.885000 -0.481000
v -0.102500 0.857535 -0.481000
v -0.177535 0.782500 -0.481000
v -0.205000 0.680000 -0.481000
v -0.177535 0.577500 -0.481000
v -0.102500 0.502465 -0.481000
v -0.000000 0.475000 -0.481000
v 0.102500 0.502465 -0.481000
v 0.177535 0.577500 -0.481000
v 0.205000 0.680000 -0.481000
v 0.177535 0.782500 -0.481000
v 0.102500 0.857535 -0.481000
v 0.000000 0.885000 -0.469000
v -0.102500 0.857535 -0.469000
v -0.177535 0.782500 -0.469000
v -0.205000 0.680000 -0.469000
v -0.177535 0.577500 -0.469000
v -0.102500 0.502465 -0.469000
v -0.000000 0.475000 -0.469000
v 0.102500 0.502465 -0.469000
v 0.177535 0.577500 -0.469000
v 0.205000 0.680000 -0.469000
v 0.177535 0.782500 -0.469000
v 0.102500 0.857535 -0.469000
v 0.000000 0.970000 1.320000
v -0.145000 0.931147 1.320000
v -0.251147 0.825000 1.320000
v -0.290000 0.680000 1.320000
v -0.251147 0.535000 1.320000
v -0.145000 0.428853 1.320000
v -0.000000 0.390000 1.320000
v 0.145000 0.428853 1.320000
v 0.251147 0.535000 1.320000
v 0.290000 0.680000 1.320000
v 0.251147 0.825000 1.320000
v 0.145000 0.931147 1.320000
v 0.000000 0.970000 1.480000
v -0.145000 0.931147 1.480000
v -0.251147 0.825000 1.480000
v -0.290000 0.680000 1.480000
v -0.251147 0.535000 1.480000
v -0.145000 0.428853 1.480000
v -0.000000 0.390000 1.480000
v 0.145000 0.428853 1.480000
v 0.251147 0.535000 1.480000
v 0.290000 0.680000 1.480000
v 0.251147 0.825000 1.480000
v 0.145000 0.931147 1.480000
v 0.000000 0.885000 1.479000
v -0.102500 0.857535 1.479000
v -0.177535 0.782500 1.479000
v -0.205000 0.680000 1.479000
v -0.177535 0.577500 1.479000
v -0.102500 0.502465 1.479000
v -0.000000 0.475000 1.479000
v 0.102500 0.502465 1.479000
v 0.177535 0.577500 1.479000
v 0.205000 0.680000 1.479000
v 0.177535 0.782500 1.479000
v 0.102500 0.857535 1.479000
v 0.000000 0.885000 1.491000
v -0.102500 0.857535 1.491000
v -0.177535 0.782500 1.491000
v -0.205000 0.680000 1.491000
v -0.177535 0.577500 1.491000
v -0.102500 0.502465 1.491000
v -0.000000 0.475000 1.491000
v 0.102500 0.502465 1.491000
v 0.177535 0.577500 1.491000
v 0.205000 0.680000 1.491000
v 0.177535 0.782500 1.491000
v 0.102500 0.857535 1.491000
v -0.251200 0.340000 0.580600
v 0.251200 0.340000 0.580600
v 0.265600 0.340000 0.566200
v 0.265600 0.340000 -0.126200
v 0.251200 0.340000 -0.140600
v -0.251200 0.340000 -0.140600
v -0.265600 0.340000 -0.126200
v -0.265600 0.340000 0.566200
v -0.265600 0.354400 0.595000
v 0.265600 0.354400 0.595000
v 0.280000 0.354400 0.580600
v 0.280000 0.354400 -0.140600
v 0.265600 0.354400 -0.155000
v -0.265600 0.354400 -0.155000
v -0.280000 0.354400 -0.140600
v -0.280000 0.354400 0.580600
v -0.265600 0.445600 0.595000
v 0.265600 0.445600 0.595000
v 0.280000 0.445600 0.580600
v 0.280000 0.445600 -0.140600
v 0.265600 0.445600 -0.155000
v -0.265600 0.445600 -0.155000
v -0.280000 0.445600 -0.140600
v -0.280000 0.445600 0.580600
v -0.251200 0.460000 0.580600
v 0.251200 0.460000 0.580600
v 0.265600 0.460000 0.566200
v 0.265600 0.460000 -0.126200
v 0.251200 0.460000 -0.140600
v -0.251200 0.460000 -0.140600
v -0.265600 0.460000 -0.126200
v -0.265600 0.460000 0.566200
v -0.336200 0.870000 0.575600
v -0.263800 0.870000 0.575600
v -0.249400 0.870000 0.561200
v -0.249400 0.870000 0.138800
v -0.263800 0.870000 0.124400
v -0.336200 0.870000 0.124400
v -0.350600 0.870000 0.138800
v -0.350600 0.870000 0.561200
v -0.350600 0.884400 0.590000
v -0.249400 0.884400 0.590000
v -0.235000 0.884400 0.575600
v -0.235000 0.884400 0.124400
v -0.249400 0.884400 0.110000
v -0.350600 0.884400 0.110000
v -0.365000 0.884400 0.124400
v -0.365000 0.884400 0.575600
v -0.350600 0.975600 0.590000
v -0.249400 0.975600 0.590000
v -0.235000 0.975600 0.575600
v -0.235000 0.975600 0.124400
v -0.249400 0.975600 0.110000
v -0.350600 0.975600 0.110000
v -0.365000 0.975600 0.124400
v -0.365000 0.975600 0.575600
v -0.336200 0.990000 0.575600
v -0.263800 0.990000 0.575600
v -0.249400 0.990000 0.561200
v -0.249400 0.990000 0.138800
v -0.263800 0.990000 0.124400
v -0.336200 0.990000 0.124400
v -0.350600 0.990000 0.138800
v -0.350600 0.990000 0.561200
v 0.000000 0.925000 -0.197500
v -0.122500 0.892176 -0.197500
v -0.212176 0.802500 -0.197500
v -0.245000 0.680000 -0.197500
v -0.212176 0.557500 -0.197500
v -0.122500 0.467824 -0.197500
v -0.000000 0.435000 -0.197500
v 0.122500 0.467824 -0.197500
v 0.212176 0.557500 -0.197500
v 0.245000 0.680000 -0.197500
v 0.212176 0.802500 -0.197500
v 0.122500 0.892176 -0.197500
v 0.000000 0.925000 -0.142500
v -0.122500 0.892176 -0.142500
v -0.212176 0.802500 -0.142500
v -0.245000 0.680000 -0.142500
v -0.212176 0.557500 -0.142500
v -0.122500 0.467824 -0.142500
v -0.000000 0.435000 -0.142500
v 0.122500 0.467824 -0.142500
v 0.212176 0.557500 -0.142500
v 0.245000 0.680000 -0.142500
v 0.212176 0.802500 -0.142500
v 0.122500 0.892176 -0.142500
v 0.000000 0.925000 0.322500
v -0.122500 0.892176 0.322500
v -0.212176 0.802500 0.322500
v -0.245000 0.680000 0.322500
v -0.212176 0.557500 0.322500
v -0.122500 0.467824 0.322500
v -0.000000 0.435000 0.322500
v 0.122500 0.467824 0.322500
v 0.212176 0.557500 0.322500
v 0.245000 0.680000 0.322500
v 0.212176 0.802500 0.322500
v 0.122500 0.892176 0.322500
v 0.000000 0.925000 0.377500
v -0.122500 0.892176 0.377500
v -0.212176 0.802500 0.377500
v -0.245000 0.680000 0.377500
v -0.212176 0.557500 0.377500
v -0.122500 0.467824 0.377500
v -0.000000 0.435000 0.377500
v 0.122500 0.467824 0.377500
v 0.212176 0.557500 0.377500
v 0.245000 0.680000 0.377500
v 0.212176 0.802500 0.377500
v 0.122500 0.892176 0.377500
v 0.000000 0.925000 0.892500
v -0.122500 0.892176 0.892500
v -0.212176 0.802500 0.892500
v -0.245000 0.680000 0.892500
v -0.212176 0.557500 0.892500
v -0.122500 0.467824 0.892500
v -0.000000 0.435000 0.892500
v 0.122500 0.467824 0.892500
v 0.212176 0.557500 0.892500
v 0.245000 0.680000 0.892500
v 0.212176 0.802500 0.892500
v 0.122500 0.892176 0.892500
v 0.000000 0.925000 0.947500
v -0.122500 0.892176 0.947500
v -0.212176 0.802500 0.947500
v -0.245000 0.680000 0.947500
v -0.212176 0.557500 0.947500
v -0.122500 0.467824 0.947500
v -0.000000 0.435000 0.947500
v 0.122500 0.467824 0.947500
v 0.212176 0.557500 0.947500
v 0.245000 0.680000 0.947500
v 0.212176 0.802500 0.947500
v 0.122500 0.892176 0.947500
v -0.322500 0.940000 0.427500
v -0.257500 0.940000 0.427500
v -0.257500 0.940000 0.372500
v -0.322500 0.940000 0.372500
v -0.322500 1.160000 0.427500
v -0.257500 1.160000 0.427500
v -0.257500 1.160000 0.372500
v -0.322500 1.160000 0.372500
v -0.380000 1.150000 0.427500
v -0.200000 1.150000 0.427500
v -0.200000 1.150000 0.372500
v -0.380000 1.150000 0.372500
v -0.380000 1.190000 0.427500
v -0.200000 1.190000 0.427500
v -0.200000 1.190000 0.372500
v -0.380000 1.190000 0.372500
v 0.206200 0.295000 0.184400
v 0.273800 0.295000 0.184400
v 0.289400 0.295000 0.168800
v 0.289400 0.295000 0.091200
v 0.273800 0.295000 0.075600
v 0.206200 0.295000 0.075600
v 0.190600 0.295000 0.091200
v 0.190600 0.295000 0.168800
v 0.190600 0.310600 0.200000
v 0.289400 0.310600 0.200000
v 0.305000 0.310600 0.184400
v 0.305000 0.310600 0.075600
v 0.289400 0.310600 0.060000
v 0.190600 0.310600 0.060000
v 0.175000 0.310600 0.075600
v 0.175000 0.310600 0.184400
v 0.190600 0.549400 0.200000
v 0.289400 0.549400 0.200000
v 0.305000 0.549400 0.184400
v 0.305000 0.549400 0.075600
v 0.289400 0.549400 0.060000
v 0.190600 0.549400 0.060000
v 0.175000 0.549400 0.075600
v 0.175000 0.549400 0.184400
v 0.206200 0.565000 0.184400
v 0.273800 0.565000 0.184400
v 0.289400 0.565000 0.168800
v 0.289400 0.565000 0.091200
v 0.273800 0.565000 0.075600
v 0.206200 0.565000 0.075600
v 0.190600 0.565000 0.091200
v 0.190600 0.565000 0.168800
vn -0.0000 -1.0000 -0.0000
vn -0.3090 -0.0000 -0.9511
vn -0.8090 -0.0000 -0.5878
vn -1.0000 -0.0000 -0.0000
vn -0.8090 -0.0000 0.5878
vn -0.3090 -0.0000 0.9511
vn 0.3090 -0.0000 0.9511
vn 0.8090 -0.0000 0.5878
vn 1.0000 -0.0000 -0.0000
vn 0.8090 -0.0000 -0.5878
vn 0.3090 -0.0000 -0.9511
vn -0.0000 1.0000 -0.0000
vn -0.0000 -0.7071 0.7071
vn 0.4082 -0.8165 0.4082
vn 0.7071 -0.7071 -0.0000
vn 0.4082 -0.8165 -0.4082
vn -0.0000 -0.7071 -0.7071
vn -0.4082 -0.8165 -0.4082
vn -0.7071 -0.7071 -0.0000
vn -0.4082 -0.8165 0.4082
vn -0.0000 -0.0000 1.0000
vn 0.7071 -0.0000 0.7071
vn 0.7071 -0.0000 -0.7071
vn -0.0000 -0.0000 -1.0000
vn -0.7071 -0.0000 -0.7071
vn -0.7071 -0.0000 0.7071
vn -0.0000 0.7071 0.7071
vn 0.4082 0.8165 0.4082
vn 0.7071 0.7071 -0.0000
vn 0.4082 0.8165 -0.4083
vn -0.0000 0.7071 -0.7071
vn -0.4082 0.8165 -0.4082
vn -0.7071 0.7071 -0.0000
vn -0.4082 0.8165 0.4083
vn -0.2588 0.9659 -0.0000
vn -0.9659 0.2588 -0.0000
vn -0.9659 -0.2588 -0.0000
vn -0.2588 -0.9659 -0.0000
vn 0.2588 -0.9659 -0.0000
vn 0.9659 -0.2588 -0.0000
vn 0.9659 0.2588 -0.0000
vn 0.2588 0.9659 -0.0000
vn 0.4082 0.8165 -0.4082
vn -0.4082 0.8165 0.4082
vn 0.4083 -0.8165 -0.4082
vn 0.4082 0.8165 0.4083
vn -0.4082 0.8165 -0.4083
vn 0.4082 -0.8165 0.4083
vn -0.4083 -0.8165 -0.4082
vn 0.4083 0.8165 0.4083
vt 0.625000 0.125000
vt 0.125000 0.125000
vt 0.375000 0.125000
vt 0.125000 0.625000
vt 0.625000 0.875000
vt 0.875000 0.125000
vt 0.125000 0.875000
s 0
usemtl Military_Equipment_Palette
f 111/4/39 107/4/39 105/4/39
f 106/4/40 115/4/40 105/4/40
f 107/4/41 116/4/41 106/4/41
f 108/4/42 117/4/42 107/4/42
f 109/4/43 118/4/43 108/4/43
f 110/4/44 119/4/44 109/4/44
f 111/4/45 120/4/45 110/4/45
f 112/4/46 121/4/46 111/4/46
f 113/4/47 122/4/47 112/4/47
f 114/4/48 123/4/48 113/4/48
f 105/4/49 124/4/49 114/4/49
f 118/4/50 122/4/50 124/4/50
f 126/5/39 125/5/39 129/5/39
f 126/5/51 133/5/51 125/5/51
f 127/5/52 134/5/52 126/5/52
f 128/5/53 135/5/53 127/5/53
f 128/5/54 137/5/54 136/5/54
f 130/5/55 137/5/55 129/5/55
f 131/5/56 138/5/56 130/5/56
f 132/5/57 139/5/57 131/5/57
f 132/5/58 133/5/58 140/5/58
f 134/5/59 141/5/59 133/5/59
f 135/5/60 142/5/60 134/5/60
f 136/5/47 143/5/47 135/5/47
f 137/5/61 144/5/61 136/5/61
f 138/5/62 145/5/62 137/5/62
f 139/5/63 146/5/63 138/5/63
f 140/5/42 147/5/42 139/5/42
f 133/5/64 148/5/64 140/5/64
f 142/5/65 149/5/65 141/5/65
f 142/5/66 151/5/66 150/5/66
f 144/5/67 151/5/67 143/5/67
f 145/5/68 152/5/68 144/5/68
f 146/5/69 153/5/69 145/5/69
f 146/5/70 155/5/70 154/5/70
f 148/5/71 155/5/71 147/5/71
f 141/5/72 156/5/72 148/5/72
f 154/5/50 155/5/50 156/5/50
f 159/6/39 157/6/39 160/6/39
f 162/6/50 164/6/50 161/6/50
f 158/6/59 161/6/59 157/6/59
f 159/6/47 162/6/47 158/6/47
f 160/6/62 163/6/62 159/6/62
f 157/6/42 164/6/42 160/6/42
f 173/5/62 169/5/62 165/5/62
f 166/5/73 177/5/73 165/5/73
f 167/5/71 178/5/71 166/5/71
f 168/5/74 179/5/74 167/5/74
f 169/5/75 180/5/75 168/5/75
f 170/5/57 181/5/57 169/5/57
f 171/5/76 182/5/76 170/5/76
f 172/5/77 183/5/77 171/5/77
f 173/5/53 184/5/53 172/5/53
f 174/5/78 185/5/78 173/5/78
f 175/5/79 186/5/79 174/5/79
f 176/5/67 187/5/67 175/5/67
f 165/5/80 188/5/80 176/5/80
f 180/5/59 184/5/59 188/5/59
f 197/7/62 193/7/62 189/7/62
f 190/7/73 201/7/73 189/7/73
f 191/7/71 202/7/71 190/7/71
f 192/7/74 203/7/74 191/7/74
f 193/7/75 204/7/75 192/7/75
f 194/7/57 205/7/57 193/7/57
f 195/7/76 206/7/76 194/7/76
f 196/7/77 207/7/77 195/7/77
f 197/7/53 208/7/53 196/7/53
f 198/7/78 209/7/78 197/7/78
f 199/7/79 210/7/79 198/7/79
f 200/7/67 211/7/67 199/7/67
f 189/7/80 212/7/80 200/7/80
f 204/7/59 208/7/59 212/7/59
f 219/8/62 217/8/62 213/8/62
f 214/8/73 225/8/73 213/8/73
f 215/8/71 226/8/71 214/8/71
f 216/8/74 227/8/74 215/8/74
f 217/8/75 228/8/75 216/8/75
f 218/8/57 229/8/57 217/8/57
f 219/8/76 230/8/76 218/8/76
f 220/8/77 231/8/77 219/8/77
f 221/8/53 232/8/53 220/8/53
f 222/8/78 233/8/78 221/8/78
f 223/8/79 234/8/79 222/8/79
f 224/8/67 235/8/67 223/8/67
f 213/8/80 236/8/80 224/8/80
f 228/8/59 232/8/59 236/8/59
f 245/7/62 241/7/62 237/7/62
f 238/7/73 249/7/73 237/7/73
f 239/7/71 250/7/71 238/7/71
f 240/7/74 251/7/74 239/7/74
f 241/7/75 252/7/75 240/7/75
f 242/7/57 253/7/57 241/7/57
f 243/7/76 254/7/76 242/7/76
f 244/7/77 255/7/77 243/7/77
f 245/7/53 256/7/53 244/7/53
f 246/7/78 257/7/78 245/7/78
f 247/7/79 258/7/79 246/7/79
f 248/7/67 259/7/67 247/7/67
f 237/7/80 260/7/80 248/7/80
f 252/7/59 256/7/59 260/7/59
f 267/8/62 265/8/62 261/8/62
f 262/8/73 273/8/73 261/8/73
f 263/8/71 274/8/71 262/8/71
f 264/8/74 275/8/74 263/8/74
f 265/8/75 276/8/75 264/8/75
f 266/8/57 277/8/57 265/8/57
f 267/8/76 278/8/76 266/8/76
f 268/8/77 279/8/77 267/8/77
f 269/8/53 280/8/53 268/8/53
f 270/8/78 281/8/78 269/8/78
f 271/8/79 282/8/79 270/8/79
f 272/8/67 283/8/67 271/8/67
f 261/8/80 284/8/80 272/8/80
f 276/8/59 280/8/59 284/8/59
f 287/4/39 286/4/39 285/4/39
f 285/4/51 294/4/51 293/4/51
f 287/4/52 294/4/52 286/4/52
f 288/4/53 295/4/53 287/4/53
f 289/4/54 296/4/54 288/4/54
f 290/4/55 297/4/55 289/4/55
f 290/4/56 299/4/56 298/4/56
f 292/4/57 299/4/57 291/4/57
f 292/4/58 293/4/58 300/4/58
f 294/4/59 301/4/59 293/4/59
f 295/4/60 302/4/60 294/4/60
f 296/4/47 303/4/47 295/4/47
f 297/4/61 304/4/61 296/4/61
f 298/4/62 305/4/62 297/4/62
f 299/4/63 306/4/63 298/4/63
f 300/4/42 307/4/42 299/4/42
f 293/4/64 308/4/64 300/4/64
f 302/4/65 309/4/65 301/4/65
f 302/4/66 311/4/66 310/4/66
f 304/4/67 311/4/67 303/4/67
f 304/4/81 313/4/81 312/4/81
f 306/4/69 313/4/69 305/4/69
f 307/4/70 314/4/70 306/4/70
f 307/4/71 316/4/71 315/4/71
f 301/4/82 316/4/82 308/4/82
f 315/4/50 316/4/50 312/4/50
f 319/9/39 318/9/39 317/9/39
f 317/9/51 326/9/51 325/9/51
f 319/9/52 326/9/52 318/9/52
f 320/9/53 327/9/53 319/9/53
f 321/9/54 328/9/54 320/9/54
f 322/9/55 329/9/55 321/9/55
f 323/9/56 330/9/56 322/9/56
f 324/9/57 331/9/57 323/9/57
f 324/9/58 325/9/58 332/9/58
f 326/9/59 333/9/59 325/9/59
f 327/9/60 334/9/60 326/9/60
f 328/9/47 335/9/47 327/9/47
f 329/9/61 336/9/61 328/9/61
f 330/9/62 337/9/62 329/9/62
f 331/9/63 338/9/63 330/9/63
f 332/9/42 339/9/42 331/9/42
f 325/9/64 340/9/64 332/9/64
f 334/9/65 341/9/65 333/9/65
f 334/9/66 343/9/66 342/9/66
f 336/9/67 343/9/67 335/9/67
f 337/9/81 344/9/81 336/9/81
f 338/9/69 345/9/69 337/9/69
f 338/9/70 347/9/70 346/9/70
f 340/9/71 347/9/71 339/9/71
f 333/9/82 348/9/82 340/9/82
f 347/9/50 348/9/50 344/9/50
f 357/6/62 353/6/62 349/6/62
f 350/6/73 361/6/73 349/6/73
f 351/6/71 362/6/71 350/6/71
f 352/6/74 363/6/74 351/6/74
f 353/6/75 364/6/75 352/6/75
f 354/6/57 365/6/57 353/6/57
f 355/6/76 366/6/76 354/6/76
f 356/6/77 367/6/77 355/6/77
f 357/6/53 368/6/53 356/6/53
f 358/6/78 369/6/78 357/6/78
f 359/6/79 370/6/79 358/6/79
f 360/6/67 371/6/67 359/6/67
f 349/6/80 372/6/80 360/6/80
f 364/6/59 368/6/59 372/6/59
f 381/6/62 377/6/62 373/6/62
f 374/6/73 385/6/73 373/6/73
f 375/6/71 386/6/71 374/6/71
f 376/6/74 387/6/74 375/6/74
f 377/6/75 388/6/75 376/6/75
f 378/6/57 389/6/57 377/6/57
f 379/6/76 390/6/76 378/6/76
f 380/6/77 391/6/77 379/6/77
f 381/6/53 392/6/53 380/6/53
f 382/6/78 393/6/78 381/6/78
f 383/6/79 394/6/79 382/6/79
f 384/6/67 395/6/67 383/6/67
f 373/6/80 396/6/80 384/6/80
f 388/6/59 392/6/59 396/6/59
f 405/6/62 401/6/62 397/6/62
f 398/6/73 409/6/73 397/6/73
f 399/6/71 410/6/71 398/6/71
f 400/6/74 411/6/74 399/6/74
f 401/6/75 412/6/75 400/6/75
f 402/6/57 413/6/57 401/6/57
f 403/6/76 414/6/76 402/6/76
f 404/6/77 415/6/77 403/6/77
f 405/6/53 416/6/53 404/6/53
f 406/6/78 417/6/78 405/6/78
f 407/6/79 418/6/79 406/6/79
f 408/6/67 419/6/67 407/6/67
f 397/6/80 420/6/80 408/6/80
f 412/6/59 416/6/59 420/6/59
f 423/7/39 421/7/39 424/7/39
f 426/7/50 428/7/50 425/7/50
f 422/7/59 425/7/59 421/7/59
f 423/7/47 426/7/47 422/7/47
f 424/7/62 427/7/62 423/7/62
f 421/7/42 428/7/42 424/7/42
f 431/7/39 429/7/39 432/7/39
f 434/7/50 436/7/50 433/7/50
f 430/7/59 433/7/59 429/7/59
f 431/7/47 434/7/47 430/7/47
f 432/7/62 435/7/62 431/7/62
f 429/7/42 436/7/42 432/7/42
f 439/10/39 438/10/39 437/10/39
f 438/10/51 445/10/51 437/10/51
f 439/10/52 446/10/52 438/10/52
f 440/10/53 447/10/53 439/10/53
f 440/10/83 449/10/83 448/10/83
f 442/10/55 449/10/55 441/10/55
f 443/10/56 450/10/56 442/10/56
f 444/10/57 451/10/57 443/10/57
f 437/10/58 452/10/58 444/10/58
f 446/10/59 453/10/59 445/10/59
f 447/10/60 454/10/60 446/10/60
f 448/10/47 455/10/47 447/10/47
f 449/10/61 456/10/61 448/10/61
f 450/10/62 457/10/62 449/10/62
f 451/10/63 458/10/63 450/10/63
f 452/10/42 459/10/42 451/10/42
f 445/10/64 460/10/64 452/10/64
f 453/10/65 462/10/65 461/10/65
f 455/10/66 462/10/66 454/10/66
f 456/10/67 463/10/67 455/10/67
f 457/10/68 464/10/68 456/10/68
f 458/10/69 465/10/69 457/10/69
f 458/10/70 467/10/70 466/10/70
f 460/10/71 467/10/71 459/10/71
f 453/10/82 468/10/82 460/10/82
f 467/10/50 468/10/50 464/10/50
f 105/4/39 114/4/39 111/4/39
f 114/4/39 113/4/39 111/4/39
f 113/4/39 112/4/39 111/4/39
f 111/4/39 110/4/39 109/4/39
f 109/4/39 108/4/39 111/4/39
f 108/4/39 107/4/39 111/4/39
f 107/4/39 106/4/39 105/4/39
f 106/4/40 116/4/40 115/4/40
f 107/4/41 117/4/41 116/4/41
f 108/4/42 118/4/42 117/4/42
f 109/4/43 119/4/43 118/4/43
f 110/4/44 120/4/44 119/4/44
f 111/4/45 121/4/45 120/4/45
f 112/4/46 122/4/46 121/4/46
f 113/4/47 123/4/47 122/4/47
f 114/4/48 124/4/48 123/4/48
f 105/4/49 115/4/49 124/4/49
f 124/4/50 115/4/50 116/4/50
f 116/4/50 117/4/50 124/4/50
f 117/4/50 118/4/50 124/4/50
f 118/4/50 119/4/50 120/4/50
f 120/4/50 121/4/50 118/4/50
f 121/4/50 122/4/50 118/4/50
f 122/4/50 123/4/50 124/4/50
f 125/5/39 132/5/39 131/5/39
f 131/5/39 130/5/39 125/5/39
f 130/5/39 129/5/39 125/5/39
f 129/5/39 128/5/39 127/5/39
f 127/5/39 126/5/39 129/5/39
f 126/5/51 134/5/51 133/5/51
f 127/5/52 135/5/52 134/5/52
f 128/5/53 136/5/53 135/5/53
f 128/5/54 129/5/54 137/5/54
f 130/5/55 138/5/55 137/5/55
f 131/5/56 139/5/56 138/5/56
f 132/5/57 140/5/57 139/5/57
f 132/5/58 125/5/58 133/5/58
f 134/5/59 142/5/59 141/5/59
f 135/5/60 143/5/60 142/5/60
f 136/5/47 144/5/47 143/5/47
f 137/5/61 145/5/61 144/5/61
f 138/5/62 146/5/62 145/5/62
f 139/5/63 147/5/63 146/5/63
f 140/5/42 148/5/42 147/5/42
f 133/5/64 141/5/64 148/5/64
f 142/5/65 150/5/65 149/5/65
f 142/5/84 143/5/84 151/5/84
f 144/5/67 152/5/67 151/5/67
f 145/5/81 153/5/81 152/5/81
f 146/5/69 154/5/69 153/5/69
f 146/5/85 147/5/85 155/5/85
f 148/5/71 156/5/71 155/5/71
f 141/5/82 149/5/82 156/5/82
f 156/5/50 149/5/50 154/5/50
f 149/5/50 150/5/50 154/5/50
f 150/5/50 151/5/50 152/5/50
f 152/5/50 153/5/50 150/5/50
f 153/5/50 154/5/50 150/5/50
f 159/6/39 158/6/39 157/6/39
f 162/6/50 163/6/50 164/6/50
f 158/6/59 162/6/59 161/6/59
f 159/6/47 163/6/47 162/6/47
f 160/6/62 164/6/62 163/6/62
f 157/6/42 161/6/42 164/6/42
f 165/5/62 176/5/62 175/5/62
f 175/5/62 174/5/62 173/5/62
f 173/5/62 172/5/62 171/5/62
f 171/5/62 170/5/62 169/5/62
f 169/5/62 168/5/62 167/5/62
f 167/5/62 166/5/62 165/5/62
f 165/5/62 175/5/62 173/5/62
f 173/5/62 171/5/62 169/5/62
f 169/5/62 167/5/62 165/5/62
f 166/5/73 178/5/73 177/5/73
f 167/5/71 179/5/71 178/5/71
f 168/5/74 180/5/74 179/5/74
f 169/5/75 181/5/75 180/5/75
f 170/5/57 182/5/57 181/5/57
f 171/5/76 183/5/76 182/5/76
f 172/5/77 184/5/77 183/5/77
f 173/5/53 185/5/53 184/5/53
f 174/5/78 186/5/78 185/5/78
f 175/5/79 187/5/79 186/5/79
f 176/5/67 188/5/67 187/5/67
f 165/5/80 177/5/80 188/5/80
f 188/5/59 177/5/59 178/5/59
f 178/5/59 179/5/59 180/5/59
f 180/5/59 181/5/59 182/5/59
f 182/5/59 183/5/59 184/5/59
f 184/5/59 185/5/59 186/5/59
f 186/5/59 187/5/59 188/5/59
f 188/5/59 178/5/59 180/5/59
f 180/5/59 182/5/59 184/5/59
f 184/5/59 186/5/59 188/5/59
f 189/7/62 200/7/62 197/7/62
f 200/7/62 199/7/62 197/7/62
f 199/7/62 198/7/62 197/7/62
f 197/7/62 196/7/62 195/7/62
f 195/7/62 194/7/62 193/7/62
f 193/7/62 192/7/62 191/7/62
f 191/7/62 190/7/62 193/7/62
f 190/7/62 189/7/62 193/7/62
f 197/7/62 195/7/62 193/7/62
f 190/7/73 202/7/73 201/7/73
f 191/7/71 203/7/71 202/7/71
f 192/7/74 204/7/74 203/7/74
f 193/7/75 205/7/75 204/7/75
f 194/7/57 206/7/57 205/7/57
f 195/7/76 207/7/76 206/7/76
f 196/7/77 208/7/77 207/7/77
f 197/7/53 209/7/53 208/7/53
f 198/7/78 210/7/78 209/7/78
f 199/7/79 211/7/79 210/7/79
f 200/7/67 212/7/67 211/7/67
f 189/7/80 201/7/80 212/7/80
f 212/7/59 201/7/59 202/7/59
f 202/7/59 203/7/59 204/7/59
f 204/7/59 205/7/59 206/7/59
f 206/7/59 207/7/59 208/7/59
f 208/7/59 209/7/59 210/7/59
f 210/7/59 211/7/59 212/7/59
f 212/7/59 202/7/59 204/7/59
f 204/7/59 206/7/59 208/7/59
f 208/7/59 210/7/59 212/7/59
f 213/8/62 224/8/62 223/8/62
f 223/8/62 222/8/62 221/8/62
f 221/8/62 220/8/62 219/8/62
f 219/8/62 218/8/62 217/8/62
f 217/8/62 216/8/62 213/8/62
f 216/8/62 215/8/62 213/8/62
f 215/8/62 214/8/62 213/8/62
f 213/8/62 223/8/62 221/8/62
f 221/8/62 219/8/62 213/8/62
f 214/8/73 226/8/73 225/8/73
f 215/8/71 227/8/71 226/8/71
f 216/8/74 228/8/74 227/8/74
f 217/8/75 229/8/75 228/8/75
f 218/8/57 230/8/57 229/8/57
f 219/8/76 231/8/76 230/8/76
f 220/8/77 232/8/77 231/8/77
f 221/8/53 233/8/53 232/8/53
f 222/8/78 234/8/78 233/8/78
f 223/8/79 235/8/79 234/8/79
f 224/8/67 236/8/67 235/8/67
f 213/8/80 225/8/80 236/8/80
f 236/8/59 225/8/59 228/8/59
f 225/8/59 226/8/59 228/8/59
f 226/8/59 227/8/59 228/8/59
f 228/8/59 229/8/59 230/8/59
f 230/8/59 231/8/59 228/8/59
f 231/8/59 232/8/59 228/8/59
f 232/8/59 233/8/59 236/8/59
f 233/8/59 234/8/59 236/8/59
f 234/8/59 235/8/59 236/8/59
f 237/7/62 248/7/62 245/7/62
f 248/7/62 247/7/62 245/7/62
f 247/7/62 246/7/62 245/7/62
f 245/7/62 244/7/62 243/7/62
f 243/7/62 242/7/62 241/7/62
f 241/7/62 240/7/62 239/7/62
f 239/7/62 238/7/62 241/7/62
f 238/7/62 237/7/62 241/7/62
f 245/7/62 243/7/62 241/7/62
f 238/7/73 250/7/73 249/7/73
f 239/7/71 251/7/71 250/7/71
f 240/7/74 252/7/74 251/7/74
f 241/7/75 253/7/75 252/7/75
f 242/7/57 254/7/57 253/7/57
f 243/7/76 255/7/76 254/7/76
f 244/7/77 256/7/77 255/7/77
f 245/7/53 257/7/53 256/7/53
f 246/7/78 258/7/78 257/7/78
f 247/7/79 259/7/79 258/7/79
f 248/7/67 260/7/67 259/7/67
f 237/7/80 249/7/80 260/7/80
f 260/7/59 249/7/59 250/7/59
f 250/7/59 251/7/59 252/7/59
f 252/7/59 253/7/59 254/7/59
f 254/7/59 255/7/59 256/7/59
f 256/7/59 257/7/59 258/7/59
f 258/7/59 259/7/59 260/7/59
f 260/7/59 250/7/59 252/7/59
f 252/7/59 254/7/59 256/7/59
f 256/7/59 258/7/59 260/7/59
f 261/8/62 272/8/62 271/8/62
f 271/8/62 270/8/62 269/8/62
f 269/8/62 268/8/62 267/8/62
f 267/8/62 266/8/62 265/8/62
f 265/8/62 264/8/62 261/8/62
f 264/8/62 263/8/62 261/8/62
f 263/8/62 262/8/62 261/8/62
f 261/8/62 271/8/62 269/8/62
f 269/8/62 267/8/62 261/8/62
f 262/8/73 274/8/73 273/8/73
f 263/8/71 275/8/71 274/8/71
f 264/8/74 276/8/74 275/8/74
f 265/8/75 277/8/75 276/8/75
f 266/8/57 278/8/57 277/8/57
f 267/8/76 279/8/76 278/8/76
f 268/8/77 280/8/77 279/8/77
f 269/8/53 281/8/53 280/8/53
f 270/8/78 282/8/78 281/8/78
f 271/8/79 283/8/79 282/8/79
f 272/8/67 284/8/67 283/8/67
f 261/8/80 273/8/80 284/8/80
f 284/8/59 273/8/59 276/8/59
f 273/8/59 274/8/59 276/8/59
f 274/8/59 275/8/59 276/8/59
f 276/8/59 277/8/59 278/8/59
f 278/8/59 279/8/59 276/8/59
f 279/8/59 280/8/59 276/8/59
f 280/8/59 281/8/59 284/8/59
f 281/8/59 282/8/59 284/8/59
f 282/8/59 283/8/59 284/8/59
f 285/4/39 292/4/39 287/4/39
f 292/4/39 291/4/39 287/4/39
f 291/4/39 290/4/39 289/4/39
f 289/4/39 288/4/39 291/4/39
f 288/4/39 287/4/39 291/4/39
f 285/4/51 286/4/51 294/4/51
f 287/4/52 295/4/52 294/4/52
f 288/4/53 296/4/53 295/4/53
f 289/4/54 297/4/54 296/4/54
f 290/4/55 298/4/55 297/4/55
f 290/4/56 291/4/56 299/4/56
f 292/4/57 300/4/57 299/4/57
f 292/4/58 285/4/58 293/4/58
f 294/4/59 302/4/59 301/4/59
f 295/4/60 303/4/60 302/4/60
f 296/4/47 304/4/47 303/4/47
f 297/4/61 305/4/61 304/4/61
f 298/4/62 306/4/62 305/4/62
f 299/4/63 307/4/63 306/4/63
f 300/4/42 308/4/42 307/4/42
f 293/4/64 301/4/64 308/4/64
f 302/4/65 310/4/65 309/4/65
f 302/4/66 303/4/66 311/4/66
f 304/4/67 312/4/67 311/4/67
f 304/4/81 305/4/81 313/4/81
f 306/4/69 314/4/69 313/4/69
f 307/4/70 315/4/70 314/4/70
f 307/4/71 308/4/71 316/4/71
f 301/4/82 309/4/82 316/4/82
f 316/4/50 309/4/50 310/4/50
f 310/4/50 311/4/50 316/4/50
f 311/4/50 312/4/50 316/4/50
f 312/4/50 313/4/50 314/4/50
f 314/4/50 315/4/50 312/4/50
f 317/9/39 324/9/39 319/9/39
f 324/9/39 323/9/39 319/9/39
f 323/9/39 322/9/39 321/9/39
f 321/9/39 320/9/39 323/9/39
f 320/9/39 319/9/39 323/9/39
f 317/9/51 318/9/51 326/9/51
f 319/9/52 327/9/52 326/9/52
f 320/9/53 328/9/53 327/9/53
f 321/9/54 329/9/54 328/9/54
f 322/9/55 330/9/55 329/9/55
f 323/9/56 331/9/56 330/9/56
f 324/9/57 332/9/57 331/9/57
f 324/9/58 317/9/58 325/9/58
f 326/9/59 334/9/59 333/9/59
f 327/9/60 335/9/60 334/9/60
f 328/9/47 336/9/47 335/9/47
f 329/9/61 337/9/61 336/9/61
f 330/9/62 338/9/62 337/9/62
f 331/9/63 339/9/63 338/9/63
f 332/9/42 340/9/42 339/9/42
f 325/9/64 333/9/64 340/9/64
f 334/9/65 342/9/65 341/9/65
f 334/9/66 335/9/66 343/9/66
f 336/9/67 344/9/67 343/9/67
f 337/9/81 345/9/81 344/9/81
f 338/9/69 346/9/69 345/9/69
f 338/9/70 339/9/70 347/9/70
f 340/9/71 348/9/71 347/9/71
f 333/9/82 341/9/82 348/9/82
f 348/9/50 341/9/50 342/9/50
f 342/9/50 343/9/50 348/9/50
f 343/9/50 344/9/50 348/9/50
f 344/9/50 345/9/50 346/9/50
f 346/9/50 347/9/50 344/9/50
f 349/6/62 360/6/62 357/6/62
f 360/6/62 359/6/62 357/6/62
f 359/6/62 358/6/62 357/6/62
f 357/6/62 356/6/62 355/6/62
f 355/6/62 354/6/62 357/6/62
f 354/6/62 353/6/62 357/6/62
f 353/6/62 352/6/62 351/6/62
f 351/6/62 350/6/62 349/6/62
f 353/6/62 351/6/62 349/6/62
f 350/6/73 362/6/73 361/6/73
f 351/6/71 363/6/71 362/6/71
f 352/6/74 364/6/74 363/6/74
f 353/6/75 365/6/75 364/6/75
f 354/6/57 366/6/57 365/6/57
f 355/6/76 367/6/76 366/6/76
f 356/6/77 368/6/77 367/6/77
f 357/6/53 369/6/53 368/6/53
f 358/6/78 370/6/78 369/6/78
f 359/6/79 371/6/79 370/6/79
f 360/6/67 372/6/67 371/6/67
f 349/6/80 361/6/80 372/6/80
f 372/6/59 361/6/59 362/6/59
f 362/6/59 363/6/59 364/6/59
f 364/6/59 365/6/59 366/6/59
f 366/6/59 367/6/59 368/6/59
f 368/6/59 369/6/59 370/6/59
f 370/6/59 371/6/59 368/6/59
f 371/6/59 372/6/59 368/6/59
f 372/6/59 362/6/59 364/6/59
f 364/6/59 366/6/59 368/6/59
f 373/6/62 384/6/62 381/6/62
f 384/6/62 383/6/62 381/6/62
f 383/6/62 382/6/62 381/6/62
f 381/6/62 380/6/62 379/6/62
f 379/6/62 378/6/62 381/6/62
f 378/6/62 377/6/62 381/6/62
f 377/6/62 376/6/62 375/6/62
f 375/6/62 374/6/62 373/6/62
f 377/6/62 375/6/62 373/6/62
f 374/6/73 386/6/73 385/6/73
f 375/6/71 387/6/71 386/6/71
f 376/6/74 388/6/74 387/6/74
f 377/6/75 389/6/75 388/6/75
f 378/6/57 390/6/57 389/6/57
f 379/6/76 391/6/76 390/6/76
f 380/6/77 392/6/77 391/6/77
f 381/6/53 393/6/53 392/6/53
f 382/6/78 394/6/78 393/6/78
f 383/6/79 395/6/79 394/6/79
f 384/6/67 396/6/67 395/6/67
f 373/6/80 385/6/80 396/6/80
f 396/6/59 385/6/59 386/6/59
f 386/6/59 387/6/59 388/6/59
f 388/6/59 389/6/59 390/6/59
f 390/6/59 391/6/59 392/6/59
f 392/6/59 393/6/59 394/6/59
f 394/6/59 395/6/59 392/6/59
f 395/6/59 396/6/59 392/6/59
f 396/6/59 386/6/59 388/6/59
f 388/6/59 390/6/59 392/6/59
f 397/6/62 408/6/62 405/6/62
f 408/6/62 407/6/62 405/6/62
f 407/6/62 406/6/62 405/6/62
f 405/6/62 404/6/62 401/6/62
f 404/6/62 403/6/62 401/6/62
f 403/6/62 402/6/62 401/6/62
f 401/6/62 400/6/62 399/6/62
f 399/6/62 398/6/62 397/6/62
f 401/6/62 399/6/62 397/6/62
f 398/6/73 410/6/73 409/6/73
f 399/6/71 411/6/71 410/6/71
f 400/6/74 412/6/74 411/6/74
f 401/6/75 413/6/75 412/6/75
f 402/6/57 414/6/57 413/6/57
f 403/6/76 415/6/76 414/6/76
f 404/6/77 416/6/77 415/6/77
f 405/6/53 417/6/53 416/6/53
f 406/6/78 418/6/78 417/6/78
f 407/6/79 419/6/79 418/6/79
f 408/6/67 420/6/67 419/6/67
f 397/6/80 409/6/80 420/6/80
f 420/6/59 409/6/59 410/6/59
f 410/6/59 411/6/59 412/6/59
f 412/6/59 413/6/59 416/6/59
f 413/6/59 414/6/59 416/6/59
f 414/6/59 415/6/59 416/6/59
f 416/6/59 417/6/59 418/6/59
f 418/6/59 419/6/59 416/6/59
f 419/6/59 420/6/59 416/6/59
f 420/6/59 410/6/59 412/6/59
f 423/7/39 422/7/39 421/7/39
f 426/7/50 427/7/50 428/7/50
f 422/7/59 426/7/59 425/7/59
f 423/7/47 427/7/47 426/7/47
f 424/7/62 428/7/62 427/7/62
f 421/7/42 425/7/42 428/7/42
f 431/7/39 430/7/39 429/7/39
f 434/7/50 435/7/50 436/7/50
f 430/7/59 434/7/59 433/7/59
f 431/7/47 435/7/47 434/7/47
f 432/7/62 436/7/62 435/7/62
f 429/7/42 433/7/42 436/7/42
f 437/10/39 444/10/39 439/10/39
f 444/10/39 443/10/39 439/10/39
f 443/10/39 442/10/39 441/10/39
f 441/10/39 440/10/39 443/10/39
f 440/10/39 439/10/39 443/10/39
f 438/10/51 446/10/51 445/10/51
f 439/10/86 447/10/86 446/10/86
f 440/10/53 448/10/53 447/10/53
f 440/10/54 441/10/54 449/10/54
f 442/10/55 450/10/55 449/10/55
f 443/10/87 451/10/87 450/10/87
f 444/10/57 452/10/57 451/10/57
f 437/10/58 445/10/58 452/10/58
f 446/10/59 454/10/59 453/10/59
f 447/10/60 455/10/60 454/10/60
f 448/10/47 456/10/47 455/10/47
f 449/10/61 457/10/61 456/10/61
f 450/10/62 458/10/62 457/10/62
f 451/10/63 459/10/63 458/10/63
f 452/10/42 460/10/42 459/10/42
f 445/10/64 453/10/64 460/10/64
f 453/10/65 454/10/65 462/10/65
f 455/10/88 463/10/88 462/10/88
f 456/10/67 464/10/67 463/10/67
f 457/10/81 465/10/81 464/10/81
f 458/10/69 466/10/69 465/10/69
f 458/10/70 459/10/70 467/10/70
f 460/10/71 468/10/71 467/10/71
f 453/10/82 461/10/82 468/10/82
f 468/10/50 461/10/50 462/10/50
f 462/10/50 463/10/50 468/10/50
f 463/10/50 464/10/50 468/10/50
f 464/10/50 465/10/50 466/10/50
f 466/10/50 467/10/50 464/10/50
