# Blender 5.2.1 LTS
# www.blender.org
mtllib bumper.mtl
o BASE.013
v -1.610000 0.040000 0.115000
v 1.610000 0.040000 0.115000
v 1.635000 0.040000 0.090000
v 1.635000 0.040000 -0.090000
v 1.610000 0.040000 -0.115000
v -1.610000 0.040000 -0.115000
v -1.635000 0.040000 -0.090000
v -1.635000 0.040000 0.090000
v -1.635000 0.065000 0.140000
v 1.635000 0.065000 0.140000
v 1.660000 0.065000 0.115000
v 1.660000 0.065000 -0.115000
v 1.635000 0.065000 -0.140000
v -1.635000 0.065000 -0.140000
v -1.660000 0.065000 -0.115000
v -1.660000 0.065000 0.115000
v -1.635000 0.335000 0.140000
v 1.635000 0.335000 0.140000
v 1.660000 0.335000 0.115000
v 1.660000 0.335000 -0.115000
v 1.635000 0.335000 -0.140000
v -1.635000 0.335000 -0.140000
v -1.660000 0.335000 -0.115000
v -1.660000 0.335000 0.115000
v -1.610000 0.360000 0.115000
v 1.610000 0.360000 0.115000
v 1.635000 0.360000 0.090000
v 1.635000 0.360000 -0.090000
v 1.610000 0.360000 -0.115000
v -1.610000 0.360000 -0.115000
v -1.635000 0.360000 -0.090000
v -1.635000 0.360000 0.090000
v -1.436400 0.165000 0.093200
v -1.363600 0.165000 0.093200
v -1.346800 0.165000 0.076400
v -1.346800 0.165000 -0.036400
v -1.363600 0.165000 -0.053200
v -1.436400 0.165000 -0.053200
v -1.453200 0.165000 -0.036400
v -1.453200 0.165000 0.076400
v -1.453200 0.181800 0.110000
v -1.346800 0.181800 0.110000
v -1.330000 0.181800 0.093200
v -1.330000 0.181800 -0.053200
v -1.346800 0.181800 -0.070000
v -1.453200 0.181800 -0.070000
v -1.470000 0.181800 -0.053200
v -1.470000 0.181800 0.093200
v -1.453200 0.778200 0.110000
v -1.346800 0.778200 0.110000
v -1.330000 0.778200 0.093200
v -1.330000 0.778200 -0.053200
v -1.346800 0.778200 -0.070000
v -1.453200 0.778200 -0.070000
v -1.470000 0.778200 -0.053200
v -1.470000 0.778200 0.093200
v -1.436400 0.795000 0.093200
v -1.363600 0.795000 0.093200
v -1.346800 0.795000 0.076400
v -1.346800 0.795000 -0.036400
v -1.363600 0.795000 -0.053200
v -1.436400 0.795000 -0.053200
v -1.453200 0.795000 -0.036400
v -1.453200 0.795000 0.076400
v 1.363600 0.165000 0.093200
v 1.436400 0.165000 0.093200
v 1.453200 0.165000 0.076400
v 1.453200 0.165000 -0.036400
v 1.436400 0.165000 -0.053200
v 1.363600 0.165000 -0.053200
v 1.346800 0.165000 -0.036400
v 1.346800 0.165000 0.076400
v 1.346800 0.181800 0.110000
v 1.453200 0.181800 0.110000
v 1.470000 0.181800 0.093200
v 1.470000 0.181800 -0.053200
v 1.453200 0.181800 -0.070000
v 1.346800 0.181800 -0.070000
v 1.330000 0.181800 -0.053200
v 1.330000 0.181800 0.093200
v 1.346800 0.778200 0.110000
v 1.453200 0.778200 0.110000
v 1.470000 0.778200 0.093200
v 1.470000 0.778200 -0.053200
v 1.453200 0.778200 -0.070000
v 1.346800 0.778200 -0.070000
v 1.330000 0.778200 -0.053200
v 1.330000 0.778200 0.093200
v 1.363600 0.795000 0.093200
v 1.436400 0.795000 0.093200
v 1.453200 0.795000 0.076400
v 1.453200 0.795000 -0.036400
v 1.436400 0.795000 -0.053200
v 1.363600 0.795000 -0.053200
v 1.346800 0.795000 -0.036400
v 1.346800 0.795000 0.076400
v -1.436200 0.700000 0.085600
v 1.436200 0.700000 0.085600
v 1.450600 0.700000 0.071200
v 1.450600 0.700000 -0.031200
v 1.436200 0.700000 -0.045600
v -1.436200 0.700000 -0.045600
v -1.450600 0.700000 -0.031200
v -1.450600 0.700000 0.071200
v -1.450600 0.714400 0.100000
v 1.450600 0.714400 0.100000
v 1.465000 0.714400 0.085600
v 1.465000 0.714400 -0.045600
v 1.450600 0.714400 -0.060000
v -1.450600 0.714400 -0.060000
v -1.465000 0.714400 -0.045600
v -1.465000 0.714400 0.085600
v -1.450600 0.805600 0.100000
v 1.450600 0.805600 0.100000
v 1.465000 0.805600 0.085600
v 1.465000 0.805600 -0.045600
v 1.450600 0.805600 -0.060000
v -1.450600 0.805600 -0.060000
v -1.465000 0.805600 -0.045600
v -1.465000 0.805600 0.085600
v -1.436200 0.820000 0.085600
v 1.436200 0.820000 0.085600
v 1.450600 0.820000 0.071200
v 1.450600 0.820000 -0.031200
v 1.436200 0.820000 -0.045600
v -1.436200 0.820000 -0.045600
v -1.450600 0.820000 -0.031200
v -1.450600 0.820000 0.071200
v -0.550000 0.190000 0.152500
v -0.634853 0.154853 0.152500
v -0.670000 0.070000 0.152500
v -0.634853 -0.014853 0.152500
v -0.550000 -0.050000 0.152500
v -0.465147 -0.014853 0.152500
v -0.430000 0.070000 0.152500
v -0.465147 0.154853 0.152500
v -0.550000 0.190000 0.207500
v -0.634853 0.154853 0.207500
v -0.670000 0.070000 0.207500
v -0.634853 -0.014853 0.207500
v -0.550000 -0.050000 0.207500
v -0.465147 -0.014853 0.207500
v -0.430000 0.070000 0.207500
v -0.465147 0.154853 0.207500
v 0.550000 0.190000 0.152500
v 0.465147 0.154853 0.152500
v 0.430000 0.070000 0.152500
v 0.465147 -0.014853 0.152500
v 0.550000 -0.050000 0.152500
v 0.634853 -0.014853 0.152500
v 0.670000 0.070000 0.152500
v 0.634853 0.154853 0.152500
v 0.550000 0.190000 0.207500
v 0.465147 0.154853 0.207500
v 0.430000 0.070000 0.207500
v 0.465147 -0.014853 0.207500
v 0.550000 -0.050000 0.207500
v 0.634853 -0.014853 0.207500
v 0.670000 0.070000 0.207500
v 0.634853 0.154853 0.207500
v -0.350000 0.480000 0.130000
v -0.350000 0.462583 0.195000
v -0.350000 0.415000 0.242583
v -0.350000 0.350000 0.260000
v -0.350000 0.285000 0.242583
v -0.350000 0.237417 0.195000
v -0.350000 0.220000 0.130000
v -0.350000 0.237417 0.065000
v -0.350000 0.285000 0.017417
v -0.350000 0.350000 0.000000
v -0.350000 0.415000 0.017417
v -0.350000 0.462583 0.065000
v 0.350000 0.480000 0.130000
v 0.350000 0.462583 0.195000
v 0.350000 0.415000 0.242583
v 0.350000 0.350000 0.260000
v 0.350000 0.285000 0.242583
v 0.350000 0.237417 0.195000
v 0.350000 0.220000 0.130000
v 0.350000 0.237417 0.065000
v 0.350000 0.285000 0.017417
v 0.350000 0.350000 0.000000
v 0.350000 0.415000 0.017417
v 0.350000 0.462583 0.065000
v -0.305000 0.530000 0.130000
v -0.305000 0.505885 0.220000
v -0.305000 0.440000 0.285885
v -0.305000 0.350000 0.310000
v -0.305000 0.260000 0.285885
v -0.305000 0.194115 0.220000
v -0.305000 0.170000 0.130000
v -0.305000 0.194115 0.040000
v -0.305000 0.260000 -0.025885
v -0.305000 0.350000 -0.050000
v -0.305000 0.440000 -0.025885
v -0.305000 0.505885 0.040000
v -0.255000 0.530000 0.130000
v -0.255000 0.505885 0.220000
v -0.255000 0.440000 0.285885
v -0.255000 0.350000 0.310000
v -0.255000 0.260000 0.285885
v -0.255000 0.194115 0.220000
v -0.255000 0.170000 0.130000
v -0.255000 0.194115 0.040000
v -0.255000 0.260000 -0.025885
v -0.255000 0.350000 -0.050000
v -0.255000 0.440000 -0.025885
v -0.255000 0.505885 0.040000
v 0.255000 0.530000 0.130000
v 0.255000 0.505885 0.220000
v 0.255000 0.440000 0.285885
v 0.255000 0.350000 0.310000
v 0.255000 0.260000 0.285885
v 0.255000 0.194115 0.220000
v 0.255000 0.170000 0.130000
v 0.255000 0.194115 0.040000
v 0.255000 0.260000 -0.025885
v 0.255000 0.350000 -0.050000
v 0.255000 0.440000 -0.025885
v 0.255000 0.505885 0.040000
v 0.305000 0.530000 0.130000
v 0.305000 0.505885 0.220000
v 0.305000 0.440000 0.285885
v 0.305000 0.350000 0.310000
v 0.305000 0.260000 0.285885
v 0.305000 0.194115 0.220000
v 0.305000 0.170000 0.130000
v 0.305000 0.194115 0.040000
v 0.305000 0.260000 -0.025885
v 0.305000 0.350000 -0.050000
v 0.305000 0.440000 -0.025885
v 0.305000 0.505885 0.040000
vn -0.0000 -1.0000 -0.0000
vn -0.0000 -0.7071 0.7071
vn 0.4082 -0.8165 0.4083
vn 0.7071 -0.7071 -0.0000
vn 0.4082 -0.8165 -0.4082
vn -0.0000 -0.7071 -0.7071
vn -0.4082 -0.8165 -0.4083
vn -0.7071 -0.7071 -0.0000
vn -0.4082 -0.8165 0.4082
vn -0.0000 -0.0000 1.0000
vn 0.7071 -0.0000 0.7071
vn 1.0000 -0.0000 -0.0000
vn 0.7071 -0.0000 -0.7071
vn -0.0000 -0.0000 -1.0000
vn -0.7071 -0.0000 -0.7071
vn -1.0000 -0.0000 -0.0000
vn -0.7071 -0.0000 0.7071
vn -0.0000 0.7071 0.7071
vn 0.4082 0.8165 0.4083
vn 0.7071 0.7071 -0.0000
vn 0.4082 0.8165 -0.4082
vn -0.0000 0.7071 -0.7071
vn -0.4082 0.8165 -0.4083
vn -0.7071 0.7071 -0.0000
vn -0.4082 0.8165 0.4082
vn -0.0000 1.0000 -0.0000
vn 0.4082 -0.8165 -0.4083
vn 0.4082 0.8165 -0.4083
vn -0.4082 0.8165 -0.4082
vn -0.4082 -0.8165 -0.4082
vn -0.4082 -0.8165 0.4083
vn 0.4083 0.8165 -0.4083
vn -0.4083 0.8165 0.4082
vn 0.4082 -0.8165 0.4082
vn -0.4083 -0.8165 0.4082
vn 0.4082 0.8165 0.4082
vn 0.4083 0.8165 -0.4082
vn -0.3827 0.9239 -0.0000
vn -0.9239 0.3827 -0.0000
vn -0.9239 -0.3827 -0.0000
vn -0.3827 -0.9239 -0.0000
vn 0.3827 -0.9239 -0.0000
vn 0.9239 -0.3827 -0.0000
vn 0.9239 0.3827 -0.0000
vn 0.3827 0.9239 -0.0000
vn -0.0000 0.9659 0.2588
vn -0.0000 0.2588 0.9659
vn -0.0000 -0.2588 0.9659
vn -0.0000 -0.9659 0.2588
vn -0.0000 -0.9659 -0.2588
vn -0.0000 -0.2588 -0.9659
vn -0.0000 0.2588 -0.9659
vn -0.0000 0.9659 -0.2588
vn -0.4082 0.8165 0.4083
vn 0.4083 0.8165 0.4082
vn -0.4083 0.8165 -0.4083
vn 0.4083 -0.8165 0.4082
vn -0.4083 0.8165 -0.4082
vt 0.625000 0.125000
vt 0.125000 0.625000
vt 0.375000 0.875000
vt 0.875000 0.125000
s 0
usemtl Military_Equipment_Palette
f 2/1/1 1/1/1 5/1/1
f 2/1/2 9/1/2 1/1/2
f 2/1/3 11/1/3 10/1/3
f 4/1/4 11/1/4 3/1/4
f 5/1/5 12/1/5 4/1/5
f 6/1/6 13/1/6 5/1/6
f 6/1/7 15/1/7 14/1/7
f 8/1/8 15/1/8 7/1/8
f 1/1/9 16/1/9 8/1/9
f 10/1/10 17/1/10 9/1/10
f 11/1/11 18/1/11 10/1/11
f 12/1/12 19/1/12 11/1/12
f 13/1/13 20/1/13 12/1/13
f 14/1/14 21/1/14 13/1/14
f 15/1/15 22/1/15 14/1/15
f 16/1/16 23/1/16 15/1/16
f 9/1/17 24/1/17 16/1/17
f 18/1/18 25/1/18 17/1/18
f 19/1/19 26/1/19 18/1/19
f 20/1/20 27/1/20 19/1/20
f 20/1/21 29/1/21 28/1/21
f 22/1/22 29/1/22 21/1/22
f 23/1/23 30/1/23 22/1/23
f 24/1/24 31/1/24 23/1/24
f 24/1/25 25/1/25 32/1/25
f 30/1/26 31/1/26 32/1/26
f 35/2/1 34/2/1 33/2/1
f 34/2/2 41/2/2 33/2/2
f 35/2/3 42/2/3 34/2/3
f 36/2/4 43/2/4 35/2/4
f 37/2/27 44/2/27 36/2/27
f 37/2/6 46/2/6 45/2/6
f 38/2/7 47/2/7 46/2/7
f 40/2/8 47/2/8 39/2/8
f 33/2/9 48/2/9 40/2/9
f 42/2/10 49/2/10 41/2/10
f 43/2/11 50/2/11 42/2/11
f 44/2/12 51/2/12 43/2/12
f 45/2/13 52/2/13 44/2/13
f 46/2/14 53/2/14 45/2/14
f 47/2/15 54/2/15 46/2/15
f 48/2/16 55/2/16 47/2/16
f 41/2/17 56/2/17 48/2/17
f 49/2/18 58/2/18 57/2/18
f 50/2/19 59/2/19 58/2/19
f 52/2/20 59/2/20 51/2/20
f 52/2/28 61/2/28 60/2/28
f 54/2/22 61/2/22 53/2/22
f 54/2/29 63/2/29 62/2/29
f 55/2/24 64/2/24 63/2/24
f 56/2/25 57/2/25 64/2/25
f 63/2/26 64/2/26 60/2/26
f 67/2/1 66/2/1 65/2/1
f 65/2/2 74/2/2 73/2/2
f 66/2/3 75/2/3 74/2/3
f 68/2/4 75/2/4 67/2/4
f 69/2/5 76/2/5 68/2/5
f 70/2/6 77/2/6 69/2/6
f 70/2/30 79/2/30 78/2/30
f 72/2/8 79/2/8 71/2/8
f 65/2/31 80/2/31 72/2/31
f 74/2/10 81/2/10 73/2/10
f 75/2/11 82/2/11 74/2/11
f 76/2/12 83/2/12 75/2/12
f 77/2/13 84/2/13 76/2/13
f 78/2/14 85/2/14 77/2/14
f 79/2/15 86/2/15 78/2/15
f 80/2/16 87/2/16 79/2/16
f 73/2/17 88/2/17 80/2/17
f 82/2/18 89/2/18 81/2/18
f 83/2/19 90/2/19 82/2/19
f 83/2/20 92/2/20 91/2/20
f 85/2/32 92/2/32 84/2/32
f 85/2/22 94/2/22 93/2/22
f 87/2/29 94/2/29 86/2/29
f 88/2/24 95/2/24 87/2/24
f 81/2/33 96/2/33 88/2/33
f 95/2/26 96/2/26 92/2/26
f 98/2/1 97/2/1 101/2/1
f 98/2/2 105/2/2 97/2/2
f 99/2/34 106/2/34 98/2/34
f 100/2/4 107/2/4 99/2/4
f 101/2/5 108/2/5 100/2/5
f 102/2/6 109/2/6 101/2/6
f 102/2/30 111/2/30 110/2/30
f 103/2/8 112/2/8 111/2/8
f 104/2/35 105/2/35 112/2/35
f 106/2/10 113/2/10 105/2/10
f 107/2/11 114/2/11 106/2/11
f 108/2/12 115/2/12 107/2/12
f 109/2/13 116/2/13 108/2/13
f 110/2/14 117/2/14 109/2/14
f 111/2/15 118/2/15 110/2/15
f 112/2/16 119/2/16 111/2/16
f 105/2/17 120/2/17 112/2/17
f 114/2/18 121/2/18 113/2/18
f 114/2/36 123/2/36 122/2/36
f 116/2/20 123/2/20 115/2/20
f 116/2/37 125/2/37 124/2/37
f 118/2/22 125/2/22 117/2/22
f 119/2/29 126/2/29 118/2/29
f 120/2/24 127/2/24 119/2/24
f 113/2/33 128/2/33 120/2/33
f 126/2/26 127/2/26 128/2/26
f 131/3/14 130/3/14 129/3/14
f 130/3/38 137/3/38 129/3/38
f 131/3/39 138/3/39 130/3/39
f 132/3/40 139/3/40 131/3/40
f 133/3/41 140/3/41 132/3/41
f 134/3/42 141/3/42 133/3/42
f 135/3/43 142/3/43 134/3/43
f 136/3/44 143/3/44 135/3/44
f 129/3/45 144/3/45 136/3/45
f 143/3/10 144/3/10 140/3/10
f 147/3/14 146/3/14 145/3/14
f 146/3/38 153/3/38 145/3/38
f 147/3/39 154/3/39 146/3/39
f 148/3/40 155/3/40 147/3/40
f 149/3/41 156/3/41 148/3/41
f 150/3/42 157/3/42 149/3/42
f 151/3/43 158/3/43 150/3/43
f 152/3/44 159/3/44 151/3/44
f 145/3/45 160/3/45 152/3/45
f 159/3/10 160/3/10 156/3/10
f 165/4/16 163/4/16 161/4/16
f 162/4/46 173/4/46 161/4/46
f 163/4/18 174/4/18 162/4/18
f 164/4/47 175/4/47 163/4/47
f 165/4/48 176/4/48 164/4/48
f 166/4/2 177/4/2 165/4/2
f 167/4/49 178/4/49 166/4/49
f 168/4/50 179/4/50 167/4/50
f 169/4/6 180/4/6 168/4/6
f 170/4/51 181/4/51 169/4/51
f 171/4/52 182/4/52 170/4/52
f 172/4/22 183/4/22 171/4/22
f 161/4/53 184/4/53 172/4/53
f 178/4/12 180/4/12 184/4/12
f 189/2/16 187/2/16 185/2/16
f 186/2/46 197/2/46 185/2/46
f 187/2/18 198/2/18 186/2/18
f 188/2/47 199/2/47 187/2/47
f 189/2/48 200/2/48 188/2/48
f 190/2/2 201/2/2 189/2/2
f 191/2/49 202/2/49 190/2/49
f 192/2/50 203/2/50 191/2/50
f 193/2/6 204/2/6 192/2/6
f 194/2/51 205/2/51 193/2/51
f 195/2/52 206/2/52 194/2/52
f 196/2/22 207/2/22 195/2/22
f 185/2/53 208/2/53 196/2/53
f 200/2/12 204/2/12 208/2/12
f 217/2/16 213/2/16 209/2/16
f 210/2/46 221/2/46 209/2/46
f 211/2/18 222/2/18 210/2/18
f 212/2/47 223/2/47 211/2/47
f 213/2/48 224/2/48 212/2/48
f 214/2/2 225/2/2 213/2/2
f 215/2/49 226/2/49 214/2/49
f 216/2/50 227/2/50 215/2/50
f 217/2/6 228/2/6 216/2/6
f 218/2/51 229/2/51 217/2/51
f 219/2/52 230/2/52 218/2/52
f 220/2/22 231/2/22 219/2/22
f 209/2/53 232/2/53 220/2/53
f 224/2/12 228/2/12 232/2/12
f 1/1/1 8/1/1 7/1/1
f 7/1/1 6/1/1 1/1/1
f 6/1/1 5/1/1 1/1/1
f 5/1/1 4/1/1 3/1/1
f 3/1/1 2/1/1 5/1/1
f 2/1/2 10/1/2 9/1/2
f 2/1/34 3/1/34 11/1/34
f 4/1/4 12/1/4 11/1/4
f 5/1/27 13/1/27 12/1/27
f 6/1/6 14/1/6 13/1/6
f 6/1/30 7/1/30 15/1/30
f 8/1/8 16/1/8 15/1/8
f 1/1/31 9/1/31 16/1/31
f 10/1/10 18/1/10 17/1/10
f 11/1/11 19/1/11 18/1/11
f 12/1/12 20/1/12 19/1/12
f 13/1/13 21/1/13 20/1/13
f 14/1/14 22/1/14 21/1/14
f 15/1/15 23/1/15 22/1/15
f 16/1/16 24/1/16 23/1/16
f 9/1/17 17/1/17 24/1/17
f 18/1/18 26/1/18 25/1/18
f 19/1/36 27/1/36 26/1/36
f 20/1/20 28/1/20 27/1/20
f 20/1/28 21/1/28 29/1/28
f 22/1/22 30/1/22 29/1/22
f 23/1/29 31/1/29 30/1/29
f 24/1/24 32/1/24 31/1/24
f 24/1/54 17/1/54 25/1/54
f 32/1/26 25/1/26 30/1/26
f 25/1/26 26/1/26 30/1/26
f 26/1/26 27/1/26 28/1/26
f 28/1/26 29/1/26 26/1/26
f 29/1/26 30/1/26 26/1/26
f 33/2/1 40/2/1 35/2/1
f 40/2/1 39/2/1 35/2/1
f 39/2/1 38/2/1 37/2/1
f 37/2/1 36/2/1 39/2/1
f 36/2/1 35/2/1 39/2/1
f 34/2/2 42/2/2 41/2/2
f 35/2/34 43/2/34 42/2/34
f 36/2/4 44/2/4 43/2/4
f 37/2/5 45/2/5 44/2/5
f 37/2/6 38/2/6 46/2/6
f 38/2/30 39/2/30 47/2/30
f 40/2/8 48/2/8 47/2/8
f 33/2/31 41/2/31 48/2/31
f 42/2/10 50/2/10 49/2/10
f 43/2/11 51/2/11 50/2/11
f 44/2/12 52/2/12 51/2/12
f 45/2/13 53/2/13 52/2/13
f 46/2/14 54/2/14 53/2/14
f 47/2/15 55/2/15 54/2/15
f 48/2/16 56/2/16 55/2/16
f 41/2/17 49/2/17 56/2/17
f 49/2/18 50/2/18 58/2/18
f 50/2/55 51/2/55 59/2/55
f 52/2/20 60/2/20 59/2/20
f 52/2/21 53/2/21 61/2/21
f 54/2/22 62/2/22 61/2/22
f 54/2/56 55/2/56 63/2/56
f 55/2/24 56/2/24 64/2/24
f 56/2/54 49/2/54 57/2/54
f 64/2/26 57/2/26 58/2/26
f 58/2/26 59/2/26 64/2/26
f 59/2/26 60/2/26 64/2/26
f 60/2/26 61/2/26 62/2/26
f 62/2/26 63/2/26 60/2/26
f 65/2/1 72/2/1 67/2/1
f 72/2/1 71/2/1 67/2/1
f 71/2/1 70/2/1 69/2/1
f 69/2/1 68/2/1 71/2/1
f 68/2/1 67/2/1 71/2/1
f 65/2/2 66/2/2 74/2/2
f 66/2/34 67/2/34 75/2/34
f 68/2/4 76/2/4 75/2/4
f 69/2/27 77/2/27 76/2/27
f 70/2/6 78/2/6 77/2/6
f 70/2/7 71/2/7 79/2/7
f 72/2/8 80/2/8 79/2/8
f 65/2/9 73/2/9 80/2/9
f 74/2/10 82/2/10 81/2/10
f 75/2/11 83/2/11 82/2/11
f 76/2/12 84/2/12 83/2/12
f 77/2/13 85/2/13 84/2/13
f 78/2/14 86/2/14 85/2/14
f 79/2/15 87/2/15 86/2/15
f 80/2/16 88/2/16 87/2/16
f 73/2/17 81/2/17 88/2/17
f 82/2/18 90/2/18 89/2/18
f 83/2/36 91/2/36 90/2/36
f 83/2/20 84/2/20 92/2/20
f 85/2/21 93/2/21 92/2/21
f 85/2/22 86/2/22 94/2/22
f 87/2/23 95/2/23 94/2/23
f 88/2/24 96/2/24 95/2/24
f 81/2/54 89/2/54 96/2/54
f 96/2/26 89/2/26 90/2/26
f 90/2/26 91/2/26 96/2/26
f 91/2/26 92/2/26 96/2/26
f 92/2/26 93/2/26 94/2/26
f 94/2/26 95/2/26 92/2/26
f 97/2/1 104/2/1 103/2/1
f 103/2/1 102/2/1 97/2/1
f 102/2/1 101/2/1 97/2/1
f 101/2/1 100/2/1 99/2/1
f 99/2/1 98/2/1 101/2/1
f 98/2/2 106/2/2 105/2/2
f 99/2/57 107/2/57 106/2/57
f 100/2/4 108/2/4 107/2/4
f 101/2/5 109/2/5 108/2/5
f 102/2/6 110/2/6 109/2/6
f 102/2/30 103/2/30 111/2/30
f 103/2/8 104/2/8 112/2/8
f 104/2/9 97/2/9 105/2/9
f 106/2/10 114/2/10 113/2/10
f 107/2/11 115/2/11 114/2/11
f 108/2/12 116/2/12 115/2/12
f 109/2/13 117/2/13 116/2/13
f 110/2/14 118/2/14 117/2/14
f 111/2/15 119/2/15 118/2/15
f 112/2/16 120/2/16 119/2/16
f 105/2/17 113/2/17 120/2/17
f 114/2/18 122/2/18 121/2/18
f 114/2/55 115/2/55 123/2/55
f 116/2/20 124/2/20 123/2/20
f 116/2/21 117/2/21 125/2/21
f 118/2/22 126/2/22 125/2/22
f 119/2/58 127/2/58 126/2/58
f 120/2/24 128/2/24 127/2/24
f 113/2/25 121/2/25 128/2/25
f 128/2/26 121/2/26 126/2/26
f 121/2/26 122/2/26 126/2/26
f 122/2/26 123/2/26 124/2/26
f 124/2/26 125/2/26 122/2/26
f 125/2/26 126/2/26 122/2/26
f 129/3/14 136/3/14 135/3/14
f 135/3/14 134/3/14 129/3/14
f 134/3/14 133/3/14 129/3/14
f 133/3/14 132/3/14 129/3/14
f 132/3/14 131/3/14 129/3/14
f 130/3/38 138/3/38 137/3/38
f 131/3/39 139/3/39 138/3/39
f 132/3/40 140/3/40 139/3/40
f 133/3/41 141/3/41 140/3/41
f 134/3/42 142/3/42 141/3/42
f 135/3/43 143/3/43 142/3/43
f 136/3/44 144/3/44 143/3/44
f 129/3/45 137/3/45 144/3/45
f 144/3/10 137/3/10 138/3/10
f 138/3/10 139/3/10 144/3/10
f 139/3/10 140/3/10 144/3/10
f 140/3/10 141/3/10 142/3/10
f 142/3/10 143/3/10 140/3/10
f 145/3/14 152/3/14 151/3/14
f 151/3/14 150/3/14 145/3/14
f 150/3/14 149/3/14 145/3/14
f 149/3/14 148/3/14 145/3/14
f 148/3/14 147/3/14 145/3/14
f 146/3/38 154/3/38 153/3/38
f 147/3/39 155/3/39 154/3/39
f 148/3/40 156/3/40 155/3/40
f 149/3/41 157/3/41 156/3/41
f 150/3/42 158/3/42 157/3/42
f 151/3/43 159/3/43 158/3/43
f 152/3/44 160/3/44 159/3/44
f 145/3/45 153/3/45 160/3/45
f 160/3/10 153/3/10 154/3/10
f 154/3/10 155/3/10 160/3/10
f 155/3/10 156/3/10 160/3/10
f 156/3/10 157/3/10 158/3/10
f 158/3/10 159/3/10 156/3/10
f 161/4/16 172/4/16 171/4/16
f 171/4/16 170/4/16 169/4/16
f 169/4/16 168/4/16 167/4/16
f 167/4/16 166/4/16 169/4/16
f 166/4/16 165/4/16 169/4/16
f 165/4/16 164/4/16 163/4/16
f 163/4/16 162/4/16 161/4/16
f 161/4/16 171/4/16 165/4/16
f 171/4/16 169/4/16 165/4/16
f 162/4/46 174/4/46 173/4/46
f 163/4/18 175/4/18 174/4/18
f 164/4/47 176/4/47 175/4/47
f 165/4/48 177/4/48 176/4/48
f 166/4/2 178/4/2 177/4/2
f 167/4/49 179/4/49 178/4/49
f 168/4/50 180/4/50 179/4/50
f 169/4/6 181/4/6 180/4/6
f 170/4/51 182/4/51 181/4/51
f 171/4/52 183/4/52 182/4/52
f 172/4/22 184/4/22 183/4/22
f 161/4/53 173/4/53 184/4/53
f 184/4/12 173/4/12 176/4/12
f 173/4/12 174/4/12 176/4/12
f 174/4/12 175/4/12 176/4/12
f 176/4/12 177/4/12 178/4/12
f 178/4/12 179/4/12 180/4/12
f 180/4/12 181/4/12 182/4/12
f 182/4/12 183/4/12 180/4/12
f 183/4/12 184/4/12 180/4/12
f 176/4/12 178/4/12 184/4/12
f 185/2/16 196/2/16 195/2/16
f 195/2/16 194/2/16 193/2/16
f 193/2/16 192/2/16 191/2/16
f 191/2/16 190/2/16 189/2/16
f 189/2/16 188/2/16 187/2/16
f 187/2/16 186/2/16 185/2/16
f 185/2/16 195/2/16 193/2/16
f 193/2/16 191/2/16 185/2/16
f 191/2/16 189/2/16 185/2/16
f 186/2/46 198/2/46 197/2/46
f 187/2/18 199/2/18 198/2/18
f 188/2/47 200/2/47 199/2/47
f 189/2/48 201/2/48 200/2/48
f 190/2/2 202/2/2 201/2/2
f 191/2/49 203/2/49 202/2/49
f 192/2/50 204/2/50 203/2/50
f 193/2/6 205/2/6 204/2/6
f 194/2/51 206/2/51 205/2/51
f 195/2/52 207/2/52 206/2/52
f 196/2/22 208/2/22 207/2/22
f 185/2/53 197/2/53 208/2/53
f 208/2/12 197/2/12 200/2/12
f 197/2/12 198/2/12 200/2/12
f 198/2/12 199/2/12 200/2/12
f 200/2/12 201/2/12 202/2/12
f 202/2/12 203/2/12 204/2/12
f 204/2/12 205/2/12 206/2/12
f 206/2/12 207/2/12 208/2/12
f 200/2/12 202/2/12 204/2/12
f 204/2/12 206/2/12 208/2/12
f 209/2/16 220/2/16 219/2/16
f 219/2/16 218/2/16 217/2/16
f 217/2/16 216/2/16 213/2/16
f 216/2/16 215/2/16 213/2/16
f 215/2/16 214/2/16 213/2/16
f 213/2/16 212/2/16 211/2/16
f 211/2/16 210/2/16 209/2/16
f 209/2/16 219/2/16 217/2/16
f 213/2/16 211/2/16 209/2/16
f 210/2/46 222/2/46 221/2/46
f 211/2/18 223/2/18 222/2/18
f 212/2/47 224/2/47 223/2/47
f 213/2/48 225/2/48 224/2/48
f 214/2/2 226/2/2 225/2/2
f 215/2/49 227/2/49 226/2/49
f 216/2/50 228/2/50 227/2/50
f 217/2/6 229/2/6 228/2/6
f 218/2/51 230/2/51 229/2/51
f 219/2/52 231/2/52 230/2/52
f 220/2/22 232/2/22 231/2/22
f 209/2/53 221/2/53 232/2/53
f 232/2/12 221/2/12 224/2/12
f 221/2/12 222/2/12 224/2/12
f 222/2/12 223/2/12 224/2/12
f 224/2/12 225/2/12 226/2/12
f 226/2/12 227/2/12 228/2/12
f 228/2/12 229/2/12 232/2/12
f 229/2/12 230/2/12 232/2/12
f 230/2/12 231/2/12 232/2/12
f 224/2/12 226/2/12 228/2/12
