# Blender 5.2.1 LTS
# www.blender.org
mtllib counterDroneJammer.mtl
o BASE.015
v -0.390000 0.000000 0.365000
v 0.390000 0.000000 0.365000
v 0.390000 0.000000 -0.365000
v -0.390000 0.000000 -0.365000
v -0.390000 0.120000 0.365000
v 0.390000 0.120000 0.365000
v 0.390000 0.120000 -0.365000
v -0.390000 0.120000 -0.365000
v -0.300000 0.121000 -0.302000
v -0.327713 0.121000 -0.286000
v -0.327713 0.121000 -0.254000
v -0.300000 0.121000 -0.238000
v -0.272287 0.121000 -0.254000
v -0.272287 0.121000 -0.286000
v -0.300000 0.141000 -0.302000
v -0.327713 0.141000 -0.286000
v -0.327713 0.141000 -0.254000
v -0.300000 0.141000 -0.238000
v -0.272287 0.141000 -0.254000
v -0.272287 0.141000 -0.286000
v -0.300000 0.121000 0.238000
v -0.327713 0.121000 0.254000
v -0.327713 0.121000 0.286000
v -0.300000 0.121000 0.302000
v -0.272287 0.121000 0.286000
v -0.272287 0.121000 0.254000
v -0.300000 0.141000 0.238000
v -0.327713 0.141000 0.254000
v -0.327713 0.141000 0.286000
v -0.300000 0.141000 0.302000
v -0.272287 0.141000 0.286000
v -0.272287 0.141000 0.254000
v 0.300000 0.121000 -0.302000
v 0.272287 0.121000 -0.286000
v 0.272287 0.121000 -0.254000
v 0.300000 0.121000 -0.238000
v 0.327713 0.121000 -0.254000
v 0.327713 0.121000 -0.286000
v 0.300000 0.141000 -0.302000
v 0.272287 0.141000 -0.286000
v 0.272287 0.141000 -0.254000
v 0.300000 0.141000 -0.238000
v 0.327713 0.141000 -0.254000
v 0.327713 0.141000 -0.286000
v 0.300000 0.121000 0.238000
v 0.272287 0.121000 0.254000
v 0.272287 0.121000 0.286000
v 0.300000 0.121000 0.302000
v 0.327713 0.121000 0.286000
v 0.327713 0.121000 0.254000
v 0.300000 0.141000 0.238000
v 0.272287 0.141000 0.254000
v 0.272287 0.141000 0.286000
v 0.300000 0.141000 0.302000
v 0.327713 0.141000 0.286000
v 0.327713 0.141000 0.254000
v -0.320000 0.135000 0.280000
v 0.320000 0.135000 0.280000
v 0.320000 0.135000 -0.280000
v -0.320000 0.135000 -0.280000
v -0.320000 0.605000 0.280000
v 0.320000 0.605000 0.280000
v 0.320000 0.605000 -0.280000
v -0.320000 0.605000 -0.280000
v -0.337500 0.605000 0.297500
v 0.337500 0.605000 0.297500
v 0.337500 0.605000 -0.297500
v -0.337500 0.605000 -0.297500
v -0.337500 0.655000 0.297500
v 0.337500 0.655000 0.297500
v 0.337500 0.655000 -0.297500
v -0.337500 0.655000 -0.297500
v -0.209500 0.100000 0.305000
v -0.174500 0.100000 0.305000
v -0.174500 0.100000 -0.305000
v -0.209500 0.100000 -0.305000
v -0.209500 0.640000 0.305000
v -0.174500 0.640000 0.305000
v -0.174500 0.640000 -0.305000
v -0.209500 0.640000 -0.305000
v -0.185800 0.423100 0.317500
v -0.095800 0.423100 0.317500
v -0.095800 0.423100 0.282500
v -0.185800 0.423100 0.282500
v -0.185800 0.533100 0.317500
v -0.095800 0.533100 0.317500
v -0.095800 0.533100 0.282500
v -0.185800 0.533100 0.282500
v 0.174500 0.100000 0.305000
v 0.209500 0.100000 0.305000
v 0.209500 0.100000 -0.305000
v 0.174500 0.100000 -0.305000
v 0.174500 0.640000 0.305000
v 0.209500 0.640000 0.305000
v 0.209500 0.640000 -0.305000
v 0.174500 0.640000 -0.305000
v 0.095800 0.423100 0.317500
v 0.185800 0.423100 0.317500
v 0.185800 0.423100 0.282500
v 0.095800 0.423100 0.282500
v 0.095800 0.533100 0.317500
v 0.185800 0.533100 0.317500
v 0.185800 0.533100 0.282500
v 0.095800 0.533100 0.282500
v -0.100000 0.401400 0.342500
v 0.100000 0.401400 0.342500
v 0.100000 0.401400 0.297500
v -0.100000 0.401400 0.297500
v -0.100000 0.451400 0.342500
v 0.100000 0.451400 0.342500
v 0.100000 0.451400 0.297500
v -0.100000 0.451400 0.297500
v 0.000000 0.495000 -0.055000
v -0.038891 0.495000 -0.038891
v -0.055000 0.495000 -0.000000
v -0.038891 0.495000 0.038891
v -0.000000 0.495000 0.055000
v 0.038891 0.495000 0.038891
v 0.055000 0.495000 0.000000
v 0.038891 0.495000 -0.038891
v 0.000000 1.045000 -0.055000
v -0.038891 1.045000 -0.038891
v -0.055000 1.045000 -0.000000
v -0.038891 1.045000 0.038891
v -0.000000 1.045000 0.055000
v 0.038891 1.045000 0.038891
v 0.055000 1.045000 0.000000
v 0.038891 1.045000 -0.038891
v -0.220000 0.605000 -0.022000
v -0.239053 0.605000 -0.011000
v -0.239053 0.605000 0.011000
v -0.220000 0.605000 0.022000
v -0.200947 0.605000 0.011000
v -0.200947 0.605000 -0.011000
v -0.220000 1.335000 -0.022000
v -0.239053 1.335000 -0.011000
v -0.239053 1.335000 0.011000
v -0.220000 1.335000 0.022000
v -0.200947 1.335000 0.011000
v -0.200947 1.335000 -0.011000
v -0.310000 0.742500 0.017500
v -0.130000 0.742500 0.017500
v -0.130000 0.742500 -0.017500
v -0.310000 0.742500 -0.017500
v -0.310000 0.777500 0.017500
v -0.130000 0.777500 0.017500
v -0.130000 0.777500 -0.017500
v -0.310000 0.777500 -0.017500
v -0.310000 0.882500 0.017500
v -0.130000 0.882500 0.017500
v -0.130000 0.882500 -0.017500
v -0.310000 0.882500 -0.017500
v -0.310000 0.917500 0.017500
v -0.130000 0.917500 0.017500
v -0.130000 0.917500 -0.017500
v -0.310000 0.917500 -0.017500
v -0.310000 1.022500 0.017500
v -0.130000 1.022500 0.017500
v -0.130000 1.022500 -0.017500
v -0.310000 1.022500 -0.017500
v -0.310000 1.057500 0.017500
v -0.130000 1.057500 0.017500
v -0.130000 1.057500 -0.017500
v -0.310000 1.057500 -0.017500
v 0.220000 0.605000 -0.022000
v 0.200947 0.605000 -0.011000
v 0.200947 0.605000 0.011000
v 0.220000 0.605000 0.022000
v 0.239053 0.605000 0.011000
v 0.239053 0.605000 -0.011000
v 0.220000 1.335000 -0.022000
v 0.200947 1.335000 -0.011000
v 0.200947 1.335000 0.011000
v 0.220000 1.335000 0.022000
v 0.239053 1.335000 0.011000
v 0.239053 1.335000 -0.011000
v 0.130000 0.742500 0.017500
v 0.310000 0.742500 0.017500
v 0.310000 0.742500 -0.017500
v 0.130000 0.742500 -0.017500
v 0.130000 0.777500 0.017500
v 0.310000 0.777500 0.017500
v 0.310000 0.777500 -0.017500
v 0.130000 0.777500 -0.017500
v 0.130000 0.882500 0.017500
v 0.310000 0.882500 0.017500
v 0.310000 0.882500 -0.017500
v 0.130000 0.882500 -0.017500
v 0.130000 0.917500 0.017500
v 0.310000 0.917500 0.017500
v 0.310000 0.917500 -0.017500
v 0.130000 0.917500 -0.017500
v 0.130000 1.022500 0.017500
v 0.310000 1.022500 0.017500
v 0.310000 1.022500 -0.017500
v 0.130000 1.022500 -0.017500
v 0.130000 1.057500 0.017500
v 0.310000 1.057500 0.017500
v 0.310000 1.057500 -0.017500
v 0.130000 1.057500 -0.017500
v -0.145000 0.335000 0.307500
v 0.145000 0.335000 0.307500
v 0.145000 0.335000 0.282500
v -0.145000 0.335000 0.282500
v -0.145000 0.505000 0.307500
v 0.145000 0.505000 0.307500
v 0.145000 0.505000 0.282500
v -0.145000 0.505000 0.282500
v -0.100000 0.258000 0.287500
v -0.115588 0.249000 0.287500
v -0.115588 0.231000 0.287500
v -0.100000 0.222000 0.287500
v -0.084412 0.231000 0.287500
v -0.084412 0.249000 0.287500
v -0.100000 0.258000 0.312500
v -0.115588 0.249000 0.312500
v -0.115588 0.231000 0.312500
v -0.100000 0.222000 0.312500
v -0.084412 0.231000 0.312500
v -0.084412 0.249000 0.312500
v 0.000000 0.258000 0.287500
v -0.015588 0.249000 0.287500
v -0.015588 0.231000 0.287500
v -0.000000 0.222000 0.287500
v 0.015588 0.231000 0.287500
v 0.015588 0.249000 0.287500
v 0.000000 0.258000 0.312500
v -0.015588 0.249000 0.312500
v -0.015588 0.231000 0.312500
v -0.000000 0.222000 0.312500
v 0.015588 0.231000 0.312500
v 0.015588 0.249000 0.312500
v 0.100000 0.258000 0.287500
v 0.084412 0.249000 0.287500
v 0.084412 0.231000 0.287500
v 0.100000 0.222000 0.287500
v 0.115588 0.231000 0.287500
v 0.115588 0.249000 0.287500
v 0.100000 0.258000 0.312500
v 0.084412 0.249000 0.312500
v 0.084412 0.231000 0.312500
v 0.100000 0.222000 0.312500
v 0.115588 0.231000 0.312500
v 0.115588 0.249000 0.312500
vn -0.0000 -1.0000 -0.0000
vn -0.0000 1.0000 -0.0000
vn -0.0000 -0.0000 1.0000
vn 1.0000 -0.0000 -0.0000
vn -0.0000 -0.0000 -1.0000
vn -1.0000 -0.0000 -0.0000
vn -0.5000 -0.0000 -0.8660
vn -0.5000 -0.0000 0.8660
vn 0.5000 -0.0000 0.8660
vn 0.5000 -0.0000 -0.8660
vn -0.3827 -0.0000 -0.9239
vn -0.9239 -0.0000 -0.3827
vn -0.9239 -0.0000 0.3827
vn -0.3827 -0.0000 0.9239
vn 0.3827 -0.0000 0.9239
vn 0.9239 -0.0000 0.3827
vn 0.9239 -0.0000 -0.3827
vn 0.3827 -0.0000 -0.9239
vn -0.5000 0.8660 -0.0000
vn -0.5000 -0.8660 -0.0000
vn 0.5000 -0.8660 -0.0000
vn 0.5000 0.8660 -0.0000
vt 0.625000 0.125000
vt 0.375000 0.875000
vt 0.125000 0.125000
vt 0.375000 0.125000
vt 0.875000 0.125000
vt 0.125000 0.625000
vt 0.625000 0.375000
vt 0.375000 0.625000
s 0
usemtl Military_Equipment_Palette
f 3/1/1 1/1/1 4/1/1
f 6/1/2 8/1/2 5/1/2
f 2/1/3 5/1/3 1/1/3
f 3/1/4 6/1/4 2/1/4
f 4/1/5 7/1/5 3/1/5
f 1/1/6 8/1/6 4/1/6
f 13/2/1 11/2/1 9/2/1
f 10/2/7 15/2/7 9/2/7
f 11/2/6 16/2/6 10/2/6
f 12/2/8 17/2/8 11/2/8
f 13/2/9 18/2/9 12/2/9
f 14/2/4 19/2/4 13/2/4
f 9/2/10 20/2/10 14/2/10
f 16/2/2 18/2/2 20/2/2
f 25/2/1 23/2/1 21/2/1
f 22/2/7 27/2/7 21/2/7
f 23/2/6 28/2/6 22/2/6
f 24/2/8 29/2/8 23/2/8
f 25/2/9 30/2/9 24/2/9
f 26/2/4 31/2/4 25/2/4
f 21/2/10 32/2/10 26/2/10
f 28/2/2 30/2/2 32/2/2
f 37/2/1 35/2/1 33/2/1
f 34/2/7 39/2/7 33/2/7
f 35/2/6 40/2/6 34/2/6
f 36/2/8 41/2/8 35/2/8
f 37/2/9 42/2/9 36/2/9
f 38/2/4 43/2/4 37/2/4
f 33/2/10 44/2/10 38/2/10
f 40/2/2 42/2/2 44/2/2
f 49/2/1 47/2/1 45/2/1
f 46/2/7 51/2/7 45/2/7
f 47/2/6 52/2/6 46/2/6
f 48/2/8 53/2/8 47/2/8
f 49/2/9 54/2/9 48/2/9
f 50/2/4 55/2/4 49/2/4
f 45/2/10 56/2/10 50/2/10
f 52/2/2 54/2/2 56/2/2
f 59/3/1 57/3/1 60/3/1
f 62/3/2 64/3/2 61/3/2
f 58/3/3 61/3/3 57/3/3
f 59/3/4 62/3/4 58/3/4
f 60/3/5 63/3/5 59/3/5
f 57/3/6 64/3/6 60/3/6
f 67/4/1 65/4/1 68/4/1
f 70/4/2 72/4/2 69/4/2
f 66/4/3 69/4/3 65/4/3
f 67/4/4 70/4/4 66/4/4
f 68/4/5 71/4/5 67/4/5
f 65/4/6 72/4/6 68/4/6
f 75/5/1 73/5/1 76/5/1
f 78/5/2 80/5/2 77/5/2
f 74/5/3 77/5/3 73/5/3
f 75/5/4 78/5/4 74/5/4
f 76/5/5 79/5/5 75/5/5
f 73/5/6 80/5/6 76/5/6
f 83/2/1 81/2/1 84/2/1
f 86/2/2 88/2/2 85/2/2
f 82/2/3 85/2/3 81/2/3
f 83/2/4 86/2/4 82/2/4
f 84/2/5 87/2/5 83/2/5
f 81/2/6 88/2/6 84/2/6
f 91/5/1 89/5/1 92/5/1
f 94/5/2 96/5/2 93/5/2
f 90/5/3 93/5/3 89/5/3
f 91/5/4 94/5/4 90/5/4
f 92/5/5 95/5/5 91/5/5
f 89/5/6 96/5/6 92/5/6
f 99/2/1 97/2/1 100/2/1
f 102/2/2 104/2/2 101/2/2
f 98/2/3 101/2/3 97/2/3
f 99/2/4 102/2/4 98/2/4
f 100/2/5 103/2/5 99/2/5
f 97/2/6 104/2/6 100/2/6
f 107/6/1 105/6/1 108/6/1
f 110/6/2 112/6/2 109/6/2
f 106/6/3 109/6/3 105/6/3
f 107/6/4 110/6/4 106/6/4
f 108/6/5 111/6/5 107/6/5
f 105/6/6 112/6/6 108/6/6
f 117/6/1 115/6/1 113/6/1
f 114/6/11 121/6/11 113/6/11
f 115/6/12 122/6/12 114/6/12
f 116/6/13 123/6/13 115/6/13
f 117/6/14 124/6/14 116/6/14
f 118/6/15 125/6/15 117/6/15
f 119/6/16 126/6/16 118/6/16
f 120/6/17 127/6/17 119/6/17
f 113/6/18 128/6/18 120/6/18
f 124/6/2 126/6/2 128/6/2
f 131/5/1 130/5/1 129/5/1
f 130/5/7 135/5/7 129/5/7
f 131/5/6 136/5/6 130/5/6
f 132/5/8 137/5/8 131/5/8
f 133/5/9 138/5/9 132/5/9
f 134/5/4 139/5/4 133/5/4
f 129/5/10 140/5/10 134/5/10
f 138/5/2 139/5/2 140/5/2
f 143/6/1 141/6/1 144/6/1
f 146/6/2 148/6/2 145/6/2
f 142/6/3 145/6/3 141/6/3
f 143/6/4 146/6/4 142/6/4
f 144/6/5 147/6/5 143/6/5
f 141/6/6 148/6/6 144/6/6
f 151/6/1 149/6/1 152/6/1
f 154/6/2 156/6/2 153/6/2
f 150/6/3 153/6/3 149/6/3
f 151/6/4 154/6/4 150/6/4
f 152/6/5 155/6/5 151/6/5
f 149/6/6 156/6/6 152/6/6
f 159/6/1 157/6/1 160/6/1
f 162/6/2 164/6/2 161/6/2
f 158/6/3 161/6/3 157/6/3
f 159/6/4 162/6/4 158/6/4
f 160/6/5 163/6/5 159/6/5
f 157/6/6 164/6/6 160/6/6
f 167/5/1 166/5/1 165/5/1
f 166/5/7 171/5/7 165/5/7
f 167/5/6 172/5/6 166/5/6
f 168/5/8 173/5/8 167/5/8
f 169/5/9 174/5/9 168/5/9
f 170/5/4 175/5/4 169/5/4
f 165/5/10 176/5/10 170/5/10
f 174/5/2 175/5/2 176/5/2
f 179/6/1 177/6/1 180/6/1
f 182/6/2 184/6/2 181/6/2
f 178/6/3 181/6/3 177/6/3
f 179/6/4 182/6/4 178/6/4
f 180/6/5 183/6/5 179/6/5
f 177/6/6 184/6/6 180/6/6
f 187/6/1 185/6/1 188/6/1
f 190/6/2 192/6/2 189/6/2
f 186/6/3 189/6/3 185/6/3
f 187/6/4 190/6/4 186/6/4
f 188/6/5 191/6/5 187/6/5
f 185/6/6 192/6/6 188/6/6
f 195/6/1 193/6/1 196/6/1
f 198/6/2 200/6/2 197/6/2
f 194/6/3 197/6/3 193/6/3
f 195/6/4 198/6/4 194/6/4
f 196/6/5 199/6/5 195/6/5
f 193/6/6 200/6/6 196/6/6
f 203/7/1 201/7/1 204/7/1
f 206/7/2 208/7/2 205/7/2
f 202/7/3 205/7/3 201/7/3
f 203/7/4 206/7/4 202/7/4
f 204/7/5 207/7/5 203/7/5
f 201/7/6 208/7/6 204/7/6
f 211/8/5 210/8/5 209/8/5
f 210/8/19 215/8/19 209/8/19
f 211/8/6 216/8/6 210/8/6
f 212/8/20 217/8/20 211/8/20
f 213/8/21 218/8/21 212/8/21
f 214/8/4 219/8/4 213/8/4
f 209/8/22 220/8/22 214/8/22
f 218/8/3 219/8/3 220/8/3
f 223/8/5 222/8/5 221/8/5
f 222/8/19 227/8/19 221/8/19
f 223/8/6 228/8/6 222/8/6
f 224/8/20 229/8/20 223/8/20
f 225/8/21 230/8/21 224/8/21
f 226/8/4 231/8/4 225/8/4
f 221/8/22 232/8/22 226/8/22
f 230/8/3 231/8/3 232/8/3
f 235/8/5 234/8/5 233/8/5
f 234/8/19 239/8/19 233/8/19
f 235/8/6 240/8/6 234/8/6
f 236/8/20 241/8/20 235/8/20
f 237/8/21 242/8/21 236/8/21
f 238/8/4 243/8/4 237/8/4
f 233/8/22 244/8/22 238/8/22
f 242/8/3 243/8/3 244/8/3
f 3/1/1 2/1/1 1/1/1
f 6/1/2 7/1/2 8/1/2
f 2/1/3 6/1/3 5/1/3
f 3/1/4 7/1/4 6/1/4
f 4/1/5 8/1/5 7/1/5
f 1/1/6 5/1/6 8/1/6
f 9/2/1 14/2/1 13/2/1
f 13/2/1 12/2/1 11/2/1
f 11/2/1 10/2/1 9/2/1
f 10/2/7 16/2/7 15/2/7
f 11/2/6 17/2/6 16/2/6
f 12/2/8 18/2/8 17/2/8
f 13/2/9 19/2/9 18/2/9
f 14/2/4 20/2/4 19/2/4
f 9/2/10 15/2/10 20/2/10
f 20/2/2 15/2/2 16/2/2
f 16/2/2 17/2/2 18/2/2
f 18/2/2 19/2/2 20/2/2
f 21/2/1 26/2/1 25/2/1
f 25/2/1 24/2/1 23/2/1
f 23/2/1 22/2/1 21/2/1
f 22/2/7 28/2/7 27/2/7
f 23/2/6 29/2/6 28/2/6
f 24/2/8 30/2/8 29/2/8
f 25/2/9 31/2/9 30/2/9
f 26/2/4 32/2/4 31/2/4
f 21/2/10 27/2/10 32/2/10
f 32/2/2 27/2/2 28/2/2
f 28/2/2 29/2/2 30/2/2
f 30/2/2 31/2/2 32/2/2
f 33/2/1 38/2/1 37/2/1
f 37/2/1 36/2/1 35/2/1
f 35/2/1 34/2/1 33/2/1
f 34/2/7 40/2/7 39/2/7
f 35/2/6 41/2/6 40/2/6
f 36/2/8 42/2/8 41/2/8
f 37/2/9 43/2/9 42/2/9
f 38/2/4 44/2/4 43/2/4
f 33/2/10 39/2/10 44/2/10
f 44/2/2 39/2/2 40/2/2
f 40/2/2 41/2/2 42/2/2
f 42/2/2 43/2/2 44/2/2
f 45/2/1 50/2/1 49/2/1
f 49/2/1 48/2/1 47/2/1
f 47/2/1 46/2/1 45/2/1
f 46/2/7 52/2/7 51/2/7
f 47/2/6 53/2/6 52/2/6
f 48/2/8 54/2/8 53/2/8
f 49/2/9 55/2/9 54/2/9
f 50/2/4 56/2/4 55/2/4
f 45/2/10 51/2/10 56/2/10
f 56/2/2 51/2/2 52/2/2
f 52/2/2 53/2/2 54/2/2
f 54/2/2 55/2/2 56/2/2
f 59/3/1 58/3/1 57/3/1
f 62/3/2 63/3/2 64/3/2
f 58/3/3 62/3/3 61/3/3
f 59/3/4 63/3/4 62/3/4
f 60/3/5 64/3/5 63/3/5
f 57/3/6 61/3/6 64/3/6
f 67/4/1 66/4/1 65/4/1
f 70/4/2 71/4/2 72/4/2
f 66/4/3 70/4/3 69/4/3
f 67/4/4 71/4/4 70/4/4
f 68/4/5 72/4/5 71/4/5
f 65/4/6 69/4/6 72/4/6
f 75/5/1 74/5/1 73/5/1
f 78/5/2 79/5/2 80/5/2
f 74/5/3 78/5/3 77/5/3
f 75/5/4 79/5/4 78/5/4
f 76/5/5 80/5/5 79/5/5
f 73/5/6 77/5/6 80/5/6
f 83/2/1 82/2/1 81/2/1
f 86/2/2 87/2/2 88/2/2
f 82/2/3 86/2/3 85/2/3
f 83/2/4 87/2/4 86/2/4
f 84/2/5 88/2/5 87/2/5
f 81/2/6 85/2/6 88/2/6
f 91/5/1 90/5/1 89/5/1
f 94/5/2 95/5/2 96/5/2
f 90/5/3 94/5/3 93/5/3
f 91/5/4 95/5/4 94/5/4
f 92/5/5 96/5/5 95/5/5
f 89/5/6 93/5/6 96/5/6
f 99/2/1 98/2/1 97/2/1
f 102/2/2 103/2/2 104/2/2
f 98/2/3 102/2/3 101/2/3
f 99/2/4 103/2/4 102/2/4
f 100/2/5 104/2/5 103/2/5
f 97/2/6 101/2/6 104/2/6
f 107/6/1 106/6/1 105/6/1
f 110/6/2 111/6/2 112/6/2
f 106/6/3 110/6/3 109/6/3
f 107/6/4 111/6/4 110/6/4
f 108/6/5 112/6/5 111/6/5
f 105/6/6 109/6/6 112/6/6
f 113/6/1 120/6/1 119/6/1
f 119/6/1 118/6/1 117/6/1
f 117/6/1 116/6/1 115/6/1
f 115/6/1 114/6/1 113/6/1
f 113/6/1 119/6/1 117/6/1
f 114/6/11 122/6/11 121/6/11
f 115/6/12 123/6/12 122/6/12
f 116/6/13 124/6/13 123/6/13
f 117/6/14 125/6/14 124/6/14
f 118/6/15 126/6/15 125/6/15
f 119/6/16 127/6/16 126/6/16
f 120/6/17 128/6/17 127/6/17
f 113/6/18 121/6/18 128/6/18
f 128/6/2 121/6/2 122/6/2
f 122/6/2 123/6/2 124/6/2
f 124/6/2 125/6/2 126/6/2
f 126/6/2 127/6/2 128/6/2
f 128/6/2 122/6/2 124/6/2
f 129/5/1 134/5/1 133/5/1
f 133/5/1 132/5/1 129/5/1
f 132/5/1 131/5/1 129/5/1
f 130/5/7 136/5/7 135/5/7
f 131/5/6 137/5/6 136/5/6
f 132/5/8 138/5/8 137/5/8
f 133/5/9 139/5/9 138/5/9
f 134/5/4 140/5/4 139/5/4
f 129/5/10 135/5/10 140/5/10
f 140/5/2 135/5/2 138/5/2
f 135/5/2 136/5/2 138/5/2
f 136/5/2 137/5/2 138/5/2
f 143/6/1 142/6/1 141/6/1
f 146/6/2 147/6/2 148/6/2
f 142/6/3 146/6/3 145/6/3
f 143/6/4 147/6/4 146/6/4
f 144/6/5 148/6/5 147/6/5
f 141/6/6 145/6/6 148/6/6
f 151/6/1 150/6/1 149/6/1
f 154/6/2 155/6/2 156/6/2
f 150/6/3 154/6/3 153/6/3
f 151/6/4 155/6/4 154/6/4
f 152/6/5 156/6/5 155/6/5
f 149/6/6 153/6/6 156/6/6
f 159/6/1 158/6/1 157/6/1
f 162/6/2 163/6/2 164/6/2
f 158/6/3 162/6/3 161/6/3
f 159/6/4 163/6/4 162/6/4
f 160/6/5 164/6/5 163/6/5
f 157/6/6 161/6/6 164/6/6
f 165/5/1 170/5/1 169/5/1
f 169/5/1 168/5/1 165/5/1
f 168/5/1 167/5/1 165/5/1
f 166/5/7 172/5/7 171/5/7
f 167/5/6 173/5/6 172/5/6
f 168/5/8 174/5/8 173/5/8
f 169/5/9 175/5/9 174/5/9
f 170/5/4 176/5/4 175/5/4
f 165/5/10 171/5/10 176/5/10
f 176/5/2 171/5/2 174/5/2
f 171/5/2 172/5/2 174/5/2
f 172/5/2 173/5/2 174/5/2
f 179/6/1 178/6/1 177/6/1
f 182/6/2 183/6/2 184/6/2
f 178/6/3 182/6/3 181/6/3
f 179/6/4 183/6/4 182/6/4
f 180/6/5 184/6/5 183/6/5
f 177/6/6 181/6/6 184/6/6
f 187/6/1 186/6/1 185/6/1
f 190/6/2 191/6/2 192/6/2
f 186/6/3 190/6/3 189/6/3
f 187/6/4 191/6/4 190/6/4
f 188/6/5 192/6/5 191/6/5
f 185/6/6 189/6/6 192/6/6
f 195/6/1 194/6/1 193/6/1
f 198/6/2 199/6/2 200/6/2
f 194/6/3 198/6/3 197/6/3
f 195/6/4 199/6/4 198/6/4
f 196/6/5 200/6/5 199/6/5
f 193/6/6 197/6/6 200/6/6
f 203/7/1 202/7/1 201/7/1
f 206/7/2 207/7/2 208/7/2
f 202/7/3 206/7/3 205/7/3
f 203/7/4 207/7/4 206/7/4
f 204/7/5 208/7/5 207/7/5
f 201/7/6 205/7/6 208/7/6
f 209/8/5 214/8/5 213/8/5
f 213/8/5 212/8/5 209/8/5
f 212/8/5 211/8/5 209/8/5
f 210/8/19 216/8/19 215/8/19
f 211/8/6 217/8/6 216/8/6
f 212/8/20 218/8/20 217/8/20
f 213/8/21 219/8/21 218/8/21
f 214/8/4 220/8/4 219/8/4
f 209/8/22 215/8/22 220/8/22
f 220/8/3 215/8/3 218/8/3
f 215/8/3 216/8/3 218/8/3
f 216/8/3 217/8/3 218/8/3
f 221/8/5 226/8/5 225/8/5
f 225/8/5 224/8/5 221/8/5
f 224/8/5 223/8/5 221/8/5
f 222/8/19 228/8/19 227/8/19
f 223/8/6 229/8/6 228/8/6
f 224/8/20 230/8/20 229/8/20
f 225/8/21 231/8/21 230/8/21
f 226/8/4 232/8/4 231/8/4
f 221/8/22 227/8/22 232/8/22
f 232/8/3 227/8/3 230/8/3
f 227/8/3 228/8/3 230/8/3
f 228/8/3 229/8/3 230/8/3
f 233/8/5 238/8/5 237/8/5
f 237/8/5 236/8/5 233/8/5
f 236/8/5 235/8/5 233/8/5
f 234/8/19 240/8/19 239/8/19
f 235/8/6 241/8/6 240/8/6
f 236/8/20 242/8/20 241/8/20
f 237/8/21 243/8/21 242/8/21
f 238/8/4 244/8/4 243/8/4
f 233/8/22 239/8/22 244/8/22
f 244/8/3 239/8/3 242/8/3
f 239/8/3 240/8/3 242/8/3
f 240/8/3 241/8/3 242/8/3
