# Blender 5.2.1 LTS
# www.blender.org
mtllib flamethrower.mtl
o BASE.015
v -0.361200 0.000000 0.350600
v 0.361200 0.000000 0.350600
v 0.375600 0.000000 0.336200
v 0.375600 0.000000 -0.336200
v 0.361200 0.000000 -0.350600
v -0.361200 0.000000 -0.350600
v -0.375600 0.000000 -0.336200
v -0.375600 0.000000 0.336200
v -0.375600 0.014400 0.365000
v 0.375600 0.014400 0.365000
v 0.390000 0.014400 0.350600
v 0.390000 0.014400 -0.350600
v 0.375600 0.014400 -0.365000
v -0.375600 0.014400 -0.365000
v -0.390000 0.014400 -0.350600
v -0.390000 0.014400 0.350600
v -0.375600 0.105600 0.365000
v 0.375600 0.105600 0.365000
v 0.390000 0.105600 0.350600
v 0.390000 0.105600 -0.350600
v 0.375600 0.105600 -0.365000
v -0.375600 0.105600 -0.365000
v -0.390000 0.105600 -0.350600
v -0.390000 0.105600 0.350600
v -0.361200 0.120000 0.350600
v 0.361200 0.120000 0.350600
v 0.375600 0.120000 0.336200
v 0.375600 0.120000 -0.336200
v 0.361200 0.120000 -0.350600
v -0.361200 0.120000 -0.350600
v -0.375600 0.120000 -0.336200
v -0.375600 0.120000 0.336200
v -0.300000 0.121000 -0.302000
v -0.327713 0.121000 -0.286000
v -0.327713 0.121000 -0.254000
v -0.300000 0.121000 -0.238000
v -0.272287 0.121000 -0.254000
v -0.272287 0.121000 -0.286000
v -0.300000 0.141000 -0.302000
v -0.327713 0.141000 -0.286000
v -0.327713 0.141000 -0.254000
v -0.300000 0.141000 -0.238000
v -0.272287 0.141000 -0.254000
v -0.272287 0.141000 -0.286000
v -0.300000 0.121000 0.238000
v -0.327713 0.121000 0.254000
v -0.327713 0.121000 0.286000
v -0.300000 0.121000 0.302000
v -0.272287 0.121000 0.286000
v -0.272287 0.121000 0.254000
v -0.300000 0.141000 0.238000
v -0.327713 0.141000 0.254000
v -0.327713 0.141000 0.286000
v -0.300000 0.141000 0.302000
v -0.272287 0.141000 0.286000
v -0.272287 0.141000 0.254000
v 0.300000 0.121000 -0.302000
v 0.272287 0.121000 -0.286000
v 0.272287 0.121000 -0.254000
v 0.300000 0.121000 -0.238000
v 0.327713 0.121000 -0.254000
v 0.327713 0.121000 -0.286000
v 0.300000 0.141000 -0.302000
v 0.272287 0.141000 -0.286000
v 0.272287 0.141000 -0.254000
v 0.300000 0.141000 -0.238000
v 0.327713 0.141000 -0.254000
v 0.327713 0.141000 -0.286000
v 0.300000 0.121000 0.238000
v 0.272287 0.121000 0.254000
v 0.272287 0.121000 0.286000
v 0.300000 0.121000 0.302000
v 0.327713 0.121000 0.286000
v 0.327713 0.121000 0.254000
v 0.300000 0.141000 0.238000
v 0.272287 0.141000 0.254000
v 0.272287 0.141000 0.286000
v 0.300000 0.141000 0.302000
v 0.327713 0.141000 0.286000
v 0.327713 0.141000 0.254000
v 0.000000 0.110000 -0.360000
v -0.180000 0.110000 -0.311769
v -0.311769 0.110000 -0.180000
v -0.360000 0.110000 -0.000000
v -0.311769 0.110000 0.180000
v -0.180000 0.110000 0.311769
v -0.000000 0.110000 0.360000
v 0.180000 0.110000 0.311769
v 0.311769 0.110000 0.180000
v 0.360000 0.110000 0.000000
v 0.311769 0.110000 -0.180000
v 0.180000 0.110000 -0.311769
v 0.000000 0.210000 -0.360000
v -0.180000 0.210000 -0.311769
v -0.311769 0.210000 -0.180000
v -0.360000 0.210000 -0.000000
v -0.311769 0.210000 0.180000
v -0.180000 0.210000 0.311769
v -0.000000 0.210000 0.360000
v 0.180000 0.210000 0.311769
v 0.311769 0.210000 0.180000
v 0.360000 0.210000 0.000000
v 0.311769 0.210000 -0.180000
v 0.180000 0.210000 -0.311769
vn -0.0000 -1.0000 -0.0000
vn -0.0000 -0.7071 0.7071
vn 0.4082 -0.8165 0.4082
vn 0.7071 -0.7071 -0.0000
vn 0.4082 -0.8165 -0.4082
vn -0.0000 -0.7071 -0.7071
vn -0.4082 -0.8165 -0.4082
vn -0.7071 -0.7071 -0.0000
vn -0.4082 -0.8165 0.4082
vn -0.0000 -0.0000 1.0000
vn 0.7071 -0.0000 0.7071
vn 1.0000 -0.0000 -0.0000
vn 0.7071 -0.0000 -0.7071
vn -0.0000 -0.0000 -1.0000
vn -0.7071 -0.0000 -0.7071
vn -1.0000 -0.0000 -0.0000
vn -0.7071 -0.0000 0.7071
vn -0.0000 0.7071 0.7071
vn 0.4082 0.8165 0.4082
vn 0.7071 0.7071 -0.0000
vn 0.4082 0.8165 -0.4082
vn -0.0000 0.7071 -0.7071
vn -0.4082 0.8165 -0.4082
vn -0.7071 0.7071 -0.0000
vn -0.4082 0.8165 0.4082
vn -0.0000 1.0000 -0.0000
vn -0.5000 -0.0000 -0.8660
vn -0.5000 -0.0000 0.8660
vn 0.5000 -0.0000 0.8660
vn 0.5000 -0.0000 -0.8660
vn -0.2588 -0.0000 -0.9659
vn -0.9659 -0.0000 -0.2588
vn -0.9659 -0.0000 0.2588
vn -0.2588 -0.0000 0.9659
vn 0.2588 -0.0000 0.9659
vn 0.9659 -0.0000 0.2588
vn 0.9659 -0.0000 -0.2588
vn 0.2588 -0.0000 -0.9659
vt 0.625000 0.125000
vt 0.375000 0.875000
vt 0.125000 0.625000
s 0
usemtl Military_Equipment_Palette
f 2/1/1 1/1/1 5/1/1
f 2/1/2 9/1/2 1/1/2
f 2/1/3 11/1/3 10/1/3
f 4/1/4 11/1/4 3/1/4
f 5/1/5 12/1/5 4/1/5
f 6/1/6 13/1/6 5/1/6
f 6/1/7 15/1/7 14/1/7
f 8/1/8 15/1/8 7/1/8
f 1/1/9 16/1/9 8/1/9
f 10/1/10 17/1/10 9/1/10
f 11/1/11 18/1/11 10/1/11
f 12/1/12 19/1/12 11/1/12
f 13/1/13 20/1/13 12/1/13
f 14/1/14 21/1/14 13/1/14
f 15/1/15 22/1/15 14/1/15
f 16/1/16 23/1/16 15/1/16
f 9/1/17 24/1/17 16/1/17
f 18/1/18 25/1/18 17/1/18
f 19/1/19 26/1/19 18/1/19
f 20/1/20 27/1/20 19/1/20
f 20/1/21 29/1/21 28/1/21
f 22/1/22 29/1/22 21/1/22
f 23/1/23 30/1/23 22/1/23
f 24/1/24 31/1/24 23/1/24
f 24/1/25 25/1/25 32/1/25
f 30/1/26 31/1/26 32/1/26
f 37/2/1 35/2/1 33/2/1
f 34/2/27 39/2/27 33/2/27
f 35/2/16 40/2/16 34/2/16
f 36/2/28 41/2/28 35/2/28
f 37/2/29 42/2/29 36/2/29
f 38/2/12 43/2/12 37/2/12
f 33/2/30 44/2/30 38/2/30
f 40/2/26 42/2/26 44/2/26
f 49/2/1 47/2/1 45/2/1
f 46/2/27 51/2/27 45/2/27
f 47/2/16 52/2/16 46/2/16
f 48/2/28 53/2/28 47/2/28
f 49/2/29 54/2/29 48/2/29
f 50/2/12 55/2/12 49/2/12
f 45/2/30 56/2/30 50/2/30
f 52/2/26 54/2/26 56/2/26
f 61/2/1 59/2/1 57/2/1
f 58/2/27 63/2/27 57/2/27
f 59/2/16 64/2/16 58/2/16
f 60/2/28 65/2/28 59/2/28
f 61/2/29 66/2/29 60/2/29
f 62/2/12 67/2/12 61/2/12
f 57/2/30 68/2/30 62/2/30
f 64/2/26 66/2/26 68/2/26
f 73/2/1 71/2/1 69/2/1
f 70/2/27 75/2/27 69/2/27
f 71/2/16 76/2/16 70/2/16
f 72/2/28 77/2/28 71/2/28
f 73/2/29 78/2/29 72/2/29
f 74/2/12 79/2/12 73/2/12
f 69/2/30 80/2/30 74/2/30
f 76/2/26 78/2/26 80/2/26
f 89/3/1 85/3/1 81/3/1
f 82/3/31 93/3/31 81/3/31
f 83/3/15 94/3/15 82/3/15
f 84/3/32 95/3/32 83/3/32
f 85/3/33 96/3/33 84/3/33
f 86/3/17 97/3/17 85/3/17
f 87/3/34 98/3/34 86/3/34
f 88/3/35 99/3/35 87/3/35
f 89/3/11 100/3/11 88/3/11
f 90/3/36 101/3/36 89/3/36
f 91/3/37 102/3/37 90/3/37
f 92/3/13 103/3/13 91/3/13
f 81/3/38 104/3/38 92/3/38
f 96/3/26 100/3/26 104/3/26
f 1/1/1 8/1/1 7/1/1
f 7/1/1 6/1/1 1/1/1
f 6/1/1 5/1/1 1/1/1
f 5/1/1 4/1/1 3/1/1
f 3/1/1 2/1/1 5/1/1
f 2/1/2 10/1/2 9/1/2
f 2/1/3 3/1/3 11/1/3
f 4/1/4 12/1/4 11/1/4
f 5/1/5 13/1/5 12/1/5
f 6/1/6 14/1/6 13/1/6
f 6/1/7 7/1/7 15/1/7
f 8/1/8 16/1/8 15/1/8
f 1/1/9 9/1/9 16/1/9
f 10/1/10 18/1/10 17/1/10
f 11/1/11 19/1/11 18/1/11
f 12/1/12 20/1/12 19/1/12
f 13/1/13 21/1/13 20/1/13
f 14/1/14 22/1/14 21/1/14
f 15/1/15 23/1/15 22/1/15
f 16/1/16 24/1/16 23/1/16
f 9/1/17 17/1/17 24/1/17
f 18/1/18 26/1/18 25/1/18
f 19/1/19 27/1/19 26/1/19
f 20/1/20 28/1/20 27/1/20
f 20/1/21 21/1/21 29/1/21
f 22/1/22 30/1/22 29/1/22
f 23/1/23 31/1/23 30/1/23
f 24/1/24 32/1/24 31/1/24
f 24/1/25 17/1/25 25/1/25
f 32/1/26 25/1/26 30/1/26
f 25/1/26 26/1/26 30/1/26
f 26/1/26 27/1/26 28/1/26
f 28/1/26 29/1/26 26/1/26
f 29/1/26 30/1/26 26/1/26
f 33/2/1 38/2/1 37/2/1
f 37/2/1 36/2/1 35/2/1
f 35/2/1 34/2/1 33/2/1
f 34/2/27 40/2/27 39/2/27
f 35/2/16 41/2/16 40/2/16
f 36/2/28 42/2/28 41/2/28
f 37/2/29 43/2/29 42/2/29
f 38/2/12 44/2/12 43/2/12
f 33/2/30 39/2/30 44/2/30
f 44/2/26 39/2/26 40/2/26
f 40/2/26 41/2/26 42/2/26
f 42/2/26 43/2/26 44/2/26
f 45/2/1 50/2/1 49/2/1
f 49/2/1 48/2/1 47/2/1
f 47/2/1 46/2/1 45/2/1
f 46/2/27 52/2/27 51/2/27
f 47/2/16 53/2/16 52/2/16
f 48/2/28 54/2/28 53/2/28
f 49/2/29 55/2/29 54/2/29
f 50/2/12 56/2/12 55/2/12
f 45/2/30 51/2/30 56/2/30
f 56/2/26 51/2/26 52/2/26
f 52/2/26 53/2/26 54/2/26
f 54/2/26 55/2/26 56/2/26
f 57/2/1 62/2/1 61/2/1
f 61/2/1 60/2/1 59/2/1
f 59/2/1 58/2/1 57/2/1
f 58/2/27 64/2/27 63/2/27
f 59/2/16 65/2/16 64/2/16
f 60/2/28 66/2/28 65/2/28
f 61/2/29 67/2/29 66/2/29
f 62/2/12 68/2/12 67/2/12
f 57/2/30 63/2/30 68/2/30
f 68/2/26 63/2/26 64/2/26
f 64/2/26 65/2/26 66/2/26
f 66/2/26 67/2/26 68/2/26
f 69/2/1 74/2/1 73/2/1
f 73/2/1 72/2/1 71/2/1
f 71/2/1 70/2/1 69/2/1
f 70/2/27 76/2/27 75/2/27
f 71/2/16 77/2/16 76/2/16
f 72/2/28 78/2/28 77/2/28
f 73/2/29 79/2/29 78/2/29
f 74/2/12 80/2/12 79/2/12
f 69/2/30 75/2/30 80/2/30
f 80/2/26 75/2/26 76/2/26
f 76/2/26 77/2/26 78/2/26
f 78/2/26 79/2/26 80/2/26
f 81/3/1 92/3/1 91/3/1
f 91/3/1 90/3/1 89/3/1
f 89/3/1 88/3/1 87/3/1
f 87/3/1 86/3/1 85/3/1
f 85/3/1 84/3/1 83/3/1
f 83/3/1 82/3/1 81/3/1
f 81/3/1 91/3/1 89/3/1
f 89/3/1 87/3/1 85/3/1
f 85/3/1 83/3/1 81/3/1
f 82/3/31 94/3/31 93/3/31
f 83/3/15 95/3/15 94/3/15
f 84/3/32 96/3/32 95/3/32
f 85/3/33 97/3/33 96/3/33
f 86/3/17 98/3/17 97/3/17
f 87/3/34 99/3/34 98/3/34
f 88/3/35 100/3/35 99/3/35
f 89/3/11 101/3/11 100/3/11
f 90/3/36 102/3/36 101/3/36
f 91/3/37 103/3/37 102/3/37
f 92/3/13 104/3/13 103/3/13
f 81/3/38 93/3/38 104/3/38
f 104/3/26 93/3/26 94/3/26
f 94/3/26 95/3/26 96/3/26
f 96/3/26 97/3/26 98/3/26
f 98/3/26 99/3/26 100/3/26
f 100/3/26 101/3/26 102/3/26
f 102/3/26 103/3/26 104/3/26
f 104/3/26 94/3/26 96/3/26
f 96/3/26 98/3/26 100/3/26
f 100/3/26 102/3/26 104/3/26
o MOVING.006
v 0.000000 0.130000 -0.290000
v -0.170458 0.130000 -0.234615
v -0.275806 0.130000 -0.089615
v -0.275806 0.130000 0.089615
v -0.170458 0.130000 0.234615
v -0.000000 0.130000 0.290000
v 0.170458 0.130000 0.234615
v 0.275806 0.130000 0.089615
v 0.275806 0.130000 -0.089615
v 0.170458 0.130000 -0.234615
v 0.000000 0.470000 -0.290000
v -0.170458 0.470000 -0.234615
v -0.275806 0.470000 -0.089615
v -0.275806 0.470000 0.089615
v -0.170458 0.470000 0.234615
v -0.000000 0.470000 0.290000
v 0.170458 0.470000 0.234615
v 0.275806 0.470000 0.089615
v 0.275806 0.470000 -0.089615
v 0.170458 0.470000 -0.234615
v -0.255000 0.320000 0.260000
v 0.255000 0.320000 0.260000
v 0.280000 0.320000 0.235000
v 0.280000 0.320000 -0.235000
v 0.255000 0.320000 -0.260000
v -0.255000 0.320000 -0.260000
v -0.280000 0.320000 -0.235000
v -0.280000 0.320000 0.235000
v -0.280000 0.345000 0.285000
v 0.280000 0.345000 0.285000
v 0.305000 0.345000 0.260000
v 0.305000 0.345000 -0.260000
v 0.280000 0.345000 -0.285000
v -0.280000 0.345000 -0.285000
v -0.305000 0.345000 -0.260000
v -0.305000 0.345000 0.260000
v -0.280000 0.695000 0.285000
v 0.280000 0.695000 0.285000
v 0.305000 0.695000 0.260000
v 0.305000 0.695000 -0.260000
v 0.280000 0.695000 -0.285000
v -0.280000 0.695000 -0.285000
v -0.305000 0.695000 -0.260000
v -0.305000 0.695000 0.260000
v -0.255000 0.720000 0.260000
v 0.255000 0.720000 0.260000
v 0.280000 0.720000 0.235000
v 0.280000 0.720000 -0.235000
v 0.255000 0.720000 -0.260000
v -0.255000 0.720000 -0.260000
v -0.280000 0.720000 -0.235000
v -0.280000 0.720000 0.235000
v -0.230000 0.715000 0.150000
v 0.230000 0.715000 0.150000
v 0.230000 0.715000 -0.270000
v -0.230000 0.715000 -0.270000
v -0.230000 0.775000 0.150000
v 0.230000 0.775000 0.150000
v 0.230000 0.775000 -0.270000
v -0.230000 0.775000 -0.270000
v 0.000000 0.652000 0.360000
v -0.042321 0.638249 0.360000
v -0.068476 0.602249 0.360000
v -0.068476 0.557751 0.360000
v -0.042321 0.521751 0.360000
v -0.000000 0.508000 0.360000
v 0.042321 0.521751 0.360000
v 0.068476 0.557751 0.360000
v 0.068476 0.602249 0.360000
v 0.042321 0.638249 0.360000
v 0.000000 0.652000 1.490000
v -0.042321 0.638249 1.490000
v -0.068476 0.602249 1.490000
v -0.068476 0.557751 1.490000
v -0.042321 0.521751 1.490000
v -0.000000 0.508000 1.490000
v 0.042321 0.521751 1.490000
v 0.068476 0.557751 1.490000
v 0.068476 0.602249 1.490000
v 0.042321 0.638249 1.490000
v 0.000000 0.677200 1.455000
v -0.057133 0.658636 1.455000
v -0.092443 0.610036 1.455000
v -0.092443 0.549964 1.455000
v -0.057133 0.501364 1.455000
v -0.000000 0.482800 1.455000
v 0.057133 0.501364 1.455000
v 0.092443 0.549964 1.455000
v 0.092443 0.610036 1.455000
v 0.057133 0.658636 1.455000
v 0.000000 0.677200 1.545000
v -0.057133 0.658636 1.545000
v -0.092443 0.610036 1.545000
v -0.092443 0.549964 1.545000
v -0.057133 0.501364 1.545000
v -0.000000 0.482800 1.545000
v 0.057133 0.501364 1.545000
v 0.092443 0.549964 1.545000
v 0.092443 0.610036 1.545000
v 0.057133 0.658636 1.545000
v 0.000000 0.634000 1.548000
v -0.031740 0.623687 1.548000
v -0.051357 0.596687 1.548000
v -0.051357 0.563313 1.548000
v -0.031740 0.536313 1.548000
v -0.000000 0.526000 1.548000
v 0.031740 0.536313 1.548000
v 0.051357 0.563313 1.548000
v 0.051357 0.596687 1.548000
v 0.031740 0.623687 1.548000
v 0.000000 0.634000 1.562000
v -0.031740 0.623687 1.562000
v -0.051357 0.596687 1.562000
v -0.051357 0.563313 1.562000
v -0.031740 0.536313 1.562000
v -0.000000 0.526000 1.562000
v 0.031740 0.536313 1.562000
v 0.051357 0.563313 1.562000
v 0.051357 0.596687 1.562000
v 0.031740 0.623687 1.562000
v -0.240000 0.260000 -0.430000
v -0.316412 0.260000 -0.405172
v -0.363637 0.260000 -0.340172
v -0.363637 0.260000 -0.259828
v -0.316412 0.260000 -0.194828
v -0.240000 0.260000 -0.170000
v -0.163588 0.260000 -0.194828
v -0.116363 0.260000 -0.259828
v -0.116363 0.260000 -0.340172
v -0.163588 0.260000 -0.405172
v -0.240000 0.780000 -0.430000
v -0.316412 0.780000 -0.405172
v -0.363637 0.780000 -0.340172
v -0.363637 0.780000 -0.259828
v -0.316412 0.780000 -0.194828
v -0.240000 0.780000 -0.170000
v -0.163588 0.780000 -0.194828
v -0.116363 0.780000 -0.259828
v -0.116363 0.780000 -0.340172
v -0.163588 0.780000 -0.405172
v 0.240000 0.260000 -0.430000
v 0.163588 0.260000 -0.405172
v 0.116363 0.260000 -0.340172
v 0.116363 0.260000 -0.259828
v 0.163588 0.260000 -0.194828
v 0.240000 0.260000 -0.170000
v 0.316412 0.260000 -0.194828
v 0.363637 0.260000 -0.259828
v 0.363637 0.260000 -0.340172
v 0.316412 0.260000 -0.405172
v 0.240000 0.780000 -0.430000
v 0.163588 0.780000 -0.405172
v 0.116363 0.780000 -0.340172
v 0.116363 0.780000 -0.259828
v 0.163588 0.780000 -0.194828
v 0.240000 0.780000 -0.170000
v 0.316412 0.780000 -0.194828
v 0.363637 0.780000 -0.259828
v 0.363637 0.780000 -0.340172
v 0.316412 0.780000 -0.405172
v -0.222500 0.685000 0.127500
v -0.197500 0.685000 0.127500
v -0.197500 0.685000 0.072500
v -0.222500 0.685000 0.072500
v -0.222500 0.815000 0.127500
v -0.197500 0.815000 0.127500
v -0.197500 0.815000 0.072500
v -0.222500 0.815000 0.072500
v 0.197500 0.685000 0.127500
v 0.222500 0.685000 0.127500
v 0.222500 0.685000 0.072500
v 0.197500 0.685000 0.072500
v 0.197500 0.815000 0.127500
v 0.222500 0.815000 0.127500
v 0.222500 0.815000 0.072500
v 0.197500 0.815000 0.072500
v -0.240000 0.307500 -0.443000
v -0.324053 0.307500 -0.415689
v -0.376001 0.307500 -0.344189
v -0.376001 0.307500 -0.255811
v -0.324053 0.307500 -0.184311
v -0.240000 0.307500 -0.157000
v -0.155947 0.307500 -0.184311
v -0.103999 0.307500 -0.255811
v -0.103999 0.307500 -0.344189
v -0.155947 0.307500 -0.415689
v -0.240000 0.352500 -0.443000
v -0.324053 0.352500 -0.415689
v -0.376001 0.352500 -0.344189
v -0.376001 0.352500 -0.255811
v -0.324053 0.352500 -0.184311
v -0.240000 0.352500 -0.157000
v -0.155947 0.352500 -0.184311
v -0.103999 0.352500 -0.255811
v -0.103999 0.352500 -0.344189
v -0.155947 0.352500 -0.415689
v -0.240000 0.657500 -0.443000
v -0.324053 0.657500 -0.415689
v -0.376001 0.657500 -0.344189
v -0.376001 0.657500 -0.255811
v -0.324053 0.657500 -0.184311
v -0.240000 0.657500 -0.157000
v -0.155947 0.657500 -0.184311
v -0.103999 0.657500 -0.255811
v -0.103999 0.657500 -0.344189
v -0.155947 0.657500 -0.415689
v -0.240000 0.702500 -0.443000
v -0.324053 0.702500 -0.415689
v -0.376001 0.702500 -0.344189
v -0.376001 0.702500 -0.255811
v -0.324053 0.702500 -0.184311
v -0.240000 0.702500 -0.157000
v -0.155947 0.702500 -0.184311
v -0.103999 0.702500 -0.255811
v -0.103999 0.702500 -0.344189
v -0.155947 0.702500 -0.415689
v -0.240000 0.317811 -0.303245
v -0.267863 0.290321 -0.297251
v -0.240000 0.262189 -0.296755
v -0.212137 0.289679 -0.302749
v -0.180000 0.387811 0.296755
v -0.207863 0.360321 0.302749
v -0.180000 0.332189 0.303245
v -0.152137 0.359679 0.297251
v 0.240000 0.307500 -0.443000
v 0.155947 0.307500 -0.415689
v 0.103999 0.307500 -0.344189
v 0.103999 0.307500 -0.255811
v 0.155947 0.307500 -0.184311
v 0.240000 0.307500 -0.157000
v 0.324053 0.307500 -0.184311
v 0.376001 0.307500 -0.255811
v 0.376001 0.307500 -0.344189
v 0.324053 0.307500 -0.415689
v 0.240000 0.352500 -0.443000
v 0.155947 0.352500 -0.415689
v 0.103999 0.352500 -0.344189
v 0.103999 0.352500 -0.255811
v 0.155947 0.352500 -0.184311
v 0.240000 0.352500 -0.157000
v 0.324053 0.352500 -0.184311
v 0.376001 0.352500 -0.255811
v 0.376001 0.352500 -0.344189
v 0.324053 0.352500 -0.415689
v 0.240000 0.657500 -0.443000
v 0.155947 0.657500 -0.415689
v 0.103999 0.657500 -0.344189
v 0.103999 0.657500 -0.255811
v 0.155947 0.657500 -0.184311
v 0.240000 0.657500 -0.157000
v 0.324053 0.657500 -0.184311
v 0.376001 0.657500 -0.255811
v 0.376001 0.657500 -0.344189
v 0.324053 0.657500 -0.415689
v 0.240000 0.702500 -0.443000
v 0.155947 0.702500 -0.415689
v 0.103999 0.702500 -0.344189
v 0.103999 0.702500 -0.255811
v 0.155947 0.702500 -0.184311
v 0.240000 0.702500 -0.157000
v 0.324053 0.702500 -0.184311
v 0.376001 0.702500 -0.255811
v 0.376001 0.702500 -0.344189
v 0.324053 0.702500 -0.415689
v 0.240000 0.317811 -0.303245
v 0.212137 0.289679 -0.302749
v 0.240000 0.262189 -0.296755
v 0.267863 0.290321 -0.297251
v 0.180000 0.387811 0.296755
v 0.152137 0.359679 0.297251
v 0.180000 0.332189 0.303245
v 0.207863 0.360321 0.302749
v 0.000000 0.720000 1.320000
v -0.082290 0.693262 1.320000
v -0.133148 0.623262 1.320000
v -0.133148 0.536738 1.320000
v -0.082290 0.466738 1.320000
v -0.000000 0.440000 1.320000
v 0.082290 0.466738 1.320000
v 0.133148 0.536738 1.320000
v 0.133148 0.623262 1.320000
v 0.082290 0.693262 1.320000
v 0.000000 0.720000 1.540000
v -0.082290 0.693262 1.540000
v -0.133148 0.623262 1.540000
v -0.133148 0.536738 1.540000
v -0.082290 0.466738 1.540000
v -0.000000 0.440000 1.540000
v 0.082290 0.466738 1.540000
v 0.133148 0.536738 1.540000
v 0.133148 0.623262 1.540000
v 0.082290 0.693262 1.540000
v -0.018200 0.405000 1.601600
v 0.018200 0.405000 1.601600
v 0.026600 0.405000 1.593200
v 0.026600 0.405000 1.426800
v 0.018200 0.405000 1.418400
v -0.018200 0.405000 1.418400
v -0.026600 0.405000 1.426800
v -0.026600 0.405000 1.593200
v -0.026600 0.413400 1.610000
v 0.026600 0.413400 1.610000
v 0.035000 0.413400 1.601600
v 0.035000 0.413400 1.418400
v 0.026600 0.413400 1.410000
v -0.026600 0.413400 1.410000
v -0.035000 0.413400 1.418400
v -0.035000 0.413400 1.601600
v -0.026600 0.466600 1.610000
v 0.026600 0.466600 1.610000
v 0.035000 0.466600 1.601600
v 0.035000 0.466600 1.418400
v 0.026600 0.466600 1.410000
v -0.026600 0.466600 1.410000
v -0.035000 0.466600 1.418400
v -0.035000 0.466600 1.601600
v -0.018200 0.475000 1.601600
v 0.018200 0.475000 1.601600
v 0.026600 0.475000 1.593200
v 0.026600 0.475000 1.426800
v 0.018200 0.475000 1.418400
v -0.018200 0.475000 1.418400
v -0.026600 0.475000 1.426800
v -0.026600 0.475000 1.593200
vn -0.0000 -1.0000 -0.0000
vn -0.3090 -0.0000 -0.9511
vn -0.8090 -0.0000 -0.5878
vn -1.0000 -0.0000 -0.0000
vn -0.8090 -0.0000 0.5878
vn -0.3090 -0.0000 0.9511
vn 0.3090 -0.0000 0.9511
vn 0.8090 -0.0000 0.5878
vn 1.0000 -0.0000 -0.0000
vn 0.8090 -0.0000 -0.5878
vn 0.3090 -0.0000 -0.9511
vn -0.0000 1.0000 -0.0000
vn -0.0000 -0.7071 0.7071
vn 0.4082 -0.8165 0.4082
vn 0.7071 -0.7071 -0.0000
vn 0.4082 -0.8165 -0.4082
vn -0.0000 -0.7071 -0.7071
vn -0.4082 -0.8165 -0.4082
vn -0.7071 -0.7071 -0.0000
vn -0.4082 -0.8165 0.4082
vn -0.0000 -0.0000 1.0000
vn 0.7071 -0.0000 0.7071
vn 0.7071 -0.0000 -0.7071
vn -0.0000 -0.0000 -1.0000
vn -0.7071 -0.0000 -0.7071
vn -0.7071 -0.0000 0.7071
vn -0.0000 0.7071 0.7071
vn 0.4082 0.8165 0.4082
vn 0.7071 0.7071 -0.0000
vn 0.4082 0.8165 -0.4083
vn -0.0000 0.7071 -0.7071
vn -0.4082 0.8165 -0.4082
vn -0.7071 0.7071 -0.0000
vn -0.4082 0.8165 0.4083
vn -0.3090 0.9511 -0.0000
vn -0.8090 0.5878 -0.0000
vn -0.8090 -0.5878 -0.0000
vn -0.3090 -0.9511 -0.0000
vn 0.3090 -0.9511 -0.0000
vn 0.8090 -0.5878 -0.0000
vn 0.8090 0.5878 -0.0000
vn 0.3090 0.9511 -0.0000
vn -0.0988 -0.1153 -0.9884
vn -0.7036 0.7104 -0.0125
vn -0.7036 -0.6942 0.1514
vn 0.7036 -0.7104 0.0125
vn 0.7036 0.6942 -0.1514
vn 0.0988 0.1153 0.9884
vn 0.0988 -0.1153 -0.9884
vn -0.7036 0.6942 -0.1514
vn -0.7036 -0.7104 0.0125
vn 0.7036 -0.6942 0.1514
vn 0.7036 0.7104 -0.0125
vn -0.0988 0.1153 0.9884
vn -0.4083 -0.8165 -0.4083
vn 0.4082 0.8165 -0.4082
vn -0.4083 0.8165 -0.4083
vn -0.4082 0.8165 0.4082
vn 0.4082 0.8165 0.4083
vn -0.4082 0.8165 -0.4083
vn 0.4083 -0.8165 -0.4083
vn -0.4083 -0.8165 -0.4082
vn 0.4083 0.8165 -0.4083
vt 0.625000 0.125000
vt 0.125000 0.125000
vt 0.375000 0.125000
vt 0.875000 0.125000
vt 0.125000 0.625000
vt 0.625000 0.875000
vt 0.625000 0.625000
vt 0.125000 0.375000
vt 0.375000 0.875000
s 0
usemtl Military_Equipment_Palette
f 111/4/39 107/4/39 105/4/39
f 106/4/40 115/4/40 105/4/40
f 107/4/41 116/4/41 106/4/41
f 108/4/42 117/4/42 107/4/42
f 109/4/43 118/4/43 108/4/43
f 110/4/44 119/4/44 109/4/44
f 111/4/45 120/4/45 110/4/45
f 112/4/46 121/4/46 111/4/46
f 113/4/47 122/4/47 112/4/47
f 114/4/48 123/4/48 113/4/48
f 105/4/49 124/4/49 114/4/49
f 118/4/50 122/4/50 124/4/50
f 126/5/39 125/5/39 129/5/39
f 126/5/51 133/5/51 125/5/51
f 127/5/52 134/5/52 126/5/52
f 128/5/53 135/5/53 127/5/53
f 128/5/54 137/5/54 136/5/54
f 130/5/55 137/5/55 129/5/55
f 131/5/56 138/5/56 130/5/56
f 132/5/57 139/5/57 131/5/57
f 132/5/58 133/5/58 140/5/58
f 134/5/59 141/5/59 133/5/59
f 135/5/60 142/5/60 134/5/60
f 136/5/47 143/5/47 135/5/47
f 137/5/61 144/5/61 136/5/61
f 138/5/62 145/5/62 137/5/62
f 139/5/63 146/5/63 138/5/63
f 140/5/42 147/5/42 139/5/42
f 133/5/64 148/5/64 140/5/64
f 142/5/65 149/5/65 141/5/65
f 142/5/66 151/5/66 150/5/66
f 144/5/67 151/5/67 143/5/67
f 145/5/68 152/5/68 144/5/68
f 146/5/69 153/5/69 145/5/69
f 146/5/70 155/5/70 154/5/70
f 148/5/71 155/5/71 147/5/71
f 141/5/72 156/5/72 148/5/72
f 154/5/50 155/5/50 156/5/50
f 159/6/39 157/6/39 160/6/39
f 162/6/50 164/6/50 161/6/50
f 158/6/59 161/6/59 157/6/59
f 159/6/47 162/6/47 158/6/47
f 160/6/62 163/6/62 159/6/62
f 157/6/42 164/6/42 160/6/42
f 171/7/62 167/7/62 165/7/62
f 166/7/73 175/7/73 165/7/73
f 167/7/74 176/7/74 166/7/74
f 168/7/42 177/7/42 167/7/42
f 169/7/75 178/7/75 168/7/75
f 170/7/76 179/7/76 169/7/76
f 171/7/77 180/7/77 170/7/77
f 172/7/78 181/7/78 171/7/78
f 173/7/47 182/7/47 172/7/47
f 174/7/79 183/7/79 173/7/79
f 165/7/80 184/7/80 174/7/80
f 180/7/59 182/7/59 184/7/59
f 189/8/62 187/8/62 185/8/62
f 186/8/73 195/8/73 185/8/73
f 187/8/74 196/8/74 186/8/74
f 188/8/42 197/8/42 187/8/42
f 189/8/75 198/8/75 188/8/75
f 190/8/76 199/8/76 189/8/76
f 191/8/77 200/8/77 190/8/77
f 192/8/78 201/8/78 191/8/78
f 193/8/47 202/8/47 192/8/47
f 194/8/79 203/8/79 193/8/79
f 185/8/80 204/8/80 194/8/80
f 198/8/59 202/8/59 204/8/59
f 213/9/62 211/9/62 207/9/62
f 206/9/73 215/9/73 205/9/73
f 207/9/74 216/9/74 206/9/74
f 208/9/42 217/9/42 207/9/42
f 209/9/75 218/9/75 208/9/75
f 210/9/76 219/9/76 209/9/76
f 211/9/77 220/9/77 210/9/77
f 212/9/78 221/9/78 211/9/78
f 213/9/47 222/9/47 212/9/47
f 214/9/79 223/9/79 213/9/79
f 205/9/80 224/9/80 214/9/80
f 223/9/59 224/9/59 218/9/59
f 231/10/39 227/10/39 225/10/39
f 226/10/40 235/10/40 225/10/40
f 227/10/41 236/10/41 226/10/41
f 228/10/42 237/10/42 227/10/42
f 229/10/43 238/10/43 228/10/43
f 230/10/44 239/10/44 229/10/44
f 231/10/45 240/10/45 230/10/45
f 232/10/46 241/10/46 231/10/46
f 233/10/47 242/10/47 232/10/47
f 234/10/48 243/10/48 233/10/48
f 225/10/49 244/10/49 234/10/49
f 238/10/50 240/10/50 242/10/50
f 251/10/39 247/10/39 245/10/39
f 246/10/40 255/10/40 245/10/40
f 247/10/41 256/10/41 246/10/41
f 248/10/42 257/10/42 247/10/42
f 249/10/43 258/10/43 248/10/43
f 250/10/44 259/10/44 249/10/44
f 251/10/45 260/10/45 250/10/45
f 252/10/46 261/10/46 251/10/46
f 253/10/47 262/10/47 252/10/47
f 254/10/48 263/10/48 253/10/48
f 245/10/49 264/10/49 254/10/49
f 258/10/50 260/10/50 262/10/50
f 267/7/39 265/7/39 268/7/39
f 270/7/50 272/7/50 269/7/50
f 266/7/59 269/7/59 265/7/59
f 267/7/47 270/7/47 266/7/47
f 268/7/62 271/7/62 267/7/62
f 265/7/42 272/7/42 268/7/42
f 275/7/39 273/7/39 276/7/39
f 278/7/50 280/7/50 277/7/50
f 274/7/59 277/7/59 273/7/59
f 275/7/47 278/7/47 274/7/47
f 276/7/62 279/7/62 275/7/62
f 273/7/42 280/7/42 276/7/42
f 287/8/39 285/8/39 283/8/39
f 282/8/40 291/8/40 281/8/40
f 283/8/41 292/8/41 282/8/41
f 284/8/42 293/8/42 283/8/42
f 285/8/43 294/8/43 284/8/43
f 286/8/44 295/8/44 285/8/44
f 287/8/45 296/8/45 286/8/45
f 288/8/46 297/8/46 287/8/46
f 289/8/47 298/8/47 288/8/47
f 290/8/48 299/8/48 289/8/48
f 281/8/49 300/8/49 290/8/49
f 294/8/50 298/8/50 300/8/50
f 307/8/39 305/8/39 303/8/39
f 302/8/40 311/8/40 301/8/40
f 303/8/41 312/8/41 302/8/41
f 304/8/42 313/8/42 303/8/42
f 305/8/43 314/8/43 304/8/43
f 306/8/44 315/8/44 305/8/44
f 307/8/45 316/8/45 306/8/45
f 308/8/46 317/8/46 307/8/46
f 309/8/47 318/8/47 308/8/47
f 310/8/48 319/8/48 309/8/48
f 301/8/49 320/8/49 310/8/49
f 314/8/50 318/8/50 320/8/50
f 324/11/81 322/11/81 321/11/81
f 322/11/82 325/11/82 321/11/82
f 323/11/83 326/11/83 322/11/83
f 323/11/84 328/11/84 327/11/84
f 321/11/85 328/11/85 324/11/85
f 326/11/86 328/11/86 325/11/86
f 335/8/39 333/8/39 331/8/39
f 330/8/40 339/8/40 329/8/40
f 331/8/41 340/8/41 330/8/41
f 332/8/42 341/8/42 331/8/42
f 333/8/43 342/8/43 332/8/43
f 334/8/44 343/8/44 333/8/44
f 335/8/45 344/8/45 334/8/45
f 336/8/46 345/8/46 335/8/46
f 337/8/47 346/8/47 336/8/47
f 338/8/48 347/8/48 337/8/48
f 329/8/49 348/8/49 338/8/49
f 342/8/50 346/8/50 348/8/50
f 355/8/39 353/8/39 351/8/39
f 350/8/40 359/8/40 349/8/40
f 351/8/41 360/8/41 350/8/41
f 352/8/42 361/8/42 351/8/42
f 353/8/43 362/8/43 352/8/43
f 354/8/44 363/8/44 353/8/44
f 355/8/45 364/8/45 354/8/45
f 356/8/46 365/8/46 355/8/46
f 357/8/47 366/8/47 356/8/47
f 358/8/48 367/8/48 357/8/48
f 349/8/49 368/8/49 358/8/49
f 362/8/50 366/8/50 368/8/50
f 371/11/87 369/11/87 372/11/87
f 370/11/88 373/11/88 369/11/88
f 371/11/89 374/11/89 370/11/89
f 372/11/90 375/11/90 371/11/90
f 369/11/91 376/11/91 372/11/91
f 374/11/92 376/11/92 373/11/92
f 381/4/62 379/4/62 377/4/62
f 378/4/73 387/4/73 377/4/73
f 379/4/74 388/4/74 378/4/74
f 380/4/42 389/4/42 379/4/42
f 381/4/75 390/4/75 380/4/75
f 382/4/76 391/4/76 381/4/76
f 383/4/77 392/4/77 382/4/77
f 384/4/78 393/4/78 383/4/78
f 385/4/47 394/4/47 384/4/47
f 386/4/79 395/4/79 385/4/79
f 377/4/80 396/4/80 386/4/80
f 390/4/59 394/4/59 396/4/59
f 399/12/39 398/12/39 397/12/39
f 398/12/51 405/12/51 397/12/51
f 398/12/52 407/12/52 406/12/52
f 399/12/53 408/12/53 407/12/53
f 401/12/54 408/12/54 400/12/54
f 402/12/55 409/12/55 401/12/55
f 403/12/93 410/12/93 402/12/93
f 404/12/57 411/12/57 403/12/57
f 397/12/58 412/12/58 404/12/58
f 406/12/59 413/12/59 405/12/59
f 407/12/60 414/12/60 406/12/60
f 408/12/47 415/12/47 407/12/47
f 409/12/61 416/12/61 408/12/61
f 410/12/62 417/12/62 409/12/62
f 411/12/63 418/12/63 410/12/63
f 412/12/42 419/12/42 411/12/42
f 405/12/64 420/12/64 412/12/64
f 414/12/65 421/12/65 413/12/65
f 415/12/66 422/12/66 414/12/66
f 416/12/67 423/12/67 415/12/67
f 417/12/94 424/12/94 416/12/94
f 418/12/69 425/12/69 417/12/69
f 419/12/95 426/12/95 418/12/95
f 419/12/71 428/12/71 427/12/71
f 420/12/96 421/12/96 428/12/96
f 427/12/50 428/12/50 424/12/50
f 105/4/39 114/4/39 111/4/39
f 114/4/39 113/4/39 111/4/39
f 113/4/39 112/4/39 111/4/39
f 111/4/39 110/4/39 109/4/39
f 109/4/39 108/4/39 111/4/39
f 108/4/39 107/4/39 111/4/39
f 107/4/39 106/4/39 105/4/39
f 106/4/40 116/4/40 115/4/40
f 107/4/41 117/4/41 116/4/41
f 108/4/42 118/4/42 117/4/42
f 109/4/43 119/4/43 118/4/43
f 110/4/44 120/4/44 119/4/44
f 111/4/45 121/4/45 120/4/45
f 112/4/46 122/4/46 121/4/46
f 113/4/47 123/4/47 122/4/47
f 114/4/48 124/4/48 123/4/48
f 105/4/49 115/4/49 124/4/49
f 124/4/50 115/4/50 116/4/50
f 116/4/50 117/4/50 124/4/50
f 117/4/50 118/4/50 124/4/50
f 118/4/50 119/4/50 120/4/50
f 120/4/50 121/4/50 118/4/50
f 121/4/50 122/4/50 118/4/50
f 122/4/50 123/4/50 124/4/50
f 125/5/39 132/5/39 131/5/39
f 131/5/39 130/5/39 125/5/39
f 130/5/39 129/5/39 125/5/39
f 129/5/39 128/5/39 127/5/39
f 127/5/39 126/5/39 129/5/39
f 126/5/51 134/5/51 133/5/51
f 127/5/52 135/5/52 134/5/52
f 128/5/53 136/5/53 135/5/53
f 128/5/54 129/5/54 137/5/54
f 130/5/55 138/5/55 137/5/55
f 131/5/56 139/5/56 138/5/56
f 132/5/57 140/5/57 139/5/57
f 132/5/58 125/5/58 133/5/58
f 134/5/59 142/5/59 141/5/59
f 135/5/60 143/5/60 142/5/60
f 136/5/47 144/5/47 143/5/47
f 137/5/61 145/5/61 144/5/61
f 138/5/62 146/5/62 145/5/62
f 139/5/63 147/5/63 146/5/63
f 140/5/42 148/5/42 147/5/42
f 133/5/64 141/5/64 148/5/64
f 142/5/65 150/5/65 149/5/65
f 142/5/97 143/5/97 151/5/97
f 144/5/67 152/5/67 151/5/67
f 145/5/94 153/5/94 152/5/94
f 146/5/69 154/5/69 153/5/69
f 146/5/98 147/5/98 155/5/98
f 148/5/71 156/5/71 155/5/71
f 141/5/96 149/5/96 156/5/96
f 156/5/50 149/5/50 154/5/50
f 149/5/50 150/5/50 154/5/50
f 150/5/50 151/5/50 152/5/50
f 152/5/50 153/5/50 150/5/50
f 153/5/50 154/5/50 150/5/50
f 159/6/39 158/6/39 157/6/39
f 162/6/50 163/6/50 164/6/50
f 158/6/59 162/6/59 161/6/59
f 159/6/47 163/6/47 162/6/47
f 160/6/62 164/6/62 163/6/62
f 157/6/42 161/6/42 164/6/42
f 165/7/62 174/7/62 173/7/62
f 173/7/62 172/7/62 171/7/62
f 171/7/62 170/7/62 167/7/62
f 170/7/62 169/7/62 167/7/62
f 169/7/62 168/7/62 167/7/62
f 167/7/62 166/7/62 165/7/62
f 165/7/62 173/7/62 171/7/62
f 166/7/73 176/7/73 175/7/73
f 167/7/74 177/7/74 176/7/74
f 168/7/42 178/7/42 177/7/42
f 169/7/75 179/7/75 178/7/75
f 170/7/76 180/7/76 179/7/76
f 171/7/77 181/7/77 180/7/77
f 172/7/78 182/7/78 181/7/78
f 173/7/47 183/7/47 182/7/47
f 174/7/79 184/7/79 183/7/79
f 165/7/80 175/7/80 184/7/80
f 184/7/59 175/7/59 178/7/59
f 175/7/59 176/7/59 178/7/59
f 176/7/59 177/7/59 178/7/59
f 178/7/59 179/7/59 180/7/59
f 180/7/59 181/7/59 182/7/59
f 182/7/59 183/7/59 184/7/59
f 178/7/59 180/7/59 184/7/59
f 185/8/62 194/8/62 193/8/62
f 193/8/62 192/8/62 185/8/62
f 192/8/62 191/8/62 185/8/62
f 191/8/62 190/8/62 189/8/62
f 189/8/62 188/8/62 187/8/62
f 187/8/62 186/8/62 185/8/62
f 191/8/62 189/8/62 185/8/62
f 186/8/73 196/8/73 195/8/73
f 187/8/74 197/8/74 196/8/74
f 188/8/42 198/8/42 197/8/42
f 189/8/75 199/8/75 198/8/75
f 190/8/76 200/8/76 199/8/76
f 191/8/77 201/8/77 200/8/77
f 192/8/78 202/8/78 201/8/78
f 193/8/47 203/8/47 202/8/47
f 194/8/79 204/8/79 203/8/79
f 185/8/80 195/8/80 204/8/80
f 204/8/59 195/8/59 198/8/59
f 195/8/59 196/8/59 198/8/59
f 196/8/59 197/8/59 198/8/59
f 198/8/59 199/8/59 200/8/59
f 200/8/59 201/8/59 202/8/59
f 202/8/59 203/8/59 204/8/59
f 198/8/59 200/8/59 202/8/59
f 205/9/62 214/9/62 213/9/62
f 213/9/62 212/9/62 211/9/62
f 211/9/62 210/9/62 209/9/62
f 209/9/62 208/9/62 211/9/62
f 208/9/62 207/9/62 211/9/62
f 207/9/62 206/9/62 205/9/62
f 205/9/62 213/9/62 207/9/62
f 206/9/73 216/9/73 215/9/73
f 207/9/74 217/9/74 216/9/74
f 208/9/42 218/9/42 217/9/42
f 209/9/75 219/9/75 218/9/75
f 210/9/76 220/9/76 219/9/76
f 211/9/77 221/9/77 220/9/77
f 212/9/78 222/9/78 221/9/78
f 213/9/47 223/9/47 222/9/47
f 214/9/79 224/9/79 223/9/79
f 205/9/80 215/9/80 224/9/80
f 224/9/59 215/9/59 216/9/59
f 216/9/59 217/9/59 224/9/59
f 217/9/59 218/9/59 224/9/59
f 218/9/59 219/9/59 222/9/59
f 219/9/59 220/9/59 222/9/59
f 220/9/59 221/9/59 222/9/59
f 222/9/59 223/9/59 218/9/59
f 225/10/39 234/10/39 233/10/39
f 233/10/39 232/10/39 231/10/39
f 231/10/39 230/10/39 227/10/39
f 230/10/39 229/10/39 227/10/39
f 229/10/39 228/10/39 227/10/39
f 227/10/39 226/10/39 225/10/39
f 225/10/39 233/10/39 231/10/39
f 226/10/40 236/10/40 235/10/40
f 227/10/41 237/10/41 236/10/41
f 228/10/42 238/10/42 237/10/42
f 229/10/43 239/10/43 238/10/43
f 230/10/44 240/10/44 239/10/44
f 231/10/45 241/10/45 240/10/45
f 232/10/46 242/10/46 241/10/46
f 233/10/47 243/10/47 242/10/47
f 234/10/48 244/10/48 243/10/48
f 225/10/49 235/10/49 244/10/49
f 244/10/50 235/10/50 238/10/50
f 235/10/50 236/10/50 238/10/50
f 236/10/50 237/10/50 238/10/50
f 238/10/50 239/10/50 240/10/50
f 240/10/50 241/10/50 242/10/50
f 242/10/50 243/10/50 238/10/50
f 243/10/50 244/10/50 238/10/50
f 245/10/39 254/10/39 253/10/39
f 253/10/39 252/10/39 245/10/39
f 252/10/39 251/10/39 245/10/39
f 251/10/39 250/10/39 247/10/39
f 250/10/39 249/10/39 247/10/39
f 249/10/39 248/10/39 247/10/39
f 247/10/39 246/10/39 245/10/39
f 246/10/40 256/10/40 255/10/40
f 247/10/41 257/10/41 256/10/41
f 248/10/42 258/10/42 257/10/42
f 249/10/43 259/10/43 258/10/43
f 250/10/44 260/10/44 259/10/44
f 251/10/45 261/10/45 260/10/45
f 252/10/46 262/10/46 261/10/46
f 253/10/47 263/10/47 262/10/47
f 254/10/48 264/10/48 263/10/48
f 245/10/49 255/10/49 264/10/49
f 264/10/50 255/10/50 258/10/50
f 255/10/50 256/10/50 258/10/50
f 256/10/50 257/10/50 258/10/50
f 258/10/50 259/10/50 260/10/50
f 260/10/50 261/10/50 262/10/50
f 262/10/50 263/10/50 258/10/50
f 263/10/50 264/10/50 258/10/50
f 267/7/39 266/7/39 265/7/39
f 270/7/50 271/7/50 272/7/50
f 266/7/59 270/7/59 269/7/59
f 267/7/47 271/7/47 270/7/47
f 268/7/62 272/7/62 271/7/62
f 265/7/42 269/7/42 272/7/42
f 275/7/39 274/7/39 273/7/39
f 278/7/50 279/7/50 280/7/50
f 274/7/59 278/7/59 277/7/59
f 275/7/47 279/7/47 278/7/47
f 276/7/62 280/7/62 279/7/62
f 273/7/42 277/7/42 280/7/42
f 281/8/39 290/8/39 289/8/39
f 289/8/39 288/8/39 287/8/39
f 287/8/39 286/8/39 285/8/39
f 285/8/39 284/8/39 283/8/39
f 283/8/39 282/8/39 281/8/39
f 281/8/39 289/8/39 283/8/39
f 289/8/39 287/8/39 283/8/39
f 282/8/40 292/8/40 291/8/40
f 283/8/41 293/8/41 292/8/41
f 284/8/42 294/8/42 293/8/42
f 285/8/43 295/8/43 294/8/43
f 286/8/44 296/8/44 295/8/44
f 287/8/45 297/8/45 296/8/45
f 288/8/46 298/8/46 297/8/46
f 289/8/47 299/8/47 298/8/47
f 290/8/48 300/8/48 299/8/48
f 281/8/49 291/8/49 300/8/49
f 300/8/50 291/8/50 292/8/50
f 292/8/50 293/8/50 294/8/50
f 294/8/50 295/8/50 296/8/50
f 296/8/50 297/8/50 294/8/50
f 297/8/50 298/8/50 294/8/50
f 298/8/50 299/8/50 300/8/50
f 300/8/50 292/8/50 294/8/50
f 301/8/39 310/8/39 309/8/39
f 309/8/39 308/8/39 307/8/39
f 307/8/39 306/8/39 305/8/39
f 305/8/39 304/8/39 303/8/39
f 303/8/39 302/8/39 301/8/39
f 301/8/39 309/8/39 303/8/39
f 309/8/39 307/8/39 303/8/39
f 302/8/40 312/8/40 311/8/40
f 303/8/41 313/8/41 312/8/41
f 304/8/42 314/8/42 313/8/42
f 305/8/43 315/8/43 314/8/43
f 306/8/44 316/8/44 315/8/44
f 307/8/45 317/8/45 316/8/45
f 308/8/46 318/8/46 317/8/46
f 309/8/47 319/8/47 318/8/47
f 310/8/48 320/8/48 319/8/48
f 301/8/49 311/8/49 320/8/49
f 320/8/50 311/8/50 312/8/50
f 312/8/50 313/8/50 314/8/50
f 314/8/50 315/8/50 316/8/50
f 316/8/50 317/8/50 314/8/50
f 317/8/50 318/8/50 314/8/50
f 318/8/50 319/8/50 320/8/50
f 320/8/50 312/8/50 314/8/50
f 324/11/81 323/11/81 322/11/81
f 322/11/82 326/11/82 325/11/82
f 323/11/83 327/11/83 326/11/83
f 323/11/84 324/11/84 328/11/84
f 321/11/85 325/11/85 328/11/85
f 326/11/86 327/11/86 328/11/86
f 329/8/39 338/8/39 337/8/39
f 337/8/39 336/8/39 335/8/39
f 335/8/39 334/8/39 333/8/39
f 333/8/39 332/8/39 331/8/39
f 331/8/39 330/8/39 329/8/39
f 329/8/39 337/8/39 331/8/39
f 337/8/39 335/8/39 331/8/39
f 330/8/40 340/8/40 339/8/40
f 331/8/41 341/8/41 340/8/41
f 332/8/42 342/8/42 341/8/42
f 333/8/43 343/8/43 342/8/43
f 334/8/44 344/8/44 343/8/44
f 335/8/45 345/8/45 344/8/45
f 336/8/46 346/8/46 345/8/46
f 337/8/47 347/8/47 346/8/47
f 338/8/48 348/8/48 347/8/48
f 329/8/49 339/8/49 348/8/49
f 348/8/50 339/8/50 340/8/50
f 340/8/50 341/8/50 342/8/50
f 342/8/50 343/8/50 344/8/50
f 344/8/50 345/8/50 342/8/50
f 345/8/50 346/8/50 342/8/50
f 346/8/50 347/8/50 348/8/50
f 348/8/50 340/8/50 342/8/50
f 349/8/39 358/8/39 357/8/39
f 357/8/39 356/8/39 355/8/39
f 355/8/39 354/8/39 353/8/39
f 353/8/39 352/8/39 351/8/39
f 351/8/39 350/8/39 349/8/39
f 349/8/39 357/8/39 351/8/39
f 357/8/39 355/8/39 351/8/39
f 350/8/40 360/8/40 359/8/40
f 351/8/41 361/8/41 360/8/41
f 352/8/42 362/8/42 361/8/42
f 353/8/43 363/8/43 362/8/43
f 354/8/44 364/8/44 363/8/44
f 355/8/45 365/8/45 364/8/45
f 356/8/46 366/8/46 365/8/46
f 357/8/47 367/8/47 366/8/47
f 358/8/48 368/8/48 367/8/48
f 349/8/49 359/8/49 368/8/49
f 368/8/50 359/8/50 360/8/50
f 360/8/50 361/8/50 362/8/50
f 362/8/50 363/8/50 364/8/50
f 364/8/50 365/8/50 362/8/50
f 365/8/50 366/8/50 362/8/50
f 366/8/50 367/8/50 368/8/50
f 368/8/50 360/8/50 362/8/50
f 371/11/87 370/11/87 369/11/87
f 370/11/88 374/11/88 373/11/88
f 371/11/89 375/11/89 374/11/89
f 372/11/90 376/11/90 375/11/90
f 369/11/91 373/11/91 376/11/91
f 374/11/92 375/11/92 376/11/92
f 377/4/62 386/4/62 385/4/62
f 385/4/62 384/4/62 383/4/62
f 383/4/62 382/4/62 381/4/62
f 381/4/62 380/4/62 379/4/62
f 379/4/62 378/4/62 377/4/62
f 377/4/62 385/4/62 383/4/62
f 383/4/62 381/4/62 377/4/62
f 378/4/73 388/4/73 387/4/73
f 379/4/74 389/4/74 388/4/74
f 380/4/42 390/4/42 389/4/42
f 381/4/75 391/4/75 390/4/75
f 382/4/76 392/4/76 391/4/76
f 383/4/77 393/4/77 392/4/77
f 384/4/78 394/4/78 393/4/78
f 385/4/47 395/4/47 394/4/47
f 386/4/79 396/4/79 395/4/79
f 377/4/80 387/4/80 396/4/80
f 396/4/59 387/4/59 388/4/59
f 388/4/59 389/4/59 390/4/59
f 390/4/59 391/4/59 392/4/59
f 392/4/59 393/4/59 394/4/59
f 394/4/59 395/4/59 396/4/59
f 396/4/59 388/4/59 390/4/59
f 390/4/59 392/4/59 394/4/59
f 397/12/39 404/12/39 399/12/39
f 404/12/39 403/12/39 399/12/39
f 403/12/39 402/12/39 401/12/39
f 401/12/39 400/12/39 403/12/39
f 400/12/39 399/12/39 403/12/39
f 398/12/51 406/12/51 405/12/51
f 398/12/52 399/12/52 407/12/52
f 399/12/53 400/12/53 408/12/53
f 401/12/99 409/12/99 408/12/99
f 402/12/55 410/12/55 409/12/55
f 403/12/100 411/12/100 410/12/100
f 404/12/57 412/12/57 411/12/57
f 397/12/58 405/12/58 412/12/58
f 406/12/59 414/12/59 413/12/59
f 407/12/60 415/12/60 414/12/60
f 408/12/47 416/12/47 415/12/47
f 409/12/61 417/12/61 416/12/61
f 410/12/62 418/12/62 417/12/62
f 411/12/63 419/12/63 418/12/63
f 412/12/42 420/12/42 419/12/42
f 405/12/64 413/12/64 420/12/64
f 414/12/65 422/12/65 421/12/65
f 415/12/66 423/12/66 422/12/66
f 416/12/67 424/12/67 423/12/67
f 417/12/101 425/12/101 424/12/101
f 418/12/69 426/12/69 425/12/69
f 419/12/70 427/12/70 426/12/70
f 419/12/71 420/12/71 428/12/71
f 420/12/96 413/12/96 421/12/96
f 428/12/50 421/12/50 422/12/50
f 422/12/50 423/12/50 428/12/50
f 423/12/50 424/12/50 428/12/50
f 424/12/50 425/12/50 426/12/50
f 426/12/50 427/12/50 424/12/50
