# Blender 5.2.1 LTS
# www.blender.org
mtllib fuel_pump.mtl
o BASE.005
v -0.390000 0.000000 0.365000
v 0.390000 0.000000 0.365000
v 0.390000 0.000000 -0.365000
v -0.390000 0.000000 -0.365000
v -0.390000 0.120000 0.365000
v 0.390000 0.120000 0.365000
v 0.390000 0.120000 -0.365000
v -0.390000 0.120000 -0.365000
v -0.300000 0.121000 -0.302000
v -0.327713 0.121000 -0.286000
v -0.327713 0.121000 -0.254000
v -0.300000 0.121000 -0.238000
v -0.272287 0.121000 -0.254000
v -0.272287 0.121000 -0.286000
v -0.300000 0.141000 -0.302000
v -0.327713 0.141000 -0.286000
v -0.327713 0.141000 -0.254000
v -0.300000 0.141000 -0.238000
v -0.272287 0.141000 -0.254000
v -0.272287 0.141000 -0.286000
v -0.300000 0.121000 0.238000
v -0.327713 0.121000 0.254000
v -0.327713 0.121000 0.286000
v -0.300000 0.121000 0.302000
v -0.272287 0.121000 0.286000
v -0.272287 0.121000 0.254000
v -0.300000 0.141000 0.238000
v -0.327713 0.141000 0.254000
v -0.327713 0.141000 0.286000
v -0.300000 0.141000 0.302000
v -0.272287 0.141000 0.286000
v -0.272287 0.141000 0.254000
v 0.300000 0.121000 -0.302000
v 0.272287 0.121000 -0.286000
v 0.272287 0.121000 -0.254000
v 0.300000 0.121000 -0.238000
v 0.327713 0.121000 -0.254000
v 0.327713 0.121000 -0.286000
v 0.300000 0.141000 -0.302000
v 0.272287 0.141000 -0.286000
v 0.272287 0.141000 -0.254000
v 0.300000 0.141000 -0.238000
v 0.327713 0.141000 -0.254000
v 0.327713 0.141000 -0.286000
v 0.300000 0.121000 0.238000
v 0.272287 0.121000 0.254000
v 0.272287 0.121000 0.286000
v 0.300000 0.121000 0.302000
v 0.327713 0.121000 0.286000
v 0.327713 0.121000 0.254000
v 0.300000 0.141000 0.238000
v 0.272287 0.141000 0.254000
v 0.272287 0.141000 0.286000
v 0.300000 0.141000 0.302000
v 0.327713 0.141000 0.286000
v 0.327713 0.141000 0.254000
v -0.100000 0.145000 -0.280000
v -0.240000 0.145000 -0.242487
v -0.342487 0.145000 -0.140000
v -0.380000 0.145000 -0.000000
v -0.342487 0.145000 0.140000
v -0.240000 0.145000 0.242487
v -0.100000 0.145000 0.280000
v 0.040000 0.145000 0.242487
v 0.142487 0.145000 0.140000
v 0.180000 0.145000 0.000000
v 0.142487 0.145000 -0.140000
v 0.040000 0.145000 -0.242487
v -0.100000 1.015000 -0.280000
v -0.240000 1.015000 -0.242487
v -0.342487 1.015000 -0.140000
v -0.380000 1.015000 -0.000000
v -0.342487 1.015000 0.140000
v -0.240000 1.015000 0.242487
v -0.100000 1.015000 0.280000
v 0.040000 1.015000 0.242487
v 0.142487 1.015000 0.140000
v 0.180000 1.015000 0.000000
v 0.142487 1.015000 -0.140000
v 0.040000 1.015000 -0.242487
v -0.100000 0.217500 -0.290000
v -0.245000 0.217500 -0.251147
v -0.351147 0.217500 -0.145000
v -0.390000 0.217500 -0.000000
v -0.351147 0.217500 0.145000
v -0.245000 0.217500 0.251147
v -0.100000 0.217500 0.290000
v 0.045000 0.217500 0.251147
v 0.151147 0.217500 0.145000
v 0.190000 0.217500 0.000000
v 0.151147 0.217500 -0.145000
v 0.045000 0.217500 -0.251147
v -0.100000 0.282500 -0.290000
v -0.245000 0.282500 -0.251147
v -0.351147 0.282500 -0.145000
v -0.390000 0.282500 -0.000000
v -0.351147 0.282500 0.145000
v -0.245000 0.282500 0.251147
v -0.100000 0.282500 0.290000
v 0.045000 0.282500 0.251147
v 0.151147 0.282500 0.145000
v 0.190000 0.282500 0.000000
v 0.151147 0.282500 -0.145000
v 0.045000 0.282500 -0.251147
v -0.100000 0.787500 -0.290000
v -0.245000 0.787500 -0.251147
v -0.351147 0.787500 -0.145000
v -0.390000 0.787500 -0.000000
v -0.351147 0.787500 0.145000
v -0.245000 0.787500 0.251147
v -0.100000 0.787500 0.290000
v 0.045000 0.787500 0.251147
v 0.151147 0.787500 0.145000
v 0.190000 0.787500 0.000000
v 0.151147 0.787500 -0.145000
v 0.045000 0.787500 -0.251147
v -0.100000 0.852500 -0.290000
v -0.245000 0.852500 -0.251147
v -0.351147 0.852500 -0.145000
v -0.390000 0.852500 -0.000000
v -0.351147 0.852500 0.145000
v -0.245000 0.852500 0.251147
v -0.100000 0.852500 0.290000
v 0.045000 0.852500 0.251147
v 0.151147 0.852500 0.145000
v 0.190000 0.852500 0.000000
v 0.151147 0.852500 -0.145000
v 0.045000 0.852500 -0.251147
v -0.100000 1.007500 -0.080000
v -0.156569 1.007500 -0.056569
v -0.180000 1.007500 -0.000000
v -0.156569 1.007500 0.056569
v -0.100000 1.007500 0.080000
v -0.043431 1.007500 0.056569
v -0.020000 1.007500 0.000000
v -0.043431 1.007500 -0.056569
v -0.100000 1.072500 -0.080000
v -0.156569 1.072500 -0.056569
v -0.180000 1.072500 -0.000000
v -0.156569 1.072500 0.056569
v -0.100000 1.072500 0.080000
v -0.043431 1.072500 0.056569
v -0.020000 1.072500 0.000000
v -0.043431 1.072500 -0.056569
v 0.160000 0.275000 0.190000
v 0.380000 0.275000 0.190000
v 0.380000 0.275000 -0.190000
v 0.160000 0.275000 -0.190000
v 0.160000 0.765000 0.190000
v 0.380000 0.765000 0.190000
v 0.380000 0.765000 -0.190000
v 0.160000 0.765000 -0.190000
v 0.200000 0.630000 0.212500
v 0.340000 0.630000 0.212500
v 0.340000 0.630000 0.187500
v 0.200000 0.630000 0.187500
v 0.200000 0.750000 0.212500
v 0.340000 0.750000 0.212500
v 0.340000 0.750000 0.187500
v 0.200000 0.750000 0.187500
v 0.330000 0.820000 0.032000
v 0.307373 0.797373 0.000000
v 0.330000 0.820000 -0.032000
v 0.352627 0.842627 -0.000000
v 0.460000 0.690000 0.032000
v 0.437373 0.667373 0.000000
v 0.460000 0.690000 -0.032000
v 0.482627 0.712627 -0.000000
v 0.460000 0.690000 0.032000
v 0.428000 0.690000 0.000000
v 0.460000 0.690000 -0.032000
v 0.492000 0.690000 -0.000000
v 0.460000 0.240000 0.032000
v 0.428000 0.240000 0.000000
v 0.460000 0.240000 -0.032000
v 0.492000 0.240000 -0.000000
v 0.467329 0.208851 0.000000
v 0.460000 0.240000 0.032000
v 0.452671 0.271149 0.000000
v 0.460000 0.240000 -0.032000
v 0.297329 0.168851 0.000000
v 0.290000 0.200000 0.032000
v 0.282671 0.231149 0.000000
v 0.290000 0.200000 -0.032000
vn -0.0000 -1.0000 -0.0000
vn -0.0000 1.0000 -0.0000
vn -0.0000 -0.0000 1.0000
vn 1.0000 -0.0000 -0.0000
vn -0.0000 -0.0000 -1.0000
vn -1.0000 -0.0000 -0.0000
vn -0.5000 -0.0000 -0.8660
vn -0.5000 -0.0000 0.8660
vn 0.5000 -0.0000 0.8660
vn 0.5000 -0.0000 -0.8660
vn -0.2588 -0.0000 -0.9659
vn -0.7071 -0.0000 -0.7071
vn -0.9659 -0.0000 -0.2588
vn -0.9659 -0.0000 0.2588
vn -0.7071 -0.0000 0.7071
vn -0.2588 -0.0000 0.9659
vn 0.2588 -0.0000 0.9659
vn 0.7071 -0.0000 0.7071
vn 0.9659 -0.0000 0.2588
vn 0.9659 -0.0000 -0.2588
vn 0.7071 -0.0000 -0.7071
vn 0.2588 -0.0000 -0.9659
vn -0.3827 -0.0000 -0.9239
vn -0.9239 -0.0000 -0.3827
vn -0.9239 -0.0000 0.3827
vn -0.3827 -0.0000 0.9239
vn 0.3827 -0.0000 0.9239
vn 0.9239 -0.0000 0.3827
vn 0.9239 -0.0000 -0.3827
vn 0.3827 -0.0000 -0.9239
vn -0.7071 0.7071 -0.0000
vn -0.5000 -0.5000 0.7071
vn -0.5000 -0.5000 -0.7071
vn 0.5000 0.5000 -0.7071
vn 0.5000 0.5000 0.7071
vn 0.7071 -0.7071 -0.0000
vn 0.9734 0.2290 -0.0000
vn 0.1620 -0.6883 0.7071
vn -0.1620 0.6883 0.7071
vn -0.1620 0.6883 -0.7071
vn 0.1620 -0.6883 -0.7071
vn -0.9734 -0.2290 -0.0000
vt 0.625000 0.125000
vt 0.375000 0.875000
vt 0.125000 0.125000
vt 0.125000 0.625000
vt 0.875000 0.125000
vt 0.625000 0.375000
vt 0.125000 0.375000
s 0
usemtl Military_Equipment_Palette
f 3/1/1 1/1/1 4/1/1
f 6/1/2 8/1/2 5/1/2
f 2/1/3 5/1/3 1/1/3
f 3/1/4 6/1/4 2/1/4
f 4/1/5 7/1/5 3/1/5
f 1/1/6 8/1/6 4/1/6
f 13/2/1 11/2/1 9/2/1
f 10/2/7 15/2/7 9/2/7
f 11/2/6 16/2/6 10/2/6
f 12/2/8 17/2/8 11/2/8
f 13/2/9 18/2/9 12/2/9
f 14/2/4 19/2/4 13/2/4
f 9/2/10 20/2/10 14/2/10
f 16/2/2 18/2/2 20/2/2
f 25/2/1 23/2/1 21/2/1
f 22/2/7 27/2/7 21/2/7
f 23/2/6 28/2/6 22/2/6
f 24/2/8 29/2/8 23/2/8
f 25/2/9 30/2/9 24/2/9
f 26/2/4 31/2/4 25/2/4
f 21/2/10 32/2/10 26/2/10
f 28/2/2 30/2/2 32/2/2
f 37/2/1 35/2/1 33/2/1
f 34/2/7 39/2/7 33/2/7
f 35/2/6 40/2/6 34/2/6
f 36/2/8 41/2/8 35/2/8
f 37/2/9 42/2/9 36/2/9
f 38/2/4 43/2/4 37/2/4
f 33/2/10 44/2/10 38/2/10
f 40/2/2 42/2/2 44/2/2
f 49/2/1 47/2/1 45/2/1
f 46/2/7 51/2/7 45/2/7
f 47/2/6 52/2/6 46/2/6
f 48/2/8 53/2/8 47/2/8
f 49/2/9 54/2/9 48/2/9
f 50/2/4 55/2/4 49/2/4
f 45/2/10 56/2/10 50/2/10
f 52/2/2 54/2/2 56/2/2
f 65/3/1 61/3/1 57/3/1
f 58/3/11 69/3/11 57/3/11
f 59/3/12 70/3/12 58/3/12
f 60/3/13 71/3/13 59/3/13
f 61/3/14 72/3/14 60/3/14
f 62/3/15 73/3/15 61/3/15
f 63/3/16 74/3/16 62/3/16
f 64/3/17 75/3/17 63/3/17
f 65/3/18 76/3/18 64/3/18
f 66/3/19 77/3/19 65/3/19
f 67/3/20 78/3/20 66/3/20
f 68/3/21 79/3/21 67/3/21
f 57/3/22 80/3/22 68/3/22
f 72/3/2 76/3/2 80/3/2
f 89/4/1 85/4/1 81/4/1
f 82/4/11 93/4/11 81/4/11
f 83/4/12 94/4/12 82/4/12
f 84/4/13 95/4/13 83/4/13
f 85/4/14 96/4/14 84/4/14
f 86/4/15 97/4/15 85/4/15
f 87/4/16 98/4/16 86/4/16
f 88/4/17 99/4/17 87/4/17
f 89/4/18 100/4/18 88/4/18
f 90/4/19 101/4/19 89/4/19
f 91/4/20 102/4/20 90/4/20
f 92/4/21 103/4/21 91/4/21
f 81/4/22 104/4/22 92/4/22
f 100/4/2 102/4/2 104/4/2
f 113/4/1 109/4/1 105/4/1
f 106/4/11 117/4/11 105/4/11
f 107/4/12 118/4/12 106/4/12
f 108/4/13 119/4/13 107/4/13
f 109/4/14 120/4/14 108/4/14
f 110/4/15 121/4/15 109/4/15
f 111/4/16 122/4/16 110/4/16
f 112/4/17 123/4/17 111/4/17
f 113/4/18 124/4/18 112/4/18
f 114/4/19 125/4/19 113/4/19
f 115/4/20 126/4/20 114/4/20
f 116/4/21 127/4/21 115/4/21
f 105/4/22 128/4/22 116/4/22
f 124/4/2 126/4/2 128/4/2
f 133/2/1 131/2/1 129/2/1
f 130/2/23 137/2/23 129/2/23
f 131/2/24 138/2/24 130/2/24
f 132/2/25 139/2/25 131/2/25
f 133/2/26 140/2/26 132/2/26
f 134/2/27 141/2/27 133/2/27
f 135/2/28 142/2/28 134/2/28
f 136/2/29 143/2/29 135/2/29
f 129/2/30 144/2/30 136/2/30
f 140/2/2 142/2/2 144/2/2
f 147/5/1 145/5/1 148/5/1
f 150/5/2 152/5/2 149/5/2
f 146/5/3 149/5/3 145/5/3
f 147/5/4 150/5/4 146/5/4
f 148/5/5 151/5/5 147/5/5
f 145/5/6 152/5/6 148/5/6
f 155/6/1 153/6/1 156/6/1
f 158/6/2 160/6/2 157/6/2
f 154/6/3 157/6/3 153/6/3
f 155/6/4 158/6/4 154/6/4
f 156/6/5 159/6/5 155/6/5
f 153/6/6 160/6/6 156/6/6
f 163/7/31 161/7/31 164/7/31
f 162/7/32 165/7/32 161/7/32
f 162/7/33 167/7/33 166/7/33
f 164/7/34 167/7/34 163/7/34
f 164/7/35 165/7/35 168/7/35
f 166/7/36 168/7/36 165/7/36
f 171/7/2 169/7/2 172/7/2
f 170/7/15 173/7/15 169/7/15
f 171/7/12 174/7/12 170/7/12
f 172/7/21 175/7/21 171/7/21
f 169/7/18 176/7/18 172/7/18
f 173/7/1 175/7/1 176/7/1
f 179/7/37 177/7/37 180/7/37
f 178/7/38 181/7/38 177/7/38
f 178/7/39 183/7/39 182/7/39
f 180/7/40 183/7/40 179/7/40
f 180/7/41 181/7/41 184/7/41
f 182/7/42 184/7/42 181/7/42
f 3/1/1 2/1/1 1/1/1
f 6/1/2 7/1/2 8/1/2
f 2/1/3 6/1/3 5/1/3
f 3/1/4 7/1/4 6/1/4
f 4/1/5 8/1/5 7/1/5
f 1/1/6 5/1/6 8/1/6
f 9/2/1 14/2/1 13/2/1
f 13/2/1 12/2/1 11/2/1
f 11/2/1 10/2/1 9/2/1
f 10/2/7 16/2/7 15/2/7
f 11/2/6 17/2/6 16/2/6
f 12/2/8 18/2/8 17/2/8
f 13/2/9 19/2/9 18/2/9
f 14/2/4 20/2/4 19/2/4
f 9/2/10 15/2/10 20/2/10
f 20/2/2 15/2/2 16/2/2
f 16/2/2 17/2/2 18/2/2
f 18/2/2 19/2/2 20/2/2
f 21/2/1 26/2/1 25/2/1
f 25/2/1 24/2/1 23/2/1
f 23/2/1 22/2/1 21/2/1
f 22/2/7 28/2/7 27/2/7
f 23/2/6 29/2/6 28/2/6
f 24/2/8 30/2/8 29/2/8
f 25/2/9 31/2/9 30/2/9
f 26/2/4 32/2/4 31/2/4
f 21/2/10 27/2/10 32/2/10
f 32/2/2 27/2/2 28/2/2
f 28/2/2 29/2/2 30/2/2
f 30/2/2 31/2/2 32/2/2
f 33/2/1 38/2/1 37/2/1
f 37/2/1 36/2/1 35/2/1
f 35/2/1 34/2/1 33/2/1
f 34/2/7 40/2/7 39/2/7
f 35/2/6 41/2/6 40/2/6
f 36/2/8 42/2/8 41/2/8
f 37/2/9 43/2/9 42/2/9
f 38/2/4 44/2/4 43/2/4
f 33/2/10 39/2/10 44/2/10
f 44/2/2 39/2/2 40/2/2
f 40/2/2 41/2/2 42/2/2
f 42/2/2 43/2/2 44/2/2
f 45/2/1 50/2/1 49/2/1
f 49/2/1 48/2/1 47/2/1
f 47/2/1 46/2/1 45/2/1
f 46/2/7 52/2/7 51/2/7
f 47/2/6 53/2/6 52/2/6
f 48/2/8 54/2/8 53/2/8
f 49/2/9 55/2/9 54/2/9
f 50/2/4 56/2/4 55/2/4
f 45/2/10 51/2/10 56/2/10
f 56/2/2 51/2/2 52/2/2
f 52/2/2 53/2/2 54/2/2
f 54/2/2 55/2/2 56/2/2
f 57/3/1 68/3/1 65/3/1
f 68/3/1 67/3/1 65/3/1
f 67/3/1 66/3/1 65/3/1
f 65/3/1 64/3/1 63/3/1
f 63/3/1 62/3/1 65/3/1
f 62/3/1 61/3/1 65/3/1
f 61/3/1 60/3/1 59/3/1
f 59/3/1 58/3/1 57/3/1
f 61/3/1 59/3/1 57/3/1
f 58/3/11 70/3/11 69/3/11
f 59/3/12 71/3/12 70/3/12
f 60/3/13 72/3/13 71/3/13
f 61/3/14 73/3/14 72/3/14
f 62/3/15 74/3/15 73/3/15
f 63/3/16 75/3/16 74/3/16
f 64/3/17 76/3/17 75/3/17
f 65/3/18 77/3/18 76/3/18
f 66/3/19 78/3/19 77/3/19
f 67/3/20 79/3/20 78/3/20
f 68/3/21 80/3/21 79/3/21
f 57/3/22 69/3/22 80/3/22
f 80/3/2 69/3/2 70/3/2
f 70/3/2 71/3/2 72/3/2
f 72/3/2 73/3/2 74/3/2
f 74/3/2 75/3/2 76/3/2
f 76/3/2 77/3/2 78/3/2
f 78/3/2 79/3/2 80/3/2
f 80/3/2 70/3/2 72/3/2
f 72/3/2 74/3/2 76/3/2
f 76/3/2 78/3/2 80/3/2
f 81/4/1 92/4/1 91/4/1
f 91/4/1 90/4/1 89/4/1
f 89/4/1 88/4/1 87/4/1
f 87/4/1 86/4/1 85/4/1
f 85/4/1 84/4/1 83/4/1
f 83/4/1 82/4/1 81/4/1
f 81/4/1 91/4/1 89/4/1
f 89/4/1 87/4/1 85/4/1
f 85/4/1 83/4/1 81/4/1
f 82/4/11 94/4/11 93/4/11
f 83/4/12 95/4/12 94/4/12
f 84/4/13 96/4/13 95/4/13
f 85/4/14 97/4/14 96/4/14
f 86/4/15 98/4/15 97/4/15
f 87/4/16 99/4/16 98/4/16
f 88/4/17 100/4/17 99/4/17
f 89/4/18 101/4/18 100/4/18
f 90/4/19 102/4/19 101/4/19
f 91/4/20 103/4/20 102/4/20
f 92/4/21 104/4/21 103/4/21
f 81/4/22 93/4/22 104/4/22
f 104/4/2 93/4/2 94/4/2
f 94/4/2 95/4/2 96/4/2
f 96/4/2 97/4/2 98/4/2
f 98/4/2 99/4/2 96/4/2
f 99/4/2 100/4/2 96/4/2
f 100/4/2 101/4/2 102/4/2
f 102/4/2 103/4/2 104/4/2
f 104/4/2 94/4/2 100/4/2
f 94/4/2 96/4/2 100/4/2
f 105/4/1 116/4/1 115/4/1
f 115/4/1 114/4/1 113/4/1
f 113/4/1 112/4/1 111/4/1
f 111/4/1 110/4/1 109/4/1
f 109/4/1 108/4/1 107/4/1
f 107/4/1 106/4/1 105/4/1
f 105/4/1 115/4/1 113/4/1
f 113/4/1 111/4/1 109/4/1
f 109/4/1 107/4/1 105/4/1
f 106/4/11 118/4/11 117/4/11
f 107/4/12 119/4/12 118/4/12
f 108/4/13 120/4/13 119/4/13
f 109/4/14 121/4/14 120/4/14
f 110/4/15 122/4/15 121/4/15
f 111/4/16 123/4/16 122/4/16
f 112/4/17 124/4/17 123/4/17
f 113/4/18 125/4/18 124/4/18
f 114/4/19 126/4/19 125/4/19
f 115/4/20 127/4/20 126/4/20
f 116/4/21 128/4/21 127/4/21
f 105/4/22 117/4/22 128/4/22
f 128/4/2 117/4/2 118/4/2
f 118/4/2 119/4/2 120/4/2
f 120/4/2 121/4/2 122/4/2
f 122/4/2 123/4/2 120/4/2
f 123/4/2 124/4/2 120/4/2
f 124/4/2 125/4/2 126/4/2
f 126/4/2 127/4/2 128/4/2
f 128/4/2 118/4/2 124/4/2
f 118/4/2 120/4/2 124/4/2
f 129/2/1 136/2/1 135/2/1
f 135/2/1 134/2/1 133/2/1
f 133/2/1 132/2/1 131/2/1
f 131/2/1 130/2/1 129/2/1
f 129/2/1 135/2/1 133/2/1
f 130/2/23 138/2/23 137/2/23
f 131/2/24 139/2/24 138/2/24
f 132/2/25 140/2/25 139/2/25
f 133/2/26 141/2/26 140/2/26
f 134/2/27 142/2/27 141/2/27
f 135/2/28 143/2/28 142/2/28
f 136/2/29 144/2/29 143/2/29
f 129/2/30 137/2/30 144/2/30
f 144/2/2 137/2/2 138/2/2
f 138/2/2 139/2/2 140/2/2
f 140/2/2 141/2/2 142/2/2
f 142/2/2 143/2/2 144/2/2
f 144/2/2 138/2/2 140/2/2
f 147/5/1 146/5/1 145/5/1
f 150/5/2 151/5/2 152/5/2
f 146/5/3 150/5/3 149/5/3
f 147/5/4 151/5/4 150/5/4
f 148/5/5 152/5/5 151/5/5
f 145/5/6 149/5/6 152/5/6
f 155/6/1 154/6/1 153/6/1
f 158/6/2 159/6/2 160/6/2
f 154/6/3 158/6/3 157/6/3
f 155/6/4 159/6/4 158/6/4
f 156/6/5 160/6/5 159/6/5
f 153/6/6 157/6/6 160/6/6
f 163/7/31 162/7/31 161/7/31
f 162/7/32 166/7/32 165/7/32
f 162/7/33 163/7/33 167/7/33
f 164/7/34 168/7/34 167/7/34
f 164/7/35 161/7/35 165/7/35
f 166/7/36 167/7/36 168/7/36
f 171/7/2 170/7/2 169/7/2
f 170/7/15 174/7/15 173/7/15
f 171/7/12 175/7/12 174/7/12
f 172/7/21 176/7/21 175/7/21
f 169/7/18 173/7/18 176/7/18
f 173/7/1 174/7/1 175/7/1
f 179/7/37 178/7/37 177/7/37
f 178/7/38 182/7/38 181/7/38
f 178/7/39 179/7/39 183/7/39
f 180/7/40 184/7/40 183/7/40
f 180/7/41 177/7/41 181/7/41
f 182/7/42 183/7/42 184/7/42
