# Blender 5.2.1 LTS
# www.blender.org
mtllib grenadeLauncher.mtl
o BASE.016
v -0.361200 0.000000 0.350600
v 0.361200 0.000000 0.350600
v 0.375600 0.000000 0.336200
v 0.375600 0.000000 -0.336200
v 0.361200 0.000000 -0.350600
v -0.361200 0.000000 -0.350600
v -0.375600 0.000000 -0.336200
v -0.375600 0.000000 0.336200
v -0.375600 0.014400 0.365000
v 0.375600 0.014400 0.365000
v 0.390000 0.014400 0.350600
v 0.390000 0.014400 -0.350600
v 0.375600 0.014400 -0.365000
v -0.375600 0.014400 -0.365000
v -0.390000 0.014400 -0.350600
v -0.390000 0.014400 0.350600
v -0.375600 0.105600 0.365000
v 0.375600 0.105600 0.365000
v 0.390000 0.105600 0.350600
v 0.390000 0.105600 -0.350600
v 0.375600 0.105600 -0.365000
v -0.375600 0.105600 -0.365000
v -0.390000 0.105600 -0.350600
v -0.390000 0.105600 0.350600
v -0.361200 0.120000 0.350600
v 0.361200 0.120000 0.350600
v 0.375600 0.120000 0.336200
v 0.375600 0.120000 -0.336200
v 0.361200 0.120000 -0.350600
v -0.361200 0.120000 -0.350600
v -0.375600 0.120000 -0.336200
v -0.375600 0.120000 0.336200
v -0.300000 0.121000 -0.302000
v -0.327713 0.121000 -0.286000
v -0.327713 0.121000 -0.254000
v -0.300000 0.121000 -0.238000
v -0.272287 0.121000 -0.254000
v -0.272287 0.121000 -0.286000
v -0.300000 0.141000 -0.302000
v -0.327713 0.141000 -0.286000
v -0.327713 0.141000 -0.254000
v -0.300000 0.141000 -0.238000
v -0.272287 0.141000 -0.254000
v -0.272287 0.141000 -0.286000
v -0.300000 0.121000 0.238000
v -0.327713 0.121000 0.254000
v -0.327713 0.121000 0.286000
v -0.300000 0.121000 0.302000
v -0.272287 0.121000 0.286000
v -0.272287 0.121000 0.254000
v -0.300000 0.141000 0.238000
v -0.327713 0.141000 0.254000
v -0.327713 0.141000 0.286000
v -0.300000 0.141000 0.302000
v -0.272287 0.141000 0.286000
v -0.272287 0.141000 0.254000
v 0.300000 0.121000 -0.302000
v 0.272287 0.121000 -0.286000
v 0.272287 0.121000 -0.254000
v 0.300000 0.121000 -0.238000
v 0.327713 0.121000 -0.254000
v 0.327713 0.121000 -0.286000
v 0.300000 0.141000 -0.302000
v 0.272287 0.141000 -0.286000
v 0.272287 0.141000 -0.254000
v 0.300000 0.141000 -0.238000
v 0.327713 0.141000 -0.254000
v 0.327713 0.141000 -0.286000
v 0.300000 0.121000 0.238000
v 0.272287 0.121000 0.254000
v 0.272287 0.121000 0.286000
v 0.300000 0.121000 0.302000
v 0.327713 0.121000 0.286000
v 0.327713 0.121000 0.254000
v 0.300000 0.141000 0.238000
v 0.272287 0.141000 0.254000
v 0.272287 0.141000 0.286000
v 0.300000 0.141000 0.302000
v 0.327713 0.141000 0.286000
v 0.327713 0.141000 0.254000
v 0.000000 0.110000 -0.360000
v -0.180000 0.110000 -0.311769
v -0.311769 0.110000 -0.180000
v -0.360000 0.110000 -0.000000
v -0.311769 0.110000 0.180000
v -0.180000 0.110000 0.311769
v -0.000000 0.110000 0.360000
v 0.180000 0.110000 0.311769
v 0.311769 0.110000 0.180000
v 0.360000 0.110000 0.000000
v 0.311769 0.110000 -0.180000
v 0.180000 0.110000 -0.311769
v 0.000000 0.210000 -0.360000
v -0.180000 0.210000 -0.311769
v -0.311769 0.210000 -0.180000
v -0.360000 0.210000 -0.000000
v -0.311769 0.210000 0.180000
v -0.180000 0.210000 0.311769
v -0.000000 0.210000 0.360000
v 0.180000 0.210000 0.311769
v 0.311769 0.210000 0.180000
v 0.360000 0.210000 0.000000
v 0.311769 0.210000 -0.180000
v 0.180000 0.210000 -0.311769
vn -0.0000 -1.0000 -0.0000
vn -0.0000 -0.7071 0.7071
vn 0.4082 -0.8165 0.4082
vn 0.7071 -0.7071 -0.0000
vn 0.4082 -0.8165 -0.4082
vn -0.0000 -0.7071 -0.7071
vn -0.4082 -0.8165 -0.4082
vn -0.7071 -0.7071 -0.0000
vn -0.4082 -0.8165 0.4082
vn -0.0000 -0.0000 1.0000
vn 0.7071 -0.0000 0.7071
vn 1.0000 -0.0000 -0.0000
vn 0.7071 -0.0000 -0.7071
vn -0.0000 -0.0000 -1.0000
vn -0.7071 -0.0000 -0.7071
vn -1.0000 -0.0000 -0.0000
vn -0.7071 -0.0000 0.7071
vn -0.0000 0.7071 0.7071
vn 0.4082 0.8165 0.4082
vn 0.7071 0.7071 -0.0000
vn 0.4082 0.8165 -0.4082
vn -0.0000 0.7071 -0.7071
vn -0.4082 0.8165 -0.4082
vn -0.7071 0.7071 -0.0000
vn -0.4082 0.8165 0.4082
vn -0.0000 1.0000 -0.0000
vn -0.5000 -0.0000 -0.8660
vn -0.5000 -0.0000 0.8660
vn 0.5000 -0.0000 0.8660
vn 0.5000 -0.0000 -0.8660
vn -0.2588 -0.0000 -0.9659
vn -0.9659 -0.0000 -0.2588
vn -0.9659 -0.0000 0.2588
vn -0.2588 -0.0000 0.9659
vn 0.2588 -0.0000 0.9659
vn 0.9659 -0.0000 0.2588
vn 0.9659 -0.0000 -0.2588
vn 0.2588 -0.0000 -0.9659
vt 0.625000 0.125000
vt 0.375000 0.875000
vt 0.125000 0.625000
s 0
usemtl Military_Equipment_Palette
f 2/1/1 1/1/1 5/1/1
f 2/1/2 9/1/2 1/1/2
f 2/1/3 11/1/3 10/1/3
f 4/1/4 11/1/4 3/1/4
f 5/1/5 12/1/5 4/1/5
f 6/1/6 13/1/6 5/1/6
f 6/1/7 15/1/7 14/1/7
f 8/1/8 15/1/8 7/1/8
f 1/1/9 16/1/9 8/1/9
f 10/1/10 17/1/10 9/1/10
f 11/1/11 18/1/11 10/1/11
f 12/1/12 19/1/12 11/1/12
f 13/1/13 20/1/13 12/1/13
f 14/1/14 21/1/14 13/1/14
f 15/1/15 22/1/15 14/1/15
f 16/1/16 23/1/16 15/1/16
f 9/1/17 24/1/17 16/1/17
f 18/1/18 25/1/18 17/1/18
f 19/1/19 26/1/19 18/1/19
f 20/1/20 27/1/20 19/1/20
f 20/1/21 29/1/21 28/1/21
f 22/1/22 29/1/22 21/1/22
f 23/1/23 30/1/23 22/1/23
f 24/1/24 31/1/24 23/1/24
f 24/1/25 25/1/25 32/1/25
f 30/1/26 31/1/26 32/1/26
f 37/2/1 35/2/1 33/2/1
f 34/2/27 39/2/27 33/2/27
f 35/2/16 40/2/16 34/2/16
f 36/2/28 41/2/28 35/2/28
f 37/2/29 42/2/29 36/2/29
f 38/2/12 43/2/12 37/2/12
f 33/2/30 44/2/30 38/2/30
f 40/2/26 42/2/26 44/2/26
f 49/2/1 47/2/1 45/2/1
f 46/2/27 51/2/27 45/2/27
f 47/2/16 52/2/16 46/2/16
f 48/2/28 53/2/28 47/2/28
f 49/2/29 54/2/29 48/2/29
f 50/2/12 55/2/12 49/2/12
f 45/2/30 56/2/30 50/2/30
f 52/2/26 54/2/26 56/2/26
f 61/2/1 59/2/1 57/2/1
f 58/2/27 63/2/27 57/2/27
f 59/2/16 64/2/16 58/2/16
f 60/2/28 65/2/28 59/2/28
f 61/2/29 66/2/29 60/2/29
f 62/2/12 67/2/12 61/2/12
f 57/2/30 68/2/30 62/2/30
f 64/2/26 66/2/26 68/2/26
f 73/2/1 71/2/1 69/2/1
f 70/2/27 75/2/27 69/2/27
f 71/2/16 76/2/16 70/2/16
f 72/2/28 77/2/28 71/2/28
f 73/2/29 78/2/29 72/2/29
f 74/2/12 79/2/12 73/2/12
f 69/2/30 80/2/30 74/2/30
f 76/2/26 78/2/26 80/2/26
f 89/3/1 85/3/1 81/3/1
f 82/3/31 93/3/31 81/3/31
f 83/3/15 94/3/15 82/3/15
f 84/3/32 95/3/32 83/3/32
f 85/3/33 96/3/33 84/3/33
f 86/3/17 97/3/17 85/3/17
f 87/3/34 98/3/34 86/3/34
f 88/3/35 99/3/35 87/3/35
f 89/3/11 100/3/11 88/3/11
f 90/3/36 101/3/36 89/3/36
f 91/3/37 102/3/37 90/3/37
f 92/3/13 103/3/13 91/3/13
f 81/3/38 104/3/38 92/3/38
f 96/3/26 100/3/26 104/3/26
f 1/1/1 8/1/1 7/1/1
f 7/1/1 6/1/1 1/1/1
f 6/1/1 5/1/1 1/1/1
f 5/1/1 4/1/1 3/1/1
f 3/1/1 2/1/1 5/1/1
f 2/1/2 10/1/2 9/1/2
f 2/1/3 3/1/3 11/1/3
f 4/1/4 12/1/4 11/1/4
f 5/1/5 13/1/5 12/1/5
f 6/1/6 14/1/6 13/1/6
f 6/1/7 7/1/7 15/1/7
f 8/1/8 16/1/8 15/1/8
f 1/1/9 9/1/9 16/1/9
f 10/1/10 18/1/10 17/1/10
f 11/1/11 19/1/11 18/1/11
f 12/1/12 20/1/12 19/1/12
f 13/1/13 21/1/13 20/1/13
f 14/1/14 22/1/14 21/1/14
f 15/1/15 23/1/15 22/1/15
f 16/1/16 24/1/16 23/1/16
f 9/1/17 17/1/17 24/1/17
f 18/1/18 26/1/18 25/1/18
f 19/1/19 27/1/19 26/1/19
f 20/1/20 28/1/20 27/1/20
f 20/1/21 21/1/21 29/1/21
f 22/1/22 30/1/22 29/1/22
f 23/1/23 31/1/23 30/1/23
f 24/1/24 32/1/24 31/1/24
f 24/1/25 17/1/25 25/1/25
f 32/1/26 25/1/26 30/1/26
f 25/1/26 26/1/26 30/1/26
f 26/1/26 27/1/26 28/1/26
f 28/1/26 29/1/26 26/1/26
f 29/1/26 30/1/26 26/1/26
f 33/2/1 38/2/1 37/2/1
f 37/2/1 36/2/1 35/2/1
f 35/2/1 34/2/1 33/2/1
f 34/2/27 40/2/27 39/2/27
f 35/2/16 41/2/16 40/2/16
f 36/2/28 42/2/28 41/2/28
f 37/2/29 43/2/29 42/2/29
f 38/2/12 44/2/12 43/2/12
f 33/2/30 39/2/30 44/2/30
f 44/2/26 39/2/26 40/2/26
f 40/2/26 41/2/26 42/2/26
f 42/2/26 43/2/26 44/2/26
f 45/2/1 50/2/1 49/2/1
f 49/2/1 48/2/1 47/2/1
f 47/2/1 46/2/1 45/2/1
f 46/2/27 52/2/27 51/2/27
f 47/2/16 53/2/16 52/2/16
f 48/2/28 54/2/28 53/2/28
f 49/2/29 55/2/29 54/2/29
f 50/2/12 56/2/12 55/2/12
f 45/2/30 51/2/30 56/2/30
f 56/2/26 51/2/26 52/2/26
f 52/2/26 53/2/26 54/2/26
f 54/2/26 55/2/26 56/2/26
f 57/2/1 62/2/1 61/2/1
f 61/2/1 60/2/1 59/2/1
f 59/2/1 58/2/1 57/2/1
f 58/2/27 64/2/27 63/2/27
f 59/2/16 65/2/16 64/2/16
f 60/2/28 66/2/28 65/2/28
f 61/2/29 67/2/29 66/2/29
f 62/2/12 68/2/12 67/2/12
f 57/2/30 63/2/30 68/2/30
f 68/2/26 63/2/26 64/2/26
f 64/2/26 65/2/26 66/2/26
f 66/2/26 67/2/26 68/2/26
f 69/2/1 74/2/1 73/2/1
f 73/2/1 72/2/1 71/2/1
f 71/2/1 70/2/1 69/2/1
f 70/2/27 76/2/27 75/2/27
f 71/2/16 77/2/16 76/2/16
f 72/2/28 78/2/28 77/2/28
f 73/2/29 79/2/29 78/2/29
f 74/2/12 80/2/12 79/2/12
f 69/2/30 75/2/30 80/2/30
f 80/2/26 75/2/26 76/2/26
f 76/2/26 77/2/26 78/2/26
f 78/2/26 79/2/26 80/2/26
f 81/3/1 92/3/1 91/3/1
f 91/3/1 90/3/1 89/3/1
f 89/3/1 88/3/1 87/3/1
f 87/3/1 86/3/1 85/3/1
f 85/3/1 84/3/1 83/3/1
f 83/3/1 82/3/1 81/3/1
f 81/3/1 91/3/1 89/3/1
f 89/3/1 87/3/1 85/3/1
f 85/3/1 83/3/1 81/3/1
f 82/3/31 94/3/31 93/3/31
f 83/3/15 95/3/15 94/3/15
f 84/3/32 96/3/32 95/3/32
f 85/3/33 97/3/33 96/3/33
f 86/3/17 98/3/17 97/3/17
f 87/3/34 99/3/34 98/3/34
f 88/3/35 100/3/35 99/3/35
f 89/3/11 101/3/11 100/3/11
f 90/3/36 102/3/36 101/3/36
f 91/3/37 103/3/37 102/3/37
f 92/3/13 104/3/13 103/3/13
f 81/3/38 93/3/38 104/3/38
f 104/3/26 93/3/26 94/3/26
f 94/3/26 95/3/26 96/3/26
f 96/3/26 97/3/26 98/3/26
f 98/3/26 99/3/26 100/3/26
f 100/3/26 101/3/26 102/3/26
f 102/3/26 103/3/26 104/3/26
f 104/3/26 94/3/26 96/3/26
f 96/3/26 98/3/26 100/3/26
f 100/3/26 102/3/26 104/3/26
o MOVING.007
v 0.000000 0.130000 -0.290000
v -0.170458 0.130000 -0.234615
v -0.275806 0.130000 -0.089615
v -0.275806 0.130000 0.089615
v -0.170458 0.130000 0.234615
v -0.000000 0.130000 0.290000
v 0.170458 0.130000 0.234615
v 0.275806 0.130000 0.089615
v 0.275806 0.130000 -0.089615
v 0.170458 0.130000 -0.234615
v 0.000000 0.470000 -0.290000
v -0.170458 0.470000 -0.234615
v -0.275806 0.470000 -0.089615
v -0.275806 0.470000 0.089615
v -0.170458 0.470000 0.234615
v -0.000000 0.470000 0.290000
v 0.170458 0.470000 0.234615
v 0.275806 0.470000 0.089615
v 0.275806 0.470000 -0.089615
v 0.170458 0.470000 -0.234615
v -0.255000 0.320000 0.260000
v 0.255000 0.320000 0.260000
v 0.280000 0.320000 0.235000
v 0.280000 0.320000 -0.235000
v 0.255000 0.320000 -0.260000
v -0.255000 0.320000 -0.260000
v -0.280000 0.320000 -0.235000
v -0.280000 0.320000 0.235000
v -0.280000 0.345000 0.285000
v 0.280000 0.345000 0.285000
v 0.305000 0.345000 0.260000
v 0.305000 0.345000 -0.260000
v 0.280000 0.345000 -0.285000
v -0.280000 0.345000 -0.285000
v -0.305000 0.345000 -0.260000
v -0.305000 0.345000 0.260000
v -0.280000 0.695000 0.285000
v 0.280000 0.695000 0.285000
v 0.305000 0.695000 0.260000
v 0.305000 0.695000 -0.260000
v 0.280000 0.695000 -0.285000
v -0.280000 0.695000 -0.285000
v -0.305000 0.695000 -0.260000
v -0.305000 0.695000 0.260000
v -0.255000 0.720000 0.260000
v 0.255000 0.720000 0.260000
v 0.280000 0.720000 0.235000
v 0.280000 0.720000 -0.235000
v 0.255000 0.720000 -0.260000
v -0.255000 0.720000 -0.260000
v -0.280000 0.720000 -0.235000
v -0.280000 0.720000 0.235000
v -0.230000 0.715000 0.150000
v 0.230000 0.715000 0.150000
v 0.230000 0.715000 -0.270000
v -0.230000 0.715000 -0.270000
v -0.230000 0.775000 0.150000
v 0.230000 0.775000 0.150000
v 0.230000 0.775000 -0.270000
v -0.230000 0.775000 -0.270000
v 0.000000 0.740000 0.360000
v -0.094046 0.709443 0.360000
v -0.152169 0.629443 0.360000
v -0.152169 0.530557 0.360000
v -0.094046 0.450557 0.360000
v -0.000000 0.420000 0.360000
v 0.094046 0.450557 0.360000
v 0.152169 0.530557 0.360000
v 0.152169 0.629443 0.360000
v 0.094046 0.709443 0.360000
v 0.000000 0.740000 1.330000
v -0.094046 0.709443 1.330000
v -0.152169 0.629443 1.330000
v -0.152169 0.530557 1.330000
v -0.094046 0.450557 1.330000
v -0.000000 0.420000 1.330000
v 0.094046 0.450557 1.330000
v 0.152169 0.530557 1.330000
v 0.152169 0.629443 1.330000
v 0.094046 0.709443 1.330000
v 0.000000 0.796000 1.295000
v -0.126962 0.754748 1.295000
v -0.205428 0.646748 1.295000
v -0.205428 0.513252 1.295000
v -0.126962 0.405252 1.295000
v -0.000000 0.364000 1.295000
v 0.126962 0.405252 1.295000
v 0.205428 0.513252 1.295000
v 0.205428 0.646748 1.295000
v 0.126962 0.754748 1.295000
v 0.000000 0.796000 1.385000
v -0.126962 0.754748 1.385000
v -0.205428 0.646748 1.385000
v -0.205428 0.513252 1.385000
v -0.126962 0.405252 1.385000
v -0.000000 0.364000 1.385000
v 0.126962 0.405252 1.385000
v 0.205428 0.513252 1.385000
v 0.205428 0.646748 1.385000
v 0.126962 0.754748 1.385000
v 0.000000 0.700000 1.388000
v -0.070534 0.677082 1.388000
v -0.114127 0.617082 1.388000
v -0.114127 0.542918 1.388000
v -0.070534 0.482918 1.388000
v -0.000000 0.460000 1.388000
v 0.070534 0.482918 1.388000
v 0.114127 0.542918 1.388000
v 0.114127 0.617082 1.388000
v 0.070534 0.677082 1.388000
v 0.000000 0.700000 1.402000
v -0.070534 0.677082 1.402000
v -0.114127 0.617082 1.402000
v -0.114127 0.542918 1.402000
v -0.070534 0.482918 1.402000
v -0.000000 0.460000 1.402000
v 0.070534 0.482918 1.402000
v 0.114127 0.542918 1.402000
v 0.114127 0.617082 1.402000
v 0.070534 0.677082 1.402000
v -0.465000 0.255000 0.105000
v -0.335000 0.255000 0.105000
v -0.310000 0.255000 0.080000
v -0.310000 0.255000 -0.240000
v -0.335000 0.255000 -0.265000
v -0.465000 0.255000 -0.265000
v -0.490000 0.255000 -0.240000
v -0.490000 0.255000 0.080000
v -0.490000 0.280000 0.130000
v -0.310000 0.280000 0.130000
v -0.285000 0.280000 0.105000
v -0.285000 0.280000 -0.265000
v -0.310000 0.280000 -0.290000
v -0.490000 0.280000 -0.290000
v -0.515000 0.280000 -0.265000
v -0.515000 0.280000 0.105000
v -0.490000 0.560000 0.130000
v -0.310000 0.560000 0.130000
v -0.285000 0.560000 0.105000
v -0.285000 0.560000 -0.265000
v -0.310000 0.560000 -0.290000
v -0.490000 0.560000 -0.290000
v -0.515000 0.560000 -0.265000
v -0.515000 0.560000 0.105000
v -0.465000 0.585000 0.105000
v -0.335000 0.585000 0.105000
v -0.310000 0.585000 0.080000
v -0.310000 0.585000 -0.240000
v -0.335000 0.585000 -0.265000
v -0.465000 0.585000 -0.265000
v -0.490000 0.585000 -0.240000
v -0.490000 0.585000 0.080000
v -0.532500 0.585000 0.147500
v -0.267500 0.585000 0.147500
v -0.267500 0.585000 -0.307500
v -0.532500 0.585000 -0.307500
v -0.532500 0.635000 0.147500
v -0.267500 0.635000 0.147500
v -0.267500 0.635000 -0.307500
v -0.532500 0.635000 -0.307500
v -0.486500 0.220000 0.155000
v -0.451500 0.220000 0.155000
v -0.451500 0.220000 -0.315000
v -0.486500 0.220000 -0.315000
v -0.486500 0.620000 0.155000
v -0.451500 0.620000 0.155000
v -0.451500 0.620000 -0.315000
v -0.486500 0.620000 -0.315000
v -0.495600 0.440900 0.167500
v -0.405600 0.440900 0.167500
v -0.405600 0.440900 0.132500
v -0.495600 0.440900 0.132500
v -0.495600 0.550900 0.167500
v -0.405600 0.550900 0.167500
v -0.405600 0.550900 0.132500
v -0.495600 0.550900 0.132500
v -0.348500 0.220000 0.155000
v -0.313500 0.220000 0.155000
v -0.313500 0.220000 -0.315000
v -0.348500 0.220000 -0.315000
v -0.348500 0.620000 0.155000
v -0.313500 0.620000 0.155000
v -0.313500 0.620000 -0.315000
v -0.348500 0.620000 -0.315000
v -0.394400 0.440900 0.167500
v -0.304400 0.440900 0.167500
v -0.304400 0.440900 0.132500
v -0.394400 0.440900 0.132500
v -0.394400 0.550900 0.167500
v -0.304400 0.550900 0.167500
v -0.304400 0.550900 0.132500
v -0.394400 0.550900 0.132500
v -0.500000 0.434600 0.192500
v -0.300000 0.434600 0.192500
v -0.300000 0.434600 0.147500
v -0.500000 0.434600 0.147500
v -0.500000 0.484600 0.192500
v -0.300000 0.484600 0.192500
v -0.300000 0.484600 0.147500
v -0.500000 0.484600 0.147500
v -0.222500 0.685000 0.127500
v -0.197500 0.685000 0.127500
v -0.197500 0.685000 0.072500
v -0.222500 0.685000 0.072500
v -0.222500 0.815000 0.127500
v -0.197500 0.815000 0.127500
v -0.197500 0.815000 0.072500
v -0.222500 0.815000 0.072500
v 0.197500 0.685000 0.127500
v 0.222500 0.685000 0.127500
v 0.222500 0.685000 0.072500
v 0.197500 0.685000 0.072500
v 0.197500 0.815000 0.127500
v 0.222500 0.815000 0.127500
v 0.222500 0.815000 0.072500
v 0.197500 0.815000 0.072500
v -0.120000 0.670000 0.240000
v -0.120000 0.632487 0.380000
v -0.120000 0.530000 0.482487
v -0.120000 0.390000 0.520000
v -0.120000 0.250000 0.482487
v -0.120000 0.147513 0.380000
v -0.120000 0.110000 0.240000
v -0.120000 0.147513 0.100000
v -0.120000 0.250000 -0.002487
v -0.120000 0.390000 -0.040000
v -0.120000 0.530000 -0.002487
v -0.120000 0.632487 0.100000
v 0.160000 0.670000 0.240000
v 0.160000 0.632487 0.380000
v 0.160000 0.530000 0.482487
v 0.160000 0.390000 0.520000
v 0.160000 0.250000 0.482487
v 0.160000 0.147513 0.380000
v 0.160000 0.110000 0.240000
v 0.160000 0.147513 0.100000
v 0.160000 0.250000 -0.002487
v 0.160000 0.390000 -0.040000
v 0.160000 0.530000 -0.002487
v 0.160000 0.632487 0.100000
v 0.167500 0.422000 0.420000
v 0.167500 0.406000 0.447713
v 0.167500 0.374000 0.447713
v 0.167500 0.358000 0.420000
v 0.167500 0.374000 0.392287
v 0.167500 0.406000 0.392287
v 0.192500 0.422000 0.420000
v 0.192500 0.406000 0.447713
v 0.192500 0.374000 0.447713
v 0.192500 0.358000 0.420000
v 0.192500 0.374000 0.392287
v 0.192500 0.406000 0.392287
v 0.167500 0.549279 0.367279
v 0.167500 0.533279 0.394992
v 0.167500 0.501279 0.394992
v 0.167500 0.485279 0.367279
v 0.167500 0.501279 0.339566
v 0.167500 0.533279 0.339566
v 0.192500 0.549279 0.367279
v 0.192500 0.533279 0.394992
v 0.192500 0.501279 0.394992
v 0.192500 0.485279 0.367279
v 0.192500 0.501279 0.339566
v 0.192500 0.533279 0.339566
v 0.167500 0.602000 0.240000
v 0.167500 0.586000 0.267713
v 0.167500 0.554000 0.267713
v 0.167500 0.538000 0.240000
v 0.167500 0.554000 0.212287
v 0.167500 0.586000 0.212287
v 0.192500 0.602000 0.240000
v 0.192500 0.586000 0.267713
v 0.192500 0.554000 0.267713
v 0.192500 0.538000 0.240000
v 0.192500 0.554000 0.212287
v 0.192500 0.586000 0.212287
v 0.167500 0.549279 0.112721
v 0.167500 0.533279 0.140434
v 0.167500 0.501279 0.140434
v 0.167500 0.485279 0.112721
v 0.167500 0.501279 0.085008
v 0.167500 0.533279 0.085008
v 0.192500 0.549279 0.112721
v 0.192500 0.533279 0.140434
v 0.192500 0.501279 0.140434
v 0.192500 0.485279 0.112721
v 0.192500 0.501279 0.085008
v 0.192500 0.533279 0.085008
v 0.167500 0.422000 0.060000
v 0.167500 0.406000 0.087713
v 0.167500 0.374000 0.087713
v 0.167500 0.358000 0.060000
v 0.167500 0.374000 0.032287
v 0.167500 0.406000 0.032287
v 0.192500 0.422000 0.060000
v 0.192500 0.406000 0.087713
v 0.192500 0.374000 0.087713
v 0.192500 0.358000 0.060000
v 0.192500 0.374000 0.032287
v 0.192500 0.406000 0.032287
v 0.167500 0.294721 0.112721
v 0.167500 0.278721 0.140434
v 0.167500 0.246721 0.140434
v 0.167500 0.230721 0.112721
v 0.167500 0.246721 0.085008
v 0.167500 0.278721 0.085008
v 0.192500 0.294721 0.112721
v 0.192500 0.278721 0.140434
v 0.192500 0.246721 0.140434
v 0.192500 0.230721 0.112721
v 0.192500 0.246721 0.085008
v 0.192500 0.278721 0.085008
v 0.167500 0.242000 0.240000
v 0.167500 0.226000 0.267713
v 0.167500 0.194000 0.267713
v 0.167500 0.178000 0.240000
v 0.167500 0.194000 0.212287
v 0.167500 0.226000 0.212287
v 0.192500 0.242000 0.240000
v 0.192500 0.226000 0.267713
v 0.192500 0.194000 0.267713
v 0.192500 0.178000 0.240000
v 0.192500 0.194000 0.212287
v 0.192500 0.226000 0.212287
v 0.167500 0.294721 0.367279
v 0.167500 0.278721 0.394992
v 0.167500 0.246721 0.394992
v 0.167500 0.230721 0.367279
v 0.167500 0.246721 0.339566
v 0.167500 0.278721 0.339566
v 0.192500 0.294721 0.367279
v 0.192500 0.278721 0.394992
v 0.192500 0.246721 0.394992
v 0.192500 0.230721 0.367279
v 0.192500 0.246721 0.339566
v 0.192500 0.278721 0.339566
v 0.000000 0.880000 0.050000
v -0.028284 0.868284 0.050000
v -0.040000 0.840000 0.050000
v -0.028284 0.811716 0.050000
v -0.000000 0.800000 0.050000
v 0.028284 0.811716 0.050000
v 0.040000 0.840000 0.050000
v 0.028284 0.868284 0.050000
v 0.000000 0.880000 0.310000
v -0.028284 0.868284 0.310000
v -0.040000 0.840000 0.310000
v -0.028284 0.811716 0.310000
v -0.000000 0.800000 0.310000
v 0.028284 0.811716 0.310000
v 0.040000 0.840000 0.310000
v 0.028284 0.868284 0.310000
vn -0.0000 -1.0000 -0.0000
vn -0.3090 -0.0000 -0.9511
vn -0.8090 -0.0000 -0.5878
vn -1.0000 -0.0000 -0.0000
vn -0.8090 -0.0000 0.5878
vn -0.3090 -0.0000 0.9511
vn 0.3090 -0.0000 0.9511
vn 0.8090 -0.0000 0.5878
vn 1.0000 -0.0000 -0.0000
vn 0.8090 -0.0000 -0.5878
vn 0.3090 -0.0000 -0.9511
vn -0.0000 1.0000 -0.0000
vn -0.0000 -0.7071 0.7071
vn 0.4082 -0.8165 0.4082
vn 0.7071 -0.7071 -0.0000
vn 0.4082 -0.8165 -0.4082
vn -0.0000 -0.7071 -0.7071
vn -0.4082 -0.8165 -0.4082
vn -0.7071 -0.7071 -0.0000
vn -0.4082 -0.8165 0.4082
vn -0.0000 -0.0000 1.0000
vn 0.7071 -0.0000 0.7071
vn 0.7071 -0.0000 -0.7071
vn -0.0000 -0.0000 -1.0000
vn -0.7071 -0.0000 -0.7071
vn -0.7071 -0.0000 0.7071
vn -0.0000 0.7071 0.7071
vn 0.4082 0.8165 0.4082
vn 0.7071 0.7071 -0.0000
vn 0.4082 0.8165 -0.4083
vn -0.0000 0.7071 -0.7071
vn -0.4082 0.8165 -0.4082
vn -0.7071 0.7071 -0.0000
vn -0.4082 0.8165 0.4083
vn -0.3090 0.9511 -0.0000
vn -0.8090 0.5878 -0.0000
vn -0.8090 -0.5878 -0.0000
vn -0.3090 -0.9511 -0.0000
vn 0.3090 -0.9511 -0.0000
vn 0.8090 -0.5878 -0.0000
vn 0.8090 0.5878 -0.0000
vn 0.3090 0.9511 -0.0000
vn 0.4082 0.8165 -0.4082
vn -0.4082 0.8165 0.4082
vn -0.0000 0.9659 0.2588
vn -0.0000 0.2588 0.9659
vn -0.0000 -0.2588 0.9659
vn -0.0000 -0.9659 0.2588
vn -0.0000 -0.9659 -0.2588
vn -0.0000 -0.2588 -0.9659
vn -0.0000 0.2588 -0.9659
vn -0.0000 0.9659 -0.2588
vn -0.0000 0.8660 0.5000
vn -0.0000 -0.8660 0.5000
vn -0.0000 -0.8660 -0.5000
vn -0.0000 0.8660 -0.5000
vn -0.3827 0.9239 -0.0000
vn -0.9239 0.3827 -0.0000
vn -0.9239 -0.3827 -0.0000
vn -0.3827 -0.9239 -0.0000
vn 0.3827 -0.9239 -0.0000
vn 0.9239 -0.3827 -0.0000
vn 0.9239 0.3827 -0.0000
vn 0.3827 0.9239 -0.0000
vn 0.4082 0.8165 0.4083
vn -0.4082 0.8165 -0.4083
vt 0.625000 0.125000
vt 0.125000 0.125000
vt 0.375000 0.125000
vt 0.875000 0.125000
vt 0.125000 0.625000
vt 0.625000 0.875000
vt 0.125000 0.875000
vt 0.375000 0.875000
s 0
usemtl Military_Equipment_Palette
f 111/4/39 107/4/39 105/4/39
f 106/4/40 115/4/40 105/4/40
f 107/4/41 116/4/41 106/4/41
f 108/4/42 117/4/42 107/4/42
f 109/4/43 118/4/43 108/4/43
f 110/4/44 119/4/44 109/4/44
f 111/4/45 120/4/45 110/4/45
f 112/4/46 121/4/46 111/4/46
f 113/4/47 122/4/47 112/4/47
f 114/4/48 123/4/48 113/4/48
f 105/4/49 124/4/49 114/4/49
f 118/4/50 122/4/50 124/4/50
f 126/5/39 125/5/39 129/5/39
f 126/5/51 133/5/51 125/5/51
f 127/5/52 134/5/52 126/5/52
f 128/5/53 135/5/53 127/5/53
f 128/5/54 137/5/54 136/5/54
f 130/5/55 137/5/55 129/5/55
f 131/5/56 138/5/56 130/5/56
f 132/5/57 139/5/57 131/5/57
f 132/5/58 133/5/58 140/5/58
f 134/5/59 141/5/59 133/5/59
f 135/5/60 142/5/60 134/5/60
f 136/5/47 143/5/47 135/5/47
f 137/5/61 144/5/61 136/5/61
f 138/5/62 145/5/62 137/5/62
f 139/5/63 146/5/63 138/5/63
f 140/5/42 147/5/42 139/5/42
f 133/5/64 148/5/64 140/5/64
f 142/5/65 149/5/65 141/5/65
f 142/5/66 151/5/66 150/5/66
f 144/5/67 151/5/67 143/5/67
f 145/5/68 152/5/68 144/5/68
f 146/5/69 153/5/69 145/5/69
f 146/5/70 155/5/70 154/5/70
f 148/5/71 155/5/71 147/5/71
f 141/5/72 156/5/72 148/5/72
f 154/5/50 155/5/50 156/5/50
f 159/6/39 157/6/39 160/6/39
f 162/6/50 164/6/50 161/6/50
f 158/6/59 161/6/59 157/6/59
f 159/6/47 162/6/47 158/6/47
f 160/6/62 163/6/62 159/6/62
f 157/6/42 164/6/42 160/6/42
f 171/7/62 167/7/62 165/7/62
f 166/7/73 175/7/73 165/7/73
f 167/7/74 176/7/74 166/7/74
f 168/7/42 177/7/42 167/7/42
f 169/7/75 178/7/75 168/7/75
f 170/7/76 179/7/76 169/7/76
f 171/7/77 180/7/77 170/7/77
f 172/7/78 181/7/78 171/7/78
f 173/7/47 182/7/47 172/7/47
f 174/7/79 183/7/79 173/7/79
f 165/7/80 184/7/80 174/7/80
f 178/7/59 180/7/59 182/7/59
f 186/8/62 185/8/62 191/8/62
f 186/8/73 195/8/73 185/8/73
f 187/8/74 196/8/74 186/8/74
f 188/8/42 197/8/42 187/8/42
f 189/8/75 198/8/75 188/8/75
f 190/8/76 199/8/76 189/8/76
f 191/8/77 200/8/77 190/8/77
f 192/8/78 201/8/78 191/8/78
f 193/8/47 202/8/47 192/8/47
f 194/8/79 203/8/79 193/8/79
f 185/8/80 204/8/80 194/8/80
f 198/8/59 202/8/59 204/8/59
f 213/9/62 211/9/62 207/9/62
f 206/9/73 215/9/73 205/9/73
f 207/9/74 216/9/74 206/9/74
f 208/9/42 217/9/42 207/9/42
f 209/9/75 218/9/75 208/9/75
f 210/9/76 219/9/76 209/9/76
f 211/9/77 220/9/77 210/9/77
f 212/9/78 221/9/78 211/9/78
f 213/9/47 222/9/47 212/9/47
f 214/9/79 223/9/79 213/9/79
f 205/9/80 224/9/80 214/9/80
f 218/9/59 220/9/59 222/9/59
f 227/10/39 226/10/39 225/10/39
f 226/10/51 233/10/51 225/10/51
f 227/10/52 234/10/52 226/10/52
f 227/10/53 236/10/53 235/10/53
f 228/10/54 237/10/54 236/10/54
f 230/10/55 237/10/55 229/10/55
f 230/10/56 239/10/56 238/10/56
f 232/10/57 239/10/57 231/10/57
f 225/10/58 240/10/58 232/10/58
f 234/10/59 241/10/59 233/10/59
f 235/10/60 242/10/60 234/10/60
f 236/10/47 243/10/47 235/10/47
f 237/10/61 244/10/61 236/10/61
f 238/10/62 245/10/62 237/10/62
f 239/10/63 246/10/63 238/10/63
f 240/10/42 247/10/42 239/10/42
f 233/10/64 248/10/64 240/10/64
f 242/10/65 249/10/65 241/10/65
f 242/10/66 251/10/66 250/10/66
f 244/10/67 251/10/67 243/10/67
f 245/10/81 252/10/81 244/10/81
f 246/10/69 253/10/69 245/10/69
f 247/10/70 254/10/70 246/10/70
f 248/10/71 255/10/71 247/10/71
f 241/10/82 256/10/82 248/10/82
f 255/10/50 256/10/50 252/10/50
f 259/6/39 257/6/39 260/6/39
f 262/6/50 264/6/50 261/6/50
f 258/6/59 261/6/59 257/6/59
f 259/6/47 262/6/47 258/6/47
f 260/6/62 263/6/62 259/6/62
f 257/6/42 264/6/42 260/6/42
f 267/7/39 265/7/39 268/7/39
f 270/7/50 272/7/50 269/7/50
f 266/7/59 269/7/59 265/7/59
f 267/7/47 270/7/47 266/7/47
f 268/7/62 271/7/62 267/7/62
f 265/7/42 272/7/42 268/7/42
f 275/11/39 273/11/39 276/11/39
f 278/11/50 280/11/50 277/11/50
f 274/11/59 277/11/59 273/11/59
f 275/11/47 278/11/47 274/11/47
f 276/11/62 279/11/62 275/11/62
f 273/11/42 280/11/42 276/11/42
f 283/7/39 281/7/39 284/7/39
f 286/7/50 288/7/50 285/7/50
f 282/7/59 285/7/59 281/7/59
f 283/7/47 286/7/47 282/7/47
f 284/7/62 287/7/62 283/7/62
f 281/7/42 288/7/42 284/7/42
f 291/11/39 289/11/39 292/11/39
f 294/11/50 296/11/50 293/11/50
f 290/11/59 293/11/59 289/11/59
f 291/11/47 294/11/47 290/11/47
f 292/11/62 295/11/62 291/11/62
f 289/11/42 296/11/42 292/11/42
f 299/8/39 297/8/39 300/8/39
f 302/8/50 304/8/50 301/8/50
f 298/8/59 301/8/59 297/8/59
f 299/8/47 302/8/47 298/8/47
f 300/8/62 303/8/62 299/8/62
f 297/8/42 304/8/42 300/8/42
f 307/7/39 305/7/39 308/7/39
f 310/7/50 312/7/50 309/7/50
f 306/7/59 309/7/59 305/7/59
f 307/7/47 310/7/47 306/7/47
f 308/7/62 311/7/62 307/7/62
f 305/7/42 312/7/42 308/7/42
f 315/7/39 313/7/39 316/7/39
f 318/7/50 320/7/50 317/7/50
f 314/7/59 317/7/59 313/7/59
f 315/7/47 318/7/47 314/7/47
f 316/7/62 319/7/62 315/7/62
f 313/7/42 320/7/42 316/7/42
f 331/5/42 329/5/42 325/5/42
f 322/5/83 333/5/83 321/5/83
f 323/5/65 334/5/65 322/5/65
f 324/5/84 335/5/84 323/5/84
f 325/5/85 336/5/85 324/5/85
f 326/5/51 337/5/51 325/5/51
f 327/5/86 338/5/86 326/5/86
f 328/5/87 339/5/87 327/5/87
f 329/5/55 340/5/55 328/5/55
f 330/5/88 341/5/88 329/5/88
f 331/5/89 342/5/89 330/5/89
f 332/5/69 343/5/69 331/5/69
f 321/5/90 344/5/90 332/5/90
f 336/5/47 338/5/47 340/5/47
f 349/11/42 347/11/42 345/11/42
f 346/11/91 351/11/91 345/11/91
f 347/11/59 352/11/59 346/11/59
f 348/11/92 353/11/92 347/11/92
f 349/11/93 354/11/93 348/11/93
f 350/11/62 355/11/62 349/11/62
f 345/11/94 356/11/94 350/11/94
f 352/11/47 354/11/47 356/11/47
f 359/11/42 358/11/42 357/11/42
f 358/11/91 363/11/91 357/11/91
f 359/11/59 364/11/59 358/11/59
f 360/11/92 365/11/92 359/11/92
f 361/11/93 366/11/93 360/11/93
f 362/11/62 367/11/62 361/11/62
f 357/11/94 368/11/94 362/11/94
f 367/11/47 368/11/47 364/11/47
f 371/11/42 370/11/42 369/11/42
f 370/11/91 375/11/91 369/11/91
f 371/11/59 376/11/59 370/11/59
f 372/11/92 377/11/92 371/11/92
f 373/11/93 378/11/93 372/11/93
f 374/11/62 379/11/62 373/11/62
f 369/11/94 380/11/94 374/11/94
f 379/11/47 380/11/47 376/11/47
f 382/11/42 381/11/42 385/11/42
f 382/11/91 387/11/91 381/11/91
f 383/11/59 388/11/59 382/11/59
f 384/11/92 389/11/92 383/11/92
f 385/11/93 390/11/93 384/11/93
f 386/11/62 391/11/62 385/11/62
f 381/11/94 392/11/94 386/11/94
f 391/11/47 392/11/47 388/11/47
f 397/11/42 395/11/42 393/11/42
f 394/11/91 399/11/91 393/11/91
f 395/11/59 400/11/59 394/11/59
f 396/11/92 401/11/92 395/11/92
f 397/11/93 402/11/93 396/11/93
f 398/11/62 403/11/62 397/11/62
f 393/11/94 404/11/94 398/11/94
f 402/11/47 403/11/47 404/11/47
f 407/11/42 406/11/42 405/11/42
f 406/11/91 411/11/91 405/11/91
f 407/11/59 412/11/59 406/11/59
f 408/11/92 413/11/92 407/11/92
f 409/11/93 414/11/93 408/11/93
f 410/11/62 415/11/62 409/11/62
f 405/11/94 416/11/94 410/11/94
f 412/11/47 414/11/47 416/11/47
f 419/11/42 418/11/42 417/11/42
f 418/11/91 423/11/91 417/11/91
f 419/11/59 424/11/59 418/11/59
f 420/11/92 425/11/92 419/11/92
f 421/11/93 426/11/93 420/11/93
f 422/11/62 427/11/62 421/11/62
f 417/11/94 428/11/94 422/11/94
f 424/11/47 426/11/47 428/11/47
f 433/11/42 431/11/42 429/11/42
f 430/11/91 435/11/91 429/11/91
f 431/11/59 436/11/59 430/11/59
f 432/11/92 437/11/92 431/11/92
f 433/11/93 438/11/93 432/11/93
f 434/11/62 439/11/62 433/11/62
f 429/11/94 440/11/94 434/11/94
f 436/11/47 438/11/47 440/11/47
f 447/7/62 445/7/62 443/7/62
f 442/7/95 449/7/95 441/7/95
f 443/7/96 450/7/96 442/7/96
f 444/7/97 451/7/97 443/7/97
f 445/7/98 452/7/98 444/7/98
f 446/7/99 453/7/99 445/7/99
f 447/7/100 454/7/100 446/7/100
f 448/7/101 455/7/101 447/7/101
f 441/7/102 456/7/102 448/7/102
f 452/7/59 454/7/59 456/7/59
f 105/4/39 114/4/39 111/4/39
f 114/4/39 113/4/39 111/4/39
f 113/4/39 112/4/39 111/4/39
f 111/4/39 110/4/39 109/4/39
f 109/4/39 108/4/39 111/4/39
f 108/4/39 107/4/39 111/4/39
f 107/4/39 106/4/39 105/4/39
f 106/4/40 116/4/40 115/4/40
f 107/4/41 117/4/41 116/4/41
f 108/4/42 118/4/42 117/4/42
f 109/4/43 119/4/43 118/4/43
f 110/4/44 120/4/44 119/4/44
f 111/4/45 121/4/45 120/4/45
f 112/4/46 122/4/46 121/4/46
f 113/4/47 123/4/47 122/4/47
f 114/4/48 124/4/48 123/4/48
f 105/4/49 115/4/49 124/4/49
f 124/4/50 115/4/50 116/4/50
f 116/4/50 117/4/50 124/4/50
f 117/4/50 118/4/50 124/4/50
f 118/4/50 119/4/50 120/4/50
f 120/4/50 121/4/50 118/4/50
f 121/4/50 122/4/50 118/4/50
f 122/4/50 123/4/50 124/4/50
f 125/5/39 132/5/39 131/5/39
f 131/5/39 130/5/39 125/5/39
f 130/5/39 129/5/39 125/5/39
f 129/5/39 128/5/39 127/5/39
f 127/5/39 126/5/39 129/5/39
f 126/5/51 134/5/51 133/5/51
f 127/5/52 135/5/52 134/5/52
f 128/5/53 136/5/53 135/5/53
f 128/5/54 129/5/54 137/5/54
f 130/5/55 138/5/55 137/5/55
f 131/5/56 139/5/56 138/5/56
f 132/5/57 140/5/57 139/5/57
f 132/5/58 125/5/58 133/5/58
f 134/5/59 142/5/59 141/5/59
f 135/5/60 143/5/60 142/5/60
f 136/5/47 144/5/47 143/5/47
f 137/5/61 145/5/61 144/5/61
f 138/5/62 146/5/62 145/5/62
f 139/5/63 147/5/63 146/5/63
f 140/5/42 148/5/42 147/5/42
f 133/5/64 141/5/64 148/5/64
f 142/5/65 150/5/65 149/5/65
f 142/5/103 143/5/103 151/5/103
f 144/5/67 152/5/67 151/5/67
f 145/5/81 153/5/81 152/5/81
f 146/5/69 154/5/69 153/5/69
f 146/5/104 147/5/104 155/5/104
f 148/5/71 156/5/71 155/5/71
f 141/5/82 149/5/82 156/5/82
f 156/5/50 149/5/50 154/5/50
f 149/5/50 150/5/50 154/5/50
f 150/5/50 151/5/50 152/5/50
f 152/5/50 153/5/50 150/5/50
f 153/5/50 154/5/50 150/5/50
f 159/6/39 158/6/39 157/6/39
f 162/6/50 163/6/50 164/6/50
f 158/6/59 162/6/59 161/6/59
f 159/6/47 163/6/47 162/6/47
f 160/6/62 164/6/62 163/6/62
f 157/6/42 161/6/42 164/6/42
f 165/7/62 174/7/62 173/7/62
f 173/7/62 172/7/62 171/7/62
f 171/7/62 170/7/62 169/7/62
f 169/7/62 168/7/62 167/7/62
f 167/7/62 166/7/62 165/7/62
f 165/7/62 173/7/62 171/7/62
f 171/7/62 169/7/62 167/7/62
f 166/7/73 176/7/73 175/7/73
f 167/7/74 177/7/74 176/7/74
f 168/7/42 178/7/42 177/7/42
f 169/7/75 179/7/75 178/7/75
f 170/7/76 180/7/76 179/7/76
f 171/7/77 181/7/77 180/7/77
f 172/7/78 182/7/78 181/7/78
f 173/7/47 183/7/47 182/7/47
f 174/7/79 184/7/79 183/7/79
f 165/7/80 175/7/80 184/7/80
f 184/7/59 175/7/59 176/7/59
f 176/7/59 177/7/59 184/7/59
f 177/7/59 178/7/59 184/7/59
f 178/7/59 179/7/59 180/7/59
f 180/7/59 181/7/59 182/7/59
f 182/7/59 183/7/59 178/7/59
f 183/7/59 184/7/59 178/7/59
f 185/8/62 194/8/62 191/8/62
f 194/8/62 193/8/62 191/8/62
f 193/8/62 192/8/62 191/8/62
f 191/8/62 190/8/62 187/8/62
f 190/8/62 189/8/62 187/8/62
f 189/8/62 188/8/62 187/8/62
f 187/8/62 186/8/62 191/8/62
f 186/8/73 196/8/73 195/8/73
f 187/8/74 197/8/74 196/8/74
f 188/8/42 198/8/42 197/8/42
f 189/8/75 199/8/75 198/8/75
f 190/8/76 200/8/76 199/8/76
f 191/8/77 201/8/77 200/8/77
f 192/8/78 202/8/78 201/8/78
f 193/8/47 203/8/47 202/8/47
f 194/8/79 204/8/79 203/8/79
f 185/8/80 195/8/80 204/8/80
f 204/8/59 195/8/59 196/8/59
f 196/8/59 197/8/59 198/8/59
f 198/8/59 199/8/59 200/8/59
f 200/8/59 201/8/59 202/8/59
f 202/8/59 203/8/59 204/8/59
f 204/8/59 196/8/59 198/8/59
f 198/8/59 200/8/59 202/8/59
f 205/9/62 214/9/62 213/9/62
f 213/9/62 212/9/62 211/9/62
f 211/9/62 210/9/62 209/9/62
f 209/9/62 208/9/62 211/9/62
f 208/9/62 207/9/62 211/9/62
f 207/9/62 206/9/62 205/9/62
f 205/9/62 213/9/62 207/9/62
f 206/9/73 216/9/73 215/9/73
f 207/9/74 217/9/74 216/9/74
f 208/9/42 218/9/42 217/9/42
f 209/9/75 219/9/75 218/9/75
f 210/9/76 220/9/76 219/9/76
f 211/9/77 221/9/77 220/9/77
f 212/9/78 222/9/78 221/9/78
f 213/9/47 223/9/47 222/9/47
f 214/9/79 224/9/79 223/9/79
f 205/9/80 215/9/80 224/9/80
f 224/9/59 215/9/59 216/9/59
f 216/9/59 217/9/59 224/9/59
f 217/9/59 218/9/59 224/9/59
f 218/9/59 219/9/59 220/9/59
f 220/9/59 221/9/59 222/9/59
f 222/9/59 223/9/59 218/9/59
f 223/9/59 224/9/59 218/9/59
f 225/10/39 232/10/39 227/10/39
f 232/10/39 231/10/39 227/10/39
f 231/10/39 230/10/39 229/10/39
f 229/10/39 228/10/39 231/10/39
f 228/10/39 227/10/39 231/10/39
f 226/10/51 234/10/51 233/10/51
f 227/10/52 235/10/52 234/10/52
f 227/10/53 228/10/53 236/10/53
f 228/10/54 229/10/54 237/10/54
f 230/10/55 238/10/55 237/10/55
f 230/10/56 231/10/56 239/10/56
f 232/10/57 240/10/57 239/10/57
f 225/10/58 233/10/58 240/10/58
f 234/10/59 242/10/59 241/10/59
f 235/10/60 243/10/60 242/10/60
f 236/10/47 244/10/47 243/10/47
f 237/10/61 245/10/61 244/10/61
f 238/10/62 246/10/62 245/10/62
f 239/10/63 247/10/63 246/10/63
f 240/10/42 248/10/42 247/10/42
f 233/10/64 241/10/64 248/10/64
f 242/10/65 250/10/65 249/10/65
f 242/10/66 243/10/66 251/10/66
f 244/10/67 252/10/67 251/10/67
f 245/10/81 253/10/81 252/10/81
f 246/10/69 254/10/69 253/10/69
f 247/10/70 255/10/70 254/10/70
f 248/10/71 256/10/71 255/10/71
f 241/10/82 249/10/82 256/10/82
f 256/10/50 249/10/50 250/10/50
f 250/10/50 251/10/50 256/10/50
f 251/10/50 252/10/50 256/10/50
f 252/10/50 253/10/50 254/10/50
f 254/10/50 255/10/50 252/10/50
f 259/6/39 258/6/39 257/6/39
f 262/6/50 263/6/50 264/6/50
f 258/6/59 262/6/59 261/6/59
f 259/6/47 263/6/47 262/6/47
f 260/6/62 264/6/62 263/6/62
f 257/6/42 261/6/42 264/6/42
f 267/7/39 266/7/39 265/7/39
f 270/7/50 271/7/50 272/7/50
f 266/7/59 270/7/59 269/7/59
f 267/7/47 271/7/47 270/7/47
f 268/7/62 272/7/62 271/7/62
f 265/7/42 269/7/42 272/7/42
f 275/11/39 274/11/39 273/11/39
f 278/11/50 279/11/50 280/11/50
f 274/11/59 278/11/59 277/11/59
f 275/11/47 279/11/47 278/11/47
f 276/11/62 280/11/62 279/11/62
f 273/11/42 277/11/42 280/11/42
f 283/7/39 282/7/39 281/7/39
f 286/7/50 287/7/50 288/7/50
f 282/7/59 286/7/59 285/7/59
f 283/7/47 287/7/47 286/7/47
f 284/7/62 288/7/62 287/7/62
f 281/7/42 285/7/42 288/7/42
f 291/11/39 290/11/39 289/11/39
f 294/11/50 295/11/50 296/11/50
f 290/11/59 294/11/59 293/11/59
f 291/11/47 295/11/47 294/11/47
f 292/11/62 296/11/62 295/11/62
f 289/11/42 293/11/42 296/11/42
f 299/8/39 298/8/39 297/8/39
f 302/8/50 303/8/50 304/8/50
f 298/8/59 302/8/59 301/8/59
f 299/8/47 303/8/47 302/8/47
f 300/8/62 304/8/62 303/8/62
f 297/8/42 301/8/42 304/8/42
f 307/7/39 306/7/39 305/7/39
f 310/7/50 311/7/50 312/7/50
f 306/7/59 310/7/59 309/7/59
f 307/7/47 311/7/47 310/7/47
f 308/7/62 312/7/62 311/7/62
f 305/7/42 309/7/42 312/7/42
f 315/7/39 314/7/39 313/7/39
f 318/7/50 319/7/50 320/7/50
f 314/7/59 318/7/59 317/7/59
f 315/7/47 319/7/47 318/7/47
f 316/7/62 320/7/62 319/7/62
f 313/7/42 317/7/42 320/7/42
f 321/5/42 332/5/42 331/5/42
f 331/5/42 330/5/42 329/5/42
f 329/5/42 328/5/42 325/5/42
f 328/5/42 327/5/42 325/5/42
f 327/5/42 326/5/42 325/5/42
f 325/5/42 324/5/42 323/5/42
f 323/5/42 322/5/42 325/5/42
f 322/5/42 321/5/42 325/5/42
f 321/5/42 331/5/42 325/5/42
f 322/5/83 334/5/83 333/5/83
f 323/5/65 335/5/65 334/5/65
f 324/5/84 336/5/84 335/5/84
f 325/5/85 337/5/85 336/5/85
f 326/5/51 338/5/51 337/5/51
f 327/5/86 339/5/86 338/5/86
f 328/5/87 340/5/87 339/5/87
f 329/5/55 341/5/55 340/5/55
f 330/5/88 342/5/88 341/5/88
f 331/5/89 343/5/89 342/5/89
f 332/5/69 344/5/69 343/5/69
f 321/5/90 333/5/90 344/5/90
f 344/5/47 333/5/47 334/5/47
f 334/5/47 335/5/47 336/5/47
f 336/5/47 337/5/47 338/5/47
f 338/5/47 339/5/47 340/5/47
f 340/5/47 341/5/47 344/5/47
f 341/5/47 342/5/47 344/5/47
f 342/5/47 343/5/47 344/5/47
f 344/5/47 334/5/47 340/5/47
f 334/5/47 336/5/47 340/5/47
f 345/11/42 350/11/42 349/11/42
f 349/11/42 348/11/42 347/11/42
f 347/11/42 346/11/42 345/11/42
f 346/11/91 352/11/91 351/11/91
f 347/11/59 353/11/59 352/11/59
f 348/11/92 354/11/92 353/11/92
f 349/11/93 355/11/93 354/11/93
f 350/11/62 356/11/62 355/11/62
f 345/11/94 351/11/94 356/11/94
f 356/11/47 351/11/47 352/11/47
f 352/11/47 353/11/47 354/11/47
f 354/11/47 355/11/47 356/11/47
f 357/11/42 362/11/42 359/11/42
f 362/11/42 361/11/42 359/11/42
f 361/11/42 360/11/42 359/11/42
f 358/11/91 364/11/91 363/11/91
f 359/11/59 365/11/59 364/11/59
f 360/11/92 366/11/92 365/11/92
f 361/11/93 367/11/93 366/11/93
f 362/11/62 368/11/62 367/11/62
f 357/11/94 363/11/94 368/11/94
f 368/11/47 363/11/47 364/11/47
f 364/11/47 365/11/47 366/11/47
f 366/11/47 367/11/47 364/11/47
f 369/11/42 374/11/42 371/11/42
f 374/11/42 373/11/42 371/11/42
f 373/11/42 372/11/42 371/11/42
f 370/11/91 376/11/91 375/11/91
f 371/11/59 377/11/59 376/11/59
f 372/11/92 378/11/92 377/11/92
f 373/11/93 379/11/93 378/11/93
f 374/11/62 380/11/62 379/11/62
f 369/11/94 375/11/94 380/11/94
f 380/11/47 375/11/47 376/11/47
f 376/11/47 377/11/47 378/11/47
f 378/11/47 379/11/47 376/11/47
f 381/11/42 386/11/42 385/11/42
f 385/11/42 384/11/42 383/11/42
f 383/11/42 382/11/42 385/11/42
f 382/11/91 388/11/91 387/11/91
f 383/11/59 389/11/59 388/11/59
f 384/11/92 390/11/92 389/11/92
f 385/11/93 391/11/93 390/11/93
f 386/11/62 392/11/62 391/11/62
f 381/11/94 387/11/94 392/11/94
f 392/11/47 387/11/47 388/11/47
f 388/11/47 389/11/47 390/11/47
f 390/11/47 391/11/47 388/11/47
f 393/11/42 398/11/42 397/11/42
f 397/11/42 396/11/42 395/11/42
f 395/11/42 394/11/42 393/11/42
f 394/11/91 400/11/91 399/11/91
f 395/11/59 401/11/59 400/11/59
f 396/11/92 402/11/92 401/11/92
f 397/11/93 403/11/93 402/11/93
f 398/11/62 404/11/62 403/11/62
f 393/11/94 399/11/94 404/11/94
f 404/11/47 399/11/47 400/11/47
f 400/11/47 401/11/47 404/11/47
f 401/11/47 402/11/47 404/11/47
f 405/11/42 410/11/42 409/11/42
f 409/11/42 408/11/42 405/11/42
f 408/11/42 407/11/42 405/11/42
f 406/11/91 412/11/91 411/11/91
f 407/11/59 413/11/59 412/11/59
f 408/11/92 414/11/92 413/11/92
f 409/11/93 415/11/93 414/11/93
f 410/11/62 416/11/62 415/11/62
f 405/11/94 411/11/94 416/11/94
f 416/11/47 411/11/47 412/11/47
f 412/11/47 413/11/47 414/11/47
f 414/11/47 415/11/47 416/11/47
f 417/11/42 422/11/42 419/11/42
f 422/11/42 421/11/42 419/11/42
f 421/11/42 420/11/42 419/11/42
f 418/11/91 424/11/91 423/11/91
f 419/11/59 425/11/59 424/11/59
f 420/11/92 426/11/92 425/11/92
f 421/11/93 427/11/93 426/11/93
f 422/11/62 428/11/62 427/11/62
f 417/11/94 423/11/94 428/11/94
f 428/11/47 423/11/47 424/11/47
f 424/11/47 425/11/47 426/11/47
f 426/11/47 427/11/47 428/11/47
f 429/11/42 434/11/42 433/11/42
f 433/11/42 432/11/42 431/11/42
f 431/11/42 430/11/42 429/11/42
f 430/11/91 436/11/91 435/11/91
f 431/11/59 437/11/59 436/11/59
f 432/11/92 438/11/92 437/11/92
f 433/11/93 439/11/93 438/11/93
f 434/11/62 440/11/62 439/11/62
f 429/11/94 435/11/94 440/11/94
f 440/11/47 435/11/47 436/11/47
f 436/11/47 437/11/47 438/11/47
f 438/11/47 439/11/47 440/11/47
f 441/7/62 448/7/62 447/7/62
f 447/7/62 446/7/62 445/7/62
f 445/7/62 444/7/62 443/7/62
f 443/7/62 442/7/62 441/7/62
f 441/7/62 447/7/62 443/7/62
f 442/7/95 450/7/95 449/7/95
f 443/7/96 451/7/96 450/7/96
f 444/7/97 452/7/97 451/7/97
f 445/7/98 453/7/98 452/7/98
f 446/7/99 454/7/99 453/7/99
f 447/7/100 455/7/100 454/7/100
f 448/7/101 456/7/101 455/7/101
f 441/7/102 449/7/102 456/7/102
f 456/7/59 449/7/59 450/7/59
f 450/7/59 451/7/59 452/7/59
f 452/7/59 453/7/59 454/7/59
f 454/7/59 455/7/59 456/7/59
f 456/7/59 450/7/59 452/7/59
