# Blender 5.2.1 LTS
# www.blender.org
mtllib mineHacker.mtl
o BASE.017
v -0.361200 0.000000 0.350600
v 0.361200 0.000000 0.350600
v 0.375600 0.000000 0.336200
v 0.375600 0.000000 -0.336200
v 0.361200 0.000000 -0.350600
v -0.361200 0.000000 -0.350600
v -0.375600 0.000000 -0.336200
v -0.375600 0.000000 0.336200
v -0.375600 0.014400 0.365000
v 0.375600 0.014400 0.365000
v 0.390000 0.014400 0.350600
v 0.390000 0.014400 -0.350600
v 0.375600 0.014400 -0.365000
v -0.375600 0.014400 -0.365000
v -0.390000 0.014400 -0.350600
v -0.390000 0.014400 0.350600
v -0.375600 0.105600 0.365000
v 0.375600 0.105600 0.365000
v 0.390000 0.105600 0.350600
v 0.390000 0.105600 -0.350600
v 0.375600 0.105600 -0.365000
v -0.375600 0.105600 -0.365000
v -0.390000 0.105600 -0.350600
v -0.390000 0.105600 0.350600
v -0.361200 0.120000 0.350600
v 0.361200 0.120000 0.350600
v 0.375600 0.120000 0.336200
v 0.375600 0.120000 -0.336200
v 0.361200 0.120000 -0.350600
v -0.361200 0.120000 -0.350600
v -0.375600 0.120000 -0.336200
v -0.375600 0.120000 0.336200
v -0.300000 0.121000 -0.302000
v -0.327713 0.121000 -0.286000
v -0.327713 0.121000 -0.254000
v -0.300000 0.121000 -0.238000
v -0.272287 0.121000 -0.254000
v -0.272287 0.121000 -0.286000
v -0.300000 0.141000 -0.302000
v -0.327713 0.141000 -0.286000
v -0.327713 0.141000 -0.254000
v -0.300000 0.141000 -0.238000
v -0.272287 0.141000 -0.254000
v -0.272287 0.141000 -0.286000
v -0.300000 0.121000 0.238000
v -0.327713 0.121000 0.254000
v -0.327713 0.121000 0.286000
v -0.300000 0.121000 0.302000
v -0.272287 0.121000 0.286000
v -0.272287 0.121000 0.254000
v -0.300000 0.141000 0.238000
v -0.327713 0.141000 0.254000
v -0.327713 0.141000 0.286000
v -0.300000 0.141000 0.302000
v -0.272287 0.141000 0.286000
v -0.272287 0.141000 0.254000
v 0.300000 0.121000 -0.302000
v 0.272287 0.121000 -0.286000
v 0.272287 0.121000 -0.254000
v 0.300000 0.121000 -0.238000
v 0.327713 0.121000 -0.254000
v 0.327713 0.121000 -0.286000
v 0.300000 0.141000 -0.302000
v 0.272287 0.141000 -0.286000
v 0.272287 0.141000 -0.254000
v 0.300000 0.141000 -0.238000
v 0.327713 0.141000 -0.254000
v 0.327713 0.141000 -0.286000
v 0.300000 0.121000 0.238000
v 0.272287 0.121000 0.254000
v 0.272287 0.121000 0.286000
v 0.300000 0.121000 0.302000
v 0.327713 0.121000 0.286000
v 0.327713 0.121000 0.254000
v 0.300000 0.141000 0.238000
v 0.272287 0.141000 0.254000
v 0.272287 0.141000 0.286000
v 0.300000 0.141000 0.302000
v 0.327713 0.141000 0.286000
v 0.327713 0.141000 0.254000
v -0.270000 0.135000 0.255000
v 0.270000 0.135000 0.255000
v 0.295000 0.135000 0.230000
v 0.295000 0.135000 -0.230000
v 0.270000 0.135000 -0.255000
v -0.270000 0.135000 -0.255000
v -0.295000 0.135000 -0.230000
v -0.295000 0.135000 0.230000
v -0.295000 0.160000 0.280000
v 0.295000 0.160000 0.280000
v 0.320000 0.160000 0.255000
v 0.320000 0.160000 -0.255000
v 0.295000 0.160000 -0.280000
v -0.295000 0.160000 -0.280000
v -0.320000 0.160000 -0.255000
v -0.320000 0.160000 0.255000
v -0.295000 0.580000 0.280000
v 0.295000 0.580000 0.280000
v 0.320000 0.580000 0.255000
v 0.320000 0.580000 -0.255000
v 0.295000 0.580000 -0.280000
v -0.295000 0.580000 -0.280000
v -0.320000 0.580000 -0.255000
v -0.320000 0.580000 0.255000
v -0.270000 0.605000 0.255000
v 0.270000 0.605000 0.255000
v 0.295000 0.605000 0.230000
v 0.295000 0.605000 -0.230000
v 0.270000 0.605000 -0.255000
v -0.270000 0.605000 -0.255000
v -0.295000 0.605000 -0.230000
v -0.295000 0.605000 0.230000
v -0.337500 0.605000 0.297500
v 0.337500 0.605000 0.297500
v 0.337500 0.605000 -0.297500
v -0.337500 0.605000 -0.297500
v -0.337500 0.655000 0.297500
v 0.337500 0.655000 0.297500
v 0.337500 0.655000 -0.297500
v -0.337500 0.655000 -0.297500
v -0.209500 0.100000 0.305000
v -0.174500 0.100000 0.305000
v -0.174500 0.100000 -0.305000
v -0.209500 0.100000 -0.305000
v -0.209500 0.640000 0.305000
v -0.174500 0.640000 0.305000
v -0.174500 0.640000 -0.305000
v -0.209500 0.640000 -0.305000
v -0.185800 0.423100 0.317500
v -0.095800 0.423100 0.317500
v -0.095800 0.423100 0.282500
v -0.185800 0.423100 0.282500
v -0.185800 0.533100 0.317500
v -0.095800 0.533100 0.317500
v -0.095800 0.533100 0.282500
v -0.185800 0.533100 0.282500
v 0.174500 0.100000 0.305000
v 0.209500 0.100000 0.305000
v 0.209500 0.100000 -0.305000
v 0.174500 0.100000 -0.305000
v 0.174500 0.640000 0.305000
v 0.209500 0.640000 0.305000
v 0.209500 0.640000 -0.305000
v 0.174500 0.640000 -0.305000
v 0.095800 0.423100 0.317500
v 0.185800 0.423100 0.317500
v 0.185800 0.423100 0.282500
v 0.095800 0.423100 0.282500
v 0.095800 0.533100 0.317500
v 0.185800 0.533100 0.317500
v 0.185800 0.533100 0.282500
v 0.095800 0.533100 0.282500
v -0.100000 0.401400 0.342500
v 0.100000 0.401400 0.342500
v 0.100000 0.401400 0.297500
v -0.100000 0.401400 0.297500
v -0.100000 0.451400 0.342500
v 0.100000 0.451400 0.342500
v 0.100000 0.451400 0.297500
v -0.100000 0.451400 0.297500
v 0.000000 0.495000 -0.055000
v -0.038891 0.495000 -0.038891
v -0.055000 0.495000 -0.000000
v -0.038891 0.495000 0.038891
v -0.000000 0.495000 0.055000
v 0.038891 0.495000 0.038891
v 0.055000 0.495000 0.000000
v 0.038891 0.495000 -0.038891
v 0.000000 1.045000 -0.055000
v -0.038891 1.045000 -0.038891
v -0.055000 1.045000 -0.000000
v -0.038891 1.045000 0.038891
v -0.000000 1.045000 0.055000
v 0.038891 1.045000 0.038891
v 0.055000 1.045000 0.000000
v 0.038891 1.045000 -0.038891
v -0.220000 0.605000 -0.022000
v -0.239053 0.605000 -0.011000
v -0.239053 0.605000 0.011000
v -0.220000 0.605000 0.022000
v -0.200947 0.605000 0.011000
v -0.200947 0.605000 -0.011000
v -0.220000 1.335000 -0.022000
v -0.239053 1.335000 -0.011000
v -0.239053 1.335000 0.011000
v -0.220000 1.335000 0.022000
v -0.200947 1.335000 0.011000
v -0.200947 1.335000 -0.011000
v -0.310000 0.742500 0.017500
v -0.130000 0.742500 0.017500
v -0.130000 0.742500 -0.017500
v -0.310000 0.742500 -0.017500
v -0.310000 0.777500 0.017500
v -0.130000 0.777500 0.017500
v -0.130000 0.777500 -0.017500
v -0.310000 0.777500 -0.017500
v -0.310000 0.882500 0.017500
v -0.130000 0.882500 0.017500
v -0.130000 0.882500 -0.017500
v -0.310000 0.882500 -0.017500
v -0.310000 0.917500 0.017500
v -0.130000 0.917500 0.017500
v -0.130000 0.917500 -0.017500
v -0.310000 0.917500 -0.017500
v -0.310000 1.022500 0.017500
v -0.130000 1.022500 0.017500
v -0.130000 1.022500 -0.017500
v -0.310000 1.022500 -0.017500
v -0.310000 1.057500 0.017500
v -0.130000 1.057500 0.017500
v -0.130000 1.057500 -0.017500
v -0.310000 1.057500 -0.017500
v 0.220000 0.605000 -0.022000
v 0.200947 0.605000 -0.011000
v 0.200947 0.605000 0.011000
v 0.220000 0.605000 0.022000
v 0.239053 0.605000 0.011000
v 0.239053 0.605000 -0.011000
v 0.220000 1.335000 -0.022000
v 0.200947 1.335000 -0.011000
v 0.200947 1.335000 0.011000
v 0.220000 1.335000 0.022000
v 0.239053 1.335000 0.011000
v 0.239053 1.335000 -0.011000
v 0.130000 0.742500 0.017500
v 0.310000 0.742500 0.017500
v 0.310000 0.742500 -0.017500
v 0.130000 0.742500 -0.017500
v 0.130000 0.777500 0.017500
v 0.310000 0.777500 0.017500
v 0.310000 0.777500 -0.017500
v 0.130000 0.777500 -0.017500
v 0.130000 0.882500 0.017500
v 0.310000 0.882500 0.017500
v 0.310000 0.882500 -0.017500
v 0.130000 0.882500 -0.017500
v 0.130000 0.917500 0.017500
v 0.310000 0.917500 0.017500
v 0.310000 0.917500 -0.017500
v 0.130000 0.917500 -0.017500
v 0.130000 1.022500 0.017500
v 0.310000 1.022500 0.017500
v 0.310000 1.022500 -0.017500
v 0.130000 1.022500 -0.017500
v 0.130000 1.057500 0.017500
v 0.310000 1.057500 0.017500
v 0.310000 1.057500 -0.017500
v 0.130000 1.057500 -0.017500
v -0.145000 0.335000 0.307500
v 0.145000 0.335000 0.307500
v 0.145000 0.335000 0.282500
v -0.145000 0.335000 0.282500
v -0.145000 0.505000 0.307500
v 0.145000 0.505000 0.307500
v 0.145000 0.505000 0.282500
v -0.145000 0.505000 0.282500
v -0.100000 0.258000 0.287500
v -0.115588 0.249000 0.287500
v -0.115588 0.231000 0.287500
v -0.100000 0.222000 0.287500
v -0.084412 0.231000 0.287500
v -0.084412 0.249000 0.287500
v -0.100000 0.258000 0.312500
v -0.115588 0.249000 0.312500
v -0.115588 0.231000 0.312500
v -0.100000 0.222000 0.312500
v -0.084412 0.231000 0.312500
v -0.084412 0.249000 0.312500
v 0.000000 0.258000 0.287500
v -0.015588 0.249000 0.287500
v -0.015588 0.231000 0.287500
v -0.000000 0.222000 0.287500
v 0.015588 0.231000 0.287500
v 0.015588 0.249000 0.287500
v 0.000000 0.258000 0.312500
v -0.015588 0.249000 0.312500
v -0.015588 0.231000 0.312500
v -0.000000 0.222000 0.312500
v 0.015588 0.231000 0.312500
v 0.015588 0.249000 0.312500
v 0.100000 0.258000 0.287500
v 0.084412 0.249000 0.287500
v 0.084412 0.231000 0.287500
v 0.100000 0.222000 0.287500
v 0.115588 0.231000 0.287500
v 0.115588 0.249000 0.287500
v 0.100000 0.258000 0.312500
v 0.084412 0.249000 0.312500
v 0.084412 0.231000 0.312500
v 0.100000 0.222000 0.312500
v 0.115588 0.231000 0.312500
v 0.115588 0.249000 0.312500
v -0.343000 0.204000 0.075000
v -0.317000 0.204000 0.075000
v -0.317000 0.204000 -0.195000
v -0.343000 0.204000 -0.195000
v -0.343000 0.236000 0.075000
v -0.317000 0.236000 0.075000
v -0.317000 0.236000 -0.195000
v -0.343000 0.236000 -0.195000
v -0.343000 0.284000 0.075000
v -0.317000 0.284000 0.075000
v -0.317000 0.284000 -0.195000
v -0.343000 0.284000 -0.195000
v -0.343000 0.316000 0.075000
v -0.317000 0.316000 0.075000
v -0.317000 0.316000 -0.195000
v -0.343000 0.316000 -0.195000
v -0.343000 0.364000 0.075000
v -0.317000 0.364000 0.075000
v -0.317000 0.364000 -0.195000
v -0.343000 0.364000 -0.195000
v -0.343000 0.396000 0.075000
v -0.317000 0.396000 0.075000
v -0.317000 0.396000 -0.195000
v -0.343000 0.396000 -0.195000
v -0.343000 0.444000 0.075000
v -0.317000 0.444000 0.075000
v -0.317000 0.444000 -0.195000
v -0.343000 0.444000 -0.195000
v -0.343000 0.476000 0.075000
v -0.317000 0.476000 0.075000
v -0.317000 0.476000 -0.195000
v -0.343000 0.476000 -0.195000
v 0.317000 0.204000 0.075000
v 0.343000 0.204000 0.075000
v 0.343000 0.204000 -0.195000
v 0.317000 0.204000 -0.195000
v 0.317000 0.236000 0.075000
v 0.343000 0.236000 0.075000
v 0.343000 0.236000 -0.195000
v 0.317000 0.236000 -0.195000
v 0.317000 0.284000 0.075000
v 0.343000 0.284000 0.075000
v 0.343000 0.284000 -0.195000
v 0.317000 0.284000 -0.195000
v 0.317000 0.316000 0.075000
v 0.343000 0.316000 0.075000
v 0.343000 0.316000 -0.195000
v 0.317000 0.316000 -0.195000
v 0.317000 0.364000 0.075000
v 0.343000 0.364000 0.075000
v 0.343000 0.364000 -0.195000
v 0.317000 0.364000 -0.195000
v 0.317000 0.396000 0.075000
v 0.343000 0.396000 0.075000
v 0.343000 0.396000 -0.195000
v 0.317000 0.396000 -0.195000
v 0.317000 0.444000 0.075000
v 0.343000 0.444000 0.075000
v 0.343000 0.444000 -0.195000
v 0.317000 0.444000 -0.195000
v 0.317000 0.476000 0.075000
v 0.343000 0.476000 0.075000
v 0.343000 0.476000 -0.195000
v 0.317000 0.476000 -0.195000
v 0.280000 0.700000 0.202500
v 0.209466 0.677082 0.202500
v 0.165873 0.617082 0.202500
v 0.165873 0.542918 0.202500
v 0.209466 0.482918 0.202500
v 0.280000 0.460000 0.202500
v 0.350534 0.482918 0.202500
v 0.394127 0.542918 0.202500
v 0.394127 0.617082 0.202500
v 0.350534 0.677082 0.202500
v 0.280000 0.700000 0.257500
v 0.209466 0.677082 0.257500
v 0.165873 0.617082 0.257500
v 0.165873 0.542918 0.257500
v 0.209466 0.482918 0.257500
v 0.280000 0.460000 0.257500
v 0.350534 0.482918 0.257500
v 0.394127 0.542918 0.257500
v 0.394127 0.617082 0.257500
v 0.350534 0.677082 0.257500
v 0.280000 0.670000 0.259000
v 0.227099 0.652812 0.259000
v 0.194405 0.607812 0.259000
v 0.194405 0.552188 0.259000
v 0.227099 0.507188 0.259000
v 0.280000 0.490000 0.259000
v 0.332901 0.507188 0.259000
v 0.365595 0.552188 0.259000
v 0.365595 0.607812 0.259000
v 0.332901 0.652812 0.259000
v 0.280000 0.670000 0.271000
v 0.227099 0.652812 0.271000
v 0.194405 0.607812 0.271000
v 0.194405 0.552188 0.271000
v 0.227099 0.507188 0.271000
v 0.280000 0.490000 0.271000
v 0.332901 0.507188 0.271000
v 0.365595 0.552188 0.271000
v 0.365595 0.607812 0.271000
v 0.332901 0.652812 0.271000
vn -0.0000 -1.0000 -0.0000
vn -0.0000 -0.7071 0.7071
vn 0.4082 -0.8165 0.4082
vn 0.7071 -0.7071 -0.0000
vn 0.4082 -0.8165 -0.4082
vn -0.0000 -0.7071 -0.7071
vn -0.4082 -0.8165 -0.4082
vn -0.7071 -0.7071 -0.0000
vn -0.4082 -0.8165 0.4082
vn -0.0000 -0.0000 1.0000
vn 0.7071 -0.0000 0.7071
vn 1.0000 -0.0000 -0.0000
vn 0.7071 -0.0000 -0.7071
vn -0.0000 -0.0000 -1.0000
vn -0.7071 -0.0000 -0.7071
vn -1.0000 -0.0000 -0.0000
vn -0.7071 -0.0000 0.7071
vn -0.0000 0.7071 0.7071
vn 0.4082 0.8165 0.4082
vn 0.7071 0.7071 -0.0000
vn 0.4082 0.8165 -0.4082
vn -0.0000 0.7071 -0.7071
vn -0.4082 0.8165 -0.4082
vn -0.7071 0.7071 -0.0000
vn -0.4082 0.8165 0.4082
vn -0.0000 1.0000 -0.0000
vn -0.5000 -0.0000 -0.8660
vn -0.5000 -0.0000 0.8660
vn 0.5000 -0.0000 0.8660
vn 0.5000 -0.0000 -0.8660
vn 0.4083 0.8165 -0.4082
vn -0.4083 0.8165 0.4082
vn -0.3827 -0.0000 -0.9239
vn -0.9239 -0.0000 -0.3827
vn -0.9239 -0.0000 0.3827
vn -0.3827 -0.0000 0.9239
vn 0.3827 -0.0000 0.9239
vn 0.9239 -0.0000 0.3827
vn 0.9239 -0.0000 -0.3827
vn 0.3827 -0.0000 -0.9239
vn -0.5000 0.8660 -0.0000
vn -0.5000 -0.8660 -0.0000
vn 0.5000 -0.8660 -0.0000
vn 0.5000 0.8660 -0.0000
vn -0.3090 0.9511 -0.0000
vn -0.8090 0.5878 -0.0000
vn -0.8090 -0.5878 -0.0000
vn -0.3090 -0.9511 -0.0000
vn 0.3090 -0.9511 -0.0000
vn 0.8090 -0.5878 -0.0000
vn 0.8090 0.5878 -0.0000
vn 0.3090 0.9511 -0.0000
vn 0.4083 0.8165 0.4082
vn -0.4083 0.8165 -0.4082
vt 0.625000 0.125000
vt 0.375000 0.875000
vt 0.125000 0.125000
vt 0.375000 0.125000
vt 0.875000 0.125000
vt 0.125000 0.625000
vt 0.625000 0.375000
vt 0.375000 0.625000
vt 0.875000 0.375000
s 0
usemtl Military_Equipment_Palette
f 2/1/1 1/1/1 5/1/1
f 2/1/2 9/1/2 1/1/2
f 2/1/3 11/1/3 10/1/3
f 4/1/4 11/1/4 3/1/4
f 5/1/5 12/1/5 4/1/5
f 6/1/6 13/1/6 5/1/6
f 6/1/7 15/1/7 14/1/7
f 8/1/8 15/1/8 7/1/8
f 1/1/9 16/1/9 8/1/9
f 10/1/10 17/1/10 9/1/10
f 11/1/11 18/1/11 10/1/11
f 12/1/12 19/1/12 11/1/12
f 13/1/13 20/1/13 12/1/13
f 14/1/14 21/1/14 13/1/14
f 15/1/15 22/1/15 14/1/15
f 16/1/16 23/1/16 15/1/16
f 9/1/17 24/1/17 16/1/17
f 18/1/18 25/1/18 17/1/18
f 19/1/19 26/1/19 18/1/19
f 20/1/20 27/1/20 19/1/20
f 20/1/21 29/1/21 28/1/21
f 22/1/22 29/1/22 21/1/22
f 23/1/23 30/1/23 22/1/23
f 24/1/24 31/1/24 23/1/24
f 24/1/25 25/1/25 32/1/25
f 30/1/26 31/1/26 32/1/26
f 37/2/1 35/2/1 33/2/1
f 34/2/27 39/2/27 33/2/27
f 35/2/16 40/2/16 34/2/16
f 36/2/28 41/2/28 35/2/28
f 37/2/29 42/2/29 36/2/29
f 38/2/12 43/2/12 37/2/12
f 33/2/30 44/2/30 38/2/30
f 40/2/26 42/2/26 44/2/26
f 49/2/1 47/2/1 45/2/1
f 46/2/27 51/2/27 45/2/27
f 47/2/16 52/2/16 46/2/16
f 48/2/28 53/2/28 47/2/28
f 49/2/29 54/2/29 48/2/29
f 50/2/12 55/2/12 49/2/12
f 45/2/30 56/2/30 50/2/30
f 52/2/26 54/2/26 56/2/26
f 61/2/1 59/2/1 57/2/1
f 58/2/27 63/2/27 57/2/27
f 59/2/16 64/2/16 58/2/16
f 60/2/28 65/2/28 59/2/28
f 61/2/29 66/2/29 60/2/29
f 62/2/12 67/2/12 61/2/12
f 57/2/30 68/2/30 62/2/30
f 64/2/26 66/2/26 68/2/26
f 73/2/1 71/2/1 69/2/1
f 70/2/27 75/2/27 69/2/27
f 71/2/16 76/2/16 70/2/16
f 72/2/28 77/2/28 71/2/28
f 73/2/29 78/2/29 72/2/29
f 74/2/12 79/2/12 73/2/12
f 69/2/30 80/2/30 74/2/30
f 76/2/26 78/2/26 80/2/26
f 82/3/1 81/3/1 85/3/1
f 82/3/2 89/3/2 81/3/2
f 82/3/3 91/3/3 90/3/3
f 84/3/4 91/3/4 83/3/4
f 85/3/5 92/3/5 84/3/5
f 86/3/6 93/3/6 85/3/6
f 86/3/7 95/3/7 94/3/7
f 88/3/8 95/3/8 87/3/8
f 81/3/9 96/3/9 88/3/9
f 90/3/10 97/3/10 89/3/10
f 91/3/11 98/3/11 90/3/11
f 92/3/12 99/3/12 91/3/12
f 93/3/13 100/3/13 92/3/13
f 94/3/14 101/3/14 93/3/14
f 95/3/15 102/3/15 94/3/15
f 96/3/16 103/3/16 95/3/16
f 89/3/17 104/3/17 96/3/17
f 98/3/18 105/3/18 97/3/18
f 99/3/19 106/3/19 98/3/19
f 100/3/20 107/3/20 99/3/20
f 100/3/31 109/3/31 108/3/31
f 102/3/22 109/3/22 101/3/22
f 103/3/23 110/3/23 102/3/23
f 104/3/24 111/3/24 103/3/24
f 104/3/32 105/3/32 112/3/32
f 110/3/26 111/3/26 112/3/26
f 115/4/1 113/4/1 116/4/1
f 118/4/26 120/4/26 117/4/26
f 114/4/10 117/4/10 113/4/10
f 115/4/12 118/4/12 114/4/12
f 116/4/14 119/4/14 115/4/14
f 113/4/16 120/4/16 116/4/16
f 123/5/1 121/5/1 124/5/1
f 126/5/26 128/5/26 125/5/26
f 122/5/10 125/5/10 121/5/10
f 123/5/12 126/5/12 122/5/12
f 124/5/14 127/5/14 123/5/14
f 121/5/16 128/5/16 124/5/16
f 131/2/1 129/2/1 132/2/1
f 134/2/26 136/2/26 133/2/26
f 130/2/10 133/2/10 129/2/10
f 131/2/12 134/2/12 130/2/12
f 132/2/14 135/2/14 131/2/14
f 129/2/16 136/2/16 132/2/16
f 139/5/1 137/5/1 140/5/1
f 142/5/26 144/5/26 141/5/26
f 138/5/10 141/5/10 137/5/10
f 139/5/12 142/5/12 138/5/12
f 140/5/14 143/5/14 139/5/14
f 137/5/16 144/5/16 140/5/16
f 147/2/1 145/2/1 148/2/1
f 150/2/26 152/2/26 149/2/26
f 146/2/10 149/2/10 145/2/10
f 147/2/12 150/2/12 146/2/12
f 148/2/14 151/2/14 147/2/14
f 145/2/16 152/2/16 148/2/16
f 155/6/1 153/6/1 156/6/1
f 158/6/26 160/6/26 157/6/26
f 154/6/10 157/6/10 153/6/10
f 155/6/12 158/6/12 154/6/12
f 156/6/14 159/6/14 155/6/14
f 153/6/16 160/6/16 156/6/16
f 165/6/1 163/6/1 161/6/1
f 162/6/33 169/6/33 161/6/33
f 163/6/34 170/6/34 162/6/34
f 164/6/35 171/6/35 163/6/35
f 165/6/36 172/6/36 164/6/36
f 166/6/37 173/6/37 165/6/37
f 167/6/38 174/6/38 166/6/38
f 168/6/39 175/6/39 167/6/39
f 161/6/40 176/6/40 168/6/40
f 172/6/26 174/6/26 176/6/26
f 179/5/1 178/5/1 177/5/1
f 178/5/27 183/5/27 177/5/27
f 179/5/16 184/5/16 178/5/16
f 180/5/28 185/5/28 179/5/28
f 181/5/29 186/5/29 180/5/29
f 182/5/12 187/5/12 181/5/12
f 177/5/30 188/5/30 182/5/30
f 186/5/26 187/5/26 188/5/26
f 191/6/1 189/6/1 192/6/1
f 194/6/26 196/6/26 193/6/26
f 190/6/10 193/6/10 189/6/10
f 191/6/12 194/6/12 190/6/12
f 192/6/14 195/6/14 191/6/14
f 189/6/16 196/6/16 192/6/16
f 199/6/1 197/6/1 200/6/1
f 202/6/26 204/6/26 201/6/26
f 198/6/10 201/6/10 197/6/10
f 199/6/12 202/6/12 198/6/12
f 200/6/14 203/6/14 199/6/14
f 197/6/16 204/6/16 200/6/16
f 207/6/1 205/6/1 208/6/1
f 210/6/26 212/6/26 209/6/26
f 206/6/10 209/6/10 205/6/10
f 207/6/12 210/6/12 206/6/12
f 208/6/14 211/6/14 207/6/14
f 205/6/16 212/6/16 208/6/16
f 215/5/1 214/5/1 213/5/1
f 214/5/27 219/5/27 213/5/27
f 215/5/16 220/5/16 214/5/16
f 216/5/28 221/5/28 215/5/28
f 217/5/29 222/5/29 216/5/29
f 218/5/12 223/5/12 217/5/12
f 213/5/30 224/5/30 218/5/30
f 222/5/26 223/5/26 224/5/26
f 227/6/1 225/6/1 228/6/1
f 230/6/26 232/6/26 229/6/26
f 226/6/10 229/6/10 225/6/10
f 227/6/12 230/6/12 226/6/12
f 228/6/14 231/6/14 227/6/14
f 225/6/16 232/6/16 228/6/16
f 235/6/1 233/6/1 236/6/1
f 238/6/26 240/6/26 237/6/26
f 234/6/10 237/6/10 233/6/10
f 235/6/12 238/6/12 234/6/12
f 236/6/14 239/6/14 235/6/14
f 233/6/16 240/6/16 236/6/16
f 243/6/1 241/6/1 244/6/1
f 246/6/26 248/6/26 245/6/26
f 242/6/10 245/6/10 241/6/10
f 243/6/12 246/6/12 242/6/12
f 244/6/14 247/6/14 243/6/14
f 241/6/16 248/6/16 244/6/16
f 251/7/1 249/7/1 252/7/1
f 254/7/26 256/7/26 253/7/26
f 250/7/10 253/7/10 249/7/10
f 251/7/12 254/7/12 250/7/12
f 252/7/14 255/7/14 251/7/14
f 249/7/16 256/7/16 252/7/16
f 259/8/14 258/8/14 257/8/14
f 258/8/41 263/8/41 257/8/41
f 259/8/16 264/8/16 258/8/16
f 260/8/42 265/8/42 259/8/42
f 261/8/43 266/8/43 260/8/43
f 262/8/12 267/8/12 261/8/12
f 257/8/44 268/8/44 262/8/44
f 266/8/10 267/8/10 268/8/10
f 271/8/14 270/8/14 269/8/14
f 270/8/41 275/8/41 269/8/41
f 271/8/16 276/8/16 270/8/16
f 272/8/42 277/8/42 271/8/42
f 273/8/43 278/8/43 272/8/43
f 274/8/12 279/8/12 273/8/12
f 269/8/44 280/8/44 274/8/44
f 278/8/10 279/8/10 280/8/10
f 283/8/14 282/8/14 281/8/14
f 282/8/41 287/8/41 281/8/41
f 283/8/16 288/8/16 282/8/16
f 284/8/42 289/8/42 283/8/42
f 285/8/43 290/8/43 284/8/43
f 286/8/12 291/8/12 285/8/12
f 281/8/44 292/8/44 286/8/44
f 290/8/10 291/8/10 292/8/10
f 295/5/1 293/5/1 296/5/1
f 298/5/26 300/5/26 297/5/26
f 294/5/10 297/5/10 293/5/10
f 295/5/12 298/5/12 294/5/12
f 296/5/14 299/5/14 295/5/14
f 293/5/16 300/5/16 296/5/16
f 303/5/1 301/5/1 304/5/1
f 306/5/26 308/5/26 305/5/26
f 302/5/10 305/5/10 301/5/10
f 303/5/12 306/5/12 302/5/12
f 304/5/14 307/5/14 303/5/14
f 301/5/16 308/5/16 304/5/16
f 311/5/1 309/5/1 312/5/1
f 314/5/26 316/5/26 313/5/26
f 310/5/10 313/5/10 309/5/10
f 311/5/12 314/5/12 310/5/12
f 312/5/14 315/5/14 311/5/14
f 309/5/16 316/5/16 312/5/16
f 319/5/1 317/5/1 320/5/1
f 322/5/26 324/5/26 321/5/26
f 318/5/10 321/5/10 317/5/10
f 319/5/12 322/5/12 318/5/12
f 320/5/14 323/5/14 319/5/14
f 317/5/16 324/5/16 320/5/16
f 327/5/1 325/5/1 328/5/1
f 330/5/26 332/5/26 329/5/26
f 326/5/10 329/5/10 325/5/10
f 327/5/12 330/5/12 326/5/12
f 328/5/14 331/5/14 327/5/14
f 325/5/16 332/5/16 328/5/16
f 335/5/1 333/5/1 336/5/1
f 338/5/26 340/5/26 337/5/26
f 334/5/10 337/5/10 333/5/10
f 335/5/12 338/5/12 334/5/12
f 336/5/14 339/5/14 335/5/14
f 333/5/16 340/5/16 336/5/16
f 343/5/1 341/5/1 344/5/1
f 346/5/26 348/5/26 345/5/26
f 342/5/10 345/5/10 341/5/10
f 343/5/12 346/5/12 342/5/12
f 344/5/14 347/5/14 343/5/14
f 341/5/16 348/5/16 344/5/16
f 351/5/1 349/5/1 352/5/1
f 354/5/26 356/5/26 353/5/26
f 350/5/10 353/5/10 349/5/10
f 351/5/12 354/5/12 350/5/12
f 352/5/14 355/5/14 351/5/14
f 349/5/16 356/5/16 352/5/16
f 363/6/14 359/6/14 357/6/14
f 358/6/45 367/6/45 357/6/45
f 359/6/46 368/6/46 358/6/46
f 360/6/16 369/6/16 359/6/16
f 361/6/47 370/6/47 360/6/47
f 362/6/48 371/6/48 361/6/48
f 363/6/49 372/6/49 362/6/49
f 364/6/50 373/6/50 363/6/50
f 365/6/12 374/6/12 364/6/12
f 366/6/51 375/6/51 365/6/51
f 357/6/52 376/6/52 366/6/52
f 370/6/10 374/6/10 376/6/10
f 381/9/14 379/9/14 377/9/14
f 378/9/45 387/9/45 377/9/45
f 379/9/46 388/9/46 378/9/46
f 380/9/16 389/9/16 379/9/16
f 381/9/47 390/9/47 380/9/47
f 382/9/48 391/9/48 381/9/48
f 383/9/49 392/9/49 382/9/49
f 384/9/50 393/9/50 383/9/50
f 385/9/12 394/9/12 384/9/12
f 386/9/51 395/9/51 385/9/51
f 377/9/52 396/9/52 386/9/52
f 392/9/10 394/9/10 396/9/10
f 1/1/1 8/1/1 7/1/1
f 7/1/1 6/1/1 1/1/1
f 6/1/1 5/1/1 1/1/1
f 5/1/1 4/1/1 3/1/1
f 3/1/1 2/1/1 5/1/1
f 2/1/2 10/1/2 9/1/2
f 2/1/3 3/1/3 11/1/3
f 4/1/4 12/1/4 11/1/4
f 5/1/5 13/1/5 12/1/5
f 6/1/6 14/1/6 13/1/6
f 6/1/7 7/1/7 15/1/7
f 8/1/8 16/1/8 15/1/8
f 1/1/9 9/1/9 16/1/9
f 10/1/10 18/1/10 17/1/10
f 11/1/11 19/1/11 18/1/11
f 12/1/12 20/1/12 19/1/12
f 13/1/13 21/1/13 20/1/13
f 14/1/14 22/1/14 21/1/14
f 15/1/15 23/1/15 22/1/15
f 16/1/16 24/1/16 23/1/16
f 9/1/17 17/1/17 24/1/17
f 18/1/18 26/1/18 25/1/18
f 19/1/19 27/1/19 26/1/19
f 20/1/20 28/1/20 27/1/20
f 20/1/21 21/1/21 29/1/21
f 22/1/22 30/1/22 29/1/22
f 23/1/23 31/1/23 30/1/23
f 24/1/24 32/1/24 31/1/24
f 24/1/25 17/1/25 25/1/25
f 32/1/26 25/1/26 30/1/26
f 25/1/26 26/1/26 30/1/26
f 26/1/26 27/1/26 28/1/26
f 28/1/26 29/1/26 26/1/26
f 29/1/26 30/1/26 26/1/26
f 33/2/1 38/2/1 37/2/1
f 37/2/1 36/2/1 35/2/1
f 35/2/1 34/2/1 33/2/1
f 34/2/27 40/2/27 39/2/27
f 35/2/16 41/2/16 40/2/16
f 36/2/28 42/2/28 41/2/28
f 37/2/29 43/2/29 42/2/29
f 38/2/12 44/2/12 43/2/12
f 33/2/30 39/2/30 44/2/30
f 44/2/26 39/2/26 40/2/26
f 40/2/26 41/2/26 42/2/26
f 42/2/26 43/2/26 44/2/26
f 45/2/1 50/2/1 49/2/1
f 49/2/1 48/2/1 47/2/1
f 47/2/1 46/2/1 45/2/1
f 46/2/27 52/2/27 51/2/27
f 47/2/16 53/2/16 52/2/16
f 48/2/28 54/2/28 53/2/28
f 49/2/29 55/2/29 54/2/29
f 50/2/12 56/2/12 55/2/12
f 45/2/30 51/2/30 56/2/30
f 56/2/26 51/2/26 52/2/26
f 52/2/26 53/2/26 54/2/26
f 54/2/26 55/2/26 56/2/26
f 57/2/1 62/2/1 61/2/1
f 61/2/1 60/2/1 59/2/1
f 59/2/1 58/2/1 57/2/1
f 58/2/27 64/2/27 63/2/27
f 59/2/16 65/2/16 64/2/16
f 60/2/28 66/2/28 65/2/28
f 61/2/29 67/2/29 66/2/29
f 62/2/12 68/2/12 67/2/12
f 57/2/30 63/2/30 68/2/30
f 68/2/26 63/2/26 64/2/26
f 64/2/26 65/2/26 66/2/26
f 66/2/26 67/2/26 68/2/26
f 69/2/1 74/2/1 73/2/1
f 73/2/1 72/2/1 71/2/1
f 71/2/1 70/2/1 69/2/1
f 70/2/27 76/2/27 75/2/27
f 71/2/16 77/2/16 76/2/16
f 72/2/28 78/2/28 77/2/28
f 73/2/29 79/2/29 78/2/29
f 74/2/12 80/2/12 79/2/12
f 69/2/30 75/2/30 80/2/30
f 80/2/26 75/2/26 76/2/26
f 76/2/26 77/2/26 78/2/26
f 78/2/26 79/2/26 80/2/26
f 81/3/1 88/3/1 87/3/1
f 87/3/1 86/3/1 81/3/1
f 86/3/1 85/3/1 81/3/1
f 85/3/1 84/3/1 83/3/1
f 83/3/1 82/3/1 85/3/1
f 82/3/2 90/3/2 89/3/2
f 82/3/3 83/3/3 91/3/3
f 84/3/4 92/3/4 91/3/4
f 85/3/5 93/3/5 92/3/5
f 86/3/6 94/3/6 93/3/6
f 86/3/7 87/3/7 95/3/7
f 88/3/8 96/3/8 95/3/8
f 81/3/9 89/3/9 96/3/9
f 90/3/10 98/3/10 97/3/10
f 91/3/11 99/3/11 98/3/11
f 92/3/12 100/3/12 99/3/12
f 93/3/13 101/3/13 100/3/13
f 94/3/14 102/3/14 101/3/14
f 95/3/15 103/3/15 102/3/15
f 96/3/16 104/3/16 103/3/16
f 89/3/17 97/3/17 104/3/17
f 98/3/18 106/3/18 105/3/18
f 99/3/53 107/3/53 106/3/53
f 100/3/20 108/3/20 107/3/20
f 100/3/21 101/3/21 109/3/21
f 102/3/22 110/3/22 109/3/22
f 103/3/54 111/3/54 110/3/54
f 104/3/24 112/3/24 111/3/24
f 104/3/25 97/3/25 105/3/25
f 112/3/26 105/3/26 110/3/26
f 105/3/26 106/3/26 110/3/26
f 106/3/26 107/3/26 108/3/26
f 108/3/26 109/3/26 106/3/26
f 109/3/26 110/3/26 106/3/26
f 115/4/1 114/4/1 113/4/1
f 118/4/26 119/4/26 120/4/26
f 114/4/10 118/4/10 117/4/10
f 115/4/12 119/4/12 118/4/12
f 116/4/14 120/4/14 119/4/14
f 113/4/16 117/4/16 120/4/16
f 123/5/1 122/5/1 121/5/1
f 126/5/26 127/5/26 128/5/26
f 122/5/10 126/5/10 125/5/10
f 123/5/12 127/5/12 126/5/12
f 124/5/14 128/5/14 127/5/14
f 121/5/16 125/5/16 128/5/16
f 131/2/1 130/2/1 129/2/1
f 134/2/26 135/2/26 136/2/26
f 130/2/10 134/2/10 133/2/10
f 131/2/12 135/2/12 134/2/12
f 132/2/14 136/2/14 135/2/14
f 129/2/16 133/2/16 136/2/16
f 139/5/1 138/5/1 137/5/1
f 142/5/26 143/5/26 144/5/26
f 138/5/10 142/5/10 141/5/10
f 139/5/12 143/5/12 142/5/12
f 140/5/14 144/5/14 143/5/14
f 137/5/16 141/5/16 144/5/16
f 147/2/1 146/2/1 145/2/1
f 150/2/26 151/2/26 152/2/26
f 146/2/10 150/2/10 149/2/10
f 147/2/12 151/2/12 150/2/12
f 148/2/14 152/2/14 151/2/14
f 145/2/16 149/2/16 152/2/16
f 155/6/1 154/6/1 153/6/1
f 158/6/26 159/6/26 160/6/26
f 154/6/10 158/6/10 157/6/10
f 155/6/12 159/6/12 158/6/12
f 156/6/14 160/6/14 159/6/14
f 153/6/16 157/6/16 160/6/16
f 161/6/1 168/6/1 167/6/1
f 167/6/1 166/6/1 165/6/1
f 165/6/1 164/6/1 163/6/1
f 163/6/1 162/6/1 161/6/1
f 161/6/1 167/6/1 165/6/1
f 162/6/33 170/6/33 169/6/33
f 163/6/34 171/6/34 170/6/34
f 164/6/35 172/6/35 171/6/35
f 165/6/36 173/6/36 172/6/36
f 166/6/37 174/6/37 173/6/37
f 167/6/38 175/6/38 174/6/38
f 168/6/39 176/6/39 175/6/39
f 161/6/40 169/6/40 176/6/40
f 176/6/26 169/6/26 170/6/26
f 170/6/26 171/6/26 172/6/26
f 172/6/26 173/6/26 174/6/26
f 174/6/26 175/6/26 176/6/26
f 176/6/26 170/6/26 172/6/26
f 177/5/1 182/5/1 181/5/1
f 181/5/1 180/5/1 177/5/1
f 180/5/1 179/5/1 177/5/1
f 178/5/27 184/5/27 183/5/27
f 179/5/16 185/5/16 184/5/16
f 180/5/28 186/5/28 185/5/28
f 181/5/29 187/5/29 186/5/29
f 182/5/12 188/5/12 187/5/12
f 177/5/30 183/5/30 188/5/30
f 188/5/26 183/5/26 186/5/26
f 183/5/26 184/5/26 186/5/26
f 184/5/26 185/5/26 186/5/26
f 191/6/1 190/6/1 189/6/1
f 194/6/26 195/6/26 196/6/26
f 190/6/10 194/6/10 193/6/10
f 191/6/12 195/6/12 194/6/12
f 192/6/14 196/6/14 195/6/14
f 189/6/16 193/6/16 196/6/16
f 199/6/1 198/6/1 197/6/1
f 202/6/26 203/6/26 204/6/26
f 198/6/10 202/6/10 201/6/10
f 199/6/12 203/6/12 202/6/12
f 200/6/14 204/6/14 203/6/14
f 197/6/16 201/6/16 204/6/16
f 207/6/1 206/6/1 205/6/1
f 210/6/26 211/6/26 212/6/26
f 206/6/10 210/6/10 209/6/10
f 207/6/12 211/6/12 210/6/12
f 208/6/14 212/6/14 211/6/14
f 205/6/16 209/6/16 212/6/16
f 213/5/1 218/5/1 217/5/1
f 217/5/1 216/5/1 213/5/1
f 216/5/1 215/5/1 213/5/1
f 214/5/27 220/5/27 219/5/27
f 215/5/16 221/5/16 220/5/16
f 216/5/28 222/5/28 221/5/28
f 217/5/29 223/5/29 222/5/29
f 218/5/12 224/5/12 223/5/12
f 213/5/30 219/5/30 224/5/30
f 224/5/26 219/5/26 222/5/26
f 219/5/26 220/5/26 222/5/26
f 220/5/26 221/5/26 222/5/26
f 227/6/1 226/6/1 225/6/1
f 230/6/26 231/6/26 232/6/26
f 226/6/10 230/6/10 229/6/10
f 227/6/12 231/6/12 230/6/12
f 228/6/14 232/6/14 231/6/14
f 225/6/16 229/6/16 232/6/16
f 235/6/1 234/6/1 233/6/1
f 238/6/26 239/6/26 240/6/26
f 234/6/10 238/6/10 237/6/10
f 235/6/12 239/6/12 238/6/12
f 236/6/14 240/6/14 239/6/14
f 233/6/16 237/6/16 240/6/16
f 243/6/1 242/6/1 241/6/1
f 246/6/26 247/6/26 248/6/26
f 242/6/10 246/6/10 245/6/10
f 243/6/12 247/6/12 246/6/12
f 244/6/14 248/6/14 247/6/14
f 241/6/16 245/6/16 248/6/16
f 251/7/1 250/7/1 249/7/1
f 254/7/26 255/7/26 256/7/26
f 250/7/10 254/7/10 253/7/10
f 251/7/12 255/7/12 254/7/12
f 252/7/14 256/7/14 255/7/14
f 249/7/16 253/7/16 256/7/16
f 257/8/14 262/8/14 261/8/14
f 261/8/14 260/8/14 257/8/14
f 260/8/14 259/8/14 257/8/14
f 258/8/41 264/8/41 263/8/41
f 259/8/16 265/8/16 264/8/16
f 260/8/42 266/8/42 265/8/42
f 261/8/43 267/8/43 266/8/43
f 262/8/12 268/8/12 267/8/12
f 257/8/44 263/8/44 268/8/44
f 268/8/10 263/8/10 266/8/10
f 263/8/10 264/8/10 266/8/10
f 264/8/10 265/8/10 266/8/10
f 269/8/14 274/8/14 273/8/14
f 273/8/14 272/8/14 269/8/14
f 272/8/14 271/8/14 269/8/14
f 270/8/41 276/8/41 275/8/41
f 271/8/16 277/8/16 276/8/16
f 272/8/42 278/8/42 277/8/42
f 273/8/43 279/8/43 278/8/43
f 274/8/12 280/8/12 279/8/12
f 269/8/44 275/8/44 280/8/44
f 280/8/10 275/8/10 278/8/10
f 275/8/10 276/8/10 278/8/10
f 276/8/10 277/8/10 278/8/10
f 281/8/14 286/8/14 285/8/14
f 285/8/14 284/8/14 281/8/14
f 284/8/14 283/8/14 281/8/14
f 282/8/41 288/8/41 287/8/41
f 283/8/16 289/8/16 288/8/16
f 284/8/42 290/8/42 289/8/42
f 285/8/43 291/8/43 290/8/43
f 286/8/12 292/8/12 291/8/12
f 281/8/44 287/8/44 292/8/44
f 292/8/10 287/8/10 290/8/10
f 287/8/10 288/8/10 290/8/10
f 288/8/10 289/8/10 290/8/10
f 295/5/1 294/5/1 293/5/1
f 298/5/26 299/5/26 300/5/26
f 294/5/10 298/5/10 297/5/10
f 295/5/12 299/5/12 298/5/12
f 296/5/14 300/5/14 299/5/14
f 293/5/16 297/5/16 300/5/16
f 303/5/1 302/5/1 301/5/1
f 306/5/26 307/5/26 308/5/26
f 302/5/10 306/5/10 305/5/10
f 303/5/12 307/5/12 306/5/12
f 304/5/14 308/5/14 307/5/14
f 301/5/16 305/5/16 308/5/16
f 311/5/1 310/5/1 309/5/1
f 314/5/26 315/5/26 316/5/26
f 310/5/10 314/5/10 313/5/10
f 311/5/12 315/5/12 314/5/12
f 312/5/14 316/5/14 315/5/14
f 309/5/16 313/5/16 316/5/16
f 319/5/1 318/5/1 317/5/1
f 322/5/26 323/5/26 324/5/26
f 318/5/10 322/5/10 321/5/10
f 319/5/12 323/5/12 322/5/12
f 320/5/14 324/5/14 323/5/14
f 317/5/16 321/5/16 324/5/16
f 327/5/1 326/5/1 325/5/1
f 330/5/26 331/5/26 332/5/26
f 326/5/10 330/5/10 329/5/10
f 327/5/12 331/5/12 330/5/12
f 328/5/14 332/5/14 331/5/14
f 325/5/16 329/5/16 332/5/16
f 335/5/1 334/5/1 333/5/1
f 338/5/26 339/5/26 340/5/26
f 334/5/10 338/5/10 337/5/10
f 335/5/12 339/5/12 338/5/12
f 336/5/14 340/5/14 339/5/14
f 333/5/16 337/5/16 340/5/16
f 343/5/1 342/5/1 341/5/1
f 346/5/26 347/5/26 348/5/26
f 342/5/10 346/5/10 345/5/10
f 343/5/12 347/5/12 346/5/12
f 344/5/14 348/5/14 347/5/14
f 341/5/16 345/5/16 348/5/16
f 351/5/1 350/5/1 349/5/1
f 354/5/26 355/5/26 356/5/26
f 350/5/10 354/5/10 353/5/10
f 351/5/12 355/5/12 354/5/12
f 352/5/14 356/5/14 355/5/14
f 349/5/16 353/5/16 356/5/16
f 357/6/14 366/6/14 365/6/14
f 365/6/14 364/6/14 363/6/14
f 363/6/14 362/6/14 359/6/14
f 362/6/14 361/6/14 359/6/14
f 361/6/14 360/6/14 359/6/14
f 359/6/14 358/6/14 357/6/14
f 357/6/14 365/6/14 363/6/14
f 358/6/45 368/6/45 367/6/45
f 359/6/46 369/6/46 368/6/46
f 360/6/16 370/6/16 369/6/16
f 361/6/47 371/6/47 370/6/47
f 362/6/48 372/6/48 371/6/48
f 363/6/49 373/6/49 372/6/49
f 364/6/50 374/6/50 373/6/50
f 365/6/12 375/6/12 374/6/12
f 366/6/51 376/6/51 375/6/51
f 357/6/52 367/6/52 376/6/52
f 376/6/10 367/6/10 368/6/10
f 368/6/10 369/6/10 370/6/10
f 370/6/10 371/6/10 372/6/10
f 372/6/10 373/6/10 374/6/10
f 374/6/10 375/6/10 376/6/10
f 376/6/10 368/6/10 370/6/10
f 370/6/10 372/6/10 374/6/10
f 377/9/14 386/9/14 385/9/14
f 385/9/14 384/9/14 383/9/14
f 383/9/14 382/9/14 381/9/14
f 381/9/14 380/9/14 379/9/14
f 379/9/14 378/9/14 377/9/14
f 377/9/14 385/9/14 383/9/14
f 383/9/14 381/9/14 377/9/14
f 378/9/45 388/9/45 387/9/45
f 379/9/46 389/9/46 388/9/46
f 380/9/16 390/9/16 389/9/16
f 381/9/47 391/9/47 390/9/47
f 382/9/48 392/9/48 391/9/48
f 383/9/49 393/9/49 392/9/49
f 384/9/50 394/9/50 393/9/50
f 385/9/12 395/9/12 394/9/12
f 386/9/51 396/9/51 395/9/51
f 377/9/52 387/9/52 396/9/52
f 396/9/10 387/9/10 390/9/10
f 387/9/10 388/9/10 390/9/10
f 388/9/10 389/9/10 390/9/10
f 390/9/10 391/9/10 392/9/10
f 392/9/10 393/9/10 394/9/10
f 394/9/10 395/9/10 396/9/10
f 390/9/10 392/9/10 396/9/10
