# Blender 5.2.1 LTS
# www.blender.org
mtllib missileRack.mtl
o BASE.020
v -0.390000 0.000000 0.365000
v 0.390000 0.000000 0.365000
v 0.390000 0.000000 -0.365000
v -0.390000 0.000000 -0.365000
v -0.390000 0.120000 0.365000
v 0.390000 0.120000 0.365000
v 0.390000 0.120000 -0.365000
v -0.390000 0.120000 -0.365000
v -0.300000 0.121000 -0.302000
v -0.327713 0.121000 -0.286000
v -0.327713 0.121000 -0.254000
v -0.300000 0.121000 -0.238000
v -0.272287 0.121000 -0.254000
v -0.272287 0.121000 -0.286000
v -0.300000 0.141000 -0.302000
v -0.327713 0.141000 -0.286000
v -0.327713 0.141000 -0.254000
v -0.300000 0.141000 -0.238000
v -0.272287 0.141000 -0.254000
v -0.272287 0.141000 -0.286000
v -0.300000 0.121000 0.238000
v -0.327713 0.121000 0.254000
v -0.327713 0.121000 0.286000
v -0.300000 0.121000 0.302000
v -0.272287 0.121000 0.286000
v -0.272287 0.121000 0.254000
v -0.300000 0.141000 0.238000
v -0.327713 0.141000 0.254000
v -0.327713 0.141000 0.286000
v -0.300000 0.141000 0.302000
v -0.272287 0.141000 0.286000
v -0.272287 0.141000 0.254000
v 0.300000 0.121000 -0.302000
v 0.272287 0.121000 -0.286000
v 0.272287 0.121000 -0.254000
v 0.300000 0.121000 -0.238000
v 0.327713 0.121000 -0.254000
v 0.327713 0.121000 -0.286000
v 0.300000 0.141000 -0.302000
v 0.272287 0.141000 -0.286000
v 0.272287 0.141000 -0.254000
v 0.300000 0.141000 -0.238000
v 0.327713 0.141000 -0.254000
v 0.327713 0.141000 -0.286000
v 0.300000 0.121000 0.238000
v 0.272287 0.121000 0.254000
v 0.272287 0.121000 0.286000
v 0.300000 0.121000 0.302000
v 0.327713 0.121000 0.286000
v 0.327713 0.121000 0.254000
v 0.300000 0.141000 0.238000
v 0.272287 0.141000 0.254000
v 0.272287 0.141000 0.286000
v 0.300000 0.141000 0.302000
v 0.327713 0.141000 0.286000
v 0.327713 0.141000 0.254000
v 0.000000 0.110000 -0.360000
v -0.180000 0.110000 -0.311769
v -0.311769 0.110000 -0.180000
v -0.360000 0.110000 -0.000000
v -0.311769 0.110000 0.180000
v -0.180000 0.110000 0.311769
v -0.000000 0.110000 0.360000
v 0.180000 0.110000 0.311769
v 0.311769 0.110000 0.180000
v 0.360000 0.110000 0.000000
v 0.311769 0.110000 -0.180000
v 0.180000 0.110000 -0.311769
v 0.000000 0.210000 -0.360000
v -0.180000 0.210000 -0.311769
v -0.311769 0.210000 -0.180000
v -0.360000 0.210000 -0.000000
v -0.311769 0.210000 0.180000
v -0.180000 0.210000 0.311769
v -0.000000 0.210000 0.360000
v 0.180000 0.210000 0.311769
v 0.311769 0.210000 0.180000
v 0.360000 0.210000 0.000000
v 0.311769 0.210000 -0.180000
v 0.180000 0.210000 -0.311769
vn -0.0000 -1.0000 -0.0000
vn -0.0000 1.0000 -0.0000
vn -0.0000 -0.0000 1.0000
vn 1.0000 -0.0000 -0.0000
vn -0.0000 -0.0000 -1.0000
vn -1.0000 -0.0000 -0.0000
vn -0.5000 -0.0000 -0.8660
vn -0.5000 -0.0000 0.8660
vn 0.5000 -0.0000 0.8660
vn 0.5000 -0.0000 -0.8660
vn -0.2588 -0.0000 -0.9659
vn -0.7071 -0.0000 -0.7071
vn -0.9659 -0.0000 -0.2588
vn -0.9659 -0.0000 0.2588
vn -0.7071 -0.0000 0.7071
vn -0.2588 -0.0000 0.9659
vn 0.2588 -0.0000 0.9659
vn 0.7071 -0.0000 0.7071
vn 0.9659 -0.0000 0.2588
vn 0.9659 -0.0000 -0.2588
vn 0.7071 -0.0000 -0.7071
vn 0.2588 -0.0000 -0.9659
vt 0.625000 0.125000
vt 0.375000 0.875000
vt 0.125000 0.625000
s 0
usemtl Military_Equipment_Palette
f 3/1/1 1/1/1 4/1/1
f 6/1/2 8/1/2 5/1/2
f 2/1/3 5/1/3 1/1/3
f 3/1/4 6/1/4 2/1/4
f 4/1/5 7/1/5 3/1/5
f 1/1/6 8/1/6 4/1/6
f 13/2/1 11/2/1 9/2/1
f 10/2/7 15/2/7 9/2/7
f 11/2/6 16/2/6 10/2/6
f 12/2/8 17/2/8 11/2/8
f 13/2/9 18/2/9 12/2/9
f 14/2/4 19/2/4 13/2/4
f 9/2/10 20/2/10 14/2/10
f 16/2/2 18/2/2 20/2/2
f 25/2/1 23/2/1 21/2/1
f 22/2/7 27/2/7 21/2/7
f 23/2/6 28/2/6 22/2/6
f 24/2/8 29/2/8 23/2/8
f 25/2/9 30/2/9 24/2/9
f 26/2/4 31/2/4 25/2/4
f 21/2/10 32/2/10 26/2/10
f 28/2/2 30/2/2 32/2/2
f 37/2/1 35/2/1 33/2/1
f 34/2/7 39/2/7 33/2/7
f 35/2/6 40/2/6 34/2/6
f 36/2/8 41/2/8 35/2/8
f 37/2/9 42/2/9 36/2/9
f 38/2/4 43/2/4 37/2/4
f 33/2/10 44/2/10 38/2/10
f 40/2/2 42/2/2 44/2/2
f 49/2/1 47/2/1 45/2/1
f 46/2/7 51/2/7 45/2/7
f 47/2/6 52/2/6 46/2/6
f 48/2/8 53/2/8 47/2/8
f 49/2/9 54/2/9 48/2/9
f 50/2/4 55/2/4 49/2/4
f 45/2/10 56/2/10 50/2/10
f 52/2/2 54/2/2 56/2/2
f 65/3/1 61/3/1 57/3/1
f 58/3/11 69/3/11 57/3/11
f 59/3/12 70/3/12 58/3/12
f 60/3/13 71/3/13 59/3/13
f 61/3/14 72/3/14 60/3/14
f 62/3/15 73/3/15 61/3/15
f 63/3/16 74/3/16 62/3/16
f 64/3/17 75/3/17 63/3/17
f 65/3/18 76/3/18 64/3/18
f 66/3/19 77/3/19 65/3/19
f 67/3/20 78/3/20 66/3/20
f 68/3/21 79/3/21 67/3/21
f 57/3/22 80/3/22 68/3/22
f 72/3/2 76/3/2 80/3/2
f 3/1/1 2/1/1 1/1/1
f 6/1/2 7/1/2 8/1/2
f 2/1/3 6/1/3 5/1/3
f 3/1/4 7/1/4 6/1/4
f 4/1/5 8/1/5 7/1/5
f 1/1/6 5/1/6 8/1/6
f 9/2/1 14/2/1 13/2/1
f 13/2/1 12/2/1 11/2/1
f 11/2/1 10/2/1 9/2/1
f 10/2/7 16/2/7 15/2/7
f 11/2/6 17/2/6 16/2/6
f 12/2/8 18/2/8 17/2/8
f 13/2/9 19/2/9 18/2/9
f 14/2/4 20/2/4 19/2/4
f 9/2/10 15/2/10 20/2/10
f 20/2/2 15/2/2 16/2/2
f 16/2/2 17/2/2 18/2/2
f 18/2/2 19/2/2 20/2/2
f 21/2/1 26/2/1 25/2/1
f 25/2/1 24/2/1 23/2/1
f 23/2/1 22/2/1 21/2/1
f 22/2/7 28/2/7 27/2/7
f 23/2/6 29/2/6 28/2/6
f 24/2/8 30/2/8 29/2/8
f 25/2/9 31/2/9 30/2/9
f 26/2/4 32/2/4 31/2/4
f 21/2/10 27/2/10 32/2/10
f 32/2/2 27/2/2 28/2/2
f 28/2/2 29/2/2 30/2/2
f 30/2/2 31/2/2 32/2/2
f 33/2/1 38/2/1 37/2/1
f 37/2/1 36/2/1 35/2/1
f 35/2/1 34/2/1 33/2/1
f 34/2/7 40/2/7 39/2/7
f 35/2/6 41/2/6 40/2/6
f 36/2/8 42/2/8 41/2/8
f 37/2/9 43/2/9 42/2/9
f 38/2/4 44/2/4 43/2/4
f 33/2/10 39/2/10 44/2/10
f 44/2/2 39/2/2 40/2/2
f 40/2/2 41/2/2 42/2/2
f 42/2/2 43/2/2 44/2/2
f 45/2/1 50/2/1 49/2/1
f 49/2/1 48/2/1 47/2/1
f 47/2/1 46/2/1 45/2/1
f 46/2/7 52/2/7 51/2/7
f 47/2/6 53/2/6 52/2/6
f 48/2/8 54/2/8 53/2/8
f 49/2/9 55/2/9 54/2/9
f 50/2/4 56/2/4 55/2/4
f 45/2/10 51/2/10 56/2/10
f 56/2/2 51/2/2 52/2/2
f 52/2/2 53/2/2 54/2/2
f 54/2/2 55/2/2 56/2/2
f 57/3/1 68/3/1 67/3/1
f 67/3/1 66/3/1 65/3/1
f 65/3/1 64/3/1 63/3/1
f 63/3/1 62/3/1 61/3/1
f 61/3/1 60/3/1 59/3/1
f 59/3/1 58/3/1 57/3/1
f 57/3/1 67/3/1 65/3/1
f 65/3/1 63/3/1 61/3/1
f 61/3/1 59/3/1 57/3/1
f 58/3/11 70/3/11 69/3/11
f 59/3/12 71/3/12 70/3/12
f 60/3/13 72/3/13 71/3/13
f 61/3/14 73/3/14 72/3/14
f 62/3/15 74/3/15 73/3/15
f 63/3/16 75/3/16 74/3/16
f 64/3/17 76/3/17 75/3/17
f 65/3/18 77/3/18 76/3/18
f 66/3/19 78/3/19 77/3/19
f 67/3/20 79/3/20 78/3/20
f 68/3/21 80/3/21 79/3/21
f 57/3/22 69/3/22 80/3/22
f 80/3/2 69/3/2 70/3/2
f 70/3/2 71/3/2 72/3/2
f 72/3/2 73/3/2 74/3/2
f 74/3/2 75/3/2 76/3/2
f 76/3/2 77/3/2 78/3/2
f 78/3/2 79/3/2 80/3/2
f 80/3/2 70/3/2 72/3/2
f 72/3/2 74/3/2 76/3/2
f 76/3/2 78/3/2 80/3/2
o MOVING.009
v 0.000000 0.130000 -0.290000
v -0.170458 0.130000 -0.234615
v -0.275806 0.130000 -0.089615
v -0.275806 0.130000 0.089615
v -0.170458 0.130000 0.234615
v -0.000000 0.130000 0.290000
v 0.170458 0.130000 0.234615
v 0.275806 0.130000 0.089615
v 0.275806 0.130000 -0.089615
v 0.170458 0.130000 -0.234615
v 0.000000 0.470000 -0.290000
v -0.170458 0.470000 -0.234615
v -0.275806 0.470000 -0.089615
v -0.275806 0.470000 0.089615
v -0.170458 0.470000 0.234615
v -0.000000 0.470000 0.290000
v 0.170458 0.470000 0.234615
v 0.275806 0.470000 0.089615
v 0.275806 0.470000 -0.089615
v 0.170458 0.470000 -0.234615
v -0.305000 0.320000 0.285000
v 0.305000 0.320000 0.285000
v 0.305000 0.320000 -0.285000
v -0.305000 0.320000 -0.285000
v -0.305000 0.720000 0.285000
v 0.305000 0.720000 0.285000
v 0.305000 0.720000 -0.285000
v -0.305000 0.720000 -0.285000
v -0.230000 0.715000 0.150000
v 0.230000 0.715000 0.150000
v 0.230000 0.715000 -0.270000
v -0.230000 0.715000 -0.270000
v -0.230000 0.775000 0.150000
v 0.230000 0.775000 0.150000
v 0.230000 0.775000 -0.270000
v -0.230000 0.775000 -0.270000
v -0.210000 0.625000 -0.285000
v -0.305459 0.585459 -0.285000
v -0.345000 0.490000 -0.285000
v -0.305459 0.394541 -0.285000
v -0.210000 0.355000 -0.285000
v -0.114541 0.394541 -0.285000
v -0.075000 0.490000 -0.285000
v -0.114541 0.585459 -0.285000
v -0.210000 0.625000 0.765000
v -0.305459 0.585459 0.765000
v -0.345000 0.490000 0.765000
v -0.305459 0.394541 0.765000
v -0.210000 0.355000 0.765000
v -0.114541 0.394541 0.765000
v -0.075000 0.490000 0.765000
v -0.114541 0.585459 0.765000
v -0.210000 0.600000 0.700000
v -0.287782 0.567782 0.700000
v -0.320000 0.490000 0.700000
v -0.287782 0.412218 0.700000
v -0.210000 0.380000 0.700000
v -0.132218 0.412218 0.700000
v -0.100000 0.490000 0.700000
v -0.132218 0.567782 0.700000
v -0.210000 0.490000 0.860000
v -0.210000 0.490000 0.860000
v -0.210000 0.490000 0.860000
v -0.210000 0.490000 0.860000
v -0.210000 0.490000 0.860000
v -0.210000 0.490000 0.860000
v -0.210000 0.490000 0.860000
v -0.210000 0.490000 0.860000
v -0.210000 0.915000 -0.285000
v -0.305459 0.875459 -0.285000
v -0.345000 0.780000 -0.285000
v -0.305459 0.684541 -0.285000
v -0.210000 0.645000 -0.285000
v -0.114541 0.684541 -0.285000
v -0.075000 0.780000 -0.285000
v -0.114541 0.875459 -0.285000
v -0.210000 0.915000 0.765000
v -0.305459 0.875459 0.765000
v -0.345000 0.780000 0.765000
v -0.305459 0.684541 0.765000
v -0.210000 0.645000 0.765000
v -0.114541 0.684541 0.765000
v -0.075000 0.780000 0.765000
v -0.114541 0.875459 0.765000
v -0.210000 0.890000 0.700000
v -0.287782 0.857782 0.700000
v -0.320000 0.780000 0.700000
v -0.287782 0.702218 0.700000
v -0.210000 0.670000 0.700000
v -0.132218 0.702218 0.700000
v -0.100000 0.780000 0.700000
v -0.132218 0.857782 0.700000
v -0.210000 0.780000 0.860000
v -0.210000 0.780000 0.860000
v -0.210000 0.780000 0.860000
v -0.210000 0.780000 0.860000
v -0.210000 0.780000 0.860000
v -0.210000 0.780000 0.860000
v -0.210000 0.780000 0.860000
v -0.210000 0.780000 0.860000
v 0.210000 0.625000 -0.285000
v 0.114541 0.585459 -0.285000
v 0.075000 0.490000 -0.285000
v 0.114541 0.394541 -0.285000
v 0.210000 0.355000 -0.285000
v 0.305459 0.394541 -0.285000
v 0.345000 0.490000 -0.285000
v 0.305459 0.585459 -0.285000
v 0.210000 0.625000 0.765000
v 0.114541 0.585459 0.765000
v 0.075000 0.490000 0.765000
v 0.114541 0.394541 0.765000
v 0.210000 0.355000 0.765000
v 0.305459 0.394541 0.765000
v 0.345000 0.490000 0.765000
v 0.305459 0.585459 0.765000
v 0.210000 0.600000 0.700000
v 0.132218 0.567782 0.700000
v 0.100000 0.490000 0.700000
v 0.132218 0.412218 0.700000
v 0.210000 0.380000 0.700000
v 0.287782 0.412218 0.700000
v 0.320000 0.490000 0.700000
v 0.287782 0.567782 0.700000
v 0.210000 0.490000 0.860000
v 0.210000 0.490000 0.860000
v 0.210000 0.490000 0.860000
v 0.210000 0.490000 0.860000
v 0.210000 0.490000 0.860000
v 0.210000 0.490000 0.860000
v 0.210000 0.490000 0.860000
v 0.210000 0.490000 0.860000
v 0.210000 0.915000 -0.285000
v 0.114541 0.875459 -0.285000
v 0.075000 0.780000 -0.285000
v 0.114541 0.684541 -0.285000
v 0.210000 0.645000 -0.285000
v 0.305459 0.684541 -0.285000
v 0.345000 0.780000 -0.285000
v 0.305459 0.875459 -0.285000
v 0.210000 0.915000 0.765000
v 0.114541 0.875459 0.765000
v 0.075000 0.780000 0.765000
v 0.114541 0.684541 0.765000
v 0.210000 0.645000 0.765000
v 0.305459 0.684541 0.765000
v 0.345000 0.780000 0.765000
v 0.305459 0.875459 0.765000
v 0.210000 0.890000 0.700000
v 0.132218 0.857782 0.700000
v 0.100000 0.780000 0.700000
v 0.132218 0.702218 0.700000
v 0.210000 0.670000 0.700000
v 0.287782 0.702218 0.700000
v 0.320000 0.780000 0.700000
v 0.287782 0.857782 0.700000
v 0.210000 0.780000 0.860000
v 0.210000 0.780000 0.860000
v 0.210000 0.780000 0.860000
v 0.210000 0.780000 0.860000
v 0.210000 0.780000 0.860000
v 0.210000 0.780000 0.860000
v 0.210000 0.780000 0.860000
v 0.210000 0.780000 0.860000
vn -0.0000 -1.0000 -0.0000
vn -0.3090 -0.0000 -0.9511
vn -0.8090 -0.0000 -0.5878
vn -1.0000 -0.0000 -0.0000
vn -0.8090 -0.0000 0.5878
vn -0.3090 -0.0000 0.9511
vn 0.3090 -0.0000 0.9511
vn 0.8090 -0.0000 0.5878
vn 1.0000 -0.0000 -0.0000
vn 0.8090 -0.0000 -0.5878
vn 0.3090 -0.0000 -0.9511
vn -0.0000 1.0000 -0.0000
vn -0.0000 -0.0000 1.0000
vn -0.0000 -0.0000 -1.0000
vn -0.3827 0.9239 -0.0000
vn -0.9239 0.3827 -0.0000
vn -0.9239 -0.3827 -0.0000
vn -0.3827 -0.9239 -0.0000
vn 0.3827 -0.9239 -0.0000
vn 0.9239 -0.3827 -0.0000
vn 0.9239 0.3827 -0.0000
vn 0.3827 0.9239 -0.0000
vn -0.3230 0.7799 0.5362
vn -0.7799 0.3230 0.5362
vn -0.7799 -0.3230 0.5362
vn -0.3230 -0.7799 0.5362
vn 0.3230 -0.7799 0.5362
vn 0.7799 -0.3230 0.5362
vn 0.7799 0.3230 0.5362
vn 0.3230 0.7799 0.5362
vt 0.625000 0.125000
vt 0.125000 0.125000
vt 0.375000 0.125000
vt 0.375000 0.875000
s 0
usemtl Military_Equipment_Palette
f 87/4/23 83/4/23 81/4/23
f 82/4/24 91/4/24 81/4/24
f 83/4/25 92/4/25 82/4/25
f 84/4/26 93/4/26 83/4/26
f 85/4/27 94/4/27 84/4/27
f 86/4/28 95/4/28 85/4/28
f 87/4/29 96/4/29 86/4/29
f 88/4/30 97/4/30 87/4/30
f 89/4/31 98/4/31 88/4/31
f 90/4/32 99/4/32 89/4/32
f 81/4/33 100/4/33 90/4/33
f 94/4/34 98/4/34 100/4/34
f 103/5/23 101/5/23 104/5/23
f 106/5/34 108/5/34 105/5/34
f 102/5/35 105/5/35 101/5/35
f 103/5/31 106/5/31 102/5/31
f 104/5/36 107/5/36 103/5/36
f 101/5/26 108/5/26 104/5/26
f 111/6/23 109/6/23 112/6/23
f 114/6/34 116/6/34 113/6/34
f 110/6/35 113/6/35 109/6/35
f 111/6/31 114/6/31 110/6/31
f 112/6/36 115/6/36 111/6/36
f 109/6/26 116/6/26 112/6/26
f 121/4/36 119/4/36 117/4/36
f 118/4/37 125/4/37 117/4/37
f 119/4/38 126/4/38 118/4/38
f 120/4/39 127/4/39 119/4/39
f 121/4/40 128/4/40 120/4/40
f 122/4/41 129/4/41 121/4/41
f 123/4/42 130/4/42 122/4/42
f 124/4/43 131/4/43 123/4/43
f 117/4/44 132/4/44 124/4/44
f 128/4/35 130/4/35 132/4/35
f 139/7/36 137/7/36 135/7/36
f 133/7/34 142/7/34 141/7/34
f 134/7/34 143/7/34 142/7/34
f 135/7/34 144/7/34 143/7/34
f 136/7/34 145/7/34 144/7/34
f 137/7/34 146/7/34 145/7/34
f 138/7/34 147/7/34 146/7/34
f 139/7/34 148/7/34 147/7/34
f 140/7/34 141/7/34 148/7/34
f 142/7/34 143/7/34 146/7/34
f 153/4/36 151/4/36 149/4/36
f 150/4/37 157/4/37 149/4/37
f 151/4/38 158/4/38 150/4/38
f 152/4/39 159/4/39 151/4/39
f 153/4/40 160/4/40 152/4/40
f 154/4/41 161/4/41 153/4/41
f 155/4/42 162/4/42 154/4/42
f 156/4/43 163/4/43 155/4/43
f 149/4/44 164/4/44 156/4/44
f 160/4/35 162/4/35 164/4/35
f 171/7/36 169/7/36 167/7/36
f 165/7/34 174/7/34 173/7/34
f 166/7/34 175/7/34 174/7/34
f 167/7/34 176/7/34 175/7/34
f 168/7/34 177/7/34 176/7/34
f 169/7/34 178/7/34 177/7/34
f 170/7/34 179/7/34 178/7/34
f 171/7/34 180/7/34 179/7/34
f 172/7/34 173/7/34 180/7/34
f 174/7/34 175/7/34 178/7/34
f 185/4/36 183/4/36 181/4/36
f 182/4/37 189/4/37 181/4/37
f 183/4/38 190/4/38 182/4/38
f 184/4/39 191/4/39 183/4/39
f 185/4/40 192/4/40 184/4/40
f 186/4/41 193/4/41 185/4/41
f 187/4/42 194/4/42 186/4/42
f 188/4/43 195/4/43 187/4/43
f 181/4/44 196/4/44 188/4/44
f 192/4/35 194/4/35 196/4/35
f 203/7/36 201/7/36 199/7/36
f 197/7/34 206/7/34 205/7/34
f 198/7/34 207/7/34 206/7/34
f 199/7/34 208/7/34 207/7/34
f 200/7/34 209/7/34 208/7/34
f 201/7/34 210/7/34 209/7/34
f 202/7/34 211/7/34 210/7/34
f 203/7/34 212/7/34 211/7/34
f 204/7/34 205/7/34 212/7/34
f 206/7/34 207/7/34 210/7/34
f 217/4/36 215/4/36 213/4/36
f 214/4/37 221/4/37 213/4/37
f 215/4/38 222/4/38 214/4/38
f 216/4/39 223/4/39 215/4/39
f 217/4/40 224/4/40 216/4/40
f 218/4/41 225/4/41 217/4/41
f 219/4/42 226/4/42 218/4/42
f 220/4/43 227/4/43 219/4/43
f 213/4/44 228/4/44 220/4/44
f 224/4/35 226/4/35 228/4/35
f 235/7/36 233/7/36 231/7/36
f 229/7/34 238/7/34 237/7/34
f 230/7/34 239/7/34 238/7/34
f 231/7/34 240/7/34 239/7/34
f 232/7/34 241/7/34 240/7/34
f 233/7/34 242/7/34 241/7/34
f 234/7/34 243/7/34 242/7/34
f 235/7/34 244/7/34 243/7/34
f 236/7/34 237/7/34 244/7/34
f 238/7/34 239/7/34 242/7/34
f 81/4/23 90/4/23 87/4/23
f 90/4/23 89/4/23 87/4/23
f 89/4/23 88/4/23 87/4/23
f 87/4/23 86/4/23 85/4/23
f 85/4/23 84/4/23 87/4/23
f 84/4/23 83/4/23 87/4/23
f 83/4/23 82/4/23 81/4/23
f 82/4/24 92/4/24 91/4/24
f 83/4/25 93/4/25 92/4/25
f 84/4/26 94/4/26 93/4/26
f 85/4/27 95/4/27 94/4/27
f 86/4/28 96/4/28 95/4/28
f 87/4/29 97/4/29 96/4/29
f 88/4/30 98/4/30 97/4/30
f 89/4/31 99/4/31 98/4/31
f 90/4/32 100/4/32 99/4/32
f 81/4/33 91/4/33 100/4/33
f 100/4/34 91/4/34 92/4/34
f 92/4/34 93/4/34 100/4/34
f 93/4/34 94/4/34 100/4/34
f 94/4/34 95/4/34 96/4/34
f 96/4/34 97/4/34 94/4/34
f 97/4/34 98/4/34 94/4/34
f 98/4/34 99/4/34 100/4/34
f 103/5/23 102/5/23 101/5/23
f 106/5/34 107/5/34 108/5/34
f 102/5/35 106/5/35 105/5/35
f 103/5/31 107/5/31 106/5/31
f 104/5/36 108/5/36 107/5/36
f 101/5/26 105/5/26 108/5/26
f 111/6/23 110/6/23 109/6/23
f 114/6/34 115/6/34 116/6/34
f 110/6/35 114/6/35 113/6/35
f 111/6/31 115/6/31 114/6/31
f 112/6/36 116/6/36 115/6/36
f 109/6/26 113/6/26 116/6/26
f 117/4/36 124/4/36 123/4/36
f 123/4/36 122/4/36 121/4/36
f 121/4/36 120/4/36 119/4/36
f 119/4/36 118/4/36 117/4/36
f 117/4/36 123/4/36 121/4/36
f 118/4/37 126/4/37 125/4/37
f 119/4/38 127/4/38 126/4/38
f 120/4/39 128/4/39 127/4/39
f 121/4/40 129/4/40 128/4/40
f 122/4/41 130/4/41 129/4/41
f 123/4/42 131/4/42 130/4/42
f 124/4/43 132/4/43 131/4/43
f 117/4/44 125/4/44 132/4/44
f 132/4/35 125/4/35 126/4/35
f 126/4/35 127/4/35 128/4/35
f 128/4/35 129/4/35 130/4/35
f 130/4/35 131/4/35 132/4/35
f 132/4/35 126/4/35 128/4/35
f 133/7/36 140/7/36 139/7/36
f 139/7/36 138/7/36 137/7/36
f 137/7/36 136/7/36 135/7/36
f 135/7/36 134/7/36 133/7/36
f 133/7/36 139/7/36 135/7/36
f 133/7/45 134/7/45 142/7/45
f 134/7/46 135/7/46 143/7/46
f 135/7/47 136/7/47 144/7/47
f 136/7/48 137/7/48 145/7/48
f 137/7/49 138/7/49 146/7/49
f 138/7/50 139/7/50 147/7/50
f 139/7/51 140/7/51 148/7/51
f 140/7/52 133/7/52 141/7/52
f 148/7/34 141/7/34 142/7/34
f 143/7/34 144/7/34 145/7/34
f 147/7/34 148/7/34 142/7/34
f 143/7/34 145/7/34 146/7/34
f 146/7/34 147/7/34 142/7/34
f 149/4/36 156/4/36 155/4/36
f 155/4/36 154/4/36 153/4/36
f 153/4/36 152/4/36 151/4/36
f 151/4/36 150/4/36 149/4/36
f 149/4/36 155/4/36 153/4/36
f 150/4/37 158/4/37 157/4/37
f 151/4/38 159/4/38 158/4/38
f 152/4/39 160/4/39 159/4/39
f 153/4/40 161/4/40 160/4/40
f 154/4/41 162/4/41 161/4/41
f 155/4/42 163/4/42 162/4/42
f 156/4/43 164/4/43 163/4/43
f 149/4/44 157/4/44 164/4/44
f 164/4/35 157/4/35 158/4/35
f 158/4/35 159/4/35 160/4/35
f 160/4/35 161/4/35 162/4/35
f 162/4/35 163/4/35 164/4/35
f 164/4/35 158/4/35 160/4/35
f 165/7/36 172/7/36 171/7/36
f 171/7/36 170/7/36 169/7/36
f 169/7/36 168/7/36 167/7/36
f 167/7/36 166/7/36 165/7/36
f 165/7/36 171/7/36 167/7/36
f 165/7/45 166/7/45 174/7/45
f 166/7/46 167/7/46 175/7/46
f 167/7/47 168/7/47 176/7/47
f 168/7/48 169/7/48 177/7/48
f 169/7/49 170/7/49 178/7/49
f 170/7/50 171/7/50 179/7/50
f 171/7/51 172/7/51 180/7/51
f 172/7/52 165/7/52 173/7/52
f 180/7/34 173/7/34 174/7/34
f 175/7/34 176/7/34 177/7/34
f 179/7/34 180/7/34 174/7/34
f 175/7/34 177/7/34 178/7/34
f 178/7/34 179/7/34 174/7/34
f 181/4/36 188/4/36 187/4/36
f 187/4/36 186/4/36 185/4/36
f 185/4/36 184/4/36 183/4/36
f 183/4/36 182/4/36 181/4/36
f 181/4/36 187/4/36 185/4/36
f 182/4/37 190/4/37 189/4/37
f 183/4/38 191/4/38 190/4/38
f 184/4/39 192/4/39 191/4/39
f 185/4/40 193/4/40 192/4/40
f 186/4/41 194/4/41 193/4/41
f 187/4/42 195/4/42 194/4/42
f 188/4/43 196/4/43 195/4/43
f 181/4/44 189/4/44 196/4/44
f 196/4/35 189/4/35 190/4/35
f 190/4/35 191/4/35 192/4/35
f 192/4/35 193/4/35 194/4/35
f 194/4/35 195/4/35 196/4/35
f 196/4/35 190/4/35 192/4/35
f 197/7/36 204/7/36 203/7/36
f 203/7/36 202/7/36 201/7/36
f 201/7/36 200/7/36 199/7/36
f 199/7/36 198/7/36 197/7/36
f 197/7/36 203/7/36 199/7/36
f 197/7/45 198/7/45 206/7/45
f 198/7/46 199/7/46 207/7/46
f 199/7/47 200/7/47 208/7/47
f 200/7/48 201/7/48 209/7/48
f 201/7/49 202/7/49 210/7/49
f 202/7/50 203/7/50 211/7/50
f 203/7/51 204/7/51 212/7/51
f 204/7/52 197/7/52 205/7/52
f 212/7/34 205/7/34 206/7/34
f 207/7/34 208/7/34 209/7/34
f 211/7/34 212/7/34 206/7/34
f 207/7/34 209/7/34 210/7/34
f 210/7/34 211/7/34 206/7/34
f 213/4/36 220/4/36 219/4/36
f 219/4/36 218/4/36 217/4/36
f 217/4/36 216/4/36 215/4/36
f 215/4/36 214/4/36 213/4/36
f 213/4/36 219/4/36 217/4/36
f 214/4/37 222/4/37 221/4/37
f 215/4/38 223/4/38 222/4/38
f 216/4/39 224/4/39 223/4/39
f 217/4/40 225/4/40 224/4/40
f 218/4/41 226/4/41 225/4/41
f 219/4/42 227/4/42 226/4/42
f 220/4/43 228/4/43 227/4/43
f 213/4/44 221/4/44 228/4/44
f 228/4/35 221/4/35 222/4/35
f 222/4/35 223/4/35 224/4/35
f 224/4/35 225/4/35 226/4/35
f 226/4/35 227/4/35 228/4/35
f 228/4/35 222/4/35 224/4/35
f 229/7/36 236/7/36 235/7/36
f 235/7/36 234/7/36 233/7/36
f 233/7/36 232/7/36 231/7/36
f 231/7/36 230/7/36 229/7/36
f 229/7/36 235/7/36 231/7/36
f 229/7/45 230/7/45 238/7/45
f 230/7/46 231/7/46 239/7/46
f 231/7/47 232/7/47 240/7/47
f 232/7/48 233/7/48 241/7/48
f 233/7/49 234/7/49 242/7/49
f 234/7/50 235/7/50 243/7/50
f 235/7/51 236/7/51 244/7/51
f 236/7/52 229/7/52 237/7/52
f 244/7/34 237/7/34 238/7/34
f 239/7/34 240/7/34 241/7/34
f 243/7/34 244/7/34 238/7/34
f 239/7/34 241/7/34 242/7/34
f 242/7/34 243/7/34 238/7/34
