# Blender 5.2.1 LTS
# www.blender.org
mtllib radar.mtl
o BASE.021
v -0.390000 0.000000 0.365000
v 0.390000 0.000000 0.365000
v 0.390000 0.000000 -0.365000
v -0.390000 0.000000 -0.365000
v -0.390000 0.120000 0.365000
v 0.390000 0.120000 0.365000
v 0.390000 0.120000 -0.365000
v -0.390000 0.120000 -0.365000
v -0.300000 0.121000 -0.302000
v -0.327713 0.121000 -0.286000
v -0.327713 0.121000 -0.254000
v -0.300000 0.121000 -0.238000
v -0.272287 0.121000 -0.254000
v -0.272287 0.121000 -0.286000
v -0.300000 0.141000 -0.302000
v -0.327713 0.141000 -0.286000
v -0.327713 0.141000 -0.254000
v -0.300000 0.141000 -0.238000
v -0.272287 0.141000 -0.254000
v -0.272287 0.141000 -0.286000
v -0.300000 0.121000 0.238000
v -0.327713 0.121000 0.254000
v -0.327713 0.121000 0.286000
v -0.300000 0.121000 0.302000
v -0.272287 0.121000 0.286000
v -0.272287 0.121000 0.254000
v -0.300000 0.141000 0.238000
v -0.327713 0.141000 0.254000
v -0.327713 0.141000 0.286000
v -0.300000 0.141000 0.302000
v -0.272287 0.141000 0.286000
v -0.272287 0.141000 0.254000
v 0.300000 0.121000 -0.302000
v 0.272287 0.121000 -0.286000
v 0.272287 0.121000 -0.254000
v 0.300000 0.121000 -0.238000
v 0.327713 0.121000 -0.254000
v 0.327713 0.121000 -0.286000
v 0.300000 0.141000 -0.302000
v 0.272287 0.141000 -0.286000
v 0.272287 0.141000 -0.254000
v 0.300000 0.141000 -0.238000
v 0.327713 0.141000 -0.254000
v 0.327713 0.141000 -0.286000
v 0.300000 0.121000 0.238000
v 0.272287 0.121000 0.254000
v 0.272287 0.121000 0.286000
v 0.300000 0.121000 0.302000
v 0.327713 0.121000 0.286000
v 0.327713 0.121000 0.254000
v 0.300000 0.141000 0.238000
v 0.272287 0.141000 0.254000
v 0.272287 0.141000 0.286000
v 0.300000 0.141000 0.302000
v 0.327713 0.141000 0.286000
v 0.327713 0.141000 0.254000
v -0.320000 0.135000 0.280000
v 0.320000 0.135000 0.280000
v 0.320000 0.135000 -0.280000
v -0.320000 0.135000 -0.280000
v -0.320000 0.605000 0.280000
v 0.320000 0.605000 0.280000
v 0.320000 0.605000 -0.280000
v -0.320000 0.605000 -0.280000
v -0.337500 0.605000 0.297500
v 0.337500 0.605000 0.297500
v 0.337500 0.605000 -0.297500
v -0.337500 0.605000 -0.297500
v -0.337500 0.655000 0.297500
v 0.337500 0.655000 0.297500
v 0.337500 0.655000 -0.297500
v -0.337500 0.655000 -0.297500
v -0.209500 0.100000 0.305000
v -0.174500 0.100000 0.305000
v -0.174500 0.100000 -0.305000
v -0.209500 0.100000 -0.305000
v -0.209500 0.640000 0.305000
v -0.174500 0.640000 0.305000
v -0.174500 0.640000 -0.305000
v -0.209500 0.640000 -0.305000
v -0.185800 0.423100 0.317500
v -0.095800 0.423100 0.317500
v -0.095800 0.423100 0.282500
v -0.185800 0.423100 0.282500
v -0.185800 0.533100 0.317500
v -0.095800 0.533100 0.317500
v -0.095800 0.533100 0.282500
v -0.185800 0.533100 0.282500
v 0.174500 0.100000 0.305000
v 0.209500 0.100000 0.305000
v 0.209500 0.100000 -0.305000
v 0.174500 0.100000 -0.305000
v 0.174500 0.640000 0.305000
v 0.209500 0.640000 0.305000
v 0.209500 0.640000 -0.305000
v 0.174500 0.640000 -0.305000
v 0.095800 0.423100 0.317500
v 0.185800 0.423100 0.317500
v 0.185800 0.423100 0.282500
v 0.095800 0.423100 0.282500
v 0.095800 0.533100 0.317500
v 0.185800 0.533100 0.317500
v 0.185800 0.533100 0.282500
v 0.095800 0.533100 0.282500
v -0.100000 0.401400 0.342500
v 0.100000 0.401400 0.342500
v 0.100000 0.401400 0.297500
v -0.100000 0.401400 0.297500
v -0.100000 0.451400 0.342500
v 0.100000 0.451400 0.342500
v 0.100000 0.451400 0.297500
v -0.100000 0.451400 0.297500
v 0.000000 0.495000 -0.055000
v -0.038891 0.495000 -0.038891
v -0.055000 0.495000 -0.000000
v -0.038891 0.495000 0.038891
v -0.000000 0.495000 0.055000
v 0.038891 0.495000 0.038891
v 0.055000 0.495000 0.000000
v 0.038891 0.495000 -0.038891
v 0.000000 1.045000 -0.055000
v -0.038891 1.045000 -0.038891
v -0.055000 1.045000 -0.000000
v -0.038891 1.045000 0.038891
v -0.000000 1.045000 0.055000
v 0.038891 1.045000 0.038891
v 0.055000 1.045000 0.000000
v 0.038891 1.045000 -0.038891
v 0.000000 1.500000 -0.050000
v -0.200000 1.446410 -0.050000
v -0.346410 1.300000 -0.050000
v -0.400000 1.100000 -0.050000
v -0.346410 0.900000 -0.050000
v -0.200000 0.753590 -0.050000
v -0.000000 0.700000 -0.050000
v 0.200000 0.753590 -0.050000
v 0.346410 0.900000 -0.050000
v 0.400000 1.100000 -0.050000
v 0.346410 1.300000 -0.050000
v 0.200000 1.446410 -0.050000
v 0.000000 1.400000 0.050000
v -0.150000 1.359808 0.050000
v -0.259808 1.250000 0.050000
v -0.300000 1.100000 0.050000
v -0.259808 0.950000 0.050000
v -0.150000 0.840192 0.050000
v -0.000000 0.800000 0.050000
v 0.150000 0.840192 0.050000
v 0.259808 0.950000 0.050000
v 0.300000 1.100000 0.050000
v 0.259808 1.250000 0.050000
v 0.150000 1.359808 0.050000
v 0.000000 1.120000 0.050000
v -0.020000 1.100000 0.050000
v -0.000000 1.080000 0.050000
v 0.020000 1.100000 0.050000
v 0.000000 1.120000 0.340000
v -0.020000 1.100000 0.340000
v -0.000000 1.080000 0.340000
v 0.020000 1.100000 0.340000
v -0.145000 0.335000 0.307500
v 0.145000 0.335000 0.307500
v 0.145000 0.335000 0.282500
v -0.145000 0.335000 0.282500
v -0.145000 0.505000 0.307500
v 0.145000 0.505000 0.307500
v 0.145000 0.505000 0.282500
v -0.145000 0.505000 0.282500
v -0.100000 0.258000 0.287500
v -0.115588 0.249000 0.287500
v -0.115588 0.231000 0.287500
v -0.100000 0.222000 0.287500
v -0.084412 0.231000 0.287500
v -0.084412 0.249000 0.287500
v -0.100000 0.258000 0.312500
v -0.115588 0.249000 0.312500
v -0.115588 0.231000 0.312500
v -0.100000 0.222000 0.312500
v -0.084412 0.231000 0.312500
v -0.084412 0.249000 0.312500
v 0.000000 0.258000 0.287500
v -0.015588 0.249000 0.287500
v -0.015588 0.231000 0.287500
v -0.000000 0.222000 0.287500
v 0.015588 0.231000 0.287500
v 0.015588 0.249000 0.287500
v 0.000000 0.258000 0.312500
v -0.015588 0.249000 0.312500
v -0.015588 0.231000 0.312500
v -0.000000 0.222000 0.312500
v 0.015588 0.231000 0.312500
v 0.015588 0.249000 0.312500
v 0.100000 0.258000 0.287500
v 0.084412 0.249000 0.287500
v 0.084412 0.231000 0.287500
v 0.100000 0.222000 0.287500
v 0.115588 0.231000 0.287500
v 0.115588 0.249000 0.287500
v 0.100000 0.258000 0.312500
v 0.084412 0.249000 0.312500
v 0.084412 0.231000 0.312500
v 0.100000 0.222000 0.312500
v 0.115588 0.231000 0.312500
v 0.115588 0.249000 0.312500
vn -0.0000 -1.0000 -0.0000
vn -0.0000 1.0000 -0.0000
vn -0.0000 -0.0000 1.0000
vn 1.0000 -0.0000 -0.0000
vn -0.0000 -0.0000 -1.0000
vn -1.0000 -0.0000 -0.0000
vn -0.5000 -0.0000 -0.8660
vn -0.5000 -0.0000 0.8660
vn 0.5000 -0.0000 0.8660
vn 0.5000 -0.0000 -0.8660
vn -0.3827 -0.0000 -0.9239
vn -0.9239 -0.0000 -0.3827
vn -0.9239 -0.0000 0.3827
vn -0.3827 -0.0000 0.9239
vn 0.3827 -0.0000 0.9239
vn 0.9239 -0.0000 0.3827
vn 0.9239 -0.0000 -0.3827
vn 0.3827 -0.0000 -0.9239
vn -0.1862 0.6947 0.6947
vn -0.5086 0.5086 0.6947
vn -0.6947 0.1862 0.6947
vn -0.6947 -0.1862 0.6947
vn -0.5086 -0.5086 0.6947
vn -0.1862 -0.6947 0.6947
vn 0.1862 -0.6947 0.6947
vn 0.5086 -0.5086 0.6947
vn 0.6947 -0.1862 0.6947
vn 0.6947 0.1862 0.6947
vn 0.5086 0.5086 0.6947
vn 0.1862 0.6947 0.6947
vn -0.7071 0.7071 -0.0000
vn -0.7071 -0.7071 -0.0000
vn 0.7071 -0.7071 -0.0000
vn 0.7071 0.7071 -0.0000
vn -0.5000 0.8660 -0.0000
vn -0.5000 -0.8660 -0.0000
vn 0.5000 -0.8660 -0.0000
vn 0.5000 0.8660 -0.0000
vt 0.625000 0.125000
vt 0.375000 0.875000
vt 0.125000 0.125000
vt 0.375000 0.125000
vt 0.875000 0.125000
vt 0.125000 0.625000
vt 0.625000 0.375000
vt 0.375000 0.625000
s 0
usemtl Military_Equipment_Palette
f 3/1/1 1/1/1 4/1/1
f 6/1/2 8/1/2 5/1/2
f 2/1/3 5/1/3 1/1/3
f 3/1/4 6/1/4 2/1/4
f 4/1/5 7/1/5 3/1/5
f 1/1/6 8/1/6 4/1/6
f 13/2/1 11/2/1 9/2/1
f 10/2/7 15/2/7 9/2/7
f 11/2/6 16/2/6 10/2/6
f 12/2/8 17/2/8 11/2/8
f 13/2/9 18/2/9 12/2/9
f 14/2/4 19/2/4 13/2/4
f 9/2/10 20/2/10 14/2/10
f 16/2/2 18/2/2 20/2/2
f 25/2/1 23/2/1 21/2/1
f 22/2/7 27/2/7 21/2/7
f 23/2/6 28/2/6 22/2/6
f 24/2/8 29/2/8 23/2/8
f 25/2/9 30/2/9 24/2/9
f 26/2/4 31/2/4 25/2/4
f 21/2/10 32/2/10 26/2/10
f 28/2/2 30/2/2 32/2/2
f 37/2/1 35/2/1 33/2/1
f 34/2/7 39/2/7 33/2/7
f 35/2/6 40/2/6 34/2/6
f 36/2/8 41/2/8 35/2/8
f 37/2/9 42/2/9 36/2/9
f 38/2/4 43/2/4 37/2/4
f 33/2/10 44/2/10 38/2/10
f 40/2/2 42/2/2 44/2/2
f 49/2/1 47/2/1 45/2/1
f 46/2/7 51/2/7 45/2/7
f 47/2/6 52/2/6 46/2/6
f 48/2/8 53/2/8 47/2/8
f 49/2/9 54/2/9 48/2/9
f 50/2/4 55/2/4 49/2/4
f 45/2/10 56/2/10 50/2/10
f 52/2/2 54/2/2 56/2/2
f 59/3/1 57/3/1 60/3/1
f 62/3/2 64/3/2 61/3/2
f 58/3/3 61/3/3 57/3/3
f 59/3/4 62/3/4 58/3/4
f 60/3/5 63/3/5 59/3/5
f 57/3/6 64/3/6 60/3/6
f 67/4/1 65/4/1 68/4/1
f 70/4/2 72/4/2 69/4/2
f 66/4/3 69/4/3 65/4/3
f 67/4/4 70/4/4 66/4/4
f 68/4/5 71/4/5 67/4/5
f 65/4/6 72/4/6 68/4/6
f 75/5/1 73/5/1 76/5/1
f 78/5/2 80/5/2 77/5/2
f 74/5/3 77/5/3 73/5/3
f 75/5/4 78/5/4 74/5/4
f 76/5/5 79/5/5 75/5/5
f 73/5/6 80/5/6 76/5/6
f 83/2/1 81/2/1 84/2/1
f 86/2/2 88/2/2 85/2/2
f 82/2/3 85/2/3 81/2/3
f 83/2/4 86/2/4 82/2/4
f 84/2/5 87/2/5 83/2/5
f 81/2/6 88/2/6 84/2/6
f 91/5/1 89/5/1 92/5/1
f 94/5/2 96/5/2 93/5/2
f 90/5/3 93/5/3 89/5/3
f 91/5/4 94/5/4 90/5/4
f 92/5/5 95/5/5 91/5/5
f 89/5/6 96/5/6 92/5/6
f 99/2/1 97/2/1 100/2/1
f 102/2/2 104/2/2 101/2/2
f 98/2/3 101/2/3 97/2/3
f 99/2/4 102/2/4 98/2/4
f 100/2/5 103/2/5 99/2/5
f 97/2/6 104/2/6 100/2/6
f 107/6/1 105/6/1 108/6/1
f 110/6/2 112/6/2 109/6/2
f 106/6/3 109/6/3 105/6/3
f 107/6/4 110/6/4 106/6/4
f 108/6/5 111/6/5 107/6/5
f 105/6/6 112/6/6 108/6/6
f 117/6/1 115/6/1 113/6/1
f 114/6/11 121/6/11 113/6/11
f 115/6/12 122/6/12 114/6/12
f 116/6/13 123/6/13 115/6/13
f 117/6/14 124/6/14 116/6/14
f 118/6/15 125/6/15 117/6/15
f 119/6/16 126/6/16 118/6/16
f 120/6/17 127/6/17 119/6/17
f 113/6/18 128/6/18 120/6/18
f 124/6/2 126/6/2 128/6/2
f 137/4/5 133/4/5 129/4/5
f 130/4/19 141/4/19 129/4/19
f 131/4/20 142/4/20 130/4/20
f 132/4/21 143/4/21 131/4/21
f 133/4/22 144/4/22 132/4/22
f 133/4/23 146/4/23 145/4/23
f 134/4/24 147/4/24 146/4/24
f 136/4/25 147/4/25 135/4/25
f 137/4/26 148/4/26 136/4/26
f 137/4/27 150/4/27 149/4/27
f 138/4/28 151/4/28 150/4/28
f 140/4/29 151/4/29 139/4/29
f 140/4/30 141/4/30 152/4/30
f 144/4/3 148/4/3 152/4/3
f 155/2/5 153/2/5 156/2/5
f 154/2/31 157/2/31 153/2/31
f 155/2/32 158/2/32 154/2/32
f 156/2/33 159/2/33 155/2/33
f 153/2/34 160/2/34 156/2/34
f 157/2/3 159/2/3 160/2/3
f 163/7/1 161/7/1 164/7/1
f 166/7/2 168/7/2 165/7/2
f 162/7/3 165/7/3 161/7/3
f 163/7/4 166/7/4 162/7/4
f 164/7/5 167/7/5 163/7/5
f 161/7/6 168/7/6 164/7/6
f 171/8/5 170/8/5 169/8/5
f 170/8/35 175/8/35 169/8/35
f 171/8/6 176/8/6 170/8/6
f 172/8/36 177/8/36 171/8/36
f 173/8/37 178/8/37 172/8/37
f 174/8/4 179/8/4 173/8/4
f 169/8/38 180/8/38 174/8/38
f 178/8/3 179/8/3 180/8/3
f 183/8/5 182/8/5 181/8/5
f 182/8/35 187/8/35 181/8/35
f 183/8/6 188/8/6 182/8/6
f 184/8/36 189/8/36 183/8/36
f 185/8/37 190/8/37 184/8/37
f 186/8/4 191/8/4 185/8/4
f 181/8/38 192/8/38 186/8/38
f 190/8/3 191/8/3 192/8/3
f 195/8/5 194/8/5 193/8/5
f 194/8/35 199/8/35 193/8/35
f 195/8/6 200/8/6 194/8/6
f 196/8/36 201/8/36 195/8/36
f 197/8/37 202/8/37 196/8/37
f 198/8/4 203/8/4 197/8/4
f 193/8/38 204/8/38 198/8/38
f 202/8/3 203/8/3 204/8/3
f 3/1/1 2/1/1 1/1/1
f 6/1/2 7/1/2 8/1/2
f 2/1/3 6/1/3 5/1/3
f 3/1/4 7/1/4 6/1/4
f 4/1/5 8/1/5 7/1/5
f 1/1/6 5/1/6 8/1/6
f 9/2/1 14/2/1 13/2/1
f 13/2/1 12/2/1 11/2/1
f 11/2/1 10/2/1 9/2/1
f 10/2/7 16/2/7 15/2/7
f 11/2/6 17/2/6 16/2/6
f 12/2/8 18/2/8 17/2/8
f 13/2/9 19/2/9 18/2/9
f 14/2/4 20/2/4 19/2/4
f 9/2/10 15/2/10 20/2/10
f 20/2/2 15/2/2 16/2/2
f 16/2/2 17/2/2 18/2/2
f 18/2/2 19/2/2 20/2/2
f 21/2/1 26/2/1 25/2/1
f 25/2/1 24/2/1 23/2/1
f 23/2/1 22/2/1 21/2/1
f 22/2/7 28/2/7 27/2/7
f 23/2/6 29/2/6 28/2/6
f 24/2/8 30/2/8 29/2/8
f 25/2/9 31/2/9 30/2/9
f 26/2/4 32/2/4 31/2/4
f 21/2/10 27/2/10 32/2/10
f 32/2/2 27/2/2 28/2/2
f 28/2/2 29/2/2 30/2/2
f 30/2/2 31/2/2 32/2/2
f 33/2/1 38/2/1 37/2/1
f 37/2/1 36/2/1 35/2/1
f 35/2/1 34/2/1 33/2/1
f 34/2/7 40/2/7 39/2/7
f 35/2/6 41/2/6 40/2/6
f 36/2/8 42/2/8 41/2/8
f 37/2/9 43/2/9 42/2/9
f 38/2/4 44/2/4 43/2/4
f 33/2/10 39/2/10 44/2/10
f 44/2/2 39/2/2 40/2/2
f 40/2/2 41/2/2 42/2/2
f 42/2/2 43/2/2 44/2/2
f 45/2/1 50/2/1 49/2/1
f 49/2/1 48/2/1 47/2/1
f 47/2/1 46/2/1 45/2/1
f 46/2/7 52/2/7 51/2/7
f 47/2/6 53/2/6 52/2/6
f 48/2/8 54/2/8 53/2/8
f 49/2/9 55/2/9 54/2/9
f 50/2/4 56/2/4 55/2/4
f 45/2/10 51/2/10 56/2/10
f 56/2/2 51/2/2 52/2/2
f 52/2/2 53/2/2 54/2/2
f 54/2/2 55/2/2 56/2/2
f 59/3/1 58/3/1 57/3/1
f 62/3/2 63/3/2 64/3/2
f 58/3/3 62/3/3 61/3/3
f 59/3/4 63/3/4 62/3/4
f 60/3/5 64/3/5 63/3/5
f 57/3/6 61/3/6 64/3/6
f 67/4/1 66/4/1 65/4/1
f 70/4/2 71/4/2 72/4/2
f 66/4/3 70/4/3 69/4/3
f 67/4/4 71/4/4 70/4/4
f 68/4/5 72/4/5 71/4/5
f 65/4/6 69/4/6 72/4/6
f 75/5/1 74/5/1 73/5/1
f 78/5/2 79/5/2 80/5/2
f 74/5/3 78/5/3 77/5/3
f 75/5/4 79/5/4 78/5/4
f 76/5/5 80/5/5 79/5/5
f 73/5/6 77/5/6 80/5/6
f 83/2/1 82/2/1 81/2/1
f 86/2/2 87/2/2 88/2/2
f 82/2/3 86/2/3 85/2/3
f 83/2/4 87/2/4 86/2/4
f 84/2/5 88/2/5 87/2/5
f 81/2/6 85/2/6 88/2/6
f 91/5/1 90/5/1 89/5/1
f 94/5/2 95/5/2 96/5/2
f 90/5/3 94/5/3 93/5/3
f 91/5/4 95/5/4 94/5/4
f 92/5/5 96/5/5 95/5/5
f 89/5/6 93/5/6 96/5/6
f 99/2/1 98/2/1 97/2/1
f 102/2/2 103/2/2 104/2/2
f 98/2/3 102/2/3 101/2/3
f 99/2/4 103/2/4 102/2/4
f 100/2/5 104/2/5 103/2/5
f 97/2/6 101/2/6 104/2/6
f 107/6/1 106/6/1 105/6/1
f 110/6/2 111/6/2 112/6/2
f 106/6/3 110/6/3 109/6/3
f 107/6/4 111/6/4 110/6/4
f 108/6/5 112/6/5 111/6/5
f 105/6/6 109/6/6 112/6/6
f 113/6/1 120/6/1 119/6/1
f 119/6/1 118/6/1 117/6/1
f 117/6/1 116/6/1 115/6/1
f 115/6/1 114/6/1 113/6/1
f 113/6/1 119/6/1 117/6/1
f 114/6/11 122/6/11 121/6/11
f 115/6/12 123/6/12 122/6/12
f 116/6/13 124/6/13 123/6/13
f 117/6/14 125/6/14 124/6/14
f 118/6/15 126/6/15 125/6/15
f 119/6/16 127/6/16 126/6/16
f 120/6/17 128/6/17 127/6/17
f 113/6/18 121/6/18 128/6/18
f 128/6/2 121/6/2 122/6/2
f 122/6/2 123/6/2 124/6/2
f 124/6/2 125/6/2 126/6/2
f 126/6/2 127/6/2 128/6/2
f 128/6/2 122/6/2 124/6/2
f 129/4/5 140/4/5 137/4/5
f 140/4/5 139/4/5 137/4/5
f 139/4/5 138/4/5 137/4/5
f 137/4/5 136/4/5 135/4/5
f 135/4/5 134/4/5 133/4/5
f 133/4/5 132/4/5 131/4/5
f 131/4/5 130/4/5 133/4/5
f 130/4/5 129/4/5 133/4/5
f 137/4/5 135/4/5 133/4/5
f 130/4/19 142/4/19 141/4/19
f 131/4/20 143/4/20 142/4/20
f 132/4/21 144/4/21 143/4/21
f 133/4/22 145/4/22 144/4/22
f 133/4/23 134/4/23 146/4/23
f 134/4/24 135/4/24 147/4/24
f 136/4/25 148/4/25 147/4/25
f 137/4/26 149/4/26 148/4/26
f 137/4/27 138/4/27 150/4/27
f 138/4/28 139/4/28 151/4/28
f 140/4/29 152/4/29 151/4/29
f 140/4/30 129/4/30 141/4/30
f 152/4/3 141/4/3 142/4/3
f 142/4/3 143/4/3 152/4/3
f 143/4/3 144/4/3 152/4/3
f 144/4/3 145/4/3 146/4/3
f 146/4/3 147/4/3 148/4/3
f 148/4/3 149/4/3 150/4/3
f 150/4/3 151/4/3 152/4/3
f 144/4/3 146/4/3 148/4/3
f 148/4/3 150/4/3 152/4/3
f 155/2/5 154/2/5 153/2/5
f 154/2/31 158/2/31 157/2/31
f 155/2/32 159/2/32 158/2/32
f 156/2/33 160/2/33 159/2/33
f 153/2/34 157/2/34 160/2/34
f 157/2/3 158/2/3 159/2/3
f 163/7/1 162/7/1 161/7/1
f 166/7/2 167/7/2 168/7/2
f 162/7/3 166/7/3 165/7/3
f 163/7/4 167/7/4 166/7/4
f 164/7/5 168/7/5 167/7/5
f 161/7/6 165/7/6 168/7/6
f 169/8/5 174/8/5 173/8/5
f 173/8/5 172/8/5 169/8/5
f 172/8/5 171/8/5 169/8/5
f 170/8/35 176/8/35 175/8/35
f 171/8/6 177/8/6 176/8/6
f 172/8/36 178/8/36 177/8/36
f 173/8/37 179/8/37 178/8/37
f 174/8/4 180/8/4 179/8/4
f 169/8/38 175/8/38 180/8/38
f 180/8/3 175/8/3 178/8/3
f 175/8/3 176/8/3 178/8/3
f 176/8/3 177/8/3 178/8/3
f 181/8/5 186/8/5 185/8/5
f 185/8/5 184/8/5 181/8/5
f 184/8/5 183/8/5 181/8/5
f 182/8/35 188/8/35 187/8/35
f 183/8/6 189/8/6 188/8/6
f 184/8/36 190/8/36 189/8/36
f 185/8/37 191/8/37 190/8/37
f 186/8/4 192/8/4 191/8/4
f 181/8/38 187/8/38 192/8/38
f 192/8/3 187/8/3 190/8/3
f 187/8/3 188/8/3 190/8/3
f 188/8/3 189/8/3 190/8/3
f 193/8/5 198/8/5 197/8/5
f 197/8/5 196/8/5 193/8/5
f 196/8/5 195/8/5 193/8/5
f 194/8/35 200/8/35 199/8/35
f 195/8/6 201/8/6 200/8/6
f 196/8/36 202/8/36 201/8/36
f 197/8/37 203/8/37 202/8/37
f 198/8/4 204/8/4 203/8/4
f 193/8/38 199/8/38 204/8/38
f 204/8/3 199/8/3 202/8/3
f 199/8/3 200/8/3 202/8/3
f 200/8/3 201/8/3 202/8/3
