# Blender 5.2.1 LTS
# www.blender.org
mtllib railgun.mtl
o BASE.021
v -0.361200 0.000000 0.350600
v 0.361200 0.000000 0.350600
v 0.375600 0.000000 0.336200
v 0.375600 0.000000 -0.336200
v 0.361200 0.000000 -0.350600
v -0.361200 0.000000 -0.350600
v -0.375600 0.000000 -0.336200
v -0.375600 0.000000 0.336200
v -0.375600 0.014400 0.365000
v 0.375600 0.014400 0.365000
v 0.390000 0.014400 0.350600
v 0.390000 0.014400 -0.350600
v 0.375600 0.014400 -0.365000
v -0.375600 0.014400 -0.365000
v -0.390000 0.014400 -0.350600
v -0.390000 0.014400 0.350600
v -0.375600 0.105600 0.365000
v 0.375600 0.105600 0.365000
v 0.390000 0.105600 0.350600
v 0.390000 0.105600 -0.350600
v 0.375600 0.105600 -0.365000
v -0.375600 0.105600 -0.365000
v -0.390000 0.105600 -0.350600
v -0.390000 0.105600 0.350600
v -0.361200 0.120000 0.350600
v 0.361200 0.120000 0.350600
v 0.375600 0.120000 0.336200
v 0.375600 0.120000 -0.336200
v 0.361200 0.120000 -0.350600
v -0.361200 0.120000 -0.350600
v -0.375600 0.120000 -0.336200
v -0.375600 0.120000 0.336200
v -0.300000 0.121000 -0.302000
v -0.327713 0.121000 -0.286000
v -0.327713 0.121000 -0.254000
v -0.300000 0.121000 -0.238000
v -0.272287 0.121000 -0.254000
v -0.272287 0.121000 -0.286000
v -0.300000 0.141000 -0.302000
v -0.327713 0.141000 -0.286000
v -0.327713 0.141000 -0.254000
v -0.300000 0.141000 -0.238000
v -0.272287 0.141000 -0.254000
v -0.272287 0.141000 -0.286000
v -0.300000 0.121000 0.238000
v -0.327713 0.121000 0.254000
v -0.327713 0.121000 0.286000
v -0.300000 0.121000 0.302000
v -0.272287 0.121000 0.286000
v -0.272287 0.121000 0.254000
v -0.300000 0.141000 0.238000
v -0.327713 0.141000 0.254000
v -0.327713 0.141000 0.286000
v -0.300000 0.141000 0.302000
v -0.272287 0.141000 0.286000
v -0.272287 0.141000 0.254000
v 0.300000 0.121000 -0.302000
v 0.272287 0.121000 -0.286000
v 0.272287 0.121000 -0.254000
v 0.300000 0.121000 -0.238000
v 0.327713 0.121000 -0.254000
v 0.327713 0.121000 -0.286000
v 0.300000 0.141000 -0.302000
v 0.272287 0.141000 -0.286000
v 0.272287 0.141000 -0.254000
v 0.300000 0.141000 -0.238000
v 0.327713 0.141000 -0.254000
v 0.327713 0.141000 -0.286000
v 0.300000 0.121000 0.238000
v 0.272287 0.121000 0.254000
v 0.272287 0.121000 0.286000
v 0.300000 0.121000 0.302000
v 0.327713 0.121000 0.286000
v 0.327713 0.121000 0.254000
v 0.300000 0.141000 0.238000
v 0.272287 0.141000 0.254000
v 0.272287 0.141000 0.286000
v 0.300000 0.141000 0.302000
v 0.327713 0.141000 0.286000
v 0.327713 0.141000 0.254000
v 0.000000 0.110000 -0.360000
v -0.180000 0.110000 -0.311769
v -0.311769 0.110000 -0.180000
v -0.360000 0.110000 -0.000000
v -0.311769 0.110000 0.180000
v -0.180000 0.110000 0.311769
v -0.000000 0.110000 0.360000
v 0.180000 0.110000 0.311769
v 0.311769 0.110000 0.180000
v 0.360000 0.110000 0.000000
v 0.311769 0.110000 -0.180000
v 0.180000 0.110000 -0.311769
v 0.000000 0.210000 -0.360000
v -0.180000 0.210000 -0.311769
v -0.311769 0.210000 -0.180000
v -0.360000 0.210000 -0.000000
v -0.311769 0.210000 0.180000
v -0.180000 0.210000 0.311769
v -0.000000 0.210000 0.360000
v 0.180000 0.210000 0.311769
v 0.311769 0.210000 0.180000
v 0.360000 0.210000 0.000000
v 0.311769 0.210000 -0.180000
v 0.180000 0.210000 -0.311769
vn -0.0000 -1.0000 -0.0000
vn -0.0000 -0.7071 0.7071
vn 0.4082 -0.8165 0.4082
vn 0.7071 -0.7071 -0.0000
vn 0.4082 -0.8165 -0.4082
vn -0.0000 -0.7071 -0.7071
vn -0.4082 -0.8165 -0.4082
vn -0.7071 -0.7071 -0.0000
vn -0.4082 -0.8165 0.4082
vn -0.0000 -0.0000 1.0000
vn 0.7071 -0.0000 0.7071
vn 1.0000 -0.0000 -0.0000
vn 0.7071 -0.0000 -0.7071
vn -0.0000 -0.0000 -1.0000
vn -0.7071 -0.0000 -0.7071
vn -1.0000 -0.0000 -0.0000
vn -0.7071 -0.0000 0.7071
vn -0.0000 0.7071 0.7071
vn 0.4082 0.8165 0.4082
vn 0.7071 0.7071 -0.0000
vn 0.4082 0.8165 -0.4082
vn -0.0000 0.7071 -0.7071
vn -0.4082 0.8165 -0.4082
vn -0.7071 0.7071 -0.0000
vn -0.4082 0.8165 0.4082
vn -0.0000 1.0000 -0.0000
vn -0.5000 -0.0000 -0.8660
vn -0.5000 -0.0000 0.8660
vn 0.5000 -0.0000 0.8660
vn 0.5000 -0.0000 -0.8660
vn -0.2588 -0.0000 -0.9659
vn -0.9659 -0.0000 -0.2588
vn -0.9659 -0.0000 0.2588
vn -0.2588 -0.0000 0.9659
vn 0.2588 -0.0000 0.9659
vn 0.9659 -0.0000 0.2588
vn 0.9659 -0.0000 -0.2588
vn 0.2588 -0.0000 -0.9659
vt 0.625000 0.125000
vt 0.375000 0.875000
vt 0.125000 0.625000
s 0
usemtl Military_Equipment_Palette
f 2/1/1 1/1/1 5/1/1
f 2/1/2 9/1/2 1/1/2
f 2/1/3 11/1/3 10/1/3
f 4/1/4 11/1/4 3/1/4
f 5/1/5 12/1/5 4/1/5
f 6/1/6 13/1/6 5/1/6
f 6/1/7 15/1/7 14/1/7
f 8/1/8 15/1/8 7/1/8
f 1/1/9 16/1/9 8/1/9
f 10/1/10 17/1/10 9/1/10
f 11/1/11 18/1/11 10/1/11
f 12/1/12 19/1/12 11/1/12
f 13/1/13 20/1/13 12/1/13
f 14/1/14 21/1/14 13/1/14
f 15/1/15 22/1/15 14/1/15
f 16/1/16 23/1/16 15/1/16
f 9/1/17 24/1/17 16/1/17
f 18/1/18 25/1/18 17/1/18
f 19/1/19 26/1/19 18/1/19
f 20/1/20 27/1/20 19/1/20
f 20/1/21 29/1/21 28/1/21
f 22/1/22 29/1/22 21/1/22
f 23/1/23 30/1/23 22/1/23
f 24/1/24 31/1/24 23/1/24
f 24/1/25 25/1/25 32/1/25
f 30/1/26 31/1/26 32/1/26
f 37/2/1 35/2/1 33/2/1
f 34/2/27 39/2/27 33/2/27
f 35/2/16 40/2/16 34/2/16
f 36/2/28 41/2/28 35/2/28
f 37/2/29 42/2/29 36/2/29
f 38/2/12 43/2/12 37/2/12
f 33/2/30 44/2/30 38/2/30
f 40/2/26 42/2/26 44/2/26
f 49/2/1 47/2/1 45/2/1
f 46/2/27 51/2/27 45/2/27
f 47/2/16 52/2/16 46/2/16
f 48/2/28 53/2/28 47/2/28
f 49/2/29 54/2/29 48/2/29
f 50/2/12 55/2/12 49/2/12
f 45/2/30 56/2/30 50/2/30
f 52/2/26 54/2/26 56/2/26
f 61/2/1 59/2/1 57/2/1
f 58/2/27 63/2/27 57/2/27
f 59/2/16 64/2/16 58/2/16
f 60/2/28 65/2/28 59/2/28
f 61/2/29 66/2/29 60/2/29
f 62/2/12 67/2/12 61/2/12
f 57/2/30 68/2/30 62/2/30
f 64/2/26 66/2/26 68/2/26
f 73/2/1 71/2/1 69/2/1
f 70/2/27 75/2/27 69/2/27
f 71/2/16 76/2/16 70/2/16
f 72/2/28 77/2/28 71/2/28
f 73/2/29 78/2/29 72/2/29
f 74/2/12 79/2/12 73/2/12
f 69/2/30 80/2/30 74/2/30
f 76/2/26 78/2/26 80/2/26
f 89/3/1 85/3/1 81/3/1
f 82/3/31 93/3/31 81/3/31
f 83/3/15 94/3/15 82/3/15
f 84/3/32 95/3/32 83/3/32
f 85/3/33 96/3/33 84/3/33
f 86/3/17 97/3/17 85/3/17
f 87/3/34 98/3/34 86/3/34
f 88/3/35 99/3/35 87/3/35
f 89/3/11 100/3/11 88/3/11
f 90/3/36 101/3/36 89/3/36
f 91/3/37 102/3/37 90/3/37
f 92/3/13 103/3/13 91/3/13
f 81/3/38 104/3/38 92/3/38
f 96/3/26 100/3/26 104/3/26
f 1/1/1 8/1/1 7/1/1
f 7/1/1 6/1/1 1/1/1
f 6/1/1 5/1/1 1/1/1
f 5/1/1 4/1/1 3/1/1
f 3/1/1 2/1/1 5/1/1
f 2/1/2 10/1/2 9/1/2
f 2/1/3 3/1/3 11/1/3
f 4/1/4 12/1/4 11/1/4
f 5/1/5 13/1/5 12/1/5
f 6/1/6 14/1/6 13/1/6
f 6/1/7 7/1/7 15/1/7
f 8/1/8 16/1/8 15/1/8
f 1/1/9 9/1/9 16/1/9
f 10/1/10 18/1/10 17/1/10
f 11/1/11 19/1/11 18/1/11
f 12/1/12 20/1/12 19/1/12
f 13/1/13 21/1/13 20/1/13
f 14/1/14 22/1/14 21/1/14
f 15/1/15 23/1/15 22/1/15
f 16/1/16 24/1/16 23/1/16
f 9/1/17 17/1/17 24/1/17
f 18/1/18 26/1/18 25/1/18
f 19/1/19 27/1/19 26/1/19
f 20/1/20 28/1/20 27/1/20
f 20/1/21 21/1/21 29/1/21
f 22/1/22 30/1/22 29/1/22
f 23/1/23 31/1/23 30/1/23
f 24/1/24 32/1/24 31/1/24
f 24/1/25 17/1/25 25/1/25
f 32/1/26 25/1/26 30/1/26
f 25/1/26 26/1/26 30/1/26
f 26/1/26 27/1/26 28/1/26
f 28/1/26 29/1/26 26/1/26
f 29/1/26 30/1/26 26/1/26
f 33/2/1 38/2/1 37/2/1
f 37/2/1 36/2/1 35/2/1
f 35/2/1 34/2/1 33/2/1
f 34/2/27 40/2/27 39/2/27
f 35/2/16 41/2/16 40/2/16
f 36/2/28 42/2/28 41/2/28
f 37/2/29 43/2/29 42/2/29
f 38/2/12 44/2/12 43/2/12
f 33/2/30 39/2/30 44/2/30
f 44/2/26 39/2/26 40/2/26
f 40/2/26 41/2/26 42/2/26
f 42/2/26 43/2/26 44/2/26
f 45/2/1 50/2/1 49/2/1
f 49/2/1 48/2/1 47/2/1
f 47/2/1 46/2/1 45/2/1
f 46/2/27 52/2/27 51/2/27
f 47/2/16 53/2/16 52/2/16
f 48/2/28 54/2/28 53/2/28
f 49/2/29 55/2/29 54/2/29
f 50/2/12 56/2/12 55/2/12
f 45/2/30 51/2/30 56/2/30
f 56/2/26 51/2/26 52/2/26
f 52/2/26 53/2/26 54/2/26
f 54/2/26 55/2/26 56/2/26
f 57/2/1 62/2/1 61/2/1
f 61/2/1 60/2/1 59/2/1
f 59/2/1 58/2/1 57/2/1
f 58/2/27 64/2/27 63/2/27
f 59/2/16 65/2/16 64/2/16
f 60/2/28 66/2/28 65/2/28
f 61/2/29 67/2/29 66/2/29
f 62/2/12 68/2/12 67/2/12
f 57/2/30 63/2/30 68/2/30
f 68/2/26 63/2/26 64/2/26
f 64/2/26 65/2/26 66/2/26
f 66/2/26 67/2/26 68/2/26
f 69/2/1 74/2/1 73/2/1
f 73/2/1 72/2/1 71/2/1
f 71/2/1 70/2/1 69/2/1
f 70/2/27 76/2/27 75/2/27
f 71/2/16 77/2/16 76/2/16
f 72/2/28 78/2/28 77/2/28
f 73/2/29 79/2/29 78/2/29
f 74/2/12 80/2/12 79/2/12
f 69/2/30 75/2/30 80/2/30
f 80/2/26 75/2/26 76/2/26
f 76/2/26 77/2/26 78/2/26
f 78/2/26 79/2/26 80/2/26
f 81/3/1 92/3/1 91/3/1
f 91/3/1 90/3/1 89/3/1
f 89/3/1 88/3/1 87/3/1
f 87/3/1 86/3/1 85/3/1
f 85/3/1 84/3/1 83/3/1
f 83/3/1 82/3/1 81/3/1
f 81/3/1 91/3/1 89/3/1
f 89/3/1 87/3/1 85/3/1
f 85/3/1 83/3/1 81/3/1
f 82/3/31 94/3/31 93/3/31
f 83/3/15 95/3/15 94/3/15
f 84/3/32 96/3/32 95/3/32
f 85/3/33 97/3/33 96/3/33
f 86/3/17 98/3/17 97/3/17
f 87/3/34 99/3/34 98/3/34
f 88/3/35 100/3/35 99/3/35
f 89/3/11 101/3/11 100/3/11
f 90/3/36 102/3/36 101/3/36
f 91/3/37 103/3/37 102/3/37
f 92/3/13 104/3/13 103/3/13
f 81/3/38 93/3/38 104/3/38
f 104/3/26 93/3/26 94/3/26
f 94/3/26 95/3/26 96/3/26
f 96/3/26 97/3/26 98/3/26
f 98/3/26 99/3/26 100/3/26
f 100/3/26 101/3/26 102/3/26
f 102/3/26 103/3/26 104/3/26
f 104/3/26 94/3/26 96/3/26
f 96/3/26 98/3/26 100/3/26
f 100/3/26 102/3/26 104/3/26
o MOVING.010
v 0.000000 0.130000 -0.290000
v -0.170458 0.130000 -0.234615
v -0.275806 0.130000 -0.089615
v -0.275806 0.130000 0.089615
v -0.170458 0.130000 0.234615
v -0.000000 0.130000 0.290000
v 0.170458 0.130000 0.234615
v 0.275806 0.130000 0.089615
v 0.275806 0.130000 -0.089615
v 0.170458 0.130000 -0.234615
v 0.000000 0.470000 -0.290000
v -0.170458 0.470000 -0.234615
v -0.275806 0.470000 -0.089615
v -0.275806 0.470000 0.089615
v -0.170458 0.470000 0.234615
v -0.000000 0.470000 0.290000
v 0.170458 0.470000 0.234615
v 0.275806 0.470000 0.089615
v 0.275806 0.470000 -0.089615
v 0.170458 0.470000 -0.234615
v -0.255000 0.320000 0.260000
v 0.255000 0.320000 0.260000
v 0.280000 0.320000 0.235000
v 0.280000 0.320000 -0.235000
v 0.255000 0.320000 -0.260000
v -0.255000 0.320000 -0.260000
v -0.280000 0.320000 -0.235000
v -0.280000 0.320000 0.235000
v -0.280000 0.345000 0.285000
v 0.280000 0.345000 0.285000
v 0.305000 0.345000 0.260000
v 0.305000 0.345000 -0.260000
v 0.280000 0.345000 -0.285000
v -0.280000 0.345000 -0.285000
v -0.305000 0.345000 -0.260000
v -0.305000 0.345000 0.260000
v -0.280000 0.695000 0.285000
v 0.280000 0.695000 0.285000
v 0.305000 0.695000 0.260000
v 0.305000 0.695000 -0.260000
v 0.280000 0.695000 -0.285000
v -0.280000 0.695000 -0.285000
v -0.305000 0.695000 -0.260000
v -0.305000 0.695000 0.260000
v -0.255000 0.720000 0.260000
v 0.255000 0.720000 0.260000
v 0.280000 0.720000 0.235000
v 0.280000 0.720000 -0.235000
v 0.255000 0.720000 -0.260000
v -0.255000 0.720000 -0.260000
v -0.280000 0.720000 -0.235000
v -0.280000 0.720000 0.235000
v -0.230000 0.715000 0.150000
v 0.230000 0.715000 0.150000
v 0.230000 0.715000 -0.270000
v -0.230000 0.715000 -0.270000
v -0.230000 0.775000 0.150000
v 0.230000 0.775000 0.150000
v 0.230000 0.775000 -0.270000
v -0.230000 0.775000 -0.270000
v 0.000000 0.675000 0.360000
v -0.055840 0.656857 0.360000
v -0.090350 0.609357 0.360000
v -0.090350 0.550643 0.360000
v -0.055840 0.503143 0.360000
v -0.000000 0.485000 0.360000
v 0.055840 0.503143 0.360000
v 0.090350 0.550643 0.360000
v 0.090350 0.609357 0.360000
v 0.055840 0.656857 0.360000
v 0.000000 0.675000 1.880000
v -0.055840 0.656857 1.880000
v -0.090350 0.609357 1.880000
v -0.090350 0.550643 1.880000
v -0.055840 0.503143 1.880000
v -0.000000 0.485000 1.880000
v 0.055840 0.503143 1.880000
v 0.090350 0.550643 1.880000
v 0.090350 0.609357 1.880000
v 0.055840 0.656857 1.880000
v 0.000000 0.708250 1.845000
v -0.075383 0.683756 1.845000
v -0.121973 0.619631 1.845000
v -0.121973 0.540369 1.845000
v -0.075383 0.476244 1.845000
v -0.000000 0.451750 1.845000
v 0.075383 0.476244 1.845000
v 0.121973 0.540369 1.845000
v 0.121973 0.619631 1.845000
v 0.075383 0.683756 1.845000
v 0.000000 0.708250 1.935000
v -0.075383 0.683756 1.935000
v -0.121973 0.619631 1.935000
v -0.121973 0.540369 1.935000
v -0.075383 0.476244 1.935000
v -0.000000 0.451750 1.935000
v 0.075383 0.476244 1.935000
v 0.121973 0.540369 1.935000
v 0.121973 0.619631 1.935000
v 0.075383 0.683756 1.935000
v 0.000000 0.651250 1.938000
v -0.041880 0.637642 1.938000
v -0.067763 0.602017 1.938000
v -0.067763 0.557983 1.938000
v -0.041880 0.522358 1.938000
v -0.000000 0.508750 1.938000
v 0.041880 0.522358 1.938000
v 0.067763 0.557983 1.938000
v 0.067763 0.602017 1.938000
v 0.041880 0.637642 1.938000
v 0.000000 0.651250 1.952000
v -0.041880 0.637642 1.952000
v -0.067763 0.602017 1.952000
v -0.067763 0.557983 1.952000
v -0.041880 0.522358 1.952000
v -0.000000 0.508750 1.952000
v 0.041880 0.522358 1.952000
v 0.067763 0.557983 1.952000
v 0.067763 0.602017 1.952000
v 0.041880 0.637642 1.952000
v -0.170800 0.505000 1.610400
v -0.129200 0.505000 1.610400
v -0.119600 0.505000 1.600800
v -0.119600 0.505000 0.419200
v -0.129200 0.505000 0.409600
v -0.170800 0.505000 0.409600
v -0.180400 0.505000 0.419200
v -0.180400 0.505000 1.600800
v -0.180400 0.514600 1.620000
v -0.119600 0.514600 1.620000
v -0.110000 0.514600 1.610400
v -0.110000 0.514600 0.409600
v -0.119600 0.514600 0.400000
v -0.180400 0.514600 0.400000
v -0.190000 0.514600 0.409600
v -0.190000 0.514600 1.610400
v -0.180400 0.645400 1.620000
v -0.119600 0.645400 1.620000
v -0.110000 0.645400 1.610400
v -0.110000 0.645400 0.409600
v -0.119600 0.645400 0.400000
v -0.180400 0.645400 0.400000
v -0.190000 0.645400 0.409600
v -0.190000 0.645400 1.610400
v -0.170800 0.655000 1.610400
v -0.129200 0.655000 1.610400
v -0.119600 0.655000 1.600800
v -0.119600 0.655000 0.419200
v -0.129200 0.655000 0.409600
v -0.170800 0.655000 0.409600
v -0.180400 0.655000 0.419200
v -0.180400 0.655000 1.600800
v 0.129200 0.505000 1.610400
v 0.170800 0.505000 1.610400
v 0.180400 0.505000 1.600800
v 0.180400 0.505000 0.419200
v 0.170800 0.505000 0.409600
v 0.129200 0.505000 0.409600
v 0.119600 0.505000 0.419200
v 0.119600 0.505000 1.600800
v 0.119600 0.514600 1.620000
v 0.180400 0.514600 1.620000
v 0.190000 0.514600 1.610400
v 0.190000 0.514600 0.409600
v 0.180400 0.514600 0.400000
v 0.119600 0.514600 0.400000
v 0.110000 0.514600 0.409600
v 0.110000 0.514600 1.610400
v 0.119600 0.645400 1.620000
v 0.180400 0.645400 1.620000
v 0.190000 0.645400 1.610400
v 0.190000 0.645400 0.409600
v 0.180400 0.645400 0.400000
v 0.119600 0.645400 0.400000
v 0.110000 0.645400 0.409600
v 0.110000 0.645400 1.610400
v 0.129200 0.655000 1.610400
v 0.170800 0.655000 1.610400
v 0.180400 0.655000 1.600800
v 0.180400 0.655000 0.419200
v 0.170800 0.655000 0.409600
v 0.129200 0.655000 0.409600
v 0.119600 0.655000 0.419200
v 0.119600 0.655000 1.600800
v -0.465000 0.255000 0.105000
v -0.335000 0.255000 0.105000
v -0.310000 0.255000 0.080000
v -0.310000 0.255000 -0.240000
v -0.335000 0.255000 -0.265000
v -0.465000 0.255000 -0.265000
v -0.490000 0.255000 -0.240000
v -0.490000 0.255000 0.080000
v -0.490000 0.280000 0.130000
v -0.310000 0.280000 0.130000
v -0.285000 0.280000 0.105000
v -0.285000 0.280000 -0.265000
v -0.310000 0.280000 -0.290000
v -0.490000 0.280000 -0.290000
v -0.515000 0.280000 -0.265000
v -0.515000 0.280000 0.105000
v -0.490000 0.560000 0.130000
v -0.310000 0.560000 0.130000
v -0.285000 0.560000 0.105000
v -0.285000 0.560000 -0.265000
v -0.310000 0.560000 -0.290000
v -0.490000 0.560000 -0.290000
v -0.515000 0.560000 -0.265000
v -0.515000 0.560000 0.105000
v -0.465000 0.585000 0.105000
v -0.335000 0.585000 0.105000
v -0.310000 0.585000 0.080000
v -0.310000 0.585000 -0.240000
v -0.335000 0.585000 -0.265000
v -0.465000 0.585000 -0.265000
v -0.490000 0.585000 -0.240000
v -0.490000 0.585000 0.080000
v -0.532500 0.585000 0.147500
v -0.267500 0.585000 0.147500
v -0.267500 0.585000 -0.307500
v -0.532500 0.585000 -0.307500
v -0.532500 0.635000 0.147500
v -0.267500 0.635000 0.147500
v -0.267500 0.635000 -0.307500
v -0.532500 0.635000 -0.307500
v -0.486500 0.220000 0.155000
v -0.451500 0.220000 0.155000
v -0.451500 0.220000 -0.315000
v -0.486500 0.220000 -0.315000
v -0.486500 0.620000 0.155000
v -0.451500 0.620000 0.155000
v -0.451500 0.620000 -0.315000
v -0.486500 0.620000 -0.315000
v -0.495600 0.440900 0.167500
v -0.405600 0.440900 0.167500
v -0.405600 0.440900 0.132500
v -0.495600 0.440900 0.132500
v -0.495600 0.550900 0.167500
v -0.405600 0.550900 0.167500
v -0.405600 0.550900 0.132500
v -0.495600 0.550900 0.132500
v -0.348500 0.220000 0.155000
v -0.313500 0.220000 0.155000
v -0.313500 0.220000 -0.315000
v -0.348500 0.220000 -0.315000
v -0.348500 0.620000 0.155000
v -0.313500 0.620000 0.155000
v -0.313500 0.620000 -0.315000
v -0.348500 0.620000 -0.315000
v -0.394400 0.440900 0.167500
v -0.304400 0.440900 0.167500
v -0.304400 0.440900 0.132500
v -0.394400 0.440900 0.132500
v -0.394400 0.550900 0.167500
v -0.304400 0.550900 0.167500
v -0.304400 0.550900 0.132500
v -0.394400 0.550900 0.132500
v -0.500000 0.434600 0.192500
v -0.300000 0.434600 0.192500
v -0.300000 0.434600 0.147500
v -0.500000 0.434600 0.147500
v -0.500000 0.484600 0.192500
v -0.300000 0.484600 0.192500
v -0.300000 0.484600 0.147500
v -0.500000 0.484600 0.147500
v -0.222500 0.685000 0.127500
v -0.197500 0.685000 0.127500
v -0.197500 0.685000 0.072500
v -0.222500 0.685000 0.072500
v -0.222500 0.815000 0.127500
v -0.197500 0.815000 0.127500
v -0.197500 0.815000 0.072500
v -0.222500 0.815000 0.072500
v 0.197500 0.685000 0.127500
v 0.222500 0.685000 0.127500
v 0.222500 0.685000 0.072500
v 0.197500 0.685000 0.072500
v 0.197500 0.815000 0.127500
v 0.222500 0.815000 0.127500
v 0.222500 0.815000 0.072500
v 0.197500 0.815000 0.072500
v -0.210000 0.460000 0.547500
v 0.210000 0.460000 0.547500
v 0.210000 0.460000 0.492500
v -0.210000 0.460000 0.492500
v -0.210000 0.700000 0.547500
v 0.210000 0.700000 0.547500
v 0.210000 0.700000 0.492500
v -0.210000 0.700000 0.492500
v -0.252500 0.505000 0.560000
v -0.207500 0.505000 0.560000
v -0.207500 0.505000 0.480000
v -0.252500 0.505000 0.480000
v -0.252500 0.655000 0.560000
v -0.207500 0.655000 0.560000
v -0.207500 0.655000 0.480000
v -0.252500 0.655000 0.480000
v 0.207500 0.505000 0.560000
v 0.252500 0.505000 0.560000
v 0.252500 0.505000 0.480000
v 0.207500 0.505000 0.480000
v 0.207500 0.655000 0.560000
v 0.252500 0.655000 0.560000
v 0.252500 0.655000 0.480000
v 0.207500 0.655000 0.480000
v -0.210000 0.460000 0.747500
v 0.210000 0.460000 0.747500
v 0.210000 0.460000 0.692500
v -0.210000 0.460000 0.692500
v -0.210000 0.700000 0.747500
v 0.210000 0.700000 0.747500
v 0.210000 0.700000 0.692500
v -0.210000 0.700000 0.692500
v -0.252500 0.505000 0.760000
v -0.207500 0.505000 0.760000
v -0.207500 0.505000 0.680000
v -0.252500 0.505000 0.680000
v -0.252500 0.655000 0.760000
v -0.207500 0.655000 0.760000
v -0.207500 0.655000 0.680000
v -0.252500 0.655000 0.680000
v 0.207500 0.505000 0.760000
v 0.252500 0.505000 0.760000
v 0.252500 0.505000 0.680000
v 0.207500 0.505000 0.680000
v 0.207500 0.655000 0.760000
v 0.252500 0.655000 0.760000
v 0.252500 0.655000 0.680000
v 0.207500 0.655000 0.680000
v -0.210000 0.460000 0.947500
v 0.210000 0.460000 0.947500
v 0.210000 0.460000 0.892500
v -0.210000 0.460000 0.892500
v -0.210000 0.700000 0.947500
v 0.210000 0.700000 0.947500
v 0.210000 0.700000 0.892500
v -0.210000 0.700000 0.892500
v -0.252500 0.505000 0.960000
v -0.207500 0.505000 0.960000
v -0.207500 0.505000 0.880000
v -0.252500 0.505000 0.880000
v -0.252500 0.655000 0.960000
v -0.207500 0.655000 0.960000
v -0.207500 0.655000 0.880000
v -0.252500 0.655000 0.880000
v 0.207500 0.505000 0.960000
v 0.252500 0.505000 0.960000
v 0.252500 0.505000 0.880000
v 0.207500 0.505000 0.880000
v 0.207500 0.655000 0.960000
v 0.252500 0.655000 0.960000
v 0.252500 0.655000 0.880000
v 0.207500 0.655000 0.880000
v -0.210000 0.460000 1.147500
v 0.210000 0.460000 1.147500
v 0.210000 0.460000 1.092500
v -0.210000 0.460000 1.092500
v -0.210000 0.700000 1.147500
v 0.210000 0.700000 1.147500
v 0.210000 0.700000 1.092500
v -0.210000 0.700000 1.092500
v -0.252500 0.505000 1.160000
v -0.207500 0.505000 1.160000
v -0.207500 0.505000 1.080000
v -0.252500 0.505000 1.080000
v -0.252500 0.655000 1.160000
v -0.207500 0.655000 1.160000
v -0.207500 0.655000 1.080000
v -0.252500 0.655000 1.080000
v 0.207500 0.505000 1.160000
v 0.252500 0.505000 1.160000
v 0.252500 0.505000 1.080000
v 0.207500 0.505000 1.080000
v 0.207500 0.655000 1.160000
v 0.252500 0.655000 1.160000
v 0.252500 0.655000 1.080000
v 0.207500 0.655000 1.080000
v -0.210000 0.460000 1.347500
v 0.210000 0.460000 1.347500
v 0.210000 0.460000 1.292500
v -0.210000 0.460000 1.292500
v -0.210000 0.700000 1.347500
v 0.210000 0.700000 1.347500
v 0.210000 0.700000 1.292500
v -0.210000 0.700000 1.292500
v -0.252500 0.505000 1.360000
v -0.207500 0.505000 1.360000
v -0.207500 0.505000 1.280000
v -0.252500 0.505000 1.280000
v -0.252500 0.655000 1.360000
v -0.207500 0.655000 1.360000
v -0.207500 0.655000 1.280000
v -0.252500 0.655000 1.280000
v 0.207500 0.505000 1.360000
v 0.252500 0.505000 1.360000
v 0.252500 0.505000 1.280000
v 0.207500 0.505000 1.280000
v 0.207500 0.655000 1.360000
v 0.252500 0.655000 1.360000
v 0.252500 0.655000 1.280000
v 0.207500 0.655000 1.280000
v -0.210000 0.460000 1.547500
v 0.210000 0.460000 1.547500
v 0.210000 0.460000 1.492500
v -0.210000 0.460000 1.492500
v -0.210000 0.700000 1.547500
v 0.210000 0.700000 1.547500
v 0.210000 0.700000 1.492500
v -0.210000 0.700000 1.492500
v -0.252500 0.505000 1.560000
v -0.207500 0.505000 1.560000
v -0.207500 0.505000 1.480000
v -0.252500 0.505000 1.480000
v -0.252500 0.655000 1.560000
v -0.207500 0.655000 1.560000
v -0.207500 0.655000 1.480000
v -0.252500 0.655000 1.480000
v 0.207500 0.505000 1.560000
v 0.252500 0.505000 1.560000
v 0.252500 0.505000 1.480000
v 0.207500 0.505000 1.480000
v 0.207500 0.655000 1.560000
v 0.252500 0.655000 1.560000
v 0.252500 0.655000 1.480000
v 0.207500 0.655000 1.480000
v -0.130000 0.390000 -0.260000
v 0.130000 0.390000 -0.260000
v 0.155000 0.390000 -0.285000
v 0.155000 0.390000 -0.455000
v 0.130000 0.390000 -0.480000
v -0.130000 0.390000 -0.480000
v -0.155000 0.390000 -0.455000
v -0.155000 0.390000 -0.285000
v -0.155000 0.415000 -0.235000
v 0.155000 0.415000 -0.235000
v 0.180000 0.415000 -0.260000
v 0.180000 0.415000 -0.480000
v 0.155000 0.415000 -0.505000
v -0.155000 0.415000 -0.505000
v -0.180000 0.415000 -0.480000
v -0.180000 0.415000 -0.260000
v -0.155000 0.745000 -0.235000
v 0.155000 0.745000 -0.235000
v 0.180000 0.745000 -0.260000
v 0.180000 0.745000 -0.480000
v 0.155000 0.745000 -0.505000
v -0.155000 0.745000 -0.505000
v -0.180000 0.745000 -0.480000
v -0.180000 0.745000 -0.260000
v -0.130000 0.770000 -0.260000
v 0.130000 0.770000 -0.260000
v 0.155000 0.770000 -0.285000
v 0.155000 0.770000 -0.455000
v 0.130000 0.770000 -0.480000
v -0.130000 0.770000 -0.480000
v -0.155000 0.770000 -0.455000
v -0.155000 0.770000 -0.285000
vn -0.0000 -1.0000 -0.0000
vn -0.3090 -0.0000 -0.9511
vn -0.8090 -0.0000 -0.5878
vn -1.0000 -0.0000 -0.0000
vn -0.8090 -0.0000 0.5878
vn -0.3090 -0.0000 0.9511
vn 0.3090 -0.0000 0.9511
vn 0.8090 -0.0000 0.5878
vn 1.0000 -0.0000 -0.0000
vn 0.8090 -0.0000 -0.5878
vn 0.3090 -0.0000 -0.9511
vn -0.0000 1.0000 -0.0000
vn -0.0000 -0.7071 0.7071
vn 0.4082 -0.8165 0.4082
vn 0.7071 -0.7071 -0.0000
vn 0.4082 -0.8165 -0.4082
vn -0.0000 -0.7071 -0.7071
vn -0.4082 -0.8165 -0.4082
vn -0.7071 -0.7071 -0.0000
vn -0.4082 -0.8165 0.4082
vn -0.0000 -0.0000 1.0000
vn 0.7071 -0.0000 0.7071
vn 0.7071 -0.0000 -0.7071
vn -0.0000 -0.0000 -1.0000
vn -0.7071 -0.0000 -0.7071
vn -0.7071 -0.0000 0.7071
vn -0.0000 0.7071 0.7071
vn 0.4082 0.8165 0.4082
vn 0.7071 0.7071 -0.0000
vn 0.4082 0.8165 -0.4083
vn -0.0000 0.7071 -0.7071
vn -0.4082 0.8165 -0.4082
vn -0.7071 0.7071 -0.0000
vn -0.4082 0.8165 0.4083
vn -0.3090 0.9511 -0.0000
vn -0.8090 0.5878 -0.0000
vn -0.8090 -0.5878 -0.0000
vn -0.3090 -0.9511 -0.0000
vn 0.3090 -0.9511 -0.0000
vn 0.8090 -0.5878 -0.0000
vn 0.8090 0.5878 -0.0000
vn 0.3090 0.9511 -0.0000
vn 0.4083 -0.8165 -0.4082
vn 0.4082 0.8165 -0.4082
vn -0.4083 0.8165 -0.4082
vn -0.4083 0.8165 0.4082
vn -0.4082 0.8165 0.4082
vn 0.4082 0.8165 0.4083
vn -0.4082 0.8165 -0.4083
vn -0.4083 -0.8165 -0.4082
vn 0.4083 0.8165 0.4082
vn 0.4083 0.8165 -0.4082
vt 0.625000 0.125000
vt 0.125000 0.125000
vt 0.375000 0.125000
vt 0.875000 0.125000
vt 0.125000 0.625000
vt 0.625000 0.875000
vt 0.375000 0.875000
vt 0.125000 0.875000
vt 0.875000 0.375000
s 0
usemtl Military_Equipment_Palette
f 111/4/39 107/4/39 105/4/39
f 106/4/40 115/4/40 105/4/40
f 107/4/41 116/4/41 106/4/41
f 108/4/42 117/4/42 107/4/42
f 109/4/43 118/4/43 108/4/43
f 110/4/44 119/4/44 109/4/44
f 111/4/45 120/4/45 110/4/45
f 112/4/46 121/4/46 111/4/46
f 113/4/47 122/4/47 112/4/47
f 114/4/48 123/4/48 113/4/48
f 105/4/49 124/4/49 114/4/49
f 118/4/50 122/4/50 124/4/50
f 126/5/39 125/5/39 129/5/39
f 126/5/51 133/5/51 125/5/51
f 127/5/52 134/5/52 126/5/52
f 128/5/53 135/5/53 127/5/53
f 128/5/54 137/5/54 136/5/54
f 130/5/55 137/5/55 129/5/55
f 131/5/56 138/5/56 130/5/56
f 132/5/57 139/5/57 131/5/57
f 132/5/58 133/5/58 140/5/58
f 134/5/59 141/5/59 133/5/59
f 135/5/60 142/5/60 134/5/60
f 136/5/47 143/5/47 135/5/47
f 137/5/61 144/5/61 136/5/61
f 138/5/62 145/5/62 137/5/62
f 139/5/63 146/5/63 138/5/63
f 140/5/42 147/5/42 139/5/42
f 133/5/64 148/5/64 140/5/64
f 142/5/65 149/5/65 141/5/65
f 142/5/66 151/5/66 150/5/66
f 144/5/67 151/5/67 143/5/67
f 145/5/68 152/5/68 144/5/68
f 146/5/69 153/5/69 145/5/69
f 146/5/70 155/5/70 154/5/70
f 148/5/71 155/5/71 147/5/71
f 141/5/72 156/5/72 148/5/72
f 154/5/50 155/5/50 156/5/50
f 159/6/39 157/6/39 160/6/39
f 162/6/50 164/6/50 161/6/50
f 158/6/59 161/6/59 157/6/59
f 159/6/47 162/6/47 158/6/47
f 160/6/62 163/6/62 159/6/62
f 157/6/42 164/6/42 160/6/42
f 171/7/62 167/7/62 165/7/62
f 166/7/73 175/7/73 165/7/73
f 167/7/74 176/7/74 166/7/74
f 168/7/42 177/7/42 167/7/42
f 169/7/75 178/7/75 168/7/75
f 170/7/76 179/7/76 169/7/76
f 171/7/77 180/7/77 170/7/77
f 172/7/78 181/7/78 171/7/78
f 173/7/47 182/7/47 172/7/47
f 174/7/79 183/7/79 173/7/79
f 165/7/80 184/7/80 174/7/80
f 178/7/59 180/7/59 182/7/59
f 191/8/62 187/8/62 185/8/62
f 186/8/73 195/8/73 185/8/73
f 187/8/74 196/8/74 186/8/74
f 188/8/42 197/8/42 187/8/42
f 189/8/75 198/8/75 188/8/75
f 190/8/76 199/8/76 189/8/76
f 191/8/77 200/8/77 190/8/77
f 192/8/78 201/8/78 191/8/78
f 193/8/47 202/8/47 192/8/47
f 194/8/79 203/8/79 193/8/79
f 185/8/80 204/8/80 194/8/80
f 198/8/59 202/8/59 204/8/59
f 213/9/62 211/9/62 207/9/62
f 206/9/73 215/9/73 205/9/73
f 207/9/74 216/9/74 206/9/74
f 208/9/42 217/9/42 207/9/42
f 209/9/75 218/9/75 208/9/75
f 210/9/76 219/9/76 209/9/76
f 211/9/77 220/9/77 210/9/77
f 212/9/78 221/9/78 211/9/78
f 213/9/47 222/9/47 212/9/47
f 214/9/79 223/9/79 213/9/79
f 205/9/80 224/9/80 214/9/80
f 218/9/59 222/9/59 224/9/59
f 227/10/39 226/10/39 225/10/39
f 226/10/51 233/10/51 225/10/51
f 226/10/52 235/10/52 234/10/52
f 228/10/53 235/10/53 227/10/53
f 228/10/81 237/10/81 236/10/81
f 230/10/55 237/10/55 229/10/55
f 231/10/56 238/10/56 230/10/56
f 231/10/57 240/10/57 239/10/57
f 232/10/58 233/10/58 240/10/58
f 234/10/59 241/10/59 233/10/59
f 235/10/60 242/10/60 234/10/60
f 236/10/47 243/10/47 235/10/47
f 237/10/61 244/10/61 236/10/61
f 238/10/62 245/10/62 237/10/62
f 239/10/63 246/10/63 238/10/63
f 240/10/42 247/10/42 239/10/42
f 233/10/64 248/10/64 240/10/64
f 242/10/65 249/10/65 241/10/65
f 242/10/66 251/10/66 250/10/66
f 243/10/67 252/10/67 251/10/67
f 245/10/82 252/10/82 244/10/82
f 245/10/69 254/10/69 253/10/69
f 246/10/83 255/10/83 254/10/83
f 248/10/71 255/10/71 247/10/71
f 241/10/84 256/10/84 248/10/84
f 255/10/50 256/10/50 252/10/50
f 259/10/39 258/10/39 257/10/39
f 258/10/51 265/10/51 257/10/51
f 259/10/52 266/10/52 258/10/52
f 260/10/53 267/10/53 259/10/53
f 260/10/81 269/10/81 268/10/81
f 261/10/55 270/10/55 269/10/55
f 263/10/56 270/10/56 262/10/56
f 264/10/57 271/10/57 263/10/57
f 257/10/58 272/10/58 264/10/58
f 266/10/59 273/10/59 265/10/59
f 267/10/60 274/10/60 266/10/60
f 268/10/47 275/10/47 267/10/47
f 269/10/61 276/10/61 268/10/61
f 270/10/62 277/10/62 269/10/62
f 271/10/63 278/10/63 270/10/63
f 272/10/42 279/10/42 271/10/42
f 265/10/64 280/10/64 272/10/64
f 273/10/65 282/10/65 281/10/65
f 274/10/66 283/10/66 282/10/66
f 276/10/67 283/10/67 275/10/67
f 277/10/82 284/10/82 276/10/82
f 278/10/69 285/10/69 277/10/69
f 278/10/83 287/10/83 286/10/83
f 280/10/71 287/10/71 279/10/71
f 273/10/84 288/10/84 280/10/84
f 287/10/50 288/10/50 284/10/50
f 291/11/39 290/11/39 289/11/39
f 290/11/51 297/11/51 289/11/51
f 291/11/52 298/11/52 290/11/52
f 291/11/53 300/11/53 299/11/53
f 292/11/54 301/11/54 300/11/54
f 294/11/55 301/11/55 293/11/55
f 294/11/56 303/11/56 302/11/56
f 296/11/57 303/11/57 295/11/57
f 289/11/58 304/11/58 296/11/58
f 298/11/59 305/11/59 297/11/59
f 299/11/60 306/11/60 298/11/60
f 300/11/47 307/11/47 299/11/47
f 301/11/61 308/11/61 300/11/61
f 302/11/62 309/11/62 301/11/62
f 303/11/63 310/11/63 302/11/63
f 304/11/42 311/11/42 303/11/42
f 297/11/64 312/11/64 304/11/64
f 306/11/65 313/11/65 305/11/65
f 306/11/66 315/11/66 314/11/66
f 308/11/67 315/11/67 307/11/67
f 309/11/82 316/11/82 308/11/82
f 310/11/69 317/11/69 309/11/69
f 311/11/70 318/11/70 310/11/70
f 312/11/71 319/11/71 311/11/71
f 305/11/85 320/11/85 312/11/85
f 319/11/50 320/11/50 316/11/50
f 323/6/39 321/6/39 324/6/39
f 326/6/50 328/6/50 325/6/50
f 322/6/59 325/6/59 321/6/59
f 323/6/47 326/6/47 322/6/47
f 324/6/62 327/6/62 323/6/62
f 321/6/42 328/6/42 324/6/42
f 331/7/39 329/7/39 332/7/39
f 334/7/50 336/7/50 333/7/50
f 330/7/59 333/7/59 329/7/59
f 331/7/47 334/7/47 330/7/47
f 332/7/62 335/7/62 331/7/62
f 329/7/42 336/7/42 332/7/42
f 339/10/39 337/10/39 340/10/39
f 342/10/50 344/10/50 341/10/50
f 338/10/59 341/10/59 337/10/59
f 339/10/47 342/10/47 338/10/47
f 340/10/62 343/10/62 339/10/62
f 337/10/42 344/10/42 340/10/42
f 347/7/39 345/7/39 348/7/39
f 350/7/50 352/7/50 349/7/50
f 346/7/59 349/7/59 345/7/59
f 347/7/47 350/7/47 346/7/47
f 348/7/62 351/7/62 347/7/62
f 345/7/42 352/7/42 348/7/42
f 355/10/39 353/10/39 356/10/39
f 358/10/50 360/10/50 357/10/50
f 354/10/59 357/10/59 353/10/59
f 355/10/47 358/10/47 354/10/47
f 356/10/62 359/10/62 355/10/62
f 353/10/42 360/10/42 356/10/42
f 363/8/39 361/8/39 364/8/39
f 366/8/50 368/8/50 365/8/50
f 362/8/59 365/8/59 361/8/59
f 363/8/47 366/8/47 362/8/47
f 364/8/62 367/8/62 363/8/62
f 361/8/42 368/8/42 364/8/42
f 371/7/39 369/7/39 372/7/39
f 374/7/50 376/7/50 373/7/50
f 370/7/59 373/7/59 369/7/59
f 371/7/47 374/7/47 370/7/47
f 372/7/62 375/7/62 371/7/62
f 369/7/42 376/7/42 372/7/42
f 379/7/39 377/7/39 380/7/39
f 382/7/50 384/7/50 381/7/50
f 378/7/59 381/7/59 377/7/59
f 379/7/47 382/7/47 378/7/47
f 380/7/62 383/7/62 379/7/62
f 377/7/42 384/7/42 380/7/42
f 387/4/39 385/4/39 388/4/39
f 390/4/50 392/4/50 389/4/50
f 386/4/59 389/4/59 385/4/59
f 387/4/47 390/4/47 386/4/47
f 388/4/62 391/4/62 387/4/62
f 385/4/42 392/4/42 388/4/42
f 395/12/39 393/12/39 396/12/39
f 398/12/50 400/12/50 397/12/50
f 394/12/59 397/12/59 393/12/59
f 395/12/47 398/12/47 394/12/47
f 396/12/62 399/12/62 395/12/62
f 393/12/42 400/12/42 396/12/42
f 403/12/39 401/12/39 404/12/39
f 406/12/50 408/12/50 405/12/50
f 402/12/59 405/12/59 401/12/59
f 403/12/47 406/12/47 402/12/47
f 404/12/62 407/12/62 403/12/62
f 401/12/42 408/12/42 404/12/42
f 411/4/39 409/4/39 412/4/39
f 414/4/50 416/4/50 413/4/50
f 410/4/59 413/4/59 409/4/59
f 411/4/47 414/4/47 410/4/47
f 412/4/62 415/4/62 411/4/62
f 409/4/42 416/4/42 412/4/42
f 419/12/39 417/12/39 420/12/39
f 422/12/50 424/12/50 421/12/50
f 418/12/59 421/12/59 417/12/59
f 419/12/47 422/12/47 418/12/47
f 420/12/62 423/12/62 419/12/62
f 417/12/42 424/12/42 420/12/42
f 427/12/39 425/12/39 428/12/39
f 430/12/50 432/12/50 429/12/50
f 426/12/59 429/12/59 425/12/59
f 427/12/47 430/12/47 426/12/47
f 428/12/62 431/12/62 427/12/62
f 425/12/42 432/12/42 428/12/42
f 435/4/39 433/4/39 436/4/39
f 438/4/50 440/4/50 437/4/50
f 434/4/59 437/4/59 433/4/59
f 435/4/47 438/4/47 434/4/47
f 436/4/62 439/4/62 435/4/62
f 433/4/42 440/4/42 436/4/42
f 443/12/39 441/12/39 444/12/39
f 446/12/50 448/12/50 445/12/50
f 442/12/59 445/12/59 441/12/59
f 443/12/47 446/12/47 442/12/47
f 444/12/62 447/12/62 443/12/62
f 441/12/42 448/12/42 444/12/42
f 451/12/39 449/12/39 452/12/39
f 454/12/50 456/12/50 453/12/50
f 450/12/59 453/12/59 449/12/59
f 451/12/47 454/12/47 450/12/47
f 452/12/62 455/12/62 451/12/62
f 449/12/42 456/12/42 452/12/42
f 459/4/39 457/4/39 460/4/39
f 462/4/50 464/4/50 461/4/50
f 458/4/59 461/4/59 457/4/59
f 459/4/47 462/4/47 458/4/47
f 460/4/62 463/4/62 459/4/62
f 457/4/42 464/4/42 460/4/42
f 467/12/39 465/12/39 468/12/39
f 470/12/50 472/12/50 469/12/50
f 466/12/59 469/12/59 465/12/59
f 467/12/47 470/12/47 466/12/47
f 468/12/62 471/12/62 467/12/62
f 465/12/42 472/12/42 468/12/42
f 475/12/39 473/12/39 476/12/39
f 478/12/50 480/12/50 477/12/50
f 474/12/59 477/12/59 473/12/59
f 475/12/47 478/12/47 474/12/47
f 476/12/62 479/12/62 475/12/62
f 473/12/42 480/12/42 476/12/42
f 483/4/39 481/4/39 484/4/39
f 486/4/50 488/4/50 485/4/50
f 482/4/59 485/4/59 481/4/59
f 483/4/47 486/4/47 482/4/47
f 484/4/62 487/4/62 483/4/62
f 481/4/42 488/4/42 484/4/42
f 491/12/39 489/12/39 492/12/39
f 494/12/50 496/12/50 493/12/50
f 490/12/59 493/12/59 489/12/59
f 491/12/47 494/12/47 490/12/47
f 492/12/62 495/12/62 491/12/62
f 489/12/42 496/12/42 492/12/42
f 499/12/39 497/12/39 500/12/39
f 502/12/50 504/12/50 501/12/50
f 498/12/59 501/12/59 497/12/59
f 499/12/47 502/12/47 498/12/47
f 500/12/62 503/12/62 499/12/62
f 497/12/42 504/12/42 500/12/42
f 507/4/39 505/4/39 508/4/39
f 510/4/50 512/4/50 509/4/50
f 506/4/59 509/4/59 505/4/59
f 507/4/47 510/4/47 506/4/47
f 508/4/62 511/4/62 507/4/62
f 505/4/42 512/4/42 508/4/42
f 515/12/39 513/12/39 516/12/39
f 518/12/50 520/12/50 517/12/50
f 514/12/59 517/12/59 513/12/59
f 515/12/47 518/12/47 514/12/47
f 516/12/62 519/12/62 515/12/62
f 513/12/42 520/12/42 516/12/42
f 523/12/39 521/12/39 524/12/39
f 526/12/50 528/12/50 525/12/50
f 522/12/59 525/12/59 521/12/59
f 523/12/47 526/12/47 522/12/47
f 524/12/62 527/12/62 523/12/62
f 521/12/42 528/12/42 524/12/42
f 530/8/39 529/8/39 533/8/39
f 530/8/51 537/8/51 529/8/51
f 531/8/52 538/8/52 530/8/52
f 531/8/53 540/8/53 539/8/53
f 532/8/54 541/8/54 540/8/54
f 534/8/55 541/8/55 533/8/55
f 535/8/56 542/8/56 534/8/56
f 536/8/57 543/8/57 535/8/57
f 529/8/58 544/8/58 536/8/58
f 538/8/59 545/8/59 537/8/59
f 539/8/60 546/8/60 538/8/60
f 540/8/47 547/8/47 539/8/47
f 541/8/61 548/8/61 540/8/61
f 542/8/62 549/8/62 541/8/62
f 543/8/63 550/8/63 542/8/63
f 544/8/42 551/8/42 543/8/42
f 537/8/64 552/8/64 544/8/64
f 546/8/65 553/8/65 545/8/65
f 546/8/66 555/8/66 554/8/66
f 548/8/67 555/8/67 547/8/67
f 549/8/82 556/8/82 548/8/82
f 550/8/69 557/8/69 549/8/69
f 550/8/70 559/8/70 558/8/70
f 552/8/71 559/8/71 551/8/71
f 545/8/85 560/8/85 552/8/85
f 558/8/50 559/8/50 560/8/50
f 105/4/39 114/4/39 111/4/39
f 114/4/39 113/4/39 111/4/39
f 113/4/39 112/4/39 111/4/39
f 111/4/39 110/4/39 109/4/39
f 109/4/39 108/4/39 111/4/39
f 108/4/39 107/4/39 111/4/39
f 107/4/39 106/4/39 105/4/39
f 106/4/40 116/4/40 115/4/40
f 107/4/41 117/4/41 116/4/41
f 108/4/42 118/4/42 117/4/42
f 109/4/43 119/4/43 118/4/43
f 110/4/44 120/4/44 119/4/44
f 111/4/45 121/4/45 120/4/45
f 112/4/46 122/4/46 121/4/46
f 113/4/47 123/4/47 122/4/47
f 114/4/48 124/4/48 123/4/48
f 105/4/49 115/4/49 124/4/49
f 124/4/50 115/4/50 116/4/50
f 116/4/50 117/4/50 124/4/50
f 117/4/50 118/4/50 124/4/50
f 118/4/50 119/4/50 120/4/50
f 120/4/50 121/4/50 118/4/50
f 121/4/50 122/4/50 118/4/50
f 122/4/50 123/4/50 124/4/50
f 125/5/39 132/5/39 131/5/39
f 131/5/39 130/5/39 125/5/39
f 130/5/39 129/5/39 125/5/39
f 129/5/39 128/5/39 127/5/39
f 127/5/39 126/5/39 129/5/39
f 126/5/51 134/5/51 133/5/51
f 127/5/52 135/5/52 134/5/52
f 128/5/53 136/5/53 135/5/53
f 128/5/54 129/5/54 137/5/54
f 130/5/55 138/5/55 137/5/55
f 131/5/56 139/5/56 138/5/56
f 132/5/57 140/5/57 139/5/57
f 132/5/58 125/5/58 133/5/58
f 134/5/59 142/5/59 141/5/59
f 135/5/60 143/5/60 142/5/60
f 136/5/47 144/5/47 143/5/47
f 137/5/61 145/5/61 144/5/61
f 138/5/62 146/5/62 145/5/62
f 139/5/63 147/5/63 146/5/63
f 140/5/42 148/5/42 147/5/42
f 133/5/64 141/5/64 148/5/64
f 142/5/65 150/5/65 149/5/65
f 142/5/86 143/5/86 151/5/86
f 144/5/67 152/5/67 151/5/67
f 145/5/82 153/5/82 152/5/82
f 146/5/69 154/5/69 153/5/69
f 146/5/87 147/5/87 155/5/87
f 148/5/71 156/5/71 155/5/71
f 141/5/85 149/5/85 156/5/85
f 156/5/50 149/5/50 154/5/50
f 149/5/50 150/5/50 154/5/50
f 150/5/50 151/5/50 152/5/50
f 152/5/50 153/5/50 150/5/50
f 153/5/50 154/5/50 150/5/50
f 159/6/39 158/6/39 157/6/39
f 162/6/50 163/6/50 164/6/50
f 158/6/59 162/6/59 161/6/59
f 159/6/47 163/6/47 162/6/47
f 160/6/62 164/6/62 163/6/62
f 157/6/42 161/6/42 164/6/42
f 165/7/62 174/7/62 173/7/62
f 173/7/62 172/7/62 165/7/62
f 172/7/62 171/7/62 165/7/62
f 171/7/62 170/7/62 167/7/62
f 170/7/62 169/7/62 167/7/62
f 169/7/62 168/7/62 167/7/62
f 167/7/62 166/7/62 165/7/62
f 166/7/73 176/7/73 175/7/73
f 167/7/74 177/7/74 176/7/74
f 168/7/42 178/7/42 177/7/42
f 169/7/75 179/7/75 178/7/75
f 170/7/76 180/7/76 179/7/76
f 171/7/77 181/7/77 180/7/77
f 172/7/78 182/7/78 181/7/78
f 173/7/47 183/7/47 182/7/47
f 174/7/79 184/7/79 183/7/79
f 165/7/80 175/7/80 184/7/80
f 184/7/59 175/7/59 178/7/59
f 175/7/59 176/7/59 178/7/59
f 176/7/59 177/7/59 178/7/59
f 178/7/59 179/7/59 180/7/59
f 180/7/59 181/7/59 182/7/59
f 182/7/59 183/7/59 178/7/59
f 183/7/59 184/7/59 178/7/59
f 185/8/62 194/8/62 191/8/62
f 194/8/62 193/8/62 191/8/62
f 193/8/62 192/8/62 191/8/62
f 191/8/62 190/8/62 189/8/62
f 189/8/62 188/8/62 187/8/62
f 187/8/62 186/8/62 185/8/62
f 191/8/62 189/8/62 187/8/62
f 186/8/73 196/8/73 195/8/73
f 187/8/74 197/8/74 196/8/74
f 188/8/42 198/8/42 197/8/42
f 189/8/75 199/8/75 198/8/75
f 190/8/76 200/8/76 199/8/76
f 191/8/77 201/8/77 200/8/77
f 192/8/78 202/8/78 201/8/78
f 193/8/47 203/8/47 202/8/47
f 194/8/79 204/8/79 203/8/79
f 185/8/80 195/8/80 204/8/80
f 204/8/59 195/8/59 196/8/59
f 196/8/59 197/8/59 198/8/59
f 198/8/59 199/8/59 202/8/59
f 199/8/59 200/8/59 202/8/59
f 200/8/59 201/8/59 202/8/59
f 202/8/59 203/8/59 204/8/59
f 204/8/59 196/8/59 198/8/59
f 205/9/62 214/9/62 213/9/62
f 213/9/62 212/9/62 211/9/62
f 211/9/62 210/9/62 209/9/62
f 209/9/62 208/9/62 211/9/62
f 208/9/62 207/9/62 211/9/62
f 207/9/62 206/9/62 205/9/62
f 205/9/62 213/9/62 207/9/62
f 206/9/73 216/9/73 215/9/73
f 207/9/74 217/9/74 216/9/74
f 208/9/42 218/9/42 217/9/42
f 209/9/75 219/9/75 218/9/75
f 210/9/76 220/9/76 219/9/76
f 211/9/77 221/9/77 220/9/77
f 212/9/78 222/9/78 221/9/78
f 213/9/47 223/9/47 222/9/47
f 214/9/79 224/9/79 223/9/79
f 205/9/80 215/9/80 224/9/80
f 224/9/59 215/9/59 216/9/59
f 216/9/59 217/9/59 224/9/59
f 217/9/59 218/9/59 224/9/59
f 218/9/59 219/9/59 220/9/59
f 220/9/59 221/9/59 218/9/59
f 221/9/59 222/9/59 218/9/59
f 222/9/59 223/9/59 224/9/59
f 225/10/39 232/10/39 227/10/39
f 232/10/39 231/10/39 227/10/39
f 231/10/39 230/10/39 229/10/39
f 229/10/39 228/10/39 231/10/39
f 228/10/39 227/10/39 231/10/39
f 226/10/51 234/10/51 233/10/51
f 226/10/52 227/10/52 235/10/52
f 228/10/53 236/10/53 235/10/53
f 228/10/54 229/10/54 237/10/54
f 230/10/55 238/10/55 237/10/55
f 231/10/88 239/10/88 238/10/88
f 231/10/57 232/10/57 240/10/57
f 232/10/58 225/10/58 233/10/58
f 234/10/59 242/10/59 241/10/59
f 235/10/60 243/10/60 242/10/60
f 236/10/47 244/10/47 243/10/47
f 237/10/61 245/10/61 244/10/61
f 238/10/62 246/10/62 245/10/62
f 239/10/63 247/10/63 246/10/63
f 240/10/42 248/10/42 247/10/42
f 233/10/64 241/10/64 248/10/64
f 242/10/65 250/10/65 249/10/65
f 242/10/89 243/10/89 251/10/89
f 243/10/67 244/10/67 252/10/67
f 245/10/90 253/10/90 252/10/90
f 245/10/69 246/10/69 254/10/69
f 246/10/70 247/10/70 255/10/70
f 248/10/71 256/10/71 255/10/71
f 241/10/85 249/10/85 256/10/85
f 256/10/50 249/10/50 250/10/50
f 250/10/50 251/10/50 256/10/50
f 251/10/50 252/10/50 256/10/50
f 252/10/50 253/10/50 254/10/50
f 254/10/50 255/10/50 252/10/50
f 257/10/39 264/10/39 259/10/39
f 264/10/39 263/10/39 259/10/39
f 263/10/39 262/10/39 261/10/39
f 261/10/39 260/10/39 263/10/39
f 260/10/39 259/10/39 263/10/39
f 258/10/51 266/10/51 265/10/51
f 259/10/52 267/10/52 266/10/52
f 260/10/53 268/10/53 267/10/53
f 260/10/54 261/10/54 269/10/54
f 261/10/55 262/10/55 270/10/55
f 263/10/88 271/10/88 270/10/88
f 264/10/57 272/10/57 271/10/57
f 257/10/58 265/10/58 272/10/58
f 266/10/59 274/10/59 273/10/59
f 267/10/60 275/10/60 274/10/60
f 268/10/47 276/10/47 275/10/47
f 269/10/61 277/10/61 276/10/61
f 270/10/62 278/10/62 277/10/62
f 271/10/63 279/10/63 278/10/63
f 272/10/42 280/10/42 279/10/42
f 265/10/64 273/10/64 280/10/64
f 273/10/65 274/10/65 282/10/65
f 274/10/89 275/10/89 283/10/89
f 276/10/67 284/10/67 283/10/67
f 277/10/90 285/10/90 284/10/90
f 278/10/69 286/10/69 285/10/69
f 278/10/70 279/10/70 287/10/70
f 280/10/71 288/10/71 287/10/71
f 273/10/85 281/10/85 288/10/85
f 288/10/50 281/10/50 282/10/50
f 282/10/50 283/10/50 288/10/50
f 283/10/50 284/10/50 288/10/50
f 284/10/50 285/10/50 286/10/50
f 286/10/50 287/10/50 284/10/50
f 289/11/39 296/11/39 291/11/39
f 296/11/39 295/11/39 291/11/39
f 295/11/39 294/11/39 293/11/39
f 293/11/39 292/11/39 295/11/39
f 292/11/39 291/11/39 295/11/39
f 290/11/51 298/11/51 297/11/51
f 291/11/52 299/11/52 298/11/52
f 291/11/53 292/11/53 300/11/53
f 292/11/54 293/11/54 301/11/54
f 294/11/55 302/11/55 301/11/55
f 294/11/56 295/11/56 303/11/56
f 296/11/57 304/11/57 303/11/57
f 289/11/58 297/11/58 304/11/58
f 298/11/59 306/11/59 305/11/59
f 299/11/60 307/11/60 306/11/60
f 300/11/47 308/11/47 307/11/47
f 301/11/61 309/11/61 308/11/61
f 302/11/62 310/11/62 309/11/62
f 303/11/63 311/11/63 310/11/63
f 304/11/42 312/11/42 311/11/42
f 297/11/64 305/11/64 312/11/64
f 306/11/65 314/11/65 313/11/65
f 306/11/66 307/11/66 315/11/66
f 308/11/67 316/11/67 315/11/67
f 309/11/82 317/11/82 316/11/82
f 310/11/69 318/11/69 317/11/69
f 311/11/70 319/11/70 318/11/70
f 312/11/71 320/11/71 319/11/71
f 305/11/85 313/11/85 320/11/85
f 320/11/50 313/11/50 314/11/50
f 314/11/50 315/11/50 320/11/50
f 315/11/50 316/11/50 320/11/50
f 316/11/50 317/11/50 318/11/50
f 318/11/50 319/11/50 316/11/50
f 323/6/39 322/6/39 321/6/39
f 326/6/50 327/6/50 328/6/50
f 322/6/59 326/6/59 325/6/59
f 323/6/47 327/6/47 326/6/47
f 324/6/62 328/6/62 327/6/62
f 321/6/42 325/6/42 328/6/42
f 331/7/39 330/7/39 329/7/39
f 334/7/50 335/7/50 336/7/50
f 330/7/59 334/7/59 333/7/59
f 331/7/47 335/7/47 334/7/47
f 332/7/62 336/7/62 335/7/62
f 329/7/42 333/7/42 336/7/42
f 339/10/39 338/10/39 337/10/39
f 342/10/50 343/10/50 344/10/50
f 338/10/59 342/10/59 341/10/59
f 339/10/47 343/10/47 342/10/47
f 340/10/62 344/10/62 343/10/62
f 337/10/42 341/10/42 344/10/42
f 347/7/39 346/7/39 345/7/39
f 350/7/50 351/7/50 352/7/50
f 346/7/59 350/7/59 349/7/59
f 347/7/47 351/7/47 350/7/47
f 348/7/62 352/7/62 351/7/62
f 345/7/42 349/7/42 352/7/42
f 355/10/39 354/10/39 353/10/39
f 358/10/50 359/10/50 360/10/50
f 354/10/59 358/10/59 357/10/59
f 355/10/47 359/10/47 358/10/47
f 356/10/62 360/10/62 359/10/62
f 353/10/42 357/10/42 360/10/42
f 363/8/39 362/8/39 361/8/39
f 366/8/50 367/8/50 368/8/50
f 362/8/59 366/8/59 365/8/59
f 363/8/47 367/8/47 366/8/47
f 364/8/62 368/8/62 367/8/62
f 361/8/42 365/8/42 368/8/42
f 371/7/39 370/7/39 369/7/39
f 374/7/50 375/7/50 376/7/50
f 370/7/59 374/7/59 373/7/59
f 371/7/47 375/7/47 374/7/47
f 372/7/62 376/7/62 375/7/62
f 369/7/42 373/7/42 376/7/42
f 379/7/39 378/7/39 377/7/39
f 382/7/50 383/7/50 384/7/50
f 378/7/59 382/7/59 381/7/59
f 379/7/47 383/7/47 382/7/47
f 380/7/62 384/7/62 383/7/62
f 377/7/42 381/7/42 384/7/42
f 387/4/39 386/4/39 385/4/39
f 390/4/50 391/4/50 392/4/50
f 386/4/59 390/4/59 389/4/59
f 387/4/47 391/4/47 390/4/47
f 388/4/62 392/4/62 391/4/62
f 385/4/42 389/4/42 392/4/42
f 395/12/39 394/12/39 393/12/39
f 398/12/50 399/12/50 400/12/50
f 394/12/59 398/12/59 397/12/59
f 395/12/47 399/12/47 398/12/47
f 396/12/62 400/12/62 399/12/62
f 393/12/42 397/12/42 400/12/42
f 403/12/39 402/12/39 401/12/39
f 406/12/50 407/12/50 408/12/50
f 402/12/59 406/12/59 405/12/59
f 403/12/47 407/12/47 406/12/47
f 404/12/62 408/12/62 407/12/62
f 401/12/42 405/12/42 408/12/42
f 411/4/39 410/4/39 409/4/39
f 414/4/50 415/4/50 416/4/50
f 410/4/59 414/4/59 413/4/59
f 411/4/47 415/4/47 414/4/47
f 412/4/62 416/4/62 415/4/62
f 409/4/42 413/4/42 416/4/42
f 419/12/39 418/12/39 417/12/39
f 422/12/50 423/12/50 424/12/50
f 418/12/59 422/12/59 421/12/59
f 419/12/47 423/12/47 422/12/47
f 420/12/62 424/12/62 423/12/62
f 417/12/42 421/12/42 424/12/42
f 427/12/39 426/12/39 425/12/39
f 430/12/50 431/12/50 432/12/50
f 426/12/59 430/12/59 429/12/59
f 427/12/47 431/12/47 430/12/47
f 428/12/62 432/12/62 431/12/62
f 425/12/42 429/12/42 432/12/42
f 435/4/39 434/4/39 433/4/39
f 438/4/50 439/4/50 440/4/50
f 434/4/59 438/4/59 437/4/59
f 435/4/47 439/4/47 438/4/47
f 436/4/62 440/4/62 439/4/62
f 433/4/42 437/4/42 440/4/42
f 443/12/39 442/12/39 441/12/39
f 446/12/50 447/12/50 448/12/50
f 442/12/59 446/12/59 445/12/59
f 443/12/47 447/12/47 446/12/47
f 444/12/62 448/12/62 447/12/62
f 441/12/42 445/12/42 448/12/42
f 451/12/39 450/12/39 449/12/39
f 454/12/50 455/12/50 456/12/50
f 450/12/59 454/12/59 453/12/59
f 451/12/47 455/12/47 454/12/47
f 452/12/62 456/12/62 455/12/62
f 449/12/42 453/12/42 456/12/42
f 459/4/39 458/4/39 457/4/39
f 462/4/50 463/4/50 464/4/50
f 458/4/59 462/4/59 461/4/59
f 459/4/47 463/4/47 462/4/47
f 460/4/62 464/4/62 463/4/62
f 457/4/42 461/4/42 464/4/42
f 467/12/39 466/12/39 465/12/39
f 470/12/50 471/12/50 472/12/50
f 466/12/59 470/12/59 469/12/59
f 467/12/47 471/12/47 470/12/47
f 468/12/62 472/12/62 471/12/62
f 465/12/42 469/12/42 472/12/42
f 475/12/39 474/12/39 473/12/39
f 478/12/50 479/12/50 480/12/50
f 474/12/59 478/12/59 477/12/59
f 475/12/47 479/12/47 478/12/47
f 476/12/62 480/12/62 479/12/62
f 473/12/42 477/12/42 480/12/42
f 483/4/39 482/4/39 481/4/39
f 486/4/50 487/4/50 488/4/50
f 482/4/59 486/4/59 485/4/59
f 483/4/47 487/4/47 486/4/47
f 484/4/62 488/4/62 487/4/62
f 481/4/42 485/4/42 488/4/42
f 491/12/39 490/12/39 489/12/39
f 494/12/50 495/12/50 496/12/50
f 490/12/59 494/12/59 493/12/59
f 491/12/47 495/12/47 494/12/47
f 492/12/62 496/12/62 495/12/62
f 489/12/42 493/12/42 496/12/42
f 499/12/39 498/12/39 497/12/39
f 502/12/50 503/12/50 504/12/50
f 498/12/59 502/12/59 501/12/59
f 499/12/47 503/12/47 502/12/47
f 500/12/62 504/12/62 503/12/62
f 497/12/42 501/12/42 504/12/42
f 507/4/39 506/4/39 505/4/39
f 510/4/50 511/4/50 512/4/50
f 506/4/59 510/4/59 509/4/59
f 507/4/47 511/4/47 510/4/47
f 508/4/62 512/4/62 511/4/62
f 505/4/42 509/4/42 512/4/42
f 515/12/39 514/12/39 513/12/39
f 518/12/50 519/12/50 520/12/50
f 514/12/59 518/12/59 517/12/59
f 515/12/47 519/12/47 518/12/47
f 516/12/62 520/12/62 519/12/62
f 513/12/42 517/12/42 520/12/42
f 523/12/39 522/12/39 521/12/39
f 526/12/50 527/12/50 528/12/50
f 522/12/59 526/12/59 525/12/59
f 523/12/47 527/12/47 526/12/47
f 524/12/62 528/12/62 527/12/62
f 521/12/42 525/12/42 528/12/42
f 529/8/39 536/8/39 535/8/39
f 535/8/39 534/8/39 529/8/39
f 534/8/39 533/8/39 529/8/39
f 533/8/39 532/8/39 531/8/39
f 531/8/39 530/8/39 533/8/39
f 530/8/51 538/8/51 537/8/51
f 531/8/52 539/8/52 538/8/52
f 531/8/53 532/8/53 540/8/53
f 532/8/54 533/8/54 541/8/54
f 534/8/55 542/8/55 541/8/55
f 535/8/56 543/8/56 542/8/56
f 536/8/57 544/8/57 543/8/57
f 529/8/58 537/8/58 544/8/58
f 538/8/59 546/8/59 545/8/59
f 539/8/60 547/8/60 546/8/60
f 540/8/47 548/8/47 547/8/47
f 541/8/61 549/8/61 548/8/61
f 542/8/62 550/8/62 549/8/62
f 543/8/63 551/8/63 550/8/63
f 544/8/42 552/8/42 551/8/42
f 537/8/64 545/8/64 552/8/64
f 546/8/65 554/8/65 553/8/65
f 546/8/66 547/8/66 555/8/66
f 548/8/67 556/8/67 555/8/67
f 549/8/82 557/8/82 556/8/82
f 550/8/69 558/8/69 557/8/69
f 550/8/70 551/8/70 559/8/70
f 552/8/71 560/8/71 559/8/71
f 545/8/85 553/8/85 560/8/85
f 560/8/50 553/8/50 558/8/50
f 553/8/50 554/8/50 558/8/50
f 554/8/50 555/8/50 556/8/50
f 556/8/50 557/8/50 554/8/50
f 557/8/50 558/8/50 554/8/50
