# Blender 5.2.1 LTS
# www.blender.org
mtllib reinforced_hitch.mtl
o BASE.008
v -0.361200 0.000000 0.350600
v 0.361200 0.000000 0.350600
v 0.375600 0.000000 0.336200
v 0.375600 0.000000 -0.336200
v 0.361200 0.000000 -0.350600
v -0.361200 0.000000 -0.350600
v -0.375600 0.000000 -0.336200
v -0.375600 0.000000 0.336200
v -0.375600 0.014400 0.365000
v 0.375600 0.014400 0.365000
v 0.390000 0.014400 0.350600
v 0.390000 0.014400 -0.350600
v 0.375600 0.014400 -0.365000
v -0.375600 0.014400 -0.365000
v -0.390000 0.014400 -0.350600
v -0.390000 0.014400 0.350600
v -0.375600 0.105600 0.365000
v 0.375600 0.105600 0.365000
v 0.390000 0.105600 0.350600
v 0.390000 0.105600 -0.350600
v 0.375600 0.105600 -0.365000
v -0.375600 0.105600 -0.365000
v -0.390000 0.105600 -0.350600
v -0.390000 0.105600 0.350600
v -0.361200 0.120000 0.350600
v 0.361200 0.120000 0.350600
v 0.375600 0.120000 0.336200
v 0.375600 0.120000 -0.336200
v 0.361200 0.120000 -0.350600
v -0.361200 0.120000 -0.350600
v -0.375600 0.120000 -0.336200
v -0.375600 0.120000 0.336200
v -0.300000 0.121000 -0.302000
v -0.327713 0.121000 -0.286000
v -0.327713 0.121000 -0.254000
v -0.300000 0.121000 -0.238000
v -0.272287 0.121000 -0.254000
v -0.272287 0.121000 -0.286000
v -0.300000 0.141000 -0.302000
v -0.327713 0.141000 -0.286000
v -0.327713 0.141000 -0.254000
v -0.300000 0.141000 -0.238000
v -0.272287 0.141000 -0.254000
v -0.272287 0.141000 -0.286000
v -0.300000 0.121000 0.238000
v -0.327713 0.121000 0.254000
v -0.327713 0.121000 0.286000
v -0.300000 0.121000 0.302000
v -0.272287 0.121000 0.286000
v -0.272287 0.121000 0.254000
v -0.300000 0.141000 0.238000
v -0.327713 0.141000 0.254000
v -0.327713 0.141000 0.286000
v -0.300000 0.141000 0.302000
v -0.272287 0.141000 0.286000
v -0.272287 0.141000 0.254000
v 0.300000 0.121000 -0.302000
v 0.272287 0.121000 -0.286000
v 0.272287 0.121000 -0.254000
v 0.300000 0.121000 -0.238000
v 0.327713 0.121000 -0.254000
v 0.327713 0.121000 -0.286000
v 0.300000 0.141000 -0.302000
v 0.272287 0.141000 -0.286000
v 0.272287 0.141000 -0.254000
v 0.300000 0.141000 -0.238000
v 0.327713 0.141000 -0.254000
v 0.327713 0.141000 -0.286000
v 0.300000 0.121000 0.238000
v 0.272287 0.121000 0.254000
v 0.272287 0.121000 0.286000
v 0.300000 0.121000 0.302000
v 0.327713 0.121000 0.286000
v 0.327713 0.121000 0.254000
v 0.300000 0.141000 0.238000
v 0.272287 0.141000 0.254000
v 0.272287 0.141000 0.286000
v 0.300000 0.141000 0.302000
v 0.327713 0.141000 0.286000
v 0.327713 0.141000 0.254000
v -0.289000 0.120000 0.342000
v -0.211000 0.120000 0.342000
v -0.193000 0.120000 0.324000
v -0.193000 0.120000 -0.324000
v -0.211000 0.120000 -0.342000
v -0.289000 0.120000 -0.342000
v -0.307000 0.120000 -0.324000
v -0.307000 0.120000 0.324000
v -0.307000 0.138000 0.360000
v -0.193000 0.138000 0.360000
v -0.175000 0.138000 0.342000
v -0.175000 0.138000 -0.342000
v -0.193000 0.138000 -0.360000
v -0.307000 0.138000 -0.360000
v -0.325000 0.138000 -0.342000
v -0.325000 0.138000 0.342000
v -0.307000 0.302000 0.360000
v -0.193000 0.302000 0.360000
v -0.175000 0.302000 0.342000
v -0.175000 0.302000 -0.342000
v -0.193000 0.302000 -0.360000
v -0.307000 0.302000 -0.360000
v -0.325000 0.302000 -0.342000
v -0.325000 0.302000 0.342000
v -0.289000 0.320000 0.342000
v -0.211000 0.320000 0.342000
v -0.193000 0.320000 0.324000
v -0.193000 0.320000 -0.324000
v -0.211000 0.320000 -0.342000
v -0.289000 0.320000 -0.342000
v -0.307000 0.320000 -0.324000
v -0.307000 0.320000 0.324000
v 0.211000 0.120000 0.342000
v 0.289000 0.120000 0.342000
v 0.307000 0.120000 0.324000
v 0.307000 0.120000 -0.324000
v 0.289000 0.120000 -0.342000
v 0.211000 0.120000 -0.342000
v 0.193000 0.120000 -0.324000
v 0.193000 0.120000 0.324000
v 0.193000 0.138000 0.360000
v 0.307000 0.138000 0.360000
v 0.325000 0.138000 0.342000
v 0.325000 0.138000 -0.342000
v 0.307000 0.138000 -0.360000
v 0.193000 0.138000 -0.360000
v 0.175000 0.138000 -0.342000
v 0.175000 0.138000 0.342000
v 0.193000 0.302000 0.360000
v 0.307000 0.302000 0.360000
v 0.325000 0.302000 0.342000
v 0.325000 0.302000 -0.342000
v 0.307000 0.302000 -0.360000
v 0.193000 0.302000 -0.360000
v 0.175000 0.302000 -0.342000
v 0.175000 0.302000 0.342000
v 0.211000 0.320000 0.342000
v 0.289000 0.320000 0.342000
v 0.307000 0.320000 0.324000
v 0.307000 0.320000 -0.324000
v 0.289000 0.320000 -0.342000
v 0.211000 0.320000 -0.342000
v 0.193000 0.320000 -0.324000
v 0.193000 0.320000 0.324000
v -0.281600 0.150000 -0.209200
v 0.281600 0.150000 -0.209200
v 0.300800 0.150000 -0.228400
v 0.300800 0.150000 -0.311600
v 0.281600 0.150000 -0.330800
v -0.281600 0.150000 -0.330800
v -0.300800 0.150000 -0.311600
v -0.300800 0.150000 -0.228400
v -0.300800 0.169200 -0.190000
v 0.300800 0.169200 -0.190000
v 0.320000 0.169200 -0.209200
v 0.320000 0.169200 -0.330800
v 0.300800 0.169200 -0.350000
v -0.300800 0.169200 -0.350000
v -0.320000 0.169200 -0.330800
v -0.320000 0.169200 -0.209200
v -0.300800 0.290800 -0.190000
v 0.300800 0.290800 -0.190000
v 0.320000 0.290800 -0.209200
v 0.320000 0.290800 -0.330800
v 0.300800 0.290800 -0.350000
v -0.300800 0.290800 -0.350000
v -0.320000 0.290800 -0.330800
v -0.320000 0.290800 -0.209200
v -0.281600 0.310000 -0.209200
v 0.281600 0.310000 -0.209200
v 0.300800 0.310000 -0.228400
v 0.300800 0.310000 -0.311600
v 0.281600 0.310000 -0.330800
v -0.281600 0.310000 -0.330800
v -0.300800 0.310000 -0.311600
v -0.300800 0.310000 -0.228400
v 0.000000 0.180000 0.050000
v -0.105801 0.180000 0.084377
v -0.171190 0.180000 0.174377
v -0.171190 0.180000 0.285623
v -0.105801 0.180000 0.375623
v -0.000000 0.180000 0.410000
v 0.105801 0.180000 0.375623
v 0.171190 0.180000 0.285623
v 0.171190 0.180000 0.174377
v 0.105801 0.180000 0.084377
v 0.000000 0.340000 0.050000
v -0.105801 0.340000 0.084377
v -0.171190 0.340000 0.174377
v -0.171190 0.340000 0.285623
v -0.105801 0.340000 0.375623
v -0.000000 0.340000 0.410000
v 0.105801 0.340000 0.375623
v 0.171190 0.340000 0.285623
v 0.171190 0.340000 0.174377
v 0.105801 0.340000 0.084377
v 0.000000 0.265000 0.145000
v -0.060104 0.265000 0.169896
v -0.085000 0.265000 0.230000
v -0.060104 0.265000 0.290104
v -0.000000 0.265000 0.315000
v 0.060104 0.265000 0.290104
v 0.085000 0.265000 0.230000
v 0.060104 0.265000 0.169896
v 0.000000 0.435000 0.145000
v -0.060104 0.435000 0.169896
v -0.085000 0.435000 0.230000
v -0.060104 0.435000 0.290104
v -0.000000 0.435000 0.315000
v 0.060104 0.435000 0.290104
v 0.085000 0.435000 0.230000
v 0.060104 0.435000 0.169896
v -0.270000 0.293000 -0.240000
v -0.310043 0.250000 -0.224331
v -0.270000 0.207000 -0.240000
v -0.229957 0.250000 -0.255669
v -0.090000 0.293000 0.220000
v -0.130043 0.250000 0.235669
v -0.090000 0.207000 0.220000
v -0.049957 0.250000 0.204331
v 0.270000 0.293000 -0.240000
v 0.229957 0.250000 -0.255669
v 0.270000 0.207000 -0.240000
v 0.310043 0.250000 -0.224331
v 0.090000 0.293000 0.220000
v 0.049957 0.250000 0.204331
v 0.090000 0.207000 0.220000
v 0.130043 0.250000 0.235669
vn -0.0000 -1.0000 -0.0000
vn -0.0000 -0.7071 0.7071
vn 0.4082 -0.8165 0.4082
vn 0.7071 -0.7071 -0.0000
vn 0.4082 -0.8165 -0.4082
vn -0.0000 -0.7071 -0.7071
vn -0.4082 -0.8165 -0.4082
vn -0.7071 -0.7071 -0.0000
vn -0.4082 -0.8165 0.4082
vn -0.0000 -0.0000 1.0000
vn 0.7071 -0.0000 0.7071
vn 1.0000 -0.0000 -0.0000
vn 0.7071 -0.0000 -0.7071
vn -0.0000 -0.0000 -1.0000
vn -0.7071 -0.0000 -0.7071
vn -1.0000 -0.0000 -0.0000
vn -0.7071 -0.0000 0.7071
vn -0.0000 0.7071 0.7071
vn 0.4082 0.8165 0.4082
vn 0.7071 0.7071 -0.0000
vn 0.4082 0.8165 -0.4082
vn -0.0000 0.7071 -0.7071
vn -0.4082 0.8165 -0.4082
vn -0.7071 0.7071 -0.0000
vn -0.4082 0.8165 0.4082
vn -0.0000 1.0000 -0.0000
vn -0.5000 -0.0000 -0.8660
vn -0.5000 -0.0000 0.8660
vn 0.5000 -0.0000 0.8660
vn 0.5000 -0.0000 -0.8660
vn -0.3090 -0.0000 -0.9511
vn -0.8090 -0.0000 -0.5878
vn -0.8090 -0.0000 0.5878
vn -0.3090 -0.0000 0.9511
vn 0.3090 -0.0000 0.9511
vn 0.8090 -0.0000 0.5878
vn 0.8090 -0.0000 -0.5878
vn 0.3090 -0.0000 -0.9511
vn -0.3827 -0.0000 -0.9239
vn -0.9239 -0.0000 -0.3827
vn -0.9239 -0.0000 0.3827
vn -0.3827 -0.0000 0.9239
vn 0.3827 -0.0000 0.9239
vn 0.9239 -0.0000 0.3827
vn 0.9239 -0.0000 -0.3827
vn 0.3827 -0.0000 -0.9239
vn -0.3644 -0.0000 -0.9312
vn -0.6585 0.7071 0.2577
vn -0.6585 -0.7071 0.2577
vn 0.6585 -0.7071 -0.2577
vn 0.6585 0.7071 -0.2577
vn 0.3644 -0.0000 0.9312
vn 0.3644 -0.0000 -0.9312
vn -0.6585 0.7071 -0.2577
vn -0.6585 -0.7071 -0.2577
vn 0.6585 -0.7071 0.2577
vn 0.6585 0.7071 0.2577
vn -0.3644 -0.0000 0.9312
vt 0.625000 0.125000
vt 0.375000 0.875000
vt 0.125000 0.625000
vt 0.125000 0.125000
vt 0.875000 0.125000
s 0
usemtl Military_Equipment_Palette
f 2/1/1 1/1/1 5/1/1
f 2/1/2 9/1/2 1/1/2
f 2/1/3 11/1/3 10/1/3
f 4/1/4 11/1/4 3/1/4
f 5/1/5 12/1/5 4/1/5
f 6/1/6 13/1/6 5/1/6
f 6/1/7 15/1/7 14/1/7
f 8/1/8 15/1/8 7/1/8
f 1/1/9 16/1/9 8/1/9
f 10/1/10 17/1/10 9/1/10
f 11/1/11 18/1/11 10/1/11
f 12/1/12 19/1/12 11/1/12
f 13/1/13 20/1/13 12/1/13
f 14/1/14 21/1/14 13/1/14
f 15/1/15 22/1/15 14/1/15
f 16/1/16 23/1/16 15/1/16
f 9/1/17 24/1/17 16/1/17
f 18/1/18 25/1/18 17/1/18
f 19/1/19 26/1/19 18/1/19
f 20/1/20 27/1/20 19/1/20
f 20/1/21 29/1/21 28/1/21
f 22/1/22 29/1/22 21/1/22
f 23/1/23 30/1/23 22/1/23
f 24/1/24 31/1/24 23/1/24
f 24/1/25 25/1/25 32/1/25
f 30/1/26 31/1/26 32/1/26
f 37/2/1 35/2/1 33/2/1
f 34/2/27 39/2/27 33/2/27
f 35/2/16 40/2/16 34/2/16
f 36/2/28 41/2/28 35/2/28
f 37/2/29 42/2/29 36/2/29
f 38/2/12 43/2/12 37/2/12
f 33/2/30 44/2/30 38/2/30
f 40/2/26 42/2/26 44/2/26
f 49/2/1 47/2/1 45/2/1
f 46/2/27 51/2/27 45/2/27
f 47/2/16 52/2/16 46/2/16
f 48/2/28 53/2/28 47/2/28
f 49/2/29 54/2/29 48/2/29
f 50/2/12 55/2/12 49/2/12
f 45/2/30 56/2/30 50/2/30
f 52/2/26 54/2/26 56/2/26
f 61/2/1 59/2/1 57/2/1
f 58/2/27 63/2/27 57/2/27
f 59/2/16 64/2/16 58/2/16
f 60/2/28 65/2/28 59/2/28
f 61/2/29 66/2/29 60/2/29
f 62/2/12 67/2/12 61/2/12
f 57/2/30 68/2/30 62/2/30
f 64/2/26 66/2/26 68/2/26
f 73/2/1 71/2/1 69/2/1
f 70/2/27 75/2/27 69/2/27
f 71/2/16 76/2/16 70/2/16
f 72/2/28 77/2/28 71/2/28
f 73/2/29 78/2/29 72/2/29
f 74/2/12 79/2/12 73/2/12
f 69/2/30 80/2/30 74/2/30
f 76/2/26 78/2/26 80/2/26
f 83/3/1 82/3/1 81/3/1
f 81/3/2 90/3/2 89/3/2
f 82/3/3 91/3/3 90/3/3
f 84/3/4 91/3/4 83/3/4
f 85/3/5 92/3/5 84/3/5
f 86/3/6 93/3/6 85/3/6
f 86/3/7 95/3/7 94/3/7
f 88/3/8 95/3/8 87/3/8
f 81/3/9 96/3/9 88/3/9
f 90/3/10 97/3/10 89/3/10
f 91/3/11 98/3/11 90/3/11
f 92/3/12 99/3/12 91/3/12
f 93/3/13 100/3/13 92/3/13
f 94/3/14 101/3/14 93/3/14
f 95/3/15 102/3/15 94/3/15
f 96/3/16 103/3/16 95/3/16
f 89/3/17 104/3/17 96/3/17
f 98/3/18 105/3/18 97/3/18
f 99/3/19 106/3/19 98/3/19
f 99/3/20 108/3/20 107/3/20
f 100/3/21 109/3/21 108/3/21
f 102/3/22 109/3/22 101/3/22
f 103/3/23 110/3/23 102/3/23
f 104/3/24 111/3/24 103/3/24
f 104/3/25 105/3/25 112/3/25
f 111/3/26 112/3/26 108/3/26
f 115/3/1 114/3/1 113/3/1
f 114/3/2 121/3/2 113/3/2
f 114/3/3 123/3/3 122/3/3
f 116/3/4 123/3/4 115/3/4
f 117/3/5 124/3/5 116/3/5
f 117/3/6 126/3/6 125/3/6
f 118/3/7 127/3/7 126/3/7
f 120/3/8 127/3/8 119/3/8
f 113/3/9 128/3/9 120/3/9
f 122/3/10 129/3/10 121/3/10
f 123/3/11 130/3/11 122/3/11
f 124/3/12 131/3/12 123/3/12
f 125/3/13 132/3/13 124/3/13
f 126/3/14 133/3/14 125/3/14
f 127/3/15 134/3/15 126/3/15
f 128/3/16 135/3/16 127/3/16
f 121/3/17 136/3/17 128/3/17
f 130/3/18 137/3/18 129/3/18
f 131/3/19 138/3/19 130/3/19
f 132/3/20 139/3/20 131/3/20
f 132/3/21 141/3/21 140/3/21
f 134/3/22 141/3/22 133/3/22
f 135/3/23 142/3/23 134/3/23
f 135/3/24 144/3/24 143/3/24
f 136/3/25 137/3/25 144/3/25
f 143/3/26 144/3/26 140/3/26
f 146/4/1 145/4/1 149/4/1
f 146/4/2 153/4/2 145/4/2
f 147/4/3 154/4/3 146/4/3
f 148/4/4 155/4/4 147/4/4
f 149/4/5 156/4/5 148/4/5
f 150/4/6 157/4/6 149/4/6
f 151/4/7 158/4/7 150/4/7
f 152/4/8 159/4/8 151/4/8
f 152/4/9 153/4/9 160/4/9
f 154/4/10 161/4/10 153/4/10
f 155/4/11 162/4/11 154/4/11
f 156/4/12 163/4/12 155/4/12
f 157/4/13 164/4/13 156/4/13
f 158/4/14 165/4/14 157/4/14
f 159/4/15 166/4/15 158/4/15
f 160/4/16 167/4/16 159/4/16
f 153/4/17 168/4/17 160/4/17
f 162/4/18 169/4/18 161/4/18
f 162/4/19 171/4/19 170/4/19
f 164/4/20 171/4/20 163/4/20
f 165/4/21 172/4/21 164/4/21
f 166/4/22 173/4/22 165/4/22
f 167/4/23 174/4/23 166/4/23
f 168/4/24 175/4/24 167/4/24
f 161/4/25 176/4/25 168/4/25
f 174/4/26 175/4/26 176/4/26
f 183/2/1 179/2/1 177/2/1
f 178/2/31 187/2/31 177/2/31
f 179/2/32 188/2/32 178/2/32
f 180/2/16 189/2/16 179/2/16
f 181/2/33 190/2/33 180/2/33
f 182/2/34 191/2/34 181/2/34
f 183/2/35 192/2/35 182/2/35
f 184/2/36 193/2/36 183/2/36
f 185/2/12 194/2/12 184/2/12
f 186/2/37 195/2/37 185/2/37
f 177/2/38 196/2/38 186/2/38
f 190/2/26 194/2/26 196/2/26
f 198/5/1 197/5/1 201/5/1
f 198/5/39 205/5/39 197/5/39
f 199/5/40 206/5/40 198/5/40
f 200/5/41 207/5/41 199/5/41
f 201/5/42 208/5/42 200/5/42
f 202/5/43 209/5/43 201/5/43
f 203/5/44 210/5/44 202/5/44
f 204/5/45 211/5/45 203/5/45
f 197/5/46 212/5/46 204/5/46
f 212/5/26 206/5/26 208/5/26
f 215/2/47 213/2/47 216/2/47
f 214/2/48 217/2/48 213/2/48
f 215/2/49 218/2/49 214/2/49
f 216/2/50 219/2/50 215/2/50
f 213/2/51 220/2/51 216/2/51
f 218/2/52 220/2/52 217/2/52
f 223/2/53 221/2/53 224/2/53
f 222/2/54 225/2/54 221/2/54
f 223/2/55 226/2/55 222/2/55
f 223/2/56 228/2/56 227/2/56
f 221/2/57 228/2/57 224/2/57
f 225/2/58 227/2/58 228/2/58
f 1/1/1 8/1/1 7/1/1
f 7/1/1 6/1/1 1/1/1
f 6/1/1 5/1/1 1/1/1
f 5/1/1 4/1/1 3/1/1
f 3/1/1 2/1/1 5/1/1
f 2/1/2 10/1/2 9/1/2
f 2/1/3 3/1/3 11/1/3
f 4/1/4 12/1/4 11/1/4
f 5/1/5 13/1/5 12/1/5
f 6/1/6 14/1/6 13/1/6
f 6/1/7 7/1/7 15/1/7
f 8/1/8 16/1/8 15/1/8
f 1/1/9 9/1/9 16/1/9
f 10/1/10 18/1/10 17/1/10
f 11/1/11 19/1/11 18/1/11
f 12/1/12 20/1/12 19/1/12
f 13/1/13 21/1/13 20/1/13
f 14/1/14 22/1/14 21/1/14
f 15/1/15 23/1/15 22/1/15
f 16/1/16 24/1/16 23/1/16
f 9/1/17 17/1/17 24/1/17
f 18/1/18 26/1/18 25/1/18
f 19/1/19 27/1/19 26/1/19
f 20/1/20 28/1/20 27/1/20
f 20/1/21 21/1/21 29/1/21
f 22/1/22 30/1/22 29/1/22
f 23/1/23 31/1/23 30/1/23
f 24/1/24 32/1/24 31/1/24
f 24/1/25 17/1/25 25/1/25
f 32/1/26 25/1/26 30/1/26
f 25/1/26 26/1/26 30/1/26
f 26/1/26 27/1/26 28/1/26
f 28/1/26 29/1/26 26/1/26
f 29/1/26 30/1/26 26/1/26
f 33/2/1 38/2/1 37/2/1
f 37/2/1 36/2/1 35/2/1
f 35/2/1 34/2/1 33/2/1
f 34/2/27 40/2/27 39/2/27
f 35/2/16 41/2/16 40/2/16
f 36/2/28 42/2/28 41/2/28
f 37/2/29 43/2/29 42/2/29
f 38/2/12 44/2/12 43/2/12
f 33/2/30 39/2/30 44/2/30
f 44/2/26 39/2/26 40/2/26
f 40/2/26 41/2/26 42/2/26
f 42/2/26 43/2/26 44/2/26
f 45/2/1 50/2/1 49/2/1
f 49/2/1 48/2/1 47/2/1
f 47/2/1 46/2/1 45/2/1
f 46/2/27 52/2/27 51/2/27
f 47/2/16 53/2/16 52/2/16
f 48/2/28 54/2/28 53/2/28
f 49/2/29 55/2/29 54/2/29
f 50/2/12 56/2/12 55/2/12
f 45/2/30 51/2/30 56/2/30
f 56/2/26 51/2/26 52/2/26
f 52/2/26 53/2/26 54/2/26
f 54/2/26 55/2/26 56/2/26
f 57/2/1 62/2/1 61/2/1
f 61/2/1 60/2/1 59/2/1
f 59/2/1 58/2/1 57/2/1
f 58/2/27 64/2/27 63/2/27
f 59/2/16 65/2/16 64/2/16
f 60/2/28 66/2/28 65/2/28
f 61/2/29 67/2/29 66/2/29
f 62/2/12 68/2/12 67/2/12
f 57/2/30 63/2/30 68/2/30
f 68/2/26 63/2/26 64/2/26
f 64/2/26 65/2/26 66/2/26
f 66/2/26 67/2/26 68/2/26
f 69/2/1 74/2/1 73/2/1
f 73/2/1 72/2/1 71/2/1
f 71/2/1 70/2/1 69/2/1
f 70/2/27 76/2/27 75/2/27
f 71/2/16 77/2/16 76/2/16
f 72/2/28 78/2/28 77/2/28
f 73/2/29 79/2/29 78/2/29
f 74/2/12 80/2/12 79/2/12
f 69/2/30 75/2/30 80/2/30
f 80/2/26 75/2/26 76/2/26
f 76/2/26 77/2/26 78/2/26
f 78/2/26 79/2/26 80/2/26
f 81/3/1 88/3/1 83/3/1
f 88/3/1 87/3/1 83/3/1
f 87/3/1 86/3/1 85/3/1
f 85/3/1 84/3/1 87/3/1
f 84/3/1 83/3/1 87/3/1
f 81/3/2 82/3/2 90/3/2
f 82/3/3 83/3/3 91/3/3
f 84/3/4 92/3/4 91/3/4
f 85/3/5 93/3/5 92/3/5
f 86/3/6 94/3/6 93/3/6
f 86/3/7 87/3/7 95/3/7
f 88/3/8 96/3/8 95/3/8
f 81/3/9 89/3/9 96/3/9
f 90/3/10 98/3/10 97/3/10
f 91/3/11 99/3/11 98/3/11
f 92/3/12 100/3/12 99/3/12
f 93/3/13 101/3/13 100/3/13
f 94/3/14 102/3/14 101/3/14
f 95/3/15 103/3/15 102/3/15
f 96/3/16 104/3/16 103/3/16
f 89/3/17 97/3/17 104/3/17
f 98/3/18 106/3/18 105/3/18
f 99/3/19 107/3/19 106/3/19
f 99/3/20 100/3/20 108/3/20
f 100/3/21 101/3/21 109/3/21
f 102/3/22 110/3/22 109/3/22
f 103/3/23 111/3/23 110/3/23
f 104/3/24 112/3/24 111/3/24
f 104/3/25 97/3/25 105/3/25
f 112/3/26 105/3/26 106/3/26
f 106/3/26 107/3/26 112/3/26
f 107/3/26 108/3/26 112/3/26
f 108/3/26 109/3/26 110/3/26
f 110/3/26 111/3/26 108/3/26
f 113/3/1 120/3/1 115/3/1
f 120/3/1 119/3/1 115/3/1
f 119/3/1 118/3/1 117/3/1
f 117/3/1 116/3/1 119/3/1
f 116/3/1 115/3/1 119/3/1
f 114/3/2 122/3/2 121/3/2
f 114/3/3 115/3/3 123/3/3
f 116/3/4 124/3/4 123/3/4
f 117/3/5 125/3/5 124/3/5
f 117/3/6 118/3/6 126/3/6
f 118/3/7 119/3/7 127/3/7
f 120/3/8 128/3/8 127/3/8
f 113/3/9 121/3/9 128/3/9
f 122/3/10 130/3/10 129/3/10
f 123/3/11 131/3/11 130/3/11
f 124/3/12 132/3/12 131/3/12
f 125/3/13 133/3/13 132/3/13
f 126/3/14 134/3/14 133/3/14
f 127/3/15 135/3/15 134/3/15
f 128/3/16 136/3/16 135/3/16
f 121/3/17 129/3/17 136/3/17
f 130/3/18 138/3/18 137/3/18
f 131/3/19 139/3/19 138/3/19
f 132/3/20 140/3/20 139/3/20
f 132/3/21 133/3/21 141/3/21
f 134/3/22 142/3/22 141/3/22
f 135/3/23 143/3/23 142/3/23
f 135/3/24 136/3/24 144/3/24
f 136/3/25 129/3/25 137/3/25
f 144/3/26 137/3/26 138/3/26
f 138/3/26 139/3/26 144/3/26
f 139/3/26 140/3/26 144/3/26
f 140/3/26 141/3/26 142/3/26
f 142/3/26 143/3/26 140/3/26
f 145/4/1 152/4/1 151/4/1
f 151/4/1 150/4/1 145/4/1
f 150/4/1 149/4/1 145/4/1
f 149/4/1 148/4/1 147/4/1
f 147/4/1 146/4/1 149/4/1
f 146/4/2 154/4/2 153/4/2
f 147/4/3 155/4/3 154/4/3
f 148/4/4 156/4/4 155/4/4
f 149/4/5 157/4/5 156/4/5
f 150/4/6 158/4/6 157/4/6
f 151/4/7 159/4/7 158/4/7
f 152/4/8 160/4/8 159/4/8
f 152/4/9 145/4/9 153/4/9
f 154/4/10 162/4/10 161/4/10
f 155/4/11 163/4/11 162/4/11
f 156/4/12 164/4/12 163/4/12
f 157/4/13 165/4/13 164/4/13
f 158/4/14 166/4/14 165/4/14
f 159/4/15 167/4/15 166/4/15
f 160/4/16 168/4/16 167/4/16
f 153/4/17 161/4/17 168/4/17
f 162/4/18 170/4/18 169/4/18
f 162/4/19 163/4/19 171/4/19
f 164/4/20 172/4/20 171/4/20
f 165/4/21 173/4/21 172/4/21
f 166/4/22 174/4/22 173/4/22
f 167/4/23 175/4/23 174/4/23
f 168/4/24 176/4/24 175/4/24
f 161/4/25 169/4/25 176/4/25
f 176/4/26 169/4/26 174/4/26
f 169/4/26 170/4/26 174/4/26
f 170/4/26 171/4/26 172/4/26
f 172/4/26 173/4/26 170/4/26
f 173/4/26 174/4/26 170/4/26
f 177/2/1 186/2/1 185/2/1
f 185/2/1 184/2/1 183/2/1
f 183/2/1 182/2/1 181/2/1
f 181/2/1 180/2/1 179/2/1
f 179/2/1 178/2/1 177/2/1
f 177/2/1 185/2/1 183/2/1
f 183/2/1 181/2/1 179/2/1
f 178/2/31 188/2/31 187/2/31
f 179/2/32 189/2/32 188/2/32
f 180/2/16 190/2/16 189/2/16
f 181/2/33 191/2/33 190/2/33
f 182/2/34 192/2/34 191/2/34
f 183/2/35 193/2/35 192/2/35
f 184/2/36 194/2/36 193/2/36
f 185/2/12 195/2/12 194/2/12
f 186/2/37 196/2/37 195/2/37
f 177/2/38 187/2/38 196/2/38
f 196/2/26 187/2/26 188/2/26
f 188/2/26 189/2/26 190/2/26
f 190/2/26 191/2/26 192/2/26
f 192/2/26 193/2/26 194/2/26
f 194/2/26 195/2/26 196/2/26
f 196/2/26 188/2/26 190/2/26
f 190/2/26 192/2/26 194/2/26
f 197/5/1 204/5/1 201/5/1
f 204/5/1 203/5/1 201/5/1
f 203/5/1 202/5/1 201/5/1
f 201/5/1 200/5/1 199/5/1
f 199/5/1 198/5/1 201/5/1
f 198/5/39 206/5/39 205/5/39
f 199/5/40 207/5/40 206/5/40
f 200/5/41 208/5/41 207/5/41
f 201/5/42 209/5/42 208/5/42
f 202/5/43 210/5/43 209/5/43
f 203/5/44 211/5/44 210/5/44
f 204/5/45 212/5/45 211/5/45
f 197/5/46 205/5/46 212/5/46
f 212/5/26 205/5/26 206/5/26
f 206/5/26 207/5/26 208/5/26
f 208/5/26 209/5/26 212/5/26
f 209/5/26 210/5/26 212/5/26
f 210/5/26 211/5/26 212/5/26
f 215/2/47 214/2/47 213/2/47
f 214/2/48 218/2/48 217/2/48
f 215/2/49 219/2/49 218/2/49
f 216/2/50 220/2/50 219/2/50
f 213/2/51 217/2/51 220/2/51
f 218/2/52 219/2/52 220/2/52
f 223/2/53 222/2/53 221/2/53
f 222/2/54 226/2/54 225/2/54
f 223/2/55 227/2/55 226/2/55
f 223/2/56 224/2/56 228/2/56
f 221/2/57 225/2/57 228/2/57
f 225/2/58 226/2/58 227/2/58
