# Blender 5.2.1 LTS
# www.blender.org
mtllib repair_station.mtl
o BASE.001
v -0.361200 0.000000 0.350600
v 0.361200 0.000000 0.350600
v 0.375600 0.000000 0.336200
v 0.375600 0.000000 -0.336200
v 0.361200 0.000000 -0.350600
v -0.361200 0.000000 -0.350600
v -0.375600 0.000000 -0.336200
v -0.375600 0.000000 0.336200
v -0.375600 0.014400 0.365000
v 0.375600 0.014400 0.365000
v 0.390000 0.014400 0.350600
v 0.390000 0.014400 -0.350600
v 0.375600 0.014400 -0.365000
v -0.375600 0.014400 -0.365000
v -0.390000 0.014400 -0.350600
v -0.390000 0.014400 0.350600
v -0.375600 0.105600 0.365000
v 0.375600 0.105600 0.365000
v 0.390000 0.105600 0.350600
v 0.390000 0.105600 -0.350600
v 0.375600 0.105600 -0.365000
v -0.375600 0.105600 -0.365000
v -0.390000 0.105600 -0.350600
v -0.390000 0.105600 0.350600
v -0.361200 0.120000 0.350600
v 0.361200 0.120000 0.350600
v 0.375600 0.120000 0.336200
v 0.375600 0.120000 -0.336200
v 0.361200 0.120000 -0.350600
v -0.361200 0.120000 -0.350600
v -0.375600 0.120000 -0.336200
v -0.375600 0.120000 0.336200
v -0.300000 0.121000 -0.302000
v -0.327713 0.121000 -0.286000
v -0.327713 0.121000 -0.254000
v -0.300000 0.121000 -0.238000
v -0.272287 0.121000 -0.254000
v -0.272287 0.121000 -0.286000
v -0.300000 0.141000 -0.302000
v -0.327713 0.141000 -0.286000
v -0.327713 0.141000 -0.254000
v -0.300000 0.141000 -0.238000
v -0.272287 0.141000 -0.254000
v -0.272287 0.141000 -0.286000
v -0.300000 0.121000 0.238000
v -0.327713 0.121000 0.254000
v -0.327713 0.121000 0.286000
v -0.300000 0.121000 0.302000
v -0.272287 0.121000 0.286000
v -0.272287 0.121000 0.254000
v -0.300000 0.141000 0.238000
v -0.327713 0.141000 0.254000
v -0.327713 0.141000 0.286000
v -0.300000 0.141000 0.302000
v -0.272287 0.141000 0.286000
v -0.272287 0.141000 0.254000
v 0.300000 0.121000 -0.302000
v 0.272287 0.121000 -0.286000
v 0.272287 0.121000 -0.254000
v 0.300000 0.121000 -0.238000
v 0.327713 0.121000 -0.254000
v 0.327713 0.121000 -0.286000
v 0.300000 0.141000 -0.302000
v 0.272287 0.141000 -0.286000
v 0.272287 0.141000 -0.254000
v 0.300000 0.141000 -0.238000
v 0.327713 0.141000 -0.254000
v 0.327713 0.141000 -0.286000
v 0.300000 0.121000 0.238000
v 0.272287 0.121000 0.254000
v 0.272287 0.121000 0.286000
v 0.300000 0.121000 0.302000
v 0.327713 0.121000 0.286000
v 0.327713 0.121000 0.254000
v 0.300000 0.141000 0.238000
v 0.272287 0.141000 0.254000
v 0.272287 0.141000 0.286000
v 0.300000 0.141000 0.302000
v 0.327713 0.141000 0.286000
v 0.327713 0.141000 0.254000
v -0.335000 0.135000 0.280000
v 0.335000 0.135000 0.280000
v 0.360000 0.135000 0.255000
v 0.360000 0.135000 -0.255000
v 0.335000 0.135000 -0.280000
v -0.335000 0.135000 -0.280000
v -0.360000 0.135000 -0.255000
v -0.360000 0.135000 0.255000
v -0.360000 0.160000 0.305000
v 0.360000 0.160000 0.305000
v 0.385000 0.160000 0.280000
v 0.385000 0.160000 -0.280000
v 0.360000 0.160000 -0.305000
v -0.360000 0.160000 -0.305000
v -0.385000 0.160000 -0.280000
v -0.385000 0.160000 0.280000
v -0.360000 0.680000 0.305000
v 0.360000 0.680000 0.305000
v 0.385000 0.680000 0.280000
v 0.385000 0.680000 -0.280000
v 0.360000 0.680000 -0.305000
v -0.360000 0.680000 -0.305000
v -0.385000 0.680000 -0.280000
v -0.385000 0.680000 0.280000
v -0.335000 0.705000 0.280000
v 0.335000 0.705000 0.280000
v 0.360000 0.705000 0.255000
v 0.360000 0.705000 -0.255000
v 0.335000 0.705000 -0.280000
v -0.335000 0.705000 -0.280000
v -0.360000 0.705000 -0.255000
v -0.360000 0.705000 0.255000
v -0.402500 0.705000 0.322500
v 0.402500 0.705000 0.322500
v 0.402500 0.705000 -0.322500
v -0.402500 0.705000 -0.322500
v -0.402500 0.755000 0.322500
v 0.402500 0.755000 0.322500
v 0.402500 0.755000 -0.322500
v -0.402500 0.755000 -0.322500
v -0.248500 0.100000 0.330000
v -0.213500 0.100000 0.330000
v -0.213500 0.100000 -0.330000
v -0.248500 0.100000 -0.330000
v -0.248500 0.740000 0.330000
v -0.213500 0.740000 0.330000
v -0.213500 0.740000 -0.330000
v -0.248500 0.740000 -0.330000
v -0.214400 0.496100 0.342500
v -0.124400 0.496100 0.342500
v -0.124400 0.496100 0.307500
v -0.214400 0.496100 0.307500
v -0.214400 0.606100 0.342500
v -0.124400 0.606100 0.342500
v -0.124400 0.606100 0.307500
v -0.214400 0.606100 0.307500
v 0.213500 0.100000 0.330000
v 0.248500 0.100000 0.330000
v 0.248500 0.100000 -0.330000
v 0.213500 0.100000 -0.330000
v 0.213500 0.740000 0.330000
v 0.248500 0.740000 0.330000
v 0.248500 0.740000 -0.330000
v 0.213500 0.740000 -0.330000
v 0.124400 0.496100 0.342500
v 0.214400 0.496100 0.342500
v 0.214400 0.496100 0.307500
v 0.124400 0.496100 0.307500
v 0.124400 0.606100 0.342500
v 0.214400 0.606100 0.342500
v 0.214400 0.606100 0.307500
v 0.124400 0.606100 0.307500
v -0.100000 0.463400 0.367500
v 0.100000 0.463400 0.367500
v 0.100000 0.463400 0.322500
v -0.100000 0.463400 0.322500
v -0.100000 0.513400 0.367500
v 0.100000 0.513400 0.367500
v 0.100000 0.513400 0.322500
v -0.100000 0.513400 0.322500
v -0.395800 0.710000 0.355400
v 0.395800 0.710000 0.355400
v 0.405400 0.710000 0.345800
v 0.405400 0.710000 -0.345800
v 0.395800 0.710000 -0.355400
v -0.395800 0.710000 -0.355400
v -0.405400 0.710000 -0.345800
v -0.405400 0.710000 0.345800
v -0.405400 0.719600 0.365000
v 0.405400 0.719600 0.365000
v 0.415000 0.719600 0.355400
v 0.415000 0.719600 -0.355400
v 0.405400 0.719600 -0.365000
v -0.405400 0.719600 -0.365000
v -0.415000 0.719600 -0.355400
v -0.415000 0.719600 0.355400
v -0.405400 0.780400 0.365000
v 0.405400 0.780400 0.365000
v 0.415000 0.780400 0.355400
v 0.415000 0.780400 -0.355400
v 0.405400 0.780400 -0.365000
v -0.405400 0.780400 -0.365000
v -0.415000 0.780400 -0.355400
v -0.415000 0.780400 0.355400
v -0.395800 0.790000 0.355400
v 0.395800 0.790000 0.355400
v 0.405400 0.790000 0.345800
v 0.405400 0.790000 -0.345800
v 0.395800 0.790000 -0.355400
v -0.395800 0.790000 -0.355400
v -0.405400 0.790000 -0.345800
v -0.405400 0.790000 0.345800
v -0.240000 0.236500 0.327500
v 0.240000 0.236500 0.327500
v 0.240000 0.236500 0.302500
v -0.240000 0.236500 0.302500
v -0.240000 0.263500 0.327500
v 0.240000 0.263500 0.327500
v 0.240000 0.263500 0.302500
v -0.240000 0.263500 0.302500
v -0.240000 0.416500 0.327500
v 0.240000 0.416500 0.327500
v 0.240000 0.416500 0.302500
v -0.240000 0.416500 0.302500
v -0.240000 0.443500 0.327500
v 0.240000 0.443500 0.327500
v 0.240000 0.443500 0.302500
v -0.240000 0.443500 0.302500
v -0.240000 0.596500 0.327500
v 0.240000 0.596500 0.327500
v 0.240000 0.596500 0.302500
v -0.240000 0.596500 0.302500
v -0.240000 0.623500 0.327500
v 0.240000 0.623500 0.327500
v 0.240000 0.623500 0.302500
v -0.240000 0.623500 0.302500
v -0.271600 0.780000 0.085800
v -0.168400 0.780000 0.085800
v -0.149200 0.780000 0.066600
v -0.149200 0.780000 -0.066600
v -0.168400 0.780000 -0.085800
v -0.271600 0.780000 -0.085800
v -0.290800 0.780000 -0.066600
v -0.290800 0.780000 0.066600
v -0.290800 0.799200 0.105000
v -0.149200 0.799200 0.105000
v -0.130000 0.799200 0.085800
v -0.130000 0.799200 -0.085800
v -0.149200 0.799200 -0.105000
v -0.290800 0.799200 -0.105000
v -0.310000 0.799200 -0.085800
v -0.310000 0.799200 0.085800
v -0.290800 0.920800 0.105000
v -0.149200 0.920800 0.105000
v -0.130000 0.920800 0.085800
v -0.130000 0.920800 -0.085800
v -0.149200 0.920800 -0.105000
v -0.290800 0.920800 -0.105000
v -0.310000 0.920800 -0.085800
v -0.310000 0.920800 0.085800
v -0.271600 0.940000 0.085800
v -0.168400 0.940000 0.085800
v -0.149200 0.940000 0.066600
v -0.149200 0.940000 -0.066600
v -0.168400 0.940000 -0.085800
v -0.271600 0.940000 -0.085800
v -0.290800 0.940000 -0.066600
v -0.290800 0.940000 0.066600
v -0.345000 0.922500 0.105000
v -0.095000 0.922500 0.105000
v -0.095000 0.922500 -0.105000
v -0.345000 0.922500 -0.105000
v -0.345000 0.977500 0.105000
v -0.095000 0.977500 0.105000
v -0.095000 0.977500 -0.105000
v -0.345000 0.977500 -0.105000
v 0.110000 0.828000 -0.025000
v 0.085751 0.814000 -0.025000
v 0.085751 0.786000 -0.025000
v 0.110000 0.772000 -0.025000
v 0.134249 0.786000 -0.025000
v 0.134249 0.814000 -0.025000
v 0.110000 0.828000 0.185000
v 0.085751 0.814000 0.185000
v 0.085751 0.786000 0.185000
v 0.110000 0.772000 0.185000
v 0.134249 0.786000 0.185000
v 0.134249 0.814000 0.185000
v 0.260000 0.828000 -0.025000
v 0.235751 0.814000 -0.025000
v 0.235751 0.786000 -0.025000
v 0.260000 0.772000 -0.025000
v 0.284249 0.786000 -0.025000
v 0.284249 0.814000 -0.025000
v 0.260000 0.828000 0.185000
v 0.235751 0.814000 0.185000
v 0.235751 0.786000 0.185000
v 0.260000 0.772000 0.185000
v 0.284249 0.786000 0.185000
v 0.284249 0.814000 0.185000
v -0.400000 0.120000 0.350000
v -0.360000 0.120000 0.350000
v -0.360000 0.120000 0.310000
v -0.400000 0.120000 0.310000
v -0.400000 0.560000 0.350000
v -0.360000 0.560000 0.350000
v -0.360000 0.560000 0.310000
v -0.400000 0.560000 0.310000
v 0.360000 0.120000 0.350000
v 0.400000 0.120000 0.350000
v 0.400000 0.120000 0.310000
v 0.360000 0.120000 0.310000
v 0.360000 0.560000 0.350000
v 0.400000 0.560000 0.350000
v 0.400000 0.560000 0.310000
v 0.360000 0.560000 0.310000
vn -0.0000 -1.0000 -0.0000
vn -0.0000 -0.7071 0.7071
vn 0.4082 -0.8165 0.4082
vn 0.7071 -0.7071 -0.0000
vn 0.4082 -0.8165 -0.4082
vn -0.0000 -0.7071 -0.7071
vn -0.4082 -0.8165 -0.4082
vn -0.7071 -0.7071 -0.0000
vn -0.4082 -0.8165 0.4082
vn -0.0000 -0.0000 1.0000
vn 0.7071 -0.0000 0.7071
vn 1.0000 -0.0000 -0.0000
vn 0.7071 -0.0000 -0.7071
vn -0.0000 -0.0000 -1.0000
vn -0.7071 -0.0000 -0.7071
vn -1.0000 -0.0000 -0.0000
vn -0.7071 -0.0000 0.7071
vn -0.0000 0.7071 0.7071
vn 0.4082 0.8165 0.4082
vn 0.7071 0.7071 -0.0000
vn 0.4082 0.8165 -0.4082
vn -0.0000 0.7071 -0.7071
vn -0.4082 0.8165 -0.4082
vn -0.7071 0.7071 -0.0000
vn -0.4082 0.8165 0.4082
vn -0.0000 1.0000 -0.0000
vn -0.5000 -0.0000 -0.8660
vn -0.5000 -0.0000 0.8660
vn 0.5000 -0.0000 0.8660
vn 0.5000 -0.0000 -0.8660
vn 0.4083 -0.8165 -0.4083
vn -0.4083 -0.8165 0.4083
vn 0.4083 0.8165 0.4082
vn 0.4083 0.8165 -0.4082
vn -0.4083 0.8165 -0.4082
vn -0.4083 0.8165 0.4082
vn -0.5000 0.8660 -0.0000
vn -0.5000 -0.8660 -0.0000
vn 0.5000 -0.8660 -0.0000
vn 0.5000 0.8660 -0.0000
vn 0.4083 -0.8165 0.4082
vn 0.4083 -0.8165 -0.4082
vn -0.4083 -0.8165 -0.4082
vn -0.4083 -0.8165 0.4082
vn 0.4083 0.8165 0.4083
vn -0.4083 0.8165 -0.4083
vn -0.4082 -0.8165 -0.4083
vn -0.4082 0.8165 -0.4083
vt 0.625000 0.125000
vt 0.375000 0.875000
vt 0.125000 0.125000
vt 0.375000 0.125000
vt 0.875000 0.125000
vt 0.125000 0.625000
s 0
usemtl Military_Equipment_Palette
f 2/1/1 1/1/1 5/1/1
f 2/1/2 9/1/2 1/1/2
f 2/1/3 11/1/3 10/1/3
f 4/1/4 11/1/4 3/1/4
f 5/1/5 12/1/5 4/1/5
f 6/1/6 13/1/6 5/1/6
f 6/1/7 15/1/7 14/1/7
f 8/1/8 15/1/8 7/1/8
f 1/1/9 16/1/9 8/1/9
f 10/1/10 17/1/10 9/1/10
f 11/1/11 18/1/11 10/1/11
f 12/1/12 19/1/12 11/1/12
f 13/1/13 20/1/13 12/1/13
f 14/1/14 21/1/14 13/1/14
f 15/1/15 22/1/15 14/1/15
f 16/1/16 23/1/16 15/1/16
f 9/1/17 24/1/17 16/1/17
f 18/1/18 25/1/18 17/1/18
f 19/1/19 26/1/19 18/1/19
f 20/1/20 27/1/20 19/1/20
f 20/1/21 29/1/21 28/1/21
f 22/1/22 29/1/22 21/1/22
f 23/1/23 30/1/23 22/1/23
f 24/1/24 31/1/24 23/1/24
f 24/1/25 25/1/25 32/1/25
f 30/1/26 31/1/26 32/1/26
f 37/2/1 35/2/1 33/2/1
f 34/2/27 39/2/27 33/2/27
f 35/2/16 40/2/16 34/2/16
f 36/2/28 41/2/28 35/2/28
f 37/2/29 42/2/29 36/2/29
f 38/2/12 43/2/12 37/2/12
f 33/2/30 44/2/30 38/2/30
f 40/2/26 42/2/26 44/2/26
f 49/2/1 47/2/1 45/2/1
f 46/2/27 51/2/27 45/2/27
f 47/2/16 52/2/16 46/2/16
f 48/2/28 53/2/28 47/2/28
f 49/2/29 54/2/29 48/2/29
f 50/2/12 55/2/12 49/2/12
f 45/2/30 56/2/30 50/2/30
f 52/2/26 54/2/26 56/2/26
f 61/2/1 59/2/1 57/2/1
f 58/2/27 63/2/27 57/2/27
f 59/2/16 64/2/16 58/2/16
f 60/2/28 65/2/28 59/2/28
f 61/2/29 66/2/29 60/2/29
f 62/2/12 67/2/12 61/2/12
f 57/2/30 68/2/30 62/2/30
f 64/2/26 66/2/26 68/2/26
f 73/2/1 71/2/1 69/2/1
f 70/2/27 75/2/27 69/2/27
f 71/2/16 76/2/16 70/2/16
f 72/2/28 77/2/28 71/2/28
f 73/2/29 78/2/29 72/2/29
f 74/2/12 79/2/12 73/2/12
f 69/2/30 80/2/30 74/2/30
f 76/2/26 78/2/26 80/2/26
f 82/3/1 81/3/1 85/3/1
f 82/3/2 89/3/2 81/3/2
f 82/3/3 91/3/3 90/3/3
f 84/3/4 91/3/4 83/3/4
f 85/3/5 92/3/5 84/3/5
f 86/3/6 93/3/6 85/3/6
f 86/3/7 95/3/7 94/3/7
f 88/3/8 95/3/8 87/3/8
f 81/3/9 96/3/9 88/3/9
f 90/3/10 97/3/10 89/3/10
f 91/3/11 98/3/11 90/3/11
f 92/3/12 99/3/12 91/3/12
f 93/3/13 100/3/13 92/3/13
f 94/3/14 101/3/14 93/3/14
f 95/3/15 102/3/15 94/3/15
f 96/3/16 103/3/16 95/3/16
f 89/3/17 104/3/17 96/3/17
f 97/3/18 106/3/18 105/3/18
f 99/3/19 106/3/19 98/3/19
f 100/3/20 107/3/20 99/3/20
f 101/3/21 108/3/21 100/3/21
f 101/3/22 110/3/22 109/3/22
f 103/3/23 110/3/23 102/3/23
f 104/3/24 111/3/24 103/3/24
f 97/3/25 112/3/25 104/3/25
f 110/3/26 111/3/26 112/3/26
f 115/4/1 113/4/1 116/4/1
f 118/4/26 120/4/26 117/4/26
f 114/4/10 117/4/10 113/4/10
f 115/4/12 118/4/12 114/4/12
f 116/4/14 119/4/14 115/4/14
f 113/4/16 120/4/16 116/4/16
f 123/5/1 121/5/1 124/5/1
f 126/5/26 128/5/26 125/5/26
f 122/5/10 125/5/10 121/5/10
f 123/5/12 126/5/12 122/5/12
f 124/5/14 127/5/14 123/5/14
f 121/5/16 128/5/16 124/5/16
f 131/2/1 129/2/1 132/2/1
f 134/2/26 136/2/26 133/2/26
f 130/2/10 133/2/10 129/2/10
f 131/2/12 134/2/12 130/2/12
f 132/2/14 135/2/14 131/2/14
f 129/2/16 136/2/16 132/2/16
f 139/5/1 137/5/1 140/5/1
f 142/5/26 144/5/26 141/5/26
f 138/5/10 141/5/10 137/5/10
f 139/5/12 142/5/12 138/5/12
f 140/5/14 143/5/14 139/5/14
f 137/5/16 144/5/16 140/5/16
f 147/2/1 145/2/1 148/2/1
f 150/2/26 152/2/26 149/2/26
f 146/2/10 149/2/10 145/2/10
f 147/2/12 150/2/12 146/2/12
f 148/2/14 151/2/14 147/2/14
f 145/2/16 152/2/16 148/2/16
f 155/6/1 153/6/1 156/6/1
f 158/6/26 160/6/26 157/6/26
f 154/6/10 157/6/10 153/6/10
f 155/6/12 158/6/12 154/6/12
f 156/6/14 159/6/14 155/6/14
f 153/6/16 160/6/16 156/6/16
f 162/6/1 161/6/1 165/6/1
f 162/6/2 169/6/2 161/6/2
f 163/6/3 170/6/3 162/6/3
f 164/6/4 171/6/4 163/6/4
f 165/6/31 172/6/31 164/6/31
f 166/6/6 173/6/6 165/6/6
f 167/6/7 174/6/7 166/6/7
f 168/6/8 175/6/8 167/6/8
f 161/6/32 176/6/32 168/6/32
f 170/6/10 177/6/10 169/6/10
f 171/6/11 178/6/11 170/6/11
f 172/6/12 179/6/12 171/6/12
f 173/6/13 180/6/13 172/6/13
f 174/6/14 181/6/14 173/6/14
f 175/6/15 182/6/15 174/6/15
f 176/6/16 183/6/16 175/6/16
f 169/6/17 184/6/17 176/6/17
f 178/6/18 185/6/18 177/6/18
f 179/6/33 186/6/33 178/6/33
f 180/6/20 187/6/20 179/6/20
f 181/6/34 188/6/34 180/6/34
f 182/6/22 189/6/22 181/6/22
f 183/6/35 190/6/35 182/6/35
f 184/6/24 191/6/24 183/6/24
f 177/6/36 192/6/36 184/6/36
f 190/6/26 191/6/26 192/6/26
f 195/2/1 193/2/1 196/2/1
f 198/2/26 200/2/26 197/2/26
f 194/2/10 197/2/10 193/2/10
f 195/2/12 198/2/12 194/2/12
f 196/2/14 199/2/14 195/2/14
f 193/2/16 200/2/16 196/2/16
f 203/2/1 201/2/1 204/2/1
f 206/2/26 208/2/26 205/2/26
f 202/2/10 205/2/10 201/2/10
f 203/2/12 206/2/12 202/2/12
f 204/2/14 207/2/14 203/2/14
f 201/2/16 208/2/16 204/2/16
f 211/2/1 209/2/1 212/2/1
f 214/2/26 216/2/26 213/2/26
f 210/2/10 213/2/10 209/2/10
f 211/2/12 214/2/12 210/2/12
f 212/2/14 215/2/14 211/2/14
f 209/2/16 216/2/16 212/2/16
f 219/5/1 218/5/1 217/5/1
f 218/5/2 225/5/2 217/5/2
f 218/5/3 227/5/3 226/5/3
f 220/5/4 227/5/4 219/5/4
f 221/5/5 228/5/5 220/5/5
f 222/5/6 229/5/6 221/5/6
f 223/5/7 230/5/7 222/5/7
f 224/5/8 231/5/8 223/5/8
f 217/5/9 232/5/9 224/5/9
f 226/5/10 233/5/10 225/5/10
f 227/5/11 234/5/11 226/5/11
f 228/5/12 235/5/12 227/5/12
f 229/5/13 236/5/13 228/5/13
f 230/5/14 237/5/14 229/5/14
f 231/5/15 238/5/15 230/5/15
f 232/5/16 239/5/16 231/5/16
f 225/5/17 240/5/17 232/5/17
f 234/5/18 241/5/18 233/5/18
f 234/5/19 243/5/19 242/5/19
f 236/5/20 243/5/20 235/5/20
f 237/5/34 244/5/34 236/5/34
f 238/5/22 245/5/22 237/5/22
f 239/5/35 246/5/35 238/5/35
f 240/5/24 247/5/24 239/5/24
f 233/5/36 248/5/36 240/5/36
f 247/5/26 248/5/26 244/5/26
f 251/6/1 249/6/1 252/6/1
f 254/6/26 256/6/26 253/6/26
f 250/6/10 253/6/10 249/6/10
f 251/6/12 254/6/12 250/6/12
f 252/6/14 255/6/14 251/6/14
f 249/6/16 256/6/16 252/6/16
f 259/2/14 258/2/14 257/2/14
f 258/2/37 263/2/37 257/2/37
f 259/2/16 264/2/16 258/2/16
f 260/2/38 265/2/38 259/2/38
f 261/2/39 266/2/39 260/2/39
f 262/2/12 267/2/12 261/2/12
f 257/2/40 268/2/40 262/2/40
f 267/2/10 268/2/10 264/2/10
f 271/2/14 270/2/14 269/2/14
f 270/2/37 275/2/37 269/2/37
f 271/2/16 276/2/16 270/2/16
f 272/2/38 277/2/38 271/2/38
f 273/2/39 278/2/39 272/2/39
f 274/2/12 279/2/12 273/2/12
f 269/2/40 280/2/40 274/2/40
f 278/2/10 279/2/10 280/2/10
f 283/6/1 281/6/1 284/6/1
f 286/6/26 288/6/26 285/6/26
f 282/6/10 285/6/10 281/6/10
f 283/6/12 286/6/12 282/6/12
f 284/6/14 287/6/14 283/6/14
f 281/6/16 288/6/16 284/6/16
f 291/6/1 289/6/1 292/6/1
f 294/6/26 296/6/26 293/6/26
f 290/6/10 293/6/10 289/6/10
f 291/6/12 294/6/12 290/6/12
f 292/6/14 295/6/14 291/6/14
f 289/6/16 296/6/16 292/6/16
f 1/1/1 8/1/1 7/1/1
f 7/1/1 6/1/1 1/1/1
f 6/1/1 5/1/1 1/1/1
f 5/1/1 4/1/1 3/1/1
f 3/1/1 2/1/1 5/1/1
f 2/1/2 10/1/2 9/1/2
f 2/1/3 3/1/3 11/1/3
f 4/1/4 12/1/4 11/1/4
f 5/1/5 13/1/5 12/1/5
f 6/1/6 14/1/6 13/1/6
f 6/1/7 7/1/7 15/1/7
f 8/1/8 16/1/8 15/1/8
f 1/1/9 9/1/9 16/1/9
f 10/1/10 18/1/10 17/1/10
f 11/1/11 19/1/11 18/1/11
f 12/1/12 20/1/12 19/1/12
f 13/1/13 21/1/13 20/1/13
f 14/1/14 22/1/14 21/1/14
f 15/1/15 23/1/15 22/1/15
f 16/1/16 24/1/16 23/1/16
f 9/1/17 17/1/17 24/1/17
f 18/1/18 26/1/18 25/1/18
f 19/1/19 27/1/19 26/1/19
f 20/1/20 28/1/20 27/1/20
f 20/1/21 21/1/21 29/1/21
f 22/1/22 30/1/22 29/1/22
f 23/1/23 31/1/23 30/1/23
f 24/1/24 32/1/24 31/1/24
f 24/1/25 17/1/25 25/1/25
f 32/1/26 25/1/26 30/1/26
f 25/1/26 26/1/26 30/1/26
f 26/1/26 27/1/26 28/1/26
f 28/1/26 29/1/26 26/1/26
f 29/1/26 30/1/26 26/1/26
f 33/2/1 38/2/1 37/2/1
f 37/2/1 36/2/1 35/2/1
f 35/2/1 34/2/1 33/2/1
f 34/2/27 40/2/27 39/2/27
f 35/2/16 41/2/16 40/2/16
f 36/2/28 42/2/28 41/2/28
f 37/2/29 43/2/29 42/2/29
f 38/2/12 44/2/12 43/2/12
f 33/2/30 39/2/30 44/2/30
f 44/2/26 39/2/26 40/2/26
f 40/2/26 41/2/26 42/2/26
f 42/2/26 43/2/26 44/2/26
f 45/2/1 50/2/1 49/2/1
f 49/2/1 48/2/1 47/2/1
f 47/2/1 46/2/1 45/2/1
f 46/2/27 52/2/27 51/2/27
f 47/2/16 53/2/16 52/2/16
f 48/2/28 54/2/28 53/2/28
f 49/2/29 55/2/29 54/2/29
f 50/2/12 56/2/12 55/2/12
f 45/2/30 51/2/30 56/2/30
f 56/2/26 51/2/26 52/2/26
f 52/2/26 53/2/26 54/2/26
f 54/2/26 55/2/26 56/2/26
f 57/2/1 62/2/1 61/2/1
f 61/2/1 60/2/1 59/2/1
f 59/2/1 58/2/1 57/2/1
f 58/2/27 64/2/27 63/2/27
f 59/2/16 65/2/16 64/2/16
f 60/2/28 66/2/28 65/2/28
f 61/2/29 67/2/29 66/2/29
f 62/2/12 68/2/12 67/2/12
f 57/2/30 63/2/30 68/2/30
f 68/2/26 63/2/26 64/2/26
f 64/2/26 65/2/26 66/2/26
f 66/2/26 67/2/26 68/2/26
f 69/2/1 74/2/1 73/2/1
f 73/2/1 72/2/1 71/2/1
f 71/2/1 70/2/1 69/2/1
f 70/2/27 76/2/27 75/2/27
f 71/2/16 77/2/16 76/2/16
f 72/2/28 78/2/28 77/2/28
f 73/2/29 79/2/29 78/2/29
f 74/2/12 80/2/12 79/2/12
f 69/2/30 75/2/30 80/2/30
f 80/2/26 75/2/26 76/2/26
f 76/2/26 77/2/26 78/2/26
f 78/2/26 79/2/26 80/2/26
f 81/3/1 88/3/1 87/3/1
f 87/3/1 86/3/1 81/3/1
f 86/3/1 85/3/1 81/3/1
f 85/3/1 84/3/1 83/3/1
f 83/3/1 82/3/1 85/3/1
f 82/3/2 90/3/2 89/3/2
f 82/3/3 83/3/3 91/3/3
f 84/3/4 92/3/4 91/3/4
f 85/3/5 93/3/5 92/3/5
f 86/3/6 94/3/6 93/3/6
f 86/3/7 87/3/7 95/3/7
f 88/3/8 96/3/8 95/3/8
f 81/3/9 89/3/9 96/3/9
f 90/3/10 98/3/10 97/3/10
f 91/3/11 99/3/11 98/3/11
f 92/3/12 100/3/12 99/3/12
f 93/3/13 101/3/13 100/3/13
f 94/3/14 102/3/14 101/3/14
f 95/3/15 103/3/15 102/3/15
f 96/3/16 104/3/16 103/3/16
f 89/3/17 97/3/17 104/3/17
f 97/3/18 98/3/18 106/3/18
f 99/3/19 107/3/19 106/3/19
f 100/3/20 108/3/20 107/3/20
f 101/3/21 109/3/21 108/3/21
f 101/3/22 102/3/22 110/3/22
f 103/3/23 111/3/23 110/3/23
f 104/3/24 112/3/24 111/3/24
f 97/3/25 105/3/25 112/3/25
f 112/3/26 105/3/26 110/3/26
f 105/3/26 106/3/26 110/3/26
f 106/3/26 107/3/26 108/3/26
f 108/3/26 109/3/26 106/3/26
f 109/3/26 110/3/26 106/3/26
f 115/4/1 114/4/1 113/4/1
f 118/4/26 119/4/26 120/4/26
f 114/4/10 118/4/10 117/4/10
f 115/4/12 119/4/12 118/4/12
f 116/4/14 120/4/14 119/4/14
f 113/4/16 117/4/16 120/4/16
f 123/5/1 122/5/1 121/5/1
f 126/5/26 127/5/26 128/5/26
f 122/5/10 126/5/10 125/5/10
f 123/5/12 127/5/12 126/5/12
f 124/5/14 128/5/14 127/5/14
f 121/5/16 125/5/16 128/5/16
f 131/2/1 130/2/1 129/2/1
f 134/2/26 135/2/26 136/2/26
f 130/2/10 134/2/10 133/2/10
f 131/2/12 135/2/12 134/2/12
f 132/2/14 136/2/14 135/2/14
f 129/2/16 133/2/16 136/2/16
f 139/5/1 138/5/1 137/5/1
f 142/5/26 143/5/26 144/5/26
f 138/5/10 142/5/10 141/5/10
f 139/5/12 143/5/12 142/5/12
f 140/5/14 144/5/14 143/5/14
f 137/5/16 141/5/16 144/5/16
f 147/2/1 146/2/1 145/2/1
f 150/2/26 151/2/26 152/2/26
f 146/2/10 150/2/10 149/2/10
f 147/2/12 151/2/12 150/2/12
f 148/2/14 152/2/14 151/2/14
f 145/2/16 149/2/16 152/2/16
f 155/6/1 154/6/1 153/6/1
f 158/6/26 159/6/26 160/6/26
f 154/6/10 158/6/10 157/6/10
f 155/6/12 159/6/12 158/6/12
f 156/6/14 160/6/14 159/6/14
f 153/6/16 157/6/16 160/6/16
f 161/6/1 168/6/1 167/6/1
f 167/6/1 166/6/1 161/6/1
f 166/6/1 165/6/1 161/6/1
f 165/6/1 164/6/1 163/6/1
f 163/6/1 162/6/1 165/6/1
f 162/6/2 170/6/2 169/6/2
f 163/6/41 171/6/41 170/6/41
f 164/6/4 172/6/4 171/6/4
f 165/6/42 173/6/42 172/6/42
f 166/6/6 174/6/6 173/6/6
f 167/6/43 175/6/43 174/6/43
f 168/6/8 176/6/8 175/6/8
f 161/6/44 169/6/44 176/6/44
f 170/6/10 178/6/10 177/6/10
f 171/6/11 179/6/11 178/6/11
f 172/6/12 180/6/12 179/6/12
f 173/6/13 181/6/13 180/6/13
f 174/6/14 182/6/14 181/6/14
f 175/6/15 183/6/15 182/6/15
f 176/6/16 184/6/16 183/6/16
f 169/6/17 177/6/17 184/6/17
f 178/6/18 186/6/18 185/6/18
f 179/6/45 187/6/45 186/6/45
f 180/6/20 188/6/20 187/6/20
f 181/6/21 189/6/21 188/6/21
f 182/6/22 190/6/22 189/6/22
f 183/6/46 191/6/46 190/6/46
f 184/6/24 192/6/24 191/6/24
f 177/6/25 185/6/25 192/6/25
f 192/6/26 185/6/26 190/6/26
f 185/6/26 186/6/26 190/6/26
f 186/6/26 187/6/26 188/6/26
f 188/6/26 189/6/26 186/6/26
f 189/6/26 190/6/26 186/6/26
f 195/2/1 194/2/1 193/2/1
f 198/2/26 199/2/26 200/2/26
f 194/2/10 198/2/10 197/2/10
f 195/2/12 199/2/12 198/2/12
f 196/2/14 200/2/14 199/2/14
f 193/2/16 197/2/16 200/2/16
f 203/2/1 202/2/1 201/2/1
f 206/2/26 207/2/26 208/2/26
f 202/2/10 206/2/10 205/2/10
f 203/2/12 207/2/12 206/2/12
f 204/2/14 208/2/14 207/2/14
f 201/2/16 205/2/16 208/2/16
f 211/2/1 210/2/1 209/2/1
f 214/2/26 215/2/26 216/2/26
f 210/2/10 214/2/10 213/2/10
f 211/2/12 215/2/12 214/2/12
f 212/2/14 216/2/14 215/2/14
f 209/2/16 213/2/16 216/2/16
f 217/5/1 224/5/1 219/5/1
f 224/5/1 223/5/1 219/5/1
f 223/5/1 222/5/1 221/5/1
f 221/5/1 220/5/1 223/5/1
f 220/5/1 219/5/1 223/5/1
f 218/5/2 226/5/2 225/5/2
f 218/5/3 219/5/3 227/5/3
f 220/5/4 228/5/4 227/5/4
f 221/5/5 229/5/5 228/5/5
f 222/5/6 230/5/6 229/5/6
f 223/5/47 231/5/47 230/5/47
f 224/5/8 232/5/8 231/5/8
f 217/5/9 225/5/9 232/5/9
f 226/5/10 234/5/10 233/5/10
f 227/5/11 235/5/11 234/5/11
f 228/5/12 236/5/12 235/5/12
f 229/5/13 237/5/13 236/5/13
f 230/5/14 238/5/14 237/5/14
f 231/5/15 239/5/15 238/5/15
f 232/5/16 240/5/16 239/5/16
f 225/5/17 233/5/17 240/5/17
f 234/5/18 242/5/18 241/5/18
f 234/5/33 235/5/33 243/5/33
f 236/5/20 244/5/20 243/5/20
f 237/5/21 245/5/21 244/5/21
f 238/5/22 246/5/22 245/5/22
f 239/5/48 247/5/48 246/5/48
f 240/5/24 248/5/24 247/5/24
f 233/5/25 241/5/25 248/5/25
f 248/5/26 241/5/26 242/5/26
f 242/5/26 243/5/26 248/5/26
f 243/5/26 244/5/26 248/5/26
f 244/5/26 245/5/26 246/5/26
f 246/5/26 247/5/26 244/5/26
f 251/6/1 250/6/1 249/6/1
f 254/6/26 255/6/26 256/6/26
f 250/6/10 254/6/10 253/6/10
f 251/6/12 255/6/12 254/6/12
f 252/6/14 256/6/14 255/6/14
f 249/6/16 253/6/16 256/6/16
f 257/2/14 262/2/14 259/2/14
f 262/2/14 261/2/14 259/2/14
f 261/2/14 260/2/14 259/2/14
f 258/2/37 264/2/37 263/2/37
f 259/2/16 265/2/16 264/2/16
f 260/2/38 266/2/38 265/2/38
f 261/2/39 267/2/39 266/2/39
f 262/2/12 268/2/12 267/2/12
f 257/2/40 263/2/40 268/2/40
f 268/2/10 263/2/10 264/2/10
f 264/2/10 265/2/10 266/2/10
f 266/2/10 267/2/10 264/2/10
f 269/2/14 274/2/14 273/2/14
f 273/2/14 272/2/14 269/2/14
f 272/2/14 271/2/14 269/2/14
f 270/2/37 276/2/37 275/2/37
f 271/2/16 277/2/16 276/2/16
f 272/2/38 278/2/38 277/2/38
f 273/2/39 279/2/39 278/2/39
f 274/2/12 280/2/12 279/2/12
f 269/2/40 275/2/40 280/2/40
f 280/2/10 275/2/10 278/2/10
f 275/2/10 276/2/10 278/2/10
f 276/2/10 277/2/10 278/2/10
f 283/6/1 282/6/1 281/6/1
f 286/6/26 287/6/26 288/6/26
f 282/6/10 286/6/10 285/6/10
f 283/6/12 287/6/12 286/6/12
f 284/6/14 288/6/14 287/6/14
f 281/6/16 285/6/16 288/6/16
f 291/6/1 290/6/1 289/6/1
f 294/6/26 295/6/26 296/6/26
f 290/6/10 294/6/10 293/6/10
f 291/6/12 295/6/12 294/6/12
f 292/6/14 296/6/14 295/6/14
f 289/6/16 293/6/16 296/6/16
