# Blender 5.2.1 LTS
# www.blender.org
mtllib salvage_arm.mtl
o BASE.004
v -0.361200 0.000000 0.350600
v 0.361200 0.000000 0.350600
v 0.375600 0.000000 0.336200
v 0.375600 0.000000 -0.336200
v 0.361200 0.000000 -0.350600
v -0.361200 0.000000 -0.350600
v -0.375600 0.000000 -0.336200
v -0.375600 0.000000 0.336200
v -0.375600 0.014400 0.365000
v 0.375600 0.014400 0.365000
v 0.390000 0.014400 0.350600
v 0.390000 0.014400 -0.350600
v 0.375600 0.014400 -0.365000
v -0.375600 0.014400 -0.365000
v -0.390000 0.014400 -0.350600
v -0.390000 0.014400 0.350600
v -0.375600 0.105600 0.365000
v 0.375600 0.105600 0.365000
v 0.390000 0.105600 0.350600
v 0.390000 0.105600 -0.350600
v 0.375600 0.105600 -0.365000
v -0.375600 0.105600 -0.365000
v -0.390000 0.105600 -0.350600
v -0.390000 0.105600 0.350600
v -0.361200 0.120000 0.350600
v 0.361200 0.120000 0.350600
v 0.375600 0.120000 0.336200
v 0.375600 0.120000 -0.336200
v 0.361200 0.120000 -0.350600
v -0.361200 0.120000 -0.350600
v -0.375600 0.120000 -0.336200
v -0.375600 0.120000 0.336200
v -0.300000 0.121000 -0.302000
v -0.327713 0.121000 -0.286000
v -0.327713 0.121000 -0.254000
v -0.300000 0.121000 -0.238000
v -0.272287 0.121000 -0.254000
v -0.272287 0.121000 -0.286000
v -0.300000 0.141000 -0.302000
v -0.327713 0.141000 -0.286000
v -0.327713 0.141000 -0.254000
v -0.300000 0.141000 -0.238000
v -0.272287 0.141000 -0.254000
v -0.272287 0.141000 -0.286000
v -0.300000 0.121000 0.238000
v -0.327713 0.121000 0.254000
v -0.327713 0.121000 0.286000
v -0.300000 0.121000 0.302000
v -0.272287 0.121000 0.286000
v -0.272287 0.121000 0.254000
v -0.300000 0.141000 0.238000
v -0.327713 0.141000 0.254000
v -0.327713 0.141000 0.286000
v -0.300000 0.141000 0.302000
v -0.272287 0.141000 0.286000
v -0.272287 0.141000 0.254000
v 0.300000 0.121000 -0.302000
v 0.272287 0.121000 -0.286000
v 0.272287 0.121000 -0.254000
v 0.300000 0.121000 -0.238000
v 0.327713 0.121000 -0.254000
v 0.327713 0.121000 -0.286000
v 0.300000 0.141000 -0.302000
v 0.272287 0.141000 -0.286000
v 0.272287 0.141000 -0.254000
v 0.300000 0.141000 -0.238000
v 0.327713 0.141000 -0.254000
v 0.327713 0.141000 -0.286000
v 0.300000 0.121000 0.238000
v 0.272287 0.121000 0.254000
v 0.272287 0.121000 0.286000
v 0.300000 0.121000 0.302000
v 0.327713 0.121000 0.286000
v 0.327713 0.121000 0.254000
v 0.300000 0.141000 0.238000
v 0.272287 0.141000 0.254000
v 0.272287 0.141000 0.286000
v 0.300000 0.141000 0.302000
v 0.327713 0.141000 0.286000
v 0.327713 0.141000 0.254000
v 0.000000 0.130000 -0.280000
v -0.164580 0.130000 -0.226525
v -0.266296 0.130000 -0.086525
v -0.266296 0.130000 0.086525
v -0.164580 0.130000 0.226525
v -0.000000 0.130000 0.280000
v 0.164580 0.130000 0.226525
v 0.266296 0.130000 0.086525
v 0.266296 0.130000 -0.086525
v 0.164580 0.130000 -0.226525
v 0.000000 0.330000 -0.280000
v -0.164580 0.330000 -0.226525
v -0.266296 0.330000 -0.086525
v -0.266296 0.330000 0.086525
v -0.164580 0.330000 0.226525
v -0.000000 0.330000 0.280000
v 0.164580 0.330000 0.226525
v 0.266296 0.330000 0.086525
v 0.266296 0.330000 -0.086525
v 0.164580 0.330000 -0.226525
v 0.000000 0.208997 -0.115926
v -0.120000 0.240000 -0.000000
v -0.000000 0.271003 0.115926
v 0.120000 0.240000 -0.000000
v 0.000000 1.068997 -0.345926
v -0.120000 1.100000 -0.230000
v -0.000000 1.131003 -0.114074
v 0.120000 1.100000 -0.230000
v 0.000000 1.199091 -0.216543
v -0.100000 1.100000 -0.230000
v -0.000000 1.000910 -0.243457
v 0.100000 1.100000 -0.230000
v 0.000000 1.089090 0.593457
v -0.100000 0.990000 0.580000
v -0.000000 0.890910 0.566543
v 0.100000 0.990000 0.580000
v 0.000000 0.495389 -0.108274
v -0.038000 0.470000 -0.080000
v -0.000000 0.444611 -0.051726
v 0.038000 0.470000 -0.080000
v 0.000000 0.985389 0.331726
v -0.038000 0.960000 0.360000
v -0.000000 0.934611 0.388274
v 0.038000 0.960000 0.360000
v 0.000000 0.994074 0.624815
v -0.040523 1.009487 0.578229
v -0.000000 0.985926 0.535185
v 0.040523 0.970513 0.581772
v -0.160000 0.664074 0.654815
v -0.200523 0.679487 0.608229
v -0.160000 0.655926 0.565185
v -0.119477 0.640513 0.611772
v -0.160000 0.668050 0.654274
v -0.191792 0.628666 0.615697
v -0.160000 0.651950 0.565726
v -0.128208 0.691334 0.604303
v -0.048000 0.558050 0.674274
v -0.079792 0.518666 0.635697
v -0.048000 0.541950 0.585726
v -0.016208 0.581334 0.624303
v 0.000000 0.994074 0.624815
v -0.040523 0.970513 0.581772
v -0.000000 0.985926 0.535185
v 0.040523 1.009487 0.578229
v 0.160000 0.664074 0.654815
v 0.119477 0.640513 0.611772
v 0.160000 0.655926 0.565185
v 0.200523 0.679487 0.608229
v 0.160000 0.668050 0.654274
v 0.128208 0.691334 0.604303
v 0.160000 0.651950 0.565726
v 0.191792 0.628666 0.615697
v 0.048000 0.558050 0.674274
v 0.016208 0.581334 0.624303
v 0.048000 0.541950 0.585726
v 0.079792 0.518666 0.635697
v -0.120000 1.230000 -0.230000
v -0.120000 1.212583 -0.165000
v -0.120000 1.165000 -0.117417
v -0.120000 1.100000 -0.100000
v -0.120000 1.035000 -0.117417
v -0.120000 0.987417 -0.165000
v -0.120000 0.970000 -0.230000
v -0.120000 0.987417 -0.295000
v -0.120000 1.035000 -0.342583
v -0.120000 1.100000 -0.360000
v -0.120000 1.165000 -0.342583
v -0.120000 1.212583 -0.295000
v 0.120000 1.230000 -0.230000
v 0.120000 1.212583 -0.165000
v 0.120000 1.165000 -0.117417
v 0.120000 1.100000 -0.100000
v 0.120000 1.035000 -0.117417
v 0.120000 0.987417 -0.165000
v 0.120000 0.970000 -0.230000
v 0.120000 0.987417 -0.295000
v 0.120000 1.035000 -0.342583
v 0.120000 1.100000 -0.360000
v 0.120000 1.165000 -0.342583
v 0.120000 1.212583 -0.295000
v -0.120000 1.120000 0.580000
v -0.120000 1.102583 0.645000
v -0.120000 1.055000 0.692583
v -0.120000 0.990000 0.710000
v -0.120000 0.925000 0.692583
v -0.120000 0.877417 0.645000
v -0.120000 0.860000 0.580000
v -0.120000 0.877417 0.515000
v -0.120000 0.925000 0.467417
v -0.120000 0.990000 0.450000
v -0.120000 1.055000 0.467417
v -0.120000 1.102583 0.515000
v 0.120000 1.120000 0.580000
v 0.120000 1.102583 0.645000
v 0.120000 1.055000 0.692583
v 0.120000 0.990000 0.710000
v 0.120000 0.925000 0.692583
v 0.120000 0.877417 0.645000
v 0.120000 0.860000 0.580000
v 0.120000 0.877417 0.515000
v 0.120000 0.925000 0.467417
v 0.120000 0.990000 0.450000
v 0.120000 1.055000 0.467417
v 0.120000 1.102583 0.515000
v 0.130000 0.355796 -0.087940
v 0.080000 0.370000 -0.040000
v 0.130000 0.384204 0.007940
v 0.180000 0.370000 -0.040000
v 0.130000 0.895796 -0.247940
v 0.080000 0.910000 -0.200000
v 0.130000 0.924204 -0.152060
v 0.180000 0.910000 -0.200000
v 0.130000 0.803881 -0.199369
v 0.100000 0.810000 -0.170000
v 0.130000 0.816119 -0.140631
v 0.160000 0.810000 -0.170000
v 0.130000 1.043881 -0.249369
v 0.100000 1.050000 -0.220000
v 0.130000 1.056119 -0.190631
v 0.160000 1.050000 -0.220000
vn -0.0000 -1.0000 -0.0000
vn -0.0000 -0.7071 0.7071
vn 0.4082 -0.8165 0.4082
vn 0.7071 -0.7071 -0.0000
vn 0.4082 -0.8165 -0.4082
vn -0.0000 -0.7071 -0.7071
vn -0.4082 -0.8165 -0.4082
vn -0.7071 -0.7071 -0.0000
vn -0.4082 -0.8165 0.4082
vn -0.0000 -0.0000 1.0000
vn 0.7071 -0.0000 0.7071
vn 1.0000 -0.0000 -0.0000
vn 0.7071 -0.0000 -0.7071
vn -0.0000 -0.0000 -1.0000
vn -0.7071 -0.0000 -0.7071
vn -1.0000 -0.0000 -0.0000
vn -0.7071 -0.0000 0.7071
vn -0.0000 0.7071 0.7071
vn 0.4082 0.8165 0.4082
vn 0.7071 0.7071 -0.0000
vn 0.4082 0.8165 -0.4082
vn -0.0000 0.7071 -0.7071
vn -0.4082 0.8165 -0.4082
vn -0.7071 0.7071 -0.0000
vn -0.4082 0.8165 0.4082
vn -0.0000 1.0000 -0.0000
vn -0.5000 -0.0000 -0.8660
vn -0.5000 -0.0000 0.8660
vn 0.5000 -0.0000 0.8660
vn 0.5000 -0.0000 -0.8660
vn -0.3090 -0.0000 -0.9511
vn -0.8090 -0.0000 -0.5878
vn -0.8090 -0.0000 0.5878
vn -0.3090 -0.0000 0.9511
vn 0.3090 -0.0000 0.9511
vn 0.8090 -0.0000 0.5878
vn 0.8090 -0.0000 -0.5878
vn 0.3090 -0.0000 -0.9511
vn -0.0000 -0.9660 0.2584
vn -0.7071 -0.1827 -0.6831
vn -0.7071 0.1827 0.6831
vn 0.7071 0.1827 0.6831
vn 0.7071 -0.1827 -0.6831
vn -0.0000 0.9660 -0.2584
vn -0.0000 0.1346 -0.9909
vn -0.7071 0.7007 0.0952
vn -0.7071 -0.7007 -0.0952
vn 0.7071 -0.7007 -0.0952
vn 0.7071 0.7007 0.0952
vn -0.0000 -0.1346 0.9909
vn -0.0000 -0.7440 -0.6681
vn -0.7071 0.4724 -0.5261
vn -0.7071 -0.4724 0.5261
vn 0.7071 -0.4724 0.5261
vn 0.7071 0.4724 -0.5261
vn -0.0000 0.7440 0.6681
vn 0.4348 0.8968 -0.0815
vn -0.6368 0.3702 0.6764
vn -0.6368 0.2422 -0.7320
vn 0.6368 -0.3702 -0.6764
vn 0.6368 -0.2422 0.7320
vn -0.4348 -0.8968 0.0815
vn -0.7077 0.6951 -0.1264
vn -0.4996 -0.3659 0.7852
vn -0.4996 -0.6189 -0.6062
vn 0.4996 0.3659 -0.7852
vn 0.4996 0.6189 0.6062
vn 0.7077 -0.6951 0.1264
vn -0.4348 0.8968 -0.0815
vn -0.6368 -0.2422 0.7320
vn -0.6368 -0.3702 -0.6764
vn 0.6368 0.2422 -0.7320
vn 0.6368 0.3702 0.6764
vn 0.4348 -0.8968 0.0815
vn 0.7077 0.6951 -0.1264
vn -0.4996 0.6189 0.6062
vn -0.4996 0.3659 -0.7852
vn 0.4996 -0.6189 -0.6062
vn 0.4996 -0.3659 0.7852
vn -0.7077 -0.6951 0.1264
vn -0.0000 0.9659 0.2588
vn -0.0000 0.2588 0.9659
vn -0.0000 -0.2588 0.9659
vn -0.0000 -0.9659 0.2588
vn -0.0000 -0.9659 -0.2588
vn -0.0000 -0.2588 -0.9659
vn -0.0000 0.2588 -0.9659
vn -0.0000 0.9659 -0.2588
vn -0.0000 -0.9588 0.2841
vn -0.7071 -0.2009 -0.6780
vn -0.7071 0.2009 0.6780
vn 0.7071 0.2009 0.6780
vn 0.7071 -0.2009 -0.6780
vn -0.0000 0.9588 -0.2841
vn -0.0000 -0.9790 0.2040
vn -0.7071 -0.1442 -0.6922
vn -0.7071 0.1442 0.6922
vn 0.7071 0.1442 0.6922
vn 0.7071 -0.1442 -0.6922
vn -0.0000 0.9790 -0.2040
vt 0.625000 0.125000
vt 0.375000 0.875000
vt 0.125000 0.625000
vt 0.125000 0.125000
vt 0.875000 0.125000
s 0
usemtl Military_Equipment_Palette
f 2/1/1 1/1/1 5/1/1
f 2/1/2 9/1/2 1/1/2
f 2/1/3 11/1/3 10/1/3
f 4/1/4 11/1/4 3/1/4
f 5/1/5 12/1/5 4/1/5
f 6/1/6 13/1/6 5/1/6
f 6/1/7 15/1/7 14/1/7
f 8/1/8 15/1/8 7/1/8
f 1/1/9 16/1/9 8/1/9
f 10/1/10 17/1/10 9/1/10
f 11/1/11 18/1/11 10/1/11
f 12/1/12 19/1/12 11/1/12
f 13/1/13 20/1/13 12/1/13
f 14/1/14 21/1/14 13/1/14
f 15/1/15 22/1/15 14/1/15
f 16/1/16 23/1/16 15/1/16
f 9/1/17 24/1/17 16/1/17
f 18/1/18 25/1/18 17/1/18
f 19/1/19 26/1/19 18/1/19
f 20/1/20 27/1/20 19/1/20
f 20/1/21 29/1/21 28/1/21
f 22/1/22 29/1/22 21/1/22
f 23/1/23 30/1/23 22/1/23
f 24/1/24 31/1/24 23/1/24
f 24/1/25 25/1/25 32/1/25
f 30/1/26 31/1/26 32/1/26
f 37/2/1 35/2/1 33/2/1
f 34/2/27 39/2/27 33/2/27
f 35/2/16 40/2/16 34/2/16
f 36/2/28 41/2/28 35/2/28
f 37/2/29 42/2/29 36/2/29
f 38/2/12 43/2/12 37/2/12
f 33/2/30 44/2/30 38/2/30
f 40/2/26 42/2/26 44/2/26
f 49/2/1 47/2/1 45/2/1
f 46/2/27 51/2/27 45/2/27
f 47/2/16 52/2/16 46/2/16
f 48/2/28 53/2/28 47/2/28
f 49/2/29 54/2/29 48/2/29
f 50/2/12 55/2/12 49/2/12
f 45/2/30 56/2/30 50/2/30
f 52/2/26 54/2/26 56/2/26
f 61/2/1 59/2/1 57/2/1
f 58/2/27 63/2/27 57/2/27
f 59/2/16 64/2/16 58/2/16
f 60/2/28 65/2/28 59/2/28
f 61/2/29 66/2/29 60/2/29
f 62/2/12 67/2/12 61/2/12
f 57/2/30 68/2/30 62/2/30
f 64/2/26 66/2/26 68/2/26
f 73/2/1 71/2/1 69/2/1
f 70/2/27 75/2/27 69/2/27
f 71/2/16 76/2/16 70/2/16
f 72/2/28 77/2/28 71/2/28
f 73/2/29 78/2/29 72/2/29
f 74/2/12 79/2/12 73/2/12
f 69/2/30 80/2/30 74/2/30
f 76/2/26 78/2/26 80/2/26
f 87/3/1 85/3/1 83/3/1
f 82/3/31 91/3/31 81/3/31
f 83/3/32 92/3/32 82/3/32
f 84/3/16 93/3/16 83/3/16
f 85/3/33 94/3/33 84/3/33
f 86/3/34 95/3/34 85/3/34
f 87/3/35 96/3/35 86/3/35
f 88/3/36 97/3/36 87/3/36
f 89/3/12 98/3/12 88/3/12
f 90/3/37 99/3/37 89/3/37
f 81/3/38 100/3/38 90/3/38
f 94/3/26 98/3/26 100/3/26
f 104/2/39 102/2/39 101/2/39
f 101/2/40 106/2/40 105/2/40
f 103/2/41 106/2/41 102/2/41
f 104/2/42 107/2/42 103/2/42
f 101/2/43 108/2/43 104/2/43
f 106/2/44 108/2/44 105/2/44
f 112/4/45 110/4/45 109/4/45
f 110/4/46 113/4/46 109/4/46
f 111/4/47 114/4/47 110/4/47
f 112/4/48 115/4/48 111/4/48
f 109/4/49 116/4/49 112/4/49
f 113/4/50 115/4/50 116/4/50
f 119/3/51 117/3/51 120/3/51
f 117/3/52 122/3/52 121/3/52
f 119/3/53 122/3/53 118/3/53
f 120/3/54 123/3/54 119/3/54
f 117/3/55 124/3/55 120/3/55
f 122/3/56 124/3/56 121/3/56
f 128/3/57 126/3/57 125/3/57
f 125/3/58 130/3/58 129/3/58
f 127/3/59 130/3/59 126/3/59
f 128/3/60 131/3/60 127/3/60
f 128/3/61 129/3/61 132/3/61
f 129/3/62 131/3/62 132/3/62
f 135/5/63 133/5/63 136/5/63
f 133/5/64 138/5/64 137/5/64
f 135/5/65 138/5/65 134/5/65
f 135/5/66 140/5/66 139/5/66
f 133/5/67 140/5/67 136/5/67
f 138/5/68 140/5/68 137/5/68
f 144/3/69 142/3/69 141/3/69
f 142/3/70 145/3/70 141/3/70
f 143/3/71 146/3/71 142/3/71
f 144/3/72 147/3/72 143/3/72
f 144/3/73 145/3/73 148/3/73
f 145/3/74 147/3/74 148/3/74
f 151/5/75 149/5/75 152/5/75
f 150/5/76 153/5/76 149/5/76
f 151/5/77 154/5/77 150/5/77
f 151/5/78 156/5/78 155/5/78
f 149/5/79 156/5/79 152/5/79
f 154/5/80 156/5/80 153/5/80
f 165/3/16 161/3/16 157/3/16
f 158/3/81 169/3/81 157/3/81
f 159/3/18 170/3/18 158/3/18
f 160/3/82 171/3/82 159/3/82
f 161/3/83 172/3/83 160/3/83
f 162/3/2 173/3/2 161/3/2
f 163/3/84 174/3/84 162/3/84
f 164/3/85 175/3/85 163/3/85
f 165/3/6 176/3/6 164/3/6
f 166/3/86 177/3/86 165/3/86
f 167/3/87 178/3/87 166/3/87
f 168/3/22 179/3/22 167/3/22
f 157/3/88 180/3/88 168/3/88
f 172/3/12 176/3/12 180/3/12
f 189/3/16 185/3/16 181/3/16
f 182/3/81 193/3/81 181/3/81
f 183/3/18 194/3/18 182/3/18
f 184/3/82 195/3/82 183/3/82
f 185/3/83 196/3/83 184/3/83
f 186/3/2 197/3/2 185/3/2
f 187/3/84 198/3/84 186/3/84
f 188/3/85 199/3/85 187/3/85
f 189/3/6 200/3/6 188/3/6
f 190/3/86 201/3/86 189/3/86
f 191/3/87 202/3/87 190/3/87
f 192/3/22 203/3/22 191/3/22
f 181/3/88 204/3/88 192/3/88
f 196/3/12 200/3/12 204/3/12
f 207/1/89 205/1/89 208/1/89
f 205/1/90 210/1/90 209/1/90
f 207/1/91 210/1/91 206/1/91
f 208/1/92 211/1/92 207/1/92
f 205/1/93 212/1/93 208/1/93
f 210/1/94 212/1/94 209/1/94
f 215/3/95 213/3/95 216/3/95
f 213/3/96 218/3/96 217/3/96
f 215/3/97 218/3/97 214/3/97
f 215/3/98 220/3/98 219/3/98
f 213/3/99 220/3/99 216/3/99
f 218/3/100 220/3/100 217/3/100
f 1/1/1 8/1/1 7/1/1
f 7/1/1 6/1/1 1/1/1
f 6/1/1 5/1/1 1/1/1
f 5/1/1 4/1/1 3/1/1
f 3/1/1 2/1/1 5/1/1
f 2/1/2 10/1/2 9/1/2
f 2/1/3 3/1/3 11/1/3
f 4/1/4 12/1/4 11/1/4
f 5/1/5 13/1/5 12/1/5
f 6/1/6 14/1/6 13/1/6
f 6/1/7 7/1/7 15/1/7
f 8/1/8 16/1/8 15/1/8
f 1/1/9 9/1/9 16/1/9
f 10/1/10 18/1/10 17/1/10
f 11/1/11 19/1/11 18/1/11
f 12/1/12 20/1/12 19/1/12
f 13/1/13 21/1/13 20/1/13
f 14/1/14 22/1/14 21/1/14
f 15/1/15 23/1/15 22/1/15
f 16/1/16 24/1/16 23/1/16
f 9/1/17 17/1/17 24/1/17
f 18/1/18 26/1/18 25/1/18
f 19/1/19 27/1/19 26/1/19
f 20/1/20 28/1/20 27/1/20
f 20/1/21 21/1/21 29/1/21
f 22/1/22 30/1/22 29/1/22
f 23/1/23 31/1/23 30/1/23
f 24/1/24 32/1/24 31/1/24
f 24/1/25 17/1/25 25/1/25
f 32/1/26 25/1/26 30/1/26
f 25/1/26 26/1/26 30/1/26
f 26/1/26 27/1/26 28/1/26
f 28/1/26 29/1/26 26/1/26
f 29/1/26 30/1/26 26/1/26
f 33/2/1 38/2/1 37/2/1
f 37/2/1 36/2/1 35/2/1
f 35/2/1 34/2/1 33/2/1
f 34/2/27 40/2/27 39/2/27
f 35/2/16 41/2/16 40/2/16
f 36/2/28 42/2/28 41/2/28
f 37/2/29 43/2/29 42/2/29
f 38/2/12 44/2/12 43/2/12
f 33/2/30 39/2/30 44/2/30
f 44/2/26 39/2/26 40/2/26
f 40/2/26 41/2/26 42/2/26
f 42/2/26 43/2/26 44/2/26
f 45/2/1 50/2/1 49/2/1
f 49/2/1 48/2/1 47/2/1
f 47/2/1 46/2/1 45/2/1
f 46/2/27 52/2/27 51/2/27
f 47/2/16 53/2/16 52/2/16
f 48/2/28 54/2/28 53/2/28
f 49/2/29 55/2/29 54/2/29
f 50/2/12 56/2/12 55/2/12
f 45/2/30 51/2/30 56/2/30
f 56/2/26 51/2/26 52/2/26
f 52/2/26 53/2/26 54/2/26
f 54/2/26 55/2/26 56/2/26
f 57/2/1 62/2/1 61/2/1
f 61/2/1 60/2/1 59/2/1
f 59/2/1 58/2/1 57/2/1
f 58/2/27 64/2/27 63/2/27
f 59/2/16 65/2/16 64/2/16
f 60/2/28 66/2/28 65/2/28
f 61/2/29 67/2/29 66/2/29
f 62/2/12 68/2/12 67/2/12
f 57/2/30 63/2/30 68/2/30
f 68/2/26 63/2/26 64/2/26
f 64/2/26 65/2/26 66/2/26
f 66/2/26 67/2/26 68/2/26
f 69/2/1 74/2/1 73/2/1
f 73/2/1 72/2/1 71/2/1
f 71/2/1 70/2/1 69/2/1
f 70/2/27 76/2/27 75/2/27
f 71/2/16 77/2/16 76/2/16
f 72/2/28 78/2/28 77/2/28
f 73/2/29 79/2/29 78/2/29
f 74/2/12 80/2/12 79/2/12
f 69/2/30 75/2/30 80/2/30
f 80/2/26 75/2/26 76/2/26
f 76/2/26 77/2/26 78/2/26
f 78/2/26 79/2/26 80/2/26
f 81/3/1 90/3/1 89/3/1
f 89/3/1 88/3/1 87/3/1
f 87/3/1 86/3/1 85/3/1
f 85/3/1 84/3/1 83/3/1
f 83/3/1 82/3/1 87/3/1
f 82/3/1 81/3/1 87/3/1
f 81/3/1 89/3/1 87/3/1
f 82/3/31 92/3/31 91/3/31
f 83/3/32 93/3/32 92/3/32
f 84/3/16 94/3/16 93/3/16
f 85/3/33 95/3/33 94/3/33
f 86/3/34 96/3/34 95/3/34
f 87/3/35 97/3/35 96/3/35
f 88/3/36 98/3/36 97/3/36
f 89/3/12 99/3/12 98/3/12
f 90/3/37 100/3/37 99/3/37
f 81/3/38 91/3/38 100/3/38
f 100/3/26 91/3/26 92/3/26
f 92/3/26 93/3/26 94/3/26
f 94/3/26 95/3/26 96/3/26
f 96/3/26 97/3/26 98/3/26
f 98/3/26 99/3/26 100/3/26
f 100/3/26 92/3/26 94/3/26
f 94/3/26 96/3/26 98/3/26
f 104/2/39 103/2/39 102/2/39
f 101/2/40 102/2/40 106/2/40
f 103/2/41 107/2/41 106/2/41
f 104/2/42 108/2/42 107/2/42
f 101/2/43 105/2/43 108/2/43
f 106/2/44 107/2/44 108/2/44
f 112/4/45 111/4/45 110/4/45
f 110/4/46 114/4/46 113/4/46
f 111/4/47 115/4/47 114/4/47
f 112/4/48 116/4/48 115/4/48
f 109/4/49 113/4/49 116/4/49
f 113/4/50 114/4/50 115/4/50
f 119/3/51 118/3/51 117/3/51
f 117/3/52 118/3/52 122/3/52
f 119/3/53 123/3/53 122/3/53
f 120/3/54 124/3/54 123/3/54
f 117/3/55 121/3/55 124/3/55
f 122/3/56 123/3/56 124/3/56
f 128/3/57 127/3/57 126/3/57
f 125/3/58 126/3/58 130/3/58
f 127/3/59 131/3/59 130/3/59
f 128/3/60 132/3/60 131/3/60
f 128/3/61 125/3/61 129/3/61
f 129/3/62 130/3/62 131/3/62
f 135/5/63 134/5/63 133/5/63
f 133/5/64 134/5/64 138/5/64
f 135/5/65 139/5/65 138/5/65
f 135/5/66 136/5/66 140/5/66
f 133/5/67 137/5/67 140/5/67
f 138/5/68 139/5/68 140/5/68
f 144/3/69 143/3/69 142/3/69
f 142/3/70 146/3/70 145/3/70
f 143/3/71 147/3/71 146/3/71
f 144/3/72 148/3/72 147/3/72
f 144/3/73 141/3/73 145/3/73
f 145/3/74 146/3/74 147/3/74
f 151/5/75 150/5/75 149/5/75
f 150/5/76 154/5/76 153/5/76
f 151/5/77 155/5/77 154/5/77
f 151/5/78 152/5/78 156/5/78
f 149/5/79 153/5/79 156/5/79
f 154/5/80 155/5/80 156/5/80
f 157/3/16 168/3/16 167/3/16
f 167/3/16 166/3/16 165/3/16
f 165/3/16 164/3/16 163/3/16
f 163/3/16 162/3/16 165/3/16
f 162/3/16 161/3/16 165/3/16
f 161/3/16 160/3/16 159/3/16
f 159/3/16 158/3/16 161/3/16
f 158/3/16 157/3/16 161/3/16
f 157/3/16 167/3/16 165/3/16
f 158/3/81 170/3/81 169/3/81
f 159/3/18 171/3/18 170/3/18
f 160/3/82 172/3/82 171/3/82
f 161/3/83 173/3/83 172/3/83
f 162/3/2 174/3/2 173/3/2
f 163/3/84 175/3/84 174/3/84
f 164/3/85 176/3/85 175/3/85
f 165/3/6 177/3/6 176/3/6
f 166/3/86 178/3/86 177/3/86
f 167/3/87 179/3/87 178/3/87
f 168/3/22 180/3/22 179/3/22
f 157/3/88 169/3/88 180/3/88
f 180/3/12 169/3/12 170/3/12
f 170/3/12 171/3/12 180/3/12
f 171/3/12 172/3/12 180/3/12
f 172/3/12 173/3/12 174/3/12
f 174/3/12 175/3/12 176/3/12
f 176/3/12 177/3/12 178/3/12
f 178/3/12 179/3/12 176/3/12
f 179/3/12 180/3/12 176/3/12
f 172/3/12 174/3/12 176/3/12
f 181/3/16 192/3/16 189/3/16
f 192/3/16 191/3/16 189/3/16
f 191/3/16 190/3/16 189/3/16
f 189/3/16 188/3/16 187/3/16
f 187/3/16 186/3/16 189/3/16
f 186/3/16 185/3/16 189/3/16
f 185/3/16 184/3/16 183/3/16
f 183/3/16 182/3/16 185/3/16
f 182/3/16 181/3/16 185/3/16
f 182/3/81 194/3/81 193/3/81
f 183/3/18 195/3/18 194/3/18
f 184/3/82 196/3/82 195/3/82
f 185/3/83 197/3/83 196/3/83
f 186/3/2 198/3/2 197/3/2
f 187/3/84 199/3/84 198/3/84
f 188/3/85 200/3/85 199/3/85
f 189/3/6 201/3/6 200/3/6
f 190/3/86 202/3/86 201/3/86
f 191/3/87 203/3/87 202/3/87
f 192/3/22 204/3/22 203/3/22
f 181/3/88 193/3/88 204/3/88
f 204/3/12 193/3/12 194/3/12
f 194/3/12 195/3/12 196/3/12
f 196/3/12 197/3/12 200/3/12
f 197/3/12 198/3/12 200/3/12
f 198/3/12 199/3/12 200/3/12
f 200/3/12 201/3/12 204/3/12
f 201/3/12 202/3/12 204/3/12
f 202/3/12 203/3/12 204/3/12
f 204/3/12 194/3/12 196/3/12
f 207/1/89 206/1/89 205/1/89
f 205/1/90 206/1/90 210/1/90
f 207/1/91 211/1/91 210/1/91
f 208/1/92 212/1/92 211/1/92
f 205/1/93 209/1/93 212/1/93
f 210/1/94 211/1/94 212/1/94
f 215/3/95 214/3/95 213/3/95
f 213/3/96 214/3/96 218/3/96
f 215/3/97 219/3/97 218/3/97
f 215/3/98 216/3/98 220/3/98
f 213/3/99 217/3/99 220/3/99
f 218/3/100 219/3/100 220/3/100
