# Blender 5.2.1 LTS
# www.blender.org
mtllib treasury.mtl
o BASE.022
v -0.361200 0.000000 0.350600
v 0.361200 0.000000 0.350600
v 0.375600 0.000000 0.336200
v 0.375600 0.000000 -0.336200
v 0.361200 0.000000 -0.350600
v -0.361200 0.000000 -0.350600
v -0.375600 0.000000 -0.336200
v -0.375600 0.000000 0.336200
v -0.375600 0.014400 0.365000
v 0.375600 0.014400 0.365000
v 0.390000 0.014400 0.350600
v 0.390000 0.014400 -0.350600
v 0.375600 0.014400 -0.365000
v -0.375600 0.014400 -0.365000
v -0.390000 0.014400 -0.350600
v -0.390000 0.014400 0.350600
v -0.375600 0.105600 0.365000
v 0.375600 0.105600 0.365000
v 0.390000 0.105600 0.350600
v 0.390000 0.105600 -0.350600
v 0.375600 0.105600 -0.365000
v -0.375600 0.105600 -0.365000
v -0.390000 0.105600 -0.350600
v -0.390000 0.105600 0.350600
v -0.361200 0.120000 0.350600
v 0.361200 0.120000 0.350600
v 0.375600 0.120000 0.336200
v 0.375600 0.120000 -0.336200
v 0.361200 0.120000 -0.350600
v -0.361200 0.120000 -0.350600
v -0.375600 0.120000 -0.336200
v -0.375600 0.120000 0.336200
v -0.300000 0.121000 -0.302000
v -0.327713 0.121000 -0.286000
v -0.327713 0.121000 -0.254000
v -0.300000 0.121000 -0.238000
v -0.272287 0.121000 -0.254000
v -0.272287 0.121000 -0.286000
v -0.300000 0.141000 -0.302000
v -0.327713 0.141000 -0.286000
v -0.327713 0.141000 -0.254000
v -0.300000 0.141000 -0.238000
v -0.272287 0.141000 -0.254000
v -0.272287 0.141000 -0.286000
v -0.300000 0.121000 0.238000
v -0.327713 0.121000 0.254000
v -0.327713 0.121000 0.286000
v -0.300000 0.121000 0.302000
v -0.272287 0.121000 0.286000
v -0.272287 0.121000 0.254000
v -0.300000 0.141000 0.238000
v -0.327713 0.141000 0.254000
v -0.327713 0.141000 0.286000
v -0.300000 0.141000 0.302000
v -0.272287 0.141000 0.286000
v -0.272287 0.141000 0.254000
v 0.300000 0.121000 -0.302000
v 0.272287 0.121000 -0.286000
v 0.272287 0.121000 -0.254000
v 0.300000 0.121000 -0.238000
v 0.327713 0.121000 -0.254000
v 0.327713 0.121000 -0.286000
v 0.300000 0.141000 -0.302000
v 0.272287 0.141000 -0.286000
v 0.272287 0.141000 -0.254000
v 0.300000 0.141000 -0.238000
v 0.327713 0.141000 -0.254000
v 0.327713 0.141000 -0.286000
v 0.300000 0.121000 0.238000
v 0.272287 0.121000 0.254000
v 0.272287 0.121000 0.286000
v 0.300000 0.121000 0.302000
v 0.327713 0.121000 0.286000
v 0.327713 0.121000 0.254000
v 0.300000 0.141000 0.238000
v 0.272287 0.141000 0.254000
v 0.272287 0.141000 0.286000
v 0.300000 0.141000 0.302000
v 0.327713 0.141000 0.286000
v 0.327713 0.141000 0.254000
v -0.325000 0.135000 0.325000
v 0.325000 0.135000 0.325000
v 0.350000 0.135000 0.300000
v 0.350000 0.135000 -0.300000
v 0.325000 0.135000 -0.325000
v -0.325000 0.135000 -0.325000
v -0.350000 0.135000 -0.300000
v -0.350000 0.135000 0.300000
v -0.350000 0.160000 0.350000
v 0.350000 0.160000 0.350000
v 0.375000 0.160000 0.325000
v 0.375000 0.160000 -0.325000
v 0.350000 0.160000 -0.350000
v -0.350000 0.160000 -0.350000
v -0.375000 0.160000 -0.325000
v -0.375000 0.160000 0.325000
v -0.350000 0.720000 0.350000
v 0.350000 0.720000 0.350000
v 0.375000 0.720000 0.325000
v 0.375000 0.720000 -0.325000
v 0.350000 0.720000 -0.350000
v -0.350000 0.720000 -0.350000
v -0.375000 0.720000 -0.325000
v -0.375000 0.720000 0.325000
v -0.325000 0.745000 0.325000
v 0.325000 0.745000 0.325000
v 0.350000 0.745000 0.300000
v 0.350000 0.745000 -0.300000
v 0.325000 0.745000 -0.325000
v -0.325000 0.745000 -0.325000
v -0.350000 0.745000 -0.300000
v -0.350000 0.745000 0.300000
v -0.392500 0.745000 0.367500
v 0.392500 0.745000 0.367500
v 0.392500 0.745000 -0.367500
v -0.392500 0.745000 -0.367500
v -0.392500 0.795000 0.367500
v 0.392500 0.795000 0.367500
v 0.392500 0.795000 -0.367500
v -0.392500 0.795000 -0.367500
v -0.242500 0.100000 0.375000
v -0.207500 0.100000 0.375000
v -0.207500 0.100000 -0.375000
v -0.242500 0.100000 -0.375000
v -0.242500 0.780000 0.375000
v -0.207500 0.780000 0.375000
v -0.207500 0.780000 -0.375000
v -0.242500 0.780000 -0.375000
v -0.210000 0.525300 0.387500
v -0.120000 0.525300 0.387500
v -0.120000 0.525300 0.352500
v -0.210000 0.525300 0.352500
v -0.210000 0.635300 0.387500
v -0.120000 0.635300 0.387500
v -0.120000 0.635300 0.352500
v -0.210000 0.635300 0.352500
v 0.207500 0.100000 0.375000
v 0.242500 0.100000 0.375000
v 0.242500 0.100000 -0.375000
v 0.207500 0.100000 -0.375000
v 0.207500 0.780000 0.375000
v 0.242500 0.780000 0.375000
v 0.242500 0.780000 -0.375000
v 0.207500 0.780000 -0.375000
v 0.120000 0.525300 0.387500
v 0.210000 0.525300 0.387500
v 0.210000 0.525300 0.352500
v 0.120000 0.525300 0.352500
v 0.120000 0.635300 0.387500
v 0.210000 0.635300 0.387500
v 0.210000 0.635300 0.352500
v 0.120000 0.635300 0.352500
v -0.100000 0.488200 0.412500
v 0.100000 0.488200 0.412500
v 0.100000 0.488200 0.367500
v -0.100000 0.488200 0.367500
v -0.100000 0.538200 0.412500
v 0.100000 0.538200 0.412500
v 0.100000 0.538200 0.367500
v -0.100000 0.538200 0.367500
v 0.000000 0.600000 0.355500
v -0.084853 0.564853 0.355500
v -0.120000 0.480000 0.355500
v -0.084853 0.395147 0.355500
v -0.000000 0.360000 0.355500
v 0.084853 0.395147 0.355500
v 0.120000 0.480000 0.355500
v 0.084853 0.564853 0.355500
v 0.000000 0.600000 0.390500
v -0.084853 0.564853 0.390500
v -0.120000 0.480000 0.390500
v -0.084853 0.395147 0.390500
v -0.000000 0.360000 0.390500
v 0.084853 0.395147 0.390500
v 0.120000 0.480000 0.390500
v 0.084853 0.564853 0.390500
v -0.350000 0.770000 0.320000
v 0.350000 0.770000 0.320000
v 0.350000 0.770000 -0.320000
v -0.350000 0.770000 -0.320000
v -0.350000 0.830000 0.320000
v 0.350000 0.830000 0.320000
v 0.350000 0.830000 -0.320000
v -0.350000 0.830000 -0.320000
v -0.410000 0.445000 0.120000
v -0.370000 0.445000 0.120000
v -0.370000 0.445000 -0.120000
v -0.410000 0.445000 -0.120000
v -0.410000 0.515000 0.120000
v -0.370000 0.515000 0.120000
v -0.370000 0.515000 -0.120000
v -0.410000 0.515000 -0.120000
v 0.370000 0.445000 0.120000
v 0.410000 0.445000 0.120000
v 0.410000 0.445000 -0.120000
v 0.370000 0.445000 -0.120000
v 0.370000 0.515000 0.120000
v 0.410000 0.515000 0.120000
v 0.410000 0.515000 -0.120000
v 0.370000 0.515000 -0.120000
vn -0.0000 -1.0000 -0.0000
vn -0.0000 -0.7071 0.7071
vn 0.4082 -0.8165 0.4082
vn 0.7071 -0.7071 -0.0000
vn 0.4082 -0.8165 -0.4082
vn -0.0000 -0.7071 -0.7071
vn -0.4082 -0.8165 -0.4082
vn -0.7071 -0.7071 -0.0000
vn -0.4082 -0.8165 0.4082
vn -0.0000 -0.0000 1.0000
vn 0.7071 -0.0000 0.7071
vn 1.0000 -0.0000 -0.0000
vn 0.7071 -0.0000 -0.7071
vn -0.0000 -0.0000 -1.0000
vn -0.7071 -0.0000 -0.7071
vn -1.0000 -0.0000 -0.0000
vn -0.7071 -0.0000 0.7071
vn -0.0000 0.7071 0.7071
vn 0.4082 0.8165 0.4082
vn 0.7071 0.7071 -0.0000
vn 0.4082 0.8165 -0.4082
vn -0.0000 0.7071 -0.7071
vn -0.4082 0.8165 -0.4082
vn -0.7071 0.7071 -0.0000
vn -0.4082 0.8165 0.4082
vn -0.0000 1.0000 -0.0000
vn -0.5000 -0.0000 -0.8660
vn -0.5000 -0.0000 0.8660
vn 0.5000 -0.0000 0.8660
vn 0.5000 -0.0000 -0.8660
vn -0.3827 0.9239 -0.0000
vn -0.9239 0.3827 -0.0000
vn -0.9239 -0.3827 -0.0000
vn -0.3827 -0.9239 -0.0000
vn 0.3827 -0.9239 -0.0000
vn 0.9239 -0.3827 -0.0000
vn 0.9239 0.3827 -0.0000
vn 0.3827 0.9239 -0.0000
vt 0.625000 0.125000
vt 0.375000 0.875000
vt 0.125000 0.125000
vt 0.375000 0.125000
vt 0.875000 0.125000
vt 0.125000 0.625000
s 0
usemtl Military_Equipment_Palette
f 2/1/1 1/1/1 5/1/1
f 2/1/2 9/1/2 1/1/2
f 2/1/3 11/1/3 10/1/3
f 4/1/4 11/1/4 3/1/4
f 5/1/5 12/1/5 4/1/5
f 6/1/6 13/1/6 5/1/6
f 6/1/7 15/1/7 14/1/7
f 8/1/8 15/1/8 7/1/8
f 1/1/9 16/1/9 8/1/9
f 10/1/10 17/1/10 9/1/10
f 11/1/11 18/1/11 10/1/11
f 12/1/12 19/1/12 11/1/12
f 13/1/13 20/1/13 12/1/13
f 14/1/14 21/1/14 13/1/14
f 15/1/15 22/1/15 14/1/15
f 16/1/16 23/1/16 15/1/16
f 9/1/17 24/1/17 16/1/17
f 18/1/18 25/1/18 17/1/18
f 19/1/19 26/1/19 18/1/19
f 20/1/20 27/1/20 19/1/20
f 20/1/21 29/1/21 28/1/21
f 22/1/22 29/1/22 21/1/22
f 23/1/23 30/1/23 22/1/23
f 24/1/24 31/1/24 23/1/24
f 24/1/25 25/1/25 32/1/25
f 30/1/26 31/1/26 32/1/26
f 37/2/1 35/2/1 33/2/1
f 34/2/27 39/2/27 33/2/27
f 35/2/16 40/2/16 34/2/16
f 36/2/28 41/2/28 35/2/28
f 37/2/29 42/2/29 36/2/29
f 38/2/12 43/2/12 37/2/12
f 33/2/30 44/2/30 38/2/30
f 40/2/26 42/2/26 44/2/26
f 49/2/1 47/2/1 45/2/1
f 46/2/27 51/2/27 45/2/27
f 47/2/16 52/2/16 46/2/16
f 48/2/28 53/2/28 47/2/28
f 49/2/29 54/2/29 48/2/29
f 50/2/12 55/2/12 49/2/12
f 45/2/30 56/2/30 50/2/30
f 52/2/26 54/2/26 56/2/26
f 61/2/1 59/2/1 57/2/1
f 58/2/27 63/2/27 57/2/27
f 59/2/16 64/2/16 58/2/16
f 60/2/28 65/2/28 59/2/28
f 61/2/29 66/2/29 60/2/29
f 62/2/12 67/2/12 61/2/12
f 57/2/30 68/2/30 62/2/30
f 64/2/26 66/2/26 68/2/26
f 73/2/1 71/2/1 69/2/1
f 70/2/27 75/2/27 69/2/27
f 71/2/16 76/2/16 70/2/16
f 72/2/28 77/2/28 71/2/28
f 73/2/29 78/2/29 72/2/29
f 74/2/12 79/2/12 73/2/12
f 69/2/30 80/2/30 74/2/30
f 76/2/26 78/2/26 80/2/26
f 82/3/1 81/3/1 85/3/1
f 82/3/2 89/3/2 81/3/2
f 83/3/3 90/3/3 82/3/3
f 84/3/4 91/3/4 83/3/4
f 84/3/5 93/3/5 92/3/5
f 86/3/6 93/3/6 85/3/6
f 87/3/7 94/3/7 86/3/7
f 88/3/8 95/3/8 87/3/8
f 88/3/9 89/3/9 96/3/9
f 90/3/10 97/3/10 89/3/10
f 91/3/11 98/3/11 90/3/11
f 92/3/12 99/3/12 91/3/12
f 93/3/13 100/3/13 92/3/13
f 94/3/14 101/3/14 93/3/14
f 95/3/15 102/3/15 94/3/15
f 96/3/16 103/3/16 95/3/16
f 89/3/17 104/3/17 96/3/17
f 98/3/18 105/3/18 97/3/18
f 98/3/19 107/3/19 106/3/19
f 100/3/20 107/3/20 99/3/20
f 101/3/21 108/3/21 100/3/21
f 102/3/22 109/3/22 101/3/22
f 102/3/23 111/3/23 110/3/23
f 104/3/24 111/3/24 103/3/24
f 97/3/25 112/3/25 104/3/25
f 110/3/26 111/3/26 112/3/26
f 115/4/1 113/4/1 116/4/1
f 118/4/26 120/4/26 117/4/26
f 114/4/10 117/4/10 113/4/10
f 115/4/12 118/4/12 114/4/12
f 116/4/14 119/4/14 115/4/14
f 113/4/16 120/4/16 116/4/16
f 123/5/1 121/5/1 124/5/1
f 126/5/26 128/5/26 125/5/26
f 122/5/10 125/5/10 121/5/10
f 123/5/12 126/5/12 122/5/12
f 124/5/14 127/5/14 123/5/14
f 121/5/16 128/5/16 124/5/16
f 131/2/1 129/2/1 132/2/1
f 134/2/26 136/2/26 133/2/26
f 130/2/10 133/2/10 129/2/10
f 131/2/12 134/2/12 130/2/12
f 132/2/14 135/2/14 131/2/14
f 129/2/16 136/2/16 132/2/16
f 139/5/1 137/5/1 140/5/1
f 142/5/26 144/5/26 141/5/26
f 138/5/10 141/5/10 137/5/10
f 139/5/12 142/5/12 138/5/12
f 140/5/14 143/5/14 139/5/14
f 137/5/16 144/5/16 140/5/16
f 147/2/1 145/2/1 148/2/1
f 150/2/26 152/2/26 149/2/26
f 146/2/10 149/2/10 145/2/10
f 147/2/12 150/2/12 146/2/12
f 148/2/14 151/2/14 147/2/14
f 145/2/16 152/2/16 148/2/16
f 155/6/1 153/6/1 156/6/1
f 158/6/26 160/6/26 157/6/26
f 154/6/10 157/6/10 153/6/10
f 155/6/12 158/6/12 154/6/12
f 156/6/14 159/6/14 155/6/14
f 153/6/16 160/6/16 156/6/16
f 161/6/14 167/6/14 165/6/14
f 162/6/31 169/6/31 161/6/31
f 163/6/32 170/6/32 162/6/32
f 164/6/33 171/6/33 163/6/33
f 165/6/34 172/6/34 164/6/34
f 166/6/35 173/6/35 165/6/35
f 167/6/36 174/6/36 166/6/36
f 168/6/37 175/6/37 167/6/37
f 161/6/38 176/6/38 168/6/38
f 174/6/10 175/6/10 176/6/10
f 179/5/1 177/5/1 180/5/1
f 182/5/26 184/5/26 181/5/26
f 178/5/10 181/5/10 177/5/10
f 179/5/12 182/5/12 178/5/12
f 180/5/14 183/5/14 179/5/14
f 177/5/16 184/5/16 180/5/16
f 187/6/1 185/6/1 188/6/1
f 190/6/26 192/6/26 189/6/26
f 186/6/10 189/6/10 185/6/10
f 187/6/12 190/6/12 186/6/12
f 188/6/14 191/6/14 187/6/14
f 185/6/16 192/6/16 188/6/16
f 195/6/1 193/6/1 196/6/1
f 198/6/26 200/6/26 197/6/26
f 194/6/10 197/6/10 193/6/10
f 195/6/12 198/6/12 194/6/12
f 196/6/14 199/6/14 195/6/14
f 193/6/16 200/6/16 196/6/16
f 1/1/1 8/1/1 7/1/1
f 7/1/1 6/1/1 1/1/1
f 6/1/1 5/1/1 1/1/1
f 5/1/1 4/1/1 3/1/1
f 3/1/1 2/1/1 5/1/1
f 2/1/2 10/1/2 9/1/2
f 2/1/3 3/1/3 11/1/3
f 4/1/4 12/1/4 11/1/4
f 5/1/5 13/1/5 12/1/5
f 6/1/6 14/1/6 13/1/6
f 6/1/7 7/1/7 15/1/7
f 8/1/8 16/1/8 15/1/8
f 1/1/9 9/1/9 16/1/9
f 10/1/10 18/1/10 17/1/10
f 11/1/11 19/1/11 18/1/11
f 12/1/12 20/1/12 19/1/12
f 13/1/13 21/1/13 20/1/13
f 14/1/14 22/1/14 21/1/14
f 15/1/15 23/1/15 22/1/15
f 16/1/16 24/1/16 23/1/16
f 9/1/17 17/1/17 24/1/17
f 18/1/18 26/1/18 25/1/18
f 19/1/19 27/1/19 26/1/19
f 20/1/20 28/1/20 27/1/20
f 20/1/21 21/1/21 29/1/21
f 22/1/22 30/1/22 29/1/22
f 23/1/23 31/1/23 30/1/23
f 24/1/24 32/1/24 31/1/24
f 24/1/25 17/1/25 25/1/25
f 32/1/26 25/1/26 30/1/26
f 25/1/26 26/1/26 30/1/26
f 26/1/26 27/1/26 28/1/26
f 28/1/26 29/1/26 26/1/26
f 29/1/26 30/1/26 26/1/26
f 33/2/1 38/2/1 37/2/1
f 37/2/1 36/2/1 35/2/1
f 35/2/1 34/2/1 33/2/1
f 34/2/27 40/2/27 39/2/27
f 35/2/16 41/2/16 40/2/16
f 36/2/28 42/2/28 41/2/28
f 37/2/29 43/2/29 42/2/29
f 38/2/12 44/2/12 43/2/12
f 33/2/30 39/2/30 44/2/30
f 44/2/26 39/2/26 40/2/26
f 40/2/26 41/2/26 42/2/26
f 42/2/26 43/2/26 44/2/26
f 45/2/1 50/2/1 49/2/1
f 49/2/1 48/2/1 47/2/1
f 47/2/1 46/2/1 45/2/1
f 46/2/27 52/2/27 51/2/27
f 47/2/16 53/2/16 52/2/16
f 48/2/28 54/2/28 53/2/28
f 49/2/29 55/2/29 54/2/29
f 50/2/12 56/2/12 55/2/12
f 45/2/30 51/2/30 56/2/30
f 56/2/26 51/2/26 52/2/26
f 52/2/26 53/2/26 54/2/26
f 54/2/26 55/2/26 56/2/26
f 57/2/1 62/2/1 61/2/1
f 61/2/1 60/2/1 59/2/1
f 59/2/1 58/2/1 57/2/1
f 58/2/27 64/2/27 63/2/27
f 59/2/16 65/2/16 64/2/16
f 60/2/28 66/2/28 65/2/28
f 61/2/29 67/2/29 66/2/29
f 62/2/12 68/2/12 67/2/12
f 57/2/30 63/2/30 68/2/30
f 68/2/26 63/2/26 64/2/26
f 64/2/26 65/2/26 66/2/26
f 66/2/26 67/2/26 68/2/26
f 69/2/1 74/2/1 73/2/1
f 73/2/1 72/2/1 71/2/1
f 71/2/1 70/2/1 69/2/1
f 70/2/27 76/2/27 75/2/27
f 71/2/16 77/2/16 76/2/16
f 72/2/28 78/2/28 77/2/28
f 73/2/29 79/2/29 78/2/29
f 74/2/12 80/2/12 79/2/12
f 69/2/30 75/2/30 80/2/30
f 80/2/26 75/2/26 76/2/26
f 76/2/26 77/2/26 78/2/26
f 78/2/26 79/2/26 80/2/26
f 81/3/1 88/3/1 87/3/1
f 87/3/1 86/3/1 81/3/1
f 86/3/1 85/3/1 81/3/1
f 85/3/1 84/3/1 83/3/1
f 83/3/1 82/3/1 85/3/1
f 82/3/2 90/3/2 89/3/2
f 83/3/3 91/3/3 90/3/3
f 84/3/4 92/3/4 91/3/4
f 84/3/5 85/3/5 93/3/5
f 86/3/6 94/3/6 93/3/6
f 87/3/7 95/3/7 94/3/7
f 88/3/8 96/3/8 95/3/8
f 88/3/9 81/3/9 89/3/9
f 90/3/10 98/3/10 97/3/10
f 91/3/11 99/3/11 98/3/11
f 92/3/12 100/3/12 99/3/12
f 93/3/13 101/3/13 100/3/13
f 94/3/14 102/3/14 101/3/14
f 95/3/15 103/3/15 102/3/15
f 96/3/16 104/3/16 103/3/16
f 89/3/17 97/3/17 104/3/17
f 98/3/18 106/3/18 105/3/18
f 98/3/19 99/3/19 107/3/19
f 100/3/20 108/3/20 107/3/20
f 101/3/21 109/3/21 108/3/21
f 102/3/22 110/3/22 109/3/22
f 102/3/23 103/3/23 111/3/23
f 104/3/24 112/3/24 111/3/24
f 97/3/25 105/3/25 112/3/25
f 112/3/26 105/3/26 110/3/26
f 105/3/26 106/3/26 110/3/26
f 106/3/26 107/3/26 108/3/26
f 108/3/26 109/3/26 106/3/26
f 109/3/26 110/3/26 106/3/26
f 115/4/1 114/4/1 113/4/1
f 118/4/26 119/4/26 120/4/26
f 114/4/10 118/4/10 117/4/10
f 115/4/12 119/4/12 118/4/12
f 116/4/14 120/4/14 119/4/14
f 113/4/16 117/4/16 120/4/16
f 123/5/1 122/5/1 121/5/1
f 126/5/26 127/5/26 128/5/26
f 122/5/10 126/5/10 125/5/10
f 123/5/12 127/5/12 126/5/12
f 124/5/14 128/5/14 127/5/14
f 121/5/16 125/5/16 128/5/16
f 131/2/1 130/2/1 129/2/1
f 134/2/26 135/2/26 136/2/26
f 130/2/10 134/2/10 133/2/10
f 131/2/12 135/2/12 134/2/12
f 132/2/14 136/2/14 135/2/14
f 129/2/16 133/2/16 136/2/16
f 139/5/1 138/5/1 137/5/1
f 142/5/26 143/5/26 144/5/26
f 138/5/10 142/5/10 141/5/10
f 139/5/12 143/5/12 142/5/12
f 140/5/14 144/5/14 143/5/14
f 137/5/16 141/5/16 144/5/16
f 147/2/1 146/2/1 145/2/1
f 150/2/26 151/2/26 152/2/26
f 146/2/10 150/2/10 149/2/10
f 147/2/12 151/2/12 150/2/12
f 148/2/14 152/2/14 151/2/14
f 145/2/16 149/2/16 152/2/16
f 155/6/1 154/6/1 153/6/1
f 158/6/26 159/6/26 160/6/26
f 154/6/10 158/6/10 157/6/10
f 155/6/12 159/6/12 158/6/12
f 156/6/14 160/6/14 159/6/14
f 153/6/16 157/6/16 160/6/16
f 161/6/14 168/6/14 167/6/14
f 167/6/14 166/6/14 165/6/14
f 165/6/14 164/6/14 161/6/14
f 164/6/14 163/6/14 161/6/14
f 163/6/14 162/6/14 161/6/14
f 162/6/31 170/6/31 169/6/31
f 163/6/32 171/6/32 170/6/32
f 164/6/33 172/6/33 171/6/33
f 165/6/34 173/6/34 172/6/34
f 166/6/35 174/6/35 173/6/35
f 167/6/36 175/6/36 174/6/36
f 168/6/37 176/6/37 175/6/37
f 161/6/38 169/6/38 176/6/38
f 176/6/10 169/6/10 172/6/10
f 169/6/10 170/6/10 172/6/10
f 170/6/10 171/6/10 172/6/10
f 172/6/10 173/6/10 176/6/10
f 173/6/10 174/6/10 176/6/10
f 179/5/1 178/5/1 177/5/1
f 182/5/26 183/5/26 184/5/26
f 178/5/10 182/5/10 181/5/10
f 179/5/12 183/5/12 182/5/12
f 180/5/14 184/5/14 183/5/14
f 177/5/16 181/5/16 184/5/16
f 187/6/1 186/6/1 185/6/1
f 190/6/26 191/6/26 192/6/26
f 186/6/10 190/6/10 189/6/10
f 187/6/12 191/6/12 190/6/12
f 188/6/14 192/6/14 191/6/14
f 185/6/16 189/6/16 192/6/16
f 195/6/1 194/6/1 193/6/1
f 198/6/26 199/6/26 200/6/26
f 194/6/10 198/6/10 197/6/10
f 195/6/12 199/6/12 198/6/12
f 196/6/14 200/6/14 199/6/14
f 193/6/16 197/6/16 200/6/16
