# Blender 5.2.1 LTS
# www.blender.org
mtllib workshop.mtl
o BASE.024
v -0.390000 0.000000 0.365000
v 0.390000 0.000000 0.365000
v 0.390000 0.000000 -0.365000
v -0.390000 0.000000 -0.365000
v -0.390000 0.120000 0.365000
v 0.390000 0.120000 0.365000
v 0.390000 0.120000 -0.365000
v -0.390000 0.120000 -0.365000
v -0.300000 0.121000 -0.302000
v -0.327713 0.121000 -0.286000
v -0.327713 0.121000 -0.254000
v -0.300000 0.121000 -0.238000
v -0.272287 0.121000 -0.254000
v -0.272287 0.121000 -0.286000
v -0.300000 0.141000 -0.302000
v -0.327713 0.141000 -0.286000
v -0.327713 0.141000 -0.254000
v -0.300000 0.141000 -0.238000
v -0.272287 0.141000 -0.254000
v -0.272287 0.141000 -0.286000
v -0.300000 0.121000 0.238000
v -0.327713 0.121000 0.254000
v -0.327713 0.121000 0.286000
v -0.300000 0.121000 0.302000
v -0.272287 0.121000 0.286000
v -0.272287 0.121000 0.254000
v -0.300000 0.141000 0.238000
v -0.327713 0.141000 0.254000
v -0.327713 0.141000 0.286000
v -0.300000 0.141000 0.302000
v -0.272287 0.141000 0.286000
v -0.272287 0.141000 0.254000
v 0.300000 0.121000 -0.302000
v 0.272287 0.121000 -0.286000
v 0.272287 0.121000 -0.254000
v 0.300000 0.121000 -0.238000
v 0.327713 0.121000 -0.254000
v 0.327713 0.121000 -0.286000
v 0.300000 0.141000 -0.302000
v 0.272287 0.141000 -0.286000
v 0.272287 0.141000 -0.254000
v 0.300000 0.141000 -0.238000
v 0.327713 0.141000 -0.254000
v 0.327713 0.141000 -0.286000
v 0.300000 0.121000 0.238000
v 0.272287 0.121000 0.254000
v 0.272287 0.121000 0.286000
v 0.300000 0.121000 0.302000
v 0.327713 0.121000 0.286000
v 0.327713 0.121000 0.254000
v 0.300000 0.141000 0.238000
v 0.272287 0.141000 0.254000
v 0.272287 0.141000 0.286000
v 0.300000 0.141000 0.302000
v 0.327713 0.141000 0.286000
v 0.327713 0.141000 0.254000
v -0.385000 0.135000 0.305000
v 0.385000 0.135000 0.305000
v 0.385000 0.135000 -0.305000
v -0.385000 0.135000 -0.305000
v -0.385000 0.705000 0.305000
v 0.385000 0.705000 0.305000
v 0.385000 0.705000 -0.305000
v -0.385000 0.705000 -0.305000
v -0.402500 0.705000 0.322500
v 0.402500 0.705000 0.322500
v 0.402500 0.705000 -0.322500
v -0.402500 0.705000 -0.322500
v -0.402500 0.755000 0.322500
v 0.402500 0.755000 0.322500
v 0.402500 0.755000 -0.322500
v -0.402500 0.755000 -0.322500
v -0.248500 0.100000 0.330000
v -0.213500 0.100000 0.330000
v -0.213500 0.100000 -0.330000
v -0.248500 0.100000 -0.330000
v -0.248500 0.740000 0.330000
v -0.213500 0.740000 0.330000
v -0.213500 0.740000 -0.330000
v -0.248500 0.740000 -0.330000
v -0.214400 0.496100 0.342500
v -0.124400 0.496100 0.342500
v -0.124400 0.496100 0.307500
v -0.214400 0.496100 0.307500
v -0.214400 0.606100 0.342500
v -0.124400 0.606100 0.342500
v -0.124400 0.606100 0.307500
v -0.214400 0.606100 0.307500
v 0.213500 0.100000 0.330000
v 0.248500 0.100000 0.330000
v 0.248500 0.100000 -0.330000
v 0.213500 0.100000 -0.330000
v 0.213500 0.740000 0.330000
v 0.248500 0.740000 0.330000
v 0.248500 0.740000 -0.330000
v 0.213500 0.740000 -0.330000
v 0.124400 0.496100 0.342500
v 0.214400 0.496100 0.342500
v 0.214400 0.496100 0.307500
v 0.124400 0.496100 0.307500
v 0.124400 0.606100 0.342500
v 0.214400 0.606100 0.342500
v 0.214400 0.606100 0.307500
v 0.124400 0.606100 0.307500
v -0.100000 0.463400 0.367500
v 0.100000 0.463400 0.367500
v 0.100000 0.463400 0.322500
v -0.100000 0.463400 0.322500
v -0.100000 0.513400 0.367500
v 0.100000 0.513400 0.367500
v 0.100000 0.513400 0.322500
v -0.100000 0.513400 0.322500
v -0.415000 0.710000 0.365000
v 0.415000 0.710000 0.365000
v 0.415000 0.710000 -0.365000
v -0.415000 0.710000 -0.365000
v -0.415000 0.790000 0.365000
v 0.415000 0.790000 0.365000
v 0.415000 0.790000 -0.365000
v -0.415000 0.790000 -0.365000
v -0.240000 0.236500 0.327500
v 0.240000 0.236500 0.327500
v 0.240000 0.236500 0.302500
v -0.240000 0.236500 0.302500
v -0.240000 0.263500 0.327500
v 0.240000 0.263500 0.327500
v 0.240000 0.263500 0.302500
v -0.240000 0.263500 0.302500
v -0.240000 0.416500 0.327500
v 0.240000 0.416500 0.327500
v 0.240000 0.416500 0.302500
v -0.240000 0.416500 0.302500
v -0.240000 0.443500 0.327500
v 0.240000 0.443500 0.327500
v 0.240000 0.443500 0.302500
v -0.240000 0.443500 0.302500
v -0.240000 0.596500 0.327500
v 0.240000 0.596500 0.327500
v 0.240000 0.596500 0.302500
v -0.240000 0.596500 0.302500
v -0.240000 0.623500 0.327500
v 0.240000 0.623500 0.327500
v 0.240000 0.623500 0.302500
v -0.240000 0.623500 0.302500
v -0.310000 0.780000 0.105000
v -0.130000 0.780000 0.105000
v -0.130000 0.780000 -0.105000
v -0.310000 0.780000 -0.105000
v -0.310000 0.940000 0.105000
v -0.130000 0.940000 0.105000
v -0.130000 0.940000 -0.105000
v -0.310000 0.940000 -0.105000
v -0.345000 0.922500 0.105000
v -0.095000 0.922500 0.105000
v -0.095000 0.922500 -0.105000
v -0.345000 0.922500 -0.105000
v -0.345000 0.977500 0.105000
v -0.095000 0.977500 0.105000
v -0.095000 0.977500 -0.105000
v -0.345000 0.977500 -0.105000
v 0.110000 0.828000 -0.025000
v 0.085751 0.814000 -0.025000
v 0.085751 0.786000 -0.025000
v 0.110000 0.772000 -0.025000
v 0.134249 0.786000 -0.025000
v 0.134249 0.814000 -0.025000
v 0.110000 0.828000 0.185000
v 0.085751 0.814000 0.185000
v 0.085751 0.786000 0.185000
v 0.110000 0.772000 0.185000
v 0.134249 0.786000 0.185000
v 0.134249 0.814000 0.185000
v 0.260000 0.828000 -0.025000
v 0.235751 0.814000 -0.025000
v 0.235751 0.786000 -0.025000
v 0.260000 0.772000 -0.025000
v 0.284249 0.786000 -0.025000
v 0.284249 0.814000 -0.025000
v 0.260000 0.828000 0.185000
v 0.235751 0.814000 0.185000
v 0.235751 0.786000 0.185000
v 0.260000 0.772000 0.185000
v 0.284249 0.786000 0.185000
v 0.284249 0.814000 0.185000
vn -0.0000 -1.0000 -0.0000
vn -0.0000 1.0000 -0.0000
vn -0.0000 -0.0000 1.0000
vn 1.0000 -0.0000 -0.0000
vn -0.0000 -0.0000 -1.0000
vn -1.0000 -0.0000 -0.0000
vn -0.5000 -0.0000 -0.8660
vn -0.5000 -0.0000 0.8660
vn 0.5000 -0.0000 0.8660
vn 0.5000 -0.0000 -0.8660
vn -0.5000 0.8660 -0.0000
vn -0.5000 -0.8660 -0.0000
vn 0.5000 -0.8660 -0.0000
vn 0.5000 0.8660 -0.0000
vt 0.625000 0.125000
vt 0.375000 0.875000
vt 0.125000 0.125000
vt 0.375000 0.125000
vt 0.875000 0.125000
vt 0.125000 0.625000
s 0
usemtl Military_Equipment_Palette
f 3/1/1 1/1/1 4/1/1
f 6/1/2 8/1/2 5/1/2
f 2/1/3 5/1/3 1/1/3
f 3/1/4 6/1/4 2/1/4
f 4/1/5 7/1/5 3/1/5
f 1/1/6 8/1/6 4/1/6
f 13/2/1 11/2/1 9/2/1
f 10/2/7 15/2/7 9/2/7
f 11/2/6 16/2/6 10/2/6
f 12/2/8 17/2/8 11/2/8
f 13/2/9 18/2/9 12/2/9
f 14/2/4 19/2/4 13/2/4
f 9/2/10 20/2/10 14/2/10
f 16/2/2 18/2/2 20/2/2
f 25/2/1 23/2/1 21/2/1
f 22/2/7 27/2/7 21/2/7
f 23/2/6 28/2/6 22/2/6
f 24/2/8 29/2/8 23/2/8
f 25/2/9 30/2/9 24/2/9
f 26/2/4 31/2/4 25/2/4
f 21/2/10 32/2/10 26/2/10
f 28/2/2 30/2/2 32/2/2
f 37/2/1 35/2/1 33/2/1
f 34/2/7 39/2/7 33/2/7
f 35/2/6 40/2/6 34/2/6
f 36/2/8 41/2/8 35/2/8
f 37/2/9 42/2/9 36/2/9
f 38/2/4 43/2/4 37/2/4
f 33/2/10 44/2/10 38/2/10
f 40/2/2 42/2/2 44/2/2
f 49/2/1 47/2/1 45/2/1
f 46/2/7 51/2/7 45/2/7
f 47/2/6 52/2/6 46/2/6
f 48/2/8 53/2/8 47/2/8
f 49/2/9 54/2/9 48/2/9
f 50/2/4 55/2/4 49/2/4
f 45/2/10 56/2/10 50/2/10
f 52/2/2 54/2/2 56/2/2
f 59/3/1 57/3/1 60/3/1
f 62/3/2 64/3/2 61/3/2
f 58/3/3 61/3/3 57/3/3
f 59/3/4 62/3/4 58/3/4
f 60/3/5 63/3/5 59/3/5
f 57/3/6 64/3/6 60/3/6
f 67/4/1 65/4/1 68/4/1
f 70/4/2 72/4/2 69/4/2
f 66/4/3 69/4/3 65/4/3
f 67/4/4 70/4/4 66/4/4
f 68/4/5 71/4/5 67/4/5
f 65/4/6 72/4/6 68/4/6
f 75/5/1 73/5/1 76/5/1
f 78/5/2 80/5/2 77/5/2
f 74/5/3 77/5/3 73/5/3
f 75/5/4 78/5/4 74/5/4
f 76/5/5 79/5/5 75/5/5
f 73/5/6 80/5/6 76/5/6
f 83/2/1 81/2/1 84/2/1
f 86/2/2 88/2/2 85/2/2
f 82/2/3 85/2/3 81/2/3
f 83/2/4 86/2/4 82/2/4
f 84/2/5 87/2/5 83/2/5
f 81/2/6 88/2/6 84/2/6
f 91/5/1 89/5/1 92/5/1
f 94/5/2 96/5/2 93/5/2
f 90/5/3 93/5/3 89/5/3
f 91/5/4 94/5/4 90/5/4
f 92/5/5 95/5/5 91/5/5
f 89/5/6 96/5/6 92/5/6
f 99/2/1 97/2/1 100/2/1
f 102/2/2 104/2/2 101/2/2
f 98/2/3 101/2/3 97/2/3
f 99/2/4 102/2/4 98/2/4
f 100/2/5 103/2/5 99/2/5
f 97/2/6 104/2/6 100/2/6
f 107/6/1 105/6/1 108/6/1
f 110/6/2 112/6/2 109/6/2
f 106/6/3 109/6/3 105/6/3
f 107/6/4 110/6/4 106/6/4
f 108/6/5 111/6/5 107/6/5
f 105/6/6 112/6/6 108/6/6
f 115/6/1 113/6/1 116/6/1
f 118/6/2 120/6/2 117/6/2
f 114/6/3 117/6/3 113/6/3
f 115/6/4 118/6/4 114/6/4
f 116/6/5 119/6/5 115/6/5
f 113/6/6 120/6/6 116/6/6
f 123/2/1 121/2/1 124/2/1
f 126/2/2 128/2/2 125/2/2
f 122/2/3 125/2/3 121/2/3
f 123/2/4 126/2/4 122/2/4
f 124/2/5 127/2/5 123/2/5
f 121/2/6 128/2/6 124/2/6
f 131/2/1 129/2/1 132/2/1
f 134/2/2 136/2/2 133/2/2
f 130/2/3 133/2/3 129/2/3
f 131/2/4 134/2/4 130/2/4
f 132/2/5 135/2/5 131/2/5
f 129/2/6 136/2/6 132/2/6
f 139/2/1 137/2/1 140/2/1
f 142/2/2 144/2/2 141/2/2
f 138/2/3 141/2/3 137/2/3
f 139/2/4 142/2/4 138/2/4
f 140/2/5 143/2/5 139/2/5
f 137/2/6 144/2/6 140/2/6
f 147/5/1 145/5/1 148/5/1
f 150/5/2 152/5/2 149/5/2
f 146/5/3 149/5/3 145/5/3
f 147/5/4 150/5/4 146/5/4
f 148/5/5 151/5/5 147/5/5
f 145/5/6 152/5/6 148/5/6
f 155/6/1 153/6/1 156/6/1
f 158/6/2 160/6/2 157/6/2
f 154/6/3 157/6/3 153/6/3
f 155/6/4 158/6/4 154/6/4
f 156/6/5 159/6/5 155/6/5
f 153/6/6 160/6/6 156/6/6
f 163/2/5 162/2/5 161/2/5
f 162/2/11 167/2/11 161/2/11
f 163/2/6 168/2/6 162/2/6
f 164/2/12 169/2/12 163/2/12
f 165/2/13 170/2/13 164/2/13
f 166/2/4 171/2/4 165/2/4
f 161/2/14 172/2/14 166/2/14
f 171/2/3 172/2/3 168/2/3
f 175/2/5 174/2/5 173/2/5
f 174/2/11 179/2/11 173/2/11
f 175/2/6 180/2/6 174/2/6
f 176/2/12 181/2/12 175/2/12
f 177/2/13 182/2/13 176/2/13
f 178/2/4 183/2/4 177/2/4
f 173/2/14 184/2/14 178/2/14
f 182/2/3 183/2/3 184/2/3
f 3/1/1 2/1/1 1/1/1
f 6/1/2 7/1/2 8/1/2
f 2/1/3 6/1/3 5/1/3
f 3/1/4 7/1/4 6/1/4
f 4/1/5 8/1/5 7/1/5
f 1/1/6 5/1/6 8/1/6
f 9/2/1 14/2/1 13/2/1
f 13/2/1 12/2/1 11/2/1
f 11/2/1 10/2/1 9/2/1
f 10/2/7 16/2/7 15/2/7
f 11/2/6 17/2/6 16/2/6
f 12/2/8 18/2/8 17/2/8
f 13/2/9 19/2/9 18/2/9
f 14/2/4 20/2/4 19/2/4
f 9/2/10 15/2/10 20/2/10
f 20/2/2 15/2/2 16/2/2
f 16/2/2 17/2/2 18/2/2
f 18/2/2 19/2/2 20/2/2
f 21/2/1 26/2/1 25/2/1
f 25/2/1 24/2/1 23/2/1
f 23/2/1 22/2/1 21/2/1
f 22/2/7 28/2/7 27/2/7
f 23/2/6 29/2/6 28/2/6
f 24/2/8 30/2/8 29/2/8
f 25/2/9 31/2/9 30/2/9
f 26/2/4 32/2/4 31/2/4
f 21/2/10 27/2/10 32/2/10
f 32/2/2 27/2/2 28/2/2
f 28/2/2 29/2/2 30/2/2
f 30/2/2 31/2/2 32/2/2
f 33/2/1 38/2/1 37/2/1
f 37/2/1 36/2/1 35/2/1
f 35/2/1 34/2/1 33/2/1
f 34/2/7 40/2/7 39/2/7
f 35/2/6 41/2/6 40/2/6
f 36/2/8 42/2/8 41/2/8
f 37/2/9 43/2/9 42/2/9
f 38/2/4 44/2/4 43/2/4
f 33/2/10 39/2/10 44/2/10
f 44/2/2 39/2/2 40/2/2
f 40/2/2 41/2/2 42/2/2
f 42/2/2 43/2/2 44/2/2
f 45/2/1 50/2/1 49/2/1
f 49/2/1 48/2/1 47/2/1
f 47/2/1 46/2/1 45/2/1
f 46/2/7 52/2/7 51/2/7
f 47/2/6 53/2/6 52/2/6
f 48/2/8 54/2/8 53/2/8
f 49/2/9 55/2/9 54/2/9
f 50/2/4 56/2/4 55/2/4
f 45/2/10 51/2/10 56/2/10
f 56/2/2 51/2/2 52/2/2
f 52/2/2 53/2/2 54/2/2
f 54/2/2 55/2/2 56/2/2
f 59/3/1 58/3/1 57/3/1
f 62/3/2 63/3/2 64/3/2
f 58/3/3 62/3/3 61/3/3
f 59/3/4 63/3/4 62/3/4
f 60/3/5 64/3/5 63/3/5
f 57/3/6 61/3/6 64/3/6
f 67/4/1 66/4/1 65/4/1
f 70/4/2 71/4/2 72/4/2
f 66/4/3 70/4/3 69/4/3
f 67/4/4 71/4/4 70/4/4
f 68/4/5 72/4/5 71/4/5
f 65/4/6 69/4/6 72/4/6
f 75/5/1 74/5/1 73/5/1
f 78/5/2 79/5/2 80/5/2
f 74/5/3 78/5/3 77/5/3
f 75/5/4 79/5/4 78/5/4
f 76/5/5 80/5/5 79/5/5
f 73/5/6 77/5/6 80/5/6
f 83/2/1 82/2/1 81/2/1
f 86/2/2 87/2/2 88/2/2
f 82/2/3 86/2/3 85/2/3
f 83/2/4 87/2/4 86/2/4
f 84/2/5 88/2/5 87/2/5
f 81/2/6 85/2/6 88/2/6
f 91/5/1 90/5/1 89/5/1
f 94/5/2 95/5/2 96/5/2
f 90/5/3 94/5/3 93/5/3
f 91/5/4 95/5/4 94/5/4
f 92/5/5 96/5/5 95/5/5
f 89/5/6 93/5/6 96/5/6
f 99/2/1 98/2/1 97/2/1
f 102/2/2 103/2/2 104/2/2
f 98/2/3 102/2/3 101/2/3
f 99/2/4 103/2/4 102/2/4
f 100/2/5 104/2/5 103/2/5
f 97/2/6 101/2/6 104/2/6
f 107/6/1 106/6/1 105/6/1
f 110/6/2 111/6/2 112/6/2
f 106/6/3 110/6/3 109/6/3
f 107/6/4 111/6/4 110/6/4
f 108/6/5 112/6/5 111/6/5
f 105/6/6 109/6/6 112/6/6
f 115/6/1 114/6/1 113/6/1
f 118/6/2 119/6/2 120/6/2
f 114/6/3 118/6/3 117/6/3
f 115/6/4 119/6/4 118/6/4
f 116/6/5 120/6/5 119/6/5
f 113/6/6 117/6/6 120/6/6
f 123/2/1 122/2/1 121/2/1
f 126/2/2 127/2/2 128/2/2
f 122/2/3 126/2/3 125/2/3
f 123/2/4 127/2/4 126/2/4
f 124/2/5 128/2/5 127/2/5
f 121/2/6 125/2/6 128/2/6
f 131/2/1 130/2/1 129/2/1
f 134/2/2 135/2/2 136/2/2
f 130/2/3 134/2/3 133/2/3
f 131/2/4 135/2/4 134/2/4
f 132/2/5 136/2/5 135/2/5
f 129/2/6 133/2/6 136/2/6
f 139/2/1 138/2/1 137/2/1
f 142/2/2 143/2/2 144/2/2
f 138/2/3 142/2/3 141/2/3
f 139/2/4 143/2/4 142/2/4
f 140/2/5 144/2/5 143/2/5
f 137/2/6 141/2/6 144/2/6
f 147/5/1 146/5/1 145/5/1
f 150/5/2 151/5/2 152/5/2
f 146/5/3 150/5/3 149/5/3
f 147/5/4 151/5/4 150/5/4
f 148/5/5 152/5/5 151/5/5
f 145/5/6 149/5/6 152/5/6
f 155/6/1 154/6/1 153/6/1
f 158/6/2 159/6/2 160/6/2
f 154/6/3 158/6/3 157/6/3
f 155/6/4 159/6/4 158/6/4
f 156/6/5 160/6/5 159/6/5
f 153/6/6 157/6/6 160/6/6
f 161/2/5 166/2/5 163/2/5
f 166/2/5 165/2/5 163/2/5
f 165/2/5 164/2/5 163/2/5
f 162/2/11 168/2/11 167/2/11
f 163/2/6 169/2/6 168/2/6
f 164/2/12 170/2/12 169/2/12
f 165/2/13 171/2/13 170/2/13
f 166/2/4 172/2/4 171/2/4
f 161/2/14 167/2/14 172/2/14
f 172/2/3 167/2/3 168/2/3
f 168/2/3 169/2/3 170/2/3
f 170/2/3 171/2/3 168/2/3
f 173/2/5 178/2/5 177/2/5
f 177/2/5 176/2/5 173/2/5
f 176/2/5 175/2/5 173/2/5
f 174/2/11 180/2/11 179/2/11
f 175/2/6 181/2/6 180/2/6
f 176/2/12 182/2/12 181/2/12
f 177/2/13 183/2/13 182/2/13
f 178/2/4 184/2/4 183/2/4
f 173/2/14 179/2/14 184/2/14
f 184/2/3 179/2/3 182/2/3
f 179/2/3 180/2/3 182/2/3
f 180/2/3 181/2/3 182/2/3
