# Blender 5.2.1 LTS
# www.blender.org
mtllib bazooka.mtl
o BAZOOKA_BODY
v -0.270000 0.730000 -0.160000
v 0.270000 0.730000 -0.160000
v 0.270000 1.430000 -0.160000
v -0.270000 1.430000 -0.160000
v -0.270000 0.730000 0.160000
v 0.270000 0.730000 0.160000
v 0.270000 1.430000 0.160000
v -0.270000 1.430000 0.160000
v -0.240000 0.690000 0.152500
v 0.240000 0.690000 0.152500
v 0.240000 1.090000 0.152500
v -0.240000 1.090000 0.152500
v -0.240000 0.690000 0.227500
v 0.240000 0.690000 0.227500
v 0.240000 1.090000 0.227500
v -0.240000 1.090000 0.227500
v -0.290000 0.630000 -0.150000
v 0.290000 0.630000 -0.150000
v 0.290000 0.690000 -0.150000
v -0.290000 0.690000 -0.150000
v -0.290000 0.630000 0.190000
v 0.290000 0.630000 0.190000
v 0.290000 0.690000 0.190000
v -0.290000 0.690000 0.190000
v -0.220000 1.210000 -0.250000
v 0.220000 1.210000 -0.250000
v 0.220000 1.430000 -0.250000
v -0.220000 1.430000 -0.250000
v -0.220000 1.210000 -0.150000
v 0.220000 1.210000 -0.150000
v 0.220000 1.430000 -0.150000
v -0.220000 1.430000 -0.150000
v -0.215000 0.805000 0.222500
v 0.215000 0.805000 0.222500
v 0.215000 0.875000 0.222500
v -0.215000 0.875000 0.222500
v -0.215000 0.805000 0.267500
v 0.215000 0.805000 0.267500
v 0.215000 0.875000 0.267500
v -0.215000 0.875000 0.267500
v -0.197500 0.940000 0.217500
v -0.082500 0.940000 0.217500
v -0.082500 1.100000 0.217500
v -0.197500 1.100000 0.217500
v -0.197500 0.940000 0.272500
v -0.082500 0.940000 0.272500
v -0.082500 1.100000 0.272500
v -0.197500 1.100000 0.272500
v -0.057500 0.940000 0.217500
v 0.057500 0.940000 0.217500
v 0.057500 1.100000 0.217500
v -0.057500 1.100000 0.217500
v -0.057500 0.940000 0.272500
v 0.057500 0.940000 0.272500
v 0.057500 1.100000 0.272500
v -0.057500 1.100000 0.272500
v 0.082500 0.940000 0.217500
v 0.197500 0.940000 0.217500
v 0.197500 1.100000 0.217500
v 0.082500 1.100000 0.217500
v 0.082500 0.940000 0.272500
v 0.197500 0.940000 0.272500
v 0.197500 1.100000 0.272500
v 0.082500 1.100000 0.272500
v -0.365000 1.000000 -0.005000
v -0.255000 1.000000 -0.005000
v -0.255000 1.280000 -0.005000
v -0.365000 1.280000 -0.005000
v -0.365000 1.000000 0.165000
v -0.255000 1.000000 0.165000
v -0.255000 1.280000 0.165000
v -0.365000 1.280000 0.165000
v -0.370000 1.247500 0.160000
v -0.250000 1.247500 0.160000
v -0.250000 1.292500 0.160000
v -0.370000 1.292500 0.160000
v -0.370000 1.247500 0.220000
v -0.250000 1.247500 0.220000
v -0.250000 1.292500 0.220000
v -0.370000 1.292500 0.220000
v -0.380000 1.160000 -0.120000
v -0.260000 1.160000 -0.120000
v -0.260000 1.400000 -0.120000
v -0.380000 1.400000 -0.120000
v -0.380000 1.160000 0.120000
v -0.260000 1.160000 0.120000
v -0.260000 1.400000 0.120000
v -0.380000 1.400000 0.120000
v 0.260000 1.160000 -0.120000
v 0.380000 1.160000 -0.120000
v 0.380000 1.400000 -0.120000
v 0.260000 1.400000 -0.120000
v 0.260000 1.160000 0.120000
v 0.380000 1.160000 0.120000
v 0.380000 1.400000 0.120000
v 0.260000 1.400000 0.120000
v -0.210000 1.290000 0.150000
v 0.210000 1.290000 0.150000
v 0.210000 1.470000 0.150000
v -0.210000 1.470000 0.150000
v -0.210000 1.290000 0.250000
v 0.210000 1.290000 0.250000
v 0.210000 1.470000 0.250000
v -0.210000 1.470000 0.250000
v -0.355000 0.840000 -0.035000
v -0.265000 0.840000 -0.035000
v -0.265000 1.320000 -0.035000
v -0.355000 1.320000 -0.035000
v -0.355000 0.840000 0.135000
v -0.265000 0.840000 0.135000
v -0.265000 1.320000 0.135000
v -0.355000 1.320000 0.135000
vn -0.0000 -0.0000 -1.0000
vn -0.0000 -0.0000 1.0000
vn -0.0000 -1.0000 -0.0000
vn 1.0000 -0.0000 -0.0000
vn -0.0000 1.0000 -0.0000
vn -1.0000 -0.0000 -0.0000
vt 0.125000 0.125000
vt 0.875000 0.125000
vt 0.375000 0.125000
vt 0.125000 0.875000
vt 0.125000 0.625000
vt 0.375000 0.875000
s 0
usemtl MilitaryPeoplePalette
f 3/1/1 1/1/1 4/1/1
f 6/1/2 8/1/2 5/1/2
f 2/1/3 5/1/3 1/1/3
f 3/1/4 6/1/4 2/1/4
f 4/1/5 7/1/5 3/1/5
f 1/1/6 8/1/6 4/1/6
f 11/2/1 9/2/1 12/2/1
f 14/2/2 16/2/2 13/2/2
f 10/2/3 13/2/3 9/2/3
f 11/2/4 14/2/4 10/2/4
f 12/2/5 15/2/5 11/2/5
f 9/2/6 16/2/6 12/2/6
f 19/3/1 17/3/1 20/3/1
f 22/3/2 24/3/2 21/3/2
f 18/3/3 21/3/3 17/3/3
f 19/3/4 22/3/4 18/3/4
f 20/3/5 23/3/5 19/3/5
f 17/3/6 24/3/6 20/3/6
f 27/4/1 25/4/1 28/4/1
f 30/4/2 32/4/2 29/4/2
f 26/4/3 29/4/3 25/4/3
f 27/4/4 30/4/4 26/4/4
f 28/4/5 31/4/5 27/4/5
f 25/4/6 32/4/6 28/4/6
f 35/3/1 33/3/1 36/3/1
f 38/3/2 40/3/2 37/3/2
f 34/3/3 37/3/3 33/3/3
f 35/3/4 38/3/4 34/3/4
f 36/3/5 39/3/5 35/3/5
f 33/3/6 40/3/6 36/3/6
f 43/4/1 41/4/1 44/4/1
f 46/4/2 48/4/2 45/4/2
f 42/4/3 45/4/3 41/4/3
f 43/4/4 46/4/4 42/4/4
f 44/4/5 47/4/5 43/4/5
f 41/4/6 48/4/6 44/4/6
f 51/4/1 49/4/1 52/4/1
f 54/4/2 56/4/2 53/4/2
f 50/4/3 53/4/3 49/4/3
f 51/4/4 54/4/4 50/4/4
f 52/4/5 55/4/5 51/4/5
f 49/4/6 56/4/6 52/4/6
f 59/4/1 57/4/1 60/4/1
f 62/4/2 64/4/2 61/4/2
f 58/4/3 61/4/3 57/4/3
f 59/4/4 62/4/4 58/4/4
f 60/4/5 63/4/5 59/4/5
f 57/4/6 64/4/6 60/4/6
f 67/5/1 65/5/1 68/5/1
f 70/5/2 72/5/2 69/5/2
f 66/5/3 69/5/3 65/5/3
f 67/5/4 70/5/4 66/5/4
f 68/5/5 71/5/5 67/5/5
f 65/5/6 72/5/6 68/5/6
f 75/6/1 73/6/1 76/6/1
f 78/6/2 80/6/2 77/6/2
f 74/6/3 77/6/3 73/6/3
f 75/6/4 78/6/4 74/6/4
f 76/6/5 79/6/5 75/6/5
f 73/6/6 80/6/6 76/6/6
f 83/3/1 81/3/1 84/3/1
f 86/3/2 88/3/2 85/3/2
f 82/3/3 85/3/3 81/3/3
f 83/3/4 86/3/4 82/3/4
f 84/3/5 87/3/5 83/3/5
f 81/3/6 88/3/6 84/3/6
f 91/3/1 89/3/1 92/3/1
f 94/3/2 96/3/2 93/3/2
f 90/3/3 93/3/3 89/3/3
f 91/3/4 94/3/4 90/3/4
f 92/3/5 95/3/5 91/3/5
f 89/3/6 96/3/6 92/3/6
f 99/5/1 97/5/1 100/5/1
f 102/5/2 104/5/2 101/5/2
f 98/5/3 101/5/3 97/5/3
f 99/5/4 102/5/4 98/5/4
f 100/5/5 103/5/5 99/5/5
f 97/5/6 104/5/6 100/5/6
f 107/2/1 105/2/1 108/2/1
f 110/2/2 112/2/2 109/2/2
f 106/2/3 109/2/3 105/2/3
f 107/2/4 110/2/4 106/2/4
f 108/2/5 111/2/5 107/2/5
f 105/2/6 112/2/6 108/2/6
f 3/1/1 2/1/1 1/1/1
f 6/1/2 7/1/2 8/1/2
f 2/1/3 6/1/3 5/1/3
f 3/1/4 7/1/4 6/1/4
f 4/1/5 8/1/5 7/1/5
f 1/1/6 5/1/6 8/1/6
f 11/2/1 10/2/1 9/2/1
f 14/2/2 15/2/2 16/2/2
f 10/2/3 14/2/3 13/2/3
f 11/2/4 15/2/4 14/2/4
f 12/2/5 16/2/5 15/2/5
f 9/2/6 13/2/6 16/2/6
f 19/3/1 18/3/1 17/3/1
f 22/3/2 23/3/2 24/3/2
f 18/3/3 22/3/3 21/3/3
f 19/3/4 23/3/4 22/3/4
f 20/3/5 24/3/5 23/3/5
f 17/3/6 21/3/6 24/3/6
f 27/4/1 26/4/1 25/4/1
f 30/4/2 31/4/2 32/4/2
f 26/4/3 30/4/3 29/4/3
f 27/4/4 31/4/4 30/4/4
f 28/4/5 32/4/5 31/4/5
f 25/4/6 29/4/6 32/4/6
f 35/3/1 34/3/1 33/3/1
f 38/3/2 39/3/2 40/3/2
f 34/3/3 38/3/3 37/3/3
f 35/3/4 39/3/4 38/3/4
f 36/3/5 40/3/5 39/3/5
f 33/3/6 37/3/6 40/3/6
f 43/4/1 42/4/1 41/4/1
f 46/4/2 47/4/2 48/4/2
f 42/4/3 46/4/3 45/4/3
f 43/4/4 47/4/4 46/4/4
f 44/4/5 48/4/5 47/4/5
f 41/4/6 45/4/6 48/4/6
f 51/4/1 50/4/1 49/4/1
f 54/4/2 55/4/2 56/4/2
f 50/4/3 54/4/3 53/4/3
f 51/4/4 55/4/4 54/4/4
f 52/4/5 56/4/5 55/4/5
f 49/4/6 53/4/6 56/4/6
f 59/4/1 58/4/1 57/4/1
f 62/4/2 63/4/2 64/4/2
f 58/4/3 62/4/3 61/4/3
f 59/4/4 63/4/4 62/4/4
f 60/4/5 64/4/5 63/4/5
f 57/4/6 61/4/6 64/4/6
f 67/5/1 66/5/1 65/5/1
f 70/5/2 71/5/2 72/5/2
f 66/5/3 70/5/3 69/5/3
f 67/5/4 71/5/4 70/5/4
f 68/5/5 72/5/5 71/5/5
f 65/5/6 69/5/6 72/5/6
f 75/6/1 74/6/1 73/6/1
f 78/6/2 79/6/2 80/6/2
f 74/6/3 78/6/3 77/6/3
f 75/6/4 79/6/4 78/6/4
f 76/6/5 80/6/5 79/6/5
f 73/6/6 77/6/6 80/6/6
f 83/3/1 82/3/1 81/3/1
f 86/3/2 87/3/2 88/3/2
f 82/3/3 86/3/3 85/3/3
f 83/3/4 87/3/4 86/3/4
f 84/3/5 88/3/5 87/3/5
f 81/3/6 85/3/6 88/3/6
f 91/3/1 90/3/1 89/3/1
f 94/3/2 95/3/2 96/3/2
f 90/3/3 94/3/3 93/3/3
f 91/3/4 95/3/4 94/3/4
f 92/3/5 96/3/5 95/3/5
f 89/3/6 93/3/6 96/3/6
f 99/5/1 98/5/1 97/5/1
f 102/5/2 103/5/2 104/5/2
f 98/5/3 102/5/3 101/5/3
f 99/5/4 103/5/4 102/5/4
f 100/5/5 104/5/5 103/5/5
f 97/5/6 101/5/6 104/5/6
f 107/2/1 106/2/1 105/2/1
f 110/2/2 111/2/2 112/2/2
f 106/2/3 110/2/3 109/2/3
f 107/2/4 111/2/4 110/2/4
f 108/2/5 112/2/5 111/2/5
f 105/2/6 109/2/6 112/2/6
o BAZOOKA_HEAD
v -0.170000 1.510000 -0.155000
v 0.170000 1.510000 -0.155000
v 0.170000 1.850000 -0.155000
v -0.170000 1.850000 -0.155000
v -0.170000 1.510000 0.185000
v 0.170000 1.510000 0.185000
v 0.170000 1.850000 0.185000
v -0.170000 1.850000 0.185000
v -0.125000 1.595000 0.184000
v 0.125000 1.595000 0.184000
v 0.125000 1.695000 0.184000
v -0.125000 1.695000 0.184000
v -0.125000 1.595000 0.210000
v 0.125000 1.595000 0.210000
v 0.125000 1.695000 0.210000
v -0.125000 1.695000 0.210000
v -0.125000 1.607500 0.206000
v -0.025000 1.607500 0.206000
v -0.025000 1.682500 0.206000
v -0.125000 1.682500 0.206000
v -0.125000 1.607500 0.228000
v -0.025000 1.607500 0.228000
v -0.025000 1.682500 0.228000
v -0.125000 1.682500 0.228000
v 0.025000 1.607500 0.206000
v 0.125000 1.607500 0.206000
v 0.125000 1.682500 0.206000
v 0.025000 1.682500 0.206000
v 0.025000 1.607500 0.228000
v 0.125000 1.607500 0.228000
v 0.125000 1.682500 0.228000
v 0.025000 1.682500 0.228000
v -0.017500 1.600000 0.194000
v 0.017500 1.600000 0.194000
v 0.017500 1.690000 0.194000
v -0.017500 1.690000 0.194000
v -0.017500 1.600000 0.226000
v 0.017500 1.600000 0.226000
v 0.017500 1.690000 0.226000
v -0.017500 1.690000 0.226000
v -0.065000 1.475000 -0.070000
v 0.065000 1.475000 -0.070000
v 0.065000 1.525000 -0.070000
v -0.065000 1.525000 -0.070000
v -0.065000 1.475000 0.060000
v 0.065000 1.475000 0.060000
v 0.065000 1.525000 0.060000
v -0.065000 1.525000 0.060000
v 0.215000 1.770000 0.015000
v 0.152028 1.770000 0.167028
v 0.000000 1.770000 0.230000
v -0.152028 1.770000 0.167028
v -0.215000 1.770000 0.015000
v -0.152028 1.770000 -0.137028
v -0.000000 1.770000 -0.200000
v 0.152028 1.770000 -0.137028
v 0.205000 1.910000 0.015000
v 0.144957 1.910000 0.159957
v 0.000000 1.910000 0.220000
v -0.144957 1.910000 0.159957
v -0.205000 1.910000 0.015000
v -0.144957 1.910000 -0.129957
v -0.000000 1.910000 -0.190000
v 0.144957 1.910000 -0.129957
v 0.140000 1.970000 0.015000
v 0.098995 1.970000 0.113995
v 0.000000 1.970000 0.155000
v -0.098995 1.970000 0.113995
v -0.140000 1.970000 0.015000
v -0.098995 1.970000 -0.083995
v -0.000000 1.970000 -0.125000
v 0.098995 1.970000 -0.083995
v -0.190000 1.737500 0.177500
v 0.190000 1.737500 0.177500
v 0.190000 1.802500 0.177500
v -0.190000 1.802500 0.177500
v -0.190000 1.737500 0.252500
v 0.190000 1.737500 0.252500
v 0.190000 1.802500 0.252500
v -0.190000 1.802500 0.252500
vn -0.0000 -0.0000 -1.0000
vn -0.0000 -0.0000 1.0000
vn -0.0000 -1.0000 -0.0000
vn 1.0000 -0.0000 -0.0000
vn -0.0000 1.0000 -0.0000
vn -1.0000 -0.0000 -0.0000
vn 0.9219 0.0658 0.3819
vn 0.3819 0.0658 0.9219
vn -0.3819 0.0658 0.9219
vn -0.9219 0.0658 0.3819
vn -0.9219 0.0658 -0.3819
vn -0.3819 0.0658 -0.9219
vn 0.3819 0.0658 -0.9219
vn 0.9219 0.0658 -0.3819
vn 0.6530 0.7074 0.2705
vn 0.2705 0.7074 0.6530
vn -0.2705 0.7074 0.6530
vn -0.6530 0.7074 0.2705
vn -0.6530 0.7074 -0.2705
vn -0.2705 0.7074 -0.6530
vn 0.2705 0.7074 -0.6530
vn 0.6530 0.7074 -0.2705
vt 0.375000 0.875000
vt 0.625000 0.375000
vt 0.875000 0.375000
vt 0.875000 0.125000
vt 0.125000 0.125000
vt 0.375000 0.125000
vt 0.625000 0.125000
s 0
usemtl MilitaryPeoplePalette
f 115/7/7 113/7/7 116/7/7
f 118/7/8 120/7/8 117/7/8
f 114/7/9 117/7/9 113/7/9
f 115/7/10 118/7/10 114/7/10
f 116/7/11 119/7/11 115/7/11
f 113/7/12 120/7/12 116/7/12
f 123/8/7 121/8/7 124/8/7
f 126/8/8 128/8/8 125/8/8
f 122/8/9 125/8/9 121/8/9
f 123/8/10 126/8/10 122/8/10
f 124/8/11 127/8/11 123/8/11
f 121/8/12 128/8/12 124/8/12
f 131/9/7 129/9/7 132/9/7
f 134/9/8 136/9/8 133/9/8
f 130/9/9 133/9/9 129/9/9
f 131/9/10 134/9/10 130/9/10
f 132/9/11 135/9/11 131/9/11
f 129/9/12 136/9/12 132/9/12
f 139/9/7 137/9/7 140/9/7
f 142/9/8 144/9/8 141/9/8
f 138/9/9 141/9/9 137/9/9
f 139/9/10 142/9/10 138/9/10
f 140/9/11 143/9/11 139/9/11
f 137/9/12 144/9/12 140/9/12
f 147/10/7 145/10/7 148/10/7
f 150/10/8 152/10/8 149/10/8
f 146/10/9 149/10/9 145/10/9
f 147/10/10 150/10/10 146/10/10
f 148/10/11 151/10/11 147/10/11
f 145/10/12 152/10/12 148/10/12
f 155/7/7 153/7/7 156/7/7
f 158/7/8 160/7/8 157/7/8
f 154/7/9 157/7/9 153/7/9
f 155/7/10 158/7/10 154/7/10
f 156/7/11 159/7/11 155/7/11
f 153/7/12 160/7/12 156/7/12
f 166/11/9 167/11/9 163/11/9
f 169/11/13 162/11/13 161/11/13
f 170/11/14 163/11/14 162/11/14
f 171/11/15 164/11/15 163/11/15
f 172/11/16 165/11/16 164/11/16
f 173/11/17 166/11/17 165/11/17
f 174/11/18 167/11/18 166/11/18
f 175/11/19 168/11/19 167/11/19
f 176/11/20 161/11/20 168/11/20
f 177/11/21 170/11/21 169/11/21
f 178/11/22 171/11/22 170/11/22
f 179/11/23 172/11/23 171/11/23
f 180/11/24 173/11/24 172/11/24
f 181/11/25 174/11/25 173/11/25
f 182/11/26 175/11/26 174/11/26
f 183/11/27 176/11/27 175/11/27
f 184/11/28 169/11/28 176/11/28
f 182/12/11 180/12/11 178/12/11
f 187/13/7 185/13/7 188/13/7
f 190/13/8 192/13/8 189/13/8
f 186/13/9 189/13/9 185/13/9
f 187/13/10 190/13/10 186/13/10
f 188/13/11 191/13/11 187/13/11
f 185/13/12 192/13/12 188/13/12
f 115/7/7 114/7/7 113/7/7
f 118/7/8 119/7/8 120/7/8
f 114/7/9 118/7/9 117/7/9
f 115/7/10 119/7/10 118/7/10
f 116/7/11 120/7/11 119/7/11
f 113/7/12 117/7/12 120/7/12
f 123/8/7 122/8/7 121/8/7
f 126/8/8 127/8/8 128/8/8
f 122/8/9 126/8/9 125/8/9
f 123/8/10 127/8/10 126/8/10
f 124/8/11 128/8/11 127/8/11
f 121/8/12 125/8/12 128/8/12
f 131/9/7 130/9/7 129/9/7
f 134/9/8 135/9/8 136/9/8
f 130/9/9 134/9/9 133/9/9
f 131/9/10 135/9/10 134/9/10
f 132/9/11 136/9/11 135/9/11
f 129/9/12 133/9/12 136/9/12
f 139/9/7 138/9/7 137/9/7
f 142/9/8 143/9/8 144/9/8
f 138/9/9 142/9/9 141/9/9
f 139/9/10 143/9/10 142/9/10
f 140/9/11 144/9/11 143/9/11
f 137/9/12 141/9/12 144/9/12
f 147/10/7 146/10/7 145/10/7
f 150/10/8 151/10/8 152/10/8
f 146/10/9 150/10/9 149/10/9
f 147/10/10 151/10/10 150/10/10
f 148/10/11 152/10/11 151/10/11
f 145/10/12 149/10/12 152/10/12
f 155/7/7 154/7/7 153/7/7
f 158/7/8 159/7/8 160/7/8
f 154/7/9 158/7/9 157/7/9
f 155/7/10 159/7/10 158/7/10
f 156/7/11 160/7/11 159/7/11
f 153/7/12 157/7/12 160/7/12
f 167/11/9 168/11/9 161/11/9
f 161/11/9 162/11/9 167/11/9
f 162/11/9 163/11/9 167/11/9
f 163/11/9 164/11/9 165/11/9
f 165/11/9 166/11/9 163/11/9
f 169/11/13 170/11/13 162/11/13
f 170/11/14 171/11/14 163/11/14
f 171/11/15 172/11/15 164/11/15
f 172/11/16 173/11/16 165/11/16
f 173/11/17 174/11/17 166/11/17
f 174/11/18 175/11/18 167/11/18
f 175/11/19 176/11/19 168/11/19
f 176/11/20 169/11/20 161/11/20
f 177/11/21 178/11/21 170/11/21
f 178/11/22 179/11/22 171/11/22
f 179/11/23 180/11/23 172/11/23
f 180/11/24 181/11/24 173/11/24
f 181/11/25 182/11/25 174/11/25
f 182/11/26 183/11/26 175/11/26
f 183/11/27 184/11/27 176/11/27
f 184/11/28 177/11/28 169/11/28
f 178/12/11 177/12/11 184/12/11
f 184/12/11 183/12/11 182/12/11
f 182/12/11 181/12/11 180/12/11
f 180/12/11 179/12/11 178/12/11
f 178/12/11 184/12/11 182/12/11
f 187/13/7 186/13/7 185/13/7
f 190/13/8 191/13/8 192/13/8
f 186/13/9 190/13/9 189/13/9
f 187/13/10 191/13/10 190/13/10
f 188/13/11 192/13/11 191/13/11
f 185/13/12 189/13/12 192/13/12
o BAZOOKA_LEG_L
v -0.260000 0.275000 -0.095000
v -0.080000 0.275000 -0.095000
v -0.080000 0.745000 -0.095000
v -0.260000 0.745000 -0.095000
v -0.260000 0.275000 0.095000
v -0.080000 0.275000 0.095000
v -0.080000 0.745000 0.095000
v -0.260000 0.745000 0.095000
v -0.265000 0.410000 0.084500
v -0.075000 0.410000 0.084500
v -0.075000 0.570000 0.084500
v -0.265000 0.570000 0.084500
v -0.265000 0.410000 0.139500
v -0.075000 0.410000 0.139500
v -0.075000 0.570000 0.139500
v -0.265000 0.570000 0.139500
v -0.280000 0.190000 -0.120000
v -0.060000 0.190000 -0.120000
v -0.060000 0.350000 -0.120000
v -0.280000 0.350000 -0.120000
v -0.280000 0.190000 0.190000
v -0.060000 0.190000 0.190000
v -0.060000 0.350000 0.190000
v -0.280000 0.350000 0.190000
v -0.287500 0.162500 -0.152000
v -0.052500 0.162500 -0.152000
v -0.052500 0.207500 -0.152000
v -0.287500 0.207500 -0.152000
v -0.287500 0.162500 0.188000
v -0.052500 0.162500 0.188000
v -0.052500 0.207500 0.188000
v -0.287500 0.207500 0.188000
v -0.272500 0.675000 -0.102500
v -0.067500 0.675000 -0.102500
v -0.067500 0.755000 -0.102500
v -0.272500 0.755000 -0.102500
v -0.272500 0.675000 0.102500
v -0.067500 0.675000 0.102500
v -0.067500 0.755000 0.102500
v -0.272500 0.755000 0.102500
vn -0.0000 -0.0000 -1.0000
vn -0.0000 -0.0000 1.0000
vn -0.0000 -1.0000 -0.0000
vn 1.0000 -0.0000 -0.0000
vn -0.0000 1.0000 -0.0000
vn -1.0000 -0.0000 -0.0000
vt 0.625000 0.125000
vt 0.875000 0.125000
vt 0.125000 0.375000
vt 0.625000 0.875000
vt 0.375000 0.125000
s 0
usemtl MilitaryPeoplePalette
f 195/14/29 193/14/29 196/14/29
f 198/14/30 200/14/30 197/14/30
f 194/14/31 197/14/31 193/14/31
f 195/14/32 198/14/32 194/14/32
f 196/14/33 199/14/33 195/14/33
f 193/14/34 200/14/34 196/14/34
f 203/15/29 201/15/29 204/15/29
f 206/15/30 208/15/30 205/15/30
f 202/15/31 205/15/31 201/15/31
f 203/15/32 206/15/32 202/15/32
f 204/15/33 207/15/33 203/15/33
f 201/15/34 208/15/34 204/15/34
f 211/16/29 209/16/29 212/16/29
f 214/16/30 216/16/30 213/16/30
f 210/16/31 213/16/31 209/16/31
f 211/16/32 214/16/32 210/16/32
f 212/16/33 215/16/33 211/16/33
f 209/16/34 216/16/34 212/16/34
f 219/17/29 217/17/29 220/17/29
f 222/17/30 224/17/30 221/17/30
f 218/17/31 221/17/31 217/17/31
f 219/17/32 222/17/32 218/17/32
f 220/17/33 223/17/33 219/17/33
f 217/17/34 224/17/34 220/17/34
f 227/18/29 225/18/29 228/18/29
f 230/18/30 232/18/30 229/18/30
f 226/18/31 229/18/31 225/18/31
f 227/18/32 230/18/32 226/18/32
f 228/18/33 231/18/33 227/18/33
f 225/18/34 232/18/34 228/18/34
f 195/14/29 194/14/29 193/14/29
f 198/14/30 199/14/30 200/14/30
f 194/14/31 198/14/31 197/14/31
f 195/14/32 199/14/32 198/14/32
f 196/14/33 200/14/33 199/14/33
f 193/14/34 197/14/34 200/14/34
f 203/15/29 202/15/29 201/15/29
f 206/15/30 207/15/30 208/15/30
f 202/15/31 206/15/31 205/15/31
f 203/15/32 207/15/32 206/15/32
f 204/15/33 208/15/33 207/15/33
f 201/15/34 205/15/34 208/15/34
f 211/16/29 210/16/29 209/16/29
f 214/16/30 215/16/30 216/16/30
f 210/16/31 214/16/31 213/16/31
f 211/16/32 215/16/32 214/16/32
f 212/16/33 216/16/33 215/16/33
f 209/16/34 213/16/34 216/16/34
f 219/17/29 218/17/29 217/17/29
f 222/17/30 223/17/30 224/17/30
f 218/17/31 222/17/31 221/17/31
f 219/17/32 223/17/32 222/17/32
f 220/17/33 224/17/33 223/17/33
f 217/17/34 221/17/34 224/17/34
f 227/18/29 226/18/29 225/18/29
f 230/18/30 231/18/30 232/18/30
f 226/18/31 230/18/31 229/18/31
f 227/18/32 231/18/32 230/18/32
f 228/18/33 232/18/33 231/18/33
f 225/18/34 229/18/34 232/18/34
o BAZOOKA_LEG_R
v 0.080000 0.275000 -0.095000
v 0.260000 0.275000 -0.095000
v 0.260000 0.745000 -0.095000
v 0.080000 0.745000 -0.095000
v 0.080000 0.275000 0.095000
v 0.260000 0.275000 0.095000
v 0.260000 0.745000 0.095000
v 0.080000 0.745000 0.095000
v 0.075000 0.410000 0.084500
v 0.265000 0.410000 0.084500
v 0.265000 0.570000 0.084500
v 0.075000 0.570000 0.084500
v 0.075000 0.410000 0.139500
v 0.265000 0.410000 0.139500
v 0.265000 0.570000 0.139500
v 0.075000 0.570000 0.139500
v 0.060000 0.190000 -0.120000
v 0.280000 0.190000 -0.120000
v 0.280000 0.350000 -0.120000
v 0.060000 0.350000 -0.120000
v 0.060000 0.190000 0.190000
v 0.280000 0.190000 0.190000
v 0.280000 0.350000 0.190000
v 0.060000 0.350000 0.190000
v 0.052500 0.162500 -0.152000
v 0.287500 0.162500 -0.152000
v 0.287500 0.207500 -0.152000
v 0.052500 0.207500 -0.152000
v 0.052500 0.162500 0.188000
v 0.287500 0.162500 0.188000
v 0.287500 0.207500 0.188000
v 0.052500 0.207500 0.188000
v 0.067500 0.675000 -0.102500
v 0.272500 0.675000 -0.102500
v 0.272500 0.755000 -0.102500
v 0.067500 0.755000 -0.102500
v 0.067500 0.675000 0.102500
v 0.272500 0.675000 0.102500
v 0.272500 0.755000 0.102500
v 0.067500 0.755000 0.102500
vn -0.0000 -0.0000 -1.0000
vn -0.0000 -0.0000 1.0000
vn -0.0000 -1.0000 -0.0000
vn 1.0000 -0.0000 -0.0000
vn -0.0000 1.0000 -0.0000
vn -1.0000 -0.0000 -0.0000
vt 0.625000 0.125000
vt 0.875000 0.125000
vt 0.125000 0.375000
vt 0.625000 0.875000
vt 0.375000 0.125000
s 0
usemtl MilitaryPeoplePalette
f 235/19/35 233/19/35 236/19/35
f 238/19/36 240/19/36 237/19/36
f 234/19/37 237/19/37 233/19/37
f 235/19/38 238/19/38 234/19/38
f 236/19/39 239/19/39 235/19/39
f 233/19/40 240/19/40 236/19/40
f 243/20/35 241/20/35 244/20/35
f 246/20/36 248/20/36 245/20/36
f 242/20/37 245/20/37 241/20/37
f 243/20/38 246/20/38 242/20/38
f 244/20/39 247/20/39 243/20/39
f 241/20/40 248/20/40 244/20/40
f 251/21/35 249/21/35 252/21/35
f 254/21/36 256/21/36 253/21/36
f 250/21/37 253/21/37 249/21/37
f 251/21/38 254/21/38 250/21/38
f 252/21/39 255/21/39 251/21/39
f 249/21/40 256/21/40 252/21/40
f 259/22/35 257/22/35 260/22/35
f 262/22/36 264/22/36 261/22/36
f 258/22/37 261/22/37 257/22/37
f 259/22/38 262/22/38 258/22/38
f 260/22/39 263/22/39 259/22/39
f 257/22/40 264/22/40 260/22/40
f 267/23/35 265/23/35 268/23/35
f 270/23/36 272/23/36 269/23/36
f 266/23/37 269/23/37 265/23/37
f 267/23/38 270/23/38 266/23/38
f 268/23/39 271/23/39 267/23/39
f 265/23/40 272/23/40 268/23/40
f 235/19/35 234/19/35 233/19/35
f 238/19/36 239/19/36 240/19/36
f 234/19/37 238/19/37 237/19/37
f 235/19/38 239/19/38 238/19/38
f 236/19/39 240/19/39 239/19/39
f 233/19/40 237/19/40 240/19/40
f 243/20/35 242/20/35 241/20/35
f 246/20/36 247/20/36 248/20/36
f 242/20/37 246/20/37 245/20/37
f 243/20/38 247/20/38 246/20/38
f 244/20/39 248/20/39 247/20/39
f 241/20/40 245/20/40 248/20/40
f 251/21/35 250/21/35 249/21/35
f 254/21/36 255/21/36 256/21/36
f 250/21/37 254/21/37 253/21/37
f 251/21/38 255/21/38 254/21/38
f 252/21/39 256/21/39 255/21/39
f 249/21/40 253/21/40 256/21/40
f 259/22/35 258/22/35 257/22/35
f 262/22/36 263/22/36 264/22/36
f 258/22/37 262/22/37 261/22/37
f 259/22/38 263/22/38 262/22/38
f 260/22/39 264/22/39 263/22/39
f 257/22/40 261/22/40 264/22/40
f 267/23/35 266/23/35 265/23/35
f 270/23/36 271/23/36 272/23/36
f 266/23/37 270/23/37 269/23/37
f 267/23/38 271/23/38 270/23/38
f 268/23/39 272/23/39 271/23/39
f 265/23/40 269/23/40 272/23/40
o BAZOOKA_ARM_L
v -0.514026 0.965210 -0.080000
v -0.354826 0.949236 -0.080000
v -0.309900 1.396988 -0.080000
v -0.469101 1.412962 -0.080000
v -0.514026 0.965210 0.080000
v -0.354826 0.949236 0.080000
v -0.309900 1.396988 0.080000
v -0.469101 1.412962 0.080000
v -0.496530 1.214710 0.077500
v -0.322405 1.197239 0.077500
v -0.307430 1.346489 0.077500
v -0.481555 1.363960 0.077500
v -0.496530 1.214710 0.112500
v -0.322405 1.197239 0.112500
v -0.307430 1.346489 0.112500
v -0.481555 1.363960 0.112500
v -0.510074 0.879387 -0.067500
v -0.375749 0.865909 -0.067500
v -0.363769 0.985309 -0.067500
v -0.498094 0.998787 -0.067500
v -0.510074 0.879387 0.067500
v -0.375749 0.865909 0.067500
v -0.363769 0.985309 0.067500
v -0.498094 0.998787 0.067500
v -0.491015 1.344809 -0.095000
v -0.301964 1.325840 -0.095000
v -0.294975 1.395491 -0.095000
v -0.484026 1.414459 -0.095000
v -0.491015 1.344809 0.095000
v -0.301964 1.325840 0.095000
v -0.294975 1.395491 0.095000
v -0.484026 1.414459 0.095000
vn -0.0000 -0.0000 -1.0000
vn -0.0000 -0.0000 1.0000
vn -0.0998 -0.9950 -0.0000
vn 0.9950 -0.0998 -0.0000
vn 0.0998 0.9950 -0.0000
vn -0.9950 0.0998 -0.0000
vt 0.125000 0.125000
vt 0.375000 0.125000
vt 0.375000 0.875000
s 0
usemtl MilitaryPeoplePalette
f 275/24/41 273/24/41 276/24/41
f 278/24/42 280/24/42 277/24/42
f 274/24/43 277/24/43 273/24/43
f 275/24/44 278/24/44 274/24/44
f 276/24/45 279/24/45 275/24/45
f 273/24/46 280/24/46 276/24/46
f 283/25/41 281/25/41 284/25/41
f 286/25/42 288/25/42 285/25/42
f 282/25/43 285/25/43 281/25/43
f 283/25/44 286/25/44 282/25/44
f 284/25/45 287/25/45 283/25/45
f 281/25/46 288/25/46 284/25/46
f 291/26/41 289/26/41 292/26/41
f 294/26/42 296/26/42 293/26/42
f 290/26/43 293/26/43 289/26/43
f 291/26/44 294/26/44 290/26/44
f 292/26/45 295/26/45 291/26/45
f 289/26/46 296/26/46 292/26/46
f 299/25/41 297/25/41 300/25/41
f 302/25/42 304/25/42 301/25/42
f 298/25/43 301/25/43 297/25/43
f 299/25/44 302/25/44 298/25/44
f 300/25/45 303/25/45 299/25/45
f 297/25/46 304/25/46 300/25/46
f 275/24/41 274/24/41 273/24/41
f 278/24/42 279/24/42 280/24/42
f 274/24/43 278/24/43 277/24/43
f 275/24/44 279/24/44 278/24/44
f 276/24/45 280/24/45 279/24/45
f 273/24/46 277/24/46 280/24/46
f 283/25/41 282/25/41 281/25/41
f 286/25/42 287/25/42 288/25/42
f 282/25/43 286/25/43 285/25/43
f 283/25/44 287/25/44 286/25/44
f 284/25/45 288/25/45 287/25/45
f 281/25/46 285/25/46 288/25/46
f 291/26/41 290/26/41 289/26/41
f 294/26/42 295/26/42 296/26/42
f 290/26/43 294/26/43 293/26/43
f 291/26/44 295/26/44 294/26/44
f 292/26/45 296/26/45 295/26/45
f 289/26/46 293/26/46 296/26/46
f 299/25/41 298/25/41 297/25/41
f 302/25/42 303/25/42 304/25/42
f 298/25/43 302/25/43 301/25/43
f 299/25/44 303/25/44 302/25/44
f 300/25/45 304/25/45 303/25/45
f 297/25/46 301/25/46 304/25/46
o BAZOOKA_ARM_R
v 0.354826 0.949236 -0.080000
v 0.514026 0.965210 -0.080000
v 0.469101 1.412962 -0.080000
v 0.309900 1.396988 -0.080000
v 0.354826 0.949236 0.080000
v 0.514026 0.965210 0.080000
v 0.469101 1.412962 0.080000
v 0.309900 1.396988 0.080000
v 0.322405 1.197239 0.077500
v 0.496530 1.214710 0.077500
v 0.481555 1.363960 0.077500
v 0.307430 1.346489 0.077500
v 0.322405 1.197239 0.112500
v 0.496530 1.214710 0.112500
v 0.481555 1.363960 0.112500
v 0.307430 1.346489 0.112500
v 0.375749 0.865909 -0.067500
v 0.510074 0.879387 -0.067500
v 0.498094 0.998787 -0.067500
v 0.363769 0.985309 -0.067500
v 0.375749 0.865909 0.067500
v 0.510074 0.879387 0.067500
v 0.498094 0.998787 0.067500
v 0.363769 0.985309 0.067500
v 0.301964 1.325840 -0.095000
v 0.491015 1.344809 -0.095000
v 0.484026 1.414459 -0.095000
v 0.294975 1.395491 -0.095000
v 0.301964 1.325840 0.095000
v 0.491015 1.344809 0.095000
v 0.484026 1.414459 0.095000
v 0.294975 1.395491 0.095000
vn -0.0000 -0.0000 -1.0000
vn -0.0000 -0.0000 1.0000
vn 0.0998 -0.9950 -0.0000
vn 0.9950 0.0998 -0.0000
vn -0.0998 0.9950 -0.0000
vn -0.9950 -0.0998 -0.0000
vt 0.125000 0.125000
vt 0.375000 0.125000
vt 0.375000 0.875000
s 0
usemtl MilitaryPeoplePalette
f 307/27/47 305/27/47 308/27/47
f 310/27/48 312/27/48 309/27/48
f 306/27/49 309/27/49 305/27/49
f 307/27/50 310/27/50 306/27/50
f 308/27/51 311/27/51 307/27/51
f 305/27/52 312/27/52 308/27/52
f 315/28/47 313/28/47 316/28/47
f 318/28/48 320/28/48 317/28/48
f 314/28/49 317/28/49 313/28/49
f 315/28/50 318/28/50 314/28/50
f 316/28/51 319/28/51 315/28/51
f 313/28/52 320/28/52 316/28/52
f 323/29/47 321/29/47 324/29/47
f 326/29/48 328/29/48 325/29/48
f 322/29/49 325/29/49 321/29/49
f 323/29/50 326/29/50 322/29/50
f 324/29/51 327/29/51 323/29/51
f 321/29/52 328/29/52 324/29/52
f 331/28/47 329/28/47 332/28/47
f 334/28/48 336/28/48 333/28/48
f 330/28/49 333/28/49 329/28/49
f 331/28/50 334/28/50 330/28/50
f 332/28/51 335/28/51 331/28/51
f 329/28/52 336/28/52 332/28/52
f 307/27/47 306/27/47 305/27/47
f 310/27/48 311/27/48 312/27/48
f 306/27/49 310/27/49 309/27/49
f 307/27/50 311/27/50 310/27/50
f 308/27/51 312/27/51 311/27/51
f 305/27/52 309/27/52 312/27/52
f 315/28/47 314/28/47 313/28/47
f 318/28/48 319/28/48 320/28/48
f 314/28/49 318/28/49 317/28/49
f 315/28/50 319/28/50 318/28/50
f 316/28/51 320/28/51 319/28/51
f 313/28/52 317/28/52 320/28/52
f 323/29/47 322/29/47 321/29/47
f 326/29/48 327/29/48 328/29/48
f 322/29/49 326/29/49 325/29/49
f 323/29/50 327/29/50 326/29/50
f 324/29/51 328/29/51 327/29/51
f 321/29/52 325/29/52 328/29/52
f 331/28/47 330/28/47 329/28/47
f 334/28/48 335/28/48 336/28/48
f 330/28/49 334/28/49 333/28/49
f 331/28/50 335/28/50 334/28/50
f 332/28/51 336/28/51 335/28/51
f 329/28/52 333/28/52 336/28/52
o BAZOOKA_WEAPON
v -0.359417 0.670171 0.240000
v -0.387021 0.672385 0.325229
v -0.459289 0.678178 0.377903
v -0.548617 0.685340 0.377903
v -0.620885 0.691134 0.325229
v -0.648489 0.693347 0.240000
v -0.620885 0.691134 0.154771
v -0.548617 0.685340 0.102097
v -0.459289 0.678178 0.102097
v -0.387021 0.672385 0.154771
v -0.289092 1.547357 0.240000
v -0.316696 1.549570 0.325229
v -0.388964 1.555364 0.377903
v -0.478292 1.562525 0.377903
v -0.550560 1.568319 0.325229
v -0.578164 1.570532 0.240000
v -0.550560 1.568319 0.154771
v -0.478292 1.562525 0.102097
v -0.388964 1.555364 0.102097
v -0.316696 1.549570 0.154771
v -0.565296 1.042816 0.020000
v -0.385871 1.028431 0.020000
v -0.367491 1.257696 0.020000
v -0.546915 1.272080 0.020000
v -0.565296 1.042816 0.140000
v -0.385871 1.028431 0.140000
v -0.367491 1.257696 0.140000
v -0.546915 1.272080 0.140000
v -0.584158 1.495772 0.095000
v -0.295086 1.472597 0.095000
v -0.287893 1.562309 0.095000
v -0.576966 1.585484 0.095000
v -0.584158 1.495772 0.385000
v -0.295086 1.472597 0.385000
v -0.287893 1.562309 0.385000
v -0.576966 1.585484 0.385000
v -0.663841 0.689561 0.080000
v -0.344864 0.663989 0.080000
v -0.339270 0.733765 0.080000
v -0.658247 0.759338 0.080000
v -0.663841 0.689561 0.400000
v -0.344864 0.663989 0.400000
v -0.339270 0.733765 0.400000
v -0.658247 0.759338 0.400000
vn -0.0799 -0.9968 -0.0000
vn 0.9480 -0.0760 0.3090
vn 0.5859 -0.0470 0.8090
vn -0.0000 -0.0000 1.0000
vn -0.5859 0.0470 0.8090
vn -0.9480 0.0760 0.3090
vn -0.9480 0.0760 -0.3090
vn -0.5859 0.0470 -0.8090
vn -0.0000 -0.0000 -1.0000
vn 0.5859 -0.0470 -0.8090
vn 0.9480 -0.0760 -0.3090
vn 0.0799 0.9968 -0.0000
vn 0.9968 -0.0799 -0.0000
vn -0.9968 0.0799 -0.0000
vt 0.125000 0.625000
vt 0.875000 0.125000
vt 0.125000 0.125000
vt 0.625000 0.875000
s 0
usemtl MilitaryPeoplePalette
f 339/30/53 343/30/53 345/30/53
f 347/30/54 338/30/54 337/30/54
f 348/30/55 339/30/55 338/30/55
f 349/30/56 340/30/56 339/30/56
f 350/30/57 341/30/57 340/30/57
f 351/30/58 342/30/58 341/30/58
f 352/30/59 343/30/59 342/30/59
f 353/30/60 344/30/60 343/30/60
f 354/30/61 345/30/61 344/30/61
f 355/30/62 346/30/62 345/30/62
f 356/30/63 337/30/63 346/30/63
f 354/31/64 350/31/64 348/31/64
f 359/32/61 357/32/61 360/32/61
f 362/32/56 364/32/56 361/32/56
f 358/32/53 361/32/53 357/32/53
f 359/32/65 362/32/65 358/32/65
f 360/32/64 363/32/64 359/32/64
f 357/32/66 364/32/66 360/32/66
f 367/31/61 365/31/61 368/31/61
f 370/31/56 372/31/56 369/31/56
f 366/31/53 369/31/53 365/31/53
f 367/31/65 370/31/65 366/31/65
f 368/31/64 371/31/64 367/31/64
f 365/31/66 372/31/66 368/31/66
f 375/33/61 373/33/61 376/33/61
f 378/33/56 380/33/56 377/33/56
f 374/33/53 377/33/53 373/33/53
f 375/33/65 378/33/65 374/33/65
f 376/33/64 379/33/64 375/33/64
f 373/33/66 380/33/66 376/33/66
f 345/30/53 346/30/53 337/30/53
f 337/30/53 338/30/53 345/30/53
f 338/30/53 339/30/53 345/30/53
f 339/30/53 340/30/53 341/30/53
f 341/30/53 342/30/53 343/30/53
f 343/30/53 344/30/53 345/30/53
f 339/30/53 341/30/53 343/30/53
f 347/30/54 348/30/54 338/30/54
f 348/30/55 349/30/55 339/30/55
f 349/30/56 350/30/56 340/30/56
f 350/30/57 351/30/57 341/30/57
f 351/30/58 352/30/58 342/30/58
f 352/30/59 353/30/59 343/30/59
f 353/30/60 354/30/60 344/30/60
f 354/30/61 355/30/61 345/30/61
f 355/30/62 356/30/62 346/30/62
f 356/30/63 347/30/63 337/30/63
f 348/31/64 347/31/64 356/31/64
f 356/31/64 355/31/64 348/31/64
f 355/31/64 354/31/64 348/31/64
f 354/31/64 353/31/64 352/31/64
f 352/31/64 351/31/64 354/31/64
f 351/31/64 350/31/64 354/31/64
f 350/31/64 349/31/64 348/31/64
f 359/32/61 358/32/61 357/32/61
f 362/32/56 363/32/56 364/32/56
f 358/32/53 362/32/53 361/32/53
f 359/32/65 363/32/65 362/32/65
f 360/32/64 364/32/64 363/32/64
f 357/32/66 361/32/66 364/32/66
f 367/31/61 366/31/61 365/31/61
f 370/31/56 371/31/56 372/31/56
f 366/31/53 370/31/53 369/31/53
f 367/31/65 371/31/65 370/31/65
f 368/31/64 372/31/64 371/31/64
f 365/31/66 369/31/66 372/31/66
f 375/33/61 374/33/61 373/33/61
f 378/33/56 379/33/56 380/33/56
f 374/33/53 378/33/53 377/33/53
f 375/33/65 379/33/65 378/33/65
f 376/33/64 380/33/64 379/33/64
f 373/33/66 377/33/66 380/33/66
