# Blender 5.2.1 LTS
# www.blender.org
mtllib bomber.mtl
o BOMBER_BODY
v -0.270000 0.730000 -0.160000
v 0.270000 0.730000 -0.160000
v 0.270000 1.430000 -0.160000
v -0.270000 1.430000 -0.160000
v -0.270000 0.730000 0.160000
v 0.270000 0.730000 0.160000
v 0.270000 1.430000 0.160000
v -0.270000 1.430000 0.160000
v -0.240000 0.690000 0.152500
v 0.240000 0.690000 0.152500
v 0.240000 1.090000 0.152500
v -0.240000 1.090000 0.152500
v -0.240000 0.690000 0.227500
v 0.240000 0.690000 0.227500
v 0.240000 1.090000 0.227500
v -0.240000 1.090000 0.227500
v -0.290000 0.630000 -0.150000
v 0.290000 0.630000 -0.150000
v 0.290000 0.690000 -0.150000
v -0.290000 0.690000 -0.150000
v -0.290000 0.630000 0.190000
v 0.290000 0.630000 0.190000
v 0.290000 0.690000 0.190000
v -0.290000 0.690000 0.190000
v -0.220000 1.210000 -0.250000
v 0.220000 1.210000 -0.250000
v 0.220000 1.430000 -0.250000
v -0.220000 1.430000 -0.250000
v -0.220000 1.210000 -0.150000
v 0.220000 1.210000 -0.150000
v 0.220000 1.430000 -0.150000
v -0.220000 1.430000 -0.150000
v -0.215000 0.805000 0.222500
v 0.215000 0.805000 0.222500
v 0.215000 0.875000 0.222500
v -0.215000 0.875000 0.222500
v -0.215000 0.805000 0.267500
v 0.215000 0.805000 0.267500
v 0.215000 0.875000 0.267500
v -0.215000 0.875000 0.267500
v -0.197500 0.940000 0.217500
v -0.082500 0.940000 0.217500
v -0.082500 1.100000 0.217500
v -0.197500 1.100000 0.217500
v -0.197500 0.940000 0.272500
v -0.082500 0.940000 0.272500
v -0.082500 1.100000 0.272500
v -0.197500 1.100000 0.272500
v -0.057500 0.940000 0.217500
v 0.057500 0.940000 0.217500
v 0.057500 1.100000 0.217500
v -0.057500 1.100000 0.217500
v -0.057500 0.940000 0.272500
v 0.057500 0.940000 0.272500
v 0.057500 1.100000 0.272500
v -0.057500 1.100000 0.272500
v 0.082500 0.940000 0.217500
v 0.197500 0.940000 0.217500
v 0.197500 1.100000 0.217500
v 0.082500 1.100000 0.217500
v 0.082500 0.940000 0.272500
v 0.197500 0.940000 0.272500
v 0.197500 1.100000 0.272500
v 0.082500 1.100000 0.272500
v -0.365000 1.000000 -0.005000
v -0.255000 1.000000 -0.005000
v -0.255000 1.280000 -0.005000
v -0.365000 1.280000 -0.005000
v -0.365000 1.000000 0.165000
v -0.255000 1.000000 0.165000
v -0.255000 1.280000 0.165000
v -0.365000 1.280000 0.165000
v -0.370000 1.247500 0.160000
v -0.250000 1.247500 0.160000
v -0.250000 1.292500 0.160000
v -0.370000 1.292500 0.160000
v -0.370000 1.247500 0.220000
v -0.250000 1.247500 0.220000
v -0.250000 1.292500 0.220000
v -0.370000 1.292500 0.220000
v -0.380000 1.160000 -0.120000
v -0.260000 1.160000 -0.120000
v -0.260000 1.400000 -0.120000
v -0.380000 1.400000 -0.120000
v -0.380000 1.160000 0.120000
v -0.260000 1.160000 0.120000
v -0.260000 1.400000 0.120000
v -0.380000 1.400000 0.120000
v 0.260000 1.160000 -0.120000
v 0.380000 1.160000 -0.120000
v 0.380000 1.400000 -0.120000
v 0.260000 1.400000 -0.120000
v 0.260000 1.160000 0.120000
v 0.380000 1.160000 0.120000
v 0.380000 1.400000 0.120000
v 0.260000 1.400000 0.120000
v -0.215000 0.620000 0.170000
v 0.215000 0.620000 0.170000
v 0.215000 0.700000 0.170000
v -0.215000 0.700000 0.170000
v -0.215000 0.620000 0.270000
v 0.215000 0.620000 0.270000
v 0.215000 0.700000 0.270000
v -0.215000 0.700000 0.270000
v -0.230000 0.580000 0.160000
v -0.150000 0.580000 0.160000
v -0.150000 0.660000 0.160000
v -0.230000 0.660000 0.160000
v -0.230000 0.580000 0.280000
v -0.150000 0.580000 0.280000
v -0.150000 0.660000 0.280000
v -0.230000 0.660000 0.280000
v 0.150000 0.580000 0.160000
v 0.230000 0.580000 0.160000
v 0.230000 0.660000 0.160000
v 0.150000 0.660000 0.160000
v 0.150000 0.580000 0.280000
v 0.230000 0.580000 0.280000
v 0.230000 0.660000 0.280000
v 0.150000 0.660000 0.280000
vn -0.0000 -0.0000 -1.0000
vn -0.0000 -0.0000 1.0000
vn -0.0000 -1.0000 -0.0000
vn 1.0000 -0.0000 -0.0000
vn -0.0000 1.0000 -0.0000
vn -1.0000 -0.0000 -0.0000
vt 0.625000 0.125000
vt 0.875000 0.125000
vt 0.375000 0.125000
vt 0.125000 0.875000
vt 0.125000 0.625000
vt 0.375000 0.875000
vt 0.625000 0.625000
vt 0.875000 0.625000
s 0
usemtl MilitaryPeoplePalette
f 3/1/1 1/1/1 4/1/1
f 6/1/2 8/1/2 5/1/2
f 2/1/3 5/1/3 1/1/3
f 3/1/4 6/1/4 2/1/4
f 4/1/5 7/1/5 3/1/5
f 1/1/6 8/1/6 4/1/6
f 11/2/1 9/2/1 12/2/1
f 14/2/2 16/2/2 13/2/2
f 10/2/3 13/2/3 9/2/3
f 11/2/4 14/2/4 10/2/4
f 12/2/5 15/2/5 11/2/5
f 9/2/6 16/2/6 12/2/6
f 19/3/1 17/3/1 20/3/1
f 22/3/2 24/3/2 21/3/2
f 18/3/3 21/3/3 17/3/3
f 19/3/4 22/3/4 18/3/4
f 20/3/5 23/3/5 19/3/5
f 17/3/6 24/3/6 20/3/6
f 27/4/1 25/4/1 28/4/1
f 30/4/2 32/4/2 29/4/2
f 26/4/3 29/4/3 25/4/3
f 27/4/4 30/4/4 26/4/4
f 28/4/5 31/4/5 27/4/5
f 25/4/6 32/4/6 28/4/6
f 35/3/1 33/3/1 36/3/1
f 38/3/2 40/3/2 37/3/2
f 34/3/3 37/3/3 33/3/3
f 35/3/4 38/3/4 34/3/4
f 36/3/5 39/3/5 35/3/5
f 33/3/6 40/3/6 36/3/6
f 43/4/1 41/4/1 44/4/1
f 46/4/2 48/4/2 45/4/2
f 42/4/3 45/4/3 41/4/3
f 43/4/4 46/4/4 42/4/4
f 44/4/5 47/4/5 43/4/5
f 41/4/6 48/4/6 44/4/6
f 51/4/1 49/4/1 52/4/1
f 54/4/2 56/4/2 53/4/2
f 50/4/3 53/4/3 49/4/3
f 51/4/4 54/4/4 50/4/4
f 52/4/5 55/4/5 51/4/5
f 49/4/6 56/4/6 52/4/6
f 59/4/1 57/4/1 60/4/1
f 62/4/2 64/4/2 61/4/2
f 58/4/3 61/4/3 57/4/3
f 59/4/4 62/4/4 58/4/4
f 60/4/5 63/4/5 59/4/5
f 57/4/6 64/4/6 60/4/6
f 67/5/1 65/5/1 68/5/1
f 70/5/2 72/5/2 69/5/2
f 66/5/3 69/5/3 65/5/3
f 67/5/4 70/5/4 66/5/4
f 68/5/5 71/5/5 67/5/5
f 65/5/6 72/5/6 68/5/6
f 75/6/1 73/6/1 76/6/1
f 78/6/2 80/6/2 77/6/2
f 74/6/3 77/6/3 73/6/3
f 75/6/4 78/6/4 74/6/4
f 76/6/5 79/6/5 75/6/5
f 73/6/6 80/6/6 76/6/6
f 83/3/1 81/3/1 84/3/1
f 86/3/2 88/3/2 85/3/2
f 82/3/3 85/3/3 81/3/3
f 83/3/4 86/3/4 82/3/4
f 84/3/5 87/3/5 83/3/5
f 81/3/6 88/3/6 84/3/6
f 91/3/1 89/3/1 92/3/1
f 94/3/2 96/3/2 93/3/2
f 90/3/3 93/3/3 89/3/3
f 91/3/4 94/3/4 90/3/4
f 92/3/5 95/3/5 91/3/5
f 89/3/6 96/3/6 92/3/6
f 99/7/1 97/7/1 100/7/1
f 102/7/2 104/7/2 101/7/2
f 98/7/3 101/7/3 97/7/3
f 99/7/4 102/7/4 98/7/4
f 100/7/5 103/7/5 99/7/5
f 97/7/6 104/7/6 100/7/6
f 107/8/1 105/8/1 108/8/1
f 110/8/2 112/8/2 109/8/2
f 106/8/3 109/8/3 105/8/3
f 107/8/4 110/8/4 106/8/4
f 108/8/5 111/8/5 107/8/5
f 105/8/6 112/8/6 108/8/6
f 115/8/1 113/8/1 116/8/1
f 118/8/2 120/8/2 117/8/2
f 114/8/3 117/8/3 113/8/3
f 115/8/4 118/8/4 114/8/4
f 116/8/5 119/8/5 115/8/5
f 113/8/6 120/8/6 116/8/6
f 3/1/1 2/1/1 1/1/1
f 6/1/2 7/1/2 8/1/2
f 2/1/3 6/1/3 5/1/3
f 3/1/4 7/1/4 6/1/4
f 4/1/5 8/1/5 7/1/5
f 1/1/6 5/1/6 8/1/6
f 11/2/1 10/2/1 9/2/1
f 14/2/2 15/2/2 16/2/2
f 10/2/3 14/2/3 13/2/3
f 11/2/4 15/2/4 14/2/4
f 12/2/5 16/2/5 15/2/5
f 9/2/6 13/2/6 16/2/6
f 19/3/1 18/3/1 17/3/1
f 22/3/2 23/3/2 24/3/2
f 18/3/3 22/3/3 21/3/3
f 19/3/4 23/3/4 22/3/4
f 20/3/5 24/3/5 23/3/5
f 17/3/6 21/3/6 24/3/6
f 27/4/1 26/4/1 25/4/1
f 30/4/2 31/4/2 32/4/2
f 26/4/3 30/4/3 29/4/3
f 27/4/4 31/4/4 30/4/4
f 28/4/5 32/4/5 31/4/5
f 25/4/6 29/4/6 32/4/6
f 35/3/1 34/3/1 33/3/1
f 38/3/2 39/3/2 40/3/2
f 34/3/3 38/3/3 37/3/3
f 35/3/4 39/3/4 38/3/4
f 36/3/5 40/3/5 39/3/5
f 33/3/6 37/3/6 40/3/6
f 43/4/1 42/4/1 41/4/1
f 46/4/2 47/4/2 48/4/2
f 42/4/3 46/4/3 45/4/3
f 43/4/4 47/4/4 46/4/4
f 44/4/5 48/4/5 47/4/5
f 41/4/6 45/4/6 48/4/6
f 51/4/1 50/4/1 49/4/1
f 54/4/2 55/4/2 56/4/2
f 50/4/3 54/4/3 53/4/3
f 51/4/4 55/4/4 54/4/4
f 52/4/5 56/4/5 55/4/5
f 49/4/6 53/4/6 56/4/6
f 59/4/1 58/4/1 57/4/1
f 62/4/2 63/4/2 64/4/2
f 58/4/3 62/4/3 61/4/3
f 59/4/4 63/4/4 62/4/4
f 60/4/5 64/4/5 63/4/5
f 57/4/6 61/4/6 64/4/6
f 67/5/1 66/5/1 65/5/1
f 70/5/2 71/5/2 72/5/2
f 66/5/3 70/5/3 69/5/3
f 67/5/4 71/5/4 70/5/4
f 68/5/5 72/5/5 71/5/5
f 65/5/6 69/5/6 72/5/6
f 75/6/1 74/6/1 73/6/1
f 78/6/2 79/6/2 80/6/2
f 74/6/3 78/6/3 77/6/3
f 75/6/4 79/6/4 78/6/4
f 76/6/5 80/6/5 79/6/5
f 73/6/6 77/6/6 80/6/6
f 83/3/1 82/3/1 81/3/1
f 86/3/2 87/3/2 88/3/2
f 82/3/3 86/3/3 85/3/3
f 83/3/4 87/3/4 86/3/4
f 84/3/5 88/3/5 87/3/5
f 81/3/6 85/3/6 88/3/6
f 91/3/1 90/3/1 89/3/1
f 94/3/2 95/3/2 96/3/2
f 90/3/3 94/3/3 93/3/3
f 91/3/4 95/3/4 94/3/4
f 92/3/5 96/3/5 95/3/5
f 89/3/6 93/3/6 96/3/6
f 99/7/1 98/7/1 97/7/1
f 102/7/2 103/7/2 104/7/2
f 98/7/3 102/7/3 101/7/3
f 99/7/4 103/7/4 102/7/4
f 100/7/5 104/7/5 103/7/5
f 97/7/6 101/7/6 104/7/6
f 107/8/1 106/8/1 105/8/1
f 110/8/2 111/8/2 112/8/2
f 106/8/3 110/8/3 109/8/3
f 107/8/4 111/8/4 110/8/4
f 108/8/5 112/8/5 111/8/5
f 105/8/6 109/8/6 112/8/6
f 115/8/1 114/8/1 113/8/1
f 118/8/2 119/8/2 120/8/2
f 114/8/3 118/8/3 117/8/3
f 115/8/4 119/8/4 118/8/4
f 116/8/5 120/8/5 119/8/5
f 113/8/6 117/8/6 120/8/6
o BOMBER_HEAD
v -0.170000 1.510000 -0.155000
v 0.170000 1.510000 -0.155000
v 0.170000 1.850000 -0.155000
v -0.170000 1.850000 -0.155000
v -0.170000 1.510000 0.185000
v 0.170000 1.510000 0.185000
v 0.170000 1.850000 0.185000
v -0.170000 1.850000 0.185000
v -0.125000 1.595000 0.184000
v 0.125000 1.595000 0.184000
v 0.125000 1.695000 0.184000
v -0.125000 1.695000 0.184000
v -0.125000 1.595000 0.210000
v 0.125000 1.595000 0.210000
v 0.125000 1.695000 0.210000
v -0.125000 1.695000 0.210000
v -0.125000 1.607500 0.206000
v -0.025000 1.607500 0.206000
v -0.025000 1.682500 0.206000
v -0.125000 1.682500 0.206000
v -0.125000 1.607500 0.228000
v -0.025000 1.607500 0.228000
v -0.025000 1.682500 0.228000
v -0.125000 1.682500 0.228000
v 0.025000 1.607500 0.206000
v 0.125000 1.607500 0.206000
v 0.125000 1.682500 0.206000
v 0.025000 1.682500 0.206000
v 0.025000 1.607500 0.228000
v 0.125000 1.607500 0.228000
v 0.125000 1.682500 0.228000
v 0.025000 1.682500 0.228000
v -0.017500 1.600000 0.194000
v 0.017500 1.600000 0.194000
v 0.017500 1.690000 0.194000
v -0.017500 1.690000 0.194000
v -0.017500 1.600000 0.226000
v 0.017500 1.600000 0.226000
v 0.017500 1.690000 0.226000
v -0.017500 1.690000 0.226000
v -0.065000 1.475000 -0.070000
v 0.065000 1.475000 -0.070000
v 0.065000 1.525000 -0.070000
v -0.065000 1.525000 -0.070000
v -0.065000 1.475000 0.060000
v 0.065000 1.475000 0.060000
v 0.065000 1.525000 0.060000
v -0.065000 1.525000 0.060000
v 0.215000 1.770000 0.015000
v 0.152028 1.770000 0.167028
v 0.000000 1.770000 0.230000
v -0.152028 1.770000 0.167028
v -0.215000 1.770000 0.015000
v -0.152028 1.770000 -0.137028
v -0.000000 1.770000 -0.200000
v 0.152028 1.770000 -0.137028
v 0.205000 1.910000 0.015000
v 0.144957 1.910000 0.159957
v 0.000000 1.910000 0.220000
v -0.144957 1.910000 0.159957
v -0.205000 1.910000 0.015000
v -0.144957 1.910000 -0.129957
v -0.000000 1.910000 -0.190000
v 0.144957 1.910000 -0.129957
v 0.140000 1.970000 0.015000
v 0.098995 1.970000 0.113995
v 0.000000 1.970000 0.155000
v -0.098995 1.970000 0.113995
v -0.140000 1.970000 0.015000
v -0.098995 1.970000 -0.083995
v -0.000000 1.970000 -0.125000
v 0.098995 1.970000 -0.083995
v -0.190000 1.737500 0.177500
v 0.190000 1.737500 0.177500
v 0.190000 1.802500 0.177500
v -0.190000 1.802500 0.177500
v -0.190000 1.737500 0.252500
v 0.190000 1.737500 0.252500
v 0.190000 1.802500 0.252500
v -0.190000 1.802500 0.252500
vn -0.0000 -0.0000 -1.0000
vn -0.0000 -0.0000 1.0000
vn -0.0000 -1.0000 -0.0000
vn 1.0000 -0.0000 -0.0000
vn -0.0000 1.0000 -0.0000
vn -1.0000 -0.0000 -0.0000
vn 0.9219 0.0658 0.3819
vn 0.3819 0.0658 0.9219
vn -0.3819 0.0658 0.9219
vn -0.9219 0.0658 0.3819
vn -0.9219 0.0658 -0.3819
vn -0.3819 0.0658 -0.9219
vn 0.3819 0.0658 -0.9219
vn 0.9219 0.0658 -0.3819
vn 0.6530 0.7074 0.2705
vn 0.2705 0.7074 0.6530
vn -0.2705 0.7074 0.6530
vn -0.6530 0.7074 0.2705
vn -0.6530 0.7074 -0.2705
vn -0.2705 0.7074 -0.6530
vn 0.2705 0.7074 -0.6530
vn 0.6530 0.7074 -0.2705
vt 0.375000 0.875000
vt 0.625000 0.375000
vt 0.875000 0.375000
vt 0.875000 0.125000
vt 0.125000 0.125000
vt 0.375000 0.125000
vt 0.625000 0.125000
s 0
usemtl MilitaryPeoplePalette
f 123/9/7 121/9/7 124/9/7
f 126/9/8 128/9/8 125/9/8
f 122/9/9 125/9/9 121/9/9
f 123/9/10 126/9/10 122/9/10
f 124/9/11 127/9/11 123/9/11
f 121/9/12 128/9/12 124/9/12
f 131/10/7 129/10/7 132/10/7
f 134/10/8 136/10/8 133/10/8
f 130/10/9 133/10/9 129/10/9
f 131/10/10 134/10/10 130/10/10
f 132/10/11 135/10/11 131/10/11
f 129/10/12 136/10/12 132/10/12
f 139/11/7 137/11/7 140/11/7
f 142/11/8 144/11/8 141/11/8
f 138/11/9 141/11/9 137/11/9
f 139/11/10 142/11/10 138/11/10
f 140/11/11 143/11/11 139/11/11
f 137/11/12 144/11/12 140/11/12
f 147/11/7 145/11/7 148/11/7
f 150/11/8 152/11/8 149/11/8
f 146/11/9 149/11/9 145/11/9
f 147/11/10 150/11/10 146/11/10
f 148/11/11 151/11/11 147/11/11
f 145/11/12 152/11/12 148/11/12
f 155/12/7 153/12/7 156/12/7
f 158/12/8 160/12/8 157/12/8
f 154/12/9 157/12/9 153/12/9
f 155/12/10 158/12/10 154/12/10
f 156/12/11 159/12/11 155/12/11
f 153/12/12 160/12/12 156/12/12
f 163/9/7 161/9/7 164/9/7
f 166/9/8 168/9/8 165/9/8
f 162/9/9 165/9/9 161/9/9
f 163/9/10 166/9/10 162/9/10
f 164/9/11 167/9/11 163/9/11
f 161/9/12 168/9/12 164/9/12
f 174/13/9 175/13/9 171/13/9
f 177/13/13 170/13/13 169/13/13
f 178/13/14 171/13/14 170/13/14
f 179/13/15 172/13/15 171/13/15
f 180/13/16 173/13/16 172/13/16
f 181/13/17 174/13/17 173/13/17
f 182/13/18 175/13/18 174/13/18
f 183/13/19 176/13/19 175/13/19
f 184/13/20 169/13/20 176/13/20
f 185/13/21 178/13/21 177/13/21
f 186/13/22 179/13/22 178/13/22
f 187/13/23 180/13/23 179/13/23
f 188/13/24 181/13/24 180/13/24
f 189/13/25 182/13/25 181/13/25
f 190/13/26 183/13/26 182/13/26
f 191/13/27 184/13/27 183/13/27
f 192/13/28 177/13/28 184/13/28
f 190/14/11 188/14/11 186/14/11
f 195/15/7 193/15/7 196/15/7
f 198/15/8 200/15/8 197/15/8
f 194/15/9 197/15/9 193/15/9
f 195/15/10 198/15/10 194/15/10
f 196/15/11 199/15/11 195/15/11
f 193/15/12 200/15/12 196/15/12
f 123/9/7 122/9/7 121/9/7
f 126/9/8 127/9/8 128/9/8
f 122/9/9 126/9/9 125/9/9
f 123/9/10 127/9/10 126/9/10
f 124/9/11 128/9/11 127/9/11
f 121/9/12 125/9/12 128/9/12
f 131/10/7 130/10/7 129/10/7
f 134/10/8 135/10/8 136/10/8
f 130/10/9 134/10/9 133/10/9
f 131/10/10 135/10/10 134/10/10
f 132/10/11 136/10/11 135/10/11
f 129/10/12 133/10/12 136/10/12
f 139/11/7 138/11/7 137/11/7
f 142/11/8 143/11/8 144/11/8
f 138/11/9 142/11/9 141/11/9
f 139/11/10 143/11/10 142/11/10
f 140/11/11 144/11/11 143/11/11
f 137/11/12 141/11/12 144/11/12
f 147/11/7 146/11/7 145/11/7
f 150/11/8 151/11/8 152/11/8
f 146/11/9 150/11/9 149/11/9
f 147/11/10 151/11/10 150/11/10
f 148/11/11 152/11/11 151/11/11
f 145/11/12 149/11/12 152/11/12
f 155/12/7 154/12/7 153/12/7
f 158/12/8 159/12/8 160/12/8
f 154/12/9 158/12/9 157/12/9
f 155/12/10 159/12/10 158/12/10
f 156/12/11 160/12/11 159/12/11
f 153/12/12 157/12/12 160/12/12
f 163/9/7 162/9/7 161/9/7
f 166/9/8 167/9/8 168/9/8
f 162/9/9 166/9/9 165/9/9
f 163/9/10 167/9/10 166/9/10
f 164/9/11 168/9/11 167/9/11
f 161/9/12 165/9/12 168/9/12
f 175/13/9 176/13/9 169/13/9
f 169/13/9 170/13/9 175/13/9
f 170/13/9 171/13/9 175/13/9
f 171/13/9 172/13/9 173/13/9
f 173/13/9 174/13/9 171/13/9
f 177/13/13 178/13/13 170/13/13
f 178/13/14 179/13/14 171/13/14
f 179/13/15 180/13/15 172/13/15
f 180/13/16 181/13/16 173/13/16
f 181/13/17 182/13/17 174/13/17
f 182/13/18 183/13/18 175/13/18
f 183/13/19 184/13/19 176/13/19
f 184/13/20 177/13/20 169/13/20
f 185/13/21 186/13/21 178/13/21
f 186/13/22 187/13/22 179/13/22
f 187/13/23 188/13/23 180/13/23
f 188/13/24 189/13/24 181/13/24
f 189/13/25 190/13/25 182/13/25
f 190/13/26 191/13/26 183/13/26
f 191/13/27 192/13/27 184/13/27
f 192/13/28 185/13/28 177/13/28
f 186/14/11 185/14/11 192/14/11
f 192/14/11 191/14/11 190/14/11
f 190/14/11 189/14/11 188/14/11
f 188/14/11 187/14/11 186/14/11
f 186/14/11 192/14/11 190/14/11
f 195/15/7 194/15/7 193/15/7
f 198/15/8 199/15/8 200/15/8
f 194/15/9 198/15/9 197/15/9
f 195/15/10 199/15/10 198/15/10
f 196/15/11 200/15/11 199/15/11
f 193/15/12 197/15/12 200/15/12
o BOMBER_LEG_L
v -0.260000 0.275000 -0.095000
v -0.080000 0.275000 -0.095000
v -0.080000 0.745000 -0.095000
v -0.260000 0.745000 -0.095000
v -0.260000 0.275000 0.095000
v -0.080000 0.275000 0.095000
v -0.080000 0.745000 0.095000
v -0.260000 0.745000 0.095000
v -0.265000 0.410000 0.084500
v -0.075000 0.410000 0.084500
v -0.075000 0.570000 0.084500
v -0.265000 0.570000 0.084500
v -0.265000 0.410000 0.139500
v -0.075000 0.410000 0.139500
v -0.075000 0.570000 0.139500
v -0.265000 0.570000 0.139500
v -0.280000 0.190000 -0.120000
v -0.060000 0.190000 -0.120000
v -0.060000 0.350000 -0.120000
v -0.280000 0.350000 -0.120000
v -0.280000 0.190000 0.190000
v -0.060000 0.190000 0.190000
v -0.060000 0.350000 0.190000
v -0.280000 0.350000 0.190000
v -0.287500 0.162500 -0.152000
v -0.052500 0.162500 -0.152000
v -0.052500 0.207500 -0.152000
v -0.287500 0.207500 -0.152000
v -0.287500 0.162500 0.188000
v -0.052500 0.162500 0.188000
v -0.052500 0.207500 0.188000
v -0.287500 0.207500 0.188000
v -0.272500 0.675000 -0.102500
v -0.067500 0.675000 -0.102500
v -0.067500 0.755000 -0.102500
v -0.272500 0.755000 -0.102500
v -0.272500 0.675000 0.102500
v -0.067500 0.675000 0.102500
v -0.067500 0.755000 0.102500
v -0.272500 0.755000 0.102500
vn -0.0000 -0.0000 -1.0000
vn -0.0000 -0.0000 1.0000
vn -0.0000 -1.0000 -0.0000
vn 1.0000 -0.0000 -0.0000
vn -0.0000 1.0000 -0.0000
vn -1.0000 -0.0000 -0.0000
vt 0.625000 0.125000
vt 0.875000 0.125000
vt 0.125000 0.375000
vt 0.625000 0.875000
vt 0.375000 0.125000
s 0
usemtl MilitaryPeoplePalette
f 203/16/29 201/16/29 204/16/29
f 206/16/30 208/16/30 205/16/30
f 202/16/31 205/16/31 201/16/31
f 203/16/32 206/16/32 202/16/32
f 204/16/33 207/16/33 203/16/33
f 201/16/34 208/16/34 204/16/34
f 211/17/29 209/17/29 212/17/29
f 214/17/30 216/17/30 213/17/30
f 210/17/31 213/17/31 209/17/31
f 211/17/32 214/17/32 210/17/32
f 212/17/33 215/17/33 211/17/33
f 209/17/34 216/17/34 212/17/34
f 219/18/29 217/18/29 220/18/29
f 222/18/30 224/18/30 221/18/30
f 218/18/31 221/18/31 217/18/31
f 219/18/32 222/18/32 218/18/32
f 220/18/33 223/18/33 219/18/33
f 217/18/34 224/18/34 220/18/34
f 227/19/29 225/19/29 228/19/29
f 230/19/30 232/19/30 229/19/30
f 226/19/31 229/19/31 225/19/31
f 227/19/32 230/19/32 226/19/32
f 228/19/33 231/19/33 227/19/33
f 225/19/34 232/19/34 228/19/34
f 235/20/29 233/20/29 236/20/29
f 238/20/30 240/20/30 237/20/30
f 234/20/31 237/20/31 233/20/31
f 235/20/32 238/20/32 234/20/32
f 236/20/33 239/20/33 235/20/33
f 233/20/34 240/20/34 236/20/34
f 203/16/29 202/16/29 201/16/29
f 206/16/30 207/16/30 208/16/30
f 202/16/31 206/16/31 205/16/31
f 203/16/32 207/16/32 206/16/32
f 204/16/33 208/16/33 207/16/33
f 201/16/34 205/16/34 208/16/34
f 211/17/29 210/17/29 209/17/29
f 214/17/30 215/17/30 216/17/30
f 210/17/31 214/17/31 213/17/31
f 211/17/32 215/17/32 214/17/32
f 212/17/33 216/17/33 215/17/33
f 209/17/34 213/17/34 216/17/34
f 219/18/29 218/18/29 217/18/29
f 222/18/30 223/18/30 224/18/30
f 218/18/31 222/18/31 221/18/31
f 219/18/32 223/18/32 222/18/32
f 220/18/33 224/18/33 223/18/33
f 217/18/34 221/18/34 224/18/34
f 227/19/29 226/19/29 225/19/29
f 230/19/30 231/19/30 232/19/30
f 226/19/31 230/19/31 229/19/31
f 227/19/32 231/19/32 230/19/32
f 228/19/33 232/19/33 231/19/33
f 225/19/34 229/19/34 232/19/34
f 235/20/29 234/20/29 233/20/29
f 238/20/30 239/20/30 240/20/30
f 234/20/31 238/20/31 237/20/31
f 235/20/32 239/20/32 238/20/32
f 236/20/33 240/20/33 239/20/33
f 233/20/34 237/20/34 240/20/34
o BOMBER_LEG_R
v 0.080000 0.275000 -0.095000
v 0.260000 0.275000 -0.095000
v 0.260000 0.745000 -0.095000
v 0.080000 0.745000 -0.095000
v 0.080000 0.275000 0.095000
v 0.260000 0.275000 0.095000
v 0.260000 0.745000 0.095000
v 0.080000 0.745000 0.095000
v 0.075000 0.410000 0.084500
v 0.265000 0.410000 0.084500
v 0.265000 0.570000 0.084500
v 0.075000 0.570000 0.084500
v 0.075000 0.410000 0.139500
v 0.265000 0.410000 0.139500
v 0.265000 0.570000 0.139500
v 0.075000 0.570000 0.139500
v 0.060000 0.190000 -0.120000
v 0.280000 0.190000 -0.120000
v 0.280000 0.350000 -0.120000
v 0.060000 0.350000 -0.120000
v 0.060000 0.190000 0.190000
v 0.280000 0.190000 0.190000
v 0.280000 0.350000 0.190000
v 0.060000 0.350000 0.190000
v 0.052500 0.162500 -0.152000
v 0.287500 0.162500 -0.152000
v 0.287500 0.207500 -0.152000
v 0.052500 0.207500 -0.152000
v 0.052500 0.162500 0.188000
v 0.287500 0.162500 0.188000
v 0.287500 0.207500 0.188000
v 0.052500 0.207500 0.188000
v 0.067500 0.675000 -0.102500
v 0.272500 0.675000 -0.102500
v 0.272500 0.755000 -0.102500
v 0.067500 0.755000 -0.102500
v 0.067500 0.675000 0.102500
v 0.272500 0.675000 0.102500
v 0.272500 0.755000 0.102500
v 0.067500 0.755000 0.102500
vn -0.0000 -0.0000 -1.0000
vn -0.0000 -0.0000 1.0000
vn -0.0000 -1.0000 -0.0000
vn 1.0000 -0.0000 -0.0000
vn -0.0000 1.0000 -0.0000
vn -1.0000 -0.0000 -0.0000
vt 0.625000 0.125000
vt 0.875000 0.125000
vt 0.125000 0.375000
vt 0.625000 0.875000
vt 0.375000 0.125000
s 0
usemtl MilitaryPeoplePalette
f 243/21/35 241/21/35 244/21/35
f 246/21/36 248/21/36 245/21/36
f 242/21/37 245/21/37 241/21/37
f 243/21/38 246/21/38 242/21/38
f 244/21/39 247/21/39 243/21/39
f 241/21/40 248/21/40 244/21/40
f 251/22/35 249/22/35 252/22/35
f 254/22/36 256/22/36 253/22/36
f 250/22/37 253/22/37 249/22/37
f 251/22/38 254/22/38 250/22/38
f 252/22/39 255/22/39 251/22/39
f 249/22/40 256/22/40 252/22/40
f 259/23/35 257/23/35 260/23/35
f 262/23/36 264/23/36 261/23/36
f 258/23/37 261/23/37 257/23/37
f 259/23/38 262/23/38 258/23/38
f 260/23/39 263/23/39 259/23/39
f 257/23/40 264/23/40 260/23/40
f 267/24/35 265/24/35 268/24/35
f 270/24/36 272/24/36 269/24/36
f 266/24/37 269/24/37 265/24/37
f 267/24/38 270/24/38 266/24/38
f 268/24/39 271/24/39 267/24/39
f 265/24/40 272/24/40 268/24/40
f 275/25/35 273/25/35 276/25/35
f 278/25/36 280/25/36 277/25/36
f 274/25/37 277/25/37 273/25/37
f 275/25/38 278/25/38 274/25/38
f 276/25/39 279/25/39 275/25/39
f 273/25/40 280/25/40 276/25/40
f 243/21/35 242/21/35 241/21/35
f 246/21/36 247/21/36 248/21/36
f 242/21/37 246/21/37 245/21/37
f 243/21/38 247/21/38 246/21/38
f 244/21/39 248/21/39 247/21/39
f 241/21/40 245/21/40 248/21/40
f 251/22/35 250/22/35 249/22/35
f 254/22/36 255/22/36 256/22/36
f 250/22/37 254/22/37 253/22/37
f 251/22/38 255/22/38 254/22/38
f 252/22/39 256/22/39 255/22/39
f 249/22/40 253/22/40 256/22/40
f 259/23/35 258/23/35 257/23/35
f 262/23/36 263/23/36 264/23/36
f 258/23/37 262/23/37 261/23/37
f 259/23/38 263/23/38 262/23/38
f 260/23/39 264/23/39 263/23/39
f 257/23/40 261/23/40 264/23/40
f 267/24/35 266/24/35 265/24/35
f 270/24/36 271/24/36 272/24/36
f 266/24/37 270/24/37 269/24/37
f 267/24/38 271/24/38 270/24/38
f 268/24/39 272/24/39 271/24/39
f 265/24/40 269/24/40 272/24/40
f 275/25/35 274/25/35 273/25/35
f 278/25/36 279/25/36 280/25/36
f 274/25/37 278/25/37 277/25/37
f 275/25/38 279/25/38 278/25/38
f 276/25/39 280/25/39 279/25/39
f 273/25/40 277/25/40 280/25/40
o BOMBER_ARM_L
v -0.514026 0.965210 -0.080000
v -0.354826 0.949236 -0.080000
v -0.309900 1.396988 -0.080000
v -0.469101 1.412962 -0.080000
v -0.514026 0.965210 0.080000
v -0.354826 0.949236 0.080000
v -0.309900 1.396988 0.080000
v -0.469101 1.412962 0.080000
v -0.496530 1.214710 0.077500
v -0.322405 1.197239 0.077500
v -0.307430 1.346489 0.077500
v -0.481555 1.363960 0.077500
v -0.496530 1.214710 0.112500
v -0.322405 1.197239 0.112500
v -0.307430 1.346489 0.112500
v -0.481555 1.363960 0.112500
v -0.510074 0.879387 -0.067500
v -0.375749 0.865909 -0.067500
v -0.363769 0.985309 -0.067500
v -0.498094 0.998787 -0.067500
v -0.510074 0.879387 0.067500
v -0.375749 0.865909 0.067500
v -0.363769 0.985309 0.067500
v -0.498094 0.998787 0.067500
v -0.491015 1.344809 -0.095000
v -0.301964 1.325840 -0.095000
v -0.294975 1.395491 -0.095000
v -0.484026 1.414459 -0.095000
v -0.491015 1.344809 0.095000
v -0.301964 1.325840 0.095000
v -0.294975 1.395491 0.095000
v -0.484026 1.414459 0.095000
vn -0.0000 -0.0000 -1.0000
vn -0.0000 -0.0000 1.0000
vn -0.0998 -0.9950 -0.0000
vn 0.9950 -0.0998 -0.0000
vn 0.0998 0.9950 -0.0000
vn -0.9950 0.0998 -0.0000
vt 0.125000 0.125000
vt 0.375000 0.125000
vt 0.375000 0.875000
s 0
usemtl MilitaryPeoplePalette
f 283/26/41 281/26/41 284/26/41
f 286/26/42 288/26/42 285/26/42
f 282/26/43 285/26/43 281/26/43
f 283/26/44 286/26/44 282/26/44
f 284/26/45 287/26/45 283/26/45
f 281/26/46 288/26/46 284/26/46
f 291/27/41 289/27/41 292/27/41
f 294/27/42 296/27/42 293/27/42
f 290/27/43 293/27/43 289/27/43
f 291/27/44 294/27/44 290/27/44
f 292/27/45 295/27/45 291/27/45
f 289/27/46 296/27/46 292/27/46
f 299/28/41 297/28/41 300/28/41
f 302/28/42 304/28/42 301/28/42
f 298/28/43 301/28/43 297/28/43
f 299/28/44 302/28/44 298/28/44
f 300/28/45 303/28/45 299/28/45
f 297/28/46 304/28/46 300/28/46
f 307/27/41 305/27/41 308/27/41
f 310/27/42 312/27/42 309/27/42
f 306/27/43 309/27/43 305/27/43
f 307/27/44 310/27/44 306/27/44
f 308/27/45 311/27/45 307/27/45
f 305/27/46 312/27/46 308/27/46
f 283/26/41 282/26/41 281/26/41
f 286/26/42 287/26/42 288/26/42
f 282/26/43 286/26/43 285/26/43
f 283/26/44 287/26/44 286/26/44
f 284/26/45 288/26/45 287/26/45
f 281/26/46 285/26/46 288/26/46
f 291/27/41 290/27/41 289/27/41
f 294/27/42 295/27/42 296/27/42
f 290/27/43 294/27/43 293/27/43
f 291/27/44 295/27/44 294/27/44
f 292/27/45 296/27/45 295/27/45
f 289/27/46 293/27/46 296/27/46
f 299/28/41 298/28/41 297/28/41
f 302/28/42 303/28/42 304/28/42
f 298/28/43 302/28/43 301/28/43
f 299/28/44 303/28/44 302/28/44
f 300/28/45 304/28/45 303/28/45
f 297/28/46 301/28/46 304/28/46
f 307/27/41 306/27/41 305/27/41
f 310/27/42 311/27/42 312/27/42
f 306/27/43 310/27/43 309/27/43
f 307/27/44 311/27/44 310/27/44
f 308/27/45 312/27/45 311/27/45
f 305/27/46 309/27/46 312/27/46
o BOMBER_ARM_R
v 0.354826 0.949236 -0.080000
v 0.514026 0.965210 -0.080000
v 0.469101 1.412962 -0.080000
v 0.309900 1.396988 -0.080000
v 0.354826 0.949236 0.080000
v 0.514026 0.965210 0.080000
v 0.469101 1.412962 0.080000
v 0.309900 1.396988 0.080000
v 0.322405 1.197239 0.077500
v 0.496530 1.214710 0.077500
v 0.481555 1.363960 0.077500
v 0.307430 1.346489 0.077500
v 0.322405 1.197239 0.112500
v 0.496530 1.214710 0.112500
v 0.481555 1.363960 0.112500
v 0.307430 1.346489 0.112500
v 0.375749 0.865909 -0.067500
v 0.510074 0.879387 -0.067500
v 0.498094 0.998787 -0.067500
v 0.363769 0.985309 -0.067500
v 0.375749 0.865909 0.067500
v 0.510074 0.879387 0.067500
v 0.498094 0.998787 0.067500
v 0.363769 0.985309 0.067500
v 0.301964 1.325840 -0.095000
v 0.491015 1.344809 -0.095000
v 0.484026 1.414459 -0.095000
v 0.294975 1.395491 -0.095000
v 0.301964 1.325840 0.095000
v 0.491015 1.344809 0.095000
v 0.484026 1.414459 0.095000
v 0.294975 1.395491 0.095000
vn -0.0000 -0.0000 -1.0000
vn -0.0000 -0.0000 1.0000
vn 0.0998 -0.9950 -0.0000
vn 0.9950 0.0998 -0.0000
vn -0.0998 0.9950 -0.0000
vn -0.9950 -0.0998 -0.0000
vt 0.125000 0.125000
vt 0.375000 0.125000
vt 0.375000 0.875000
s 0
usemtl MilitaryPeoplePalette
f 315/29/47 313/29/47 316/29/47
f 318/29/48 320/29/48 317/29/48
f 314/29/49 317/29/49 313/29/49
f 315/29/50 318/29/50 314/29/50
f 316/29/51 319/29/51 315/29/51
f 313/29/52 320/29/52 316/29/52
f 323/30/47 321/30/47 324/30/47
f 326/30/48 328/30/48 325/30/48
f 322/30/49 325/30/49 321/30/49
f 323/30/50 326/30/50 322/30/50
f 324/30/51 327/30/51 323/30/51
f 321/30/52 328/30/52 324/30/52
f 331/31/47 329/31/47 332/31/47
f 334/31/48 336/31/48 333/31/48
f 330/31/49 333/31/49 329/31/49
f 331/31/50 334/31/50 330/31/50
f 332/31/51 335/31/51 331/31/51
f 329/31/52 336/31/52 332/31/52
f 339/30/47 337/30/47 340/30/47
f 342/30/48 344/30/48 341/30/48
f 338/30/49 341/30/49 337/30/49
f 339/30/50 342/30/50 338/30/50
f 340/30/51 343/30/51 339/30/51
f 337/30/52 344/30/52 340/30/52
f 315/29/47 314/29/47 313/29/47
f 318/29/48 319/29/48 320/29/48
f 314/29/49 318/29/49 317/29/49
f 315/29/50 319/29/50 318/29/50
f 316/29/51 320/29/51 319/29/51
f 313/29/52 317/29/52 320/29/52
f 323/30/47 322/30/47 321/30/47
f 326/30/48 327/30/48 328/30/48
f 322/30/49 326/30/49 325/30/49
f 323/30/50 327/30/50 326/30/50
f 324/30/51 328/30/51 327/30/51
f 321/30/52 325/30/52 328/30/52
f 331/31/47 330/31/47 329/31/47
f 334/31/48 335/31/48 336/31/48
f 330/31/49 334/31/49 333/31/49
f 331/31/50 335/31/50 334/31/50
f 332/31/51 336/31/51 335/31/51
f 329/31/52 333/31/52 336/31/52
f 339/30/47 338/30/47 337/30/47
f 342/30/48 343/30/48 344/30/48
f 338/30/49 342/30/49 341/30/49
f 339/30/50 343/30/50 342/30/50
f 340/30/51 344/30/51 343/30/51
f 337/30/52 341/30/52 344/30/52
o BOMBER_WEAPON
v -0.229307 0.897582 0.175000
v 0.189350 0.864017 0.175000
v 0.216521 1.202930 0.175000
v -0.202136 1.236494 0.175000
v -0.229307 0.897582 0.425000
v 0.189350 0.864017 0.425000
v 0.216521 1.202930 0.425000
v -0.202136 1.236494 0.425000
v -0.066012 0.994843 0.410000
v 0.043636 0.986052 0.410000
v 0.053226 1.105669 0.410000
v -0.056422 1.114459 0.410000
v -0.066012 0.994843 0.510000
v 0.043636 0.986052 0.510000
v 0.053226 1.105669 0.510000
v -0.056422 1.114459 0.510000
v -0.043846 1.208756 0.250000
v 0.055834 1.200764 0.250000
v 0.067821 1.350285 0.250000
v -0.031859 1.358276 0.250000
v -0.043846 1.208756 0.350000
v 0.055834 1.200764 0.350000
v 0.067821 1.350285 0.350000
v -0.031859 1.358276 0.350000
vn -0.0000 -0.0000 -1.0000
vn -0.0000 -0.0000 1.0000
vn -0.0799 -0.9968 -0.0000
vn 0.9968 -0.0799 -0.0000
vn 0.0799 0.9968 -0.0000
vn -0.9968 0.0799 -0.0000
vt 0.625000 0.625000
vt 0.875000 0.625000
vt 0.875000 0.125000
s 0
usemtl MilitaryPeoplePalette
f 347/32/53 345/32/53 348/32/53
f 350/32/54 352/32/54 349/32/54
f 346/32/55 349/32/55 345/32/55
f 347/32/56 350/32/56 346/32/56
f 348/32/57 351/32/57 347/32/57
f 345/32/58 352/32/58 348/32/58
f 355/33/53 353/33/53 356/33/53
f 358/33/54 360/33/54 357/33/54
f 354/33/55 357/33/55 353/33/55
f 355/33/56 358/33/56 354/33/56
f 356/33/57 359/33/57 355/33/57
f 353/33/58 360/33/58 356/33/58
f 363/34/53 361/34/53 364/34/53
f 366/34/54 368/34/54 365/34/54
f 362/34/55 365/34/55 361/34/55
f 363/34/56 366/34/56 362/34/56
f 364/34/57 367/34/57 363/34/57
f 361/34/58 368/34/58 364/34/58
f 347/32/53 346/32/53 345/32/53
f 350/32/54 351/32/54 352/32/54
f 346/32/55 350/32/55 349/32/55
f 347/32/56 351/32/56 350/32/56
f 348/32/57 352/32/57 351/32/57
f 345/32/58 349/32/58 352/32/58
f 355/33/53 354/33/53 353/33/53
f 358/33/54 359/33/54 360/33/54
f 354/33/55 358/33/55 357/33/55
f 355/33/56 359/33/56 358/33/56
f 356/33/57 360/33/57 359/33/57
f 353/33/58 357/33/58 360/33/58
f 363/34/53 362/34/53 361/34/53
f 366/34/54 367/34/54 368/34/54
f 362/34/55 366/34/55 365/34/55
f 363/34/56 367/34/56 366/34/56
f 364/34/57 368/34/57 367/34/57
f 361/34/58 365/34/58 368/34/58
