# Blender 5.2.1 LTS
# www.blender.org
mtllib birchTrees.mtl
o birchTrees
v 0.000000 0.000000 -0.250000
v 0.000000 6.000000 -0.140000
v 0.176777 0.000000 -0.176777
v 0.098995 6.000000 -0.098995
v 0.250000 0.000000 0.000000
v 0.140000 6.000000 0.000000
v 0.176777 0.000000 0.176777
v 0.098995 6.000000 0.098995
v 0.000000 0.000000 0.250000
v 0.000000 6.000000 0.140000
v -0.176777 0.000000 0.176777
v -0.098995 6.000000 0.098995
v -0.250000 0.000000 0.000000
v -0.140000 6.000000 0.000000
v -0.176777 0.000000 -0.176777
v -0.098995 6.000000 -0.098995
v -1.000000 7.800000 0.000000
v -1.000000 7.518653 -0.950000
v -1.000000 6.750000 -1.645448
v -1.000000 5.700000 -1.900000
v -1.000000 4.650000 -1.645448
v -1.000000 3.881347 -0.950000
v -1.000000 3.600000 0.000000
v -0.525000 7.518653 -0.822724
v -0.177276 6.750000 -1.425000
v -0.050000 5.700000 -1.645448
v -0.177276 4.650000 -1.425000
v -0.525000 3.881347 -0.822724
v -0.177276 7.518653 -0.475000
v 0.425000 6.750000 -0.822724
v 0.645448 5.700000 -0.950000
v 0.425000 4.650000 -0.822724
v -0.177276 3.881347 -0.475000
v -0.050000 7.518653 0.000000
v 0.645448 6.750000 0.000000
v 0.900000 5.700000 0.000000
v 0.645448 4.650000 0.000000
v -0.050000 3.881347 0.000000
v -0.177276 7.518653 0.475000
v 0.425000 6.750000 0.822724
v 0.645448 5.700000 0.950000
v 0.425000 4.650000 0.822724
v -0.177276 3.881347 0.475000
v -0.525000 7.518653 0.822724
v -0.177276 6.750000 1.425000
v -0.050000 5.700000 1.645448
v -0.177276 4.650000 1.425000
v -0.525000 3.881347 0.822724
v -1.000000 7.518653 0.950000
v -1.000000 6.750000 1.645448
v -1.000000 5.700000 1.900000
v -1.000000 4.650000 1.645448
v -1.000000 3.881347 0.950000
v -1.475000 7.518653 0.822724
v -1.822724 6.750000 1.425000
v -1.950000 5.700000 1.645448
v -1.822724 4.650000 1.425000
v -1.475000 3.881347 0.822724
v -1.822724 7.518653 0.475000
v -2.425000 6.750000 0.822724
v -2.645448 5.700000 0.950000
v -2.425000 4.650000 0.822724
v -1.822724 3.881347 0.475000
v -1.950000 7.518653 0.000000
v -2.645448 6.750000 -0.000000
v -2.900000 5.700000 0.000000
v -2.645448 4.650000 -0.000000
v -1.950000 3.881347 0.000000
v -1.822724 7.518653 -0.475000
v -2.425000 6.750000 -0.822724
v -2.645448 5.700000 -0.950000
v -2.425000 4.650000 -0.822724
v -1.822724 3.881347 -0.475000
v -1.475000 7.518653 -0.822724
v -1.822724 6.750000 -1.425000
v -1.950000 5.700000 -1.645448
v -1.822724 4.650000 -1.425000
v -1.475000 3.881347 -0.822724
v 1.000000 8.100000 -0.250000
v 1.000000 7.832051 -1.175000
v 1.000000 7.100000 -1.852147
v 1.000000 6.100000 -2.100000
v 1.000000 5.100000 -1.852147
v 1.000000 4.367949 -1.175000
v 1.000000 4.100000 -0.250000
v 1.462500 7.832051 -1.051074
v 1.801074 7.100000 -1.637500
v 1.925000 6.100000 -1.852147
v 1.801074 5.100000 -1.637500
v 1.462500 4.367949 -1.051074
v 1.801074 7.832051 -0.712500
v 2.387500 7.100000 -1.051073
v 2.602147 6.100000 -1.175000
v 2.387500 5.100000 -1.051073
v 1.801074 4.367949 -0.712500
v 1.925000 7.832051 -0.250000
v 2.602147 7.100000 -0.250000
v 2.850000 6.100000 -0.250000
v 2.602147 5.100000 -0.250000
v 1.925000 4.367949 -0.250000
v 1.801074 7.832051 0.212500
v 2.387500 7.100000 0.551073
v 2.602147 6.100000 0.675000
v 2.387500 5.100000 0.551073
v 1.801074 4.367949 0.212500
v 1.462500 7.832051 0.551073
v 1.801073 7.100000 1.137500
v 1.925000 6.100000 1.352147
v 1.801073 5.100000 1.137500
v 1.462500 4.367949 0.551073
v 1.000000 7.832051 0.675000
v 1.000000 7.100000 1.352147
v 1.000000 6.100000 1.600000
v 1.000000 5.100000 1.352147
v 1.000000 4.367949 0.675000
v 0.537500 7.832051 0.551073
v 0.198926 7.100000 1.137500
v 0.075000 6.100000 1.352147
v 0.198926 5.100000 1.137500
v 0.537500 4.367949 0.551073
v 0.198927 7.832051 0.212500
v -0.387500 7.100000 0.551073
v -0.602147 6.100000 0.675000
v -0.387500 5.100000 0.551073
v 0.198927 4.367949 0.212500
v 0.075000 7.832051 -0.250000
v -0.602147 7.100000 -0.250000
v -0.850000 6.100000 -0.250000
v -0.602147 5.100000 -0.250000
v 0.075000 4.367949 -0.250000
v 0.198927 7.832051 -0.712500
v -0.387500 7.100000 -1.051074
v -0.602147 6.100000 -1.175000
v -0.387500 5.100000 -1.051074
v 0.198927 4.367949 -0.712500
v 0.537500 7.832051 -1.051074
v 0.198927 7.100000 -1.637500
v 0.075000 6.100000 -1.852147
v 0.198927 5.100000 -1.637500
v 0.537500 4.367949 -1.051074
v 0.000000 9.050000 0.000000
v 0.000000 8.808846 -0.850000
v 0.000000 8.150000 -1.472243
v 0.000000 7.250000 -1.700000
v 0.000000 6.350000 -1.472243
v 0.000000 5.691154 -0.850000
v 0.000000 5.450000 0.000000
v 0.425000 8.808846 -0.736122
v 0.736122 8.150000 -1.275000
v 0.850000 7.250000 -1.472243
v 0.736122 6.350000 -1.275000
v 0.425000 5.691154 -0.736122
v 0.736122 8.808846 -0.425000
v 1.275000 8.150000 -0.736122
v 1.472243 7.250000 -0.850000
v 1.275000 6.350000 -0.736122
v 0.736122 5.691154 -0.425000
v 0.850000 8.808846 0.000000
v 1.472243 8.150000 0.000000
v 1.700000 7.250000 0.000000
v 1.472243 6.350000 0.000000
v 0.850000 5.691154 0.000000
v 0.736122 8.808846 0.425000
v 1.275000 8.150000 0.736122
v 1.472243 7.250000 0.850000
v 1.275000 6.350000 0.736122
v 0.736122 5.691154 0.425000
v 0.425000 8.808846 0.736122
v 0.736121 8.150000 1.275000
v 0.850000 7.250000 1.472243
v 0.736121 6.350000 1.275000
v 0.425000 5.691154 0.736122
v 0.000000 8.808846 0.850000
v -0.000000 8.150000 1.472243
v 0.000000 7.250000 1.700000
v -0.000000 6.350000 1.472243
v 0.000000 5.691154 0.850000
v -0.425000 8.808846 0.736122
v -0.736122 8.150000 1.275000
v -0.850000 7.250000 1.472243
v -0.736122 6.350000 1.275000
v -0.425000 5.691154 0.736122
v -0.736122 8.808846 0.425000
v -1.275000 8.150000 0.736121
v -1.472243 7.250000 0.850000
v -1.275000 6.350000 0.736121
v -0.736122 5.691154 0.425000
v -0.850000 8.808846 0.000000
v -1.472243 8.150000 -0.000000
v -1.700000 7.250000 0.000000
v -1.472243 6.350000 -0.000000
v -0.850000 5.691154 0.000000
v -0.736122 8.808846 -0.425000
v -1.275000 8.150000 -0.736122
v -1.472243 7.250000 -0.850000
v -1.275000 6.350000 -0.736122
v -0.736122 5.691154 -0.425000
v -0.425000 8.808846 -0.736122
v -0.736121 8.150000 -1.275000
v -0.850000 7.250000 -1.472243
v -0.736121 6.350000 -1.275000
v -0.425000 5.691154 -0.736122
vn -0.0000 0.0183 -0.9998
vn 0.7070 0.0183 -0.7070
vn 0.9998 0.0183 -0.0000
vn 0.7070 0.0183 0.7070
vn -0.0000 0.0183 0.9998
vn -0.7070 0.0183 0.7070
vn -0.9998 0.0183 -0.0000
vn -0.0000 1.0000 -0.0000
vn -0.7070 0.0183 -0.7070
vn -0.0000 -1.0000 -0.0000
vn -0.0000 -0.0000 -1.0000
vn 0.4461 -0.4516 -0.7727
vn -0.0000 -0.4516 -0.8922
vn -0.0000 0.8263 -0.5633
vn 0.4461 0.4516 -0.7727
vn -0.0000 0.4516 -0.8922
vn -0.0000 -0.8263 -0.5633
vn 0.2816 -0.8263 -0.4878
vn 0.5000 -0.0000 -0.8660
vn 0.2816 0.8263 -0.4878
vn 0.4878 -0.8263 -0.2816
vn 0.8660 -0.0000 -0.5000
vn 0.4878 0.8263 -0.2816
vn 0.7727 -0.4516 -0.4461
vn 0.7727 0.4516 -0.4461
vn 0.5632 -0.8263 -0.0000
vn 1.0000 -0.0000 -0.0000
vn 0.5633 0.8263 -0.0000
vn 0.8922 -0.4516 -0.0000
vn 0.8922 0.4516 -0.0000
vn 0.4878 -0.8263 0.2816
vn 0.8660 -0.0000 0.5000
vn 0.4878 0.8263 0.2816
vn 0.7727 -0.4516 0.4461
vn 0.7727 0.4516 0.4461
vn 0.5000 -0.0000 0.8660
vn 0.2816 0.8263 0.4878
vn 0.2816 -0.8263 0.4878
vn 0.4461 -0.4516 0.7727
vn 0.4461 0.4516 0.7727
vn -0.0000 0.8263 0.5632
vn -0.0000 -0.8263 0.5632
vn -0.0000 -0.4516 0.8922
vn -0.0000 0.4516 0.8922
vn -0.0000 -0.0000 1.0000
vn -0.2816 -0.8263 0.4878
vn -0.4461 -0.4516 0.7727
vn -0.2816 0.8263 0.4878
vn -0.4461 0.4516 0.7727
vn -0.5000 -0.0000 0.8660
vn -0.4878 -0.8263 0.2816
vn -0.8660 -0.0000 0.5000
vn -0.7727 -0.4516 0.4461
vn -0.4878 0.8263 0.2816
vn -0.7727 0.4516 0.4461
vn -0.5632 -0.8263 -0.0000
vn -0.8922 -0.4516 -0.0000
vn -0.5633 0.8263 -0.0000
vn -0.8922 0.4516 -0.0000
vn -1.0000 -0.0000 -0.0000
vn -0.7727 -0.4516 -0.4461
vn -0.7727 0.4516 -0.4461
vn -0.4878 -0.8263 -0.2816
vn -0.8660 -0.0000 -0.5000
vn -0.4878 0.8263 -0.2816
vn -0.4461 0.4516 -0.7727
vn -0.2816 -0.8263 -0.4878
vn -0.5000 -0.0000 -0.8660
vn -0.2816 0.8263 -0.4878
vn -0.4461 -0.4516 -0.7727
vn 0.4444 -0.4584 -0.7697
vn -0.0000 -0.4584 -0.8888
vn -0.0000 0.4584 -0.8888
vn 0.2781 0.8311 -0.4816
vn 0.4444 0.4584 -0.7697
vn 0.2781 -0.8311 -0.4816
vn -0.0000 -0.8311 -0.5561
vn -0.0000 0.8311 -0.5561
vn 0.4816 -0.8311 -0.2781
vn 0.4816 0.8311 -0.2781
vn 0.7697 -0.4584 -0.4444
vn 0.7697 0.4584 -0.4444
vn 0.5561 -0.8311 -0.0000
vn 0.5561 0.8311 -0.0000
vn 0.8888 -0.4584 -0.0000
vn 0.8888 0.4584 -0.0000
vn 0.4816 -0.8311 0.2781
vn 0.4816 0.8311 0.2781
vn 0.7697 -0.4584 0.4444
vn 0.7697 0.4584 0.4444
vn 0.2781 0.8311 0.4816
vn 0.2781 -0.8311 0.4816
vn 0.4444 -0.4584 0.7697
vn 0.4444 0.4584 0.7697
vn -0.0000 0.8311 0.5561
vn -0.0000 -0.8311 0.5561
vn -0.0000 -0.4584 0.8888
vn -0.0000 0.4584 0.8888
vn -0.2781 -0.8311 0.4816
vn -0.4444 -0.4584 0.7697
vn -0.4444 0.4584 0.7697
vn -0.2781 0.8311 0.4816
vn -0.4816 -0.8311 0.2781
vn -0.7697 -0.4584 0.4444
vn -0.7697 0.4584 0.4444
vn -0.4816 0.8311 0.2781
vn -0.5561 -0.8311 -0.0000
vn -0.8888 -0.4584 -0.0000
vn -0.8888 0.4584 -0.0000
vn -0.5561 0.8311 -0.0000
vn -0.7697 -0.4584 -0.4444
vn -0.4816 0.8311 -0.2781
vn -0.7697 0.4584 -0.4444
vn -0.4816 -0.8311 -0.2781
vn -0.4444 0.4584 -0.7697
vn -0.4444 -0.4584 -0.7697
vn -0.2781 -0.8311 -0.4816
vn -0.2781 0.8311 -0.4816
vn 0.4427 -0.4647 -0.7668
vn -0.0000 -0.4647 -0.8854
vn -0.0000 0.4647 -0.8854
vn 0.2747 0.8356 -0.4758
vn 0.4427 0.4647 -0.7668
vn 0.2747 -0.8356 -0.4758
vn -0.0000 -0.8356 -0.5494
vn -0.0000 0.8356 -0.5494
vn 0.4758 -0.8356 -0.2747
vn 0.4758 0.8356 -0.2747
vn 0.7668 -0.4647 -0.4427
vn 0.7668 0.4647 -0.4427
vn 0.8854 -0.4647 -0.0000
vn 0.5494 -0.8356 -0.0000
vn 0.5494 0.8356 -0.0000
vn 0.8854 0.4647 -0.0000
vn 0.4758 -0.8356 0.2747
vn 0.4758 0.8356 0.2747
vn 0.7668 -0.4647 0.4427
vn 0.7668 0.4647 0.4427
vn 0.2747 0.8356 0.4758
vn 0.2747 -0.8356 0.4758
vn 0.4427 -0.4647 0.7668
vn 0.4427 0.4647 0.7668
vn -0.0000 0.8356 0.5494
vn -0.0000 -0.8356 0.5494
vn -0.0000 -0.4647 0.8854
vn -0.0000 0.4647 0.8854
vn -0.2747 -0.8356 0.4758
vn -0.4427 -0.4647 0.7668
vn -0.2747 0.8356 0.4758
vn -0.4427 0.4647 0.7668
vn -0.4758 -0.8356 0.2747
vn -0.7668 -0.4647 0.4427
vn -0.7668 0.4647 0.4427
vn -0.4758 0.8356 0.2747
vn -0.5494 -0.8356 -0.0000
vn -0.8854 -0.4647 -0.0000
vn -0.8854 0.4647 -0.0000
vn -0.5494 0.8356 -0.0000
vn -0.7668 -0.4647 -0.4427
vn -0.4758 0.8356 -0.2747
vn -0.7668 0.4647 -0.4427
vn -0.4758 -0.8356 -0.2747
vn -0.4427 0.4647 -0.7668
vn -0.2747 -0.8356 -0.4758
vn -0.2747 0.8356 -0.4758
vn -0.4427 -0.4647 -0.7668
vt 0.750000 0.250000
vt 0.750000 0.750000
s 1
usemtl TreeSolidPalette.001
f 2/1/1 3/1/2 1/1/1
f 4/1/2 5/1/3 3/1/2
f 6/1/3 7/1/4 5/1/3
f 8/1/4 9/1/5 7/1/4
f 10/1/5 11/1/6 9/1/5
f 12/1/6 13/1/7 11/1/6
s 0
f 14/1/8 10/1/8 6/1/8
s 1
f 14/1/7 15/1/9 13/1/7
f 16/1/9 1/1/1 15/1/9
s 0
f 7/1/10 11/1/10 15/1/10
s 1
f 20/2/11 27/2/12 21/2/13
f 18/2/14 25/2/15 19/2/16
f 22/2/17 27/2/12 28/2/18
f 19/2/16 26/2/19 20/2/11
f 18/2/14 17/2/8 24/2/20
f 23/2/10 22/2/17 28/2/18
f 27/2/12 33/2/21 28/2/18
f 25/2/15 31/2/22 26/2/19
f 24/2/20 17/2/8 29/2/23
f 23/2/10 28/2/18 33/2/21
f 26/2/19 32/2/24 27/2/12
f 24/2/20 30/2/25 25/2/15
f 32/2/24 38/2/26 33/2/21
f 30/2/25 36/2/27 31/2/22
f 29/2/23 17/2/8 34/2/28
f 23/2/10 33/2/21 38/2/26
f 31/2/22 37/2/29 32/2/24
f 30/2/25 34/2/28 35/2/30
f 37/2/29 43/2/31 38/2/26
f 35/2/30 41/2/32 36/2/27
f 34/2/28 17/2/8 39/2/33
f 23/2/10 38/2/26 43/2/31
f 36/2/27 42/2/34 37/2/29
f 34/2/28 40/2/35 35/2/30
f 40/2/35 46/2/36 41/2/32
f 39/2/33 17/2/8 44/2/37
f 23/2/10 43/2/31 48/2/38
f 41/2/32 47/2/39 42/2/34
f 39/2/33 45/2/40 40/2/35
f 42/2/34 48/2/38 43/2/31
f 44/2/37 17/2/8 49/2/41
f 23/2/10 48/2/38 53/2/42
f 46/2/36 52/2/43 47/2/39
f 44/2/37 50/2/44 45/2/40
f 47/2/39 53/2/42 48/2/38
f 45/2/40 51/2/45 46/2/36
f 23/2/10 53/2/42 58/2/46
f 51/2/45 57/2/47 52/2/43
f 50/2/44 54/2/48 55/2/49
f 52/2/43 58/2/46 53/2/42
f 50/2/44 56/2/50 51/2/45
f 49/2/41 17/2/8 54/2/48
f 23/2/10 58/2/46 63/2/51
f 57/2/47 61/2/52 62/2/53
f 55/2/49 59/2/54 60/2/55
f 57/2/47 63/2/51 58/2/46
f 55/2/49 61/2/52 56/2/50
f 54/2/48 17/2/8 59/2/54
f 23/2/10 63/2/51 68/2/56
f 61/2/52 67/2/57 62/2/53
f 60/2/55 64/2/58 65/2/59
f 62/2/53 68/2/56 63/2/51
f 60/2/55 66/2/60 61/2/52
f 59/2/54 17/2/8 64/2/58
f 66/2/60 72/2/61 67/2/57
f 64/2/58 70/2/62 65/2/59
f 67/2/57 73/2/63 68/2/56
f 65/2/59 71/2/64 66/2/60
f 64/2/58 17/2/8 69/2/65
f 23/2/10 68/2/56 73/2/63
f 69/2/65 75/2/66 70/2/62
f 72/2/61 78/2/67 73/2/63
f 70/2/62 76/2/68 71/2/64
f 69/2/65 17/2/8 74/2/69
f 23/2/10 73/2/63 78/2/67
f 71/2/64 77/2/70 72/2/61
f 77/2/70 22/2/17 78/2/67
f 75/2/66 20/2/11 76/2/68
f 74/2/69 17/2/8 18/2/14
f 23/2/10 78/2/67 22/2/17
f 76/2/68 21/2/13 77/2/70
f 75/2/66 18/2/14 19/2/16
f 82/2/11 89/2/71 83/2/72
f 81/2/73 86/2/74 87/2/75
f 83/2/72 90/2/76 84/2/77
f 81/2/73 88/2/19 82/2/11
f 80/2/78 79/2/8 86/2/74
f 85/2/10 84/2/77 90/2/76
f 89/2/71 95/2/79 90/2/76
f 87/2/75 93/2/22 88/2/19
f 86/2/74 79/2/8 91/2/80
f 85/2/10 90/2/76 95/2/79
f 89/2/71 93/2/22 94/2/81
f 87/2/75 91/2/80 92/2/82
f 94/2/81 100/2/83 95/2/79
f 92/2/82 98/2/27 93/2/22
f 91/2/80 79/2/8 96/2/84
f 85/2/10 95/2/79 100/2/83
f 93/2/22 99/2/85 94/2/81
f 91/2/80 97/2/86 92/2/82
f 99/2/85 105/2/87 100/2/83
f 97/2/86 103/2/32 98/2/27
f 96/2/84 79/2/8 101/2/88
f 85/2/10 100/2/83 105/2/87
f 99/2/85 103/2/32 104/2/89
f 97/2/86 101/2/88 102/2/90
f 102/2/90 108/2/36 103/2/32
f 101/2/88 79/2/8 106/2/91
f 85/2/10 105/2/87 110/2/92
f 104/2/89 108/2/36 109/2/93
f 102/2/90 106/2/91 107/2/94
f 104/2/89 110/2/92 105/2/87
f 106/2/91 79/2/8 111/2/95
f 85/2/10 110/2/92 115/2/96
f 109/2/93 113/2/45 114/2/97
f 106/2/91 112/2/98 107/2/94
f 109/2/93 115/2/96 110/2/92
f 107/2/94 113/2/45 108/2/36
f 85/2/10 115/2/96 120/2/99
f 114/2/97 118/2/50 119/2/100
f 111/2/95 117/2/101 112/2/98
f 114/2/97 120/2/99 115/2/96
f 112/2/98 118/2/50 113/2/45
f 111/2/95 79/2/8 116/2/102
f 85/2/10 120/2/99 125/2/103
f 119/2/100 123/2/52 124/2/104
f 116/2/102 122/2/105 117/2/101
f 120/2/99 124/2/104 125/2/103
f 117/2/101 123/2/52 118/2/50
f 116/2/102 79/2/8 121/2/106
f 85/2/10 125/2/103 130/2/107
f 124/2/104 128/2/60 129/2/108
f 121/2/106 127/2/109 122/2/105
f 124/2/104 130/2/107 125/2/103
f 122/2/105 128/2/60 123/2/52
f 121/2/106 79/2/8 126/2/110
f 128/2/60 134/2/111 129/2/108
f 127/2/109 131/2/112 132/2/113
f 129/2/108 135/2/114 130/2/107
f 127/2/109 133/2/64 128/2/60
f 126/2/110 79/2/8 131/2/112
f 85/2/10 130/2/107 135/2/114
f 131/2/112 137/2/115 132/2/113
f 135/2/114 139/2/116 140/2/117
f 132/2/113 138/2/68 133/2/64
f 131/2/112 79/2/8 136/2/118
f 85/2/10 135/2/114 140/2/117
f 134/2/111 138/2/68 139/2/116
f 139/2/116 84/2/77 140/2/117
f 137/2/115 82/2/11 138/2/68
f 136/2/118 79/2/8 80/2/78
f 85/2/10 140/2/117 84/2/77
f 138/2/68 83/2/72 139/2/116
f 137/2/115 80/2/78 81/2/73
f 144/2/11 151/2/119 145/2/120
f 143/2/121 148/2/122 149/2/123
f 145/2/120 152/2/124 146/2/125
f 144/2/11 149/2/123 150/2/19
f 142/2/126 141/2/8 148/2/122
f 147/2/10 146/2/125 152/2/124
f 151/2/119 157/2/127 152/2/124
f 149/2/123 155/2/22 150/2/19
f 148/2/122 141/2/8 153/2/128
f 147/2/10 152/2/124 157/2/127
f 150/2/19 156/2/129 151/2/119
f 148/2/122 154/2/130 149/2/123
f 157/2/127 161/2/131 162/2/132
f 154/2/130 160/2/27 155/2/22
f 153/2/128 141/2/8 158/2/133
f 147/2/10 157/2/127 162/2/132
f 155/2/22 161/2/131 156/2/129
f 153/2/128 159/2/134 154/2/130
f 161/2/131 167/2/135 162/2/132
f 159/2/134 165/2/32 160/2/27
f 158/2/133 141/2/8 163/2/136
f 147/2/10 162/2/132 167/2/135
f 160/2/27 166/2/137 161/2/131
f 159/2/134 163/2/136 164/2/138
f 164/2/138 170/2/36 165/2/32
f 163/2/136 141/2/8 168/2/139
f 147/2/10 167/2/135 172/2/140
f 166/2/137 170/2/36 171/2/141
f 163/2/136 169/2/142 164/2/138
f 166/2/137 172/2/140 167/2/135
f 168/2/139 141/2/8 173/2/143
f 147/2/10 172/2/140 177/2/144
f 171/2/141 175/2/45 176/2/145
f 168/2/139 174/2/146 169/2/142
f 171/2/141 177/2/144 172/2/140
f 169/2/142 175/2/45 170/2/36
f 147/2/10 177/2/144 182/2/147
f 176/2/145 180/2/50 181/2/148
f 174/2/146 178/2/149 179/2/150
f 176/2/145 182/2/147 177/2/144
f 174/2/146 180/2/50 175/2/45
f 173/2/143 141/2/8 178/2/149
f 147/2/10 182/2/147 187/2/151
f 181/2/148 185/2/52 186/2/152
f 178/2/149 184/2/153 179/2/150
f 181/2/148 187/2/151 182/2/147
f 179/2/150 185/2/52 180/2/50
f 178/2/149 141/2/8 183/2/154
f 147/2/10 187/2/151 192/2/155
f 186/2/152 190/2/60 191/2/156
f 183/2/154 189/2/157 184/2/153
f 186/2/152 192/2/155 187/2/151
f 184/2/153 190/2/60 185/2/52
f 183/2/154 141/2/8 188/2/158
f 191/2/156 195/2/64 196/2/159
f 189/2/157 193/2/160 194/2/161
f 191/2/156 197/2/162 192/2/155
f 189/2/157 195/2/64 190/2/60
f 188/2/158 141/2/8 193/2/160
f 147/2/10 192/2/155 197/2/162
f 193/2/160 199/2/163 194/2/161
f 196/2/159 202/2/164 197/2/162
f 194/2/161 200/2/68 195/2/64
f 193/2/160 141/2/8 198/2/165
f 147/2/10 197/2/162 202/2/164
f 196/2/159 200/2/68 201/2/166
f 201/2/166 146/2/125 202/2/164
f 199/2/163 144/2/11 200/2/68
f 198/2/165 141/2/8 142/2/126
f 147/2/10 202/2/164 146/2/125
f 200/2/68 145/2/120 201/2/166
f 198/2/165 143/2/121 199/2/163
f 2/1/1 4/1/2 3/1/2
f 4/1/2 6/1/3 5/1/3
f 6/1/3 8/1/4 7/1/4
f 8/1/4 10/1/5 9/1/5
f 10/1/5 12/1/6 11/1/6
f 12/1/6 14/1/7 13/1/7
s 0
f 6/1/8 4/1/8 2/1/8
f 2/1/8 16/1/8 14/1/8
f 14/1/8 12/1/8 10/1/8
f 10/1/8 8/1/8 6/1/8
f 6/1/8 2/1/8 14/1/8
s 1
f 14/1/7 16/1/9 15/1/9
f 16/1/9 2/1/1 1/1/1
s 0
f 15/1/10 1/1/10 3/1/10
f 3/1/10 5/1/10 7/1/10
f 7/1/10 9/1/10 11/1/10
f 11/1/10 13/1/10 15/1/10
f 15/1/10 3/1/10 7/1/10
s 1
f 20/2/11 26/2/19 27/2/12
f 18/2/14 24/2/20 25/2/15
f 22/2/17 21/2/13 27/2/12
f 19/2/16 25/2/15 26/2/19
f 27/2/12 32/2/24 33/2/21
f 25/2/15 30/2/25 31/2/22
f 26/2/19 31/2/22 32/2/24
f 24/2/20 29/2/23 30/2/25
f 32/2/24 37/2/29 38/2/26
f 30/2/25 35/2/30 36/2/27
f 31/2/22 36/2/27 37/2/29
f 30/2/25 29/2/23 34/2/28
f 37/2/29 42/2/34 43/2/31
f 35/2/30 40/2/35 41/2/32
f 36/2/27 41/2/32 42/2/34
f 34/2/28 39/2/33 40/2/35
f 40/2/35 45/2/40 46/2/36
f 41/2/32 46/2/36 47/2/39
f 39/2/33 44/2/37 45/2/40
f 42/2/34 47/2/39 48/2/38
f 46/2/36 51/2/45 52/2/43
f 44/2/37 49/2/41 50/2/44
f 47/2/39 52/2/43 53/2/42
f 45/2/40 50/2/44 51/2/45
f 51/2/45 56/2/50 57/2/47
f 50/2/44 49/2/41 54/2/48
f 52/2/43 57/2/47 58/2/46
f 50/2/44 55/2/49 56/2/50
f 57/2/47 56/2/50 61/2/52
f 55/2/49 54/2/48 59/2/54
f 57/2/47 62/2/53 63/2/51
f 55/2/49 60/2/55 61/2/52
f 61/2/52 66/2/60 67/2/57
f 60/2/55 59/2/54 64/2/58
f 62/2/53 67/2/57 68/2/56
f 60/2/55 65/2/59 66/2/60
f 66/2/60 71/2/64 72/2/61
f 64/2/58 69/2/65 70/2/62
f 67/2/57 72/2/61 73/2/63
f 65/2/59 70/2/62 71/2/64
f 69/2/65 74/2/69 75/2/66
f 72/2/61 77/2/70 78/2/67
f 70/2/62 75/2/66 76/2/68
f 71/2/64 76/2/68 77/2/70
f 77/2/70 21/2/13 22/2/17
f 75/2/66 19/2/16 20/2/11
f 76/2/68 20/2/11 21/2/13
f 75/2/66 74/2/69 18/2/14
f 82/2/11 88/2/19 89/2/71
f 81/2/73 80/2/78 86/2/74
f 83/2/72 89/2/71 90/2/76
f 81/2/73 87/2/75 88/2/19
f 89/2/71 94/2/81 95/2/79
f 87/2/75 92/2/82 93/2/22
f 89/2/71 88/2/19 93/2/22
f 87/2/75 86/2/74 91/2/80
f 94/2/81 99/2/85 100/2/83
f 92/2/82 97/2/86 98/2/27
f 93/2/22 98/2/27 99/2/85
f 91/2/80 96/2/84 97/2/86
f 99/2/85 104/2/89 105/2/87
f 97/2/86 102/2/90 103/2/32
f 99/2/85 98/2/27 103/2/32
f 97/2/86 96/2/84 101/2/88
f 102/2/90 107/2/94 108/2/36
f 104/2/89 103/2/32 108/2/36
f 102/2/90 101/2/88 106/2/91
f 104/2/89 109/2/93 110/2/92
f 109/2/93 108/2/36 113/2/45
f 106/2/91 111/2/95 112/2/98
f 109/2/93 114/2/97 115/2/96
f 107/2/94 112/2/98 113/2/45
f 114/2/97 113/2/45 118/2/50
f 111/2/95 116/2/102 117/2/101
f 114/2/97 119/2/100 120/2/99
f 112/2/98 117/2/101 118/2/50
f 119/2/100 118/2/50 123/2/52
f 116/2/102 121/2/106 122/2/105
f 120/2/99 119/2/100 124/2/104
f 117/2/101 122/2/105 123/2/52
f 124/2/104 123/2/52 128/2/60
f 121/2/106 126/2/110 127/2/109
f 124/2/104 129/2/108 130/2/107
f 122/2/105 127/2/109 128/2/60
f 128/2/60 133/2/64 134/2/111
f 127/2/109 126/2/110 131/2/112
f 129/2/108 134/2/111 135/2/114
f 127/2/109 132/2/113 133/2/64
f 131/2/112 136/2/118 137/2/115
f 135/2/114 134/2/111 139/2/116
f 132/2/113 137/2/115 138/2/68
f 134/2/111 133/2/64 138/2/68
f 139/2/116 83/2/72 84/2/77
f 137/2/115 81/2/73 82/2/11
f 138/2/68 82/2/11 83/2/72
f 137/2/115 136/2/118 80/2/78
f 144/2/11 150/2/19 151/2/119
f 143/2/121 142/2/126 148/2/122
f 145/2/120 151/2/119 152/2/124
f 144/2/11 143/2/121 149/2/123
f 151/2/119 156/2/129 157/2/127
f 149/2/123 154/2/130 155/2/22
f 150/2/19 155/2/22 156/2/129
f 148/2/122 153/2/128 154/2/130
f 157/2/127 156/2/129 161/2/131
f 154/2/130 159/2/134 160/2/27
f 155/2/22 160/2/27 161/2/131
f 153/2/128 158/2/133 159/2/134
f 161/2/131 166/2/137 167/2/135
f 159/2/134 164/2/138 165/2/32
f 160/2/27 165/2/32 166/2/137
f 159/2/134 158/2/133 163/2/136
f 164/2/138 169/2/142 170/2/36
f 166/2/137 165/2/32 170/2/36
f 163/2/136 168/2/139 169/2/142
f 166/2/137 171/2/141 172/2/140
f 171/2/141 170/2/36 175/2/45
f 168/2/139 173/2/143 174/2/146
f 171/2/141 176/2/145 177/2/144
f 169/2/142 174/2/146 175/2/45
f 176/2/145 175/2/45 180/2/50
f 174/2/146 173/2/143 178/2/149
f 176/2/145 181/2/148 182/2/147
f 174/2/146 179/2/150 180/2/50
f 181/2/148 180/2/50 185/2/52
f 178/2/149 183/2/154 184/2/153
f 181/2/148 186/2/152 187/2/151
f 179/2/150 184/2/153 185/2/52
f 186/2/152 185/2/52 190/2/60
f 183/2/154 188/2/158 189/2/157
f 186/2/152 191/2/156 192/2/155
f 184/2/153 189/2/157 190/2/60
f 191/2/156 190/2/60 195/2/64
f 189/2/157 188/2/158 193/2/160
f 191/2/156 196/2/159 197/2/162
f 189/2/157 194/2/161 195/2/64
f 193/2/160 198/2/165 199/2/163
f 196/2/159 201/2/166 202/2/164
f 194/2/161 199/2/163 200/2/68
f 196/2/159 195/2/64 200/2/68
f 201/2/166 145/2/120 146/2/125
f 199/2/163 143/2/121 144/2/11
f 200/2/68 144/2/11 145/2/120
f 198/2/165 142/2/126 143/2/121
