# Blender 5.2.1 LTS
# www.blender.org
mtllib airdrop.mtl
o Body.003
v -1.250000 0.275000 1.200000
v 1.250000 0.275000 1.200000
v 1.250000 0.275000 -1.200000
v -1.250000 0.275000 -1.200000
v -1.250000 3.225000 1.200000
v 1.250000 3.225000 1.200000
v 1.250000 3.225000 -1.200000
v -1.250000 3.225000 -1.200000
v -1.267500 3.225000 1.217500
v 1.267500 3.225000 1.217500
v 1.267500 3.225000 -1.217500
v -1.267500 3.225000 -1.217500
v -1.267500 3.275000 1.217500
v 1.267500 3.275000 1.217500
v 1.267500 3.275000 -1.217500
v -1.267500 3.275000 -1.217500
v -0.767500 0.240000 1.225000
v -0.732500 0.240000 1.225000
v -0.732500 0.240000 -1.225000
v -0.767500 0.240000 -1.225000
v -0.767500 3.260000 1.225000
v -0.732500 3.260000 1.225000
v -0.732500 3.260000 -1.225000
v -0.767500 3.260000 -1.225000
v -0.595000 2.373500 1.237500
v -0.505000 2.373500 1.237500
v -0.505000 2.373500 1.202500
v -0.595000 2.373500 1.202500
v -0.595000 2.483500 1.237500
v -0.505000 2.483500 1.237500
v -0.505000 2.483500 1.202500
v -0.595000 2.483500 1.202500
v 0.732500 0.240000 1.225000
v 0.767500 0.240000 1.225000
v 0.767500 0.240000 -1.225000
v 0.732500 0.240000 -1.225000
v 0.732500 3.260000 1.225000
v 0.767500 3.260000 1.225000
v 0.767500 3.260000 -1.225000
v 0.732500 3.260000 -1.225000
v 0.505000 2.373500 1.237500
v 0.595000 2.373500 1.237500
v 0.595000 2.373500 1.202500
v 0.505000 2.373500 1.202500
v 0.505000 2.483500 1.237500
v 0.595000 2.483500 1.237500
v 0.595000 2.483500 1.202500
v 0.505000 2.483500 1.202500
v -0.100000 2.079000 1.262500
v 0.100000 2.079000 1.262500
v 0.100000 2.079000 1.217500
v -0.100000 2.079000 1.217500
v -0.100000 2.129000 1.262500
v 0.100000 2.129000 1.262500
v 0.100000 2.129000 1.217500
v -0.100000 2.129000 1.217500
v -1.100000 0.000000 1.350000
v -0.800000 0.000000 1.350000
v -0.800000 0.000000 -1.350000
v -1.100000 0.000000 -1.350000
v -1.100000 0.300000 1.350000
v -0.800000 0.300000 1.350000
v -0.800000 0.300000 -1.350000
v -1.100000 0.300000 -1.350000
v 0.800000 0.000000 1.350000
v 1.100000 0.000000 1.350000
v 1.100000 0.000000 -1.350000
v 0.800000 0.000000 -1.350000
v 0.800000 0.300000 1.350000
v 1.100000 0.300000 1.350000
v 1.100000 0.300000 -1.350000
v 0.800000 0.300000 -1.350000
v -0.925000 3.220000 -0.775000
v -0.775000 3.220000 -0.775000
v -0.775000 3.220000 -0.925000
v -0.925000 3.220000 -0.925000
v -0.925000 3.420000 -0.775000
v -0.775000 3.420000 -0.775000
v -0.775000 3.420000 -0.925000
v -0.925000 3.420000 -0.925000
v -0.925000 3.220000 0.925000
v -0.775000 3.220000 0.925000
v -0.775000 3.220000 0.775000
v -0.925000 3.220000 0.775000
v -0.925000 3.420000 0.925000
v -0.775000 3.420000 0.925000
v -0.775000 3.420000 0.775000
v -0.925000 3.420000 0.775000
v 0.775000 3.220000 -0.775000
v 0.925000 3.220000 -0.775000
v 0.925000 3.220000 -0.925000
v 0.775000 3.220000 -0.925000
v 0.775000 3.420000 -0.775000
v 0.925000 3.420000 -0.775000
v 0.925000 3.420000 -0.925000
v 0.775000 3.420000 -0.925000
v 0.775000 3.220000 0.925000
v 0.925000 3.220000 0.925000
v 0.925000 3.220000 0.775000
v 0.775000 3.220000 0.775000
v 0.775000 3.420000 0.925000
v 0.925000 3.420000 0.925000
v 0.925000 3.420000 0.775000
v 0.775000 3.420000 0.775000
v -0.500000 1.775000 1.242500
v 0.500000 1.775000 1.242500
v 0.500000 1.775000 1.197500
v -0.500000 1.775000 1.197500
v -0.500000 2.125000 1.242500
v 0.500000 2.125000 1.242500
v 0.500000 2.125000 1.197500
v -0.500000 2.125000 1.197500
vn -0.0000 -1.0000 -0.0000
vn -0.0000 1.0000 -0.0000
vn -0.0000 -0.0000 1.0000
vn 1.0000 -0.0000 -0.0000
vn -0.0000 -0.0000 -1.0000
vn -1.0000 -0.0000 -0.0000
vt 0.125000 0.125000
vt 0.375000 0.125000
vt 0.875000 0.125000
vt 0.375000 0.875000
vt 0.125000 0.625000
s 0
usemtl Field_Palette
f 3/1/1 1/1/1 4/1/1
f 6/1/2 8/1/2 5/1/2
f 2/1/3 5/1/3 1/1/3
f 3/1/4 6/1/4 2/1/4
f 4/1/5 7/1/5 3/1/5
f 1/1/6 8/1/6 4/1/6
f 11/2/1 9/2/1 12/2/1
f 14/2/2 16/2/2 13/2/2
f 10/2/3 13/2/3 9/2/3
f 11/2/4 14/2/4 10/2/4
f 12/2/5 15/2/5 11/2/5
f 9/2/6 16/2/6 12/2/6
f 19/3/1 17/3/1 20/3/1
f 22/3/2 24/3/2 21/3/2
f 18/3/3 21/3/3 17/3/3
f 19/3/4 22/3/4 18/3/4
f 20/3/5 23/3/5 19/3/5
f 17/3/6 24/3/6 20/3/6
f 27/4/1 25/4/1 28/4/1
f 30/4/2 32/4/2 29/4/2
f 26/4/3 29/4/3 25/4/3
f 27/4/4 30/4/4 26/4/4
f 28/4/5 31/4/5 27/4/5
f 25/4/6 32/4/6 28/4/6
f 35/3/1 33/3/1 36/3/1
f 38/3/2 40/3/2 37/3/2
f 34/3/3 37/3/3 33/3/3
f 35/3/4 38/3/4 34/3/4
f 36/3/5 39/3/5 35/3/5
f 33/3/6 40/3/6 36/3/6
f 43/4/1 41/4/1 44/4/1
f 46/4/2 48/4/2 45/4/2
f 42/4/3 45/4/3 41/4/3
f 43/4/4 46/4/4 42/4/4
f 44/4/5 47/4/5 43/4/5
f 41/4/6 48/4/6 44/4/6
f 51/5/1 49/5/1 52/5/1
f 54/5/2 56/5/2 53/5/2
f 50/5/3 53/5/3 49/5/3
f 51/5/4 54/5/4 50/5/4
f 52/5/5 55/5/5 51/5/5
f 49/5/6 56/5/6 52/5/6
f 59/3/1 57/3/1 60/3/1
f 62/3/2 64/3/2 61/3/2
f 58/3/3 61/3/3 57/3/3
f 59/3/4 62/3/4 58/3/4
f 60/3/5 63/3/5 59/3/5
f 57/3/6 64/3/6 60/3/6
f 67/3/1 65/3/1 68/3/1
f 70/3/2 72/3/2 69/3/2
f 66/3/3 69/3/3 65/3/3
f 67/3/4 70/3/4 66/3/4
f 68/3/5 71/3/5 67/3/5
f 65/3/6 72/3/6 68/3/6
f 75/5/1 73/5/1 76/5/1
f 78/5/2 80/5/2 77/5/2
f 74/5/3 77/5/3 73/5/3
f 75/5/4 78/5/4 74/5/4
f 76/5/5 79/5/5 75/5/5
f 73/5/6 80/5/6 76/5/6
f 83/5/1 81/5/1 84/5/1
f 86/5/2 88/5/2 85/5/2
f 82/5/3 85/5/3 81/5/3
f 83/5/4 86/5/4 82/5/4
f 84/5/5 87/5/5 83/5/5
f 81/5/6 88/5/6 84/5/6
f 91/5/1 89/5/1 92/5/1
f 94/5/2 96/5/2 93/5/2
f 90/5/3 93/5/3 89/5/3
f 91/5/4 94/5/4 90/5/4
f 92/5/5 95/5/5 91/5/5
f 89/5/6 96/5/6 92/5/6
f 99/5/1 97/5/1 100/5/1
f 102/5/2 104/5/2 101/5/2
f 98/5/3 101/5/3 97/5/3
f 99/5/4 102/5/4 98/5/4
f 100/5/5 103/5/5 99/5/5
f 97/5/6 104/5/6 100/5/6
f 107/4/1 105/4/1 108/4/1
f 110/4/2 112/4/2 109/4/2
f 106/4/3 109/4/3 105/4/3
f 107/4/4 110/4/4 106/4/4
f 108/4/5 111/4/5 107/4/5
f 105/4/6 112/4/6 108/4/6
f 3/1/1 2/1/1 1/1/1
f 6/1/2 7/1/2 8/1/2
f 2/1/3 6/1/3 5/1/3
f 3/1/4 7/1/4 6/1/4
f 4/1/5 8/1/5 7/1/5
f 1/1/6 5/1/6 8/1/6
f 11/2/1 10/2/1 9/2/1
f 14/2/2 15/2/2 16/2/2
f 10/2/3 14/2/3 13/2/3
f 11/2/4 15/2/4 14/2/4
f 12/2/5 16/2/5 15/2/5
f 9/2/6 13/2/6 16/2/6
f 19/3/1 18/3/1 17/3/1
f 22/3/2 23/3/2 24/3/2
f 18/3/3 22/3/3 21/3/3
f 19/3/4 23/3/4 22/3/4
f 20/3/5 24/3/5 23/3/5
f 17/3/6 21/3/6 24/3/6
f 27/4/1 26/4/1 25/4/1
f 30/4/2 31/4/2 32/4/2
f 26/4/3 30/4/3 29/4/3
f 27/4/4 31/4/4 30/4/4
f 28/4/5 32/4/5 31/4/5
f 25/4/6 29/4/6 32/4/6
f 35/3/1 34/3/1 33/3/1
f 38/3/2 39/3/2 40/3/2
f 34/3/3 38/3/3 37/3/3
f 35/3/4 39/3/4 38/3/4
f 36/3/5 40/3/5 39/3/5
f 33/3/6 37/3/6 40/3/6
f 43/4/1 42/4/1 41/4/1
f 46/4/2 47/4/2 48/4/2
f 42/4/3 46/4/3 45/4/3
f 43/4/4 47/4/4 46/4/4
f 44/4/5 48/4/5 47/4/5
f 41/4/6 45/4/6 48/4/6
f 51/5/1 50/5/1 49/5/1
f 54/5/2 55/5/2 56/5/2
f 50/5/3 54/5/3 53/5/3
f 51/5/4 55/5/4 54/5/4
f 52/5/5 56/5/5 55/5/5
f 49/5/6 53/5/6 56/5/6
f 59/3/1 58/3/1 57/3/1
f 62/3/2 63/3/2 64/3/2
f 58/3/3 62/3/3 61/3/3
f 59/3/4 63/3/4 62/3/4
f 60/3/5 64/3/5 63/3/5
f 57/3/6 61/3/6 64/3/6
f 67/3/1 66/3/1 65/3/1
f 70/3/2 71/3/2 72/3/2
f 66/3/3 70/3/3 69/3/3
f 67/3/4 71/3/4 70/3/4
f 68/3/5 72/3/5 71/3/5
f 65/3/6 69/3/6 72/3/6
f 75/5/1 74/5/1 73/5/1
f 78/5/2 79/5/2 80/5/2
f 74/5/3 78/5/3 77/5/3
f 75/5/4 79/5/4 78/5/4
f 76/5/5 80/5/5 79/5/5
f 73/5/6 77/5/6 80/5/6
f 83/5/1 82/5/1 81/5/1
f 86/5/2 87/5/2 88/5/2
f 82/5/3 86/5/3 85/5/3
f 83/5/4 87/5/4 86/5/4
f 84/5/5 88/5/5 87/5/5
f 81/5/6 85/5/6 88/5/6
f 91/5/1 90/5/1 89/5/1
f 94/5/2 95/5/2 96/5/2
f 90/5/3 94/5/3 93/5/3
f 91/5/4 95/5/4 94/5/4
f 92/5/5 96/5/5 95/5/5
f 89/5/6 93/5/6 96/5/6
f 99/5/1 98/5/1 97/5/1
f 102/5/2 103/5/2 104/5/2
f 98/5/3 102/5/3 101/5/3
f 99/5/4 103/5/4 102/5/4
f 100/5/5 104/5/5 103/5/5
f 97/5/6 101/5/6 104/5/6
f 107/4/1 106/4/1 105/4/1
f 110/4/2 111/4/2 112/4/2
f 106/4/3 110/4/3 109/4/3
f 107/4/4 111/4/4 110/4/4
f 108/4/5 112/4/5 111/4/5
f 105/4/6 109/4/6 112/4/6
o Canopy
v 2.450000 7.400000 0.000000
v 2.121762 7.400000 -1.225000
v 1.225000 7.400000 -2.121762
v 0.000000 7.400000 -2.450000
v -1.225000 7.400000 -2.121762
v -2.121762 7.400000 -1.225000
v -2.450000 7.400000 -0.000000
v -2.121762 7.400000 1.225000
v -1.225000 7.400000 2.121762
v -0.000000 7.400000 2.450000
v 1.225000 7.400000 2.121762
v 2.121762 7.400000 1.225000
v 2.000000 8.450000 0.000000
v 1.732051 8.450000 -1.000000
v 1.000000 8.450000 -1.732051
v 0.000000 8.450000 -2.000000
v -1.000000 8.450000 -1.732051
v -1.732051 8.450000 -1.000000
v -2.000000 8.450000 -0.000000
v -1.732051 8.450000 1.000000
v -1.000000 8.450000 1.732051
v -0.000000 8.450000 2.000000
v 1.000000 8.450000 1.732051
v 1.732051 8.450000 1.000000
v 0.750000 9.200000 0.000000
v 0.649519 9.200000 -0.375000
v 0.375000 9.200000 -0.649519
v 0.000000 9.200000 -0.750000
v -0.375000 9.200000 -0.649519
v -0.649519 9.200000 -0.375000
v -0.750000 9.200000 -0.000000
v -0.649519 9.200000 0.375000
v -0.375000 9.200000 0.649519
v -0.000000 9.200000 0.750000
v 0.375000 9.200000 0.649519
v 0.649519 9.200000 0.375000
v -1.800000 7.404557 -1.780526
v -1.819500 7.395674 -1.798988
v -1.800000 7.395443 -1.819474
v -1.780500 7.404326 -1.801012
v -0.864000 3.404557 -0.844526
v -0.883500 3.395674 -0.862988
v -0.864000 3.395443 -0.883474
v -0.844500 3.404326 -0.865012
v -1.800000 7.395443 1.819474
v -1.819500 7.395674 1.798988
v -1.800000 7.404557 1.780526
v -1.780500 7.404326 1.801012
v -0.864000 3.395443 0.883474
v -0.883500 3.395674 0.862988
v -0.864000 3.404557 0.844526
v -0.844500 3.404326 0.865012
v 1.800000 7.404557 -1.780526
v 1.780500 7.404326 -1.801012
v 1.800000 7.395443 -1.819474
v 1.819500 7.395674 -1.798988
v 0.864000 3.404557 -0.844526
v 0.844500 3.404326 -0.865012
v 0.864000 3.395443 -0.883474
v 0.883500 3.395674 -0.862988
v 1.800000 7.395443 1.819474
v 1.780500 7.404326 1.801012
v 1.800000 7.404557 1.780526
v 1.819500 7.395674 1.798988
v 0.864000 3.395443 0.883474
v 0.844500 3.404326 0.865012
v 0.864000 3.404557 0.844526
v 0.883500 3.395674 0.862988
vn -0.0000 -1.0000 -0.0000
vn 0.8925 0.3825 -0.2391
vn 0.6533 0.3825 -0.6533
vn 0.2391 0.3825 -0.8925
vn -0.2391 0.3825 -0.8925
vn -0.6533 0.3825 -0.6533
vn -0.8925 0.3825 -0.2391
vn -0.8925 0.3825 0.2391
vn -0.6533 0.3825 0.6533
vn -0.2391 0.3825 0.8925
vn 0.2391 0.3825 0.8925
vn 0.6533 0.3825 0.6533
vn 0.8925 0.3825 0.2391
vn 0.5097 0.8495 -0.1366
vn 0.3731 0.8495 -0.3731
vn 0.1366 0.8495 -0.5097
vn -0.1366 0.8495 -0.5097
vn -0.3731 0.8495 -0.3731
vn -0.5097 0.8495 -0.1366
vn -0.5097 0.8495 0.1366
vn -0.3731 0.8495 0.3731
vn -0.1366 0.8495 0.5097
vn 0.1366 0.8495 0.5097
vn 0.3731 0.8495 0.3731
vn 0.5097 0.8495 0.1366
vn -0.0000 1.0000 -0.0000
vn -0.2222 0.9494 -0.2221
vn -0.6894 0.0082 0.7243
vn -0.6894 -0.3141 -0.6527
vn 0.6894 -0.0082 -0.7243
vn 0.6894 0.3141 0.6527
vn 0.2221 -0.9494 0.2222
vn -0.2222 0.9494 0.2221
vn -0.6894 -0.3141 0.6527
vn -0.6894 0.0082 -0.7243
vn 0.6894 0.3141 -0.6527
vn 0.6894 -0.0082 0.7243
vn 0.2222 -0.9494 -0.2222
vn 0.2222 0.9494 -0.2222
vn -0.6894 0.3141 0.6527
vn -0.6894 -0.0082 -0.7243
vn 0.6894 -0.3141 -0.6527
vn 0.6894 0.0082 0.7243
vn -0.2221 -0.9494 0.2222
vn 0.2222 0.9494 0.2222
vn -0.6894 -0.0082 0.7243
vn -0.6894 0.3141 -0.6527
vn 0.6894 0.0082 -0.7243
vn 0.6894 -0.3141 0.6527
vn -0.2222 -0.9494 -0.2222
vn -0.2222 0.9494 -0.2222
vn 0.2222 -0.9494 0.2222
vn -0.2222 0.9494 0.2222
vn 0.2221 -0.9494 -0.2222
vn 0.2222 0.9494 -0.2221
vn -0.2222 -0.9494 0.2222
vn 0.2222 0.9494 0.2221
vn -0.2221 -0.9494 -0.2222
vt 0.375000 0.125000
vt 0.375000 0.875000
s 0
usemtl Field_Palette
f 121/6/7 117/6/7 113/6/7
f 114/6/8 125/6/8 113/6/8
f 115/6/9 126/6/9 114/6/9
f 116/6/10 127/6/10 115/6/10
f 117/6/11 128/6/11 116/6/11
f 118/6/12 129/6/12 117/6/12
f 119/6/13 130/6/13 118/6/13
f 120/6/14 131/6/14 119/6/14
f 121/6/15 132/6/15 120/6/15
f 122/6/16 133/6/16 121/6/16
f 123/6/17 134/6/17 122/6/17
f 124/6/18 135/6/18 123/6/18
f 113/6/19 136/6/19 124/6/19
f 126/6/20 137/6/20 125/6/20
f 127/6/21 138/6/21 126/6/21
f 128/6/22 139/6/22 127/6/22
f 129/6/23 140/6/23 128/6/23
f 130/6/24 141/6/24 129/6/24
f 131/6/25 142/6/25 130/6/25
f 132/6/26 143/6/26 131/6/26
f 133/6/27 144/6/27 132/6/27
f 134/6/28 145/6/28 133/6/28
f 135/6/29 146/6/29 134/6/29
f 136/6/30 147/6/30 135/6/30
f 125/6/31 148/6/31 136/6/31
f 144/6/32 146/6/32 148/6/32
f 151/7/33 149/7/33 152/7/33
f 149/7/34 154/7/34 153/7/34
f 150/7/35 155/7/35 154/7/35
f 151/7/36 156/7/36 155/7/36
f 149/7/37 156/7/37 152/7/37
f 154/7/38 156/7/38 153/7/38
f 159/7/39 157/7/39 160/7/39
f 158/7/40 161/7/40 157/7/40
f 158/7/41 163/7/41 162/7/41
f 159/7/42 164/7/42 163/7/42
f 160/7/43 161/7/43 164/7/43
f 162/7/44 164/7/44 161/7/44
f 167/7/45 165/7/45 168/7/45
f 165/7/46 170/7/46 169/7/46
f 166/7/47 171/7/47 170/7/47
f 168/7/48 171/7/48 167/7/48
f 168/7/49 169/7/49 172/7/49
f 170/7/50 172/7/50 169/7/50
f 175/7/51 173/7/51 176/7/51
f 173/7/52 178/7/52 177/7/52
f 175/7/53 178/7/53 174/7/53
f 175/7/54 180/7/54 179/7/54
f 176/7/55 177/7/55 180/7/55
f 178/7/56 180/7/56 177/7/56
f 113/6/7 124/6/7 123/6/7
f 123/6/7 122/6/7 121/6/7
f 121/6/7 120/6/7 119/6/7
f 119/6/7 118/6/7 117/6/7
f 117/6/7 116/6/7 115/6/7
f 115/6/7 114/6/7 113/6/7
f 113/6/7 123/6/7 121/6/7
f 121/6/7 119/6/7 117/6/7
f 117/6/7 115/6/7 113/6/7
f 114/6/8 126/6/8 125/6/8
f 115/6/9 127/6/9 126/6/9
f 116/6/10 128/6/10 127/6/10
f 117/6/11 129/6/11 128/6/11
f 118/6/12 130/6/12 129/6/12
f 119/6/13 131/6/13 130/6/13
f 120/6/14 132/6/14 131/6/14
f 121/6/15 133/6/15 132/6/15
f 122/6/16 134/6/16 133/6/16
f 123/6/17 135/6/17 134/6/17
f 124/6/18 136/6/18 135/6/18
f 113/6/19 125/6/19 136/6/19
f 126/6/20 138/6/20 137/6/20
f 127/6/21 139/6/21 138/6/21
f 128/6/22 140/6/22 139/6/22
f 129/6/23 141/6/23 140/6/23
f 130/6/24 142/6/24 141/6/24
f 131/6/25 143/6/25 142/6/25
f 132/6/26 144/6/26 143/6/26
f 133/6/27 145/6/27 144/6/27
f 134/6/28 146/6/28 145/6/28
f 135/6/29 147/6/29 146/6/29
f 136/6/30 148/6/30 147/6/30
f 125/6/31 137/6/31 148/6/31
f 148/6/32 137/6/32 138/6/32
f 138/6/32 139/6/32 140/6/32
f 140/6/32 141/6/32 142/6/32
f 142/6/32 143/6/32 144/6/32
f 144/6/32 145/6/32 146/6/32
f 146/6/32 147/6/32 148/6/32
f 148/6/32 138/6/32 144/6/32
f 138/6/32 140/6/32 144/6/32
f 140/6/32 142/6/32 144/6/32
f 151/7/57 150/7/57 149/7/57
f 149/7/34 150/7/34 154/7/34
f 150/7/35 151/7/35 155/7/35
f 151/7/36 152/7/36 156/7/36
f 149/7/37 153/7/37 156/7/37
f 154/7/58 155/7/58 156/7/58
f 159/7/59 158/7/59 157/7/59
f 158/7/40 162/7/40 161/7/40
f 158/7/41 159/7/41 163/7/41
f 159/7/42 160/7/42 164/7/42
f 160/7/43 157/7/43 161/7/43
f 162/7/60 163/7/60 164/7/60
f 167/7/61 166/7/61 165/7/61
f 165/7/46 166/7/46 170/7/46
f 166/7/47 167/7/47 171/7/47
f 168/7/48 172/7/48 171/7/48
f 168/7/49 165/7/49 169/7/49
f 170/7/62 171/7/62 172/7/62
f 175/7/63 174/7/63 173/7/63
f 173/7/52 174/7/52 178/7/52
f 175/7/53 179/7/53 178/7/53
f 175/7/54 176/7/54 180/7/54
f 176/7/55 173/7/55 177/7/55
f 178/7/64 179/7/64 180/7/64
