# Blender 5.2.1 LTS
# www.blender.org
mtllib garrison_2.mtl
o Fortification.001
v -4.300000 0.000000 4.200000
v 4.300000 0.000000 4.200000
v 4.300000 0.000000 -4.200000
v -4.300000 0.000000 -4.200000
v -4.300000 0.500000 4.200000
v 4.300000 0.500000 4.200000
v 4.300000 0.500000 -4.200000
v -4.300000 0.500000 -4.200000
v -3.500000 0.250000 3.100000
v 3.500000 0.250000 3.100000
v 3.500000 0.250000 -3.100000
v -3.500000 0.250000 -3.100000
v -3.500000 3.650000 3.100000
v 3.500000 3.650000 3.100000
v 3.500000 3.650000 -3.100000
v -3.500000 3.650000 -3.100000
v -3.475000 0.200000 3.700000
v -2.825000 0.200000 3.700000
v -2.825000 0.200000 -3.700000
v -3.475000 0.200000 -3.700000
v -3.475000 2.800000 3.700000
v -2.825000 2.800000 3.700000
v -2.825000 2.800000 -3.700000
v -3.475000 2.800000 -3.700000
v -3.560000 0.000000 -3.375000
v -2.740000 0.000000 -3.375000
v -2.740000 0.000000 -3.625000
v -3.560000 0.000000 -3.625000
v -3.560000 2.900000 -3.375000
v -2.740000 2.900000 -3.375000
v -2.740000 2.900000 -3.625000
v -3.560000 2.900000 -3.625000
v -3.560000 0.000000 -1.275000
v -2.740000 0.000000 -1.275000
v -2.740000 0.000000 -1.525000
v -3.560000 0.000000 -1.525000
v -3.560000 2.900000 -1.275000
v -2.740000 2.900000 -1.275000
v -2.740000 2.900000 -1.525000
v -3.560000 2.900000 -1.525000
v -3.560000 0.000000 1.525000
v -2.740000 0.000000 1.525000
v -2.740000 0.000000 1.275000
v -3.560000 0.000000 1.275000
v -3.560000 2.900000 1.525000
v -2.740000 2.900000 1.525000
v -2.740000 2.900000 1.275000
v -3.560000 2.900000 1.275000
v -3.560000 0.000000 3.625000
v -2.740000 0.000000 3.625000
v -2.740000 0.000000 3.375000
v -3.560000 0.000000 3.375000
v -3.560000 2.900000 3.625000
v -2.740000 2.900000 3.625000
v -2.740000 2.900000 3.375000
v -3.560000 2.900000 3.375000
v 2.825000 0.200000 3.700000
v 3.475000 0.200000 3.700000
v 3.475000 0.200000 -3.700000
v 2.825000 0.200000 -3.700000
v 2.825000 2.800000 3.700000
v 3.475000 2.800000 3.700000
v 3.475000 2.800000 -3.700000
v 2.825000 2.800000 -3.700000
v 2.740000 0.000000 -3.375000
v 3.560000 0.000000 -3.375000
v 3.560000 0.000000 -3.625000
v 2.740000 0.000000 -3.625000
v 2.740000 2.900000 -3.375000
v 3.560000 2.900000 -3.375000
v 3.560000 2.900000 -3.625000
v 2.740000 2.900000 -3.625000
v 2.740000 0.000000 -1.275000
v 3.560000 0.000000 -1.275000
v 3.560000 0.000000 -1.525000
v 2.740000 0.000000 -1.525000
v 2.740000 2.900000 -1.275000
v 3.560000 2.900000 -1.275000
v 3.560000 2.900000 -1.525000
v 2.740000 2.900000 -1.525000
v 2.740000 0.000000 1.525000
v 3.560000 0.000000 1.525000
v 3.560000 0.000000 1.275000
v 2.740000 0.000000 1.275000
v 2.740000 2.900000 1.525000
v 3.560000 2.900000 1.525000
v 3.560000 2.900000 1.275000
v 2.740000 2.900000 1.275000
v 2.740000 0.000000 3.625000
v 3.560000 0.000000 3.625000
v 3.560000 0.000000 3.375000
v 2.740000 0.000000 3.375000
v 2.740000 2.900000 3.625000
v 3.560000 2.900000 3.625000
v 3.560000 2.900000 3.375000
v 2.740000 2.900000 3.375000
v -1.400000 0.350000 3.170000
v 1.400000 0.350000 3.170000
v 1.400000 0.350000 3.070000
v -1.400000 0.350000 3.070000
v -1.400000 2.750000 3.170000
v 1.400000 2.750000 3.170000
v 1.400000 2.750000 3.070000
v -1.400000 2.750000 3.070000
v -1.590000 0.175000 3.300000
v -1.410000 0.175000 3.300000
v -1.410000 0.175000 3.120000
v -1.590000 0.175000 3.120000
v -1.590000 2.925000 3.300000
v -1.410000 2.925000 3.300000
v -1.410000 2.925000 3.120000
v -1.590000 2.925000 3.120000
v 1.410000 0.175000 3.300000
v 1.590000 0.175000 3.300000
v 1.590000 0.175000 3.120000
v 1.410000 0.175000 3.120000
v 1.410000 2.925000 3.300000
v 1.590000 2.925000 3.300000
v 1.590000 2.925000 3.120000
v 1.410000 2.925000 3.120000
v -1.550000 2.860000 3.310000
v 1.550000 2.860000 3.310000
v 1.550000 2.860000 3.130000
v -1.550000 2.860000 3.130000
v -1.550000 3.040000 3.310000
v 1.550000 3.040000 3.310000
v 1.550000 3.040000 3.130000
v -1.550000 3.040000 3.130000
v -3.025000 2.490000 -3.140000
v -2.075000 2.490000 -3.140000
v -2.075000 2.490000 -3.260000
v -3.025000 2.490000 -3.260000
v -3.025000 3.010000 -3.140000
v -2.075000 3.010000 -3.140000
v -2.075000 3.010000 -3.260000
v -3.025000 3.010000 -3.260000
v -3.110000 2.410000 -3.110000
v -1.990000 2.410000 -3.110000
v -1.990000 2.410000 -3.290000
v -3.110000 2.410000 -3.290000
v -3.110000 2.510000 -3.110000
v -1.990000 2.510000 -3.110000
v -1.990000 2.510000 -3.290000
v -3.110000 2.510000 -3.290000
v 2.075000 2.490000 -3.140000
v 3.025000 2.490000 -3.140000
v 3.025000 2.490000 -3.260000
v 2.075000 2.490000 -3.260000
v 2.075000 3.010000 -3.140000
v 3.025000 3.010000 -3.140000
v 3.025000 3.010000 -3.260000
v 2.075000 3.010000 -3.260000
v 1.990000 2.410000 -3.110000
v 3.110000 2.410000 -3.110000
v 3.110000 2.410000 -3.290000
v 1.990000 2.410000 -3.290000
v 1.990000 2.510000 -3.110000
v 3.110000 2.510000 -3.110000
v 3.110000 2.510000 -3.290000
v 1.990000 2.510000 -3.290000
v -3.025000 2.490000 3.260000
v -2.075000 2.490000 3.260000
v -2.075000 2.490000 3.140000
v -3.025000 2.490000 3.140000
v -3.025000 3.010000 3.260000
v -2.075000 3.010000 3.260000
v -2.075000 3.010000 3.140000
v -3.025000 3.010000 3.140000
v -3.110000 2.410000 3.290000
v -1.990000 2.410000 3.290000
v -1.990000 2.410000 3.110000
v -3.110000 2.410000 3.110000
v -3.110000 2.510000 3.290000
v -1.990000 2.510000 3.290000
v -1.990000 2.510000 3.110000
v -3.110000 2.510000 3.110000
v 2.075000 2.490000 3.260000
v 3.025000 2.490000 3.260000
v 3.025000 2.490000 3.140000
v 2.075000 2.490000 3.140000
v 2.075000 3.010000 3.260000
v 3.025000 3.010000 3.260000
v 3.025000 3.010000 3.140000
v 2.075000 3.010000 3.140000
v 1.990000 2.410000 3.290000
v 3.110000 2.410000 3.290000
v 3.110000 2.410000 3.110000
v 1.990000 2.410000 3.110000
v 1.990000 2.510000 3.290000
v 3.110000 2.510000 3.290000
v 3.110000 2.510000 3.110000
v 1.990000 2.510000 3.110000
v -4.100000 0.225000 -2.100000
v -3.100000 0.225000 -2.100000
v -3.100000 0.225000 -3.300000
v -4.100000 0.225000 -3.300000
v -4.100000 0.975000 -2.100000
v -3.100000 0.975000 -2.100000
v -3.100000 0.975000 -3.300000
v -4.100000 0.975000 -3.300000
v -4.100000 0.225000 3.300000
v -3.100000 0.225000 3.300000
v -3.100000 0.225000 2.100000
v -4.100000 0.225000 2.100000
v -4.100000 0.975000 3.300000
v -3.100000 0.975000 3.300000
v -3.100000 0.975000 2.100000
v -4.100000 0.975000 2.100000
v 3.100000 0.225000 -2.100000
v 4.100000 0.225000 -2.100000
v 4.100000 0.225000 -3.300000
v 3.100000 0.225000 -3.300000
v 3.100000 0.975000 -2.100000
v 4.100000 0.975000 -2.100000
v 4.100000 0.975000 -3.300000
v 3.100000 0.975000 -3.300000
v 3.100000 0.225000 3.300000
v 4.100000 0.225000 3.300000
v 4.100000 0.225000 2.100000
v 3.100000 0.225000 2.100000
v 3.100000 0.975000 3.300000
v 4.100000 0.975000 3.300000
v 4.100000 0.975000 2.100000
v 3.100000 0.975000 2.100000
v -3.725000 3.630000 3.375000
v 3.725000 3.630000 3.375000
v 3.725000 3.630000 -3.375000
v -3.725000 3.630000 -3.375000
v -3.725000 3.930000 3.375000
v 3.725000 3.930000 3.375000
v 3.725000 3.930000 -3.375000
v -3.725000 3.930000 -3.375000
v -3.430000 3.785000 3.150000
v -3.270000 3.785000 3.150000
v -3.270000 3.785000 -3.150000
v -3.430000 3.785000 -3.150000
v -3.430000 4.335000 3.150000
v -3.270000 4.335000 3.150000
v -3.270000 4.335000 -3.150000
v -3.430000 4.335000 -3.150000
v 3.270000 3.785000 3.150000
v 3.430000 3.785000 3.150000
v 3.430000 3.785000 -3.150000
v 3.270000 3.785000 -3.150000
v 3.270000 4.335000 3.150000
v 3.430000 4.335000 3.150000
v 3.430000 4.335000 -3.150000
v 3.270000 4.335000 -3.150000
v -3.300000 3.790000 -3.040000
v 3.300000 3.790000 -3.040000
v 3.300000 3.790000 -3.200000
v -3.300000 3.790000 -3.200000
v -3.300000 4.290000 -3.040000
v 3.300000 4.290000 -3.040000
v 3.300000 4.290000 -3.200000
v -3.300000 4.290000 -3.200000
v -2.700000 3.890000 1.350000
v -1.500000 3.890000 1.350000
v -1.500000 3.890000 -1.350000
v -2.700000 3.890000 -1.350000
v -2.700000 4.050000 1.350000
v -1.500000 4.050000 1.350000
v -1.500000 4.050000 -1.350000
v -2.700000 4.050000 -1.350000
v -0.600000 3.890000 1.350000
v 0.600000 3.890000 1.350000
v 0.600000 3.890000 -1.350000
v -0.600000 3.890000 -1.350000
v -0.600000 4.050000 1.350000
v 0.600000 4.050000 1.350000
v 0.600000 4.050000 -1.350000
v -0.600000 4.050000 -1.350000
v 1.500000 3.890000 1.350000
v 2.700000 3.890000 1.350000
v 2.700000 3.890000 -1.350000
v 1.500000 3.890000 -1.350000
v 1.500000 4.050000 1.350000
v 2.700000 4.050000 1.350000
v 2.700000 4.050000 -1.350000
v 1.500000 4.050000 -1.350000
v -2.400000 3.950000 -2.770000
v -2.696985 3.950000 -2.646985
v -2.820000 3.950000 -2.350000
v -2.696985 3.950000 -2.053015
v -2.400000 3.950000 -1.930000
v -2.103015 3.950000 -2.053015
v -1.980000 3.950000 -2.350000
v -2.103015 3.950000 -2.646985
v -2.400000 8.250000 -2.770000
v -2.696985 8.250000 -2.646985
v -2.820000 8.250000 -2.350000
v -2.696985 8.250000 -2.053015
v -2.400000 8.250000 -1.930000
v -2.103015 8.250000 -2.053015
v -1.980000 8.250000 -2.350000
v -2.103015 8.250000 -2.646985
v -2.400000 4.410000 -2.840000
v -2.746482 4.410000 -2.696482
v -2.890000 4.410000 -2.350000
v -2.746482 4.410000 -2.003518
v -2.400000 4.410000 -1.860000
v -2.053518 4.410000 -2.003518
v -1.910000 4.410000 -2.350000
v -2.053518 4.410000 -2.696482
v -2.400000 4.590000 -2.840000
v -2.746482 4.590000 -2.696482
v -2.890000 4.590000 -2.350000
v -2.746482 4.590000 -2.003518
v -2.400000 4.590000 -1.860000
v -2.053518 4.590000 -2.003518
v -1.910000 4.590000 -2.350000
v -2.053518 4.590000 -2.696482
v -2.400000 6.810000 -2.840000
v -2.746482 6.810000 -2.696482
v -2.890000 6.810000 -2.350000
v -2.746482 6.810000 -2.003518
v -2.400000 6.810000 -1.860000
v -2.053518 6.810000 -2.003518
v -1.910000 6.810000 -2.350000
v -2.053518 6.810000 -2.696482
v -2.400000 6.990000 -2.840000
v -2.746482 6.990000 -2.696482
v -2.890000 6.990000 -2.350000
v -2.746482 6.990000 -2.003518
v -2.400000 6.990000 -1.860000
v -2.053518 6.990000 -2.003518
v -1.910000 6.990000 -2.350000
v -2.053518 6.990000 -2.696482
v -2.400000 8.110000 -2.840000
v -2.746482 8.110000 -2.696482
v -2.890000 8.110000 -2.350000
v -2.746482 8.110000 -2.003518
v -2.400000 8.110000 -1.860000
v -2.053518 8.110000 -2.003518
v -1.910000 8.110000 -2.350000
v -2.053518 8.110000 -2.696482
v -2.400000 8.290000 -2.840000
v -2.746482 8.290000 -2.696482
v -2.890000 8.290000 -2.350000
v -2.746482 8.290000 -2.003518
v -2.400000 8.290000 -1.860000
v -2.053518 8.290000 -2.003518
v -1.910000 8.290000 -2.350000
v -2.053518 8.290000 -2.696482
v -2.400000 8.264999 -2.680000
v -2.633345 8.264999 -2.583345
v -2.730000 8.264999 -2.350000
v -2.633345 8.264999 -2.116655
v -2.400000 8.264999 -2.020000
v -2.166655 8.264999 -2.116655
v -2.070000 8.264999 -2.350000
v -2.166655 8.264999 -2.583345
v -2.400000 8.295000 -2.680000
v -2.633345 8.295000 -2.583345
v -2.730000 8.295000 -2.350000
v -2.633345 8.295000 -2.116655
v -2.400000 8.295000 -2.020000
v -2.166655 8.295000 -2.116655
v -2.070000 8.295000 -2.350000
v -2.166655 8.295000 -2.583345
v -0.800000 3.950000 -2.770000
v -1.096985 3.950000 -2.646985
v -1.220000 3.950000 -2.350000
v -1.096985 3.950000 -2.053015
v -0.800000 3.950000 -1.930000
v -0.503015 3.950000 -2.053015
v -0.380000 3.950000 -2.350000
v -0.503015 3.950000 -2.646985
v -0.800000 8.250000 -2.770000
v -1.096985 8.250000 -2.646985
v -1.220000 8.250000 -2.350000
v -1.096985 8.250000 -2.053015
v -0.800000 8.250000 -1.930000
v -0.503015 8.250000 -2.053015
v -0.380000 8.250000 -2.350000
v -0.503015 8.250000 -2.646985
v -0.800000 4.410000 -2.840000
v -1.146482 4.410000 -2.696482
v -1.290000 4.410000 -2.350000
v -1.146482 4.410000 -2.003518
v -0.800000 4.410000 -1.860000
v -0.453518 4.410000 -2.003518
v -0.310000 4.410000 -2.350000
v -0.453518 4.410000 -2.696482
v -0.800000 4.590000 -2.840000
v -1.146482 4.590000 -2.696482
v -1.290000 4.590000 -2.350000
v -1.146482 4.590000 -2.003518
v -0.800000 4.590000 -1.860000
v -0.453518 4.590000 -2.003518
v -0.310000 4.590000 -2.350000
v -0.453518 4.590000 -2.696482
v -0.800000 6.810000 -2.840000
v -1.146482 6.810000 -2.696482
v -1.290000 6.810000 -2.350000
v -1.146482 6.810000 -2.003518
v -0.800000 6.810000 -1.860000
v -0.453518 6.810000 -2.003518
v -0.310000 6.810000 -2.350000
v -0.453518 6.810000 -2.696482
v -0.800000 6.990000 -2.840000
v -1.146482 6.990000 -2.696482
v -1.290000 6.990000 -2.350000
v -1.146482 6.990000 -2.003518
v -0.800000 6.990000 -1.860000
v -0.453518 6.990000 -2.003518
v -0.310000 6.990000 -2.350000
v -0.453518 6.990000 -2.696482
v -0.800000 8.110000 -2.840000
v -1.146482 8.110000 -2.696482
v -1.290000 8.110000 -2.350000
v -1.146482 8.110000 -2.003518
v -0.800000 8.110000 -1.860000
v -0.453518 8.110000 -2.003518
v -0.310000 8.110000 -2.350000
v -0.453518 8.110000 -2.696482
v -0.800000 8.290000 -2.840000
v -1.146482 8.290000 -2.696482
v -1.290000 8.290000 -2.350000
v -1.146482 8.290000 -2.003518
v -0.800000 8.290000 -1.860000
v -0.453518 8.290000 -2.003518
v -0.310000 8.290000 -2.350000
v -0.453518 8.290000 -2.696482
v -0.800000 8.264999 -2.680000
v -1.033345 8.264999 -2.583345
v -1.130000 8.264999 -2.350000
v -1.033345 8.264999 -2.116655
v -0.800000 8.264999 -2.020000
v -0.566655 8.264999 -2.116655
v -0.470000 8.264999 -2.350000
v -0.566655 8.264999 -2.583345
v -0.800000 8.295000 -2.680000
v -1.033345 8.295000 -2.583345
v -1.130000 8.295000 -2.350000
v -1.033345 8.295000 -2.116655
v -0.800000 8.295000 -2.020000
v -0.566655 8.295000 -2.116655
v -0.470000 8.295000 -2.350000
v -0.566655 8.295000 -2.583345
v 0.800000 3.950000 -2.770000
v 0.503015 3.950000 -2.646985
v 0.380000 3.950000 -2.350000
v 0.503015 3.950000 -2.053015
v 0.800000 3.950000 -1.930000
v 1.096985 3.950000 -2.053015
v 1.220000 3.950000 -2.350000
v 1.096985 3.950000 -2.646985
v 0.800000 8.250000 -2.770000
v 0.503015 8.250000 -2.646985
v 0.380000 8.250000 -2.350000
v 0.503015 8.250000 -2.053015
v 0.800000 8.250000 -1.930000
v 1.096985 8.250000 -2.053015
v 1.220000 8.250000 -2.350000
v 1.096985 8.250000 -2.646985
v 0.800000 4.410000 -2.840000
v 0.453518 4.410000 -2.696482
v 0.310000 4.410000 -2.350000
v 0.453518 4.410000 -2.003518
v 0.800000 4.410000 -1.860000
v 1.146482 4.410000 -2.003518
v 1.290000 4.410000 -2.350000
v 1.146482 4.410000 -2.696482
v 0.800000 4.590000 -2.840000
v 0.453518 4.590000 -2.696482
v 0.310000 4.590000 -2.350000
v 0.453518 4.590000 -2.003518
v 0.800000 4.590000 -1.860000
v 1.146482 4.590000 -2.003518
v 1.290000 4.590000 -2.350000
v 1.146482 4.590000 -2.696482
v 0.800000 6.810000 -2.840000
v 0.453518 6.810000 -2.696482
v 0.310000 6.810000 -2.350000
v 0.453518 6.810000 -2.003518
v 0.800000 6.810000 -1.860000
v 1.146482 6.810000 -2.003518
v 1.290000 6.810000 -2.350000
v 1.146482 6.810000 -2.696482
v 0.800000 6.990000 -2.840000
v 0.453518 6.990000 -2.696482
v 0.310000 6.990000 -2.350000
v 0.453518 6.990000 -2.003518
v 0.800000 6.990000 -1.860000
v 1.146482 6.990000 -2.003518
v 1.290000 6.990000 -2.350000
v 1.146482 6.990000 -2.696482
v 0.800000 8.110000 -2.840000
v 0.453518 8.110000 -2.696482
v 0.310000 8.110000 -2.350000
v 0.453518 8.110000 -2.003518
v 0.800000 8.110000 -1.860000
v 1.146482 8.110000 -2.003518
v 1.290000 8.110000 -2.350000
v 1.146482 8.110000 -2.696482
v 0.800000 8.290000 -2.840000
v 0.453518 8.290000 -2.696482
v 0.310000 8.290000 -2.350000
v 0.453518 8.290000 -2.003518
v 0.800000 8.290000 -1.860000
v 1.146482 8.290000 -2.003518
v 1.290000 8.290000 -2.350000
v 1.146482 8.290000 -2.696482
v 0.800000 8.264999 -2.680000
v 0.566655 8.264999 -2.583345
v 0.470000 8.264999 -2.350000
v 0.566655 8.264999 -2.116655
v 0.800000 8.264999 -2.020000
v 1.033345 8.264999 -2.116655
v 1.130000 8.264999 -2.350000
v 1.033345 8.264999 -2.583345
v 0.800000 8.295000 -2.680000
v 0.566655 8.295000 -2.583345
v 0.470000 8.295000 -2.350000
v 0.566655 8.295000 -2.116655
v 0.800000 8.295000 -2.020000
v 1.033345 8.295000 -2.116655
v 1.130000 8.295000 -2.350000
v 1.033345 8.295000 -2.583345
v 0.400000 4.045000 1.750000
v 2.600000 4.045000 1.750000
v 2.600000 4.045000 0.250000
v 0.400000 4.045000 0.250000
v 0.400000 4.795000 1.750000
v 2.600000 4.795000 1.750000
v 2.600000 4.795000 0.250000
v 0.400000 4.795000 0.250000
v 1.500000 4.770000 0.500000
v 1.250000 4.770000 0.566987
v 1.066987 4.770000 0.750000
v 1.000000 4.770000 1.000000
v 1.066987 4.770000 1.250000
v 1.250000 4.770000 1.433013
v 1.500000 4.770000 1.500000
v 1.750000 4.770000 1.433013
v 1.933013 4.770000 1.250000
v 2.000000 4.770000 1.000000
v 1.933013 4.770000 0.750000
v 1.750000 4.770000 0.566987
v 1.500000 4.990000 0.500000
v 1.250000 4.990000 0.566987
v 1.066987 4.990000 0.750000
v 1.000000 4.990000 1.000000
v 1.066987 4.990000 1.250000
v 1.250000 4.990000 1.433013
v 1.500000 4.990000 1.500000
v 1.750000 4.990000 1.433013
v 1.933013 4.990000 1.250000
v 2.000000 4.990000 1.000000
v 1.933013 4.990000 0.750000
v 1.750000 4.990000 0.566987
v 1.500000 5.320000 0.950000
v 1.405954 5.289443 0.950000
v 1.347831 5.209443 0.950000
v 1.347831 5.110557 0.950000
v 1.405954 5.030557 0.950000
v 1.500000 5.000000 0.950000
v 1.594046 5.030557 0.950000
v 1.652169 5.110557 0.950000
v 1.652169 5.209443 0.950000
v 1.594046 5.289443 0.950000
v 1.500000 5.320000 2.750000
v 1.405954 5.289443 2.750000
v 1.347831 5.209443 2.750000
v 1.347831 5.110557 2.750000
v 1.405954 5.030557 2.750000
v 1.500000 5.000000 2.750000
v 1.594046 5.030557 2.750000
v 1.652169 5.110557 2.750000
v 1.652169 5.209443 2.750000
v 1.594046 5.289443 2.750000
v 0.975000 4.930000 1.400000
v 2.025000 4.930000 1.400000
v 2.025000 4.930000 0.600000
v 0.975000 4.930000 0.600000
v 0.975000 5.410000 1.400000
v 2.025000 5.410000 1.400000
v 2.025000 5.410000 0.600000
v 0.975000 5.410000 0.600000
vn -0.0000 -1.0000 -0.0000
vn -0.0000 1.0000 -0.0000
vn -0.0000 -0.0000 1.0000
vn 1.0000 -0.0000 -0.0000
vn -0.0000 -0.0000 -1.0000
vn -1.0000 -0.0000 -0.0000
vn -0.3827 -0.0000 -0.9239
vn -0.9239 -0.0000 -0.3827
vn -0.9239 -0.0000 0.3827
vn -0.3827 -0.0000 0.9239
vn 0.3827 -0.0000 0.9239
vn 0.9239 -0.0000 0.3827
vn 0.9239 -0.0000 -0.3827
vn 0.3827 -0.0000 -0.9239
vn -0.2588 -0.0000 -0.9659
vn -0.7071 -0.0000 -0.7071
vn -0.9659 -0.0000 -0.2588
vn -0.9659 -0.0000 0.2588
vn -0.7071 -0.0000 0.7071
vn -0.2588 -0.0000 0.9659
vn 0.2588 -0.0000 0.9659
vn 0.7071 -0.0000 0.7071
vn 0.9659 -0.0000 0.2588
vn 0.9659 -0.0000 -0.2588
vn 0.7071 -0.0000 -0.7071
vn 0.2588 -0.0000 -0.9659
vn -0.3090 0.9511 -0.0000
vn -0.8090 0.5878 -0.0000
vn -0.8090 -0.5878 -0.0000
vn -0.3090 -0.9511 -0.0000
vn 0.3090 -0.9511 -0.0000
vn 0.8090 -0.5878 -0.0000
vn 0.8090 0.5878 -0.0000
vn 0.3090 0.9511 -0.0000
vt 0.625000 0.125000
vt 0.125000 0.625000
vt 0.125000 0.125000
vt 0.625000 0.875000
vt 0.375000 0.875000
vt 0.375000 0.125000
vt 0.875000 0.125000
s 0
usemtl Field_Palette
f 3/1/1 1/1/1 4/1/1
f 6/1/2 8/1/2 5/1/2
f 2/1/3 5/1/3 1/1/3
f 3/1/4 6/1/4 2/1/4
f 4/1/5 7/1/5 3/1/5
f 1/1/6 8/1/6 4/1/6
f 11/2/1 9/2/1 12/2/1
f 14/2/2 16/2/2 13/2/2
f 10/2/3 13/2/3 9/2/3
f 11/2/4 14/2/4 10/2/4
f 12/2/5 15/2/5 11/2/5
f 9/2/6 16/2/6 12/2/6
f 19/3/1 17/3/1 20/3/1
f 22/3/2 24/3/2 21/3/2
f 18/3/3 21/3/3 17/3/3
f 19/3/4 22/3/4 18/3/4
f 20/3/5 23/3/5 19/3/5
f 17/3/6 24/3/6 20/3/6
f 27/1/1 25/1/1 28/1/1
f 30/1/2 32/1/2 29/1/2
f 26/1/3 29/1/3 25/1/3
f 27/1/4 30/1/4 26/1/4
f 28/1/5 31/1/5 27/1/5
f 25/1/6 32/1/6 28/1/6
f 35/1/1 33/1/1 36/1/1
f 38/1/2 40/1/2 37/1/2
f 34/1/3 37/1/3 33/1/3
f 35/1/4 38/1/4 34/1/4
f 36/1/5 39/1/5 35/1/5
f 33/1/6 40/1/6 36/1/6
f 43/1/1 41/1/1 44/1/1
f 46/1/2 48/1/2 45/1/2
f 42/1/3 45/1/3 41/1/3
f 43/1/4 46/1/4 42/1/4
f 44/1/5 47/1/5 43/1/5
f 41/1/6 48/1/6 44/1/6
f 51/1/1 49/1/1 52/1/1
f 54/1/2 56/1/2 53/1/2
f 50/1/3 53/1/3 49/1/3
f 51/1/4 54/1/4 50/1/4
f 52/1/5 55/1/5 51/1/5
f 49/1/6 56/1/6 52/1/6
f 59/3/1 57/3/1 60/3/1
f 62/3/2 64/3/2 61/3/2
f 58/3/3 61/3/3 57/3/3
f 59/3/4 62/3/4 58/3/4
f 60/3/5 63/3/5 59/3/5
f 57/3/6 64/3/6 60/3/6
f 67/1/1 65/1/1 68/1/1
f 70/1/2 72/1/2 69/1/2
f 66/1/3 69/1/3 65/1/3
f 67/1/4 70/1/4 66/1/4
f 68/1/5 71/1/5 67/1/5
f 65/1/6 72/1/6 68/1/6
f 75/1/1 73/1/1 76/1/1
f 78/1/2 80/1/2 77/1/2
f 74/1/3 77/1/3 73/1/3
f 75/1/4 78/1/4 74/1/4
f 76/1/5 79/1/5 75/1/5
f 73/1/6 80/1/6 76/1/6
f 83/1/1 81/1/1 84/1/1
f 86/1/2 88/1/2 85/1/2
f 82/1/3 85/1/3 81/1/3
f 83/1/4 86/1/4 82/1/4
f 84/1/5 87/1/5 83/1/5
f 81/1/6 88/1/6 84/1/6
f 91/1/1 89/1/1 92/1/1
f 94/1/2 96/1/2 93/1/2
f 90/1/3 93/1/3 89/1/3
f 91/1/4 94/1/4 90/1/4
f 92/1/5 95/1/5 91/1/5
f 89/1/6 96/1/6 92/1/6
f 99/4/1 97/4/1 100/4/1
f 102/4/2 104/4/2 101/4/2
f 98/4/3 101/4/3 97/4/3
f 99/4/4 102/4/4 98/4/4
f 100/4/5 103/4/5 99/4/5
f 97/4/6 104/4/6 100/4/6
f 107/5/1 105/5/1 108/5/1
f 110/5/2 112/5/2 109/5/2
f 106/5/3 109/5/3 105/5/3
f 107/5/4 110/5/4 106/5/4
f 108/5/5 111/5/5 107/5/5
f 105/5/6 112/5/6 108/5/6
f 115/5/1 113/5/1 116/5/1
f 118/5/2 120/5/2 117/5/2
f 114/5/3 117/5/3 113/5/3
f 115/5/4 118/5/4 114/5/4
f 116/5/5 119/5/5 115/5/5
f 113/5/6 120/5/6 116/5/6
f 123/5/1 121/5/1 124/5/1
f 126/5/2 128/5/2 125/5/2
f 122/5/3 125/5/3 121/5/3
f 123/5/4 126/5/4 122/5/4
f 124/5/5 127/5/5 123/5/5
f 121/5/6 128/5/6 124/5/6
f 131/4/1 129/4/1 132/4/1
f 134/4/2 136/4/2 133/4/2
f 130/4/3 133/4/3 129/4/3
f 131/4/4 134/4/4 130/4/4
f 132/4/5 135/4/5 131/4/5
f 129/4/6 136/4/6 132/4/6
f 139/6/1 137/6/1 140/6/1
f 142/6/2 144/6/2 141/6/2
f 138/6/3 141/6/3 137/6/3
f 139/6/4 142/6/4 138/6/4
f 140/6/5 143/6/5 139/6/5
f 137/6/6 144/6/6 140/6/6
f 147/4/1 145/4/1 148/4/1
f 150/4/2 152/4/2 149/4/2
f 146/4/3 149/4/3 145/4/3
f 147/4/4 150/4/4 146/4/4
f 148/4/5 151/4/5 147/4/5
f 145/4/6 152/4/6 148/4/6
f 155/6/1 153/6/1 156/6/1
f 158/6/2 160/6/2 157/6/2
f 154/6/3 157/6/3 153/6/3
f 155/6/4 158/6/4 154/6/4
f 156/6/5 159/6/5 155/6/5
f 153/6/6 160/6/6 156/6/6
f 163/4/1 161/4/1 164/4/1
f 166/4/2 168/4/2 165/4/2
f 162/4/3 165/4/3 161/4/3
f 163/4/4 166/4/4 162/4/4
f 164/4/5 167/4/5 163/4/5
f 161/4/6 168/4/6 164/4/6
f 171/6/1 169/6/1 172/6/1
f 174/6/2 176/6/2 173/6/2
f 170/6/3 173/6/3 169/6/3
f 171/6/4 174/6/4 170/6/4
f 172/6/5 175/6/5 171/6/5
f 169/6/6 176/6/6 172/6/6
f 179/4/1 177/4/1 180/4/1
f 182/4/2 184/4/2 181/4/2
f 178/4/3 181/4/3 177/4/3
f 179/4/4 182/4/4 178/4/4
f 180/4/5 183/4/5 179/4/5
f 177/4/6 184/4/6 180/4/6
f 187/6/1 185/6/1 188/6/1
f 190/6/2 192/6/2 189/6/2
f 186/6/3 189/6/3 185/6/3
f 187/6/4 190/6/4 186/6/4
f 188/6/5 191/6/5 187/6/5
f 185/6/6 192/6/6 188/6/6
f 195/1/1 193/1/1 196/1/1
f 198/1/2 200/1/2 197/1/2
f 194/1/3 197/1/3 193/1/3
f 195/1/4 198/1/4 194/1/4
f 196/1/5 199/1/5 195/1/5
f 193/1/6 200/1/6 196/1/6
f 203/1/1 201/1/1 204/1/1
f 206/1/2 208/1/2 205/1/2
f 202/1/3 205/1/3 201/1/3
f 203/1/4 206/1/4 202/1/4
f 204/1/5 207/1/5 203/1/5
f 201/1/6 208/1/6 204/1/6
f 211/1/1 209/1/1 212/1/1
f 214/1/2 216/1/2 213/1/2
f 210/1/3 213/1/3 209/1/3
f 211/1/4 214/1/4 210/1/4
f 212/1/5 215/1/5 211/1/5
f 209/1/6 216/1/6 212/1/6
f 219/1/1 217/1/1 220/1/1
f 222/1/2 224/1/2 221/1/2
f 218/1/3 221/1/3 217/1/3
f 219/1/4 222/1/4 218/1/4
f 220/1/5 223/1/5 219/1/5
f 217/1/6 224/1/6 220/1/6
f 227/6/1 225/6/1 228/6/1
f 230/6/2 232/6/2 229/6/2
f 226/6/3 229/6/3 225/6/3
f 227/6/4 230/6/4 226/6/4
f 228/6/5 231/6/5 227/6/5
f 225/6/6 232/6/6 228/6/6
f 235/3/1 233/3/1 236/3/1
f 238/3/2 240/3/2 237/3/2
f 234/3/3 237/3/3 233/3/3
f 235/3/4 238/3/4 234/3/4
f 236/3/5 239/3/5 235/3/5
f 233/3/6 240/3/6 236/3/6
f 243/3/1 241/3/1 244/3/1
f 246/3/2 248/3/2 245/3/2
f 242/3/3 245/3/3 241/3/3
f 243/3/4 246/3/4 242/3/4
f 244/3/5 247/3/5 243/3/5
f 241/3/6 248/3/6 244/3/6
f 251/3/1 249/3/1 252/3/1
f 254/3/2 256/3/2 253/3/2
f 250/3/3 253/3/3 249/3/3
f 251/3/4 254/3/4 250/3/4
f 252/3/5 255/3/5 251/3/5
f 249/3/6 256/3/6 252/3/6
f 259/7/1 257/7/1 260/7/1
f 262/7/2 264/7/2 261/7/2
f 258/7/3 261/7/3 257/7/3
f 259/7/4 262/7/4 258/7/4
f 260/7/5 263/7/5 259/7/5
f 257/7/6 264/7/6 260/7/6
f 267/7/1 265/7/1 268/7/1
f 270/7/2 272/7/2 269/7/2
f 266/7/3 269/7/3 265/7/3
f 267/7/4 270/7/4 266/7/4
f 268/7/5 271/7/5 267/7/5
f 265/7/6 272/7/6 268/7/6
f 275/7/1 273/7/1 276/7/1
f 278/7/2 280/7/2 277/7/2
f 274/7/3 277/7/3 273/7/3
f 275/7/4 278/7/4 274/7/4
f 276/7/5 279/7/5 275/7/5
f 273/7/6 280/7/6 276/7/6
f 281/1/1 287/1/1 285/1/1
f 282/1/7 289/1/7 281/1/7
f 283/1/8 290/1/8 282/1/8
f 284/1/9 291/1/9 283/1/9
f 285/1/10 292/1/10 284/1/10
f 286/1/11 293/1/11 285/1/11
f 287/1/12 294/1/12 286/1/12
f 288/1/13 295/1/13 287/1/13
f 281/1/14 296/1/14 288/1/14
f 296/1/2 290/1/2 292/1/2
f 298/2/1 297/2/1 301/2/1
f 298/2/7 305/2/7 297/2/7
f 299/2/8 306/2/8 298/2/8
f 300/2/9 307/2/9 299/2/9
f 301/2/10 308/2/10 300/2/10
f 302/2/11 309/2/11 301/2/11
f 303/2/12 310/2/12 302/2/12
f 304/2/13 311/2/13 303/2/13
f 297/2/14 312/2/14 304/2/14
f 308/2/2 310/2/2 312/2/2
f 314/2/1 313/2/1 317/2/1
f 314/2/7 321/2/7 313/2/7
f 315/2/8 322/2/8 314/2/8
f 316/2/9 323/2/9 315/2/9
f 317/2/10 324/2/10 316/2/10
f 318/2/11 325/2/11 317/2/11
f 319/2/12 326/2/12 318/2/12
f 320/2/13 327/2/13 319/2/13
f 313/2/14 328/2/14 320/2/14
f 324/2/2 326/2/2 328/2/2
f 330/2/1 329/2/1 333/2/1
f 330/2/7 337/2/7 329/2/7
f 331/2/8 338/2/8 330/2/8
f 332/2/9 339/2/9 331/2/9
f 333/2/10 340/2/10 332/2/10
f 334/2/11 341/2/11 333/2/11
f 335/2/12 342/2/12 334/2/12
f 336/2/13 343/2/13 335/2/13
f 329/2/14 344/2/14 336/2/14
f 340/2/2 342/2/2 344/2/2
f 349/4/1 347/4/1 345/4/1
f 346/4/7 353/4/7 345/4/7
f 347/4/8 354/4/8 346/4/8
f 348/4/9 355/4/9 347/4/9
f 349/4/10 356/4/10 348/4/10
f 350/4/11 357/4/11 349/4/11
f 351/4/12 358/4/12 350/4/12
f 352/4/13 359/4/13 351/4/13
f 345/4/14 360/4/14 352/4/14
f 359/4/2 360/4/2 356/4/2
f 365/1/1 363/1/1 361/1/1
f 362/1/7 369/1/7 361/1/7
f 363/1/8 370/1/8 362/1/8
f 364/1/9 371/1/9 363/1/9
f 365/1/10 372/1/10 364/1/10
f 366/1/11 373/1/11 365/1/11
f 367/1/12 374/1/12 366/1/12
f 368/1/13 375/1/13 367/1/13
f 361/1/14 376/1/14 368/1/14
f 374/1/2 375/1/2 376/1/2
f 381/2/1 379/2/1 377/2/1
f 378/2/7 385/2/7 377/2/7
f 379/2/8 386/2/8 378/2/8
f 380/2/9 387/2/9 379/2/9
f 381/2/10 388/2/10 380/2/10
f 382/2/11 389/2/11 381/2/11
f 383/2/12 390/2/12 382/2/12
f 384/2/13 391/2/13 383/2/13
f 377/2/14 392/2/14 384/2/14
f 388/2/2 390/2/2 392/2/2
f 397/2/1 395/2/1 393/2/1
f 394/2/7 401/2/7 393/2/7
f 395/2/8 402/2/8 394/2/8
f 396/2/9 403/2/9 395/2/9
f 397/2/10 404/2/10 396/2/10
f 398/2/11 405/2/11 397/2/11
f 399/2/12 406/2/12 398/2/12
f 400/2/13 407/2/13 399/2/13
f 393/2/14 408/2/14 400/2/14
f 404/2/2 406/2/2 408/2/2
f 413/2/1 411/2/1 409/2/1
f 410/2/7 417/2/7 409/2/7
f 411/2/8 418/2/8 410/2/8
f 412/2/9 419/2/9 411/2/9
f 413/2/10 420/2/10 412/2/10
f 414/2/11 421/2/11 413/2/11
f 415/2/12 422/2/12 414/2/12
f 416/2/13 423/2/13 415/2/13
f 409/2/14 424/2/14 416/2/14
f 420/2/2 422/2/2 424/2/2
f 429/4/1 427/4/1 425/4/1
f 426/4/7 433/4/7 425/4/7
f 427/4/8 434/4/8 426/4/8
f 428/4/9 435/4/9 427/4/9
f 429/4/10 436/4/10 428/4/10
f 430/4/11 437/4/11 429/4/11
f 431/4/12 438/4/12 430/4/12
f 432/4/13 439/4/13 431/4/13
f 425/4/14 440/4/14 432/4/14
f 438/4/2 439/4/2 440/4/2
f 442/1/1 441/1/1 445/1/1
f 442/1/7 449/1/7 441/1/7
f 443/1/8 450/1/8 442/1/8
f 444/1/9 451/1/9 443/1/9
f 445/1/10 452/1/10 444/1/10
f 446/1/11 453/1/11 445/1/11
f 447/1/12 454/1/12 446/1/12
f 448/1/13 455/1/13 447/1/13
f 441/1/14 456/1/14 448/1/14
f 454/1/2 455/1/2 456/1/2
f 461/2/1 459/2/1 457/2/1
f 458/2/7 465/2/7 457/2/7
f 459/2/8 466/2/8 458/2/8
f 460/2/9 467/2/9 459/2/9
f 461/2/10 468/2/10 460/2/10
f 462/2/11 469/2/11 461/2/11
f 463/2/12 470/2/12 462/2/12
f 464/2/13 471/2/13 463/2/13
f 457/2/14 472/2/14 464/2/14
f 468/2/2 470/2/2 472/2/2
f 477/2/1 475/2/1 473/2/1
f 474/2/7 481/2/7 473/2/7
f 475/2/8 482/2/8 474/2/8
f 476/2/9 483/2/9 475/2/9
f 477/2/10 484/2/10 476/2/10
f 478/2/11 485/2/11 477/2/11
f 479/2/12 486/2/12 478/2/12
f 480/2/13 487/2/13 479/2/13
f 473/2/14 488/2/14 480/2/14
f 484/2/2 486/2/2 488/2/2
f 493/2/1 491/2/1 489/2/1
f 490/2/7 497/2/7 489/2/7
f 491/2/8 498/2/8 490/2/8
f 492/2/9 499/2/9 491/2/9
f 493/2/10 500/2/10 492/2/10
f 494/2/11 501/2/11 493/2/11
f 495/2/12 502/2/12 494/2/12
f 496/2/13 503/2/13 495/2/13
f 489/2/14 504/2/14 496/2/14
f 500/2/2 502/2/2 504/2/2
f 509/4/1 507/4/1 505/4/1
f 506/4/7 513/4/7 505/4/7
f 507/4/8 514/4/8 506/4/8
f 508/4/9 515/4/9 507/4/9
f 509/4/10 516/4/10 508/4/10
f 510/4/11 517/4/11 509/4/11
f 511/4/12 518/4/12 510/4/12
f 512/4/13 519/4/13 511/4/13
f 505/4/14 520/4/14 512/4/14
f 518/4/2 519/4/2 520/4/2
f 523/3/1 521/3/1 524/3/1
f 526/3/2 528/3/2 525/3/2
f 522/3/3 525/3/3 521/3/3
f 523/3/4 526/3/4 522/3/4
f 524/3/5 527/3/5 523/3/5
f 521/3/6 528/3/6 524/3/6
f 537/2/1 533/2/1 529/2/1
f 530/2/15 541/2/15 529/2/15
f 531/2/16 542/2/16 530/2/16
f 532/2/17 543/2/17 531/2/17
f 533/2/18 544/2/18 532/2/18
f 534/2/19 545/2/19 533/2/19
f 535/2/20 546/2/20 534/2/20
f 536/2/21 547/2/21 535/2/21
f 537/2/22 548/2/22 536/2/22
f 538/2/23 549/2/23 537/2/23
f 539/2/24 550/2/24 538/2/24
f 540/2/25 551/2/25 539/2/25
f 529/2/26 552/2/26 540/2/26
f 544/2/2 548/2/2 552/2/2
f 559/7/5 555/7/5 553/7/5
f 554/7/27 563/7/27 553/7/27
f 555/7/28 564/7/28 554/7/28
f 556/7/6 565/7/6 555/7/6
f 557/7/29 566/7/29 556/7/29
f 558/7/30 567/7/30 557/7/30
f 559/7/31 568/7/31 558/7/31
f 560/7/32 569/7/32 559/7/32
f 561/7/4 570/7/4 560/7/4
f 562/7/33 571/7/33 561/7/33
f 553/7/34 572/7/34 562/7/34
f 568/7/3 570/7/3 572/7/3
f 575/6/1 573/6/1 576/6/1
f 578/6/2 580/6/2 577/6/2
f 574/6/3 577/6/3 573/6/3
f 575/6/4 578/6/4 574/6/4
f 576/6/5 579/6/5 575/6/5
f 573/6/6 580/6/6 576/6/6
f 3/1/1 2/1/1 1/1/1
f 6/1/2 7/1/2 8/1/2
f 2/1/3 6/1/3 5/1/3
f 3/1/4 7/1/4 6/1/4
f 4/1/5 8/1/5 7/1/5
f 1/1/6 5/1/6 8/1/6
f 11/2/1 10/2/1 9/2/1
f 14/2/2 15/2/2 16/2/2
f 10/2/3 14/2/3 13/2/3
f 11/2/4 15/2/4 14/2/4
f 12/2/5 16/2/5 15/2/5
f 9/2/6 13/2/6 16/2/6
f 19/3/1 18/3/1 17/3/1
f 22/3/2 23/3/2 24/3/2
f 18/3/3 22/3/3 21/3/3
f 19/3/4 23/3/4 22/3/4
f 20/3/5 24/3/5 23/3/5
f 17/3/6 21/3/6 24/3/6
f 27/1/1 26/1/1 25/1/1
f 30/1/2 31/1/2 32/1/2
f 26/1/3 30/1/3 29/1/3
f 27/1/4 31/1/4 30/1/4
f 28/1/5 32/1/5 31/1/5
f 25/1/6 29/1/6 32/1/6
f 35/1/1 34/1/1 33/1/1
f 38/1/2 39/1/2 40/1/2
f 34/1/3 38/1/3 37/1/3
f 35/1/4 39/1/4 38/1/4
f 36/1/5 40/1/5 39/1/5
f 33/1/6 37/1/6 40/1/6
f 43/1/1 42/1/1 41/1/1
f 46/1/2 47/1/2 48/1/2
f 42/1/3 46/1/3 45/1/3
f 43/1/4 47/1/4 46/1/4
f 44/1/5 48/1/5 47/1/5
f 41/1/6 45/1/6 48/1/6
f 51/1/1 50/1/1 49/1/1
f 54/1/2 55/1/2 56/1/2
f 50/1/3 54/1/3 53/1/3
f 51/1/4 55/1/4 54/1/4
f 52/1/5 56/1/5 55/1/5
f 49/1/6 53/1/6 56/1/6
f 59/3/1 58/3/1 57/3/1
f 62/3/2 63/3/2 64/3/2
f 58/3/3 62/3/3 61/3/3
f 59/3/4 63/3/4 62/3/4
f 60/3/5 64/3/5 63/3/5
f 57/3/6 61/3/6 64/3/6
f 67/1/1 66/1/1 65/1/1
f 70/1/2 71/1/2 72/1/2
f 66/1/3 70/1/3 69/1/3
f 67/1/4 71/1/4 70/1/4
f 68/1/5 72/1/5 71/1/5
f 65/1/6 69/1/6 72/1/6
f 75/1/1 74/1/1 73/1/1
f 78/1/2 79/1/2 80/1/2
f 74/1/3 78/1/3 77/1/3
f 75/1/4 79/1/4 78/1/4
f 76/1/5 80/1/5 79/1/5
f 73/1/6 77/1/6 80/1/6
f 83/1/1 82/1/1 81/1/1
f 86/1/2 87/1/2 88/1/2
f 82/1/3 86/1/3 85/1/3
f 83/1/4 87/1/4 86/1/4
f 84/1/5 88/1/5 87/1/5
f 81/1/6 85/1/6 88/1/6
f 91/1/1 90/1/1 89/1/1
f 94/1/2 95/1/2 96/1/2
f 90/1/3 94/1/3 93/1/3
f 91/1/4 95/1/4 94/1/4
f 92/1/5 96/1/5 95/1/5
f 89/1/6 93/1/6 96/1/6
f 99/4/1 98/4/1 97/4/1
f 102/4/2 103/4/2 104/4/2
f 98/4/3 102/4/3 101/4/3
f 99/4/4 103/4/4 102/4/4
f 100/4/5 104/4/5 103/4/5
f 97/4/6 101/4/6 104/4/6
f 107/5/1 106/5/1 105/5/1
f 110/5/2 111/5/2 112/5/2
f 106/5/3 110/5/3 109/5/3
f 107/5/4 111/5/4 110/5/4
f 108/5/5 112/5/5 111/5/5
f 105/5/6 109/5/6 112/5/6
f 115/5/1 114/5/1 113/5/1
f 118/5/2 119/5/2 120/5/2
f 114/5/3 118/5/3 117/5/3
f 115/5/4 119/5/4 118/5/4
f 116/5/5 120/5/5 119/5/5
f 113/5/6 117/5/6 120/5/6
f 123/5/1 122/5/1 121/5/1
f 126/5/2 127/5/2 128/5/2
f 122/5/3 126/5/3 125/5/3
f 123/5/4 127/5/4 126/5/4
f 124/5/5 128/5/5 127/5/5
f 121/5/6 125/5/6 128/5/6
f 131/4/1 130/4/1 129/4/1
f 134/4/2 135/4/2 136/4/2
f 130/4/3 134/4/3 133/4/3
f 131/4/4 135/4/4 134/4/4
f 132/4/5 136/4/5 135/4/5
f 129/4/6 133/4/6 136/4/6
f 139/6/1 138/6/1 137/6/1
f 142/6/2 143/6/2 144/6/2
f 138/6/3 142/6/3 141/6/3
f 139/6/4 143/6/4 142/6/4
f 140/6/5 144/6/5 143/6/5
f 137/6/6 141/6/6 144/6/6
f 147/4/1 146/4/1 145/4/1
f 150/4/2 151/4/2 152/4/2
f 146/4/3 150/4/3 149/4/3
f 147/4/4 151/4/4 150/4/4
f 148/4/5 152/4/5 151/4/5
f 145/4/6 149/4/6 152/4/6
f 155/6/1 154/6/1 153/6/1
f 158/6/2 159/6/2 160/6/2
f 154/6/3 158/6/3 157/6/3
f 155/6/4 159/6/4 158/6/4
f 156/6/5 160/6/5 159/6/5
f 153/6/6 157/6/6 160/6/6
f 163/4/1 162/4/1 161/4/1
f 166/4/2 167/4/2 168/4/2
f 162/4/3 166/4/3 165/4/3
f 163/4/4 167/4/4 166/4/4
f 164/4/5 168/4/5 167/4/5
f 161/4/6 165/4/6 168/4/6
f 171/6/1 170/6/1 169/6/1
f 174/6/2 175/6/2 176/6/2
f 170/6/3 174/6/3 173/6/3
f 171/6/4 175/6/4 174/6/4
f 172/6/5 176/6/5 175/6/5
f 169/6/6 173/6/6 176/6/6
f 179/4/1 178/4/1 177/4/1
f 182/4/2 183/4/2 184/4/2
f 178/4/3 182/4/3 181/4/3
f 179/4/4 183/4/4 182/4/4
f 180/4/5 184/4/5 183/4/5
f 177/4/6 181/4/6 184/4/6
f 187/6/1 186/6/1 185/6/1
f 190/6/2 191/6/2 192/6/2
f 186/6/3 190/6/3 189/6/3
f 187/6/4 191/6/4 190/6/4
f 188/6/5 192/6/5 191/6/5
f 185/6/6 189/6/6 192/6/6
f 195/1/1 194/1/1 193/1/1
f 198/1/2 199/1/2 200/1/2
f 194/1/3 198/1/3 197/1/3
f 195/1/4 199/1/4 198/1/4
f 196/1/5 200/1/5 199/1/5
f 193/1/6 197/1/6 200/1/6
f 203/1/1 202/1/1 201/1/1
f 206/1/2 207/1/2 208/1/2
f 202/1/3 206/1/3 205/1/3
f 203/1/4 207/1/4 206/1/4
f 204/1/5 208/1/5 207/1/5
f 201/1/6 205/1/6 208/1/6
f 211/1/1 210/1/1 209/1/1
f 214/1/2 215/1/2 216/1/2
f 210/1/3 214/1/3 213/1/3
f 211/1/4 215/1/4 214/1/4
f 212/1/5 216/1/5 215/1/5
f 209/1/6 213/1/6 216/1/6
f 219/1/1 218/1/1 217/1/1
f 222/1/2 223/1/2 224/1/2
f 218/1/3 222/1/3 221/1/3
f 219/1/4 223/1/4 222/1/4
f 220/1/5 224/1/5 223/1/5
f 217/1/6 221/1/6 224/1/6
f 227/6/1 226/6/1 225/6/1
f 230/6/2 231/6/2 232/6/2
f 226/6/3 230/6/3 229/6/3
f 227/6/4 231/6/4 230/6/4
f 228/6/5 232/6/5 231/6/5
f 225/6/6 229/6/6 232/6/6
f 235/3/1 234/3/1 233/3/1
f 238/3/2 239/3/2 240/3/2
f 234/3/3 238/3/3 237/3/3
f 235/3/4 239/3/4 238/3/4
f 236/3/5 240/3/5 239/3/5
f 233/3/6 237/3/6 240/3/6
f 243/3/1 242/3/1 241/3/1
f 246/3/2 247/3/2 248/3/2
f 242/3/3 246/3/3 245/3/3
f 243/3/4 247/3/4 246/3/4
f 244/3/5 248/3/5 247/3/5
f 241/3/6 245/3/6 248/3/6
f 251/3/1 250/3/1 249/3/1
f 254/3/2 255/3/2 256/3/2
f 250/3/3 254/3/3 253/3/3
f 251/3/4 255/3/4 254/3/4
f 252/3/5 256/3/5 255/3/5
f 249/3/6 253/3/6 256/3/6
f 259/7/1 258/7/1 257/7/1
f 262/7/2 263/7/2 264/7/2
f 258/7/3 262/7/3 261/7/3
f 259/7/4 263/7/4 262/7/4
f 260/7/5 264/7/5 263/7/5
f 257/7/6 261/7/6 264/7/6
f 267/7/1 266/7/1 265/7/1
f 270/7/2 271/7/2 272/7/2
f 266/7/3 270/7/3 269/7/3
f 267/7/4 271/7/4 270/7/4
f 268/7/5 272/7/5 271/7/5
f 265/7/6 269/7/6 272/7/6
f 275/7/1 274/7/1 273/7/1
f 278/7/2 279/7/2 280/7/2
f 274/7/3 278/7/3 277/7/3
f 275/7/4 279/7/4 278/7/4
f 276/7/5 280/7/5 279/7/5
f 273/7/6 277/7/6 280/7/6
f 281/1/1 288/1/1 287/1/1
f 287/1/1 286/1/1 285/1/1
f 285/1/1 284/1/1 283/1/1
f 283/1/1 282/1/1 285/1/1
f 282/1/1 281/1/1 285/1/1
f 282/1/7 290/1/7 289/1/7
f 283/1/8 291/1/8 290/1/8
f 284/1/9 292/1/9 291/1/9
f 285/1/10 293/1/10 292/1/10
f 286/1/11 294/1/11 293/1/11
f 287/1/12 295/1/12 294/1/12
f 288/1/13 296/1/13 295/1/13
f 281/1/14 289/1/14 296/1/14
f 296/1/2 289/1/2 290/1/2
f 290/1/2 291/1/2 292/1/2
f 292/1/2 293/1/2 294/1/2
f 294/1/2 295/1/2 292/1/2
f 295/1/2 296/1/2 292/1/2
f 297/2/1 304/2/1 303/2/1
f 303/2/1 302/2/1 297/2/1
f 302/2/1 301/2/1 297/2/1
f 301/2/1 300/2/1 299/2/1
f 299/2/1 298/2/1 301/2/1
f 298/2/7 306/2/7 305/2/7
f 299/2/8 307/2/8 306/2/8
f 300/2/9 308/2/9 307/2/9
f 301/2/10 309/2/10 308/2/10
f 302/2/11 310/2/11 309/2/11
f 303/2/12 311/2/12 310/2/12
f 304/2/13 312/2/13 311/2/13
f 297/2/14 305/2/14 312/2/14
f 312/2/2 305/2/2 306/2/2
f 306/2/2 307/2/2 308/2/2
f 308/2/2 309/2/2 310/2/2
f 310/2/2 311/2/2 312/2/2
f 312/2/2 306/2/2 308/2/2
f 313/2/1 320/2/1 319/2/1
f 319/2/1 318/2/1 313/2/1
f 318/2/1 317/2/1 313/2/1
f 317/2/1 316/2/1 315/2/1
f 315/2/1 314/2/1 317/2/1
f 314/2/7 322/2/7 321/2/7
f 315/2/8 323/2/8 322/2/8
f 316/2/9 324/2/9 323/2/9
f 317/2/10 325/2/10 324/2/10
f 318/2/11 326/2/11 325/2/11
f 319/2/12 327/2/12 326/2/12
f 320/2/13 328/2/13 327/2/13
f 313/2/14 321/2/14 328/2/14
f 328/2/2 321/2/2 322/2/2
f 322/2/2 323/2/2 324/2/2
f 324/2/2 325/2/2 326/2/2
f 326/2/2 327/2/2 328/2/2
f 328/2/2 322/2/2 324/2/2
f 329/2/1 336/2/1 335/2/1
f 335/2/1 334/2/1 329/2/1
f 334/2/1 333/2/1 329/2/1
f 333/2/1 332/2/1 331/2/1
f 331/2/1 330/2/1 333/2/1
f 330/2/7 338/2/7 337/2/7
f 331/2/8 339/2/8 338/2/8
f 332/2/9 340/2/9 339/2/9
f 333/2/10 341/2/10 340/2/10
f 334/2/11 342/2/11 341/2/11
f 335/2/12 343/2/12 342/2/12
f 336/2/13 344/2/13 343/2/13
f 329/2/14 337/2/14 344/2/14
f 344/2/2 337/2/2 338/2/2
f 338/2/2 339/2/2 340/2/2
f 340/2/2 341/2/2 342/2/2
f 342/2/2 343/2/2 344/2/2
f 344/2/2 338/2/2 340/2/2
f 345/4/1 352/4/1 351/4/1
f 351/4/1 350/4/1 349/4/1
f 349/4/1 348/4/1 347/4/1
f 347/4/1 346/4/1 345/4/1
f 345/4/1 351/4/1 349/4/1
f 346/4/7 354/4/7 353/4/7
f 347/4/8 355/4/8 354/4/8
f 348/4/9 356/4/9 355/4/9
f 349/4/10 357/4/10 356/4/10
f 350/4/11 358/4/11 357/4/11
f 351/4/12 359/4/12 358/4/12
f 352/4/13 360/4/13 359/4/13
f 345/4/14 353/4/14 360/4/14
f 360/4/2 353/4/2 354/4/2
f 354/4/2 355/4/2 360/4/2
f 355/4/2 356/4/2 360/4/2
f 356/4/2 357/4/2 358/4/2
f 358/4/2 359/4/2 356/4/2
f 361/1/1 368/1/1 365/1/1
f 368/1/1 367/1/1 365/1/1
f 367/1/1 366/1/1 365/1/1
f 365/1/1 364/1/1 363/1/1
f 363/1/1 362/1/1 361/1/1
f 362/1/7 370/1/7 369/1/7
f 363/1/8 371/1/8 370/1/8
f 364/1/9 372/1/9 371/1/9
f 365/1/10 373/1/10 372/1/10
f 366/1/11 374/1/11 373/1/11
f 367/1/12 375/1/12 374/1/12
f 368/1/13 376/1/13 375/1/13
f 361/1/14 369/1/14 376/1/14
f 376/1/2 369/1/2 370/1/2
f 370/1/2 371/1/2 376/1/2
f 371/1/2 372/1/2 376/1/2
f 372/1/2 373/1/2 376/1/2
f 373/1/2 374/1/2 376/1/2
f 377/2/1 384/2/1 383/2/1
f 383/2/1 382/2/1 381/2/1
f 381/2/1 380/2/1 379/2/1
f 379/2/1 378/2/1 377/2/1
f 377/2/1 383/2/1 381/2/1
f 378/2/7 386/2/7 385/2/7
f 379/2/8 387/2/8 386/2/8
f 380/2/9 388/2/9 387/2/9
f 381/2/10 389/2/10 388/2/10
f 382/2/11 390/2/11 389/2/11
f 383/2/12 391/2/12 390/2/12
f 384/2/13 392/2/13 391/2/13
f 377/2/14 385/2/14 392/2/14
f 392/2/2 385/2/2 386/2/2
f 386/2/2 387/2/2 388/2/2
f 388/2/2 389/2/2 390/2/2
f 390/2/2 391/2/2 392/2/2
f 392/2/2 386/2/2 388/2/2
f 393/2/1 400/2/1 399/2/1
f 399/2/1 398/2/1 397/2/1
f 397/2/1 396/2/1 395/2/1
f 395/2/1 394/2/1 393/2/1
f 393/2/1 399/2/1 397/2/1
f 394/2/7 402/2/7 401/2/7
f 395/2/8 403/2/8 402/2/8
f 396/2/9 404/2/9 403/2/9
f 397/2/10 405/2/10 404/2/10
f 398/2/11 406/2/11 405/2/11
f 399/2/12 407/2/12 406/2/12
f 400/2/13 408/2/13 407/2/13
f 393/2/14 401/2/14 408/2/14
f 408/2/2 401/2/2 402/2/2
f 402/2/2 403/2/2 404/2/2
f 404/2/2 405/2/2 406/2/2
f 406/2/2 407/2/2 408/2/2
f 408/2/2 402/2/2 404/2/2
f 409/2/1 416/2/1 415/2/1
f 415/2/1 414/2/1 413/2/1
f 413/2/1 412/2/1 411/2/1
f 411/2/1 410/2/1 409/2/1
f 409/2/1 415/2/1 413/2/1
f 410/2/7 418/2/7 417/2/7
f 411/2/8 419/2/8 418/2/8
f 412/2/9 420/2/9 419/2/9
f 413/2/10 421/2/10 420/2/10
f 414/2/11 422/2/11 421/2/11
f 415/2/12 423/2/12 422/2/12
f 416/2/13 424/2/13 423/2/13
f 409/2/14 417/2/14 424/2/14
f 424/2/2 417/2/2 418/2/2
f 418/2/2 419/2/2 420/2/2
f 420/2/2 421/2/2 422/2/2
f 422/2/2 423/2/2 424/2/2
f 424/2/2 418/2/2 420/2/2
f 425/4/1 432/4/1 431/4/1
f 431/4/1 430/4/1 429/4/1
f 429/4/1 428/4/1 427/4/1
f 427/4/1 426/4/1 425/4/1
f 425/4/1 431/4/1 429/4/1
f 426/4/7 434/4/7 433/4/7
f 427/4/8 435/4/8 434/4/8
f 428/4/9 436/4/9 435/4/9
f 429/4/10 437/4/10 436/4/10
f 430/4/11 438/4/11 437/4/11
f 431/4/12 439/4/12 438/4/12
f 432/4/13 440/4/13 439/4/13
f 425/4/14 433/4/14 440/4/14
f 440/4/2 433/4/2 436/4/2
f 433/4/2 434/4/2 436/4/2
f 434/4/2 435/4/2 436/4/2
f 436/4/2 437/4/2 440/4/2
f 437/4/2 438/4/2 440/4/2
f 441/1/1 448/1/1 445/1/1
f 448/1/1 447/1/1 445/1/1
f 447/1/1 446/1/1 445/1/1
f 445/1/1 444/1/1 443/1/1
f 443/1/1 442/1/1 445/1/1
f 442/1/7 450/1/7 449/1/7
f 443/1/8 451/1/8 450/1/8
f 444/1/9 452/1/9 451/1/9
f 445/1/10 453/1/10 452/1/10
f 446/1/11 454/1/11 453/1/11
f 447/1/12 455/1/12 454/1/12
f 448/1/13 456/1/13 455/1/13
f 441/1/14 449/1/14 456/1/14
f 456/1/2 449/1/2 450/1/2
f 450/1/2 451/1/2 456/1/2
f 451/1/2 452/1/2 456/1/2
f 452/1/2 453/1/2 456/1/2
f 453/1/2 454/1/2 456/1/2
f 457/2/1 464/2/1 463/2/1
f 463/2/1 462/2/1 461/2/1
f 461/2/1 460/2/1 459/2/1
f 459/2/1 458/2/1 457/2/1
f 457/2/1 463/2/1 461/2/1
f 458/2/7 466/2/7 465/2/7
f 459/2/8 467/2/8 466/2/8
f 460/2/9 468/2/9 467/2/9
f 461/2/10 469/2/10 468/2/10
f 462/2/11 470/2/11 469/2/11
f 463/2/12 471/2/12 470/2/12
f 464/2/13 472/2/13 471/2/13
f 457/2/14 465/2/14 472/2/14
f 472/2/2 465/2/2 466/2/2
f 466/2/2 467/2/2 468/2/2
f 468/2/2 469/2/2 470/2/2
f 470/2/2 471/2/2 472/2/2
f 472/2/2 466/2/2 468/2/2
f 473/2/1 480/2/1 479/2/1
f 479/2/1 478/2/1 477/2/1
f 477/2/1 476/2/1 475/2/1
f 475/2/1 474/2/1 473/2/1
f 473/2/1 479/2/1 477/2/1
f 474/2/7 482/2/7 481/2/7
f 475/2/8 483/2/8 482/2/8
f 476/2/9 484/2/9 483/2/9
f 477/2/10 485/2/10 484/2/10
f 478/2/11 486/2/11 485/2/11
f 479/2/12 487/2/12 486/2/12
f 480/2/13 488/2/13 487/2/13
f 473/2/14 481/2/14 488/2/14
f 488/2/2 481/2/2 482/2/2
f 482/2/2 483/2/2 484/2/2
f 484/2/2 485/2/2 486/2/2
f 486/2/2 487/2/2 488/2/2
f 488/2/2 482/2/2 484/2/2
f 489/2/1 496/2/1 495/2/1
f 495/2/1 494/2/1 493/2/1
f 493/2/1 492/2/1 491/2/1
f 491/2/1 490/2/1 489/2/1
f 489/2/1 495/2/1 493/2/1
f 490/2/7 498/2/7 497/2/7
f 491/2/8 499/2/8 498/2/8
f 492/2/9 500/2/9 499/2/9
f 493/2/10 501/2/10 500/2/10
f 494/2/11 502/2/11 501/2/11
f 495/2/12 503/2/12 502/2/12
f 496/2/13 504/2/13 503/2/13
f 489/2/14 497/2/14 504/2/14
f 504/2/2 497/2/2 498/2/2
f 498/2/2 499/2/2 500/2/2
f 500/2/2 501/2/2 502/2/2
f 502/2/2 503/2/2 504/2/2
f 504/2/2 498/2/2 500/2/2
f 505/4/1 512/4/1 511/4/1
f 511/4/1 510/4/1 509/4/1
f 509/4/1 508/4/1 507/4/1
f 507/4/1 506/4/1 505/4/1
f 505/4/1 511/4/1 509/4/1
f 506/4/7 514/4/7 513/4/7
f 507/4/8 515/4/8 514/4/8
f 508/4/9 516/4/9 515/4/9
f 509/4/10 517/4/10 516/4/10
f 510/4/11 518/4/11 517/4/11
f 511/4/12 519/4/12 518/4/12
f 512/4/13 520/4/13 519/4/13
f 505/4/14 513/4/14 520/4/14
f 520/4/2 513/4/2 516/4/2
f 513/4/2 514/4/2 516/4/2
f 514/4/2 515/4/2 516/4/2
f 516/4/2 517/4/2 520/4/2
f 517/4/2 518/4/2 520/4/2
f 523/3/1 522/3/1 521/3/1
f 526/3/2 527/3/2 528/3/2
f 522/3/3 526/3/3 525/3/3
f 523/3/4 527/3/4 526/3/4
f 524/3/5 528/3/5 527/3/5
f 521/3/6 525/3/6 528/3/6
f 529/2/1 540/2/1 539/2/1
f 539/2/1 538/2/1 529/2/1
f 538/2/1 537/2/1 529/2/1
f 537/2/1 536/2/1 535/2/1
f 535/2/1 534/2/1 533/2/1
f 533/2/1 532/2/1 529/2/1
f 532/2/1 531/2/1 529/2/1
f 531/2/1 530/2/1 529/2/1
f 537/2/1 535/2/1 533/2/1
f 530/2/15 542/2/15 541/2/15
f 531/2/16 543/2/16 542/2/16
f 532/2/17 544/2/17 543/2/17
f 533/2/18 545/2/18 544/2/18
f 534/2/19 546/2/19 545/2/19
f 535/2/20 547/2/20 546/2/20
f 536/2/21 548/2/21 547/2/21
f 537/2/22 549/2/22 548/2/22
f 538/2/23 550/2/23 549/2/23
f 539/2/24 551/2/24 550/2/24
f 540/2/25 552/2/25 551/2/25
f 529/2/26 541/2/26 552/2/26
f 552/2/2 541/2/2 544/2/2
f 541/2/2 542/2/2 544/2/2
f 542/2/2 543/2/2 544/2/2
f 544/2/2 545/2/2 546/2/2
f 546/2/2 547/2/2 544/2/2
f 547/2/2 548/2/2 544/2/2
f 548/2/2 549/2/2 550/2/2
f 550/2/2 551/2/2 552/2/2
f 548/2/2 550/2/2 552/2/2
f 553/7/5 562/7/5 561/7/5
f 561/7/5 560/7/5 559/7/5
f 559/7/5 558/7/5 555/7/5
f 558/7/5 557/7/5 555/7/5
f 557/7/5 556/7/5 555/7/5
f 555/7/5 554/7/5 553/7/5
f 553/7/5 561/7/5 559/7/5
f 554/7/27 564/7/27 563/7/27
f 555/7/28 565/7/28 564/7/28
f 556/7/6 566/7/6 565/7/6
f 557/7/29 567/7/29 566/7/29
f 558/7/30 568/7/30 567/7/30
f 559/7/31 569/7/31 568/7/31
f 560/7/32 570/7/32 569/7/32
f 561/7/4 571/7/4 570/7/4
f 562/7/33 572/7/33 571/7/33
f 553/7/34 563/7/34 572/7/34
f 572/7/3 563/7/3 566/7/3
f 563/7/3 564/7/3 566/7/3
f 564/7/3 565/7/3 566/7/3
f 566/7/3 567/7/3 568/7/3
f 568/7/3 569/7/3 570/7/3
f 570/7/3 571/7/3 572/7/3
f 566/7/3 568/7/3 572/7/3
f 575/6/1 574/6/1 573/6/1
f 578/6/2 579/6/2 580/6/2
f 574/6/3 578/6/3 577/6/3
f 575/6/4 579/6/4 578/6/4
f 576/6/5 580/6/5 579/6/5
f 573/6/6 577/6/6 580/6/6
