# Blender 5.2.1 LTS
# www.blender.org
mtllib mine.mtl
o MineBody
v 0.000000 0.000000 -0.660000
v -0.330000 0.000000 -0.571577
v -0.571577 0.000000 -0.330000
v -0.660000 0.000000 -0.000000
v -0.571577 0.000000 0.330000
v -0.330000 0.000000 0.571577
v -0.000000 0.000000 0.660000
v 0.330000 0.000000 0.571577
v 0.571577 0.000000 0.330000
v 0.660000 0.000000 0.000000
v 0.571577 0.000000 -0.330000
v 0.330000 0.000000 -0.571577
v 0.000000 0.300000 -0.660000
v -0.330000 0.300000 -0.571577
v -0.571577 0.300000 -0.330000
v -0.660000 0.300000 -0.000000
v -0.571577 0.300000 0.330000
v -0.330000 0.300000 0.571577
v -0.000000 0.300000 0.660000
v 0.330000 0.300000 0.571577
v 0.571577 0.300000 0.330000
v 0.660000 0.300000 0.000000
v 0.571577 0.300000 -0.330000
v 0.330000 0.300000 -0.571577
v 0.000000 0.270000 -0.550000
v -0.275000 0.270000 -0.476314
v -0.476314 0.270000 -0.275000
v -0.550000 0.270000 -0.000000
v -0.476314 0.270000 0.275000
v -0.275000 0.270000 0.476314
v -0.000000 0.270000 0.550000
v 0.275000 0.270000 0.476314
v 0.476314 0.270000 0.275000
v 0.550000 0.270000 0.000000
v 0.476314 0.270000 -0.275000
v 0.275000 0.270000 -0.476314
v 0.000000 0.390000 -0.550000
v -0.275000 0.390000 -0.476314
v -0.476314 0.390000 -0.275000
v -0.550000 0.390000 -0.000000
v -0.476314 0.390000 0.275000
v -0.275000 0.390000 0.476314
v -0.000000 0.390000 0.550000
v 0.275000 0.390000 0.476314
v 0.476314 0.390000 0.275000
v 0.550000 0.390000 0.000000
v 0.476314 0.390000 -0.275000
v 0.275000 0.390000 -0.476314
v 0.000000 0.385000 -0.280000
v -0.164580 0.385000 -0.226525
v -0.266296 0.385000 -0.086525
v -0.266296 0.385000 0.086525
v -0.164580 0.385000 0.226525
v -0.000000 0.385000 0.280000
v 0.164580 0.385000 0.226525
v 0.266296 0.385000 0.086525
v 0.266296 0.385000 -0.086525
v 0.164580 0.385000 -0.226525
v 0.000000 0.425000 -0.280000
v -0.164580 0.425000 -0.226525
v -0.266296 0.425000 -0.086525
v -0.266296 0.425000 0.086525
v -0.164580 0.425000 0.226525
v -0.000000 0.425000 0.280000
v 0.164580 0.425000 0.226525
v 0.266296 0.425000 0.086525
v 0.266296 0.425000 -0.086525
v 0.164580 0.425000 -0.226525
v -0.500000 0.395500 0.210000
v -0.400000 0.395500 0.210000
v -0.400000 0.395500 -0.210000
v -0.500000 0.395500 -0.210000
v -0.500000 0.420500 0.210000
v -0.400000 0.420500 0.210000
v -0.400000 0.420500 -0.210000
v -0.500000 0.420500 -0.210000
v 0.400000 0.395500 0.210000
v 0.500000 0.395500 0.210000
v 0.500000 0.395500 -0.210000
v 0.400000 0.395500 -0.210000
v 0.400000 0.420500 0.210000
v 0.500000 0.420500 0.210000
v 0.500000 0.420500 -0.210000
v 0.400000 0.420500 -0.210000
v 0.440000 0.380500 -0.035000
v 0.409689 0.380500 -0.017500
v 0.409689 0.380500 0.017500
v 0.440000 0.380500 0.035000
v 0.470311 0.380500 0.017500
v 0.470311 0.380500 -0.017500
v 0.440000 0.415500 -0.035000
v 0.409689 0.415500 -0.017500
v 0.409689 0.415500 0.017500
v 0.440000 0.415500 0.035000
v 0.470311 0.415500 0.017500
v 0.470311 0.415500 -0.017500
v 0.311127 0.380500 0.276127
v 0.280816 0.380500 0.293627
v 0.280816 0.380500 0.328627
v 0.311127 0.380500 0.346127
v 0.341438 0.380500 0.328627
v 0.341438 0.380500 0.293627
v 0.311127 0.415500 0.276127
v 0.280816 0.415500 0.293627
v 0.280816 0.415500 0.328627
v 0.311127 0.415500 0.346127
v 0.341438 0.415500 0.328627
v 0.341438 0.415500 0.293627
v 0.000000 0.380500 0.405000
v -0.030311 0.380500 0.422500
v -0.030311 0.380500 0.457500
v 0.000000 0.380500 0.475000
v 0.030311 0.380500 0.457500
v 0.030311 0.380500 0.422500
v 0.000000 0.415500 0.405000
v -0.030311 0.415500 0.422500
v -0.030311 0.415500 0.457500
v 0.000000 0.415500 0.475000
v 0.030311 0.415500 0.457500
v 0.030311 0.415500 0.422500
v -0.311127 0.380500 0.276127
v -0.341438 0.380500 0.293627
v -0.341438 0.380500 0.328627
v -0.311127 0.380500 0.346127
v -0.280816 0.380500 0.328627
v -0.280816 0.380500 0.293627
v -0.311127 0.415500 0.276127
v -0.341438 0.415500 0.293627
v -0.341438 0.415500 0.328627
v -0.311127 0.415500 0.346127
v -0.280816 0.415500 0.328627
v -0.280816 0.415500 0.293627
v -0.440000 0.380500 -0.035000
v -0.470311 0.380500 -0.017500
v -0.470311 0.380500 0.017500
v -0.440000 0.380500 0.035000
v -0.409689 0.380500 0.017500
v -0.409689 0.380500 -0.017500
v -0.440000 0.415500 -0.035000
v -0.470311 0.415500 -0.017500
v -0.470311 0.415500 0.017500
v -0.440000 0.415500 0.035000
v -0.409689 0.415500 0.017500
v -0.409689 0.415500 -0.017500
v -0.311127 0.380500 -0.346127
v -0.341438 0.380500 -0.328627
v -0.341438 0.380500 -0.293627
v -0.311127 0.380500 -0.276127
v -0.280816 0.380500 -0.293627
v -0.280816 0.380500 -0.328627
v -0.311127 0.415500 -0.346127
v -0.341438 0.415500 -0.328627
v -0.341438 0.415500 -0.293627
v -0.311127 0.415500 -0.276127
v -0.280816 0.415500 -0.293627
v -0.280816 0.415500 -0.328627
v -0.000000 0.380500 -0.475000
v -0.030311 0.380500 -0.457500
v -0.030311 0.380500 -0.422500
v -0.000000 0.380500 -0.405000
v 0.030311 0.380500 -0.422500
v 0.030311 0.380500 -0.457500
v -0.000000 0.415500 -0.475000
v -0.030311 0.415500 -0.457500
v -0.030311 0.415500 -0.422500
v -0.000000 0.415500 -0.405000
v 0.030311 0.415500 -0.422500
v 0.030311 0.415500 -0.457500
v 0.311127 0.380500 -0.346127
v 0.280816 0.380500 -0.328627
v 0.280816 0.380500 -0.293627
v 0.311127 0.380500 -0.276127
v 0.341438 0.380500 -0.293627
v 0.341438 0.380500 -0.328627
v 0.311127 0.415500 -0.346127
v 0.280816 0.415500 -0.328627
v 0.280816 0.415500 -0.293627
v 0.311127 0.415500 -0.276127
v 0.341438 0.415500 -0.293627
v 0.341438 0.415500 -0.328627
v -0.626000 0.180000 0.113000
v -0.514000 0.180000 0.113000
v -0.502000 0.180000 0.101000
v -0.502000 0.180000 -0.101000
v -0.514000 0.180000 -0.113000
v -0.626000 0.180000 -0.113000
v -0.638000 0.180000 -0.101000
v -0.638000 0.180000 0.101000
v -0.638000 0.192000 0.125000
v -0.502000 0.192000 0.125000
v -0.490000 0.192000 0.113000
v -0.490000 0.192000 -0.113000
v -0.502000 0.192000 -0.125000
v -0.638000 0.192000 -0.125000
v -0.650000 0.192000 -0.113000
v -0.650000 0.192000 0.113000
v -0.638000 0.268000 0.125000
v -0.502000 0.268000 0.125000
v -0.490000 0.268000 0.113000
v -0.490000 0.268000 -0.113000
v -0.502000 0.268000 -0.125000
v -0.638000 0.268000 -0.125000
v -0.650000 0.268000 -0.113000
v -0.650000 0.268000 0.113000
v -0.626000 0.280000 0.113000
v -0.514000 0.280000 0.113000
v -0.502000 0.280000 0.101000
v -0.502000 0.280000 -0.101000
v -0.514000 0.280000 -0.113000
v -0.626000 0.280000 -0.113000
v -0.638000 0.280000 -0.101000
v -0.638000 0.280000 0.101000
v -0.647500 0.210000 0.055000
v -0.612500 0.210000 0.055000
v -0.612500 0.210000 -0.055000
v -0.647500 0.210000 -0.055000
v -0.647500 0.250000 0.055000
v -0.612500 0.250000 0.055000
v -0.612500 0.250000 -0.055000
v -0.647500 0.250000 -0.055000
v 0.514000 0.180000 0.113000
v 0.626000 0.180000 0.113000
v 0.638000 0.180000 0.101000
v 0.638000 0.180000 -0.101000
v 0.626000 0.180000 -0.113000
v 0.514000 0.180000 -0.113000
v 0.502000 0.180000 -0.101000
v 0.502000 0.180000 0.101000
v 0.502000 0.192000 0.125000
v 0.638000 0.192000 0.125000
v 0.650000 0.192000 0.113000
v 0.650000 0.192000 -0.113000
v 0.638000 0.192000 -0.125000
v 0.502000 0.192000 -0.125000
v 0.490000 0.192000 -0.113000
v 0.490000 0.192000 0.113000
v 0.502000 0.268000 0.125000
v 0.638000 0.268000 0.125000
v 0.650000 0.268000 0.113000
v 0.650000 0.268000 -0.113000
v 0.638000 0.268000 -0.125000
v 0.502000 0.268000 -0.125000
v 0.490000 0.268000 -0.113000
v 0.490000 0.268000 0.113000
v 0.514000 0.280000 0.113000
v 0.626000 0.280000 0.113000
v 0.638000 0.280000 0.101000
v 0.638000 0.280000 -0.101000
v 0.626000 0.280000 -0.113000
v 0.514000 0.280000 -0.113000
v 0.502000 0.280000 -0.101000
v 0.502000 0.280000 0.101000
v 0.612500 0.210000 0.055000
v 0.647500 0.210000 0.055000
v 0.647500 0.210000 -0.055000
v 0.612500 0.210000 -0.055000
v 0.612500 0.250000 0.055000
v 0.647500 0.250000 0.055000
v 0.647500 0.250000 -0.055000
v 0.612500 0.250000 -0.055000
v -0.130000 0.230000 0.595500
v 0.130000 0.230000 0.595500
v 0.130000 0.230000 0.550500
v -0.130000 0.230000 0.550500
v -0.130000 0.350000 0.595500
v 0.130000 0.350000 0.595500
v 0.130000 0.350000 0.550500
v -0.130000 0.350000 0.550500
v -0.070000 0.277500 0.612000
v 0.070000 0.277500 0.612000
v 0.070000 0.277500 0.594000
v -0.070000 0.277500 0.594000
v -0.070000 0.322500 0.612000
v 0.070000 0.322500 0.612000
v 0.070000 0.322500 0.594000
v -0.070000 0.322500 0.594000
vn -0.0000 -1.0000 -0.0000
vn -0.2588 -0.0000 -0.9659
vn -0.7071 -0.0000 -0.7071
vn -0.9659 -0.0000 -0.2588
vn -0.9659 -0.0000 0.2588
vn -0.7071 -0.0000 0.7071
vn -0.2588 -0.0000 0.9659
vn 0.2588 -0.0000 0.9659
vn 0.7071 -0.0000 0.7071
vn 0.9659 -0.0000 0.2588
vn 0.9659 -0.0000 -0.2588
vn 0.7071 -0.0000 -0.7071
vn 0.2588 -0.0000 -0.9659
vn -0.0000 1.0000 -0.0000
vn -0.3090 -0.0000 -0.9511
vn -0.8090 -0.0000 -0.5878
vn -1.0000 -0.0000 -0.0000
vn -0.8090 -0.0000 0.5878
vn -0.3090 -0.0000 0.9511
vn 0.3090 -0.0000 0.9511
vn 0.8090 -0.0000 0.5878
vn 1.0000 -0.0000 -0.0000
vn 0.8090 -0.0000 -0.5878
vn 0.3090 -0.0000 -0.9511
vn -0.0000 -0.0000 1.0000
vn -0.0000 -0.0000 -1.0000
vn -0.5000 -0.0000 -0.8660
vn -0.5000 -0.0000 0.8660
vn 0.5000 -0.0000 0.8660
vn 0.5000 -0.0000 -0.8660
vn -0.0000 -0.7071 0.7071
vn 0.4082 -0.8165 0.4083
vn 0.7071 -0.7071 -0.0000
vn 0.4082 -0.8165 -0.4082
vn -0.0000 -0.7071 -0.7071
vn -0.4082 -0.8165 -0.4083
vn -0.7071 -0.7071 -0.0000
vn -0.4082 -0.8165 0.4082
vn -0.0000 0.7071 0.7071
vn 0.4082 0.8165 0.4083
vn 0.7071 0.7071 -0.0000
vn 0.4082 0.8165 -0.4082
vn -0.0000 0.7071 -0.7071
vn -0.4082 0.8165 -0.4083
vn -0.7071 0.7071 -0.0000
vn -0.4082 0.8165 0.4082
vn 0.4082 -0.8165 0.4082
vn 0.4082 -0.8165 -0.4083
vn -0.4082 -0.8165 -0.4082
vn -0.4082 -0.8165 0.4083
vn 0.4082 0.8165 0.4082
vn 0.4082 0.8165 -0.4083
vn -0.4082 0.8165 -0.4082
vn -0.4082 0.8165 0.4083
vt 0.625000 0.125000
vt 0.125000 0.125000
vt 0.875000 0.125000
vt 0.375000 0.875000
vt 0.125000 0.625000
vt 0.625000 0.875000
vt 0.375000 0.125000
s 0
usemtl Field_Palette
f 9/1/1 5/1/1 1/1/1
f 2/1/2 13/1/2 1/1/2
f 3/1/3 14/1/3 2/1/3
f 4/1/4 15/1/4 3/1/4
f 5/1/5 16/1/5 4/1/5
f 6/1/6 17/1/6 5/1/6
f 7/1/7 18/1/7 6/1/7
f 8/1/8 19/1/8 7/1/8
f 9/1/9 20/1/9 8/1/9
f 10/1/10 21/1/10 9/1/10
f 11/1/11 22/1/11 10/1/11
f 12/1/12 23/1/12 11/1/12
f 1/1/13 24/1/13 12/1/13
f 16/1/14 20/1/14 24/1/14
f 33/2/1 29/2/1 25/2/1
f 26/2/2 37/2/2 25/2/2
f 27/2/3 38/2/3 26/2/3
f 28/2/4 39/2/4 27/2/4
f 29/2/5 40/2/5 28/2/5
f 30/2/6 41/2/6 29/2/6
f 31/2/7 42/2/7 30/2/7
f 32/2/8 43/2/8 31/2/8
f 33/2/9 44/2/9 32/2/9
f 34/2/10 45/2/10 33/2/10
f 35/2/11 46/2/11 34/2/11
f 36/2/12 47/2/12 35/2/12
f 25/2/13 48/2/13 36/2/13
f 40/2/14 44/2/14 48/2/14
f 55/3/1 53/3/1 51/3/1
f 50/3/15 59/3/15 49/3/15
f 51/3/16 60/3/16 50/3/16
f 52/3/17 61/3/17 51/3/17
f 53/3/18 62/3/18 52/3/18
f 54/3/19 63/3/19 53/3/19
f 55/3/20 64/3/20 54/3/20
f 56/3/21 65/3/21 55/3/21
f 57/3/22 66/3/22 56/3/22
f 58/3/23 67/3/23 57/3/23
f 49/3/24 68/3/24 58/3/24
f 62/3/14 66/3/14 68/3/14
f 71/4/1 69/4/1 72/4/1
f 74/4/14 76/4/14 73/4/14
f 70/4/25 73/4/25 69/4/25
f 71/4/22 74/4/22 70/4/22
f 72/4/26 75/4/26 71/4/26
f 69/4/17 76/4/17 72/4/17
f 79/4/1 77/4/1 80/4/1
f 82/4/14 84/4/14 81/4/14
f 78/4/25 81/4/25 77/4/25
f 79/4/22 82/4/22 78/4/22
f 80/4/26 83/4/26 79/4/26
f 77/4/17 84/4/17 80/4/17
f 87/5/1 86/5/1 85/5/1
f 86/5/27 91/5/27 85/5/27
f 87/5/17 92/5/17 86/5/17
f 88/5/28 93/5/28 87/5/28
f 89/5/29 94/5/29 88/5/29
f 90/5/22 95/5/22 89/5/22
f 85/5/30 96/5/30 90/5/30
f 94/5/14 95/5/14 96/5/14
f 99/5/1 98/5/1 97/5/1
f 98/5/27 103/5/27 97/5/27
f 99/5/17 104/5/17 98/5/17
f 100/5/28 105/5/28 99/5/28
f 101/5/29 106/5/29 100/5/29
f 102/5/22 107/5/22 101/5/22
f 97/5/30 108/5/30 102/5/30
f 106/5/14 107/5/14 108/5/14
f 111/5/1 110/5/1 109/5/1
f 110/5/27 115/5/27 109/5/27
f 111/5/17 116/5/17 110/5/17
f 112/5/28 117/5/28 111/5/28
f 113/5/29 118/5/29 112/5/29
f 114/5/22 119/5/22 113/5/22
f 109/5/30 120/5/30 114/5/30
f 118/5/14 119/5/14 120/5/14
f 123/5/1 122/5/1 121/5/1
f 122/5/27 127/5/27 121/5/27
f 123/5/17 128/5/17 122/5/17
f 124/5/28 129/5/28 123/5/28
f 125/5/29 130/5/29 124/5/29
f 126/5/22 131/5/22 125/5/22
f 121/5/30 132/5/30 126/5/30
f 130/5/14 131/5/14 132/5/14
f 135/5/1 134/5/1 133/5/1
f 134/5/27 139/5/27 133/5/27
f 135/5/17 140/5/17 134/5/17
f 136/5/28 141/5/28 135/5/28
f 137/5/29 142/5/29 136/5/29
f 138/5/22 143/5/22 137/5/22
f 133/5/30 144/5/30 138/5/30
f 142/5/14 143/5/14 144/5/14
f 147/5/1 146/5/1 145/5/1
f 146/5/27 151/5/27 145/5/27
f 147/5/17 152/5/17 146/5/17
f 148/5/28 153/5/28 147/5/28
f 149/5/29 154/5/29 148/5/29
f 150/5/22 155/5/22 149/5/22
f 145/5/30 156/5/30 150/5/30
f 154/5/14 155/5/14 156/5/14
f 159/5/1 158/5/1 157/5/1
f 158/5/27 163/5/27 157/5/27
f 159/5/17 164/5/17 158/5/17
f 160/5/28 165/5/28 159/5/28
f 161/5/29 166/5/29 160/5/29
f 162/5/22 167/5/22 161/5/22
f 157/5/30 168/5/30 162/5/30
f 166/5/14 167/5/14 168/5/14
f 171/5/1 170/5/1 169/5/1
f 170/5/27 175/5/27 169/5/27
f 171/5/17 176/5/17 170/5/17
f 172/5/28 177/5/28 171/5/28
f 173/5/29 178/5/29 172/5/29
f 174/5/22 179/5/22 173/5/22
f 169/5/30 180/5/30 174/5/30
f 178/5/14 179/5/14 180/5/14
f 183/5/1 182/5/1 181/5/1
f 182/5/31 189/5/31 181/5/31
f 182/5/32 191/5/32 190/5/32
f 184/5/33 191/5/33 183/5/33
f 185/5/34 192/5/34 184/5/34
f 186/5/35 193/5/35 185/5/35
f 187/5/36 194/5/36 186/5/36
f 188/5/37 195/5/37 187/5/37
f 188/5/38 189/5/38 196/5/38
f 190/5/25 197/5/25 189/5/25
f 191/5/9 198/5/9 190/5/9
f 192/5/22 199/5/22 191/5/22
f 193/5/12 200/5/12 192/5/12
f 194/5/26 201/5/26 193/5/26
f 195/5/3 202/5/3 194/5/3
f 196/5/17 203/5/17 195/5/17
f 189/5/6 204/5/6 196/5/6
f 198/5/39 205/5/39 197/5/39
f 198/5/40 207/5/40 206/5/40
f 200/5/41 207/5/41 199/5/41
f 201/5/42 208/5/42 200/5/42
f 202/5/43 209/5/43 201/5/43
f 202/5/44 211/5/44 210/5/44
f 204/5/45 211/5/45 203/5/45
f 197/5/46 212/5/46 204/5/46
f 211/5/14 212/5/14 208/5/14
f 215/6/1 213/6/1 216/6/1
f 218/6/14 220/6/14 217/6/14
f 214/6/25 217/6/25 213/6/25
f 215/6/22 218/6/22 214/6/22
f 216/6/26 219/6/26 215/6/26
f 213/6/17 220/6/17 216/6/17
f 223/5/1 222/5/1 221/5/1
f 222/5/31 229/5/31 221/5/31
f 223/5/32 230/5/32 222/5/32
f 224/5/33 231/5/33 223/5/33
f 224/5/34 233/5/34 232/5/34
f 226/5/35 233/5/35 225/5/35
f 226/5/36 235/5/36 234/5/36
f 228/5/37 235/5/37 227/5/37
f 221/5/38 236/5/38 228/5/38
f 230/5/25 237/5/25 229/5/25
f 231/5/9 238/5/9 230/5/9
f 232/5/22 239/5/22 231/5/22
f 233/5/12 240/5/12 232/5/12
f 234/5/26 241/5/26 233/5/26
f 235/5/3 242/5/3 234/5/3
f 236/5/17 243/5/17 235/5/17
f 229/5/6 244/5/6 236/5/6
f 238/5/39 245/5/39 237/5/39
f 238/5/40 247/5/40 246/5/40
f 240/5/41 247/5/41 239/5/41
f 241/5/42 248/5/42 240/5/42
f 242/5/43 249/5/43 241/5/43
f 242/5/44 251/5/44 250/5/44
f 244/5/45 251/5/45 243/5/45
f 237/5/46 252/5/46 244/5/46
f 251/5/14 252/5/14 248/5/14
f 255/6/1 253/6/1 256/6/1
f 258/6/14 260/6/14 257/6/14
f 254/6/25 257/6/25 253/6/25
f 255/6/22 258/6/22 254/6/22
f 256/6/26 259/6/26 255/6/26
f 253/6/17 260/6/17 256/6/17
f 263/7/1 261/7/1 264/7/1
f 266/7/14 268/7/14 265/7/14
f 262/7/25 265/7/25 261/7/25
f 263/7/22 266/7/22 262/7/22
f 264/7/26 267/7/26 263/7/26
f 261/7/17 268/7/17 264/7/17
f 271/3/1 269/3/1 272/3/1
f 274/3/14 276/3/14 273/3/14
f 270/3/25 273/3/25 269/3/25
f 271/3/22 274/3/22 270/3/22
f 272/3/26 275/3/26 271/3/26
f 269/3/17 276/3/17 272/3/17
f 1/1/1 12/1/1 11/1/1
f 11/1/1 10/1/1 9/1/1
f 9/1/1 8/1/1 7/1/1
f 7/1/1 6/1/1 5/1/1
f 5/1/1 4/1/1 3/1/1
f 3/1/1 2/1/1 1/1/1
f 1/1/1 11/1/1 9/1/1
f 9/1/1 7/1/1 5/1/1
f 5/1/1 3/1/1 1/1/1
f 2/1/2 14/1/2 13/1/2
f 3/1/3 15/1/3 14/1/3
f 4/1/4 16/1/4 15/1/4
f 5/1/5 17/1/5 16/1/5
f 6/1/6 18/1/6 17/1/6
f 7/1/7 19/1/7 18/1/7
f 8/1/8 20/1/8 19/1/8
f 9/1/9 21/1/9 20/1/9
f 10/1/10 22/1/10 21/1/10
f 11/1/11 23/1/11 22/1/11
f 12/1/12 24/1/12 23/1/12
f 1/1/13 13/1/13 24/1/13
f 24/1/14 13/1/14 14/1/14
f 14/1/14 15/1/14 16/1/14
f 16/1/14 17/1/14 18/1/14
f 18/1/14 19/1/14 20/1/14
f 20/1/14 21/1/14 22/1/14
f 22/1/14 23/1/14 24/1/14
f 24/1/14 14/1/14 16/1/14
f 16/1/14 18/1/14 20/1/14
f 20/1/14 22/1/14 24/1/14
f 25/2/1 36/2/1 35/2/1
f 35/2/1 34/2/1 33/2/1
f 33/2/1 32/2/1 31/2/1
f 31/2/1 30/2/1 33/2/1
f 30/2/1 29/2/1 33/2/1
f 29/2/1 28/2/1 27/2/1
f 27/2/1 26/2/1 25/2/1
f 25/2/1 35/2/1 33/2/1
f 29/2/1 27/2/1 25/2/1
f 26/2/2 38/2/2 37/2/2
f 27/2/3 39/2/3 38/2/3
f 28/2/4 40/2/4 39/2/4
f 29/2/5 41/2/5 40/2/5
f 30/2/6 42/2/6 41/2/6
f 31/2/7 43/2/7 42/2/7
f 32/2/8 44/2/8 43/2/8
f 33/2/9 45/2/9 44/2/9
f 34/2/10 46/2/10 45/2/10
f 35/2/11 47/2/11 46/2/11
f 36/2/12 48/2/12 47/2/12
f 25/2/13 37/2/13 48/2/13
f 48/2/14 37/2/14 38/2/14
f 38/2/14 39/2/14 40/2/14
f 40/2/14 41/2/14 42/2/14
f 42/2/14 43/2/14 44/2/14
f 44/2/14 45/2/14 46/2/14
f 46/2/14 47/2/14 44/2/14
f 47/2/14 48/2/14 44/2/14
f 48/2/14 38/2/14 40/2/14
f 40/2/14 42/2/14 44/2/14
f 49/3/1 58/3/1 57/3/1
f 57/3/1 56/3/1 55/3/1
f 55/3/1 54/3/1 53/3/1
f 53/3/1 52/3/1 51/3/1
f 51/3/1 50/3/1 55/3/1
f 50/3/1 49/3/1 55/3/1
f 49/3/1 57/3/1 55/3/1
f 50/3/15 60/3/15 59/3/15
f 51/3/16 61/3/16 60/3/16
f 52/3/17 62/3/17 61/3/17
f 53/3/18 63/3/18 62/3/18
f 54/3/19 64/3/19 63/3/19
f 55/3/20 65/3/20 64/3/20
f 56/3/21 66/3/21 65/3/21
f 57/3/22 67/3/22 66/3/22
f 58/3/23 68/3/23 67/3/23
f 49/3/24 59/3/24 68/3/24
f 68/3/14 59/3/14 60/3/14
f 60/3/14 61/3/14 62/3/14
f 62/3/14 63/3/14 64/3/14
f 64/3/14 65/3/14 66/3/14
f 66/3/14 67/3/14 68/3/14
f 68/3/14 60/3/14 62/3/14
f 62/3/14 64/3/14 66/3/14
f 71/4/1 70/4/1 69/4/1
f 74/4/14 75/4/14 76/4/14
f 70/4/25 74/4/25 73/4/25
f 71/4/22 75/4/22 74/4/22
f 72/4/26 76/4/26 75/4/26
f 69/4/17 73/4/17 76/4/17
f 79/4/1 78/4/1 77/4/1
f 82/4/14 83/4/14 84/4/14
f 78/4/25 82/4/25 81/4/25
f 79/4/22 83/4/22 82/4/22
f 80/4/26 84/4/26 83/4/26
f 77/4/17 81/4/17 84/4/17
f 85/5/1 90/5/1 89/5/1
f 89/5/1 88/5/1 85/5/1
f 88/5/1 87/5/1 85/5/1
f 86/5/27 92/5/27 91/5/27
f 87/5/17 93/5/17 92/5/17
f 88/5/28 94/5/28 93/5/28
f 89/5/29 95/5/29 94/5/29
f 90/5/22 96/5/22 95/5/22
f 85/5/30 91/5/30 96/5/30
f 96/5/14 91/5/14 94/5/14
f 91/5/14 92/5/14 94/5/14
f 92/5/14 93/5/14 94/5/14
f 97/5/1 102/5/1 101/5/1
f 101/5/1 100/5/1 97/5/1
f 100/5/1 99/5/1 97/5/1
f 98/5/27 104/5/27 103/5/27
f 99/5/17 105/5/17 104/5/17
f 100/5/28 106/5/28 105/5/28
f 101/5/29 107/5/29 106/5/29
f 102/5/22 108/5/22 107/5/22
f 97/5/30 103/5/30 108/5/30
f 108/5/14 103/5/14 106/5/14
f 103/5/14 104/5/14 106/5/14
f 104/5/14 105/5/14 106/5/14
f 109/5/1 114/5/1 113/5/1
f 113/5/1 112/5/1 109/5/1
f 112/5/1 111/5/1 109/5/1
f 110/5/27 116/5/27 115/5/27
f 111/5/17 117/5/17 116/5/17
f 112/5/28 118/5/28 117/5/28
f 113/5/29 119/5/29 118/5/29
f 114/5/22 120/5/22 119/5/22
f 109/5/30 115/5/30 120/5/30
f 120/5/14 115/5/14 118/5/14
f 115/5/14 116/5/14 118/5/14
f 116/5/14 117/5/14 118/5/14
f 121/5/1 126/5/1 125/5/1
f 125/5/1 124/5/1 121/5/1
f 124/5/1 123/5/1 121/5/1
f 122/5/27 128/5/27 127/5/27
f 123/5/17 129/5/17 128/5/17
f 124/5/28 130/5/28 129/5/28
f 125/5/29 131/5/29 130/5/29
f 126/5/22 132/5/22 131/5/22
f 121/5/30 127/5/30 132/5/30
f 132/5/14 127/5/14 130/5/14
f 127/5/14 128/5/14 130/5/14
f 128/5/14 129/5/14 130/5/14
f 133/5/1 138/5/1 137/5/1
f 137/5/1 136/5/1 133/5/1
f 136/5/1 135/5/1 133/5/1
f 134/5/27 140/5/27 139/5/27
f 135/5/17 141/5/17 140/5/17
f 136/5/28 142/5/28 141/5/28
f 137/5/29 143/5/29 142/5/29
f 138/5/22 144/5/22 143/5/22
f 133/5/30 139/5/30 144/5/30
f 144/5/14 139/5/14 142/5/14
f 139/5/14 140/5/14 142/5/14
f 140/5/14 141/5/14 142/5/14
f 145/5/1 150/5/1 149/5/1
f 149/5/1 148/5/1 145/5/1
f 148/5/1 147/5/1 145/5/1
f 146/5/27 152/5/27 151/5/27
f 147/5/17 153/5/17 152/5/17
f 148/5/28 154/5/28 153/5/28
f 149/5/29 155/5/29 154/5/29
f 150/5/22 156/5/22 155/5/22
f 145/5/30 151/5/30 156/5/30
f 156/5/14 151/5/14 154/5/14
f 151/5/14 152/5/14 154/5/14
f 152/5/14 153/5/14 154/5/14
f 157/5/1 162/5/1 161/5/1
f 161/5/1 160/5/1 157/5/1
f 160/5/1 159/5/1 157/5/1
f 158/5/27 164/5/27 163/5/27
f 159/5/17 165/5/17 164/5/17
f 160/5/28 166/5/28 165/5/28
f 161/5/29 167/5/29 166/5/29
f 162/5/22 168/5/22 167/5/22
f 157/5/30 163/5/30 168/5/30
f 168/5/14 163/5/14 166/5/14
f 163/5/14 164/5/14 166/5/14
f 164/5/14 165/5/14 166/5/14
f 169/5/1 174/5/1 173/5/1
f 173/5/1 172/5/1 169/5/1
f 172/5/1 171/5/1 169/5/1
f 170/5/27 176/5/27 175/5/27
f 171/5/17 177/5/17 176/5/17
f 172/5/28 178/5/28 177/5/28
f 173/5/29 179/5/29 178/5/29
f 174/5/22 180/5/22 179/5/22
f 169/5/30 175/5/30 180/5/30
f 180/5/14 175/5/14 178/5/14
f 175/5/14 176/5/14 178/5/14
f 176/5/14 177/5/14 178/5/14
f 181/5/1 188/5/1 183/5/1
f 188/5/1 187/5/1 183/5/1
f 187/5/1 186/5/1 185/5/1
f 185/5/1 184/5/1 187/5/1
f 184/5/1 183/5/1 187/5/1
f 182/5/31 190/5/31 189/5/31
f 182/5/47 183/5/47 191/5/47
f 184/5/33 192/5/33 191/5/33
f 185/5/48 193/5/48 192/5/48
f 186/5/35 194/5/35 193/5/35
f 187/5/49 195/5/49 194/5/49
f 188/5/37 196/5/37 195/5/37
f 188/5/50 181/5/50 189/5/50
f 190/5/25 198/5/25 197/5/25
f 191/5/9 199/5/9 198/5/9
f 192/5/22 200/5/22 199/5/22
f 193/5/12 201/5/12 200/5/12
f 194/5/26 202/5/26 201/5/26
f 195/5/3 203/5/3 202/5/3
f 196/5/17 204/5/17 203/5/17
f 189/5/6 197/5/6 204/5/6
f 198/5/39 206/5/39 205/5/39
f 198/5/51 199/5/51 207/5/51
f 200/5/41 208/5/41 207/5/41
f 201/5/52 209/5/52 208/5/52
f 202/5/43 210/5/43 209/5/43
f 202/5/53 203/5/53 211/5/53
f 204/5/45 212/5/45 211/5/45
f 197/5/54 205/5/54 212/5/54
f 212/5/14 205/5/14 206/5/14
f 206/5/14 207/5/14 212/5/14
f 207/5/14 208/5/14 212/5/14
f 208/5/14 209/5/14 210/5/14
f 210/5/14 211/5/14 208/5/14
f 215/6/1 214/6/1 213/6/1
f 218/6/14 219/6/14 220/6/14
f 214/6/25 218/6/25 217/6/25
f 215/6/22 219/6/22 218/6/22
f 216/6/26 220/6/26 219/6/26
f 213/6/17 217/6/17 220/6/17
f 221/5/1 228/5/1 223/5/1
f 228/5/1 227/5/1 223/5/1
f 227/5/1 226/5/1 225/5/1
f 225/5/1 224/5/1 227/5/1
f 224/5/1 223/5/1 227/5/1
f 222/5/31 230/5/31 229/5/31
f 223/5/47 231/5/47 230/5/47
f 224/5/33 232/5/33 231/5/33
f 224/5/48 225/5/48 233/5/48
f 226/5/35 234/5/35 233/5/35
f 226/5/49 227/5/49 235/5/49
f 228/5/37 236/5/37 235/5/37
f 221/5/50 229/5/50 236/5/50
f 230/5/25 238/5/25 237/5/25
f 231/5/9 239/5/9 238/5/9
f 232/5/22 240/5/22 239/5/22
f 233/5/12 241/5/12 240/5/12
f 234/5/26 242/5/26 241/5/26
f 235/5/3 243/5/3 242/5/3
f 236/5/17 244/5/17 243/5/17
f 229/5/6 237/5/6 244/5/6
f 238/5/39 246/5/39 245/5/39
f 238/5/51 239/5/51 247/5/51
f 240/5/41 248/5/41 247/5/41
f 241/5/52 249/5/52 248/5/52
f 242/5/43 250/5/43 249/5/43
f 242/5/53 243/5/53 251/5/53
f 244/5/45 252/5/45 251/5/45
f 237/5/54 245/5/54 252/5/54
f 252/5/14 245/5/14 246/5/14
f 246/5/14 247/5/14 252/5/14
f 247/5/14 248/5/14 252/5/14
f 248/5/14 249/5/14 250/5/14
f 250/5/14 251/5/14 248/5/14
f 255/6/1 254/6/1 253/6/1
f 258/6/14 259/6/14 260/6/14
f 254/6/25 258/6/25 257/6/25
f 255/6/22 259/6/22 258/6/22
f 256/6/26 260/6/26 259/6/26
f 253/6/17 257/6/17 260/6/17
f 263/7/1 262/7/1 261/7/1
f 266/7/14 267/7/14 268/7/14
f 262/7/25 266/7/25 265/7/25
f 263/7/22 267/7/22 266/7/22
f 264/7/26 268/7/26 267/7/26
f 261/7/17 265/7/17 268/7/17
f 271/3/1 270/3/1 269/3/1
f 274/3/14 275/3/14 276/3/14
f 270/3/25 274/3/25 273/3/25
f 271/3/22 275/3/22 274/3/22
f 272/3/26 276/3/26 275/3/26
f 269/3/17 273/3/17 276/3/17
o MineSignal
v 0.000000 0.424500 -0.160000
v -0.080000 0.424500 -0.138564
v -0.138564 0.424500 -0.080000
v -0.160000 0.424500 -0.000000
v -0.138564 0.424500 0.080000
v -0.080000 0.424500 0.138564
v -0.000000 0.424500 0.160000
v 0.080000 0.424500 0.138564
v 0.138564 0.424500 0.080000
v 0.160000 0.424500 0.000000
v 0.138564 0.424500 -0.080000
v 0.080000 0.424500 -0.138564
v 0.000000 0.469500 -0.160000
v -0.080000 0.469500 -0.138564
v -0.138564 0.469500 -0.080000
v -0.160000 0.469500 -0.000000
v -0.138564 0.469500 0.080000
v -0.080000 0.469500 0.138564
v -0.000000 0.469500 0.160000
v 0.080000 0.469500 0.138564
v 0.138564 0.469500 0.080000
v 0.160000 0.469500 0.000000
v 0.138564 0.469500 -0.080000
v 0.080000 0.469500 -0.138564
vn -0.0000 -1.0000 -0.0000
vn -0.2588 -0.0000 -0.9659
vn -0.7071 -0.0000 -0.7071
vn -0.9659 -0.0000 -0.2588
vn -0.9659 -0.0000 0.2588
vn -0.7071 -0.0000 0.7071
vn -0.2588 -0.0000 0.9659
vn 0.2588 -0.0000 0.9659
vn 0.7071 -0.0000 0.7071
vn 0.9659 -0.0000 0.2588
vn 0.9659 -0.0000 -0.2588
vn 0.7071 -0.0000 -0.7071
vn 0.2588 -0.0000 -0.9659
vn -0.0000 1.0000 -0.0000
vt 0.875000 0.875000
s 0
usemtl Field_Palette
f 287/8/55 285/8/55 281/8/55
f 278/8/56 289/8/56 277/8/56
f 279/8/57 290/8/57 278/8/57
f 280/8/58 291/8/58 279/8/58
f 281/8/59 292/8/59 280/8/59
f 282/8/60 293/8/60 281/8/60
f 283/8/61 294/8/61 282/8/61
f 284/8/62 295/8/62 283/8/62
f 285/8/63 296/8/63 284/8/63
f 286/8/64 297/8/64 285/8/64
f 287/8/65 298/8/65 286/8/65
f 288/8/66 299/8/66 287/8/66
f 277/8/67 300/8/67 288/8/67
f 290/8/68 292/8/68 296/8/68
f 277/8/55 288/8/55 287/8/55
f 287/8/55 286/8/55 285/8/55
f 285/8/55 284/8/55 281/8/55
f 284/8/55 283/8/55 281/8/55
f 283/8/55 282/8/55 281/8/55
f 281/8/55 280/8/55 277/8/55
f 280/8/55 279/8/55 277/8/55
f 279/8/55 278/8/55 277/8/55
f 277/8/55 287/8/55 281/8/55
f 278/8/56 290/8/56 289/8/56
f 279/8/57 291/8/57 290/8/57
f 280/8/58 292/8/58 291/8/58
f 281/8/59 293/8/59 292/8/59
f 282/8/60 294/8/60 293/8/60
f 283/8/61 295/8/61 294/8/61
f 284/8/62 296/8/62 295/8/62
f 285/8/63 297/8/63 296/8/63
f 286/8/64 298/8/64 297/8/64
f 287/8/65 299/8/65 298/8/65
f 288/8/66 300/8/66 299/8/66
f 277/8/67 289/8/67 300/8/67
f 300/8/68 289/8/68 290/8/68
f 290/8/68 291/8/68 292/8/68
f 292/8/68 293/8/68 294/8/68
f 294/8/68 295/8/68 292/8/68
f 295/8/68 296/8/68 292/8/68
f 296/8/68 297/8/68 300/8/68
f 297/8/68 298/8/68 300/8/68
f 298/8/68 299/8/68 300/8/68
f 300/8/68 290/8/68 296/8/68
