# Blender 5.2.1 LTS
# www.blender.org
mtllib mine_friendly.mtl
o MineBody.001
v 0.000000 0.000000 -0.660000
v -0.330000 0.000000 -0.571577
v -0.571577 0.000000 -0.330000
v -0.660000 0.000000 -0.000000
v -0.571577 0.000000 0.330000
v -0.330000 0.000000 0.571577
v -0.000000 0.000000 0.660000
v 0.330000 0.000000 0.571577
v 0.571577 0.000000 0.330000
v 0.660000 0.000000 0.000000
v 0.571577 0.000000 -0.330000
v 0.330000 0.000000 -0.571577
v 0.000000 0.300000 -0.660000
v -0.330000 0.300000 -0.571577
v -0.571577 0.300000 -0.330000
v -0.660000 0.300000 -0.000000
v -0.571577 0.300000 0.330000
v -0.330000 0.300000 0.571577
v -0.000000 0.300000 0.660000
v 0.330000 0.300000 0.571577
v 0.571577 0.300000 0.330000
v 0.660000 0.300000 0.000000
v 0.571577 0.300000 -0.330000
v 0.330000 0.300000 -0.571577
v 0.000000 0.270000 -0.550000
v -0.275000 0.270000 -0.476314
v -0.476314 0.270000 -0.275000
v -0.550000 0.270000 -0.000000
v -0.476314 0.270000 0.275000
v -0.275000 0.270000 0.476314
v -0.000000 0.270000 0.550000
v 0.275000 0.270000 0.476314
v 0.476314 0.270000 0.275000
v 0.550000 0.270000 0.000000
v 0.476314 0.270000 -0.275000
v 0.275000 0.270000 -0.476314
v 0.000000 0.390000 -0.550000
v -0.275000 0.390000 -0.476314
v -0.476314 0.390000 -0.275000
v -0.550000 0.390000 -0.000000
v -0.476314 0.390000 0.275000
v -0.275000 0.390000 0.476314
v -0.000000 0.390000 0.550000
v 0.275000 0.390000 0.476314
v 0.476314 0.390000 0.275000
v 0.550000 0.390000 0.000000
v 0.476314 0.390000 -0.275000
v 0.275000 0.390000 -0.476314
v 0.000000 0.385000 -0.280000
v -0.164580 0.385000 -0.226525
v -0.266296 0.385000 -0.086525
v -0.266296 0.385000 0.086525
v -0.164580 0.385000 0.226525
v -0.000000 0.385000 0.280000
v 0.164580 0.385000 0.226525
v 0.266296 0.385000 0.086525
v 0.266296 0.385000 -0.086525
v 0.164580 0.385000 -0.226525
v 0.000000 0.425000 -0.280000
v -0.164580 0.425000 -0.226525
v -0.266296 0.425000 -0.086525
v -0.266296 0.425000 0.086525
v -0.164580 0.425000 0.226525
v -0.000000 0.425000 0.280000
v 0.164580 0.425000 0.226525
v 0.266296 0.425000 0.086525
v 0.266296 0.425000 -0.086525
v 0.164580 0.425000 -0.226525
v -0.500000 0.310000 0.210000
v -0.400000 0.310000 0.210000
v -0.400000 0.310000 -0.210000
v -0.500000 0.310000 -0.210000
v -0.500000 0.390000 0.210000
v -0.400000 0.390000 0.210000
v -0.400000 0.390000 -0.210000
v -0.500000 0.390000 -0.210000
v 0.400000 0.310000 0.210000
v 0.500000 0.310000 0.210000
v 0.500000 0.310000 -0.210000
v 0.400000 0.310000 -0.210000
v 0.400000 0.390000 0.210000
v 0.500000 0.390000 0.210000
v 0.500000 0.390000 -0.210000
v 0.400000 0.390000 -0.210000
vn -0.0000 -1.0000 -0.0000
vn -0.2588 -0.0000 -0.9659
vn -0.7071 -0.0000 -0.7071
vn -0.9659 -0.0000 -0.2588
vn -0.9659 -0.0000 0.2588
vn -0.7071 -0.0000 0.7071
vn -0.2588 -0.0000 0.9659
vn 0.2588 -0.0000 0.9659
vn 0.7071 -0.0000 0.7071
vn 0.9659 -0.0000 0.2588
vn 0.9659 -0.0000 -0.2588
vn 0.7071 -0.0000 -0.7071
vn 0.2588 -0.0000 -0.9659
vn -0.0000 1.0000 -0.0000
vn -0.3090 -0.0000 -0.9511
vn -0.8090 -0.0000 -0.5878
vn -1.0000 -0.0000 -0.0000
vn -0.8090 -0.0000 0.5878
vn -0.3090 -0.0000 0.9511
vn 0.3090 -0.0000 0.9511
vn 0.8090 -0.0000 0.5878
vn 1.0000 -0.0000 -0.0000
vn 0.8090 -0.0000 -0.5878
vn 0.3090 -0.0000 -0.9511
vn -0.0000 -0.0000 1.0000
vn -0.0000 -0.0000 -1.0000
vt 0.625000 0.125000
vt 0.125000 0.125000
vt 0.875000 0.125000
vt 0.375000 0.875000
s 0
usemtl Field_Palette
f 9/1/1 5/1/1 1/1/1
f 2/1/2 13/1/2 1/1/2
f 3/1/3 14/1/3 2/1/3
f 4/1/4 15/1/4 3/1/4
f 5/1/5 16/1/5 4/1/5
f 6/1/6 17/1/6 5/1/6
f 7/1/7 18/1/7 6/1/7
f 8/1/8 19/1/8 7/1/8
f 9/1/9 20/1/9 8/1/9
f 10/1/10 21/1/10 9/1/10
f 11/1/11 22/1/11 10/1/11
f 12/1/12 23/1/12 11/1/12
f 1/1/13 24/1/13 12/1/13
f 16/1/14 20/1/14 24/1/14
f 33/2/1 29/2/1 25/2/1
f 26/2/2 37/2/2 25/2/2
f 27/2/3 38/2/3 26/2/3
f 28/2/4 39/2/4 27/2/4
f 29/2/5 40/2/5 28/2/5
f 30/2/6 41/2/6 29/2/6
f 31/2/7 42/2/7 30/2/7
f 32/2/8 43/2/8 31/2/8
f 33/2/9 44/2/9 32/2/9
f 34/2/10 45/2/10 33/2/10
f 35/2/11 46/2/11 34/2/11
f 36/2/12 47/2/12 35/2/12
f 25/2/13 48/2/13 36/2/13
f 40/2/14 44/2/14 48/2/14
f 55/3/1 53/3/1 51/3/1
f 50/3/15 59/3/15 49/3/15
f 51/3/16 60/3/16 50/3/16
f 52/3/17 61/3/17 51/3/17
f 53/3/18 62/3/18 52/3/18
f 54/3/19 63/3/19 53/3/19
f 55/3/20 64/3/20 54/3/20
f 56/3/21 65/3/21 55/3/21
f 57/3/22 66/3/22 56/3/22
f 58/3/23 67/3/23 57/3/23
f 49/3/24 68/3/24 58/3/24
f 62/3/14 66/3/14 68/3/14
f 71/4/1 69/4/1 72/4/1
f 74/4/14 76/4/14 73/4/14
f 70/4/25 73/4/25 69/4/25
f 71/4/22 74/4/22 70/4/22
f 72/4/26 75/4/26 71/4/26
f 69/4/17 76/4/17 72/4/17
f 79/4/1 77/4/1 80/4/1
f 82/4/14 84/4/14 81/4/14
f 78/4/25 81/4/25 77/4/25
f 79/4/22 82/4/22 78/4/22
f 80/4/26 83/4/26 79/4/26
f 77/4/17 84/4/17 80/4/17
f 1/1/1 12/1/1 11/1/1
f 11/1/1 10/1/1 9/1/1
f 9/1/1 8/1/1 7/1/1
f 7/1/1 6/1/1 5/1/1
f 5/1/1 4/1/1 3/1/1
f 3/1/1 2/1/1 1/1/1
f 1/1/1 11/1/1 9/1/1
f 9/1/1 7/1/1 5/1/1
f 5/1/1 3/1/1 1/1/1
f 2/1/2 14/1/2 13/1/2
f 3/1/3 15/1/3 14/1/3
f 4/1/4 16/1/4 15/1/4
f 5/1/5 17/1/5 16/1/5
f 6/1/6 18/1/6 17/1/6
f 7/1/7 19/1/7 18/1/7
f 8/1/8 20/1/8 19/1/8
f 9/1/9 21/1/9 20/1/9
f 10/1/10 22/1/10 21/1/10
f 11/1/11 23/1/11 22/1/11
f 12/1/12 24/1/12 23/1/12
f 1/1/13 13/1/13 24/1/13
f 24/1/14 13/1/14 14/1/14
f 14/1/14 15/1/14 16/1/14
f 16/1/14 17/1/14 18/1/14
f 18/1/14 19/1/14 20/1/14
f 20/1/14 21/1/14 22/1/14
f 22/1/14 23/1/14 24/1/14
f 24/1/14 14/1/14 16/1/14
f 16/1/14 18/1/14 20/1/14
f 20/1/14 22/1/14 24/1/14
f 25/2/1 36/2/1 35/2/1
f 35/2/1 34/2/1 33/2/1
f 33/2/1 32/2/1 31/2/1
f 31/2/1 30/2/1 33/2/1
f 30/2/1 29/2/1 33/2/1
f 29/2/1 28/2/1 27/2/1
f 27/2/1 26/2/1 25/2/1
f 25/2/1 35/2/1 33/2/1
f 29/2/1 27/2/1 25/2/1
f 26/2/2 38/2/2 37/2/2
f 27/2/3 39/2/3 38/2/3
f 28/2/4 40/2/4 39/2/4
f 29/2/5 41/2/5 40/2/5
f 30/2/6 42/2/6 41/2/6
f 31/2/7 43/2/7 42/2/7
f 32/2/8 44/2/8 43/2/8
f 33/2/9 45/2/9 44/2/9
f 34/2/10 46/2/10 45/2/10
f 35/2/11 47/2/11 46/2/11
f 36/2/12 48/2/12 47/2/12
f 25/2/13 37/2/13 48/2/13
f 48/2/14 37/2/14 38/2/14
f 38/2/14 39/2/14 40/2/14
f 40/2/14 41/2/14 42/2/14
f 42/2/14 43/2/14 44/2/14
f 44/2/14 45/2/14 46/2/14
f 46/2/14 47/2/14 44/2/14
f 47/2/14 48/2/14 44/2/14
f 48/2/14 38/2/14 40/2/14
f 40/2/14 42/2/14 44/2/14
f 49/3/1 58/3/1 57/3/1
f 57/3/1 56/3/1 55/3/1
f 55/3/1 54/3/1 53/3/1
f 53/3/1 52/3/1 51/3/1
f 51/3/1 50/3/1 55/3/1
f 50/3/1 49/3/1 55/3/1
f 49/3/1 57/3/1 55/3/1
f 50/3/15 60/3/15 59/3/15
f 51/3/16 61/3/16 60/3/16
f 52/3/17 62/3/17 61/3/17
f 53/3/18 63/3/18 62/3/18
f 54/3/19 64/3/19 63/3/19
f 55/3/20 65/3/20 64/3/20
f 56/3/21 66/3/21 65/3/21
f 57/3/22 67/3/22 66/3/22
f 58/3/23 68/3/23 67/3/23
f 49/3/24 59/3/24 68/3/24
f 68/3/14 59/3/14 60/3/14
f 60/3/14 61/3/14 62/3/14
f 62/3/14 63/3/14 64/3/14
f 64/3/14 65/3/14 66/3/14
f 66/3/14 67/3/14 68/3/14
f 68/3/14 60/3/14 62/3/14
f 62/3/14 64/3/14 66/3/14
f 71/4/1 70/4/1 69/4/1
f 74/4/14 75/4/14 76/4/14
f 70/4/25 74/4/25 73/4/25
f 71/4/22 75/4/22 74/4/22
f 72/4/26 76/4/26 75/4/26
f 69/4/17 73/4/17 76/4/17
f 79/4/1 78/4/1 77/4/1
f 82/4/14 83/4/14 84/4/14
f 78/4/25 82/4/25 81/4/25
f 79/4/22 83/4/22 82/4/22
f 80/4/26 84/4/26 83/4/26
f 77/4/17 81/4/17 84/4/17
o MineSignal.001
v 0.000000 0.424500 -0.160000
v -0.080000 0.424500 -0.138564
v -0.138564 0.424500 -0.080000
v -0.160000 0.424500 -0.000000
v -0.138564 0.424500 0.080000
v -0.080000 0.424500 0.138564
v -0.000000 0.424500 0.160000
v 0.080000 0.424500 0.138564
v 0.138564 0.424500 0.080000
v 0.160000 0.424500 0.000000
v 0.138564 0.424500 -0.080000
v 0.080000 0.424500 -0.138564
v 0.000000 0.469500 -0.160000
v -0.080000 0.469500 -0.138564
v -0.138564 0.469500 -0.080000
v -0.160000 0.469500 -0.000000
v -0.138564 0.469500 0.080000
v -0.080000 0.469500 0.138564
v -0.000000 0.469500 0.160000
v 0.080000 0.469500 0.138564
v 0.138564 0.469500 0.080000
v 0.160000 0.469500 0.000000
v 0.138564 0.469500 -0.080000
v 0.080000 0.469500 -0.138564
vn -0.0000 -1.0000 -0.0000
vn -0.2588 -0.0000 -0.9659
vn -0.7071 -0.0000 -0.7071
vn -0.9659 -0.0000 -0.2588
vn -0.9659 -0.0000 0.2588
vn -0.7071 -0.0000 0.7071
vn -0.2588 -0.0000 0.9659
vn 0.2588 -0.0000 0.9659
vn 0.7071 -0.0000 0.7071
vn 0.9659 -0.0000 0.2588
vn 0.9659 -0.0000 -0.2588
vn 0.7071 -0.0000 -0.7071
vn 0.2588 -0.0000 -0.9659
vn -0.0000 1.0000 -0.0000
vt 0.875000 0.875000
s 0
usemtl Field_Palette
f 95/5/27 93/5/27 89/5/27
f 86/5/28 97/5/28 85/5/28
f 87/5/29 98/5/29 86/5/29
f 88/5/30 99/5/30 87/5/30
f 89/5/31 100/5/31 88/5/31
f 90/5/32 101/5/32 89/5/32
f 91/5/33 102/5/33 90/5/33
f 92/5/34 103/5/34 91/5/34
f 93/5/35 104/5/35 92/5/35
f 94/5/36 105/5/36 93/5/36
f 95/5/37 106/5/37 94/5/37
f 96/5/38 107/5/38 95/5/38
f 85/5/39 108/5/39 96/5/39
f 98/5/40 100/5/40 104/5/40
f 85/5/27 96/5/27 95/5/27
f 95/5/27 94/5/27 93/5/27
f 93/5/27 92/5/27 89/5/27
f 92/5/27 91/5/27 89/5/27
f 91/5/27 90/5/27 89/5/27
f 89/5/27 88/5/27 85/5/27
f 88/5/27 87/5/27 85/5/27
f 87/5/27 86/5/27 85/5/27
f 85/5/27 95/5/27 89/5/27
f 86/5/28 98/5/28 97/5/28
f 87/5/29 99/5/29 98/5/29
f 88/5/30 100/5/30 99/5/30
f 89/5/31 101/5/31 100/5/31
f 90/5/32 102/5/32 101/5/32
f 91/5/33 103/5/33 102/5/33
f 92/5/34 104/5/34 103/5/34
f 93/5/35 105/5/35 104/5/35
f 94/5/36 106/5/36 105/5/36
f 95/5/37 107/5/37 106/5/37
f 96/5/38 108/5/38 107/5/38
f 85/5/39 97/5/39 108/5/39
f 108/5/40 97/5/40 98/5/40
f 98/5/40 99/5/40 100/5/40
f 100/5/40 101/5/40 102/5/40
f 102/5/40 103/5/40 100/5/40
f 103/5/40 104/5/40 100/5/40
f 104/5/40 105/5/40 108/5/40
f 105/5/40 106/5/40 108/5/40
f 106/5/40 107/5/40 108/5/40
f 108/5/40 98/5/40 104/5/40
