# Blender 5.2.1 LTS
# www.blender.org
mtllib pickup_fuel.mtl
o Body
v -0.250000 0.060000 0.195000
v 0.250000 0.060000 0.195000
v 0.275000 0.060000 0.170000
v 0.275000 0.060000 -0.170000
v 0.250000 0.060000 -0.195000
v -0.250000 0.060000 -0.195000
v -0.275000 0.060000 -0.170000
v -0.275000 0.060000 0.170000
v -0.275000 0.085000 0.220000
v 0.275000 0.085000 0.220000
v 0.300000 0.085000 0.195000
v 0.300000 0.085000 -0.195000
v 0.275000 0.085000 -0.220000
v -0.275000 0.085000 -0.220000
v -0.300000 0.085000 -0.195000
v -0.300000 0.085000 0.195000
v -0.275000 0.955000 0.220000
v 0.275000 0.955000 0.220000
v 0.300000 0.955000 0.195000
v 0.300000 0.955000 -0.195000
v 0.275000 0.955000 -0.220000
v -0.275000 0.955000 -0.220000
v -0.300000 0.955000 -0.195000
v -0.300000 0.955000 0.195000
v -0.250000 0.980000 0.195000
v 0.250000 0.980000 0.195000
v 0.275000 0.980000 0.170000
v 0.275000 0.980000 -0.170000
v 0.250000 0.980000 -0.195000
v -0.250000 0.980000 -0.195000
v -0.275000 0.980000 -0.170000
v -0.275000 0.980000 0.170000
v -0.293200 0.125000 0.221600
v 0.293200 0.125000 0.221600
v 0.301600 0.125000 0.213200
v 0.301600 0.125000 -0.213200
v 0.293200 0.125000 -0.221600
v -0.293200 0.125000 -0.221600
v -0.301600 0.125000 -0.213200
v -0.301600 0.125000 0.213200
v -0.301600 0.133400 0.230000
v 0.301600 0.133400 0.230000
v 0.310000 0.133400 0.221600
v 0.310000 0.133400 -0.221600
v 0.301600 0.133400 -0.230000
v -0.301600 0.133400 -0.230000
v -0.310000 0.133400 -0.221600
v -0.310000 0.133400 0.221600
v -0.301600 0.186600 0.230000
v 0.301600 0.186600 0.230000
v 0.310000 0.186600 0.221600
v 0.310000 0.186600 -0.221600
v 0.301600 0.186600 -0.230000
v -0.301600 0.186600 -0.230000
v -0.310000 0.186600 -0.221600
v -0.310000 0.186600 0.221600
v -0.293200 0.195000 0.221600
v 0.293200 0.195000 0.221600
v 0.301600 0.195000 0.213200
v 0.301600 0.195000 -0.213200
v 0.293200 0.195000 -0.221600
v -0.293200 0.195000 -0.221600
v -0.301600 0.195000 -0.213200
v -0.301600 0.195000 0.213200
v -0.293200 0.805000 0.221600
v 0.293200 0.805000 0.221600
v 0.301600 0.805000 0.213200
v 0.301600 0.805000 -0.213200
v 0.293200 0.805000 -0.221600
v -0.293200 0.805000 -0.221600
v -0.301600 0.805000 -0.213200
v -0.301600 0.805000 0.213200
v -0.301600 0.813400 0.230000
v 0.301600 0.813400 0.230000
v 0.310000 0.813400 0.221600
v 0.310000 0.813400 -0.221600
v 0.301600 0.813400 -0.230000
v -0.301600 0.813400 -0.230000
v -0.310000 0.813400 -0.221600
v -0.310000 0.813400 0.221600
v -0.301600 0.866600 0.230000
v 0.301600 0.866600 0.230000
v 0.310000 0.866600 0.221600
v 0.310000 0.866600 -0.221600
v 0.301600 0.866600 -0.230000
v -0.301600 0.866600 -0.230000
v -0.310000 0.866600 -0.221600
v -0.310000 0.866600 0.221600
v -0.293200 0.875000 0.221600
v 0.293200 0.875000 0.221600
v 0.301600 0.875000 0.213200
v 0.301600 0.875000 -0.213200
v 0.293200 0.875000 -0.221600
v -0.293200 0.875000 -0.221600
v -0.301600 0.875000 -0.213200
v -0.301600 0.875000 0.213200
v -0.200800 0.960000 0.055400
v -0.159200 0.960000 0.055400
v -0.149600 0.960000 0.045800
v -0.149600 0.960000 -0.045800
v -0.159200 0.960000 -0.055400
v -0.200800 0.960000 -0.055400
v -0.210400 0.960000 -0.045800
v -0.210400 0.960000 0.045800
v -0.210400 0.969600 0.065000
v -0.149600 0.969600 0.065000
v -0.140000 0.969600 0.055400
v -0.140000 0.969600 -0.055400
v -0.149600 0.969600 -0.065000
v -0.210400 0.969600 -0.065000
v -0.220000 0.969600 -0.055400
v -0.220000 0.969600 0.055400
v -0.210400 1.170400 0.065000
v -0.149600 1.170400 0.065000
v -0.140000 1.170400 0.055400
v -0.140000 1.170400 -0.055400
v -0.149600 1.170400 -0.065000
v -0.210400 1.170400 -0.065000
v -0.220000 1.170400 -0.055400
v -0.220000 1.170400 0.055400
v -0.200800 1.180000 0.055400
v -0.159200 1.180000 0.055400
v -0.149600 1.180000 0.045800
v -0.149600 1.180000 -0.045800
v -0.159200 1.180000 -0.055400
v -0.200800 1.180000 -0.055400
v -0.210400 1.180000 -0.045800
v -0.210400 1.180000 0.045800
v 0.159200 0.960000 0.055400
v 0.200800 0.960000 0.055400
v 0.210400 0.960000 0.045800
v 0.210400 0.960000 -0.045800
v 0.200800 0.960000 -0.055400
v 0.159200 0.960000 -0.055400
v 0.149600 0.960000 -0.045800
v 0.149600 0.960000 0.045800
v 0.149600 0.969600 0.065000
v 0.210400 0.969600 0.065000
v 0.220000 0.969600 0.055400
v 0.220000 0.969600 -0.055400
v 0.210400 0.969600 -0.065000
v 0.149600 0.969600 -0.065000
v 0.140000 0.969600 -0.055400
v 0.140000 0.969600 0.055400
v 0.149600 1.170400 0.065000
v 0.210400 1.170400 0.065000
v 0.220000 1.170400 0.055400
v 0.220000 1.170400 -0.055400
v 0.210400 1.170400 -0.065000
v 0.149600 1.170400 -0.065000
v 0.140000 1.170400 -0.055400
v 0.140000 1.170400 0.055400
v 0.159200 1.180000 0.055400
v 0.200800 1.180000 0.055400
v 0.210400 1.180000 0.045800
v 0.210400 1.180000 -0.045800
v 0.200800 1.180000 -0.055400
v 0.159200 1.180000 -0.055400
v 0.149600 1.180000 -0.045800
v 0.149600 1.180000 0.045800
v -0.200800 1.140000 0.055400
v 0.200800 1.140000 0.055400
v 0.210400 1.140000 0.045800
v 0.210400 1.140000 -0.045800
v 0.200800 1.140000 -0.055400
v -0.200800 1.140000 -0.055400
v -0.210400 1.140000 -0.045800
v -0.210400 1.140000 0.045800
v -0.210400 1.149600 0.065000
v 0.210400 1.149600 0.065000
v 0.220000 1.149600 0.055400
v 0.220000 1.149600 -0.055400
v 0.210400 1.149600 -0.065000
v -0.210400 1.149600 -0.065000
v -0.220000 1.149600 -0.055400
v -0.220000 1.149600 0.055400
v -0.210400 1.210400 0.065000
v 0.210400 1.210400 0.065000
v 0.220000 1.210400 0.055400
v 0.220000 1.210400 -0.055400
v 0.210400 1.210400 -0.065000
v -0.210400 1.210400 -0.065000
v -0.220000 1.210400 -0.055400
v -0.220000 1.210400 0.055400
v -0.200800 1.220000 0.055400
v 0.200800 1.220000 0.055400
v 0.210400 1.220000 0.045800
v 0.210400 1.220000 -0.045800
v 0.200800 1.220000 -0.055400
v -0.200800 1.220000 -0.055400
v -0.210400 1.220000 -0.045800
v -0.210400 1.220000 0.045800
v 0.190000 0.990000 0.040000
v 0.133431 0.990000 0.063431
v 0.110000 0.990000 0.120000
v 0.133431 0.990000 0.176569
v 0.190000 0.990000 0.200000
v 0.246569 0.990000 0.176569
v 0.270000 0.990000 0.120000
v 0.246569 0.990000 0.063431
v 0.190000 1.070000 0.040000
v 0.133431 1.070000 0.063431
v 0.110000 1.070000 0.120000
v 0.133431 1.070000 0.176569
v 0.190000 1.070000 0.200000
v 0.246569 1.070000 0.176569
v 0.270000 1.070000 0.120000
v 0.246569 1.070000 0.063431
v -0.190000 0.250000 0.207000
v -0.212126 0.267159 0.235000
v -0.190000 0.250000 0.263000
v -0.167874 0.232841 0.235000
v 0.190000 0.740000 0.207000
v 0.167874 0.757159 0.235000
v 0.190000 0.740000 0.263000
v 0.212126 0.722841 0.235000
v 0.190000 0.250000 0.207000
v 0.167874 0.232841 0.235000
v 0.190000 0.250000 0.263000
v 0.212126 0.267159 0.235000
v -0.190000 0.740000 0.207000
v -0.212126 0.722841 0.235000
v -0.190000 0.740000 0.263000
v -0.167874 0.757159 0.235000
v -0.220000 0.190000 -0.157500
v 0.220000 0.190000 -0.157500
v 0.220000 0.190000 -0.182500
v -0.220000 0.190000 -0.182500
v -0.220000 0.850000 -0.157500
v 0.220000 0.850000 -0.157500
v 0.220000 0.850000 -0.182500
v -0.220000 0.850000 -0.182500
v -0.220000 0.190000 0.182500
v 0.220000 0.190000 0.182500
v 0.220000 0.190000 0.157500
v -0.220000 0.190000 0.157500
v -0.220000 0.850000 0.182500
v 0.220000 0.850000 0.182500
v 0.220000 0.850000 0.157500
v -0.220000 0.850000 0.157500
v -0.215000 0.250000 0.242500
v 0.215000 0.250000 0.242500
v 0.215000 0.250000 0.217500
v -0.215000 0.250000 0.217500
v -0.215000 0.290000 0.242500
v 0.215000 0.290000 0.242500
v 0.215000 0.290000 0.217500
v -0.215000 0.290000 0.217500
v -0.215000 0.700000 0.242500
v 0.215000 0.700000 0.242500
v 0.215000 0.700000 0.217500
v -0.215000 0.700000 0.217500
v -0.215000 0.740000 0.242500
v 0.215000 0.740000 0.242500
v 0.215000 0.740000 0.217500
v -0.215000 0.740000 0.217500
v 0.190000 1.050000 0.027000
v 0.124239 1.050000 0.054239
v 0.097000 1.050000 0.120000
v 0.124239 1.050000 0.185761
v 0.190000 1.050000 0.213000
v 0.255761 1.050000 0.185761
v 0.283000 1.050000 0.120000
v 0.255761 1.050000 0.054239
v 0.190000 1.078000 0.027000
v 0.124239 1.078000 0.054239
v 0.097000 1.078000 0.120000
v 0.124239 1.078000 0.185761
v 0.190000 1.078000 0.213000
v 0.255761 1.078000 0.185761
v 0.283000 1.078000 0.120000
v 0.255761 1.078000 0.054239
v -0.255000 0.830000 0.250000
v -0.185000 0.830000 0.250000
v -0.185000 0.830000 0.210000
v -0.255000 0.830000 0.210000
v -0.255000 0.950000 0.250000
v -0.185000 0.950000 0.250000
v -0.185000 0.950000 0.210000
v -0.255000 0.950000 0.210000
v 0.185000 0.830000 0.250000
v 0.255000 0.830000 0.250000
v 0.255000 0.830000 0.210000
v 0.185000 0.830000 0.210000
v 0.185000 0.950000 0.250000
v 0.255000 0.950000 0.250000
v 0.255000 0.950000 0.210000
v 0.185000 0.950000 0.210000
v -0.245800 0.940000 0.080400
v -0.154200 0.940000 0.080400
v -0.144600 0.940000 0.070800
v -0.144600 0.940000 -0.070800
v -0.154200 0.940000 -0.080400
v -0.245800 0.940000 -0.080400
v -0.255400 0.940000 -0.070800
v -0.255400 0.940000 0.070800
v -0.255400 0.949600 0.090000
v -0.144600 0.949600 0.090000
v -0.135000 0.949600 0.080400
v -0.135000 0.949600 -0.080400
v -0.144600 0.949600 -0.090000
v -0.255400 0.949600 -0.090000
v -0.265000 0.949600 -0.080400
v -0.265000 0.949600 0.080400
v -0.255400 1.010400 0.090000
v -0.144600 1.010400 0.090000
v -0.135000 1.010400 0.080400
v -0.135000 1.010400 -0.080400
v -0.144600 1.010400 -0.090000
v -0.255400 1.010400 -0.090000
v -0.265000 1.010400 -0.080400
v -0.265000 1.010400 0.080400
v -0.245800 1.020000 0.080400
v -0.154200 1.020000 0.080400
v -0.144600 1.020000 0.070800
v -0.144600 1.020000 -0.070800
v -0.154200 1.020000 -0.080400
v -0.245800 1.020000 -0.080400
v -0.255400 1.020000 -0.070800
v -0.255400 1.020000 0.070800
vn -0.0000 -1.0000 -0.0000
vn -0.0000 -0.7071 0.7071
vn 0.4082 -0.8165 0.4082
vn 0.7071 -0.7071 -0.0000
vn 0.4082 -0.8165 -0.4082
vn -0.0000 -0.7071 -0.7071
vn -0.4082 -0.8165 -0.4082
vn -0.7071 -0.7071 -0.0000
vn -0.4082 -0.8165 0.4082
vn -0.0000 -0.0000 1.0000
vn 0.7071 -0.0000 0.7071
vn 1.0000 -0.0000 -0.0000
vn 0.7071 -0.0000 -0.7071
vn -0.0000 -0.0000 -1.0000
vn -0.7071 -0.0000 -0.7071
vn -1.0000 -0.0000 -0.0000
vn -0.7071 -0.0000 0.7071
vn -0.0000 0.7071 0.7071
vn 0.4082 0.8165 0.4082
vn 0.7071 0.7071 -0.0000
vn 0.4082 0.8165 -0.4082
vn -0.0000 0.7071 -0.7071
vn -0.4082 0.8165 -0.4082
vn -0.7071 0.7071 -0.0000
vn -0.4082 0.8165 0.4082
vn -0.0000 1.0000 -0.0000
vn 0.4083 0.8165 -0.4082
vn -0.4083 0.8165 0.4082
vn -0.4082 -0.8165 -0.4083
vn 0.4082 -0.8165 -0.4083
vn 0.4082 -0.8165 0.4083
vn -0.4082 -0.8165 0.4083
vn 0.4082 0.8165 -0.4083
vn -0.4082 0.8165 -0.4083
vn -0.3827 -0.0000 -0.9239
vn -0.9239 -0.0000 -0.3827
vn -0.9239 -0.0000 0.3827
vn -0.3827 -0.0000 0.9239
vn 0.3827 -0.0000 0.9239
vn 0.9239 -0.0000 0.3827
vn 0.9239 -0.0000 -0.3827
vn 0.3827 -0.0000 -0.9239
vn -0.6128 -0.7902 -0.0000
vn -0.5588 0.4333 -0.7071
vn -0.5588 0.4333 0.7071
vn 0.5588 -0.4333 0.7071
vn 0.5588 -0.4333 -0.7071
vn 0.6128 0.7902 -0.0000
vn 0.6128 -0.7902 -0.0000
vn -0.5588 -0.4333 -0.7071
vn -0.5588 -0.4333 0.7071
vn 0.5588 0.4333 0.7071
vn 0.5588 0.4333 -0.7071
vn -0.6128 0.7902 -0.0000
vn 0.4083 -0.8165 -0.4082
vn -0.4083 -0.8165 0.4082
vn 0.4083 0.8165 0.4082
vn -0.4083 0.8165 -0.4082
vn 0.4083 -0.8165 0.4082
vn -0.4083 -0.8165 -0.4082
vt 0.125000 0.125000
vt 0.125000 0.625000
vt 0.875000 0.125000
vt 0.375000 0.875000
vt 0.625000 0.125000
vt 0.375000 0.125000
s 0
usemtl Field_Palette
f 2/1/1 1/1/1 5/1/1
f 2/1/2 9/1/2 1/1/2
f 3/1/3 10/1/3 2/1/3
f 3/1/4 12/1/4 11/1/4
f 4/1/5 13/1/5 12/1/5
f 6/1/6 13/1/6 5/1/6
f 7/1/7 14/1/7 6/1/7
f 7/1/8 16/1/8 15/1/8
f 8/1/9 9/1/9 16/1/9
f 10/1/10 17/1/10 9/1/10
f 11/1/11 18/1/11 10/1/11
f 12/1/12 19/1/12 11/1/12
f 13/1/13 20/1/13 12/1/13
f 14/1/14 21/1/14 13/1/14
f 15/1/15 22/1/15 14/1/15
f 16/1/16 23/1/16 15/1/16
f 9/1/17 24/1/17 16/1/17
f 18/1/18 25/1/18 17/1/18
f 18/1/19 27/1/19 26/1/19
f 20/1/20 27/1/20 19/1/20
f 21/1/21 28/1/21 20/1/21
f 22/1/22 29/1/22 21/1/22
f 22/1/23 31/1/23 30/1/23
f 24/1/24 31/1/24 23/1/24
f 17/1/25 32/1/25 24/1/25
f 30/1/26 31/1/26 32/1/26
f 34/2/1 33/2/1 37/2/1
f 34/2/2 41/2/2 33/2/2
f 35/2/3 42/2/3 34/2/3
f 36/2/4 43/2/4 35/2/4
f 36/2/5 45/2/5 44/2/5
f 38/2/6 45/2/6 37/2/6
f 39/2/7 46/2/7 38/2/7
f 40/2/8 47/2/8 39/2/8
f 40/2/9 41/2/9 48/2/9
f 42/2/10 49/2/10 41/2/10
f 43/2/11 50/2/11 42/2/11
f 44/2/12 51/2/12 43/2/12
f 45/2/13 52/2/13 44/2/13
f 46/2/14 53/2/14 45/2/14
f 47/2/15 54/2/15 46/2/15
f 48/2/16 55/2/16 47/2/16
f 41/2/17 56/2/17 48/2/17
f 50/2/18 57/2/18 49/2/18
f 50/2/19 59/2/19 58/2/19
f 52/2/20 59/2/20 51/2/20
f 53/2/21 60/2/21 52/2/21
f 54/2/22 61/2/22 53/2/22
f 54/2/23 63/2/23 62/2/23
f 56/2/24 63/2/24 55/2/24
f 49/2/25 64/2/25 56/2/25
f 62/2/26 63/2/26 64/2/26
f 66/2/1 65/2/1 69/2/1
f 66/2/2 73/2/2 65/2/2
f 66/2/3 75/2/3 74/2/3
f 68/2/4 75/2/4 67/2/4
f 68/2/5 77/2/5 76/2/5
f 70/2/6 77/2/6 69/2/6
f 70/2/7 79/2/7 78/2/7
f 72/2/8 79/2/8 71/2/8
f 72/2/9 73/2/9 80/2/9
f 74/2/10 81/2/10 73/2/10
f 75/2/11 82/2/11 74/2/11
f 76/2/12 83/2/12 75/2/12
f 77/2/13 84/2/13 76/2/13
f 78/2/14 85/2/14 77/2/14
f 79/2/15 86/2/15 78/2/15
f 80/2/16 87/2/16 79/2/16
f 73/2/17 88/2/17 80/2/17
f 82/2/18 89/2/18 81/2/18
f 82/2/19 91/2/19 90/2/19
f 84/2/20 91/2/20 83/2/20
f 85/2/27 92/2/27 84/2/27
f 86/2/22 93/2/22 85/2/22
f 86/2/23 95/2/23 94/2/23
f 88/2/24 95/2/24 87/2/24
f 81/2/28 96/2/28 88/2/28
f 94/2/26 95/2/26 96/2/26
f 99/3/1 98/3/1 97/3/1
f 98/3/2 105/3/2 97/3/2
f 99/3/3 106/3/3 98/3/3
f 100/3/4 107/3/4 99/3/4
f 101/3/5 108/3/5 100/3/5
f 102/3/6 109/3/6 101/3/6
f 103/3/29 110/3/29 102/3/29
f 104/3/8 111/3/8 103/3/8
f 97/3/9 112/3/9 104/3/9
f 106/3/10 113/3/10 105/3/10
f 107/3/11 114/3/11 106/3/11
f 108/3/12 115/3/12 107/3/12
f 109/3/13 116/3/13 108/3/13
f 110/3/14 117/3/14 109/3/14
f 111/3/15 118/3/15 110/3/15
f 112/3/16 119/3/16 111/3/16
f 105/3/17 120/3/17 112/3/17
f 114/3/18 121/3/18 113/3/18
f 115/3/19 122/3/19 114/3/19
f 116/3/20 123/3/20 115/3/20
f 116/3/21 125/3/21 124/3/21
f 118/3/22 125/3/22 117/3/22
f 119/3/23 126/3/23 118/3/23
f 120/3/24 127/3/24 119/3/24
f 113/3/25 128/3/25 120/3/25
f 127/3/26 128/3/26 124/3/26
f 131/3/1 130/3/1 129/3/1
f 130/3/2 137/3/2 129/3/2
f 131/3/3 138/3/3 130/3/3
f 132/3/4 139/3/4 131/3/4
f 133/3/30 140/3/30 132/3/30
f 134/3/6 141/3/6 133/3/6
f 135/3/7 142/3/7 134/3/7
f 136/3/8 143/3/8 135/3/8
f 129/3/9 144/3/9 136/3/9
f 138/3/10 145/3/10 137/3/10
f 139/3/11 146/3/11 138/3/11
f 140/3/12 147/3/12 139/3/12
f 141/3/13 148/3/13 140/3/13
f 142/3/14 149/3/14 141/3/14
f 143/3/15 150/3/15 142/3/15
f 144/3/16 151/3/16 143/3/16
f 137/3/17 152/3/17 144/3/17
f 146/3/18 153/3/18 145/3/18
f 147/3/19 154/3/19 146/3/19
f 148/3/20 155/3/20 147/3/20
f 149/3/21 156/3/21 148/3/21
f 150/3/22 157/3/22 149/3/22
f 151/3/23 158/3/23 150/3/23
f 152/3/24 159/3/24 151/3/24
f 152/3/25 153/3/25 160/3/25
f 159/3/26 160/3/26 156/3/26
f 162/3/1 161/3/1 165/3/1
f 162/3/2 169/3/2 161/3/2
f 163/3/31 170/3/31 162/3/31
f 164/3/4 171/3/4 163/3/4
f 165/3/30 172/3/30 164/3/30
f 166/3/6 173/3/6 165/3/6
f 167/3/29 174/3/29 166/3/29
f 168/3/8 175/3/8 167/3/8
f 161/3/32 176/3/32 168/3/32
f 170/3/10 177/3/10 169/3/10
f 171/3/11 178/3/11 170/3/11
f 172/3/12 179/3/12 171/3/12
f 173/3/13 180/3/13 172/3/13
f 174/3/14 181/3/14 173/3/14
f 175/3/15 182/3/15 174/3/15
f 176/3/16 183/3/16 175/3/16
f 169/3/17 184/3/17 176/3/17
f 178/3/18 185/3/18 177/3/18
f 179/3/19 186/3/19 178/3/19
f 180/3/20 187/3/20 179/3/20
f 181/3/33 188/3/33 180/3/33
f 182/3/22 189/3/22 181/3/22
f 183/3/34 190/3/34 182/3/34
f 184/3/24 191/3/24 183/3/24
f 177/3/25 192/3/25 184/3/25
f 190/3/26 191/3/26 192/3/26
f 193/4/1 199/4/1 197/4/1
f 194/4/35 201/4/35 193/4/35
f 195/4/36 202/4/36 194/4/36
f 196/4/37 203/4/37 195/4/37
f 197/4/38 204/4/38 196/4/38
f 198/4/39 205/4/39 197/4/39
f 199/4/40 206/4/40 198/4/40
f 200/4/41 207/4/41 199/4/41
f 193/4/42 208/4/42 200/4/42
f 204/4/26 206/4/26 208/4/26
f 212/4/43 210/4/43 209/4/43
f 210/4/44 213/4/44 209/4/44
f 210/4/45 215/4/45 214/4/45
f 212/4/46 215/4/46 211/4/46
f 209/4/47 216/4/47 212/4/47
f 214/4/48 216/4/48 213/4/48
f 220/4/49 218/4/49 217/4/49
f 218/4/50 221/4/50 217/4/50
f 218/4/51 223/4/51 222/4/51
f 219/4/52 224/4/52 223/4/52
f 217/4/53 224/4/53 220/4/53
f 222/4/54 224/4/54 221/4/54
f 227/5/1 225/5/1 228/5/1
f 230/5/26 232/5/26 229/5/26
f 226/5/10 229/5/10 225/5/10
f 227/5/12 230/5/12 226/5/12
f 228/5/14 231/5/14 227/5/14
f 225/5/16 232/5/16 228/5/16
f 235/5/1 233/5/1 236/5/1
f 238/5/26 240/5/26 237/5/26
f 234/5/10 237/5/10 233/5/10
f 235/5/12 238/5/12 234/5/12
f 236/5/14 239/5/14 235/5/14
f 233/5/16 240/5/16 236/5/16
f 243/6/1 241/6/1 244/6/1
f 246/6/26 248/6/26 245/6/26
f 242/6/10 245/6/10 241/6/10
f 243/6/12 246/6/12 242/6/12
f 244/6/14 247/6/14 243/6/14
f 241/6/16 248/6/16 244/6/16
f 251/6/1 249/6/1 252/6/1
f 254/6/26 256/6/26 253/6/26
f 250/6/10 253/6/10 249/6/10
f 251/6/12 254/6/12 250/6/12
f 252/6/14 255/6/14 251/6/14
f 249/6/16 256/6/16 252/6/16
f 257/2/1 263/2/1 261/2/1
f 258/2/35 265/2/35 257/2/35
f 259/2/36 266/2/36 258/2/36
f 260/2/37 267/2/37 259/2/37
f 261/2/38 268/2/38 260/2/38
f 262/2/39 269/2/39 261/2/39
f 263/2/40 270/2/40 262/2/40
f 264/2/41 271/2/41 263/2/41
f 257/2/42 272/2/42 264/2/42
f 272/2/26 266/2/26 268/2/26
f 275/4/1 273/4/1 276/4/1
f 278/4/26 280/4/26 277/4/26
f 274/4/10 277/4/10 273/4/10
f 275/4/12 278/4/12 274/4/12
f 276/4/14 279/4/14 275/4/14
f 273/4/16 280/4/16 276/4/16
f 283/4/1 281/4/1 284/4/1
f 286/4/26 288/4/26 285/4/26
f 282/4/10 285/4/10 281/4/10
f 283/4/12 286/4/12 282/4/12
f 284/4/14 287/4/14 283/4/14
f 281/4/16 288/4/16 284/4/16
f 291/6/1 290/6/1 289/6/1
f 290/6/2 297/6/2 289/6/2
f 290/6/3 299/6/3 298/6/3
f 291/6/4 300/6/4 299/6/4
f 293/6/5 300/6/5 292/6/5
f 293/6/6 302/6/6 301/6/6
f 294/6/29 303/6/29 302/6/29
f 295/6/8 304/6/8 303/6/8
f 289/6/9 304/6/9 296/6/9
f 298/6/10 305/6/10 297/6/10
f 299/6/11 306/6/11 298/6/11
f 300/6/12 307/6/12 299/6/12
f 301/6/13 308/6/13 300/6/13
f 302/6/14 309/6/14 301/6/14
f 303/6/15 310/6/15 302/6/15
f 304/6/16 311/6/16 303/6/16
f 297/6/17 312/6/17 304/6/17
f 305/6/18 314/6/18 313/6/18
f 307/6/19 314/6/19 306/6/19
f 308/6/20 315/6/20 307/6/20
f 308/6/21 317/6/21 316/6/21
f 310/6/22 317/6/22 309/6/22
f 311/6/23 318/6/23 310/6/23
f 312/6/24 319/6/24 311/6/24
f 312/6/25 313/6/25 320/6/25
f 319/6/26 320/6/26 316/6/26
f 1/1/1 8/1/1 7/1/1
f 7/1/1 6/1/1 1/1/1
f 6/1/1 5/1/1 1/1/1
f 5/1/1 4/1/1 3/1/1
f 3/1/1 2/1/1 5/1/1
f 2/1/2 10/1/2 9/1/2
f 3/1/3 11/1/3 10/1/3
f 3/1/4 4/1/4 12/1/4
f 4/1/5 5/1/5 13/1/5
f 6/1/6 14/1/6 13/1/6
f 7/1/7 15/1/7 14/1/7
f 7/1/8 8/1/8 16/1/8
f 8/1/9 1/1/9 9/1/9
f 10/1/10 18/1/10 17/1/10
f 11/1/11 19/1/11 18/1/11
f 12/1/12 20/1/12 19/1/12
f 13/1/13 21/1/13 20/1/13
f 14/1/14 22/1/14 21/1/14
f 15/1/15 23/1/15 22/1/15
f 16/1/16 24/1/16 23/1/16
f 9/1/17 17/1/17 24/1/17
f 18/1/18 26/1/18 25/1/18
f 18/1/19 19/1/19 27/1/19
f 20/1/20 28/1/20 27/1/20
f 21/1/21 29/1/21 28/1/21
f 22/1/22 30/1/22 29/1/22
f 22/1/23 23/1/23 31/1/23
f 24/1/24 32/1/24 31/1/24
f 17/1/25 25/1/25 32/1/25
f 32/1/26 25/1/26 30/1/26
f 25/1/26 26/1/26 30/1/26
f 26/1/26 27/1/26 28/1/26
f 28/1/26 29/1/26 26/1/26
f 29/1/26 30/1/26 26/1/26
f 33/2/1 40/2/1 39/2/1
f 39/2/1 38/2/1 33/2/1
f 38/2/1 37/2/1 33/2/1
f 37/2/1 36/2/1 35/2/1
f 35/2/1 34/2/1 37/2/1
f 34/2/2 42/2/2 41/2/2
f 35/2/3 43/2/3 42/2/3
f 36/2/4 44/2/4 43/2/4
f 36/2/5 37/2/5 45/2/5
f 38/2/6 46/2/6 45/2/6
f 39/2/7 47/2/7 46/2/7
f 40/2/8 48/2/8 47/2/8
f 40/2/9 33/2/9 41/2/9
f 42/2/10 50/2/10 49/2/10
f 43/2/11 51/2/11 50/2/11
f 44/2/12 52/2/12 51/2/12
f 45/2/13 53/2/13 52/2/13
f 46/2/14 54/2/14 53/2/14
f 47/2/15 55/2/15 54/2/15
f 48/2/16 56/2/16 55/2/16
f 41/2/17 49/2/17 56/2/17
f 50/2/18 58/2/18 57/2/18
f 50/2/19 51/2/19 59/2/19
f 52/2/20 60/2/20 59/2/20
f 53/2/21 61/2/21 60/2/21
f 54/2/22 62/2/22 61/2/22
f 54/2/23 55/2/23 63/2/23
f 56/2/24 64/2/24 63/2/24
f 49/2/25 57/2/25 64/2/25
f 64/2/26 57/2/26 62/2/26
f 57/2/26 58/2/26 62/2/26
f 58/2/26 59/2/26 60/2/26
f 60/2/26 61/2/26 58/2/26
f 61/2/26 62/2/26 58/2/26
f 65/2/1 72/2/1 71/2/1
f 71/2/1 70/2/1 65/2/1
f 70/2/1 69/2/1 65/2/1
f 69/2/1 68/2/1 67/2/1
f 67/2/1 66/2/1 69/2/1
f 66/2/2 74/2/2 73/2/2
f 66/2/3 67/2/3 75/2/3
f 68/2/4 76/2/4 75/2/4
f 68/2/55 69/2/55 77/2/55
f 70/2/6 78/2/6 77/2/6
f 70/2/7 71/2/7 79/2/7
f 72/2/8 80/2/8 79/2/8
f 72/2/56 65/2/56 73/2/56
f 74/2/10 82/2/10 81/2/10
f 75/2/11 83/2/11 82/2/11
f 76/2/12 84/2/12 83/2/12
f 77/2/13 85/2/13 84/2/13
f 78/2/14 86/2/14 85/2/14
f 79/2/15 87/2/15 86/2/15
f 80/2/16 88/2/16 87/2/16
f 73/2/17 81/2/17 88/2/17
f 82/2/18 90/2/18 89/2/18
f 82/2/57 83/2/57 91/2/57
f 84/2/20 92/2/20 91/2/20
f 85/2/21 93/2/21 92/2/21
f 86/2/22 94/2/22 93/2/22
f 86/2/58 87/2/58 95/2/58
f 88/2/24 96/2/24 95/2/24
f 81/2/25 89/2/25 96/2/25
f 96/2/26 89/2/26 94/2/26
f 89/2/26 90/2/26 94/2/26
f 90/2/26 91/2/26 92/2/26
f 92/2/26 93/2/26 90/2/26
f 93/2/26 94/2/26 90/2/26
f 97/3/1 104/3/1 99/3/1
f 104/3/1 103/3/1 99/3/1
f 103/3/1 102/3/1 101/3/1
f 101/3/1 100/3/1 103/3/1
f 100/3/1 99/3/1 103/3/1
f 98/3/2 106/3/2 105/3/2
f 99/3/3 107/3/3 106/3/3
f 100/3/4 108/3/4 107/3/4
f 101/3/5 109/3/5 108/3/5
f 102/3/6 110/3/6 109/3/6
f 103/3/29 111/3/29 110/3/29
f 104/3/8 112/3/8 111/3/8
f 97/3/9 105/3/9 112/3/9
f 106/3/10 114/3/10 113/3/10
f 107/3/11 115/3/11 114/3/11
f 108/3/12 116/3/12 115/3/12
f 109/3/13 117/3/13 116/3/13
f 110/3/14 118/3/14 117/3/14
f 111/3/15 119/3/15 118/3/15
f 112/3/16 120/3/16 119/3/16
f 105/3/17 113/3/17 120/3/17
f 114/3/18 122/3/18 121/3/18
f 115/3/19 123/3/19 122/3/19
f 116/3/20 124/3/20 123/3/20
f 116/3/21 117/3/21 125/3/21
f 118/3/22 126/3/22 125/3/22
f 119/3/23 127/3/23 126/3/23
f 120/3/24 128/3/24 127/3/24
f 113/3/25 121/3/25 128/3/25
f 128/3/26 121/3/26 122/3/26
f 122/3/26 123/3/26 128/3/26
f 123/3/26 124/3/26 128/3/26
f 124/3/26 125/3/26 126/3/26
f 126/3/26 127/3/26 124/3/26
f 129/3/1 136/3/1 131/3/1
f 136/3/1 135/3/1 131/3/1
f 135/3/1 134/3/1 133/3/1
f 133/3/1 132/3/1 135/3/1
f 132/3/1 131/3/1 135/3/1
f 130/3/2 138/3/2 137/3/2
f 131/3/3 139/3/3 138/3/3
f 132/3/4 140/3/4 139/3/4
f 133/3/30 141/3/30 140/3/30
f 134/3/6 142/3/6 141/3/6
f 135/3/7 143/3/7 142/3/7
f 136/3/8 144/3/8 143/3/8
f 129/3/9 137/3/9 144/3/9
f 138/3/10 146/3/10 145/3/10
f 139/3/11 147/3/11 146/3/11
f 140/3/12 148/3/12 147/3/12
f 141/3/13 149/3/13 148/3/13
f 142/3/14 150/3/14 149/3/14
f 143/3/15 151/3/15 150/3/15
f 144/3/16 152/3/16 151/3/16
f 137/3/17 145/3/17 152/3/17
f 146/3/18 154/3/18 153/3/18
f 147/3/19 155/3/19 154/3/19
f 148/3/20 156/3/20 155/3/20
f 149/3/21 157/3/21 156/3/21
f 150/3/22 158/3/22 157/3/22
f 151/3/23 159/3/23 158/3/23
f 152/3/24 160/3/24 159/3/24
f 152/3/25 145/3/25 153/3/25
f 160/3/26 153/3/26 154/3/26
f 154/3/26 155/3/26 160/3/26
f 155/3/26 156/3/26 160/3/26
f 156/3/26 157/3/26 158/3/26
f 158/3/26 159/3/26 156/3/26
f 161/3/1 168/3/1 167/3/1
f 167/3/1 166/3/1 161/3/1
f 166/3/1 165/3/1 161/3/1
f 165/3/1 164/3/1 163/3/1
f 163/3/1 162/3/1 165/3/1
f 162/3/2 170/3/2 169/3/2
f 163/3/59 171/3/59 170/3/59
f 164/3/4 172/3/4 171/3/4
f 165/3/55 173/3/55 172/3/55
f 166/3/6 174/3/6 173/3/6
f 167/3/60 175/3/60 174/3/60
f 168/3/8 176/3/8 175/3/8
f 161/3/56 169/3/56 176/3/56
f 170/3/10 178/3/10 177/3/10
f 171/3/11 179/3/11 178/3/11
f 172/3/12 180/3/12 179/3/12
f 173/3/13 181/3/13 180/3/13
f 174/3/14 182/3/14 181/3/14
f 175/3/15 183/3/15 182/3/15
f 176/3/16 184/3/16 183/3/16
f 169/3/17 177/3/17 184/3/17
f 178/3/18 186/3/18 185/3/18
f 179/3/57 187/3/57 186/3/57
f 180/3/20 188/3/20 187/3/20
f 181/3/27 189/3/27 188/3/27
f 182/3/22 190/3/22 189/3/22
f 183/3/58 191/3/58 190/3/58
f 184/3/24 192/3/24 191/3/24
f 177/3/28 185/3/28 192/3/28
f 192/3/26 185/3/26 190/3/26
f 185/3/26 186/3/26 190/3/26
f 186/3/26 187/3/26 188/3/26
f 188/3/26 189/3/26 186/3/26
f 189/3/26 190/3/26 186/3/26
f 193/4/1 200/4/1 199/4/1
f 199/4/1 198/4/1 197/4/1
f 197/4/1 196/4/1 193/4/1
f 196/4/1 195/4/1 193/4/1
f 195/4/1 194/4/1 193/4/1
f 194/4/35 202/4/35 201/4/35
f 195/4/36 203/4/36 202/4/36
f 196/4/37 204/4/37 203/4/37
f 197/4/38 205/4/38 204/4/38
f 198/4/39 206/4/39 205/4/39
f 199/4/40 207/4/40 206/4/40
f 200/4/41 208/4/41 207/4/41
f 193/4/42 201/4/42 208/4/42
f 208/4/26 201/4/26 204/4/26
f 201/4/26 202/4/26 204/4/26
f 202/4/26 203/4/26 204/4/26
f 204/4/26 205/4/26 206/4/26
f 206/4/26 207/4/26 208/4/26
f 212/4/43 211/4/43 210/4/43
f 210/4/44 214/4/44 213/4/44
f 210/4/45 211/4/45 215/4/45
f 212/4/46 216/4/46 215/4/46
f 209/4/47 213/4/47 216/4/47
f 214/4/48 215/4/48 216/4/48
f 220/4/49 219/4/49 218/4/49
f 218/4/50 222/4/50 221/4/50
f 218/4/51 219/4/51 223/4/51
f 219/4/52 220/4/52 224/4/52
f 217/4/53 221/4/53 224/4/53
f 222/4/54 223/4/54 224/4/54
f 227/5/1 226/5/1 225/5/1
f 230/5/26 231/5/26 232/5/26
f 226/5/10 230/5/10 229/5/10
f 227/5/12 231/5/12 230/5/12
f 228/5/14 232/5/14 231/5/14
f 225/5/16 229/5/16 232/5/16
f 235/5/1 234/5/1 233/5/1
f 238/5/26 239/5/26 240/5/26
f 234/5/10 238/5/10 237/5/10
f 235/5/12 239/5/12 238/5/12
f 236/5/14 240/5/14 239/5/14
f 233/5/16 237/5/16 240/5/16
f 243/6/1 242/6/1 241/6/1
f 246/6/26 247/6/26 248/6/26
f 242/6/10 246/6/10 245/6/10
f 243/6/12 247/6/12 246/6/12
f 244/6/14 248/6/14 247/6/14
f 241/6/16 245/6/16 248/6/16
f 251/6/1 250/6/1 249/6/1
f 254/6/26 255/6/26 256/6/26
f 250/6/10 254/6/10 253/6/10
f 251/6/12 255/6/12 254/6/12
f 252/6/14 256/6/14 255/6/14
f 249/6/16 253/6/16 256/6/16
f 257/2/1 264/2/1 263/2/1
f 263/2/1 262/2/1 261/2/1
f 261/2/1 260/2/1 259/2/1
f 259/2/1 258/2/1 261/2/1
f 258/2/1 257/2/1 261/2/1
f 258/2/35 266/2/35 265/2/35
f 259/2/36 267/2/36 266/2/36
f 260/2/37 268/2/37 267/2/37
f 261/2/38 269/2/38 268/2/38
f 262/2/39 270/2/39 269/2/39
f 263/2/40 271/2/40 270/2/40
f 264/2/41 272/2/41 271/2/41
f 257/2/42 265/2/42 272/2/42
f 272/2/26 265/2/26 266/2/26
f 266/2/26 267/2/26 268/2/26
f 268/2/26 269/2/26 270/2/26
f 270/2/26 271/2/26 268/2/26
f 271/2/26 272/2/26 268/2/26
f 275/4/1 274/4/1 273/4/1
f 278/4/26 279/4/26 280/4/26
f 274/4/10 278/4/10 277/4/10
f 275/4/12 279/4/12 278/4/12
f 276/4/14 280/4/14 279/4/14
f 273/4/16 277/4/16 280/4/16
f 283/4/1 282/4/1 281/4/1
f 286/4/26 287/4/26 288/4/26
f 282/4/10 286/4/10 285/4/10
f 283/4/12 287/4/12 286/4/12
f 284/4/14 288/4/14 287/4/14
f 281/4/16 285/4/16 288/4/16
f 289/6/1 296/6/1 291/6/1
f 296/6/1 295/6/1 291/6/1
f 295/6/1 294/6/1 293/6/1
f 293/6/1 292/6/1 295/6/1
f 292/6/1 291/6/1 295/6/1
f 290/6/2 298/6/2 297/6/2
f 290/6/3 291/6/3 299/6/3
f 291/6/4 292/6/4 300/6/4
f 293/6/5 301/6/5 300/6/5
f 293/6/6 294/6/6 302/6/6
f 294/6/7 295/6/7 303/6/7
f 295/6/8 296/6/8 304/6/8
f 289/6/32 297/6/32 304/6/32
f 298/6/10 306/6/10 305/6/10
f 299/6/11 307/6/11 306/6/11
f 300/6/12 308/6/12 307/6/12
f 301/6/13 309/6/13 308/6/13
f 302/6/14 310/6/14 309/6/14
f 303/6/15 311/6/15 310/6/15
f 304/6/16 312/6/16 311/6/16
f 297/6/17 305/6/17 312/6/17
f 305/6/18 306/6/18 314/6/18
f 307/6/19 315/6/19 314/6/19
f 308/6/20 316/6/20 315/6/20
f 308/6/21 309/6/21 317/6/21
f 310/6/22 318/6/22 317/6/22
f 311/6/23 319/6/23 318/6/23
f 312/6/24 320/6/24 319/6/24
f 312/6/25 305/6/25 313/6/25
f 320/6/26 313/6/26 314/6/26
f 314/6/26 315/6/26 320/6/26
f 315/6/26 316/6/26 320/6/26
f 316/6/26 317/6/26 318/6/26
f 318/6/26 319/6/26 316/6/26
