# Blender 5.2.1 LTS
# www.blender.org
mtllib pickup_salvage.mtl
o Body.001
v -0.350000 0.060000 0.310000
v 0.350000 0.060000 0.310000
v 0.350000 0.060000 -0.310000
v -0.350000 0.060000 -0.310000
v -0.350000 0.660000 0.310000
v 0.350000 0.660000 0.310000
v 0.350000 0.660000 -0.310000
v -0.350000 0.660000 -0.310000
v -0.367500 0.660000 0.327500
v 0.367500 0.660000 0.327500
v 0.367500 0.660000 -0.327500
v -0.367500 0.660000 -0.327500
v -0.367500 0.710000 0.327500
v 0.367500 0.710000 0.327500
v 0.367500 0.710000 -0.327500
v -0.367500 0.710000 -0.327500
v -0.227500 0.025000 0.335000
v -0.192500 0.025000 0.335000
v -0.192500 0.025000 -0.335000
v -0.227500 0.025000 -0.335000
v -0.227500 0.695000 0.335000
v -0.192500 0.695000 0.335000
v -0.192500 0.695000 -0.335000
v -0.227500 0.695000 -0.335000
v -0.199000 0.443000 0.347500
v -0.109000 0.443000 0.347500
v -0.109000 0.443000 0.312500
v -0.199000 0.443000 0.312500
v -0.199000 0.553000 0.347500
v -0.109000 0.553000 0.347500
v -0.109000 0.553000 0.312500
v -0.199000 0.553000 0.312500
v 0.192500 0.025000 0.335000
v 0.227500 0.025000 0.335000
v 0.227500 0.025000 -0.335000
v 0.192500 0.025000 -0.335000
v 0.192500 0.695000 0.335000
v 0.227500 0.695000 0.335000
v 0.227500 0.695000 -0.335000
v 0.192500 0.695000 -0.335000
v 0.109000 0.443000 0.347500
v 0.199000 0.443000 0.347500
v 0.199000 0.443000 0.312500
v 0.109000 0.443000 0.312500
v 0.109000 0.553000 0.347500
v 0.199000 0.553000 0.347500
v 0.199000 0.553000 0.312500
v 0.109000 0.553000 0.312500
v -0.100000 0.407000 0.372500
v 0.100000 0.407000 0.372500
v 0.100000 0.407000 0.327500
v -0.100000 0.407000 0.327500
v -0.100000 0.457000 0.372500
v 0.100000 0.457000 0.372500
v 0.100000 0.457000 0.327500
v -0.100000 0.457000 0.327500
v -0.330000 0.835000 -0.120000
v -0.330000 0.804246 -0.045754
v -0.330000 0.730000 -0.015000
v -0.330000 0.655754 -0.045754
v -0.330000 0.625000 -0.120000
v -0.330000 0.655754 -0.194246
v -0.330000 0.730000 -0.225000
v -0.330000 0.804246 -0.194246
v -0.030000 0.835000 -0.120000
v -0.030000 0.804246 -0.045754
v -0.030000 0.730000 -0.015000
v -0.030000 0.655754 -0.045754
v -0.030000 0.625000 -0.120000
v -0.030000 0.655754 -0.194246
v -0.030000 0.730000 -0.225000
v -0.030000 0.804246 -0.194246
v 0.020000 0.835000 0.130000
v 0.020000 0.804246 0.204246
v 0.020000 0.730000 0.235000
v 0.020000 0.655754 0.204246
v 0.020000 0.625000 0.130000
v 0.020000 0.655754 0.055754
v 0.020000 0.730000 0.025000
v 0.020000 0.804246 0.055754
v 0.320000 0.835000 0.130000
v 0.320000 0.804246 0.204246
v 0.320000 0.730000 0.235000
v 0.320000 0.655754 0.204246
v 0.320000 0.625000 0.130000
v 0.320000 0.655754 0.055754
v 0.320000 0.730000 0.025000
v 0.320000 0.804246 0.055754
v -0.150000 0.835000 0.050000
v -0.150000 0.804246 0.124246
v -0.150000 0.730000 0.155000
v -0.150000 0.655754 0.124246
v -0.150000 0.625000 0.050000
v -0.150000 0.655754 -0.024246
v -0.150000 0.730000 -0.055000
v -0.150000 0.804246 -0.024246
v 0.150000 0.835000 0.050000
v 0.150000 0.804246 0.124246
v 0.150000 0.730000 0.155000
v 0.150000 0.655754 0.124246
v 0.150000 0.625000 0.050000
v 0.150000 0.655754 -0.024246
v 0.150000 0.730000 -0.055000
v 0.150000 0.804246 -0.024246
v -0.005000 0.630000 -0.060000
v 0.265000 0.630000 -0.060000
v 0.265000 0.630000 -0.240000
v -0.005000 0.630000 -0.240000
v -0.005000 0.810000 -0.060000
v 0.265000 0.810000 -0.060000
v 0.265000 0.810000 -0.240000
v -0.005000 0.810000 -0.240000
vn -0.0000 -1.0000 -0.0000
vn -0.0000 1.0000 -0.0000
vn -0.0000 -0.0000 1.0000
vn 1.0000 -0.0000 -0.0000
vn -0.0000 -0.0000 -1.0000
vn -1.0000 -0.0000 -0.0000
vn -0.0000 0.9239 0.3827
vn -0.0000 0.3827 0.9239
vn -0.0000 -0.3827 0.9239
vn -0.0000 -0.9239 0.3827
vn -0.0000 -0.9239 -0.3827
vn -0.0000 -0.3827 -0.9239
vn -0.0000 0.3827 -0.9239
vn -0.0000 0.9239 -0.3827
vt 0.125000 0.875000
vt 0.375000 0.125000
vt 0.875000 0.125000
vt 0.375000 0.875000
vt 0.125000 0.625000
s 0
usemtl Field_Palette
f 3/1/1 1/1/1 4/1/1
f 6/1/2 8/1/2 5/1/2
f 2/1/3 5/1/3 1/1/3
f 3/1/4 6/1/4 2/1/4
f 4/1/5 7/1/5 3/1/5
f 1/1/6 8/1/6 4/1/6
f 11/2/1 9/2/1 12/2/1
f 14/2/2 16/2/2 13/2/2
f 10/2/3 13/2/3 9/2/3
f 11/2/4 14/2/4 10/2/4
f 12/2/5 15/2/5 11/2/5
f 9/2/6 16/2/6 12/2/6
f 19/3/1 17/3/1 20/3/1
f 22/3/2 24/3/2 21/3/2
f 18/3/3 21/3/3 17/3/3
f 19/3/4 22/3/4 18/3/4
f 20/3/5 23/3/5 19/3/5
f 17/3/6 24/3/6 20/3/6
f 27/4/1 25/4/1 28/4/1
f 30/4/2 32/4/2 29/4/2
f 26/4/3 29/4/3 25/4/3
f 27/4/4 30/4/4 26/4/4
f 28/4/5 31/4/5 27/4/5
f 25/4/6 32/4/6 28/4/6
f 35/3/1 33/3/1 36/3/1
f 38/3/2 40/3/2 37/3/2
f 34/3/3 37/3/3 33/3/3
f 35/3/4 38/3/4 34/3/4
f 36/3/5 39/3/5 35/3/5
f 33/3/6 40/3/6 36/3/6
f 43/4/1 41/4/1 44/4/1
f 46/4/2 48/4/2 45/4/2
f 42/4/3 45/4/3 41/4/3
f 43/4/4 46/4/4 42/4/4
f 44/4/5 47/4/5 43/4/5
f 41/4/6 48/4/6 44/4/6
f 51/5/1 49/5/1 52/5/1
f 54/5/2 56/5/2 53/5/2
f 50/5/3 53/5/3 49/5/3
f 51/5/4 54/5/4 50/5/4
f 52/5/5 55/5/5 51/5/5
f 49/5/6 56/5/6 52/5/6
f 63/5/6 61/5/6 59/5/6
f 58/5/7 65/5/7 57/5/7
f 59/5/8 66/5/8 58/5/8
f 60/5/9 67/5/9 59/5/9
f 61/5/10 68/5/10 60/5/10
f 62/5/11 69/5/11 61/5/11
f 63/5/12 70/5/12 62/5/12
f 64/5/13 71/5/13 63/5/13
f 57/5/14 72/5/14 64/5/14
f 71/5/4 72/5/4 68/5/4
f 79/5/6 77/5/6 75/5/6
f 74/5/7 81/5/7 73/5/7
f 75/5/8 82/5/8 74/5/8
f 76/5/9 83/5/9 75/5/9
f 77/5/10 84/5/10 76/5/10
f 78/5/11 85/5/11 77/5/11
f 79/5/12 86/5/12 78/5/12
f 80/5/13 87/5/13 79/5/13
f 73/5/14 88/5/14 80/5/14
f 87/5/4 88/5/4 84/5/4
f 95/5/6 93/5/6 91/5/6
f 90/5/7 97/5/7 89/5/7
f 91/5/8 98/5/8 90/5/8
f 92/5/9 99/5/9 91/5/9
f 93/5/10 100/5/10 92/5/10
f 94/5/11 101/5/11 93/5/11
f 95/5/12 102/5/12 94/5/12
f 96/5/13 103/5/13 95/5/13
f 89/5/14 104/5/14 96/5/14
f 103/5/4 104/5/4 100/5/4
f 107/4/1 105/4/1 108/4/1
f 110/4/2 112/4/2 109/4/2
f 106/4/3 109/4/3 105/4/3
f 107/4/4 110/4/4 106/4/4
f 108/4/5 111/4/5 107/4/5
f 105/4/6 112/4/6 108/4/6
f 3/1/1 2/1/1 1/1/1
f 6/1/2 7/1/2 8/1/2
f 2/1/3 6/1/3 5/1/3
f 3/1/4 7/1/4 6/1/4
f 4/1/5 8/1/5 7/1/5
f 1/1/6 5/1/6 8/1/6
f 11/2/1 10/2/1 9/2/1
f 14/2/2 15/2/2 16/2/2
f 10/2/3 14/2/3 13/2/3
f 11/2/4 15/2/4 14/2/4
f 12/2/5 16/2/5 15/2/5
f 9/2/6 13/2/6 16/2/6
f 19/3/1 18/3/1 17/3/1
f 22/3/2 23/3/2 24/3/2
f 18/3/3 22/3/3 21/3/3
f 19/3/4 23/3/4 22/3/4
f 20/3/5 24/3/5 23/3/5
f 17/3/6 21/3/6 24/3/6
f 27/4/1 26/4/1 25/4/1
f 30/4/2 31/4/2 32/4/2
f 26/4/3 30/4/3 29/4/3
f 27/4/4 31/4/4 30/4/4
f 28/4/5 32/4/5 31/4/5
f 25/4/6 29/4/6 32/4/6
f 35/3/1 34/3/1 33/3/1
f 38/3/2 39/3/2 40/3/2
f 34/3/3 38/3/3 37/3/3
f 35/3/4 39/3/4 38/3/4
f 36/3/5 40/3/5 39/3/5
f 33/3/6 37/3/6 40/3/6
f 43/4/1 42/4/1 41/4/1
f 46/4/2 47/4/2 48/4/2
f 42/4/3 46/4/3 45/4/3
f 43/4/4 47/4/4 46/4/4
f 44/4/5 48/4/5 47/4/5
f 41/4/6 45/4/6 48/4/6
f 51/5/1 50/5/1 49/5/1
f 54/5/2 55/5/2 56/5/2
f 50/5/3 54/5/3 53/5/3
f 51/5/4 55/5/4 54/5/4
f 52/5/5 56/5/5 55/5/5
f 49/5/6 53/5/6 56/5/6
f 57/5/6 64/5/6 63/5/6
f 63/5/6 62/5/6 61/5/6
f 61/5/6 60/5/6 59/5/6
f 59/5/6 58/5/6 57/5/6
f 57/5/6 63/5/6 59/5/6
f 58/5/7 66/5/7 65/5/7
f 59/5/8 67/5/8 66/5/8
f 60/5/9 68/5/9 67/5/9
f 61/5/10 69/5/10 68/5/10
f 62/5/11 70/5/11 69/5/11
f 63/5/12 71/5/12 70/5/12
f 64/5/13 72/5/13 71/5/13
f 57/5/14 65/5/14 72/5/14
f 72/5/4 65/5/4 66/5/4
f 66/5/4 67/5/4 72/5/4
f 67/5/4 68/5/4 72/5/4
f 68/5/4 69/5/4 70/5/4
f 70/5/4 71/5/4 68/5/4
f 73/5/6 80/5/6 79/5/6
f 79/5/6 78/5/6 77/5/6
f 77/5/6 76/5/6 75/5/6
f 75/5/6 74/5/6 73/5/6
f 73/5/6 79/5/6 75/5/6
f 74/5/7 82/5/7 81/5/7
f 75/5/8 83/5/8 82/5/8
f 76/5/9 84/5/9 83/5/9
f 77/5/10 85/5/10 84/5/10
f 78/5/11 86/5/11 85/5/11
f 79/5/12 87/5/12 86/5/12
f 80/5/13 88/5/13 87/5/13
f 73/5/14 81/5/14 88/5/14
f 88/5/4 81/5/4 82/5/4
f 82/5/4 83/5/4 88/5/4
f 83/5/4 84/5/4 88/5/4
f 84/5/4 85/5/4 86/5/4
f 86/5/4 87/5/4 84/5/4
f 89/5/6 96/5/6 95/5/6
f 95/5/6 94/5/6 93/5/6
f 93/5/6 92/5/6 91/5/6
f 91/5/6 90/5/6 89/5/6
f 89/5/6 95/5/6 91/5/6
f 90/5/7 98/5/7 97/5/7
f 91/5/8 99/5/8 98/5/8
f 92/5/9 100/5/9 99/5/9
f 93/5/10 101/5/10 100/5/10
f 94/5/11 102/5/11 101/5/11
f 95/5/12 103/5/12 102/5/12
f 96/5/13 104/5/13 103/5/13
f 89/5/14 97/5/14 104/5/14
f 104/5/4 97/5/4 98/5/4
f 98/5/4 99/5/4 104/5/4
f 99/5/4 100/5/4 104/5/4
f 100/5/4 101/5/4 102/5/4
f 102/5/4 103/5/4 100/5/4
f 107/4/1 106/4/1 105/4/1
f 110/4/2 111/4/2 112/4/2
f 106/4/3 110/4/3 109/4/3
f 107/4/4 111/4/4 110/4/4
f 108/4/5 112/4/5 111/4/5
f 105/4/6 109/4/6 112/4/6
